<?xml version="1.0" standalone="no"?>
 <!DOCTYPE svg PUBLIC "-//W3C//DTD SVG 1.1//EN" 
 "http://www.w3.org/Graphics/SVG/1.1/DTD/svg11.dtd"> 
<svg
  xmlns:svg="http://www.w3.org/2000/svg"
  xmlns="http://www.w3.org/2000/svg"
  xmlns:xlink="http://www.w3.org/1999/xlink"
  version="1.1"
  width="29.700220cm" height="21.000720cm" viewBox="0 0 297002200 210007200">
<title>SVG Picture created as kicadBoard-F_Fab.svg date 2022/11/20 06:12:58 </title>
  <desc>Picture generated by PCBNEW </desc>
<g style="fill:#000000; fill-opacity:1.000000;stroke:#000000; stroke-opacity:1.000000;
stroke-linecap:round; stroke-linejoin:round;"
 transform="translate(0 0) scale(1 1)">
</g>
<g style="fill:#000000; fill-opacity:0.0; 
stroke:#000000; stroke-width:0.000000; stroke-opacity:1; 
stroke-linecap:round; stroke-linejoin:round;">
</g>
<g style="fill:#000000; fill-opacity:0.0; 
stroke:#000000; stroke-width:21200.000000; stroke-opacity:1; 
stroke-linecap:round; stroke-linejoin:round;">
</g>
<g style="fill:#000000; fill-opacity:0.0; 
stroke:#000000; stroke-width:150000.000000; stroke-opacity:1; 
stroke-linecap:round; stroke-linejoin:round;">
<rect x="177002200.000000" y="166007200.000000" width="108000000.000000" height="32000000.000000" rx="0.000000" />
</g>
<g style="fill:#000000; fill-opacity:0.0; 
stroke:#000000; stroke-width:21200.000000; stroke-opacity:1; 
stroke-linecap:round; stroke-linejoin:round;">
</g>
<g style="fill:#000000; fill-opacity:0.0; 
stroke:#000000; stroke-width:150000.000000; stroke-opacity:1; 
stroke-linecap:round; stroke-linejoin:round;">
<rect x="10000000.000000" y="10000000.000000" width="277002200.000000" height="190007200.000000" rx="0.000000" />
</g>
<g style="fill:#000000; fill-opacity:0.0; 
stroke:#000000; stroke-width:21200.000000; stroke-opacity:1; 
stroke-linecap:round; stroke-linejoin:round;">
</g>
<g style="fill:#000000; fill-opacity:0.0; 
stroke:#000000; stroke-width:150000.000000; stroke-opacity:1; 
stroke-linecap:round; stroke-linejoin:round;">
<rect x="12000000.000000" y="12000000.000000" width="273002200.000000" height="186007200.000000" rx="0.000000" />
</g>
<g style="fill:#000000; fill-opacity:0.0; 
stroke:#000000; stroke-width:21200.000000; stroke-opacity:1; 
stroke-linecap:round; stroke-linejoin:round;">
</g>
<g style="fill:#000000; fill-opacity:0.0; 
stroke:#000000; stroke-width:150000.000000; stroke-opacity:1; 
stroke-linecap:round; stroke-linejoin:round;">
<path d="M60000000 12000000
L60000000 10000000
" />
</g>
<g style="fill:#000000; fill-opacity:0.0; 
stroke:#000000; stroke-width:21200.000000; stroke-opacity:1; 
stroke-linecap:round; stroke-linejoin:round;">
</g>
<g style="fill:#000000; fill-opacity:0.0; 
stroke:#000000; stroke-width:150000.000000; stroke-opacity:1; 
stroke-linecap:round; stroke-linejoin:round;">
<path d="M110000000 12000000
L110000000 10000000
" />
</g>
<g style="fill:#000000; fill-opacity:0.0; 
stroke:#000000; stroke-width:21200.000000; stroke-opacity:1; 
stroke-linecap:round; stroke-linejoin:round;">
</g>
<g style="fill:#000000; fill-opacity:0.0; 
stroke:#000000; stroke-width:150000.000000; stroke-opacity:1; 
stroke-linecap:round; stroke-linejoin:round;">
<path d="M160000000 12000000
L160000000 10000000
" />
</g>
<g style="fill:#000000; fill-opacity:0.0; 
stroke:#000000; stroke-width:21200.000000; stroke-opacity:1; 
stroke-linecap:round; stroke-linejoin:round;">
</g>
<g style="fill:#000000; fill-opacity:0.0; 
stroke:#000000; stroke-width:150000.000000; stroke-opacity:1; 
stroke-linecap:round; stroke-linejoin:round;">
<path d="M210000000 12000000
L210000000 10000000
" />
</g>
<g style="fill:#000000; fill-opacity:0.0; 
stroke:#000000; stroke-width:21200.000000; stroke-opacity:1; 
stroke-linecap:round; stroke-linejoin:round;">
</g>
<g style="fill:#000000; fill-opacity:0.0; 
stroke:#000000; stroke-width:150000.000000; stroke-opacity:1; 
stroke-linecap:round; stroke-linejoin:round;">
<path d="M260000000 12000000
L260000000 10000000
" />
</g>
<g style="fill:#000000; fill-opacity:0.0; 
stroke:#000000; stroke-width:21200.000000; stroke-opacity:1; 
stroke-linecap:round; stroke-linejoin:round;">
</g>
<g style="fill:#000000; fill-opacity:0.0; 
stroke:#000000; stroke-width:150000.000000; stroke-opacity:1; 
stroke-linecap:round; stroke-linejoin:round;">
<text x="35000000.000000" y="11650000.000000"
textLength="1388095.000000" font-size="1733333.000000" lengthAdjust="spacingAndGlyphs"
text-anchor="start" opacity="0">1</text>
<g class="stroked-text"><desc>1</desc>
<path d="M36065476 11588095
L35322619 11588095
" />
<path d="M35694047 11588095
L35694047 10288095
L35570238 10473809
L35446428 10597619
L35322619 10659523
" />
</g></g>
<g style="fill:#000000; fill-opacity:0.0; 
stroke:#000000; stroke-width:21200.000000; stroke-opacity:1; 
stroke-linecap:round; stroke-linejoin:round;">
</g>
<g style="fill:#000000; fill-opacity:0.0; 
stroke:#000000; stroke-width:150000.000000; stroke-opacity:1; 
stroke-linecap:round; stroke-linejoin:round;">
<text x="85000000.000000" y="11650000.000000"
textLength="1388095.000000" font-size="1733333.000000" lengthAdjust="spacingAndGlyphs"
text-anchor="start" opacity="0">2</text>
<g class="stroked-text"><desc>2</desc>
<path d="M85322619 10411904
L85384523 10350000
L85508333 10288095
L85817857 10288095
L85941666 10350000
L86003571 10411904
L86065476 10535714
L86065476 10659523
L86003571 10845238
L85260714 11588095
L86065476 11588095
" />
</g></g>
<g style="fill:#000000; fill-opacity:0.0; 
stroke:#000000; stroke-width:21200.000000; stroke-opacity:1; 
stroke-linecap:round; stroke-linejoin:round;">
</g>
<g style="fill:#000000; fill-opacity:0.0; 
stroke:#000000; stroke-width:150000.000000; stroke-opacity:1; 
stroke-linecap:round; stroke-linejoin:round;">
<text x="135000000.000000" y="11650000.000000"
textLength="1388095.000000" font-size="1733333.000000" lengthAdjust="spacingAndGlyphs"
text-anchor="start" opacity="0">3</text>
<g class="stroked-text"><desc>3</desc>
<path d="M135260714 10288095
L136065476 10288095
L135632142 10783333
L135817857 10783333
L135941666 10845238
L136003571 10907142
L136065476 11030952
L136065476 11340476
L136003571 11464285
L135941666 11526190
L135817857 11588095
L135446428 11588095
L135322619 11526190
L135260714 11464285
" />
</g></g>
<g style="fill:#000000; fill-opacity:0.0; 
stroke:#000000; stroke-width:21200.000000; stroke-opacity:1; 
stroke-linecap:round; stroke-linejoin:round;">
</g>
<g style="fill:#000000; fill-opacity:0.0; 
stroke:#000000; stroke-width:150000.000000; stroke-opacity:1; 
stroke-linecap:round; stroke-linejoin:round;">
<text x="185000000.000000" y="11650000.000000"
textLength="1388095.000000" font-size="1733333.000000" lengthAdjust="spacingAndGlyphs"
text-anchor="start" opacity="0">4</text>
<g class="stroked-text"><desc>4</desc>
<path d="M185941666 10721428
L185941666 11588095
" />
<path d="M185632142 10226190
L185322619 11154761
L186127380 11154761
" />
</g></g>
<g style="fill:#000000; fill-opacity:0.0; 
stroke:#000000; stroke-width:21200.000000; stroke-opacity:1; 
stroke-linecap:round; stroke-linejoin:round;">
</g>
<g style="fill:#000000; fill-opacity:0.0; 
stroke:#000000; stroke-width:150000.000000; stroke-opacity:1; 
stroke-linecap:round; stroke-linejoin:round;">
<text x="235000000.000000" y="11650000.000000"
textLength="1388095.000000" font-size="1733333.000000" lengthAdjust="spacingAndGlyphs"
text-anchor="start" opacity="0">5</text>
<g class="stroked-text"><desc>5</desc>
<path d="M236003571 10288095
L235384523 10288095
L235322619 10907142
L235384523 10845238
L235508333 10783333
L235817857 10783333
L235941666 10845238
L236003571 10907142
L236065476 11030952
L236065476 11340476
L236003571 11464285
L235941666 11526190
L235817857 11588095
L235508333 11588095
L235384523 11526190
L235322619 11464285
" />
</g></g>
<g style="fill:#000000; fill-opacity:0.0; 
stroke:#000000; stroke-width:21200.000000; stroke-opacity:1; 
stroke-linecap:round; stroke-linejoin:round;">
</g>
<g style="fill:#000000; fill-opacity:0.0; 
stroke:#000000; stroke-width:150000.000000; stroke-opacity:1; 
stroke-linecap:round; stroke-linejoin:round;">
<text x="285000000.000000" y="11650000.000000"
textLength="1388095.000000" font-size="1733333.000000" lengthAdjust="spacingAndGlyphs"
text-anchor="start" opacity="0">6</text>
<g class="stroked-text"><desc>6</desc>
<path d="M285941666 10288095
L285694047 10288095
L285570238 10350000
L285508333 10411904
L285384523 10597619
L285322619 10845238
L285322619 11340476
L285384523 11464285
L285446428 11526190
L285570238 11588095
L285817857 11588095
L285941666 11526190
L286003571 11464285
L286065476 11340476
L286065476 11030952
L286003571 10907142
L285941666 10845238
L285817857 10783333
L285570238 10783333
L285446428 10845238
L285384523 10907142
L285322619 11030952
" />
</g></g>
<g style="fill:#000000; fill-opacity:0.0; 
stroke:#000000; stroke-width:21200.000000; stroke-opacity:1; 
stroke-linecap:round; stroke-linejoin:round;">
</g>
<g style="fill:#000000; fill-opacity:0.0; 
stroke:#000000; stroke-width:150000.000000; stroke-opacity:1; 
stroke-linecap:round; stroke-linejoin:round;">
<path d="M60000000 198007200
L60000000 200007200
" />
</g>
<g style="fill:#000000; fill-opacity:0.0; 
stroke:#000000; stroke-width:21200.000000; stroke-opacity:1; 
stroke-linecap:round; stroke-linejoin:round;">
</g>
<g style="fill:#000000; fill-opacity:0.0; 
stroke:#000000; stroke-width:150000.000000; stroke-opacity:1; 
stroke-linecap:round; stroke-linejoin:round;">
<path d="M110000000 198007200
L110000000 200007200
" />
</g>
<g style="fill:#000000; fill-opacity:0.0; 
stroke:#000000; stroke-width:21200.000000; stroke-opacity:1; 
stroke-linecap:round; stroke-linejoin:round;">
</g>
<g style="fill:#000000; fill-opacity:0.0; 
stroke:#000000; stroke-width:150000.000000; stroke-opacity:1; 
stroke-linecap:round; stroke-linejoin:round;">
<path d="M160000000 198007200
L160000000 200007200
" />
</g>
<g style="fill:#000000; fill-opacity:0.0; 
stroke:#000000; stroke-width:21200.000000; stroke-opacity:1; 
stroke-linecap:round; stroke-linejoin:round;">
</g>
<g style="fill:#000000; fill-opacity:0.0; 
stroke:#000000; stroke-width:150000.000000; stroke-opacity:1; 
stroke-linecap:round; stroke-linejoin:round;">
<path d="M210000000 198007200
L210000000 200007200
" />
</g>
<g style="fill:#000000; fill-opacity:0.0; 
stroke:#000000; stroke-width:21200.000000; stroke-opacity:1; 
stroke-linecap:round; stroke-linejoin:round;">
</g>
<g style="fill:#000000; fill-opacity:0.0; 
stroke:#000000; stroke-width:150000.000000; stroke-opacity:1; 
stroke-linecap:round; stroke-linejoin:round;">
<path d="M260000000 198007200
L260000000 200007200
" />
</g>
<g style="fill:#000000; fill-opacity:0.0; 
stroke:#000000; stroke-width:21200.000000; stroke-opacity:1; 
stroke-linecap:round; stroke-linejoin:round;">
</g>
<g style="fill:#000000; fill-opacity:0.0; 
stroke:#000000; stroke-width:150000.000000; stroke-opacity:1; 
stroke-linecap:round; stroke-linejoin:round;">
<text x="35000000.000000" y="199657200.000000"
textLength="1388095.000000" font-size="1733333.000000" lengthAdjust="spacingAndGlyphs"
text-anchor="start" opacity="0">1</text>
<g class="stroked-text"><desc>1</desc>
<path d="M36065476 199595295
L35322619 199595295
" />
<path d="M35694047 199595295
L35694047 198295295
L35570238 198481009
L35446428 198604819
L35322619 198666723
" />
</g></g>
<g style="fill:#000000; fill-opacity:0.0; 
stroke:#000000; stroke-width:21200.000000; stroke-opacity:1; 
stroke-linecap:round; stroke-linejoin:round;">
</g>
<g style="fill:#000000; fill-opacity:0.0; 
stroke:#000000; stroke-width:150000.000000; stroke-opacity:1; 
stroke-linecap:round; stroke-linejoin:round;">
<text x="85000000.000000" y="199657200.000000"
textLength="1388095.000000" font-size="1733333.000000" lengthAdjust="spacingAndGlyphs"
text-anchor="start" opacity="0">2</text>
<g class="stroked-text"><desc>2</desc>
<path d="M85322619 198419104
L85384523 198357200
L85508333 198295295
L85817857 198295295
L85941666 198357200
L86003571 198419104
L86065476 198542914
L86065476 198666723
L86003571 198852438
L85260714 199595295
L86065476 199595295
" />
</g></g>
<g style="fill:#000000; fill-opacity:0.0; 
stroke:#000000; stroke-width:21200.000000; stroke-opacity:1; 
stroke-linecap:round; stroke-linejoin:round;">
</g>
<g style="fill:#000000; fill-opacity:0.0; 
stroke:#000000; stroke-width:150000.000000; stroke-opacity:1; 
stroke-linecap:round; stroke-linejoin:round;">
<text x="135000000.000000" y="199657200.000000"
textLength="1388095.000000" font-size="1733333.000000" lengthAdjust="spacingAndGlyphs"
text-anchor="start" opacity="0">3</text>
<g class="stroked-text"><desc>3</desc>
<path d="M135260714 198295295
L136065476 198295295
L135632142 198790533
L135817857 198790533
L135941666 198852438
L136003571 198914342
L136065476 199038152
L136065476 199347676
L136003571 199471485
L135941666 199533390
L135817857 199595295
L135446428 199595295
L135322619 199533390
L135260714 199471485
" />
</g></g>
<g style="fill:#000000; fill-opacity:0.0; 
stroke:#000000; stroke-width:21200.000000; stroke-opacity:1; 
stroke-linecap:round; stroke-linejoin:round;">
</g>
<g style="fill:#000000; fill-opacity:0.0; 
stroke:#000000; stroke-width:150000.000000; stroke-opacity:1; 
stroke-linecap:round; stroke-linejoin:round;">
<text x="185000000.000000" y="199657200.000000"
textLength="1388095.000000" font-size="1733333.000000" lengthAdjust="spacingAndGlyphs"
text-anchor="start" opacity="0">4</text>
<g class="stroked-text"><desc>4</desc>
<path d="M185941666 198728628
L185941666 199595295
" />
<path d="M185632142 198233390
L185322619 199161961
L186127380 199161961
" />
</g></g>
<g style="fill:#000000; fill-opacity:0.0; 
stroke:#000000; stroke-width:21200.000000; stroke-opacity:1; 
stroke-linecap:round; stroke-linejoin:round;">
</g>
<g style="fill:#000000; fill-opacity:0.0; 
stroke:#000000; stroke-width:150000.000000; stroke-opacity:1; 
stroke-linecap:round; stroke-linejoin:round;">
<text x="235000000.000000" y="199657200.000000"
textLength="1388095.000000" font-size="1733333.000000" lengthAdjust="spacingAndGlyphs"
text-anchor="start" opacity="0">5</text>
<g class="stroked-text"><desc>5</desc>
<path d="M236003571 198295295
L235384523 198295295
L235322619 198914342
L235384523 198852438
L235508333 198790533
L235817857 198790533
L235941666 198852438
L236003571 198914342
L236065476 199038152
L236065476 199347676
L236003571 199471485
L235941666 199533390
L235817857 199595295
L235508333 199595295
L235384523 199533390
L235322619 199471485
" />
</g></g>
<g style="fill:#000000; fill-opacity:0.0; 
stroke:#000000; stroke-width:21200.000000; stroke-opacity:1; 
stroke-linecap:round; stroke-linejoin:round;">
</g>
<g style="fill:#000000; fill-opacity:0.0; 
stroke:#000000; stroke-width:150000.000000; stroke-opacity:1; 
stroke-linecap:round; stroke-linejoin:round;">
<text x="285000000.000000" y="199657200.000000"
textLength="1388095.000000" font-size="1733333.000000" lengthAdjust="spacingAndGlyphs"
text-anchor="start" opacity="0">6</text>
<g class="stroked-text"><desc>6</desc>
<path d="M285941666 198295295
L285694047 198295295
L285570238 198357200
L285508333 198419104
L285384523 198604819
L285322619 198852438
L285322619 199347676
L285384523 199471485
L285446428 199533390
L285570238 199595295
L285817857 199595295
L285941666 199533390
L286003571 199471485
L286065476 199347676
L286065476 199038152
L286003571 198914342
L285941666 198852438
L285817857 198790533
L285570238 198790533
L285446428 198852438
L285384523 198914342
L285322619 199038152
" />
</g></g>
<g style="fill:#000000; fill-opacity:0.0; 
stroke:#000000; stroke-width:21200.000000; stroke-opacity:1; 
stroke-linecap:round; stroke-linejoin:round;">
</g>
<g style="fill:#000000; fill-opacity:0.0; 
stroke:#000000; stroke-width:150000.000000; stroke-opacity:1; 
stroke-linecap:round; stroke-linejoin:round;">
<path d="M10000000 60000000
L12000000 60000000
" />
</g>
<g style="fill:#000000; fill-opacity:0.0; 
stroke:#000000; stroke-width:21200.000000; stroke-opacity:1; 
stroke-linecap:round; stroke-linejoin:round;">
</g>
<g style="fill:#000000; fill-opacity:0.0; 
stroke:#000000; stroke-width:150000.000000; stroke-opacity:1; 
stroke-linecap:round; stroke-linejoin:round;">
<path d="M10000000 110000000
L12000000 110000000
" />
</g>
<g style="fill:#000000; fill-opacity:0.0; 
stroke:#000000; stroke-width:21200.000000; stroke-opacity:1; 
stroke-linecap:round; stroke-linejoin:round;">
</g>
<g style="fill:#000000; fill-opacity:0.0; 
stroke:#000000; stroke-width:150000.000000; stroke-opacity:1; 
stroke-linecap:round; stroke-linejoin:round;">
<path d="M10000000 160000000
L12000000 160000000
" />
</g>
<g style="fill:#000000; fill-opacity:0.0; 
stroke:#000000; stroke-width:21200.000000; stroke-opacity:1; 
stroke-linecap:round; stroke-linejoin:round;">
</g>
<g style="fill:#000000; fill-opacity:0.0; 
stroke:#000000; stroke-width:150000.000000; stroke-opacity:1; 
stroke-linecap:round; stroke-linejoin:round;">
<text x="11000000.000000" y="35650000.000000"
textLength="1264286.000000" font-size="1733333.000000" lengthAdjust="spacingAndGlyphs"
text-anchor="middle" opacity="0">A</text>
<g class="stroked-text"><desc>A</desc>
<path d="M10690476 35216666
L11309523 35216666
" />
<path d="M10566666 35588095
L11000000 34288095
L11433333 35588095
" />
</g></g>
<g style="fill:#000000; fill-opacity:0.0; 
stroke:#000000; stroke-width:21200.000000; stroke-opacity:1; 
stroke-linecap:round; stroke-linejoin:round;">
</g>
<g style="fill:#000000; fill-opacity:0.0; 
stroke:#000000; stroke-width:150000.000000; stroke-opacity:1; 
stroke-linecap:round; stroke-linejoin:round;">
<text x="11000000.000000" y="85650000.000000"
textLength="1450000.000000" font-size="1733333.000000" lengthAdjust="spacingAndGlyphs"
text-anchor="middle" opacity="0">B</text>
<g class="stroked-text"><desc>B</desc>
<path d="M11092857 84907142
L11278571 84969047
L11340476 85030952
L11402380 85154761
L11402380 85340476
L11340476 85464285
L11278571 85526190
L11154761 85588095
L10659523 85588095
L10659523 84288095
L11092857 84288095
L11216666 84350000
L11278571 84411904
L11340476 84535714
L11340476 84659523
L11278571 84783333
L11216666 84845238
L11092857 84907142
L10659523 84907142
" />
</g></g>
<g style="fill:#000000; fill-opacity:0.0; 
stroke:#000000; stroke-width:21200.000000; stroke-opacity:1; 
stroke-linecap:round; stroke-linejoin:round;">
</g>
<g style="fill:#000000; fill-opacity:0.0; 
stroke:#000000; stroke-width:150000.000000; stroke-opacity:1; 
stroke-linecap:round; stroke-linejoin:round;">
<text x="11000000.000000" y="135650000.000000"
textLength="1450000.000000" font-size="1733333.000000" lengthAdjust="spacingAndGlyphs"
text-anchor="middle" opacity="0">C</text>
<g class="stroked-text"><desc>C</desc>
<path d="M11402380 135464285
L11340476 135526190
L11154761 135588095
L11030952 135588095
L10845238 135526190
L10721428 135402380
L10659523 135278571
L10597619 135030952
L10597619 134845238
L10659523 134597619
L10721428 134473809
L10845238 134350000
L11030952 134288095
L11154761 134288095
L11340476 134350000
L11402380 134411904
" />
</g></g>
<g style="fill:#000000; fill-opacity:0.0; 
stroke:#000000; stroke-width:21200.000000; stroke-opacity:1; 
stroke-linecap:round; stroke-linejoin:round;">
</g>
<g style="fill:#000000; fill-opacity:0.0; 
stroke:#000000; stroke-width:150000.000000; stroke-opacity:1; 
stroke-linecap:round; stroke-linejoin:round;">
<text x="11000000.000000" y="185650000.000000"
textLength="1450000.000000" font-size="1733333.000000" lengthAdjust="spacingAndGlyphs"
text-anchor="middle" opacity="0">D</text>
<g class="stroked-text"><desc>D</desc>
<path d="M10659523 185588095
L10659523 184288095
L10969047 184288095
L11154761 184350000
L11278571 184473809
L11340476 184597619
L11402380 184845238
L11402380 185030952
L11340476 185278571
L11278571 185402380
L11154761 185526190
L10969047 185588095
L10659523 185588095
" />
</g></g>
<g style="fill:#000000; fill-opacity:0.0; 
stroke:#000000; stroke-width:21200.000000; stroke-opacity:1; 
stroke-linecap:round; stroke-linejoin:round;">
</g>
<g style="fill:#000000; fill-opacity:0.0; 
stroke:#000000; stroke-width:150000.000000; stroke-opacity:1; 
stroke-linecap:round; stroke-linejoin:round;">
<path d="M287002200 60000000
L285002200 60000000
" />
</g>
<g style="fill:#000000; fill-opacity:0.0; 
stroke:#000000; stroke-width:21200.000000; stroke-opacity:1; 
stroke-linecap:round; stroke-linejoin:round;">
</g>
<g style="fill:#000000; fill-opacity:0.0; 
stroke:#000000; stroke-width:150000.000000; stroke-opacity:1; 
stroke-linecap:round; stroke-linejoin:round;">
<path d="M287002200 110000000
L285002200 110000000
" />
</g>
<g style="fill:#000000; fill-opacity:0.0; 
stroke:#000000; stroke-width:21200.000000; stroke-opacity:1; 
stroke-linecap:round; stroke-linejoin:round;">
</g>
<g style="fill:#000000; fill-opacity:0.0; 
stroke:#000000; stroke-width:150000.000000; stroke-opacity:1; 
stroke-linecap:round; stroke-linejoin:round;">
<path d="M287002200 160000000
L285002200 160000000
" />
</g>
<g style="fill:#000000; fill-opacity:0.0; 
stroke:#000000; stroke-width:21200.000000; stroke-opacity:1; 
stroke-linecap:round; stroke-linejoin:round;">
</g>
<g style="fill:#000000; fill-opacity:0.0; 
stroke:#000000; stroke-width:150000.000000; stroke-opacity:1; 
stroke-linecap:round; stroke-linejoin:round;">
<text x="286002200.000000" y="35650000.000000"
textLength="1264286.000000" font-size="1733333.000000" lengthAdjust="spacingAndGlyphs"
text-anchor="middle" opacity="0">A</text>
<g class="stroked-text"><desc>A</desc>
<path d="M285692676 35216666
L286311723 35216666
" />
<path d="M285568866 35588095
L286002200 34288095
L286435533 35588095
" />
</g></g>
<g style="fill:#000000; fill-opacity:0.0; 
stroke:#000000; stroke-width:21200.000000; stroke-opacity:1; 
stroke-linecap:round; stroke-linejoin:round;">
</g>
<g style="fill:#000000; fill-opacity:0.0; 
stroke:#000000; stroke-width:150000.000000; stroke-opacity:1; 
stroke-linecap:round; stroke-linejoin:round;">
<text x="286002200.000000" y="85650000.000000"
textLength="1450000.000000" font-size="1733333.000000" lengthAdjust="spacingAndGlyphs"
text-anchor="middle" opacity="0">B</text>
<g class="stroked-text"><desc>B</desc>
<path d="M286095057 84907142
L286280771 84969047
L286342676 85030952
L286404580 85154761
L286404580 85340476
L286342676 85464285
L286280771 85526190
L286156961 85588095
L285661723 85588095
L285661723 84288095
L286095057 84288095
L286218866 84350000
L286280771 84411904
L286342676 84535714
L286342676 84659523
L286280771 84783333
L286218866 84845238
L286095057 84907142
L285661723 84907142
" />
</g></g>
<g style="fill:#000000; fill-opacity:0.0; 
stroke:#000000; stroke-width:21200.000000; stroke-opacity:1; 
stroke-linecap:round; stroke-linejoin:round;">
</g>
<g style="fill:#000000; fill-opacity:0.0; 
stroke:#000000; stroke-width:150000.000000; stroke-opacity:1; 
stroke-linecap:round; stroke-linejoin:round;">
<text x="286002200.000000" y="135650000.000000"
textLength="1450000.000000" font-size="1733333.000000" lengthAdjust="spacingAndGlyphs"
text-anchor="middle" opacity="0">C</text>
<g class="stroked-text"><desc>C</desc>
<path d="M286404580 135464285
L286342676 135526190
L286156961 135588095
L286033152 135588095
L285847438 135526190
L285723628 135402380
L285661723 135278571
L285599819 135030952
L285599819 134845238
L285661723 134597619
L285723628 134473809
L285847438 134350000
L286033152 134288095
L286156961 134288095
L286342676 134350000
L286404580 134411904
" />
</g></g>
<g style="fill:#000000; fill-opacity:0.0; 
stroke:#000000; stroke-width:21200.000000; stroke-opacity:1; 
stroke-linecap:round; stroke-linejoin:round;">
</g>
<g style="fill:#000000; fill-opacity:0.0; 
stroke:#000000; stroke-width:150000.000000; stroke-opacity:1; 
stroke-linecap:round; stroke-linejoin:round;">
<text x="286002200.000000" y="185650000.000000"
textLength="1450000.000000" font-size="1733333.000000" lengthAdjust="spacingAndGlyphs"
text-anchor="middle" opacity="0">D</text>
<g class="stroked-text"><desc>D</desc>
<path d="M285661723 185588095
L285661723 184288095
L285971247 184288095
L286156961 184350000
L286280771 184473809
L286342676 184597619
L286404580 184845238
L286404580 185030952
L286342676 185278571
L286280771 185402380
L286156961 185526190
L285971247 185588095
L285661723 185588095
" />
</g></g>
<g style="fill:#000000; fill-opacity:0.0; 
stroke:#000000; stroke-width:21200.000000; stroke-opacity:1; 
stroke-linecap:round; stroke-linejoin:round;">
</g>
<g style="fill:#000000; fill-opacity:0.0; 
stroke:#000000; stroke-width:150000.000000; stroke-opacity:1; 
stroke-linecap:round; stroke-linejoin:round;">
<text x="200002200.000000" y="193857200.000000"
textLength="7007143.000000" font-size="2000000.000000" lengthAdjust="spacingAndGlyphs"
text-anchor="start" opacity="0">Date: </text>
<g class="stroked-text"><desc>Date: </desc>
<path d="M200434342 193785771
L200434342 192285771
L200791485 192285771
L201005771 192357200
L201148628 192500057
L201220057 192642914
L201291485 192928628
L201291485 193142914
L201220057 193428628
L201148628 193571485
L201005771 193714342
L200791485 193785771
L200434342 193785771
" />
<path d="M202577200 193785771
L202577200 193000057
L202505771 192857200
L202362914 192785771
L202077200 192785771
L201934342 192857200
" />
<path d="M202577200 193714342
L202434342 193785771
L202077200 193785771
L201934342 193714342
L201862914 193571485
L201862914 193428628
L201934342 193285771
L202077200 193214342
L202434342 193214342
L202577200 193142914
" />
<path d="M203077200 192785771
L203648628 192785771
" />
<path d="M203291485 192285771
L203291485 193571485
L203362914 193714342
L203505771 193785771
L203648628 193785771
" />
<path d="M204720057 193714342
L204577200 193785771
L204291485 193785771
L204148628 193714342
L204077200 193571485
L204077200 193000057
L204148628 192857200
L204291485 192785771
L204577200 192785771
L204720057 192857200
L204791485 193000057
L204791485 193142914
L204077200 193285771
" />
<path d="M205434342 193642914
L205505771 193714342
L205434342 193785771
L205362914 193714342
L205434342 193642914
L205434342 193785771
" />
<path d="M205434342 192857200
L205505771 192928628
L205434342 193000057
L205362914 192928628
L205434342 192857200
L205434342 193000057
" />
</g></g>
<g style="fill:#000000; fill-opacity:0.0; 
stroke:#000000; stroke-width:21200.000000; stroke-opacity:1; 
stroke-linecap:round; stroke-linejoin:round;">
</g>
<g style="fill:#000000; fill-opacity:0.0; 
stroke:#000000; stroke-width:150000.000000; stroke-opacity:1; 
stroke-linecap:round; stroke-linejoin:round;">
<path d="M177002200 194507200
L285002200 194507200
" />
</g>
<g style="fill:#000000; fill-opacity:0.0; 
stroke:#000000; stroke-width:21200.000000; stroke-opacity:1; 
stroke-linecap:round; stroke-linejoin:round;">
</g>
<g style="fill:#000000; fill-opacity:0.0; 
stroke:#000000; stroke-width:150000.000000; stroke-opacity:1; 
stroke-linecap:round; stroke-linejoin:round;">
<text x="178002200.000000" y="196657200.000000"
textLength="33364286.000000" font-size="2000000.000000" lengthAdjust="spacingAndGlyphs"
text-anchor="start" opacity="0">KiCad E.D.A.  pcbnew (6.0.9)</text>
<g class="stroked-text"><desc>KiCad E.D.A.  pcbnew (6.0.9)</desc>
<path d="M178434342 196585771
L178434342 195085771
" />
<path d="M179291485 196585771
L178648628 195728628
" />
<path d="M179291485 195085771
L178434342 195942914
" />
<path d="M179934342 196585771
L179934342 195585771
" />
<path d="M179934342 195085771
L179862914 195157200
L179934342 195228628
L180005771 195157200
L179934342 195085771
L179934342 195228628
" />
<path d="M181505771 196442914
L181434342 196514342
L181220057 196585771
L181077200 196585771
L180862914 196514342
L180720057 196371485
L180648628 196228628
L180577200 195942914
L180577200 195728628
L180648628 195442914
L180720057 195300057
L180862914 195157200
L181077200 195085771
L181220057 195085771
L181434342 195157200
L181505771 195228628
" />
<path d="M182791485 196585771
L182791485 195800057
L182720057 195657200
L182577200 195585771
L182291485 195585771
L182148628 195657200
" />
<path d="M182791485 196514342
L182648628 196585771
L182291485 196585771
L182148628 196514342
L182077200 196371485
L182077200 196228628
L182148628 196085771
L182291485 196014342
L182648628 196014342
L182791485 195942914
" />
<path d="M184148628 196585771
L184148628 195085771
" />
<path d="M184148628 196514342
L184005771 196585771
L183720057 196585771
L183577200 196514342
L183505771 196442914
L183434342 196300057
L183434342 195871485
L183505771 195728628
L183577200 195657200
L183720057 195585771
L184005771 195585771
L184148628 195657200
" />
<path d="M186005771 195800057
L186505771 195800057
" />
<path d="M186720057 196585771
L186005771 196585771
L186005771 195085771
L186720057 195085771
" />
<path d="M187362914 196442914
L187434342 196514342
L187362914 196585771
L187291485 196514342
L187362914 196442914
L187362914 196585771
" />
<path d="M188077200 196585771
L188077200 195085771
L188434342 195085771
L188648628 195157200
L188791485 195300057
L188862914 195442914
L188934342 195728628
L188934342 195942914
L188862914 196228628
L188791485 196371485
L188648628 196514342
L188434342 196585771
L188077200 196585771
" />
<path d="M189577200 196442914
L189648628 196514342
L189577200 196585771
L189505771 196514342
L189577200 196442914
L189577200 196585771
" />
<path d="M190220057 196157200
L190934342 196157200
" />
<path d="M190077200 196585771
L190577200 195085771
L191077200 196585771
" />
<path d="M191577200 196442914
L191648628 196514342
L191577200 196585771
L191505771 196514342
L191577200 196442914
L191577200 196585771
" />
<path d="M194577200 195585771
L194577200 197085771
" />
<path d="M194577200 195657200
L194720057 195585771
L195005771 195585771
L195148628 195657200
L195220057 195728628
L195291485 195871485
L195291485 196300057
L195220057 196442914
L195148628 196514342
L195005771 196585771
L194720057 196585771
L194577200 196514342
" />
<path d="M196577200 196514342
L196434342 196585771
L196148628 196585771
L196005771 196514342
L195934342 196442914
L195862914 196300057
L195862914 195871485
L195934342 195728628
L196005771 195657200
L196148628 195585771
L196434342 195585771
L196577200 195657200
" />
<path d="M197220057 196585771
L197220057 195085771
" />
<path d="M197220057 195657200
L197362914 195585771
L197648628 195585771
L197791485 195657200
L197862914 195728628
L197934342 195871485
L197934342 196300057
L197862914 196442914
L197791485 196514342
L197648628 196585771
L197362914 196585771
L197220057 196514342
" />
<path d="M198577200 195585771
L198577200 196585771
" />
<path d="M198577200 195728628
L198648628 195657200
L198791485 195585771
L199005771 195585771
L199148628 195657200
L199220057 195800057
L199220057 196585771
" />
<path d="M200505771 196514342
L200362914 196585771
L200077200 196585771
L199934342 196514342
L199862914 196371485
L199862914 195800057
L199934342 195657200
L200077200 195585771
L200362914 195585771
L200505771 195657200
L200577200 195800057
L200577200 195942914
L199862914 196085771
" />
<path d="M201077200 195585771
L201362914 196585771
L201648628 195871485
L201934342 196585771
L202220057 195585771
" />
<path d="M204362914 197157200
L204291485 197085771
L204148628 196871485
L204077200 196728628
L204005771 196514342
L203934342 196157200
L203934342 195871485
L204005771 195514342
L204077200 195300057
L204148628 195157200
L204291485 194942914
L204362914 194871485
" />
<path d="M205577200 195085771
L205291485 195085771
L205148628 195157200
L205077200 195228628
L204934342 195442914
L204862914 195728628
L204862914 196300057
L204934342 196442914
L205005771 196514342
L205148628 196585771
L205434342 196585771
L205577200 196514342
L205648628 196442914
L205720057 196300057
L205720057 195942914
L205648628 195800057
L205577200 195728628
L205434342 195657200
L205148628 195657200
L205005771 195728628
L204934342 195800057
L204862914 195942914
" />
<path d="M206362914 196442914
L206434342 196514342
L206362914 196585771
L206291485 196514342
L206362914 196442914
L206362914 196585771
" />
<path d="M207362914 195085771
L207505771 195085771
L207648628 195157200
L207720057 195228628
L207791485 195371485
L207862914 195657200
L207862914 196014342
L207791485 196300057
L207720057 196442914
L207648628 196514342
L207505771 196585771
L207362914 196585771
L207220057 196514342
L207148628 196442914
L207077200 196300057
L207005771 196014342
L207005771 195657200
L207077200 195371485
L207148628 195228628
L207220057 195157200
L207362914 195085771
" />
<path d="M208505771 196442914
L208577200 196514342
L208505771 196585771
L208434342 196514342
L208505771 196442914
L208505771 196585771
" />
<path d="M209291485 196585771
L209577200 196585771
L209720057 196514342
L209791485 196442914
L209934342 196228628
L210005771 195942914
L210005771 195371485
L209934342 195228628
L209862914 195157200
L209720057 195085771
L209434342 195085771
L209291485 195157200
L209220057 195228628
L209148628 195371485
L209148628 195728628
L209220057 195871485
L209291485 195942914
L209434342 196014342
L209720057 196014342
L209862914 195942914
L209934342 195871485
L210005771 195728628
" />
<path d="M210505771 197157200
L210577200 197085771
L210720057 196871485
L210791485 196728628
L210862914 196514342
L210934342 196157200
L210934342 195871485
L210862914 195514342
L210791485 195300057
L210720057 195157200
L210577200 194942914
L210505771 194871485
" />
</g></g>
<g style="fill:#000000; fill-opacity:0.0; 
stroke:#000000; stroke-width:21200.000000; stroke-opacity:1; 
stroke-linecap:round; stroke-linejoin:round;">
</g>
<g style="fill:#000000; fill-opacity:0.0; 
stroke:#000000; stroke-width:150000.000000; stroke-opacity:1; 
stroke-linecap:round; stroke-linejoin:round;">
<path d="M177002200 191507200
L285002200 191507200
" />
</g>
<g style="fill:#000000; fill-opacity:0.0; 
stroke:#000000; stroke-width:21200.000000; stroke-opacity:1; 
stroke-linecap:round; stroke-linejoin:round;">
</g>
<g style="fill:#000000; fill-opacity:0.0; 
stroke:#000000; stroke-width:300000.000000; stroke-opacity:1; 
stroke-linecap:round; stroke-linejoin:round;">
<text x="263002200.000000" y="193857200.000000"
textLength="5935714.000000" font-size="2000000.000000" lengthAdjust="spacingAndGlyphs"
text-anchor="start" opacity="0">Rev: </text>
<g class="stroked-text"><desc>Rev: </desc>
<path d="M264411485 193785771
L263911485 193071485
" />
<path d="M263554342 193785771
L263554342 192285771
L264125771 192285771
L264268628 192357200
L264340057 192428628
L264411485 192571485
L264411485 192785771
L264340057 192928628
L264268628 193000057
L264125771 193071485
L263554342 193071485
" />
<path d="M265625771 193714342
L265482914 193785771
L265197200 193785771
L265054342 193714342
L264982914 193571485
L264982914 193000057
L265054342 192857200
L265197200 192785771
L265482914 192785771
L265625771 192857200
L265697200 193000057
L265697200 193142914
L264982914 193285771
" />
<path d="M266197200 192785771
L266554342 193785771
L266911485 192785771
" />
<path d="M267482914 193642914
L267554342 193714342
L267482914 193785771
L267411485 193714342
L267482914 193642914
L267482914 193785771
" />
<path d="M267482914 192857200
L267554342 192928628
L267482914 193000057
L267411485 192928628
L267482914 192857200
L267482914 193000057
" />
</g></g>
<g style="fill:#000000; fill-opacity:0.0; 
stroke:#000000; stroke-width:21200.000000; stroke-opacity:1; 
stroke-linecap:round; stroke-linejoin:round;">
</g>
<g style="fill:#000000; fill-opacity:0.0; 
stroke:#000000; stroke-width:150000.000000; stroke-opacity:1; 
stroke-linecap:round; stroke-linejoin:round;">
<text x="178002200.000000" y="193857200.000000"
textLength="9604286.000000" font-size="2000000.000000" lengthAdjust="spacingAndGlyphs"
text-anchor="start" opacity="0">Size: A4</text>
<g class="stroked-text"><desc>Size: A4</desc>
<path d="M178362914 193714342
L178577200 193785771
L178934342 193785771
L179077200 193714342
L179148628 193642914
L179220057 193500057
L179220057 193357200
L179148628 193214342
L179077200 193142914
L178934342 193071485
L178648628 193000057
L178505771 192928628
L178434342 192857200
L178362914 192714342
L178362914 192571485
L178434342 192428628
L178505771 192357200
L178648628 192285771
L179005771 192285771
L179220057 192357200
" />
<path d="M179862914 193785771
L179862914 192785771
" />
<path d="M179862914 192285771
L179791485 192357200
L179862914 192428628
L179934342 192357200
L179862914 192285771
L179862914 192428628
" />
<path d="M180434342 192785771
L181220057 192785771
L180434342 193785771
L181220057 193785771
" />
<path d="M182362914 193714342
L182220057 193785771
L181934342 193785771
L181791485 193714342
L181720057 193571485
L181720057 193000057
L181791485 192857200
L181934342 192785771
L182220057 192785771
L182362914 192857200
L182434342 193000057
L182434342 193142914
L181720057 193285771
" />
<path d="M183077200 193642914
L183148628 193714342
L183077200 193785771
L183005771 193714342
L183077200 193642914
L183077200 193785771
" />
<path d="M183077200 192857200
L183148628 192928628
L183077200 193000057
L183005771 192928628
L183077200 192857200
L183077200 193000057
" />
<path d="M184862914 193357200
L185577200 193357200
" />
<path d="M184720057 193785771
L185220057 192285771
L185720057 193785771
" />
<path d="M186862914 192785771
L186862914 193785771
" />
<path d="M186505771 192214342
L186148628 193285771
L187077200 193285771
" />
</g></g>
<g style="fill:#000000; fill-opacity:0.0; 
stroke:#000000; stroke-width:21200.000000; stroke-opacity:1; 
stroke-linecap:round; stroke-linejoin:round;">
</g>
<g style="fill:#000000; fill-opacity:0.0; 
stroke:#000000; stroke-width:150000.000000; stroke-opacity:1; 
stroke-linecap:round; stroke-linejoin:round;">
<text x="263002200.000000" y="196657200.000000"
textLength="8507143.000000" font-size="2000000.000000" lengthAdjust="spacingAndGlyphs"
text-anchor="start" opacity="0">Id: 1/1</text>
<g class="stroked-text"><desc>Id: 1/1</desc>
<path d="M263434342 196585771
L263434342 195085771
" />
<path d="M264791485 196585771
L264791485 195085771
" />
<path d="M264791485 196514342
L264648628 196585771
L264362914 196585771
L264220057 196514342
L264148628 196442914
L264077200 196300057
L264077200 195871485
L264148628 195728628
L264220057 195657200
L264362914 195585771
L264648628 195585771
L264791485 195657200
" />
<path d="M265505771 196442914
L265577200 196514342
L265505771 196585771
L265434342 196514342
L265505771 196442914
L265505771 196585771
" />
<path d="M265505771 195657200
L265577200 195728628
L265505771 195800057
L265434342 195728628
L265505771 195657200
L265505771 195800057
" />
<path d="M268148628 196585771
L267291485 196585771
" />
<path d="M267720057 196585771
L267720057 195085771
L267577200 195300057
L267434342 195442914
L267291485 195514342
" />
<path d="M269862914 195014342
L268577200 196942914
" />
<path d="M271148628 196585771
L270291485 196585771
" />
<path d="M270720057 196585771
L270720057 195085771
L270577200 195300057
L270434342 195442914
L270291485 195514342
" />
</g></g>
<g style="fill:#000000; fill-opacity:0.0; 
stroke:#000000; stroke-width:21200.000000; stroke-opacity:1; 
stroke-linecap:round; stroke-linejoin:round;">
</g>
<g style="fill:#000000; fill-opacity:0.0; 
stroke:#000000; stroke-width:150000.000000; stroke-opacity:1; 
stroke-linecap:round; stroke-linejoin:round;">
<path d="M177002200 187507200
L285002200 187507200
" />
</g>
<g style="fill:#000000; fill-opacity:0.0; 
stroke:#000000; stroke-width:21200.000000; stroke-opacity:1; 
stroke-linecap:round; stroke-linejoin:round;">
</g>
<g style="fill:#000000; fill-opacity:0.0; 
stroke:#000000; stroke-width:400000.000000; stroke-opacity:1; 
stroke-linecap:round; stroke-linejoin:round;">
<text x="178002200.000000" y="190307200.000000"
textLength="9409643.000000" font-size="2666666.000000" lengthAdjust="spacingAndGlyphs"
text-anchor="start" opacity="0">Title: </text>
<g class="stroked-text"><desc>Title: </desc>
<path d="M178714580 188211961
L179857438 188211961
" />
<path d="M179036009 190211961
L179286009 188211961
" />
<path d="M180274104 190211961
L180440771 188878628
" />
<path d="M180524104 188211961
L180416961 188307200
L180500295 188402438
L180607438 188307200
L180524104 188211961
L180500295 188402438
" />
<path d="M181107438 188878628
L181869342 188878628
" />
<path d="M181476485 188211961
L181262200 189926247
L181333628 190116723
L181512200 190211961
L181702676 190211961
" />
<path d="M182655057 190211961
L182476485 190116723
L182405057 189926247
L182619342 188211961
" />
<path d="M184190771 190116723
L183988390 190211961
L183607438 190211961
L183428866 190116723
L183357438 189926247
L183452676 189164342
L183571723 188973866
L183774104 188878628
L184155057 188878628
L184333628 188973866
L184405057 189164342
L184381247 189354819
L183405057 189545295
" />
<path d="M185155057 190021485
L185238390 190116723
L185131247 190211961
L185047914 190116723
L185155057 190021485
L185131247 190211961
" />
<path d="M185286009 188973866
L185369342 189069104
L185262200 189164342
L185178866 189069104
L185286009 188973866
L185262200 189164342
" />
</g></g>
<g style="fill:#000000; fill-opacity:0.0; 
stroke:#000000; stroke-width:21200.000000; stroke-opacity:1; 
stroke-linecap:round; stroke-linejoin:round;">
</g>
<g style="fill:#000000; fill-opacity:0.0; 
stroke:#000000; stroke-width:150000.000000; stroke-opacity:1; 
stroke-linecap:round; stroke-linejoin:round;">
<text x="178002200.000000" y="186457200.000000"
textLength="30662857.000000" font-size="2000000.000000" lengthAdjust="spacingAndGlyphs"
text-anchor="start" opacity="0">File: kicadBoard.kicad_pcb</text>
<g class="stroked-text"><desc>File: kicadBoard.kicad_pcb</desc>
<path d="M178934342 185600057
L178434342 185600057
" />
<path d="M178434342 186385771
L178434342 184885771
L179148628 184885771
" />
<path d="M179720057 186385771
L179720057 185385771
" />
<path d="M179720057 184885771
L179648628 184957200
L179720057 185028628
L179791485 184957200
L179720057 184885771
L179720057 185028628
" />
<path d="M180648628 186385771
L180505771 186314342
L180434342 186171485
L180434342 184885771
" />
<path d="M181791485 186314342
L181648628 186385771
L181362914 186385771
L181220057 186314342
L181148628 186171485
L181148628 185600057
L181220057 185457200
L181362914 185385771
L181648628 185385771
L181791485 185457200
L181862914 185600057
L181862914 185742914
L181148628 185885771
" />
<path d="M182505771 186242914
L182577200 186314342
L182505771 186385771
L182434342 186314342
L182505771 186242914
L182505771 186385771
" />
<path d="M182505771 185457200
L182577200 185528628
L182505771 185600057
L182434342 185528628
L182505771 185457200
L182505771 185600057
" />
<path d="M184362914 186385771
L184362914 184885771
" />
<path d="M184505771 185814342
L184934342 186385771
" />
<path d="M184934342 185385771
L184362914 185957200
" />
<path d="M185577200 186385771
L185577200 185385771
" />
<path d="M185577200 184885771
L185505771 184957200
L185577200 185028628
L185648628 184957200
L185577200 184885771
L185577200 185028628
" />
<path d="M186934342 186314342
L186791485 186385771
L186505771 186385771
L186362914 186314342
L186291485 186242914
L186220057 186100057
L186220057 185671485
L186291485 185528628
L186362914 185457200
L186505771 185385771
L186791485 185385771
L186934342 185457200
" />
<path d="M188220057 186385771
L188220057 185600057
L188148628 185457200
L188005771 185385771
L187720057 185385771
L187577200 185457200
" />
<path d="M188220057 186314342
L188077200 186385771
L187720057 186385771
L187577200 186314342
L187505771 186171485
L187505771 186028628
L187577200 185885771
L187720057 185814342
L188077200 185814342
L188220057 185742914
" />
<path d="M189577200 186385771
L189577200 184885771
" />
<path d="M189577200 186314342
L189434342 186385771
L189148628 186385771
L189005771 186314342
L188934342 186242914
L188862914 186100057
L188862914 185671485
L188934342 185528628
L189005771 185457200
L189148628 185385771
L189434342 185385771
L189577200 185457200
" />
<path d="M190791485 185600057
L191005771 185671485
L191077200 185742914
L191148628 185885771
L191148628 186100057
L191077200 186242914
L191005771 186314342
L190862914 186385771
L190291485 186385771
L190291485 184885771
L190791485 184885771
L190934342 184957200
L191005771 185028628
L191077200 185171485
L191077200 185314342
L191005771 185457200
L190934342 185528628
L190791485 185600057
L190291485 185600057
" />
<path d="M192005771 186385771
L191862914 186314342
L191791485 186242914
L191720057 186100057
L191720057 185671485
L191791485 185528628
L191862914 185457200
L192005771 185385771
L192220057 185385771
L192362914 185457200
L192434342 185528628
L192505771 185671485
L192505771 186100057
L192434342 186242914
L192362914 186314342
L192220057 186385771
L192005771 186385771
" />
<path d="M193791485 186385771
L193791485 185600057
L193720057 185457200
L193577200 185385771
L193291485 185385771
L193148628 185457200
" />
<path d="M193791485 186314342
L193648628 186385771
L193291485 186385771
L193148628 186314342
L193077200 186171485
L193077200 186028628
L193148628 185885771
L193291485 185814342
L193648628 185814342
L193791485 185742914
" />
<path d="M194505771 186385771
L194505771 185385771
" />
<path d="M194505771 185671485
L194577200 185528628
L194648628 185457200
L194791485 185385771
L194934342 185385771
" />
<path d="M196077200 186385771
L196077200 184885771
" />
<path d="M196077200 186314342
L195934342 186385771
L195648628 186385771
L195505771 186314342
L195434342 186242914
L195362914 186100057
L195362914 185671485
L195434342 185528628
L195505771 185457200
L195648628 185385771
L195934342 185385771
L196077200 185457200
" />
<path d="M196791485 186242914
L196862914 186314342
L196791485 186385771
L196720057 186314342
L196791485 186242914
L196791485 186385771
" />
<path d="M197505771 186385771
L197505771 184885771
" />
<path d="M197648628 185814342
L198077200 186385771
" />
<path d="M198077200 185385771
L197505771 185957200
" />
<path d="M198720057 186385771
L198720057 185385771
" />
<path d="M198720057 184885771
L198648628 184957200
L198720057 185028628
L198791485 184957200
L198720057 184885771
L198720057 185028628
" />
<path d="M200077200 186314342
L199934342 186385771
L199648628 186385771
L199505771 186314342
L199434342 186242914
L199362914 186100057
L199362914 185671485
L199434342 185528628
L199505771 185457200
L199648628 185385771
L199934342 185385771
L200077200 185457200
" />
<path d="M201362914 186385771
L201362914 185600057
L201291485 185457200
L201148628 185385771
L200862914 185385771
L200720057 185457200
" />
<path d="M201362914 186314342
L201220057 186385771
L200862914 186385771
L200720057 186314342
L200648628 186171485
L200648628 186028628
L200720057 185885771
L200862914 185814342
L201220057 185814342
L201362914 185742914
" />
<path d="M202720057 186385771
L202720057 184885771
" />
<path d="M202720057 186314342
L202577200 186385771
L202291485 186385771
L202148628 186314342
L202077200 186242914
L202005771 186100057
L202005771 185671485
L202077200 185528628
L202148628 185457200
L202291485 185385771
L202577200 185385771
L202720057 185457200
" />
<path d="M203077200 186528628
L204220057 186528628
" />
<path d="M204577200 185385771
L204577200 186885771
" />
<path d="M204577200 185457200
L204720057 185385771
L205005771 185385771
L205148628 185457200
L205220057 185528628
L205291485 185671485
L205291485 186100057
L205220057 186242914
L205148628 186314342
L205005771 186385771
L204720057 186385771
L204577200 186314342
" />
<path d="M206577200 186314342
L206434342 186385771
L206148628 186385771
L206005771 186314342
L205934342 186242914
L205862914 186100057
L205862914 185671485
L205934342 185528628
L206005771 185457200
L206148628 185385771
L206434342 185385771
L206577200 185457200
" />
<path d="M207220057 186385771
L207220057 184885771
" />
<path d="M207220057 185457200
L207362914 185385771
L207648628 185385771
L207791485 185457200
L207862914 185528628
L207934342 185671485
L207934342 186100057
L207862914 186242914
L207791485 186314342
L207648628 186385771
L207362914 186385771
L207220057 186314342
" />
</g></g>
<g style="fill:#000000; fill-opacity:0.0; 
stroke:#000000; stroke-width:21200.000000; stroke-opacity:1; 
stroke-linecap:round; stroke-linejoin:round;">
</g>
<g style="fill:#000000; fill-opacity:0.0; 
stroke:#000000; stroke-width:150000.000000; stroke-opacity:1; 
stroke-linecap:round; stroke-linejoin:round;">
<path d="M177002200 181507200
L285002200 181507200
" />
</g>
<g style="fill:#000000; fill-opacity:0.0; 
stroke:#000000; stroke-width:21200.000000; stroke-opacity:1; 
stroke-linecap:round; stroke-linejoin:round;">
</g>
<g style="fill:#000000; fill-opacity:0.0; 
stroke:#000000; stroke-width:150000.000000; stroke-opacity:1; 
stroke-linecap:round; stroke-linejoin:round;">
<text x="178002200.000000" y="183757200.000000"
textLength="8221429.000000" font-size="2000000.000000" lengthAdjust="spacingAndGlyphs"
text-anchor="start" opacity="0">Sheet: </text>
<g class="stroked-text"><desc>Sheet: </desc>
<path d="M178362914 183614342
L178577200 183685771
L178934342 183685771
L179077200 183614342
L179148628 183542914
L179220057 183400057
L179220057 183257200
L179148628 183114342
L179077200 183042914
L178934342 182971485
L178648628 182900057
L178505771 182828628
L178434342 182757200
L178362914 182614342
L178362914 182471485
L178434342 182328628
L178505771 182257200
L178648628 182185771
L179005771 182185771
L179220057 182257200
" />
<path d="M179862914 183685771
L179862914 182185771
" />
<path d="M180505771 183685771
L180505771 182900057
L180434342 182757200
L180291485 182685771
L180077200 182685771
L179934342 182757200
L179862914 182828628
" />
<path d="M181791485 183614342
L181648628 183685771
L181362914 183685771
L181220057 183614342
L181148628 183471485
L181148628 182900057
L181220057 182757200
L181362914 182685771
L181648628 182685771
L181791485 182757200
L181862914 182900057
L181862914 183042914
L181148628 183185771
" />
<path d="M183077200 183614342
L182934342 183685771
L182648628 183685771
L182505771 183614342
L182434342 183471485
L182434342 182900057
L182505771 182757200
L182648628 182685771
L182934342 182685771
L183077200 182757200
L183148628 182900057
L183148628 183042914
L182434342 183185771
" />
<path d="M183577200 182685771
L184148628 182685771
" />
<path d="M183791485 182185771
L183791485 183471485
L183862914 183614342
L184005771 183685771
L184148628 183685771
" />
<path d="M184648628 183542914
L184720057 183614342
L184648628 183685771
L184577200 183614342
L184648628 183542914
L184648628 183685771
" />
<path d="M184648628 182757200
L184720057 182828628
L184648628 182900057
L184577200 182828628
L184648628 182757200
L184648628 182900057
" />
</g></g>
<g style="fill:#000000; fill-opacity:0.0; 
stroke:#000000; stroke-width:21200.000000; stroke-opacity:1; 
stroke-linecap:round; stroke-linejoin:round;">
</g>
<g style="fill:#000000; fill-opacity:0.0; 
stroke:#000000; stroke-width:300000.000000; stroke-opacity:1; 
stroke-linecap:round; stroke-linejoin:round;">
<text x="178002200.000000" y="180757200.000000"
textLength="150000.000000" font-size="2000000.000000" lengthAdjust="spacingAndGlyphs"
text-anchor="start" opacity="0"></text>
<g class="stroked-text"><desc></desc>
</g></g>
<g style="fill:#000000; fill-opacity:0.0; 
stroke:#000000; stroke-width:21200.000000; stroke-opacity:1; 
stroke-linecap:round; stroke-linejoin:round;">
</g>
<g style="fill:#000000; fill-opacity:0.0; 
stroke:#000000; stroke-width:150000.000000; stroke-opacity:1; 
stroke-linecap:round; stroke-linejoin:round;">
<text x="178002200.000000" y="177757200.000000"
textLength="300000.000000" font-size="2000000.000000" lengthAdjust="spacingAndGlyphs"
text-anchor="start" opacity="0"></text>
<g class="stroked-text"><desc></desc>
</g></g>
<g style="fill:#000000; fill-opacity:0.0; 
stroke:#000000; stroke-width:21200.000000; stroke-opacity:1; 
stroke-linecap:round; stroke-linejoin:round;">
</g>
<g style="fill:#000000; fill-opacity:0.0; 
stroke:#000000; stroke-width:150000.000000; stroke-opacity:1; 
stroke-linecap:round; stroke-linejoin:round;">
<text x="178002200.000000" y="174757200.000000"
textLength="150000.000000" font-size="2000000.000000" lengthAdjust="spacingAndGlyphs"
text-anchor="start" opacity="0"></text>
<g class="stroked-text"><desc></desc>
</g></g>
<g style="fill:#000000; fill-opacity:0.0; 
stroke:#000000; stroke-width:21200.000000; stroke-opacity:1; 
stroke-linecap:round; stroke-linejoin:round;">
</g>
<g style="fill:#000000; fill-opacity:0.0; 
stroke:#000000; stroke-width:150000.000000; stroke-opacity:1; 
stroke-linecap:round; stroke-linejoin:round;">
<text x="178002200.000000" y="171757200.000000"
textLength="150000.000000" font-size="2000000.000000" lengthAdjust="spacingAndGlyphs"
text-anchor="start" opacity="0"></text>
<g class="stroked-text"><desc></desc>
</g></g>
<g style="fill:#000000; fill-opacity:0.0; 
stroke:#000000; stroke-width:21200.000000; stroke-opacity:1; 
stroke-linecap:round; stroke-linejoin:round;">
</g>
<g style="fill:#000000; fill-opacity:0.0; 
stroke:#000000; stroke-width:150000.000000; stroke-opacity:1; 
stroke-linecap:round; stroke-linejoin:round;">
<text x="178002200.000000" y="168757200.000000"
textLength="150000.000000" font-size="2000000.000000" lengthAdjust="spacingAndGlyphs"
text-anchor="start" opacity="0"></text>
<g class="stroked-text"><desc></desc>
</g></g>
<g style="fill:#000000; fill-opacity:0.0; 
stroke:#000000; stroke-width:21200.000000; stroke-opacity:1; 
stroke-linecap:round; stroke-linejoin:round;">
</g>
<g style="fill:#000000; fill-opacity:0.0; 
stroke:#000000; stroke-width:150000.000000; stroke-opacity:1; 
stroke-linecap:round; stroke-linejoin:round;">
<path d="M197002200 191507200
L197002200 194507200
" />
</g>
<g style="fill:#000000; fill-opacity:0.0; 
stroke:#000000; stroke-width:21200.000000; stroke-opacity:1; 
stroke-linecap:round; stroke-linejoin:round;">
</g>
<g style="fill:#000000; fill-opacity:0.0; 
stroke:#000000; stroke-width:150000.000000; stroke-opacity:1; 
stroke-linecap:round; stroke-linejoin:round;">
<path d="M261002200 191507200
L261002200 198007200
" />
</g>
<g style="fill:#AFAFAF; fill-opacity:0.0; 
stroke:#AFAFAF; stroke-width:150000.000000; stroke-opacity:1; 
stroke-linecap:round; stroke-linejoin:round;">
</g>
<g style="fill:#AFAFAF; fill-opacity:0.0; 
stroke:#AFAFAF; stroke-width:121920.000000; stroke-opacity:1; 
stroke-linecap:round; stroke-linejoin:round;">
<text x="152311100.000000" y="118211600.000000"
textLength="150000.000000" font-size="650240.000000" lengthAdjust="spacingAndGlyphs"
text-anchor="start" opacity="0"></text>
<g class="stroked-text"><desc></desc>
</g><g transform="rotate(-90.000000 137579100.000000 103352600.000000)">
<text x="137579100.000000" y="103352600.000000"
textLength="1631406.000000" font-size="650240.000000" lengthAdjust="spacingAndGlyphs"
text-anchor="start" opacity="0">SMD</text>
</g>
<g class="stroked-text"><desc>SMD</desc>
<path d="M137532654 103180460
L137555877 103110792
L137555877 102994677
L137532654 102948232
L137509431 102925009
L137462985 102901786
L137416540 102901786
L137370094 102925009
L137346871 102948232
L137323648 102994677
L137300425 103087569
L137277202 103134014
L137253980 103157237
L137207534 103180460
L137161088 103180460
L137114642 103157237
L137091420 103134014
L137068197 103087569
L137068197 102971454
L137091420 102901786
" />
<path d="M137555877 102692780
L137068197 102692780
L137416540 102530220
L137068197 102367660
L137555877 102367660
" />
<path d="M137555877 102135432
L137068197 102135432
L137068197 102019317
L137091420 101949649
L137137865 101903203
L137184311 101879980
L137277202 101856757
L137346871 101856757
L137439762 101879980
L137486208 101903203
L137532654 101949649
L137555877 102019317
L137555877 102135432
" />
</g></g>
<g style="fill:#AFAFAF; fill-opacity:0.0; 
stroke:#AFAFAF; stroke-width:97536.000000; stroke-opacity:1; 
stroke-linecap:round; stroke-linejoin:round;">
<g transform="rotate(-90.000000 151549100.000000 105003600.000000)">
<text x="151549100.000000" y="105259632.000000"
textLength="2279904.000000" font-size="682752.000000" lengthAdjust="spacingAndGlyphs"
text-anchor="end" opacity="0">0.1uF</text>
</g>
<g class="stroked-text"><desc>0.1uF</desc>
<path d="M151268684 106968950
L151268684 106920182
L151293068 106871414
L151317452 106847030
L151366220 106822646
L151463756 106798262
L151585676 106798262
L151683212 106822646
L151731980 106847030
L151756364 106871414
L151780748 106920182
L151780748 106968950
L151756364 107017718
L151731980 107042102
L151683212 107066486
L151585676 107090870
L151463756 107090870
L151366220 107066486
L151317452 107042102
L151293068 107017718
L151268684 106968950
" />
<path d="M151731980 106578806
L151756364 106554422
L151780748 106578806
L151756364 106603190
L151731980 106578806
L151780748 106578806
" />
<path d="M151780748 106066742
L151780748 106359350
" />
<path d="M151780748 106213046
L151268684 106213046
L151341836 106261814
L151390604 106310582
L151414988 106359350
" />
<path d="M151439372 105627830
L151780748 105627830
" />
<path d="M151439372 105847286
L151707596 105847286
L151756364 105822902
L151780748 105774134
L151780748 105700982
L151756364 105652214
L151731980 105627830
" />
<path d="M151512524 105213302
L151512524 105383990
" />
<path d="M151780748 105383990
L151268684 105383990
L151268684 105140150
" />
</g></g>
<g style="fill:#AFAFAF; fill-opacity:0.0; 
stroke:#AFAFAF; stroke-width:121920.000000; stroke-opacity:1; 
stroke-linecap:round; stroke-linejoin:round;">
<g transform="rotate(-90.000000 153073100.000000 101193600.000000)">
<text x="153073100.000000" y="101681280.000000"
textLength="1682728.000000" font-size="650240.000000" lengthAdjust="spacingAndGlyphs"
text-anchor="middle" opacity="0">4.7k</text>
</g>
<g class="stroked-text"><desc>4.7k</desc>
<path d="M153212437 101646445
L153537557 101646445
" />
<path d="M153026654 101762560
L153374997 101878674
L153374997 101576777
" />
<path d="M153491111 101390994
L153514334 101367771
L153537557 101390994
L153514334 101414217
L153491111 101390994
L153537557 101390994
" />
<path d="M153049877 101205211
L153049877 100880091
L153537557 101089097
" />
<path d="M153537557 100694308
L153049877 100694308
" />
<path d="M153351774 100647862
L153537557 100508525
" />
<path d="M153212437 100508525
L153398220 100694308
" />
</g></g>
<g style="fill:#AFAFAF; fill-opacity:0.0; 
stroke:#AFAFAF; stroke-width:64770.000000; stroke-opacity:1; 
stroke-linecap:round; stroke-linejoin:round;">
<text x="146723100.000000" y="107384215.000000"
textLength="3514380.000000" font-size="590973.000000" lengthAdjust="spacingAndGlyphs"
text-anchor="start" opacity="0">ZOPT220X</text>
<g class="stroked-text"><desc>ZOPT220X</desc>
<path d="M146828519 106919878
L147124005 106919878
L146828519 107363108
L147124005 107363108
" />
<path d="M147377280 106919878
L147461704 106919878
L147503917 106940985
L147546129 106983197
L147567235 107067622
L147567235 107215365
L147546129 107299790
L147503917 107342002
L147461704 107363108
L147377280 107363108
L147335067 107342002
L147292855 107299790
L147271749 107215365
L147271749 107067622
L147292855 106983197
L147335067 106940985
L147377280 106919878
" />
<path d="M147757191 107363108
L147757191 106919878
L147926040 106919878
L147968253 106940985
L147989359 106962091
L148010465 107004303
L148010465 107067622
L147989359 107109834
L147968253 107130940
L147926040 107152046
L147757191 107152046
" />
<path d="M148137102 106919878
L148390377 106919878
" />
<path d="M148263740 107363108
L148263740 106919878
" />
<path d="M148517014 106962091
L148538120 106940985
L148580332 106919878
L148685863 106919878
L148728076 106940985
L148749182 106962091
L148770288 107004303
L148770288 107046515
L148749182 107109834
L148495908 107363108
L148770288 107363108
" />
<path d="M148939138 106962091
L148960244 106940985
L149002456 106919878
L149107987 106919878
L149150200 106940985
L149171306 106962091
L149192412 107004303
L149192412 107046515
L149171306 107109834
L148918031 107363108
L149192412 107363108
" />
<path d="M149466792 106919878
L149509005 106919878
L149551217 106940985
L149572323 106962091
L149593430 107004303
L149614536 107088728
L149614536 107194259
L149593430 107278684
L149572323 107320896
L149551217 107342002
L149509005 107363108
L149466792 107363108
L149424580 107342002
L149403474 107320896
L149382368 107278684
L149361261 107194259
L149361261 107088728
L149382368 107004303
L149403474 106962091
L149424580 106940985
L149466792 106919878
" />
<path d="M149762279 106919878
L150057766 107363108
" />
<path d="M150057766 106919878
L149762279 107363108
" />
</g></g>
<g style="fill:#AFAFAF; fill-opacity:0.0; 
stroke:#AFAFAF; stroke-width:121920.000000; stroke-opacity:1; 
stroke-linecap:round; stroke-linejoin:round;">
<text x="148501100.000000" y="102824280.000000"
textLength="84201.000000" font-size="650240.000000" lengthAdjust="spacingAndGlyphs"
text-anchor="middle" opacity="0"></text>
<g class="stroked-text"><desc></desc>
</g><g transform="rotate(-90.000000 145453100.000000 101193600.000000)">
<text x="145453100.000000" y="101681280.000000"
textLength="1677851.000000" font-size="650240.000000" lengthAdjust="spacingAndGlyphs"
text-anchor="middle" opacity="0">4.7k</text>
</g>
<g class="stroked-text"><desc>4.7k</desc>
<path d="M145592437 101646445
L145917557 101646445
" />
<path d="M145406654 101762560
L145754997 101878674
L145754997 101576777
" />
<path d="M145871111 101390994
L145894334 101367771
L145917557 101390994
L145894334 101414217
L145871111 101390994
L145917557 101390994
" />
<path d="M145429877 101205211
L145429877 100880091
L145917557 101089097
" />
<path d="M145917557 100694308
L145429877 100694308
" />
<path d="M145731774 100647862
L145917557 100508525
" />
<path d="M145592437 100508525
L145778220 100694308
" />
</g></g>
<g style="fill:#AFAFAF; fill-opacity:0.0; 
stroke:#AFAFAF; stroke-width:142240.000000; stroke-opacity:1; 
stroke-linecap:round; stroke-linejoin:round;">
<text x="126911100.000000" y="135483600.000000"
textLength="17139243.000000" font-size="2181013.000000" lengthAdjust="spacingAndGlyphs"
text-anchor="start" opacity="0">DESIGNED BY:</text>
<g class="stroked-text"><desc>DESIGNED BY:</desc>
<path d="M127393022 135405706
L127393022 133769946
L127782489 133769946
L128016169 133847840
L128171956 134003626
L128249849 134159413
L128327742 134470986
L128327742 134704666
L128249849 135016240
L128171956 135172026
L128016169 135327813
L127782489 135405706
L127393022 135405706
" />
<path d="M129028782 134548880
L129574036 134548880
" />
<path d="M129807716 135405706
L129028782 135405706
L129028782 133769946
L129807716 133769946
" />
<path d="M130430862 135327813
L130664542 135405706
L131054009 135405706
L131209796 135327813
L131287689 135249920
L131365582 135094133
L131365582 134938346
L131287689 134782560
L131209796 134704666
L131054009 134626773
L130742436 134548880
L130586649 134470986
L130508756 134393093
L130430862 134237306
L130430862 134081520
L130508756 133925733
L130586649 133847840
L130742436 133769946
L131131902 133769946
L131365582 133847840
" />
<path d="M132066622 135405706
L132066622 133769946
" />
<path d="M133702382 133847840
L133546596 133769946
L133312916 133769946
L133079236 133847840
L132923449 134003626
L132845556 134159413
L132767662 134470986
L132767662 134704666
L132845556 135016240
L132923449 135172026
L133079236 135327813
L133312916 135405706
L133468702 135405706
L133702382 135327813
L133780276 135249920
L133780276 134704666
L133468702 134704666
" />
<path d="M134481316 135405706
L134481316 133769946
L135416036 135405706
L135416036 133769946
" />
<path d="M136194969 134548880
L136740222 134548880
" />
<path d="M136973902 135405706
L136194969 135405706
L136194969 133769946
L136973902 133769946
" />
<path d="M137674942 135405706
L137674942 133769946
L138064409 133769946
L138298089 133847840
L138453876 134003626
L138531769 134159413
L138609662 134470986
L138609662 134704666
L138531769 135016240
L138453876 135172026
L138298089 135327813
L138064409 135405706
L137674942 135405706
" />
<path d="M141102249 134548880
L141335929 134626773
L141413822 134704666
L141491716 134860453
L141491716 135094133
L141413822 135249920
L141335929 135327813
L141180142 135405706
L140556996 135405706
L140556996 133769946
L141102249 133769946
L141258036 133847840
L141335929 133925733
L141413822 134081520
L141413822 134237306
L141335929 134393093
L141258036 134470986
L141102249 134548880
L140556996 134548880
" />
<path d="M142504329 134626773
L142504329 135405706
" />
<path d="M141959076 133769946
L142504329 134626773
L143049582 133769946
" />
<path d="M143594836 135249920
L143672729 135327813
L143594836 135405706
L143516942 135327813
L143594836 135249920
L143594836 135405706
" />
<path d="M143594836 134393093
L143672729 134470986
L143594836 134548880
L143516942 134470986
L143594836 134393093
L143594836 134548880
" />
</g><text x="115481100.000000" y="132943600.000000"
textLength="72236245.000000" font-size="2181013.000000" lengthAdjust="spacingAndGlyphs"
text-anchor="start" opacity="0"> HTTPS://CREATIVECOMMONS.ORG/LICENSES/BY-SA/4.0/</text>
<g class="stroked-text"><desc> HTTPS://CREATIVECOMMONS.ORG/LICENSES/BY-SA/4.0/</desc>
<path d="M117209316 132865706
L117209316 131229946
" />
<path d="M117209316 132008880
L118144036 132008880
" />
<path d="M118144036 132865706
L118144036 131229946
" />
<path d="M118689289 131229946
L119624009 131229946
" />
<path d="M119156649 132865706
L119156649 131229946
" />
<path d="M119935582 131229946
L120870302 131229946
" />
<path d="M120402942 132865706
L120402942 131229946
" />
<path d="M121415556 132865706
L121415556 131229946
L122038702 131229946
L122194489 131307840
L122272382 131385733
L122350276 131541520
L122350276 131775200
L122272382 131930986
L122194489 132008880
L122038702 132086773
L121415556 132086773
" />
<path d="M122973422 132787813
L123207102 132865706
L123596569 132865706
L123752356 132787813
L123830249 132709920
L123908142 132554133
L123908142 132398346
L123830249 132242560
L123752356 132164666
L123596569 132086773
L123284996 132008880
L123129209 131930986
L123051316 131853093
L122973422 131697306
L122973422 131541520
L123051316 131385733
L123129209 131307840
L123284996 131229946
L123674462 131229946
L123908142 131307840
" />
<path d="M124609182 132709920
L124687076 132787813
L124609182 132865706
L124531289 132787813
L124609182 132709920
L124609182 132865706
" />
<path d="M124609182 131853093
L124687076 131930986
L124609182 132008880
L124531289 131930986
L124609182 131853093
L124609182 132008880
" />
<path d="M126556516 131152053
L125154436 133255173
" />
<path d="M128270169 131152053
L126868089 133255173
" />
<path d="M129750142 132709920
L129672249 132787813
L129438569 132865706
L129282782 132865706
L129049102 132787813
L128893316 132632026
L128815422 132476240
L128737529 132164666
L128737529 131930986
L128815422 131619413
L128893316 131463626
L129049102 131307840
L129282782 131229946
L129438569 131229946
L129672249 131307840
L129750142 131385733
" />
<path d="M131385902 132865706
L130840649 132086773
" />
<path d="M130451182 132865706
L130451182 131229946
L131074329 131229946
L131230116 131307840
L131308009 131385733
L131385902 131541520
L131385902 131775200
L131308009 131930986
L131230116 132008880
L131074329 132086773
L130451182 132086773
" />
<path d="M132086942 132008880
L132632196 132008880
" />
<path d="M132865876 132865706
L132086942 132865706
L132086942 131229946
L132865876 131229946
" />
<path d="M133489022 132398346
L134267956 132398346
" />
<path d="M133333236 132865706
L133878489 131229946
L134423742 132865706
" />
<path d="M134735316 131229946
L135670036 131229946
" />
<path d="M135202676 132865706
L135202676 131229946
" />
<path d="M136215289 132865706
L136215289 131229946
" />
<path d="M136760542 131229946
L137305796 132865706
L137851049 131229946
" />
<path d="M138396302 132008880
L138941556 132008880
" />
<path d="M139175236 132865706
L138396302 132865706
L138396302 131229946
L139175236 131229946
" />
<path d="M140810996 132709920
L140733102 132787813
L140499422 132865706
L140343636 132865706
L140109956 132787813
L139954169 132632026
L139876276 132476240
L139798382 132164666
L139798382 131930986
L139876276 131619413
L139954169 131463626
L140109956 131307840
L140343636 131229946
L140499422 131229946
L140733102 131307840
L140810996 131385733
" />
<path d="M141823609 131229946
L142135182 131229946
L142290969 131307840
L142446756 131463626
L142524649 131775200
L142524649 132320453
L142446756 132632026
L142290969 132787813
L142135182 132865706
L141823609 132865706
L141667822 132787813
L141512036 132632026
L141434142 132320453
L141434142 131775200
L141512036 131463626
L141667822 131307840
L141823609 131229946
" />
<path d="M143225689 132865706
L143225689 131229946
L143770942 132398346
L144316196 131229946
L144316196 132865706
" />
<path d="M145095129 132865706
L145095129 131229946
L145640382 132398346
L146185636 131229946
L146185636 132865706
" />
<path d="M147276142 131229946
L147587716 131229946
L147743502 131307840
L147899289 131463626
L147977182 131775200
L147977182 132320453
L147899289 132632026
L147743502 132787813
L147587716 132865706
L147276142 132865706
L147120356 132787813
L146964569 132632026
L146886676 132320453
L146886676 131775200
L146964569 131463626
L147120356 131307840
L147276142 131229946
" />
<path d="M148678222 132865706
L148678222 131229946
L149612942 132865706
L149612942 131229946
" />
<path d="M150313982 132787813
L150547662 132865706
L150937129 132865706
L151092916 132787813
L151170809 132709920
L151248702 132554133
L151248702 132398346
L151170809 132242560
L151092916 132164666
L150937129 132086773
L150625556 132008880
L150469769 131930986
L150391876 131853093
L150313982 131697306
L150313982 131541520
L150391876 131385733
L150469769 131307840
L150625556 131229946
L151015022 131229946
L151248702 131307840
" />
<path d="M151949742 132709920
L152027636 132787813
L151949742 132865706
L151871849 132787813
L151949742 132709920
L151949742 132865706
" />
<path d="M153040249 131229946
L153351822 131229946
L153507609 131307840
L153663396 131463626
L153741289 131775200
L153741289 132320453
L153663396 132632026
L153507609 132787813
L153351822 132865706
L153040249 132865706
L152884462 132787813
L152728676 132632026
L152650782 132320453
L152650782 131775200
L152728676 131463626
L152884462 131307840
L153040249 131229946
" />
<path d="M155377049 132865706
L154831796 132086773
" />
<path d="M154442329 132865706
L154442329 131229946
L155065476 131229946
L155221262 131307840
L155299156 131385733
L155377049 131541520
L155377049 131775200
L155299156 131930986
L155221262 132008880
L155065476 132086773
L154442329 132086773
" />
<path d="M156934916 131307840
L156779129 131229946
L156545449 131229946
L156311769 131307840
L156155982 131463626
L156078089 131619413
L156000196 131930986
L156000196 132164666
L156078089 132476240
L156155982 132632026
L156311769 132787813
L156545449 132865706
L156701236 132865706
L156934916 132787813
L157012809 132709920
L157012809 132164666
L156701236 132164666
" />
<path d="M158882249 131152053
L157480169 133255173
" />
<path d="M160206436 132865706
L159427502 132865706
L159427502 131229946
" />
<path d="M160751689 132865706
L160751689 131229946
" />
<path d="M162465342 132709920
L162387449 132787813
L162153769 132865706
L161997982 132865706
L161764302 132787813
L161608516 132632026
L161530622 132476240
L161452729 132164666
L161452729 131930986
L161530622 131619413
L161608516 131463626
L161764302 131307840
L161997982 131229946
L162153769 131229946
L162387449 131307840
L162465342 131385733
" />
<path d="M163166382 132008880
L163711636 132008880
" />
<path d="M163945316 132865706
L163166382 132865706
L163166382 131229946
L163945316 131229946
" />
<path d="M164646356 132865706
L164646356 131229946
L165581076 132865706
L165581076 131229946
" />
<path d="M166282116 132787813
L166515796 132865706
L166905262 132865706
L167061049 132787813
L167138942 132709920
L167216836 132554133
L167216836 132398346
L167138942 132242560
L167061049 132164666
L166905262 132086773
L166593689 132008880
L166437902 131930986
L166360009 131853093
L166282116 131697306
L166282116 131541520
L166360009 131385733
L166437902 131307840
L166593689 131229946
L166983156 131229946
L167216836 131307840
" />
<path d="M167917876 132008880
L168463129 132008880
" />
<path d="M168696809 132865706
L167917876 132865706
L167917876 131229946
L168696809 131229946
" />
<path d="M169319956 132787813
L169553636 132865706
L169943102 132865706
L170098889 132787813
L170176782 132709920
L170254676 132554133
L170254676 132398346
L170176782 132242560
L170098889 132164666
L169943102 132086773
L169631529 132008880
L169475742 131930986
L169397849 131853093
L169319956 131697306
L169319956 131541520
L169397849 131385733
L169475742 131307840
L169631529 131229946
L170020996 131229946
L170254676 131307840
" />
<path d="M172124116 131152053
L170722036 133255173
" />
<path d="M173214622 132008880
L173448302 132086773
L173526196 132164666
L173604089 132320453
L173604089 132554133
L173526196 132709920
L173448302 132787813
L173292516 132865706
L172669369 132865706
L172669369 131229946
L173214622 131229946
L173370409 131307840
L173448302 131385733
L173526196 131541520
L173526196 131697306
L173448302 131853093
L173370409 131930986
L173214622 132008880
L172669369 132008880
" />
<path d="M174616702 132086773
L174616702 132865706
" />
<path d="M174071449 131229946
L174616702 132086773
L175161956 131229946
" />
<path d="M175707209 132242560
L176953502 132242560
" />
<path d="M177654542 132787813
L177888222 132865706
L178277689 132865706
L178433476 132787813
L178511369 132709920
L178589262 132554133
L178589262 132398346
L178511369 132242560
L178433476 132164666
L178277689 132086773
L177966116 132008880
L177810329 131930986
L177732436 131853093
L177654542 131697306
L177654542 131541520
L177732436 131385733
L177810329 131307840
L177966116 131229946
L178355582 131229946
L178589262 131307840
" />
<path d="M179212409 132398346
L179991342 132398346
" />
<path d="M179056622 132865706
L179601876 131229946
L180147129 132865706
" />
<path d="M181860782 131152053
L180458702 133255173
" />
<path d="M183107076 131775200
L183107076 132865706
" />
<path d="M182717609 131152053
L182328142 132320453
L183340756 132320453
" />
<path d="M183963902 132709920
L184041796 132787813
L183963902 132865706
L183886009 132787813
L183963902 132709920
L183963902 132865706
" />
<path d="M185054409 131229946
L185210196 131229946
L185365982 131307840
L185443876 131385733
L185521769 131541520
L185599662 131853093
L185599662 132242560
L185521769 132554133
L185443876 132709920
L185365982 132787813
L185210196 132865706
L185054409 132865706
L184898622 132787813
L184820729 132709920
L184742836 132554133
L184664942 132242560
L184664942 131853093
L184742836 131541520
L184820729 131385733
L184898622 131307840
L185054409 131229946
" />
<path d="M187469102 131152053
L186067022 133255173
" />
</g><text x="95161100.000000" y="130403600.000000"
textLength="103315685.000000" font-size="2181013.000000" lengthAdjust="spacingAndGlyphs"
text-anchor="start" opacity="0">RELEASED UNDER THE CREATIVE COMMONS ATTRIBUTION SHARE-ALIKE 4.0 LICENSE</text>
<g class="stroked-text"><desc>RELEASED UNDER THE CREATIVE COMMONS ATTRIBUTION SHARE-ALIKE 4.0 LICENSE</desc>
<path d="M96577742 130325706
L96032489 129546773
" />
<path d="M95643022 130325706
L95643022 128689946
L96266169 128689946
L96421956 128767840
L96499849 128845733
L96577742 129001520
L96577742 129235200
L96499849 129390986
L96421956 129468880
L96266169 129546773
L95643022 129546773
" />
<path d="M97278782 129468880
L97824036 129468880
" />
<path d="M98057716 130325706
L97278782 130325706
L97278782 128689946
L98057716 128689946
" />
<path d="M99537689 130325706
L98758756 130325706
L98758756 128689946
" />
<path d="M100082942 129468880
L100628196 129468880
" />
<path d="M100861876 130325706
L100082942 130325706
L100082942 128689946
L100861876 128689946
" />
<path d="M101485022 129858346
L102263956 129858346
" />
<path d="M101329236 130325706
L101874489 128689946
L102419742 130325706
" />
<path d="M102887102 130247813
L103120782 130325706
L103510249 130325706
L103666036 130247813
L103743929 130169920
L103821822 130014133
L103821822 129858346
L103743929 129702560
L103666036 129624666
L103510249 129546773
L103198676 129468880
L103042889 129390986
L102964996 129313093
L102887102 129157306
L102887102 129001520
L102964996 128845733
L103042889 128767840
L103198676 128689946
L103588142 128689946
L103821822 128767840
" />
<path d="M104522862 129468880
L105068116 129468880
" />
<path d="M105301796 130325706
L104522862 130325706
L104522862 128689946
L105301796 128689946
" />
<path d="M106002836 130325706
L106002836 128689946
L106392302 128689946
L106625982 128767840
L106781769 128923626
L106859662 129079413
L106937556 129390986
L106937556 129624666
L106859662 129936240
L106781769 130092026
L106625982 130247813
L106392302 130325706
L106002836 130325706
" />
<path d="M108884889 128689946
L108884889 130014133
L108962782 130169920
L109040676 130247813
L109196462 130325706
L109508036 130325706
L109663822 130247813
L109741716 130169920
L109819609 130014133
L109819609 128689946
" />
<path d="M110598542 130325706
L110598542 128689946
L111533262 130325706
L111533262 128689946
" />
<path d="M112312196 130325706
L112312196 128689946
L112701662 128689946
L112935342 128767840
L113091129 128923626
L113169022 129079413
L113246916 129390986
L113246916 129624666
L113169022 129936240
L113091129 130092026
L112935342 130247813
L112701662 130325706
L112312196 130325706
" />
<path d="M113947956 129468880
L114493209 129468880
" />
<path d="M114726889 130325706
L113947956 130325706
L113947956 128689946
L114726889 128689946
" />
<path d="M116362649 130325706
L115817396 129546773
" />
<path d="M115427929 130325706
L115427929 128689946
L116051076 128689946
L116206862 128767840
L116284756 128845733
L116362649 129001520
L116362649 129235200
L116284756 129390986
L116206862 129468880
L116051076 129546773
L115427929 129546773
" />
<path d="M118076302 128689946
L119011022 128689946
" />
<path d="M118543662 130325706
L118543662 128689946
" />
<path d="M119556276 130325706
L119556276 128689946
" />
<path d="M119556276 129468880
L120490996 129468880
" />
<path d="M120490996 130325706
L120490996 128689946
" />
<path d="M121269929 129468880
L121815182 129468880
" />
<path d="M122048862 130325706
L121269929 130325706
L121269929 128689946
L122048862 128689946
" />
<path d="M124930916 130169920
L124853022 130247813
L124619342 130325706
L124463556 130325706
L124229876 130247813
L124074089 130092026
L123996196 129936240
L123918302 129624666
L123918302 129390986
L123996196 129079413
L124074089 128923626
L124229876 128767840
L124463556 128689946
L124619342 128689946
L124853022 128767840
L124930916 128845733
" />
<path d="M126566676 130325706
L126021422 129546773
" />
<path d="M125631956 130325706
L125631956 128689946
L126255102 128689946
L126410889 128767840
L126488782 128845733
L126566676 129001520
L126566676 129235200
L126488782 129390986
L126410889 129468880
L126255102 129546773
L125631956 129546773
" />
<path d="M127267716 129468880
L127812969 129468880
" />
<path d="M128046649 130325706
L127267716 130325706
L127267716 128689946
L128046649 128689946
" />
<path d="M128669795 129858346
L129448729 129858346
" />
<path d="M128514009 130325706
L129059262 128689946
L129604516 130325706
" />
<path d="M129916089 128689946
L130850809 128689946
" />
<path d="M130383449 130325706
L130383449 128689946
" />
<path d="M131396062 130325706
L131396062 128689946
" />
<path d="M131941316 128689946
L132486569 130325706
L133031822 128689946
" />
<path d="M133577076 129468880
L134122329 129468880
" />
<path d="M134356009 130325706
L133577076 130325706
L133577076 128689946
L134356009 128689946
" />
<path d="M137238062 130169920
L137160169 130247813
L136926489 130325706
L136770702 130325706
L136537022 130247813
L136381236 130092026
L136303342 129936240
L136225449 129624666
L136225449 129390986
L136303342 129079413
L136381236 128923626
L136537022 128767840
L136770702 128689946
L136926489 128689946
L137160169 128767840
L137238062 128845733
" />
<path d="M138250676 128689946
L138562249 128689946
L138718036 128767840
L138873822 128923626
L138951716 129235200
L138951716 129780453
L138873822 130092026
L138718036 130247813
L138562249 130325706
L138250676 130325706
L138094889 130247813
L137939102 130092026
L137861209 129780453
L137861209 129235200
L137939102 128923626
L138094889 128767840
L138250676 128689946
" />
<path d="M139652756 130325706
L139652756 128689946
L140198009 129858346
L140743262 128689946
L140743262 130325706
" />
<path d="M141522196 130325706
L141522196 128689946
L142067449 129858346
L142612702 128689946
L142612702 130325706
" />
<path d="M143703209 128689946
L144014782 128689946
L144170569 128767840
L144326356 128923626
L144404249 129235200
L144404249 129780453
L144326356 130092026
L144170569 130247813
L144014782 130325706
L143703209 130325706
L143547422 130247813
L143391636 130092026
L143313742 129780453
L143313742 129235200
L143391636 128923626
L143547422 128767840
L143703209 128689946
" />
<path d="M145105289 130325706
L145105289 128689946
L146040009 130325706
L146040009 128689946
" />
<path d="M146741049 130247813
L146974729 130325706
L147364196 130325706
L147519982 130247813
L147597876 130169920
L147675769 130014133
L147675769 129858346
L147597876 129702560
L147519982 129624666
L147364196 129546773
L147052622 129468880
L146896836 129390986
L146818942 129313093
L146741049 129157306
L146741049 129001520
L146818942 128845733
L146896836 128767840
L147052622 128689946
L147442089 128689946
L147675769 128767840
" />
<path d="M149545209 129858346
L150324142 129858346
" />
<path d="M149389422 130325706
L149934676 128689946
L150479929 130325706
" />
<path d="M150791502 128689946
L151726222 128689946
" />
<path d="M151258862 130325706
L151258862 128689946
" />
<path d="M152037796 128689946
L152972516 128689946
" />
<path d="M152505156 130325706
L152505156 128689946
" />
<path d="M154452489 130325706
L153907236 129546773
" />
<path d="M153517769 130325706
L153517769 128689946
L154140916 128689946
L154296702 128767840
L154374596 128845733
L154452489 129001520
L154452489 129235200
L154374596 129390986
L154296702 129468880
L154140916 129546773
L153517769 129546773
" />
<path d="M155153529 130325706
L155153529 128689946
" />
<path d="M156477716 129468880
L156711396 129546773
L156789289 129624666
L156867182 129780453
L156867182 130014133
L156789289 130169920
L156711396 130247813
L156555609 130325706
L155932462 130325706
L155932462 128689946
L156477716 128689946
L156633502 128767840
L156711396 128845733
L156789289 129001520
L156789289 129157306
L156711396 129313093
L156633502 129390986
L156477716 129468880
L155932462 129468880
" />
<path d="M157568222 128689946
L157568222 130014133
L157646116 130169920
L157724009 130247813
L157879796 130325706
L158191369 130325706
L158347156 130247813
L158425049 130169920
L158502942 130014133
L158502942 128689946
" />
<path d="M159048196 128689946
L159982916 128689946
" />
<path d="M159515556 130325706
L159515556 128689946
" />
<path d="M160528169 130325706
L160528169 128689946
" />
<path d="M161618676 128689946
L161930249 128689946
L162086036 128767840
L162241822 128923626
L162319716 129235200
L162319716 129780453
L162241822 130092026
L162086036 130247813
L161930249 130325706
L161618676 130325706
L161462889 130247813
L161307102 130092026
L161229209 129780453
L161229209 129235200
L161307102 128923626
L161462889 128767840
L161618676 128689946
" />
<path d="M163020756 130325706
L163020756 128689946
L163955476 130325706
L163955476 128689946
" />
<path d="M165902809 130247813
L166136489 130325706
L166525956 130325706
L166681742 130247813
L166759636 130169920
L166837529 130014133
L166837529 129858346
L166759636 129702560
L166681742 129624666
L166525956 129546773
L166214382 129468880
L166058596 129390986
L165980702 129313093
L165902809 129157306
L165902809 129001520
L165980702 128845733
L166058596 128767840
L166214382 128689946
L166603849 128689946
L166837529 128767840
" />
<path d="M167538569 130325706
L167538569 128689946
" />
<path d="M167538569 129468880
L168473289 129468880
" />
<path d="M168473289 130325706
L168473289 128689946
" />
<path d="M169174329 129858346
L169953262 129858346
" />
<path d="M169018542 130325706
L169563796 128689946
L170109049 130325706
" />
<path d="M171589022 130325706
L171043769 129546773
" />
<path d="M170654302 130325706
L170654302 128689946
L171277449 128689946
L171433236 128767840
L171511129 128845733
L171589022 129001520
L171589022 129235200
L171511129 129390986
L171433236 129468880
L171277449 129546773
L170654302 129546773
" />
<path d="M172290062 129468880
L172835316 129468880
" />
<path d="M173068996 130325706
L172290062 130325706
L172290062 128689946
L173068996 128689946
" />
<path d="M173770036 129702560
L175016329 129702560
" />
<path d="M175717369 129858346
L176496302 129858346
" />
<path d="M175561582 130325706
L176106836 128689946
L176652089 130325706
" />
<path d="M177976276 130325706
L177197342 130325706
L177197342 128689946
" />
<path d="M178521529 130325706
L178521529 128689946
" />
<path d="M179300462 130325706
L179300462 128689946
" />
<path d="M180235182 130325706
L179534142 129390986
" />
<path d="M180235182 128689946
L179300462 129624666
" />
<path d="M180936222 129468880
L181481476 129468880
" />
<path d="M181715156 130325706
L180936222 130325706
L180936222 128689946
L181715156 128689946
" />
<path d="M184363529 129235200
L184363529 130325706
" />
<path d="M183974062 128612053
L183584596 129780453
L184597209 129780453
" />
<path d="M185220356 130169920
L185298249 130247813
L185220356 130325706
L185142462 130247813
L185220356 130169920
L185220356 130325706
" />
<path d="M186310862 128689946
L186466649 128689946
L186622436 128767840
L186700329 128845733
L186778222 129001520
L186856116 129313093
L186856116 129702560
L186778222 130014133
L186700329 130169920
L186622436 130247813
L186466649 130325706
L186310862 130325706
L186155076 130247813
L186077182 130169920
L185999289 130014133
L185921396 129702560
L185921396 129313093
L185999289 129001520
L186077182 128845733
L186155076 128767840
L186310862 128689946
" />
<path d="M189582382 130325706
L188803449 130325706
L188803449 128689946
" />
<path d="M190127636 130325706
L190127636 128689946
" />
<path d="M191841289 130169920
L191763396 130247813
L191529716 130325706
L191373929 130325706
L191140249 130247813
L190984462 130092026
L190906569 129936240
L190828676 129624666
L190828676 129390986
L190906569 129079413
L190984462 128923626
L191140249 128767840
L191373929 128689946
L191529716 128689946
L191763396 128767840
L191841289 128845733
" />
<path d="M192542329 129468880
L193087582 129468880
" />
<path d="M193321262 130325706
L192542329 130325706
L192542329 128689946
L193321262 128689946
" />
<path d="M194022302 130325706
L194022302 128689946
L194957022 130325706
L194957022 128689946
" />
<path d="M195658062 130247813
L195891742 130325706
L196281209 130325706
L196436996 130247813
L196514889 130169920
L196592782 130014133
L196592782 129858346
L196514889 129702560
L196436996 129624666
L196281209 129546773
L195969636 129468880
L195813849 129390986
L195735956 129313093
L195658062 129157306
L195658062 129001520
L195735956 128845733
L195813849 128767840
L195969636 128689946
L196359102 128689946
L196592782 128767840
" />
<path d="M197293822 129468880
L197839076 129468880
" />
<path d="M198072756 130325706
L197293822 130325706
L197293822 128689946
L198072756 128689946
" />
</g></g>
<g style="fill:#AFAFAF; fill-opacity:0.0; 
stroke:#AFAFAF; stroke-width:121920.000000; stroke-opacity:1; 
stroke-linecap:round; stroke-linejoin:round;">
<g transform="rotate(-90.000000 159423100.000000 106654600.000000)">
<text x="159423100.000000" y="106654600.000000"
textLength="1694398.000000" font-size="650240.000000" lengthAdjust="spacingAndGlyphs"
text-anchor="start" opacity="0">SMD</text>
</g>
<g class="stroked-text"><desc>SMD</desc>
<path d="M159376654 106482460
L159399877 106412792
L159399877 106296677
L159376654 106250232
L159353431 106227009
L159306985 106203786
L159260540 106203786
L159214094 106227009
L159190871 106250232
L159167648 106296677
L159144425 106389569
L159121202 106436014
L159097980 106459237
L159051534 106482460
L159005088 106482460
L158958642 106459237
L158935420 106436014
L158912197 106389569
L158912197 106273454
L158935420 106203786
" />
<path d="M159399877 105994780
L158912197 105994780
L159260540 105832220
L158912197 105669660
L159399877 105669660
" />
<path d="M159399877 105437432
L158912197 105437432
L158912197 105321317
L158935420 105251649
L158981865 105205203
L159028311 105181980
L159121202 105158757
L159190871 105158757
L159283762 105181980
L159330208 105205203
L159376654 105251649
L159399877 105321317
L159399877 105437432
" />
</g><text x="142151100.000000" y="118465600.000000"
textLength="1528645.000000" font-size="650240.000000" lengthAdjust="spacingAndGlyphs"
text-anchor="start" opacity="0">PTH</text>
<g class="stroked-text"><desc>PTH</desc>
<path d="M142346462 118442377
L142346462 117954697
L142532245 117954697
L142578690 117977920
L142601913 118001142
L142625136 118047588
L142625136 118117257
L142601913 118163702
L142578690 118186925
L142532245 118210148
L142346462 118210148
" />
<path d="M142764473 117954697
L143043148 117954697
" />
<path d="M142903810 118442377
L142903810 117954697
" />
<path d="M143205708 118442377
L143205708 117954697
" />
<path d="M143205708 118186925
L143484382 118186925
" />
<path d="M143484382 118442377
L143484382 117954697
" />
</g></g>
<g style="fill:#AFAFAF; fill-opacity:1.0; 
stroke:#AFAFAF; stroke-width:1.000000; stroke-opacity:1; 
stroke-linecap:round; stroke-linejoin:round;">
<path style="fill:#AFAFAF; fill-opacity:1.0; 
stroke:#AFAFAF; stroke-width:1.000000; stroke-opacity:1; 
stroke-linecap:round; stroke-linejoin:round;fill-rule:evenodd;"
d="M 153835100.000000,116687600.000000
153327100.000000,116687600.000000
153327100.000000,116179600.000000
153835100.000000,116179600.000000
Z" /> 
</g>
<g style="fill:#AFAFAF; fill-opacity:1.0; 
stroke:#AFAFAF; stroke-width:101600.000000; stroke-opacity:1; 
stroke-linecap:round; stroke-linejoin:round;">
</g>
<g style="fill:#AFAFAF; fill-opacity:0.0; 
stroke:#AFAFAF; stroke-width:101600.000000; stroke-opacity:1; 
stroke-linecap:round; stroke-linejoin:round;">
<path d="M151892100 104647600
L151892100 105359600
" />
<path d="M152743100 104647600
L152743100 105359600
" />
</g>
<g style="fill:#AFAFAF; fill-opacity:1.0; 
stroke:#AFAFAF; stroke-width:1.000000; stroke-opacity:1; 
stroke-linecap:round; stroke-linejoin:round;">
<path style="fill:#AFAFAF; fill-opacity:1.0; 
stroke:#AFAFAF; stroke-width:1.000000; stroke-opacity:1; 
stroke-linecap:round; stroke-linejoin:round;fill-rule:evenodd;"
d="M 152791200.000000,105833900.000000
151841200.000000,105833900.000000
151841200.000000,105333800.000000
152791200.000000,105333800.000000
Z" /> 
<path style="fill:#AFAFAF; fill-opacity:1.0; 
stroke:#AFAFAF; stroke-width:1.000000; stroke-opacity:1; 
stroke-linecap:round; stroke-linejoin:round;fill-rule:evenodd;"
d="M 152791200.000000,104665500.000000
151841200.000000,104665500.000000
151841200.000000,104165400.000000
152791200.000000,104165400.000000
Z" /> 
</g>
<g style="fill:#AFAFAF; fill-opacity:1.0; 
stroke:#AFAFAF; stroke-width:101600.000000; stroke-opacity:1; 
stroke-linecap:round; stroke-linejoin:round;">
</g>
<g style="fill:#AFAFAF; fill-opacity:0.0; 
stroke:#AFAFAF; stroke-width:101600.000000; stroke-opacity:1; 
stroke-linecap:round; stroke-linejoin:round;">
<path d="M152730100 101549600
L152730100 100837600
" />
<path d="M151879100 101549600
L151879100 100837600
" />
</g>
<g style="fill:#AFAFAF; fill-opacity:1.0; 
stroke:#AFAFAF; stroke-width:1.000000; stroke-opacity:1; 
stroke-linecap:round; stroke-linejoin:round;">
<path style="fill:#AFAFAF; fill-opacity:1.0; 
stroke:#AFAFAF; stroke-width:1.000000; stroke-opacity:1; 
stroke-linecap:round; stroke-linejoin:round;fill-rule:evenodd;"
d="M 152781000.000000,102031800.000000
151831000.000000,102031800.000000
151831000.000000,101531700.000000
152781000.000000,101531700.000000
Z" /> 
<path style="fill:#AFAFAF; fill-opacity:1.0; 
stroke:#AFAFAF; stroke-width:1.000000; stroke-opacity:1; 
stroke-linecap:round; stroke-linejoin:round;fill-rule:evenodd;"
d="M 152781000.000000,100863400.000000
151831000.000000,100863400.000000
151831000.000000,100363300.000000
152781000.000000,100363300.000000
Z" /> 
</g>
<g style="fill:#AFAFAF; fill-opacity:1.0; 
stroke:#AFAFAF; stroke-width:127000.000000; stroke-opacity:1; 
stroke-linecap:round; stroke-linejoin:round;">
</g>
<g style="fill:#AFAFAF; fill-opacity:0.0; 
stroke:#AFAFAF; stroke-width:127000.000000; stroke-opacity:1; 
stroke-linecap:round; stroke-linejoin:round;">
<path d="M149601100 104003600
L149601100 106003600
" />
<path d="M147401100 104003600
L149601100 104003600
" />
<path d="M147401100 106003600
L147401100 104003600
" />
<path d="M149601100 106003600
L147401100 106003600
" />
</g>
<g style="fill:#AFAFAF; fill-opacity:1.0; 
stroke:#AFAFAF; stroke-width:1.000000; stroke-opacity:1; 
stroke-linecap:round; stroke-linejoin:round;">
<path style="fill:#AFAFAF; fill-opacity:1.0; 
stroke:#AFAFAF; stroke-width:1.000000; stroke-opacity:1; 
stroke-linecap:round; stroke-linejoin:round;fill-rule:evenodd;"
d="M 147921100.000000,105923600.000000
147481100.000000,105923600.000000
147481100.000000,105383600.000000
147921100.000000,105383600.000000
Z" /> 
<path style="fill:#AFAFAF; fill-opacity:1.0; 
stroke:#AFAFAF; stroke-width:1.000000; stroke-opacity:1; 
stroke-linecap:round; stroke-linejoin:round;fill-rule:evenodd;"
d="M 147921100.000000,104623600.000000
147481100.000000,104623600.000000
147481100.000000,104083600.000000
147921100.000000,104083600.000000
Z" /> 
<path style="fill:#AFAFAF; fill-opacity:1.0; 
stroke:#AFAFAF; stroke-width:1.000000; stroke-opacity:1; 
stroke-linecap:round; stroke-linejoin:round;fill-rule:evenodd;"
d="M 149521100.000000,105923600.000000
149081100.000000,105923600.000000
149081100.000000,105383600.000000
149521100.000000,105383600.000000
Z" /> 
<path style="fill:#AFAFAF; fill-opacity:1.0; 
stroke:#AFAFAF; stroke-width:1.000000; stroke-opacity:1; 
stroke-linecap:round; stroke-linejoin:round;fill-rule:evenodd;"
d="M 148721100.000000,105923600.000000
148281100.000000,105923600.000000
148281100.000000,105383600.000000
148721100.000000,105383600.000000
Z" /> 
<path style="fill:#AFAFAF; fill-opacity:1.0; 
stroke:#AFAFAF; stroke-width:1.000000; stroke-opacity:1; 
stroke-linecap:round; stroke-linejoin:round;fill-rule:evenodd;"
d="M 148721100.000000,104623600.000000
148281100.000000,104623600.000000
148281100.000000,104083600.000000
148721100.000000,104083600.000000
Z" /> 
<path style="fill:#AFAFAF; fill-opacity:1.0; 
stroke:#AFAFAF; stroke-width:1.000000; stroke-opacity:1; 
stroke-linecap:round; stroke-linejoin:round;fill-rule:evenodd;"
d="M 149521100.000000,104623600.000000
149081100.000000,104623600.000000
149081100.000000,104083600.000000
149521100.000000,104083600.000000
Z" /> 
</g>
<g style="fill:#AFAFAF; fill-opacity:1.0; 
stroke:#AFAFAF; stroke-width:101600.000000; stroke-opacity:1; 
stroke-linecap:round; stroke-linejoin:round;">
</g>
<g style="fill:#AFAFAF; fill-opacity:0.0; 
stroke:#AFAFAF; stroke-width:101600.000000; stroke-opacity:1; 
stroke-linecap:round; stroke-linejoin:round;">
<path d="M145110100 101549600
L145110100 100837600
" />
<path d="M144259100 101549600
L144259100 100837600
" />
</g>
<g style="fill:#AFAFAF; fill-opacity:1.0; 
stroke:#AFAFAF; stroke-width:1.000000; stroke-opacity:1; 
stroke-linecap:round; stroke-linejoin:round;">
<path style="fill:#AFAFAF; fill-opacity:1.0; 
stroke:#AFAFAF; stroke-width:1.000000; stroke-opacity:1; 
stroke-linecap:round; stroke-linejoin:round;fill-rule:evenodd;"
d="M 145161000.000000,102031800.000000
144211000.000000,102031800.000000
144211000.000000,101531700.000000
145161000.000000,101531700.000000
Z" /> 
<path style="fill:#AFAFAF; fill-opacity:1.0; 
stroke:#AFAFAF; stroke-width:1.000000; stroke-opacity:1; 
stroke-linecap:round; stroke-linejoin:round;fill-rule:evenodd;"
d="M 145161000.000000,100863400.000000
144211000.000000,100863400.000000
144211000.000000,100363300.000000
145161000.000000,100363300.000000
Z" /> 
<path style="fill:#AFAFAF; fill-opacity:1.0; 
stroke:#AFAFAF; stroke-width:1.000000; stroke-opacity:1; 
stroke-linecap:round; stroke-linejoin:round;fill-rule:evenodd;"
d="M 148755100.000000,116687600.000000
148247100.000000,116687600.000000
148247100.000000,116179600.000000
148755100.000000,116179600.000000
Z" /> 
<path style="fill:#AFAFAF; fill-opacity:1.0; 
stroke:#AFAFAF; stroke-width:1.000000; stroke-opacity:1; 
stroke-linecap:round; stroke-linejoin:round;fill-rule:evenodd;"
d="M 151295100.000000,116687600.000000
150787100.000000,116687600.000000
150787100.000000,116179600.000000
151295100.000000,116179600.000000
Z" /> 
<path style="fill:#AFAFAF; fill-opacity:1.0; 
stroke:#AFAFAF; stroke-width:1.000000; stroke-opacity:1; 
stroke-linecap:round; stroke-linejoin:round;fill-rule:evenodd;"
d="M 146215100.000000,116687600.000000
145707100.000000,116687600.000000
145707100.000000,116179600.000000
146215100.000000,116179600.000000
Z" /> 
<path style="fill:#AFAFAF; fill-opacity:1.0; 
stroke:#AFAFAF; stroke-width:1.000000; stroke-opacity:1; 
stroke-linecap:round; stroke-linejoin:round;fill-rule:evenodd;"
d="M 143675100.000000,116687600.000000
143167100.000000,116687600.000000
143167100.000000,116179600.000000
143675100.000000,116179600.000000
Z" /> 
<g >
</g>
<g >
</g>
<g >
</g>
<g >
</g>
<g >
</g>
<g >
</g>
<g >
</g>
<g >
</g>
<g >
</g>
<g >
</g>
<g >
</g>
<g >
</g>
<g >
</g>
<g >
</g>
<g >
</g>
<g >
</g>
<g >
</g>
<g >
</g>
<g >
</g>
<g >
</g>
</g>
<g style="fill:#000000; fill-opacity:1.0; 
stroke:#000000; stroke-width:1.000000; stroke-opacity:1; 
stroke-linecap:round; stroke-linejoin:round;">
</g>
<g style="fill:#D0D2CD; fill-opacity:1.0; 
stroke:#D0D2CD; stroke-width:1.000000; stroke-opacity:1; 
stroke-linecap:round; stroke-linejoin:round;">
</g>
<g style="fill:#D0D2CD; fill-opacity:1.0; 
stroke:#D0D2CD; stroke-width:203200.000000; stroke-opacity:1; 
stroke-linecap:round; stroke-linejoin:round;">
</g>
<g style="fill:#D0D2CD; fill-opacity:0.0; 
stroke:#D0D2CD; stroke-width:203200.000000; stroke-opacity:1; 
stroke-linecap:round; stroke-linejoin:round;">
<path d="M135801100 117703600
L135801100 92303600
" />
<path d="M135801100 92303600
L161201100 92303600
" />
<path d="M161201100 92303600
L161201100 117703600
" />
<path d="M161201100 117703600
L135801100 117703600
" />
<g >
</g>
<g >
</g>
<g >
</g>
<g >
</g>
<g >
</g>
<g >
</g>
<g >
</g>
<g >
</g>
<g >
</g>
<g >
</g>
<g >
</g>
<g >
</g>
<g >
</g>
<g >
</g>
<g >
</g>
<g >
</g>
<g >
</g>
<g >
</g>
<g >
</g>
<g >
</g>
</g> 
</svg>
