<?xml version="1.0" standalone="no"?>
 <!DOCTYPE svg PUBLIC "-//W3C//DTD SVG 1.1//EN" 
 "http://www.w3.org/Graphics/SVG/1.1/DTD/svg11.dtd"> 
<svg
  xmlns:svg="http://www.w3.org/2000/svg"
  xmlns="http://www.w3.org/2000/svg"
  xmlns:xlink="http://www.w3.org/1999/xlink"
  version="1.1"
  width="29.700220cm" height="21.000720cm" viewBox="0 0 297002200 210007200">
<title>SVG Picture created as kicadBoard-B_Fab.svg date 2022/11/05 13:33:15 </title>
  <desc>Picture generated by PCBNEW </desc>
<g style="fill:#000000; fill-opacity:1.000000;stroke:#000000; stroke-opacity:1.000000;
stroke-linecap:round; stroke-linejoin:round;"
 transform="translate(0 0) scale(1 1)">
</g>
<g style="fill:#000000; fill-opacity:0.0; 
stroke:#000000; stroke-width:0.000000; stroke-opacity:1; 
stroke-linecap:round; stroke-linejoin:round;">
</g>
<g style="fill:#000000; fill-opacity:0.0; 
stroke:#000000; stroke-width:21200.000000; stroke-opacity:1; 
stroke-linecap:round; stroke-linejoin:round;">
</g>
<g style="fill:#000000; fill-opacity:0.0; 
stroke:#000000; stroke-width:150000.000000; stroke-opacity:1; 
stroke-linecap:round; stroke-linejoin:round;">
<rect x="177002200.000000" y="166007200.000000" width="108000000.000000" height="32000000.000000" rx="0.000000" />
</g>
<g style="fill:#000000; fill-opacity:0.0; 
stroke:#000000; stroke-width:21200.000000; stroke-opacity:1; 
stroke-linecap:round; stroke-linejoin:round;">
</g>
<g style="fill:#000000; fill-opacity:0.0; 
stroke:#000000; stroke-width:150000.000000; stroke-opacity:1; 
stroke-linecap:round; stroke-linejoin:round;">
<rect x="10000000.000000" y="10000000.000000" width="277002200.000000" height="190007200.000000" rx="0.000000" />
</g>
<g style="fill:#000000; fill-opacity:0.0; 
stroke:#000000; stroke-width:21200.000000; stroke-opacity:1; 
stroke-linecap:round; stroke-linejoin:round;">
</g>
<g style="fill:#000000; fill-opacity:0.0; 
stroke:#000000; stroke-width:150000.000000; stroke-opacity:1; 
stroke-linecap:round; stroke-linejoin:round;">
<rect x="12000000.000000" y="12000000.000000" width="273002200.000000" height="186007200.000000" rx="0.000000" />
</g>
<g style="fill:#000000; fill-opacity:0.0; 
stroke:#000000; stroke-width:21200.000000; stroke-opacity:1; 
stroke-linecap:round; stroke-linejoin:round;">
</g>
<g style="fill:#000000; fill-opacity:0.0; 
stroke:#000000; stroke-width:150000.000000; stroke-opacity:1; 
stroke-linecap:round; stroke-linejoin:round;">
<path d="M60000000 12000000
L60000000 10000000
" />
</g>
<g style="fill:#000000; fill-opacity:0.0; 
stroke:#000000; stroke-width:21200.000000; stroke-opacity:1; 
stroke-linecap:round; stroke-linejoin:round;">
</g>
<g style="fill:#000000; fill-opacity:0.0; 
stroke:#000000; stroke-width:150000.000000; stroke-opacity:1; 
stroke-linecap:round; stroke-linejoin:round;">
<path d="M110000000 12000000
L110000000 10000000
" />
</g>
<g style="fill:#000000; fill-opacity:0.0; 
stroke:#000000; stroke-width:21200.000000; stroke-opacity:1; 
stroke-linecap:round; stroke-linejoin:round;">
</g>
<g style="fill:#000000; fill-opacity:0.0; 
stroke:#000000; stroke-width:150000.000000; stroke-opacity:1; 
stroke-linecap:round; stroke-linejoin:round;">
<path d="M160000000 12000000
L160000000 10000000
" />
</g>
<g style="fill:#000000; fill-opacity:0.0; 
stroke:#000000; stroke-width:21200.000000; stroke-opacity:1; 
stroke-linecap:round; stroke-linejoin:round;">
</g>
<g style="fill:#000000; fill-opacity:0.0; 
stroke:#000000; stroke-width:150000.000000; stroke-opacity:1; 
stroke-linecap:round; stroke-linejoin:round;">
<path d="M210000000 12000000
L210000000 10000000
" />
</g>
<g style="fill:#000000; fill-opacity:0.0; 
stroke:#000000; stroke-width:21200.000000; stroke-opacity:1; 
stroke-linecap:round; stroke-linejoin:round;">
</g>
<g style="fill:#000000; fill-opacity:0.0; 
stroke:#000000; stroke-width:150000.000000; stroke-opacity:1; 
stroke-linecap:round; stroke-linejoin:round;">
<path d="M260000000 12000000
L260000000 10000000
" />
</g>
<g style="fill:#000000; fill-opacity:0.0; 
stroke:#000000; stroke-width:21200.000000; stroke-opacity:1; 
stroke-linecap:round; stroke-linejoin:round;">
</g>
<g style="fill:#000000; fill-opacity:0.0; 
stroke:#000000; stroke-width:150000.000000; stroke-opacity:1; 
stroke-linecap:round; stroke-linejoin:round;">
<text x="35000000.000000" y="11650000.000000"
textLength="1388095.000000" font-size="1733333.000000" lengthAdjust="spacingAndGlyphs"
text-anchor="start" opacity="0">1</text>
<g class="stroked-text"><desc>1</desc>
<path d="M36065476 11588095
L35322619 11588095
" />
<path d="M35694047 11588095
L35694047 10288095
L35570238 10473809
L35446428 10597619
L35322619 10659523
" />
</g></g>
<g style="fill:#000000; fill-opacity:0.0; 
stroke:#000000; stroke-width:21200.000000; stroke-opacity:1; 
stroke-linecap:round; stroke-linejoin:round;">
</g>
<g style="fill:#000000; fill-opacity:0.0; 
stroke:#000000; stroke-width:150000.000000; stroke-opacity:1; 
stroke-linecap:round; stroke-linejoin:round;">
<text x="85000000.000000" y="11650000.000000"
textLength="1388095.000000" font-size="1733333.000000" lengthAdjust="spacingAndGlyphs"
text-anchor="start" opacity="0">2</text>
<g class="stroked-text"><desc>2</desc>
<path d="M85322619 10411904
L85384523 10350000
L85508333 10288095
L85817857 10288095
L85941666 10350000
L86003571 10411904
L86065476 10535714
L86065476 10659523
L86003571 10845238
L85260714 11588095
L86065476 11588095
" />
</g></g>
<g style="fill:#000000; fill-opacity:0.0; 
stroke:#000000; stroke-width:21200.000000; stroke-opacity:1; 
stroke-linecap:round; stroke-linejoin:round;">
</g>
<g style="fill:#000000; fill-opacity:0.0; 
stroke:#000000; stroke-width:150000.000000; stroke-opacity:1; 
stroke-linecap:round; stroke-linejoin:round;">
<text x="135000000.000000" y="11650000.000000"
textLength="1388095.000000" font-size="1733333.000000" lengthAdjust="spacingAndGlyphs"
text-anchor="start" opacity="0">3</text>
<g class="stroked-text"><desc>3</desc>
<path d="M135260714 10288095
L136065476 10288095
L135632142 10783333
L135817857 10783333
L135941666 10845238
L136003571 10907142
L136065476 11030952
L136065476 11340476
L136003571 11464285
L135941666 11526190
L135817857 11588095
L135446428 11588095
L135322619 11526190
L135260714 11464285
" />
</g></g>
<g style="fill:#000000; fill-opacity:0.0; 
stroke:#000000; stroke-width:21200.000000; stroke-opacity:1; 
stroke-linecap:round; stroke-linejoin:round;">
</g>
<g style="fill:#000000; fill-opacity:0.0; 
stroke:#000000; stroke-width:150000.000000; stroke-opacity:1; 
stroke-linecap:round; stroke-linejoin:round;">
<text x="185000000.000000" y="11650000.000000"
textLength="1388095.000000" font-size="1733333.000000" lengthAdjust="spacingAndGlyphs"
text-anchor="start" opacity="0">4</text>
<g class="stroked-text"><desc>4</desc>
<path d="M185941666 10721428
L185941666 11588095
" />
<path d="M185632142 10226190
L185322619 11154761
L186127380 11154761
" />
</g></g>
<g style="fill:#000000; fill-opacity:0.0; 
stroke:#000000; stroke-width:21200.000000; stroke-opacity:1; 
stroke-linecap:round; stroke-linejoin:round;">
</g>
<g style="fill:#000000; fill-opacity:0.0; 
stroke:#000000; stroke-width:150000.000000; stroke-opacity:1; 
stroke-linecap:round; stroke-linejoin:round;">
<text x="235000000.000000" y="11650000.000000"
textLength="1388095.000000" font-size="1733333.000000" lengthAdjust="spacingAndGlyphs"
text-anchor="start" opacity="0">5</text>
<g class="stroked-text"><desc>5</desc>
<path d="M236003571 10288095
L235384523 10288095
L235322619 10907142
L235384523 10845238
L235508333 10783333
L235817857 10783333
L235941666 10845238
L236003571 10907142
L236065476 11030952
L236065476 11340476
L236003571 11464285
L235941666 11526190
L235817857 11588095
L235508333 11588095
L235384523 11526190
L235322619 11464285
" />
</g></g>
<g style="fill:#000000; fill-opacity:0.0; 
stroke:#000000; stroke-width:21200.000000; stroke-opacity:1; 
stroke-linecap:round; stroke-linejoin:round;">
</g>
<g style="fill:#000000; fill-opacity:0.0; 
stroke:#000000; stroke-width:150000.000000; stroke-opacity:1; 
stroke-linecap:round; stroke-linejoin:round;">
<text x="285000000.000000" y="11650000.000000"
textLength="1388095.000000" font-size="1733333.000000" lengthAdjust="spacingAndGlyphs"
text-anchor="start" opacity="0">6</text>
<g class="stroked-text"><desc>6</desc>
<path d="M285941666 10288095
L285694047 10288095
L285570238 10350000
L285508333 10411904
L285384523 10597619
L285322619 10845238
L285322619 11340476
L285384523 11464285
L285446428 11526190
L285570238 11588095
L285817857 11588095
L285941666 11526190
L286003571 11464285
L286065476 11340476
L286065476 11030952
L286003571 10907142
L285941666 10845238
L285817857 10783333
L285570238 10783333
L285446428 10845238
L285384523 10907142
L285322619 11030952
" />
</g></g>
<g style="fill:#000000; fill-opacity:0.0; 
stroke:#000000; stroke-width:21200.000000; stroke-opacity:1; 
stroke-linecap:round; stroke-linejoin:round;">
</g>
<g style="fill:#000000; fill-opacity:0.0; 
stroke:#000000; stroke-width:150000.000000; stroke-opacity:1; 
stroke-linecap:round; stroke-linejoin:round;">
<path d="M60000000 198007200
L60000000 200007200
" />
</g>
<g style="fill:#000000; fill-opacity:0.0; 
stroke:#000000; stroke-width:21200.000000; stroke-opacity:1; 
stroke-linecap:round; stroke-linejoin:round;">
</g>
<g style="fill:#000000; fill-opacity:0.0; 
stroke:#000000; stroke-width:150000.000000; stroke-opacity:1; 
stroke-linecap:round; stroke-linejoin:round;">
<path d="M110000000 198007200
L110000000 200007200
" />
</g>
<g style="fill:#000000; fill-opacity:0.0; 
stroke:#000000; stroke-width:21200.000000; stroke-opacity:1; 
stroke-linecap:round; stroke-linejoin:round;">
</g>
<g style="fill:#000000; fill-opacity:0.0; 
stroke:#000000; stroke-width:150000.000000; stroke-opacity:1; 
stroke-linecap:round; stroke-linejoin:round;">
<path d="M160000000 198007200
L160000000 200007200
" />
</g>
<g style="fill:#000000; fill-opacity:0.0; 
stroke:#000000; stroke-width:21200.000000; stroke-opacity:1; 
stroke-linecap:round; stroke-linejoin:round;">
</g>
<g style="fill:#000000; fill-opacity:0.0; 
stroke:#000000; stroke-width:150000.000000; stroke-opacity:1; 
stroke-linecap:round; stroke-linejoin:round;">
<path d="M210000000 198007200
L210000000 200007200
" />
</g>
<g style="fill:#000000; fill-opacity:0.0; 
stroke:#000000; stroke-width:21200.000000; stroke-opacity:1; 
stroke-linecap:round; stroke-linejoin:round;">
</g>
<g style="fill:#000000; fill-opacity:0.0; 
stroke:#000000; stroke-width:150000.000000; stroke-opacity:1; 
stroke-linecap:round; stroke-linejoin:round;">
<path d="M260000000 198007200
L260000000 200007200
" />
</g>
<g style="fill:#000000; fill-opacity:0.0; 
stroke:#000000; stroke-width:21200.000000; stroke-opacity:1; 
stroke-linecap:round; stroke-linejoin:round;">
</g>
<g style="fill:#000000; fill-opacity:0.0; 
stroke:#000000; stroke-width:150000.000000; stroke-opacity:1; 
stroke-linecap:round; stroke-linejoin:round;">
<text x="35000000.000000" y="199657200.000000"
textLength="1388095.000000" font-size="1733333.000000" lengthAdjust="spacingAndGlyphs"
text-anchor="start" opacity="0">1</text>
<g class="stroked-text"><desc>1</desc>
<path d="M36065476 199595295
L35322619 199595295
" />
<path d="M35694047 199595295
L35694047 198295295
L35570238 198481009
L35446428 198604819
L35322619 198666723
" />
</g></g>
<g style="fill:#000000; fill-opacity:0.0; 
stroke:#000000; stroke-width:21200.000000; stroke-opacity:1; 
stroke-linecap:round; stroke-linejoin:round;">
</g>
<g style="fill:#000000; fill-opacity:0.0; 
stroke:#000000; stroke-width:150000.000000; stroke-opacity:1; 
stroke-linecap:round; stroke-linejoin:round;">
<text x="85000000.000000" y="199657200.000000"
textLength="1388095.000000" font-size="1733333.000000" lengthAdjust="spacingAndGlyphs"
text-anchor="start" opacity="0">2</text>
<g class="stroked-text"><desc>2</desc>
<path d="M85322619 198419104
L85384523 198357200
L85508333 198295295
L85817857 198295295
L85941666 198357200
L86003571 198419104
L86065476 198542914
L86065476 198666723
L86003571 198852438
L85260714 199595295
L86065476 199595295
" />
</g></g>
<g style="fill:#000000; fill-opacity:0.0; 
stroke:#000000; stroke-width:21200.000000; stroke-opacity:1; 
stroke-linecap:round; stroke-linejoin:round;">
</g>
<g style="fill:#000000; fill-opacity:0.0; 
stroke:#000000; stroke-width:150000.000000; stroke-opacity:1; 
stroke-linecap:round; stroke-linejoin:round;">
<text x="135000000.000000" y="199657200.000000"
textLength="1388095.000000" font-size="1733333.000000" lengthAdjust="spacingAndGlyphs"
text-anchor="start" opacity="0">3</text>
<g class="stroked-text"><desc>3</desc>
<path d="M135260714 198295295
L136065476 198295295
L135632142 198790533
L135817857 198790533
L135941666 198852438
L136003571 198914342
L136065476 199038152
L136065476 199347676
L136003571 199471485
L135941666 199533390
L135817857 199595295
L135446428 199595295
L135322619 199533390
L135260714 199471485
" />
</g></g>
<g style="fill:#000000; fill-opacity:0.0; 
stroke:#000000; stroke-width:21200.000000; stroke-opacity:1; 
stroke-linecap:round; stroke-linejoin:round;">
</g>
<g style="fill:#000000; fill-opacity:0.0; 
stroke:#000000; stroke-width:150000.000000; stroke-opacity:1; 
stroke-linecap:round; stroke-linejoin:round;">
<text x="185000000.000000" y="199657200.000000"
textLength="1388095.000000" font-size="1733333.000000" lengthAdjust="spacingAndGlyphs"
text-anchor="start" opacity="0">4</text>
<g class="stroked-text"><desc>4</desc>
<path d="M185941666 198728628
L185941666 199595295
" />
<path d="M185632142 198233390
L185322619 199161961
L186127380 199161961
" />
</g></g>
<g style="fill:#000000; fill-opacity:0.0; 
stroke:#000000; stroke-width:21200.000000; stroke-opacity:1; 
stroke-linecap:round; stroke-linejoin:round;">
</g>
<g style="fill:#000000; fill-opacity:0.0; 
stroke:#000000; stroke-width:150000.000000; stroke-opacity:1; 
stroke-linecap:round; stroke-linejoin:round;">
<text x="235000000.000000" y="199657200.000000"
textLength="1388095.000000" font-size="1733333.000000" lengthAdjust="spacingAndGlyphs"
text-anchor="start" opacity="0">5</text>
<g class="stroked-text"><desc>5</desc>
<path d="M236003571 198295295
L235384523 198295295
L235322619 198914342
L235384523 198852438
L235508333 198790533
L235817857 198790533
L235941666 198852438
L236003571 198914342
L236065476 199038152
L236065476 199347676
L236003571 199471485
L235941666 199533390
L235817857 199595295
L235508333 199595295
L235384523 199533390
L235322619 199471485
" />
</g></g>
<g style="fill:#000000; fill-opacity:0.0; 
stroke:#000000; stroke-width:21200.000000; stroke-opacity:1; 
stroke-linecap:round; stroke-linejoin:round;">
</g>
<g style="fill:#000000; fill-opacity:0.0; 
stroke:#000000; stroke-width:150000.000000; stroke-opacity:1; 
stroke-linecap:round; stroke-linejoin:round;">
<text x="285000000.000000" y="199657200.000000"
textLength="1388095.000000" font-size="1733333.000000" lengthAdjust="spacingAndGlyphs"
text-anchor="start" opacity="0">6</text>
<g class="stroked-text"><desc>6</desc>
<path d="M285941666 198295295
L285694047 198295295
L285570238 198357200
L285508333 198419104
L285384523 198604819
L285322619 198852438
L285322619 199347676
L285384523 199471485
L285446428 199533390
L285570238 199595295
L285817857 199595295
L285941666 199533390
L286003571 199471485
L286065476 199347676
L286065476 199038152
L286003571 198914342
L285941666 198852438
L285817857 198790533
L285570238 198790533
L285446428 198852438
L285384523 198914342
L285322619 199038152
" />
</g></g>
<g style="fill:#000000; fill-opacity:0.0; 
stroke:#000000; stroke-width:21200.000000; stroke-opacity:1; 
stroke-linecap:round; stroke-linejoin:round;">
</g>
<g style="fill:#000000; fill-opacity:0.0; 
stroke:#000000; stroke-width:150000.000000; stroke-opacity:1; 
stroke-linecap:round; stroke-linejoin:round;">
<path d="M10000000 60000000
L12000000 60000000
" />
</g>
<g style="fill:#000000; fill-opacity:0.0; 
stroke:#000000; stroke-width:21200.000000; stroke-opacity:1; 
stroke-linecap:round; stroke-linejoin:round;">
</g>
<g style="fill:#000000; fill-opacity:0.0; 
stroke:#000000; stroke-width:150000.000000; stroke-opacity:1; 
stroke-linecap:round; stroke-linejoin:round;">
<path d="M10000000 110000000
L12000000 110000000
" />
</g>
<g style="fill:#000000; fill-opacity:0.0; 
stroke:#000000; stroke-width:21200.000000; stroke-opacity:1; 
stroke-linecap:round; stroke-linejoin:round;">
</g>
<g style="fill:#000000; fill-opacity:0.0; 
stroke:#000000; stroke-width:150000.000000; stroke-opacity:1; 
stroke-linecap:round; stroke-linejoin:round;">
<path d="M10000000 160000000
L12000000 160000000
" />
</g>
<g style="fill:#000000; fill-opacity:0.0; 
stroke:#000000; stroke-width:21200.000000; stroke-opacity:1; 
stroke-linecap:round; stroke-linejoin:round;">
</g>
<g style="fill:#000000; fill-opacity:0.0; 
stroke:#000000; stroke-width:150000.000000; stroke-opacity:1; 
stroke-linecap:round; stroke-linejoin:round;">
<text x="11000000.000000" y="35650000.000000"
textLength="1264286.000000" font-size="1733333.000000" lengthAdjust="spacingAndGlyphs"
text-anchor="middle" opacity="0">A</text>
<g class="stroked-text"><desc>A</desc>
<path d="M10690476 35216666
L11309523 35216666
" />
<path d="M10566666 35588095
L11000000 34288095
L11433333 35588095
" />
</g></g>
<g style="fill:#000000; fill-opacity:0.0; 
stroke:#000000; stroke-width:21200.000000; stroke-opacity:1; 
stroke-linecap:round; stroke-linejoin:round;">
</g>
<g style="fill:#000000; fill-opacity:0.0; 
stroke:#000000; stroke-width:150000.000000; stroke-opacity:1; 
stroke-linecap:round; stroke-linejoin:round;">
<text x="11000000.000000" y="85650000.000000"
textLength="1450000.000000" font-size="1733333.000000" lengthAdjust="spacingAndGlyphs"
text-anchor="middle" opacity="0">B</text>
<g class="stroked-text"><desc>B</desc>
<path d="M11092857 84907142
L11278571 84969047
L11340476 85030952
L11402380 85154761
L11402380 85340476
L11340476 85464285
L11278571 85526190
L11154761 85588095
L10659523 85588095
L10659523 84288095
L11092857 84288095
L11216666 84350000
L11278571 84411904
L11340476 84535714
L11340476 84659523
L11278571 84783333
L11216666 84845238
L11092857 84907142
L10659523 84907142
" />
</g></g>
<g style="fill:#000000; fill-opacity:0.0; 
stroke:#000000; stroke-width:21200.000000; stroke-opacity:1; 
stroke-linecap:round; stroke-linejoin:round;">
</g>
<g style="fill:#000000; fill-opacity:0.0; 
stroke:#000000; stroke-width:150000.000000; stroke-opacity:1; 
stroke-linecap:round; stroke-linejoin:round;">
<text x="11000000.000000" y="135650000.000000"
textLength="1450000.000000" font-size="1733333.000000" lengthAdjust="spacingAndGlyphs"
text-anchor="middle" opacity="0">C</text>
<g class="stroked-text"><desc>C</desc>
<path d="M11402380 135464285
L11340476 135526190
L11154761 135588095
L11030952 135588095
L10845238 135526190
L10721428 135402380
L10659523 135278571
L10597619 135030952
L10597619 134845238
L10659523 134597619
L10721428 134473809
L10845238 134350000
L11030952 134288095
L11154761 134288095
L11340476 134350000
L11402380 134411904
" />
</g></g>
<g style="fill:#000000; fill-opacity:0.0; 
stroke:#000000; stroke-width:21200.000000; stroke-opacity:1; 
stroke-linecap:round; stroke-linejoin:round;">
</g>
<g style="fill:#000000; fill-opacity:0.0; 
stroke:#000000; stroke-width:150000.000000; stroke-opacity:1; 
stroke-linecap:round; stroke-linejoin:round;">
<text x="11000000.000000" y="185650000.000000"
textLength="1450000.000000" font-size="1733333.000000" lengthAdjust="spacingAndGlyphs"
text-anchor="middle" opacity="0">D</text>
<g class="stroked-text"><desc>D</desc>
<path d="M10659523 185588095
L10659523 184288095
L10969047 184288095
L11154761 184350000
L11278571 184473809
L11340476 184597619
L11402380 184845238
L11402380 185030952
L11340476 185278571
L11278571 185402380
L11154761 185526190
L10969047 185588095
L10659523 185588095
" />
</g></g>
<g style="fill:#000000; fill-opacity:0.0; 
stroke:#000000; stroke-width:21200.000000; stroke-opacity:1; 
stroke-linecap:round; stroke-linejoin:round;">
</g>
<g style="fill:#000000; fill-opacity:0.0; 
stroke:#000000; stroke-width:150000.000000; stroke-opacity:1; 
stroke-linecap:round; stroke-linejoin:round;">
<path d="M287002200 60000000
L285002200 60000000
" />
</g>
<g style="fill:#000000; fill-opacity:0.0; 
stroke:#000000; stroke-width:21200.000000; stroke-opacity:1; 
stroke-linecap:round; stroke-linejoin:round;">
</g>
<g style="fill:#000000; fill-opacity:0.0; 
stroke:#000000; stroke-width:150000.000000; stroke-opacity:1; 
stroke-linecap:round; stroke-linejoin:round;">
<path d="M287002200 110000000
L285002200 110000000
" />
</g>
<g style="fill:#000000; fill-opacity:0.0; 
stroke:#000000; stroke-width:21200.000000; stroke-opacity:1; 
stroke-linecap:round; stroke-linejoin:round;">
</g>
<g style="fill:#000000; fill-opacity:0.0; 
stroke:#000000; stroke-width:150000.000000; stroke-opacity:1; 
stroke-linecap:round; stroke-linejoin:round;">
<path d="M287002200 160000000
L285002200 160000000
" />
</g>
<g style="fill:#000000; fill-opacity:0.0; 
stroke:#000000; stroke-width:21200.000000; stroke-opacity:1; 
stroke-linecap:round; stroke-linejoin:round;">
</g>
<g style="fill:#000000; fill-opacity:0.0; 
stroke:#000000; stroke-width:150000.000000; stroke-opacity:1; 
stroke-linecap:round; stroke-linejoin:round;">
<text x="286002200.000000" y="35650000.000000"
textLength="1264286.000000" font-size="1733333.000000" lengthAdjust="spacingAndGlyphs"
text-anchor="middle" opacity="0">A</text>
<g class="stroked-text"><desc>A</desc>
<path d="M285692676 35216666
L286311723 35216666
" />
<path d="M285568866 35588095
L286002200 34288095
L286435533 35588095
" />
</g></g>
<g style="fill:#000000; fill-opacity:0.0; 
stroke:#000000; stroke-width:21200.000000; stroke-opacity:1; 
stroke-linecap:round; stroke-linejoin:round;">
</g>
<g style="fill:#000000; fill-opacity:0.0; 
stroke:#000000; stroke-width:150000.000000; stroke-opacity:1; 
stroke-linecap:round; stroke-linejoin:round;">
<text x="286002200.000000" y="85650000.000000"
textLength="1450000.000000" font-size="1733333.000000" lengthAdjust="spacingAndGlyphs"
text-anchor="middle" opacity="0">B</text>
<g class="stroked-text"><desc>B</desc>
<path d="M286095057 84907142
L286280771 84969047
L286342676 85030952
L286404580 85154761
L286404580 85340476
L286342676 85464285
L286280771 85526190
L286156961 85588095
L285661723 85588095
L285661723 84288095
L286095057 84288095
L286218866 84350000
L286280771 84411904
L286342676 84535714
L286342676 84659523
L286280771 84783333
L286218866 84845238
L286095057 84907142
L285661723 84907142
" />
</g></g>
<g style="fill:#000000; fill-opacity:0.0; 
stroke:#000000; stroke-width:21200.000000; stroke-opacity:1; 
stroke-linecap:round; stroke-linejoin:round;">
</g>
<g style="fill:#000000; fill-opacity:0.0; 
stroke:#000000; stroke-width:150000.000000; stroke-opacity:1; 
stroke-linecap:round; stroke-linejoin:round;">
<text x="286002200.000000" y="135650000.000000"
textLength="1450000.000000" font-size="1733333.000000" lengthAdjust="spacingAndGlyphs"
text-anchor="middle" opacity="0">C</text>
<g class="stroked-text"><desc>C</desc>
<path d="M286404580 135464285
L286342676 135526190
L286156961 135588095
L286033152 135588095
L285847438 135526190
L285723628 135402380
L285661723 135278571
L285599819 135030952
L285599819 134845238
L285661723 134597619
L285723628 134473809
L285847438 134350000
L286033152 134288095
L286156961 134288095
L286342676 134350000
L286404580 134411904
" />
</g></g>
<g style="fill:#000000; fill-opacity:0.0; 
stroke:#000000; stroke-width:21200.000000; stroke-opacity:1; 
stroke-linecap:round; stroke-linejoin:round;">
</g>
<g style="fill:#000000; fill-opacity:0.0; 
stroke:#000000; stroke-width:150000.000000; stroke-opacity:1; 
stroke-linecap:round; stroke-linejoin:round;">
<text x="286002200.000000" y="185650000.000000"
textLength="1450000.000000" font-size="1733333.000000" lengthAdjust="spacingAndGlyphs"
text-anchor="middle" opacity="0">D</text>
<g class="stroked-text"><desc>D</desc>
<path d="M285661723 185588095
L285661723 184288095
L285971247 184288095
L286156961 184350000
L286280771 184473809
L286342676 184597619
L286404580 184845238
L286404580 185030952
L286342676 185278571
L286280771 185402380
L286156961 185526190
L285971247 185588095
L285661723 185588095
" />
</g></g>
<g style="fill:#000000; fill-opacity:0.0; 
stroke:#000000; stroke-width:21200.000000; stroke-opacity:1; 
stroke-linecap:round; stroke-linejoin:round;">
</g>
<g style="fill:#000000; fill-opacity:0.0; 
stroke:#000000; stroke-width:150000.000000; stroke-opacity:1; 
stroke-linecap:round; stroke-linejoin:round;">
<text x="200002200.000000" y="193857200.000000"
textLength="7007143.000000" font-size="2000000.000000" lengthAdjust="spacingAndGlyphs"
text-anchor="start" opacity="0">Date: </text>
<g class="stroked-text"><desc>Date: </desc>
<path d="M200434342 193785771
L200434342 192285771
L200791485 192285771
L201005771 192357200
L201148628 192500057
L201220057 192642914
L201291485 192928628
L201291485 193142914
L201220057 193428628
L201148628 193571485
L201005771 193714342
L200791485 193785771
L200434342 193785771
" />
<path d="M202577200 193785771
L202577200 193000057
L202505771 192857200
L202362914 192785771
L202077200 192785771
L201934342 192857200
" />
<path d="M202577200 193714342
L202434342 193785771
L202077200 193785771
L201934342 193714342
L201862914 193571485
L201862914 193428628
L201934342 193285771
L202077200 193214342
L202434342 193214342
L202577200 193142914
" />
<path d="M203077200 192785771
L203648628 192785771
" />
<path d="M203291485 192285771
L203291485 193571485
L203362914 193714342
L203505771 193785771
L203648628 193785771
" />
<path d="M204720057 193714342
L204577200 193785771
L204291485 193785771
L204148628 193714342
L204077200 193571485
L204077200 193000057
L204148628 192857200
L204291485 192785771
L204577200 192785771
L204720057 192857200
L204791485 193000057
L204791485 193142914
L204077200 193285771
" />
<path d="M205434342 193642914
L205505771 193714342
L205434342 193785771
L205362914 193714342
L205434342 193642914
L205434342 193785771
" />
<path d="M205434342 192857200
L205505771 192928628
L205434342 193000057
L205362914 192928628
L205434342 192857200
L205434342 193000057
" />
</g></g>
<g style="fill:#000000; fill-opacity:0.0; 
stroke:#000000; stroke-width:21200.000000; stroke-opacity:1; 
stroke-linecap:round; stroke-linejoin:round;">
</g>
<g style="fill:#000000; fill-opacity:0.0; 
stroke:#000000; stroke-width:150000.000000; stroke-opacity:1; 
stroke-linecap:round; stroke-linejoin:round;">
<path d="M177002200 194507200
L285002200 194507200
" />
</g>
<g style="fill:#000000; fill-opacity:0.0; 
stroke:#000000; stroke-width:21200.000000; stroke-opacity:1; 
stroke-linecap:round; stroke-linejoin:round;">
</g>
<g style="fill:#000000; fill-opacity:0.0; 
stroke:#000000; stroke-width:150000.000000; stroke-opacity:1; 
stroke-linecap:round; stroke-linejoin:round;">
<text x="178002200.000000" y="196657200.000000"
textLength="33364286.000000" font-size="2000000.000000" lengthAdjust="spacingAndGlyphs"
text-anchor="start" opacity="0">KiCad E.D.A.  pcbnew (6.0.9)</text>
<g class="stroked-text"><desc>KiCad E.D.A.  pcbnew (6.0.9)</desc>
<path d="M178434342 196585771
L178434342 195085771
" />
<path d="M179291485 196585771
L178648628 195728628
" />
<path d="M179291485 195085771
L178434342 195942914
" />
<path d="M179934342 196585771
L179934342 195585771
" />
<path d="M179934342 195085771
L179862914 195157200
L179934342 195228628
L180005771 195157200
L179934342 195085771
L179934342 195228628
" />
<path d="M181505771 196442914
L181434342 196514342
L181220057 196585771
L181077200 196585771
L180862914 196514342
L180720057 196371485
L180648628 196228628
L180577200 195942914
L180577200 195728628
L180648628 195442914
L180720057 195300057
L180862914 195157200
L181077200 195085771
L181220057 195085771
L181434342 195157200
L181505771 195228628
" />
<path d="M182791485 196585771
L182791485 195800057
L182720057 195657200
L182577200 195585771
L182291485 195585771
L182148628 195657200
" />
<path d="M182791485 196514342
L182648628 196585771
L182291485 196585771
L182148628 196514342
L182077200 196371485
L182077200 196228628
L182148628 196085771
L182291485 196014342
L182648628 196014342
L182791485 195942914
" />
<path d="M184148628 196585771
L184148628 195085771
" />
<path d="M184148628 196514342
L184005771 196585771
L183720057 196585771
L183577200 196514342
L183505771 196442914
L183434342 196300057
L183434342 195871485
L183505771 195728628
L183577200 195657200
L183720057 195585771
L184005771 195585771
L184148628 195657200
" />
<path d="M186005771 195800057
L186505771 195800057
" />
<path d="M186720057 196585771
L186005771 196585771
L186005771 195085771
L186720057 195085771
" />
<path d="M187362914 196442914
L187434342 196514342
L187362914 196585771
L187291485 196514342
L187362914 196442914
L187362914 196585771
" />
<path d="M188077200 196585771
L188077200 195085771
L188434342 195085771
L188648628 195157200
L188791485 195300057
L188862914 195442914
L188934342 195728628
L188934342 195942914
L188862914 196228628
L188791485 196371485
L188648628 196514342
L188434342 196585771
L188077200 196585771
" />
<path d="M189577200 196442914
L189648628 196514342
L189577200 196585771
L189505771 196514342
L189577200 196442914
L189577200 196585771
" />
<path d="M190220057 196157200
L190934342 196157200
" />
<path d="M190077200 196585771
L190577200 195085771
L191077200 196585771
" />
<path d="M191577200 196442914
L191648628 196514342
L191577200 196585771
L191505771 196514342
L191577200 196442914
L191577200 196585771
" />
<path d="M194577200 195585771
L194577200 197085771
" />
<path d="M194577200 195657200
L194720057 195585771
L195005771 195585771
L195148628 195657200
L195220057 195728628
L195291485 195871485
L195291485 196300057
L195220057 196442914
L195148628 196514342
L195005771 196585771
L194720057 196585771
L194577200 196514342
" />
<path d="M196577200 196514342
L196434342 196585771
L196148628 196585771
L196005771 196514342
L195934342 196442914
L195862914 196300057
L195862914 195871485
L195934342 195728628
L196005771 195657200
L196148628 195585771
L196434342 195585771
L196577200 195657200
" />
<path d="M197220057 196585771
L197220057 195085771
" />
<path d="M197220057 195657200
L197362914 195585771
L197648628 195585771
L197791485 195657200
L197862914 195728628
L197934342 195871485
L197934342 196300057
L197862914 196442914
L197791485 196514342
L197648628 196585771
L197362914 196585771
L197220057 196514342
" />
<path d="M198577200 195585771
L198577200 196585771
" />
<path d="M198577200 195728628
L198648628 195657200
L198791485 195585771
L199005771 195585771
L199148628 195657200
L199220057 195800057
L199220057 196585771
" />
<path d="M200505771 196514342
L200362914 196585771
L200077200 196585771
L199934342 196514342
L199862914 196371485
L199862914 195800057
L199934342 195657200
L200077200 195585771
L200362914 195585771
L200505771 195657200
L200577200 195800057
L200577200 195942914
L199862914 196085771
" />
<path d="M201077200 195585771
L201362914 196585771
L201648628 195871485
L201934342 196585771
L202220057 195585771
" />
<path d="M204362914 197157200
L204291485 197085771
L204148628 196871485
L204077200 196728628
L204005771 196514342
L203934342 196157200
L203934342 195871485
L204005771 195514342
L204077200 195300057
L204148628 195157200
L204291485 194942914
L204362914 194871485
" />
<path d="M205577200 195085771
L205291485 195085771
L205148628 195157200
L205077200 195228628
L204934342 195442914
L204862914 195728628
L204862914 196300057
L204934342 196442914
L205005771 196514342
L205148628 196585771
L205434342 196585771
L205577200 196514342
L205648628 196442914
L205720057 196300057
L205720057 195942914
L205648628 195800057
L205577200 195728628
L205434342 195657200
L205148628 195657200
L205005771 195728628
L204934342 195800057
L204862914 195942914
" />
<path d="M206362914 196442914
L206434342 196514342
L206362914 196585771
L206291485 196514342
L206362914 196442914
L206362914 196585771
" />
<path d="M207362914 195085771
L207505771 195085771
L207648628 195157200
L207720057 195228628
L207791485 195371485
L207862914 195657200
L207862914 196014342
L207791485 196300057
L207720057 196442914
L207648628 196514342
L207505771 196585771
L207362914 196585771
L207220057 196514342
L207148628 196442914
L207077200 196300057
L207005771 196014342
L207005771 195657200
L207077200 195371485
L207148628 195228628
L207220057 195157200
L207362914 195085771
" />
<path d="M208505771 196442914
L208577200 196514342
L208505771 196585771
L208434342 196514342
L208505771 196442914
L208505771 196585771
" />
<path d="M209291485 196585771
L209577200 196585771
L209720057 196514342
L209791485 196442914
L209934342 196228628
L210005771 195942914
L210005771 195371485
L209934342 195228628
L209862914 195157200
L209720057 195085771
L209434342 195085771
L209291485 195157200
L209220057 195228628
L209148628 195371485
L209148628 195728628
L209220057 195871485
L209291485 195942914
L209434342 196014342
L209720057 196014342
L209862914 195942914
L209934342 195871485
L210005771 195728628
" />
<path d="M210505771 197157200
L210577200 197085771
L210720057 196871485
L210791485 196728628
L210862914 196514342
L210934342 196157200
L210934342 195871485
L210862914 195514342
L210791485 195300057
L210720057 195157200
L210577200 194942914
L210505771 194871485
" />
</g></g>
<g style="fill:#000000; fill-opacity:0.0; 
stroke:#000000; stroke-width:21200.000000; stroke-opacity:1; 
stroke-linecap:round; stroke-linejoin:round;">
</g>
<g style="fill:#000000; fill-opacity:0.0; 
stroke:#000000; stroke-width:150000.000000; stroke-opacity:1; 
stroke-linecap:round; stroke-linejoin:round;">
<path d="M177002200 191507200
L285002200 191507200
" />
</g>
<g style="fill:#000000; fill-opacity:0.0; 
stroke:#000000; stroke-width:21200.000000; stroke-opacity:1; 
stroke-linecap:round; stroke-linejoin:round;">
</g>
<g style="fill:#000000; fill-opacity:0.0; 
stroke:#000000; stroke-width:300000.000000; stroke-opacity:1; 
stroke-linecap:round; stroke-linejoin:round;">
<text x="263002200.000000" y="193857200.000000"
textLength="5935714.000000" font-size="2000000.000000" lengthAdjust="spacingAndGlyphs"
text-anchor="start" opacity="0">Rev: </text>
<g class="stroked-text"><desc>Rev: </desc>
<path d="M264411485 193785771
L263911485 193071485
" />
<path d="M263554342 193785771
L263554342 192285771
L264125771 192285771
L264268628 192357200
L264340057 192428628
L264411485 192571485
L264411485 192785771
L264340057 192928628
L264268628 193000057
L264125771 193071485
L263554342 193071485
" />
<path d="M265625771 193714342
L265482914 193785771
L265197200 193785771
L265054342 193714342
L264982914 193571485
L264982914 193000057
L265054342 192857200
L265197200 192785771
L265482914 192785771
L265625771 192857200
L265697200 193000057
L265697200 193142914
L264982914 193285771
" />
<path d="M266197200 192785771
L266554342 193785771
L266911485 192785771
" />
<path d="M267482914 193642914
L267554342 193714342
L267482914 193785771
L267411485 193714342
L267482914 193642914
L267482914 193785771
" />
<path d="M267482914 192857200
L267554342 192928628
L267482914 193000057
L267411485 192928628
L267482914 192857200
L267482914 193000057
" />
</g></g>
<g style="fill:#000000; fill-opacity:0.0; 
stroke:#000000; stroke-width:21200.000000; stroke-opacity:1; 
stroke-linecap:round; stroke-linejoin:round;">
</g>
<g style="fill:#000000; fill-opacity:0.0; 
stroke:#000000; stroke-width:150000.000000; stroke-opacity:1; 
stroke-linecap:round; stroke-linejoin:round;">
<text x="178002200.000000" y="193857200.000000"
textLength="9604286.000000" font-size="2000000.000000" lengthAdjust="spacingAndGlyphs"
text-anchor="start" opacity="0">Size: A4</text>
<g class="stroked-text"><desc>Size: A4</desc>
<path d="M178362914 193714342
L178577200 193785771
L178934342 193785771
L179077200 193714342
L179148628 193642914
L179220057 193500057
L179220057 193357200
L179148628 193214342
L179077200 193142914
L178934342 193071485
L178648628 193000057
L178505771 192928628
L178434342 192857200
L178362914 192714342
L178362914 192571485
L178434342 192428628
L178505771 192357200
L178648628 192285771
L179005771 192285771
L179220057 192357200
" />
<path d="M179862914 193785771
L179862914 192785771
" />
<path d="M179862914 192285771
L179791485 192357200
L179862914 192428628
L179934342 192357200
L179862914 192285771
L179862914 192428628
" />
<path d="M180434342 192785771
L181220057 192785771
L180434342 193785771
L181220057 193785771
" />
<path d="M182362914 193714342
L182220057 193785771
L181934342 193785771
L181791485 193714342
L181720057 193571485
L181720057 193000057
L181791485 192857200
L181934342 192785771
L182220057 192785771
L182362914 192857200
L182434342 193000057
L182434342 193142914
L181720057 193285771
" />
<path d="M183077200 193642914
L183148628 193714342
L183077200 193785771
L183005771 193714342
L183077200 193642914
L183077200 193785771
" />
<path d="M183077200 192857200
L183148628 192928628
L183077200 193000057
L183005771 192928628
L183077200 192857200
L183077200 193000057
" />
<path d="M184862914 193357200
L185577200 193357200
" />
<path d="M184720057 193785771
L185220057 192285771
L185720057 193785771
" />
<path d="M186862914 192785771
L186862914 193785771
" />
<path d="M186505771 192214342
L186148628 193285771
L187077200 193285771
" />
</g></g>
<g style="fill:#000000; fill-opacity:0.0; 
stroke:#000000; stroke-width:21200.000000; stroke-opacity:1; 
stroke-linecap:round; stroke-linejoin:round;">
</g>
<g style="fill:#000000; fill-opacity:0.0; 
stroke:#000000; stroke-width:150000.000000; stroke-opacity:1; 
stroke-linecap:round; stroke-linejoin:round;">
<text x="263002200.000000" y="196657200.000000"
textLength="8507143.000000" font-size="2000000.000000" lengthAdjust="spacingAndGlyphs"
text-anchor="start" opacity="0">Id: 1/1</text>
<g class="stroked-text"><desc>Id: 1/1</desc>
<path d="M263434342 196585771
L263434342 195085771
" />
<path d="M264791485 196585771
L264791485 195085771
" />
<path d="M264791485 196514342
L264648628 196585771
L264362914 196585771
L264220057 196514342
L264148628 196442914
L264077200 196300057
L264077200 195871485
L264148628 195728628
L264220057 195657200
L264362914 195585771
L264648628 195585771
L264791485 195657200
" />
<path d="M265505771 196442914
L265577200 196514342
L265505771 196585771
L265434342 196514342
L265505771 196442914
L265505771 196585771
" />
<path d="M265505771 195657200
L265577200 195728628
L265505771 195800057
L265434342 195728628
L265505771 195657200
L265505771 195800057
" />
<path d="M268148628 196585771
L267291485 196585771
" />
<path d="M267720057 196585771
L267720057 195085771
L267577200 195300057
L267434342 195442914
L267291485 195514342
" />
<path d="M269862914 195014342
L268577200 196942914
" />
<path d="M271148628 196585771
L270291485 196585771
" />
<path d="M270720057 196585771
L270720057 195085771
L270577200 195300057
L270434342 195442914
L270291485 195514342
" />
</g></g>
<g style="fill:#000000; fill-opacity:0.0; 
stroke:#000000; stroke-width:21200.000000; stroke-opacity:1; 
stroke-linecap:round; stroke-linejoin:round;">
</g>
<g style="fill:#000000; fill-opacity:0.0; 
stroke:#000000; stroke-width:150000.000000; stroke-opacity:1; 
stroke-linecap:round; stroke-linejoin:round;">
<path d="M177002200 187507200
L285002200 187507200
" />
</g>
<g style="fill:#000000; fill-opacity:0.0; 
stroke:#000000; stroke-width:21200.000000; stroke-opacity:1; 
stroke-linecap:round; stroke-linejoin:round;">
</g>
<g style="fill:#000000; fill-opacity:0.0; 
stroke:#000000; stroke-width:400000.000000; stroke-opacity:1; 
stroke-linecap:round; stroke-linejoin:round;">
<text x="178002200.000000" y="190307200.000000"
textLength="9409643.000000" font-size="2666666.000000" lengthAdjust="spacingAndGlyphs"
text-anchor="start" opacity="0">Title: </text>
<g class="stroked-text"><desc>Title: </desc>
<path d="M178714580 188211961
L179857438 188211961
" />
<path d="M179036009 190211961
L179286009 188211961
" />
<path d="M180274104 190211961
L180440771 188878628
" />
<path d="M180524104 188211961
L180416961 188307200
L180500295 188402438
L180607438 188307200
L180524104 188211961
L180500295 188402438
" />
<path d="M181107438 188878628
L181869342 188878628
" />
<path d="M181476485 188211961
L181262200 189926247
L181333628 190116723
L181512200 190211961
L181702676 190211961
" />
<path d="M182655057 190211961
L182476485 190116723
L182405057 189926247
L182619342 188211961
" />
<path d="M184190771 190116723
L183988390 190211961
L183607438 190211961
L183428866 190116723
L183357438 189926247
L183452676 189164342
L183571723 188973866
L183774104 188878628
L184155057 188878628
L184333628 188973866
L184405057 189164342
L184381247 189354819
L183405057 189545295
" />
<path d="M185155057 190021485
L185238390 190116723
L185131247 190211961
L185047914 190116723
L185155057 190021485
L185131247 190211961
" />
<path d="M185286009 188973866
L185369342 189069104
L185262200 189164342
L185178866 189069104
L185286009 188973866
L185262200 189164342
" />
</g></g>
<g style="fill:#000000; fill-opacity:0.0; 
stroke:#000000; stroke-width:21200.000000; stroke-opacity:1; 
stroke-linecap:round; stroke-linejoin:round;">
</g>
<g style="fill:#000000; fill-opacity:0.0; 
stroke:#000000; stroke-width:150000.000000; stroke-opacity:1; 
stroke-linecap:round; stroke-linejoin:round;">
<text x="178002200.000000" y="186457200.000000"
textLength="30662857.000000" font-size="2000000.000000" lengthAdjust="spacingAndGlyphs"
text-anchor="start" opacity="0">File: kicadBoard.kicad_pcb</text>
<g class="stroked-text"><desc>File: kicadBoard.kicad_pcb</desc>
<path d="M178934342 185600057
L178434342 185600057
" />
<path d="M178434342 186385771
L178434342 184885771
L179148628 184885771
" />
<path d="M179720057 186385771
L179720057 185385771
" />
<path d="M179720057 184885771
L179648628 184957200
L179720057 185028628
L179791485 184957200
L179720057 184885771
L179720057 185028628
" />
<path d="M180648628 186385771
L180505771 186314342
L180434342 186171485
L180434342 184885771
" />
<path d="M181791485 186314342
L181648628 186385771
L181362914 186385771
L181220057 186314342
L181148628 186171485
L181148628 185600057
L181220057 185457200
L181362914 185385771
L181648628 185385771
L181791485 185457200
L181862914 185600057
L181862914 185742914
L181148628 185885771
" />
<path d="M182505771 186242914
L182577200 186314342
L182505771 186385771
L182434342 186314342
L182505771 186242914
L182505771 186385771
" />
<path d="M182505771 185457200
L182577200 185528628
L182505771 185600057
L182434342 185528628
L182505771 185457200
L182505771 185600057
" />
<path d="M184362914 186385771
L184362914 184885771
" />
<path d="M184505771 185814342
L184934342 186385771
" />
<path d="M184934342 185385771
L184362914 185957200
" />
<path d="M185577200 186385771
L185577200 185385771
" />
<path d="M185577200 184885771
L185505771 184957200
L185577200 185028628
L185648628 184957200
L185577200 184885771
L185577200 185028628
" />
<path d="M186934342 186314342
L186791485 186385771
L186505771 186385771
L186362914 186314342
L186291485 186242914
L186220057 186100057
L186220057 185671485
L186291485 185528628
L186362914 185457200
L186505771 185385771
L186791485 185385771
L186934342 185457200
" />
<path d="M188220057 186385771
L188220057 185600057
L188148628 185457200
L188005771 185385771
L187720057 185385771
L187577200 185457200
" />
<path d="M188220057 186314342
L188077200 186385771
L187720057 186385771
L187577200 186314342
L187505771 186171485
L187505771 186028628
L187577200 185885771
L187720057 185814342
L188077200 185814342
L188220057 185742914
" />
<path d="M189577200 186385771
L189577200 184885771
" />
<path d="M189577200 186314342
L189434342 186385771
L189148628 186385771
L189005771 186314342
L188934342 186242914
L188862914 186100057
L188862914 185671485
L188934342 185528628
L189005771 185457200
L189148628 185385771
L189434342 185385771
L189577200 185457200
" />
<path d="M190791485 185600057
L191005771 185671485
L191077200 185742914
L191148628 185885771
L191148628 186100057
L191077200 186242914
L191005771 186314342
L190862914 186385771
L190291485 186385771
L190291485 184885771
L190791485 184885771
L190934342 184957200
L191005771 185028628
L191077200 185171485
L191077200 185314342
L191005771 185457200
L190934342 185528628
L190791485 185600057
L190291485 185600057
" />
<path d="M192005771 186385771
L191862914 186314342
L191791485 186242914
L191720057 186100057
L191720057 185671485
L191791485 185528628
L191862914 185457200
L192005771 185385771
L192220057 185385771
L192362914 185457200
L192434342 185528628
L192505771 185671485
L192505771 186100057
L192434342 186242914
L192362914 186314342
L192220057 186385771
L192005771 186385771
" />
<path d="M193791485 186385771
L193791485 185600057
L193720057 185457200
L193577200 185385771
L193291485 185385771
L193148628 185457200
" />
<path d="M193791485 186314342
L193648628 186385771
L193291485 186385771
L193148628 186314342
L193077200 186171485
L193077200 186028628
L193148628 185885771
L193291485 185814342
L193648628 185814342
L193791485 185742914
" />
<path d="M194505771 186385771
L194505771 185385771
" />
<path d="M194505771 185671485
L194577200 185528628
L194648628 185457200
L194791485 185385771
L194934342 185385771
" />
<path d="M196077200 186385771
L196077200 184885771
" />
<path d="M196077200 186314342
L195934342 186385771
L195648628 186385771
L195505771 186314342
L195434342 186242914
L195362914 186100057
L195362914 185671485
L195434342 185528628
L195505771 185457200
L195648628 185385771
L195934342 185385771
L196077200 185457200
" />
<path d="M196791485 186242914
L196862914 186314342
L196791485 186385771
L196720057 186314342
L196791485 186242914
L196791485 186385771
" />
<path d="M197505771 186385771
L197505771 184885771
" />
<path d="M197648628 185814342
L198077200 186385771
" />
<path d="M198077200 185385771
L197505771 185957200
" />
<path d="M198720057 186385771
L198720057 185385771
" />
<path d="M198720057 184885771
L198648628 184957200
L198720057 185028628
L198791485 184957200
L198720057 184885771
L198720057 185028628
" />
<path d="M200077200 186314342
L199934342 186385771
L199648628 186385771
L199505771 186314342
L199434342 186242914
L199362914 186100057
L199362914 185671485
L199434342 185528628
L199505771 185457200
L199648628 185385771
L199934342 185385771
L200077200 185457200
" />
<path d="M201362914 186385771
L201362914 185600057
L201291485 185457200
L201148628 185385771
L200862914 185385771
L200720057 185457200
" />
<path d="M201362914 186314342
L201220057 186385771
L200862914 186385771
L200720057 186314342
L200648628 186171485
L200648628 186028628
L200720057 185885771
L200862914 185814342
L201220057 185814342
L201362914 185742914
" />
<path d="M202720057 186385771
L202720057 184885771
" />
<path d="M202720057 186314342
L202577200 186385771
L202291485 186385771
L202148628 186314342
L202077200 186242914
L202005771 186100057
L202005771 185671485
L202077200 185528628
L202148628 185457200
L202291485 185385771
L202577200 185385771
L202720057 185457200
" />
<path d="M203077200 186528628
L204220057 186528628
" />
<path d="M204577200 185385771
L204577200 186885771
" />
<path d="M204577200 185457200
L204720057 185385771
L205005771 185385771
L205148628 185457200
L205220057 185528628
L205291485 185671485
L205291485 186100057
L205220057 186242914
L205148628 186314342
L205005771 186385771
L204720057 186385771
L204577200 186314342
" />
<path d="M206577200 186314342
L206434342 186385771
L206148628 186385771
L206005771 186314342
L205934342 186242914
L205862914 186100057
L205862914 185671485
L205934342 185528628
L206005771 185457200
L206148628 185385771
L206434342 185385771
L206577200 185457200
" />
<path d="M207220057 186385771
L207220057 184885771
" />
<path d="M207220057 185457200
L207362914 185385771
L207648628 185385771
L207791485 185457200
L207862914 185528628
L207934342 185671485
L207934342 186100057
L207862914 186242914
L207791485 186314342
L207648628 186385771
L207362914 186385771
L207220057 186314342
" />
</g></g>
<g style="fill:#000000; fill-opacity:0.0; 
stroke:#000000; stroke-width:21200.000000; stroke-opacity:1; 
stroke-linecap:round; stroke-linejoin:round;">
</g>
<g style="fill:#000000; fill-opacity:0.0; 
stroke:#000000; stroke-width:150000.000000; stroke-opacity:1; 
stroke-linecap:round; stroke-linejoin:round;">
<path d="M177002200 181507200
L285002200 181507200
" />
</g>
<g style="fill:#000000; fill-opacity:0.0; 
stroke:#000000; stroke-width:21200.000000; stroke-opacity:1; 
stroke-linecap:round; stroke-linejoin:round;">
</g>
<g style="fill:#000000; fill-opacity:0.0; 
stroke:#000000; stroke-width:150000.000000; stroke-opacity:1; 
stroke-linecap:round; stroke-linejoin:round;">
<text x="178002200.000000" y="183757200.000000"
textLength="8221429.000000" font-size="2000000.000000" lengthAdjust="spacingAndGlyphs"
text-anchor="start" opacity="0">Sheet: </text>
<g class="stroked-text"><desc>Sheet: </desc>
<path d="M178362914 183614342
L178577200 183685771
L178934342 183685771
L179077200 183614342
L179148628 183542914
L179220057 183400057
L179220057 183257200
L179148628 183114342
L179077200 183042914
L178934342 182971485
L178648628 182900057
L178505771 182828628
L178434342 182757200
L178362914 182614342
L178362914 182471485
L178434342 182328628
L178505771 182257200
L178648628 182185771
L179005771 182185771
L179220057 182257200
" />
<path d="M179862914 183685771
L179862914 182185771
" />
<path d="M180505771 183685771
L180505771 182900057
L180434342 182757200
L180291485 182685771
L180077200 182685771
L179934342 182757200
L179862914 182828628
" />
<path d="M181791485 183614342
L181648628 183685771
L181362914 183685771
L181220057 183614342
L181148628 183471485
L181148628 182900057
L181220057 182757200
L181362914 182685771
L181648628 182685771
L181791485 182757200
L181862914 182900057
L181862914 183042914
L181148628 183185771
" />
<path d="M183077200 183614342
L182934342 183685771
L182648628 183685771
L182505771 183614342
L182434342 183471485
L182434342 182900057
L182505771 182757200
L182648628 182685771
L182934342 182685771
L183077200 182757200
L183148628 182900057
L183148628 183042914
L182434342 183185771
" />
<path d="M183577200 182685771
L184148628 182685771
" />
<path d="M183791485 182185771
L183791485 183471485
L183862914 183614342
L184005771 183685771
L184148628 183685771
" />
<path d="M184648628 183542914
L184720057 183614342
L184648628 183685771
L184577200 183614342
L184648628 183542914
L184648628 183685771
" />
<path d="M184648628 182757200
L184720057 182828628
L184648628 182900057
L184577200 182828628
L184648628 182757200
L184648628 182900057
" />
</g></g>
<g style="fill:#000000; fill-opacity:0.0; 
stroke:#000000; stroke-width:21200.000000; stroke-opacity:1; 
stroke-linecap:round; stroke-linejoin:round;">
</g>
<g style="fill:#000000; fill-opacity:0.0; 
stroke:#000000; stroke-width:300000.000000; stroke-opacity:1; 
stroke-linecap:round; stroke-linejoin:round;">
<text x="178002200.000000" y="180757200.000000"
textLength="150000.000000" font-size="2000000.000000" lengthAdjust="spacingAndGlyphs"
text-anchor="start" opacity="0"></text>
<g class="stroked-text"><desc></desc>
</g></g>
<g style="fill:#000000; fill-opacity:0.0; 
stroke:#000000; stroke-width:21200.000000; stroke-opacity:1; 
stroke-linecap:round; stroke-linejoin:round;">
</g>
<g style="fill:#000000; fill-opacity:0.0; 
stroke:#000000; stroke-width:150000.000000; stroke-opacity:1; 
stroke-linecap:round; stroke-linejoin:round;">
<text x="178002200.000000" y="177757200.000000"
textLength="300000.000000" font-size="2000000.000000" lengthAdjust="spacingAndGlyphs"
text-anchor="start" opacity="0"></text>
<g class="stroked-text"><desc></desc>
</g></g>
<g style="fill:#000000; fill-opacity:0.0; 
stroke:#000000; stroke-width:21200.000000; stroke-opacity:1; 
stroke-linecap:round; stroke-linejoin:round;">
</g>
<g style="fill:#000000; fill-opacity:0.0; 
stroke:#000000; stroke-width:150000.000000; stroke-opacity:1; 
stroke-linecap:round; stroke-linejoin:round;">
<text x="178002200.000000" y="174757200.000000"
textLength="150000.000000" font-size="2000000.000000" lengthAdjust="spacingAndGlyphs"
text-anchor="start" opacity="0"></text>
<g class="stroked-text"><desc></desc>
</g></g>
<g style="fill:#000000; fill-opacity:0.0; 
stroke:#000000; stroke-width:21200.000000; stroke-opacity:1; 
stroke-linecap:round; stroke-linejoin:round;">
</g>
<g style="fill:#000000; fill-opacity:0.0; 
stroke:#000000; stroke-width:150000.000000; stroke-opacity:1; 
stroke-linecap:round; stroke-linejoin:round;">
<text x="178002200.000000" y="171757200.000000"
textLength="150000.000000" font-size="2000000.000000" lengthAdjust="spacingAndGlyphs"
text-anchor="start" opacity="0"></text>
<g class="stroked-text"><desc></desc>
</g></g>
<g style="fill:#000000; fill-opacity:0.0; 
stroke:#000000; stroke-width:21200.000000; stroke-opacity:1; 
stroke-linecap:round; stroke-linejoin:round;">
</g>
<g style="fill:#000000; fill-opacity:0.0; 
stroke:#000000; stroke-width:150000.000000; stroke-opacity:1; 
stroke-linecap:round; stroke-linejoin:round;">
<text x="178002200.000000" y="168757200.000000"
textLength="150000.000000" font-size="2000000.000000" lengthAdjust="spacingAndGlyphs"
text-anchor="start" opacity="0"></text>
<g class="stroked-text"><desc></desc>
</g></g>
<g style="fill:#000000; fill-opacity:0.0; 
stroke:#000000; stroke-width:21200.000000; stroke-opacity:1; 
stroke-linecap:round; stroke-linejoin:round;">
</g>
<g style="fill:#000000; fill-opacity:0.0; 
stroke:#000000; stroke-width:150000.000000; stroke-opacity:1; 
stroke-linecap:round; stroke-linejoin:round;">
<path d="M197002200 191507200
L197002200 194507200
" />
</g>
<g style="fill:#000000; fill-opacity:0.0; 
stroke:#000000; stroke-width:21200.000000; stroke-opacity:1; 
stroke-linecap:round; stroke-linejoin:round;">
</g>
<g style="fill:#000000; fill-opacity:0.0; 
stroke:#000000; stroke-width:150000.000000; stroke-opacity:1; 
stroke-linecap:round; stroke-linejoin:round;">
<path d="M261002200 191507200
L261002200 198007200
" />
</g>
<g style="fill:#585D84; fill-opacity:0.0; 
stroke:#585D84; stroke-width:150000.000000; stroke-opacity:1; 
stroke-linecap:round; stroke-linejoin:round;">
</g>
<g style="fill:#585D84; fill-opacity:0.0; 
stroke:#585D84; stroke-width:36576.000000; stroke-opacity:1; 
stroke-linecap:round; stroke-linejoin:round;">
<g transform="rotate(-90.000000 147015200.000000 114719100.000000)">
<text x="147015200.000000" y="115107212.000000"
transform="scale(-1 1) translate(-294030400.000000 0)"
textLength="1365485.000000" font-size="1034965.000000" lengthAdjust="spacingAndGlyphs"
text-anchor="start" opacity="0">1K</text>
</g>
<g class="stroked-text"><desc>1K</desc>
<path d="M147366348 115334283
L147366348 114890726
" />
<path d="M147366348 115112504
L146590124 115112504
L146701014 115038578
L146774940 114964652
L146811903 114890726
" />
<path d="M147366348 115666950
L146590124 115666950
" />
<path d="M147366348 116110507
L146922792 115777839
" />
<path d="M146590124 116110507
L147033681 115666950
" />
</g><text x="144945100.000000" y="99003612.000000"
transform="scale(-1 1) translate(-289890200.000000 0)"
textLength="2207197.000000" font-size="1034965.000000" lengthAdjust="spacingAndGlyphs"
text-anchor="start" opacity="0">10K</text>
<g class="stroked-text"><desc>10K</desc>
<path d="M144329916 98966648
L144773473 98966648
" />
<path d="M144551695 98966648
L144551695 98190424
L144625621 98301314
L144699547 98375240
L144773473 98412203
" />
<path d="M143849397 98190424
L143775471 98190424
L143701545 98227388
L143664581 98264351
L143627618 98338277
L143590655 98486129
L143590655 98670944
L143627618 98818796
L143664581 98892722
L143701545 98929685
L143775471 98966648
L143849397 98966648
L143923323 98929685
L143960286 98892722
L143997249 98818796
L144034212 98670944
L144034212 98486129
L143997249 98338277
L143960286 98264351
L143923323 98227388
L143849397 98190424
" />
<path d="M143257988 98966648
L143257988 98190424
" />
<path d="M142814431 98966648
L143147099 98523092
" />
<path d="M142814431 98190424
L143257988 98633981
" />
</g><text x="151493600.000000" y="117054312.000000"
transform="scale(-1 1) translate(-302987200.000000 0)"
textLength="3870534.000000" font-size="1034965.000000" lengthAdjust="spacingAndGlyphs"
text-anchor="start" opacity="0">12MHZ</text>
<g class="stroked-text"><desc>12MHZ</desc>
<path d="M150878416 117017348
L151321973 117017348
" />
<path d="M151100195 117017348
L151100195 116241124
L151174121 116352014
L151248047 116425940
L151321973 116462903
" />
<path d="M150582712 116315051
L150545749 116278088
L150471823 116241124
L150287008 116241124
L150213081 116278088
L150176118 116315051
L150139155 116388977
L150139155 116462903
L150176118 116573792
L150619675 117017348
L150139155 117017348
" />
<path d="M149806488 117017348
L149806488 116241124
L149547747 116795570
L149289005 116241124
L149289005 117017348
" />
<path d="M148919375 117017348
L148919375 116241124
" />
<path d="M148919375 116610755
L148475818 116610755
" />
<path d="M148475818 117017348
L148475818 116241124
" />
<path d="M148180114 116241124
L147662631 116241124
L148180114 117017348
L147662631 117017348
" />
</g><g transform="rotate(-90.000000 142163800.000000 104851200.000000)">
<text x="142163800.000000" y="105239312.000000"
transform="scale(-1 1) translate(-284327600.000000 0)"
textLength="3168236.000000" font-size="1034965.000000" lengthAdjust="spacingAndGlyphs"
text-anchor="start" opacity="0">0.1uF</text>
</g>
<g class="stroked-text"><desc>0.1uF</desc>
<path d="M141738724 105207641
L141738724 105281567
L141775688 105355494
L141812651 105392457
L141886577 105429420
L142034429 105466383
L142219244 105466383
L142367096 105429420
L142441022 105392457
L142477985 105355494
L142514948 105281567
L142514948 105207641
L142477985 105133715
L142441022 105096752
L142367096 105059789
L142219244 105022826
L142034429 105022826
L141886577 105059789
L141812651 105096752
L141775688 105133715
L141738724 105207641
" />
<path d="M142441022 105799050
L142477985 105836013
L142514948 105799050
L142477985 105762087
L142441022 105799050
L142514948 105799050
" />
<path d="M142514948 106575274
L142514948 106131718
" />
<path d="M142514948 106353496
L141738724 106353496
L141849614 106279570
L141923540 106205644
L141960503 106131718
" />
<path d="M141997466 107240609
L142514948 107240609
" />
<path d="M141997466 106907942
L142404059 106907942
L142477985 106944905
L142514948 107018831
L142514948 107129720
L142477985 107203646
L142441022 107240609
" />
<path d="M142108355 107868981
L142108355 107610239
" />
<path d="M142514948 107610239
L141738724 107610239
L141738724 107979870
" />
</g><text x="152984200.000000" y="113481612.000000"
transform="scale(-1 1) translate(-305968400.000000 0)"
textLength="2798606.000000" font-size="1034965.000000" lengthAdjust="spacingAndGlyphs"
text-anchor="end" opacity="0">22pF</text>
<g class="stroked-text"><desc>22pF</desc>
<path d="M155706276 112742351
L155669313 112705388
L155595387 112668424
L155410572 112668424
L155336646 112705388
L155299683 112742351
L155262720 112816277
L155262720 112890203
L155299683 113001092
L155743239 113444648
L155262720 113444648
" />
<path d="M154967015 112742351
L154930052 112705388
L154856126 112668424
L154671311 112668424
L154597385 112705388
L154560422 112742351
L154523459 112816277
L154523459 112890203
L154560422 113001092
L155003978 113444648
L154523459 113444648
" />
<path d="M154190791 112927166
L154190791 113703390
" />
<path d="M154190791 112964129
L154116865 112927166
L153969013 112927166
L153895087 112964129
L153858124 113001092
L153821161 113075018
L153821161 113296796
L153858124 113370722
L153895087 113407685
L153969013 113444648
L154116865 113444648
L154190791 113407685
" />
<path d="M153229752 113038055
L153488494 113038055
" />
<path d="M153488494 113444648
L153488494 112668424
L153118863 112668424
" />
</g><g transform="rotate(-90.000000 155041600.000000 108864400.000000)">
<text x="155041600.000000" y="109252512.000000"
transform="scale(-1 1) translate(-310083200.000000 0)"
textLength="3168236.000000" font-size="1034965.000000" lengthAdjust="spacingAndGlyphs"
text-anchor="end" opacity="0">0.1uF</text>
</g>
<g class="stroked-text"><desc>0.1uF</desc>
<path d="M154616524 105957507
L154616524 106031433
L154653488 106105360
L154690451 106142323
L154764377 106179286
L154912229 106216249
L155097044 106216249
L155244896 106179286
L155318822 106142323
L155355785 106105360
L155392748 106031433
L155392748 105957507
L155355785 105883581
L155318822 105846618
L155244896 105809655
L155097044 105772692
L154912229 105772692
L154764377 105809655
L154690451 105846618
L154653488 105883581
L154616524 105957507
" />
<path d="M155318822 106548916
L155355785 106585879
L155392748 106548916
L155355785 106511953
L155318822 106548916
L155392748 106548916
" />
<path d="M155392748 107325140
L155392748 106881584
" />
<path d="M155392748 107103362
L154616524 107103362
L154727414 107029436
L154801340 106955510
L154838303 106881584
" />
<path d="M154875266 107990475
L155392748 107990475
" />
<path d="M154875266 107657808
L155281859 107657808
L155355785 107694771
L155392748 107768697
L155392748 107879586
L155355785 107953512
L155318822 107990475
" />
<path d="M154986155 108618847
L154986155 108360105
" />
<path d="M155392748 108360105
L154616524 108360105
L154616524 108729736
" />
</g><g transform="rotate(-90.000000 151307800.000000 103797100.000000)">
<text x="151307800.000000" y="104185212.000000"
transform="scale(-1 1) translate(-302615600.000000 0)"
textLength="2059345.000000" font-size="1034965.000000" lengthAdjust="spacingAndGlyphs"
text-anchor="start" opacity="0">1uF</text>
</g>
<g class="stroked-text"><desc>1uF</desc>
<path d="M151658948 104412283
L151658948 103968726
" />
<path d="M151658948 104190504
L150882724 104190504
L150993614 104116578
L151067540 104042652
L151104503 103968726
" />
<path d="M151141466 105077618
L151658948 105077618
" />
<path d="M151141466 104744950
L151548059 104744950
L151621985 104781913
L151658948 104855839
L151658948 104966728
L151621985 105040654
L151585022 105077618
" />
<path d="M151252355 105705989
L151252355 105447248
" />
<path d="M151658948 105447248
L150882724 105447248
L150882724 105816878
" />
</g><g transform="rotate(-90.000000 142402812.000000 113977507.000000)">
<text x="142402812.000000" y="114365619.000000"
transform="scale(-1 1) translate(-284805624.000000 0)"
textLength="2059345.000000" font-size="1034965.000000" lengthAdjust="spacingAndGlyphs"
text-anchor="start" opacity="0">1uF</text>
</g>
<g class="stroked-text"><desc>1uF</desc>
<path d="M142753960 114592690
L142753960 114149133
" />
<path d="M142753960 114370911
L141977736 114370911
L142088626 114296985
L142162552 114223059
L142199515 114149133
" />
<path d="M142236478 115258025
L142753960 115258025
" />
<path d="M142236478 114925357
L142643071 114925357
L142716997 114962320
L142753960 115036246
L142753960 115147135
L142716997 115221061
L142680034 115258025
" />
<path d="M142347367 115886396
L142347367 115627655
" />
<path d="M142753960 115627655
L141977736 115627655
L141977736 115997285
" />
</g><g transform="rotate(-90.000000 154114500.000000 106235500.000000)">
<text x="154114500.000000" y="106623612.000000"
transform="scale(-1 1) translate(-308229000.000000 0)"
textLength="3168236.000000" font-size="1034965.000000" lengthAdjust="spacingAndGlyphs"
text-anchor="start" opacity="0">0.1uF</text>
</g>
<g class="stroked-text"><desc>0.1uF</desc>
<path d="M153689424 106591941
L153689424 106665867
L153726388 106739794
L153763351 106776757
L153837277 106813720
L153985129 106850683
L154169944 106850683
L154317796 106813720
L154391722 106776757
L154428685 106739794
L154465648 106665867
L154465648 106591941
L154428685 106518015
L154391722 106481052
L154317796 106444089
L154169944 106407126
L153985129 106407126
L153837277 106444089
L153763351 106481052
L153726388 106518015
L153689424 106591941
" />
<path d="M154391722 107183350
L154428685 107220313
L154465648 107183350
L154428685 107146387
L154391722 107183350
L154465648 107183350
" />
<path d="M154465648 107959574
L154465648 107516018
" />
<path d="M154465648 107737796
L153689424 107737796
L153800314 107663870
L153874240 107589944
L153911203 107516018
" />
<path d="M153948166 108624909
L154465648 108624909
" />
<path d="M153948166 108292242
L154354759 108292242
L154428685 108329205
L154465648 108403131
L154465648 108514020
L154428685 108587946
L154391722 108624909
" />
<path d="M154059055 109253281
L154059055 108994539
" />
<path d="M154465648 108994539
L153689424 108994539
L153689424 109364170
" />
</g><text x="146837400.000000" y="103410512.000000"
transform="scale(-1 1) translate(-293674800.000000 0)"
textLength="3168236.000000" font-size="1034965.000000" lengthAdjust="spacingAndGlyphs"
text-anchor="end" opacity="0">0.1uF</text>
<g class="stroked-text"><desc>0.1uF</desc>
<path d="M149744292 102597324
L149670366 102597324
L149596439 102634288
L149559476 102671251
L149522513 102745177
L149485550 102893029
L149485550 103077844
L149522513 103225696
L149559476 103299622
L149596439 103336585
L149670366 103373548
L149744292 103373548
L149818218 103336585
L149855181 103299622
L149892144 103225696
L149929107 103077844
L149929107 102893029
L149892144 102745177
L149855181 102671251
L149818218 102634288
L149744292 102597324
" />
<path d="M149152883 103299622
L149115920 103336585
L149152883 103373548
L149189846 103336585
L149152883 103299622
L149152883 103373548
" />
<path d="M148376659 103373548
L148820215 103373548
" />
<path d="M148598437 103373548
L148598437 102597324
L148672363 102708214
L148746289 102782140
L148820215 102819103
" />
<path d="M147711324 102856066
L147711324 103373548
" />
<path d="M148043991 102856066
L148043991 103262659
L148007028 103336585
L147933102 103373548
L147822213 103373548
L147748287 103336585
L147711324 103299622
" />
<path d="M147082952 102966955
L147341694 102966955
" />
<path d="M147341694 103373548
L147341694 102597324
L146972063 102597324
" />
</g><text x="153035000.000000" y="114688112.000000"
transform="scale(-1 1) translate(-306070000.000000 0)"
textLength="2798606.000000" font-size="1034965.000000" lengthAdjust="spacingAndGlyphs"
text-anchor="end" opacity="0">22pF</text>
<g class="stroked-text"><desc>22pF</desc>
<path d="M155757076 113948851
L155720113 113911888
L155646187 113874924
L155461372 113874924
L155387446 113911888
L155350483 113948851
L155313520 114022777
L155313520 114096703
L155350483 114207592
L155794039 114651148
L155313520 114651148
" />
<path d="M155017815 113948851
L154980852 113911888
L154906926 113874924
L154722111 113874924
L154648185 113911888
L154611222 113948851
L154574259 114022777
L154574259 114096703
L154611222 114207592
L155054778 114651148
L154574259 114651148
" />
<path d="M154241591 114133666
L154241591 114909890
" />
<path d="M154241591 114170629
L154167665 114133666
L154019813 114133666
L153945887 114170629
L153908924 114207592
L153871961 114281518
L153871961 114503296
L153908924 114577222
L153945887 114614185
L154019813 114651148
L154167665 114651148
L154241591 114614185
" />
<path d="M153280552 114244555
L153539294 114244555
" />
<path d="M153539294 114651148
L153539294 113874924
L153169663 113874924
" />
</g><text x="144581700.000000" y="95027212.000000"
transform="scale(-1 1) translate(-289163400.000000 0)"
textLength="6420985.000000" font-size="1034965.000000" lengthAdjust="spacingAndGlyphs"
text-anchor="end" opacity="0">  NSR0320</text>
<g class="stroked-text"><desc>  NSR0320</desc>
<path d="M149706374 94990248
L149706374 94214024
L149262818 94990248
L149262818 94214024
" />
<path d="M148930150 94953285
L148819261 94990248
L148634446 94990248
L148560520 94953285
L148523557 94916322
L148486594 94842396
L148486594 94768470
L148523557 94694544
L148560520 94657581
L148634446 94620618
L148782298 94583655
L148856224 94546692
L148893187 94509729
L148930150 94435803
L148930150 94361877
L148893187 94287951
L148856224 94250988
L148782298 94214024
L148597483 94214024
L148486594 94250988
" />
<path d="M147710370 94990248
L147969111 94620618
" />
<path d="M148153926 94990248
L148153926 94214024
L147858222 94214024
L147784296 94250988
L147747333 94287951
L147710370 94361877
L147710370 94472766
L147747333 94546692
L147784296 94583655
L147858222 94620618
L148153926 94620618
" />
<path d="M147229850 94214024
L147155924 94214024
L147081998 94250988
L147045035 94287951
L147008072 94361877
L146971109 94509729
L146971109 94694544
L147008072 94842396
L147045035 94916322
L147081998 94953285
L147155924 94990248
L147229850 94990248
L147303776 94953285
L147340739 94916322
L147377702 94842396
L147414666 94694544
L147414666 94509729
L147377702 94361877
L147340739 94287951
L147303776 94250988
L147229850 94214024
" />
<path d="M146712368 94214024
L146231848 94214024
L146490589 94509729
L146379700 94509729
L146305774 94546692
L146268811 94583655
L146231848 94657581
L146231848 94842396
L146268811 94916322
L146305774 94953285
L146379700 94990248
L146601478 94990248
L146675405 94953285
L146712368 94916322
" />
<path d="M145936144 94287951
L145899181 94250988
L145825254 94214024
L145640439 94214024
L145566513 94250988
L145529550 94287951
L145492587 94361877
L145492587 94435803
L145529550 94546692
L145973107 94990248
L145492587 94990248
" />
<path d="M145012067 94214024
L144938141 94214024
L144864215 94250988
L144827252 94287951
L144790289 94361877
L144753326 94509729
L144753326 94694544
L144790289 94842396
L144827252 94916322
L144864215 94953285
L144938141 94990248
L145012067 94990248
L145085994 94953285
L145122957 94916322
L145159920 94842396
L145196883 94694544
L145196883 94509729
L145159920 94361877
L145122957 94287951
L145085994 94250988
L145012067 94214024
" />
</g><text x="144462500.000000" y="112656112.000000"
transform="scale(-1 1) translate(-288925000.000000 0)"
textLength="3168236.000000" font-size="1034965.000000" lengthAdjust="spacingAndGlyphs"
text-anchor="end" opacity="0">0.1uF</text>
<g class="stroked-text"><desc>0.1uF</desc>
<path d="M147369392 111842924
L147295466 111842924
L147221539 111879888
L147184576 111916851
L147147613 111990777
L147110650 112138629
L147110650 112323444
L147147613 112471296
L147184576 112545222
L147221539 112582185
L147295466 112619148
L147369392 112619148
L147443318 112582185
L147480281 112545222
L147517244 112471296
L147554207 112323444
L147554207 112138629
L147517244 111990777
L147480281 111916851
L147443318 111879888
L147369392 111842924
" />
<path d="M146777983 112545222
L146741020 112582185
L146777983 112619148
L146814946 112582185
L146777983 112545222
L146777983 112619148
" />
<path d="M146001759 112619148
L146445315 112619148
" />
<path d="M146223537 112619148
L146223537 111842924
L146297463 111953814
L146371389 112027740
L146445315 112064703
" />
<path d="M145336424 112101666
L145336424 112619148
" />
<path d="M145669091 112101666
L145669091 112508259
L145632128 112582185
L145558202 112619148
L145447313 112619148
L145373387 112582185
L145336424 112545222
" />
<path d="M144708052 112212555
L144966794 112212555
" />
<path d="M144966794 112619148
L144966794 111842924
L144597163 111842924
" />
</g><g transform="rotate(-90.000000 144894300.000000 104013000.000000)">
<text x="144894300.000000" y="104401112.000000"
transform="scale(-1 1) translate(-289788600.000000 0)"
textLength="2059345.000000" font-size="1034965.000000" lengthAdjust="spacingAndGlyphs"
text-anchor="end" opacity="0">1uF</text>
</g>
<g class="stroked-text"><desc>1uF</desc>
<path d="M145245448 102473740
L145245448 102030184
" />
<path d="M145245448 102251962
L144469224 102251962
L144580114 102178036
L144654040 102104110
L144691003 102030184
" />
<path d="M144727966 103139075
L145245448 103139075
" />
<path d="M144727966 102806408
L145134559 102806408
L145208485 102843371
L145245448 102917297
L145245448 103028186
L145208485 103102112
L145171522 103139075
" />
<path d="M144838855 103767447
L144838855 103508705
" />
<path d="M145245448 103508705
L144469224 103508705
L144469224 103878336
" />
</g><g transform="rotate(-90.000000 146837400.000000 101384100.000000)">
<text x="146837400.000000" y="101772212.000000"
transform="scale(-1 1) translate(-293674800.000000 0)"
textLength="3168236.000000" font-size="1034965.000000" lengthAdjust="spacingAndGlyphs"
text-anchor="start" opacity="0">0.1uF</text>
</g>
<g class="stroked-text"><desc>0.1uF</desc>
<path d="M146412324 101740541
L146412324 101814467
L146449288 101888394
L146486251 101925357
L146560177 101962320
L146708029 101999283
L146892844 101999283
L147040696 101962320
L147114622 101925357
L147151585 101888394
L147188548 101814467
L147188548 101740541
L147151585 101666615
L147114622 101629652
L147040696 101592689
L146892844 101555726
L146708029 101555726
L146560177 101592689
L146486251 101629652
L146449288 101666615
L146412324 101740541
" />
<path d="M147114622 102331950
L147151585 102368913
L147188548 102331950
L147151585 102294987
L147114622 102331950
L147188548 102331950
" />
<path d="M147188548 103108174
L147188548 102664618
" />
<path d="M147188548 102886396
L146412324 102886396
L146523214 102812470
L146597140 102738544
L146634103 102664618
" />
<path d="M146671066 103773509
L147188548 103773509
" />
<path d="M146671066 103440842
L147077659 103440842
L147151585 103477805
L147188548 103551731
L147188548 103662620
L147151585 103736546
L147114622 103773509
" />
<path d="M146781955 104401881
L146781955 104143139
" />
<path d="M147188548 104143139
L146412324 104143139
L146412324 104512770
" />
</g><text x="150444200.000000" y="97936812.000000"
transform="scale(-1 1) translate(-300888400.000000 0)"
textLength="1467936.000000" font-size="1034965.000000" lengthAdjust="spacingAndGlyphs"
text-anchor="start" opacity="0">1K</text>
<g class="stroked-text"><desc>1K</desc>
<path d="M149829016 97899848
L150272573 97899848
" />
<path d="M150050795 97899848
L150050795 97123624
L150124721 97234514
L150198647 97308440
L150272573 97345403
" />
<path d="M149496349 97899848
L149496349 97123624
" />
<path d="M149052792 97899848
L149385460 97456292
" />
<path d="M149052792 97123624
L149496349 97567181
" />
</g></g>
<g style="fill:#585D84; fill-opacity:0.0; 
stroke:#585D84; stroke-width:35763.000000; stroke-opacity:1; 
stroke-linecap:round; stroke-linejoin:round;">
<text x="149872700.000000" y="94686018.000000"
transform="scale(-1 1) translate(-299745400.000000 0)"
textLength="9350899.000000" font-size="1036049.000000" lengthAdjust="spacingAndGlyphs"
text-anchor="start" opacity="0">8MB QSPI Flash</text>
<g class="stroked-text"><desc>8MB QSPI Flash</desc>
<path d="M149553439 94204995
L149627443 94167993
L149664445 94130992
L149701447 94056988
L149701447 94019986
L149664445 93945983
L149627443 93908981
L149553439 93871979
L149405432 93871979
L149331429 93908981
L149294427 93945983
L149257425 94019986
L149257425 94056988
L149294427 94130992
L149331429 94167993
L149405432 94204995
L149553439 94204995
L149627443 94241997
L149664445 94278999
L149701447 94353002
L149701447 94501009
L149664445 94575013
L149627443 94612014
L149553439 94649016
L149405432 94649016
L149331429 94612014
L149294427 94575013
L149257425 94501009
L149257425 94353002
L149294427 94278999
L149331429 94241997
L149405432 94204995
" />
<path d="M148924410 94649016
L148924410 93871979
L148665397 94427006
L148406385 93871979
L148406385 94649016
" />
<path d="M147777355 94241997
L147666350 94278999
L147629348 94316000
L147592346 94390004
L147592346 94501009
L147629348 94575013
L147666350 94612014
L147740353 94649016
L148036367 94649016
L148036367 93871979
L147777355 93871979
L147703351 93908981
L147666350 93945983
L147629348 94019986
L147629348 94093990
L147666350 94167993
L147703351 94204995
L147777355 94241997
L148036367 94241997
" />
<path d="M146149277 94723020
L146223281 94686018
L146297284 94612014
L146408290 94501009
L146482293 94464007
L146556297 94464007
" />
<path d="M146519295 94649016
L146593299 94612014
L146667302 94538011
L146704304 94390004
L146704304 94130992
L146667302 93982985
L146593299 93908981
L146519295 93871979
L146371288 93871979
L146297284 93908981
L146223281 93982985
L146186279 94130992
L146186279 94390004
L146223281 94538011
L146297284 94612014
L146371288 94649016
L146519295 94649016
" />
<path d="M145890265 94612014
L145779260 94649016
L145594251 94649016
L145520247 94612014
L145483246 94575013
L145446244 94501009
L145446244 94427006
L145483246 94353002
L145520247 94316000
L145594251 94278999
L145742258 94241997
L145816262 94204995
L145853263 94167993
L145890265 94093990
L145890265 94019986
L145853263 93945983
L145816262 93908981
L145742258 93871979
L145557249 93871979
L145446244 93908981
" />
<path d="M145113228 94649016
L145113228 93871979
L144817214 93871979
L144743210 93908981
L144706209 93945983
L144669207 94019986
L144669207 94130992
L144706209 94204995
L144743210 94241997
L144817214 94278999
L145113228 94278999
" />
<path d="M144336191 94649016
L144336191 93871979
" />
<path d="M143115133 94241997
L143374145 94241997
" />
<path d="M143374145 94649016
L143374145 93871979
L143004128 93871979
" />
<path d="M142597108 94649016
L142671112 94612014
L142708114 94538011
L142708114 93871979
" />
<path d="M141968078 94649016
L141968078 94241997
L142005080 94167993
L142079084 94130992
L142227091 94130992
L142301094 94167993
" />
<path d="M141968078 94612014
L142042082 94649016
L142227091 94649016
L142301094 94612014
L142338096 94538011
L142338096 94464007
L142301094 94390004
L142227091 94353002
L142042082 94353002
L141968078 94316000
" />
<path d="M141635062 94612014
L141561059 94649016
L141413052 94649016
L141339048 94612014
L141302047 94538011
L141302047 94501009
L141339048 94427006
L141413052 94390004
L141524057 94390004
L141598061 94353002
L141635062 94278999
L141635062 94241997
L141598061 94167993
L141524057 94130992
L141413052 94130992
L141339048 94167993
" />
<path d="M140969031 94649016
L140969031 93871979
" />
<path d="M140636015 94649016
L140636015 94241997
L140673017 94167993
L140747020 94130992
L140858025 94130992
L140932029 94167993
L140969031 94204995
" />
</g></g>
<g style="fill:#585D84; fill-opacity:0.0; 
stroke:#585D84; stroke-width:29911.000000; stroke-opacity:1; 
stroke-linecap:round; stroke-linejoin:round;">
<text x="153727100.000000" y="100111844.000000"
transform="scale(-1 1) translate(-307454200.000000 0)"
textLength="46492.000000" font-size="501985.000000" lengthAdjust="spacingAndGlyphs"
text-anchor="start" opacity="0"></text>
<g class="stroked-text"><desc></desc>
</g></g>
<g style="fill:#585D84; fill-opacity:0.0; 
stroke:#585D84; stroke-width:101600.000000; stroke-opacity:1; 
stroke-linecap:round; stroke-linejoin:round;">
<path d="M148484600 114075100
L148484600 113585100
" />
<path d="M148136600 113585100
L148136600 114075100
" />
</g>
<g style="fill:#585D84; fill-opacity:1.0; 
stroke:#585D84; stroke-width:1.000000; stroke-opacity:1; 
stroke-linecap:round; stroke-linejoin:round;">
<path style="fill:#585D84; fill-opacity:1.0; 
stroke:#585D84; stroke-width:1.000000; stroke-opacity:1; 
stroke-linecap:round; stroke-linejoin:round;fill-rule:evenodd;"
d="M 148560600.000000,113580100.000000
148060600.000000,113580100.000000
148060600.000000,113330100.000000
148560600.000000,113330100.000000
Z" /> 
<path style="fill:#585D84; fill-opacity:1.0; 
stroke:#585D84; stroke-width:1.000000; stroke-opacity:1; 
stroke-linecap:round; stroke-linejoin:round;fill-rule:evenodd;"
d="M 148560600.000000,114330100.000000
148060600.000000,114330100.000000
148060600.000000,114080100.000000
148560600.000000,114080100.000000
Z" /> 
</g>
<g style="fill:#585D84; fill-opacity:1.0; 
stroke:#585D84; stroke-width:101600.000000; stroke-opacity:1; 
stroke-linecap:round; stroke-linejoin:round;">
</g>
<g style="fill:#585D84; fill-opacity:0.0; 
stroke:#585D84; stroke-width:101600.000000; stroke-opacity:1; 
stroke-linecap:round; stroke-linejoin:round;">
<path d="M145639800 98720800
L145639800 98230800
" />
<path d="M145291800 98230800
L145291800 98720800
" />
</g>
<g style="fill:#585D84; fill-opacity:1.0; 
stroke:#585D84; stroke-width:1.000000; stroke-opacity:1; 
stroke-linecap:round; stroke-linejoin:round;">
<path style="fill:#585D84; fill-opacity:1.0; 
stroke:#585D84; stroke-width:1.000000; stroke-opacity:1; 
stroke-linecap:round; stroke-linejoin:round;fill-rule:evenodd;"
d="M 145715800.000000,98975800.000000
145215800.000000,98975800.000000
145215800.000000,98725800.000000
145715800.000000,98725800.000000
Z" /> 
<path style="fill:#585D84; fill-opacity:1.0; 
stroke:#585D84; stroke-width:1.000000; stroke-opacity:1; 
stroke-linecap:round; stroke-linejoin:round;fill-rule:evenodd;"
d="M 145715800.000000,98225800.000000
145215800.000000,98225800.000000
145215800.000000,97975800.000000
145715800.000000,97975800.000000
Z" /> 
</g>
<g style="fill:#585D84; fill-opacity:1.0; 
stroke:#585D84; stroke-width:127000.000000; stroke-opacity:1; 
stroke-linecap:round; stroke-linejoin:round;">
</g>
<g style="fill:#585D84; fill-opacity:0.0; 
stroke:#585D84; stroke-width:127000.000000; stroke-opacity:1; 
stroke-linecap:round; stroke-linejoin:round;">
<path d="M151364000 114741200
L151364000 112741200
" />
<path d="M151364000 112741200
L148864000 112741200
" />
<path d="M148864000 112741200
L148864000 114741200
" />
<path d="M148864000 114741200
L151364000 114741200
" />
</g>
<g style="fill:#585D84; fill-opacity:0.0; 
stroke:#585D84; stroke-width:101600.000000; stroke-opacity:1; 
stroke-linecap:round; stroke-linejoin:round;">
<path d="M143734800 103851600
L143734800 103361600
" />
<path d="M143386800 103361600
L143386800 103851600
" />
</g>
<g style="fill:#585D84; fill-opacity:1.0; 
stroke:#585D84; stroke-width:1.000000; stroke-opacity:1; 
stroke-linecap:round; stroke-linejoin:round;">
<path style="fill:#585D84; fill-opacity:1.0; 
stroke:#585D84; stroke-width:1.000000; stroke-opacity:1; 
stroke-linecap:round; stroke-linejoin:round;fill-rule:evenodd;"
d="M 143810800.000000,104106600.000000
143310800.000000,104106600.000000
143310800.000000,103856600.000000
143810800.000000,103856600.000000
Z" /> 
<path style="fill:#585D84; fill-opacity:1.0; 
stroke:#585D84; stroke-width:1.000000; stroke-opacity:1; 
stroke-linecap:round; stroke-linejoin:round;fill-rule:evenodd;"
d="M 143810800.000000,103356600.000000
143310800.000000,103356600.000000
143310800.000000,103106600.000000
143810800.000000,103106600.000000
Z" /> 
</g>
<g style="fill:#585D84; fill-opacity:1.0; 
stroke:#585D84; stroke-width:101600.000000; stroke-opacity:1; 
stroke-linecap:round; stroke-linejoin:round;">
</g>
<g style="fill:#585D84; fill-opacity:0.0; 
stroke:#585D84; stroke-width:101600.000000; stroke-opacity:1; 
stroke-linecap:round; stroke-linejoin:round;">
<path d="M152746600 112894100
L152256600 112894100
" />
<path d="M152256600 113242100
L152746600 113242100
" />
</g>
<g style="fill:#585D84; fill-opacity:1.0; 
stroke:#585D84; stroke-width:1.000000; stroke-opacity:1; 
stroke-linecap:round; stroke-linejoin:round;">
<path style="fill:#585D84; fill-opacity:1.0; 
stroke:#585D84; stroke-width:1.000000; stroke-opacity:1; 
stroke-linecap:round; stroke-linejoin:round;fill-rule:evenodd;"
d="M 152251600.000000,113318100.000000
152001600.000000,113318100.000000
152001600.000000,112818100.000000
152251600.000000,112818100.000000
Z" /> 
<path style="fill:#585D84; fill-opacity:1.0; 
stroke:#585D84; stroke-width:1.000000; stroke-opacity:1; 
stroke-linecap:round; stroke-linejoin:round;fill-rule:evenodd;"
d="M 153001600.000000,113318100.000000
152751600.000000,113318100.000000
152751600.000000,112818100.000000
153001600.000000,112818100.000000
Z" /> 
</g>
<g style="fill:#585D84; fill-opacity:1.0; 
stroke:#585D84; stroke-width:101600.000000; stroke-opacity:1; 
stroke-linecap:round; stroke-linejoin:round;">
</g>
<g style="fill:#585D84; fill-opacity:0.0; 
stroke:#585D84; stroke-width:101600.000000; stroke-opacity:1; 
stroke-linecap:round; stroke-linejoin:round;">
<path d="M153432500 110333900
L153432500 110823900
" />
<path d="M153780500 110823900
L153780500 110333900
" />
</g>
<g style="fill:#585D84; fill-opacity:1.0; 
stroke:#585D84; stroke-width:1.000000; stroke-opacity:1; 
stroke-linecap:round; stroke-linejoin:round;">
<path style="fill:#585D84; fill-opacity:1.0; 
stroke:#585D84; stroke-width:1.000000; stroke-opacity:1; 
stroke-linecap:round; stroke-linejoin:round;fill-rule:evenodd;"
d="M 153856500.000000,110328900.000000
153356500.000000,110328900.000000
153356500.000000,110078900.000000
153856500.000000,110078900.000000
Z" /> 
<path style="fill:#585D84; fill-opacity:1.0; 
stroke:#585D84; stroke-width:1.000000; stroke-opacity:1; 
stroke-linecap:round; stroke-linejoin:round;fill-rule:evenodd;"
d="M 153856500.000000,111078900.000000
153356500.000000,111078900.000000
153356500.000000,110828900.000000
153856500.000000,110828900.000000
Z" /> 
</g>
<g style="fill:#585D84; fill-opacity:1.0; 
stroke:#585D84; stroke-width:101600.000000; stroke-opacity:1; 
stroke-linecap:round; stroke-linejoin:round;">
</g>
<g style="fill:#585D84; fill-opacity:0.0; 
stroke:#585D84; stroke-width:101600.000000; stroke-opacity:1; 
stroke-linecap:round; stroke-linejoin:round;">
<path d="M152869500 102730400
L153581500 102730400
" />
<path d="M152869500 103581400
L153581500 103581400
" />
</g>
<g style="fill:#585D84; fill-opacity:1.0; 
stroke:#585D84; stroke-width:1.000000; stroke-opacity:1; 
stroke-linecap:round; stroke-linejoin:round;">
<path style="fill:#585D84; fill-opacity:1.0; 
stroke:#585D84; stroke-width:1.000000; stroke-opacity:1; 
stroke-linecap:round; stroke-linejoin:round;fill-rule:evenodd;"
d="M 154055800.000000,103629500.000000
153555700.000000,103629500.000000
153555700.000000,102679500.000000
154055800.000000,102679500.000000
Z" /> 
<path style="fill:#585D84; fill-opacity:1.0; 
stroke:#585D84; stroke-width:1.000000; stroke-opacity:1; 
stroke-linecap:round; stroke-linejoin:round;fill-rule:evenodd;"
d="M 152887400.000000,103629500.000000
152387300.000000,103629500.000000
152387300.000000,102679500.000000
152887400.000000,102679500.000000
Z" /> 
</g>
<g style="fill:#585D84; fill-opacity:1.0; 
stroke:#585D84; stroke-width:101600.000000; stroke-opacity:1; 
stroke-linecap:round; stroke-linejoin:round;">
</g>
<g style="fill:#585D84; fill-opacity:0.0; 
stroke:#585D84; stroke-width:101600.000000; stroke-opacity:1; 
stroke-linecap:round; stroke-linejoin:round;">
<path d="M143466703 112767894
L143466703 113479894
" />
<path d="M144317703 112767894
L144317703 113479894
" />
</g>
<g style="fill:#585D84; fill-opacity:1.0; 
stroke:#585D84; stroke-width:1.000000; stroke-opacity:1; 
stroke-linecap:round; stroke-linejoin:round;">
<path style="fill:#585D84; fill-opacity:1.0; 
stroke:#585D84; stroke-width:1.000000; stroke-opacity:1; 
stroke-linecap:round; stroke-linejoin:round;fill-rule:evenodd;"
d="M 144368603.000000,112785794.000000
143418603.000000,112785794.000000
143418603.000000,112285694.000000
144368603.000000,112285694.000000
Z" /> 
<path style="fill:#585D84; fill-opacity:1.0; 
stroke:#585D84; stroke-width:1.000000; stroke-opacity:1; 
stroke-linecap:round; stroke-linejoin:round;fill-rule:evenodd;"
d="M 144368603.000000,113954194.000000
143418603.000000,113954194.000000
143418603.000000,113454094.000000
144368603.000000,113454094.000000
Z" /> 
</g>
<g style="fill:#585D84; fill-opacity:1.0; 
stroke:#585D84; stroke-width:101600.000000; stroke-opacity:1; 
stroke-linecap:round; stroke-linejoin:round;">
</g>
<g style="fill:#585D84; fill-opacity:0.0; 
stroke:#585D84; stroke-width:101600.000000; stroke-opacity:1; 
stroke-linecap:round; stroke-linejoin:round;">
<path d="M153463000 105223200
L153463000 104733200
" />
<path d="M153115000 104733200
L153115000 105223200
" />
</g>
<g style="fill:#585D84; fill-opacity:1.0; 
stroke:#585D84; stroke-width:1.000000; stroke-opacity:1; 
stroke-linecap:round; stroke-linejoin:round;">
<path style="fill:#585D84; fill-opacity:1.0; 
stroke:#585D84; stroke-width:1.000000; stroke-opacity:1; 
stroke-linecap:round; stroke-linejoin:round;fill-rule:evenodd;"
d="M 153539000.000000,104728200.000000
153039000.000000,104728200.000000
153039000.000000,104478200.000000
153539000.000000,104478200.000000
Z" /> 
<path style="fill:#585D84; fill-opacity:1.0; 
stroke:#585D84; stroke-width:1.000000; stroke-opacity:1; 
stroke-linecap:round; stroke-linejoin:round;fill-rule:evenodd;"
d="M 153539000.000000,105478200.000000
153039000.000000,105478200.000000
153039000.000000,105228200.000000
153539000.000000,105228200.000000
Z" /> 
</g>
<g style="fill:#585D84; fill-opacity:1.0; 
stroke:#585D84; stroke-width:127000.000000; stroke-opacity:1; 
stroke-linecap:round; stroke-linejoin:round;">
</g>
<g style="fill:#585D84; fill-opacity:0.0; 
stroke:#585D84; stroke-width:127000.000000; stroke-opacity:1; 
stroke-linecap:round; stroke-linejoin:round;">
<path d="M152255100 104856400
L145255100 104856400
" />
<path d="M145255100 111856400
L152255100 111856400
" />
<path d="M152255100 111856400
L152255100 104856400
" />
<path d="M145255100 104856400
L145255100 111856400
" />
</g>
<g style="fill:#585D84; fill-opacity:0.0; 
stroke:#585D84; stroke-width:152400.000000; stroke-opacity:1; 
stroke-linecap:round; stroke-linejoin:round;">
<circle cx="152255100.000000" cy="104856400.000000" r="460975.000000" /> 
</g>
<g style="fill:#585D84; fill-opacity:0.0; 
stroke:#585D84; stroke-width:101600.000000; stroke-opacity:1; 
stroke-linecap:round; stroke-linejoin:round;">
<path d="M146206200 103247300
L146206200 103737300
" />
<path d="M146554200 103737300
L146554200 103247300
" />
</g>
<g style="fill:#585D84; fill-opacity:1.0; 
stroke:#585D84; stroke-width:1.000000; stroke-opacity:1; 
stroke-linecap:round; stroke-linejoin:round;">
<path style="fill:#585D84; fill-opacity:1.0; 
stroke:#585D84; stroke-width:1.000000; stroke-opacity:1; 
stroke-linecap:round; stroke-linejoin:round;fill-rule:evenodd;"
d="M 146630200.000000,103242300.000000
146130200.000000,103242300.000000
146130200.000000,102992300.000000
146630200.000000,102992300.000000
Z" /> 
<path style="fill:#585D84; fill-opacity:1.0; 
stroke:#585D84; stroke-width:1.000000; stroke-opacity:1; 
stroke-linecap:round; stroke-linejoin:round;fill-rule:evenodd;"
d="M 146630200.000000,103992300.000000
146130200.000000,103992300.000000
146130200.000000,103742300.000000
146630200.000000,103742300.000000
Z" /> 
</g>
<g style="fill:#585D84; fill-opacity:1.0; 
stroke:#585D84; stroke-width:101600.000000; stroke-opacity:1; 
stroke-linecap:round; stroke-linejoin:round;">
</g>
<g style="fill:#585D84; fill-opacity:0.0; 
stroke:#585D84; stroke-width:101600.000000; stroke-opacity:1; 
stroke-linecap:round; stroke-linejoin:round;">
<path d="M152256600 114575600
L152746600 114575600
" />
<path d="M152746600 114227600
L152256600 114227600
" />
</g>
<g style="fill:#585D84; fill-opacity:1.0; 
stroke:#585D84; stroke-width:1.000000; stroke-opacity:1; 
stroke-linecap:round; stroke-linejoin:round;">
<path style="fill:#585D84; fill-opacity:1.0; 
stroke:#585D84; stroke-width:1.000000; stroke-opacity:1; 
stroke-linecap:round; stroke-linejoin:round;fill-rule:evenodd;"
d="M 153001600.000000,114651600.000000
152751600.000000,114651600.000000
152751600.000000,114151600.000000
153001600.000000,114151600.000000
Z" /> 
<path style="fill:#585D84; fill-opacity:1.0; 
stroke:#585D84; stroke-width:1.000000; stroke-opacity:1; 
stroke-linecap:round; stroke-linejoin:round;fill-rule:evenodd;"
d="M 152251600.000000,114651600.000000
152001600.000000,114651600.000000
152001600.000000,114151600.000000
152251600.000000,114151600.000000
Z" /> 
</g>
<g style="fill:#585D84; fill-opacity:1.0; 
stroke:#585D84; stroke-width:101600.000000; stroke-opacity:1; 
stroke-linecap:round; stroke-linejoin:round;">
</g>
<g style="fill:#585D84; fill-opacity:0.0; 
stroke:#585D84; stroke-width:101600.000000; stroke-opacity:1; 
stroke-linecap:round; stroke-linejoin:round;">
<path d="M145462100 113648500
L145952100 113648500
" />
<path d="M145952100 113300500
L145462100 113300500
" />
</g>
<g style="fill:#585D84; fill-opacity:1.0; 
stroke:#585D84; stroke-width:1.000000; stroke-opacity:1; 
stroke-linecap:round; stroke-linejoin:round;">
<path style="fill:#585D84; fill-opacity:1.0; 
stroke:#585D84; stroke-width:1.000000; stroke-opacity:1; 
stroke-linecap:round; stroke-linejoin:round;fill-rule:evenodd;"
d="M 145457100.000000,113724500.000000
145207100.000000,113724500.000000
145207100.000000,113224500.000000
145457100.000000,113224500.000000
Z" /> 
<path style="fill:#585D84; fill-opacity:1.0; 
stroke:#585D84; stroke-width:1.000000; stroke-opacity:1; 
stroke-linecap:round; stroke-linejoin:round;fill-rule:evenodd;"
d="M 146207100.000000,113724500.000000
145957100.000000,113724500.000000
145957100.000000,113224500.000000
146207100.000000,113224500.000000
Z" /> 
</g>
<g style="fill:#585D84; fill-opacity:1.0; 
stroke:#585D84; stroke-width:101600.000000; stroke-opacity:1; 
stroke-linecap:round; stroke-linejoin:round;">
</g>
<g style="fill:#585D84; fill-opacity:0.0; 
stroke:#585D84; stroke-width:101600.000000; stroke-opacity:1; 
stroke-linecap:round; stroke-linejoin:round;">
<path d="M144564200 103480000
L144564200 102768000
" />
<path d="M145415200 103480000
L145415200 102768000
" />
</g>
<g style="fill:#585D84; fill-opacity:1.0; 
stroke:#585D84; stroke-width:1.000000; stroke-opacity:1; 
stroke-linecap:round; stroke-linejoin:round;">
<path style="fill:#585D84; fill-opacity:1.0; 
stroke:#585D84; stroke-width:1.000000; stroke-opacity:1; 
stroke-linecap:round; stroke-linejoin:round;fill-rule:evenodd;"
d="M 145463300.000000,102793800.000000
144513300.000000,102793800.000000
144513300.000000,102293700.000000
145463300.000000,102293700.000000
Z" /> 
<path style="fill:#585D84; fill-opacity:1.0; 
stroke:#585D84; stroke-width:1.000000; stroke-opacity:1; 
stroke-linecap:round; stroke-linejoin:round;fill-rule:evenodd;"
d="M 145463300.000000,103962200.000000
144513300.000000,103962200.000000
144513300.000000,103462100.000000
145463300.000000,103462100.000000
Z" /> 
</g>
<g style="fill:#585D84; fill-opacity:1.0; 
stroke:#585D84; stroke-width:101600.000000; stroke-opacity:1; 
stroke-linecap:round; stroke-linejoin:round;">
</g>
<g style="fill:#585D84; fill-opacity:0.0; 
stroke:#585D84; stroke-width:101600.000000; stroke-opacity:1; 
stroke-linecap:round; stroke-linejoin:round;">
<path d="M147031600 101883200
L146541600 101883200
" />
<path d="M146541600 102231200
L147031600 102231200
" />
</g>
<g style="fill:#585D84; fill-opacity:1.0; 
stroke:#585D84; stroke-width:1.000000; stroke-opacity:1; 
stroke-linecap:round; stroke-linejoin:round;">
<path style="fill:#585D84; fill-opacity:1.0; 
stroke:#585D84; stroke-width:1.000000; stroke-opacity:1; 
stroke-linecap:round; stroke-linejoin:round;fill-rule:evenodd;"
d="M 147286600.000000,102307200.000000
147036600.000000,102307200.000000
147036600.000000,101807200.000000
147286600.000000,101807200.000000
Z" /> 
<path style="fill:#585D84; fill-opacity:1.0; 
stroke:#585D84; stroke-width:1.000000; stroke-opacity:1; 
stroke-linecap:round; stroke-linejoin:round;fill-rule:evenodd;"
d="M 146536600.000000,102307200.000000
146286600.000000,102307200.000000
146286600.000000,101807200.000000
146536600.000000,101807200.000000
Z" /> 
</g>
<g style="fill:#585D84; fill-opacity:1.0; 
stroke:#585D84; stroke-width:101600.000000; stroke-opacity:1; 
stroke-linecap:round; stroke-linejoin:round;">
</g>
<g style="fill:#585D84; fill-opacity:0.0; 
stroke:#585D84; stroke-width:101600.000000; stroke-opacity:1; 
stroke-linecap:round; stroke-linejoin:round;">
<path d="M149990700 95850700
L149500700 95850700
" />
<path d="M149500700 96198700
L149990700 96198700
" />
</g>
<g style="fill:#585D84; fill-opacity:1.0; 
stroke:#585D84; stroke-width:1.000000; stroke-opacity:1; 
stroke-linecap:round; stroke-linejoin:round;">
<path style="fill:#585D84; fill-opacity:1.0; 
stroke:#585D84; stroke-width:1.000000; stroke-opacity:1; 
stroke-linecap:round; stroke-linejoin:round;fill-rule:evenodd;"
d="M 149495700.000000,96274700.000000
149245700.000000,96274700.000000
149245700.000000,95774700.000000
149495700.000000,95774700.000000
Z" /> 
<path style="fill:#585D84; fill-opacity:1.0; 
stroke:#585D84; stroke-width:1.000000; stroke-opacity:1; 
stroke-linecap:round; stroke-linejoin:round;fill-rule:evenodd;"
d="M 150245700.000000,96274700.000000
149995700.000000,96274700.000000
149995700.000000,95774700.000000
150245700.000000,95774700.000000
Z" /> 
<g >
</g>
<g >
</g>
<g >
</g>
<g >
</g>
<g >
</g>
<g >
</g>
<g >
</g>
<g >
</g>
<g >
</g>
<g >
</g>
<g >
</g>
<g >
</g>
<g >
</g>
<g >
</g>
<g >
</g>
<g >
</g>
<g >
</g>
<g >
</g>
<g >
</g>
<g >
</g>
<g >
</g>
<g >
</g>
<g >
</g>
<g >
</g>
<g >
</g>
<g >
</g>
<g >
</g>
<g >
</g>
<g >
</g>
<g >
</g>
<g >
</g>
<g >
</g>
<g >
</g>
<g >
</g>
<g >
</g>
<g >
</g>
<g >
</g>
<g >
</g>
<g >
</g>
<g >
</g>
<g >
</g>
<g >
</g>
<g >
</g>
<g >
</g>
<g >
</g>
</g>
<g style="fill:#000000; fill-opacity:1.0; 
stroke:#000000; stroke-width:1.000000; stroke-opacity:1; 
stroke-linecap:round; stroke-linejoin:round;">
</g>
<g style="fill:#D0D2CD; fill-opacity:1.0; 
stroke:#D0D2CD; stroke-width:1.000000; stroke-opacity:1; 
stroke-linecap:round; stroke-linejoin:round;">
</g>
<g style="fill:#D0D2CD; fill-opacity:0.0; 
stroke:#D0D2CD; stroke-width:50000.000000; stroke-opacity:1; 
stroke-linecap:round; stroke-linejoin:round;">
<path d="M157391100.000000 97193100.000000 A2540000.000000 2540000.000000 0.0 0 0 154851100.000000 94653100.000000" />
<path d="M142151100.000000 94653100.000000 A2540000.000000 2540000.000000 0.0 0 0 139611100.000000 97193100.000000" />
<path d="M154851100.000000 115354100.000000 A2540000.000000 2540000.000000 0.0 0 0 157391100.000000 112814100.000000" />
<path d="M142151100 94653100
L154851100 94653100
" />
<path d="M154851100 115354100
L142151100 115354100
" />
<path d="M157391100 97193100
L157391100 112814100
" />
<path d="M139611100 112814100
L139611100 97193100
" />
<path d="M139611100.000000 112814100.000000 A2540000.000000 2540000.000000 0.0 0 0 142151100.000000 115354100.000000" />
<g >
</g>
<g >
</g>
<g >
</g>
<g >
</g>
<g >
</g>
<g >
</g>
<g >
</g>
<g >
</g>
<g >
</g>
<g >
</g>
<g >
</g>
<g >
</g>
<g >
</g>
<g >
</g>
<g >
</g>
<g >
</g>
<g >
</g>
<g >
</g>
<g >
</g>
<g >
</g>
<g >
</g>
<g >
</g>
<g >
</g>
<g >
</g>
<g >
</g>
<g >
</g>
<g >
</g>
<g >
</g>
<g >
</g>
<g >
</g>
<g >
</g>
<g >
</g>
<g >
</g>
<g >
</g>
<g >
</g>
<g >
</g>
<g >
</g>
<g >
</g>
<g >
</g>
<g >
</g>
<g >
</g>
<g >
</g>
<g >
</g>
<g >
</g>
<g >
</g>
</g> 
</svg>
