<!DOCTYPE svg PUBLIC "-//W3C//DTD SVG 1.1//EN" "http://www.w3.org/Graphics/SVG/1.1/DTD/svg11.dtd">
<svg xmlns="http://www.w3.org/2000/svg" version="1.1" width="24.86mm" height="47.72mm" viewBox="-16093110.0 8114360.0 2486000.0 4772000.0">
            <title>Picture generated by PcbDraw </title>
            <desc>Picture generated by PcbDraw</desc>
        <defs><clipPath id="cut-off"><path d=" M 15993110.0 12786360.0 L 13707110.0 12786360.0 L 13707110.0 8214360.0 L 15993110.0 8214360.0 L 15993110.0 12786360.0 " style="fill-rule: evenodd;"/></clipPath><mask id="pads-mask"><g style="fill:#ffffff; fill-opacity:0.0;  stroke:#ffffff; stroke-width:0.000000; stroke-opacity:1;  stroke-linecap:round; stroke-linejoin:round;">
<g style="fill:#ffffff; fill-opacity:1.0;  stroke:#ffffff; stroke-width:0.100000; stroke-opacity:1;  stroke-linecap:round; stroke-linejoin:round;">
<circle cx="15739110.000000" cy="12532360.000000" r="165100.000000"/> 
</g>
<g style="fill:#ffffff; fill-opacity:1.0;  stroke:#ffffff; stroke-width:0.100000; stroke-opacity:1;  stroke-linecap:round; stroke-linejoin:round;">
<circle cx="13961110.000000" cy="8468360.000000" r="165100.000000"/> 
</g>
<g style="fill:#ffffff; fill-opacity:1.0;  stroke:#ffffff; stroke-width:0.100000; stroke-opacity:1;  stroke-linecap:round; stroke-linejoin:round;">
<circle cx="15739110.000000" cy="8468360.000000" r="165100.000000"/> 
</g>
<g style="fill:#ffffff; fill-opacity:1.0;  stroke:#ffffff; stroke-width:0.100000; stroke-opacity:1;  stroke-linecap:round; stroke-linejoin:round;">
<circle cx="14425110.000000" cy="12588360.000000" r="106680.000000"/> 
</g>
<g style="fill:#ffffff; fill-opacity:1.0;  stroke:#ffffff; stroke-width:0.100000; stroke-opacity:1;  stroke-linecap:round; stroke-linejoin:round;">
<circle cx="15275110.000000" cy="12588360.000000" r="106680.000000"/> 
</g>
<g style="fill:#ffffff; fill-opacity:1.0;  stroke:#ffffff; stroke-width:0.100000; stroke-opacity:1;  stroke-linecap:round; stroke-linejoin:round;">
<circle cx="14850110.000000" cy="12258040.000000" r="175960.000000"/> 
</g>
<g style="fill:#ffffff; fill-opacity:1.0;  stroke:#ffffff; stroke-width:0.100000; stroke-opacity:1;  stroke-linecap:round; stroke-linejoin:round;">
<circle cx="14469950.000000" cy="11875340.000000" r="175960.000000"/> 
</g>
<g style="fill:#ffffff; fill-opacity:1.0;  stroke:#ffffff; stroke-width:0.100000; stroke-opacity:1;  stroke-linecap:round; stroke-linejoin:round;">
<circle cx="15232810.000000" cy="11875340.000000" r="175960.000000"/> 
</g>
<g style="fill:#ffffff; fill-opacity:1.0;  stroke:#ffffff; stroke-width:0.100000; stroke-opacity:1;  stroke-linecap:round; stroke-linejoin:round;">
<circle cx="15275110.000000" cy="8412360.000000" r="106680.000000"/> 
</g>
<g style="fill:#ffffff; fill-opacity:1.0;  stroke:#ffffff; stroke-width:0.100000; stroke-opacity:1;  stroke-linecap:round; stroke-linejoin:round;">
<circle cx="14425110.000000" cy="8412360.000000" r="106680.000000"/> 
</g>
<g style="fill:#ffffff; fill-opacity:1.0;  stroke:#ffffff; stroke-width:0.100000; stroke-opacity:1;  stroke-linecap:round; stroke-linejoin:round;">
<circle cx="14850110.000000" cy="8742680.000000" r="175960.000000"/> 
</g>
<g style="fill:#ffffff; fill-opacity:1.0;  stroke:#ffffff; stroke-width:0.100000; stroke-opacity:1;  stroke-linecap:round; stroke-linejoin:round;">
<circle cx="15230270.000000" cy="9125380.000000" r="175960.000000"/> 
</g>
<g style="fill:#ffffff; fill-opacity:1.0;  stroke:#ffffff; stroke-width:0.100000; stroke-opacity:1;  stroke-linecap:round; stroke-linejoin:round;">
<circle cx="14467410.000000" cy="9125380.000000" r="175960.000000"/> 
</g>
<g style="fill:#ffffff; fill-opacity:1.0;  stroke:#ffffff; stroke-width:0.100000; stroke-opacity:1;  stroke-linecap:round; stroke-linejoin:round;">
<circle cx="13961110.000000" cy="12532360.000000" r="165100.000000"/> 
</g>
<g style="fill:#ffffff; fill-opacity:1.0;  stroke:#ffffff; stroke-width:0.100000; stroke-opacity:1;  stroke-linecap:round; stroke-linejoin:round;">
<circle cx="13834110.000000" cy="9230360.000000" r="91440.000000"/> 
</g>
<g style="fill:#ffffff; fill-opacity:1.0;  stroke:#ffffff; stroke-width:0.100000; stroke-opacity:1;  stroke-linecap:round; stroke-linejoin:round;">
<circle cx="13834110.000000" cy="9484360.000000" r="91440.000000"/> 
</g>
<g style="fill:#ffffff; fill-opacity:1.0;  stroke:#ffffff; stroke-width:0.100000; stroke-opacity:1;  stroke-linecap:round; stroke-linejoin:round;">
<circle cx="13834110.000000" cy="9738360.000000" r="91440.000000"/> 
</g>
<g style="fill:#ffffff; fill-opacity:1.0;  stroke:#ffffff; stroke-width:0.100000; stroke-opacity:1;  stroke-linecap:round; stroke-linejoin:round;">
<circle cx="13834110.000000" cy="9992360.000000" r="91440.000000"/> 
</g>
<g style="fill:#ffffff; fill-opacity:1.0;  stroke:#ffffff; stroke-width:0.100000; stroke-opacity:1;  stroke-linecap:round; stroke-linejoin:round;">
<circle cx="13834110.000000" cy="10246360.000000" r="91440.000000"/> 
</g>
<g style="fill:#ffffff; fill-opacity:1.0;  stroke:#ffffff; stroke-width:0.100000; stroke-opacity:1;  stroke-linecap:round; stroke-linejoin:round;">
<circle cx="13834110.000000" cy="10500360.000000" r="91440.000000"/> 
</g>
<g style="fill:#ffffff; fill-opacity:1.0;  stroke:#ffffff; stroke-width:0.100000; stroke-opacity:1;  stroke-linecap:round; stroke-linejoin:round;">
<circle cx="13834110.000000" cy="10754360.000000" r="91440.000000"/> 
</g>
<g style="fill:#ffffff; fill-opacity:1.0;  stroke:#ffffff; stroke-width:0.100000; stroke-opacity:1;  stroke-linecap:round; stroke-linejoin:round;">
<circle cx="13834110.000000" cy="11008360.000000" r="91440.000000"/> 
</g>
<g style="fill:#ffffff; fill-opacity:1.0;  stroke:#ffffff; stroke-width:0.100000; stroke-opacity:1;  stroke-linecap:round; stroke-linejoin:round;">
<circle cx="13834110.000000" cy="11262360.000000" r="91440.000000"/> 
</g>
<g style="fill:#ffffff; fill-opacity:1.0;  stroke:#ffffff; stroke-width:0.100000; stroke-opacity:1;  stroke-linecap:round; stroke-linejoin:round;">
<circle cx="13834110.000000" cy="11516360.000000" r="91440.000000"/> 
</g>
<g style="fill:#ffffff; fill-opacity:1.0;  stroke:#ffffff; stroke-width:0.100000; stroke-opacity:1;  stroke-linecap:round; stroke-linejoin:round;">
<circle cx="13834110.000000" cy="11770360.000000" r="91440.000000"/> 
</g>
<g style="fill:#ffffff; fill-opacity:1.0;  stroke:#ffffff; stroke-width:0.100000; stroke-opacity:1;  stroke-linecap:round; stroke-linejoin:round;">
<path style="fill:#ffffff; fill-opacity:1.0;  stroke:#ffffff; stroke-width:0.100000; stroke-opacity:1;  stroke-linecap:round; stroke-linejoin:round;fill-rule:evenodd;" d="M 14923770.000000,11897360.000000 14922239.600000,11912297.300000 14916868.600000,11928490.100000 14907916.600000,11943012.900000 14895863.700000,11955086.900000 14881356.500000,11964064.200000 14865173.200000,11969463.400000 14850110.000000,11971020.000000 14835172.700000,11969489.600000 14818979.900000,11964118.600000 14804457.100000,11955166.600000 14792383.100000,11943113.700000 14783405.800000,11928606.500000 14778006.600000,11912423.200000 14776450.000000,11897360.000000 14777980.400000,11882422.700000 14783351.400000,11866229.900000 14792303.400000,11851707.100000 14804356.300000,11839633.100000 14818863.500000,11830655.800000 14835046.800000,11825256.600000 14850110.000000,11823700.000000 14865047.300000,11825230.400000 14881240.100000,11830601.400000 14895762.900000,11839553.400000 14907836.900000,11851606.300000 14916814.200000,11866113.500000 14922213.400000,11882296.800000 14923770.000000,11897360.000000 Z"/> 
</g>
<g style="fill:#ffffff; fill-opacity:1.0;  stroke:#ffffff; stroke-width:0.100000; stroke-opacity:1;  stroke-linecap:round; stroke-linejoin:round;">
<path style="fill:#ffffff; fill-opacity:1.0;  stroke:#ffffff; stroke-width:0.100000; stroke-opacity:1;  stroke-linecap:round; stroke-linejoin:round;fill-rule:evenodd;" d="M 14923770.000000,9103360.000000 14922239.600000,9118297.300000 14916868.600000,9134490.100000 14907916.600000,9149012.900000 14895863.700000,9161086.900000 14881356.500000,9170064.200000 14865173.200000,9175463.400000 14850110.000000,9177020.000000 14835172.700000,9175489.600000 14818979.900000,9170118.600000 14804457.100000,9161166.600000 14792383.100000,9149113.700000 14783405.800000,9134606.500000 14778006.600000,9118423.200000 14776450.000000,9103360.000000 14777980.400000,9088422.700000 14783351.400000,9072229.900000 14792303.400000,9057707.100000 14804356.300000,9045633.100000 14818863.500000,9036655.800000 14835046.800000,9031256.600000 14850110.000000,9029700.000000 14865047.300000,9031230.400000 14881240.100000,9036601.400000 14895762.900000,9045553.400000 14907836.900000,9057606.300000 14916814.200000,9072113.500000 14922213.400000,9088296.800000 14923770.000000,9103360.000000 Z"/> 
</g>
</g> 
</mask><mask id="pads-mask-silkscreen"><rect x="13320877.6" y="7372200.0" width="2703982.4" height="6256320.0" fill="white"/><g style="fill:#000000; fill-opacity:0.0;  stroke:#000000; stroke-width:0.000000; stroke-opacity:1;  stroke-linecap:round; stroke-linejoin:round;">
<g style="fill:#000000; fill-opacity:1.0;  stroke:#000000; stroke-width:0.100000; stroke-opacity:1;  stroke-linecap:round; stroke-linejoin:round;">
<circle cx="15739110.000000" cy="12532360.000000" r="165100.000000"/> 
</g>
<g style="fill:#000000; fill-opacity:1.0;  stroke:#000000; stroke-width:0.100000; stroke-opacity:1;  stroke-linecap:round; stroke-linejoin:round;">
<circle cx="13961110.000000" cy="8468360.000000" r="165100.000000"/> 
</g>
<g style="fill:#000000; fill-opacity:1.0;  stroke:#000000; stroke-width:0.100000; stroke-opacity:1;  stroke-linecap:round; stroke-linejoin:round;">
<circle cx="15739110.000000" cy="8468360.000000" r="165100.000000"/> 
</g>
<g style="fill:#000000; fill-opacity:1.0;  stroke:#000000; stroke-width:0.100000; stroke-opacity:1;  stroke-linecap:round; stroke-linejoin:round;">
<circle cx="14425110.000000" cy="12588360.000000" r="106680.000000"/> 
</g>
<g style="fill:#000000; fill-opacity:1.0;  stroke:#000000; stroke-width:0.100000; stroke-opacity:1;  stroke-linecap:round; stroke-linejoin:round;">
<circle cx="15275110.000000" cy="12588360.000000" r="106680.000000"/> 
</g>
<g style="fill:#000000; fill-opacity:1.0;  stroke:#000000; stroke-width:0.100000; stroke-opacity:1;  stroke-linecap:round; stroke-linejoin:round;">
<circle cx="14850110.000000" cy="12258040.000000" r="175960.000000"/> 
</g>
<g style="fill:#000000; fill-opacity:1.0;  stroke:#000000; stroke-width:0.100000; stroke-opacity:1;  stroke-linecap:round; stroke-linejoin:round;">
<circle cx="14469950.000000" cy="11875340.000000" r="175960.000000"/> 
</g>
<g style="fill:#000000; fill-opacity:1.0;  stroke:#000000; stroke-width:0.100000; stroke-opacity:1;  stroke-linecap:round; stroke-linejoin:round;">
<circle cx="15232810.000000" cy="11875340.000000" r="175960.000000"/> 
</g>
<g style="fill:#000000; fill-opacity:1.0;  stroke:#000000; stroke-width:0.100000; stroke-opacity:1;  stroke-linecap:round; stroke-linejoin:round;">
<circle cx="15275110.000000" cy="8412360.000000" r="106680.000000"/> 
</g>
<g style="fill:#000000; fill-opacity:1.0;  stroke:#000000; stroke-width:0.100000; stroke-opacity:1;  stroke-linecap:round; stroke-linejoin:round;">
<circle cx="14425110.000000" cy="8412360.000000" r="106680.000000"/> 
</g>
<g style="fill:#000000; fill-opacity:1.0;  stroke:#000000; stroke-width:0.100000; stroke-opacity:1;  stroke-linecap:round; stroke-linejoin:round;">
<circle cx="14850110.000000" cy="8742680.000000" r="175960.000000"/> 
</g>
<g style="fill:#000000; fill-opacity:1.0;  stroke:#000000; stroke-width:0.100000; stroke-opacity:1;  stroke-linecap:round; stroke-linejoin:round;">
<circle cx="15230270.000000" cy="9125380.000000" r="175960.000000"/> 
</g>
<g style="fill:#000000; fill-opacity:1.0;  stroke:#000000; stroke-width:0.100000; stroke-opacity:1;  stroke-linecap:round; stroke-linejoin:round;">
<circle cx="14467410.000000" cy="9125380.000000" r="175960.000000"/> 
</g>
<g style="fill:#000000; fill-opacity:1.0;  stroke:#000000; stroke-width:0.100000; stroke-opacity:1;  stroke-linecap:round; stroke-linejoin:round;">
<circle cx="13961110.000000" cy="12532360.000000" r="165100.000000"/> 
</g>
<g style="fill:#000000; fill-opacity:1.0;  stroke:#000000; stroke-width:0.100000; stroke-opacity:1;  stroke-linecap:round; stroke-linejoin:round;">
<circle cx="13834110.000000" cy="9230360.000000" r="91440.000000"/> 
</g>
<g style="fill:#000000; fill-opacity:1.0;  stroke:#000000; stroke-width:0.100000; stroke-opacity:1;  stroke-linecap:round; stroke-linejoin:round;">
<circle cx="13834110.000000" cy="9484360.000000" r="91440.000000"/> 
</g>
<g style="fill:#000000; fill-opacity:1.0;  stroke:#000000; stroke-width:0.100000; stroke-opacity:1;  stroke-linecap:round; stroke-linejoin:round;">
<circle cx="13834110.000000" cy="9738360.000000" r="91440.000000"/> 
</g>
<g style="fill:#000000; fill-opacity:1.0;  stroke:#000000; stroke-width:0.100000; stroke-opacity:1;  stroke-linecap:round; stroke-linejoin:round;">
<circle cx="13834110.000000" cy="9992360.000000" r="91440.000000"/> 
</g>
<g style="fill:#000000; fill-opacity:1.0;  stroke:#000000; stroke-width:0.100000; stroke-opacity:1;  stroke-linecap:round; stroke-linejoin:round;">
<circle cx="13834110.000000" cy="10246360.000000" r="91440.000000"/> 
</g>
<g style="fill:#000000; fill-opacity:1.0;  stroke:#000000; stroke-width:0.100000; stroke-opacity:1;  stroke-linecap:round; stroke-linejoin:round;">
<circle cx="13834110.000000" cy="10500360.000000" r="91440.000000"/> 
</g>
<g style="fill:#000000; fill-opacity:1.0;  stroke:#000000; stroke-width:0.100000; stroke-opacity:1;  stroke-linecap:round; stroke-linejoin:round;">
<circle cx="13834110.000000" cy="10754360.000000" r="91440.000000"/> 
</g>
<g style="fill:#000000; fill-opacity:1.0;  stroke:#000000; stroke-width:0.100000; stroke-opacity:1;  stroke-linecap:round; stroke-linejoin:round;">
<circle cx="13834110.000000" cy="11008360.000000" r="91440.000000"/> 
</g>
<g style="fill:#000000; fill-opacity:1.0;  stroke:#000000; stroke-width:0.100000; stroke-opacity:1;  stroke-linecap:round; stroke-linejoin:round;">
<circle cx="13834110.000000" cy="11262360.000000" r="91440.000000"/> 
</g>
<g style="fill:#000000; fill-opacity:1.0;  stroke:#000000; stroke-width:0.100000; stroke-opacity:1;  stroke-linecap:round; stroke-linejoin:round;">
<circle cx="13834110.000000" cy="11516360.000000" r="91440.000000"/> 
</g>
<g style="fill:#000000; fill-opacity:1.0;  stroke:#000000; stroke-width:0.100000; stroke-opacity:1;  stroke-linecap:round; stroke-linejoin:round;">
<circle cx="13834110.000000" cy="11770360.000000" r="91440.000000"/> 
</g>
<g style="fill:#000000; fill-opacity:1.0;  stroke:#000000; stroke-width:0.100000; stroke-opacity:1;  stroke-linecap:round; stroke-linejoin:round;">
<path style="fill:#000000; fill-opacity:1.0;  stroke:#000000; stroke-width:0.100000; stroke-opacity:1;  stroke-linecap:round; stroke-linejoin:round;fill-rule:evenodd;" d="M 14923770.000000,11897360.000000 14922239.600000,11912297.300000 14916868.600000,11928490.100000 14907916.600000,11943012.900000 14895863.700000,11955086.900000 14881356.500000,11964064.200000 14865173.200000,11969463.400000 14850110.000000,11971020.000000 14835172.700000,11969489.600000 14818979.900000,11964118.600000 14804457.100000,11955166.600000 14792383.100000,11943113.700000 14783405.800000,11928606.500000 14778006.600000,11912423.200000 14776450.000000,11897360.000000 14777980.400000,11882422.700000 14783351.400000,11866229.900000 14792303.400000,11851707.100000 14804356.300000,11839633.100000 14818863.500000,11830655.800000 14835046.800000,11825256.600000 14850110.000000,11823700.000000 14865047.300000,11825230.400000 14881240.100000,11830601.400000 14895762.900000,11839553.400000 14907836.900000,11851606.300000 14916814.200000,11866113.500000 14922213.400000,11882296.800000 14923770.000000,11897360.000000 Z"/> 
</g>
<g style="fill:#000000; fill-opacity:1.0;  stroke:#000000; stroke-width:0.100000; stroke-opacity:1;  stroke-linecap:round; stroke-linejoin:round;">
<path style="fill:#000000; fill-opacity:1.0;  stroke:#000000; stroke-width:0.100000; stroke-opacity:1;  stroke-linecap:round; stroke-linejoin:round;fill-rule:evenodd;" d="M 14923770.000000,9103360.000000 14922239.600000,9118297.300000 14916868.600000,9134490.100000 14907916.600000,9149012.900000 14895863.700000,9161086.900000 14881356.500000,9170064.200000 14865173.200000,9175463.400000 14850110.000000,9177020.000000 14835172.700000,9175489.600000 14818979.900000,9170118.600000 14804457.100000,9161166.600000 14792383.100000,9149113.700000 14783405.800000,9134606.500000 14778006.600000,9118423.200000 14776450.000000,9103360.000000 14777980.400000,9088422.700000 14783351.400000,9072229.900000 14792303.400000,9057707.100000 14804356.300000,9045633.100000 14818863.500000,9036655.800000 14835046.800000,9031256.600000 14850110.000000,9029700.000000 14865047.300000,9031230.400000 14881240.100000,9036601.400000 14895762.900000,9045553.400000 14907836.900000,9057606.300000 14916814.200000,9072113.500000 14922213.400000,9088296.800000 14923770.000000,9103360.000000 Z"/> 
</g>
</g> 
</mask><mask id="hole-mask"><g><rect x="13320877.6" y="7372200.0" fill="white" width="2703982.4" height="6256320.0"/><polyline stroke-linecap="round" stroke="black" stroke-width="330200.0" points="-0.0 0 0.0 0" transform="translate(15739110.0 12532360.0) rotate(-0.0)"/><polyline stroke-linecap="round" stroke="black" stroke-width="330200.0" points="-0.0 0 0.0 0" transform="translate(13961110.0 8468360.0) rotate(-0.0)"/><polyline stroke-linecap="round" stroke="black" stroke-width="330200.0" points="-0.0 0 0.0 0" transform="translate(15739110.0 8468360.0) rotate(-0.0)"/><polyline stroke-linecap="round" stroke="black" stroke-width="213360.0" points="-0.0 0 0.0 0" transform="translate(14425110.0 12588360.0) rotate(-90.0)"/><polyline stroke-linecap="round" stroke="black" stroke-width="213360.0" points="-0.0 0 0.0 0" transform="translate(15275110.0 12588360.0) rotate(-90.0)"/><polyline stroke-linecap="round" stroke="black" stroke-width="230000.0" points="-0.0 0 0.0 0" transform="translate(14850110.0 12258040.0) rotate(-90.0)"/><polyline stroke-linecap="round" stroke="black" stroke-width="230000.0" points="-0.0 0 0.0 0" transform="translate(14469950.0 11875340.0) rotate(-90.0)"/><polyline stroke-linecap="round" stroke="black" stroke-width="230000.0" points="-0.0 0 0.0 0" transform="translate(15232810.0 11875340.0) rotate(-90.0)"/><polyline stroke-linecap="round" stroke="black" stroke-width="213360.0" points="-0.0 0 0.0 0" transform="translate(15275110.0 8412360.0) rotate(-270.0)"/><polyline stroke-linecap="round" stroke="black" stroke-width="213360.0" points="-0.0 0 0.0 0" transform="translate(14425110.0 8412360.0) rotate(-270.0)"/><polyline stroke-linecap="round" stroke="black" stroke-width="230000.0" points="-0.0 0 0.0 0" transform="translate(14850110.0 8742680.0) rotate(-270.0)"/><polyline stroke-linecap="round" stroke="black" stroke-width="230000.0" points="-0.0 0 0.0 0" transform="translate(15230270.0 9125380.0) rotate(-270.0)"/><polyline stroke-linecap="round" stroke="black" stroke-width="230000.0" points="-0.0 0 0.0 0" transform="translate(14467410.0 9125380.0) rotate(-270.0)"/><polyline stroke-linecap="round" stroke="black" stroke-width="330200.0" points="-0.0 0 0.0 0" transform="translate(13961110.0 12532360.0) rotate(-0.0)"/><polyline stroke-linecap="round" stroke="black" stroke-width="101600.0" points="-0.0 0 0.0 0" transform="translate(13834110.0 9230360.0) rotate(-0.0)"/><polyline stroke-linecap="round" stroke="black" stroke-width="101600.0" points="-0.0 0 0.0 0" transform="translate(13834110.0 9484360.0) rotate(-0.0)"/><polyline stroke-linecap="round" stroke="black" stroke-width="101600.0" points="-0.0 0 0.0 0" transform="translate(13834110.0 9738360.0) rotate(-0.0)"/><polyline stroke-linecap="round" stroke="black" stroke-width="101600.0" points="-0.0 0 0.0 0" transform="translate(13834110.0 9992360.0) rotate(-0.0)"/><polyline stroke-linecap="round" stroke="black" stroke-width="101600.0" points="-0.0 0 0.0 0" transform="translate(13834110.0 10246360.0) rotate(-0.0)"/><polyline stroke-linecap="round" stroke="black" stroke-width="101600.0" points="-0.0 0 0.0 0" transform="translate(13834110.0 10500360.0) rotate(-0.0)"/><polyline stroke-linecap="round" stroke="black" stroke-width="101600.0" points="-0.0 0 0.0 0" transform="translate(13834110.0 10754360.0) rotate(-0.0)"/><polyline stroke-linecap="round" stroke="black" stroke-width="101600.0" points="-0.0 0 0.0 0" transform="translate(13834110.0 11008360.0) rotate(-0.0)"/><polyline stroke-linecap="round" stroke="black" stroke-width="101600.0" points="-0.0 0 0.0 0" transform="translate(13834110.0 11262360.0) rotate(-0.0)"/><polyline stroke-linecap="round" stroke="black" stroke-width="101600.0" points="-0.0 0 0.0 0" transform="translate(13834110.0 11516360.0) rotate(-0.0)"/><polyline stroke-linecap="round" stroke="black" stroke-width="101600.0" points="-0.0 0 0.0 0" transform="translate(13834110.0 11770360.0) rotate(-0.0)"/><polyline stroke-linecap="round" stroke="black" stroke-width="50800.0" points="-0.0 0 0.0 0" transform="translate(14342110.0 10627360.0) rotate(0.0)"/><polyline stroke-linecap="round" stroke="black" stroke-width="50800.0" points="-0.0 0 0.0 0" transform="translate(15231110.0 11122660.0) rotate(0.0)"/><polyline stroke-linecap="round" stroke="black" stroke-width="50800.0" points="-0.0 0 0.0 0" transform="translate(15866110.0 10652760.0) rotate(0.0)"/><polyline stroke-linecap="round" stroke="black" stroke-width="50800.0" points="-0.0 0 0.0 0" transform="translate(14278610.0 11135360.0) rotate(0.0)"/><polyline stroke-linecap="round" stroke="black" stroke-width="50800.0" points="-0.0 0 0.0 0" transform="translate(15205710.0 10551160.0) rotate(0.0)"/><polyline stroke-linecap="round" stroke="black" stroke-width="50800.0" points="-0.0 0 0.0 0" transform="translate(15358110.0 10881360.0) rotate(0.0)"/><polyline stroke-linecap="round" stroke="black" stroke-width="50800.0" points="-0.0 0 0.0 0" transform="translate(15091410.0 11186160.0) rotate(0.0)"/><polyline stroke-linecap="round" stroke="black" stroke-width="50800.0" points="-0.0 0 0.0 0" transform="translate(15091410.0 10881360.0) rotate(0.0)"/><polyline stroke-linecap="round" stroke="black" stroke-width="50800.0" points="-0.0 0 0.0 0" transform="translate(15586710.0 11414760.0) rotate(0.0)"/><polyline stroke-linecap="round" stroke="black" stroke-width="50800.0" points="-0.0 0 0.0 0" transform="translate(15726410.0 10805160.0) rotate(0.0)"/><polyline stroke-linecap="round" stroke="black" stroke-width="50800.0" points="-0.0 0 0.0 0" transform="translate(15078710.0 10741660.0) rotate(0.0)"/><polyline stroke-linecap="round" stroke="black" stroke-width="50800.0" points="-0.0 0 0.0 0" transform="translate(15129510.0 11021060.0) rotate(0.0)"/></g></mask></defs><g transform="scale(-1,1)" id="boardContainer"><g id="substrate" clip-path="url(#cut-off)" mask="url(#hole-mask)"><g id="substrate-board" style="fill:#4ca06c; stroke:#4ca06c;"><path d=" M 15993110.0 12786360.0 L 13707110.0 12786360.0 L 13707110.0 8214360.0 L 15993110.0 8214360.0 L 15993110.0 12786360.0 " style="fill-rule: evenodd;"/><g style="fill-opacity: 0.0;stroke-width: 20320.000000;stroke-opacity: 1;stroke-linecap: round;stroke-linejoin: round">
<path d="M15993110 8214360 L15993110 12786360 "/>
<path d="M13707110 8214360 L15993110 8214360 "/>
<path d="M13707110 12786360 L13707110 8214360 "/>
<path d="M15993110 12786360 L13707110 12786360 "/>
</g> 
</g><g id="substrate-clad" style="fill:#9c6b28; stroke:#9c6b28;"><g style="fill-opacity: 0.0;stroke-width: 0.000000;stroke-opacity: 1;stroke-linecap: round;stroke-linejoin: round">
<g style="fill-opacity: 1.0;stroke-width: 0.100000;stroke-opacity: 1;stroke-linecap: round;stroke-linejoin: round">
<circle cx="15739110.000000" cy="12532360.000000" r="165100.000000"/> 
</g>
<g style="fill-opacity: 1.0;stroke-width: 0.100000;stroke-opacity: 1;stroke-linecap: round;stroke-linejoin: round">
<circle cx="13961110.000000" cy="8468360.000000" r="165100.000000"/> 
</g>
<g style="fill-opacity: 1.0;stroke-width: 0.100000;stroke-opacity: 1;stroke-linecap: round;stroke-linejoin: round">
<circle cx="15739110.000000" cy="8468360.000000" r="165100.000000"/> 
</g>
<g style="fill-opacity: 1.0;stroke-width: 0.100000;stroke-opacity: 1;stroke-linecap: round;stroke-linejoin: round">
<circle cx="14425110.000000" cy="12588360.000000" r="106680.000000"/> 
</g>
<g style="fill-opacity: 1.0;stroke-width: 0.100000;stroke-opacity: 1;stroke-linecap: round;stroke-linejoin: round">
<circle cx="15275110.000000" cy="12588360.000000" r="106680.000000"/> 
</g>
<g style="fill-opacity: 1.0;stroke-width: 0.100000;stroke-opacity: 1;stroke-linecap: round;stroke-linejoin: round">
<circle cx="14850110.000000" cy="12258040.000000" r="175960.000000"/> 
</g>
<g style="fill-opacity: 1.0;stroke-width: 0.100000;stroke-opacity: 1;stroke-linecap: round;stroke-linejoin: round">
<circle cx="14469950.000000" cy="11875340.000000" r="175960.000000"/> 
</g>
<g style="fill-opacity: 1.0;stroke-width: 0.100000;stroke-opacity: 1;stroke-linecap: round;stroke-linejoin: round">
<circle cx="15232810.000000" cy="11875340.000000" r="175960.000000"/> 
</g>
<g style="fill-opacity: 1.0;stroke-width: 0.100000;stroke-opacity: 1;stroke-linecap: round;stroke-linejoin: round">
<circle cx="15275110.000000" cy="8412360.000000" r="106680.000000"/> 
</g>
<g style="fill-opacity: 1.0;stroke-width: 0.100000;stroke-opacity: 1;stroke-linecap: round;stroke-linejoin: round">
<circle cx="14425110.000000" cy="8412360.000000" r="106680.000000"/> 
</g>
<g style="fill-opacity: 1.0;stroke-width: 0.100000;stroke-opacity: 1;stroke-linecap: round;stroke-linejoin: round">
<circle cx="14850110.000000" cy="8742680.000000" r="175960.000000"/> 
</g>
<g style="fill-opacity: 1.0;stroke-width: 0.100000;stroke-opacity: 1;stroke-linecap: round;stroke-linejoin: round">
<circle cx="15230270.000000" cy="9125380.000000" r="175960.000000"/> 
</g>
<g style="fill-opacity: 1.0;stroke-width: 0.100000;stroke-opacity: 1;stroke-linecap: round;stroke-linejoin: round">
<circle cx="14467410.000000" cy="9125380.000000" r="175960.000000"/> 
</g>
<g style="fill-opacity: 1.0;stroke-width: 0.100000;stroke-opacity: 1;stroke-linecap: round;stroke-linejoin: round">
<circle cx="13961110.000000" cy="12532360.000000" r="165100.000000"/> 
</g>
<g style="fill-opacity: 1.0;stroke-width: 0.100000;stroke-opacity: 1;stroke-linecap: round;stroke-linejoin: round">
<circle cx="13834110.000000" cy="9230360.000000" r="91440.000000"/> 
</g>
<g style="fill-opacity: 1.0;stroke-width: 0.100000;stroke-opacity: 1;stroke-linecap: round;stroke-linejoin: round">
<circle cx="13834110.000000" cy="9484360.000000" r="91440.000000"/> 
</g>
<g style="fill-opacity: 1.0;stroke-width: 0.100000;stroke-opacity: 1;stroke-linecap: round;stroke-linejoin: round">
<circle cx="13834110.000000" cy="9738360.000000" r="91440.000000"/> 
</g>
<g style="fill-opacity: 1.0;stroke-width: 0.100000;stroke-opacity: 1;stroke-linecap: round;stroke-linejoin: round">
<circle cx="13834110.000000" cy="9992360.000000" r="91440.000000"/> 
</g>
<g style="fill-opacity: 1.0;stroke-width: 0.100000;stroke-opacity: 1;stroke-linecap: round;stroke-linejoin: round">
<circle cx="13834110.000000" cy="10246360.000000" r="91440.000000"/> 
</g>
<g style="fill-opacity: 1.0;stroke-width: 0.100000;stroke-opacity: 1;stroke-linecap: round;stroke-linejoin: round">
<circle cx="13834110.000000" cy="10500360.000000" r="91440.000000"/> 
</g>
<g style="fill-opacity: 1.0;stroke-width: 0.100000;stroke-opacity: 1;stroke-linecap: round;stroke-linejoin: round">
<circle cx="13834110.000000" cy="10754360.000000" r="91440.000000"/> 
</g>
<g style="fill-opacity: 1.0;stroke-width: 0.100000;stroke-opacity: 1;stroke-linecap: round;stroke-linejoin: round">
<circle cx="13834110.000000" cy="11008360.000000" r="91440.000000"/> 
</g>
<g style="fill-opacity: 1.0;stroke-width: 0.100000;stroke-opacity: 1;stroke-linecap: round;stroke-linejoin: round">
<circle cx="13834110.000000" cy="11262360.000000" r="91440.000000"/> 
</g>
<g style="fill-opacity: 1.0;stroke-width: 0.100000;stroke-opacity: 1;stroke-linecap: round;stroke-linejoin: round">
<circle cx="13834110.000000" cy="11516360.000000" r="91440.000000"/> 
</g>
<g style="fill-opacity: 1.0;stroke-width: 0.100000;stroke-opacity: 1;stroke-linecap: round;stroke-linejoin: round">
<circle cx="13834110.000000" cy="11770360.000000" r="91440.000000"/> 
</g>
<g style="fill-opacity: 1.0;stroke-width: 0.100000;stroke-opacity: 1;stroke-linecap: round;stroke-linejoin: round">
<path style="fill-opacity: 1.0;stroke-width: 0.100000;stroke-opacity: 1;stroke-linecap: round;stroke-linejoin: round;fill-rule: evenodd" d="M 14923770.000000,11897360.000000 14922239.600000,11912297.300000 14916868.600000,11928490.100000 14907916.600000,11943012.900000 14895863.700000,11955086.900000 14881356.500000,11964064.200000 14865173.200000,11969463.400000 14850110.000000,11971020.000000 14835172.700000,11969489.600000 14818979.900000,11964118.600000 14804457.100000,11955166.600000 14792383.100000,11943113.700000 14783405.800000,11928606.500000 14778006.600000,11912423.200000 14776450.000000,11897360.000000 14777980.400000,11882422.700000 14783351.400000,11866229.900000 14792303.400000,11851707.100000 14804356.300000,11839633.100000 14818863.500000,11830655.800000 14835046.800000,11825256.600000 14850110.000000,11823700.000000 14865047.300000,11825230.400000 14881240.100000,11830601.400000 14895762.900000,11839553.400000 14907836.900000,11851606.300000 14916814.200000,11866113.500000 14922213.400000,11882296.800000 14923770.000000,11897360.000000 Z"/> 
</g>
<g style="fill-opacity: 1.0;stroke-width: 0.100000;stroke-opacity: 1;stroke-linecap: round;stroke-linejoin: round">
<path style="fill-opacity: 1.0;stroke-width: 0.100000;stroke-opacity: 1;stroke-linecap: round;stroke-linejoin: round;fill-rule: evenodd" d="M 14923770.000000,9103360.000000 14922239.600000,9118297.300000 14916868.600000,9134490.100000 14907916.600000,9149012.900000 14895863.700000,9161086.900000 14881356.500000,9170064.200000 14865173.200000,9175463.400000 14850110.000000,9177020.000000 14835172.700000,9175489.600000 14818979.900000,9170118.600000 14804457.100000,9161166.600000 14792383.100000,9149113.700000 14783405.800000,9134606.500000 14778006.600000,9118423.200000 14776450.000000,9103360.000000 14777980.400000,9088422.700000 14783351.400000,9072229.900000 14792303.400000,9057707.100000 14804356.300000,9045633.100000 14818863.500000,9036655.800000 14835046.800000,9031256.600000 14850110.000000,9029700.000000 14865047.300000,9031230.400000 14881240.100000,9036601.400000 14895762.900000,9045553.400000 14907836.900000,9057606.300000 14916814.200000,9072113.500000 14922213.400000,9088296.800000 14923770.000000,9103360.000000 Z"/> 
</g>
</g> 
</g><g id="substrate-copper" style="fill:#417e5a; stroke:#417e5a;"><g style="fill-opacity: 0.0;stroke-width: 25400.000000;stroke-opacity: 1;stroke-linecap: round;stroke-linejoin: round">
<g transform="rotate(90.000000 15878810.000000 9103360.000000)">
<text x="15878810.000000" y="9204960.000000" transform="scale(-1 1) translate(-31757620.000000 0)" textLength="638628.500000" font-size="135466.600000" lengthAdjust="spacingAndGlyphs" text-anchor="end" opacity="0">7-6-09</text>
</g>
<g class="stroked-text"><desc>7-6-09</desc>
<path d="M15883648 9743984 L15883648 9676250 L15782048 9719793 "/>
<path d="M15820752 9637546 L15820752 9560136 "/>
<path d="M15883648 9468212 L15883648 9487565 L15878810 9497241 L15873971 9502079 L15859457 9511755 L15840105 9516593 L15801400 9516593 L15791724 9511755 L15786886 9506917 L15782048 9497241 L15782048 9477889 L15786886 9468212 L15791724 9463374 L15801400 9458536 L15825590 9458536 L15835267 9463374 L15840105 9468212 L15844943 9477889 L15844943 9497241 L15840105 9506917 L15835267 9511755 L15825590 9516593 "/>
<path d="M15820752 9414993 L15820752 9337584 "/>
<path d="M15883648 9269850 L15883648 9260174 L15878810 9250498 L15873971 9245660 L15864295 9240822 L15844943 9235984 L15820752 9235984 L15801400 9240822 L15791724 9245660 L15786886 9250498 L15782048 9260174 L15782048 9269850 L15786886 9279527 L15791724 9284365 L15801400 9289203 L15820752 9294041 L15844943 9294041 L15864295 9289203 L15873971 9284365 L15878810 9279527 L15883648 9269850 "/>
<path d="M15782048 9187603 L15782048 9168250 L15786886 9158574 L15791724 9153736 L15806238 9144060 L15825590 9139222 L15864295 9139222 L15873971 9144060 L15878810 9148898 L15883648 9158574 L15883648 9177927 L15878810 9187603 L15873971 9192441 L15864295 9197279 L15840105 9197279 L15830429 9192441 L15825590 9187603 L15820752 9177927 L15820752 9158574 L15825590 9148898 L15830429 9144060 L15840105 9139222 "/>
</g><g style="fill-opacity: 1.0;stroke-width: 0.100000;stroke-opacity: 1;stroke-linecap: round;stroke-linejoin: round">
<circle cx="14850110.000000" cy="12258040.000000" r="165800.000000"/> 
</g>
<g style="fill-opacity: 1.0;stroke-width: 0.100000;stroke-opacity: 1;stroke-linecap: round;stroke-linejoin: round">
<circle cx="14469950.000000" cy="11875340.000000" r="165800.000000"/> 
</g>
<g style="fill-opacity: 1.0;stroke-width: 0.100000;stroke-opacity: 1;stroke-linecap: round;stroke-linejoin: round">
<circle cx="15232810.000000" cy="11875340.000000" r="165800.000000"/> 
</g>
<g style="fill-opacity: 1.0;stroke-width: 0.100000;stroke-opacity: 1;stroke-linecap: round;stroke-linejoin: round">
<circle cx="14850110.000000" cy="8742680.000000" r="165800.000000"/> 
</g>
<g style="fill-opacity: 1.0;stroke-width: 0.100000;stroke-opacity: 1;stroke-linecap: round;stroke-linejoin: round">
<circle cx="15230270.000000" cy="9125380.000000" r="165800.000000"/> 
</g>
<g style="fill-opacity: 1.0;stroke-width: 0.100000;stroke-opacity: 1;stroke-linecap: round;stroke-linejoin: round">
<circle cx="14467410.000000" cy="9125380.000000" r="165800.000000"/> 
</g>
<g style="fill-opacity: 1.0;stroke-width: 0.100000;stroke-opacity: 1;stroke-linecap: round;stroke-linejoin: round">
<circle cx="13834110.000000" cy="9230360.000000" r="81280.000000"/> 
</g>
<g style="fill-opacity: 1.0;stroke-width: 0.100000;stroke-opacity: 1;stroke-linecap: round;stroke-linejoin: round">
<circle cx="13834110.000000" cy="9484360.000000" r="81280.000000"/> 
</g>
<g style="fill-opacity: 1.0;stroke-width: 0.100000;stroke-opacity: 1;stroke-linecap: round;stroke-linejoin: round">
<circle cx="13834110.000000" cy="9738360.000000" r="81280.000000"/> 
</g>
<g style="fill-opacity: 1.0;stroke-width: 0.100000;stroke-opacity: 1;stroke-linecap: round;stroke-linejoin: round">
<circle cx="13834110.000000" cy="9992360.000000" r="81280.000000"/> 
</g>
<g style="fill-opacity: 1.0;stroke-width: 0.100000;stroke-opacity: 1;stroke-linecap: round;stroke-linejoin: round">
<circle cx="13834110.000000" cy="10246360.000000" r="81280.000000"/> 
</g>
<g style="fill-opacity: 1.0;stroke-width: 0.100000;stroke-opacity: 1;stroke-linecap: round;stroke-linejoin: round">
<circle cx="13834110.000000" cy="10500360.000000" r="81280.000000"/> 
</g>
<g style="fill-opacity: 1.0;stroke-width: 0.100000;stroke-opacity: 1;stroke-linecap: round;stroke-linejoin: round">
<circle cx="13834110.000000" cy="10754360.000000" r="81280.000000"/> 
</g>
<g style="fill-opacity: 1.0;stroke-width: 0.100000;stroke-opacity: 1;stroke-linecap: round;stroke-linejoin: round">
<circle cx="13834110.000000" cy="11008360.000000" r="81280.000000"/> 
</g>
<g style="fill-opacity: 1.0;stroke-width: 0.100000;stroke-opacity: 1;stroke-linecap: round;stroke-linejoin: round">
<circle cx="13834110.000000" cy="11262360.000000" r="81280.000000"/> 
</g>
<g style="fill-opacity: 1.0;stroke-width: 0.100000;stroke-opacity: 1;stroke-linecap: round;stroke-linejoin: round">
<circle cx="13834110.000000" cy="11516360.000000" r="81280.000000"/> 
</g>
<g style="fill-opacity: 1.0;stroke-width: 0.100000;stroke-opacity: 1;stroke-linecap: round;stroke-linejoin: round">
<circle cx="13834110.000000" cy="11770360.000000" r="81280.000000"/> 
</g>
<g style="fill-opacity: 1.0;stroke-width: 0.100000;stroke-opacity: 1;stroke-linecap: round;stroke-linejoin: round">
<path style="fill-opacity: 1.0;stroke-width: 0.100000;stroke-opacity: 1;stroke-linecap: round;stroke-linejoin: round;fill-rule: evenodd" d="M 14913610.000000,11897360.000000 14912828.200000,11907293.600000 14908387.400000,11922578.900000 14900284.800000,11936279.600000 14889029.600000,11947534.800000 14875328.900000,11955637.400000 14860043.600000,11960078.200000 14850110.000000,11960860.000000 14840176.400000,11960078.200000 14824891.100000,11955637.400000 14811190.400000,11947534.800000 14799935.200000,11936279.600000 14791832.600000,11922578.900000 14787391.800000,11907293.600000 14786610.000000,11897360.000000 14787391.800000,11887426.400000 14791832.600000,11872141.100000 14799935.200000,11858440.400000 14811190.400000,11847185.200000 14824891.100000,11839082.600000 14840176.400000,11834641.800000 14850110.000000,11833860.000000 14860043.600000,11834641.800000 14875328.900000,11839082.600000 14889029.600000,11847185.200000 14900284.800000,11858440.400000 14908387.400000,11872141.100000 14912828.200000,11887426.400000 14913610.000000,11897360.000000 Z"/> 
</g>
<g style="fill-opacity: 1.0;stroke-width: 0.100000;stroke-opacity: 1;stroke-linecap: round;stroke-linejoin: round">
<path style="fill-opacity: 1.0;stroke-width: 0.100000;stroke-opacity: 1;stroke-linecap: round;stroke-linejoin: round;fill-rule: evenodd" d="M 14913610.000000,9103360.000000 14912828.200000,9113293.600000 14908387.400000,9128578.900000 14900284.800000,9142279.600000 14889029.600000,9153534.800000 14875328.900000,9161637.400000 14860043.600000,9166078.200000 14850110.000000,9166860.000000 14840176.400000,9166078.200000 14824891.100000,9161637.400000 14811190.400000,9153534.800000 14799935.200000,9142279.600000 14791832.600000,9128578.900000 14787391.800000,9113293.600000 14786610.000000,9103360.000000 14787391.800000,9093426.400000 14791832.600000,9078141.100000 14799935.200000,9064440.400000 14811190.400000,9053185.200000 14824891.100000,9045082.600000 14840176.400000,9040641.800000 14850110.000000,9039860.000000 14860043.600000,9040641.800000 14875328.900000,9045082.600000 14889029.600000,9053185.200000 14900284.800000,9064440.400000 14908387.400000,9078141.100000 14912828.200000,9093426.400000 14913610.000000,9103360.000000 Z"/> 
</g>
<g style="fill-opacity: 1.0;stroke-width: 0.100000;stroke-opacity: 1;stroke-linecap: round;stroke-linejoin: round">
<circle cx="14342110.000000" cy="10627360.000000" r="50800.000000"/> 
</g>
<g style="fill-opacity: 1.0;stroke-width: 0.100000;stroke-opacity: 1;stroke-linecap: round;stroke-linejoin: round">
<circle cx="15231110.000000" cy="11122660.000000" r="50800.000000"/> 
</g>
<g style="fill-opacity: 1.0;stroke-width: 0.100000;stroke-opacity: 1;stroke-linecap: round;stroke-linejoin: round">
<circle cx="15866110.000000" cy="10652760.000000" r="50800.000000"/> 
</g>
<g style="fill-opacity: 1.0;stroke-width: 0.100000;stroke-opacity: 1;stroke-linecap: round;stroke-linejoin: round">
<circle cx="14278610.000000" cy="11135360.000000" r="50800.000000"/> 
</g>
<g style="fill-opacity: 1.0;stroke-width: 0.100000;stroke-opacity: 1;stroke-linecap: round;stroke-linejoin: round">
<circle cx="15205710.000000" cy="10551160.000000" r="50800.000000"/> 
</g>
<g style="fill-opacity: 1.0;stroke-width: 0.100000;stroke-opacity: 1;stroke-linecap: round;stroke-linejoin: round">
<circle cx="15358110.000000" cy="10881360.000000" r="50800.000000"/> 
</g>
<g style="fill-opacity: 1.0;stroke-width: 0.100000;stroke-opacity: 1;stroke-linecap: round;stroke-linejoin: round">
<circle cx="15091410.000000" cy="11186160.000000" r="50800.000000"/> 
</g>
<g style="fill-opacity: 1.0;stroke-width: 0.100000;stroke-opacity: 1;stroke-linecap: round;stroke-linejoin: round">
<circle cx="15091410.000000" cy="10881360.000000" r="50800.000000"/> 
</g>
<g style="fill-opacity: 1.0;stroke-width: 0.100000;stroke-opacity: 1;stroke-linecap: round;stroke-linejoin: round">
<circle cx="15586710.000000" cy="11414760.000000" r="50800.000000"/> 
</g>
<g style="fill-opacity: 1.0;stroke-width: 0.100000;stroke-opacity: 1;stroke-linecap: round;stroke-linejoin: round">
<circle cx="15726410.000000" cy="10805160.000000" r="50800.000000"/> 
</g>
<g style="fill-opacity: 1.0;stroke-width: 0.100000;stroke-opacity: 1;stroke-linecap: round;stroke-linejoin: round">
<circle cx="15078710.000000" cy="10741660.000000" r="50800.000000"/> 
</g>
<g style="fill-opacity: 1.0;stroke-width: 0.100000;stroke-opacity: 1;stroke-linecap: round;stroke-linejoin: round">
<circle cx="15129510.000000" cy="11021060.000000" r="50800.000000"/> 
</g>
<g style="fill-opacity: 0.0;stroke-width: 25400.000000;stroke-opacity: 1;stroke-linecap: round;stroke-linejoin: round">
<path d="M13834110 11770360 L14088110 11770360 "/>
<path d="M14088110 11770360 L14215110 11643360 "/>
<path d="M14215110 11643360 L14215110 11198860 "/>
<path d="M14215110 11198860 L14278610 11135360 "/>
<path d="M15231110 11122660 L15220110 11133660 "/>
<path d="M15866110 10652760 L15866110 10843260 "/>
<path d="M15220110 11133660 L15232810 11875340 "/>
<path d="M15205710 10551160 L15269210 10551160 "/>
<path d="M15358110 10640060 L15358110 10881360 "/>
<path d="M15269210 10551160 L15358110 10640060 "/>
<path d="M13834110 10246360 L14773910 11186160 "/>
<path d="M14773910 11186160 L15091410 11186160 "/>
<path d="M15091410 10881360 L13948410 9738360 "/>
<path d="M13948410 9738360 L13834110 9738360 "/>
<path d="M15208250 9103360 L14850110 9103360 "/>
<path d="M15230270 9125380 L15208250 9103360 "/>
<path d="M15726410 11275060 L15726410 10805160 "/>
<path d="M15586710 11414760 L15726410 11275060 "/>
<path d="M14491970 11897360 L14850110 11897360 "/>
<path d="M14469950 11875340 L14491970 11897360 "/>
<path d="M15078710 10741660 L15078710 10728960 "/>
<path d="M15078710 10728960 L13834110 9484360 "/>
<path d="M13961110 9992360 L14989810 11021060 "/>
<path d="M13834110 9992360 L13961110 9992360 "/>
<path d="M14989810 11021060 L15129510 11021060 "/>
</g>
</g> 
</g><g id="substrate-pads" style="fill:#b5ae30; stroke:#b5ae30;" mask="url(#pads-mask)"><g style="fill-opacity: 0.0;stroke-width: 25400.000000;stroke-opacity: 1;stroke-linecap: round;stroke-linejoin: round">
<g transform="rotate(90.000000 15878810.000000 9103360.000000)">
<text x="15878810.000000" y="9204960.000000" transform="scale(-1 1) translate(-31757620.000000 0)" textLength="605608.600000" font-size="135466.600000" lengthAdjust="spacingAndGlyphs" text-anchor="end" opacity="0">7-6-09</text>
</g>
<g class="stroked-text"><desc>7-6-09</desc>
<path d="M15883648 9743984 L15883648 9676250 L15782048 9719793 "/>
<path d="M15820752 9637546 L15820752 9560136 "/>
<path d="M15883648 9468212 L15883648 9487565 L15878810 9497241 L15873971 9502079 L15859457 9511755 L15840105 9516593 L15801400 9516593 L15791724 9511755 L15786886 9506917 L15782048 9497241 L15782048 9477889 L15786886 9468212 L15791724 9463374 L15801400 9458536 L15825590 9458536 L15835267 9463374 L15840105 9468212 L15844943 9477889 L15844943 9497241 L15840105 9506917 L15835267 9511755 L15825590 9516593 "/>
<path d="M15820752 9414993 L15820752 9337584 "/>
<path d="M15883648 9269850 L15883648 9260174 L15878810 9250498 L15873971 9245660 L15864295 9240822 L15844943 9235984 L15820752 9235984 L15801400 9240822 L15791724 9245660 L15786886 9250498 L15782048 9260174 L15782048 9269850 L15786886 9279527 L15791724 9284365 L15801400 9289203 L15820752 9294041 L15844943 9294041 L15864295 9289203 L15873971 9284365 L15878810 9279527 L15883648 9269850 "/>
<path d="M15782048 9187603 L15782048 9168250 L15786886 9158574 L15791724 9153736 L15806238 9144060 L15825590 9139222 L15864295 9139222 L15873971 9144060 L15878810 9148898 L15883648 9158574 L15883648 9177927 L15878810 9187603 L15873971 9192441 L15864295 9197279 L15840105 9197279 L15830429 9192441 L15825590 9187603 L15820752 9177927 L15820752 9158574 L15825590 9148898 L15830429 9144060 L15840105 9139222 "/>
</g><g style="fill-opacity: 1.0;stroke-width: 0.100000;stroke-opacity: 1;stroke-linecap: round;stroke-linejoin: round">
<circle cx="14850110.000000" cy="12258040.000000" r="165800.000000"/> 
</g>
<g style="fill-opacity: 1.0;stroke-width: 0.100000;stroke-opacity: 1;stroke-linecap: round;stroke-linejoin: round">
<circle cx="14469950.000000" cy="11875340.000000" r="165800.000000"/> 
</g>
<g style="fill-opacity: 1.0;stroke-width: 0.100000;stroke-opacity: 1;stroke-linecap: round;stroke-linejoin: round">
<circle cx="15232810.000000" cy="11875340.000000" r="165800.000000"/> 
</g>
<g style="fill-opacity: 1.0;stroke-width: 0.100000;stroke-opacity: 1;stroke-linecap: round;stroke-linejoin: round">
<circle cx="14850110.000000" cy="8742680.000000" r="165800.000000"/> 
</g>
<g style="fill-opacity: 1.0;stroke-width: 0.100000;stroke-opacity: 1;stroke-linecap: round;stroke-linejoin: round">
<circle cx="15230270.000000" cy="9125380.000000" r="165800.000000"/> 
</g>
<g style="fill-opacity: 1.0;stroke-width: 0.100000;stroke-opacity: 1;stroke-linecap: round;stroke-linejoin: round">
<circle cx="14467410.000000" cy="9125380.000000" r="165800.000000"/> 
</g>
<g style="fill-opacity: 1.0;stroke-width: 0.100000;stroke-opacity: 1;stroke-linecap: round;stroke-linejoin: round">
<circle cx="13834110.000000" cy="9230360.000000" r="81280.000000"/> 
</g>
<g style="fill-opacity: 1.0;stroke-width: 0.100000;stroke-opacity: 1;stroke-linecap: round;stroke-linejoin: round">
<circle cx="13834110.000000" cy="9484360.000000" r="81280.000000"/> 
</g>
<g style="fill-opacity: 1.0;stroke-width: 0.100000;stroke-opacity: 1;stroke-linecap: round;stroke-linejoin: round">
<circle cx="13834110.000000" cy="9738360.000000" r="81280.000000"/> 
</g>
<g style="fill-opacity: 1.0;stroke-width: 0.100000;stroke-opacity: 1;stroke-linecap: round;stroke-linejoin: round">
<circle cx="13834110.000000" cy="9992360.000000" r="81280.000000"/> 
</g>
<g style="fill-opacity: 1.0;stroke-width: 0.100000;stroke-opacity: 1;stroke-linecap: round;stroke-linejoin: round">
<circle cx="13834110.000000" cy="10246360.000000" r="81280.000000"/> 
</g>
<g style="fill-opacity: 1.0;stroke-width: 0.100000;stroke-opacity: 1;stroke-linecap: round;stroke-linejoin: round">
<circle cx="13834110.000000" cy="10500360.000000" r="81280.000000"/> 
</g>
<g style="fill-opacity: 1.0;stroke-width: 0.100000;stroke-opacity: 1;stroke-linecap: round;stroke-linejoin: round">
<circle cx="13834110.000000" cy="10754360.000000" r="81280.000000"/> 
</g>
<g style="fill-opacity: 1.0;stroke-width: 0.100000;stroke-opacity: 1;stroke-linecap: round;stroke-linejoin: round">
<circle cx="13834110.000000" cy="11008360.000000" r="81280.000000"/> 
</g>
<g style="fill-opacity: 1.0;stroke-width: 0.100000;stroke-opacity: 1;stroke-linecap: round;stroke-linejoin: round">
<circle cx="13834110.000000" cy="11262360.000000" r="81280.000000"/> 
</g>
<g style="fill-opacity: 1.0;stroke-width: 0.100000;stroke-opacity: 1;stroke-linecap: round;stroke-linejoin: round">
<circle cx="13834110.000000" cy="11516360.000000" r="81280.000000"/> 
</g>
<g style="fill-opacity: 1.0;stroke-width: 0.100000;stroke-opacity: 1;stroke-linecap: round;stroke-linejoin: round">
<circle cx="13834110.000000" cy="11770360.000000" r="81280.000000"/> 
</g>
<g style="fill-opacity: 1.0;stroke-width: 0.100000;stroke-opacity: 1;stroke-linecap: round;stroke-linejoin: round">
<path style="fill-opacity: 1.0;stroke-width: 0.100000;stroke-opacity: 1;stroke-linecap: round;stroke-linejoin: round;fill-rule: evenodd" d="M 14913610.000000,11897360.000000 14912828.200000,11907293.600000 14908387.400000,11922578.900000 14900284.800000,11936279.600000 14889029.600000,11947534.800000 14875328.900000,11955637.400000 14860043.600000,11960078.200000 14850110.000000,11960860.000000 14840176.400000,11960078.200000 14824891.100000,11955637.400000 14811190.400000,11947534.800000 14799935.200000,11936279.600000 14791832.600000,11922578.900000 14787391.800000,11907293.600000 14786610.000000,11897360.000000 14787391.800000,11887426.400000 14791832.600000,11872141.100000 14799935.200000,11858440.400000 14811190.400000,11847185.200000 14824891.100000,11839082.600000 14840176.400000,11834641.800000 14850110.000000,11833860.000000 14860043.600000,11834641.800000 14875328.900000,11839082.600000 14889029.600000,11847185.200000 14900284.800000,11858440.400000 14908387.400000,11872141.100000 14912828.200000,11887426.400000 14913610.000000,11897360.000000 Z"/> 
</g>
<g style="fill-opacity: 1.0;stroke-width: 0.100000;stroke-opacity: 1;stroke-linecap: round;stroke-linejoin: round">
<path style="fill-opacity: 1.0;stroke-width: 0.100000;stroke-opacity: 1;stroke-linecap: round;stroke-linejoin: round;fill-rule: evenodd" d="M 14913610.000000,9103360.000000 14912828.200000,9113293.600000 14908387.400000,9128578.900000 14900284.800000,9142279.600000 14889029.600000,9153534.800000 14875328.900000,9161637.400000 14860043.600000,9166078.200000 14850110.000000,9166860.000000 14840176.400000,9166078.200000 14824891.100000,9161637.400000 14811190.400000,9153534.800000 14799935.200000,9142279.600000 14791832.600000,9128578.900000 14787391.800000,9113293.600000 14786610.000000,9103360.000000 14787391.800000,9093426.400000 14791832.600000,9078141.100000 14799935.200000,9064440.400000 14811190.400000,9053185.200000 14824891.100000,9045082.600000 14840176.400000,9040641.800000 14850110.000000,9039860.000000 14860043.600000,9040641.800000 14875328.900000,9045082.600000 14889029.600000,9053185.200000 14900284.800000,9064440.400000 14908387.400000,9078141.100000 14912828.200000,9093426.400000 14913610.000000,9103360.000000 Z"/> 
</g>
<g style="fill-opacity: 1.0;stroke-width: 0.100000;stroke-opacity: 1;stroke-linecap: round;stroke-linejoin: round">
<circle cx="14342110.000000" cy="10627360.000000" r="50800.000000"/> 
</g>
<g style="fill-opacity: 1.0;stroke-width: 0.100000;stroke-opacity: 1;stroke-linecap: round;stroke-linejoin: round">
<circle cx="15231110.000000" cy="11122660.000000" r="50800.000000"/> 
</g>
<g style="fill-opacity: 1.0;stroke-width: 0.100000;stroke-opacity: 1;stroke-linecap: round;stroke-linejoin: round">
<circle cx="15866110.000000" cy="10652760.000000" r="50800.000000"/> 
</g>
<g style="fill-opacity: 1.0;stroke-width: 0.100000;stroke-opacity: 1;stroke-linecap: round;stroke-linejoin: round">
<circle cx="14278610.000000" cy="11135360.000000" r="50800.000000"/> 
</g>
<g style="fill-opacity: 1.0;stroke-width: 0.100000;stroke-opacity: 1;stroke-linecap: round;stroke-linejoin: round">
<circle cx="15205710.000000" cy="10551160.000000" r="50800.000000"/> 
</g>
<g style="fill-opacity: 1.0;stroke-width: 0.100000;stroke-opacity: 1;stroke-linecap: round;stroke-linejoin: round">
<circle cx="15358110.000000" cy="10881360.000000" r="50800.000000"/> 
</g>
<g style="fill-opacity: 1.0;stroke-width: 0.100000;stroke-opacity: 1;stroke-linecap: round;stroke-linejoin: round">
<circle cx="15091410.000000" cy="11186160.000000" r="50800.000000"/> 
</g>
<g style="fill-opacity: 1.0;stroke-width: 0.100000;stroke-opacity: 1;stroke-linecap: round;stroke-linejoin: round">
<circle cx="15091410.000000" cy="10881360.000000" r="50800.000000"/> 
</g>
<g style="fill-opacity: 1.0;stroke-width: 0.100000;stroke-opacity: 1;stroke-linecap: round;stroke-linejoin: round">
<circle cx="15586710.000000" cy="11414760.000000" r="50800.000000"/> 
</g>
<g style="fill-opacity: 1.0;stroke-width: 0.100000;stroke-opacity: 1;stroke-linecap: round;stroke-linejoin: round">
<circle cx="15726410.000000" cy="10805160.000000" r="50800.000000"/> 
</g>
<g style="fill-opacity: 1.0;stroke-width: 0.100000;stroke-opacity: 1;stroke-linecap: round;stroke-linejoin: round">
<circle cx="15078710.000000" cy="10741660.000000" r="50800.000000"/> 
</g>
<g style="fill-opacity: 1.0;stroke-width: 0.100000;stroke-opacity: 1;stroke-linecap: round;stroke-linejoin: round">
<circle cx="15129510.000000" cy="11021060.000000" r="50800.000000"/> 
</g>
<g style="fill-opacity: 0.0;stroke-width: 25400.000000;stroke-opacity: 1;stroke-linecap: round;stroke-linejoin: round">
<path d="M13834110 11770360 L14088110 11770360 "/>
<path d="M14088110 11770360 L14215110 11643360 "/>
<path d="M14215110 11643360 L14215110 11198860 "/>
<path d="M14215110 11198860 L14278610 11135360 "/>
<path d="M15231110 11122660 L15220110 11133660 "/>
<path d="M15866110 10652760 L15866110 10843260 "/>
<path d="M15220110 11133660 L15232810 11875340 "/>
<path d="M15205710 10551160 L15269210 10551160 "/>
<path d="M15358110 10640060 L15358110 10881360 "/>
<path d="M15269210 10551160 L15358110 10640060 "/>
<path d="M13834110 10246360 L14773910 11186160 "/>
<path d="M14773910 11186160 L15091410 11186160 "/>
<path d="M15091410 10881360 L13948410 9738360 "/>
<path d="M13948410 9738360 L13834110 9738360 "/>
<path d="M15208250 9103360 L14850110 9103360 "/>
<path d="M15230270 9125380 L15208250 9103360 "/>
<path d="M15726410 11275060 L15726410 10805160 "/>
<path d="M15586710 11414760 L15726410 11275060 "/>
<path d="M14491970 11897360 L14850110 11897360 "/>
<path d="M14469950 11875340 L14491970 11897360 "/>
<path d="M15078710 10741660 L15078710 10728960 "/>
<path d="M15078710 10728960 L13834110 9484360 "/>
<path d="M13961110 9992360 L14989810 11021060 "/>
<path d="M13834110 9992360 L13961110 9992360 "/>
<path d="M14989810 11021060 L15129510 11021060 "/>
</g>
</g> 
</g><g id="substrate-silk" style="fill:#f0f0f0; stroke:#f0f0f0;" mask="url(#pads-mask-silkscreen)"><g style="fill-opacity: 0.0;stroke-width: 26670.000000;stroke-opacity: 1;stroke-linecap: round;stroke-linejoin: round">
<g transform="rotate(90.000000 14634210.000000 11732260.000000)">
<text x="14634210.000000" y="11732260.000000" transform="scale(-1 1) translate(-29268420.000000 0)" textLength="2097193.300000" font-size="201506.600000" lengthAdjust="spacingAndGlyphs" text-anchor="start" opacity="0">MAX7456 Breakout</text>
</g>
<g class="stroked-text"><desc>MAX7456 Breakout</desc>
<path d="M14641406 11678941 L14792536 11678941 L14684586 11628564 L14792536 11578187 L14641406 11578187 "/>
<path d="M14684586 11513417 L14684586 11441451 "/>
<path d="M14641406 11527811 L14792536 11477434 L14641406 11427057 "/>
<path d="M14792536 11391074 L14641406 11290321 "/>
<path d="M14792536 11290321 L14641406 11391074 "/>
<path d="M14792536 11247141 L14792536 11146387 L14641406 11211157 "/>
<path d="M14742160 11024044 L14641406 11024044 "/>
<path d="M14799733 11060027 L14691783 11096011 L14691783 11002454 "/>
<path d="M14792536 10872914 L14792536 10944881 L14720570 10952077 L14727766 10944881 L14734963 10930487 L14734963 10894504 L14727766 10880111 L14720570 10872914 L14706176 10865717 L14670193 10865717 L14655800 10872914 L14648603 10880111 L14641406 10894504 L14641406 10930487 L14648603 10944881 L14655800 10952077 "/>
<path d="M14792536 10736177 L14792536 10764964 L14785340 10779357 L14778143 10786554 L14756553 10800947 L14727766 10808144 L14670193 10808144 L14655800 10800947 L14648603 10793751 L14641406 10779357 L14641406 10750571 L14648603 10736177 L14655800 10728981 L14670193 10721784 L14706176 10721784 L14720570 10728981 L14727766 10736177 L14734963 10750571 L14734963 10779357 L14727766 10793751 L14720570 10800947 L14706176 10808144 "/>
<path d="M14720570 10491491 L14713373 10469901 L14706176 10462704 L14691783 10455507 L14670193 10455507 L14655800 10462704 L14648603 10469901 L14641406 10484294 L14641406 10541867 L14792536 10541867 L14792536 10491491 L14785340 10477097 L14778143 10469901 L14763750 10462704 L14749356 10462704 L14734963 10469901 L14727766 10477097 L14720570 10491491 L14720570 10541867 "/>
<path d="M14641406 10390737 L14742160 10390737 "/>
<path d="M14713373 10390737 L14727766 10383541 L14734963 10376344 L14742160 10361951 L14742160 10347557 "/>
<path d="M14648603 10239607 L14641406 10254001 L14641406 10282787 L14648603 10297181 L14662996 10304377 L14720570 10304377 L14734963 10297181 L14742160 10282787 L14742160 10254001 L14734963 10239607 L14720570 10232411 L14706176 10232411 L14691783 10304377 "/>
<path d="M14641406 10102871 L14720570 10102871 L14734963 10110067 L14742160 10124461 L14742160 10153247 L14734963 10167641 "/>
<path d="M14648603 10102871 L14641406 10117264 L14641406 10153247 L14648603 10167641 L14662996 10174837 L14677390 10174837 L14691783 10167641 L14698980 10153247 L14698980 10117264 L14706176 10102871 "/>
<path d="M14641406 10030904 L14792536 10030904 "/>
<path d="M14698980 10016511 L14641406 9973331 "/>
<path d="M14742160 9973331 L14684586 10030904 "/>
<path d="M14641406 9886971 L14648603 9901364 L14655800 9908561 L14670193 9915757 L14713373 9915757 L14727766 9908561 L14734963 9901364 L14742160 9886971 L14742160 9865381 L14734963 9850987 L14727766 9843791 L14713373 9836594 L14670193 9836594 L14655800 9843791 L14648603 9850987 L14641406 9865381 L14641406 9886971 "/>
<path d="M14742160 9707054 L14641406 9707054 "/>
<path d="M14742160 9771824 L14662996 9771824 L14648603 9764627 L14641406 9750234 L14641406 9728644 L14648603 9714251 L14655800 9707054 "/>
<path d="M14742160 9656677 L14742160 9599104 "/>
<path d="M14792536 9635087 L14662996 9635087 L14648603 9627891 L14641406 9613497 L14641406 9599104 "/>
</g></g>
<g style="fill-opacity: 0.0;stroke-width: 2540.000000;stroke-opacity: 1;stroke-linecap: round;stroke-linejoin: round">
<path d="M14995400 10355830 L15152620 10355830 "/>
<path d="M15130530 10315450 L15130530 10314690 "/>
<path d="M15130020 9872470 L15130020 9874760 "/>
<path d="M15082270 10313670 L14995400 10313670 "/>
<path d="M15152620 10315450 L15130530 10315450 "/>
<path d="M15162280 9870440 L15162280 9868920 "/>
<path d="M15130530 9870440 L15162280 9870440 "/>
<path d="M14996410 10209280 L14996410 10250170 "/>
<path d="M15152620 10355830 L15152620 10315450 "/>
<path d="M15101820 10209280 L14996410 10209280 "/>
<path d="M15162280 9872470 L15130020 9872470 "/>
<path d="M14995400 10313670 L14995400 10355830 "/>
<path d="M14996410 10250170 L15092930 10250170 "/>
<path d="M15159480.485039 9846559.876594 A78112.200000 78112.200000 0.0 0 0 15142720.022164 9814559.980724"/>
<path d="M15095980.201347 9951971.129441 A78631.600000 78631.600000 0.0 0 0 15149830.041766 9914639.924745"/>
<path d="M15082270.002102 10313669.835902 A267831.800000 267831.800000 0.0 0 0 15089119.999537 10313669.963770"/>
<path d="M15156430.043647 10270740.001835 A150002.400000 150002.400000 0.0 0 0 15155929.951890 10250680.004432"/>
<path d="M15149828.151709 9914638.904690 A89619.200000 89619.200000 0.0 0 0 15162280.045205 9872470.001777"/>
<path d="M15089380.066107 9910571.004158 A52661.200000 52661.200000 0.0 0 0 15117829.987689 9899649.984140"/>
<path d="M15124180.093668 10212579.674076 A85007.400000 85007.400000 0.0 0 0 15101820.000283 10209279.978505"/>
<path d="M15098010.220909 9831579.061386 A105414.600000 105414.600000 0.0 0 0 15072870.000459 9828780.048885"/>
<path d="M15162280.000000 9868920.000000 A90680.000000 90680.000000 0.0 0 0 15159479.991450 9846560.002175"/>
<path d="M15089119.997152 10313669.778109 A45193.500000 45193.500000 0.0 0 0 15104870.015760 10310620.040668"/>
<path d="M15123669.299853 10267700.255166 A22691.000000 22691.000000 0.0 0 0 15114020.011117 10256009.981461"/>
<path d="M15132809.528278 10311639.352728 A14874.200000 14874.200000 0.0 0 0 15131289.978495 10312909.977512"/>
<path d="M14992858.088299 9873230.022229 A88587.900000 88587.900000 0.0 0 0 15012919.986352 9928350.011185"/>
<path d="M15012919.217888 9928350.640876 A58062.600000 58062.600000 0.0 0 0 15027909.993260 9941310.011208"/>
<path d="M15072869.993887 9828779.346512 A67353.600000 67353.600000 0.0 0 0 15041879.992567 9836659.986019"/>
<path d="M15028160.305141 9851140.141929 A45857.400000 45857.400000 0.0 0 0 15026130.034894 9884659.988654"/>
<path d="M15136619.444776 10308839.251014 A46865.800000 46865.800000 0.0 0 0 15145510.023537 10300210.018561"/>
<path d="M15131290.954315 10312910.999224 A2460.000000 2460.000000 0.0 0 0 15130530.000000 10314690.000000"/>
<path d="M15142717.718218 9814561.984340 A79803.400000 79803.400000 0.0 0 0 15081759.900296 9787130.031930"/>
<path d="M15081759.984711 9787128.359848 A123377.000000 123377.000000 0.0 0 0 15037560.008895 9795760.022504"/>
<path d="M15041879.648993 9903460.658414 A60583.100000 60583.100000 0.0 0 0 15064739.999996 9910320.000046"/>
<path d="M15130528.403408 9870439.991444 A48519.100000 48519.100000 0.0 0 0 15127990.025048 9854689.991562"/>
<path d="M15057630.191000 9952228.838550 A113513.300000 113513.300000 0.0 0 0 15095980.001452 9951970.008139"/>
<path d="M15104869.244779 10310618.050343 A32749.100000 32749.100000 0.0 0 0 15117829.993653 10301479.994521"/>
<path d="M15026127.702483 9884660.745937 A32774.100000 32774.100000 0.0 0 0 15041880.008392 9903459.984260"/>
<path d="M15124680.183513 10274300.008435 A16988.100000 16988.100000 0.0 0 0 15123670.042627 10267699.984455"/>
<path d="M15027909.051702 9941311.577288 A84152.800000 84152.800000 0.0 0 0 15057629.997546 9952230.014938"/>
<path d="M15117829.056360 10301479.285185 A26224.800000 26224.800000 0.0 0 0 15124180.010191 10285480.000443"/>
<path d="M15124679.986858 10274299.999396 A4466003.000000 4466003.000000 0.0 0 0 15124179.992360 10285479.999668"/>
<path d="M15037559.566353 9795758.902716 A67204.900000 67204.900000 0.0 0 0 14998450.039672 9837170.013112"/>
<path d="M15145511.558210 10300211.228611 A51054.900000 51054.900000 0.0 0 0 15156430.030470 10270740.001278"/>
<path d="M15064740.001467 9910319.984314 A148375.000000 148375.000000 0.0 0 0 15089379.997008 9910569.959081"/>
<path d="M15132810.010791 10311640.014820 A535335.600000 535335.600000 0.0 0 0 15136620.020770 10308840.028002"/>
<path d="M15155932.998975 10250679.722714 A43558.000000 43558.000000 0.0 0 0 15143479.873501 10224010.026293"/>
<path d="M15121378.952645 9844281.091744 A50440.200000 50440.200000 0.0 0 0 15098010.002896 9831579.987687"/>
<path d="M15143479.688640 10224010.308797 A44491.100000 44491.100000 0.0 0 0 15124179.896080 10212580.013639"/>
<path d="M15117828.507099 9899648.176907 A31520.000000 31520.000000 0.0 0 0 15130019.998414 9874759.999999"/>
<path d="M15127991.629236 9854689.450498 A25878.800000 25878.800000 0.0 0 0 15121380.023927 9844279.975044"/>
<path d="M14998450.364666 9837170.120584 A110717.600000 110717.600000 0.0 0 0 14992860.032288 9873229.999621"/>
<path d="M15114021.094654 10256008.175230 A40980.000000 40980.000000 0.0 0 0 15092930.000000 10250170.001220"/>
<path d="M15041880.582222 9836661.095227 A31358.200000 31358.200000 0.0 0 0 15028160.014356 9851140.006668"/>
</g>
<g style="fill-opacity: 1.0;stroke-width: 0.100000;stroke-opacity: 1;stroke-linecap: round;stroke-linejoin: round">
<path style="fill-opacity: 1.0;stroke-width: 0.100000;stroke-opacity: 1;stroke-linecap: round;stroke-linejoin: round;fill-rule: evenodd" d="M 15044670.000000,11282679.600000 15044930.800000,11281437.100000 15065725.100000,11285802.100000 15070146.600000,11288502.200000 15073859.400000,11292028.200000 15083178.700000,11306792.200000 15093154.400000,11340796.200000 15097193.800000,11361013.200000 15104092.400000,11375305.100000 15110671.900000,11379999.500000 15116184.500000,11380544.700000 15121482.600000,11378598.500000 15124119.800000,11376303.000000 15126078.300000,11373295.900000 15127646.600000,11369060.900000 15128490.000000,11364600.900000 15128490.000000,11347605.500000 15126670.300000,11340278.200000 15122962.400000,11333851.600000 15113543.600000,11327325.000000 15107410.000000,11326452.000000 15107410.000000,11285077.000000 15116536.800000,11286052.600000 15129919.800000,11307304.300000 15143277.200000,11353271.800000 15131963.700000,11396652.500000 15099757.000000,11391020.600000 15073286.400000,11346558.900000 15050674.500000,11305053.100000 15019851.500000,11315406.500000 15011218.000000,11353640.500000 15047810.300000,11427612.000000 15041975.900000,11427202.300000 15035974.400000,11426154.100000 15023060.000000,11421761.200000 15014112.300000,11416537.500000 15007090.400000,11408938.700000 14999327.900000,11396775.500000 14993130.200000,11378710.700000 14991879.100000,11365721.700000 14991327.700000,11352752.000000 14993636.700000,11326121.900000 14997892.200000,11312575.000000 15014914.300000,11290282.500000 15033944.000000,11282194.300000 15039364.100000,11281678.300000 15044605.500000,11281411.600000 Z"/> 
<path style="fill-opacity: 1.0;stroke-width: 0.100000;stroke-opacity: 1;stroke-linecap: round;stroke-linejoin: round;fill-rule: evenodd" d="M 14998837.600000,10936789.100000 15011786.500000,10940278.100000 15025164.400000,10941299.700000 15069820.000000,10941042.700000 15069820.000000,10941300.000000 15119100.000000,10941300.000000 15119100.000000,10941492.900000 15128076.600000,10942978.600000 15143962.300000,10955201.000000 15151081.200000,10968587.600000 15155401.500000,10982961.700000 15158043.800000,11009357.000000 15155654.800000,11035765.600000 15152256.900000,11048260.200000 15146869.700000,11060059.200000 15139256.200000,11070322.200000 15129259.400000,11078330.800000 15117554.800000,11083534.100000 15105073.800000,11085563.500000 15104910.600000,11084560.000000 15103860.000000,11084560.000000 15103860.000000,11040870.000000 15105504.100000,11040870.000000 15114081.600000,11039155.100000 15126305.000000,11026792.100000 15128487.400000,11015363.200000 15128342.600000,11008656.700000 15128001.700000,11002020.400000 15124135.400000,10991637.400000 15115893.000000,10985750.000000 15100055.500000,10985750.000000 15099209.700000,10986119.800000 15098349.100000,10986713.900000 15095740.300000,10989555.700000 15093273.700000,10993832.900000 15091615.500000,10998543.300000 15090253.400000,11004979.200000 15089371.600000,11011556.800000 15088270.100000,11022595.200000 15087073.200000,11033734.200000 15079386.600000,11064218.400000 15073200.200000,11074681.200000 15064192.200000,11082829.200000 15055272.400000,11087265.900000 15045577.500000,11089390.000000 15045326.300000,11089390.000000 15013963.200000,11083732.700000 15006575.000000,11078777.400000 15000923.400000,11072042.700000 14994735.600000,11059077.500000 14991581.200000,11045041.700000 14993634.900000,11012141.200000 14999769.000000,10996553.600000 15009798.600000,10983565.400000 15009862.800000,10983427.900000 15009404.600000,10982830.800000 14999423.300000,10980635.100000 14997983.500000,10980259.800000 14996037.900000,10979710.600000 14995140.000000,10977932.500000 14995140.000000,10935411.600000 Z"/> 
<path style="fill-opacity: 1.0;stroke-width: 0.100000;stroke-opacity: 1;stroke-linecap: round;stroke-linejoin: round;fill-rule: evenodd" d="M 15043910.000000,10184890.000000 14995400.000000,10184890.000000 14995400.000000,10135360.000000 15043910.000000,10135360.000000 Z"/> 
<path style="fill-opacity: 1.0;stroke-width: 0.100000;stroke-opacity: 1;stroke-linecap: round;stroke-linejoin: round;fill-rule: evenodd" d="M 15098189.400000,11105516.600000 15127260.300000,11114790.000000 15123080.900000,11114790.000000 15139283.100000,11126299.500000 15145978.300000,11134753.000000 15151517.900000,11143994.900000 15157452.200000,11165425.300000 15157198.300000,11185540.800000 15156129.400000,11190591.900000 15150699.600000,11204049.300000 15145193.900000,11211648.000000 15135444.500000,11220629.600000 15133963.800000,11221958.800000 15154666.800000,11221700.700000 15146822.000000,11263120.000000 14939465.200000,11263120.000000 14899834.300000,11219180.000000 15013668.700000,11219180.000000 14997190.600000,11202012.900000 14993110.000000,11190437.400000 14993110.000000,11190211.100000 14993623.000000,11153424.400000 14998009.600000,11140962.700000 15005056.200000,11129862.200000 15014489.800000,11120566.700000 15053582.700000,11103850.200000 Z"/> 
<path style="fill-opacity: 1.0;stroke-width: 0.100000;stroke-opacity: 1;stroke-linecap: round;stroke-linejoin: round;fill-rule: evenodd" d="M 15374889.400000,10519199.700000 15374884.100000,10519541.400000 15404012.700000,10529989.300000 15426993.800000,10552680.000000 15415181.200000,10552680.000000 15412895.600000,10553308.600000 15406938.900000,10559734.300000 15406618.600000,10560473.600000 15406363.200000,10561286.300000 15406082.400000,10569425.200000 15409263.800000,10576953.100000 15415719.600000,10585893.400000 15423386.900000,10593551.000000 15432882.500000,10598423.500000 15438728.600000,10598874.500000 15454991.400000,10585518.200000 15456920.000000,10575676.700000 15456920.000000,10568430.000000 15459460.000000,10568430.000000 15459460.000000,10569190.600000 15465183.400000,10578804.800000 15465857.600000,10580674.000000 15466687.500000,10582345.100000 15467278.300000,10583512.300000 15467782.900000,10584815.100000 15470020.300000,10593759.800000 15470906.400000,10603092.400000 15463912.000000,10628469.900000 15451510.300000,10643455.800000 15451355.600000,10643610.500000 15440285.500000,10650193.300000 15415523.700000,10647889.300000 15382240.100000,10621268.600000 15374084.400000,10615589.400000 15364665.900000,10614157.000000 15348165.600000,10623938.000000 15344208.400000,10632083.200000 15342374.200000,10641137.100000 15343555.000000,10651706.500000 15348468.500000,10661125.700000 15351717.400000,10664219.500000 15355722.900000,10666269.500000 15362050.000000,10667320.500000 15368267.000000,10666287.800000 15370915.400000,10664308.100000 15376814.100000,10656181.600000 15377724.200000,10654138.400000 15377643.300000,10650581.200000 15380009.900000,10650369.000000 15380962.300000,10656421.600000 15381708.900000,10665970.000000 15380952.200000,10675647.800000 15375748.900000,10689530.500000 15365396.700000,10700359.600000 15341277.000000,10707620.000000 15186109.000000,10707620.000000 15243378.400000,10656727.800000 15257159.200000,10638182.400000 15258404.600000,10634739.900000 15259050.000000,10631059.500000 15259050.000000,10608136.100000 15270101.000000,10568546.900000 15297258.100000,10539730.000000 15295357.800000,10539730.000000 15316484.200000,10527829.200000 15334942.000000,10521474.300000 15354243.500000,10518554.000000 Z"/> 
<path style="fill-opacity: 1.0;stroke-width: 0.100000;stroke-opacity: 1;stroke-linecap: round;stroke-linejoin: round;fill-rule: evenodd" d="M 15057370.000000,10008261.700000 15037179.500000,10015077.900000 15032948.300000,10018589.300000 15029514.500000,10022991.700000 15025832.600000,10031120.500000 15024355.500000,10039932.800000 15024768.400000,10047908.100000 15026547.600000,10055566.600000 15038863.700000,10072227.000000 15048103.600000,10076734.200000 15078904.700000,10081486.500000 15108403.600000,10074319.100000 15120771.200000,10065588.800000 15123649.600000,10062133.800000 15125489.800000,10058039.300000 15127970.000000,10041419.500000 15124512.500000,10025141.900000 15118982.900000,10017379.300000 15110948.000000,10012218.000000 15101448.800000,10010390.000000 15100050.000000,10010390.000000 15100050.000000,9965535.800000 15125561.700000,9972675.200000 15150582.500000,9994715.300000 15156976.900000,10009304.500000 15157225.900000,10009282.400000 15162543.200000,10039061.200000 15158929.100000,10070004.200000 15139794.200000,10101327.000000 15125303.200000,10112974.000000 15108603.900000,10120974.100000 15090528.100000,10124950.000000 15090409.200000,10124950.000000 15065359.500000,10125714.900000 15033558.000000,10117590.600000 15019433.700000,10108640.900000 15000402.800000,10085094.100000 14995179.300000,10070671.400000 14992324.800000,10054853.800000 14991320.400000,10038726.000000 14999824.700000,10003969.100000 15018920.800000,9980591.500000 15031706.200000,9972264.600000 15045880.000000,9966741.700000 15055514.600000,9965440.000000 15057370.000000,9965440.000000 Z"/> 
<path style="fill-opacity: 1.0;stroke-width: 0.100000;stroke-opacity: 1;stroke-linecap: round;stroke-linejoin: round;fill-rule: evenodd" d="M 15122596.700000,11288094.700000 15126670.300000,11289753.200000 15130692.400000,11291756.100000 15139296.500000,11298275.900000 15147049.900000,11308105.800000 15152543.400000,11319309.200000 15156289.900000,11333035.700000 15157699.500000,11347131.500000 15157773.400000,11356215.000000 15157698.500000,11365420.300000 15145351.600000,11406836.700000 15131254.500000,11419080.000000 15130950.900000,11419080.000000 15114456.700000,11423602.800000 15097224.100000,11422890.000000 15096919.600000,11422890.000000 15083179.700000,11415224.300000 15075273.200000,11404448.300000 15070135.400000,11392312.100000 15065325.400000,11374143.900000 15061483.100000,11355916.900000 15053701.800000,11333086.600000 15049438.800000,11327873.600000 15043453.900000,11324881.100000 15036752.800000,11324599.700000 15031129.300000,11326693.400000 15026711.900000,11330647.100000 15020798.400000,11347669.000000 15020748.900000,11354180.000000 15020799.700000,11360860.400000 15021003.300000,11363687.400000 15021511.800000,11366376.200000 15025245.900000,11375039.600000 15031495.600000,11381995.300000 15037900.700000,11385419.800000 15045256.600000,11386310.000000 15046960.000000,11386310.000000 15046960.000000,11431326.600000 15006759.200000,11354999.500000 15016155.700000,11312694.500000 15050616.700000,11301117.800000 15054977.600000,11303304.400000 15102881.200000,11385671.500000 15128620.100000,11390203.700000 15139610.200000,11353810.400000 15126334.100000,11312226.500000 15111421.100000,11292081.600000 15116101.400000,11285731.700000 Z"/> 
<path style="fill-opacity: 1.0;stroke-width: 0.100000;stroke-opacity: 1;stroke-linecap: round;stroke-linejoin: round;fill-rule: evenodd" d="M 15212570.000000,10539948.300000 15212899.500000,10546516.500000 15213330.000000,10553148.800000 15213330.000000,10568819.700000 15210505.900000,10582506.600000 15204203.900000,10595023.300000 15194803.700000,10605540.100000 15178612.000000,10613116.800000 15156992.600000,10614910.000000 15153640.000000,10614910.000000 15153640.000000,10627886.100000 15124449.100000,10657077.000000 15124187.900000,10615420.000000 14994130.000000,10615420.000000 14994130.000000,10571230.000000 15124430.000000,10571230.000000 15124430.000000,10541250.000000 15153640.000000,10541250.000000 15153640.000000,10570970.000000 15166253.600000,10570970.000000 15170870.200000,10570340.800000 15174916.400000,10568666.400000 15180060.000000,10561424.900000 15180060.000000,10543349.200000 15179800.000000,10540548.800000 15179800.000000,10538460.000000 15212570.000000,10538460.000000 Z"/> 
<path style="fill-opacity: 1.0;stroke-width: 0.100000;stroke-opacity: 1;stroke-linecap: round;stroke-linejoin: round;fill-rule: evenodd" d="M 15143553.600000,9534115.000000 15158918.200000,9557561.900000 15162540.400000,9583405.600000 15160937.000000,9597076.000000 15155512.300000,9609698.300000 15148998.800000,9618774.400000 15141324.700000,9626741.800000 15136495.400000,9631320.600000 15136055.500000,9631760.500000 15145181.600000,9637429.800000 15153538.800000,9646231.600000 15158923.000000,9655993.100000 15159259.600000,9655963.800000 15162786.700000,9676057.800000 15162356.300000,9683127.100000 15161494.900000,9690049.700000 15160408.000000,9695644.500000 15158898.700000,9701202.100000 15154746.700000,9710333.700000 15148480.500000,9718137.100000 15140500.000000,9725864.100000 15136488.900000,9728928.100000 15136423.900000,9729220.000000 15158210.000000,9729220.000000 15158210.000000,9771630.000000 14995140.000000,9771630.000000 14995140.000000,9725910.000000 15094320.800000,9725910.000000 15112192.100000,9721942.900000 15116944.300000,9718203.600000 15121420.300000,9713919.800000 15125120.000000,9708357.000000 15126729.800000,9701845.500000 15126996.300000,9697653.900000 15127214.000000,9693481.100000 15125524.300000,9684148.100000 15120068.900000,9676676.600000 15101590.800000,9669780.000000 14994890.000000,9669780.000000 14994890.000000,9624060.000000 15091386.700000,9624060.000000 15096924.400000,9623853.100000 15102350.800000,9623317.400000 15111830.100000,9620598.600000 15119916.100000,9615296.700000 15126243.600000,9604106.300000 15127151.300000,9595223.800000 15126478.900000,9586258.600000 15122910.300000,9577663.000000 15115958.700000,9571629.800000 15098875.800000,9567420.000000 14994890.000000,9567420.000000 14994890.000000,9522460.000000 15112208.500000,9522460.000000 Z"/> 
<path style="fill-opacity: 1.0;stroke-width: 0.100000;stroke-opacity: 1;stroke-linecap: round;stroke-linejoin: round;fill-rule: evenodd" d="M 15153640.000000,10424160.000000 15069388.400000,10424160.000000 15045206.600000,10427153.300000 15027800.800000,10442107.100000 15025047.400000,10456049.700000 15028083.400000,10470149.200000 15031728.500000,10475853.100000 15036907.400000,10480171.200000 15052990.900000,10485120.000000 15154150.000000,10485120.000000 15154150.000000,10529060.000000 15044852.300000,10529060.000000 15030019.900000,10527240.000000 15015994.200000,10521860.900000 15003720.600000,10513276.700000 15002385.600000,10511940.600000 15000990.000000,10510207.800000 15000990.000000,10510070.500000 14993835.800000,10496318.100000 14990819.600000,10480617.000000 14993386.100000,10450587.000000 14994261.300000,10447733.100000 14995587.400000,10445075.200000 15006106.500000,10431297.400000 15016881.300000,10422130.000000 14994890.000000,10422130.000000 14994890.000000,10379460.000000 15153640.000000,10379460.000000 Z"/> 
<path style="fill-opacity: 1.0;stroke-width: 0.100000;stroke-opacity: 1;stroke-linecap: round;stroke-linejoin: round;fill-rule: evenodd" d="M 15095558.300000,10707759.100000 15153390.000000,10648625.000000 15153390.000000,10699006.100000 15098286.000000,10754110.000000 15214756.700000,10754110.000000 15189687.600000,10798050.000000 14995123.900000,10798050.000000 14993870.000000,10796796.100000 14993870.000000,10753600.000000 15049213.200000,10753600.000000 15065281.600000,10737064.200000 14994893.500000,10694367.100000 14994628.300000,10640469.100000 Z"/> 
<path style="fill-opacity: 1.0;stroke-width: 0.100000;stroke-opacity: 1;stroke-linecap: round;stroke-linejoin: round;fill-rule: evenodd" d="M 15124612.400000,10211360.100000 15144464.800000,10223117.200000 15157193.000000,10250383.200000 15157703.200000,10270850.700000 15154499.600000,10286782.800000 15146548.100000,10300955.200000 15142237.900000,10305733.300000 15137409.200000,10309835.900000 15135470.200000,10311267.600000 15133593.400000,10312640.500000 15132236.300000,10313774.300000 15131955.400000,10314180.000000 15153890.000000,10314180.000000 15153890.000000,10357100.000000 14994130.000000,10357100.000000 14994130.000000,10312400.000000 15088998.300000,10312400.000000 15104360.800000,10309425.000000 15116789.100000,10300660.000000 15122920.600000,10285210.500000 15123157.800000,10279833.100000 15123405.600000,10274368.000000 15122450.300000,10268125.500000 15118856.400000,10261845.900000 15113407.100000,10257158.000000 15092757.400000,10251440.000000 14995140.000000,10251440.000000 14995140.000000,10208010.000000 15101913.200000,10208010.000000 Z"/> 
<path style="fill-opacity: 1.0;stroke-width: 0.100000;stroke-opacity: 1;stroke-linecap: round;stroke-linejoin: round;fill-rule: evenodd" d="M 15157461.500000,10829461.600000 15150732.300000,10849659.200000 15144726.200000,10858786.400000 15137695.400000,10866084.200000 15132362.400000,10869575.900000 15127163.700000,10873017.200000 15124480.400000,10874803.100000 15124331.100000,10875260.000000 15153635.500000,10875260.000000 15146324.600000,10916408.100000 14995140.000000,10916672.200000 14995140.000000,10872470.000000 15074546.200000,10872470.000000 15091252.300000,10869729.800000 15102775.100000,10863695.800000 15111639.700000,10854266.900000 15117069.000000,10838699.100000 15117384.000000,10831195.000000 15117063.800000,10823567.800000 15116634.700000,10820621.300000 15115831.100000,10817670.700000 15115615.400000,10816807.000000 15115540.000000,10815881.700000 15115540.000000,10814300.000000 15156621.600000,10814300.000000 Z"/> 
<path style="fill-opacity: 1.0;stroke-width: 0.100000;stroke-opacity: 1;stroke-linecap: round;stroke-linejoin: round;fill-rule: evenodd" d="M 15103696.400000,9790214.000000 15127406.800000,9800775.600000 15140371.600000,9811923.300000 15154274.000000,9832011.400000 15159963.500000,9848560.800000 15162697.800000,9870166.000000 15130270.000000,9870711.500000 15130270.000000,9868463.000000 15129286.200000,9856588.900000 15124155.700000,9847067.600000 15116063.100000,9838724.000000 15099943.900000,9831284.400000 15080658.100000,9828780.000000 15066411.700000,9828780.000000 15050932.900000,9832526.800000 15038831.700000,9837960.200000 15029028.100000,9848748.100000 15023106.700000,9866250.000000 15025325.600000,9883729.800000 15035410.000000,9900207.700000 15045675.200000,9905585.600000 15057157.100000,9909327.800000 15069641.600000,9911077.600000 15088225.300000,9910573.200000 15102970.400000,9907828.800000 15111851.600000,9903874.000000 15122695.100000,9895998.400000 15129043.800000,9884513.100000 15130692.000000,9872470.000000 15161874.900000,9872470.000000 15162780.000000,9874769.000000 15162780.000000,9875596.000000 15160974.800000,9890618.800000 15143980.000000,9924851.700000 15116350.500000,9946544.600000 15080274.700000,9954792.600000 15040908.500000,9948613.100000 15015553.900000,9932314.400000 14997478.200000,9903391.300000 14993361.300000,9873001.700000 14995931.100000,9847556.900000 15002387.300000,9828706.800000 15010416.700000,9817310.600000 15022021.400000,9805188.100000 15035261.300000,9796876.100000 15060172.300000,9789940.700000 15081504.800000,9787370.200000 Z"/> 
</g> 
</g><g id="substrate-outline" style="fill:#000000; stroke:#000000; stroke-width: 15000.0"><g style="fill-opacity: 0.0;stroke-opacity: 1;stroke-linecap: round;stroke-linejoin: round">
<path d="M15993110 8214360 L15993110 12786360 "/>
<path d="M13707110 8214360 L15993110 8214360 "/>
<path d="M13707110 12786360 L13707110 8214360 "/>
<path d="M15993110 12786360 L13707110 12786360 "/>
</g> 
<path d="M -165100.0 0.0 A 165100.0 165100.0 0 1 1 165100.0 0.0 L 165100.0 -0.0 A 165100.0 165100.0 0 1 1 -165100.0 -0.0 Z" transform="translate(15739110.0 12532360.0) rotate(-0.0)"/><path d="M -165100.0 0.0 A 165100.0 165100.0 0 1 1 165100.0 0.0 L 165100.0 -0.0 A 165100.0 165100.0 0 1 1 -165100.0 -0.0 Z" transform="translate(13961110.0 8468360.0) rotate(-0.0)"/><path d="M -165100.0 0.0 A 165100.0 165100.0 0 1 1 165100.0 0.0 L 165100.0 -0.0 A 165100.0 165100.0 0 1 1 -165100.0 -0.0 Z" transform="translate(15739110.0 8468360.0) rotate(-0.0)"/><path d="M -106680.0 0.0 A 106680.0 106680.0 0 1 1 106680.0 0.0 L 106680.0 -0.0 A 106680.0 106680.0 0 1 1 -106680.0 -0.0 Z" transform="translate(14425110.0 12588360.0) rotate(-90.0)"/><path d="M -106680.0 0.0 A 106680.0 106680.0 0 1 1 106680.0 0.0 L 106680.0 -0.0 A 106680.0 106680.0 0 1 1 -106680.0 -0.0 Z" transform="translate(15275110.0 12588360.0) rotate(-90.0)"/><path d="M -115000.0 0.0 A 115000.0 115000.0 0 1 1 115000.0 0.0 L 115000.0 -0.0 A 115000.0 115000.0 0 1 1 -115000.0 -0.0 Z" transform="translate(14850110.0 12258040.0) rotate(-90.0)"/><path d="M -115000.0 0.0 A 115000.0 115000.0 0 1 1 115000.0 0.0 L 115000.0 -0.0 A 115000.0 115000.0 0 1 1 -115000.0 -0.0 Z" transform="translate(14469950.0 11875340.0) rotate(-90.0)"/><path d="M -115000.0 0.0 A 115000.0 115000.0 0 1 1 115000.0 0.0 L 115000.0 -0.0 A 115000.0 115000.0 0 1 1 -115000.0 -0.0 Z" transform="translate(15232810.0 11875340.0) rotate(-90.0)"/><path d="M -106680.0 0.0 A 106680.0 106680.0 0 1 1 106680.0 0.0 L 106680.0 -0.0 A 106680.0 106680.0 0 1 1 -106680.0 -0.0 Z" transform="translate(15275110.0 8412360.0) rotate(-270.0)"/><path d="M -106680.0 0.0 A 106680.0 106680.0 0 1 1 106680.0 0.0 L 106680.0 -0.0 A 106680.0 106680.0 0 1 1 -106680.0 -0.0 Z" transform="translate(14425110.0 8412360.0) rotate(-270.0)"/><path d="M -115000.0 0.0 A 115000.0 115000.0 0 1 1 115000.0 0.0 L 115000.0 -0.0 A 115000.0 115000.0 0 1 1 -115000.0 -0.0 Z" transform="translate(14850110.0 8742680.0) rotate(-270.0)"/><path d="M -115000.0 0.0 A 115000.0 115000.0 0 1 1 115000.0 0.0 L 115000.0 -0.0 A 115000.0 115000.0 0 1 1 -115000.0 -0.0 Z" transform="translate(15230270.0 9125380.0) rotate(-270.0)"/><path d="M -115000.0 0.0 A 115000.0 115000.0 0 1 1 115000.0 0.0 L 115000.0 -0.0 A 115000.0 115000.0 0 1 1 -115000.0 -0.0 Z" transform="translate(14467410.0 9125380.0) rotate(-270.0)"/><path d="M -165100.0 0.0 A 165100.0 165100.0 0 1 1 165100.0 0.0 L 165100.0 -0.0 A 165100.0 165100.0 0 1 1 -165100.0 -0.0 Z" transform="translate(13961110.0 12532360.0) rotate(-0.0)"/><path d="M -50800.0 0.0 A 50800.0 50800.0 0 1 1 50800.0 0.0 L 50800.0 -0.0 A 50800.0 50800.0 0 1 1 -50800.0 -0.0 Z" transform="translate(13834110.0 9230360.0) rotate(-0.0)"/><path d="M -50800.0 0.0 A 50800.0 50800.0 0 1 1 50800.0 0.0 L 50800.0 -0.0 A 50800.0 50800.0 0 1 1 -50800.0 -0.0 Z" transform="translate(13834110.0 9484360.0) rotate(-0.0)"/><path d="M -50800.0 0.0 A 50800.0 50800.0 0 1 1 50800.0 0.0 L 50800.0 -0.0 A 50800.0 50800.0 0 1 1 -50800.0 -0.0 Z" transform="translate(13834110.0 9738360.0) rotate(-0.0)"/><path d="M -50800.0 0.0 A 50800.0 50800.0 0 1 1 50800.0 0.0 L 50800.0 -0.0 A 50800.0 50800.0 0 1 1 -50800.0 -0.0 Z" transform="translate(13834110.0 9992360.0) rotate(-0.0)"/><path d="M -50800.0 0.0 A 50800.0 50800.0 0 1 1 50800.0 0.0 L 50800.0 -0.0 A 50800.0 50800.0 0 1 1 -50800.0 -0.0 Z" transform="translate(13834110.0 10246360.0) rotate(-0.0)"/><path d="M -50800.0 0.0 A 50800.0 50800.0 0 1 1 50800.0 0.0 L 50800.0 -0.0 A 50800.0 50800.0 0 1 1 -50800.0 -0.0 Z" transform="translate(13834110.0 10500360.0) rotate(-0.0)"/><path d="M -50800.0 0.0 A 50800.0 50800.0 0 1 1 50800.0 0.0 L 50800.0 -0.0 A 50800.0 50800.0 0 1 1 -50800.0 -0.0 Z" transform="translate(13834110.0 10754360.0) rotate(-0.0)"/><path d="M -50800.0 0.0 A 50800.0 50800.0 0 1 1 50800.0 0.0 L 50800.0 -0.0 A 50800.0 50800.0 0 1 1 -50800.0 -0.0 Z" transform="translate(13834110.0 11008360.0) rotate(-0.0)"/><path d="M -50800.0 0.0 A 50800.0 50800.0 0 1 1 50800.0 0.0 L 50800.0 -0.0 A 50800.0 50800.0 0 1 1 -50800.0 -0.0 Z" transform="translate(13834110.0 11262360.0) rotate(-0.0)"/><path d="M -50800.0 0.0 A 50800.0 50800.0 0 1 1 50800.0 0.0 L 50800.0 -0.0 A 50800.0 50800.0 0 1 1 -50800.0 -0.0 Z" transform="translate(13834110.0 11516360.0) rotate(-0.0)"/><path d="M -50800.0 0.0 A 50800.0 50800.0 0 1 1 50800.0 0.0 L 50800.0 -0.0 A 50800.0 50800.0 0 1 1 -50800.0 -0.0 Z" transform="translate(13834110.0 11770360.0) rotate(-0.0)"/><path d="M -25400.0 0.0 A 25400.0 25400.0 0 1 1 25400.0 0.0 L 25400.0 -0.0 A 25400.0 25400.0 0 1 1 -25400.0 -0.0 Z" transform="translate(14342110.0 10627360.0) rotate(0.0)"/><path d="M -25400.0 0.0 A 25400.0 25400.0 0 1 1 25400.0 0.0 L 25400.0 -0.0 A 25400.0 25400.0 0 1 1 -25400.0 -0.0 Z" transform="translate(15231110.0 11122660.0) rotate(0.0)"/><path d="M -25400.0 0.0 A 25400.0 25400.0 0 1 1 25400.0 0.0 L 25400.0 -0.0 A 25400.0 25400.0 0 1 1 -25400.0 -0.0 Z" transform="translate(15866110.0 10652760.0) rotate(0.0)"/><path d="M -25400.0 0.0 A 25400.0 25400.0 0 1 1 25400.0 0.0 L 25400.0 -0.0 A 25400.0 25400.0 0 1 1 -25400.0 -0.0 Z" transform="translate(14278610.0 11135360.0) rotate(0.0)"/><path d="M -25400.0 0.0 A 25400.0 25400.0 0 1 1 25400.0 0.0 L 25400.0 -0.0 A 25400.0 25400.0 0 1 1 -25400.0 -0.0 Z" transform="translate(15205710.0 10551160.0) rotate(0.0)"/><path d="M -25400.0 0.0 A 25400.0 25400.0 0 1 1 25400.0 0.0 L 25400.0 -0.0 A 25400.0 25400.0 0 1 1 -25400.0 -0.0 Z" transform="translate(15358110.0 10881360.0) rotate(0.0)"/><path d="M -25400.0 0.0 A 25400.0 25400.0 0 1 1 25400.0 0.0 L 25400.0 -0.0 A 25400.0 25400.0 0 1 1 -25400.0 -0.0 Z" transform="translate(15091410.0 11186160.0) rotate(0.0)"/><path d="M -25400.0 0.0 A 25400.0 25400.0 0 1 1 25400.0 0.0 L 25400.0 -0.0 A 25400.0 25400.0 0 1 1 -25400.0 -0.0 Z" transform="translate(15091410.0 10881360.0) rotate(0.0)"/><path d="M -25400.0 0.0 A 25400.0 25400.0 0 1 1 25400.0 0.0 L 25400.0 -0.0 A 25400.0 25400.0 0 1 1 -25400.0 -0.0 Z" transform="translate(15586710.0 11414760.0) rotate(0.0)"/><path d="M -25400.0 0.0 A 25400.0 25400.0 0 1 1 25400.0 0.0 L 25400.0 -0.0 A 25400.0 25400.0 0 1 1 -25400.0 -0.0 Z" transform="translate(15726410.0 10805160.0) rotate(0.0)"/><path d="M -25400.0 0.0 A 25400.0 25400.0 0 1 1 25400.0 0.0 L 25400.0 -0.0 A 25400.0 25400.0 0 1 1 -25400.0 -0.0 Z" transform="translate(15078710.0 10741660.0) rotate(0.0)"/><path d="M -25400.0 0.0 A 25400.0 25400.0 0 1 1 25400.0 0.0 L 25400.0 -0.0 A 25400.0 25400.0 0 1 1 -25400.0 -0.0 Z" transform="translate(15129510.0 11021060.0) rotate(0.0)"/></g></g></g></svg>