<!DOCTYPE svg PUBLIC "-//W3C//DTD SVG 1.1//EN" "http://www.w3.org/Graphics/SVG/1.1/DTD/svg11.dtd">
<svg xmlns="http://www.w3.org/2000/svg" version="1.1" width="15.97mm" height="12.16mm" viewBox="-15648610.0 9892360.0 1597000.0 1216000.0">
            <title>Picture generated by PcbDraw </title>
            <desc>Picture generated by PcbDraw</desc>
        <defs><clipPath id="cut-off"><path d=" M 15548610.0 11008360.0 L 15548610.0 9992360.0 L 14151610.0 9992360.0 L 14151610.0 11008360.0 L 15548610.0 11008360.0 " style="fill-rule: evenodd;"/></clipPath><mask id="pads-mask"><g style="fill:#ffffff; fill-opacity:0.0;  stroke:#ffffff; stroke-width:0.000000; stroke-opacity:1;  stroke-linecap:round; stroke-linejoin:round;">
<g style="fill:#ffffff; fill-opacity:1.0;  stroke:#ffffff; stroke-width:0.100000; stroke-opacity:1;  stroke-linecap:round; stroke-linejoin:round;">
<circle cx="14405610.000000" cy="10627360.000000" r="45000.000000"/> 
</g>
<g style="fill:#ffffff; fill-opacity:1.0;  stroke:#ffffff; stroke-width:0.100000; stroke-opacity:1;  stroke-linecap:round; stroke-linejoin:round;">
<circle cx="15421610.000000" cy="10754360.000000" r="100330.000000"/> 
</g>
<g style="fill:#ffffff; fill-opacity:1.0;  stroke:#ffffff; stroke-width:0.100000; stroke-opacity:1;  stroke-linecap:round; stroke-linejoin:round;">
<circle cx="15421610.000000" cy="10500360.000000" r="100330.000000"/> 
</g>
<g style="fill:#ffffff; fill-opacity:1.0;  stroke:#ffffff; stroke-width:0.100000; stroke-opacity:1;  stroke-linecap:round; stroke-linejoin:round;">
<circle cx="15421610.000000" cy="10246360.000000" r="100330.000000"/> 
</g>
<g style="fill:#ffffff; fill-opacity:1.0;  stroke:#ffffff; stroke-width:0.100000; stroke-opacity:1;  stroke-linecap:round; stroke-linejoin:round;">
<path style="fill:#ffffff; fill-opacity:1.0;  stroke:#ffffff; stroke-width:0.100000; stroke-opacity:1;  stroke-linecap:round; stroke-linejoin:round;fill-rule:evenodd;" d="M 14250670.000000,10944860.000000 14249082.100000,10955744.700000 14243587.800000,10966984.800000 14234748.900000,10975839.100000 14223518.400000,10981353.000000 14212570.000000,10982960.000000 14201685.300000,10981372.100000 14190445.200000,10975877.800000 14181590.900000,10967038.900000 14176077.000000,10955808.400000 14174470.000000,10944860.000000 14176057.900000,10933975.300000 14181552.200000,10922735.200000 14190391.100000,10913880.900000 14201621.600000,10908367.000000 14212570.000000,10906760.000000 14223454.700000,10908347.900000 14234694.800000,10913842.200000 14243549.100000,10922681.100000 14249063.000000,10933911.600000 14250670.000000,10944860.000000 Z"/> 
</g>
<g style="fill:#ffffff; fill-opacity:1.0;  stroke:#ffffff; stroke-width:0.100000; stroke-opacity:1;  stroke-linecap:round; stroke-linejoin:round;">
<path style="fill:#ffffff; fill-opacity:1.0;  stroke:#ffffff; stroke-width:0.100000; stroke-opacity:1;  stroke-linecap:round; stroke-linejoin:round;fill-rule:evenodd;" d="M 15525750.000000,10053320.000000 15524162.100000,10064204.700000 15518667.800000,10075444.800000 15509828.900000,10084299.100000 15498598.400000,10089813.000000 15487650.000000,10091420.000000 15476765.300000,10089832.100000 15465525.200000,10084337.800000 15456670.900000,10075498.900000 15451157.000000,10064268.400000 15449550.000000,10053320.000000 15451137.900000,10042435.300000 15456632.200000,10031195.200000 15465471.100000,10022340.900000 15476701.600000,10016827.000000 15487650.000000,10015220.000000 15498534.700000,10016807.900000 15509774.800000,10022302.200000 15518629.100000,10031141.100000 15524143.000000,10042371.600000 15525750.000000,10053320.000000 Z"/> 
</g>
</g> 
</mask><mask id="pads-mask-silkscreen"><rect x="10214610.0" y="9839756.8" width="10327301.3" height="2577604.7" fill="white"/><g style="fill:#000000; fill-opacity:0.0;  stroke:#000000; stroke-width:0.000000; stroke-opacity:1;  stroke-linecap:round; stroke-linejoin:round;">
<g style="fill:#000000; fill-opacity:1.0;  stroke:#000000; stroke-width:0.100000; stroke-opacity:1;  stroke-linecap:round; stroke-linejoin:round;">
<circle cx="14405610.000000" cy="10627360.000000" r="45000.000000"/> 
</g>
<g style="fill:#000000; fill-opacity:1.0;  stroke:#000000; stroke-width:0.100000; stroke-opacity:1;  stroke-linecap:round; stroke-linejoin:round;">
<circle cx="15421610.000000" cy="10754360.000000" r="100330.000000"/> 
</g>
<g style="fill:#000000; fill-opacity:1.0;  stroke:#000000; stroke-width:0.100000; stroke-opacity:1;  stroke-linecap:round; stroke-linejoin:round;">
<circle cx="15421610.000000" cy="10500360.000000" r="100330.000000"/> 
</g>
<g style="fill:#000000; fill-opacity:1.0;  stroke:#000000; stroke-width:0.100000; stroke-opacity:1;  stroke-linecap:round; stroke-linejoin:round;">
<circle cx="15421610.000000" cy="10246360.000000" r="100330.000000"/> 
</g>
<g style="fill:#000000; fill-opacity:1.0;  stroke:#000000; stroke-width:0.100000; stroke-opacity:1;  stroke-linecap:round; stroke-linejoin:round;">
<path style="fill:#000000; fill-opacity:1.0;  stroke:#000000; stroke-width:0.100000; stroke-opacity:1;  stroke-linecap:round; stroke-linejoin:round;fill-rule:evenodd;" d="M 14250670.000000,10944860.000000 14249082.100000,10955744.700000 14243587.800000,10966984.800000 14234748.900000,10975839.100000 14223518.400000,10981353.000000 14212570.000000,10982960.000000 14201685.300000,10981372.100000 14190445.200000,10975877.800000 14181590.900000,10967038.900000 14176077.000000,10955808.400000 14174470.000000,10944860.000000 14176057.900000,10933975.300000 14181552.200000,10922735.200000 14190391.100000,10913880.900000 14201621.600000,10908367.000000 14212570.000000,10906760.000000 14223454.700000,10908347.900000 14234694.800000,10913842.200000 14243549.100000,10922681.100000 14249063.000000,10933911.600000 14250670.000000,10944860.000000 Z"/> 
</g>
<g style="fill:#000000; fill-opacity:1.0;  stroke:#000000; stroke-width:0.100000; stroke-opacity:1;  stroke-linecap:round; stroke-linejoin:round;">
<path style="fill:#000000; fill-opacity:1.0;  stroke:#000000; stroke-width:0.100000; stroke-opacity:1;  stroke-linecap:round; stroke-linejoin:round;fill-rule:evenodd;" d="M 15525750.000000,10053320.000000 15524162.100000,10064204.700000 15518667.800000,10075444.800000 15509828.900000,10084299.100000 15498598.400000,10089813.000000 15487650.000000,10091420.000000 15476765.300000,10089832.100000 15465525.200000,10084337.800000 15456670.900000,10075498.900000 15451157.000000,10064268.400000 15449550.000000,10053320.000000 15451137.900000,10042435.300000 15456632.200000,10031195.200000 15465471.100000,10022340.900000 15476701.600000,10016827.000000 15487650.000000,10015220.000000 15498534.700000,10016807.900000 15509774.800000,10022302.200000 15518629.100000,10031141.100000 15524143.000000,10042371.600000 15525750.000000,10053320.000000 Z"/> 
</g>
</g> 
</mask><mask id="hole-mask"><g><rect x="10214610.0" y="9839756.8" fill="white" width="10327301.3" height="2577604.7"/><polyline stroke-linecap="round" stroke="black" stroke-width="90000.0" points="-0.0 0 0.0 0" transform="translate(14405610.0 10627360.0) rotate(-0.0)"/><polyline stroke-linecap="round" stroke="black" stroke-width="101600.0" points="-0.0 0 0.0 0" transform="translate(15421610.0 10754360.0) rotate(-180.0)"/><polyline stroke-linecap="round" stroke="black" stroke-width="101600.0" points="-0.0 0 0.0 0" transform="translate(15421610.0 10500360.0) rotate(-180.0)"/><polyline stroke-linecap="round" stroke="black" stroke-width="101600.0" points="-0.0 0 0.0 0" transform="translate(15421610.0 10246360.0) rotate(-180.0)"/><polyline stroke-linecap="round" stroke="black" stroke-width="38100.0" points="-0.0 0 0.0 0" transform="translate(14405610.0 10246360.0) rotate(-180.0)"/><polyline stroke-linecap="round" stroke="black" stroke-width="38100.0" points="-0.0 0 0.0 0" transform="translate(15485110.0 10947400.0) rotate(0.0)"/><polyline stroke-linecap="round" stroke="black" stroke-width="38100.0" points="-0.0 0 0.0 0" transform="translate(15406370.0 10053320.0) rotate(0.0)"/><polyline stroke-linecap="round" stroke="black" stroke-width="38100.0" points="-0.0 0 0.0 0" transform="translate(14530324.0 10317734.1) rotate(0.0)"/><polyline stroke-linecap="round" stroke="black" stroke-width="38100.0" points="-0.0 0 0.0 0" transform="translate(14220190.0 10228580.0) rotate(0.0)"/><polyline stroke-linecap="round" stroke="black" stroke-width="38100.0" points="-0.0 0 0.0 0" transform="translate(15050770.0 10845800.0) rotate(0.0)"/><polyline stroke-linecap="round" stroke="black" stroke-width="38100.0" points="-0.0 0 0.0 0" transform="translate(15099030.0 10617200.0) rotate(0.0)"/><polyline stroke-linecap="round" stroke="black" stroke-width="38100.0" points="-0.0 0 0.0 0" transform="translate(14697710.0 10538460.0) rotate(0.0)"/><polyline stroke-linecap="round" stroke="black" stroke-width="38100.0" points="-0.0 0 0.0 0" transform="translate(14845030.0 10487660.0) rotate(0.0)"/><polyline stroke-linecap="round" stroke="black" stroke-width="38100.0" points="-0.0 0 0.0 0" transform="translate(14608810.0 10769600.0) rotate(0.0)"/></g></mask></defs><g transform="scale(-1,1)" id="boardContainer"><g id="substrate" clip-path="url(#cut-off)" mask="url(#hole-mask)"><g id="substrate-board" style="fill:#4ca06c; stroke:#4ca06c;"><path d=" M 15548610.0 11008360.0 L 15548610.0 9992360.0 L 14151610.0 9992360.0 L 14151610.0 11008360.0 L 15548610.0 11008360.0 " style="fill-rule: evenodd;"/><g style="fill-opacity: 0.0;stroke-width: 20320.000000;stroke-opacity: 1;stroke-linecap: round;stroke-linejoin: round">
<path d="M14151610 11008360 L15548610 11008360 "/>
<path d="M15548610 11008360 L15548610 9992360 "/>
<path d="M14151610 9992360 L14151610 11008360 "/>
<path d="M15548610 9992360 L14151610 9992360 "/>
</g> 
</g><g id="substrate-clad" style="fill:#9c6b28; stroke:#9c6b28;"><g style="fill-opacity: 0.0;stroke-width: 0.000000;stroke-opacity: 1;stroke-linecap: round;stroke-linejoin: round">
<g style="fill-opacity: 1.0;stroke-width: 0.100000;stroke-opacity: 1;stroke-linecap: round;stroke-linejoin: round">
<circle cx="14405610.000000" cy="10627360.000000" r="45000.000000"/> 
</g>
<g style="fill-opacity: 1.0;stroke-width: 0.100000;stroke-opacity: 1;stroke-linecap: round;stroke-linejoin: round">
<circle cx="15421610.000000" cy="10754360.000000" r="100330.000000"/> 
</g>
<g style="fill-opacity: 1.0;stroke-width: 0.100000;stroke-opacity: 1;stroke-linecap: round;stroke-linejoin: round">
<circle cx="15421610.000000" cy="10500360.000000" r="100330.000000"/> 
</g>
<g style="fill-opacity: 1.0;stroke-width: 0.100000;stroke-opacity: 1;stroke-linecap: round;stroke-linejoin: round">
<circle cx="15421610.000000" cy="10246360.000000" r="100330.000000"/> 
</g>
<g style="fill-opacity: 1.0;stroke-width: 0.100000;stroke-opacity: 1;stroke-linecap: round;stroke-linejoin: round">
<path style="fill-opacity: 1.0;stroke-width: 0.100000;stroke-opacity: 1;stroke-linecap: round;stroke-linejoin: round;fill-rule: evenodd" d="M 14250670.000000,10944860.000000 14249082.100000,10955744.700000 14243587.800000,10966984.800000 14234748.900000,10975839.100000 14223518.400000,10981353.000000 14212570.000000,10982960.000000 14201685.300000,10981372.100000 14190445.200000,10975877.800000 14181590.900000,10967038.900000 14176077.000000,10955808.400000 14174470.000000,10944860.000000 14176057.900000,10933975.300000 14181552.200000,10922735.200000 14190391.100000,10913880.900000 14201621.600000,10908367.000000 14212570.000000,10906760.000000 14223454.700000,10908347.900000 14234694.800000,10913842.200000 14243549.100000,10922681.100000 14249063.000000,10933911.600000 14250670.000000,10944860.000000 Z"/> 
</g>
<g style="fill-opacity: 1.0;stroke-width: 0.100000;stroke-opacity: 1;stroke-linecap: round;stroke-linejoin: round">
<path style="fill-opacity: 1.0;stroke-width: 0.100000;stroke-opacity: 1;stroke-linecap: round;stroke-linejoin: round;fill-rule: evenodd" d="M 15525750.000000,10053320.000000 15524162.100000,10064204.700000 15518667.800000,10075444.800000 15509828.900000,10084299.100000 15498598.400000,10089813.000000 15487650.000000,10091420.000000 15476765.300000,10089832.100000 15465525.200000,10084337.800000 15456670.900000,10075498.900000 15451157.000000,10064268.400000 15449550.000000,10053320.000000 15451137.900000,10042435.300000 15456632.200000,10031195.200000 15465471.100000,10022340.900000 15476701.600000,10016827.000000 15487650.000000,10015220.000000 15498534.700000,10016807.900000 15509774.800000,10022302.200000 15518629.100000,10031141.100000 15524143.000000,10042371.600000 15525750.000000,10053320.000000 Z"/> 
</g>
</g> 
</g><g id="substrate-copper" style="fill:#417e5a; stroke:#417e5a;"><g style="fill-opacity: 0.0;stroke-width: 16256.000000;stroke-opacity: 1;stroke-linecap: round;stroke-linejoin: round">
<g transform="rotate(90.000000 14177010.000000 10500360.000000)">
<text x="14177010.000000" y="10500360.000000" transform="scale(-1 1) translate(-28354020.000000 0)" textLength="173397.200000" font-size="86698.600000" lengthAdjust="spacingAndGlyphs" text-anchor="middle" opacity="0">v10</text>
</g>
<g class="stroked-text"><desc>v10</desc>
<path d="M14223455 10577769 L14180106 10562287 L14223455 10546805 "/>
<path d="M14180106 10487974 L14180106 10525131 "/>
<path d="M14180106 10506552 L14245130 10506552 L14235841 10512745 L14229648 10518938 L14226552 10525131 "/>
<path d="M14245130 10447721 L14245130 10441528 L14242034 10435336 L14238937 10432239 L14232744 10429143 L14220359 10426046 L14204877 10426046 L14192491 10429143 L14186299 10432239 L14183202 10435336 L14180106 10441528 L14180106 10447721 L14183202 10453914 L14186299 10457010 L14192491 10460107 L14204877 10463203 L14220359 10463203 L14232744 10460107 L14238937 10457010 L14242034 10453914 L14245130 10447721 "/>
</g><g style="fill-opacity: 1.0;stroke-width: 0.100000;stroke-opacity: 1;stroke-linecap: round;stroke-linejoin: round">
<circle cx="15421610.000000" cy="10754360.000000" r="93980.000000"/> 
</g>
<g style="fill-opacity: 1.0;stroke-width: 0.100000;stroke-opacity: 1;stroke-linecap: round;stroke-linejoin: round">
<circle cx="15421610.000000" cy="10500360.000000" r="93980.000000"/> 
</g>
<g style="fill-opacity: 1.0;stroke-width: 0.100000;stroke-opacity: 1;stroke-linecap: round;stroke-linejoin: round">
<circle cx="15421610.000000" cy="10246360.000000" r="93980.000000"/> 
</g>
<g style="fill-opacity: 1.0;stroke-width: 0.100000;stroke-opacity: 1;stroke-linecap: round;stroke-linejoin: round">
<circle cx="14405610.000000" cy="10246360.000000" r="30480.000000"/> 
</g>
<g style="fill-opacity: 1.0;stroke-width: 0.100000;stroke-opacity: 1;stroke-linecap: round;stroke-linejoin: round">
<path style="fill-opacity: 1.0;stroke-width: 0.100000;stroke-opacity: 1;stroke-linecap: round;stroke-linejoin: round;fill-rule: evenodd" d="M 14244320.000000,10944860.000000 14243238.100000,10953077.500000 14238578.100000,10963071.100000 14230781.100000,10970868.100000 14220787.500000,10975528.100000 14212570.000000,10976610.000000 14204352.500000,10975528.100000 14194358.900000,10970868.100000 14186561.900000,10963071.100000 14181901.900000,10953077.500000 14180820.000000,10944860.000000 14181901.900000,10936642.500000 14186561.900000,10926648.900000 14194358.900000,10918851.900000 14204352.500000,10914191.900000 14212570.000000,10913110.000000 14220787.500000,10914191.900000 14230781.100000,10918851.900000 14238578.100000,10926648.900000 14243238.100000,10936642.500000 14244320.000000,10944860.000000 Z"/> 
</g>
<g style="fill-opacity: 1.0;stroke-width: 0.100000;stroke-opacity: 1;stroke-linecap: round;stroke-linejoin: round">
<path style="fill-opacity: 1.0;stroke-width: 0.100000;stroke-opacity: 1;stroke-linecap: round;stroke-linejoin: round;fill-rule: evenodd" d="M 15519400.000000,10053320.000000 15518318.100000,10061537.500000 15513658.100000,10071531.100000 15505861.100000,10079328.100000 15495867.500000,10083988.100000 15487650.000000,10085070.000000 15479432.500000,10083988.100000 15469438.900000,10079328.100000 15461641.900000,10071531.100000 15456981.900000,10061537.500000 15455900.000000,10053320.000000 15456981.900000,10045102.500000 15461641.900000,10035108.900000 15469438.900000,10027311.900000 15479432.500000,10022651.900000 15487650.000000,10021570.000000 15495867.500000,10022651.900000 15505861.100000,10027311.900000 15513658.100000,10035108.900000 15518318.100000,10045102.500000 15519400.000000,10053320.000000 Z"/> 
</g>
<g style="fill-opacity: 1.0;stroke-width: 0.100000;stroke-opacity: 1;stroke-linecap: round;stroke-linejoin: round">
<circle cx="15485110.000000" cy="10947400.000000" r="31750.000000"/> 
</g>
<g style="fill-opacity: 1.0;stroke-width: 0.100000;stroke-opacity: 1;stroke-linecap: round;stroke-linejoin: round">
<circle cx="15406370.000000" cy="10053320.000000" r="31750.000000"/> 
</g>
<g style="fill-opacity: 1.0;stroke-width: 0.100000;stroke-opacity: 1;stroke-linecap: round;stroke-linejoin: round">
<circle cx="14530324.000000" cy="10317734.100000" r="31750.000000"/> 
</g>
<g style="fill-opacity: 1.0;stroke-width: 0.100000;stroke-opacity: 1;stroke-linecap: round;stroke-linejoin: round">
<circle cx="14220190.000000" cy="10228580.000000" r="31750.000000"/> 
</g>
<g style="fill-opacity: 1.0;stroke-width: 0.100000;stroke-opacity: 1;stroke-linecap: round;stroke-linejoin: round">
<circle cx="15050770.000000" cy="10845800.000000" r="31750.000000"/> 
</g>
<g style="fill-opacity: 1.0;stroke-width: 0.100000;stroke-opacity: 1;stroke-linecap: round;stroke-linejoin: round">
<circle cx="15099030.000000" cy="10617200.000000" r="31750.000000"/> 
</g>
<g style="fill-opacity: 1.0;stroke-width: 0.100000;stroke-opacity: 1;stroke-linecap: round;stroke-linejoin: round">
<circle cx="14697710.000000" cy="10538460.000000" r="31750.000000"/> 
</g>
<g style="fill-opacity: 1.0;stroke-width: 0.100000;stroke-opacity: 1;stroke-linecap: round;stroke-linejoin: round">
<circle cx="14845030.000000" cy="10487660.000000" r="31750.000000"/> 
</g>
<g style="fill-opacity: 1.0;stroke-width: 0.100000;stroke-opacity: 1;stroke-linecap: round;stroke-linejoin: round">
<circle cx="14608810.000000" cy="10769600.000000" r="31750.000000"/> 
</g>
<g style="fill-opacity: 0.0;stroke-width: 25400.000000;stroke-opacity: 1;stroke-linecap: round;stroke-linejoin: round">
<path d="M14624050 10754360 L15421610 10754360 "/>
<path d="M14608810 10769600 L14624050 10754360 "/>
</g>
</g> 
</g><g id="substrate-pads" style="fill:#b5ae30; stroke:#b5ae30;" mask="url(#pads-mask)"><g style="fill-opacity: 0.0;stroke-width: 16256.000000;stroke-opacity: 1;stroke-linecap: round;stroke-linejoin: round">
<g transform="rotate(90.000000 14177010.000000 10500360.000000)">
<text x="14177010.000000" y="10500360.000000" transform="scale(-1 1) translate(-28354020.000000 0)" textLength="152264.500000" font-size="86698.600000" lengthAdjust="spacingAndGlyphs" text-anchor="middle" opacity="0">v10</text>
</g>
<g class="stroked-text"><desc>v10</desc>
<path d="M14223455 10577769 L14180106 10562287 L14223455 10546805 "/>
<path d="M14180106 10487974 L14180106 10525131 "/>
<path d="M14180106 10506552 L14245130 10506552 L14235841 10512745 L14229648 10518938 L14226552 10525131 "/>
<path d="M14245130 10447721 L14245130 10441528 L14242034 10435336 L14238937 10432239 L14232744 10429143 L14220359 10426046 L14204877 10426046 L14192491 10429143 L14186299 10432239 L14183202 10435336 L14180106 10441528 L14180106 10447721 L14183202 10453914 L14186299 10457010 L14192491 10460107 L14204877 10463203 L14220359 10463203 L14232744 10460107 L14238937 10457010 L14242034 10453914 L14245130 10447721 "/>
</g><g style="fill-opacity: 1.0;stroke-width: 0.100000;stroke-opacity: 1;stroke-linecap: round;stroke-linejoin: round">
<circle cx="15421610.000000" cy="10754360.000000" r="93980.000000"/> 
</g>
<g style="fill-opacity: 1.0;stroke-width: 0.100000;stroke-opacity: 1;stroke-linecap: round;stroke-linejoin: round">
<circle cx="15421610.000000" cy="10500360.000000" r="93980.000000"/> 
</g>
<g style="fill-opacity: 1.0;stroke-width: 0.100000;stroke-opacity: 1;stroke-linecap: round;stroke-linejoin: round">
<circle cx="15421610.000000" cy="10246360.000000" r="93980.000000"/> 
</g>
<g style="fill-opacity: 1.0;stroke-width: 0.100000;stroke-opacity: 1;stroke-linecap: round;stroke-linejoin: round">
<circle cx="14405610.000000" cy="10246360.000000" r="30480.000000"/> 
</g>
<g style="fill-opacity: 1.0;stroke-width: 0.100000;stroke-opacity: 1;stroke-linecap: round;stroke-linejoin: round">
<path style="fill-opacity: 1.0;stroke-width: 0.100000;stroke-opacity: 1;stroke-linecap: round;stroke-linejoin: round;fill-rule: evenodd" d="M 14244320.000000,10944860.000000 14243238.100000,10953077.500000 14238578.100000,10963071.100000 14230781.100000,10970868.100000 14220787.500000,10975528.100000 14212570.000000,10976610.000000 14204352.500000,10975528.100000 14194358.900000,10970868.100000 14186561.900000,10963071.100000 14181901.900000,10953077.500000 14180820.000000,10944860.000000 14181901.900000,10936642.500000 14186561.900000,10926648.900000 14194358.900000,10918851.900000 14204352.500000,10914191.900000 14212570.000000,10913110.000000 14220787.500000,10914191.900000 14230781.100000,10918851.900000 14238578.100000,10926648.900000 14243238.100000,10936642.500000 14244320.000000,10944860.000000 Z"/> 
</g>
<g style="fill-opacity: 1.0;stroke-width: 0.100000;stroke-opacity: 1;stroke-linecap: round;stroke-linejoin: round">
<path style="fill-opacity: 1.0;stroke-width: 0.100000;stroke-opacity: 1;stroke-linecap: round;stroke-linejoin: round;fill-rule: evenodd" d="M 15519400.000000,10053320.000000 15518318.100000,10061537.500000 15513658.100000,10071531.100000 15505861.100000,10079328.100000 15495867.500000,10083988.100000 15487650.000000,10085070.000000 15479432.500000,10083988.100000 15469438.900000,10079328.100000 15461641.900000,10071531.100000 15456981.900000,10061537.500000 15455900.000000,10053320.000000 15456981.900000,10045102.500000 15461641.900000,10035108.900000 15469438.900000,10027311.900000 15479432.500000,10022651.900000 15487650.000000,10021570.000000 15495867.500000,10022651.900000 15505861.100000,10027311.900000 15513658.100000,10035108.900000 15518318.100000,10045102.500000 15519400.000000,10053320.000000 Z"/> 
</g>
<g style="fill-opacity: 1.0;stroke-width: 0.100000;stroke-opacity: 1;stroke-linecap: round;stroke-linejoin: round">
<circle cx="15485110.000000" cy="10947400.000000" r="31750.000000"/> 
</g>
<g style="fill-opacity: 1.0;stroke-width: 0.100000;stroke-opacity: 1;stroke-linecap: round;stroke-linejoin: round">
<circle cx="15406370.000000" cy="10053320.000000" r="31750.000000"/> 
</g>
<g style="fill-opacity: 1.0;stroke-width: 0.100000;stroke-opacity: 1;stroke-linecap: round;stroke-linejoin: round">
<circle cx="14530324.000000" cy="10317734.100000" r="31750.000000"/> 
</g>
<g style="fill-opacity: 1.0;stroke-width: 0.100000;stroke-opacity: 1;stroke-linecap: round;stroke-linejoin: round">
<circle cx="14220190.000000" cy="10228580.000000" r="31750.000000"/> 
</g>
<g style="fill-opacity: 1.0;stroke-width: 0.100000;stroke-opacity: 1;stroke-linecap: round;stroke-linejoin: round">
<circle cx="15050770.000000" cy="10845800.000000" r="31750.000000"/> 
</g>
<g style="fill-opacity: 1.0;stroke-width: 0.100000;stroke-opacity: 1;stroke-linecap: round;stroke-linejoin: round">
<circle cx="15099030.000000" cy="10617200.000000" r="31750.000000"/> 
</g>
<g style="fill-opacity: 1.0;stroke-width: 0.100000;stroke-opacity: 1;stroke-linecap: round;stroke-linejoin: round">
<circle cx="14697710.000000" cy="10538460.000000" r="31750.000000"/> 
</g>
<g style="fill-opacity: 1.0;stroke-width: 0.100000;stroke-opacity: 1;stroke-linecap: round;stroke-linejoin: round">
<circle cx="14845030.000000" cy="10487660.000000" r="31750.000000"/> 
</g>
<g style="fill-opacity: 1.0;stroke-width: 0.100000;stroke-opacity: 1;stroke-linecap: round;stroke-linejoin: round">
<circle cx="14608810.000000" cy="10769600.000000" r="31750.000000"/> 
</g>
<g style="fill-opacity: 0.0;stroke-width: 25400.000000;stroke-opacity: 1;stroke-linecap: round;stroke-linejoin: round">
<path d="M14624050 10754360 L15421610 10754360 "/>
<path d="M14608810 10769600 L14624050 10754360 "/>
</g>
</g> 
</g><g id="substrate-silk" style="fill:#f0f0f0; stroke:#f0f0f0;" mask="url(#pads-mask-silkscreen)"><g style="fill-opacity: 1.0;stroke-width: 0.100000;stroke-opacity: 1;stroke-linecap: round;stroke-linejoin: round">
<path style="fill-opacity: 1.0;stroke-width: 0.100000;stroke-opacity: 1;stroke-linecap: round;stroke-linejoin: round;fill-rule: evenodd" d="M 14748111.700000,10874117.900000 14750210.000000,10879363.700000 14750210.000000,10961626.700000 14746982.600000,10965929.800000 14738741.100000,10966960.000000 14691674.500000,10966960.000000 14684353.100000,10965914.100000 14682210.000000,10960556.300000 14682210.000000,10953321.500000 14685403.700000,10947998.700000 14692674.500000,10946960.000000 14726210.000000,10946960.000000 14726210.000000,10880378.900000 14728294.100000,10874126.400000 14733571.500000,10870960.000000 14742848.500000,10870960.000000 Z"/> 
<path style="fill-opacity: 1.0;stroke-width: 0.100000;stroke-opacity: 1;stroke-linecap: round;stroke-linejoin: round;fill-rule: evenodd" d="M 14992814.500000,10867969.900000 14999910.700000,10869997.300000 15005000.400000,10873051.100000 15011095.200000,10878130.100000 15014148.600000,10883219.200000 15017193.500000,10889309.000000 15018215.100000,10896460.000000 15017195.600000,10903596.200000 15014131.600000,10910745.500000 15010417.100000,10914460.000000 15014098.600000,10918141.500000 15018169.300000,10924247.600000 15020210.000000,10931390.000000 15020210.000000,10938495.500000 15019193.500000,10945611.000000 15016133.500000,10951731.000000 15012051.900000,10956833.000000 15005977.500000,10960882.600000 15000938.100000,10963906.200000 14993812.600000,10966960.000000 14980674.500000,10966960.000000 14973559.000000,10965943.500000 14967458.600000,10962893.300000 14961368.100000,10958833.000000 14957306.000000,10953755.400000 14953256.800000,10947681.600000 14951221.400000,10941575.300000 14950201.200000,10934433.800000 14951229.600000,10930320.100000 14953251.300000,10924254.900000 14957309.100000,10917153.800000 14961040.000000,10913422.900000 14957286.500000,10908731.000000 14954226.500000,10902611.000000 14953204.900000,10895460.000000 14954226.500000,10888309.000000 14957286.500000,10882189.000000 14961336.900000,10877126.000000 14966413.800000,10872049.100000 14972528.000000,10868992.000000 14979640.000000,10866960.000000 14985745.500000,10866960.000000 Z"/> 
<path style="fill-opacity: 1.0;stroke-width: 0.100000;stroke-opacity: 1;stroke-linecap: round;stroke-linejoin: round;fill-rule: evenodd" d="M 15368825.300000,10868971.400000 15374901.800000,10870996.900000 15380981.000000,10874036.500000 15386083.000000,10878118.100000 15390163.200000,10884238.400000 15392196.700000,10890339.100000 15393215.900000,10896454.100000 15392200.100000,10903564.500000 15390163.200000,10910693.900000 15386065.700000,10915815.700000 15380981.000000,10919883.500000 15368892.000000,10925928.000000 15361820.100000,10927948.500000 15355866.300000,10928940.800000 15350118.800000,10931814.600000 15348257.000000,10937400.000000 15351055.400000,10942064.000000 15357778.100000,10944945.200000 15364527.000000,10943981.000000 15370391.200000,10940071.600000 15375439.900000,10935023.000000 15381669.700000,10932946.400000 15387975.300000,10933997.300000 15393175.400000,10940237.400000 15394230.700000,10945514.200000 15391131.600000,10952745.500000 15387028.500000,10956848.600000 15374931.600000,10964913.200000 15368791.100000,10966960.000000 15354668.600000,10966960.000000 15348568.400000,10965943.300000 15341481.900000,10962906.200000 15336423.900000,10959871.400000 15331337.000000,10955801.900000 15327256.800000,10949681.600000 15325221.400000,10943575.300000 15324205.600000,10936464.400000 15325220.000000,10928348.900000 15327263.900000,10922217.300000 15331354.300000,10917104.300000 15336439.000000,10913036.500000 15342518.200000,10909996.900000 15348574.400000,10907978.100000 15361508.600000,10904993.300000 15367290.000000,10901139.100000 15369149.700000,10895559.900000 15365443.400000,10890927.000000 15358756.000000,10889971.700000 15352957.700000,10891904.400000 15346891.000000,10896960.000000 15340571.500000,10896960.000000 15335363.600000,10893835.200000 15330210.000000,10886620.200000 15330210.000000,10881252.900000 15335376.000000,10876086.900000 15340476.100000,10872006.800000 15347599.900000,10869971.500000 15353637.900000,10868965.100000 15361714.400000,10867955.600000 Z"/> 
<path style="fill-opacity: 1.0;stroke-width: 0.100000;stroke-opacity: 1;stroke-linecap: round;stroke-linejoin: round;fill-rule: evenodd" d="M 15149105.300000,10873064.700000 15151210.000000,10879378.900000 15151210.000000,10907210.000000 15154876.700000,10909960.000000 15181502.800000,10909960.000000 15185210.000000,10906252.800000 15185210.000000,10879378.900000 15187314.700000,10873064.700000 15193628.900000,10870960.000000 15202876.700000,10870960.000000 15207144.600000,10874160.900000 15209210.000000,10881390.000000 15209210.000000,10956501.400000 15208171.700000,10962730.900000 15202885.400000,10966960.000000 15194640.000000,10966960.000000 15187336.800000,10964873.400000 15185210.000000,10959556.300000 15185210.000000,10932667.200000 15181502.800000,10928960.000000 15154917.200000,10928960.000000 15151210.000000,10932667.200000 15151210.000000,10959556.300000 15149083.200000,10964873.400000 15141780.000000,10966960.000000 15132502.900000,10966960.000000 15128243.100000,10962700.300000 15127210.000000,10956501.400000 15127210.000000,10880378.900000 15129294.100000,10874126.400000 15134571.500000,10870960.000000 15142791.100000,10870960.000000 Z"/> 
<path style="fill-opacity: 1.0;stroke-width: 0.100000;stroke-opacity: 1;stroke-linecap: round;stroke-linejoin: round;fill-rule: evenodd" d="M 14927980.900000,10871998.300000 14932210.000000,10877284.600000 14932210.000000,10884495.500000 14931171.300000,10891766.300000 14925848.500000,10894960.000000 14892319.900000,10894960.000000 14893178.800000,10899254.500000 14901120.400000,10910174.200000 14905143.300000,10916208.600000 14908148.900000,10922219.800000 14911148.600000,10927219.200000 14914178.000000,10933278.000000 14916190.800000,10940322.600000 14918198.500000,10947349.900000 14919210.000000,10953418.600000 14919210.000000,10960598.500000 14916016.300000,10965921.300000 14908745.500000,10966960.000000 14901571.500000,10966960.000000 14896248.700000,10963766.300000 14895217.000000,10956544.400000 14893229.900000,10946609.200000 14890261.500000,10939682.900000 14886278.100000,10932711.900000 14879278.100000,10920711.900000 14872270.000000,10908698.000000 14869262.800000,10902683.600000 14866256.200000,10896670.500000 14863226.700000,10889601.600000 14862203.100000,10883460.000000 14863232.400000,10877284.200000 14866406.500000,10871994.000000 14874678.900000,10870960.000000 14921751.400000,10870960.000000 Z"/> 
<path style="fill-opacity: 1.0;stroke-width: 0.100000;stroke-opacity: 1;stroke-linecap: round;stroke-linejoin: round;fill-rule: evenodd" d="M 14289981.000000,10874036.500000 14295044.000000,10878086.900000 14309063.600000,10892106.400000 14315170.600000,10898213.500000 14316233.900000,10903530.200000 14313110.400000,10909777.200000 14306891.000000,10914960.000000 14301577.200000,10914960.000000 14294991.400000,10911196.700000 14294210.000000,10913541.000000 14294210.000000,10954501.400000 14293187.600000,10960635.800000 14290016.300000,10965921.300000 14282717.900000,10966964.000000 14273439.800000,10965933.100000 14270210.000000,10961626.700000 14270210.000000,10874151.000000 14276592.000000,10870960.000000 14283828.000000,10870960.000000 Z"/> 
<path style="fill-opacity: 1.0;stroke-width: 0.100000;stroke-opacity: 1;stroke-linecap: round;stroke-linejoin: round;fill-rule: evenodd" d="M 14813820.100000,10867971.500000 14820892.000000,10869992.000000 14827006.200000,10873049.100000 14832083.100000,10878126.000000 14836156.100000,10883217.300000 14838198.600000,10889344.700000 14839215.100000,10896460.000000 14838195.600000,10903596.200000 14835131.600000,10910745.500000 14831458.600000,10914418.500000 14836108.100000,10918138.200000 14839178.000000,10924278.000000 14841210.000000,10931390.000000 14841210.000000,10938495.500000 14840193.500000,10945611.000000 14837133.500000,10951731.000000 14833065.700000,10956815.700000 14827981.000000,10960883.500000 14821920.500000,10963913.800000 14814812.600000,10966960.000000 14801674.500000,10966960.000000 14794559.000000,10965943.500000 14788439.000000,10962883.500000 14783376.000000,10958833.100000 14778321.400000,10953778.500000 14774256.800000,10947681.600000 14772210.000000,10941541.100000 14772210.000000,10930378.900000 14774251.300000,10924254.900000 14778309.100000,10917153.800000 14782040.000000,10913422.900000 14778286.500000,10908731.000000 14775226.500000,10902611.000000 14774204.900000,10895460.000000 14775226.500000,10888309.000000 14778286.500000,10882189.000000 14782336.900000,10877126.000000 14787413.800000,10872049.100000 14793528.000000,10868992.000000 14800640.000000,10866960.000000 14807751.400000,10866960.000000 Z"/> 
<path style="fill-opacity: 1.0;stroke-width: 0.100000;stroke-opacity: 1;stroke-linecap: round;stroke-linejoin: round;fill-rule: evenodd" d="M 14424105.300000,10873064.700000 14426210.000000,10879378.900000 14426210.000000,10907210.000000 14429876.700000,10909960.000000 14456460.000000,10909960.000000 14459210.000000,10906293.300000 14459210.000000,10879342.000000 14462355.400000,10873051.200000 14468628.900000,10870960.000000 14477876.700000,10870960.000000 14482175.700000,10874184.300000 14483210.000000,10881424.500000 14483210.000000,10956501.400000 14482176.900000,10962700.300000 14477917.100000,10966960.000000 14468628.900000,10966960.000000 14462331.900000,10964861.000000 14460223.500000,10959590.000000 14459210.000000,10952495.500000 14459210.000000,10932626.700000 14456460.000000,10928960.000000 14428960.000000,10928960.000000 14426210.000000,10932626.700000 14426210.000000,10952495.500000 14425196.500000,10959590.000000 14423088.100000,10964861.000000 14416791.100000,10966960.000000 14407502.900000,10966960.000000 14403243.100000,10962700.300000 14402210.000000,10956501.400000 14402210.000000,10880418.600000 14403258.700000,10874126.700000 14409592.000000,10870960.000000 14417791.100000,10870960.000000 Z"/> 
<path style="fill-opacity: 1.0;stroke-width: 0.100000;stroke-opacity: 1;stroke-linecap: round;stroke-linejoin: round;fill-rule: evenodd" d="M 14383171.300000,10912153.700000 14384210.000000,10919424.500000 14384210.000000,10926743.100000 14378848.500000,10929960.000000 14337401.000000,10929960.000000 14334210.000000,10923578.000000 14334210.000000,10916378.900000 14336333.400000,10910008.700000 14343674.500000,10908960.000000 14377848.500000,10908960.000000 Z"/> 
<path style="fill-opacity: 1.0;stroke-width: 0.100000;stroke-opacity: 1;stroke-linecap: round;stroke-linejoin: round;fill-rule: evenodd" d="M 15082825.300000,10867971.400000 15088901.800000,10869996.900000 15095006.200000,10873049.100000 15100083.100000,10878126.000000 15104156.100000,10883217.300000 15106198.600000,10889344.700000 15107215.100000,10896460.000000 15106195.600000,10903596.200000 15103131.600000,10910745.500000 15099458.600000,10914418.500000 15104083.000000,10918118.100000 15108169.300000,10924247.600000 15110210.000000,10931390.000000 15110210.000000,10938530.000000 15108178.000000,10945642.000000 15105133.500000,10951731.000000 15101065.700000,10956815.700000 15095981.000000,10960883.500000 15083828.000000,10966960.000000 15069668.600000,10966960.000000 15063568.400000,10965943.300000 15056450.700000,10962892.800000 15051376.000000,10958833.100000 15046321.400000,10953778.500000 15042256.800000,10947681.600000 15040210.000000,10941541.100000 15040210.000000,10930378.900000 15042251.300000,10924254.900000 15046309.100000,10917153.800000 15050040.000000,10913422.900000 15046286.500000,10908731.000000 15043210.000000,10902578.000000 15043210.000000,10895424.500000 15044221.400000,10888344.700000 15046263.900000,10882217.300000 15050351.100000,10877108.200000 15056434.500000,10872038.700000 15062518.200000,10868996.900000 15068628.900000,10866960.000000 15075745.500000,10866960.000000 Z"/> 
<path style="fill-opacity: 1.0;stroke-width: 0.100000;stroke-opacity: 1;stroke-linecap: round;stroke-linejoin: round;fill-rule: evenodd" d="M 15301088.100000,10873059.000000 15303210.000000,10878363.700000 15303210.000000,10960626.700000 15300009.100000,10964894.600000 15292780.000000,10966960.000000 15284502.900000,10966960.000000 15280243.100000,10962700.300000 15279210.000000,10956501.400000 15279210.000000,10942798.500000 15274613.800000,10940960.000000 15261674.500000,10940960.000000 15254594.700000,10939948.600000 15248963.300000,10938071.400000 15248903.900000,10938190.200000 15248488.200000,10937913.100000 15247982.800000,10937744.600000 15248050.600000,10937621.300000 15242414.600000,10933864.000000 15237354.300000,10929815.700000 15233277.200000,10924719.300000 15230242.200000,10917637.800000 15228210.000000,10911541.100000 15228210.000000,10897342.000000 15232286.500000,10889189.000000 15236336.900000,10884126.000000 15241391.500000,10879071.400000 15247458.600000,10875026.700000 15253553.600000,10871979.200000 15259668.600000,10870960.000000 15294791.100000,10870960.000000 Z"/> 
<path style="fill-opacity: 1.0;stroke-width: 0.100000;stroke-opacity: 1;stroke-linecap: round;stroke-linejoin: round;fill-rule: evenodd" d="M 14559000.800000,10871023.100000 14563168.600000,10876232.900000 14564202.200000,10880367.300000 14569217.900000,10919489.900000 14568148.200000,10923768.800000 14561961.400000,10927893.300000 14555788.200000,10930979.900000 14549521.900000,10929935.600000 14543558.600000,10925960.000000 14536828.000000,10925960.000000 14531168.000000,10928790.000000 14530227.100000,10935376.200000 14533064.600000,10941051.200000 14538760.500000,10942949.800000 14546507.900000,10941981.400000 14551467.300000,10938013.900000 14557725.600000,10935927.700000 14562991.000000,10938033.900000 14569147.000000,10944189.900000 14571270.400000,10950559.900000 14567083.100000,10955794.000000 14562006.200000,10960870.900000 14555901.800000,10963923.100000 14549825.300000,10965948.600000 14542745.500000,10966960.000000 14535674.500000,10966960.000000 14528559.000000,10965943.500000 14522439.000000,10962883.500000 14517376.000000,10958833.100000 14512299.100000,10953756.200000 14509242.000000,10947642.000000 14507219.900000,10940564.500000 14506204.100000,10933454.100000 14507221.500000,10927349.900000 14509247.300000,10920259.300000 14512301.100000,10915169.600000 14517372.300000,10909084.200000 14523488.400000,10905006.800000 14529551.900000,10902985.700000 14535628.900000,10900960.000000 14542210.000000,10900960.000000 14542210.000000,10893869.900000 14537660.400000,10892960.000000 14517628.900000,10892960.000000 14511376.400000,10890875.900000 14508210.000000,10885598.500000 14508210.000000,10876321.500000 14511376.400000,10871044.100000 14517628.900000,10868960.000000 14551780.000000,10868960.000000 Z"/> 
<path style="fill-opacity: 1.0;stroke-width: 0.100000;stroke-opacity: 1;stroke-linecap: round;stroke-linejoin: round;fill-rule: evenodd" d="M 14659043.600000,10872044.100000 14662210.000000,10877321.500000 14662210.000000,10959556.300000 14660083.200000,10964873.400000 14652752.700000,10966967.800000 14643480.500000,10965937.600000 14639243.100000,10961700.300000 14638210.000000,10955501.400000 14638210.000000,10941798.500000 14633613.800000,10939960.000000 14620019.000000,10939960.000000 14616163.200000,10947671.600000 14609095.500000,10963826.300000 14602788.200000,10966979.900000 14596539.600000,10965938.500000 14589310.500000,10961807.600000 14587182.300000,10956487.000000 14589232.200000,10949312.200000 14590244.400000,10946275.600000 14596210.000000,10933350.200000 14596210.000000,10928635.300000 14592286.500000,10923731.000000 14589226.500000,10917611.000000 14588215.000000,10910530.700000 14587204.900000,10903460.000000 14588226.500000,10896309.000000 14594311.900000,10884138.200000 14599505.200000,10879983.500000 14598956.300000,10879361.500000 14605458.600000,10875026.700000 14611553.600000,10871979.200000 14617633.500000,10870965.800000 14624674.500000,10869960.000000 14652791.100000,10869960.000000 Z"/> 
<path style="fill-opacity: 1.0;stroke-width: 0.100000;stroke-opacity: 1;stroke-linecap: round;stroke-linejoin: round;fill-rule: evenodd" d="M 14789496.400000,10025875.900000 14796595.500000,10028918.400000 14802692.800000,10035015.700000 14807748.300000,10042093.400000 14810798.800000,10049211.100000 14811813.500000,10058343.400000 14810802.400000,10066432.000000 14808772.000000,10074553.400000 14803692.800000,10081664.300000 14797587.000000,10087770.100000 14789485.600000,10090808.200000 14781485.600000,10093808.200000 14773430.400000,10096828.800000 14765471.300000,10097823.700000 14758743.400000,10101668.200000 14756839.900000,10109281.900000 14759669.400000,10114940.700000 14767373.800000,10117829.900000 14776125.200000,10116857.500000 14783015.200000,10111936.100000 14791046.100000,10105912.900000 14797251.800000,10102810.100000 14805603.500000,10104898.000000 14811758.700000,10113104.900000 14813849.800000,10119378.400000 14809720.900000,10127636.200000 14804650.000000,10132707.100000 14797588.700000,10138759.700000 14789484.500000,10142811.800000 14781402.000000,10144832.400000 14773341.100000,10145840.000000 14764248.400000,10145840.000000 14756161.100000,10143818.200000 14748096.800000,10140794.100000 14741023.700000,10136752.300000 14734928.400000,10131672.900000 14729848.600000,10123545.200000 14727817.700000,10116437.000000 14726810.000000,10107367.700000 14726810.000000,10098249.300000 14729864.900000,10090102.900000 14734940.500000,10082997.100000 14741046.000000,10077909.200000 14748132.200000,10074872.200000 14757170.100000,10071859.600000 14773121.900000,10067871.600000 14779876.600000,10064011.800000 14781763.300000,10056465.000000 14777052.200000,10050811.600000 14769370.400000,10049851.400000 14761547.000000,10052785.200000 14754501.400000,10057817.700000 14747182.400000,10058863.300000 14739956.400000,10053701.900000 14733810.000000,10045506.700000 14733810.000000,10039155.000000 14739975.300000,10031962.200000 14746088.400000,10027886.800000 14755170.100000,10024859.600000 14763248.400000,10022840.000000 14781400.700000,10022840.000000 Z"/> 
<path style="fill-opacity: 1.0;stroke-width: 0.100000;stroke-opacity: 1;stroke-linecap: round;stroke-linejoin: round;fill-rule: evenodd" d="M 14498535.500000,10060858.400000 14503810.000000,10066132.900000 14503810.000000,10131371.100000 14502784.900000,10139572.200000 14497535.500000,10144821.600000 14486270.900000,10145845.600000 14477948.100000,10143764.900000 14474810.000000,10136442.600000 14474810.000000,10068207.200000 14478999.900000,10060874.900000 14487301.500000,10059837.200000 Z"/> 
<path style="fill-opacity: 1.0;stroke-width: 0.100000;stroke-opacity: 1;stroke-linecap: round;stroke-linejoin: round;fill-rule: evenodd" d="M 15133608.100000,10028917.800000 15149704.700000,10048032.400000 15167652.500000,10072959.800000 15174170.200000,10076684.300000 15203906.500000,10036044.700000 15208991.700000,10028925.400000 15217219.300000,10025840.000000 15227442.800000,10025840.000000 15234770.400000,10030027.200000 15235810.000000,10037304.500000 15235810.000000,10139547.100000 15230535.500000,10144821.600000 15219270.900000,10145845.600000 15210965.600000,10143769.300000 15207810.000000,10137458.000000 15207810.000000,10078547.200000 15206686.400000,10079670.800000 15183672.900000,10109688.400000 15177491.000000,10114840.000000 15168177.200000,10114840.000000 15160959.400000,10110715.600000 15156901.600000,10104628.800000 15136810.000000,10077840.000000 15136810.000000,10136442.600000 15133671.900000,10143764.900000 15125371.600000,10145840.000000 15116158.600000,10145840.000000 15109871.800000,10141648.800000 15107810.000000,10133401.600000 15107810.000000,10038304.500000 15108846.600000,10031048.000000 15115136.300000,10026854.900000 15125376.300000,10025830.900000 Z"/> 
<path style="fill-opacity: 1.0;stroke-width: 0.100000;stroke-opacity: 1;stroke-linecap: round;stroke-linejoin: round;fill-rule: evenodd" d="M 14497505.000000,10020855.700000 14502780.900000,10025076.400000 14503810.000000,10033308.900000 14503810.000000,10041547.100000 14497539.500000,10047817.600000 14488306.600000,10048843.500000 14480163.000000,10047825.500000 14477922.600000,10046705.300000 14474810.000000,10039442.600000 14474810.000000,10029222.000000 14477950.600000,10022940.800000 14486241.400000,10019831.700000 Z"/> 
<path style="fill-opacity: 1.0;stroke-width: 0.100000;stroke-opacity: 1;stroke-linecap: round;stroke-linejoin: round;fill-rule: evenodd" d="M 14861616.000000,10028927.200000 14877700.500000,10048027.500000 14896657.200000,10072970.500000 14902189.100000,10076658.500000 14931917.800000,10036029.200000 14938006.100000,10028926.300000 14945207.400000,10025840.000000 14955442.800000,10025840.000000 14962734.800000,10030006.900000 14964810.000000,10037270.000000 14964810.000000,10131371.100000 14963784.900000,10139572.200000 14958537.300000,10144819.800000 14948279.900000,10145845.500000 14938969.200000,10143776.500000 14935810.000000,10137458.000000 14935810.000000,10078547.200000 14934690.400000,10079666.800000 14912665.800000,10109700.300000 14905470.200000,10114840.000000 14897192.000000,10114840.000000 14888967.600000,10110727.800000 14884898.600000,10104624.300000 14865810.000000,10077900.300000 14865810.000000,10127367.700000 14864798.800000,10136468.900000 14861671.900000,10143764.900000 14853371.600000,10145840.000000 14844158.600000,10145840.000000 14837871.800000,10141648.800000 14835810.000000,10133401.600000 14835810.000000,10038270.000000 14837873.100000,10031049.200000 14843115.000000,10026855.700000 14854390.700000,10025830.600000 Z"/> 
<path style="fill-opacity: 1.0;stroke-width: 0.100000;stroke-opacity: 1;stroke-linecap: round;stroke-linejoin: round;fill-rule: evenodd" d="M 14554608.100000,10028917.800000 14570704.700000,10048032.400000 14588652.500000,10072959.800000 14595170.200000,10076684.300000 14624906.500000,10036044.700000 14629991.700000,10028925.400000 14638219.300000,10025840.000000 14648461.400000,10025840.000000 14654740.300000,10030025.900000 14656810.000000,10037270.000000 14656810.000000,10139547.100000 14651535.500000,10144821.600000 14640270.900000,10145845.600000 14632001.200000,10143778.200000 14627810.000000,10137491.400000 14627810.000000,10078547.200000 14626690.400000,10079666.800000 14604677.100000,10109685.000000 14598491.000000,10114840.000000 14589177.200000,10114840.000000 14581959.400000,10110715.600000 14577901.600000,10104628.800000 14557810.000000,10077840.000000 14557810.000000,10136442.600000 14554671.900000,10143764.900000 14546371.600000,10145840.000000 14537158.600000,10145840.000000 14530871.800000,10141648.800000 14528810.600000,10133404.100000 14527809.300000,10038272.600000 14529873.100000,10031049.200000 14535115.000000,10026855.700000 14546378.600000,10025831.700000 Z"/> 
<path style="fill-opacity: 1.0;stroke-width: 0.100000;stroke-opacity: 1;stroke-linecap: round;stroke-linejoin: round;fill-rule: evenodd" d="M 15080748.200000,10030031.200000 15082810.000000,10038278.400000 15082810.000000,10132371.100000 15081780.900000,10140603.600000 15076506.900000,10144822.800000 15066334.900000,10145840.000000 14998192.000000,10145840.000000 14991910.800000,10142699.400000 14988801.700000,10134408.600000 14989825.700000,10123145.000000 14994025.000000,10117895.900000 15002248.400000,10115840.000000 15052810.000000,10115840.000000 15052810.000000,10100840.000000 15018240.000000,10100840.000000 15010976.900000,10098764.800000 15006810.000000,10091472.800000 15006810.000000,10080188.600000 15010995.900000,10073909.700000 15018240.000000,10071840.000000 15051868.700000,10071840.000000 15052810.000000,10064309.200000 15052810.000000,10056773.700000 15046274.300000,10055840.000000 15004282.300000,10055840.000000 14995080.500000,10054817.600000 14989830.200000,10049567.300000 14988804.500000,10039309.900000 14990865.500000,10030035.400000 14997158.600000,10025840.000000 15074461.400000,10025840.000000 Z"/> 
<path style="fill-opacity: 1.0;stroke-width: 0.100000;stroke-opacity: 1;stroke-linecap: round;stroke-linejoin: round;fill-rule: evenodd" d="M 14423492.400000,10059868.300000 14430566.600000,10063910.800000 14438642.900000,10068958.400000 14443706.000000,10075034.200000 14448755.100000,10082102.900000 14451800.100000,10090222.800000 14452810.000000,10099312.300000 14452810.000000,10107401.600000 14450781.800000,10115514.500000 14446739.700000,10123598.700000 14441692.800000,10130664.300000 14435623.300000,10136733.800000 14427542.300000,10141784.400000 14420442.100000,10144827.400000 14412341.100000,10145840.000000 14403255.100000,10145840.000000 14394156.000000,10143818.000000 14387042.700000,10140769.400000 14379896.300000,10134643.900000 14376771.300000,10127352.400000 14379879.900000,10119063.000000 14387039.900000,10111903.000000 14393348.400000,10109800.200000 14401484.300000,10113868.200000 14409310.000000,10115824.600000 14417096.700000,10113877.900000 14423780.700000,10109103.600000 14422816.900000,10100429.200000 14420876.600000,10092668.200000 14414151.800000,10088825.500000 14405401.600000,10087853.200000 14397520.500000,10091793.800000 14390225.300000,10094920.300000 14383945.000000,10089686.700000 14377830.300000,10081533.800000 14376786.900000,10073186.600000 14381967.100000,10066970.500000 14389080.600000,10061889.400000 14398198.900000,10058850.000000 14406278.900000,10057840.000000 14414364.900000,10057840.000000 Z"/> 
<path style="fill-opacity: 1.0;stroke-width: 0.100000;stroke-opacity: 1;stroke-linecap: round;stroke-linejoin: round;fill-rule: evenodd" d="M 15080010.000000,10478110.000000 15080010.000000,10518401.400000 15078933.600000,10524860.000000 15058428.900000,10524860.000000 15055239.900000,10523797.000000 15050136.900000,10518694.000000 15046086.500000,10513631.000000 15043026.500000,10507511.000000 15042004.900000,10500360.000000 15043026.500000,10493209.000000 15046086.500000,10487089.000000 15050154.300000,10482004.300000 15055239.000000,10477936.500000 15061392.000000,10474860.000000 15075676.700000,10474860.000000 Z"/> 
<path style="fill-opacity: 1.0;stroke-width: 0.100000;stroke-opacity: 1;stroke-linecap: round;stroke-linejoin: round;fill-rule: evenodd" d="M 15350010.000000,10567783.600000 15343551.400000,10568860.000000 14971010.000000,10568860.000000 14971010.000000,10432936.400000 14977468.600000,10431860.000000 15350010.000000,10431860.000000 Z"/> 
<path style="fill-opacity: 1.0;stroke-width: 0.100000;stroke-opacity: 1;stroke-linecap: round;stroke-linejoin: round;fill-rule: evenodd" d="M 14432199.700000,10535934.800000 14432770.100000,10536220.000000 14435447.100000,10536220.000000 14436447.100000,10537220.000000 14438447.100000,10537220.000000 14440124.100000,10538897.000000 14440770.100000,10539220.000000 14443447.100000,10539220.000000 14444447.100000,10540220.000000 14446447.100000,10540220.000000 14448124.100000,10541897.000000 14450124.100000,10542897.000000 14451124.100000,10543897.000000 14451770.100000,10544220.000000 14452770.200000,10544220.000000 14453526.100000,10544598.000000 14482225.400000,10524098.500000 14509839.500000,10550512.000000 14489390.400000,10580163.300000 14489673.100000,10580446.000000 14489673.100000,10581446.000000 14490673.100000,10582446.000000 14490673.100000,10583446.000000 14491673.100000,10584446.000000 14491673.100000,10585446.000000 14492673.100000,10586446.000000 14492673.100000,10587446.000000 14493673.100000,10588446.000000 14493673.100000,10589446.000000 14494673.100000,10590446.000000 14494673.100000,10592446.000000 14498751.700000,10596524.600000 14435510.000000,10619947.500000 14433353.400000,10613477.600000 14431750.100000,10610271.000000 14429750.100000,10608271.000000 14428750.100000,10606271.000000 14427622.100000,10605143.000000 14425622.100000,10604143.000000 14423622.100000,10602143.000000 14420415.500000,10600539.700000 14417415.200000,10599539.600000 14413976.100000,10597820.000000 14411256.400000,10597820.000000 14408256.400000,10596820.000000 14403489.900000,10596820.000000 14392557.700000,10600464.100000 14387294.000000,10603973.200000 14385826.400000,10605440.800000 14383826.300000,10608440.900000 14381826.400000,10610440.800000 14380317.300000,10612704.500000 14379317.300000,10615704.400000 14377673.200000,10618170.600000 14377673.200000,10620487.800000 14376673.200000,10624487.600000 14376673.200000,10630403.300000 14377673.200000,10633403.300000 14377673.200000,10635869.400000 14379317.300000,10638335.600000 14380317.300000,10641335.500000 14383826.400000,10646599.200000 14387294.000000,10650066.800000 14392557.700000,10653575.900000 14395557.600000,10654575.900000 14398023.800000,10656220.000000 14400489.900000,10656220.000000 14403489.900000,10657220.000000 14411256.400000,10657220.000000 14414256.400000,10656220.000000 14415976.100000,10656220.000000 14417415.200000,10655500.400000 14420415.500000,10654500.300000 14421622.100000,10653897.000000 14423622.100000,10651897.000000 14425622.100000,10650897.000000 14428750.100000,10647769.000000 14429750.100000,10645769.000000 14431750.100000,10643769.000000 14435997.900000,10635273.200000 14513074.200000,10663820.000000 14494447.100000,10663820.000000 14493673.100000,10664594.000000 14493673.100000,10665594.000000 14492673.100000,10666594.000000 14492673.100000,10667594.000000 14491673.100000,10668594.000000 14491673.100000,10670594.000000 14490673.100000,10671594.000000 14490673.100000,10672594.000000 14489390.400000,10673876.700000 14509798.500000,10703468.600000 14482229.700000,10731037.400000 14453658.200000,10709608.900000 14453124.100000,10710143.000000 14449770.200000,10711820.000000 14448770.100000,10711820.000000 14448124.100000,10712143.000000 14447124.100000,10713143.000000 14443770.200000,10714820.000000 14442770.100000,10714820.000000 14438770.200000,10716820.000000 14437770.100000,10716820.000000 14435770.200000,10717820.000000 14434770.100000,10717820.000000 14432770.200000,10718820.000000 14432248.600000,10718820.000000 14426077.100000,10754820.000000 14387654.100000,10754820.000000 14381654.100000,10718820.000000 14379299.200000,10718820.000000 14378299.200000,10717820.000000 14376299.200000,10717820.000000 14374622.200000,10716143.000000 14373976.200000,10715820.000000 14371299.200000,10715820.000000 14370299.200000,10714820.000000 14368299.200000,10714820.000000 14366622.200000,10713143.000000 14364622.200000,10712143.000000 14364299.200000,10711820.000000 14362299.200000,10711820.000000 14360622.200000,10710143.000000 14359826.800000,10709745.300000 14330417.800000,10731041.400000 14303988.000000,10703410.300000 14324180.400000,10674131.300000 14323073.200000,10671917.100000 14323073.200000,10670917.000000 14322750.200000,10670271.000000 14321750.200000,10669271.000000 14320073.200000,10665917.100000 14320073.200000,10664917.000000 14319750.200000,10664271.000000 14318073.200000,10662594.000000 14318073.200000,10659917.000000 14317073.200000,10657917.100000 14317073.200000,10656917.000000 14316073.200000,10654917.100000 14316073.200000,10653917.000000 14315241.100000,10652252.800000 14280073.200000,10646224.000000 14280073.200000,10607816.000000 14315788.000000,10601693.400000 14316073.200000,10601123.000000 14316073.200000,10598446.000000 14317073.200000,10597446.000000 14317073.200000,10596122.900000 14318073.200000,10594123.000000 14318073.200000,10593122.900000 14319750.200000,10589769.000000 14320073.200000,10589446.000000 14320073.200000,10587446.000000 14321750.200000,10585769.000000 14322750.200000,10583769.000000 14323073.200000,10583446.000000 14323073.200000,10581446.000000 14324355.900000,10580163.300000 14303947.800000,10550571.400000 14330424.600000,10524094.600000 14359606.500000,10544220.000000 14361299.200000,10544220.000000 14361622.200000,10543897.000000 14363622.200000,10542897.000000 14365299.200000,10541220.000000 14367299.200000,10541220.000000 14367622.200000,10540897.000000 14370976.100000,10539220.000000 14371976.200000,10539220.000000 14375976.100000,10537220.000000 14376976.200000,10537220.000000 14378976.100000,10536220.000000 14379976.200000,10536220.000000 14381640.400000,10535387.900000 14387669.200000,10500220.000000 14426077.100000,10500220.000000 Z"/> 
<path style="fill-opacity: 1.0;stroke-width: 0.100000;stroke-opacity: 1;stroke-linecap: round;stroke-linejoin: round;fill-rule: evenodd" d="M 14529532.400000,10281305.700000 14524532.700000,10284305.500000 14519741.900000,10289096.300000 14513742.300000,10294095.900000 14501760.600000,10306077.500000 14487760.800000,10318077.400000 14478195.500000,10327642.700000 14472809.300000,10336619.700000 14471980.000000,10341595.600000 14471980.000000,10360595.300000 14469896.500000,10373096.500000 14466788.400000,10384492.700000 14462594.100000,10394978.400000 14456261.700000,10405532.400000 14448953.800000,10413884.400000 14440696.300000,10422141.800000 14431277.200000,10429467.800000 14412602.200000,10439842.800000 14392772.600000,10445061.100000 14374927.200000,10446110.900000 14358212.100000,10442976.800000 14342520.200000,10437746.200000 14330866.900000,10430330.500000 14321229.400000,10421763.800000 14312295.800000,10407470.000000 14327551.700000,10407470.000000 14329708.100000,10406751.200000 14330913.100000,10406148.700000 14332839.900000,10404221.900000 14333360.000000,10402661.700000 14333360.000000,10400748.900000 14331575.300000,10393610.100000 14329868.100000,10390195.700000 14328058.700000,10387481.600000 14325284.600000,10383782.800000 14319742.500000,10378240.700000 14314605.700000,10374816.100000 14311701.100000,10374090.000000 14306788.300000,10374090.000000 14304631.900000,10374808.800000 14303085.700000,10375581.900000 14300826.500000,10377088.100000 14298424.200000,10380291.000000 14296805.900000,10383527.700000 14295888.200000,10388116.100000 14294980.000000,10391748.900000 14294980.000000,10396380.500000 14295980.000000,10398380.600000 14295980.000000,10409478.200000 14288284.500000,10401782.600000 14284915.900000,10397291.200000 14277552.500000,10382564.400000 14275360.000000,10372698.200000 14275360.000000,10361936.500000 14277531.300000,10349994.500000 14283973.000000,10338184.600000 14291577.500000,10328407.400000 14300535.100000,10322808.900000 14310551.700000,10319470.000000 14319588.200000,10319470.000000 14329536.600000,10321680.800000 14339374.200000,10327146.100000 14347690.100000,10334422.500000 14356784.900000,10342506.800000 14363280.600000,10349002.400000 14369860.900000,10351470.000000 14375551.700000,10351470.000000 14380320.500000,10349880.400000 14384328.000000,10346674.400000 14387633.900000,10341715.700000 14389360.000000,10334811.100000 14389360.000000,10327657.200000 14388502.600000,10323370.300000 14386923.000000,10319421.200000 14381742.500000,10314240.700000 14379481.200000,10312733.200000 14377551.700000,10312090.000000 14374788.300000,10312090.000000 14373228.200000,10312610.000000 14368500.100000,10317338.100000 14367698.900000,10319741.700000 14365301.300000,10324536.900000 14360126.200000,10329711.900000 14355360.000000,10320179.400000 14355360.000000,10306964.700000 14356421.900000,10300593.000000 14357502.600000,10295189.800000 14359819.700000,10289397.100000 14363157.700000,10284946.400000 14367622.600000,10279365.200000 14378640.400000,10272754.600000 14386405.900000,10270535.900000 14394932.800000,10269470.000000 14541368.200000,10269470.000000 Z"/> 
<path style="fill-opacity: 1.0;stroke-width: 0.100000;stroke-opacity: 1;stroke-linecap: round;stroke-linejoin: round;fill-rule: evenodd" d="M 15350010.000000,10686936.400000 15350010.000000,10816401.400000 15348933.600000,10822860.000000 14962260.000000,10822860.000000 14959010.000000,10818526.700000 14959010.000000,10689110.000000 14963343.300000,10685860.000000 15343551.400000,10685860.000000 Z"/> 
<path style="fill-opacity: 1.0;stroke-width: 0.100000;stroke-opacity: 1;stroke-linecap: round;stroke-linejoin: round;fill-rule: evenodd" d="M 15068010.000000,10225193.300000 15068010.000000,10265456.300000 15065848.500000,10270860.000000 15051448.400000,10270860.000000 15043254.400000,10268811.500000 15038156.400000,10263713.600000 15033073.000000,10258630.100000 15031021.400000,10252475.300000 15030004.900000,10245360.000000 15031026.500000,10238209.000000 15034086.500000,10232089.000000 15038168.100000,10226987.000000 15044288.400000,10222906.800000 15050428.900000,10220860.000000 15064760.000000,10220860.000000 Z"/> 
<path style="fill-opacity: 1.0;stroke-width: 0.100000;stroke-opacity: 1;stroke-linecap: round;stroke-linejoin: round;fill-rule: evenodd" d="M 15269922.300000,10241049.500000 15275260.000000,10253860.000000 15260149.600000,10253860.000000 15258978.900000,10250347.900000 15264288.700000,10236542.600000 Z"/> 
<path style="fill-opacity: 1.0;stroke-width: 0.100000;stroke-opacity: 1;stroke-linecap: round;stroke-linejoin: round;fill-rule: evenodd" d="M 15350010.000000,10182193.300000 15350010.000000,10311610.000000 15346364.100000,10314344.400000 15347106.600000,10314860.000000 15345676.600000,10314860.000000 15345511.400000,10314983.900000 15345344.600000,10314860.000000 14924816.300000,10314860.000000 14927047.400000,10308166.600000 14957969.600000,10247319.800000 14956047.000000,10241552.000000 14925901.600000,10181261.300000 14929302.900000,10177860.000000 15346760.000000,10177860.000000 Z"/> 
</g> 
</g><g id="substrate-outline" style="fill:#000000; stroke:#000000; stroke-width: 15000.0"><g style="fill-opacity: 0.0;stroke-opacity: 1;stroke-linecap: round;stroke-linejoin: round">
<path d="M14151610 11008360 L15548610 11008360 "/>
<path d="M15548610 11008360 L15548610 9992360 "/>
<path d="M14151610 9992360 L14151610 11008360 "/>
<path d="M15548610 9992360 L14151610 9992360 "/>
</g> 
<path d="M -45000.0 0.0 A 45000.0 45000.0 0 1 1 45000.0 0.0 L 45000.0 -0.0 A 45000.0 45000.0 0 1 1 -45000.0 -0.0 Z" transform="translate(14405610.0 10627360.0) rotate(-0.0)"/><path d="M -50800.0 0.0 A 50800.0 50800.0 0 1 1 50800.0 0.0 L 50800.0 -0.0 A 50800.0 50800.0 0 1 1 -50800.0 -0.0 Z" transform="translate(15421610.0 10754360.0) rotate(-180.0)"/><path d="M -50800.0 0.0 A 50800.0 50800.0 0 1 1 50800.0 0.0 L 50800.0 -0.0 A 50800.0 50800.0 0 1 1 -50800.0 -0.0 Z" transform="translate(15421610.0 10500360.0) rotate(-180.0)"/><path d="M -50800.0 0.0 A 50800.0 50800.0 0 1 1 50800.0 0.0 L 50800.0 -0.0 A 50800.0 50800.0 0 1 1 -50800.0 -0.0 Z" transform="translate(15421610.0 10246360.0) rotate(-180.0)"/><path d="M -19050.0 0.0 A 19050.0 19050.0 0 1 1 19050.0 0.0 L 19050.0 -0.0 A 19050.0 19050.0 0 1 1 -19050.0 -0.0 Z" transform="translate(14405610.0 10246360.0) rotate(-180.0)"/><path d="M -19050.0 0.0 A 19050.0 19050.0 0 1 1 19050.0 0.0 L 19050.0 -0.0 A 19050.0 19050.0 0 1 1 -19050.0 -0.0 Z" transform="translate(15485110.0 10947400.0) rotate(0.0)"/><path d="M -19050.0 0.0 A 19050.0 19050.0 0 1 1 19050.0 0.0 L 19050.0 -0.0 A 19050.0 19050.0 0 1 1 -19050.0 -0.0 Z" transform="translate(15406370.0 10053320.0) rotate(0.0)"/><path d="M -19050.0 0.0 A 19050.0 19050.0 0 1 1 19050.0 0.0 L 19050.0 -0.0 A 19050.0 19050.0 0 1 1 -19050.0 -0.0 Z" transform="translate(14530324.0 10317734.1) rotate(0.0)"/><path d="M -19050.0 0.0 A 19050.0 19050.0 0 1 1 19050.0 0.0 L 19050.0 -0.0 A 19050.0 19050.0 0 1 1 -19050.0 -0.0 Z" transform="translate(14220190.0 10228580.0) rotate(0.0)"/><path d="M -19050.0 0.0 A 19050.0 19050.0 0 1 1 19050.0 0.0 L 19050.0 -0.0 A 19050.0 19050.0 0 1 1 -19050.0 -0.0 Z" transform="translate(15050770.0 10845800.0) rotate(0.0)"/><path d="M -19050.0 0.0 A 19050.0 19050.0 0 1 1 19050.0 0.0 L 19050.0 -0.0 A 19050.0 19050.0 0 1 1 -19050.0 -0.0 Z" transform="translate(15099030.0 10617200.0) rotate(0.0)"/><path d="M -19050.0 0.0 A 19050.0 19050.0 0 1 1 19050.0 0.0 L 19050.0 -0.0 A 19050.0 19050.0 0 1 1 -19050.0 -0.0 Z" transform="translate(14697710.0 10538460.0) rotate(0.0)"/><path d="M -19050.0 0.0 A 19050.0 19050.0 0 1 1 19050.0 0.0 L 19050.0 -0.0 A 19050.0 19050.0 0 1 1 -19050.0 -0.0 Z" transform="translate(14845030.0 10487660.0) rotate(0.0)"/><path d="M -19050.0 0.0 A 19050.0 19050.0 0 1 1 19050.0 0.0 L 19050.0 -0.0 A 19050.0 19050.0 0 1 1 -19050.0 -0.0 Z" transform="translate(14608810.0 10769600.0) rotate(0.0)"/></g></g></g></svg>