<!DOCTYPE svg PUBLIC "-//W3C//DTD SVG 1.1//EN" "http://www.w3.org/Graphics/SVG/1.1/DTD/svg11.dtd">
<svg xmlns="http://www.w3.org/2000/svg" version="1.1" width="28.67mm" height="24.86mm" viewBox="-162836100.0 92573600.0 28670000.0 24860000.0">
            <title>Picture generated by PcbDraw </title>
            <desc>Picture generated by PcbDraw</desc>
        <defs><clipPath id="cut-off"><path d=" M 135166100.0 93573600.0 L 161836100.0 93573600.0 L 161836100.0 116433600.0 L 135166100.0 116433600.0 L 135166100.0 93573600.0 " style="fill-rule: evenodd;"/></clipPath><mask id="pads-mask"><g style="fill:#ffffff; fill-opacity:0.0;  stroke:#ffffff; stroke-width:0.000000; stroke-opacity:1;  stroke-linecap:round; stroke-linejoin:round;">
<g style="fill:#ffffff; fill-opacity:1.0;  stroke:#ffffff; stroke-width:1.000000; stroke-opacity:1;  stroke-linecap:round; stroke-linejoin:round;">
<circle cx="137706100.000000" cy="113893600.000000" r="1041400.000000"/> 
</g>
<g style="fill:#ffffff; fill-opacity:1.0;  stroke:#ffffff; stroke-width:1.000000; stroke-opacity:1;  stroke-linecap:round; stroke-linejoin:round;">
<circle cx="140246100.000000" cy="113893600.000000" r="1041400.000000"/> 
</g>
<g style="fill:#ffffff; fill-opacity:1.0;  stroke:#ffffff; stroke-width:1.000000; stroke-opacity:1;  stroke-linecap:round; stroke-linejoin:round;">
<circle cx="142786100.000000" cy="113893600.000000" r="1041400.000000"/> 
</g>
<g style="fill:#ffffff; fill-opacity:1.0;  stroke:#ffffff; stroke-width:1.000000; stroke-opacity:1;  stroke-linecap:round; stroke-linejoin:round;">
<circle cx="145326100.000000" cy="113893600.000000" r="1041400.000000"/> 
</g>
<g style="fill:#ffffff; fill-opacity:1.0;  stroke:#ffffff; stroke-width:1.000000; stroke-opacity:1;  stroke-linecap:round; stroke-linejoin:round;">
<circle cx="147866100.000000" cy="113893600.000000" r="1041400.000000"/> 
</g>
<g style="fill:#ffffff; fill-opacity:1.0;  stroke:#ffffff; stroke-width:1.000000; stroke-opacity:1;  stroke-linecap:round; stroke-linejoin:round;">
<circle cx="150406100.000000" cy="113893600.000000" r="1041400.000000"/> 
</g>
<g style="fill:#ffffff; fill-opacity:1.0;  stroke:#ffffff; stroke-width:1.000000; stroke-opacity:1;  stroke-linecap:round; stroke-linejoin:round;">
<circle cx="152946100.000000" cy="113893600.000000" r="1041400.000000"/> 
</g>
<g style="fill:#ffffff; fill-opacity:1.0;  stroke:#ffffff; stroke-width:1.000000; stroke-opacity:1;  stroke-linecap:round; stroke-linejoin:round;">
<circle cx="155486100.000000" cy="113893600.000000" r="1041400.000000"/> 
</g>
<g style="fill:#ffffff; fill-opacity:1.0;  stroke:#ffffff; stroke-width:1.000000; stroke-opacity:1;  stroke-linecap:round; stroke-linejoin:round;">
<circle cx="158026100.000000" cy="113893600.000000" r="1041400.000000"/> 
</g>
<g style="fill:#ffffff; fill-opacity:1.0;  stroke:#ffffff; stroke-width:1.000000; stroke-opacity:1;  stroke-linecap:round; stroke-linejoin:round;">
<circle cx="156756100.000000" cy="107203600.000000" r="450000.000000"/> 
</g>
<g style="fill:#ffffff; fill-opacity:1.0;  stroke:#ffffff; stroke-width:1.000000; stroke-opacity:1;  stroke-linecap:round; stroke-linejoin:round;">
<circle cx="156756100.000000" cy="102803600.000000" r="450000.000000"/> 
</g>
<g style="fill:#ffffff; fill-opacity:1.0;  stroke:#ffffff; stroke-width:1.000000; stroke-opacity:1;  stroke-linecap:round; stroke-linejoin:round;">
<circle cx="158026100.000000" cy="96113600.000000" r="1041400.000000"/> 
</g>
<g style="fill:#ffffff; fill-opacity:1.0;  stroke:#ffffff; stroke-width:1.000000; stroke-opacity:1;  stroke-linecap:round; stroke-linejoin:round;">
<circle cx="155486100.000000" cy="96113600.000000" r="1041400.000000"/> 
</g>
<g style="fill:#ffffff; fill-opacity:1.0;  stroke:#ffffff; stroke-width:1.000000; stroke-opacity:1;  stroke-linecap:round; stroke-linejoin:round;">
<circle cx="152946100.000000" cy="96113600.000000" r="1041400.000000"/> 
</g>
<g style="fill:#ffffff; fill-opacity:1.0;  stroke:#ffffff; stroke-width:1.000000; stroke-opacity:1;  stroke-linecap:round; stroke-linejoin:round;">
<circle cx="150406100.000000" cy="96113600.000000" r="1041400.000000"/> 
</g>
<g style="fill:#ffffff; fill-opacity:1.0;  stroke:#ffffff; stroke-width:1.000000; stroke-opacity:1;  stroke-linecap:round; stroke-linejoin:round;">
<circle cx="147866100.000000" cy="96113600.000000" r="1041400.000000"/> 
</g>
<g style="fill:#ffffff; fill-opacity:1.0;  stroke:#ffffff; stroke-width:1.000000; stroke-opacity:1;  stroke-linecap:round; stroke-linejoin:round;">
<circle cx="145326100.000000" cy="96113600.000000" r="1041400.000000"/> 
</g>
<g style="fill:#ffffff; fill-opacity:1.0;  stroke:#ffffff; stroke-width:1.000000; stroke-opacity:1;  stroke-linecap:round; stroke-linejoin:round;">
<circle cx="142786100.000000" cy="96113600.000000" r="1041400.000000"/> 
</g>
<g style="fill:#ffffff; fill-opacity:1.0;  stroke:#ffffff; stroke-width:1.000000; stroke-opacity:1;  stroke-linecap:round; stroke-linejoin:round;">
<circle cx="140246100.000000" cy="96113600.000000" r="1041400.000000"/> 
</g>
<g style="fill:#ffffff; fill-opacity:1.0;  stroke:#ffffff; stroke-width:1.000000; stroke-opacity:1;  stroke-linecap:round; stroke-linejoin:round;">
<circle cx="137706100.000000" cy="96113600.000000" r="1041400.000000"/> 
</g>
</g> 
</mask><mask id="pads-mask-silkscreen"><rect x="134931404" y="92862400" width="27826296" height="24282400" fill="white"/><g style="fill:#000000; fill-opacity:0.0;  stroke:#000000; stroke-width:0.000000; stroke-opacity:1;  stroke-linecap:round; stroke-linejoin:round;">
<g style="fill:#000000; fill-opacity:1.0;  stroke:#000000; stroke-width:1.000000; stroke-opacity:1;  stroke-linecap:round; stroke-linejoin:round;">
<circle cx="137706100.000000" cy="113893600.000000" r="1041400.000000"/> 
</g>
<g style="fill:#000000; fill-opacity:1.0;  stroke:#000000; stroke-width:1.000000; stroke-opacity:1;  stroke-linecap:round; stroke-linejoin:round;">
<circle cx="140246100.000000" cy="113893600.000000" r="1041400.000000"/> 
</g>
<g style="fill:#000000; fill-opacity:1.0;  stroke:#000000; stroke-width:1.000000; stroke-opacity:1;  stroke-linecap:round; stroke-linejoin:round;">
<circle cx="142786100.000000" cy="113893600.000000" r="1041400.000000"/> 
</g>
<g style="fill:#000000; fill-opacity:1.0;  stroke:#000000; stroke-width:1.000000; stroke-opacity:1;  stroke-linecap:round; stroke-linejoin:round;">
<circle cx="145326100.000000" cy="113893600.000000" r="1041400.000000"/> 
</g>
<g style="fill:#000000; fill-opacity:1.0;  stroke:#000000; stroke-width:1.000000; stroke-opacity:1;  stroke-linecap:round; stroke-linejoin:round;">
<circle cx="147866100.000000" cy="113893600.000000" r="1041400.000000"/> 
</g>
<g style="fill:#000000; fill-opacity:1.0;  stroke:#000000; stroke-width:1.000000; stroke-opacity:1;  stroke-linecap:round; stroke-linejoin:round;">
<circle cx="150406100.000000" cy="113893600.000000" r="1041400.000000"/> 
</g>
<g style="fill:#000000; fill-opacity:1.0;  stroke:#000000; stroke-width:1.000000; stroke-opacity:1;  stroke-linecap:round; stroke-linejoin:round;">
<circle cx="152946100.000000" cy="113893600.000000" r="1041400.000000"/> 
</g>
<g style="fill:#000000; fill-opacity:1.0;  stroke:#000000; stroke-width:1.000000; stroke-opacity:1;  stroke-linecap:round; stroke-linejoin:round;">
<circle cx="155486100.000000" cy="113893600.000000" r="1041400.000000"/> 
</g>
<g style="fill:#000000; fill-opacity:1.0;  stroke:#000000; stroke-width:1.000000; stroke-opacity:1;  stroke-linecap:round; stroke-linejoin:round;">
<circle cx="158026100.000000" cy="113893600.000000" r="1041400.000000"/> 
</g>
<g style="fill:#000000; fill-opacity:1.0;  stroke:#000000; stroke-width:1.000000; stroke-opacity:1;  stroke-linecap:round; stroke-linejoin:round;">
<circle cx="156756100.000000" cy="107203600.000000" r="450000.000000"/> 
</g>
<g style="fill:#000000; fill-opacity:1.0;  stroke:#000000; stroke-width:1.000000; stroke-opacity:1;  stroke-linecap:round; stroke-linejoin:round;">
<circle cx="156756100.000000" cy="102803600.000000" r="450000.000000"/> 
</g>
<g style="fill:#000000; fill-opacity:1.0;  stroke:#000000; stroke-width:1.000000; stroke-opacity:1;  stroke-linecap:round; stroke-linejoin:round;">
<circle cx="158026100.000000" cy="96113600.000000" r="1041400.000000"/> 
</g>
<g style="fill:#000000; fill-opacity:1.0;  stroke:#000000; stroke-width:1.000000; stroke-opacity:1;  stroke-linecap:round; stroke-linejoin:round;">
<circle cx="155486100.000000" cy="96113600.000000" r="1041400.000000"/> 
</g>
<g style="fill:#000000; fill-opacity:1.0;  stroke:#000000; stroke-width:1.000000; stroke-opacity:1;  stroke-linecap:round; stroke-linejoin:round;">
<circle cx="152946100.000000" cy="96113600.000000" r="1041400.000000"/> 
</g>
<g style="fill:#000000; fill-opacity:1.0;  stroke:#000000; stroke-width:1.000000; stroke-opacity:1;  stroke-linecap:round; stroke-linejoin:round;">
<circle cx="150406100.000000" cy="96113600.000000" r="1041400.000000"/> 
</g>
<g style="fill:#000000; fill-opacity:1.0;  stroke:#000000; stroke-width:1.000000; stroke-opacity:1;  stroke-linecap:round; stroke-linejoin:round;">
<circle cx="147866100.000000" cy="96113600.000000" r="1041400.000000"/> 
</g>
<g style="fill:#000000; fill-opacity:1.0;  stroke:#000000; stroke-width:1.000000; stroke-opacity:1;  stroke-linecap:round; stroke-linejoin:round;">
<circle cx="145326100.000000" cy="96113600.000000" r="1041400.000000"/> 
</g>
<g style="fill:#000000; fill-opacity:1.0;  stroke:#000000; stroke-width:1.000000; stroke-opacity:1;  stroke-linecap:round; stroke-linejoin:round;">
<circle cx="142786100.000000" cy="96113600.000000" r="1041400.000000"/> 
</g>
<g style="fill:#000000; fill-opacity:1.0;  stroke:#000000; stroke-width:1.000000; stroke-opacity:1;  stroke-linecap:round; stroke-linejoin:round;">
<circle cx="140246100.000000" cy="96113600.000000" r="1041400.000000"/> 
</g>
<g style="fill:#000000; fill-opacity:1.0;  stroke:#000000; stroke-width:1.000000; stroke-opacity:1;  stroke-linecap:round; stroke-linejoin:round;">
<circle cx="137706100.000000" cy="96113600.000000" r="1041400.000000"/> 
</g>
</g> 
</mask><mask id="hole-mask"><g><rect x="134931404" y="92862400" fill="white" width="27826296" height="24282400"/><polyline stroke-linecap="round" stroke="black" stroke-width="1016000" points="0.0 0 0.0 0" transform="translate(137706100 113893600) rotate(-90.0)"/><polyline stroke-linecap="round" stroke="black" stroke-width="1016000" points="0.0 0 0.0 0" transform="translate(140246100 113893600) rotate(-90.0)"/><polyline stroke-linecap="round" stroke="black" stroke-width="1016000" points="0.0 0 0.0 0" transform="translate(142786100 113893600) rotate(-90.0)"/><polyline stroke-linecap="round" stroke="black" stroke-width="1016000" points="0.0 0 0.0 0" transform="translate(145326100 113893600) rotate(-90.0)"/><polyline stroke-linecap="round" stroke="black" stroke-width="1016000" points="0.0 0 0.0 0" transform="translate(147866100 113893600) rotate(-90.0)"/><polyline stroke-linecap="round" stroke="black" stroke-width="1016000" points="0.0 0 0.0 0" transform="translate(150406100 113893600) rotate(-90.0)"/><polyline stroke-linecap="round" stroke="black" stroke-width="1016000" points="0.0 0 0.0 0" transform="translate(152946100 113893600) rotate(-90.0)"/><polyline stroke-linecap="round" stroke="black" stroke-width="1016000" points="0.0 0 0.0 0" transform="translate(155486100 113893600) rotate(-90.0)"/><polyline stroke-linecap="round" stroke="black" stroke-width="1016000" points="0.0 0 0.0 0" transform="translate(158026100 113893600) rotate(-90.0)"/><polyline stroke-linecap="round" stroke="black" stroke-width="900000" points="0.0 0 0.0 0" transform="translate(156756100 107203600) rotate(-180.0)"/><polyline stroke-linecap="round" stroke="black" stroke-width="900000" points="0.0 0 0.0 0" transform="translate(156756100 102803600) rotate(-180.0)"/><polyline stroke-linecap="round" stroke="black" stroke-width="1016000" points="0.0 0 0.0 0" transform="translate(158026100 96113600) rotate(-270.0)"/><polyline stroke-linecap="round" stroke="black" stroke-width="1016000" points="0.0 0 0.0 0" transform="translate(155486100 96113600) rotate(-270.0)"/><polyline stroke-linecap="round" stroke="black" stroke-width="1016000" points="0.0 0 0.0 0" transform="translate(152946100 96113600) rotate(-270.0)"/><polyline stroke-linecap="round" stroke="black" stroke-width="1016000" points="0.0 0 0.0 0" transform="translate(150406100 96113600) rotate(-270.0)"/><polyline stroke-linecap="round" stroke="black" stroke-width="1016000" points="0.0 0 0.0 0" transform="translate(147866100 96113600) rotate(-270.0)"/><polyline stroke-linecap="round" stroke="black" stroke-width="1016000" points="0.0 0 0.0 0" transform="translate(145326100 96113600) rotate(-270.0)"/><polyline stroke-linecap="round" stroke="black" stroke-width="1016000" points="0.0 0 0.0 0" transform="translate(142786100 96113600) rotate(-270.0)"/><polyline stroke-linecap="round" stroke="black" stroke-width="1016000" points="0.0 0 0.0 0" transform="translate(140246100 96113600) rotate(-270.0)"/><polyline stroke-linecap="round" stroke="black" stroke-width="1016000" points="0.0 0 0.0 0" transform="translate(137706100 96113600) rotate(-270.0)"/><polyline stroke-linecap="round" stroke="black" stroke-width="508000" points="0.0 0 0.0 0" transform="translate(149263100 103098600) rotate(0.0)"/><polyline stroke-linecap="round" stroke="black" stroke-width="508000" points="0.0 0 0.0 0" transform="translate(156265900 98475800) rotate(0.0)"/><polyline stroke-linecap="round" stroke="black" stroke-width="508000" points="0.0 0 0.0 0" transform="translate(144086600 111173300) rotate(0.0)"/><polyline stroke-linecap="round" stroke="black" stroke-width="508000" points="0.0 0 0.0 0" transform="translate(144564100 106273600) rotate(0.0)"/><polyline stroke-linecap="round" stroke="black" stroke-width="508000" points="0.0 0 0.0 0" transform="translate(146596100 107035600) rotate(0.0)"/><polyline stroke-linecap="round" stroke="black" stroke-width="508000" points="0.0 0 0.0 0" transform="translate(142786100 106273600) rotate(0.0)"/><polyline stroke-linecap="round" stroke="black" stroke-width="508000" points="0.0 0 0.0 0" transform="translate(146342100 105765600) rotate(0.0)"/><polyline stroke-linecap="round" stroke="black" stroke-width="508000" points="0.0 0 0.0 0" transform="translate(149136100 105765600) rotate(0.0)"/><polyline stroke-linecap="round" stroke="black" stroke-width="508000" points="0.0 0 0.0 0" transform="translate(151041100 107162600) rotate(0.0)"/><polyline stroke-linecap="round" stroke="black" stroke-width="508000" points="0.0 0 0.0 0" transform="translate(147866100 105765600) rotate(0.0)"/><polyline stroke-linecap="round" stroke="black" stroke-width="508000" points="0.0 0 0.0 0" transform="translate(152184100 107797600) rotate(0.0)"/></g></mask></defs><g transform="scale(-1,1)" id="boardContainer"><g id="substrate" clip-path="url(#cut-off)" mask="url(#hole-mask)"><g id="substrate-board" style="fill:#4ca06c; stroke:#4ca06c;"><path d=" M 135166100.0 93573600.0 L 161836100.0 93573600.0 L 161836100.0 116433600.0 L 135166100.0 116433600.0 L 135166100.0 93573600.0 " style="fill-rule: evenodd;"/><g style="fill-opacity: 0.0;stroke-width: 203200.000000;stroke-opacity: 1;stroke-linecap: round;stroke-linejoin: round">
<path d="M135166100 116433600 L135166100 93573600 "/>
<path d="M135166100 93573600 L161836100 93573600 "/>
<path d="M161836100 116433600 L135166100 116433600 "/>
<path d="M161836100 93573600 L161836100 116433600 "/>
</g> 
</g><g id="substrate-clad" style="fill:#9c6b28; stroke:#9c6b28;"><g style="fill-opacity: 0.0;stroke-width: 0.000000;stroke-opacity: 1;stroke-linecap: round;stroke-linejoin: round">
<g style="fill-opacity: 1.0;stroke-width: 1.000000;stroke-opacity: 1;stroke-linecap: round;stroke-linejoin: round">
<circle cx="137706100.000000" cy="113893600.000000" r="1041400.000000"/> 
</g>
<g style="fill-opacity: 1.0;stroke-width: 1.000000;stroke-opacity: 1;stroke-linecap: round;stroke-linejoin: round">
<circle cx="140246100.000000" cy="113893600.000000" r="1041400.000000"/> 
</g>
<g style="fill-opacity: 1.0;stroke-width: 1.000000;stroke-opacity: 1;stroke-linecap: round;stroke-linejoin: round">
<circle cx="142786100.000000" cy="113893600.000000" r="1041400.000000"/> 
</g>
<g style="fill-opacity: 1.0;stroke-width: 1.000000;stroke-opacity: 1;stroke-linecap: round;stroke-linejoin: round">
<circle cx="145326100.000000" cy="113893600.000000" r="1041400.000000"/> 
</g>
<g style="fill-opacity: 1.0;stroke-width: 1.000000;stroke-opacity: 1;stroke-linecap: round;stroke-linejoin: round">
<circle cx="147866100.000000" cy="113893600.000000" r="1041400.000000"/> 
</g>
<g style="fill-opacity: 1.0;stroke-width: 1.000000;stroke-opacity: 1;stroke-linecap: round;stroke-linejoin: round">
<circle cx="150406100.000000" cy="113893600.000000" r="1041400.000000"/> 
</g>
<g style="fill-opacity: 1.0;stroke-width: 1.000000;stroke-opacity: 1;stroke-linecap: round;stroke-linejoin: round">
<circle cx="152946100.000000" cy="113893600.000000" r="1041400.000000"/> 
</g>
<g style="fill-opacity: 1.0;stroke-width: 1.000000;stroke-opacity: 1;stroke-linecap: round;stroke-linejoin: round">
<circle cx="155486100.000000" cy="113893600.000000" r="1041400.000000"/> 
</g>
<g style="fill-opacity: 1.0;stroke-width: 1.000000;stroke-opacity: 1;stroke-linecap: round;stroke-linejoin: round">
<circle cx="158026100.000000" cy="113893600.000000" r="1041400.000000"/> 
</g>
<g style="fill-opacity: 1.0;stroke-width: 1.000000;stroke-opacity: 1;stroke-linecap: round;stroke-linejoin: round">
<circle cx="156756100.000000" cy="107203600.000000" r="450000.000000"/> 
</g>
<g style="fill-opacity: 1.0;stroke-width: 1.000000;stroke-opacity: 1;stroke-linecap: round;stroke-linejoin: round">
<circle cx="156756100.000000" cy="102803600.000000" r="450000.000000"/> 
</g>
<g style="fill-opacity: 1.0;stroke-width: 1.000000;stroke-opacity: 1;stroke-linecap: round;stroke-linejoin: round">
<circle cx="158026100.000000" cy="96113600.000000" r="1041400.000000"/> 
</g>
<g style="fill-opacity: 1.0;stroke-width: 1.000000;stroke-opacity: 1;stroke-linecap: round;stroke-linejoin: round">
<circle cx="155486100.000000" cy="96113600.000000" r="1041400.000000"/> 
</g>
<g style="fill-opacity: 1.0;stroke-width: 1.000000;stroke-opacity: 1;stroke-linecap: round;stroke-linejoin: round">
<circle cx="152946100.000000" cy="96113600.000000" r="1041400.000000"/> 
</g>
<g style="fill-opacity: 1.0;stroke-width: 1.000000;stroke-opacity: 1;stroke-linecap: round;stroke-linejoin: round">
<circle cx="150406100.000000" cy="96113600.000000" r="1041400.000000"/> 
</g>
<g style="fill-opacity: 1.0;stroke-width: 1.000000;stroke-opacity: 1;stroke-linecap: round;stroke-linejoin: round">
<circle cx="147866100.000000" cy="96113600.000000" r="1041400.000000"/> 
</g>
<g style="fill-opacity: 1.0;stroke-width: 1.000000;stroke-opacity: 1;stroke-linecap: round;stroke-linejoin: round">
<circle cx="145326100.000000" cy="96113600.000000" r="1041400.000000"/> 
</g>
<g style="fill-opacity: 1.0;stroke-width: 1.000000;stroke-opacity: 1;stroke-linecap: round;stroke-linejoin: round">
<circle cx="142786100.000000" cy="96113600.000000" r="1041400.000000"/> 
</g>
<g style="fill-opacity: 1.0;stroke-width: 1.000000;stroke-opacity: 1;stroke-linecap: round;stroke-linejoin: round">
<circle cx="140246100.000000" cy="96113600.000000" r="1041400.000000"/> 
</g>
<g style="fill-opacity: 1.0;stroke-width: 1.000000;stroke-opacity: 1;stroke-linecap: round;stroke-linejoin: round">
<circle cx="137706100.000000" cy="96113600.000000" r="1041400.000000"/> 
</g>
</g> 
</g><g id="substrate-copper" style="fill:#417e5a; stroke:#417e5a;"><g style="fill-opacity: 0.0;stroke-width: 152400.000000;stroke-opacity: 1;stroke-linecap: round;stroke-linejoin: round">
<g transform="rotate(90.000000 136436100.000000 102463600.000000)">
<text x="136436100.000000" y="103327200.000000" transform="scale(-1 1) translate(-272872200.000000 0)" textLength="5921828.000000" font-size="1151466.000000" lengthAdjust="spacingAndGlyphs" text-anchor="end" opacity="0">12/1/09</text>
</g>
<g class="stroked-text"><desc>12/1/09</desc>
<path d="M135613623 107826507 L135613623 108319993 "/>
<path d="M135613623 108073250 L136477223 108073250 L136353852 108155498 L136271604 108237745 L136230480 108319993 "/>
<path d="M136394976 107497517 L136436100 107456393 L136477223 107374145 L136477223 107168526 L136436100 107086279 L136394976 107045155 L136312728 107004031 L136230480 107004031 L136107109 107045155 L135613623 107538640 L135613623 107004031 "/>
<path d="M136518347 106017060 L135408004 106757288 "/>
<path d="M135613623 105276831 L135613623 105770317 "/>
<path d="M135613623 105523574 L136477223 105523574 L136353852 105605821 L136271604 105688069 L136230480 105770317 "/>
<path d="M136518347 104289860 L135408004 105030088 "/>
<path d="M136477223 103837498 L136477223 103755250 L136436100 103673002 L136394976 103631879 L136312728 103590755 L136148233 103549631 L135942614 103549631 L135778119 103590755 L135695871 103631879 L135654747 103673002 L135613623 103755250 L135613623 103837498 L135654747 103919745 L135695871 103960869 L135778119 104001993 L135942614 104043117 L136148233 104043117 L136312728 104001993 L136394976 103960869 L136436100 103919745 L136477223 103837498 "/>
<path d="M135613623 103138393 L135613623 102973898 L135654747 102891650 L135695871 102850526 L135819242 102768279 L135983738 102727155 L136312728 102727155 L136394976 102768279 L136436100 102809402 L136477223 102891650 L136477223 103056145 L136436100 103138393 L136394976 103179517 L136312728 103220640 L136107109 103220640 L136024861 103179517 L135983738 103138393 L135942614 103056145 L135942614 102891650 L135983738 102809402 L136024861 102768279 L136107109 102727155 "/>
</g><g style="fill-opacity: 1.0;stroke-width: 1.000000;stroke-opacity: 1;stroke-linecap: round;stroke-linejoin: round">
<circle cx="137706100.000000" cy="113893600.000000" r="939800.000000"/> 
</g>
<g style="fill-opacity: 1.0;stroke-width: 1.000000;stroke-opacity: 1;stroke-linecap: round;stroke-linejoin: round">
<circle cx="140246100.000000" cy="113893600.000000" r="939800.000000"/> 
</g>
<g style="fill-opacity: 1.0;stroke-width: 1.000000;stroke-opacity: 1;stroke-linecap: round;stroke-linejoin: round">
<circle cx="142786100.000000" cy="113893600.000000" r="939800.000000"/> 
</g>
<g style="fill-opacity: 1.0;stroke-width: 1.000000;stroke-opacity: 1;stroke-linecap: round;stroke-linejoin: round">
<circle cx="145326100.000000" cy="113893600.000000" r="939800.000000"/> 
</g>
<g style="fill-opacity: 1.0;stroke-width: 1.000000;stroke-opacity: 1;stroke-linecap: round;stroke-linejoin: round">
<circle cx="147866100.000000" cy="113893600.000000" r="939800.000000"/> 
</g>
<g style="fill-opacity: 1.0;stroke-width: 1.000000;stroke-opacity: 1;stroke-linecap: round;stroke-linejoin: round">
<circle cx="150406100.000000" cy="113893600.000000" r="939800.000000"/> 
</g>
<g style="fill-opacity: 1.0;stroke-width: 1.000000;stroke-opacity: 1;stroke-linecap: round;stroke-linejoin: round">
<circle cx="152946100.000000" cy="113893600.000000" r="939800.000000"/> 
</g>
<g style="fill-opacity: 1.0;stroke-width: 1.000000;stroke-opacity: 1;stroke-linecap: round;stroke-linejoin: round">
<circle cx="155486100.000000" cy="113893600.000000" r="939800.000000"/> 
</g>
<g style="fill-opacity: 1.0;stroke-width: 1.000000;stroke-opacity: 1;stroke-linecap: round;stroke-linejoin: round">
<circle cx="158026100.000000" cy="113893600.000000" r="939800.000000"/> 
</g>
<g style="fill-opacity: 1.0;stroke-width: 1.000000;stroke-opacity: 1;stroke-linecap: round;stroke-linejoin: round">
<circle cx="158026100.000000" cy="96113600.000000" r="939800.000000"/> 
</g>
<g style="fill-opacity: 1.0;stroke-width: 1.000000;stroke-opacity: 1;stroke-linecap: round;stroke-linejoin: round">
<circle cx="155486100.000000" cy="96113600.000000" r="939800.000000"/> 
</g>
<g style="fill-opacity: 1.0;stroke-width: 1.000000;stroke-opacity: 1;stroke-linecap: round;stroke-linejoin: round">
<circle cx="152946100.000000" cy="96113600.000000" r="939800.000000"/> 
</g>
<g style="fill-opacity: 1.0;stroke-width: 1.000000;stroke-opacity: 1;stroke-linecap: round;stroke-linejoin: round">
<circle cx="150406100.000000" cy="96113600.000000" r="939800.000000"/> 
</g>
<g style="fill-opacity: 1.0;stroke-width: 1.000000;stroke-opacity: 1;stroke-linecap: round;stroke-linejoin: round">
<circle cx="147866100.000000" cy="96113600.000000" r="939800.000000"/> 
</g>
<g style="fill-opacity: 1.0;stroke-width: 1.000000;stroke-opacity: 1;stroke-linecap: round;stroke-linejoin: round">
<circle cx="145326100.000000" cy="96113600.000000" r="939800.000000"/> 
</g>
<g style="fill-opacity: 1.0;stroke-width: 1.000000;stroke-opacity: 1;stroke-linecap: round;stroke-linejoin: round">
<circle cx="142786100.000000" cy="96113600.000000" r="939800.000000"/> 
</g>
<g style="fill-opacity: 1.0;stroke-width: 1.000000;stroke-opacity: 1;stroke-linecap: round;stroke-linejoin: round">
<circle cx="140246100.000000" cy="96113600.000000" r="939800.000000"/> 
</g>
<g style="fill-opacity: 1.0;stroke-width: 1.000000;stroke-opacity: 1;stroke-linecap: round;stroke-linejoin: round">
<circle cx="137706100.000000" cy="96113600.000000" r="939800.000000"/> 
</g>
<g style="fill-opacity: 1.0;stroke-width: 1.000000;stroke-opacity: 1;stroke-linecap: round;stroke-linejoin: round">
<circle cx="149263100.000000" cy="103098600.000000" r="508000.000000"/> 
</g>
<g style="fill-opacity: 1.0;stroke-width: 1.000000;stroke-opacity: 1;stroke-linecap: round;stroke-linejoin: round">
<circle cx="156265900.000000" cy="98475800.000000" r="508000.000000"/> 
</g>
<g style="fill-opacity: 1.0;stroke-width: 1.000000;stroke-opacity: 1;stroke-linecap: round;stroke-linejoin: round">
<circle cx="144086600.000000" cy="111173300.000000" r="508000.000000"/> 
</g>
<g style="fill-opacity: 1.0;stroke-width: 1.000000;stroke-opacity: 1;stroke-linecap: round;stroke-linejoin: round">
<circle cx="144564100.000000" cy="106273600.000000" r="508000.000000"/> 
</g>
<g style="fill-opacity: 1.0;stroke-width: 1.000000;stroke-opacity: 1;stroke-linecap: round;stroke-linejoin: round">
<circle cx="146596100.000000" cy="107035600.000000" r="508000.000000"/> 
</g>
<g style="fill-opacity: 1.0;stroke-width: 1.000000;stroke-opacity: 1;stroke-linecap: round;stroke-linejoin: round">
<circle cx="142786100.000000" cy="106273600.000000" r="508000.000000"/> 
</g>
<g style="fill-opacity: 1.0;stroke-width: 1.000000;stroke-opacity: 1;stroke-linecap: round;stroke-linejoin: round">
<circle cx="146342100.000000" cy="105765600.000000" r="508000.000000"/> 
</g>
<g style="fill-opacity: 1.0;stroke-width: 1.000000;stroke-opacity: 1;stroke-linecap: round;stroke-linejoin: round">
<circle cx="149136100.000000" cy="105765600.000000" r="508000.000000"/> 
</g>
<g style="fill-opacity: 1.0;stroke-width: 1.000000;stroke-opacity: 1;stroke-linecap: round;stroke-linejoin: round">
<circle cx="151041100.000000" cy="107162600.000000" r="508000.000000"/> 
</g>
<g style="fill-opacity: 1.0;stroke-width: 1.000000;stroke-opacity: 1;stroke-linecap: round;stroke-linejoin: round">
<circle cx="147866100.000000" cy="105765600.000000" r="508000.000000"/> 
</g>
<g style="fill-opacity: 1.0;stroke-width: 1.000000;stroke-opacity: 1;stroke-linecap: round;stroke-linejoin: round">
<circle cx="152184100.000000" cy="107797600.000000" r="508000.000000"/> 
</g>
<g style="fill-opacity: 0.0;stroke-width: 254000.000000;stroke-opacity: 1;stroke-linecap: round;stroke-linejoin: round">
<path d="M144955300 106664800 L144564100 106273600 "/>
<path d="M142786100 113893600 L144955300 111724400 "/>
<path d="M144955300 111724400 L144955300 106664800 "/>
<path d="M146596100 110083600 L146596100 107035600 "/>
<path d="M147866100 113893600 L147866100 111353600 "/>
<path d="M147866100 111353600 L146596100 110083600 "/>
<path d="M146596100 111277400 L145412500 110093800 "/>
<path d="M144945100 105384600 L143675100 105384600 "/>
<path d="M145412500 105852000 L144945100 105384600 "/>
<path d="M146596100 114528600 L146596100 111277400 "/>
<path d="M145412500 110093800 L145412500 105852000 "/>
<path d="M146596100 114528600 L147231100 115163600 "/>
<path d="M147231100 115163600 L149136100 115163600 "/>
<path d="M143675100 105384600 L142786100 106273600 "/>
<path d="M149136100 115163600 L150406100 113893600 "/>
<path d="M156756100 112623600 L158026100 113893600 "/>
<path d="M146342100 105765600 L146596100 105765600 "/>
<path d="M153454100 112623600 L156756100 112623600 "/>
<path d="M146596100 105765600 L153454100 112623600 "/>
<path d="M149136100 105765600 L148374100 105003600 "/>
<path d="M148374100 99161600 L145326100 96113600 "/>
<path d="M148374100 105003600 L148374100 99161600 "/>
<path d="M151041100 107162600 L151041100 99288600 "/>
<path d="M151041100 99288600 L147866100 96113600 "/>
<path d="M147866100 101193600 L142786100 96113600 "/>
<path d="M147866100 105765600 L147866100 101193600 "/>
<path d="M152184100 107797600 L152184100 99415600 "/>
<path d="M152184100 99415600 L155486100 96113600 "/>
</g>
</g> 
</g><g id="substrate-pads" style="fill:#b5ae30; stroke:#b5ae30;" mask="url(#pads-mask)"><g style="fill-opacity: 0.0;stroke-width: 152400.000000;stroke-opacity: 1;stroke-linecap: round;stroke-linejoin: round">
<g transform="rotate(90.000000 136436100.000000 102463600.000000)">
<text x="136436100.000000" y="103327200.000000" transform="scale(-1 1) translate(-272872200.000000 0)" textLength="5723709.000000" font-size="1151466.000000" lengthAdjust="spacingAndGlyphs" text-anchor="end" opacity="0">12/1/09</text>
</g>
<g class="stroked-text"><desc>12/1/09</desc>
<path d="M135613623 107826507 L135613623 108319993 "/>
<path d="M135613623 108073250 L136477223 108073250 L136353852 108155498 L136271604 108237745 L136230480 108319993 "/>
<path d="M136394976 107497517 L136436100 107456393 L136477223 107374145 L136477223 107168526 L136436100 107086279 L136394976 107045155 L136312728 107004031 L136230480 107004031 L136107109 107045155 L135613623 107538640 L135613623 107004031 "/>
<path d="M136518347 106017060 L135408004 106757288 "/>
<path d="M135613623 105276831 L135613623 105770317 "/>
<path d="M135613623 105523574 L136477223 105523574 L136353852 105605821 L136271604 105688069 L136230480 105770317 "/>
<path d="M136518347 104289860 L135408004 105030088 "/>
<path d="M136477223 103837498 L136477223 103755250 L136436100 103673002 L136394976 103631879 L136312728 103590755 L136148233 103549631 L135942614 103549631 L135778119 103590755 L135695871 103631879 L135654747 103673002 L135613623 103755250 L135613623 103837498 L135654747 103919745 L135695871 103960869 L135778119 104001993 L135942614 104043117 L136148233 104043117 L136312728 104001993 L136394976 103960869 L136436100 103919745 L136477223 103837498 "/>
<path d="M135613623 103138393 L135613623 102973898 L135654747 102891650 L135695871 102850526 L135819242 102768279 L135983738 102727155 L136312728 102727155 L136394976 102768279 L136436100 102809402 L136477223 102891650 L136477223 103056145 L136436100 103138393 L136394976 103179517 L136312728 103220640 L136107109 103220640 L136024861 103179517 L135983738 103138393 L135942614 103056145 L135942614 102891650 L135983738 102809402 L136024861 102768279 L136107109 102727155 "/>
</g><g style="fill-opacity: 1.0;stroke-width: 1.000000;stroke-opacity: 1;stroke-linecap: round;stroke-linejoin: round">
<circle cx="137706100.000000" cy="113893600.000000" r="939800.000000"/> 
</g>
<g style="fill-opacity: 1.0;stroke-width: 1.000000;stroke-opacity: 1;stroke-linecap: round;stroke-linejoin: round">
<circle cx="140246100.000000" cy="113893600.000000" r="939800.000000"/> 
</g>
<g style="fill-opacity: 1.0;stroke-width: 1.000000;stroke-opacity: 1;stroke-linecap: round;stroke-linejoin: round">
<circle cx="142786100.000000" cy="113893600.000000" r="939800.000000"/> 
</g>
<g style="fill-opacity: 1.0;stroke-width: 1.000000;stroke-opacity: 1;stroke-linecap: round;stroke-linejoin: round">
<circle cx="145326100.000000" cy="113893600.000000" r="939800.000000"/> 
</g>
<g style="fill-opacity: 1.0;stroke-width: 1.000000;stroke-opacity: 1;stroke-linecap: round;stroke-linejoin: round">
<circle cx="147866100.000000" cy="113893600.000000" r="939800.000000"/> 
</g>
<g style="fill-opacity: 1.0;stroke-width: 1.000000;stroke-opacity: 1;stroke-linecap: round;stroke-linejoin: round">
<circle cx="150406100.000000" cy="113893600.000000" r="939800.000000"/> 
</g>
<g style="fill-opacity: 1.0;stroke-width: 1.000000;stroke-opacity: 1;stroke-linecap: round;stroke-linejoin: round">
<circle cx="152946100.000000" cy="113893600.000000" r="939800.000000"/> 
</g>
<g style="fill-opacity: 1.0;stroke-width: 1.000000;stroke-opacity: 1;stroke-linecap: round;stroke-linejoin: round">
<circle cx="155486100.000000" cy="113893600.000000" r="939800.000000"/> 
</g>
<g style="fill-opacity: 1.0;stroke-width: 1.000000;stroke-opacity: 1;stroke-linecap: round;stroke-linejoin: round">
<circle cx="158026100.000000" cy="113893600.000000" r="939800.000000"/> 
</g>
<g style="fill-opacity: 1.0;stroke-width: 1.000000;stroke-opacity: 1;stroke-linecap: round;stroke-linejoin: round">
<circle cx="158026100.000000" cy="96113600.000000" r="939800.000000"/> 
</g>
<g style="fill-opacity: 1.0;stroke-width: 1.000000;stroke-opacity: 1;stroke-linecap: round;stroke-linejoin: round">
<circle cx="155486100.000000" cy="96113600.000000" r="939800.000000"/> 
</g>
<g style="fill-opacity: 1.0;stroke-width: 1.000000;stroke-opacity: 1;stroke-linecap: round;stroke-linejoin: round">
<circle cx="152946100.000000" cy="96113600.000000" r="939800.000000"/> 
</g>
<g style="fill-opacity: 1.0;stroke-width: 1.000000;stroke-opacity: 1;stroke-linecap: round;stroke-linejoin: round">
<circle cx="150406100.000000" cy="96113600.000000" r="939800.000000"/> 
</g>
<g style="fill-opacity: 1.0;stroke-width: 1.000000;stroke-opacity: 1;stroke-linecap: round;stroke-linejoin: round">
<circle cx="147866100.000000" cy="96113600.000000" r="939800.000000"/> 
</g>
<g style="fill-opacity: 1.0;stroke-width: 1.000000;stroke-opacity: 1;stroke-linecap: round;stroke-linejoin: round">
<circle cx="145326100.000000" cy="96113600.000000" r="939800.000000"/> 
</g>
<g style="fill-opacity: 1.0;stroke-width: 1.000000;stroke-opacity: 1;stroke-linecap: round;stroke-linejoin: round">
<circle cx="142786100.000000" cy="96113600.000000" r="939800.000000"/> 
</g>
<g style="fill-opacity: 1.0;stroke-width: 1.000000;stroke-opacity: 1;stroke-linecap: round;stroke-linejoin: round">
<circle cx="140246100.000000" cy="96113600.000000" r="939800.000000"/> 
</g>
<g style="fill-opacity: 1.0;stroke-width: 1.000000;stroke-opacity: 1;stroke-linecap: round;stroke-linejoin: round">
<circle cx="137706100.000000" cy="96113600.000000" r="939800.000000"/> 
</g>
<g style="fill-opacity: 1.0;stroke-width: 1.000000;stroke-opacity: 1;stroke-linecap: round;stroke-linejoin: round">
<circle cx="149263100.000000" cy="103098600.000000" r="508000.000000"/> 
</g>
<g style="fill-opacity: 1.0;stroke-width: 1.000000;stroke-opacity: 1;stroke-linecap: round;stroke-linejoin: round">
<circle cx="156265900.000000" cy="98475800.000000" r="508000.000000"/> 
</g>
<g style="fill-opacity: 1.0;stroke-width: 1.000000;stroke-opacity: 1;stroke-linecap: round;stroke-linejoin: round">
<circle cx="144086600.000000" cy="111173300.000000" r="508000.000000"/> 
</g>
<g style="fill-opacity: 1.0;stroke-width: 1.000000;stroke-opacity: 1;stroke-linecap: round;stroke-linejoin: round">
<circle cx="144564100.000000" cy="106273600.000000" r="508000.000000"/> 
</g>
<g style="fill-opacity: 1.0;stroke-width: 1.000000;stroke-opacity: 1;stroke-linecap: round;stroke-linejoin: round">
<circle cx="146596100.000000" cy="107035600.000000" r="508000.000000"/> 
</g>
<g style="fill-opacity: 1.0;stroke-width: 1.000000;stroke-opacity: 1;stroke-linecap: round;stroke-linejoin: round">
<circle cx="142786100.000000" cy="106273600.000000" r="508000.000000"/> 
</g>
<g style="fill-opacity: 1.0;stroke-width: 1.000000;stroke-opacity: 1;stroke-linecap: round;stroke-linejoin: round">
<circle cx="146342100.000000" cy="105765600.000000" r="508000.000000"/> 
</g>
<g style="fill-opacity: 1.0;stroke-width: 1.000000;stroke-opacity: 1;stroke-linecap: round;stroke-linejoin: round">
<circle cx="149136100.000000" cy="105765600.000000" r="508000.000000"/> 
</g>
<g style="fill-opacity: 1.0;stroke-width: 1.000000;stroke-opacity: 1;stroke-linecap: round;stroke-linejoin: round">
<circle cx="151041100.000000" cy="107162600.000000" r="508000.000000"/> 
</g>
<g style="fill-opacity: 1.0;stroke-width: 1.000000;stroke-opacity: 1;stroke-linecap: round;stroke-linejoin: round">
<circle cx="147866100.000000" cy="105765600.000000" r="508000.000000"/> 
</g>
<g style="fill-opacity: 1.0;stroke-width: 1.000000;stroke-opacity: 1;stroke-linecap: round;stroke-linejoin: round">
<circle cx="152184100.000000" cy="107797600.000000" r="508000.000000"/> 
</g>
<g style="fill-opacity: 0.0;stroke-width: 254000.000000;stroke-opacity: 1;stroke-linecap: round;stroke-linejoin: round">
<path d="M144955300 106664800 L144564100 106273600 "/>
<path d="M142786100 113893600 L144955300 111724400 "/>
<path d="M144955300 111724400 L144955300 106664800 "/>
<path d="M146596100 110083600 L146596100 107035600 "/>
<path d="M147866100 113893600 L147866100 111353600 "/>
<path d="M147866100 111353600 L146596100 110083600 "/>
<path d="M146596100 111277400 L145412500 110093800 "/>
<path d="M144945100 105384600 L143675100 105384600 "/>
<path d="M145412500 105852000 L144945100 105384600 "/>
<path d="M146596100 114528600 L146596100 111277400 "/>
<path d="M145412500 110093800 L145412500 105852000 "/>
<path d="M146596100 114528600 L147231100 115163600 "/>
<path d="M147231100 115163600 L149136100 115163600 "/>
<path d="M143675100 105384600 L142786100 106273600 "/>
<path d="M149136100 115163600 L150406100 113893600 "/>
<path d="M156756100 112623600 L158026100 113893600 "/>
<path d="M146342100 105765600 L146596100 105765600 "/>
<path d="M153454100 112623600 L156756100 112623600 "/>
<path d="M146596100 105765600 L153454100 112623600 "/>
<path d="M149136100 105765600 L148374100 105003600 "/>
<path d="M148374100 99161600 L145326100 96113600 "/>
<path d="M148374100 105003600 L148374100 99161600 "/>
<path d="M151041100 107162600 L151041100 99288600 "/>
<path d="M151041100 99288600 L147866100 96113600 "/>
<path d="M147866100 101193600 L142786100 96113600 "/>
<path d="M147866100 105765600 L147866100 101193600 "/>
<path d="M152184100 107797600 L152184100 99415600 "/>
<path d="M152184100 99415600 L155486100 96113600 "/>
</g>
</g> 
</g><g id="substrate-silk" style="fill:#f0f0f0; stroke:#f0f0f0;" mask="url(#pads-mask-silkscreen)"><g style="fill-opacity: 0.0;stroke-width: 213360.000000;stroke-opacity: 1;stroke-linecap: round;stroke-linejoin: round">
<g transform="rotate(90.000000 151168100.000000 97383600.000000)">
<text x="151168100.000000" y="98592640.000000" transform="scale(-1 1) translate(-302336200.000000 0)" textLength="3198707.000000" font-size="1612053.000000" lengthAdjust="spacingAndGlyphs" text-anchor="end" opacity="0">RXF</text>
</g>
<g class="stroked-text"><desc>RXF</desc>
<path d="M150016633 99940364 L150592366 100343377 "/>
<path d="M150016633 100631244 L151225673 100631244 L151225673 100170657 L151168100 100055510 L151110526 99997937 L150995380 99940364 L150822660 99940364 L150707513 99997937 L150649940 100055510 L150592366 100170657 L150592366 100631244 "/>
<path d="M151225673 99537350 L150016633 98731324 "/>
<path d="M151225673 98731324 L150016633 99537350 "/>
<path d="M150649940 97867724 L150649940 98270737 "/>
<path d="M150016633 98270737 L151225673 98270737 L151225673 97695004 "/>
</g><g transform="rotate(90.000000 158788100.000000 97383600.000000)">
<text x="158788100.000000" y="98592640.000000" transform="scale(-1 1) translate(-317576200.000000 0)" textLength="4386072.000000" font-size="1612053.000000" lengthAdjust="spacingAndGlyphs" text-anchor="end" opacity="0">VUSB</text>
</g>
<g class="stroked-text"><desc>VUSB</desc>
<path d="M158845673 102070577 L157636633 101667564 L158845673 101264550 "/>
<path d="M158845673 100861537 L157866926 100861537 L157751780 100803964 L157694206 100746390 L157636633 100631244 L157636633 100400950 L157694206 100285804 L157751780 100228230 L157866926 100170657 L158845673 100170657 "/>
<path d="M157694206 99652497 L157636633 99479777 L157636633 99191910 L157694206 99076764 L157751780 99019190 L157866926 98961617 L157982073 98961617 L158097220 99019190 L158154793 99076764 L158212366 99191910 L158269940 99422204 L158327513 99537350 L158385086 99594924 L158500233 99652497 L158615380 99652497 L158730526 99594924 L158788100 99537350 L158845673 99422204 L158845673 99134337 L158788100 98961617 "/>
<path d="M158269940 98040444 L158212366 97867724 L158154793 97810150 L158039646 97752577 L157866926 97752577 L157751780 97810150 L157694206 97867724 L157636633 97982870 L157636633 98443457 L158845673 98443457 L158845673 98040444 L158788100 97925297 L158730526 97867724 L158615380 97810150 L158500233 97810150 L158385086 97867724 L158327513 97925297 L158269940 98040444 L158269940 98443457 "/>
</g><g transform="rotate(90.000000 146088100.000000 97383600.000000)">
<text x="146088100.000000" y="98592640.000000" transform="scale(-1 1) translate(-292176200.000000 0)" textLength="2140712.000000" font-size="1612053.000000" lengthAdjust="spacingAndGlyphs" text-anchor="end" opacity="0">RD</text>
</g>
<g class="stroked-text"><desc>RD</desc>
<path d="M144936633 98961617 L145512366 99364630 "/>
<path d="M144936633 99652497 L146145673 99652497 L146145673 99191910 L146088100 99076764 L146030526 99019190 L145915380 98961617 L145742660 98961617 L145627513 99019190 L145569940 99076764 L145512366 99191910 L145512366 99652497 "/>
<path d="M144936633 98443457 L146145673 98443457 L146145673 98155590 L146088100 97982870 L145972953 97867724 L145857806 97810150 L145627513 97752577 L145454793 97752577 L145224500 97810150 L145109353 97867724 L144994206 97982870 L144936633 98155590 L144936633 98443457 "/>
</g><g transform="rotate(90.000000 157391100.000000 112623600.000000)">
<text x="157391100.000000" y="112623600.000000" transform="scale(-1 1) translate(-314782200.000000 0)" textLength="2083139.000000" font-size="1612053.000000" lengthAdjust="spacingAndGlyphs" text-anchor="start" opacity="0">D7</text>
</g>
<g class="stroked-text"><desc>D7</desc>
<path d="M157448673 112197049 L158657713 112197049 L158657713 111909182 L158600140 111736462 L158484993 111621316 L158369846 111563742 L158139553 111506169 L157966833 111506169 L157736540 111563742 L157621393 111621316 L157506246 111736462 L157448673 111909182 L157448673 112197049 "/>
<path d="M158657713 111103156 L158657713 110297129 L157448673 110815289 "/>
</g><g transform="rotate(90.000000 139611100.000000 112623600.000000)">
<text x="139611100.000000" y="112623600.000000" transform="scale(-1 1) translate(-279222200.000000 0)" textLength="2083139.000000" font-size="1612053.000000" lengthAdjust="spacingAndGlyphs" text-anchor="start" opacity="0">D0</text>
</g>
<g class="stroked-text"><desc>D0</desc>
<path d="M139668673 112197049 L140877713 112197049 L140877713 111909182 L140820140 111736462 L140704993 111621316 L140589846 111563742 L140359553 111506169 L140186833 111506169 L139956540 111563742 L139841393 111621316 L139726246 111736462 L139668673 111909182 L139668673 112197049 "/>
<path d="M140877713 110757716 L140877713 110642569 L140820140 110527422 L140762566 110469849 L140647420 110412276 L140417126 110354702 L140129260 110354702 L139898966 110412276 L139783820 110469849 L139726246 110527422 L139668673 110642569 L139668673 110757716 L139726246 110872862 L139783820 110930436 L139898966 110988009 L140129260 111045582 L140417126 111045582 L140647420 110988009 L140762566 110930436 L140820140 110872862 L140877713 110757716 "/>
</g><g transform="rotate(90.000000 147231100.000000 112623600.000000)">
<text x="147231100.000000" y="112623600.000000" transform="scale(-1 1) translate(-294462200.000000 0)" textLength="2083139.000000" font-size="1612053.000000" lengthAdjust="spacingAndGlyphs" text-anchor="start" opacity="0">D3</text>
</g>
<g class="stroked-text"><desc>D3</desc>
<path d="M147288673 112197049 L148497713 112197049 L148497713 111909182 L148440140 111736462 L148324993 111621316 L148209846 111563742 L147979553 111506169 L147806833 111506169 L147576540 111563742 L147461393 111621316 L147346246 111736462 L147288673 111909182 L147288673 112197049 "/>
<path d="M148497713 111103156 L148497713 110354702 L148037126 110757716 L148037126 110584996 L147979553 110469849 L147921980 110412276 L147806833 110354702 L147518966 110354702 L147403820 110412276 L147346246 110469849 L147288673 110584996 L147288673 110930436 L147346246 111045582 L147403820 111103156 "/>
</g><g transform="rotate(90.000000 154851100.000000 112623600.000000)">
<text x="154851100.000000" y="112623600.000000" transform="scale(-1 1) translate(-309702200.000000 0)" textLength="2083139.000000" font-size="1612053.000000" lengthAdjust="spacingAndGlyphs" text-anchor="start" opacity="0">D6</text>
</g>
<g class="stroked-text"><desc>D6</desc>
<path d="M154908673 112197049 L156117713 112197049 L156117713 111909182 L156060140 111736462 L155944993 111621316 L155829846 111563742 L155599553 111506169 L155426833 111506169 L155196540 111563742 L155081393 111621316 L154966246 111736462 L154908673 111909182 L154908673 112197049 "/>
<path d="M156117713 110469849 L156117713 110700142 L156060140 110815289 L156002566 110872862 L155829846 110988009 L155599553 111045582 L155138966 111045582 L155023820 110988009 L154966246 110930436 L154908673 110815289 L154908673 110584996 L154966246 110469849 L155023820 110412276 L155138966 110354702 L155426833 110354702 L155541980 110412276 L155599553 110469849 L155657126 110584996 L155657126 110815289 L155599553 110930436 L155541980 110988009 L155426833 111045582 "/>
</g><g transform="rotate(90.000000 152311100.000000 112623600.000000)">
<text x="152311100.000000" y="112623600.000000" transform="scale(-1 1) translate(-304622200.000000 0)" textLength="2083139.000000" font-size="1612053.000000" lengthAdjust="spacingAndGlyphs" text-anchor="start" opacity="0">D5</text>
</g>
<g class="stroked-text"><desc>D5</desc>
<path d="M152368673 112197049 L153577713 112197049 L153577713 111909182 L153520140 111736462 L153404993 111621316 L153289846 111563742 L153059553 111506169 L152886833 111506169 L152656540 111563742 L152541393 111621316 L152426246 111736462 L152368673 111909182 L152368673 112197049 "/>
<path d="M153577713 110412276 L153577713 110988009 L153001980 111045582 L153059553 110988009 L153117126 110872862 L153117126 110584996 L153059553 110469849 L153001980 110412276 L152886833 110354702 L152598966 110354702 L152483820 110412276 L152426246 110469849 L152368673 110584996 L152368673 110872862 L152426246 110988009 L152483820 111045582 "/>
</g><g transform="rotate(90.000000 153708100.000000 97383600.000000)">
<text x="153708100.000000" y="98592640.000000" transform="scale(-1 1) translate(-307416200.000000 0)" textLength="2889165.000000" font-size="1612053.000000" lengthAdjust="spacingAndGlyphs" text-anchor="end" opacity="0">TXE</text>
</g>
<g class="stroked-text"><desc>TXE</desc>
<path d="M153765673 100573670 L153765673 99882790 "/>
<path d="M152556633 100228230 L153765673 100228230 "/>
<path d="M153765673 99594924 L152556633 98788897 "/>
<path d="M153765673 98788897 L152556633 99594924 "/>
<path d="M153189940 98328310 L153189940 97925297 "/>
<path d="M152556633 97752577 L152556633 98328310 L153765673 98328310 L153765673 97752577 "/>
</g><g transform="rotate(90.000000 138468100.000000 97383600.000000)">
<text x="138468100.000000" y="98592640.000000" transform="scale(-1 1) translate(-276936200.000000 0)" textLength="3407325.000000" font-size="1612053.000000" lengthAdjust="spacingAndGlyphs" text-anchor="end" opacity="0">GND</text>
</g>
<g class="stroked-text"><desc>GND</desc>
<path d="M138468100 100285804 L138525673 100400950 L138525673 100573670 L138468100 100746390 L138352953 100861537 L138237806 100919110 L138007513 100976684 L137834793 100976684 L137604500 100919110 L137489353 100861537 L137374206 100746390 L137316633 100573670 L137316633 100458524 L137374206 100285804 L137431780 100228230 L137834793 100228230 L137834793 100458524 "/>
<path d="M137316633 99710070 L138525673 99710070 L137316633 99019190 L138525673 99019190 "/>
<path d="M137316633 98443457 L138525673 98443457 L138525673 98155590 L138468100 97982870 L138352953 97867724 L138237806 97810150 L138007513 97752577 L137834793 97752577 L137604500 97810150 L137489353 97867724 L137374206 97982870 L137316633 98155590 L137316633 98443457 "/>
</g><g transform="rotate(90.000000 143548100.000000 97383600.000000)">
<text x="143548100.000000" y="98592640.000000" transform="scale(-1 1) translate(-287096200.000000 0)" textLength="4673939.000000" font-size="1612053.000000" lengthAdjust="spacingAndGlyphs" text-anchor="end" opacity="0">PWEN</text>
</g>
<g class="stroked-text"><desc>PWEN</desc>
<path d="M142396633 102185724 L143605673 102185724 L143605673 101725137 L143548100 101609990 L143490526 101552417 L143375380 101494844 L143202660 101494844 L143087513 101552417 L143029940 101609990 L142972366 101725137 L142972366 102185724 "/>
<path d="M143605673 101091830 L142396633 100803964 L143260233 100573670 L142396633 100343377 L143605673 100055510 "/>
<path d="M143029940 99594924 L143029940 99191910 "/>
<path d="M142396633 99019190 L142396633 99594924 L143605673 99594924 L143605673 99019190 "/>
<path d="M142396633 98501030 L143605673 98501030 L142396633 97810150 L143605673 97810150 "/>
</g><g transform="rotate(90.000000 149771100.000000 112623600.000000)">
<text x="149771100.000000" y="112623600.000000" transform="scale(-1 1) translate(-299542200.000000 0)" textLength="2083139.000000" font-size="1612053.000000" lengthAdjust="spacingAndGlyphs" text-anchor="start" opacity="0">D4</text>
</g>
<g class="stroked-text"><desc>D4</desc>
<path d="M149828673 112197049 L151037713 112197049 L151037713 111909182 L150980140 111736462 L150864993 111621316 L150749846 111563742 L150519553 111506169 L150346833 111506169 L150116540 111563742 L150001393 111621316 L149886246 111736462 L149828673 111909182 L149828673 112197049 "/>
<path d="M150634700 110469849 L149828673 110469849 "/>
<path d="M151095286 110757716 L150231686 111045582 L150231686 110297129 "/>
</g><g transform="rotate(90.000000 136944100.000000 112623600.000000)">
<text x="136944100.000000" y="112623600.000000" transform="scale(-1 1) translate(-273888200.000000 0)" textLength="5019379.000000" font-size="1612053.000000" lengthAdjust="spacingAndGlyphs" text-anchor="start" opacity="0">VCCIO</text>
</g>
<g class="stroked-text"><desc>VCCIO</desc>
<path d="M138210713 112369769 L137001673 111966756 L138210713 111563742 "/>
<path d="M137116820 110469849 L137059246 110527422 L137001673 110700142 L137001673 110815289 L137059246 110988009 L137174393 111103156 L137289540 111160729 L137519833 111218302 L137692553 111218302 L137922846 111160729 L138037993 111103156 L138153140 110988009 L138210713 110815289 L138210713 110700142 L138153140 110527422 L138095566 110469849 "/>
<path d="M137116820 109260809 L137059246 109318382 L137001673 109491102 L137001673 109606249 L137059246 109778969 L137174393 109894116 L137289540 109951689 L137519833 110009262 L137692553 110009262 L137922846 109951689 L138037993 109894116 L138153140 109778969 L138210713 109606249 L138210713 109491102 L138153140 109318382 L138095566 109260809 "/>
<path d="M137001673 108742649 L138210713 108742649 "/>
<path d="M138210713 107936622 L138210713 107706329 L138153140 107591182 L138037993 107476036 L137807700 107418462 L137404686 107418462 L137174393 107476036 L137059246 107591182 L137001673 107706329 L137001673 107936622 L137059246 108051769 L137174393 108166916 L137404686 108224489 L137807700 108224489 L138037993 108166916 L138153140 108051769 L138210713 107936622 "/>
</g><g transform="rotate(90.000000 156248100.000000 97383600.000000)">
<text x="156248100.000000" y="98592640.000000" transform="scale(-1 1) translate(-312496200.000000 0)" textLength="3637619.000000" font-size="1612053.000000" lengthAdjust="spacingAndGlyphs" text-anchor="end" opacity="0">V3.3</text>
</g>
<g class="stroked-text"><desc>V3.3</desc>
<path d="M156305673 101322124 L155096633 100919110 L156305673 100516097 "/>
<path d="M156305673 100228230 L156305673 99479777 L155845086 99882790 L155845086 99710070 L155787513 99594924 L155729940 99537350 L155614793 99479777 L155326926 99479777 L155211780 99537350 L155154206 99594924 L155096633 99710070 L155096633 100055510 L155154206 100170657 L155211780 100228230 "/>
<path d="M155211780 98961617 L155154206 98904044 L155096633 98961617 L155154206 99019190 L155211780 98961617 L155096633 98961617 "/>
<path d="M156305673 98501030 L156305673 97752577 L155845086 98155590 L155845086 97982870 L155787513 97867724 L155729940 97810150 L155614793 97752577 L155326926 97752577 L155211780 97810150 L155154206 97867724 L155096633 97982870 L155096633 98328310 L155154206 98443457 L155211780 98501030 "/>
</g><g transform="rotate(90.000000 148628100.000000 97383600.000000)">
<text x="148628100.000000" y="98592640.000000" transform="scale(-1 1) translate(-297256200.000000 0)" textLength="2313432.000000" font-size="1612053.000000" lengthAdjust="spacingAndGlyphs" text-anchor="end" opacity="0">WR</text>
</g>
<g class="stroked-text"><desc>WR</desc>
<path d="M148685673 99940364 L147476633 99652497 L148340233 99422204 L147476633 99191910 L148685673 98904044 "/>
<path d="M147476633 97752577 L148052366 98155590 "/>
<path d="M147476633 98443457 L148685673 98443457 L148685673 97982870 L148628100 97867724 L148570526 97810150 L148455380 97752577 L148282660 97752577 L148167513 97810150 L148109940 97867724 L148052366 97982870 L148052366 98443457 "/>
</g><g transform="rotate(90.000000 141008100.000000 97383600.000000)">
<text x="141008100.000000" y="98592640.000000" transform="scale(-1 1) translate(-282016200.000000 0)" textLength="3407325.000000" font-size="1612053.000000" lengthAdjust="spacingAndGlyphs" text-anchor="end" opacity="0">GND</text>
</g>
<g class="stroked-text"><desc>GND</desc>
<path d="M141008100 100285804 L141065673 100400950 L141065673 100573670 L141008100 100746390 L140892953 100861537 L140777806 100919110 L140547513 100976684 L140374793 100976684 L140144500 100919110 L140029353 100861537 L139914206 100746390 L139856633 100573670 L139856633 100458524 L139914206 100285804 L139971780 100228230 L140374793 100228230 L140374793 100458524 "/>
<path d="M139856633 99710070 L141065673 99710070 L139856633 99019190 L141065673 99019190 "/>
<path d="M139856633 98443457 L141065673 98443457 L141065673 98155590 L141008100 97982870 L140892953 97867724 L140777806 97810150 L140547513 97752577 L140374793 97752577 L140144500 97810150 L140029353 97867724 L139914206 97982870 L139856633 98155590 L139856633 98443457 "/>
</g><g transform="rotate(90.000000 144722600.000000 112638600.000000)">
<text x="144722600.000000" y="112638600.000000" transform="scale(-1 1) translate(-289445200.000000 0)" textLength="2083139.000000" font-size="1612053.000000" lengthAdjust="spacingAndGlyphs" text-anchor="start" opacity="0">D2</text>
</g>
<g class="stroked-text"><desc>D2</desc>
<path d="M144780173 112212049 L145989213 112212049 L145989213 111924182 L145931640 111751462 L145816493 111636316 L145701346 111578742 L145471053 111521169 L145298333 111521169 L145068040 111578742 L144952893 111636316 L144837746 111751462 L144780173 111924182 L144780173 112212049 "/>
<path d="M145874066 111060582 L145931640 111003009 L145989213 110887862 L145989213 110599996 L145931640 110484849 L145874066 110427276 L145758920 110369702 L145643773 110369702 L145471053 110427276 L144780173 111118156 L144780173 110369702 "/>
</g><g transform="rotate(90.000000 142151100.000000 112623600.000000)">
<text x="142151100.000000" y="112623600.000000" transform="scale(-1 1) translate(-284302200.000000 0)" textLength="2083139.000000" font-size="1612053.000000" lengthAdjust="spacingAndGlyphs" text-anchor="start" opacity="0">D1</text>
</g>
<g class="stroked-text"><desc>D1</desc>
<path d="M142208673 112197049 L143417713 112197049 L143417713 111909182 L143360140 111736462 L143244993 111621316 L143129846 111563742 L142899553 111506169 L142726833 111506169 L142496540 111563742 L142381393 111621316 L142266246 111736462 L142208673 111909182 L142208673 112197049 "/>
<path d="M142208673 110354702 L142208673 111045582 "/>
<path d="M142208673 110700142 L143417713 110700142 L143244993 110815289 L143129846 110930436 L143072273 111045582 "/>
</g></g>
<g style="fill-opacity: 0.0;stroke-width: 25400.000000;stroke-opacity: 1;stroke-linecap: round;stroke-linejoin: round">
<path d="M142201900 104421900 L142186700 104421900 "/>
<path d="M147055800 104518500 L146652000 104518500 "/>
<path d="M142222200 104744500 L142245100 104744500 "/>
<path d="M142222200 104421900 L142222200 104744500 "/>
<path d="M146634200 106090700 L147055800 106090700 "/>
<path d="M142201900 104739400 L142201900 104421900 "/>
<path d="M146652000 104739400 L146644400 104739400 "/>
<path d="M146652000 104518500 L146652000 104739400 "/>
<path d="M145590300 106080600 L145999200 106080600 "/>
<path d="M147055800 106090700 L147055800 104518500 "/>
<path d="M145590300 105026500 L145590300 106080600 "/>
<path d="M145999200 106080600 L145999200 105115400 "/>
<path d="M146634200 105222000 L146634200 106090700 "/>
<path d="M146204900.018347 104480399.563534 A1500024.000000 1500024.000000 0.0 0 0 146004300.044319 104485400.481097"/>
<path d="M146585892.510144 104678505.552241 A468658.000000 468658.000000 0.0 0 0 146499600.185612 104589599.764627"/>
<path d="M142910615.772884 105765609.482976 A841528.000000 841528.000000 0.0 0 0 143019800.149380 105468400.024537"/>
<path d="M141940310.917444 104830910.473548 A504402.000000 504402.000000 0.0 0 0 141813299.876870 105064599.971036"/>
<path d="M142344107.459375 105783422.975169 A327741.000000 327741.000000 0.0 0 0 142532099.842605 105625899.916078"/>
<path d="M141368783.598478 105227100.152888 A1233770.000000 1233770.000000 0.0 0 0 141455100.225042 105669099.911054"/>
<path d="M146499612.286111 104589584.417900 A510549.000000 510549.000000 0.0 0 0 146204900.012783 104480399.695301"/>
<path d="M146634198.359016 105221999.978983 A2678318.000000 2678318.000000 0.0 0 0 146634199.637698 105153500.004627"/>
<path d="M141963098.765937 104449895.149605 A781122.000000 781122.000000 0.0 0 0 141643099.807241 104617499.778361"/>
<path d="M142600699.843145 105397299.985326 A1483750.000000 1483750.000000 0.0 0 0 142603199.590814 105150900.029919"/>
<path d="M145623296.740760 104802899.063318 A850074.000000 850074.000000 0.0 0 0 145590299.785051 105026499.997168"/>
<path d="M146634197.781091 105153500.028479 A451935.000000 451935.000000 0.0 0 0 146603700.406684 104995999.842403"/>
<path d="M146626609.992241 104731790.456849 A24600.000000 24600.000000 0.0 0 0 146644400.000000 104739400.000000"/>
<path d="M146512292.851849 104866409.436398 A262248.000000 262248.000000 0.0 0 0 146352300.004434 104802899.898086"/>
<path d="M142044394.504983 104764783.707641 A258788.000000 258788.000000 0.0 0 0 141940299.750439 104830899.760726"/>
<path d="M142008901.419294 105763096.948590 A458574.000000 458574.000000 0.0 0 0 142344099.886540 105783399.651058"/>
<path d="M145737603.087975 104609903.113601 A444911.000000 444911.000000 0.0 0 0 145623300.136394 104802901.039202"/>
<path d="M146603680.503432 104996007.552207 A327491.000000 327491.000000 0.0 0 0 146512299.945209 104866400.063470"/>
<path d="M141869201.205840 106060196.353340 A1107176.000000 1107176.000000 0.0 0 0 142229799.996209 106116099.677118"/>
<path d="M142532106.584145 105625903.510066 A605831.000000 605831.000000 0.0 0 0 142600700.000461 105397300.000043"/>
<path d="M142186700.000000 104421900.000000 A906800.000000 906800.000000 0.0 0 0 141963100.021754 104449900.085498"/>
<path d="M146004297.227141 104485370.010249 A435580.000000 435580.000000 0.0 0 0 145737600.262930 104609901.264986"/>
<path d="M146613900.148196 104716599.892095 A5353356.000000 5353356.000000 0.0 0 0 146585900.280016 104678499.792305"/>
<path d="M146174502.551662 104808007.001471 A226910.000000 226910.000000 0.0 0 0 146057599.814615 104904499.888826"/>
<path d="M143017211.294410 105084897.986528 A786316.000000 786316.000000 0.0 0 0 142643899.247449 104546399.582336"/>
<path d="M142201899.914445 104739415.965920 A485191.000000 485191.000000 0.0 0 0 142044399.915618 104764799.749522"/>
<path d="M146240500.084349 104797898.164874 A169881.000000 169881.000000 0.0 0 0 146174499.844554 104807999.573725"/>
<path d="M146613893.527279 104716604.717224 A148742.000000 148742.000000 0.0 0 0 146626599.775118 104731800.215050"/>
<path d="M146057581.752299 104904489.053456 A409800.000000 409800.000000 0.0 0 0 145999200.012201 105115399.999997"/>
<path d="M142229800.222291 106116119.117011 A885879.000000 885879.000000 0.0 0 0 142781000.111845 105915500.136485"/>
<path d="M143019788.385499 105468398.090000 A1135133.000000 1135133.000000 0.0 0 0 143017200.081388 105084899.985485"/>
<path d="M141643119.843397 104617522.817822 A798034.000000 798034.000000 0.0 0 0 141368800.319299 105227100.997039"/>
<path d="M146240499.993958 104797900.131421 A44660030.000000 44660030.000000 0.0 0 0 146352299.996679 104802900.076405"/>
<path d="M142781006.408755 105915507.821120 A580626.000000 580626.000000 0.0 0 0 142910600.112085 105765600.067395"/>
<path d="M141455089.027162 105669104.336466 A672049.000000 672049.000000 0.0 0 0 141869200.131121 106060199.603281"/>
<path d="M142603210.041577 105150899.338926 A526612.000000 526612.000000 0.0 0 0 142493999.841401 104866400.123105"/>
<path d="M142643889.046896 104546418.482913 A896192.000000 896192.000000 0.0 0 0 142222200.017769 104421899.547955"/>
<path d="M141864110.952269 105625894.177775 A313582.000000 313582.000000 0.0 0 0 142008900.066683 105763099.856437"/>
<path d="M141785293.465120 105316000.061128 A673536.000000 673536.000000 0.0 0 0 141864099.860193 105625900.074335"/>
<path d="M142493981.769075 104866414.929008 A315200.000000 315200.000000 0.0 0 0 142245099.999995 104744500.015863"/>
<path d="M141813290.613863 105064597.790905 A1054146.000000 1054146.000000 0.0 0 0 141785300.488850 105315999.995409"/>
</g>
<g style="fill-opacity: 1.0;stroke-width: 1.000000;stroke-opacity: 1;stroke-linecap: round;stroke-linejoin: round">
<path style="fill-opacity: 1.0;stroke-width: 1.000000;stroke-opacity: 1;stroke-linecap: round;stroke-linejoin: round;fill-rule: evenodd" d="M 149782199.000000,101405580.000000 149932058.000000,101529597.000000 149933605.000000,101531144.000000 149999433.000000,101641845.000000 149976393.000000,101889463.000000 149710186.000000,102222299.000000 149653394.000000,102303856.000000 149639070.000000,102398041.000000 149736880.000000,102563044.000000 149818332.000000,102602616.000000 149908871.000000,102620958.000000 150014565.000000,102609150.000000 150108757.000000,102560015.000000 150139695.000000,102527526.000000 150160195.000000,102487471.000000 150170705.000000,102424200.000000 150160378.000000,102362030.000000 150140581.000000,102335546.000000 150059316.000000,102276559.000000 150038884.000000,102267458.000000 150003312.000000,102268267.000000 150001190.000000,102244601.000000 150061716.000000,102235077.000000 150157200.000000,102227611.000000 150253978.000000,102235178.000000 150392805.000000,102287211.000000 150501096.000000,102390733.000000 150573700.000000,102631930.000000 150573700.000000,104183610.000000 150064778.000000,103610916.000000 149879324.000000,103473108.000000 149844899.000000,103460654.000000 149808095.000000,103454200.000000 149578861.000000,103454200.000000 149182969.000000,103343690.000000 148894800.000000,103072119.000000 148894800.000000,103091122.000000 148775792.000000,102879858.000000 148712243.000000,102695280.000000 148683040.000000,102502265.000000 148689497.000000,102295806.000000 148692914.000000,102295859.000000 148797393.000000,102004573.000000 149024300.000000,101774762.000000 149024300.000000,101892888.000000 149030586.000000,101915744.000000 149094843.000000,101975311.000000 149102236.000000,101978514.000000 149110363.000000,101981068.000000 149191752.000000,101983876.000000 149267031.000000,101952062.000000 149356434.000000,101887504.000000 149433010.000000,101810831.000000 149481735.000000,101715875.000000 149486245.000000,101657414.000000 149352682.000000,101494786.000000 149254267.000000,101475500.000000 149181800.000000,101475500.000000 149181800.000000,101450100.000000 149189406.000000,101450100.000000 149285548.000000,101392866.000000 149304240.000000,101386124.000000 149320951.000000,101377825.000000 149332623.000000,101371917.000000 149345651.000000,101366871.000000 149435098.000000,101344497.000000 149528424.000000,101335636.000000 Z"/> 
<path style="fill-opacity: 1.0;stroke-width: 1.000000;stroke-opacity: 1;stroke-linecap: round;stroke-linejoin: round;fill-rule: evenodd" d="M 157464025.000000,104725063.000000 157407706.000000,105047130.000000 156963089.000000,105311836.000000 156548031.000000,105537955.000000 156651565.000000,105846185.000000 157033905.000000,105932520.000000 157773620.000000,105566597.000000 157769523.000000,105624941.000000 157759041.000000,105684956.000000 157715112.000000,105814100.000000 157662875.000000,105903577.000000 157586887.000000,105973796.000000 157465255.000000,106051421.000000 157284607.000000,106113398.000000 157154717.000000,106125909.000000 157025020.000000,106131423.000000 156758719.000000,106108333.000000 156623250.000000,106065778.000000 156400325.000000,105895557.000000 156319443.000000,105705260.000000 156314283.000000,105651059.000000 156311616.000000,105598645.000000 156324296.000000,105598000.000000 156311871.000000,105595392.000000 156355521.000000,105387449.000000 156382522.000000,105343234.000000 156417782.000000,105306106.000000 156565422.000000,105212913.000000 156905462.000000,105113156.000000 157107632.000000,105072762.000000 157250551.000000,105003776.000000 157297495.000000,104937981.000000 157302947.000000,104882855.000000 157283485.000000,104829874.000000 157260530.000000,104803502.000000 157230459.000000,104783917.000000 157188109.000000,104768234.000000 157143509.000000,104759800.000000 156973555.000000,104759800.000000 156900282.000000,104777997.000000 156836016.000000,104815076.000000 156770750.000000,104909264.000000 156762020.000000,104970600.000000 156348270.000000,104970600.000000 156358026.000000,104879332.000000 156570543.000000,104745502.000000 157030218.000000,104611928.000000 Z"/> 
<path style="fill-opacity: 1.0;stroke-width: 1.000000;stroke-opacity: 1;stroke-linecap: round;stroke-linejoin: round;fill-rule: evenodd" d="M 149322566.000000,103939641.000000 149447733.000000,104002661.000000 149552901.000000,104096663.000000 149628668.000000,104258580.000000 149646600.000000,104474774.000000 149646600.000000,104508300.000000 149776361.000000,104508300.000000 150068270.000000,104800209.000000 149651700.000000,104802821.000000 149651700.000000,106103400.000000 149209800.000000,106103400.000000 149209800.000000,104800400.000000 148910000.000000,104800400.000000 148910000.000000,104508300.000000 149207200.000000,104508300.000000 149207200.000000,104382164.000000 149200908.000000,104335998.000000 149184164.000000,104295536.000000 149111749.000000,104244100.000000 148930992.000000,104244100.000000 148902988.000000,104246700.000000 148882100.000000,104246700.000000 148882100.000000,103919000.000000 148896983.000000,103919000.000000 148962665.000000,103915705.000000 149028988.000000,103911400.000000 149185697.000000,103911400.000000 Z"/> 
<path style="fill-opacity: 1.0;stroke-width: 1.000000;stroke-opacity: 1;stroke-linecap: round;stroke-linejoin: round;fill-rule: evenodd" d="M 151478000.000000,104147824.000000 151478000.000000,106093461.000000 151465461.000000,106106000.000000 151033500.000000,106106000.000000 151033500.000000,105552568.000000 150868142.000000,105391884.000000 150441171.000000,106095765.000000 149902191.000000,106098417.000000 150575091.000000,105089117.000000 149983750.000000,104510800.000000 150487561.000000,104510800.000000 151038600.000000,105061840.000000 151038600.000000,103897133.000000 Z"/> 
<path style="fill-opacity: 1.0;stroke-width: 1.000000;stroke-opacity: 1;stroke-linecap: round;stroke-linejoin: round;fill-rule: evenodd" d="M 142403688.000000,104434952.000000 142746017.000000,104604900.000000 142962946.000000,104881195.000000 143045426.000000,105241953.000000 142983631.000000,105635615.000000 142820644.000000,105889161.000000 142531413.000000,106069918.000000 142227517.000000,106111087.000000 141973069.000000,106085389.000000 141784568.000000,106020827.000000 141670606.000000,105940533.000000 141549381.000000,105824486.000000 141466261.000000,105692087.000000 141396907.000000,105442977.000000 141371202.000000,105229652.000000 141399640.000000,105007736.000000 141505256.000000,104770632.000000 141616733.000000,104640984.000000 141817614.000000,104501960.000000 141983108.000000,104445065.000000 142199160.000000,104417722.000000 142204615.000000,104742000.000000 142182130.000000,104742000.000000 142063389.000000,104751838.000000 141968176.000000,104803143.000000 141884740.000000,104884069.000000 141810344.000000,105045261.000000 141785300.000000,105238119.000000 141785300.000000,105380583.000000 141822768.000000,105535371.000000 141877102.000000,105656383.000000 141984981.000000,105754419.000000 142160000.000000,105813633.000000 142334798.000000,105791444.000000 142499577.000000,105690600.000000 142553356.000000,105587948.000000 142590778.000000,105473129.000000 142608276.000000,105348284.000000 142603232.000000,105162447.000000 142575788.000000,105014996.000000 142536240.000000,104926184.000000 142457484.000000,104817749.000000 142342631.000000,104754262.000000 142222200.000000,104737780.000000 142222200.000000,104425951.000000 142245190.000000,104416900.000000 142253460.000000,104416900.000000 Z"/> 
<path style="fill-opacity: 1.0;stroke-width: 1.000000;stroke-opacity: 1;stroke-linecap: round;stroke-linejoin: round;fill-rule: evenodd" d="M 148788100.000000,105596177.000000 148769900.000000,105744501.000000 148716109.000000,105884758.000000 148630267.000000,106007494.000000 148616906.000000,106020844.000000 148599578.000000,106034800.000000 148598205.000000,106034800.000000 148460681.000000,106106342.000000 148303670.000000,106136504.000000 148003370.000000,106110839.000000 147974831.000000,106102087.000000 147948252.000000,106088826.000000 147810474.000000,105983635.000000 147718800.000000,105875887.000000 147718800.000000,106095800.000000 147292100.000000,106095800.000000 147292100.000000,104508300.000000 147739100.000000,104508300.000000 147739100.000000,105350816.000000 147769033.000000,105592634.000000 147918571.000000,105766692.000000 148057997.000000,105794226.000000 148198992.000000,105763866.000000 148256031.000000,105727415.000000 148299212.000000,105675626.000000 148348700.000000,105514791.000000 148348700.000000,104503200.000000 148788100.000000,104503200.000000 Z"/> 
<path style="fill-opacity: 1.0;stroke-width: 1.000000;stroke-opacity: 1;stroke-linecap: round;stroke-linejoin: round;fill-rule: evenodd" d="M 155352908.000000,104472717.000000 155403419.000000,104483406.000000 155537993.000000,104537704.000000 155613980.000000,104592761.000000 155703796.000000,104690255.000000 155717088.000000,104705062.000000 155714507.000000,104498032.000000 156128700.000000,104576480.000000 156128700.000000,106650048.000000 155689300.000000,107046357.000000 155689300.000000,105908013.000000 155517629.000000,106072794.000000 155401874.000000,106113600.000000 155399611.000000,106113600.000000 155031744.000000,106108470.000000 154907127.000000,106064604.000000 154796122.000000,105994138.000000 154703167.000000,105899802.000000 154536002.000000,105508873.000000 154552666.000000,105062806.000000 154645400.000000,104772097.000000 154645400.000000,104813891.000000 154760495.000000,104651869.000000 154845030.000000,104584917.000000 154937449.000000,104529521.000000 155151753.000000,104470178.000000 Z"/> 
<path style="fill-opacity: 1.0;stroke-width: 1.000000;stroke-opacity: 1;stroke-linecap: round;stroke-linejoin: round;fill-rule: evenodd" d="M 144197542.000000,104455409.000000 144510770.000000,104646758.000000 144627240.000000,104791668.000000 144707241.000000,104958661.000000 144747000.000000,105139419.000000 144747000.000000,105140608.000000 144754649.000000,105391105.000000 144673406.000000,105709120.000000 144583909.000000,105850363.000000 144348441.000000,106040672.000000 144204214.000000,106092907.000000 144046038.000000,106121452.000000 143884760.000000,106131496.000000 143537191.000000,106046453.000000 143303415.000000,105855492.000000 143220146.000000,105727638.000000 143164917.000000,105585900.000000 143151900.000000,105489554.000000 143151900.000000,105471000.000000 143580117.000000,105471000.000000 143648279.000000,105672905.000000 143683393.000000,105715217.000000 143727417.000000,105749555.000000 143808705.000000,105786374.000000 143896828.000000,105801145.000000 143976581.000000,105797016.000000 144053166.000000,105779224.000000 144219770.000000,105656063.000000 144264842.000000,105563664.000000 144312365.000000,105255653.000000 144240691.000000,104960664.000000 144153388.000000,104836988.000000 144118838.000000,104808204.000000 144077893.000000,104789802.000000 143911695.000000,104765000.000000 143748919.000000,104799575.000000 143671293.000000,104854871.000000 143619680.000000,104935220.000000 143601400.000000,105030212.000000 143601400.000000,105044200.000000 143152858.000000,105044200.000000 143224252.000000,104789083.000000 143444653.000000,104538875.000000 143590545.000000,104474931.000000 143590324.000000,104472441.000000 143888112.000000,104419268.000000 Z"/> 
<path style="fill-opacity: 1.0;stroke-width: 1.000000;stroke-opacity: 1;stroke-linecap: round;stroke-linejoin: round;fill-rule: evenodd" d="M 157151703.000000,104467715.000000 157565867.000000,104591184.000000 157688300.000000,104732155.000000 157688300.000000,104735191.000000 157733528.000000,104900133.000000 157726400.000000,105072459.000000 157726400.000000,105075504.000000 157649743.000000,105212903.000000 157541983.000000,105291968.000000 157420621.000000,105343346.000000 157238939.000000,105391446.000000 157056669.000000,105429869.000000 156828366.000000,105507682.000000 156776236.000000,105550312.000000 156746311.000000,105610161.000000 156743497.000000,105677172.000000 156764434.000000,105733407.000000 156803971.000000,105777581.000000 156974190.000000,105836716.000000 157039300.000000,105837211.000000 157106104.000000,105836703.000000 157134374.000000,105834667.000000 157161262.000000,105829582.000000 157247896.000000,105792241.000000 157317453.000000,105729744.000000 157351698.000000,105665693.000000 157360600.000000,105592134.000000 157360600.000000,105575100.000000 157810766.000000,105575100.000000 157047495.000000,105977108.000000 156624445.000000,105883143.000000 156508678.000000,105538533.000000 156530544.000000,105494924.000000 157354215.000000,105015888.000000 157399537.000000,104758499.000000 157035604.000000,104648598.000000 156619765.000000,104781359.000000 156418316.000000,104930489.000000 156354817.000000,104883686.000000 156378447.000000,104818733.000000 156395032.000000,104777997.000000 156415061.000000,104737776.000000 156480259.000000,104651735.000000 156578558.000000,104574201.000000 156690592.000000,104519266.000000 156827857.000000,104481801.000000 156968815.000000,104467705.000000 157059650.000000,104466966.000000 Z"/> 
<path style="fill-opacity: 1.0;stroke-width: 1.000000;stroke-opacity: 1;stroke-linecap: round;stroke-linejoin: round;fill-rule: evenodd" d="M 145346400.000000,106090700.000000 144851100.000000,106090700.000000 144851100.000000,105605600.000000 145346400.000000,105605600.000000 Z"/> 
<path style="fill-opacity: 1.0;stroke-width: 1.000000;stroke-opacity: 1;stroke-linecap: round;stroke-linejoin: round;fill-rule: evenodd" d="M 146365328.000000,104499704.000000 146507052.000000,104579219.000000 146554833.000000,104622321.000000 146595859.000000,104670608.000000 146610176.000000,104689998.000000 146623905.000000,104708766.000000 146635243.000000,104722337.000000 146639300.000000,104725146.000000 146639300.000000,104505800.000000 147068500.000000,104505800.000000 147068500.000000,106103400.000000 146621500.000000,106103400.000000 146621500.000000,105154717.000000 146591750.000000,105001092.000000 146504100.000000,104876809.000000 146349605.000000,104815494.000000 146295831.000000,104813122.000000 146241180.000000,104810644.000000 146178755.000000,104820197.000000 146115959.000000,104856136.000000 146069080.000000,104910629.000000 146011900.000000,105117126.000000 146011900.000000,106093300.000000 145577600.000000,106093300.000000 145577600.000000,105025568.000000 145611101.000000,104798576.000000 145728672.000000,104600052.000000 146001332.000000,104472770.000000 146206007.000000,104467668.000000 Z"/> 
<path style="fill-opacity: 1.0;stroke-width: 1.000000;stroke-opacity: 1;stroke-linecap: round;stroke-linejoin: round;fill-rule: evenodd" d="M 151994092.000000,104537377.000000 152085364.000000,104597438.000000 152158342.000000,104667746.000000 152193259.000000,104721076.000000 152227672.000000,104773063.000000 152245531.000000,104799896.000000 152250100.000000,104801389.000000 152250100.000000,104508345.000000 152661581.000000,104581454.000000 152664222.000000,106093300.000000 152222200.000000,106093300.000000 152222200.000000,105299238.000000 152194798.000000,105132177.000000 152134458.000000,105016949.000000 152040169.000000,104928303.000000 151884491.000000,104874010.000000 151809450.000000,104870860.000000 151733178.000000,104874062.000000 151703713.000000,104878353.000000 151674207.000000,104886389.000000 151665570.000000,104888546.000000 151656317.000000,104889300.000000 151640500.000000,104889300.000000 151640500.000000,104478484.000000 151792116.000000,104470085.000000 Z"/> 
<path style="fill-opacity: 1.0;stroke-width: 1.000000;stroke-opacity: 1;stroke-linecap: round;stroke-linejoin: round;fill-rule: evenodd" d="M 140328771.000000,104421137.000000 140397997.000000,104429751.000000 140453945.000000,104440620.000000 140509521.000000,104455713.000000 140600837.000000,104497233.000000 140678871.000000,104559895.000000 140756141.000000,104639700.000000 140786781.000000,104679811.000000 140789700.000000,104680461.000000 140789700.000000,104462600.000000 141213800.000000,104462600.000000 141213800.000000,106093300.000000 140756600.000000,106093300.000000 140756600.000000,105101492.000000 140716929.000000,104922779.000000 140679536.000000,104875257.000000 140636698.000000,104830497.000000 140581070.000000,104793500.000000 140515955.000000,104777402.000000 140474039.000000,104774737.000000 140432311.000000,104772560.000000 140338981.000000,104789457.000000 140264266.000000,104844011.000000 140195300.000000,105028792.000000 140195300.000000,106095800.000000 139738100.000000,106095800.000000 139738100.000000,105130833.000000 139736031.000000,105075456.000000 139730674.000000,105021192.000000 139703486.000000,104926399.000000 139650467.000000,104845539.000000 139538563.000000,104782264.000000 139449738.000000,104773187.000000 139360086.000000,104779911.000000 139274130.000000,104815597.000000 139213798.000000,104885113.000000 139171700.000000,105055942.000000 139171700.000000,106095800.000000 138722100.000000,106095800.000000 138722100.000000,104922615.000000 138838650.000000,104609164.000000 139073119.000000,104455518.000000 139331556.000000,104419296.000000 139468260.000000,104435330.000000 139594483.000000,104489577.000000 139685244.000000,104554712.000000 139764918.000000,104631453.000000 139810706.000000,104679746.000000 139815105.000000,104684145.000000 139871798.000000,104592884.000000 139959816.000000,104509312.000000 140057431.000000,104455470.000000 140057138.000000,104452104.000000 140258078.000000,104416833.000000 Z"/> 
<path style="fill-opacity: 1.0;stroke-width: 1.000000;stroke-opacity: 1;stroke-linecap: round;stroke-linejoin: round;fill-rule: evenodd" d="M 153855156.000000,104488152.000000 153980102.000000,104522131.000000 154098092.000000,104576003.000000 154200722.000000,104652138.000000 154280808.000000,104752106.000000 154332841.000000,104869152.000000 154353135.000000,104993962.000000 154343100.000000,104995594.000000 154343100.000000,105006100.000000 153906200.000000,105006100.000000 153906200.000000,104989659.000000 153889051.000000,104903884.000000 153765421.000000,104781650.000000 153651132.000000,104759826.000000 153584067.000000,104761274.000000 153517704.000000,104764683.000000 153413874.000000,104803346.000000 153355000.000000,104885770.000000 153355000.000000,105044145.000000 153358698.000000,105052603.000000 153364639.000000,105061209.000000 153393057.000000,105087297.000000 153435829.000000,105111963.000000 153482933.000000,105128545.000000 153547292.000000,105142166.000000 153613068.000000,105150984.000000 153723452.000000,105161999.000000 153834842.000000,105173968.000000 154139684.000000,105250834.000000 154244312.000000,105312698.000000 154325792.000000,105402778.000000 154370159.000000,105491976.000000 154391400.000000,105588925.000000 154391400.000000,105591437.000000 154334827.000000,105905068.000000 154285274.000000,105978950.000000 154217927.000000,106035466.000000 154088275.000000,106097344.000000 153947917.000000,106128888.000000 153618912.000000,106108351.000000 153463036.000000,106047010.000000 153333154.000000,105946714.000000 153331779.000000,105946072.000000 153325808.000000,105950654.000000 153303851.000000,106050467.000000 153300098.000000,106064865.000000 153294606.000000,106084321.000000 153276825.000000,106093300.000000 152851616.000000,106093300.000000 152865391.000000,106056324.000000 152900281.000000,105926835.000000 152910497.000000,105793056.000000 152907927.000000,105346500.000000 152910500.000000,105346500.000000 152910500.000000,104853700.000000 152912429.000000,104853700.000000 152927286.000000,104763934.000000 153049510.000000,104605077.000000 153183376.000000,104533888.000000 153327117.000000,104490685.000000 153591070.000000,104464262.000000 Z"/> 
</g> 
</g><g id="substrate-outline" style="fill:#000000; stroke:#000000; stroke-width: 150000"><g style="fill-opacity: 0.0;stroke-opacity: 1;stroke-linecap: round;stroke-linejoin: round">
<path d="M135166100 116433600 L135166100 93573600 "/>
<path d="M135166100 93573600 L161836100 93573600 "/>
<path d="M161836100 116433600 L135166100 116433600 "/>
<path d="M161836100 93573600 L161836100 116433600 "/>
</g> 
<path d="M -508000.0 0.0 A 508000.0 508000.0 0 1 1 508000.0 0.0 L 508000.0 0.0 A 508000.0 508000.0 0 1 1 -508000.0 0.0 Z" transform="translate(137706100 113893600) rotate(-90.0)"/><path d="M -508000.0 0.0 A 508000.0 508000.0 0 1 1 508000.0 0.0 L 508000.0 0.0 A 508000.0 508000.0 0 1 1 -508000.0 0.0 Z" transform="translate(140246100 113893600) rotate(-90.0)"/><path d="M -508000.0 0.0 A 508000.0 508000.0 0 1 1 508000.0 0.0 L 508000.0 0.0 A 508000.0 508000.0 0 1 1 -508000.0 0.0 Z" transform="translate(142786100 113893600) rotate(-90.0)"/><path d="M -508000.0 0.0 A 508000.0 508000.0 0 1 1 508000.0 0.0 L 508000.0 0.0 A 508000.0 508000.0 0 1 1 -508000.0 0.0 Z" transform="translate(145326100 113893600) rotate(-90.0)"/><path d="M -508000.0 0.0 A 508000.0 508000.0 0 1 1 508000.0 0.0 L 508000.0 0.0 A 508000.0 508000.0 0 1 1 -508000.0 0.0 Z" transform="translate(147866100 113893600) rotate(-90.0)"/><path d="M -508000.0 0.0 A 508000.0 508000.0 0 1 1 508000.0 0.0 L 508000.0 0.0 A 508000.0 508000.0 0 1 1 -508000.0 0.0 Z" transform="translate(150406100 113893600) rotate(-90.0)"/><path d="M -508000.0 0.0 A 508000.0 508000.0 0 1 1 508000.0 0.0 L 508000.0 0.0 A 508000.0 508000.0 0 1 1 -508000.0 0.0 Z" transform="translate(152946100 113893600) rotate(-90.0)"/><path d="M -508000.0 0.0 A 508000.0 508000.0 0 1 1 508000.0 0.0 L 508000.0 0.0 A 508000.0 508000.0 0 1 1 -508000.0 0.0 Z" transform="translate(155486100 113893600) rotate(-90.0)"/><path d="M -508000.0 0.0 A 508000.0 508000.0 0 1 1 508000.0 0.0 L 508000.0 0.0 A 508000.0 508000.0 0 1 1 -508000.0 0.0 Z" transform="translate(158026100 113893600) rotate(-90.0)"/><path d="M -450000.0 0.0 A 450000.0 450000.0 0 1 1 450000.0 0.0 L 450000.0 0.0 A 450000.0 450000.0 0 1 1 -450000.0 0.0 Z" transform="translate(156756100 107203600) rotate(-180.0)"/><path d="M -450000.0 0.0 A 450000.0 450000.0 0 1 1 450000.0 0.0 L 450000.0 0.0 A 450000.0 450000.0 0 1 1 -450000.0 0.0 Z" transform="translate(156756100 102803600) rotate(-180.0)"/><path d="M -508000.0 0.0 A 508000.0 508000.0 0 1 1 508000.0 0.0 L 508000.0 0.0 A 508000.0 508000.0 0 1 1 -508000.0 0.0 Z" transform="translate(158026100 96113600) rotate(-270.0)"/><path d="M -508000.0 0.0 A 508000.0 508000.0 0 1 1 508000.0 0.0 L 508000.0 0.0 A 508000.0 508000.0 0 1 1 -508000.0 0.0 Z" transform="translate(155486100 96113600) rotate(-270.0)"/><path d="M -508000.0 0.0 A 508000.0 508000.0 0 1 1 508000.0 0.0 L 508000.0 0.0 A 508000.0 508000.0 0 1 1 -508000.0 0.0 Z" transform="translate(152946100 96113600) rotate(-270.0)"/><path d="M -508000.0 0.0 A 508000.0 508000.0 0 1 1 508000.0 0.0 L 508000.0 0.0 A 508000.0 508000.0 0 1 1 -508000.0 0.0 Z" transform="translate(150406100 96113600) rotate(-270.0)"/><path d="M -508000.0 0.0 A 508000.0 508000.0 0 1 1 508000.0 0.0 L 508000.0 0.0 A 508000.0 508000.0 0 1 1 -508000.0 0.0 Z" transform="translate(147866100 96113600) rotate(-270.0)"/><path d="M -508000.0 0.0 A 508000.0 508000.0 0 1 1 508000.0 0.0 L 508000.0 0.0 A 508000.0 508000.0 0 1 1 -508000.0 0.0 Z" transform="translate(145326100 96113600) rotate(-270.0)"/><path d="M -508000.0 0.0 A 508000.0 508000.0 0 1 1 508000.0 0.0 L 508000.0 0.0 A 508000.0 508000.0 0 1 1 -508000.0 0.0 Z" transform="translate(142786100 96113600) rotate(-270.0)"/><path d="M -508000.0 0.0 A 508000.0 508000.0 0 1 1 508000.0 0.0 L 508000.0 0.0 A 508000.0 508000.0 0 1 1 -508000.0 0.0 Z" transform="translate(140246100 96113600) rotate(-270.0)"/><path d="M -508000.0 0.0 A 508000.0 508000.0 0 1 1 508000.0 0.0 L 508000.0 0.0 A 508000.0 508000.0 0 1 1 -508000.0 0.0 Z" transform="translate(137706100 96113600) rotate(-270.0)"/><path d="M -254000.0 0.0 A 254000.0 254000.0 0 1 1 254000.0 0.0 L 254000.0 0.0 A 254000.0 254000.0 0 1 1 -254000.0 0.0 Z" transform="translate(149263100 103098600) rotate(0.0)"/><path d="M -254000.0 0.0 A 254000.0 254000.0 0 1 1 254000.0 0.0 L 254000.0 0.0 A 254000.0 254000.0 0 1 1 -254000.0 0.0 Z" transform="translate(156265900 98475800) rotate(0.0)"/><path d="M -254000.0 0.0 A 254000.0 254000.0 0 1 1 254000.0 0.0 L 254000.0 0.0 A 254000.0 254000.0 0 1 1 -254000.0 0.0 Z" transform="translate(144086600 111173300) rotate(0.0)"/><path d="M -254000.0 0.0 A 254000.0 254000.0 0 1 1 254000.0 0.0 L 254000.0 0.0 A 254000.0 254000.0 0 1 1 -254000.0 0.0 Z" transform="translate(144564100 106273600) rotate(0.0)"/><path d="M -254000.0 0.0 A 254000.0 254000.0 0 1 1 254000.0 0.0 L 254000.0 0.0 A 254000.0 254000.0 0 1 1 -254000.0 0.0 Z" transform="translate(146596100 107035600) rotate(0.0)"/><path d="M -254000.0 0.0 A 254000.0 254000.0 0 1 1 254000.0 0.0 L 254000.0 0.0 A 254000.0 254000.0 0 1 1 -254000.0 0.0 Z" transform="translate(142786100 106273600) rotate(0.0)"/><path d="M -254000.0 0.0 A 254000.0 254000.0 0 1 1 254000.0 0.0 L 254000.0 0.0 A 254000.0 254000.0 0 1 1 -254000.0 0.0 Z" transform="translate(146342100 105765600) rotate(0.0)"/><path d="M -254000.0 0.0 A 254000.0 254000.0 0 1 1 254000.0 0.0 L 254000.0 0.0 A 254000.0 254000.0 0 1 1 -254000.0 0.0 Z" transform="translate(149136100 105765600) rotate(0.0)"/><path d="M -254000.0 0.0 A 254000.0 254000.0 0 1 1 254000.0 0.0 L 254000.0 0.0 A 254000.0 254000.0 0 1 1 -254000.0 0.0 Z" transform="translate(151041100 107162600) rotate(0.0)"/><path d="M -254000.0 0.0 A 254000.0 254000.0 0 1 1 254000.0 0.0 L 254000.0 0.0 A 254000.0 254000.0 0 1 1 -254000.0 0.0 Z" transform="translate(147866100 105765600) rotate(0.0)"/><path d="M -254000.0 0.0 A 254000.0 254000.0 0 1 1 254000.0 0.0 L 254000.0 0.0 A 254000.0 254000.0 0 1 1 -254000.0 0.0 Z" transform="translate(152184100 107797600) rotate(0.0)"/></g></g></g></svg>