<!DOCTYPE svg PUBLIC "-//W3C//DTD SVG 1.1//EN" "http://www.w3.org/Graphics/SVG/1.1/DTD/svg11.dtd">
<svg xmlns="http://www.w3.org/2000/svg" version="1.1" width="12.160001mm" height="15.97mm" viewBox="-15458110.042157 9701860.0 1216000.1024990007 1597000.0">
            <title>Picture generated by PcbDraw </title>
            <desc>Picture generated by PcbDraw</desc>
        <defs><clipPath id="cut-off"><path d=" M 15294610.0 10279380.0 L 15104110.0 10279380.0 L 15104110.0 9928860.0 A 127000 127000 0 0 0 14977110.0 9801860.0 L 14469110.0 9801860.0 A 130208.9 130208.9 0 0 0 14342109.939658 9928859.900969 L 14342110.0 11071860.0 A 127000 127000 0 0 0 14469110.0 11198860.0 L 15231110.0 11198860.0 A 130218.7 130218.7 0 0 0 15358109.863264 11071860.099103 L 15358110.0 10340340.0 A 62243 62243 0 0 0 15294609.99914 10279379.957843 " style="fill-rule: evenodd;"/></clipPath><mask id="pads-mask"><g style="fill:#ffffff; fill-opacity:1.0;  stroke:#ffffff; stroke-width:0.100000; stroke-opacity:1;  stroke-linecap:round; stroke-linejoin:round;">
<path style="fill:#ffffff; fill-opacity:1.0;  stroke:#ffffff; stroke-width:0.100000; stroke-opacity:1;  stroke-linecap:round; stroke-linejoin:round;fill-rule:evenodd;" d="M 14541141.900000,9890093.700000 14555161.000000,9896192.200000 14567124.100000,9905711.200000 14576215.800000,9918002.200000 14581816.600000,9932227.500000 14583543.700000,9947408.800000 14581621.900000,9962263.500000 14575917.600000,9976123.000000 14566820.600000,9988033.800000 14554950.700000,9997184.300000 14541116.900000,10002950.900000 14526319.400000,10004932.800000 14526257.000000,10004932.800000 14411581.900000,10004169.800000 14383679.900000,9996418.500000 14372061.200000,9987332.700000 14363226.000000,9975597.100000 14357729.300000,9961974.600000 14355948.400000,9947417.100000 14357242.100000,9932695.300000 14362310.000000,9918787.800000 14370804.800000,9906665.900000 14382147.600000,9897155.500000 14395565.300000,9890904.900000 14409291.600000,9888490.000000 14409291.300000,9888350.900000 14526070.500000,9887838.600000 Z"/> 
<path style="fill:#ffffff; fill-opacity:1.0;  stroke:#ffffff; stroke-width:0.100000; stroke-opacity:1;  stroke-linecap:round; stroke-linejoin:round;fill-rule:evenodd;" d="M 14795141.900000,9890093.600000 14809161.000000,9896192.200000 14821124.100000,9905711.200000 14830215.700000,9918002.300000 14835816.500000,9932227.600000 14837531.400000,9947301.500000 14836648.500000,9947402.000000 14837529.800000,9947516.000000 14835621.700000,9962263.500000 14829917.300000,9976123.000000 14820820.400000,9988033.800000 14808950.500000,9997184.200000 14795116.800000,10002950.800000 14780316.300000,10004933.200000 14665581.900000,10004169.800000 14637679.900000,9996418.500000 14626061.200000,9987332.700000 14617226.000000,9975597.100000 14611729.300000,9961974.600000 14609948.400000,9947417.100000 14611242.100000,9932695.300000 14616310.000000,9918787.800000 14624804.800000,9906665.900000 14636147.600000,9897155.500000 14649565.300000,9890904.900000 14663291.600000,9888490.000000 14663291.300000,9888350.900000 14780070.400000,9887838.600000 Z"/> 
<path style="fill:#ffffff; fill-opacity:1.0;  stroke:#ffffff; stroke-width:0.100000; stroke-opacity:1;  stroke-linecap:round; stroke-linejoin:round;fill-rule:evenodd;" d="M 15049141.900000,9890093.600000 15063161.000000,9896192.200000 15075124.100000,9905711.200000 15084215.700000,9918002.300000 15089816.500000,9932227.600000 15091531.400000,9947301.500000 15090648.500000,9947402.000000 15091529.800000,9947516.000000 15089621.700000,9962263.500000 15083917.300000,9976123.000000 15074820.400000,9988033.800000 15062950.500000,9997184.200000 15049116.800000,10002950.800000 15034316.300000,10004933.200000 14919581.800000,10004169.800000 14891679.800000,9996418.400000 14880061.200000,9987332.700000 14871226.000000,9975597.100000 14865729.200000,9961974.700000 14863953.100000,9947456.200000 14863953.100000,9947362.900000 14865241.900000,9932695.300000 14870309.800000,9918787.800000 14878804.600000,9906665.900000 14890147.400000,9897155.500000 14903565.100000,9890904.900000 14918102.600000,9888347.300000 15034070.400000,9887838.600000 Z"/> 
<g style="fill:#ffffff; fill-opacity:1.0;  stroke:#ffffff; stroke-width:0.100000; stroke-opacity:1;  stroke-linecap:round; stroke-linejoin:round;">
<path style="fill:#ffffff; fill-opacity:1.0;  stroke:#ffffff; stroke-width:0.100000; stroke-opacity:1;  stroke-linecap:round; stroke-linejoin:round;fill-rule:evenodd;" d="M 14382750.000000,10083800.000000 14383523.400000,10079911.900000 14385725.800000,10076615.800000 14389021.900000,10074413.400000 14392910.000000,10073640.000000 14545310.000000,10073640.000000 14549198.100000,10074413.400000 14552494.200000,10076615.800000 14554696.600000,10079911.900000 14555470.000000,10083800.000000 14555470.000000,10236200.000000 14554696.600000,10240088.100000 14552494.200000,10243384.200000 14549198.100000,10245586.600000 14545310.000000,10246360.000000 14392910.000000,10246360.000000 14389021.900000,10245586.600000 14385725.800000,10243384.200000 14383523.400000,10240088.100000 14382750.000000,10236200.000000 Z"/> 
<circle cx="14723110.000000" cy="10160000.000000" r="92710.000000"/> 
</g>
<g style="fill:#ffffff; fill-opacity:1.0;  stroke:#ffffff; stroke-width:0.100000; stroke-opacity:1;  stroke-linecap:round; stroke-linejoin:round;">
<circle cx="14977110.000000" cy="10160000.000000" r="92710.000000"/> 
</g>
<g style="fill:#ffffff; fill-opacity:1.0;  stroke:#ffffff; stroke-width:0.100000; stroke-opacity:1;  stroke-linecap:round; stroke-linejoin:round;">
<path style="fill:#ffffff; fill-opacity:1.0;  stroke:#ffffff; stroke-width:0.100000; stroke-opacity:1;  stroke-linecap:round; stroke-linejoin:round;fill-rule:evenodd;" d="M 14444980.000000,11031220.000000 14442928.800000,11044170.900000 14436975.900000,11055854.100000 14427704.100000,11065125.900000 14416020.900000,11071078.800000 14403070.000000,11073130.000000 14390119.100000,11071078.800000 14378435.900000,11065125.900000 14369164.100000,11055854.100000 14363211.200000,11044170.900000 14361160.000000,11031220.000000 14363211.200000,11018269.100000 14369164.100000,11006585.900000 14378435.900000,10997314.100000 14390119.100000,10991361.200000 14403070.000000,10989310.000000 14416020.900000,10991361.200000 14427704.100000,10997314.100000 14436975.900000,11006585.900000 14442928.800000,11018269.100000 14444980.000000,11031220.000000 Z"/> 
</g>
<g style="fill:#ffffff; fill-opacity:1.0;  stroke:#ffffff; stroke-width:0.100000; stroke-opacity:1;  stroke-linecap:round; stroke-linejoin:round;">
<path style="fill:#ffffff; fill-opacity:1.0;  stroke:#ffffff; stroke-width:0.100000; stroke-opacity:1;  stroke-linecap:round; stroke-linejoin:round;fill-rule:evenodd;" d="M 14892020.000000,9862820.000000 14889968.800000,9875770.900000 14884015.900000,9887454.100000 14874744.100000,9896725.900000 14863060.900000,9902678.800000 14850110.000000,9904730.000000 14837159.100000,9902678.800000 14825475.900000,9896725.900000 14816204.100000,9887454.100000 14810251.200000,9875770.900000 14808200.000000,9862820.000000 14810251.200000,9849869.100000 14816204.100000,9838185.900000 14825475.900000,9828914.100000 14837159.100000,9822961.200000 14850110.000000,9820910.000000 14863060.900000,9822961.200000 14874744.100000,9828914.100000 14884015.900000,9838185.900000 14889968.800000,9849869.100000 14892020.000000,9862820.000000 Z"/> 
</g>
</g> 
</mask><mask id="pads-mask-silkscreen"><rect x="11142110.0" y="9740623.6" width="10352301.3" height="8072396.4" fill="white"/><g style="fill:#000000; fill-opacity:1.0;  stroke:#000000; stroke-width:0.100000; stroke-opacity:1;  stroke-linecap:round; stroke-linejoin:round;">
<path style="fill:#000000; fill-opacity:1.0;  stroke:#000000; stroke-width:0.100000; stroke-opacity:1;  stroke-linecap:round; stroke-linejoin:round;fill-rule:evenodd;" d="M 14541141.900000,9890093.700000 14555161.000000,9896192.200000 14567124.100000,9905711.200000 14576215.800000,9918002.200000 14581816.600000,9932227.500000 14583543.700000,9947408.800000 14581621.900000,9962263.500000 14575917.600000,9976123.000000 14566820.600000,9988033.800000 14554950.700000,9997184.300000 14541116.900000,10002950.900000 14526319.400000,10004932.800000 14526257.000000,10004932.800000 14411581.900000,10004169.800000 14383679.900000,9996418.500000 14372061.200000,9987332.700000 14363226.000000,9975597.100000 14357729.300000,9961974.600000 14355948.400000,9947417.100000 14357242.100000,9932695.300000 14362310.000000,9918787.800000 14370804.800000,9906665.900000 14382147.600000,9897155.500000 14395565.300000,9890904.900000 14409291.600000,9888490.000000 14409291.300000,9888350.900000 14526070.500000,9887838.600000 Z"/> 
<path style="fill:#000000; fill-opacity:1.0;  stroke:#000000; stroke-width:0.100000; stroke-opacity:1;  stroke-linecap:round; stroke-linejoin:round;fill-rule:evenodd;" d="M 14795141.900000,9890093.600000 14809161.000000,9896192.200000 14821124.100000,9905711.200000 14830215.700000,9918002.300000 14835816.500000,9932227.600000 14837531.400000,9947301.500000 14836648.500000,9947402.000000 14837529.800000,9947516.000000 14835621.700000,9962263.500000 14829917.300000,9976123.000000 14820820.400000,9988033.800000 14808950.500000,9997184.200000 14795116.800000,10002950.800000 14780316.300000,10004933.200000 14665581.900000,10004169.800000 14637679.900000,9996418.500000 14626061.200000,9987332.700000 14617226.000000,9975597.100000 14611729.300000,9961974.600000 14609948.400000,9947417.100000 14611242.100000,9932695.300000 14616310.000000,9918787.800000 14624804.800000,9906665.900000 14636147.600000,9897155.500000 14649565.300000,9890904.900000 14663291.600000,9888490.000000 14663291.300000,9888350.900000 14780070.400000,9887838.600000 Z"/> 
<path style="fill:#000000; fill-opacity:1.0;  stroke:#000000; stroke-width:0.100000; stroke-opacity:1;  stroke-linecap:round; stroke-linejoin:round;fill-rule:evenodd;" d="M 15049141.900000,9890093.600000 15063161.000000,9896192.200000 15075124.100000,9905711.200000 15084215.700000,9918002.300000 15089816.500000,9932227.600000 15091531.400000,9947301.500000 15090648.500000,9947402.000000 15091529.800000,9947516.000000 15089621.700000,9962263.500000 15083917.300000,9976123.000000 15074820.400000,9988033.800000 15062950.500000,9997184.200000 15049116.800000,10002950.800000 15034316.300000,10004933.200000 14919581.800000,10004169.800000 14891679.800000,9996418.400000 14880061.200000,9987332.700000 14871226.000000,9975597.100000 14865729.200000,9961974.700000 14863953.100000,9947456.200000 14863953.100000,9947362.900000 14865241.900000,9932695.300000 14870309.800000,9918787.800000 14878804.600000,9906665.900000 14890147.400000,9897155.500000 14903565.100000,9890904.900000 14918102.600000,9888347.300000 15034070.400000,9887838.600000 Z"/> 
<g style="fill:#000000; fill-opacity:1.0;  stroke:#000000; stroke-width:0.100000; stroke-opacity:1;  stroke-linecap:round; stroke-linejoin:round;">
<path style="fill:#000000; fill-opacity:1.0;  stroke:#000000; stroke-width:0.100000; stroke-opacity:1;  stroke-linecap:round; stroke-linejoin:round;fill-rule:evenodd;" d="M 14382750.000000,10083800.000000 14383523.400000,10079911.900000 14385725.800000,10076615.800000 14389021.900000,10074413.400000 14392910.000000,10073640.000000 14545310.000000,10073640.000000 14549198.100000,10074413.400000 14552494.200000,10076615.800000 14554696.600000,10079911.900000 14555470.000000,10083800.000000 14555470.000000,10236200.000000 14554696.600000,10240088.100000 14552494.200000,10243384.200000 14549198.100000,10245586.600000 14545310.000000,10246360.000000 14392910.000000,10246360.000000 14389021.900000,10245586.600000 14385725.800000,10243384.200000 14383523.400000,10240088.100000 14382750.000000,10236200.000000 Z"/> 
<circle cx="14723110.000000" cy="10160000.000000" r="92710.000000"/> 
</g>
<g style="fill:#000000; fill-opacity:1.0;  stroke:#000000; stroke-width:0.100000; stroke-opacity:1;  stroke-linecap:round; stroke-linejoin:round;">
<circle cx="14977110.000000" cy="10160000.000000" r="92710.000000"/> 
</g>
<g style="fill:#000000; fill-opacity:1.0;  stroke:#000000; stroke-width:0.100000; stroke-opacity:1;  stroke-linecap:round; stroke-linejoin:round;">
<path style="fill:#000000; fill-opacity:1.0;  stroke:#000000; stroke-width:0.100000; stroke-opacity:1;  stroke-linecap:round; stroke-linejoin:round;fill-rule:evenodd;" d="M 14444980.000000,11031220.000000 14442928.800000,11044170.900000 14436975.900000,11055854.100000 14427704.100000,11065125.900000 14416020.900000,11071078.800000 14403070.000000,11073130.000000 14390119.100000,11071078.800000 14378435.900000,11065125.900000 14369164.100000,11055854.100000 14363211.200000,11044170.900000 14361160.000000,11031220.000000 14363211.200000,11018269.100000 14369164.100000,11006585.900000 14378435.900000,10997314.100000 14390119.100000,10991361.200000 14403070.000000,10989310.000000 14416020.900000,10991361.200000 14427704.100000,10997314.100000 14436975.900000,11006585.900000 14442928.800000,11018269.100000 14444980.000000,11031220.000000 Z"/> 
</g>
<g style="fill:#000000; fill-opacity:1.0;  stroke:#000000; stroke-width:0.100000; stroke-opacity:1;  stroke-linecap:round; stroke-linejoin:round;">
<path style="fill:#000000; fill-opacity:1.0;  stroke:#000000; stroke-width:0.100000; stroke-opacity:1;  stroke-linecap:round; stroke-linejoin:round;fill-rule:evenodd;" d="M 14892020.000000,9862820.000000 14889968.800000,9875770.900000 14884015.900000,9887454.100000 14874744.100000,9896725.900000 14863060.900000,9902678.800000 14850110.000000,9904730.000000 14837159.100000,9902678.800000 14825475.900000,9896725.900000 14816204.100000,9887454.100000 14810251.200000,9875770.900000 14808200.000000,9862820.000000 14810251.200000,9849869.100000 14816204.100000,9838185.900000 14825475.900000,9828914.100000 14837159.100000,9822961.200000 14850110.000000,9820910.000000 14863060.900000,9822961.200000 14874744.100000,9828914.100000 14884015.900000,9838185.900000 14889968.800000,9849869.100000 14892020.000000,9862820.000000 Z"/> 
</g>
</g> 
</mask><mask id="hole-mask"><g><rect x="11142110.0" y="9740623.6" fill="white" width="10352301.3" height="8072396.4"/><polyline stroke-linecap="round" stroke="black" stroke-width="101600.0" points="-0.0 0 0.0 0" transform="translate(14469110.0 10160000.0) rotate(-0.0)"/><polyline stroke-linecap="round" stroke="black" stroke-width="101600.0" points="-0.0 0 0.0 0" transform="translate(14469110.0 9946640.0) rotate(-0.0)"/><polyline stroke-linecap="round" stroke="black" stroke-width="101600.0" points="-0.0 0 0.0 0" transform="translate(14723110.0 10160000.0) rotate(-0.0)"/><polyline stroke-linecap="round" stroke="black" stroke-width="101600.0" points="-0.0 0 0.0 0" transform="translate(14723110.0 9946640.0) rotate(-0.0)"/><polyline stroke-linecap="round" stroke="black" stroke-width="101600.0" points="-0.0 0 0.0 0" transform="translate(14977110.0 10160000.0) rotate(-0.0)"/><polyline stroke-linecap="round" stroke="black" stroke-width="101600.0" points="-0.0 0 0.0 0" transform="translate(14977110.0 9946640.0) rotate(-0.0)"/><polyline stroke-linecap="round" stroke="black" stroke-width="38100.0" points="-0.0 0 0.0 0" transform="translate(15292070.0 10967720.0) rotate(0.0)"/><polyline stroke-linecap="round" stroke="black" stroke-width="38100.0" points="-0.0 0 0.0 0" transform="translate(14931390.0 10335260.0) rotate(0.0)"/><polyline stroke-linecap="round" stroke="black" stroke-width="38100.0" points="-0.0 0 0.0 0" transform="translate(14715490.0 10787380.0) rotate(0.0)"/><polyline stroke-linecap="round" stroke="black" stroke-width="38100.0" points="-0.0 0 0.0 0" transform="translate(14893290.0 10972800.0) rotate(0.0)"/></g></mask></defs><g transform="scale(-1,1)" id="boardContainer"><g id="substrate" clip-path="url(#cut-off)" mask="url(#hole-mask)"><g id="substrate-board" style="fill:#4ca06c; stroke:#4ca06c;"><path d=" M 15294610.0 10279380.0 L 15104110.0 10279380.0 L 15104110.0 9928860.0 A 127000 127000 0 0 0 14977110.0 9801860.0 L 14469110.0 9801860.0 A 130208.9 130208.9 0 0 0 14342109.939658 9928859.900969 L 14342110.0 11071860.0 A 127000 127000 0 0 0 14469110.0 11198860.0 L 15231110.0 11198860.0 A 130218.7 130218.7 0 0 0 15358109.863264 11071860.099103 L 15358110.0 10340340.0 A 62243 62243 0 0 0 15294609.99914 10279379.957843 " style="fill-rule: evenodd;"/><g style="fill-opacity: 0.0;stroke-width: 20320.000000;stroke-opacity: 1;stroke-linecap: round;stroke-linejoin: round">
<path d="M15358110.042157 10340339.999140 A62243.000000 62243.000000 0.0 0 0 15294609.999140 10279379.957843"/>
<path d="M14469110.235901 9801869.687583 A130208.900000 130208.900000 0.0 0 0 14342109.939658 9928859.900969"/>
<path d="M14977110 9801860 L14469110 9801860 "/>
<path d="M15104110 10279380 L15104110 9928860 "/>
<path d="M15231110 11198860 L14469110 11198860 "/>
<path d="M15231109.996721 11198859.865765 A130218.700000 130218.700000 0.0 0 0 15358109.863264 11071860.099103"/>
<path d="M14342110 11071860 L14342110 9928860 "/>
<path d="M14342110.000000 11071860.000000 A127000.000000 127000.000000 0.0 0 0 14469110.000000 11198860.000000"/>
<path d="M15358110 10340340 L15358110 11071860 "/>
<path d="M15104110.000000 9928860.000000 A127000.000000 127000.000000 0.0 0 0 14977110.000000 9801860.000000"/>
<path d="M15104110 10279380 L15294610 10279380 "/>
</g> 
</g><g id="substrate-clad" style="fill:#9c6b28; stroke:#9c6b28;"><g style="fill-opacity: 1.0;stroke-width: 0.100000;stroke-opacity: 1;stroke-linecap: round;stroke-linejoin: round">
<path style="fill-opacity: 1.0;stroke-width: 0.100000;stroke-opacity: 1;stroke-linecap: round;stroke-linejoin: round;fill-rule: evenodd" d="M 14541141.900000,9890093.700000 14555161.000000,9896192.200000 14567124.100000,9905711.200000 14576215.800000,9918002.200000 14581816.600000,9932227.500000 14583543.700000,9947408.800000 14581621.900000,9962263.500000 14575917.600000,9976123.000000 14566820.600000,9988033.800000 14554950.700000,9997184.300000 14541116.900000,10002950.900000 14526319.400000,10004932.800000 14526257.000000,10004932.800000 14411581.900000,10004169.800000 14383679.900000,9996418.500000 14372061.200000,9987332.700000 14363226.000000,9975597.100000 14357729.300000,9961974.600000 14355948.400000,9947417.100000 14357242.100000,9932695.300000 14362310.000000,9918787.800000 14370804.800000,9906665.900000 14382147.600000,9897155.500000 14395565.300000,9890904.900000 14409291.600000,9888490.000000 14409291.300000,9888350.900000 14526070.500000,9887838.600000 Z"/> 
<path style="fill-opacity: 1.0;stroke-width: 0.100000;stroke-opacity: 1;stroke-linecap: round;stroke-linejoin: round;fill-rule: evenodd" d="M 14795141.900000,9890093.600000 14809161.000000,9896192.200000 14821124.100000,9905711.200000 14830215.700000,9918002.300000 14835816.500000,9932227.600000 14837531.400000,9947301.500000 14836648.500000,9947402.000000 14837529.800000,9947516.000000 14835621.700000,9962263.500000 14829917.300000,9976123.000000 14820820.400000,9988033.800000 14808950.500000,9997184.200000 14795116.800000,10002950.800000 14780316.300000,10004933.200000 14665581.900000,10004169.800000 14637679.900000,9996418.500000 14626061.200000,9987332.700000 14617226.000000,9975597.100000 14611729.300000,9961974.600000 14609948.400000,9947417.100000 14611242.100000,9932695.300000 14616310.000000,9918787.800000 14624804.800000,9906665.900000 14636147.600000,9897155.500000 14649565.300000,9890904.900000 14663291.600000,9888490.000000 14663291.300000,9888350.900000 14780070.400000,9887838.600000 Z"/> 
<path style="fill-opacity: 1.0;stroke-width: 0.100000;stroke-opacity: 1;stroke-linecap: round;stroke-linejoin: round;fill-rule: evenodd" d="M 15049141.900000,9890093.600000 15063161.000000,9896192.200000 15075124.100000,9905711.200000 15084215.700000,9918002.300000 15089816.500000,9932227.600000 15091531.400000,9947301.500000 15090648.500000,9947402.000000 15091529.800000,9947516.000000 15089621.700000,9962263.500000 15083917.300000,9976123.000000 15074820.400000,9988033.800000 15062950.500000,9997184.200000 15049116.800000,10002950.800000 15034316.300000,10004933.200000 14919581.800000,10004169.800000 14891679.800000,9996418.400000 14880061.200000,9987332.700000 14871226.000000,9975597.100000 14865729.200000,9961974.700000 14863953.100000,9947456.200000 14863953.100000,9947362.900000 14865241.900000,9932695.300000 14870309.800000,9918787.800000 14878804.600000,9906665.900000 14890147.400000,9897155.500000 14903565.100000,9890904.900000 14918102.600000,9888347.300000 15034070.400000,9887838.600000 Z"/> 
<g style="fill-opacity: 1.0;stroke-width: 0.100000;stroke-opacity: 1;stroke-linecap: round;stroke-linejoin: round">
<path style="fill-opacity: 1.0;stroke-width: 0.100000;stroke-opacity: 1;stroke-linecap: round;stroke-linejoin: round;fill-rule: evenodd" d="M 14382750.000000,10083800.000000 14383523.400000,10079911.900000 14385725.800000,10076615.800000 14389021.900000,10074413.400000 14392910.000000,10073640.000000 14545310.000000,10073640.000000 14549198.100000,10074413.400000 14552494.200000,10076615.800000 14554696.600000,10079911.900000 14555470.000000,10083800.000000 14555470.000000,10236200.000000 14554696.600000,10240088.100000 14552494.200000,10243384.200000 14549198.100000,10245586.600000 14545310.000000,10246360.000000 14392910.000000,10246360.000000 14389021.900000,10245586.600000 14385725.800000,10243384.200000 14383523.400000,10240088.100000 14382750.000000,10236200.000000 Z"/> 
<circle cx="14723110.000000" cy="10160000.000000" r="92710.000000"/> 
</g>
<g style="fill-opacity: 1.0;stroke-width: 0.100000;stroke-opacity: 1;stroke-linecap: round;stroke-linejoin: round">
<circle cx="14977110.000000" cy="10160000.000000" r="92710.000000"/> 
</g>
<g style="fill-opacity: 1.0;stroke-width: 0.100000;stroke-opacity: 1;stroke-linecap: round;stroke-linejoin: round">
<path style="fill-opacity: 1.0;stroke-width: 0.100000;stroke-opacity: 1;stroke-linecap: round;stroke-linejoin: round;fill-rule: evenodd" d="M 14444980.000000,11031220.000000 14442928.800000,11044170.900000 14436975.900000,11055854.100000 14427704.100000,11065125.900000 14416020.900000,11071078.800000 14403070.000000,11073130.000000 14390119.100000,11071078.800000 14378435.900000,11065125.900000 14369164.100000,11055854.100000 14363211.200000,11044170.900000 14361160.000000,11031220.000000 14363211.200000,11018269.100000 14369164.100000,11006585.900000 14378435.900000,10997314.100000 14390119.100000,10991361.200000 14403070.000000,10989310.000000 14416020.900000,10991361.200000 14427704.100000,10997314.100000 14436975.900000,11006585.900000 14442928.800000,11018269.100000 14444980.000000,11031220.000000 Z"/> 
</g>
<g style="fill-opacity: 1.0;stroke-width: 0.100000;stroke-opacity: 1;stroke-linecap: round;stroke-linejoin: round">
<path style="fill-opacity: 1.0;stroke-width: 0.100000;stroke-opacity: 1;stroke-linecap: round;stroke-linejoin: round;fill-rule: evenodd" d="M 14892020.000000,9862820.000000 14889968.800000,9875770.900000 14884015.900000,9887454.100000 14874744.100000,9896725.900000 14863060.900000,9902678.800000 14850110.000000,9904730.000000 14837159.100000,9902678.800000 14825475.900000,9896725.900000 14816204.100000,9887454.100000 14810251.200000,9875770.900000 14808200.000000,9862820.000000 14810251.200000,9849869.100000 14816204.100000,9838185.900000 14825475.900000,9828914.100000 14837159.100000,9822961.200000 14850110.000000,9820910.000000 14863060.900000,9822961.200000 14874744.100000,9828914.100000 14884015.900000,9838185.900000 14889968.800000,9849869.100000 14892020.000000,9862820.000000 Z"/> 
</g>
</g> 
</g><g id="substrate-copper" style="fill:#417e5a; stroke:#417e5a;"><g style="fill-opacity: 0.0;stroke-width: 20320.000000;stroke-opacity: 1;stroke-linecap: round;stroke-linejoin: round">
<g transform="rotate(90.000000 14469110.000000 10502900.000000)">
<text x="14469110.000000" y="10584180.000000" transform="scale(-1 1) translate(-28938220.000000 0)" textLength="216746.600000" font-size="108373.300000" lengthAdjust="spacingAndGlyphs" text-anchor="end" opacity="0">v14</text>
</g>
<g class="stroked-text"><desc>v14</desc>
<path d="M14445887 10721243 L14391700 10701890 L14445887 10682538 "/>
<path d="M14391700 10608999 L14391700 10655445 "/>
<path d="M14391700 10632222 L14472980 10632222 L14461369 10639963 L14453628 10647704 L14449757 10655445 "/>
<path d="M14445887 10539330 L14391700 10539330 "/>
<path d="M14476850 10558683 L14418793 10578035 L14418793 10527719 "/>
</g><g style="fill-opacity: 1.0;stroke-width: 0.100000;stroke-opacity: 1;stroke-linecap: round;stroke-linejoin: round">
<path style="fill-opacity: 1.0;stroke-width: 0.100000;stroke-opacity: 1;stroke-linecap: round;stroke-linejoin: round;fill-rule: evenodd" d="M 14392910.000000,10236200.000000 14392910.000000,10083800.000000 14545310.000000,10083800.000000 14545310.000000,10236200.000000 Z"/> 
</g>
<g style="fill-opacity: 0.0;stroke-width: 116840.000000;stroke-opacity: 1;stroke-linecap: round;stroke-linejoin: round">
<path d="M14410690 9946640 L14527530 9946640 "/>
</g>
<g style="fill-opacity: 1.0;stroke-width: 0.100000;stroke-opacity: 1;stroke-linecap: round;stroke-linejoin: round">
<circle cx="14723110.000000" cy="10160000.000000" r="82550.000000"/> 
</g>
<g style="fill-opacity: 0.0;stroke-width: 116840.000000;stroke-opacity: 1;stroke-linecap: round;stroke-linejoin: round">
<path d="M14664690 9946640 L14781530 9946640 "/>
</g>
<g style="fill-opacity: 1.0;stroke-width: 0.100000;stroke-opacity: 1;stroke-linecap: round;stroke-linejoin: round">
<circle cx="14977110.000000" cy="10160000.000000" r="82550.000000"/> 
</g>
<g style="fill-opacity: 0.0;stroke-width: 116840.000000;stroke-opacity: 1;stroke-linecap: round;stroke-linejoin: round">
<path d="M14918690 9946640 L15035530 9946640 "/>
</g>
<g style="fill-opacity: 1.0;stroke-width: 0.100000;stroke-opacity: 1;stroke-linecap: round;stroke-linejoin: round">
<path style="fill-opacity: 1.0;stroke-width: 0.100000;stroke-opacity: 1;stroke-linecap: round;stroke-linejoin: round;fill-rule: evenodd" d="M 14434820.000000,11031220.000000 14433738.100000,11039437.500000 14429078.100000,11049431.100000 14421281.100000,11057228.100000 14411287.500000,11061888.100000 14403070.000000,11062970.000000 14394852.500000,11061888.100000 14384858.900000,11057228.100000 14377061.900000,11049431.100000 14372401.900000,11039437.500000 14371320.000000,11031220.000000 14372401.900000,11023002.500000 14377061.900000,11013008.900000 14384858.900000,11005211.900000 14394852.500000,11000551.900000 14403070.000000,10999470.000000 14411287.500000,11000551.900000 14421281.100000,11005211.900000 14429078.100000,11013008.900000 14433738.100000,11023002.500000 14434820.000000,11031220.000000 Z"/> 
</g>
<g style="fill-opacity: 1.0;stroke-width: 0.100000;stroke-opacity: 1;stroke-linecap: round;stroke-linejoin: round">
<path style="fill-opacity: 1.0;stroke-width: 0.100000;stroke-opacity: 1;stroke-linecap: round;stroke-linejoin: round;fill-rule: evenodd" d="M 14881860.000000,9862820.000000 14880778.100000,9871037.500000 14876118.100000,9881031.100000 14868321.100000,9888828.100000 14858327.500000,9893488.100000 14850110.000000,9894570.000000 14841892.500000,9893488.100000 14831898.900000,9888828.100000 14824101.900000,9881031.100000 14819441.900000,9871037.500000 14818360.000000,9862820.000000 14819441.900000,9854602.500000 14824101.900000,9844608.900000 14831898.900000,9836811.900000 14841892.500000,9832151.900000 14850110.000000,9831070.000000 14858327.500000,9832151.900000 14868321.100000,9836811.900000 14876118.100000,9844608.900000 14880778.100000,9854602.500000 14881860.000000,9862820.000000 Z"/> 
</g>
<g style="fill-opacity: 1.0;stroke-width: 0.100000;stroke-opacity: 1;stroke-linecap: round;stroke-linejoin: round">
<circle cx="15292070.000000" cy="10967720.000000" r="36830.000000"/> 
</g>
<g style="fill-opacity: 1.0;stroke-width: 0.100000;stroke-opacity: 1;stroke-linecap: round;stroke-linejoin: round">
<circle cx="14931390.000000" cy="10335260.000000" r="36830.000000"/> 
</g>
<g style="fill-opacity: 1.0;stroke-width: 0.100000;stroke-opacity: 1;stroke-linecap: round;stroke-linejoin: round">
<circle cx="14715490.000000" cy="10787380.000000" r="36830.000000"/> 
</g>
<g style="fill-opacity: 1.0;stroke-width: 0.100000;stroke-opacity: 1;stroke-linecap: round;stroke-linejoin: round">
<circle cx="14893290.000000" cy="10972800.000000" r="36830.000000"/> 
</g>
<g style="fill-opacity: 0.0;stroke-width: 25400.000000;stroke-opacity: 1;stroke-linecap: round;stroke-linejoin: round">
<path d="M14715490 10787380 L14715490 10431780 "/>
<path d="M14715490 10431780 L14977110 10160000 "/>
<path d="M14677390 10972800 L14893290 10972800 "/>
<path d="M14598650 9946640 L14723110 9946640 "/>
<path d="M14677390 10972800 L14598650 10894060 "/>
<path d="M14598650 10894060 L14598650 9946640 "/>
</g>
</g> 
</g><g id="substrate-pads" style="fill:#b5ae30; stroke:#b5ae30;" mask="url(#pads-mask)"><g style="fill-opacity: 0.0;stroke-width: 20320.000000;stroke-opacity: 1;stroke-linecap: round;stroke-linejoin: round">
<g transform="rotate(90.000000 14469110.000000 10502900.000000)">
<text x="14469110.000000" y="10584180.000000" transform="scale(-1 1) translate(-28938220.000000 0)" textLength="190330.700000" font-size="108373.300000" lengthAdjust="spacingAndGlyphs" text-anchor="end" opacity="0">v14</text>
</g>
<g class="stroked-text"><desc>v14</desc>
<path d="M14445887 10721243 L14391700 10701890 L14445887 10682538 "/>
<path d="M14391700 10608999 L14391700 10655445 "/>
<path d="M14391700 10632222 L14472980 10632222 L14461369 10639963 L14453628 10647704 L14449757 10655445 "/>
<path d="M14445887 10539330 L14391700 10539330 "/>
<path d="M14476850 10558683 L14418793 10578035 L14418793 10527719 "/>
</g><g style="fill-opacity: 1.0;stroke-width: 0.100000;stroke-opacity: 1;stroke-linecap: round;stroke-linejoin: round">
<path style="fill-opacity: 1.0;stroke-width: 0.100000;stroke-opacity: 1;stroke-linecap: round;stroke-linejoin: round;fill-rule: evenodd" d="M 14392910.000000,10236200.000000 14392910.000000,10083800.000000 14545310.000000,10083800.000000 14545310.000000,10236200.000000 Z"/> 
</g>
<g style="fill-opacity: 0.0;stroke-width: 116840.000000;stroke-opacity: 1;stroke-linecap: round;stroke-linejoin: round">
<path d="M14410690 9946640 L14527530 9946640 "/>
</g>
<g style="fill-opacity: 1.0;stroke-width: 0.100000;stroke-opacity: 1;stroke-linecap: round;stroke-linejoin: round">
<circle cx="14723110.000000" cy="10160000.000000" r="82550.000000"/> 
</g>
<g style="fill-opacity: 0.0;stroke-width: 116840.000000;stroke-opacity: 1;stroke-linecap: round;stroke-linejoin: round">
<path d="M14664690 9946640 L14781530 9946640 "/>
</g>
<g style="fill-opacity: 1.0;stroke-width: 0.100000;stroke-opacity: 1;stroke-linecap: round;stroke-linejoin: round">
<circle cx="14977110.000000" cy="10160000.000000" r="82550.000000"/> 
</g>
<g style="fill-opacity: 0.0;stroke-width: 116840.000000;stroke-opacity: 1;stroke-linecap: round;stroke-linejoin: round">
<path d="M14918690 9946640 L15035530 9946640 "/>
</g>
<g style="fill-opacity: 1.0;stroke-width: 0.100000;stroke-opacity: 1;stroke-linecap: round;stroke-linejoin: round">
<path style="fill-opacity: 1.0;stroke-width: 0.100000;stroke-opacity: 1;stroke-linecap: round;stroke-linejoin: round;fill-rule: evenodd" d="M 14434820.000000,11031220.000000 14433738.100000,11039437.500000 14429078.100000,11049431.100000 14421281.100000,11057228.100000 14411287.500000,11061888.100000 14403070.000000,11062970.000000 14394852.500000,11061888.100000 14384858.900000,11057228.100000 14377061.900000,11049431.100000 14372401.900000,11039437.500000 14371320.000000,11031220.000000 14372401.900000,11023002.500000 14377061.900000,11013008.900000 14384858.900000,11005211.900000 14394852.500000,11000551.900000 14403070.000000,10999470.000000 14411287.500000,11000551.900000 14421281.100000,11005211.900000 14429078.100000,11013008.900000 14433738.100000,11023002.500000 14434820.000000,11031220.000000 Z"/> 
</g>
<g style="fill-opacity: 1.0;stroke-width: 0.100000;stroke-opacity: 1;stroke-linecap: round;stroke-linejoin: round">
<path style="fill-opacity: 1.0;stroke-width: 0.100000;stroke-opacity: 1;stroke-linecap: round;stroke-linejoin: round;fill-rule: evenodd" d="M 14881860.000000,9862820.000000 14880778.100000,9871037.500000 14876118.100000,9881031.100000 14868321.100000,9888828.100000 14858327.500000,9893488.100000 14850110.000000,9894570.000000 14841892.500000,9893488.100000 14831898.900000,9888828.100000 14824101.900000,9881031.100000 14819441.900000,9871037.500000 14818360.000000,9862820.000000 14819441.900000,9854602.500000 14824101.900000,9844608.900000 14831898.900000,9836811.900000 14841892.500000,9832151.900000 14850110.000000,9831070.000000 14858327.500000,9832151.900000 14868321.100000,9836811.900000 14876118.100000,9844608.900000 14880778.100000,9854602.500000 14881860.000000,9862820.000000 Z"/> 
</g>
<g style="fill-opacity: 1.0;stroke-width: 0.100000;stroke-opacity: 1;stroke-linecap: round;stroke-linejoin: round">
<circle cx="15292070.000000" cy="10967720.000000" r="36830.000000"/> 
</g>
<g style="fill-opacity: 1.0;stroke-width: 0.100000;stroke-opacity: 1;stroke-linecap: round;stroke-linejoin: round">
<circle cx="14931390.000000" cy="10335260.000000" r="36830.000000"/> 
</g>
<g style="fill-opacity: 1.0;stroke-width: 0.100000;stroke-opacity: 1;stroke-linecap: round;stroke-linejoin: round">
<circle cx="14715490.000000" cy="10787380.000000" r="36830.000000"/> 
</g>
<g style="fill-opacity: 1.0;stroke-width: 0.100000;stroke-opacity: 1;stroke-linecap: round;stroke-linejoin: round">
<circle cx="14893290.000000" cy="10972800.000000" r="36830.000000"/> 
</g>
<g style="fill-opacity: 0.0;stroke-width: 25400.000000;stroke-opacity: 1;stroke-linecap: round;stroke-linejoin: round">
<path d="M14715490 10787380 L14715490 10431780 "/>
<path d="M14715490 10431780 L14977110 10160000 "/>
<path d="M14677390 10972800 L14893290 10972800 "/>
<path d="M14598650 9946640 L14723110 9946640 "/>
<path d="M14677390 10972800 L14598650 10894060 "/>
<path d="M14598650 10894060 L14598650 9946640 "/>
</g>
</g> 
</g><g id="substrate-silk" style="fill:#f0f0f0; stroke:#f0f0f0;" mask="url(#pads-mask-silkscreen)"><g style="fill-opacity: 1.0;stroke-width: 0.100000;stroke-opacity: 1;stroke-linecap: round;stroke-linejoin: round">
<path style="fill-opacity: 1.0;stroke-width: 0.100000;stroke-opacity: 1;stroke-linecap: round;stroke-linejoin: round;fill-rule: evenodd" d="M 14626856.600000,10946478.000000 14627427.000000,10946763.200000 14630104.000000,10946763.200000 14631104.000000,10947763.200000 14632427.100000,10947763.200000 14634427.000000,10948763.200000 14635427.100000,10948763.200000 14638781.000000,10950440.200000 14639104.000000,10950763.200000 14641104.000000,10950763.200000 14642781.000000,10952440.200000 14644781.000000,10953440.200000 14645104.000000,10953763.200000 14647104.000000,10953763.200000 14648386.700000,10955045.900000 14677978.600000,10934637.800000 14704455.400000,10961114.600000 14684330.000000,10990296.500000 14684330.000000,10991989.200000 14684653.000000,10992312.200000 14685653.000000,10994312.200000 14687330.000000,10995989.200000 14687330.000000,10997989.200000 14687653.000000,10998312.200000 14689330.000000,11001666.100000 14689330.000000,11002666.200000 14691330.000000,11006666.100000 14691330.000000,11007666.200000 14692330.000000,11009666.100000 14692330.000000,11010666.200000 14693162.100000,11012330.400000 14728330.000000,11018359.200000 14728330.000000,11056767.100000 14692615.200000,11062889.700000 14692330.000000,11063460.100000 14692330.000000,11066137.100000 14691330.000000,11067137.100000 14691330.000000,11069137.100000 14689653.000000,11070814.100000 14689330.000000,11071460.100000 14689330.000000,11074137.100000 14688330.000000,11075137.100000 14688330.000000,11077137.100000 14686653.000000,11078814.100000 14685653.000000,11080814.100000 14684653.000000,11081814.100000 14684330.000000,11082460.100000 14684330.000000,11083460.200000 14683952.000000,11084216.100000 14704451.500000,11112915.400000 14678038.000000,11140529.500000 14648386.700000,11120080.400000 14648104.000000,11120363.100000 14647104.000000,11120363.100000 14646104.000000,11121363.100000 14645104.000000,11121363.100000 14644104.000000,11122363.100000 14643104.000000,11122363.100000 14642104.000000,11123363.100000 14641104.000000,11123363.100000 14640104.000000,11124363.100000 14639104.000000,11124363.100000 14638104.000000,11125363.100000 14636104.000000,11125363.100000 14632025.400000,11129441.700000 14608602.500000,11066200.000000 14615072.400000,11064043.400000 14618279.000000,11062440.100000 14620279.000000,11060440.100000 14622279.000000,11059440.100000 14623407.000000,11058312.100000 14624407.000000,11056312.100000 14626407.000000,11054312.100000 14628010.300000,11051105.500000 14629010.400000,11048105.200000 14630730.000000,11044666.100000 14630730.000000,11041946.400000 14631730.000000,11038946.400000 14631730.000000,11034179.900000 14628085.900000,11023247.700000 14624576.800000,11017984.000000 14623109.200000,11016516.400000 14620109.100000,11014516.300000 14618109.200000,11012516.400000 14615845.500000,11011007.300000 14612845.600000,11010007.300000 14610379.400000,11008363.200000 14608062.200000,11008363.200000 14604062.400000,11007363.200000 14598146.700000,11007363.200000 14595146.700000,11008363.200000 14592680.600000,11008363.200000 14590214.400000,11010007.300000 14587214.500000,11011007.300000 14581950.800000,11014516.400000 14578483.200000,11017984.000000 14574974.100000,11023247.700000 14573974.100000,11026247.600000 14572330.000000,11028713.800000 14572330.000000,11031179.900000 14571330.000000,11034179.900000 14571330.000000,11041946.400000 14572330.000000,11044946.400000 14572330.000000,11046666.100000 14573049.600000,11048105.200000 14574049.700000,11051105.500000 14574653.000000,11052312.100000 14576653.000000,11054312.100000 14577653.000000,11056312.100000 14580781.000000,11059440.100000 14582781.000000,11060440.100000 14584781.000000,11062440.100000 14593276.800000,11066687.900000 14564730.000000,11143764.200000 14564730.000000,11125137.100000 14563956.000000,11124363.100000 14562956.000000,11124363.100000 14561956.000000,11123363.100000 14560956.000000,11123363.100000 14559956.000000,11122363.100000 14557956.000000,11122363.100000 14556956.000000,11121363.100000 14555956.000000,11121363.100000 14554673.300000,11120080.400000 14525081.400000,11140488.500000 14497512.600000,11112919.700000 14518941.100000,11084348.200000 14518407.000000,11083814.100000 14516730.000000,11080460.200000 14516730.000000,11079460.100000 14516407.000000,11078814.100000 14515407.000000,11077814.100000 14513730.000000,11074460.200000 14513730.000000,11073460.100000 14511730.000000,11069460.200000 14511730.000000,11068460.100000 14510730.000000,11066460.200000 14510730.000000,11065460.100000 14509730.000000,11063460.200000 14509730.000000,11062938.600000 14473730.000000,11056767.100000 14473730.000000,11018344.100000 14509730.000000,11012344.100000 14509730.000000,11009989.200000 14510730.000000,11008989.200000 14510730.000000,11006989.200000 14512407.000000,11005312.200000 14512730.000000,11004666.200000 14512730.000000,11001989.200000 14513730.000000,11000989.200000 14513730.000000,10998989.200000 14515407.000000,10997312.200000 14516407.000000,10995312.200000 14516730.000000,10994989.200000 14516730.000000,10992989.200000 14518407.000000,10991312.200000 14518804.700000,10990516.800000 14497508.600000,10961107.800000 14525139.700000,10934678.000000 14554418.700000,10954870.400000 14556632.900000,10953763.200000 14557633.000000,10953763.200000 14558279.000000,10953440.200000 14559279.000000,10952440.200000 14562632.900000,10950763.200000 14563633.000000,10950763.200000 14564279.000000,10950440.200000 14565956.000000,10948763.200000 14568633.000000,10948763.200000 14570632.900000,10947763.200000 14571633.000000,10947763.200000 14573632.900000,10946763.200000 14574633.000000,10946763.200000 14576297.200000,10945931.100000 14582326.000000,10910763.200000 14620734.000000,10910763.200000 Z"/> 
<path style="fill-opacity: 1.0;stroke-width: 0.100000;stroke-opacity: 1;stroke-linecap: round;stroke-linejoin: round;fill-rule: evenodd" d="M 15175735.500000,10872661.300000 15187545.400000,10879103.000000 15197322.600000,10886707.500000 15202921.100000,10895665.100000 15206260.000000,10905681.700000 15206260.000000,10914718.200000 15204049.200000,10924666.600000 15198583.900000,10934504.200000 15191307.500000,10942820.100000 15183223.200000,10951914.900000 15176727.600000,10958410.600000 15174260.000000,10964990.900000 15174260.000000,10970681.700000 15175849.600000,10975450.500000 15179055.600000,10979458.000000 15184014.300000,10982763.900000 15190918.900000,10984490.000000 15198072.800000,10984490.000000 15202359.700000,10983632.600000 15206308.800000,10982053.000000 15211489.300000,10976872.500000 15212996.800000,10974611.200000 15213640.000000,10972681.700000 15213640.000000,10969918.300000 15213119.900000,10968358.100000 15208391.900000,10963630.100000 15205988.300000,10962828.900000 15201193.100000,10960431.300000 15196018.100000,10955256.200000 15205550.600000,10950490.000000 15218765.300000,10950490.000000 15225137.000000,10951551.900000 15230540.200000,10952632.600000 15236332.900000,10954949.700000 15240783.600000,10958287.700000 15246364.800000,10962752.600000 15252975.400000,10973770.400000 15255194.100000,10981535.900000 15256260.000000,10990062.800000 15256260.000000,11136498.200000 15244424.300000,11124662.400000 15241424.500000,11119662.700000 15236633.700000,11114871.900000 15231634.100000,11108872.300000 15219652.500000,11096890.600000 15207652.600000,11082890.800000 15198087.300000,11073325.500000 15189110.300000,11067939.300000 15184134.400000,11067110.000000 15165134.700000,11067110.000000 15152633.500000,11065026.500000 15141237.300000,11061918.400000 15130751.600000,11057724.100000 15120197.600000,11051391.700000 15111845.600000,11044083.800000 15103588.200000,11035826.300000 15096262.200000,11026407.200000 15085887.200000,11007732.200000 15080668.900000,10987902.600000 15079619.100000,10970057.200000 15082753.200000,10953342.100000 15087983.800000,10937650.200000 15095399.500000,10925996.900000 15103966.200000,10916359.400000 15118260.000000,10907425.800000 15118260.000000,10922681.700000 15118978.800000,10924838.100000 15119581.300000,10926043.100000 15121508.100000,10927969.900000 15123068.300000,10928490.000000 15124981.100000,10928490.000000 15132119.900000,10926705.300000 15135534.300000,10924998.100000 15138248.400000,10923188.700000 15141947.200000,10920414.600000 15147489.300000,10914872.500000 15150913.900000,10909735.700000 15151640.000000,10906831.100000 15151640.000000,10901918.300000 15150921.200000,10899761.900000 15150148.100000,10898215.700000 15148641.900000,10895956.400000 15145439.000000,10893554.300000 15142202.300000,10891935.900000 15137613.900000,10891018.200000 15133981.100000,10890110.000000 15129349.500000,10890110.000000 15127349.400000,10891110.000000 15116251.800000,10891110.000000 15123947.400000,10883414.500000 15128438.800000,10880045.900000 15143165.600000,10872682.500000 15153031.800000,10870490.000000 15163793.500000,10870490.000000 Z"/> 
</g> 
</g><g id="substrate-outline" style="fill:#000000; stroke:#000000; stroke-width: 15000.0"><g style="fill-opacity: 0.0;stroke-opacity: 1;stroke-linecap: round;stroke-linejoin: round">
<path d="M15358110.042157 10340339.999140 A62243.000000 62243.000000 0.0 0 0 15294609.999140 10279379.957843"/>
<path d="M14469110.235901 9801869.687583 A130208.900000 130208.900000 0.0 0 0 14342109.939658 9928859.900969"/>
<path d="M14977110 9801860 L14469110 9801860 "/>
<path d="M15104110 10279380 L15104110 9928860 "/>
<path d="M15231110 11198860 L14469110 11198860 "/>
<path d="M15231109.996721 11198859.865765 A130218.700000 130218.700000 0.0 0 0 15358109.863264 11071860.099103"/>
<path d="M14342110 11071860 L14342110 9928860 "/>
<path d="M14342110.000000 11071860.000000 A127000.000000 127000.000000 0.0 0 0 14469110.000000 11198860.000000"/>
<path d="M15358110 10340340 L15358110 11071860 "/>
<path d="M15104110.000000 9928860.000000 A127000.000000 127000.000000 0.0 0 0 14977110.000000 9801860.000000"/>
<path d="M15104110 10279380 L15294610 10279380 "/>
</g> 
<path d="M -50800.0 0.0 A 50800.0 50800.0 0 1 1 50800.0 0.0 L 50800.0 -0.0 A 50800.0 50800.0 0 1 1 -50800.0 -0.0 Z" transform="translate(14469110.0 10160000.0) rotate(-0.0)"/><path d="M -50800.0 0.0 A 50800.0 50800.0 0 1 1 50800.0 0.0 L 50800.0 -0.0 A 50800.0 50800.0 0 1 1 -50800.0 -0.0 Z" transform="translate(14469110.0 9946640.0) rotate(-0.0)"/><path d="M -50800.0 0.0 A 50800.0 50800.0 0 1 1 50800.0 0.0 L 50800.0 -0.0 A 50800.0 50800.0 0 1 1 -50800.0 -0.0 Z" transform="translate(14723110.0 10160000.0) rotate(-0.0)"/><path d="M -50800.0 0.0 A 50800.0 50800.0 0 1 1 50800.0 0.0 L 50800.0 -0.0 A 50800.0 50800.0 0 1 1 -50800.0 -0.0 Z" transform="translate(14723110.0 9946640.0) rotate(-0.0)"/><path d="M -50800.0 0.0 A 50800.0 50800.0 0 1 1 50800.0 0.0 L 50800.0 -0.0 A 50800.0 50800.0 0 1 1 -50800.0 -0.0 Z" transform="translate(14977110.0 10160000.0) rotate(-0.0)"/><path d="M -50800.0 0.0 A 50800.0 50800.0 0 1 1 50800.0 0.0 L 50800.0 -0.0 A 50800.0 50800.0 0 1 1 -50800.0 -0.0 Z" transform="translate(14977110.0 9946640.0) rotate(-0.0)"/><path d="M -19050.0 0.0 A 19050.0 19050.0 0 1 1 19050.0 0.0 L 19050.0 -0.0 A 19050.0 19050.0 0 1 1 -19050.0 -0.0 Z" transform="translate(15292070.0 10967720.0) rotate(0.0)"/><path d="M -19050.0 0.0 A 19050.0 19050.0 0 1 1 19050.0 0.0 L 19050.0 -0.0 A 19050.0 19050.0 0 1 1 -19050.0 -0.0 Z" transform="translate(14931390.0 10335260.0) rotate(0.0)"/><path d="M -19050.0 0.0 A 19050.0 19050.0 0 1 1 19050.0 0.0 L 19050.0 -0.0 A 19050.0 19050.0 0 1 1 -19050.0 -0.0 Z" transform="translate(14715490.0 10787380.0) rotate(0.0)"/><path d="M -19050.0 0.0 A 19050.0 19050.0 0 1 1 19050.0 0.0 L 19050.0 -0.0 A 19050.0 19050.0 0 1 1 -19050.0 -0.0 Z" transform="translate(14893290.0 10972800.0) rotate(0.0)"/></g></g></g></svg>