<?xml version="1.0" standalone="no"?>
 <!DOCTYPE svg PUBLIC "-//W3C//DTD SVG 1.1//EN" 
 "http://www.w3.org/Graphics/SVG/1.1/DTD/svg11.dtd"> 
<svg
  xmlns:svg="http://www.w3.org/2000/svg"
  xmlns="http://www.w3.org/2000/svg"
  xmlns:xlink="http://www.w3.org/1999/xlink"
  version="1.1"
  width="29.700220cm" height="21.000720cm" viewBox="0 0 297002200 210007200">
<title>SVG Picture created as kicadBoard-B_Fab.svg date 2022/11/08 17:50:03 </title>
  <desc>Picture generated by PCBNEW </desc>
<g style="fill:#000000; fill-opacity:1.000000;stroke:#000000; stroke-opacity:1.000000;
stroke-linecap:round; stroke-linejoin:round;"
 transform="translate(0 0) scale(1 1)">
</g>
<g style="fill:#000000; fill-opacity:0.0; 
stroke:#000000; stroke-width:0.000000; stroke-opacity:1; 
stroke-linecap:round; stroke-linejoin:round;">
</g>
<g style="fill:#000000; fill-opacity:0.0; 
stroke:#000000; stroke-width:21200.000000; stroke-opacity:1; 
stroke-linecap:round; stroke-linejoin:round;">
</g>
<g style="fill:#000000; fill-opacity:0.0; 
stroke:#000000; stroke-width:150000.000000; stroke-opacity:1; 
stroke-linecap:round; stroke-linejoin:round;">
<rect x="177002200.000000" y="166007200.000000" width="108000000.000000" height="32000000.000000" rx="0.000000" />
</g>
<g style="fill:#000000; fill-opacity:0.0; 
stroke:#000000; stroke-width:21200.000000; stroke-opacity:1; 
stroke-linecap:round; stroke-linejoin:round;">
</g>
<g style="fill:#000000; fill-opacity:0.0; 
stroke:#000000; stroke-width:150000.000000; stroke-opacity:1; 
stroke-linecap:round; stroke-linejoin:round;">
<rect x="10000000.000000" y="10000000.000000" width="277002200.000000" height="190007200.000000" rx="0.000000" />
</g>
<g style="fill:#000000; fill-opacity:0.0; 
stroke:#000000; stroke-width:21200.000000; stroke-opacity:1; 
stroke-linecap:round; stroke-linejoin:round;">
</g>
<g style="fill:#000000; fill-opacity:0.0; 
stroke:#000000; stroke-width:150000.000000; stroke-opacity:1; 
stroke-linecap:round; stroke-linejoin:round;">
<rect x="12000000.000000" y="12000000.000000" width="273002200.000000" height="186007200.000000" rx="0.000000" />
</g>
<g style="fill:#000000; fill-opacity:0.0; 
stroke:#000000; stroke-width:21200.000000; stroke-opacity:1; 
stroke-linecap:round; stroke-linejoin:round;">
</g>
<g style="fill:#000000; fill-opacity:0.0; 
stroke:#000000; stroke-width:150000.000000; stroke-opacity:1; 
stroke-linecap:round; stroke-linejoin:round;">
<path d="M60000000 12000000
L60000000 10000000
" />
</g>
<g style="fill:#000000; fill-opacity:0.0; 
stroke:#000000; stroke-width:21200.000000; stroke-opacity:1; 
stroke-linecap:round; stroke-linejoin:round;">
</g>
<g style="fill:#000000; fill-opacity:0.0; 
stroke:#000000; stroke-width:150000.000000; stroke-opacity:1; 
stroke-linecap:round; stroke-linejoin:round;">
<path d="M110000000 12000000
L110000000 10000000
" />
</g>
<g style="fill:#000000; fill-opacity:0.0; 
stroke:#000000; stroke-width:21200.000000; stroke-opacity:1; 
stroke-linecap:round; stroke-linejoin:round;">
</g>
<g style="fill:#000000; fill-opacity:0.0; 
stroke:#000000; stroke-width:150000.000000; stroke-opacity:1; 
stroke-linecap:round; stroke-linejoin:round;">
<path d="M160000000 12000000
L160000000 10000000
" />
</g>
<g style="fill:#000000; fill-opacity:0.0; 
stroke:#000000; stroke-width:21200.000000; stroke-opacity:1; 
stroke-linecap:round; stroke-linejoin:round;">
</g>
<g style="fill:#000000; fill-opacity:0.0; 
stroke:#000000; stroke-width:150000.000000; stroke-opacity:1; 
stroke-linecap:round; stroke-linejoin:round;">
<path d="M210000000 12000000
L210000000 10000000
" />
</g>
<g style="fill:#000000; fill-opacity:0.0; 
stroke:#000000; stroke-width:21200.000000; stroke-opacity:1; 
stroke-linecap:round; stroke-linejoin:round;">
</g>
<g style="fill:#000000; fill-opacity:0.0; 
stroke:#000000; stroke-width:150000.000000; stroke-opacity:1; 
stroke-linecap:round; stroke-linejoin:round;">
<path d="M260000000 12000000
L260000000 10000000
" />
</g>
<g style="fill:#000000; fill-opacity:0.0; 
stroke:#000000; stroke-width:21200.000000; stroke-opacity:1; 
stroke-linecap:round; stroke-linejoin:round;">
</g>
<g style="fill:#000000; fill-opacity:0.0; 
stroke:#000000; stroke-width:150000.000000; stroke-opacity:1; 
stroke-linecap:round; stroke-linejoin:round;">
<text x="35000000.000000" y="11650000.000000"
textLength="1388095.000000" font-size="1733333.000000" lengthAdjust="spacingAndGlyphs"
text-anchor="start" opacity="0">1</text>
<g class="stroked-text"><desc>1</desc>
<path d="M36065476 11588095
L35322619 11588095
" />
<path d="M35694047 11588095
L35694047 10288095
L35570238 10473809
L35446428 10597619
L35322619 10659523
" />
</g></g>
<g style="fill:#000000; fill-opacity:0.0; 
stroke:#000000; stroke-width:21200.000000; stroke-opacity:1; 
stroke-linecap:round; stroke-linejoin:round;">
</g>
<g style="fill:#000000; fill-opacity:0.0; 
stroke:#000000; stroke-width:150000.000000; stroke-opacity:1; 
stroke-linecap:round; stroke-linejoin:round;">
<text x="85000000.000000" y="11650000.000000"
textLength="1388095.000000" font-size="1733333.000000" lengthAdjust="spacingAndGlyphs"
text-anchor="start" opacity="0">2</text>
<g class="stroked-text"><desc>2</desc>
<path d="M85322619 10411904
L85384523 10350000
L85508333 10288095
L85817857 10288095
L85941666 10350000
L86003571 10411904
L86065476 10535714
L86065476 10659523
L86003571 10845238
L85260714 11588095
L86065476 11588095
" />
</g></g>
<g style="fill:#000000; fill-opacity:0.0; 
stroke:#000000; stroke-width:21200.000000; stroke-opacity:1; 
stroke-linecap:round; stroke-linejoin:round;">
</g>
<g style="fill:#000000; fill-opacity:0.0; 
stroke:#000000; stroke-width:150000.000000; stroke-opacity:1; 
stroke-linecap:round; stroke-linejoin:round;">
<text x="135000000.000000" y="11650000.000000"
textLength="1388095.000000" font-size="1733333.000000" lengthAdjust="spacingAndGlyphs"
text-anchor="start" opacity="0">3</text>
<g class="stroked-text"><desc>3</desc>
<path d="M135260714 10288095
L136065476 10288095
L135632142 10783333
L135817857 10783333
L135941666 10845238
L136003571 10907142
L136065476 11030952
L136065476 11340476
L136003571 11464285
L135941666 11526190
L135817857 11588095
L135446428 11588095
L135322619 11526190
L135260714 11464285
" />
</g></g>
<g style="fill:#000000; fill-opacity:0.0; 
stroke:#000000; stroke-width:21200.000000; stroke-opacity:1; 
stroke-linecap:round; stroke-linejoin:round;">
</g>
<g style="fill:#000000; fill-opacity:0.0; 
stroke:#000000; stroke-width:150000.000000; stroke-opacity:1; 
stroke-linecap:round; stroke-linejoin:round;">
<text x="185000000.000000" y="11650000.000000"
textLength="1388095.000000" font-size="1733333.000000" lengthAdjust="spacingAndGlyphs"
text-anchor="start" opacity="0">4</text>
<g class="stroked-text"><desc>4</desc>
<path d="M185941666 10721428
L185941666 11588095
" />
<path d="M185632142 10226190
L185322619 11154761
L186127380 11154761
" />
</g></g>
<g style="fill:#000000; fill-opacity:0.0; 
stroke:#000000; stroke-width:21200.000000; stroke-opacity:1; 
stroke-linecap:round; stroke-linejoin:round;">
</g>
<g style="fill:#000000; fill-opacity:0.0; 
stroke:#000000; stroke-width:150000.000000; stroke-opacity:1; 
stroke-linecap:round; stroke-linejoin:round;">
<text x="235000000.000000" y="11650000.000000"
textLength="1388095.000000" font-size="1733333.000000" lengthAdjust="spacingAndGlyphs"
text-anchor="start" opacity="0">5</text>
<g class="stroked-text"><desc>5</desc>
<path d="M236003571 10288095
L235384523 10288095
L235322619 10907142
L235384523 10845238
L235508333 10783333
L235817857 10783333
L235941666 10845238
L236003571 10907142
L236065476 11030952
L236065476 11340476
L236003571 11464285
L235941666 11526190
L235817857 11588095
L235508333 11588095
L235384523 11526190
L235322619 11464285
" />
</g></g>
<g style="fill:#000000; fill-opacity:0.0; 
stroke:#000000; stroke-width:21200.000000; stroke-opacity:1; 
stroke-linecap:round; stroke-linejoin:round;">
</g>
<g style="fill:#000000; fill-opacity:0.0; 
stroke:#000000; stroke-width:150000.000000; stroke-opacity:1; 
stroke-linecap:round; stroke-linejoin:round;">
<text x="285000000.000000" y="11650000.000000"
textLength="1388095.000000" font-size="1733333.000000" lengthAdjust="spacingAndGlyphs"
text-anchor="start" opacity="0">6</text>
<g class="stroked-text"><desc>6</desc>
<path d="M285941666 10288095
L285694047 10288095
L285570238 10350000
L285508333 10411904
L285384523 10597619
L285322619 10845238
L285322619 11340476
L285384523 11464285
L285446428 11526190
L285570238 11588095
L285817857 11588095
L285941666 11526190
L286003571 11464285
L286065476 11340476
L286065476 11030952
L286003571 10907142
L285941666 10845238
L285817857 10783333
L285570238 10783333
L285446428 10845238
L285384523 10907142
L285322619 11030952
" />
</g></g>
<g style="fill:#000000; fill-opacity:0.0; 
stroke:#000000; stroke-width:21200.000000; stroke-opacity:1; 
stroke-linecap:round; stroke-linejoin:round;">
</g>
<g style="fill:#000000; fill-opacity:0.0; 
stroke:#000000; stroke-width:150000.000000; stroke-opacity:1; 
stroke-linecap:round; stroke-linejoin:round;">
<path d="M60000000 198007200
L60000000 200007200
" />
</g>
<g style="fill:#000000; fill-opacity:0.0; 
stroke:#000000; stroke-width:21200.000000; stroke-opacity:1; 
stroke-linecap:round; stroke-linejoin:round;">
</g>
<g style="fill:#000000; fill-opacity:0.0; 
stroke:#000000; stroke-width:150000.000000; stroke-opacity:1; 
stroke-linecap:round; stroke-linejoin:round;">
<path d="M110000000 198007200
L110000000 200007200
" />
</g>
<g style="fill:#000000; fill-opacity:0.0; 
stroke:#000000; stroke-width:21200.000000; stroke-opacity:1; 
stroke-linecap:round; stroke-linejoin:round;">
</g>
<g style="fill:#000000; fill-opacity:0.0; 
stroke:#000000; stroke-width:150000.000000; stroke-opacity:1; 
stroke-linecap:round; stroke-linejoin:round;">
<path d="M160000000 198007200
L160000000 200007200
" />
</g>
<g style="fill:#000000; fill-opacity:0.0; 
stroke:#000000; stroke-width:21200.000000; stroke-opacity:1; 
stroke-linecap:round; stroke-linejoin:round;">
</g>
<g style="fill:#000000; fill-opacity:0.0; 
stroke:#000000; stroke-width:150000.000000; stroke-opacity:1; 
stroke-linecap:round; stroke-linejoin:round;">
<path d="M210000000 198007200
L210000000 200007200
" />
</g>
<g style="fill:#000000; fill-opacity:0.0; 
stroke:#000000; stroke-width:21200.000000; stroke-opacity:1; 
stroke-linecap:round; stroke-linejoin:round;">
</g>
<g style="fill:#000000; fill-opacity:0.0; 
stroke:#000000; stroke-width:150000.000000; stroke-opacity:1; 
stroke-linecap:round; stroke-linejoin:round;">
<path d="M260000000 198007200
L260000000 200007200
" />
</g>
<g style="fill:#000000; fill-opacity:0.0; 
stroke:#000000; stroke-width:21200.000000; stroke-opacity:1; 
stroke-linecap:round; stroke-linejoin:round;">
</g>
<g style="fill:#000000; fill-opacity:0.0; 
stroke:#000000; stroke-width:150000.000000; stroke-opacity:1; 
stroke-linecap:round; stroke-linejoin:round;">
<text x="35000000.000000" y="199657200.000000"
textLength="1388095.000000" font-size="1733333.000000" lengthAdjust="spacingAndGlyphs"
text-anchor="start" opacity="0">1</text>
<g class="stroked-text"><desc>1</desc>
<path d="M36065476 199595295
L35322619 199595295
" />
<path d="M35694047 199595295
L35694047 198295295
L35570238 198481009
L35446428 198604819
L35322619 198666723
" />
</g></g>
<g style="fill:#000000; fill-opacity:0.0; 
stroke:#000000; stroke-width:21200.000000; stroke-opacity:1; 
stroke-linecap:round; stroke-linejoin:round;">
</g>
<g style="fill:#000000; fill-opacity:0.0; 
stroke:#000000; stroke-width:150000.000000; stroke-opacity:1; 
stroke-linecap:round; stroke-linejoin:round;">
<text x="85000000.000000" y="199657200.000000"
textLength="1388095.000000" font-size="1733333.000000" lengthAdjust="spacingAndGlyphs"
text-anchor="start" opacity="0">2</text>
<g class="stroked-text"><desc>2</desc>
<path d="M85322619 198419104
L85384523 198357200
L85508333 198295295
L85817857 198295295
L85941666 198357200
L86003571 198419104
L86065476 198542914
L86065476 198666723
L86003571 198852438
L85260714 199595295
L86065476 199595295
" />
</g></g>
<g style="fill:#000000; fill-opacity:0.0; 
stroke:#000000; stroke-width:21200.000000; stroke-opacity:1; 
stroke-linecap:round; stroke-linejoin:round;">
</g>
<g style="fill:#000000; fill-opacity:0.0; 
stroke:#000000; stroke-width:150000.000000; stroke-opacity:1; 
stroke-linecap:round; stroke-linejoin:round;">
<text x="135000000.000000" y="199657200.000000"
textLength="1388095.000000" font-size="1733333.000000" lengthAdjust="spacingAndGlyphs"
text-anchor="start" opacity="0">3</text>
<g class="stroked-text"><desc>3</desc>
<path d="M135260714 198295295
L136065476 198295295
L135632142 198790533
L135817857 198790533
L135941666 198852438
L136003571 198914342
L136065476 199038152
L136065476 199347676
L136003571 199471485
L135941666 199533390
L135817857 199595295
L135446428 199595295
L135322619 199533390
L135260714 199471485
" />
</g></g>
<g style="fill:#000000; fill-opacity:0.0; 
stroke:#000000; stroke-width:21200.000000; stroke-opacity:1; 
stroke-linecap:round; stroke-linejoin:round;">
</g>
<g style="fill:#000000; fill-opacity:0.0; 
stroke:#000000; stroke-width:150000.000000; stroke-opacity:1; 
stroke-linecap:round; stroke-linejoin:round;">
<text x="185000000.000000" y="199657200.000000"
textLength="1388095.000000" font-size="1733333.000000" lengthAdjust="spacingAndGlyphs"
text-anchor="start" opacity="0">4</text>
<g class="stroked-text"><desc>4</desc>
<path d="M185941666 198728628
L185941666 199595295
" />
<path d="M185632142 198233390
L185322619 199161961
L186127380 199161961
" />
</g></g>
<g style="fill:#000000; fill-opacity:0.0; 
stroke:#000000; stroke-width:21200.000000; stroke-opacity:1; 
stroke-linecap:round; stroke-linejoin:round;">
</g>
<g style="fill:#000000; fill-opacity:0.0; 
stroke:#000000; stroke-width:150000.000000; stroke-opacity:1; 
stroke-linecap:round; stroke-linejoin:round;">
<text x="235000000.000000" y="199657200.000000"
textLength="1388095.000000" font-size="1733333.000000" lengthAdjust="spacingAndGlyphs"
text-anchor="start" opacity="0">5</text>
<g class="stroked-text"><desc>5</desc>
<path d="M236003571 198295295
L235384523 198295295
L235322619 198914342
L235384523 198852438
L235508333 198790533
L235817857 198790533
L235941666 198852438
L236003571 198914342
L236065476 199038152
L236065476 199347676
L236003571 199471485
L235941666 199533390
L235817857 199595295
L235508333 199595295
L235384523 199533390
L235322619 199471485
" />
</g></g>
<g style="fill:#000000; fill-opacity:0.0; 
stroke:#000000; stroke-width:21200.000000; stroke-opacity:1; 
stroke-linecap:round; stroke-linejoin:round;">
</g>
<g style="fill:#000000; fill-opacity:0.0; 
stroke:#000000; stroke-width:150000.000000; stroke-opacity:1; 
stroke-linecap:round; stroke-linejoin:round;">
<text x="285000000.000000" y="199657200.000000"
textLength="1388095.000000" font-size="1733333.000000" lengthAdjust="spacingAndGlyphs"
text-anchor="start" opacity="0">6</text>
<g class="stroked-text"><desc>6</desc>
<path d="M285941666 198295295
L285694047 198295295
L285570238 198357200
L285508333 198419104
L285384523 198604819
L285322619 198852438
L285322619 199347676
L285384523 199471485
L285446428 199533390
L285570238 199595295
L285817857 199595295
L285941666 199533390
L286003571 199471485
L286065476 199347676
L286065476 199038152
L286003571 198914342
L285941666 198852438
L285817857 198790533
L285570238 198790533
L285446428 198852438
L285384523 198914342
L285322619 199038152
" />
</g></g>
<g style="fill:#000000; fill-opacity:0.0; 
stroke:#000000; stroke-width:21200.000000; stroke-opacity:1; 
stroke-linecap:round; stroke-linejoin:round;">
</g>
<g style="fill:#000000; fill-opacity:0.0; 
stroke:#000000; stroke-width:150000.000000; stroke-opacity:1; 
stroke-linecap:round; stroke-linejoin:round;">
<path d="M10000000 60000000
L12000000 60000000
" />
</g>
<g style="fill:#000000; fill-opacity:0.0; 
stroke:#000000; stroke-width:21200.000000; stroke-opacity:1; 
stroke-linecap:round; stroke-linejoin:round;">
</g>
<g style="fill:#000000; fill-opacity:0.0; 
stroke:#000000; stroke-width:150000.000000; stroke-opacity:1; 
stroke-linecap:round; stroke-linejoin:round;">
<path d="M10000000 110000000
L12000000 110000000
" />
</g>
<g style="fill:#000000; fill-opacity:0.0; 
stroke:#000000; stroke-width:21200.000000; stroke-opacity:1; 
stroke-linecap:round; stroke-linejoin:round;">
</g>
<g style="fill:#000000; fill-opacity:0.0; 
stroke:#000000; stroke-width:150000.000000; stroke-opacity:1; 
stroke-linecap:round; stroke-linejoin:round;">
<path d="M10000000 160000000
L12000000 160000000
" />
</g>
<g style="fill:#000000; fill-opacity:0.0; 
stroke:#000000; stroke-width:21200.000000; stroke-opacity:1; 
stroke-linecap:round; stroke-linejoin:round;">
</g>
<g style="fill:#000000; fill-opacity:0.0; 
stroke:#000000; stroke-width:150000.000000; stroke-opacity:1; 
stroke-linecap:round; stroke-linejoin:round;">
<text x="11000000.000000" y="35650000.000000"
textLength="1264286.000000" font-size="1733333.000000" lengthAdjust="spacingAndGlyphs"
text-anchor="middle" opacity="0">A</text>
<g class="stroked-text"><desc>A</desc>
<path d="M10690476 35216666
L11309523 35216666
" />
<path d="M10566666 35588095
L11000000 34288095
L11433333 35588095
" />
</g></g>
<g style="fill:#000000; fill-opacity:0.0; 
stroke:#000000; stroke-width:21200.000000; stroke-opacity:1; 
stroke-linecap:round; stroke-linejoin:round;">
</g>
<g style="fill:#000000; fill-opacity:0.0; 
stroke:#000000; stroke-width:150000.000000; stroke-opacity:1; 
stroke-linecap:round; stroke-linejoin:round;">
<text x="11000000.000000" y="85650000.000000"
textLength="1450000.000000" font-size="1733333.000000" lengthAdjust="spacingAndGlyphs"
text-anchor="middle" opacity="0">B</text>
<g class="stroked-text"><desc>B</desc>
<path d="M11092857 84907142
L11278571 84969047
L11340476 85030952
L11402380 85154761
L11402380 85340476
L11340476 85464285
L11278571 85526190
L11154761 85588095
L10659523 85588095
L10659523 84288095
L11092857 84288095
L11216666 84350000
L11278571 84411904
L11340476 84535714
L11340476 84659523
L11278571 84783333
L11216666 84845238
L11092857 84907142
L10659523 84907142
" />
</g></g>
<g style="fill:#000000; fill-opacity:0.0; 
stroke:#000000; stroke-width:21200.000000; stroke-opacity:1; 
stroke-linecap:round; stroke-linejoin:round;">
</g>
<g style="fill:#000000; fill-opacity:0.0; 
stroke:#000000; stroke-width:150000.000000; stroke-opacity:1; 
stroke-linecap:round; stroke-linejoin:round;">
<text x="11000000.000000" y="135650000.000000"
textLength="1450000.000000" font-size="1733333.000000" lengthAdjust="spacingAndGlyphs"
text-anchor="middle" opacity="0">C</text>
<g class="stroked-text"><desc>C</desc>
<path d="M11402380 135464285
L11340476 135526190
L11154761 135588095
L11030952 135588095
L10845238 135526190
L10721428 135402380
L10659523 135278571
L10597619 135030952
L10597619 134845238
L10659523 134597619
L10721428 134473809
L10845238 134350000
L11030952 134288095
L11154761 134288095
L11340476 134350000
L11402380 134411904
" />
</g></g>
<g style="fill:#000000; fill-opacity:0.0; 
stroke:#000000; stroke-width:21200.000000; stroke-opacity:1; 
stroke-linecap:round; stroke-linejoin:round;">
</g>
<g style="fill:#000000; fill-opacity:0.0; 
stroke:#000000; stroke-width:150000.000000; stroke-opacity:1; 
stroke-linecap:round; stroke-linejoin:round;">
<text x="11000000.000000" y="185650000.000000"
textLength="1450000.000000" font-size="1733333.000000" lengthAdjust="spacingAndGlyphs"
text-anchor="middle" opacity="0">D</text>
<g class="stroked-text"><desc>D</desc>
<path d="M10659523 185588095
L10659523 184288095
L10969047 184288095
L11154761 184350000
L11278571 184473809
L11340476 184597619
L11402380 184845238
L11402380 185030952
L11340476 185278571
L11278571 185402380
L11154761 185526190
L10969047 185588095
L10659523 185588095
" />
</g></g>
<g style="fill:#000000; fill-opacity:0.0; 
stroke:#000000; stroke-width:21200.000000; stroke-opacity:1; 
stroke-linecap:round; stroke-linejoin:round;">
</g>
<g style="fill:#000000; fill-opacity:0.0; 
stroke:#000000; stroke-width:150000.000000; stroke-opacity:1; 
stroke-linecap:round; stroke-linejoin:round;">
<path d="M287002200 60000000
L285002200 60000000
" />
</g>
<g style="fill:#000000; fill-opacity:0.0; 
stroke:#000000; stroke-width:21200.000000; stroke-opacity:1; 
stroke-linecap:round; stroke-linejoin:round;">
</g>
<g style="fill:#000000; fill-opacity:0.0; 
stroke:#000000; stroke-width:150000.000000; stroke-opacity:1; 
stroke-linecap:round; stroke-linejoin:round;">
<path d="M287002200 110000000
L285002200 110000000
" />
</g>
<g style="fill:#000000; fill-opacity:0.0; 
stroke:#000000; stroke-width:21200.000000; stroke-opacity:1; 
stroke-linecap:round; stroke-linejoin:round;">
</g>
<g style="fill:#000000; fill-opacity:0.0; 
stroke:#000000; stroke-width:150000.000000; stroke-opacity:1; 
stroke-linecap:round; stroke-linejoin:round;">
<path d="M287002200 160000000
L285002200 160000000
" />
</g>
<g style="fill:#000000; fill-opacity:0.0; 
stroke:#000000; stroke-width:21200.000000; stroke-opacity:1; 
stroke-linecap:round; stroke-linejoin:round;">
</g>
<g style="fill:#000000; fill-opacity:0.0; 
stroke:#000000; stroke-width:150000.000000; stroke-opacity:1; 
stroke-linecap:round; stroke-linejoin:round;">
<text x="286002200.000000" y="35650000.000000"
textLength="1264286.000000" font-size="1733333.000000" lengthAdjust="spacingAndGlyphs"
text-anchor="middle" opacity="0">A</text>
<g class="stroked-text"><desc>A</desc>
<path d="M285692676 35216666
L286311723 35216666
" />
<path d="M285568866 35588095
L286002200 34288095
L286435533 35588095
" />
</g></g>
<g style="fill:#000000; fill-opacity:0.0; 
stroke:#000000; stroke-width:21200.000000; stroke-opacity:1; 
stroke-linecap:round; stroke-linejoin:round;">
</g>
<g style="fill:#000000; fill-opacity:0.0; 
stroke:#000000; stroke-width:150000.000000; stroke-opacity:1; 
stroke-linecap:round; stroke-linejoin:round;">
<text x="286002200.000000" y="85650000.000000"
textLength="1450000.000000" font-size="1733333.000000" lengthAdjust="spacingAndGlyphs"
text-anchor="middle" opacity="0">B</text>
<g class="stroked-text"><desc>B</desc>
<path d="M286095057 84907142
L286280771 84969047
L286342676 85030952
L286404580 85154761
L286404580 85340476
L286342676 85464285
L286280771 85526190
L286156961 85588095
L285661723 85588095
L285661723 84288095
L286095057 84288095
L286218866 84350000
L286280771 84411904
L286342676 84535714
L286342676 84659523
L286280771 84783333
L286218866 84845238
L286095057 84907142
L285661723 84907142
" />
</g></g>
<g style="fill:#000000; fill-opacity:0.0; 
stroke:#000000; stroke-width:21200.000000; stroke-opacity:1; 
stroke-linecap:round; stroke-linejoin:round;">
</g>
<g style="fill:#000000; fill-opacity:0.0; 
stroke:#000000; stroke-width:150000.000000; stroke-opacity:1; 
stroke-linecap:round; stroke-linejoin:round;">
<text x="286002200.000000" y="135650000.000000"
textLength="1450000.000000" font-size="1733333.000000" lengthAdjust="spacingAndGlyphs"
text-anchor="middle" opacity="0">C</text>
<g class="stroked-text"><desc>C</desc>
<path d="M286404580 135464285
L286342676 135526190
L286156961 135588095
L286033152 135588095
L285847438 135526190
L285723628 135402380
L285661723 135278571
L285599819 135030952
L285599819 134845238
L285661723 134597619
L285723628 134473809
L285847438 134350000
L286033152 134288095
L286156961 134288095
L286342676 134350000
L286404580 134411904
" />
</g></g>
<g style="fill:#000000; fill-opacity:0.0; 
stroke:#000000; stroke-width:21200.000000; stroke-opacity:1; 
stroke-linecap:round; stroke-linejoin:round;">
</g>
<g style="fill:#000000; fill-opacity:0.0; 
stroke:#000000; stroke-width:150000.000000; stroke-opacity:1; 
stroke-linecap:round; stroke-linejoin:round;">
<text x="286002200.000000" y="185650000.000000"
textLength="1450000.000000" font-size="1733333.000000" lengthAdjust="spacingAndGlyphs"
text-anchor="middle" opacity="0">D</text>
<g class="stroked-text"><desc>D</desc>
<path d="M285661723 185588095
L285661723 184288095
L285971247 184288095
L286156961 184350000
L286280771 184473809
L286342676 184597619
L286404580 184845238
L286404580 185030952
L286342676 185278571
L286280771 185402380
L286156961 185526190
L285971247 185588095
L285661723 185588095
" />
</g></g>
<g style="fill:#000000; fill-opacity:0.0; 
stroke:#000000; stroke-width:21200.000000; stroke-opacity:1; 
stroke-linecap:round; stroke-linejoin:round;">
</g>
<g style="fill:#000000; fill-opacity:0.0; 
stroke:#000000; stroke-width:150000.000000; stroke-opacity:1; 
stroke-linecap:round; stroke-linejoin:round;">
<text x="200002200.000000" y="193857200.000000"
textLength="7007143.000000" font-size="2000000.000000" lengthAdjust="spacingAndGlyphs"
text-anchor="start" opacity="0">Date: </text>
<g class="stroked-text"><desc>Date: </desc>
<path d="M200434342 193785771
L200434342 192285771
L200791485 192285771
L201005771 192357200
L201148628 192500057
L201220057 192642914
L201291485 192928628
L201291485 193142914
L201220057 193428628
L201148628 193571485
L201005771 193714342
L200791485 193785771
L200434342 193785771
" />
<path d="M202577200 193785771
L202577200 193000057
L202505771 192857200
L202362914 192785771
L202077200 192785771
L201934342 192857200
" />
<path d="M202577200 193714342
L202434342 193785771
L202077200 193785771
L201934342 193714342
L201862914 193571485
L201862914 193428628
L201934342 193285771
L202077200 193214342
L202434342 193214342
L202577200 193142914
" />
<path d="M203077200 192785771
L203648628 192785771
" />
<path d="M203291485 192285771
L203291485 193571485
L203362914 193714342
L203505771 193785771
L203648628 193785771
" />
<path d="M204720057 193714342
L204577200 193785771
L204291485 193785771
L204148628 193714342
L204077200 193571485
L204077200 193000057
L204148628 192857200
L204291485 192785771
L204577200 192785771
L204720057 192857200
L204791485 193000057
L204791485 193142914
L204077200 193285771
" />
<path d="M205434342 193642914
L205505771 193714342
L205434342 193785771
L205362914 193714342
L205434342 193642914
L205434342 193785771
" />
<path d="M205434342 192857200
L205505771 192928628
L205434342 193000057
L205362914 192928628
L205434342 192857200
L205434342 193000057
" />
</g></g>
<g style="fill:#000000; fill-opacity:0.0; 
stroke:#000000; stroke-width:21200.000000; stroke-opacity:1; 
stroke-linecap:round; stroke-linejoin:round;">
</g>
<g style="fill:#000000; fill-opacity:0.0; 
stroke:#000000; stroke-width:150000.000000; stroke-opacity:1; 
stroke-linecap:round; stroke-linejoin:round;">
<path d="M177002200 194507200
L285002200 194507200
" />
</g>
<g style="fill:#000000; fill-opacity:0.0; 
stroke:#000000; stroke-width:21200.000000; stroke-opacity:1; 
stroke-linecap:round; stroke-linejoin:round;">
</g>
<g style="fill:#000000; fill-opacity:0.0; 
stroke:#000000; stroke-width:150000.000000; stroke-opacity:1; 
stroke-linecap:round; stroke-linejoin:round;">
<text x="178002200.000000" y="196657200.000000"
textLength="33364286.000000" font-size="2000000.000000" lengthAdjust="spacingAndGlyphs"
text-anchor="start" opacity="0">KiCad E.D.A.  pcbnew (6.0.9)</text>
<g class="stroked-text"><desc>KiCad E.D.A.  pcbnew (6.0.9)</desc>
<path d="M178434342 196585771
L178434342 195085771
" />
<path d="M179291485 196585771
L178648628 195728628
" />
<path d="M179291485 195085771
L178434342 195942914
" />
<path d="M179934342 196585771
L179934342 195585771
" />
<path d="M179934342 195085771
L179862914 195157200
L179934342 195228628
L180005771 195157200
L179934342 195085771
L179934342 195228628
" />
<path d="M181505771 196442914
L181434342 196514342
L181220057 196585771
L181077200 196585771
L180862914 196514342
L180720057 196371485
L180648628 196228628
L180577200 195942914
L180577200 195728628
L180648628 195442914
L180720057 195300057
L180862914 195157200
L181077200 195085771
L181220057 195085771
L181434342 195157200
L181505771 195228628
" />
<path d="M182791485 196585771
L182791485 195800057
L182720057 195657200
L182577200 195585771
L182291485 195585771
L182148628 195657200
" />
<path d="M182791485 196514342
L182648628 196585771
L182291485 196585771
L182148628 196514342
L182077200 196371485
L182077200 196228628
L182148628 196085771
L182291485 196014342
L182648628 196014342
L182791485 195942914
" />
<path d="M184148628 196585771
L184148628 195085771
" />
<path d="M184148628 196514342
L184005771 196585771
L183720057 196585771
L183577200 196514342
L183505771 196442914
L183434342 196300057
L183434342 195871485
L183505771 195728628
L183577200 195657200
L183720057 195585771
L184005771 195585771
L184148628 195657200
" />
<path d="M186005771 195800057
L186505771 195800057
" />
<path d="M186720057 196585771
L186005771 196585771
L186005771 195085771
L186720057 195085771
" />
<path d="M187362914 196442914
L187434342 196514342
L187362914 196585771
L187291485 196514342
L187362914 196442914
L187362914 196585771
" />
<path d="M188077200 196585771
L188077200 195085771
L188434342 195085771
L188648628 195157200
L188791485 195300057
L188862914 195442914
L188934342 195728628
L188934342 195942914
L188862914 196228628
L188791485 196371485
L188648628 196514342
L188434342 196585771
L188077200 196585771
" />
<path d="M189577200 196442914
L189648628 196514342
L189577200 196585771
L189505771 196514342
L189577200 196442914
L189577200 196585771
" />
<path d="M190220057 196157200
L190934342 196157200
" />
<path d="M190077200 196585771
L190577200 195085771
L191077200 196585771
" />
<path d="M191577200 196442914
L191648628 196514342
L191577200 196585771
L191505771 196514342
L191577200 196442914
L191577200 196585771
" />
<path d="M194577200 195585771
L194577200 197085771
" />
<path d="M194577200 195657200
L194720057 195585771
L195005771 195585771
L195148628 195657200
L195220057 195728628
L195291485 195871485
L195291485 196300057
L195220057 196442914
L195148628 196514342
L195005771 196585771
L194720057 196585771
L194577200 196514342
" />
<path d="M196577200 196514342
L196434342 196585771
L196148628 196585771
L196005771 196514342
L195934342 196442914
L195862914 196300057
L195862914 195871485
L195934342 195728628
L196005771 195657200
L196148628 195585771
L196434342 195585771
L196577200 195657200
" />
<path d="M197220057 196585771
L197220057 195085771
" />
<path d="M197220057 195657200
L197362914 195585771
L197648628 195585771
L197791485 195657200
L197862914 195728628
L197934342 195871485
L197934342 196300057
L197862914 196442914
L197791485 196514342
L197648628 196585771
L197362914 196585771
L197220057 196514342
" />
<path d="M198577200 195585771
L198577200 196585771
" />
<path d="M198577200 195728628
L198648628 195657200
L198791485 195585771
L199005771 195585771
L199148628 195657200
L199220057 195800057
L199220057 196585771
" />
<path d="M200505771 196514342
L200362914 196585771
L200077200 196585771
L199934342 196514342
L199862914 196371485
L199862914 195800057
L199934342 195657200
L200077200 195585771
L200362914 195585771
L200505771 195657200
L200577200 195800057
L200577200 195942914
L199862914 196085771
" />
<path d="M201077200 195585771
L201362914 196585771
L201648628 195871485
L201934342 196585771
L202220057 195585771
" />
<path d="M204362914 197157200
L204291485 197085771
L204148628 196871485
L204077200 196728628
L204005771 196514342
L203934342 196157200
L203934342 195871485
L204005771 195514342
L204077200 195300057
L204148628 195157200
L204291485 194942914
L204362914 194871485
" />
<path d="M205577200 195085771
L205291485 195085771
L205148628 195157200
L205077200 195228628
L204934342 195442914
L204862914 195728628
L204862914 196300057
L204934342 196442914
L205005771 196514342
L205148628 196585771
L205434342 196585771
L205577200 196514342
L205648628 196442914
L205720057 196300057
L205720057 195942914
L205648628 195800057
L205577200 195728628
L205434342 195657200
L205148628 195657200
L205005771 195728628
L204934342 195800057
L204862914 195942914
" />
<path d="M206362914 196442914
L206434342 196514342
L206362914 196585771
L206291485 196514342
L206362914 196442914
L206362914 196585771
" />
<path d="M207362914 195085771
L207505771 195085771
L207648628 195157200
L207720057 195228628
L207791485 195371485
L207862914 195657200
L207862914 196014342
L207791485 196300057
L207720057 196442914
L207648628 196514342
L207505771 196585771
L207362914 196585771
L207220057 196514342
L207148628 196442914
L207077200 196300057
L207005771 196014342
L207005771 195657200
L207077200 195371485
L207148628 195228628
L207220057 195157200
L207362914 195085771
" />
<path d="M208505771 196442914
L208577200 196514342
L208505771 196585771
L208434342 196514342
L208505771 196442914
L208505771 196585771
" />
<path d="M209291485 196585771
L209577200 196585771
L209720057 196514342
L209791485 196442914
L209934342 196228628
L210005771 195942914
L210005771 195371485
L209934342 195228628
L209862914 195157200
L209720057 195085771
L209434342 195085771
L209291485 195157200
L209220057 195228628
L209148628 195371485
L209148628 195728628
L209220057 195871485
L209291485 195942914
L209434342 196014342
L209720057 196014342
L209862914 195942914
L209934342 195871485
L210005771 195728628
" />
<path d="M210505771 197157200
L210577200 197085771
L210720057 196871485
L210791485 196728628
L210862914 196514342
L210934342 196157200
L210934342 195871485
L210862914 195514342
L210791485 195300057
L210720057 195157200
L210577200 194942914
L210505771 194871485
" />
</g></g>
<g style="fill:#000000; fill-opacity:0.0; 
stroke:#000000; stroke-width:21200.000000; stroke-opacity:1; 
stroke-linecap:round; stroke-linejoin:round;">
</g>
<g style="fill:#000000; fill-opacity:0.0; 
stroke:#000000; stroke-width:150000.000000; stroke-opacity:1; 
stroke-linecap:round; stroke-linejoin:round;">
<path d="M177002200 191507200
L285002200 191507200
" />
</g>
<g style="fill:#000000; fill-opacity:0.0; 
stroke:#000000; stroke-width:21200.000000; stroke-opacity:1; 
stroke-linecap:round; stroke-linejoin:round;">
</g>
<g style="fill:#000000; fill-opacity:0.0; 
stroke:#000000; stroke-width:300000.000000; stroke-opacity:1; 
stroke-linecap:round; stroke-linejoin:round;">
<text x="263002200.000000" y="193857200.000000"
textLength="5935714.000000" font-size="2000000.000000" lengthAdjust="spacingAndGlyphs"
text-anchor="start" opacity="0">Rev: </text>
<g class="stroked-text"><desc>Rev: </desc>
<path d="M264411485 193785771
L263911485 193071485
" />
<path d="M263554342 193785771
L263554342 192285771
L264125771 192285771
L264268628 192357200
L264340057 192428628
L264411485 192571485
L264411485 192785771
L264340057 192928628
L264268628 193000057
L264125771 193071485
L263554342 193071485
" />
<path d="M265625771 193714342
L265482914 193785771
L265197200 193785771
L265054342 193714342
L264982914 193571485
L264982914 193000057
L265054342 192857200
L265197200 192785771
L265482914 192785771
L265625771 192857200
L265697200 193000057
L265697200 193142914
L264982914 193285771
" />
<path d="M266197200 192785771
L266554342 193785771
L266911485 192785771
" />
<path d="M267482914 193642914
L267554342 193714342
L267482914 193785771
L267411485 193714342
L267482914 193642914
L267482914 193785771
" />
<path d="M267482914 192857200
L267554342 192928628
L267482914 193000057
L267411485 192928628
L267482914 192857200
L267482914 193000057
" />
</g></g>
<g style="fill:#000000; fill-opacity:0.0; 
stroke:#000000; stroke-width:21200.000000; stroke-opacity:1; 
stroke-linecap:round; stroke-linejoin:round;">
</g>
<g style="fill:#000000; fill-opacity:0.0; 
stroke:#000000; stroke-width:150000.000000; stroke-opacity:1; 
stroke-linecap:round; stroke-linejoin:round;">
<text x="178002200.000000" y="193857200.000000"
textLength="9604286.000000" font-size="2000000.000000" lengthAdjust="spacingAndGlyphs"
text-anchor="start" opacity="0">Size: A4</text>
<g class="stroked-text"><desc>Size: A4</desc>
<path d="M178362914 193714342
L178577200 193785771
L178934342 193785771
L179077200 193714342
L179148628 193642914
L179220057 193500057
L179220057 193357200
L179148628 193214342
L179077200 193142914
L178934342 193071485
L178648628 193000057
L178505771 192928628
L178434342 192857200
L178362914 192714342
L178362914 192571485
L178434342 192428628
L178505771 192357200
L178648628 192285771
L179005771 192285771
L179220057 192357200
" />
<path d="M179862914 193785771
L179862914 192785771
" />
<path d="M179862914 192285771
L179791485 192357200
L179862914 192428628
L179934342 192357200
L179862914 192285771
L179862914 192428628
" />
<path d="M180434342 192785771
L181220057 192785771
L180434342 193785771
L181220057 193785771
" />
<path d="M182362914 193714342
L182220057 193785771
L181934342 193785771
L181791485 193714342
L181720057 193571485
L181720057 193000057
L181791485 192857200
L181934342 192785771
L182220057 192785771
L182362914 192857200
L182434342 193000057
L182434342 193142914
L181720057 193285771
" />
<path d="M183077200 193642914
L183148628 193714342
L183077200 193785771
L183005771 193714342
L183077200 193642914
L183077200 193785771
" />
<path d="M183077200 192857200
L183148628 192928628
L183077200 193000057
L183005771 192928628
L183077200 192857200
L183077200 193000057
" />
<path d="M184862914 193357200
L185577200 193357200
" />
<path d="M184720057 193785771
L185220057 192285771
L185720057 193785771
" />
<path d="M186862914 192785771
L186862914 193785771
" />
<path d="M186505771 192214342
L186148628 193285771
L187077200 193285771
" />
</g></g>
<g style="fill:#000000; fill-opacity:0.0; 
stroke:#000000; stroke-width:21200.000000; stroke-opacity:1; 
stroke-linecap:round; stroke-linejoin:round;">
</g>
<g style="fill:#000000; fill-opacity:0.0; 
stroke:#000000; stroke-width:150000.000000; stroke-opacity:1; 
stroke-linecap:round; stroke-linejoin:round;">
<text x="263002200.000000" y="196657200.000000"
textLength="8507143.000000" font-size="2000000.000000" lengthAdjust="spacingAndGlyphs"
text-anchor="start" opacity="0">Id: 1/1</text>
<g class="stroked-text"><desc>Id: 1/1</desc>
<path d="M263434342 196585771
L263434342 195085771
" />
<path d="M264791485 196585771
L264791485 195085771
" />
<path d="M264791485 196514342
L264648628 196585771
L264362914 196585771
L264220057 196514342
L264148628 196442914
L264077200 196300057
L264077200 195871485
L264148628 195728628
L264220057 195657200
L264362914 195585771
L264648628 195585771
L264791485 195657200
" />
<path d="M265505771 196442914
L265577200 196514342
L265505771 196585771
L265434342 196514342
L265505771 196442914
L265505771 196585771
" />
<path d="M265505771 195657200
L265577200 195728628
L265505771 195800057
L265434342 195728628
L265505771 195657200
L265505771 195800057
" />
<path d="M268148628 196585771
L267291485 196585771
" />
<path d="M267720057 196585771
L267720057 195085771
L267577200 195300057
L267434342 195442914
L267291485 195514342
" />
<path d="M269862914 195014342
L268577200 196942914
" />
<path d="M271148628 196585771
L270291485 196585771
" />
<path d="M270720057 196585771
L270720057 195085771
L270577200 195300057
L270434342 195442914
L270291485 195514342
" />
</g></g>
<g style="fill:#000000; fill-opacity:0.0; 
stroke:#000000; stroke-width:21200.000000; stroke-opacity:1; 
stroke-linecap:round; stroke-linejoin:round;">
</g>
<g style="fill:#000000; fill-opacity:0.0; 
stroke:#000000; stroke-width:150000.000000; stroke-opacity:1; 
stroke-linecap:round; stroke-linejoin:round;">
<path d="M177002200 187507200
L285002200 187507200
" />
</g>
<g style="fill:#000000; fill-opacity:0.0; 
stroke:#000000; stroke-width:21200.000000; stroke-opacity:1; 
stroke-linecap:round; stroke-linejoin:round;">
</g>
<g style="fill:#000000; fill-opacity:0.0; 
stroke:#000000; stroke-width:400000.000000; stroke-opacity:1; 
stroke-linecap:round; stroke-linejoin:round;">
<text x="178002200.000000" y="190307200.000000"
textLength="9409643.000000" font-size="2666666.000000" lengthAdjust="spacingAndGlyphs"
text-anchor="start" opacity="0">Title: </text>
<g class="stroked-text"><desc>Title: </desc>
<path d="M178714580 188211961
L179857438 188211961
" />
<path d="M179036009 190211961
L179286009 188211961
" />
<path d="M180274104 190211961
L180440771 188878628
" />
<path d="M180524104 188211961
L180416961 188307200
L180500295 188402438
L180607438 188307200
L180524104 188211961
L180500295 188402438
" />
<path d="M181107438 188878628
L181869342 188878628
" />
<path d="M181476485 188211961
L181262200 189926247
L181333628 190116723
L181512200 190211961
L181702676 190211961
" />
<path d="M182655057 190211961
L182476485 190116723
L182405057 189926247
L182619342 188211961
" />
<path d="M184190771 190116723
L183988390 190211961
L183607438 190211961
L183428866 190116723
L183357438 189926247
L183452676 189164342
L183571723 188973866
L183774104 188878628
L184155057 188878628
L184333628 188973866
L184405057 189164342
L184381247 189354819
L183405057 189545295
" />
<path d="M185155057 190021485
L185238390 190116723
L185131247 190211961
L185047914 190116723
L185155057 190021485
L185131247 190211961
" />
<path d="M185286009 188973866
L185369342 189069104
L185262200 189164342
L185178866 189069104
L185286009 188973866
L185262200 189164342
" />
</g></g>
<g style="fill:#000000; fill-opacity:0.0; 
stroke:#000000; stroke-width:21200.000000; stroke-opacity:1; 
stroke-linecap:round; stroke-linejoin:round;">
</g>
<g style="fill:#000000; fill-opacity:0.0; 
stroke:#000000; stroke-width:150000.000000; stroke-opacity:1; 
stroke-linecap:round; stroke-linejoin:round;">
<text x="178002200.000000" y="186457200.000000"
textLength="30662857.000000" font-size="2000000.000000" lengthAdjust="spacingAndGlyphs"
text-anchor="start" opacity="0">File: kicadBoard.kicad_pcb</text>
<g class="stroked-text"><desc>File: kicadBoard.kicad_pcb</desc>
<path d="M178934342 185600057
L178434342 185600057
" />
<path d="M178434342 186385771
L178434342 184885771
L179148628 184885771
" />
<path d="M179720057 186385771
L179720057 185385771
" />
<path d="M179720057 184885771
L179648628 184957200
L179720057 185028628
L179791485 184957200
L179720057 184885771
L179720057 185028628
" />
<path d="M180648628 186385771
L180505771 186314342
L180434342 186171485
L180434342 184885771
" />
<path d="M181791485 186314342
L181648628 186385771
L181362914 186385771
L181220057 186314342
L181148628 186171485
L181148628 185600057
L181220057 185457200
L181362914 185385771
L181648628 185385771
L181791485 185457200
L181862914 185600057
L181862914 185742914
L181148628 185885771
" />
<path d="M182505771 186242914
L182577200 186314342
L182505771 186385771
L182434342 186314342
L182505771 186242914
L182505771 186385771
" />
<path d="M182505771 185457200
L182577200 185528628
L182505771 185600057
L182434342 185528628
L182505771 185457200
L182505771 185600057
" />
<path d="M184362914 186385771
L184362914 184885771
" />
<path d="M184505771 185814342
L184934342 186385771
" />
<path d="M184934342 185385771
L184362914 185957200
" />
<path d="M185577200 186385771
L185577200 185385771
" />
<path d="M185577200 184885771
L185505771 184957200
L185577200 185028628
L185648628 184957200
L185577200 184885771
L185577200 185028628
" />
<path d="M186934342 186314342
L186791485 186385771
L186505771 186385771
L186362914 186314342
L186291485 186242914
L186220057 186100057
L186220057 185671485
L186291485 185528628
L186362914 185457200
L186505771 185385771
L186791485 185385771
L186934342 185457200
" />
<path d="M188220057 186385771
L188220057 185600057
L188148628 185457200
L188005771 185385771
L187720057 185385771
L187577200 185457200
" />
<path d="M188220057 186314342
L188077200 186385771
L187720057 186385771
L187577200 186314342
L187505771 186171485
L187505771 186028628
L187577200 185885771
L187720057 185814342
L188077200 185814342
L188220057 185742914
" />
<path d="M189577200 186385771
L189577200 184885771
" />
<path d="M189577200 186314342
L189434342 186385771
L189148628 186385771
L189005771 186314342
L188934342 186242914
L188862914 186100057
L188862914 185671485
L188934342 185528628
L189005771 185457200
L189148628 185385771
L189434342 185385771
L189577200 185457200
" />
<path d="M190791485 185600057
L191005771 185671485
L191077200 185742914
L191148628 185885771
L191148628 186100057
L191077200 186242914
L191005771 186314342
L190862914 186385771
L190291485 186385771
L190291485 184885771
L190791485 184885771
L190934342 184957200
L191005771 185028628
L191077200 185171485
L191077200 185314342
L191005771 185457200
L190934342 185528628
L190791485 185600057
L190291485 185600057
" />
<path d="M192005771 186385771
L191862914 186314342
L191791485 186242914
L191720057 186100057
L191720057 185671485
L191791485 185528628
L191862914 185457200
L192005771 185385771
L192220057 185385771
L192362914 185457200
L192434342 185528628
L192505771 185671485
L192505771 186100057
L192434342 186242914
L192362914 186314342
L192220057 186385771
L192005771 186385771
" />
<path d="M193791485 186385771
L193791485 185600057
L193720057 185457200
L193577200 185385771
L193291485 185385771
L193148628 185457200
" />
<path d="M193791485 186314342
L193648628 186385771
L193291485 186385771
L193148628 186314342
L193077200 186171485
L193077200 186028628
L193148628 185885771
L193291485 185814342
L193648628 185814342
L193791485 185742914
" />
<path d="M194505771 186385771
L194505771 185385771
" />
<path d="M194505771 185671485
L194577200 185528628
L194648628 185457200
L194791485 185385771
L194934342 185385771
" />
<path d="M196077200 186385771
L196077200 184885771
" />
<path d="M196077200 186314342
L195934342 186385771
L195648628 186385771
L195505771 186314342
L195434342 186242914
L195362914 186100057
L195362914 185671485
L195434342 185528628
L195505771 185457200
L195648628 185385771
L195934342 185385771
L196077200 185457200
" />
<path d="M196791485 186242914
L196862914 186314342
L196791485 186385771
L196720057 186314342
L196791485 186242914
L196791485 186385771
" />
<path d="M197505771 186385771
L197505771 184885771
" />
<path d="M197648628 185814342
L198077200 186385771
" />
<path d="M198077200 185385771
L197505771 185957200
" />
<path d="M198720057 186385771
L198720057 185385771
" />
<path d="M198720057 184885771
L198648628 184957200
L198720057 185028628
L198791485 184957200
L198720057 184885771
L198720057 185028628
" />
<path d="M200077200 186314342
L199934342 186385771
L199648628 186385771
L199505771 186314342
L199434342 186242914
L199362914 186100057
L199362914 185671485
L199434342 185528628
L199505771 185457200
L199648628 185385771
L199934342 185385771
L200077200 185457200
" />
<path d="M201362914 186385771
L201362914 185600057
L201291485 185457200
L201148628 185385771
L200862914 185385771
L200720057 185457200
" />
<path d="M201362914 186314342
L201220057 186385771
L200862914 186385771
L200720057 186314342
L200648628 186171485
L200648628 186028628
L200720057 185885771
L200862914 185814342
L201220057 185814342
L201362914 185742914
" />
<path d="M202720057 186385771
L202720057 184885771
" />
<path d="M202720057 186314342
L202577200 186385771
L202291485 186385771
L202148628 186314342
L202077200 186242914
L202005771 186100057
L202005771 185671485
L202077200 185528628
L202148628 185457200
L202291485 185385771
L202577200 185385771
L202720057 185457200
" />
<path d="M203077200 186528628
L204220057 186528628
" />
<path d="M204577200 185385771
L204577200 186885771
" />
<path d="M204577200 185457200
L204720057 185385771
L205005771 185385771
L205148628 185457200
L205220057 185528628
L205291485 185671485
L205291485 186100057
L205220057 186242914
L205148628 186314342
L205005771 186385771
L204720057 186385771
L204577200 186314342
" />
<path d="M206577200 186314342
L206434342 186385771
L206148628 186385771
L206005771 186314342
L205934342 186242914
L205862914 186100057
L205862914 185671485
L205934342 185528628
L206005771 185457200
L206148628 185385771
L206434342 185385771
L206577200 185457200
" />
<path d="M207220057 186385771
L207220057 184885771
" />
<path d="M207220057 185457200
L207362914 185385771
L207648628 185385771
L207791485 185457200
L207862914 185528628
L207934342 185671485
L207934342 186100057
L207862914 186242914
L207791485 186314342
L207648628 186385771
L207362914 186385771
L207220057 186314342
" />
</g></g>
<g style="fill:#000000; fill-opacity:0.0; 
stroke:#000000; stroke-width:21200.000000; stroke-opacity:1; 
stroke-linecap:round; stroke-linejoin:round;">
</g>
<g style="fill:#000000; fill-opacity:0.0; 
stroke:#000000; stroke-width:150000.000000; stroke-opacity:1; 
stroke-linecap:round; stroke-linejoin:round;">
<path d="M177002200 181507200
L285002200 181507200
" />
</g>
<g style="fill:#000000; fill-opacity:0.0; 
stroke:#000000; stroke-width:21200.000000; stroke-opacity:1; 
stroke-linecap:round; stroke-linejoin:round;">
</g>
<g style="fill:#000000; fill-opacity:0.0; 
stroke:#000000; stroke-width:150000.000000; stroke-opacity:1; 
stroke-linecap:round; stroke-linejoin:round;">
<text x="178002200.000000" y="183757200.000000"
textLength="8221429.000000" font-size="2000000.000000" lengthAdjust="spacingAndGlyphs"
text-anchor="start" opacity="0">Sheet: </text>
<g class="stroked-text"><desc>Sheet: </desc>
<path d="M178362914 183614342
L178577200 183685771
L178934342 183685771
L179077200 183614342
L179148628 183542914
L179220057 183400057
L179220057 183257200
L179148628 183114342
L179077200 183042914
L178934342 182971485
L178648628 182900057
L178505771 182828628
L178434342 182757200
L178362914 182614342
L178362914 182471485
L178434342 182328628
L178505771 182257200
L178648628 182185771
L179005771 182185771
L179220057 182257200
" />
<path d="M179862914 183685771
L179862914 182185771
" />
<path d="M180505771 183685771
L180505771 182900057
L180434342 182757200
L180291485 182685771
L180077200 182685771
L179934342 182757200
L179862914 182828628
" />
<path d="M181791485 183614342
L181648628 183685771
L181362914 183685771
L181220057 183614342
L181148628 183471485
L181148628 182900057
L181220057 182757200
L181362914 182685771
L181648628 182685771
L181791485 182757200
L181862914 182900057
L181862914 183042914
L181148628 183185771
" />
<path d="M183077200 183614342
L182934342 183685771
L182648628 183685771
L182505771 183614342
L182434342 183471485
L182434342 182900057
L182505771 182757200
L182648628 182685771
L182934342 182685771
L183077200 182757200
L183148628 182900057
L183148628 183042914
L182434342 183185771
" />
<path d="M183577200 182685771
L184148628 182685771
" />
<path d="M183791485 182185771
L183791485 183471485
L183862914 183614342
L184005771 183685771
L184148628 183685771
" />
<path d="M184648628 183542914
L184720057 183614342
L184648628 183685771
L184577200 183614342
L184648628 183542914
L184648628 183685771
" />
<path d="M184648628 182757200
L184720057 182828628
L184648628 182900057
L184577200 182828628
L184648628 182757200
L184648628 182900057
" />
</g></g>
<g style="fill:#000000; fill-opacity:0.0; 
stroke:#000000; stroke-width:21200.000000; stroke-opacity:1; 
stroke-linecap:round; stroke-linejoin:round;">
</g>
<g style="fill:#000000; fill-opacity:0.0; 
stroke:#000000; stroke-width:300000.000000; stroke-opacity:1; 
stroke-linecap:round; stroke-linejoin:round;">
<text x="178002200.000000" y="180757200.000000"
textLength="150000.000000" font-size="2000000.000000" lengthAdjust="spacingAndGlyphs"
text-anchor="start" opacity="0"></text>
<g class="stroked-text"><desc></desc>
</g></g>
<g style="fill:#000000; fill-opacity:0.0; 
stroke:#000000; stroke-width:21200.000000; stroke-opacity:1; 
stroke-linecap:round; stroke-linejoin:round;">
</g>
<g style="fill:#000000; fill-opacity:0.0; 
stroke:#000000; stroke-width:150000.000000; stroke-opacity:1; 
stroke-linecap:round; stroke-linejoin:round;">
<text x="178002200.000000" y="177757200.000000"
textLength="300000.000000" font-size="2000000.000000" lengthAdjust="spacingAndGlyphs"
text-anchor="start" opacity="0"></text>
<g class="stroked-text"><desc></desc>
</g></g>
<g style="fill:#000000; fill-opacity:0.0; 
stroke:#000000; stroke-width:21200.000000; stroke-opacity:1; 
stroke-linecap:round; stroke-linejoin:round;">
</g>
<g style="fill:#000000; fill-opacity:0.0; 
stroke:#000000; stroke-width:150000.000000; stroke-opacity:1; 
stroke-linecap:round; stroke-linejoin:round;">
<text x="178002200.000000" y="174757200.000000"
textLength="150000.000000" font-size="2000000.000000" lengthAdjust="spacingAndGlyphs"
text-anchor="start" opacity="0"></text>
<g class="stroked-text"><desc></desc>
</g></g>
<g style="fill:#000000; fill-opacity:0.0; 
stroke:#000000; stroke-width:21200.000000; stroke-opacity:1; 
stroke-linecap:round; stroke-linejoin:round;">
</g>
<g style="fill:#000000; fill-opacity:0.0; 
stroke:#000000; stroke-width:150000.000000; stroke-opacity:1; 
stroke-linecap:round; stroke-linejoin:round;">
<text x="178002200.000000" y="171757200.000000"
textLength="150000.000000" font-size="2000000.000000" lengthAdjust="spacingAndGlyphs"
text-anchor="start" opacity="0"></text>
<g class="stroked-text"><desc></desc>
</g></g>
<g style="fill:#000000; fill-opacity:0.0; 
stroke:#000000; stroke-width:21200.000000; stroke-opacity:1; 
stroke-linecap:round; stroke-linejoin:round;">
</g>
<g style="fill:#000000; fill-opacity:0.0; 
stroke:#000000; stroke-width:150000.000000; stroke-opacity:1; 
stroke-linecap:round; stroke-linejoin:round;">
<text x="178002200.000000" y="168757200.000000"
textLength="150000.000000" font-size="2000000.000000" lengthAdjust="spacingAndGlyphs"
text-anchor="start" opacity="0"></text>
<g class="stroked-text"><desc></desc>
</g></g>
<g style="fill:#000000; fill-opacity:0.0; 
stroke:#000000; stroke-width:21200.000000; stroke-opacity:1; 
stroke-linecap:round; stroke-linejoin:round;">
</g>
<g style="fill:#000000; fill-opacity:0.0; 
stroke:#000000; stroke-width:150000.000000; stroke-opacity:1; 
stroke-linecap:round; stroke-linejoin:round;">
<path d="M197002200 191507200
L197002200 194507200
" />
</g>
<g style="fill:#000000; fill-opacity:0.0; 
stroke:#000000; stroke-width:21200.000000; stroke-opacity:1; 
stroke-linecap:round; stroke-linejoin:round;">
</g>
<g style="fill:#000000; fill-opacity:0.0; 
stroke:#000000; stroke-width:150000.000000; stroke-opacity:1; 
stroke-linecap:round; stroke-linejoin:round;">
<path d="M261002200 191507200
L261002200 198007200
" />
</g>
<g style="fill:#585D84; fill-opacity:0.0; 
stroke:#585D84; stroke-width:150000.000000; stroke-opacity:1; 
stroke-linecap:round; stroke-linejoin:round;">
</g>
<g style="fill:#585D84; fill-opacity:0.0; 
stroke:#585D84; stroke-width:97536.000000; stroke-opacity:1; 
stroke-linecap:round; stroke-linejoin:round;">
<text x="152311100.000000" y="108307632.000000"
transform="scale(-1 1) translate(-304622200.000000 0)"
textLength="12017616.000000" font-size="682752.000000" lengthAdjust="spacingAndGlyphs"
text-anchor="start" opacity="0">JUMPER-SMT_2_NC_TRACE_SILK</text>
<g class="stroked-text"><desc>JUMPER-SMT_2_NC_TRACE_SILK</desc>
<path d="M151979477 107771184
L151979477 108136944
L152003861 108210096
L152052629 108258864
L152125781 108283248
L152174549 108283248
" />
<path d="M151735637 107771184
L151735637 108185712
L151711253 108234480
L151686869 108258864
L151638101 108283248
L151540565 108283248
L151491797 108258864
L151467413 108234480
L151443029 108185712
L151443029 107771184
" />
<path d="M151199189 108283248
L151199189 107771184
L151028501 108136944
L150857813 107771184
L150857813 108283248
" />
<path d="M150613973 108283248
L150613973 107771184
L150418901 107771184
L150370133 107795568
L150345749 107819952
L150321365 107868720
L150321365 107941872
L150345749 107990640
L150370133 108015024
L150418901 108039408
L150613973 108039408
" />
<path d="M150101909 108015024
L149931221 108015024
" />
<path d="M149858069 108283248
L150101909 108283248
L150101909 107771184
L149858069 107771184
" />
<path d="M149346005 108283248
L149516693 108039408
" />
<path d="M149638613 108283248
L149638613 107771184
L149443541 107771184
L149394773 107795568
L149370389 107819952
L149346005 107868720
L149346005 107941872
L149370389 107990640
L149394773 108015024
L149443541 108039408
L149638613 108039408
" />
<path d="M149126549 108088176
L148736405 108088176
" />
<path d="M148516949 108258864
L148443797 108283248
L148321877 108283248
L148273109 108258864
L148248725 108234480
L148224341 108185712
L148224341 108136944
L148248725 108088176
L148273109 108063792
L148321877 108039408
L148419413 108015024
L148468181 107990640
L148492565 107966256
L148516949 107917488
L148516949 107868720
L148492565 107819952
L148468181 107795568
L148419413 107771184
L148297493 107771184
L148224341 107795568
" />
<path d="M148004885 108283248
L148004885 107771184
L147834197 108136944
L147663509 107771184
L147663509 108283248
" />
<path d="M147492821 107771184
L147200213 107771184
" />
<path d="M147346517 108283248
L147346517 107771184
" />
<path d="M147151445 108332016
L146761301 108332016
" />
<path d="M146663765 107819952
L146639381 107795568
L146590613 107771184
L146468693 107771184
L146419925 107795568
L146395541 107819952
L146371157 107868720
L146371157 107917488
L146395541 107990640
L146688149 108283248
L146371157 108283248
" />
<path d="M146273621 108332016
L145883477 108332016
" />
<path d="M145761557 108283248
L145761557 107771184
L145468949 108283248
L145468949 107771184
" />
<path d="M144932501 108234480
L144956885 108258864
L145030037 108283248
L145078805 108283248
L145151957 108258864
L145200725 108210096
L145225109 108161328
L145249493 108063792
L145249493 107990640
L145225109 107893104
L145200725 107844336
L145151957 107795568
L145078805 107771184
L145030037 107771184
L144956885 107795568
L144932501 107819952
" />
<path d="M144834965 108332016
L144444821 108332016
" />
<path d="M144396053 107771184
L144103445 107771184
" />
<path d="M144249749 108283248
L144249749 107771184
" />
<path d="M143640149 108283248
L143810837 108039408
" />
<path d="M143932757 108283248
L143932757 107771184
L143737685 107771184
L143688917 107795568
L143664533 107819952
L143640149 107868720
L143640149 107941872
L143664533 107990640
L143688917 108015024
L143737685 108039408
L143932757 108039408
" />
<path d="M143445077 108136944
L143201237 108136944
" />
<path d="M143493845 108283248
L143323157 107771184
L143152469 108283248
" />
<path d="M142689173 108234480
L142713557 108258864
L142786709 108283248
L142835477 108283248
L142908629 108258864
L142957397 108210096
L142981781 108161328
L143006165 108063792
L143006165 107990640
L142981781 107893104
L142957397 107844336
L142908629 107795568
L142835477 107771184
L142786709 107771184
L142713557 107795568
L142689173 107819952
" />
<path d="M142469717 108015024
L142299029 108015024
" />
<path d="M142225877 108283248
L142469717 108283248
L142469717 107771184
L142225877 107771184
" />
<path d="M142128341 108332016
L141738197 108332016
" />
<path d="M141640661 108258864
L141567509 108283248
L141445589 108283248
L141396821 108258864
L141372437 108234480
L141348053 108185712
L141348053 108136944
L141372437 108088176
L141396821 108063792
L141445589 108039408
L141543125 108015024
L141591893 107990640
L141616277 107966256
L141640661 107917488
L141640661 107868720
L141616277 107819952
L141591893 107795568
L141543125 107771184
L141421205 107771184
L141348053 107795568
" />
<path d="M141128597 108283248
L141128597 107771184
" />
<path d="M140640917 108283248
L140884757 108283248
L140884757 107771184
" />
<path d="M140470229 108283248
L140470229 107771184
" />
<path d="M140177621 108283248
L140397077 107990640
" />
<path d="M140177621 107771184
L140470229 108063792
" />
</g><g transform="rotate(-90.000000 156311600.000000 112306100.000000)">
<text x="156311600.000000" y="112562132.000000"
transform="scale(-1 1) translate(-312623200.000000 0)"
textLength="13162483.000000" font-size="682752.000000" lengthAdjust="spacingAndGlyphs"
text-anchor="start" opacity="0">JUMPER-SMT_3_2-NC_TRACE_SILK</text>
</g>
<g class="stroked-text"><desc>JUMPER-SMT_3_2-NC_TRACE_SILK</desc>
<path d="M156031184 112637722
L156396944 112637722
L156470096 112613338
L156518864 112564570
L156543248 112491418
L156543248 112442650
" />
<path d="M156031184 112881562
L156445712 112881562
L156494480 112905946
L156518864 112930330
L156543248 112979098
L156543248 113076634
L156518864 113125402
L156494480 113149786
L156445712 113174170
L156031184 113174170
" />
<path d="M156543248 113418010
L156031184 113418010
L156396944 113588698
L156031184 113759386
L156543248 113759386
" />
<path d="M156543248 114003226
L156031184 114003226
L156031184 114198298
L156055568 114247066
L156079952 114271450
L156128720 114295834
L156201872 114295834
L156250640 114271450
L156275024 114247066
L156299408 114198298
L156299408 114003226
" />
<path d="M156275024 114515290
L156275024 114685978
" />
<path d="M156543248 114759130
L156543248 114515290
L156031184 114515290
L156031184 114759130
" />
<path d="M156543248 115271194
L156299408 115100506
" />
<path d="M156543248 114978586
L156031184 114978586
L156031184 115173658
L156055568 115222426
L156079952 115246810
L156128720 115271194
L156201872 115271194
L156250640 115246810
L156275024 115222426
L156299408 115173658
L156299408 114978586
" />
<path d="M156348176 115490650
L156348176 115880794
" />
<path d="M156518864 116100250
L156543248 116173402
L156543248 116295322
L156518864 116344090
L156494480 116368474
L156445712 116392858
L156396944 116392858
L156348176 116368474
L156323792 116344090
L156299408 116295322
L156275024 116197786
L156250640 116149018
L156226256 116124634
L156177488 116100250
L156128720 116100250
L156079952 116124634
L156055568 116149018
L156031184 116197786
L156031184 116319706
L156055568 116392858
" />
<path d="M156543248 116612314
L156031184 116612314
L156396944 116783002
L156031184 116953690
L156543248 116953690
" />
<path d="M156031184 117124378
L156031184 117416986
" />
<path d="M156543248 117270682
L156031184 117270682
" />
<path d="M156592016 117465754
L156592016 117855898
" />
<path d="M156031184 117929050
L156031184 118246042
L156226256 118075354
L156226256 118148506
L156250640 118197274
L156275024 118221658
L156323792 118246042
L156445712 118246042
L156494480 118221658
L156518864 118197274
L156543248 118148506
L156543248 118002202
L156518864 117953434
L156494480 117929050
" />
<path d="M156592016 118343578
L156592016 118733722
" />
<path d="M156079952 118831258
L156055568 118855642
L156031184 118904410
L156031184 119026330
L156055568 119075098
L156079952 119099482
L156128720 119123866
L156177488 119123866
L156250640 119099482
L156543248 118806874
L156543248 119123866
" />
<path d="M156348176 119343322
L156348176 119733466
" />
<path d="M156543248 119977306
L156031184 119977306
L156543248 120269914
L156031184 120269914
" />
<path d="M156494480 120806362
L156518864 120781978
L156543248 120708826
L156543248 120660058
L156518864 120586906
L156470096 120538138
L156421328 120513754
L156323792 120489370
L156250640 120489370
L156153104 120513754
L156104336 120538138
L156055568 120586906
L156031184 120660058
L156031184 120708826
L156055568 120781978
L156079952 120806362
" />
<path d="M156592016 120903898
L156592016 121294042
" />
<path d="M156031184 121342810
L156031184 121635418
" />
<path d="M156543248 121489114
L156031184 121489114
" />
<path d="M156543248 122098714
L156299408 121928026
" />
<path d="M156543248 121806106
L156031184 121806106
L156031184 122001178
L156055568 122049946
L156079952 122074330
L156128720 122098714
L156201872 122098714
L156250640 122074330
L156275024 122049946
L156299408 122001178
L156299408 121806106
" />
<path d="M156396944 122293786
L156396944 122537626
" />
<path d="M156543248 122245018
L156031184 122415706
L156543248 122586394
" />
<path d="M156494480 123049690
L156518864 123025306
L156543248 122952154
L156543248 122903386
L156518864 122830234
L156470096 122781466
L156421328 122757082
L156323792 122732698
L156250640 122732698
L156153104 122757082
L156104336 122781466
L156055568 122830234
L156031184 122903386
L156031184 122952154
L156055568 123025306
L156079952 123049690
" />
<path d="M156275024 123269146
L156275024 123439834
" />
<path d="M156543248 123512986
L156543248 123269146
L156031184 123269146
L156031184 123512986
" />
<path d="M156592016 123610522
L156592016 124000666
" />
<path d="M156518864 124098202
L156543248 124171354
L156543248 124293274
L156518864 124342042
L156494480 124366426
L156445712 124390810
L156396944 124390810
L156348176 124366426
L156323792 124342042
L156299408 124293274
L156275024 124195738
L156250640 124146970
L156226256 124122586
L156177488 124098202
L156128720 124098202
L156079952 124122586
L156055568 124146970
L156031184 124195738
L156031184 124317658
L156055568 124390810
" />
<path d="M156543248 124610266
L156031184 124610266
" />
<path d="M156543248 125097946
L156543248 124854106
L156031184 124854106
" />
<path d="M156543248 125268634
L156031184 125268634
" />
<path d="M156543248 125561242
L156250640 125341786
" />
<path d="M156031184 125561242
L156323792 125268634
" />
</g><text x="151549100.000000" y="113387632.000000"
transform="scale(-1 1) translate(-303098200.000000 0)"
textLength="1116787.000000" font-size="682752.000000" lengthAdjust="spacingAndGlyphs"
text-anchor="start" opacity="0">ISP</text>
<g class="stroked-text"><desc>ISP</desc>
<path d="M151363781 113363248
L151363781 112851184
" />
<path d="M151144325 113338864
L151071173 113363248
L150949253 113363248
L150900485 113338864
L150876101 113314480
L150851717 113265712
L150851717 113216944
L150876101 113168176
L150900485 113143792
L150949253 113119408
L151046789 113095024
L151095557 113070640
L151119941 113046256
L151144325 112997488
L151144325 112948720
L151119941 112899952
L151095557 112875568
L151046789 112851184
L150924869 112851184
L150851717 112875568
" />
<path d="M150632261 113363248
L150632261 112851184
L150437189 112851184
L150388421 112875568
L150364037 112899952
L150339653 112948720
L150339653 113021872
L150364037 113070640
L150388421 113095024
L150437189 113119408
L150632261 113119408
" />
</g></g>
<g style="fill:#585D84; fill-opacity:0.0; 
stroke:#585D84; stroke-width:20320.000000; stroke-opacity:1; 
stroke-linecap:round; stroke-linejoin:round;">
<text x="150406100.000000" y="110083600.000000"
transform="scale(-1 1) translate(-300812200.000000 0)"
textLength="4123954.000000" font-size="311573.000000" lengthAdjust="spacingAndGlyphs"
text-anchor="start" opacity="0">PROGRAMMER THIS SIDE</text>
<g class="stroked-text"><desc>PROGRAMMER THIS SIDE</desc>
<path d="M150337253 110072472
L150337253 109838792
L150248232 109838792
L150225977 109849920
L150214850 109861047
L150203722 109883302
L150203722 109916685
L150214850 109938940
L150225977 109950068
L150248232 109961196
L150337253 109961196
" />
<path d="M149970042 110072472
L150047935 109961196
" />
<path d="M150103573 110072472
L150103573 109838792
L150014552 109838792
L149992297 109849920
L149981170 109861047
L149970042 109883302
L149970042 109916685
L149981170 109938940
L149992297 109950068
L150014552 109961196
L150103573 109961196
" />
<path d="M149825383 109838792
L149780872 109838792
L149758617 109849920
L149736362 109872175
L149725234 109916685
L149725234 109994579
L149736362 110039089
L149758617 110061344
L149780872 110072472
L149825383 110072472
L149847638 110061344
L149869893 110039089
L149881021 109994579
L149881021 109916685
L149869893 109872175
L149847638 109849920
L149825383 109838792
" />
<path d="M149502682 109849920
L149524937 109838792
L149558320 109838792
L149591703 109849920
L149613958 109872175
L149625086 109894430
L149636213 109938940
L149636213 109972323
L149625086 110016834
L149613958 110039089
L149591703 110061344
L149558320 110072472
L149536065 110072472
L149502682 110061344
L149491554 110050217
L149491554 109972323
L149536065 109972323
" />
<path d="M149257874 110072472
L149335768 109961196
" />
<path d="M149391406 110072472
L149391406 109838792
L149302385 109838792
L149280130 109849920
L149269002 109861047
L149257874 109883302
L149257874 109916685
L149269002 109938940
L149280130 109950068
L149302385 109961196
L149391406 109961196
" />
<path d="M149168853 110005706
L149057577 110005706
" />
<path d="M149191109 110072472
L149113215 109838792
L149035322 110072472
" />
<path d="M148957429 110072472
L148957429 109838792
L148879535 110005706
L148801642 109838792
L148801642 110072472
" />
<path d="M148690366 110072472
L148690366 109838792
L148612472 110005706
L148534579 109838792
L148534579 110072472
" />
<path d="M148423303 109950068
L148345410 109950068
" />
<path d="M148312027 110072472
L148423303 110072472
L148423303 109838792
L148312027 109838792
" />
<path d="M148078347 110072472
L148156240 109961196
" />
<path d="M148211878 110072472
L148211878 109838792
L148122857 109838792
L148100602 109849920
L148089474 109861047
L148078347 109883302
L148078347 109916685
L148089474 109938940
L148100602 109950068
L148122857 109961196
L148211878 109961196
" />
<path d="M147833539 109838792
L147700008 109838792
" />
<path d="M147766773 110072472
L147766773 109838792
" />
<path d="M147622114 110072472
L147622114 109838792
" />
<path d="M147622114 109950068
L147488583 109950068
" />
<path d="M147488583 110072472
L147488583 109838792
" />
<path d="M147377307 110072472
L147377307 109838792
" />
<path d="M147277158 110061344
L147243775 110072472
L147188137 110072472
L147165882 110061344
L147154754 110050217
L147143627 110027961
L147143627 110005706
L147154754 109983451
L147165882 109972323
L147188137 109961196
L147232648 109950068
L147254903 109938940
L147266031 109927813
L147277158 109905558
L147277158 109883302
L147266031 109861047
L147254903 109849920
L147232648 109838792
L147177010 109838792
L147143627 109849920
" />
<path d="M146876564 110061344
L146843181 110072472
L146787543 110072472
L146765288 110061344
L146754160 110050217
L146743032 110027961
L146743032 110005706
L146754160 109983451
L146765288 109972323
L146787543 109961196
L146832053 109950068
L146854309 109938940
L146865436 109927813
L146876564 109905558
L146876564 109883302
L146865436 109861047
L146854309 109849920
L146832053 109838792
L146776415 109838792
L146743032 109849920
" />
<path d="M146642884 110072472
L146642884 109838792
" />
<path d="M146531608 110072472
L146531608 109838792
L146475970 109838792
L146442587 109849920
L146420332 109872175
L146409204 109894430
L146398076 109938940
L146398076 109972323
L146409204 110016834
L146420332 110039089
L146442587 110061344
L146475970 110072472
L146531608 110072472
" />
<path d="M146297928 109950068
L146220034 109950068
" />
<path d="M146186652 110072472
L146297928 110072472
L146297928 109838792
L146186652 109838792
" />
</g></g>
<g style="fill:#585D84; fill-opacity:0.0; 
stroke:#585D84; stroke-width:97536.000000; stroke-opacity:1; 
stroke-linecap:round; stroke-linejoin:round;">
<text x="157391100.000000" y="110212632.000000"
transform="scale(-1 1) translate(-314782200.000000 0)"
textLength="12141200.000000" font-size="682752.000000" lengthAdjust="spacingAndGlyphs"
text-anchor="start" opacity="0">JUMPER-SMT_2_NC_TRACE_SILK</text>
<g class="stroked-text"><desc>JUMPER-SMT_2_NC_TRACE_SILK</desc>
<path d="M157059477 109676184
L157059477 110041944
L157083861 110115096
L157132629 110163864
L157205781 110188248
L157254549 110188248
" />
<path d="M156815637 109676184
L156815637 110090712
L156791253 110139480
L156766869 110163864
L156718101 110188248
L156620565 110188248
L156571797 110163864
L156547413 110139480
L156523029 110090712
L156523029 109676184
" />
<path d="M156279189 110188248
L156279189 109676184
L156108501 110041944
L155937813 109676184
L155937813 110188248
" />
<path d="M155693973 110188248
L155693973 109676184
L155498901 109676184
L155450133 109700568
L155425749 109724952
L155401365 109773720
L155401365 109846872
L155425749 109895640
L155450133 109920024
L155498901 109944408
L155693973 109944408
" />
<path d="M155181909 109920024
L155011221 109920024
" />
<path d="M154938069 110188248
L155181909 110188248
L155181909 109676184
L154938069 109676184
" />
<path d="M154426005 110188248
L154596693 109944408
" />
<path d="M154718613 110188248
L154718613 109676184
L154523541 109676184
L154474773 109700568
L154450389 109724952
L154426005 109773720
L154426005 109846872
L154450389 109895640
L154474773 109920024
L154523541 109944408
L154718613 109944408
" />
<path d="M154206549 109993176
L153816405 109993176
" />
<path d="M153596949 110163864
L153523797 110188248
L153401877 110188248
L153353109 110163864
L153328725 110139480
L153304341 110090712
L153304341 110041944
L153328725 109993176
L153353109 109968792
L153401877 109944408
L153499413 109920024
L153548181 109895640
L153572565 109871256
L153596949 109822488
L153596949 109773720
L153572565 109724952
L153548181 109700568
L153499413 109676184
L153377493 109676184
L153304341 109700568
" />
<path d="M153084885 110188248
L153084885 109676184
L152914197 110041944
L152743509 109676184
L152743509 110188248
" />
<path d="M152572821 109676184
L152280213 109676184
" />
<path d="M152426517 110188248
L152426517 109676184
" />
<path d="M152231445 110237016
L151841301 110237016
" />
<path d="M151743765 109724952
L151719381 109700568
L151670613 109676184
L151548693 109676184
L151499925 109700568
L151475541 109724952
L151451157 109773720
L151451157 109822488
L151475541 109895640
L151768149 110188248
L151451157 110188248
" />
<path d="M151353621 110237016
L150963477 110237016
" />
<path d="M150841557 110188248
L150841557 109676184
L150548949 110188248
L150548949 109676184
" />
<path d="M150012501 110139480
L150036885 110163864
L150110037 110188248
L150158805 110188248
L150231957 110163864
L150280725 110115096
L150305109 110066328
L150329493 109968792
L150329493 109895640
L150305109 109798104
L150280725 109749336
L150231957 109700568
L150158805 109676184
L150110037 109676184
L150036885 109700568
L150012501 109724952
" />
<path d="M149914965 110237016
L149524821 110237016
" />
<path d="M149476053 109676184
L149183445 109676184
" />
<path d="M149329749 110188248
L149329749 109676184
" />
<path d="M148720149 110188248
L148890837 109944408
" />
<path d="M149012757 110188248
L149012757 109676184
L148817685 109676184
L148768917 109700568
L148744533 109724952
L148720149 109773720
L148720149 109846872
L148744533 109895640
L148768917 109920024
L148817685 109944408
L149012757 109944408
" />
<path d="M148525077 110041944
L148281237 110041944
" />
<path d="M148573845 110188248
L148403157 109676184
L148232469 110188248
" />
<path d="M147769173 110139480
L147793557 110163864
L147866709 110188248
L147915477 110188248
L147988629 110163864
L148037397 110115096
L148061781 110066328
L148086165 109968792
L148086165 109895640
L148061781 109798104
L148037397 109749336
L147988629 109700568
L147915477 109676184
L147866709 109676184
L147793557 109700568
L147769173 109724952
" />
<path d="M147549717 109920024
L147379029 109920024
" />
<path d="M147305877 110188248
L147549717 110188248
L147549717 109676184
L147305877 109676184
" />
<path d="M147208341 110237016
L146818197 110237016
" />
<path d="M146720661 110163864
L146647509 110188248
L146525589 110188248
L146476821 110163864
L146452437 110139480
L146428053 110090712
L146428053 110041944
L146452437 109993176
L146476821 109968792
L146525589 109944408
L146623125 109920024
L146671893 109895640
L146696277 109871256
L146720661 109822488
L146720661 109773720
L146696277 109724952
L146671893 109700568
L146623125 109676184
L146501205 109676184
L146428053 109700568
" />
<path d="M146208597 110188248
L146208597 109676184
" />
<path d="M145720917 110188248
L145964757 110188248
L145964757 109676184
" />
<path d="M145550229 110188248
L145550229 109676184
" />
<path d="M145257621 110188248
L145477077 109895640
" />
<path d="M145257621 109676184
L145550229 109968792
" />
</g><g >
</g>
<g >
</g>
<g >
</g>
<g >
</g>
<g >
</g>
<g >
</g>
<g >
</g>
<g >
</g>
<g >
</g>
<g >
</g>
<g >
</g>
<g >
</g>
<g >
</g>
<g >
</g>
<g >
</g>
<g >
</g>
<g >
</g>
<g >
</g>
<g >
</g>
<g >
</g>
<g >
</g>
<g >
</g>
<g >
</g>
<g >
</g>
<g >
</g>
<g >
</g>
<g >
</g>
<g >
</g>
<g >
</g>
<g >
</g>
<g >
</g>
<g >
</g>
<g >
</g>
<g >
</g>
<g >
</g>
<g >
</g>
<g >
</g>
<g >
</g>
<g >
</g>
<g >
</g>
<g >
</g>
<g >
</g>
<g >
</g>
<g >
</g>
<g >
</g>
<g >
</g>
<g >
</g>
<g >
</g>
<g >
</g>
<g >
</g>
<g >
</g>
</g>
<g style="fill:#000000; fill-opacity:0.0; 
stroke:#000000; stroke-width:97536.000000; stroke-opacity:1; 
stroke-linecap:round; stroke-linejoin:round;">
</g>
<g style="fill:#D0D2CD; fill-opacity:0.0; 
stroke:#D0D2CD; stroke-width:97536.000000; stroke-opacity:1; 
stroke-linecap:round; stroke-linejoin:round;">
</g>
<g style="fill:#D0D2CD; fill-opacity:0.0; 
stroke:#D0D2CD; stroke-width:203200.000000; stroke-opacity:1; 
stroke-linecap:round; stroke-linejoin:round;">
<path d="M135801100 117703600
L161201100 117703600
" />
<path d="M161201100 117703600
L161201100 92303600
" />
<path d="M161201100 92303600
L135801100 92303600
" />
<path d="M135801100 92303600
L135801100 117703600
" />
<g >
</g>
<g >
</g>
<g >
</g>
<g >
</g>
<g >
</g>
<g >
</g>
<g >
</g>
<g >
</g>
<g >
</g>
<g >
</g>
<g >
</g>
<g >
</g>
<g >
</g>
<g >
</g>
<g >
</g>
<g >
</g>
<g >
</g>
<g >
</g>
<g >
</g>
<g >
</g>
<g >
</g>
<g >
</g>
<g >
</g>
<g >
</g>
<g >
</g>
<g >
</g>
<g >
</g>
<g >
</g>
<g >
</g>
<g >
</g>
<g >
</g>
<g >
</g>
<g >
</g>
<g >
</g>
<g >
</g>
<g >
</g>
<g >
</g>
<g >
</g>
<g >
</g>
<g >
</g>
<g >
</g>
<g >
</g>
<g >
</g>
<g >
</g>
<g >
</g>
<g >
</g>
<g >
</g>
<g >
</g>
<g >
</g>
<g >
</g>
<g >
</g>
</g> 
</svg>
