<?xml version="1.0" standalone="no"?>
 <!DOCTYPE svg PUBLIC "-//W3C//DTD SVG 1.1//EN" 
 "http://www.w3.org/Graphics/SVG/1.1/DTD/svg11.dtd"> 
<svg
  xmlns:svg="http://www.w3.org/2000/svg"
  xmlns="http://www.w3.org/2000/svg"
  xmlns:xlink="http://www.w3.org/1999/xlink"
  version="1.1"
  width="29.700220cm" height="21.000720cm" viewBox="0 0 297002200 210007200">
<title>SVG Picture created as kicadBoard-F_Silkscreen.svg date 2022/11/07 00:49:56 </title>
  <desc>Picture generated by PCBNEW </desc>
<g style="fill:#000000; fill-opacity:1.000000;stroke:#000000; stroke-opacity:1.000000;
stroke-linecap:round; stroke-linejoin:round;"
 transform="translate(0 0) scale(1 1)">
</g>
<g style="fill:#000000; fill-opacity:0.0; 
stroke:#000000; stroke-width:0.000000; stroke-opacity:1; 
stroke-linecap:round; stroke-linejoin:round;">
</g>
<g style="fill:#000000; fill-opacity:0.0; 
stroke:#000000; stroke-width:21200.000000; stroke-opacity:1; 
stroke-linecap:round; stroke-linejoin:round;">
</g>
<g style="fill:#000000; fill-opacity:0.0; 
stroke:#000000; stroke-width:150000.000000; stroke-opacity:1; 
stroke-linecap:round; stroke-linejoin:round;">
<rect x="177002200.000000" y="166007200.000000" width="108000000.000000" height="32000000.000000" rx="0.000000" />
</g>
<g style="fill:#000000; fill-opacity:0.0; 
stroke:#000000; stroke-width:21200.000000; stroke-opacity:1; 
stroke-linecap:round; stroke-linejoin:round;">
</g>
<g style="fill:#000000; fill-opacity:0.0; 
stroke:#000000; stroke-width:150000.000000; stroke-opacity:1; 
stroke-linecap:round; stroke-linejoin:round;">
<rect x="10000000.000000" y="10000000.000000" width="277002200.000000" height="190007200.000000" rx="0.000000" />
</g>
<g style="fill:#000000; fill-opacity:0.0; 
stroke:#000000; stroke-width:21200.000000; stroke-opacity:1; 
stroke-linecap:round; stroke-linejoin:round;">
</g>
<g style="fill:#000000; fill-opacity:0.0; 
stroke:#000000; stroke-width:150000.000000; stroke-opacity:1; 
stroke-linecap:round; stroke-linejoin:round;">
<rect x="12000000.000000" y="12000000.000000" width="273002200.000000" height="186007200.000000" rx="0.000000" />
</g>
<g style="fill:#000000; fill-opacity:0.0; 
stroke:#000000; stroke-width:21200.000000; stroke-opacity:1; 
stroke-linecap:round; stroke-linejoin:round;">
</g>
<g style="fill:#000000; fill-opacity:0.0; 
stroke:#000000; stroke-width:150000.000000; stroke-opacity:1; 
stroke-linecap:round; stroke-linejoin:round;">
<path d="M60000000 12000000
L60000000 10000000
" />
</g>
<g style="fill:#000000; fill-opacity:0.0; 
stroke:#000000; stroke-width:21200.000000; stroke-opacity:1; 
stroke-linecap:round; stroke-linejoin:round;">
</g>
<g style="fill:#000000; fill-opacity:0.0; 
stroke:#000000; stroke-width:150000.000000; stroke-opacity:1; 
stroke-linecap:round; stroke-linejoin:round;">
<path d="M110000000 12000000
L110000000 10000000
" />
</g>
<g style="fill:#000000; fill-opacity:0.0; 
stroke:#000000; stroke-width:21200.000000; stroke-opacity:1; 
stroke-linecap:round; stroke-linejoin:round;">
</g>
<g style="fill:#000000; fill-opacity:0.0; 
stroke:#000000; stroke-width:150000.000000; stroke-opacity:1; 
stroke-linecap:round; stroke-linejoin:round;">
<path d="M160000000 12000000
L160000000 10000000
" />
</g>
<g style="fill:#000000; fill-opacity:0.0; 
stroke:#000000; stroke-width:21200.000000; stroke-opacity:1; 
stroke-linecap:round; stroke-linejoin:round;">
</g>
<g style="fill:#000000; fill-opacity:0.0; 
stroke:#000000; stroke-width:150000.000000; stroke-opacity:1; 
stroke-linecap:round; stroke-linejoin:round;">
<path d="M210000000 12000000
L210000000 10000000
" />
</g>
<g style="fill:#000000; fill-opacity:0.0; 
stroke:#000000; stroke-width:21200.000000; stroke-opacity:1; 
stroke-linecap:round; stroke-linejoin:round;">
</g>
<g style="fill:#000000; fill-opacity:0.0; 
stroke:#000000; stroke-width:150000.000000; stroke-opacity:1; 
stroke-linecap:round; stroke-linejoin:round;">
<path d="M260000000 12000000
L260000000 10000000
" />
</g>
<g style="fill:#000000; fill-opacity:0.0; 
stroke:#000000; stroke-width:21200.000000; stroke-opacity:1; 
stroke-linecap:round; stroke-linejoin:round;">
</g>
<g style="fill:#000000; fill-opacity:0.0; 
stroke:#000000; stroke-width:150000.000000; stroke-opacity:1; 
stroke-linecap:round; stroke-linejoin:round;">
<text x="35000000.000000" y="11650000.000000"
textLength="1485745.000000" font-size="1733333.000000" lengthAdjust="spacingAndGlyphs"
text-anchor="start" opacity="0">1</text>
<g class="stroked-text"><desc>1</desc>
<path d="M36065476 11588095
L35322619 11588095
" />
<path d="M35694047 11588095
L35694047 10288095
L35570238 10473809
L35446428 10597619
L35322619 10659523
" />
</g></g>
<g style="fill:#000000; fill-opacity:0.0; 
stroke:#000000; stroke-width:21200.000000; stroke-opacity:1; 
stroke-linecap:round; stroke-linejoin:round;">
</g>
<g style="fill:#000000; fill-opacity:0.0; 
stroke:#000000; stroke-width:150000.000000; stroke-opacity:1; 
stroke-linecap:round; stroke-linejoin:round;">
<text x="85000000.000000" y="11650000.000000"
textLength="1388095.000000" font-size="1733333.000000" lengthAdjust="spacingAndGlyphs"
text-anchor="start" opacity="0">2</text>
<g class="stroked-text"><desc>2</desc>
<path d="M85322619 10411904
L85384523 10350000
L85508333 10288095
L85817857 10288095
L85941666 10350000
L86003571 10411904
L86065476 10535714
L86065476 10659523
L86003571 10845238
L85260714 11588095
L86065476 11588095
" />
</g></g>
<g style="fill:#000000; fill-opacity:0.0; 
stroke:#000000; stroke-width:21200.000000; stroke-opacity:1; 
stroke-linecap:round; stroke-linejoin:round;">
</g>
<g style="fill:#000000; fill-opacity:0.0; 
stroke:#000000; stroke-width:150000.000000; stroke-opacity:1; 
stroke-linecap:round; stroke-linejoin:round;">
<text x="135000000.000000" y="11650000.000000"
textLength="1388095.000000" font-size="1733333.000000" lengthAdjust="spacingAndGlyphs"
text-anchor="start" opacity="0">3</text>
<g class="stroked-text"><desc>3</desc>
<path d="M135260714 10288095
L136065476 10288095
L135632142 10783333
L135817857 10783333
L135941666 10845238
L136003571 10907142
L136065476 11030952
L136065476 11340476
L136003571 11464285
L135941666 11526190
L135817857 11588095
L135446428 11588095
L135322619 11526190
L135260714 11464285
" />
</g></g>
<g style="fill:#000000; fill-opacity:0.0; 
stroke:#000000; stroke-width:21200.000000; stroke-opacity:1; 
stroke-linecap:round; stroke-linejoin:round;">
</g>
<g style="fill:#000000; fill-opacity:0.0; 
stroke:#000000; stroke-width:150000.000000; stroke-opacity:1; 
stroke-linecap:round; stroke-linejoin:round;">
<text x="185000000.000000" y="11650000.000000"
textLength="1388095.000000" font-size="1733333.000000" lengthAdjust="spacingAndGlyphs"
text-anchor="start" opacity="0">4</text>
<g class="stroked-text"><desc>4</desc>
<path d="M185941666 10721428
L185941666 11588095
" />
<path d="M185632142 10226190
L185322619 11154761
L186127380 11154761
" />
</g></g>
<g style="fill:#000000; fill-opacity:0.0; 
stroke:#000000; stroke-width:21200.000000; stroke-opacity:1; 
stroke-linecap:round; stroke-linejoin:round;">
</g>
<g style="fill:#000000; fill-opacity:0.0; 
stroke:#000000; stroke-width:150000.000000; stroke-opacity:1; 
stroke-linecap:round; stroke-linejoin:round;">
<text x="235000000.000000" y="11650000.000000"
textLength="1388095.000000" font-size="1733333.000000" lengthAdjust="spacingAndGlyphs"
text-anchor="start" opacity="0">5</text>
<g class="stroked-text"><desc>5</desc>
<path d="M236003571 10288095
L235384523 10288095
L235322619 10907142
L235384523 10845238
L235508333 10783333
L235817857 10783333
L235941666 10845238
L236003571 10907142
L236065476 11030952
L236065476 11340476
L236003571 11464285
L235941666 11526190
L235817857 11588095
L235508333 11588095
L235384523 11526190
L235322619 11464285
" />
</g></g>
<g style="fill:#000000; fill-opacity:0.0; 
stroke:#000000; stroke-width:21200.000000; stroke-opacity:1; 
stroke-linecap:round; stroke-linejoin:round;">
</g>
<g style="fill:#000000; fill-opacity:0.0; 
stroke:#000000; stroke-width:150000.000000; stroke-opacity:1; 
stroke-linecap:round; stroke-linejoin:round;">
<text x="285000000.000000" y="11650000.000000"
textLength="1388095.000000" font-size="1733333.000000" lengthAdjust="spacingAndGlyphs"
text-anchor="start" opacity="0">6</text>
<g class="stroked-text"><desc>6</desc>
<path d="M285941666 10288095
L285694047 10288095
L285570238 10350000
L285508333 10411904
L285384523 10597619
L285322619 10845238
L285322619 11340476
L285384523 11464285
L285446428 11526190
L285570238 11588095
L285817857 11588095
L285941666 11526190
L286003571 11464285
L286065476 11340476
L286065476 11030952
L286003571 10907142
L285941666 10845238
L285817857 10783333
L285570238 10783333
L285446428 10845238
L285384523 10907142
L285322619 11030952
" />
</g></g>
<g style="fill:#000000; fill-opacity:0.0; 
stroke:#000000; stroke-width:21200.000000; stroke-opacity:1; 
stroke-linecap:round; stroke-linejoin:round;">
</g>
<g style="fill:#000000; fill-opacity:0.0; 
stroke:#000000; stroke-width:150000.000000; stroke-opacity:1; 
stroke-linecap:round; stroke-linejoin:round;">
<path d="M60000000 198007200
L60000000 200007200
" />
</g>
<g style="fill:#000000; fill-opacity:0.0; 
stroke:#000000; stroke-width:21200.000000; stroke-opacity:1; 
stroke-linecap:round; stroke-linejoin:round;">
</g>
<g style="fill:#000000; fill-opacity:0.0; 
stroke:#000000; stroke-width:150000.000000; stroke-opacity:1; 
stroke-linecap:round; stroke-linejoin:round;">
<path d="M110000000 198007200
L110000000 200007200
" />
</g>
<g style="fill:#000000; fill-opacity:0.0; 
stroke:#000000; stroke-width:21200.000000; stroke-opacity:1; 
stroke-linecap:round; stroke-linejoin:round;">
</g>
<g style="fill:#000000; fill-opacity:0.0; 
stroke:#000000; stroke-width:150000.000000; stroke-opacity:1; 
stroke-linecap:round; stroke-linejoin:round;">
<path d="M160000000 198007200
L160000000 200007200
" />
</g>
<g style="fill:#000000; fill-opacity:0.0; 
stroke:#000000; stroke-width:21200.000000; stroke-opacity:1; 
stroke-linecap:round; stroke-linejoin:round;">
</g>
<g style="fill:#000000; fill-opacity:0.0; 
stroke:#000000; stroke-width:150000.000000; stroke-opacity:1; 
stroke-linecap:round; stroke-linejoin:round;">
<path d="M210000000 198007200
L210000000 200007200
" />
</g>
<g style="fill:#000000; fill-opacity:0.0; 
stroke:#000000; stroke-width:21200.000000; stroke-opacity:1; 
stroke-linecap:round; stroke-linejoin:round;">
</g>
<g style="fill:#000000; fill-opacity:0.0; 
stroke:#000000; stroke-width:150000.000000; stroke-opacity:1; 
stroke-linecap:round; stroke-linejoin:round;">
<path d="M260000000 198007200
L260000000 200007200
" />
</g>
<g style="fill:#000000; fill-opacity:0.0; 
stroke:#000000; stroke-width:21200.000000; stroke-opacity:1; 
stroke-linecap:round; stroke-linejoin:round;">
</g>
<g style="fill:#000000; fill-opacity:0.0; 
stroke:#000000; stroke-width:150000.000000; stroke-opacity:1; 
stroke-linecap:round; stroke-linejoin:round;">
<text x="35000000.000000" y="199657200.000000"
textLength="1388095.000000" font-size="1733333.000000" lengthAdjust="spacingAndGlyphs"
text-anchor="start" opacity="0">1</text>
<g class="stroked-text"><desc>1</desc>
<path d="M36065476 199595295
L35322619 199595295
" />
<path d="M35694047 199595295
L35694047 198295295
L35570238 198481009
L35446428 198604819
L35322619 198666723
" />
</g></g>
<g style="fill:#000000; fill-opacity:0.0; 
stroke:#000000; stroke-width:21200.000000; stroke-opacity:1; 
stroke-linecap:round; stroke-linejoin:round;">
</g>
<g style="fill:#000000; fill-opacity:0.0; 
stroke:#000000; stroke-width:150000.000000; stroke-opacity:1; 
stroke-linecap:round; stroke-linejoin:round;">
<text x="85000000.000000" y="199657200.000000"
textLength="1388095.000000" font-size="1733333.000000" lengthAdjust="spacingAndGlyphs"
text-anchor="start" opacity="0">2</text>
<g class="stroked-text"><desc>2</desc>
<path d="M85322619 198419104
L85384523 198357200
L85508333 198295295
L85817857 198295295
L85941666 198357200
L86003571 198419104
L86065476 198542914
L86065476 198666723
L86003571 198852438
L85260714 199595295
L86065476 199595295
" />
</g></g>
<g style="fill:#000000; fill-opacity:0.0; 
stroke:#000000; stroke-width:21200.000000; stroke-opacity:1; 
stroke-linecap:round; stroke-linejoin:round;">
</g>
<g style="fill:#000000; fill-opacity:0.0; 
stroke:#000000; stroke-width:150000.000000; stroke-opacity:1; 
stroke-linecap:round; stroke-linejoin:round;">
<text x="135000000.000000" y="199657200.000000"
textLength="1388095.000000" font-size="1733333.000000" lengthAdjust="spacingAndGlyphs"
text-anchor="start" opacity="0">3</text>
<g class="stroked-text"><desc>3</desc>
<path d="M135260714 198295295
L136065476 198295295
L135632142 198790533
L135817857 198790533
L135941666 198852438
L136003571 198914342
L136065476 199038152
L136065476 199347676
L136003571 199471485
L135941666 199533390
L135817857 199595295
L135446428 199595295
L135322619 199533390
L135260714 199471485
" />
</g></g>
<g style="fill:#000000; fill-opacity:0.0; 
stroke:#000000; stroke-width:21200.000000; stroke-opacity:1; 
stroke-linecap:round; stroke-linejoin:round;">
</g>
<g style="fill:#000000; fill-opacity:0.0; 
stroke:#000000; stroke-width:150000.000000; stroke-opacity:1; 
stroke-linecap:round; stroke-linejoin:round;">
<text x="185000000.000000" y="199657200.000000"
textLength="1388095.000000" font-size="1733333.000000" lengthAdjust="spacingAndGlyphs"
text-anchor="start" opacity="0">4</text>
<g class="stroked-text"><desc>4</desc>
<path d="M185941666 198728628
L185941666 199595295
" />
<path d="M185632142 198233390
L185322619 199161961
L186127380 199161961
" />
</g></g>
<g style="fill:#000000; fill-opacity:0.0; 
stroke:#000000; stroke-width:21200.000000; stroke-opacity:1; 
stroke-linecap:round; stroke-linejoin:round;">
</g>
<g style="fill:#000000; fill-opacity:0.0; 
stroke:#000000; stroke-width:150000.000000; stroke-opacity:1; 
stroke-linecap:round; stroke-linejoin:round;">
<text x="235000000.000000" y="199657200.000000"
textLength="1388095.000000" font-size="1733333.000000" lengthAdjust="spacingAndGlyphs"
text-anchor="start" opacity="0">5</text>
<g class="stroked-text"><desc>5</desc>
<path d="M236003571 198295295
L235384523 198295295
L235322619 198914342
L235384523 198852438
L235508333 198790533
L235817857 198790533
L235941666 198852438
L236003571 198914342
L236065476 199038152
L236065476 199347676
L236003571 199471485
L235941666 199533390
L235817857 199595295
L235508333 199595295
L235384523 199533390
L235322619 199471485
" />
</g></g>
<g style="fill:#000000; fill-opacity:0.0; 
stroke:#000000; stroke-width:21200.000000; stroke-opacity:1; 
stroke-linecap:round; stroke-linejoin:round;">
</g>
<g style="fill:#000000; fill-opacity:0.0; 
stroke:#000000; stroke-width:150000.000000; stroke-opacity:1; 
stroke-linecap:round; stroke-linejoin:round;">
<text x="285000000.000000" y="199657200.000000"
textLength="1388095.000000" font-size="1733333.000000" lengthAdjust="spacingAndGlyphs"
text-anchor="start" opacity="0">6</text>
<g class="stroked-text"><desc>6</desc>
<path d="M285941666 198295295
L285694047 198295295
L285570238 198357200
L285508333 198419104
L285384523 198604819
L285322619 198852438
L285322619 199347676
L285384523 199471485
L285446428 199533390
L285570238 199595295
L285817857 199595295
L285941666 199533390
L286003571 199471485
L286065476 199347676
L286065476 199038152
L286003571 198914342
L285941666 198852438
L285817857 198790533
L285570238 198790533
L285446428 198852438
L285384523 198914342
L285322619 199038152
" />
</g></g>
<g style="fill:#000000; fill-opacity:0.0; 
stroke:#000000; stroke-width:21200.000000; stroke-opacity:1; 
stroke-linecap:round; stroke-linejoin:round;">
</g>
<g style="fill:#000000; fill-opacity:0.0; 
stroke:#000000; stroke-width:150000.000000; stroke-opacity:1; 
stroke-linecap:round; stroke-linejoin:round;">
<path d="M10000000 60000000
L12000000 60000000
" />
</g>
<g style="fill:#000000; fill-opacity:0.0; 
stroke:#000000; stroke-width:21200.000000; stroke-opacity:1; 
stroke-linecap:round; stroke-linejoin:round;">
</g>
<g style="fill:#000000; fill-opacity:0.0; 
stroke:#000000; stroke-width:150000.000000; stroke-opacity:1; 
stroke-linecap:round; stroke-linejoin:round;">
<path d="M10000000 110000000
L12000000 110000000
" />
</g>
<g style="fill:#000000; fill-opacity:0.0; 
stroke:#000000; stroke-width:21200.000000; stroke-opacity:1; 
stroke-linecap:round; stroke-linejoin:round;">
</g>
<g style="fill:#000000; fill-opacity:0.0; 
stroke:#000000; stroke-width:150000.000000; stroke-opacity:1; 
stroke-linecap:round; stroke-linejoin:round;">
<path d="M10000000 160000000
L12000000 160000000
" />
</g>
<g style="fill:#000000; fill-opacity:0.0; 
stroke:#000000; stroke-width:21200.000000; stroke-opacity:1; 
stroke-linecap:round; stroke-linejoin:round;">
</g>
<g style="fill:#000000; fill-opacity:0.0; 
stroke:#000000; stroke-width:150000.000000; stroke-opacity:1; 
stroke-linecap:round; stroke-linejoin:round;">
<text x="11000000.000000" y="35650000.000000"
textLength="1264286.000000" font-size="1733333.000000" lengthAdjust="spacingAndGlyphs"
text-anchor="middle" opacity="0">A</text>
<g class="stroked-text"><desc>A</desc>
<path d="M10690476 35216666
L11309523 35216666
" />
<path d="M10566666 35588095
L11000000 34288095
L11433333 35588095
" />
</g></g>
<g style="fill:#000000; fill-opacity:0.0; 
stroke:#000000; stroke-width:21200.000000; stroke-opacity:1; 
stroke-linecap:round; stroke-linejoin:round;">
</g>
<g style="fill:#000000; fill-opacity:0.0; 
stroke:#000000; stroke-width:150000.000000; stroke-opacity:1; 
stroke-linecap:round; stroke-linejoin:round;">
<text x="11000000.000000" y="85650000.000000"
textLength="1450000.000000" font-size="1733333.000000" lengthAdjust="spacingAndGlyphs"
text-anchor="middle" opacity="0">B</text>
<g class="stroked-text"><desc>B</desc>
<path d="M11092857 84907142
L11278571 84969047
L11340476 85030952
L11402380 85154761
L11402380 85340476
L11340476 85464285
L11278571 85526190
L11154761 85588095
L10659523 85588095
L10659523 84288095
L11092857 84288095
L11216666 84350000
L11278571 84411904
L11340476 84535714
L11340476 84659523
L11278571 84783333
L11216666 84845238
L11092857 84907142
L10659523 84907142
" />
</g></g>
<g style="fill:#000000; fill-opacity:0.0; 
stroke:#000000; stroke-width:21200.000000; stroke-opacity:1; 
stroke-linecap:round; stroke-linejoin:round;">
</g>
<g style="fill:#000000; fill-opacity:0.0; 
stroke:#000000; stroke-width:150000.000000; stroke-opacity:1; 
stroke-linecap:round; stroke-linejoin:round;">
<text x="11000000.000000" y="135650000.000000"
textLength="1450000.000000" font-size="1733333.000000" lengthAdjust="spacingAndGlyphs"
text-anchor="middle" opacity="0">C</text>
<g class="stroked-text"><desc>C</desc>
<path d="M11402380 135464285
L11340476 135526190
L11154761 135588095
L11030952 135588095
L10845238 135526190
L10721428 135402380
L10659523 135278571
L10597619 135030952
L10597619 134845238
L10659523 134597619
L10721428 134473809
L10845238 134350000
L11030952 134288095
L11154761 134288095
L11340476 134350000
L11402380 134411904
" />
</g></g>
<g style="fill:#000000; fill-opacity:0.0; 
stroke:#000000; stroke-width:21200.000000; stroke-opacity:1; 
stroke-linecap:round; stroke-linejoin:round;">
</g>
<g style="fill:#000000; fill-opacity:0.0; 
stroke:#000000; stroke-width:150000.000000; stroke-opacity:1; 
stroke-linecap:round; stroke-linejoin:round;">
<text x="11000000.000000" y="185650000.000000"
textLength="1450000.000000" font-size="1733333.000000" lengthAdjust="spacingAndGlyphs"
text-anchor="middle" opacity="0">D</text>
<g class="stroked-text"><desc>D</desc>
<path d="M10659523 185588095
L10659523 184288095
L10969047 184288095
L11154761 184350000
L11278571 184473809
L11340476 184597619
L11402380 184845238
L11402380 185030952
L11340476 185278571
L11278571 185402380
L11154761 185526190
L10969047 185588095
L10659523 185588095
" />
</g></g>
<g style="fill:#000000; fill-opacity:0.0; 
stroke:#000000; stroke-width:21200.000000; stroke-opacity:1; 
stroke-linecap:round; stroke-linejoin:round;">
</g>
<g style="fill:#000000; fill-opacity:0.0; 
stroke:#000000; stroke-width:150000.000000; stroke-opacity:1; 
stroke-linecap:round; stroke-linejoin:round;">
<path d="M287002200 60000000
L285002200 60000000
" />
</g>
<g style="fill:#000000; fill-opacity:0.0; 
stroke:#000000; stroke-width:21200.000000; stroke-opacity:1; 
stroke-linecap:round; stroke-linejoin:round;">
</g>
<g style="fill:#000000; fill-opacity:0.0; 
stroke:#000000; stroke-width:150000.000000; stroke-opacity:1; 
stroke-linecap:round; stroke-linejoin:round;">
<path d="M287002200 110000000
L285002200 110000000
" />
</g>
<g style="fill:#000000; fill-opacity:0.0; 
stroke:#000000; stroke-width:21200.000000; stroke-opacity:1; 
stroke-linecap:round; stroke-linejoin:round;">
</g>
<g style="fill:#000000; fill-opacity:0.0; 
stroke:#000000; stroke-width:150000.000000; stroke-opacity:1; 
stroke-linecap:round; stroke-linejoin:round;">
<path d="M287002200 160000000
L285002200 160000000
" />
</g>
<g style="fill:#000000; fill-opacity:0.0; 
stroke:#000000; stroke-width:21200.000000; stroke-opacity:1; 
stroke-linecap:round; stroke-linejoin:round;">
</g>
<g style="fill:#000000; fill-opacity:0.0; 
stroke:#000000; stroke-width:150000.000000; stroke-opacity:1; 
stroke-linecap:round; stroke-linejoin:round;">
<text x="286002200.000000" y="35650000.000000"
textLength="1264286.000000" font-size="1733333.000000" lengthAdjust="spacingAndGlyphs"
text-anchor="middle" opacity="0">A</text>
<g class="stroked-text"><desc>A</desc>
<path d="M285692676 35216666
L286311723 35216666
" />
<path d="M285568866 35588095
L286002200 34288095
L286435533 35588095
" />
</g></g>
<g style="fill:#000000; fill-opacity:0.0; 
stroke:#000000; stroke-width:21200.000000; stroke-opacity:1; 
stroke-linecap:round; stroke-linejoin:round;">
</g>
<g style="fill:#000000; fill-opacity:0.0; 
stroke:#000000; stroke-width:150000.000000; stroke-opacity:1; 
stroke-linecap:round; stroke-linejoin:round;">
<text x="286002200.000000" y="85650000.000000"
textLength="1450000.000000" font-size="1733333.000000" lengthAdjust="spacingAndGlyphs"
text-anchor="middle" opacity="0">B</text>
<g class="stroked-text"><desc>B</desc>
<path d="M286095057 84907142
L286280771 84969047
L286342676 85030952
L286404580 85154761
L286404580 85340476
L286342676 85464285
L286280771 85526190
L286156961 85588095
L285661723 85588095
L285661723 84288095
L286095057 84288095
L286218866 84350000
L286280771 84411904
L286342676 84535714
L286342676 84659523
L286280771 84783333
L286218866 84845238
L286095057 84907142
L285661723 84907142
" />
</g></g>
<g style="fill:#000000; fill-opacity:0.0; 
stroke:#000000; stroke-width:21200.000000; stroke-opacity:1; 
stroke-linecap:round; stroke-linejoin:round;">
</g>
<g style="fill:#000000; fill-opacity:0.0; 
stroke:#000000; stroke-width:150000.000000; stroke-opacity:1; 
stroke-linecap:round; stroke-linejoin:round;">
<text x="286002200.000000" y="135650000.000000"
textLength="1450000.000000" font-size="1733333.000000" lengthAdjust="spacingAndGlyphs"
text-anchor="middle" opacity="0">C</text>
<g class="stroked-text"><desc>C</desc>
<path d="M286404580 135464285
L286342676 135526190
L286156961 135588095
L286033152 135588095
L285847438 135526190
L285723628 135402380
L285661723 135278571
L285599819 135030952
L285599819 134845238
L285661723 134597619
L285723628 134473809
L285847438 134350000
L286033152 134288095
L286156961 134288095
L286342676 134350000
L286404580 134411904
" />
</g></g>
<g style="fill:#000000; fill-opacity:0.0; 
stroke:#000000; stroke-width:21200.000000; stroke-opacity:1; 
stroke-linecap:round; stroke-linejoin:round;">
</g>
<g style="fill:#000000; fill-opacity:0.0; 
stroke:#000000; stroke-width:150000.000000; stroke-opacity:1; 
stroke-linecap:round; stroke-linejoin:round;">
<text x="286002200.000000" y="185650000.000000"
textLength="1450000.000000" font-size="1733333.000000" lengthAdjust="spacingAndGlyphs"
text-anchor="middle" opacity="0">D</text>
<g class="stroked-text"><desc>D</desc>
<path d="M285661723 185588095
L285661723 184288095
L285971247 184288095
L286156961 184350000
L286280771 184473809
L286342676 184597619
L286404580 184845238
L286404580 185030952
L286342676 185278571
L286280771 185402380
L286156961 185526190
L285971247 185588095
L285661723 185588095
" />
</g></g>
<g style="fill:#000000; fill-opacity:0.0; 
stroke:#000000; stroke-width:21200.000000; stroke-opacity:1; 
stroke-linecap:round; stroke-linejoin:round;">
</g>
<g style="fill:#000000; fill-opacity:0.0; 
stroke:#000000; stroke-width:150000.000000; stroke-opacity:1; 
stroke-linecap:round; stroke-linejoin:round;">
<text x="200002200.000000" y="193857200.000000"
textLength="7007143.000000" font-size="2000000.000000" lengthAdjust="spacingAndGlyphs"
text-anchor="start" opacity="0">Date: </text>
<g class="stroked-text"><desc>Date: </desc>
<path d="M200434342 193785771
L200434342 192285771
L200791485 192285771
L201005771 192357200
L201148628 192500057
L201220057 192642914
L201291485 192928628
L201291485 193142914
L201220057 193428628
L201148628 193571485
L201005771 193714342
L200791485 193785771
L200434342 193785771
" />
<path d="M202577200 193785771
L202577200 193000057
L202505771 192857200
L202362914 192785771
L202077200 192785771
L201934342 192857200
" />
<path d="M202577200 193714342
L202434342 193785771
L202077200 193785771
L201934342 193714342
L201862914 193571485
L201862914 193428628
L201934342 193285771
L202077200 193214342
L202434342 193214342
L202577200 193142914
" />
<path d="M203077200 192785771
L203648628 192785771
" />
<path d="M203291485 192285771
L203291485 193571485
L203362914 193714342
L203505771 193785771
L203648628 193785771
" />
<path d="M204720057 193714342
L204577200 193785771
L204291485 193785771
L204148628 193714342
L204077200 193571485
L204077200 193000057
L204148628 192857200
L204291485 192785771
L204577200 192785771
L204720057 192857200
L204791485 193000057
L204791485 193142914
L204077200 193285771
" />
<path d="M205434342 193642914
L205505771 193714342
L205434342 193785771
L205362914 193714342
L205434342 193642914
L205434342 193785771
" />
<path d="M205434342 192857200
L205505771 192928628
L205434342 193000057
L205362914 192928628
L205434342 192857200
L205434342 193000057
" />
</g></g>
<g style="fill:#000000; fill-opacity:0.0; 
stroke:#000000; stroke-width:21200.000000; stroke-opacity:1; 
stroke-linecap:round; stroke-linejoin:round;">
</g>
<g style="fill:#000000; fill-opacity:0.0; 
stroke:#000000; stroke-width:150000.000000; stroke-opacity:1; 
stroke-linecap:round; stroke-linejoin:round;">
<path d="M177002200 194507200
L285002200 194507200
" />
</g>
<g style="fill:#000000; fill-opacity:0.0; 
stroke:#000000; stroke-width:21200.000000; stroke-opacity:1; 
stroke-linecap:round; stroke-linejoin:round;">
</g>
<g style="fill:#000000; fill-opacity:0.0; 
stroke:#000000; stroke-width:150000.000000; stroke-opacity:1; 
stroke-linecap:round; stroke-linejoin:round;">
<text x="178002200.000000" y="196657200.000000"
textLength="33364286.000000" font-size="2000000.000000" lengthAdjust="spacingAndGlyphs"
text-anchor="start" opacity="0">KiCad E.D.A.  pcbnew (6.0.9)</text>
<g class="stroked-text"><desc>KiCad E.D.A.  pcbnew (6.0.9)</desc>
<path d="M178434342 196585771
L178434342 195085771
" />
<path d="M179291485 196585771
L178648628 195728628
" />
<path d="M179291485 195085771
L178434342 195942914
" />
<path d="M179934342 196585771
L179934342 195585771
" />
<path d="M179934342 195085771
L179862914 195157200
L179934342 195228628
L180005771 195157200
L179934342 195085771
L179934342 195228628
" />
<path d="M181505771 196442914
L181434342 196514342
L181220057 196585771
L181077200 196585771
L180862914 196514342
L180720057 196371485
L180648628 196228628
L180577200 195942914
L180577200 195728628
L180648628 195442914
L180720057 195300057
L180862914 195157200
L181077200 195085771
L181220057 195085771
L181434342 195157200
L181505771 195228628
" />
<path d="M182791485 196585771
L182791485 195800057
L182720057 195657200
L182577200 195585771
L182291485 195585771
L182148628 195657200
" />
<path d="M182791485 196514342
L182648628 196585771
L182291485 196585771
L182148628 196514342
L182077200 196371485
L182077200 196228628
L182148628 196085771
L182291485 196014342
L182648628 196014342
L182791485 195942914
" />
<path d="M184148628 196585771
L184148628 195085771
" />
<path d="M184148628 196514342
L184005771 196585771
L183720057 196585771
L183577200 196514342
L183505771 196442914
L183434342 196300057
L183434342 195871485
L183505771 195728628
L183577200 195657200
L183720057 195585771
L184005771 195585771
L184148628 195657200
" />
<path d="M186005771 195800057
L186505771 195800057
" />
<path d="M186720057 196585771
L186005771 196585771
L186005771 195085771
L186720057 195085771
" />
<path d="M187362914 196442914
L187434342 196514342
L187362914 196585771
L187291485 196514342
L187362914 196442914
L187362914 196585771
" />
<path d="M188077200 196585771
L188077200 195085771
L188434342 195085771
L188648628 195157200
L188791485 195300057
L188862914 195442914
L188934342 195728628
L188934342 195942914
L188862914 196228628
L188791485 196371485
L188648628 196514342
L188434342 196585771
L188077200 196585771
" />
<path d="M189577200 196442914
L189648628 196514342
L189577200 196585771
L189505771 196514342
L189577200 196442914
L189577200 196585771
" />
<path d="M190220057 196157200
L190934342 196157200
" />
<path d="M190077200 196585771
L190577200 195085771
L191077200 196585771
" />
<path d="M191577200 196442914
L191648628 196514342
L191577200 196585771
L191505771 196514342
L191577200 196442914
L191577200 196585771
" />
<path d="M194577200 195585771
L194577200 197085771
" />
<path d="M194577200 195657200
L194720057 195585771
L195005771 195585771
L195148628 195657200
L195220057 195728628
L195291485 195871485
L195291485 196300057
L195220057 196442914
L195148628 196514342
L195005771 196585771
L194720057 196585771
L194577200 196514342
" />
<path d="M196577200 196514342
L196434342 196585771
L196148628 196585771
L196005771 196514342
L195934342 196442914
L195862914 196300057
L195862914 195871485
L195934342 195728628
L196005771 195657200
L196148628 195585771
L196434342 195585771
L196577200 195657200
" />
<path d="M197220057 196585771
L197220057 195085771
" />
<path d="M197220057 195657200
L197362914 195585771
L197648628 195585771
L197791485 195657200
L197862914 195728628
L197934342 195871485
L197934342 196300057
L197862914 196442914
L197791485 196514342
L197648628 196585771
L197362914 196585771
L197220057 196514342
" />
<path d="M198577200 195585771
L198577200 196585771
" />
<path d="M198577200 195728628
L198648628 195657200
L198791485 195585771
L199005771 195585771
L199148628 195657200
L199220057 195800057
L199220057 196585771
" />
<path d="M200505771 196514342
L200362914 196585771
L200077200 196585771
L199934342 196514342
L199862914 196371485
L199862914 195800057
L199934342 195657200
L200077200 195585771
L200362914 195585771
L200505771 195657200
L200577200 195800057
L200577200 195942914
L199862914 196085771
" />
<path d="M201077200 195585771
L201362914 196585771
L201648628 195871485
L201934342 196585771
L202220057 195585771
" />
<path d="M204362914 197157200
L204291485 197085771
L204148628 196871485
L204077200 196728628
L204005771 196514342
L203934342 196157200
L203934342 195871485
L204005771 195514342
L204077200 195300057
L204148628 195157200
L204291485 194942914
L204362914 194871485
" />
<path d="M205577200 195085771
L205291485 195085771
L205148628 195157200
L205077200 195228628
L204934342 195442914
L204862914 195728628
L204862914 196300057
L204934342 196442914
L205005771 196514342
L205148628 196585771
L205434342 196585771
L205577200 196514342
L205648628 196442914
L205720057 196300057
L205720057 195942914
L205648628 195800057
L205577200 195728628
L205434342 195657200
L205148628 195657200
L205005771 195728628
L204934342 195800057
L204862914 195942914
" />
<path d="M206362914 196442914
L206434342 196514342
L206362914 196585771
L206291485 196514342
L206362914 196442914
L206362914 196585771
" />
<path d="M207362914 195085771
L207505771 195085771
L207648628 195157200
L207720057 195228628
L207791485 195371485
L207862914 195657200
L207862914 196014342
L207791485 196300057
L207720057 196442914
L207648628 196514342
L207505771 196585771
L207362914 196585771
L207220057 196514342
L207148628 196442914
L207077200 196300057
L207005771 196014342
L207005771 195657200
L207077200 195371485
L207148628 195228628
L207220057 195157200
L207362914 195085771
" />
<path d="M208505771 196442914
L208577200 196514342
L208505771 196585771
L208434342 196514342
L208505771 196442914
L208505771 196585771
" />
<path d="M209291485 196585771
L209577200 196585771
L209720057 196514342
L209791485 196442914
L209934342 196228628
L210005771 195942914
L210005771 195371485
L209934342 195228628
L209862914 195157200
L209720057 195085771
L209434342 195085771
L209291485 195157200
L209220057 195228628
L209148628 195371485
L209148628 195728628
L209220057 195871485
L209291485 195942914
L209434342 196014342
L209720057 196014342
L209862914 195942914
L209934342 195871485
L210005771 195728628
" />
<path d="M210505771 197157200
L210577200 197085771
L210720057 196871485
L210791485 196728628
L210862914 196514342
L210934342 196157200
L210934342 195871485
L210862914 195514342
L210791485 195300057
L210720057 195157200
L210577200 194942914
L210505771 194871485
" />
</g></g>
<g style="fill:#000000; fill-opacity:0.0; 
stroke:#000000; stroke-width:21200.000000; stroke-opacity:1; 
stroke-linecap:round; stroke-linejoin:round;">
</g>
<g style="fill:#000000; fill-opacity:0.0; 
stroke:#000000; stroke-width:150000.000000; stroke-opacity:1; 
stroke-linecap:round; stroke-linejoin:round;">
<path d="M177002200 191507200
L285002200 191507200
" />
</g>
<g style="fill:#000000; fill-opacity:0.0; 
stroke:#000000; stroke-width:21200.000000; stroke-opacity:1; 
stroke-linecap:round; stroke-linejoin:round;">
</g>
<g style="fill:#000000; fill-opacity:0.0; 
stroke:#000000; stroke-width:300000.000000; stroke-opacity:1; 
stroke-linecap:round; stroke-linejoin:round;">
<text x="263002200.000000" y="193857200.000000"
textLength="5935714.000000" font-size="2000000.000000" lengthAdjust="spacingAndGlyphs"
text-anchor="start" opacity="0">Rev: </text>
<g class="stroked-text"><desc>Rev: </desc>
<path d="M264411485 193785771
L263911485 193071485
" />
<path d="M263554342 193785771
L263554342 192285771
L264125771 192285771
L264268628 192357200
L264340057 192428628
L264411485 192571485
L264411485 192785771
L264340057 192928628
L264268628 193000057
L264125771 193071485
L263554342 193071485
" />
<path d="M265625771 193714342
L265482914 193785771
L265197200 193785771
L265054342 193714342
L264982914 193571485
L264982914 193000057
L265054342 192857200
L265197200 192785771
L265482914 192785771
L265625771 192857200
L265697200 193000057
L265697200 193142914
L264982914 193285771
" />
<path d="M266197200 192785771
L266554342 193785771
L266911485 192785771
" />
<path d="M267482914 193642914
L267554342 193714342
L267482914 193785771
L267411485 193714342
L267482914 193642914
L267482914 193785771
" />
<path d="M267482914 192857200
L267554342 192928628
L267482914 193000057
L267411485 192928628
L267482914 192857200
L267482914 193000057
" />
</g></g>
<g style="fill:#000000; fill-opacity:0.0; 
stroke:#000000; stroke-width:21200.000000; stroke-opacity:1; 
stroke-linecap:round; stroke-linejoin:round;">
</g>
<g style="fill:#000000; fill-opacity:0.0; 
stroke:#000000; stroke-width:150000.000000; stroke-opacity:1; 
stroke-linecap:round; stroke-linejoin:round;">
<text x="178002200.000000" y="193857200.000000"
textLength="9604286.000000" font-size="2000000.000000" lengthAdjust="spacingAndGlyphs"
text-anchor="start" opacity="0">Size: A4</text>
<g class="stroked-text"><desc>Size: A4</desc>
<path d="M178362914 193714342
L178577200 193785771
L178934342 193785771
L179077200 193714342
L179148628 193642914
L179220057 193500057
L179220057 193357200
L179148628 193214342
L179077200 193142914
L178934342 193071485
L178648628 193000057
L178505771 192928628
L178434342 192857200
L178362914 192714342
L178362914 192571485
L178434342 192428628
L178505771 192357200
L178648628 192285771
L179005771 192285771
L179220057 192357200
" />
<path d="M179862914 193785771
L179862914 192785771
" />
<path d="M179862914 192285771
L179791485 192357200
L179862914 192428628
L179934342 192357200
L179862914 192285771
L179862914 192428628
" />
<path d="M180434342 192785771
L181220057 192785771
L180434342 193785771
L181220057 193785771
" />
<path d="M182362914 193714342
L182220057 193785771
L181934342 193785771
L181791485 193714342
L181720057 193571485
L181720057 193000057
L181791485 192857200
L181934342 192785771
L182220057 192785771
L182362914 192857200
L182434342 193000057
L182434342 193142914
L181720057 193285771
" />
<path d="M183077200 193642914
L183148628 193714342
L183077200 193785771
L183005771 193714342
L183077200 193642914
L183077200 193785771
" />
<path d="M183077200 192857200
L183148628 192928628
L183077200 193000057
L183005771 192928628
L183077200 192857200
L183077200 193000057
" />
<path d="M184862914 193357200
L185577200 193357200
" />
<path d="M184720057 193785771
L185220057 192285771
L185720057 193785771
" />
<path d="M186862914 192785771
L186862914 193785771
" />
<path d="M186505771 192214342
L186148628 193285771
L187077200 193285771
" />
</g></g>
<g style="fill:#000000; fill-opacity:0.0; 
stroke:#000000; stroke-width:21200.000000; stroke-opacity:1; 
stroke-linecap:round; stroke-linejoin:round;">
</g>
<g style="fill:#000000; fill-opacity:0.0; 
stroke:#000000; stroke-width:150000.000000; stroke-opacity:1; 
stroke-linecap:round; stroke-linejoin:round;">
<text x="263002200.000000" y="196657200.000000"
textLength="8507143.000000" font-size="2000000.000000" lengthAdjust="spacingAndGlyphs"
text-anchor="start" opacity="0">Id: 1/1</text>
<g class="stroked-text"><desc>Id: 1/1</desc>
<path d="M263434342 196585771
L263434342 195085771
" />
<path d="M264791485 196585771
L264791485 195085771
" />
<path d="M264791485 196514342
L264648628 196585771
L264362914 196585771
L264220057 196514342
L264148628 196442914
L264077200 196300057
L264077200 195871485
L264148628 195728628
L264220057 195657200
L264362914 195585771
L264648628 195585771
L264791485 195657200
" />
<path d="M265505771 196442914
L265577200 196514342
L265505771 196585771
L265434342 196514342
L265505771 196442914
L265505771 196585771
" />
<path d="M265505771 195657200
L265577200 195728628
L265505771 195800057
L265434342 195728628
L265505771 195657200
L265505771 195800057
" />
<path d="M268148628 196585771
L267291485 196585771
" />
<path d="M267720057 196585771
L267720057 195085771
L267577200 195300057
L267434342 195442914
L267291485 195514342
" />
<path d="M269862914 195014342
L268577200 196942914
" />
<path d="M271148628 196585771
L270291485 196585771
" />
<path d="M270720057 196585771
L270720057 195085771
L270577200 195300057
L270434342 195442914
L270291485 195514342
" />
</g></g>
<g style="fill:#000000; fill-opacity:0.0; 
stroke:#000000; stroke-width:21200.000000; stroke-opacity:1; 
stroke-linecap:round; stroke-linejoin:round;">
</g>
<g style="fill:#000000; fill-opacity:0.0; 
stroke:#000000; stroke-width:150000.000000; stroke-opacity:1; 
stroke-linecap:round; stroke-linejoin:round;">
<path d="M177002200 187507200
L285002200 187507200
" />
</g>
<g style="fill:#000000; fill-opacity:0.0; 
stroke:#000000; stroke-width:21200.000000; stroke-opacity:1; 
stroke-linecap:round; stroke-linejoin:round;">
</g>
<g style="fill:#000000; fill-opacity:0.0; 
stroke:#000000; stroke-width:400000.000000; stroke-opacity:1; 
stroke-linecap:round; stroke-linejoin:round;">
<text x="178002200.000000" y="190307200.000000"
textLength="9409643.000000" font-size="2666666.000000" lengthAdjust="spacingAndGlyphs"
text-anchor="start" opacity="0">Title: </text>
<g class="stroked-text"><desc>Title: </desc>
<path d="M178714580 188211961
L179857438 188211961
" />
<path d="M179036009 190211961
L179286009 188211961
" />
<path d="M180274104 190211961
L180440771 188878628
" />
<path d="M180524104 188211961
L180416961 188307200
L180500295 188402438
L180607438 188307200
L180524104 188211961
L180500295 188402438
" />
<path d="M181107438 188878628
L181869342 188878628
" />
<path d="M181476485 188211961
L181262200 189926247
L181333628 190116723
L181512200 190211961
L181702676 190211961
" />
<path d="M182655057 190211961
L182476485 190116723
L182405057 189926247
L182619342 188211961
" />
<path d="M184190771 190116723
L183988390 190211961
L183607438 190211961
L183428866 190116723
L183357438 189926247
L183452676 189164342
L183571723 188973866
L183774104 188878628
L184155057 188878628
L184333628 188973866
L184405057 189164342
L184381247 189354819
L183405057 189545295
" />
<path d="M185155057 190021485
L185238390 190116723
L185131247 190211961
L185047914 190116723
L185155057 190021485
L185131247 190211961
" />
<path d="M185286009 188973866
L185369342 189069104
L185262200 189164342
L185178866 189069104
L185286009 188973866
L185262200 189164342
" />
</g></g>
<g style="fill:#000000; fill-opacity:0.0; 
stroke:#000000; stroke-width:21200.000000; stroke-opacity:1; 
stroke-linecap:round; stroke-linejoin:round;">
</g>
<g style="fill:#000000; fill-opacity:0.0; 
stroke:#000000; stroke-width:150000.000000; stroke-opacity:1; 
stroke-linecap:round; stroke-linejoin:round;">
<text x="178002200.000000" y="186457200.000000"
textLength="30662857.000000" font-size="2000000.000000" lengthAdjust="spacingAndGlyphs"
text-anchor="start" opacity="0">File: kicadBoard.kicad_pcb</text>
<g class="stroked-text"><desc>File: kicadBoard.kicad_pcb</desc>
<path d="M178934342 185600057
L178434342 185600057
" />
<path d="M178434342 186385771
L178434342 184885771
L179148628 184885771
" />
<path d="M179720057 186385771
L179720057 185385771
" />
<path d="M179720057 184885771
L179648628 184957200
L179720057 185028628
L179791485 184957200
L179720057 184885771
L179720057 185028628
" />
<path d="M180648628 186385771
L180505771 186314342
L180434342 186171485
L180434342 184885771
" />
<path d="M181791485 186314342
L181648628 186385771
L181362914 186385771
L181220057 186314342
L181148628 186171485
L181148628 185600057
L181220057 185457200
L181362914 185385771
L181648628 185385771
L181791485 185457200
L181862914 185600057
L181862914 185742914
L181148628 185885771
" />
<path d="M182505771 186242914
L182577200 186314342
L182505771 186385771
L182434342 186314342
L182505771 186242914
L182505771 186385771
" />
<path d="M182505771 185457200
L182577200 185528628
L182505771 185600057
L182434342 185528628
L182505771 185457200
L182505771 185600057
" />
<path d="M184362914 186385771
L184362914 184885771
" />
<path d="M184505771 185814342
L184934342 186385771
" />
<path d="M184934342 185385771
L184362914 185957200
" />
<path d="M185577200 186385771
L185577200 185385771
" />
<path d="M185577200 184885771
L185505771 184957200
L185577200 185028628
L185648628 184957200
L185577200 184885771
L185577200 185028628
" />
<path d="M186934342 186314342
L186791485 186385771
L186505771 186385771
L186362914 186314342
L186291485 186242914
L186220057 186100057
L186220057 185671485
L186291485 185528628
L186362914 185457200
L186505771 185385771
L186791485 185385771
L186934342 185457200
" />
<path d="M188220057 186385771
L188220057 185600057
L188148628 185457200
L188005771 185385771
L187720057 185385771
L187577200 185457200
" />
<path d="M188220057 186314342
L188077200 186385771
L187720057 186385771
L187577200 186314342
L187505771 186171485
L187505771 186028628
L187577200 185885771
L187720057 185814342
L188077200 185814342
L188220057 185742914
" />
<path d="M189577200 186385771
L189577200 184885771
" />
<path d="M189577200 186314342
L189434342 186385771
L189148628 186385771
L189005771 186314342
L188934342 186242914
L188862914 186100057
L188862914 185671485
L188934342 185528628
L189005771 185457200
L189148628 185385771
L189434342 185385771
L189577200 185457200
" />
<path d="M190791485 185600057
L191005771 185671485
L191077200 185742914
L191148628 185885771
L191148628 186100057
L191077200 186242914
L191005771 186314342
L190862914 186385771
L190291485 186385771
L190291485 184885771
L190791485 184885771
L190934342 184957200
L191005771 185028628
L191077200 185171485
L191077200 185314342
L191005771 185457200
L190934342 185528628
L190791485 185600057
L190291485 185600057
" />
<path d="M192005771 186385771
L191862914 186314342
L191791485 186242914
L191720057 186100057
L191720057 185671485
L191791485 185528628
L191862914 185457200
L192005771 185385771
L192220057 185385771
L192362914 185457200
L192434342 185528628
L192505771 185671485
L192505771 186100057
L192434342 186242914
L192362914 186314342
L192220057 186385771
L192005771 186385771
" />
<path d="M193791485 186385771
L193791485 185600057
L193720057 185457200
L193577200 185385771
L193291485 185385771
L193148628 185457200
" />
<path d="M193791485 186314342
L193648628 186385771
L193291485 186385771
L193148628 186314342
L193077200 186171485
L193077200 186028628
L193148628 185885771
L193291485 185814342
L193648628 185814342
L193791485 185742914
" />
<path d="M194505771 186385771
L194505771 185385771
" />
<path d="M194505771 185671485
L194577200 185528628
L194648628 185457200
L194791485 185385771
L194934342 185385771
" />
<path d="M196077200 186385771
L196077200 184885771
" />
<path d="M196077200 186314342
L195934342 186385771
L195648628 186385771
L195505771 186314342
L195434342 186242914
L195362914 186100057
L195362914 185671485
L195434342 185528628
L195505771 185457200
L195648628 185385771
L195934342 185385771
L196077200 185457200
" />
<path d="M196791485 186242914
L196862914 186314342
L196791485 186385771
L196720057 186314342
L196791485 186242914
L196791485 186385771
" />
<path d="M197505771 186385771
L197505771 184885771
" />
<path d="M197648628 185814342
L198077200 186385771
" />
<path d="M198077200 185385771
L197505771 185957200
" />
<path d="M198720057 186385771
L198720057 185385771
" />
<path d="M198720057 184885771
L198648628 184957200
L198720057 185028628
L198791485 184957200
L198720057 184885771
L198720057 185028628
" />
<path d="M200077200 186314342
L199934342 186385771
L199648628 186385771
L199505771 186314342
L199434342 186242914
L199362914 186100057
L199362914 185671485
L199434342 185528628
L199505771 185457200
L199648628 185385771
L199934342 185385771
L200077200 185457200
" />
<path d="M201362914 186385771
L201362914 185600057
L201291485 185457200
L201148628 185385771
L200862914 185385771
L200720057 185457200
" />
<path d="M201362914 186314342
L201220057 186385771
L200862914 186385771
L200720057 186314342
L200648628 186171485
L200648628 186028628
L200720057 185885771
L200862914 185814342
L201220057 185814342
L201362914 185742914
" />
<path d="M202720057 186385771
L202720057 184885771
" />
<path d="M202720057 186314342
L202577200 186385771
L202291485 186385771
L202148628 186314342
L202077200 186242914
L202005771 186100057
L202005771 185671485
L202077200 185528628
L202148628 185457200
L202291485 185385771
L202577200 185385771
L202720057 185457200
" />
<path d="M203077200 186528628
L204220057 186528628
" />
<path d="M204577200 185385771
L204577200 186885771
" />
<path d="M204577200 185457200
L204720057 185385771
L205005771 185385771
L205148628 185457200
L205220057 185528628
L205291485 185671485
L205291485 186100057
L205220057 186242914
L205148628 186314342
L205005771 186385771
L204720057 186385771
L204577200 186314342
" />
<path d="M206577200 186314342
L206434342 186385771
L206148628 186385771
L206005771 186314342
L205934342 186242914
L205862914 186100057
L205862914 185671485
L205934342 185528628
L206005771 185457200
L206148628 185385771
L206434342 185385771
L206577200 185457200
" />
<path d="M207220057 186385771
L207220057 184885771
" />
<path d="M207220057 185457200
L207362914 185385771
L207648628 185385771
L207791485 185457200
L207862914 185528628
L207934342 185671485
L207934342 186100057
L207862914 186242914
L207791485 186314342
L207648628 186385771
L207362914 186385771
L207220057 186314342
" />
</g></g>
<g style="fill:#000000; fill-opacity:0.0; 
stroke:#000000; stroke-width:21200.000000; stroke-opacity:1; 
stroke-linecap:round; stroke-linejoin:round;">
</g>
<g style="fill:#000000; fill-opacity:0.0; 
stroke:#000000; stroke-width:150000.000000; stroke-opacity:1; 
stroke-linecap:round; stroke-linejoin:round;">
<path d="M177002200 181507200
L285002200 181507200
" />
</g>
<g style="fill:#000000; fill-opacity:0.0; 
stroke:#000000; stroke-width:21200.000000; stroke-opacity:1; 
stroke-linecap:round; stroke-linejoin:round;">
</g>
<g style="fill:#000000; fill-opacity:0.0; 
stroke:#000000; stroke-width:150000.000000; stroke-opacity:1; 
stroke-linecap:round; stroke-linejoin:round;">
<text x="178002200.000000" y="183757200.000000"
textLength="8221429.000000" font-size="2000000.000000" lengthAdjust="spacingAndGlyphs"
text-anchor="start" opacity="0">Sheet: </text>
<g class="stroked-text"><desc>Sheet: </desc>
<path d="M178362914 183614342
L178577200 183685771
L178934342 183685771
L179077200 183614342
L179148628 183542914
L179220057 183400057
L179220057 183257200
L179148628 183114342
L179077200 183042914
L178934342 182971485
L178648628 182900057
L178505771 182828628
L178434342 182757200
L178362914 182614342
L178362914 182471485
L178434342 182328628
L178505771 182257200
L178648628 182185771
L179005771 182185771
L179220057 182257200
" />
<path d="M179862914 183685771
L179862914 182185771
" />
<path d="M180505771 183685771
L180505771 182900057
L180434342 182757200
L180291485 182685771
L180077200 182685771
L179934342 182757200
L179862914 182828628
" />
<path d="M181791485 183614342
L181648628 183685771
L181362914 183685771
L181220057 183614342
L181148628 183471485
L181148628 182900057
L181220057 182757200
L181362914 182685771
L181648628 182685771
L181791485 182757200
L181862914 182900057
L181862914 183042914
L181148628 183185771
" />
<path d="M183077200 183614342
L182934342 183685771
L182648628 183685771
L182505771 183614342
L182434342 183471485
L182434342 182900057
L182505771 182757200
L182648628 182685771
L182934342 182685771
L183077200 182757200
L183148628 182900057
L183148628 183042914
L182434342 183185771
" />
<path d="M183577200 182685771
L184148628 182685771
" />
<path d="M183791485 182185771
L183791485 183471485
L183862914 183614342
L184005771 183685771
L184148628 183685771
" />
<path d="M184648628 183542914
L184720057 183614342
L184648628 183685771
L184577200 183614342
L184648628 183542914
L184648628 183685771
" />
<path d="M184648628 182757200
L184720057 182828628
L184648628 182900057
L184577200 182828628
L184648628 182757200
L184648628 182900057
" />
</g></g>
<g style="fill:#000000; fill-opacity:0.0; 
stroke:#000000; stroke-width:21200.000000; stroke-opacity:1; 
stroke-linecap:round; stroke-linejoin:round;">
</g>
<g style="fill:#000000; fill-opacity:0.0; 
stroke:#000000; stroke-width:300000.000000; stroke-opacity:1; 
stroke-linecap:round; stroke-linejoin:round;">
<text x="178002200.000000" y="180757200.000000"
textLength="150000.000000" font-size="2000000.000000" lengthAdjust="spacingAndGlyphs"
text-anchor="start" opacity="0"></text>
<g class="stroked-text"><desc></desc>
</g></g>
<g style="fill:#000000; fill-opacity:0.0; 
stroke:#000000; stroke-width:21200.000000; stroke-opacity:1; 
stroke-linecap:round; stroke-linejoin:round;">
</g>
<g style="fill:#000000; fill-opacity:0.0; 
stroke:#000000; stroke-width:150000.000000; stroke-opacity:1; 
stroke-linecap:round; stroke-linejoin:round;">
<text x="178002200.000000" y="177757200.000000"
textLength="300000.000000" font-size="2000000.000000" lengthAdjust="spacingAndGlyphs"
text-anchor="start" opacity="0"></text>
<g class="stroked-text"><desc></desc>
</g></g>
<g style="fill:#000000; fill-opacity:0.0; 
stroke:#000000; stroke-width:21200.000000; stroke-opacity:1; 
stroke-linecap:round; stroke-linejoin:round;">
</g>
<g style="fill:#000000; fill-opacity:0.0; 
stroke:#000000; stroke-width:150000.000000; stroke-opacity:1; 
stroke-linecap:round; stroke-linejoin:round;">
<text x="178002200.000000" y="174757200.000000"
textLength="150000.000000" font-size="2000000.000000" lengthAdjust="spacingAndGlyphs"
text-anchor="start" opacity="0"></text>
<g class="stroked-text"><desc></desc>
</g></g>
<g style="fill:#000000; fill-opacity:0.0; 
stroke:#000000; stroke-width:21200.000000; stroke-opacity:1; 
stroke-linecap:round; stroke-linejoin:round;">
</g>
<g style="fill:#000000; fill-opacity:0.0; 
stroke:#000000; stroke-width:150000.000000; stroke-opacity:1; 
stroke-linecap:round; stroke-linejoin:round;">
<text x="178002200.000000" y="171757200.000000"
textLength="150000.000000" font-size="2000000.000000" lengthAdjust="spacingAndGlyphs"
text-anchor="start" opacity="0"></text>
<g class="stroked-text"><desc></desc>
</g></g>
<g style="fill:#000000; fill-opacity:0.0; 
stroke:#000000; stroke-width:21200.000000; stroke-opacity:1; 
stroke-linecap:round; stroke-linejoin:round;">
</g>
<g style="fill:#000000; fill-opacity:0.0; 
stroke:#000000; stroke-width:150000.000000; stroke-opacity:1; 
stroke-linecap:round; stroke-linejoin:round;">
<text x="178002200.000000" y="168757200.000000"
textLength="150000.000000" font-size="2000000.000000" lengthAdjust="spacingAndGlyphs"
text-anchor="start" opacity="0"></text>
<g class="stroked-text"><desc></desc>
</g></g>
<g style="fill:#000000; fill-opacity:0.0; 
stroke:#000000; stroke-width:21200.000000; stroke-opacity:1; 
stroke-linecap:round; stroke-linejoin:round;">
</g>
<g style="fill:#000000; fill-opacity:0.0; 
stroke:#000000; stroke-width:150000.000000; stroke-opacity:1; 
stroke-linecap:round; stroke-linejoin:round;">
<path d="M197002200 191507200
L197002200 194507200
" />
</g>
<g style="fill:#000000; fill-opacity:0.0; 
stroke:#000000; stroke-width:21200.000000; stroke-opacity:1; 
stroke-linecap:round; stroke-linejoin:round;">
</g>
<g style="fill:#000000; fill-opacity:0.0; 
stroke:#000000; stroke-width:150000.000000; stroke-opacity:1; 
stroke-linecap:round; stroke-linejoin:round;">
<path d="M261002200 191507200
L261002200 198007200
" />
</g>
<g style="fill:#F2EDA1; fill-opacity:0.0; 
stroke:#F2EDA1; stroke-width:150000.000000; stroke-opacity:1; 
stroke-linecap:round; stroke-linejoin:round;">
</g>
<g style="fill:#F2EDA1; fill-opacity:0.0; 
stroke:#F2EDA1; stroke-width:266700.000000; stroke-opacity:1; 
stroke-linecap:round; stroke-linejoin:round;">
<text x="142786100.000000" y="107162600.000000"
textLength="2021133.000000" font-size="2015066.000000" lengthAdjust="spacingAndGlyphs"
text-anchor="start" opacity="0">-</text>
<g class="stroked-text"><desc>-</desc>
<path d="M143319288 106514900
L144470755 106514900
" />
</g></g>
<g style="fill:#F2EDA1; fill-opacity:0.0; 
stroke:#F2EDA1; stroke-width:190500.000000; stroke-opacity:1; 
stroke-linecap:round; stroke-linejoin:round;">
<text x="155105100.000000" y="104495600.000000"
textLength="2351496.000000" font-size="1439333.000000" lengthAdjust="spacingAndGlyphs"
text-anchor="start" opacity="0">UL</text>
<g class="stroked-text"><desc>UL</desc>
<path d="M155485948 103364695
L155485948 104238576
L155537353 104341385
L155588758 104392790
L155691567 104444195
L155897186 104444195
L155999996 104392790
L156051401 104341385
L156102805 104238576
L156102805 103364695
" />
<path d="M157130901 104444195
L156616853 104444195
L156616853 103364695
" />
</g></g>
<g style="fill:#F2EDA1; fill-opacity:0.0; 
stroke:#F2EDA1; stroke-width:266700.000000; stroke-opacity:1; 
stroke-linecap:round; stroke-linejoin:round;">
<text x="142786100.000000" y="112242600.000000"
textLength="1758950.000000" font-size="2015066.000000" lengthAdjust="spacingAndGlyphs"
text-anchor="start" opacity="0">C</text>
<g class="stroked-text"><desc>C</desc>
<path d="M144182888 112026700
L144110921 112098666
L143895021 112170633
L143751088 112170633
L143535188 112098666
L143391255 111954733
L143319288 111810800
L143247321 111522933
L143247321 111307033
L143319288 111019166
L143391255 110875233
L143535188 110731300
L143751088 110659333
L143895021 110659333
L144110921 110731300
L144182888 110803266
" />
</g></g>
<g style="fill:#F2EDA1; fill-opacity:0.0; 
stroke:#F2EDA1; stroke-width:171450.000000; stroke-opacity:1; 
stroke-linecap:round; stroke-linejoin:round;">
<g transform="rotate(-90.000000 158407100.000000 108813600.000000)">
<text x="158407100.000000" y="109785150.000000"
textLength="3770267.000000" font-size="1295400.000000" lengthAdjust="spacingAndGlyphs"
text-anchor="middle" opacity="0">Load</text>
</g>
<g class="stroked-text"><desc>Load</desc>
<path d="M159332385 109831414
L159332385 110294057
L158360835 110294057
" />
<path d="M159332385 109368771
L159286121 109461300
L159239857 109507564
L159147328 109553828
L158869742 109553828
L158777214 109507564
L158730950 109461300
L158684685 109368771
L158684685 109229978
L158730950 109137450
L158777214 109091185
L158869742 109044921
L159147328 109044921
L159239857 109091185
L159286121 109137450
L159332385 109229978
L159332385 109368771
" />
<path d="M159332385 108212164
L158823478 108212164
L158730950 108258428
L158684685 108350957
L158684685 108536014
L158730950 108628542
" />
<path d="M159286121 108212164
L159332385 108304692
L159332385 108536014
L159286121 108628542
L159193592 108674807
L159101064 108674807
L159008535 108628542
L158962271 108536014
L158962271 108304692
L158916007 108212164
" />
<path d="M159332385 107333142
L158360835 107333142
" />
<path d="M159286121 107333142
L159332385 107425671
L159332385 107610728
L159286121 107703257
L159239857 107749521
L159147328 107795785
L158869742 107795785
L158777214 107749521
L158730950 107703257
L158684685 107610728
L158684685 107425671
L158730950 107333142
" />
</g></g>
<g style="fill:#F2EDA1; fill-opacity:0.0; 
stroke:#F2EDA1; stroke-width:228600.000000; stroke-opacity:1; 
stroke-linecap:round; stroke-linejoin:round;">
<g transform="rotate(-90.000000 137579100.000000 114782600.000000)">
<text x="137579100.000000" y="114782600.000000"
textLength="16816342.000000" font-size="1727200.000000" lengthAdjust="spacingAndGlyphs"
text-anchor="start" opacity="0">Load Combinator</text>
</g>
<g class="stroked-text"><desc>Load Combinator</desc>
<path d="M137517414 113708724
L137517414 114325581
L136222014 114325581
" />
<path d="M137517414 113091867
L137455728 113215238
L137394042 113276924
L137270671 113338610
L136900557 113338610
L136777185 113276924
L136715500 113215238
L136653814 113091867
L136653814 112906810
L136715500 112783438
L136777185 112721752
L136900557 112660067
L137270671 112660067
L137394042 112721752
L137455728 112783438
L137517414 112906810
L137517414 113091867
" />
<path d="M137517414 111549724
L136838871 111549724
L136715500 111611410
L136653814 111734781
L136653814 111981524
L136715500 112104895
" />
<path d="M137455728 111549724
L137517414 111673095
L137517414 111981524
L137455728 112104895
L137332357 112166581
L137208985 112166581
L137085614 112104895
L137023928 111981524
L137023928 111673095
L136962242 111549724
" />
<path d="M137517414 110377695
L136222014 110377695
" />
<path d="M137455728 110377695
L137517414 110501067
L137517414 110747810
L137455728 110871181
L137394042 110932867
L137270671 110994552
L136900557 110994552
L136777185 110932867
L136715500 110871181
L136653814 110747810
L136653814 110501067
L136715500 110377695
" />
<path d="M137394042 108033638
L137455728 108095324
L137517414 108280381
L137517414 108403752
L137455728 108588810
L137332357 108712181
L137208985 108773867
L136962242 108835552
L136777185 108835552
L136530442 108773867
L136407071 108712181
L136283700 108588810
L136222014 108403752
L136222014 108280381
L136283700 108095324
L136345385 108033638
" />
<path d="M137517414 107293410
L137455728 107416781
L137394042 107478467
L137270671 107540152
L136900557 107540152
L136777185 107478467
L136715500 107416781
L136653814 107293410
L136653814 107108352
L136715500 106984981
L136777185 106923295
L136900557 106861610
L137270671 106861610
L137394042 106923295
L137455728 106984981
L137517414 107108352
L137517414 107293410
" />
<path d="M137517414 106306438
L136653814 106306438
" />
<path d="M136777185 106306438
L136715500 106244752
L136653814 106121381
L136653814 105936324
L136715500 105812952
L136838871 105751267
L137517414 105751267
" />
<path d="M136838871 105751267
L136715500 105689581
L136653814 105566210
L136653814 105381152
L136715500 105257781
L136838871 105196095
L137517414 105196095
" />
<path d="M137517414 104579238
L136222014 104579238
" />
<path d="M136715500 104579238
L136653814 104455867
L136653814 104209124
L136715500 104085752
L136777185 104024067
L136900557 103962381
L137270671 103962381
L137394042 104024067
L137455728 104085752
L137517414 104209124
L137517414 104455867
L137455728 104579238
" />
<path d="M137517414 103407210
L136653814 103407210
" />
<path d="M136222014 103407210
L136283700 103468895
L136345385 103407210
L136283700 103345524
L136222014 103407210
L136345385 103407210
" />
<path d="M136653814 102790352
L137517414 102790352
" />
<path d="M136777185 102790352
L136715500 102728667
L136653814 102605295
L136653814 102420238
L136715500 102296867
L136838871 102235181
L137517414 102235181
" />
<path d="M137517414 101063152
L136838871 101063152
L136715500 101124838
L136653814 101248210
L136653814 101494952
L136715500 101618324
" />
<path d="M137455728 101063152
L137517414 101186524
L137517414 101494952
L137455728 101618324
L137332357 101680010
L137208985 101680010
L137085614 101618324
L137023928 101494952
L137023928 101186524
L136962242 101063152
" />
<path d="M136653814 100631352
L136653814 100137867
" />
<path d="M136222014 100446295
L137332357 100446295
L137455728 100384610
L137517414 100261238
L137517414 100137867
" />
<path d="M137517414 99521010
L137455728 99644381
L137394042 99706067
L137270671 99767752
L136900557 99767752
L136777185 99706067
L136715500 99644381
L136653814 99521010
L136653814 99335952
L136715500 99212581
L136777185 99150895
L136900557 99089210
L137270671 99089210
L137394042 99150895
L137455728 99212581
L137517414 99335952
L137517414 99521010
" />
<path d="M137517414 98534038
L136653814 98534038
" />
<path d="M136900557 98534038
L136777185 98472352
L136715500 98410667
L136653814 98287295
L136653814 98163924
" />
</g></g>
<g style="fill:#F2EDA1; fill-opacity:0.0; 
stroke:#F2EDA1; stroke-width:190500.000000; stroke-opacity:1; 
stroke-linecap:round; stroke-linejoin:round;">
<g transform="rotate(-90.000000 142786100.000000 113766600.000000)">
<text x="142786100.000000" y="114846100.000000"
textLength="3330061.000000" font-size="1439333.000000" lengthAdjust="spacingAndGlyphs"
text-anchor="end" opacity="0">YLW</text>
</g>
<g class="stroked-text"><desc>YLW</desc>
<path d="M143300147 116460663
L143814195 116460663
" />
<path d="M142734695 116820496
L143300147 116460663
L142734695 116100829
" />
<path d="M143814195 115226948
L143814195 115740996
L142734695 115740996
" />
<path d="M142734695 114969925
L143814195 114712901
L143043123 114507282
L143814195 114301663
L142734695 114044639
" />
</g></g>
<g style="fill:#F2EDA1; fill-opacity:0.0; 
stroke:#F2EDA1; stroke-width:266700.000000; stroke-opacity:1; 
stroke-linecap:round; stroke-linejoin:round;">
<text x="147866100.000000" y="109702600.000000"
textLength="2118783.000000" font-size="2015066.000000" lengthAdjust="spacingAndGlyphs"
text-anchor="start" opacity="0">+</text>
<g class="stroked-text"><desc>+</desc>
<path d="M148399288 109054900
L149550755 109054900
" />
<path d="M148975021 109630633
L148975021 108479166
" />
</g></g>
<g style="fill:#F2EDA1; fill-opacity:0.0; 
stroke:#F2EDA1; stroke-width:190500.000000; stroke-opacity:1; 
stroke-linecap:round; stroke-linejoin:round;">
<text x="150025100.000000" y="104495600.000000"
textLength="2557115.000000" font-size="1439333.000000" lengthAdjust="spacingAndGlyphs"
text-anchor="start" opacity="0">UR</text>
<g class="stroked-text"><desc>UR</desc>
<path d="M150405948 103364695
L150405948 104238576
L150457353 104341385
L150508758 104392790
L150611567 104444195
L150817186 104444195
L150919996 104392790
L150971401 104341385
L151022805 104238576
L151022805 103364695
" />
<path d="M152153710 104444195
L151793877 103930147
" />
<path d="M151536853 104444195
L151536853 103364695
L151948091 103364695
L152050901 103416100
L152102305 103467504
L152153710 103570314
L152153710 103724528
L152102305 103827338
L152050901 103878742
L151948091 103930147
L151536853 103930147
" />
</g></g>
<g style="fill:#F2EDA1; fill-opacity:0.0; 
stroke:#F2EDA1; stroke-width:266700.000000; stroke-opacity:1; 
stroke-linecap:round; stroke-linejoin:round;">
<text x="152946100.000000" y="109702600.000000"
textLength="2118783.000000" font-size="2015066.000000" lengthAdjust="spacingAndGlyphs"
text-anchor="start" opacity="0">+</text>
<g class="stroked-text"><desc>+</desc>
<path d="M153479288 109054900
L154630755 109054900
" />
<path d="M154055021 109630633
L154055021 108479166
" />
</g><text x="152946100.000000" y="112242600.000000"
textLength="1858010.000000" font-size="2015066.000000" lengthAdjust="spacingAndGlyphs"
text-anchor="start" opacity="0">C</text>
<g class="stroked-text"><desc>C</desc>
<path d="M154342888 112026700
L154270921 112098666
L154055021 112170633
L153911088 112170633
L153695188 112098666
L153551255 111954733
L153479288 111810800
L153407321 111522933
L153407321 111307033
L153479288 111019166
L153551255 110875233
L153695188 110731300
L153911088 110659333
L154055021 110659333
L154270921 110731300
L154342888 110803266
" />
</g><text x="147866100.000000" y="112242600.000000"
textLength="1858010.000000" font-size="2015066.000000" lengthAdjust="spacingAndGlyphs"
text-anchor="start" opacity="0">C</text>
<g class="stroked-text"><desc>C</desc>
<path d="M149262888 112026700
L149190921 112098666
L148975021 112170633
L148831088 112170633
L148615188 112098666
L148471255 111954733
L148399288 111810800
L148327321 111522933
L148327321 111307033
L148399288 111019166
L148471255 110875233
L148615188 110731300
L148831088 110659333
L148975021 110659333
L149190921 110731300
L149262888 110803266
" />
</g></g>
<g style="fill:#F2EDA1; fill-opacity:0.0; 
stroke:#F2EDA1; stroke-width:190500.000000; stroke-opacity:1; 
stroke-linecap:round; stroke-linejoin:round;">
<g transform="rotate(-90.000000 150406100.000000 113766600.000000)">
<text x="150406100.000000" y="114846100.000000"
textLength="3379591.000000" font-size="1439333.000000" lengthAdjust="spacingAndGlyphs"
text-anchor="end" opacity="0">BLK</text>
</g>
<g class="stroked-text"><desc>BLK</desc>
<path d="M150868742 116306448
L150920147 116152234
L150971552 116100829
L151074361 116049425
L151228576 116049425
L151331385 116100829
L151382790 116152234
L151434195 116255044
L151434195 116666282
L150354695 116666282
L150354695 116306448
L150406100 116203639
L150457504 116152234
L150560314 116100829
L150663123 116100829
L150765933 116152234
L150817338 116203639
L150868742 116306448
L150868742 116666282
" />
<path d="M151434195 115072734
L151434195 115586782
L150354695 115586782
" />
<path d="M151434195 114712901
L150354695 114712901
" />
<path d="M151434195 114096044
L150817338 114558686
" />
<path d="M150354695 114096044
L150971552 114712901
" />
</g><text x="144945100.000000" y="104495600.000000"
textLength="1995412.000000" font-size="1439333.000000" lengthAdjust="spacingAndGlyphs"
text-anchor="start" opacity="0">LL</text>
<g class="stroked-text"><desc>LL</desc>
<path d="M145839996 104444195
L145325948 104444195
L145325948 103364695
" />
<path d="M146713877 104444195
L146199829 104444195
L146199829 103364695
" />
</g></g>
<g style="fill:#F2EDA1; fill-opacity:0.0; 
stroke:#F2EDA1; stroke-width:266700.000000; stroke-opacity:1; 
stroke-linecap:round; stroke-linejoin:round;">
<text x="145453100.000000" y="95732600.000000"
textLength="5789083.000000" font-size="2015066.000000" lengthAdjust="spacingAndGlyphs"
text-anchor="start" opacity="0">RJ45</text>
<g class="stroked-text"><desc>RJ45</desc>
<path d="M146849888 95660633
L146346121 94940966
" />
<path d="M145986288 95660633
L145986288 94149333
L146562021 94149333
L146705955 94221300
L146777921 94293266
L146849888 94437200
L146849888 94653100
L146777921 94797033
L146705955 94869000
L146562021 94940966
L145986288 94940966
" />
<path d="M147929388 94149333
L147929388 95228833
L147857421 95444733
L147713488 95588666
L147497588 95660633
L147353655 95660633
" />
<path d="M149296755 94653100
L149296755 95660633
" />
<path d="M148936921 94077366
L148577088 95156866
L149512655 95156866
" />
<path d="M150808055 94149333
L150088388 94149333
L150016421 94869000
L150088388 94797033
L150232321 94725066
L150592155 94725066
L150736088 94797033
L150808055 94869000
L150880021 95012933
L150880021 95372766
L150808055 95516700
L150736088 95588666
L150592155 95660633
L150232321 95660633
L150088388 95588666
L150016421 95516700
" />
</g></g>
<g style="fill:#F2EDA1; fill-opacity:0.0; 
stroke:#F2EDA1; stroke-width:190500.000000; stroke-opacity:1; 
stroke-linecap:round; stroke-linejoin:round;">
<g transform="rotate(-90.000000 147866100.000000 113766600.000000)">
<text x="147866100.000000" y="114846100.000000"
textLength="3533805.000000" font-size="1439333.000000" lengthAdjust="spacingAndGlyphs"
text-anchor="end" opacity="0">WHT</text>
</g>
<g class="stroked-text"><desc>WHT</desc>
<path d="M147814695 116923305
L148894195 116666282
L148123123 116460663
L148894195 116255044
L147814695 115998020
" />
<path d="M148894195 115586782
L147814695 115586782
" />
<path d="M148328742 115586782
L148328742 114969925
" />
<path d="M148894195 114969925
L147814695 114969925
" />
<path d="M147814695 114610091
L147814695 113993234
" />
<path d="M148894195 114301663
L147814695 114301663
" />
</g></g>
<g style="fill:#F2EDA1; fill-opacity:0.0; 
stroke:#F2EDA1; stroke-width:171450.000000; stroke-opacity:1; 
stroke-linecap:round; stroke-linejoin:round;">
<g transform="rotate(-90.000000 160312100.000000 108813600.000000)">
<text x="160312100.000000" y="109785150.000000"
textLength="5938157.000000" font-size="1295400.000000" lengthAdjust="spacingAndGlyphs"
text-anchor="middle" opacity="0">Sensors</text>
</g>
<g class="stroked-text"><desc>Sensors</desc>
<path d="M161191121 111473796
L161237385 111335003
L161237385 111103682
L161191121 111011153
L161144857 110964889
L161052328 110918625
L160959800 110918625
L160867271 110964889
L160821007 111011153
L160774742 111103682
L160728478 111288739
L160682214 111381267
L160635950 111427532
L160543421 111473796
L160450892 111473796
L160358364 111427532
L160312100 111381267
L160265835 111288739
L160265835 111057417
L160312100 110918625
" />
<path d="M161191121 110132132
L161237385 110224660
L161237385 110409717
L161191121 110502246
L161098592 110548510
L160728478 110548510
L160635950 110502246
L160589685 110409717
L160589685 110224660
L160635950 110132132
L160728478 110085867
L160821007 110085867
L160913535 110548510
" />
<path d="M160589685 109669489
L161237385 109669489
" />
<path d="M160682214 109669489
L160635950 109623225
L160589685 109530696
L160589685 109391903
L160635950 109299375
L160728478 109253110
L161237385 109253110
" />
<path d="M161191121 108836732
L161237385 108744203
L161237385 108559146
L161191121 108466617
L161098592 108420353
L161052328 108420353
L160959800 108466617
L160913535 108559146
L160913535 108697939
L160867271 108790467
L160774742 108836732
L160728478 108836732
L160635950 108790467
L160589685 108697939
L160589685 108559146
L160635950 108466617
" />
<path d="M161237385 107865182
L161191121 107957710
L161144857 108003975
L161052328 108050239
L160774742 108050239
L160682214 108003975
L160635950 107957710
L160589685 107865182
L160589685 107726389
L160635950 107633860
L160682214 107587596
L160774742 107541332
L161052328 107541332
L161144857 107587596
L161191121 107633860
L161237385 107726389
L161237385 107865182
" />
<path d="M161237385 107124953
L160589685 107124953
" />
<path d="M160774742 107124953
L160682214 107078689
L160635950 107032425
L160589685 106939896
L160589685 106847367
" />
<path d="M161191121 106569782
L161237385 106477253
L161237385 106292196
L161191121 106199667
L161098592 106153403
L161052328 106153403
L160959800 106199667
L160913535 106292196
L160913535 106430989
L160867271 106523517
L160774742 106569782
L160728478 106569782
L160635950 106523517
L160589685 106430989
L160589685 106292196
L160635950 106199667
" />
</g></g>
<g style="fill:#F2EDA1; fill-opacity:0.0; 
stroke:#F2EDA1; stroke-width:266700.000000; stroke-opacity:1; 
stroke-linecap:round; stroke-linejoin:round;">
<text x="147866100.000000" y="107162600.000000"
textLength="2094018.000000" font-size="2015066.000000" lengthAdjust="spacingAndGlyphs"
text-anchor="start" opacity="0">-</text>
<g class="stroked-text"><desc>-</desc>
<path d="M148399288 106514900
L149550755 106514900
" />
</g></g>
<g style="fill:#F2EDA1; fill-opacity:0.0; 
stroke:#F2EDA1; stroke-width:190500.000000; stroke-opacity:1; 
stroke-linecap:round; stroke-linejoin:round;">
<text x="159804100.000000" y="102908100.000000"
textLength="2300091.000000" font-size="1439333.000000" lengthAdjust="spacingAndGlyphs"
text-anchor="end" opacity="0">5V</text>
<g class="stroked-text"><desc>5V</desc>
<path d="M158497965 101777195
L157983917 101777195
L157932513 102291242
L157983917 102239838
L158086727 102188433
L158343751 102188433
L158446560 102239838
L158497965 102291242
L158549370 102394052
L158549370 102651076
L158497965 102753885
L158446560 102805290
L158343751 102856695
L158086727 102856695
L157983917 102805290
L157932513 102753885
" />
<path d="M158857798 101777195
L159217632 102856695
L159577465 101777195
" />
</g><text x="159804100.000000" y="100368100.000000"
textLength="2869293.000000" font-size="1439333.000000" lengthAdjust="spacingAndGlyphs"
text-anchor="end" opacity="0">SIG</text>
<g class="stroked-text"><desc>SIG</desc>
<path d="M157264251 100265290
L157418465 100316695
L157675489 100316695
L157778298 100265290
L157829703 100213885
L157881108 100111076
L157881108 100008266
L157829703 99905457
L157778298 99854052
L157675489 99802647
L157469870 99751242
L157367060 99699838
L157315655 99648433
L157264251 99545623
L157264251 99442814
L157315655 99340004
L157367060 99288600
L157469870 99237195
L157726894 99237195
L157881108 99288600
" />
<path d="M158343751 100316695
L158343751 99237195
" />
<path d="M159423251 99288600
L159320441 99237195
L159166227 99237195
L159012013 99288600
L158909203 99391409
L158857798 99494219
L158806394 99699838
L158806394 99854052
L158857798 100059671
L158909203 100162480
L159012013 100265290
L159166227 100316695
L159269036 100316695
L159423251 100265290
L159474655 100213885
L159474655 99854052
L159269036 99854052
" />
</g><g transform="rotate(-90.000000 145326100.000000 113766600.000000)">
<text x="145326100.000000" y="114846100.000000"
textLength="3537555.000000" font-size="1439333.000000" lengthAdjust="spacingAndGlyphs"
text-anchor="end" opacity="0">GRN</text>
</g>
<g class="stroked-text"><desc>GRN</desc>
<path d="M145326100 116357853
L145274695 116460663
L145274695 116614877
L145326100 116769091
L145428909 116871901
L145531719 116923305
L145737338 116974710
L145891552 116974710
L146097171 116923305
L146199980 116871901
L146302790 116769091
L146354195 116614877
L146354195 116512067
L146302790 116357853
L146251385 116306448
L145891552 116306448
L145891552 116512067
" />
<path d="M146354195 115226948
L145840147 115586782
" />
<path d="M146354195 115843805
L145274695 115843805
L145274695 115432567
L145326100 115329758
L145377504 115278353
L145480314 115226948
L145634528 115226948
L145737338 115278353
L145788742 115329758
L145840147 115432567
L145840147 115843805
" />
<path d="M146354195 114764305
L145274695 114764305
L146354195 114147448
L145274695 114147448
" />
</g><text x="159804100.000000" y="97828100.000000"
textLength="3537555.000000" font-size="1439333.000000" lengthAdjust="spacingAndGlyphs"
text-anchor="end" opacity="0">GND</text>
<g class="stroked-text"><desc>GND</desc>
<path d="M157212846 96748600
L157110036 96697195
L156955822 96697195
L156801608 96748600
L156698798 96851409
L156647394 96954219
L156595989 97159838
L156595989 97314052
L156647394 97519671
L156698798 97622480
L156801608 97725290
L156955822 97776695
L157058632 97776695
L157212846 97725290
L157264251 97673885
L157264251 97314052
L157058632 97314052
" />
<path d="M157726894 97776695
L157726894 96697195
L158343751 97776695
L158343751 96697195
" />
<path d="M158857798 97776695
L158857798 96697195
L159114822 96697195
L159269036 96748600
L159371846 96851409
L159423251 96954219
L159474655 97159838
L159474655 97314052
L159423251 97519671
L159371846 97622480
L159269036 97725290
L159114822 97776695
L158857798 97776695
" />
</g><g transform="rotate(-90.000000 152946100.000000 113766600.000000)">
<text x="152946100.000000" y="114846100.000000"
textLength="3383340.000000" font-size="1439333.000000" lengthAdjust="spacingAndGlyphs"
text-anchor="end" opacity="0">RED</text>
</g>
<g class="stroked-text"><desc>RED</desc>
<path d="M153974195 116152234
L153460147 116512067
" />
<path d="M153974195 116769091
L152894695 116769091
L152894695 116357853
L152946100 116255044
L152997504 116203639
L153100314 116152234
L153254528 116152234
L153357338 116203639
L153408742 116255044
L153460147 116357853
L153460147 116769091
" />
<path d="M153408742 115689591
L153408742 115329758
" />
<path d="M153974195 115175544
L153974195 115689591
L152894695 115689591
L152894695 115175544
" />
<path d="M153974195 114712901
L152894695 114712901
L152894695 114455877
L152946100 114301663
L153048909 114198853
L153151719 114147448
L153357338 114096044
L153511552 114096044
L153717171 114147448
L153819980 114198853
L153922790 114301663
L153974195 114455877
L153974195 114712901
" />
</g></g>
<g style="fill:#F2EDA1; fill-opacity:0.0; 
stroke:#F2EDA1; stroke-width:266700.000000; stroke-opacity:1; 
stroke-linecap:round; stroke-linejoin:round;">
<text x="152946100.000000" y="107162600.000000"
textLength="2118783.000000" font-size="2015066.000000" lengthAdjust="spacingAndGlyphs"
text-anchor="start" opacity="0">-</text>
<g class="stroked-text"><desc>-</desc>
<path d="M153479288 106514900
L154630755 106514900
" />
</g><text x="142786100.000000" y="109702600.000000"
textLength="2217843.000000" font-size="2015066.000000" lengthAdjust="spacingAndGlyphs"
text-anchor="start" opacity="0">+</text>
<g class="stroked-text"><desc>+</desc>
<path d="M143319288 109054900
L144470755 109054900
" />
<path d="M143895021 109630633
L143895021 108479166
" />
</g></g>
<g style="fill:#F2EDA1; fill-opacity:0.0; 
stroke:#F2EDA1; stroke-width:190500.000000; stroke-opacity:1; 
stroke-linecap:round; stroke-linejoin:round;">
<text x="139865100.000000" y="104495600.000000"
textLength="2300091.000000" font-size="1439333.000000" lengthAdjust="spacingAndGlyphs"
text-anchor="start" opacity="0">LR</text>
<g class="stroked-text"><desc>LR</desc>
<path d="M140759996 104444195
L140245948 104444195
L140245948 103364695
" />
<path d="M141736686 104444195
L141376853 103930147
" />
<path d="M141119829 104444195
L141119829 103364695
L141531067 103364695
L141633877 103416100
L141685282 103467504
L141736686 103570314
L141736686 103724528
L141685282 103827338
L141633877 103878742
L141531067 103930147
L141119829 103930147
" />
</g></g>
<g style="fill:#F2EDA1; fill-opacity:0.0; 
stroke:#F2EDA1; stroke-width:127000.000000; stroke-opacity:1; 
stroke-linecap:round; stroke-linejoin:round;">
<g transform="rotate(-90.000000 163029900.000000 96037400.000000)">
<text x="163029900.000000" y="96037400.000000"
textLength="3350079.000000" font-size="1524000.000000" lengthAdjust="spacingAndGlyphs"
text-anchor="start" opacity="0">JP7</text>
</g>
<g class="stroked-text"><desc>JP7</desc>
<path d="M161832471 95356135
L162648900 95356135
L162812185 95410564
L162921042 95519421
L162975471 95682707
L162975471 95791564
" />
<path d="M162975471 94811850
L161832471 94811850
L161832471 94376421
L161886900 94267564
L161941328 94213135
L162050185 94158707
L162213471 94158707
L162322328 94213135
L162376757 94267564
L162431185 94376421
L162431185 94811850
" />
<path d="M161832471 93777707
L161832471 93015707
L162975471 93505564
" />
</g><g transform="rotate(-90.000000 142709900.000000 104927400.000000)">
<text x="142709900.000000" y="104927400.000000"
textLength="3267529.000000" font-size="1524000.000000" lengthAdjust="spacingAndGlyphs"
text-anchor="start" opacity="0">JP4</text>
</g>
<g class="stroked-text"><desc>JP4</desc>
<path d="M141512471 104246135
L142328900 104246135
L142492185 104300564
L142601042 104409421
L142655471 104572707
L142655471 104681564
" />
<path d="M142655471 103701850
L141512471 103701850
L141512471 103266421
L141566900 103157564
L141621328 103103135
L141730185 103048707
L141893471 103048707
L142002328 103103135
L142056757 103157564
L142111185 103266421
L142111185 103701850
" />
<path d="M141893471 102068992
L142655471 102068992
" />
<path d="M141458042 102341135
L142274471 102613278
L142274471 101905707
" />
</g><g transform="rotate(-90.000000 157949900.000000 104927400.000000)">
<text x="157949900.000000" y="104927400.000000"
textLength="3267529.000000" font-size="1524000.000000" lengthAdjust="spacingAndGlyphs"
text-anchor="start" opacity="0">JP1</text>
</g>
<g class="stroked-text"><desc>JP1</desc>
<path d="M156752471 104246135
L157568900 104246135
L157732185 104300564
L157841042 104409421
L157895471 104572707
L157895471 104681564
" />
<path d="M157895471 103701850
L156752471 103701850
L156752471 103266421
L156806900 103157564
L156861328 103103135
L156970185 103048707
L157133471 103048707
L157242328 103103135
L157296757 103157564
L157351185 103266421
L157351185 103701850
" />
<path d="M157895471 101960135
L157895471 102613278
" />
<path d="M157895471 102286707
L156752471 102286707
L156915757 102395564
L157024614 102504421
L157079042 102613278
" />
</g><g transform="rotate(-90.000000 152869900.000000 104927400.000000)">
<text x="152869900.000000" y="104927400.000000"
textLength="3267529.000000" font-size="1524000.000000" lengthAdjust="spacingAndGlyphs"
text-anchor="start" opacity="0">JP2</text>
</g>
<g class="stroked-text"><desc>JP2</desc>
<path d="M151672471 104246135
L152488900 104246135
L152652185 104300564
L152761042 104409421
L152815471 104572707
L152815471 104681564
" />
<path d="M152815471 103701850
L151672471 103701850
L151672471 103266421
L151726900 103157564
L151781328 103103135
L151890185 103048707
L152053471 103048707
L152162328 103103135
L152216757 103157564
L152271185 103266421
L152271185 103701850
" />
<path d="M151781328 102613278
L151726900 102558850
L151672471 102449992
L151672471 102177850
L151726900 102068992
L151781328 102014564
L151890185 101960135
L151999042 101960135
L152162328 102014564
L152815471 102667707
L152815471 101960135
" />
</g><text x="154927300.000000" y="121945400.000000"
textLength="3267529.000000" font-size="1524000.000000" lengthAdjust="spacingAndGlyphs"
text-anchor="end" opacity="0">JP5</text>
<g class="stroked-text"><desc>JP5</desc>
<path d="M152341035 120747971
L152341035 121564400
L152286607 121727685
L152177750 121836542
L152014464 121890971
L151905607 121890971
" />
<path d="M152885321 121890971
L152885321 120747971
L153320750 120747971
L153429607 120802400
L153484035 120856828
L153538464 120965685
L153538464 121128971
L153484035 121237828
L153429607 121292257
L153320750 121346685
L152885321 121346685
" />
<path d="M154572607 120747971
L154028321 120747971
L153973892 121292257
L154028321 121237828
L154137178 121183400
L154409321 121183400
L154518178 121237828
L154572607 121292257
L154627035 121401114
L154627035 121673257
L154572607 121782114
L154518178 121836542
L154409321 121890971
L154137178 121890971
L154028321 121836542
L153973892 121782114
" />
</g><g transform="rotate(-90.000000 147789900.000000 104927400.000000)">
<text x="147789900.000000" y="104927400.000000"
textLength="3267529.000000" font-size="1524000.000000" lengthAdjust="spacingAndGlyphs"
text-anchor="start" opacity="0">JP3</text>
</g>
<g class="stroked-text"><desc>JP3</desc>
<path d="M146592471 104246135
L147408900 104246135
L147572185 104300564
L147681042 104409421
L147735471 104572707
L147735471 104681564
" />
<path d="M147735471 103701850
L146592471 103701850
L146592471 103266421
L146646900 103157564
L146701328 103103135
L146810185 103048707
L146973471 103048707
L147082328 103103135
L147136757 103157564
L147191185 103266421
L147191185 103701850
" />
<path d="M146592471 102667707
L146592471 101960135
L147027900 102341135
L147027900 102177850
L147082328 102068992
L147136757 102014564
L147245614 101960135
L147517757 101960135
L147626614 102014564
L147681042 102068992
L147735471 102177850
L147735471 102504421
L147681042 102613278
L147626614 102667707
" />
</g></g>
<g style="fill:#F2EDA1; fill-opacity:1.0; 
stroke:#F2EDA1; stroke-width:1.000000; stroke-opacity:1; 
stroke-linecap:round; stroke-linejoin:round;">
<path style="fill:#F2EDA1; fill-opacity:1.0; 
stroke:#F2EDA1; stroke-width:1.000000; stroke-opacity:1; 
stroke-linecap:round; stroke-linejoin:round;fill-rule:evenodd;"
d="M 140758786.000000,116098853.000000
140899739.000000,116169329.000000
140940384.000000,116199813.000000
140959171.000000,116218600.000000
140935920.000000,116218600.000000
140915920.000000,116208600.000000
140857717.000000,116208600.000000
140818197.000000,116218480.000000
140768736.000000,116228372.000000
140729740.000000,116247870.000000
140690785.000000,116277086.000000
140671432.000000,116306116.000000
140661730.000000,116325520.000000
140652100.000000,116354410.000000
140652100.000000,116412983.000000
140661741.000000,116451548.000000
140700984.000000,116510412.000000
140760388.000000,116569816.000000
140799988.000000,116599516.000000
140829616.000000,116619268.000000
140868843.000000,116638881.000000
140947717.000000,116658600.000000
140976290.000000,116658600.000000
141004397.000000,116649231.000000
141032992.000000,116620636.000000
141042470.000000,116601680.000000
141052100.000000,116572790.000000
141052100.000000,116474579.000000
141140360.000000,116529741.000000
141221103.000000,116620578.000000
141291649.000000,116731435.000000
141341951.000000,116882343.000000
141372127.000000,117043281.000000
141362062.000000,117214391.000000
141311776.000000,117405480.000000
141211284.000000,117586365.000000
141140856.000000,117676915.000000
141060518.000000,117757253.000000
140980056.000000,117827657.000000
140879329.000000,117888094.000000
140778691.000000,117928349.000000
140668172.000000,117958490.000000
140547514.000000,117978600.000000
140357514.000000,117978600.000000
140298857.000000,117988376.000000
140200204.000000,118047568.000000
140100764.000000,118147008.000000
139980771.000000,118287000.000000
139860791.000000,118406981.000000
139810796.000000,118466975.000000
139761068.000000,118516704.000000
139731071.000000,118566700.000000
139672100.000000,118625671.000000
139672100.000000,117243289.000000
139682186.000000,117162597.000000
139702473.000000,117091593.000000
139763275.000000,116990257.000000
139814038.000000,116949647.000000
139854629.000000,116919203.000000
139905669.000000,116898787.000000
139956198.000000,116888681.000000
140016686.000000,116878600.000000
140138280.000000,116878600.000000
140185541.000000,116902230.000000
140170062.000000,116917709.000000
140129018.000000,116938231.000000
140099803.000000,116947969.000000
140041469.000000,117006303.000000
140032100.000000,117034410.000000
140032100.000000,117072790.000000
140041631.000000,117101382.000000
140060984.000000,117130412.000000
140119912.000000,117189340.000000
140168528.000000,117208786.000000
140217596.000000,117218600.000000
140296483.000000,117218600.000000
140375048.000000,117198959.000000
140433682.000000,117159869.000000
140472639.000000,117111173.000000
140492100.000000,117052790.000000
140492100.000000,116984508.000000
140462798.000000,116906370.000000
140393461.000000,116837032.000000
140313350.000000,116746907.000000
140242987.000000,116666493.000000
140192377.000000,116575393.000000
140172100.000000,116484149.000000
140172100.000000,116402789.000000
140202545.000000,116311454.000000
140253330.000000,116230198.000000
140344350.000000,116159405.000000
140455413.000000,116098825.000000
140566649.000000,116078600.000000
140667649.000000,116078600.000000
Z" /> 
</g>
<g style="fill:#F2EDA1; fill-opacity:1.0; 
stroke:#F2EDA1; stroke-width:203200.000000; stroke-opacity:1; 
stroke-linecap:round; stroke-linejoin:round;">
</g>
<g style="fill:#F2EDA1; fill-opacity:0.0; 
stroke:#F2EDA1; stroke-width:203200.000000; stroke-opacity:1; 
stroke-linecap:round; stroke-linejoin:round;">
<path d="M162471100 103098600
L161836100 103733600
" />
<path d="M159931100 99288600
L160566100 98653600
" />
<path d="M161836100 98653600
L162471100 99288600
" />
<path d="M160566100 96113600
L159931100 96748600
" />
<path d="M160566100 103733600
L159931100 103098600
" />
<path d="M162471100 96748600
L162471100 98018600
" />
<path d="M162471100 99288600
L162471100 100558600
" />
<path d="M159931100 100558600
L159931100 99288600
" />
<path d="M162471100 96748600
L161836100 96113600
" />
<path d="M160566100 101193600
L159931100 100558600
" />
<path d="M159931100 101828600
L160566100 101193600
" />
<path d="M161836100 96113600
L160566100 96113600
" />
<path d="M162471100 101828600
L162471100 103098600
" />
<path d="M161836100 103733600
L160566100 103733600
" />
<path d="M162471100 98018600
L161836100 98653600
" />
<path d="M160566100 98653600
L159931100 98018600
" />
<path d="M162471100 100558600
L161836100 101193600
" />
<path d="M159931100 98018600
L159931100 96748600
" />
<path d="M159931100 103098600
L159931100 101828600
" />
<path d="M161836100 101193600
L162471100 101828600
" />
<path d="M141516100 112623600
L140246100 112623600
" />
<path d="M142151100 105638600
L142151100 106908600
" />
<path d="M139611100 106908600
L139611100 105638600
" />
<path d="M141516100 105003600
L140246100 105003600
" />
<path d="M141516100 110083600
L142151100 110718600
" />
<path d="M142151100 108178600
L142151100 109448600
" />
<path d="M139611100 111988600
L139611100 110718600
" />
<path d="M142151100 109448600
L141516100 110083600
" />
<path d="M142151100 110718600
L142151100 111988600
" />
<path d="M142151100 111988600
L141516100 112623600
" />
<path d="M142151100 105638600
L141516100 105003600
" />
<path d="M141516100 107543600
L142151100 108178600
" />
<path d="M140246100 112623600
L139611100 111988600
" />
<path d="M142151100 106908600
L141516100 107543600
" />
<path d="M139611100 110718600
L140246100 110083600
" />
<path d="M140246100 107543600
L139611100 106908600
" />
<path d="M140246100 110083600
L139611100 109448600
" />
<path d="M140246100 105003600
L139611100 105638600
" />
<path d="M139611100 108178600
L140246100 107543600
" />
<path d="M139611100 109448600
L139611100 108178600
" />
<path d="M157391100 109448600
L156756100 110083600
" />
<path d="M157391100 105638600
L156756100 105003600
" />
<path d="M156756100 112623600
L155486100 112623600
" />
<path d="M156756100 105003600
L155486100 105003600
" />
<path d="M157391100 111988600
L156756100 112623600
" />
<path d="M154851100 110718600
L155486100 110083600
" />
<path d="M155486100 112623600
L154851100 111988600
" />
<path d="M154851100 108178600
L155486100 107543600
" />
<path d="M157391100 110718600
L157391100 111988600
" />
<path d="M157391100 105638600
L157391100 106908600
" />
<path d="M155486100 110083600
L154851100 109448600
" />
<path d="M154851100 106908600
L154851100 105638600
" />
<path d="M155486100 105003600
L154851100 105638600
" />
<path d="M157391100 106908600
L156756100 107543600
" />
<path d="M155486100 107543600
L154851100 106908600
" />
<path d="M156756100 107543600
L157391100 108178600
" />
<path d="M156756100 110083600
L157391100 110718600
" />
<path d="M154851100 109448600
L154851100 108178600
" />
<path d="M154851100 111988600
L154851100 110718600
" />
<path d="M157391100 108178600
L157391100 109448600
" />
<path d="M151676100 107543600
L152311100 108178600
" />
<path d="M149771100 111988600
L149771100 110718600
" />
<path d="M152311100 108178600
L152311100 109448600
" />
<path d="M149771100 106908600
L149771100 105638600
" />
<path d="M149771100 110718600
L150406100 110083600
" />
<path d="M152311100 109448600
L151676100 110083600
" />
<path d="M152311100 105638600
L151676100 105003600
" />
<path d="M150406100 105003600
L149771100 105638600
" />
<path d="M152311100 106908600
L151676100 107543600
" />
<path d="M150406100 112623600
L149771100 111988600
" />
<path d="M152311100 110718600
L152311100 111988600
" />
<path d="M149771100 109448600
L149771100 108178600
" />
<path d="M150406100 107543600
L149771100 106908600
" />
<path d="M152311100 105638600
L152311100 106908600
" />
<path d="M149771100 108178600
L150406100 107543600
" />
<path d="M151676100 110083600
L152311100 110718600
" />
<path d="M150406100 110083600
L149771100 109448600
" />
<path d="M151676100 112623600
L150406100 112623600
" />
<path d="M152311100 111988600
L151676100 112623600
" />
<path d="M151676100 105003600
L150406100 105003600
" />
<path d="M156121100 89303600
L140881100 89303600
" />
<path d="M140881100 102303600
L140881100 89303600
" />
<path d="M156121100 102303600
L140881100 102303600
" />
<path d="M156121100 89303600
L156121100 102303600
" />
<path d="M144691100 119608600
L144056100 120243600
" />
<path d="M142786100 120243600
L142151100 119608600
" />
<path d="M146596100 120243600
L145326100 120243600
" />
<path d="M150406100 120243600
L149771100 119608600
" />
<path d="M154216100 120243600
L154851100 119608600
" />
<path d="M154851100 119608600
L154851100 118338600
" />
<path d="M152946100 117703600
L154216100 117703600
" />
<path d="M144691100 118338600
L145326100 117703600
" />
<path d="M142151100 119608600
L142151100 118338600
" />
<path d="M145326100 120243600
L144691100 119608600
" />
<path d="M144056100 120243600
L142786100 120243600
" />
<path d="M152311100 118338600
L152946100 117703600
" />
<path d="M151676100 120243600
L150406100 120243600
" />
<path d="M152946100 120243600
L152311100 119608600
" />
<path d="M149771100 119608600
L149136100 120243600
" />
<path d="M149136100 117703600
L149771100 118338600
" />
<path d="M145326100 117703600
L146596100 117703600
" />
<path d="M154216100 120243600
L152946100 120243600
" />
<path d="M149771100 118338600
L150406100 117703600
" />
<path d="M146596100 120243600
L147231100 119608600
" />
<path d="M147866100 120243600
L147231100 119608600
" />
<path d="M144056100 117703600
L144691100 118338600
" />
<path d="M150406100 117703600
L151676100 117703600
" />
<path d="M147231100 118338600
L147866100 117703600
" />
<path d="M152311100 119608600
L151676100 120243600
" />
<path d="M151676100 117703600
L152311100 118338600
" />
<path d="M149136100 120243600
L147866100 120243600
" />
<path d="M154851100 118338600
L154216100 117703600
" />
<path d="M147866100 117703600
L149136100 117703600
" />
<path d="M142786100 117703600
L144056100 117703600
" />
<path d="M142151100 118338600
L142786100 117703600
" />
<path d="M147231100 118338600
L146596100 117703600
" />
<path d="M146596100 105003600
L145326100 105003600
" />
<path d="M144691100 111988600
L144691100 110718600
" />
<path d="M145326100 112623600
L144691100 111988600
" />
<path d="M147231100 106908600
L146596100 107543600
" />
<path d="M145326100 105003600
L144691100 105638600
" />
<path d="M147231100 105638600
L147231100 106908600
" />
<path d="M147231100 110718600
L147231100 111988600
" />
<path d="M144691100 110718600
L145326100 110083600
" />
<path d="M147231100 105638600
L146596100 105003600
" />
<path d="M147231100 111988600
L146596100 112623600
" />
<path d="M145326100 107543600
L144691100 106908600
" />
<path d="M144691100 108178600
L145326100 107543600
" />
<path d="M147231100 109448600
L146596100 110083600
" />
<path d="M145326100 110083600
L144691100 109448600
" />
<path d="M146596100 107543600
L147231100 108178600
" />
<path d="M147231100 108178600
L147231100 109448600
" />
<path d="M146596100 110083600
L147231100 110718600
" />
<path d="M144691100 106908600
L144691100 105638600
" />
<path d="M144691100 109448600
L144691100 108178600
" />
<path d="M146596100 112623600
L145326100 112623600
" />
<g >
</g>
<g >
</g>
<g >
</g>
<g >
</g>
<g >
</g>
<g >
</g>
<g >
</g>
<g >
</g>
<g >
</g>
<g >
</g>
<g >
</g>
<g >
</g>
<g >
</g>
<g >
</g>
<g >
</g>
<g >
</g>
<g >
</g>
</g>
<g style="fill:#000000; fill-opacity:0.0; 
stroke:#000000; stroke-width:203200.000000; stroke-opacity:1; 
stroke-linecap:round; stroke-linejoin:round;">
</g>
<g style="fill:#D0D2CD; fill-opacity:0.0; 
stroke:#D0D2CD; stroke-width:203200.000000; stroke-opacity:1; 
stroke-linecap:round; stroke-linejoin:round;">
<path d="M134531100 120243600
L134531100 89763600
" />
<path d="M162471100 120243600
L134531100 120243600
" />
<path d="M162471100 89763600
L162471100 120243600
" />
<path d="M134531100 89763600
L162471100 89763600
" />
<g >
</g>
<g >
</g>
<g >
</g>
<g >
</g>
<g >
</g>
<g >
</g>
<g >
</g>
<g >
</g>
<g >
</g>
<g >
</g>
<g >
</g>
<g >
</g>
<g >
</g>
<g >
</g>
<g >
</g>
<g >
</g>
<g >
</g>
</g> 
</svg>
