<!DOCTYPE svg PUBLIC "-//W3C//DTD SVG 1.1//EN" "http://www.w3.org/Graphics/SVG/1.1/DTD/svg11.dtd">
<svg xmlns="http://www.w3.org/2000/svg" version="1.1" width="26.13mm" height="17.494mm" viewBox="135436100.0 96256600.0 26130000.0 17494000.0">
            <title>Picture generated by PcbDraw </title>
            <desc>Picture generated by PcbDraw</desc>
        <defs><clipPath id="cut-off"><path d=" M 160566100.0 112750600.0 L 160566100.0 97256600.0 L 136436100.0 97256600.0 L 136436100.0 112750600.0 L 160566100.0 112750600.0 " style="fill-rule: evenodd;"/></clipPath><mask id="pads-mask"><g style="fill:#ffffff; fill-opacity:0.0;  stroke:#ffffff; stroke-width:0.000000; stroke-opacity:1;  stroke-linecap:round; stroke-linejoin:round;">
<g style="fill:#ffffff; fill-opacity:1.0;  stroke:#ffffff; stroke-width:1.000000; stroke-opacity:1;  stroke-linecap:round; stroke-linejoin:round;">
<path style="fill:#ffffff; fill-opacity:1.0;  stroke:#ffffff; stroke-width:1.000000; stroke-opacity:1;  stroke-linecap:round; stroke-linejoin:round;fill-rule:evenodd;" d="M 140042900.000000,97612200.000000 140081781.000000,97619934.000000 140114742.000000,97641958.000000 140136766.000000,97674919.000000 140144500.000000,97713800.000000 140144500.000000,99593400.000000 140136766.000000,99632281.000000 140114742.000000,99665242.000000 140081781.000000,99687266.000000 140042900.000000,99695000.000000 138163300.000000,99695000.000000 138124419.000000,99687266.000000 138091458.000000,99665242.000000 138069434.000000,99632281.000000 138061700.000000,99593400.000000 138061700.000000,97713800.000000 138069434.000000,97674919.000000 138091458.000000,97641958.000000 138124419.000000,97619934.000000 138163300.000000,97612200.000000 Z"/> 
<circle cx="139103100.000000" cy="101193600.000000" r="1041400.000000"/> 
</g>
<g style="fill:#ffffff; fill-opacity:1.0;  stroke:#ffffff; stroke-width:1.000000; stroke-opacity:1;  stroke-linecap:round; stroke-linejoin:round;">
<circle cx="139103100.000000" cy="103733600.000000" r="1041400.000000"/> 
</g>
<g style="fill:#ffffff; fill-opacity:1.0;  stroke:#ffffff; stroke-width:1.000000; stroke-opacity:1;  stroke-linecap:round; stroke-linejoin:round;">
<circle cx="139103100.000000" cy="106273600.000000" r="1041400.000000"/> 
</g>
<g style="fill:#ffffff; fill-opacity:1.0;  stroke:#ffffff; stroke-width:1.000000; stroke-opacity:1;  stroke-linecap:round; stroke-linejoin:round;">
<circle cx="139103100.000000" cy="108813600.000000" r="1041400.000000"/> 
</g>
<g style="fill:#ffffff; fill-opacity:1.0;  stroke:#ffffff; stroke-width:1.000000; stroke-opacity:1;  stroke-linecap:round; stroke-linejoin:round;">
<circle cx="139103100.000000" cy="111353600.000000" r="1041400.000000"/> 
</g>
<g style="fill:#ffffff; fill-opacity:1.0;  stroke:#ffffff; stroke-width:1.000000; stroke-opacity:1;  stroke-linecap:round; stroke-linejoin:round;">
<circle cx="155105100.000000" cy="110083600.000000" r="1625600.000000"/> 
</g>
<g style="fill:#ffffff; fill-opacity:1.0;  stroke:#ffffff; stroke-width:1.000000; stroke-opacity:1;  stroke-linecap:round; stroke-linejoin:round;">
<circle cx="155105100.000000" cy="99923600.000000" r="1625600.000000"/> 
</g>
<g style="fill:#ffffff; fill-opacity:1.0;  stroke:#ffffff; stroke-width:1.000000; stroke-opacity:1;  stroke-linecap:round; stroke-linejoin:round;">
<circle cx="146215100.000000" cy="108178600.000000" r="1041400.000000"/> 
</g>
<g style="fill:#ffffff; fill-opacity:1.0;  stroke:#ffffff; stroke-width:1.000000; stroke-opacity:1;  stroke-linecap:round; stroke-linejoin:round;">
<circle cx="148755100.000000" cy="106908600.000000" r="1041400.000000"/> 
</g>
<g style="fill:#ffffff; fill-opacity:1.0;  stroke:#ffffff; stroke-width:1.000000; stroke-opacity:1;  stroke-linecap:round; stroke-linejoin:round;">
<circle cx="146215100.000000" cy="105638600.000000" r="1041400.000000"/> 
</g>
<g style="fill:#ffffff; fill-opacity:1.0;  stroke:#ffffff; stroke-width:1.000000; stroke-opacity:1;  stroke-linecap:round; stroke-linejoin:round;">
<circle cx="148755100.000000" cy="104368600.000000" r="1041400.000000"/> 
</g>
<g style="fill:#ffffff; fill-opacity:1.0;  stroke:#ffffff; stroke-width:1.000000; stroke-opacity:1;  stroke-linecap:round; stroke-linejoin:round;">
<circle cx="146215100.000000" cy="103098600.000000" r="1041400.000000"/> 
</g>
<g style="fill:#ffffff; fill-opacity:1.0;  stroke:#ffffff; stroke-width:1.000000; stroke-opacity:1;  stroke-linecap:round; stroke-linejoin:round;">
<circle cx="148755100.000000" cy="101828600.000000" r="1041400.000000"/> 
</g>
</g> 
</mask><mask id="pads-mask-silkscreen"><rect x="132630929" y="97155000" width="30703771" height="16603450" fill="white"/><g style="fill:#000000; fill-opacity:0.0;  stroke:#000000; stroke-width:0.000000; stroke-opacity:1;  stroke-linecap:round; stroke-linejoin:round;">
<g style="fill:#000000; fill-opacity:1.0;  stroke:#000000; stroke-width:1.000000; stroke-opacity:1;  stroke-linecap:round; stroke-linejoin:round;">
<path style="fill:#000000; fill-opacity:1.0;  stroke:#000000; stroke-width:1.000000; stroke-opacity:1;  stroke-linecap:round; stroke-linejoin:round;fill-rule:evenodd;" d="M 140042900.000000,97612200.000000 140081781.000000,97619934.000000 140114742.000000,97641958.000000 140136766.000000,97674919.000000 140144500.000000,97713800.000000 140144500.000000,99593400.000000 140136766.000000,99632281.000000 140114742.000000,99665242.000000 140081781.000000,99687266.000000 140042900.000000,99695000.000000 138163300.000000,99695000.000000 138124419.000000,99687266.000000 138091458.000000,99665242.000000 138069434.000000,99632281.000000 138061700.000000,99593400.000000 138061700.000000,97713800.000000 138069434.000000,97674919.000000 138091458.000000,97641958.000000 138124419.000000,97619934.000000 138163300.000000,97612200.000000 Z"/> 
<circle cx="139103100.000000" cy="101193600.000000" r="1041400.000000"/> 
</g>
<g style="fill:#000000; fill-opacity:1.0;  stroke:#000000; stroke-width:1.000000; stroke-opacity:1;  stroke-linecap:round; stroke-linejoin:round;">
<circle cx="139103100.000000" cy="103733600.000000" r="1041400.000000"/> 
</g>
<g style="fill:#000000; fill-opacity:1.0;  stroke:#000000; stroke-width:1.000000; stroke-opacity:1;  stroke-linecap:round; stroke-linejoin:round;">
<circle cx="139103100.000000" cy="106273600.000000" r="1041400.000000"/> 
</g>
<g style="fill:#000000; fill-opacity:1.0;  stroke:#000000; stroke-width:1.000000; stroke-opacity:1;  stroke-linecap:round; stroke-linejoin:round;">
<circle cx="139103100.000000" cy="108813600.000000" r="1041400.000000"/> 
</g>
<g style="fill:#000000; fill-opacity:1.0;  stroke:#000000; stroke-width:1.000000; stroke-opacity:1;  stroke-linecap:round; stroke-linejoin:round;">
<circle cx="139103100.000000" cy="111353600.000000" r="1041400.000000"/> 
</g>
<g style="fill:#000000; fill-opacity:1.0;  stroke:#000000; stroke-width:1.000000; stroke-opacity:1;  stroke-linecap:round; stroke-linejoin:round;">
<circle cx="155105100.000000" cy="110083600.000000" r="1625600.000000"/> 
</g>
<g style="fill:#000000; fill-opacity:1.0;  stroke:#000000; stroke-width:1.000000; stroke-opacity:1;  stroke-linecap:round; stroke-linejoin:round;">
<circle cx="155105100.000000" cy="99923600.000000" r="1625600.000000"/> 
</g>
<g style="fill:#000000; fill-opacity:1.0;  stroke:#000000; stroke-width:1.000000; stroke-opacity:1;  stroke-linecap:round; stroke-linejoin:round;">
<circle cx="146215100.000000" cy="108178600.000000" r="1041400.000000"/> 
</g>
<g style="fill:#000000; fill-opacity:1.0;  stroke:#000000; stroke-width:1.000000; stroke-opacity:1;  stroke-linecap:round; stroke-linejoin:round;">
<circle cx="148755100.000000" cy="106908600.000000" r="1041400.000000"/> 
</g>
<g style="fill:#000000; fill-opacity:1.0;  stroke:#000000; stroke-width:1.000000; stroke-opacity:1;  stroke-linecap:round; stroke-linejoin:round;">
<circle cx="146215100.000000" cy="105638600.000000" r="1041400.000000"/> 
</g>
<g style="fill:#000000; fill-opacity:1.0;  stroke:#000000; stroke-width:1.000000; stroke-opacity:1;  stroke-linecap:round; stroke-linejoin:round;">
<circle cx="148755100.000000" cy="104368600.000000" r="1041400.000000"/> 
</g>
<g style="fill:#000000; fill-opacity:1.0;  stroke:#000000; stroke-width:1.000000; stroke-opacity:1;  stroke-linecap:round; stroke-linejoin:round;">
<circle cx="146215100.000000" cy="103098600.000000" r="1041400.000000"/> 
</g>
<g style="fill:#000000; fill-opacity:1.0;  stroke:#000000; stroke-width:1.000000; stroke-opacity:1;  stroke-linecap:round; stroke-linejoin:round;">
<circle cx="148755100.000000" cy="101828600.000000" r="1041400.000000"/> 
</g>
</g> 
</mask><mask id="hole-mask"><g><rect x="132630929" y="97155000" fill="white" width="30703771" height="16603450"/><polyline stroke-linecap="round" stroke="black" stroke-width="1016000" points="0.0 0 0.0 0" transform="translate(139103100 98653600) rotate(-270.0)"/><polyline stroke-linecap="round" stroke="black" stroke-width="1016000" points="0.0 0 0.0 0" transform="translate(139103100 101193600) rotate(-270.0)"/><polyline stroke-linecap="round" stroke="black" stroke-width="1016000" points="0.0 0 0.0 0" transform="translate(139103100 103733600) rotate(-270.0)"/><polyline stroke-linecap="round" stroke="black" stroke-width="1016000" points="0.0 0 0.0 0" transform="translate(139103100 106273600) rotate(-270.0)"/><polyline stroke-linecap="round" stroke="black" stroke-width="1016000" points="0.0 0 0.0 0" transform="translate(139103100 108813600) rotate(-270.0)"/><polyline stroke-linecap="round" stroke="black" stroke-width="1016000" points="0.0 0 0.0 0" transform="translate(139103100 111353600) rotate(-270.0)"/><polyline stroke-linecap="round" stroke="black" stroke-width="3251200" points="0.0 0 0.0 0" transform="translate(155105100 110083600) rotate(-90.0)"/><polyline stroke-linecap="round" stroke="black" stroke-width="3251200" points="0.0 0 0.0 0" transform="translate(155105100 99923600) rotate(-90.0)"/><polyline stroke-linecap="round" stroke="black" stroke-width="1016000" points="0.0 0 0.0 0" transform="translate(146215100 108178600) rotate(-90.0)"/><polyline stroke-linecap="round" stroke="black" stroke-width="1016000" points="0.0 0 0.0 0" transform="translate(148755100 106908600) rotate(-90.0)"/><polyline stroke-linecap="round" stroke="black" stroke-width="1016000" points="0.0 0 0.0 0" transform="translate(146215100 105638600) rotate(-90.0)"/><polyline stroke-linecap="round" stroke="black" stroke-width="1016000" points="0.0 0 0.0 0" transform="translate(148755100 104368600) rotate(-90.0)"/><polyline stroke-linecap="round" stroke="black" stroke-width="1016000" points="0.0 0 0.0 0" transform="translate(146215100 103098600) rotate(-90.0)"/><polyline stroke-linecap="round" stroke="black" stroke-width="1016000" points="0.0 0 0.0 0" transform="translate(148755100 101828600) rotate(-90.0)"/></g></mask></defs><g transform="" id="boardContainer"><g id="substrate" clip-path="url(#cut-off)" mask="url(#hole-mask)"><g id="substrate-board" style="fill:#4ca06c; stroke:#4ca06c;"><path d=" M 160566100.0 112750600.0 L 160566100.0 97256600.0 L 136436100.0 97256600.0 L 136436100.0 112750600.0 L 160566100.0 112750600.0 " style="fill-rule: evenodd;"/><g style="fill-opacity: 0.0;stroke-width: 203200.000000;stroke-opacity: 1;stroke-linecap: round;stroke-linejoin: round">
<path d="M136436100 112750600 L160566100 112750600 "/>
<path d="M160566100 112750600 L160566100 97256600 "/>
<path d="M160566100 97256600 L136436100 97256600 "/>
<path d="M136436100 97256600 L136436100 112750600 "/>
</g> 
</g><g id="substrate-clad" style="fill:#9c6b28; stroke:#9c6b28;"><g style="fill-opacity: 0.0;stroke-width: 0.000000;stroke-opacity: 1;stroke-linecap: round;stroke-linejoin: round">
<g style="fill-opacity: 1.0;stroke-width: 1.000000;stroke-opacity: 1;stroke-linecap: round;stroke-linejoin: round">
<path style="fill-opacity: 1.0;stroke-width: 1.000000;stroke-opacity: 1;stroke-linecap: round;stroke-linejoin: round;fill-rule: evenodd" d="M 140042900.000000,97612200.000000 140081781.000000,97619934.000000 140114742.000000,97641958.000000 140136766.000000,97674919.000000 140144500.000000,97713800.000000 140144500.000000,99593400.000000 140136766.000000,99632281.000000 140114742.000000,99665242.000000 140081781.000000,99687266.000000 140042900.000000,99695000.000000 138163300.000000,99695000.000000 138124419.000000,99687266.000000 138091458.000000,99665242.000000 138069434.000000,99632281.000000 138061700.000000,99593400.000000 138061700.000000,97713800.000000 138069434.000000,97674919.000000 138091458.000000,97641958.000000 138124419.000000,97619934.000000 138163300.000000,97612200.000000 Z"/> 
<circle cx="139103100.000000" cy="101193600.000000" r="1041400.000000"/> 
</g>
<g style="fill-opacity: 1.0;stroke-width: 1.000000;stroke-opacity: 1;stroke-linecap: round;stroke-linejoin: round">
<circle cx="139103100.000000" cy="103733600.000000" r="1041400.000000"/> 
</g>
<g style="fill-opacity: 1.0;stroke-width: 1.000000;stroke-opacity: 1;stroke-linecap: round;stroke-linejoin: round">
<circle cx="139103100.000000" cy="106273600.000000" r="1041400.000000"/> 
</g>
<g style="fill-opacity: 1.0;stroke-width: 1.000000;stroke-opacity: 1;stroke-linecap: round;stroke-linejoin: round">
<circle cx="139103100.000000" cy="108813600.000000" r="1041400.000000"/> 
</g>
<g style="fill-opacity: 1.0;stroke-width: 1.000000;stroke-opacity: 1;stroke-linecap: round;stroke-linejoin: round">
<circle cx="139103100.000000" cy="111353600.000000" r="1041400.000000"/> 
</g>
<g style="fill-opacity: 1.0;stroke-width: 1.000000;stroke-opacity: 1;stroke-linecap: round;stroke-linejoin: round">
<circle cx="155105100.000000" cy="110083600.000000" r="1625600.000000"/> 
</g>
<g style="fill-opacity: 1.0;stroke-width: 1.000000;stroke-opacity: 1;stroke-linecap: round;stroke-linejoin: round">
<circle cx="155105100.000000" cy="99923600.000000" r="1625600.000000"/> 
</g>
<g style="fill-opacity: 1.0;stroke-width: 1.000000;stroke-opacity: 1;stroke-linecap: round;stroke-linejoin: round">
<circle cx="146215100.000000" cy="108178600.000000" r="1041400.000000"/> 
</g>
<g style="fill-opacity: 1.0;stroke-width: 1.000000;stroke-opacity: 1;stroke-linecap: round;stroke-linejoin: round">
<circle cx="148755100.000000" cy="106908600.000000" r="1041400.000000"/> 
</g>
<g style="fill-opacity: 1.0;stroke-width: 1.000000;stroke-opacity: 1;stroke-linecap: round;stroke-linejoin: round">
<circle cx="146215100.000000" cy="105638600.000000" r="1041400.000000"/> 
</g>
<g style="fill-opacity: 1.0;stroke-width: 1.000000;stroke-opacity: 1;stroke-linecap: round;stroke-linejoin: round">
<circle cx="148755100.000000" cy="104368600.000000" r="1041400.000000"/> 
</g>
<g style="fill-opacity: 1.0;stroke-width: 1.000000;stroke-opacity: 1;stroke-linecap: round;stroke-linejoin: round">
<circle cx="146215100.000000" cy="103098600.000000" r="1041400.000000"/> 
</g>
<g style="fill-opacity: 1.0;stroke-width: 1.000000;stroke-opacity: 1;stroke-linecap: round;stroke-linejoin: round">
<circle cx="148755100.000000" cy="101828600.000000" r="1041400.000000"/> 
</g>
</g> 
</g><g id="substrate-copper" style="fill:#417e5a; stroke:#417e5a;"><g style="fill-opacity: 0.0;stroke-width: 0.000000;stroke-opacity: 1;stroke-linecap: round;stroke-linejoin: round">
<g style="fill-opacity: 1.0;stroke-width: 1.000000;stroke-opacity: 1;stroke-linecap: round;stroke-linejoin: round">
<path style="fill-opacity: 1.0;stroke-width: 1.000000;stroke-opacity: 1;stroke-linecap: round;stroke-linejoin: round;fill-rule: evenodd" d="M 138163301.000000,97713801.000000 140042899.000000,97713801.000000 140042899.000000,99593399.000000 138163301.000000,99593399.000000 Z"/> 
<circle cx="139103100.000000" cy="101193600.000000" r="939800.000000"/> 
</g>
<g style="fill-opacity: 1.0;stroke-width: 1.000000;stroke-opacity: 1;stroke-linecap: round;stroke-linejoin: round">
<circle cx="139103100.000000" cy="103733600.000000" r="939800.000000"/> 
</g>
<g style="fill-opacity: 1.0;stroke-width: 1.000000;stroke-opacity: 1;stroke-linecap: round;stroke-linejoin: round">
<circle cx="139103100.000000" cy="106273600.000000" r="939800.000000"/> 
</g>
<g style="fill-opacity: 1.0;stroke-width: 1.000000;stroke-opacity: 1;stroke-linecap: round;stroke-linejoin: round">
<circle cx="139103100.000000" cy="108813600.000000" r="939800.000000"/> 
</g>
<g style="fill-opacity: 1.0;stroke-width: 1.000000;stroke-opacity: 1;stroke-linecap: round;stroke-linejoin: round">
<circle cx="139103100.000000" cy="111353600.000000" r="939800.000000"/> 
</g>
<g style="fill-opacity: 1.0;stroke-width: 1.000000;stroke-opacity: 1;stroke-linecap: round;stroke-linejoin: round">
<circle cx="146215100.000000" cy="108178600.000000" r="939800.000000"/> 
</g>
<g style="fill-opacity: 1.0;stroke-width: 1.000000;stroke-opacity: 1;stroke-linecap: round;stroke-linejoin: round">
<circle cx="148755100.000000" cy="106908600.000000" r="939800.000000"/> 
</g>
<g style="fill-opacity: 1.0;stroke-width: 1.000000;stroke-opacity: 1;stroke-linecap: round;stroke-linejoin: round">
<circle cx="146215100.000000" cy="105638600.000000" r="939800.000000"/> 
</g>
<g style="fill-opacity: 1.0;stroke-width: 1.000000;stroke-opacity: 1;stroke-linecap: round;stroke-linejoin: round">
<circle cx="148755100.000000" cy="104368600.000000" r="939800.000000"/> 
</g>
<g style="fill-opacity: 1.0;stroke-width: 1.000000;stroke-opacity: 1;stroke-linecap: round;stroke-linejoin: round">
<circle cx="146215100.000000" cy="103098600.000000" r="939800.000000"/> 
</g>
<g style="fill-opacity: 1.0;stroke-width: 1.000000;stroke-opacity: 1;stroke-linecap: round;stroke-linejoin: round">
<circle cx="148755100.000000" cy="101828600.000000" r="939800.000000"/> 
</g>
<g style="fill-opacity: 0.0;stroke-width: 254000.000000;stroke-opacity: 1;stroke-linecap: round;stroke-linejoin: round">
<path d="M142278100 104241600 L142278100 100050600 "/>
<path d="M146215100 108178600 L142278100 104241600 "/>
<path d="M142278100 100050600 L140881100 98653600 "/>
<path d="M140881100 98653600 L139103100 98653600 "/>
<path d="M140373100 110083600 L146469100 110083600 "/>
<path d="M147485100 109067600 L147485100 104368600 "/>
<path d="M146469100 110083600 L147485100 109067600 "/>
<path d="M147485100 104368600 L146215100 103098600 "/>
<path d="M139103100 108813600 L140373100 110083600 "/>
<path d="M147866100 111353600 L150406100 108813600 "/>
<path d="M150406100 103479600 L148755100 101828600 "/>
<path d="M139103100 111353600 L147866100 111353600 "/>
<path d="M150406100 108813600 L150406100 103479600 "/>
</g>
</g> 
</g><g id="substrate-pads" style="fill:#b5ae30; stroke:#b5ae30;" mask="url(#pads-mask)"><g style="fill-opacity: 0.0;stroke-width: 0.000000;stroke-opacity: 1;stroke-linecap: round;stroke-linejoin: round">
<g style="fill-opacity: 1.0;stroke-width: 1.000000;stroke-opacity: 1;stroke-linecap: round;stroke-linejoin: round">
<path style="fill-opacity: 1.0;stroke-width: 1.000000;stroke-opacity: 1;stroke-linecap: round;stroke-linejoin: round;fill-rule: evenodd" d="M 138163301.000000,97713801.000000 140042899.000000,97713801.000000 140042899.000000,99593399.000000 138163301.000000,99593399.000000 Z"/> 
<circle cx="139103100.000000" cy="101193600.000000" r="939800.000000"/> 
</g>
<g style="fill-opacity: 1.0;stroke-width: 1.000000;stroke-opacity: 1;stroke-linecap: round;stroke-linejoin: round">
<circle cx="139103100.000000" cy="103733600.000000" r="939800.000000"/> 
</g>
<g style="fill-opacity: 1.0;stroke-width: 1.000000;stroke-opacity: 1;stroke-linecap: round;stroke-linejoin: round">
<circle cx="139103100.000000" cy="106273600.000000" r="939800.000000"/> 
</g>
<g style="fill-opacity: 1.0;stroke-width: 1.000000;stroke-opacity: 1;stroke-linecap: round;stroke-linejoin: round">
<circle cx="139103100.000000" cy="108813600.000000" r="939800.000000"/> 
</g>
<g style="fill-opacity: 1.0;stroke-width: 1.000000;stroke-opacity: 1;stroke-linecap: round;stroke-linejoin: round">
<circle cx="139103100.000000" cy="111353600.000000" r="939800.000000"/> 
</g>
<g style="fill-opacity: 1.0;stroke-width: 1.000000;stroke-opacity: 1;stroke-linecap: round;stroke-linejoin: round">
<circle cx="146215100.000000" cy="108178600.000000" r="939800.000000"/> 
</g>
<g style="fill-opacity: 1.0;stroke-width: 1.000000;stroke-opacity: 1;stroke-linecap: round;stroke-linejoin: round">
<circle cx="148755100.000000" cy="106908600.000000" r="939800.000000"/> 
</g>
<g style="fill-opacity: 1.0;stroke-width: 1.000000;stroke-opacity: 1;stroke-linecap: round;stroke-linejoin: round">
<circle cx="146215100.000000" cy="105638600.000000" r="939800.000000"/> 
</g>
<g style="fill-opacity: 1.0;stroke-width: 1.000000;stroke-opacity: 1;stroke-linecap: round;stroke-linejoin: round">
<circle cx="148755100.000000" cy="104368600.000000" r="939800.000000"/> 
</g>
<g style="fill-opacity: 1.0;stroke-width: 1.000000;stroke-opacity: 1;stroke-linecap: round;stroke-linejoin: round">
<circle cx="146215100.000000" cy="103098600.000000" r="939800.000000"/> 
</g>
<g style="fill-opacity: 1.0;stroke-width: 1.000000;stroke-opacity: 1;stroke-linecap: round;stroke-linejoin: round">
<circle cx="148755100.000000" cy="101828600.000000" r="939800.000000"/> 
</g>
<g style="fill-opacity: 0.0;stroke-width: 254000.000000;stroke-opacity: 1;stroke-linecap: round;stroke-linejoin: round">
<path d="M142278100 104241600 L142278100 100050600 "/>
<path d="M146215100 108178600 L142278100 104241600 "/>
<path d="M142278100 100050600 L140881100 98653600 "/>
<path d="M140881100 98653600 L139103100 98653600 "/>
<path d="M140373100 110083600 L146469100 110083600 "/>
<path d="M147485100 109067600 L147485100 104368600 "/>
<path d="M146469100 110083600 L147485100 109067600 "/>
<path d="M147485100 104368600 L146215100 103098600 "/>
<path d="M139103100 108813600 L140373100 110083600 "/>
<path d="M147866100 111353600 L150406100 108813600 "/>
<path d="M150406100 103479600 L148755100 101828600 "/>
<path d="M139103100 111353600 L147866100 111353600 "/>
<path d="M150406100 108813600 L150406100 103479600 "/>
</g>
</g> 
</g><g id="substrate-silk" style="fill:#f0f0f0; stroke:#f0f0f0;" mask="url(#pads-mask-silkscreen)"><g style="fill-opacity: 0.0;stroke-width: 127000.000000;stroke-opacity: 1;stroke-linecap: round;stroke-linejoin: round">
<path d="M136563100 98653600 L136563100 97383600 "/>
<path d="M142151100 97383600 L136563100 97383600 "/>
<path d="M142151100 112623600 L142151100 97383600 "/>
<path d="M136563100 98653600 L137833100 98653600 "/>
<path d="M137833100 98653600 L137833100 111353600 "/>
<path d="M136563100 111353600 L136563100 98653600 "/>
<path d="M142151100 112623600 L136563100 112623600 "/>
<path d="M136563100 112623600 L136563100 111353600 "/>
<path d="M137833100 111353600 L136563100 111353600 "/>
</g>
<g style="fill-opacity: 0.0;stroke-width: 203200.000000;stroke-opacity: 1;stroke-linecap: round;stroke-linejoin: round">
<path d="M144691100 98145600 L144691100 111861600 "/>
<path d="M160312100 98145600 L144691100 98145600 "/>
<path d="M144691100 111861600 L160312100 111861600 "/>
<path d="M160312100 98145600 L160312100 111861600 "/>
</g> 
</g><g id="substrate-outline" style="fill:#000000; stroke:#000000; stroke-width: 150000"><g style="fill-opacity: 0.0;stroke-opacity: 1;stroke-linecap: round;stroke-linejoin: round">
<path d="M136436100 112750600 L160566100 112750600 "/>
<path d="M160566100 112750600 L160566100 97256600 "/>
<path d="M160566100 97256600 L136436100 97256600 "/>
<path d="M136436100 97256600 L136436100 112750600 "/>
</g> 
<path d="M -508000.0 0.0 A 508000.0 508000.0 0 1 1 508000.0 0.0 L 508000.0 0.0 A 508000.0 508000.0 0 1 1 -508000.0 0.0 Z" transform="translate(139103100 98653600) rotate(-270.0)"/><path d="M -508000.0 0.0 A 508000.0 508000.0 0 1 1 508000.0 0.0 L 508000.0 0.0 A 508000.0 508000.0 0 1 1 -508000.0 0.0 Z" transform="translate(139103100 101193600) rotate(-270.0)"/><path d="M -508000.0 0.0 A 508000.0 508000.0 0 1 1 508000.0 0.0 L 508000.0 0.0 A 508000.0 508000.0 0 1 1 -508000.0 0.0 Z" transform="translate(139103100 103733600) rotate(-270.0)"/><path d="M -508000.0 0.0 A 508000.0 508000.0 0 1 1 508000.0 0.0 L 508000.0 0.0 A 508000.0 508000.0 0 1 1 -508000.0 0.0 Z" transform="translate(139103100 106273600) rotate(-270.0)"/><path d="M -508000.0 0.0 A 508000.0 508000.0 0 1 1 508000.0 0.0 L 508000.0 0.0 A 508000.0 508000.0 0 1 1 -508000.0 0.0 Z" transform="translate(139103100 108813600) rotate(-270.0)"/><path d="M -508000.0 0.0 A 508000.0 508000.0 0 1 1 508000.0 0.0 L 508000.0 0.0 A 508000.0 508000.0 0 1 1 -508000.0 0.0 Z" transform="translate(139103100 111353600) rotate(-270.0)"/><path d="M -1625600.0 0.0 A 1625600.0 1625600.0 0 1 1 1625600.0 0.0 L 1625600.0 0.0 A 1625600.0 1625600.0 0 1 1 -1625600.0 0.0 Z" transform="translate(155105100 110083600) rotate(-90.0)"/><path d="M -1625600.0 0.0 A 1625600.0 1625600.0 0 1 1 1625600.0 0.0 L 1625600.0 0.0 A 1625600.0 1625600.0 0 1 1 -1625600.0 0.0 Z" transform="translate(155105100 99923600) rotate(-90.0)"/><path d="M -508000.0 0.0 A 508000.0 508000.0 0 1 1 508000.0 0.0 L 508000.0 0.0 A 508000.0 508000.0 0 1 1 -508000.0 0.0 Z" transform="translate(146215100 108178600) rotate(-90.0)"/><path d="M -508000.0 0.0 A 508000.0 508000.0 0 1 1 508000.0 0.0 L 508000.0 0.0 A 508000.0 508000.0 0 1 1 -508000.0 0.0 Z" transform="translate(148755100 106908600) rotate(-90.0)"/><path d="M -508000.0 0.0 A 508000.0 508000.0 0 1 1 508000.0 0.0 L 508000.0 0.0 A 508000.0 508000.0 0 1 1 -508000.0 0.0 Z" transform="translate(146215100 105638600) rotate(-90.0)"/><path d="M -508000.0 0.0 A 508000.0 508000.0 0 1 1 508000.0 0.0 L 508000.0 0.0 A 508000.0 508000.0 0 1 1 -508000.0 0.0 Z" transform="translate(148755100 104368600) rotate(-90.0)"/><path d="M -508000.0 0.0 A 508000.0 508000.0 0 1 1 508000.0 0.0 L 508000.0 0.0 A 508000.0 508000.0 0 1 1 -508000.0 0.0 Z" transform="translate(146215100 103098600) rotate(-90.0)"/><path d="M -508000.0 0.0 A 508000.0 508000.0 0 1 1 508000.0 0.0 L 508000.0 0.0 A 508000.0 508000.0 0 1 1 -508000.0 0.0 Z" transform="translate(148755100 101828600) rotate(-90.0)"/></g></g></g></svg>