<!DOCTYPE svg PUBLIC "-//W3C//DTD SVG 1.1//EN" "http://www.w3.org/Graphics/SVG/1.1/DTD/svg11.dtd">
<svg xmlns="http://www.w3.org/2000/svg" version="1.1" width="27.4mm" height="24.86mm" viewBox="-16220110.0 9257360.0 2740000.0 2486000.0">
            <title>Picture generated by PcbDraw </title>
            <desc>Picture generated by PcbDraw</desc>
        <defs><clipPath id="cut-off"><path d=" M 13580110.0 9357360.0 L 13580110.0 11643360.0 L 16120110.0 11643360.0 L 16120110.0 9357360.0 L 13580110.0 9357360.0 " style="fill-rule: evenodd;"/></clipPath><mask id="pads-mask"><g style="fill:#ffffff; fill-opacity:0.0;  stroke:#ffffff; stroke-width:0.000000; stroke-opacity:1;  stroke-linecap:round; stroke-linejoin:round;">
<g style="fill:#ffffff; fill-opacity:1.0;  stroke:#ffffff; stroke-width:0.100000; stroke-opacity:1;  stroke-linecap:round; stroke-linejoin:round;">
<circle cx="15993110.000000" cy="11516360.000000" r="104140.000000"/> 
</g>
<g style="fill:#ffffff; fill-opacity:1.0;  stroke:#ffffff; stroke-width:0.100000; stroke-opacity:1;  stroke-linecap:round; stroke-linejoin:round;">
<circle cx="15739110.000000" cy="11516360.000000" r="104140.000000"/> 
</g>
<g style="fill:#ffffff; fill-opacity:1.0;  stroke:#ffffff; stroke-width:0.100000; stroke-opacity:1;  stroke-linecap:round; stroke-linejoin:round;">
<circle cx="15485110.000000" cy="11516360.000000" r="104140.000000"/> 
</g>
<g style="fill:#ffffff; fill-opacity:1.0;  stroke:#ffffff; stroke-width:0.100000; stroke-opacity:1;  stroke-linecap:round; stroke-linejoin:round;">
<circle cx="15231110.000000" cy="11516360.000000" r="104140.000000"/> 
</g>
<g style="fill:#ffffff; fill-opacity:1.0;  stroke:#ffffff; stroke-width:0.100000; stroke-opacity:1;  stroke-linecap:round; stroke-linejoin:round;">
<circle cx="14977110.000000" cy="11516360.000000" r="104140.000000"/> 
</g>
<g style="fill:#ffffff; fill-opacity:1.0;  stroke:#ffffff; stroke-width:0.100000; stroke-opacity:1;  stroke-linecap:round; stroke-linejoin:round;">
<circle cx="14723110.000000" cy="11516360.000000" r="104140.000000"/> 
</g>
<g style="fill:#ffffff; fill-opacity:1.0;  stroke:#ffffff; stroke-width:0.100000; stroke-opacity:1;  stroke-linecap:round; stroke-linejoin:round;">
<circle cx="14469110.000000" cy="11516360.000000" r="104140.000000"/> 
</g>
<g style="fill:#ffffff; fill-opacity:1.0;  stroke:#ffffff; stroke-width:0.100000; stroke-opacity:1;  stroke-linecap:round; stroke-linejoin:round;">
<circle cx="14215110.000000" cy="11516360.000000" r="104140.000000"/> 
</g>
<g style="fill:#ffffff; fill-opacity:1.0;  stroke:#ffffff; stroke-width:0.100000; stroke-opacity:1;  stroke-linecap:round; stroke-linejoin:round;">
<circle cx="13961110.000000" cy="11516360.000000" r="104140.000000"/> 
</g>
<g style="fill:#ffffff; fill-opacity:1.0;  stroke:#ffffff; stroke-width:0.100000; stroke-opacity:1;  stroke-linecap:round; stroke-linejoin:round;">
<circle cx="13707110.000000" cy="11516360.000000" r="104140.000000"/> 
</g>
<g style="fill:#ffffff; fill-opacity:1.0;  stroke:#ffffff; stroke-width:0.100000; stroke-opacity:1;  stroke-linecap:round; stroke-linejoin:round;">
<circle cx="13707110.000000" cy="9484360.000000" r="104140.000000"/> 
</g>
<g style="fill:#ffffff; fill-opacity:1.0;  stroke:#ffffff; stroke-width:0.100000; stroke-opacity:1;  stroke-linecap:round; stroke-linejoin:round;">
<circle cx="13961110.000000" cy="9484360.000000" r="104140.000000"/> 
</g>
<g style="fill:#ffffff; fill-opacity:1.0;  stroke:#ffffff; stroke-width:0.100000; stroke-opacity:1;  stroke-linecap:round; stroke-linejoin:round;">
<circle cx="14215110.000000" cy="9484360.000000" r="104140.000000"/> 
</g>
<g style="fill:#ffffff; fill-opacity:1.0;  stroke:#ffffff; stroke-width:0.100000; stroke-opacity:1;  stroke-linecap:round; stroke-linejoin:round;">
<circle cx="14469110.000000" cy="9484360.000000" r="104140.000000"/> 
</g>
<g style="fill:#ffffff; fill-opacity:1.0;  stroke:#ffffff; stroke-width:0.100000; stroke-opacity:1;  stroke-linecap:round; stroke-linejoin:round;">
<circle cx="14723110.000000" cy="9484360.000000" r="104140.000000"/> 
</g>
<g style="fill:#ffffff; fill-opacity:1.0;  stroke:#ffffff; stroke-width:0.100000; stroke-opacity:1;  stroke-linecap:round; stroke-linejoin:round;">
<circle cx="14977110.000000" cy="9484360.000000" r="104140.000000"/> 
</g>
<g style="fill:#ffffff; fill-opacity:1.0;  stroke:#ffffff; stroke-width:0.100000; stroke-opacity:1;  stroke-linecap:round; stroke-linejoin:round;">
<circle cx="15231110.000000" cy="9484360.000000" r="104140.000000"/> 
</g>
<g style="fill:#ffffff; fill-opacity:1.0;  stroke:#ffffff; stroke-width:0.100000; stroke-opacity:1;  stroke-linecap:round; stroke-linejoin:round;">
<circle cx="15485110.000000" cy="9484360.000000" r="104140.000000"/> 
</g>
<g style="fill:#ffffff; fill-opacity:1.0;  stroke:#ffffff; stroke-width:0.100000; stroke-opacity:1;  stroke-linecap:round; stroke-linejoin:round;">
<circle cx="15739110.000000" cy="9484360.000000" r="104140.000000"/> 
</g>
<g style="fill:#ffffff; fill-opacity:1.0;  stroke:#ffffff; stroke-width:0.100000; stroke-opacity:1;  stroke-linecap:round; stroke-linejoin:round;">
<circle cx="15993110.000000" cy="9484360.000000" r="104140.000000"/> 
</g>
</g> 
</mask><mask id="pads-mask-silkscreen"><rect x="10778784.4" y="9107932.0" width="10327301.3" height="4777930.5" fill="white"/><g style="fill:#000000; fill-opacity:0.0;  stroke:#000000; stroke-width:0.000000; stroke-opacity:1;  stroke-linecap:round; stroke-linejoin:round;">
<g style="fill:#000000; fill-opacity:1.0;  stroke:#000000; stroke-width:0.100000; stroke-opacity:1;  stroke-linecap:round; stroke-linejoin:round;">
<circle cx="15993110.000000" cy="11516360.000000" r="104140.000000"/> 
</g>
<g style="fill:#000000; fill-opacity:1.0;  stroke:#000000; stroke-width:0.100000; stroke-opacity:1;  stroke-linecap:round; stroke-linejoin:round;">
<circle cx="15739110.000000" cy="11516360.000000" r="104140.000000"/> 
</g>
<g style="fill:#000000; fill-opacity:1.0;  stroke:#000000; stroke-width:0.100000; stroke-opacity:1;  stroke-linecap:round; stroke-linejoin:round;">
<circle cx="15485110.000000" cy="11516360.000000" r="104140.000000"/> 
</g>
<g style="fill:#000000; fill-opacity:1.0;  stroke:#000000; stroke-width:0.100000; stroke-opacity:1;  stroke-linecap:round; stroke-linejoin:round;">
<circle cx="15231110.000000" cy="11516360.000000" r="104140.000000"/> 
</g>
<g style="fill:#000000; fill-opacity:1.0;  stroke:#000000; stroke-width:0.100000; stroke-opacity:1;  stroke-linecap:round; stroke-linejoin:round;">
<circle cx="14977110.000000" cy="11516360.000000" r="104140.000000"/> 
</g>
<g style="fill:#000000; fill-opacity:1.0;  stroke:#000000; stroke-width:0.100000; stroke-opacity:1;  stroke-linecap:round; stroke-linejoin:round;">
<circle cx="14723110.000000" cy="11516360.000000" r="104140.000000"/> 
</g>
<g style="fill:#000000; fill-opacity:1.0;  stroke:#000000; stroke-width:0.100000; stroke-opacity:1;  stroke-linecap:round; stroke-linejoin:round;">
<circle cx="14469110.000000" cy="11516360.000000" r="104140.000000"/> 
</g>
<g style="fill:#000000; fill-opacity:1.0;  stroke:#000000; stroke-width:0.100000; stroke-opacity:1;  stroke-linecap:round; stroke-linejoin:round;">
<circle cx="14215110.000000" cy="11516360.000000" r="104140.000000"/> 
</g>
<g style="fill:#000000; fill-opacity:1.0;  stroke:#000000; stroke-width:0.100000; stroke-opacity:1;  stroke-linecap:round; stroke-linejoin:round;">
<circle cx="13961110.000000" cy="11516360.000000" r="104140.000000"/> 
</g>
<g style="fill:#000000; fill-opacity:1.0;  stroke:#000000; stroke-width:0.100000; stroke-opacity:1;  stroke-linecap:round; stroke-linejoin:round;">
<circle cx="13707110.000000" cy="11516360.000000" r="104140.000000"/> 
</g>
<g style="fill:#000000; fill-opacity:1.0;  stroke:#000000; stroke-width:0.100000; stroke-opacity:1;  stroke-linecap:round; stroke-linejoin:round;">
<circle cx="13707110.000000" cy="9484360.000000" r="104140.000000"/> 
</g>
<g style="fill:#000000; fill-opacity:1.0;  stroke:#000000; stroke-width:0.100000; stroke-opacity:1;  stroke-linecap:round; stroke-linejoin:round;">
<circle cx="13961110.000000" cy="9484360.000000" r="104140.000000"/> 
</g>
<g style="fill:#000000; fill-opacity:1.0;  stroke:#000000; stroke-width:0.100000; stroke-opacity:1;  stroke-linecap:round; stroke-linejoin:round;">
<circle cx="14215110.000000" cy="9484360.000000" r="104140.000000"/> 
</g>
<g style="fill:#000000; fill-opacity:1.0;  stroke:#000000; stroke-width:0.100000; stroke-opacity:1;  stroke-linecap:round; stroke-linejoin:round;">
<circle cx="14469110.000000" cy="9484360.000000" r="104140.000000"/> 
</g>
<g style="fill:#000000; fill-opacity:1.0;  stroke:#000000; stroke-width:0.100000; stroke-opacity:1;  stroke-linecap:round; stroke-linejoin:round;">
<circle cx="14723110.000000" cy="9484360.000000" r="104140.000000"/> 
</g>
<g style="fill:#000000; fill-opacity:1.0;  stroke:#000000; stroke-width:0.100000; stroke-opacity:1;  stroke-linecap:round; stroke-linejoin:round;">
<circle cx="14977110.000000" cy="9484360.000000" r="104140.000000"/> 
</g>
<g style="fill:#000000; fill-opacity:1.0;  stroke:#000000; stroke-width:0.100000; stroke-opacity:1;  stroke-linecap:round; stroke-linejoin:round;">
<circle cx="15231110.000000" cy="9484360.000000" r="104140.000000"/> 
</g>
<g style="fill:#000000; fill-opacity:1.0;  stroke:#000000; stroke-width:0.100000; stroke-opacity:1;  stroke-linecap:round; stroke-linejoin:round;">
<circle cx="15485110.000000" cy="9484360.000000" r="104140.000000"/> 
</g>
<g style="fill:#000000; fill-opacity:1.0;  stroke:#000000; stroke-width:0.100000; stroke-opacity:1;  stroke-linecap:round; stroke-linejoin:round;">
<circle cx="15739110.000000" cy="9484360.000000" r="104140.000000"/> 
</g>
<g style="fill:#000000; fill-opacity:1.0;  stroke:#000000; stroke-width:0.100000; stroke-opacity:1;  stroke-linecap:round; stroke-linejoin:round;">
<circle cx="15993110.000000" cy="9484360.000000" r="104140.000000"/> 
</g>
</g> 
</mask><mask id="hole-mask"><g><rect x="10778784.4" y="9107932.0" fill="white" width="10327301.3" height="4777930.5"/><polyline stroke-linecap="round" stroke="black" stroke-width="101600.0" points="-0.0 0 0.0 0" transform="translate(15993110.0 11516360.0) rotate(-270.0)"/><polyline stroke-linecap="round" stroke="black" stroke-width="101600.0" points="-0.0 0 0.0 0" transform="translate(15739110.0 11516360.0) rotate(-270.0)"/><polyline stroke-linecap="round" stroke="black" stroke-width="101600.0" points="-0.0 0 0.0 0" transform="translate(15485110.0 11516360.0) rotate(-270.0)"/><polyline stroke-linecap="round" stroke="black" stroke-width="101600.0" points="-0.0 0 0.0 0" transform="translate(15231110.0 11516360.0) rotate(-270.0)"/><polyline stroke-linecap="round" stroke="black" stroke-width="101600.0" points="-0.0 0 0.0 0" transform="translate(14977110.0 11516360.0) rotate(-270.0)"/><polyline stroke-linecap="round" stroke="black" stroke-width="101600.0" points="-0.0 0 0.0 0" transform="translate(14723110.0 11516360.0) rotate(-270.0)"/><polyline stroke-linecap="round" stroke="black" stroke-width="101600.0" points="-0.0 0 0.0 0" transform="translate(14469110.0 11516360.0) rotate(-270.0)"/><polyline stroke-linecap="round" stroke="black" stroke-width="101600.0" points="-0.0 0 0.0 0" transform="translate(14215110.0 11516360.0) rotate(-270.0)"/><polyline stroke-linecap="round" stroke="black" stroke-width="101600.0" points="-0.0 0 0.0 0" transform="translate(13961110.0 11516360.0) rotate(-270.0)"/><polyline stroke-linecap="round" stroke="black" stroke-width="101600.0" points="-0.0 0 0.0 0" transform="translate(13707110.0 11516360.0) rotate(-270.0)"/><polyline stroke-linecap="round" stroke="black" stroke-width="101600.0" points="-0.0 0 0.0 0" transform="translate(13707110.0 9484360.0) rotate(-90.0)"/><polyline stroke-linecap="round" stroke="black" stroke-width="101600.0" points="-0.0 0 0.0 0" transform="translate(13961110.0 9484360.0) rotate(-90.0)"/><polyline stroke-linecap="round" stroke="black" stroke-width="101600.0" points="-0.0 0 0.0 0" transform="translate(14215110.0 9484360.0) rotate(-90.0)"/><polyline stroke-linecap="round" stroke="black" stroke-width="101600.0" points="-0.0 0 0.0 0" transform="translate(14469110.0 9484360.0) rotate(-90.0)"/><polyline stroke-linecap="round" stroke="black" stroke-width="101600.0" points="-0.0 0 0.0 0" transform="translate(14723110.0 9484360.0) rotate(-90.0)"/><polyline stroke-linecap="round" stroke="black" stroke-width="101600.0" points="-0.0 0 0.0 0" transform="translate(14977110.0 9484360.0) rotate(-90.0)"/><polyline stroke-linecap="round" stroke="black" stroke-width="101600.0" points="-0.0 0 0.0 0" transform="translate(15231110.0 9484360.0) rotate(-90.0)"/><polyline stroke-linecap="round" stroke="black" stroke-width="101600.0" points="-0.0 0 0.0 0" transform="translate(15485110.0 9484360.0) rotate(-90.0)"/><polyline stroke-linecap="round" stroke="black" stroke-width="101600.0" points="-0.0 0 0.0 0" transform="translate(15739110.0 9484360.0) rotate(-90.0)"/><polyline stroke-linecap="round" stroke="black" stroke-width="101600.0" points="-0.0 0 0.0 0" transform="translate(15993110.0 9484360.0) rotate(-90.0)"/><polyline stroke-linecap="round" stroke="black" stroke-width="50800.0" points="-0.0 0 0.0 0" transform="translate(14024610.0 10055860.0) rotate(0.0)"/><polyline stroke-linecap="round" stroke="black" stroke-width="50800.0" points="-0.0 0 0.0 0" transform="translate(15866110.0 10957560.0) rotate(0.0)"/><polyline stroke-linecap="round" stroke="black" stroke-width="50800.0" points="-0.0 0 0.0 0" transform="translate(14659610.0 10182860.0) rotate(0.0)"/><polyline stroke-linecap="round" stroke="black" stroke-width="50800.0" points="-0.0 0 0.0 0" transform="translate(14024610.0 10309860.0) rotate(0.0)"/><polyline stroke-linecap="round" stroke="black" stroke-width="50800.0" points="-0.0 0 0.0 0" transform="translate(15294610.0 10817860.0) rotate(0.0)"/><polyline stroke-linecap="round" stroke="black" stroke-width="50800.0" points="-0.0 0 0.0 0" transform="translate(14278610.0 10817860.0) rotate(0.0)"/><polyline stroke-linecap="round" stroke="black" stroke-width="50800.0" points="-0.0 0 0.0 0" transform="translate(15294610.0 10182860.0) rotate(0.0)"/><polyline stroke-linecap="round" stroke="black" stroke-width="50800.0" points="-0.0 0 0.0 0" transform="translate(14659610.0 10817860.0) rotate(0.0)"/><polyline stroke-linecap="round" stroke="black" stroke-width="50800.0" points="-0.0 0 0.0 0" transform="translate(15332710.0 10957560.0) rotate(0.0)"/><polyline stroke-linecap="round" stroke="black" stroke-width="50800.0" points="-0.0 0 0.0 0" transform="translate(14469110.0 10690860.0) rotate(0.0)"/></g></mask></defs><g transform="scale(-1,1)" id="boardContainer"><g id="substrate" clip-path="url(#cut-off)" mask="url(#hole-mask)"><g id="substrate-board" style="fill:#4ca06c; stroke:#4ca06c;"><path d=" M 13580110.0 9357360.0 L 13580110.0 11643360.0 L 16120110.0 11643360.0 L 16120110.0 9357360.0 L 13580110.0 9357360.0 " style="fill-rule: evenodd;"/><g style="fill-opacity: 0.0;stroke-width: 20320.000000;stroke-opacity: 1;stroke-linecap: round;stroke-linejoin: round">
<path d="M16120110 9357360 L13580110 9357360 "/>
<path d="M16120110 11643360 L16120110 9357360 "/>
<path d="M13580110 9357360 L13580110 11643360 "/>
<path d="M13580110 11643360 L16120110 11643360 "/>
</g> 
</g><g id="substrate-clad" style="fill:#9c6b28; stroke:#9c6b28;"><g style="fill-opacity: 0.0;stroke-width: 0.000000;stroke-opacity: 1;stroke-linecap: round;stroke-linejoin: round">
<g style="fill-opacity: 1.0;stroke-width: 0.100000;stroke-opacity: 1;stroke-linecap: round;stroke-linejoin: round">
<circle cx="15993110.000000" cy="11516360.000000" r="104140.000000"/> 
</g>
<g style="fill-opacity: 1.0;stroke-width: 0.100000;stroke-opacity: 1;stroke-linecap: round;stroke-linejoin: round">
<circle cx="15739110.000000" cy="11516360.000000" r="104140.000000"/> 
</g>
<g style="fill-opacity: 1.0;stroke-width: 0.100000;stroke-opacity: 1;stroke-linecap: round;stroke-linejoin: round">
<circle cx="15485110.000000" cy="11516360.000000" r="104140.000000"/> 
</g>
<g style="fill-opacity: 1.0;stroke-width: 0.100000;stroke-opacity: 1;stroke-linecap: round;stroke-linejoin: round">
<circle cx="15231110.000000" cy="11516360.000000" r="104140.000000"/> 
</g>
<g style="fill-opacity: 1.0;stroke-width: 0.100000;stroke-opacity: 1;stroke-linecap: round;stroke-linejoin: round">
<circle cx="14977110.000000" cy="11516360.000000" r="104140.000000"/> 
</g>
<g style="fill-opacity: 1.0;stroke-width: 0.100000;stroke-opacity: 1;stroke-linecap: round;stroke-linejoin: round">
<circle cx="14723110.000000" cy="11516360.000000" r="104140.000000"/> 
</g>
<g style="fill-opacity: 1.0;stroke-width: 0.100000;stroke-opacity: 1;stroke-linecap: round;stroke-linejoin: round">
<circle cx="14469110.000000" cy="11516360.000000" r="104140.000000"/> 
</g>
<g style="fill-opacity: 1.0;stroke-width: 0.100000;stroke-opacity: 1;stroke-linecap: round;stroke-linejoin: round">
<circle cx="14215110.000000" cy="11516360.000000" r="104140.000000"/> 
</g>
<g style="fill-opacity: 1.0;stroke-width: 0.100000;stroke-opacity: 1;stroke-linecap: round;stroke-linejoin: round">
<circle cx="13961110.000000" cy="11516360.000000" r="104140.000000"/> 
</g>
<g style="fill-opacity: 1.0;stroke-width: 0.100000;stroke-opacity: 1;stroke-linecap: round;stroke-linejoin: round">
<circle cx="13707110.000000" cy="11516360.000000" r="104140.000000"/> 
</g>
<g style="fill-opacity: 1.0;stroke-width: 0.100000;stroke-opacity: 1;stroke-linecap: round;stroke-linejoin: round">
<circle cx="13707110.000000" cy="9484360.000000" r="104140.000000"/> 
</g>
<g style="fill-opacity: 1.0;stroke-width: 0.100000;stroke-opacity: 1;stroke-linecap: round;stroke-linejoin: round">
<circle cx="13961110.000000" cy="9484360.000000" r="104140.000000"/> 
</g>
<g style="fill-opacity: 1.0;stroke-width: 0.100000;stroke-opacity: 1;stroke-linecap: round;stroke-linejoin: round">
<circle cx="14215110.000000" cy="9484360.000000" r="104140.000000"/> 
</g>
<g style="fill-opacity: 1.0;stroke-width: 0.100000;stroke-opacity: 1;stroke-linecap: round;stroke-linejoin: round">
<circle cx="14469110.000000" cy="9484360.000000" r="104140.000000"/> 
</g>
<g style="fill-opacity: 1.0;stroke-width: 0.100000;stroke-opacity: 1;stroke-linecap: round;stroke-linejoin: round">
<circle cx="14723110.000000" cy="9484360.000000" r="104140.000000"/> 
</g>
<g style="fill-opacity: 1.0;stroke-width: 0.100000;stroke-opacity: 1;stroke-linecap: round;stroke-linejoin: round">
<circle cx="14977110.000000" cy="9484360.000000" r="104140.000000"/> 
</g>
<g style="fill-opacity: 1.0;stroke-width: 0.100000;stroke-opacity: 1;stroke-linecap: round;stroke-linejoin: round">
<circle cx="15231110.000000" cy="9484360.000000" r="104140.000000"/> 
</g>
<g style="fill-opacity: 1.0;stroke-width: 0.100000;stroke-opacity: 1;stroke-linecap: round;stroke-linejoin: round">
<circle cx="15485110.000000" cy="9484360.000000" r="104140.000000"/> 
</g>
<g style="fill-opacity: 1.0;stroke-width: 0.100000;stroke-opacity: 1;stroke-linecap: round;stroke-linejoin: round">
<circle cx="15739110.000000" cy="9484360.000000" r="104140.000000"/> 
</g>
<g style="fill-opacity: 1.0;stroke-width: 0.100000;stroke-opacity: 1;stroke-linecap: round;stroke-linejoin: round">
<circle cx="15993110.000000" cy="9484360.000000" r="104140.000000"/> 
</g>
</g> 
</g><g id="substrate-copper" style="fill:#417e5a; stroke:#417e5a;"><g style="fill-opacity: 0.0;stroke-width: 15240.000000;stroke-opacity: 1;stroke-linecap: round;stroke-linejoin: round">
<g transform="rotate(90.000000 16069310.000000 9649460.000000)">
<text x="16069310.000000" y="9710420.000000" transform="scale(-1 1) translate(-32138620.000000 0)" textLength="162559.900000" font-size="81280.000000" lengthAdjust="spacingAndGlyphs" text-anchor="end" opacity="0">v15</text>
</g>
<g class="stroked-text"><desc>v15</desc>
<path d="M16051892 9813217 L16011252 9798703 L16051892 9784188 "/>
<path d="M16011252 9729034 L16011252 9763868 "/>
<path d="M16011252 9746451 L16072212 9746451 L16063504 9752257 L16057698 9758063 L16054795 9763868 "/>
<path d="M16072212 9673880 L16072212 9702908 L16043184 9705811 L16046087 9702908 L16048990 9697103 L16048990 9682588 L16046087 9676783 L16043184 9673880 L16037378 9670977 L16022864 9670977 L16017058 9673880 L16014155 9676783 L16011252 9682588 L16011252 9697103 L16014155 9702908 L16017058 9705811 "/>
</g><g style="fill-opacity: 1.0;stroke-width: 0.100000;stroke-opacity: 1;stroke-linecap: round;stroke-linejoin: round">
<circle cx="15993110.000000" cy="11516360.000000" r="93980.000000"/> 
</g>
<g style="fill-opacity: 1.0;stroke-width: 0.100000;stroke-opacity: 1;stroke-linecap: round;stroke-linejoin: round">
<circle cx="15739110.000000" cy="11516360.000000" r="93980.000000"/> 
</g>
<g style="fill-opacity: 1.0;stroke-width: 0.100000;stroke-opacity: 1;stroke-linecap: round;stroke-linejoin: round">
<circle cx="15485110.000000" cy="11516360.000000" r="93980.000000"/> 
</g>
<g style="fill-opacity: 1.0;stroke-width: 0.100000;stroke-opacity: 1;stroke-linecap: round;stroke-linejoin: round">
<circle cx="15231110.000000" cy="11516360.000000" r="93980.000000"/> 
</g>
<g style="fill-opacity: 1.0;stroke-width: 0.100000;stroke-opacity: 1;stroke-linecap: round;stroke-linejoin: round">
<circle cx="14977110.000000" cy="11516360.000000" r="93980.000000"/> 
</g>
<g style="fill-opacity: 1.0;stroke-width: 0.100000;stroke-opacity: 1;stroke-linecap: round;stroke-linejoin: round">
<circle cx="14723110.000000" cy="11516360.000000" r="93980.000000"/> 
</g>
<g style="fill-opacity: 1.0;stroke-width: 0.100000;stroke-opacity: 1;stroke-linecap: round;stroke-linejoin: round">
<circle cx="14469110.000000" cy="11516360.000000" r="93980.000000"/> 
</g>
<g style="fill-opacity: 1.0;stroke-width: 0.100000;stroke-opacity: 1;stroke-linecap: round;stroke-linejoin: round">
<circle cx="14215110.000000" cy="11516360.000000" r="93980.000000"/> 
</g>
<g style="fill-opacity: 1.0;stroke-width: 0.100000;stroke-opacity: 1;stroke-linecap: round;stroke-linejoin: round">
<circle cx="13961110.000000" cy="11516360.000000" r="93980.000000"/> 
</g>
<g style="fill-opacity: 1.0;stroke-width: 0.100000;stroke-opacity: 1;stroke-linecap: round;stroke-linejoin: round">
<circle cx="13707110.000000" cy="11516360.000000" r="93980.000000"/> 
</g>
<g style="fill-opacity: 1.0;stroke-width: 0.100000;stroke-opacity: 1;stroke-linecap: round;stroke-linejoin: round">
<circle cx="13707110.000000" cy="9484360.000000" r="93980.000000"/> 
</g>
<g style="fill-opacity: 1.0;stroke-width: 0.100000;stroke-opacity: 1;stroke-linecap: round;stroke-linejoin: round">
<circle cx="13961110.000000" cy="9484360.000000" r="93980.000000"/> 
</g>
<g style="fill-opacity: 1.0;stroke-width: 0.100000;stroke-opacity: 1;stroke-linecap: round;stroke-linejoin: round">
<circle cx="14215110.000000" cy="9484360.000000" r="93980.000000"/> 
</g>
<g style="fill-opacity: 1.0;stroke-width: 0.100000;stroke-opacity: 1;stroke-linecap: round;stroke-linejoin: round">
<circle cx="14469110.000000" cy="9484360.000000" r="93980.000000"/> 
</g>
<g style="fill-opacity: 1.0;stroke-width: 0.100000;stroke-opacity: 1;stroke-linecap: round;stroke-linejoin: round">
<circle cx="14723110.000000" cy="9484360.000000" r="93980.000000"/> 
</g>
<g style="fill-opacity: 1.0;stroke-width: 0.100000;stroke-opacity: 1;stroke-linecap: round;stroke-linejoin: round">
<circle cx="14977110.000000" cy="9484360.000000" r="93980.000000"/> 
</g>
<g style="fill-opacity: 1.0;stroke-width: 0.100000;stroke-opacity: 1;stroke-linecap: round;stroke-linejoin: round">
<circle cx="15231110.000000" cy="9484360.000000" r="93980.000000"/> 
</g>
<g style="fill-opacity: 1.0;stroke-width: 0.100000;stroke-opacity: 1;stroke-linecap: round;stroke-linejoin: round">
<circle cx="15485110.000000" cy="9484360.000000" r="93980.000000"/> 
</g>
<g style="fill-opacity: 1.0;stroke-width: 0.100000;stroke-opacity: 1;stroke-linecap: round;stroke-linejoin: round">
<circle cx="15739110.000000" cy="9484360.000000" r="93980.000000"/> 
</g>
<g style="fill-opacity: 1.0;stroke-width: 0.100000;stroke-opacity: 1;stroke-linecap: round;stroke-linejoin: round">
<circle cx="15993110.000000" cy="9484360.000000" r="93980.000000"/> 
</g>
<g style="fill-opacity: 1.0;stroke-width: 0.100000;stroke-opacity: 1;stroke-linecap: round;stroke-linejoin: round">
<circle cx="14024610.000000" cy="10055860.000000" r="50800.000000"/> 
</g>
<g style="fill-opacity: 1.0;stroke-width: 0.100000;stroke-opacity: 1;stroke-linecap: round;stroke-linejoin: round">
<circle cx="15866110.000000" cy="10957560.000000" r="50800.000000"/> 
</g>
<g style="fill-opacity: 1.0;stroke-width: 0.100000;stroke-opacity: 1;stroke-linecap: round;stroke-linejoin: round">
<circle cx="14659610.000000" cy="10182860.000000" r="50800.000000"/> 
</g>
<g style="fill-opacity: 1.0;stroke-width: 0.100000;stroke-opacity: 1;stroke-linecap: round;stroke-linejoin: round">
<circle cx="14024610.000000" cy="10309860.000000" r="50800.000000"/> 
</g>
<g style="fill-opacity: 1.0;stroke-width: 0.100000;stroke-opacity: 1;stroke-linecap: round;stroke-linejoin: round">
<circle cx="15294610.000000" cy="10817860.000000" r="50800.000000"/> 
</g>
<g style="fill-opacity: 1.0;stroke-width: 0.100000;stroke-opacity: 1;stroke-linecap: round;stroke-linejoin: round">
<circle cx="14278610.000000" cy="10817860.000000" r="50800.000000"/> 
</g>
<g style="fill-opacity: 1.0;stroke-width: 0.100000;stroke-opacity: 1;stroke-linecap: round;stroke-linejoin: round">
<circle cx="15294610.000000" cy="10182860.000000" r="50800.000000"/> 
</g>
<g style="fill-opacity: 1.0;stroke-width: 0.100000;stroke-opacity: 1;stroke-linecap: round;stroke-linejoin: round">
<circle cx="14659610.000000" cy="10817860.000000" r="50800.000000"/> 
</g>
<g style="fill-opacity: 1.0;stroke-width: 0.100000;stroke-opacity: 1;stroke-linecap: round;stroke-linejoin: round">
<circle cx="15332710.000000" cy="10957560.000000" r="50800.000000"/> 
</g>
<g style="fill-opacity: 1.0;stroke-width: 0.100000;stroke-opacity: 1;stroke-linecap: round;stroke-linejoin: round">
<circle cx="14469110.000000" cy="10690860.000000" r="50800.000000"/> 
</g>
<g style="fill-opacity: 0.0;stroke-width: 25400.000000;stroke-opacity: 1;stroke-linecap: round;stroke-linejoin: round">
<path d="M15332710 10957560 L15485110 11109960 "/>
<path d="M15485110 11109960 L15485110 11516360 "/>
<path d="M14469110 10690860 L14151610 10690860 "/>
<path d="M13961110 10881360 L13961110 11516360 "/>
<path d="M14151610 10690860 L13961110 10881360 "/>
</g>
</g> 
</g><g id="substrate-pads" style="fill:#b5ae30; stroke:#b5ae30;" mask="url(#pads-mask)"><g style="fill-opacity: 0.0;stroke-width: 15240.000000;stroke-opacity: 1;stroke-linecap: round;stroke-linejoin: round">
<g transform="rotate(90.000000 16069310.000000 9649460.000000)">
<text x="16069310.000000" y="9710420.000000" transform="scale(-1 1) translate(-32138620.000000 0)" textLength="142748.000000" font-size="81280.000000" lengthAdjust="spacingAndGlyphs" text-anchor="end" opacity="0">v15</text>
</g>
<g class="stroked-text"><desc>v15</desc>
<path d="M16051892 9813217 L16011252 9798703 L16051892 9784188 "/>
<path d="M16011252 9729034 L16011252 9763868 "/>
<path d="M16011252 9746451 L16072212 9746451 L16063504 9752257 L16057698 9758063 L16054795 9763868 "/>
<path d="M16072212 9673880 L16072212 9702908 L16043184 9705811 L16046087 9702908 L16048990 9697103 L16048990 9682588 L16046087 9676783 L16043184 9673880 L16037378 9670977 L16022864 9670977 L16017058 9673880 L16014155 9676783 L16011252 9682588 L16011252 9697103 L16014155 9702908 L16017058 9705811 "/>
</g><g style="fill-opacity: 1.0;stroke-width: 0.100000;stroke-opacity: 1;stroke-linecap: round;stroke-linejoin: round">
<circle cx="15993110.000000" cy="11516360.000000" r="93980.000000"/> 
</g>
<g style="fill-opacity: 1.0;stroke-width: 0.100000;stroke-opacity: 1;stroke-linecap: round;stroke-linejoin: round">
<circle cx="15739110.000000" cy="11516360.000000" r="93980.000000"/> 
</g>
<g style="fill-opacity: 1.0;stroke-width: 0.100000;stroke-opacity: 1;stroke-linecap: round;stroke-linejoin: round">
<circle cx="15485110.000000" cy="11516360.000000" r="93980.000000"/> 
</g>
<g style="fill-opacity: 1.0;stroke-width: 0.100000;stroke-opacity: 1;stroke-linecap: round;stroke-linejoin: round">
<circle cx="15231110.000000" cy="11516360.000000" r="93980.000000"/> 
</g>
<g style="fill-opacity: 1.0;stroke-width: 0.100000;stroke-opacity: 1;stroke-linecap: round;stroke-linejoin: round">
<circle cx="14977110.000000" cy="11516360.000000" r="93980.000000"/> 
</g>
<g style="fill-opacity: 1.0;stroke-width: 0.100000;stroke-opacity: 1;stroke-linecap: round;stroke-linejoin: round">
<circle cx="14723110.000000" cy="11516360.000000" r="93980.000000"/> 
</g>
<g style="fill-opacity: 1.0;stroke-width: 0.100000;stroke-opacity: 1;stroke-linecap: round;stroke-linejoin: round">
<circle cx="14469110.000000" cy="11516360.000000" r="93980.000000"/> 
</g>
<g style="fill-opacity: 1.0;stroke-width: 0.100000;stroke-opacity: 1;stroke-linecap: round;stroke-linejoin: round">
<circle cx="14215110.000000" cy="11516360.000000" r="93980.000000"/> 
</g>
<g style="fill-opacity: 1.0;stroke-width: 0.100000;stroke-opacity: 1;stroke-linecap: round;stroke-linejoin: round">
<circle cx="13961110.000000" cy="11516360.000000" r="93980.000000"/> 
</g>
<g style="fill-opacity: 1.0;stroke-width: 0.100000;stroke-opacity: 1;stroke-linecap: round;stroke-linejoin: round">
<circle cx="13707110.000000" cy="11516360.000000" r="93980.000000"/> 
</g>
<g style="fill-opacity: 1.0;stroke-width: 0.100000;stroke-opacity: 1;stroke-linecap: round;stroke-linejoin: round">
<circle cx="13707110.000000" cy="9484360.000000" r="93980.000000"/> 
</g>
<g style="fill-opacity: 1.0;stroke-width: 0.100000;stroke-opacity: 1;stroke-linecap: round;stroke-linejoin: round">
<circle cx="13961110.000000" cy="9484360.000000" r="93980.000000"/> 
</g>
<g style="fill-opacity: 1.0;stroke-width: 0.100000;stroke-opacity: 1;stroke-linecap: round;stroke-linejoin: round">
<circle cx="14215110.000000" cy="9484360.000000" r="93980.000000"/> 
</g>
<g style="fill-opacity: 1.0;stroke-width: 0.100000;stroke-opacity: 1;stroke-linecap: round;stroke-linejoin: round">
<circle cx="14469110.000000" cy="9484360.000000" r="93980.000000"/> 
</g>
<g style="fill-opacity: 1.0;stroke-width: 0.100000;stroke-opacity: 1;stroke-linecap: round;stroke-linejoin: round">
<circle cx="14723110.000000" cy="9484360.000000" r="93980.000000"/> 
</g>
<g style="fill-opacity: 1.0;stroke-width: 0.100000;stroke-opacity: 1;stroke-linecap: round;stroke-linejoin: round">
<circle cx="14977110.000000" cy="9484360.000000" r="93980.000000"/> 
</g>
<g style="fill-opacity: 1.0;stroke-width: 0.100000;stroke-opacity: 1;stroke-linecap: round;stroke-linejoin: round">
<circle cx="15231110.000000" cy="9484360.000000" r="93980.000000"/> 
</g>
<g style="fill-opacity: 1.0;stroke-width: 0.100000;stroke-opacity: 1;stroke-linecap: round;stroke-linejoin: round">
<circle cx="15485110.000000" cy="9484360.000000" r="93980.000000"/> 
</g>
<g style="fill-opacity: 1.0;stroke-width: 0.100000;stroke-opacity: 1;stroke-linecap: round;stroke-linejoin: round">
<circle cx="15739110.000000" cy="9484360.000000" r="93980.000000"/> 
</g>
<g style="fill-opacity: 1.0;stroke-width: 0.100000;stroke-opacity: 1;stroke-linecap: round;stroke-linejoin: round">
<circle cx="15993110.000000" cy="9484360.000000" r="93980.000000"/> 
</g>
<g style="fill-opacity: 1.0;stroke-width: 0.100000;stroke-opacity: 1;stroke-linecap: round;stroke-linejoin: round">
<circle cx="14024610.000000" cy="10055860.000000" r="50800.000000"/> 
</g>
<g style="fill-opacity: 1.0;stroke-width: 0.100000;stroke-opacity: 1;stroke-linecap: round;stroke-linejoin: round">
<circle cx="15866110.000000" cy="10957560.000000" r="50800.000000"/> 
</g>
<g style="fill-opacity: 1.0;stroke-width: 0.100000;stroke-opacity: 1;stroke-linecap: round;stroke-linejoin: round">
<circle cx="14659610.000000" cy="10182860.000000" r="50800.000000"/> 
</g>
<g style="fill-opacity: 1.0;stroke-width: 0.100000;stroke-opacity: 1;stroke-linecap: round;stroke-linejoin: round">
<circle cx="14024610.000000" cy="10309860.000000" r="50800.000000"/> 
</g>
<g style="fill-opacity: 1.0;stroke-width: 0.100000;stroke-opacity: 1;stroke-linecap: round;stroke-linejoin: round">
<circle cx="15294610.000000" cy="10817860.000000" r="50800.000000"/> 
</g>
<g style="fill-opacity: 1.0;stroke-width: 0.100000;stroke-opacity: 1;stroke-linecap: round;stroke-linejoin: round">
<circle cx="14278610.000000" cy="10817860.000000" r="50800.000000"/> 
</g>
<g style="fill-opacity: 1.0;stroke-width: 0.100000;stroke-opacity: 1;stroke-linecap: round;stroke-linejoin: round">
<circle cx="15294610.000000" cy="10182860.000000" r="50800.000000"/> 
</g>
<g style="fill-opacity: 1.0;stroke-width: 0.100000;stroke-opacity: 1;stroke-linecap: round;stroke-linejoin: round">
<circle cx="14659610.000000" cy="10817860.000000" r="50800.000000"/> 
</g>
<g style="fill-opacity: 1.0;stroke-width: 0.100000;stroke-opacity: 1;stroke-linecap: round;stroke-linejoin: round">
<circle cx="15332710.000000" cy="10957560.000000" r="50800.000000"/> 
</g>
<g style="fill-opacity: 1.0;stroke-width: 0.100000;stroke-opacity: 1;stroke-linecap: round;stroke-linejoin: round">
<circle cx="14469110.000000" cy="10690860.000000" r="50800.000000"/> 
</g>
<g style="fill-opacity: 0.0;stroke-width: 25400.000000;stroke-opacity: 1;stroke-linecap: round;stroke-linejoin: round">
<path d="M15332710 10957560 L15485110 11109960 "/>
<path d="M15485110 11109960 L15485110 11516360 "/>
<path d="M14469110 10690860 L14151610 10690860 "/>
<path d="M13961110 10881360 L13961110 11516360 "/>
<path d="M14151610 10690860 L13961110 10881360 "/>
</g>
</g> 
</g><g id="substrate-silk" style="fill:#f0f0f0; stroke:#f0f0f0;" mask="url(#pads-mask-silkscreen)"><g style="fill-opacity: 0.0;stroke-width: 19050.000000;stroke-opacity: 1;stroke-linecap: round;stroke-linejoin: round">
<g transform="rotate(90.000000 14659610.000000 11351260.000000)">
<text x="14659610.000000" y="11351260.000000" transform="scale(-1 1) translate(-29319220.000000 0)" textLength="355442.800000" font-size="143933.300000" lengthAdjust="spacingAndGlyphs" text-anchor="start" opacity="0">PIO6</text>
</g>
<g class="stroked-text"><desc>PIO6</desc>
<path d="M14664750 11313175 L14772700 11313175 L14772700 11272051 L14767560 11261770 L14762419 11256629 L14752138 11251489 L14736717 11251489 L14726436 11256629 L14721295 11261770 L14716155 11272051 L14716155 11313175 "/>
<path d="M14664750 11205225 L14772700 11205225 "/>
<path d="M14772700 11133258 L14772700 11112696 L14767560 11102415 L14757279 11092134 L14736717 11086994 L14700733 11086994 L14680171 11092134 L14669890 11102415 L14664750 11112696 L14664750 11133258 L14669890 11143539 L14680171 11153820 L14700733 11158960 L14736717 11158960 L14757279 11153820 L14767560 11143539 L14772700 11133258 "/>
<path d="M14772700 10994465 L14772700 11015027 L14767560 11025308 L14762419 11030448 L14746998 11040729 L14726436 11045870 L14685312 11045870 L14675031 11040729 L14669890 11035589 L14664750 11025308 L14664750 11004746 L14669890 10994465 L14675031 10989325 L14685312 10984184 L14711014 10984184 L14721295 10989325 L14726436 10994465 L14731576 11004746 L14731576 11025308 L14726436 11035589 L14721295 11040729 L14711014 11045870 "/>
</g><g transform="rotate(90.000000 14532610.000000 9624060.000000)">
<text x="14532610.000000" y="9732010.000000" transform="scale(-1 1) translate(-29065220.000000 0)" textLength="350489.800000" font-size="143933.300000" lengthAdjust="spacingAndGlyphs" text-anchor="end" opacity="0">PIO5</text>
</g>
<g class="stroked-text"><desc>PIO5</desc>
<path d="M14429800 9985994 L14537750 9985994 L14537750 9944871 L14532610 9934590 L14527469 9929449 L14517188 9924309 L14501767 9924309 L14491486 9929449 L14486345 9934590 L14481205 9944871 L14481205 9985994 "/>
<path d="M14429800 9878044 L14537750 9878044 "/>
<path d="M14537750 9806078 L14537750 9785516 L14532610 9775235 L14522329 9764954 L14501767 9759813 L14465783 9759813 L14445221 9764954 L14434940 9775235 L14429800 9785516 L14429800 9806078 L14434940 9816359 L14445221 9826640 L14465783 9831780 L14501767 9831780 L14522329 9826640 L14532610 9816359 L14537750 9806078 "/>
<path d="M14537750 9662144 L14537750 9713549 L14486345 9718690 L14491486 9713549 L14496626 9703268 L14496626 9677566 L14491486 9667285 L14486345 9662144 L14476064 9657004 L14450362 9657004 L14440081 9662144 L14434940 9667285 L14429800 9677566 L14429800 9703268 L14434940 9713549 L14440081 9718690 "/>
</g><g transform="rotate(90.000000 14024610.000000 9624060.000000)">
<text x="14024610.000000" y="9732010.000000" transform="scale(-1 1) translate(-28049220.000000 0)" textLength="185994.500000" font-size="143933.300000" lengthAdjust="spacingAndGlyphs" text-anchor="end" opacity="0">CS</text>
</g>
<g class="stroked-text"><desc>CS</desc>
<path d="M13932081 9759813 L13926940 9764954 L13921800 9780375 L13921800 9790656 L13926940 9806078 L13937221 9816359 L13947502 9821499 L13968064 9826640 L13983486 9826640 L14004048 9821499 L14014329 9816359 L14024610 9806078 L14029750 9790656 L14029750 9780375 L14024610 9764954 L14019469 9759813 "/>
<path d="M13926940 9718690 L13921800 9703268 L13921800 9677566 L13926940 9667285 L13932081 9662144 L13942362 9657004 L13952643 9657004 L13962924 9662144 L13968064 9667285 L13973205 9677566 L13978345 9698128 L13983486 9708409 L13988626 9713549 L13998907 9718690 L14009188 9718690 L14019469 9713549 L14024610 9708409 L14029750 9698128 L14029750 9672425 L14024610 9657004 "/>
</g><g transform="rotate(90.000000 14151610.000000 11351260.000000)">
<text x="14151610.000000" y="11351260.000000" transform="scale(-1 1) translate(-28303220.000000 0)" textLength="453299.300000" font-size="143933.300000" lengthAdjust="spacingAndGlyphs" text-anchor="start" opacity="0">PIO10</text>
</g>
<g class="stroked-text"><desc>PIO10</desc>
<path d="M14156750 11313175 L14264700 11313175 L14264700 11272051 L14259560 11261770 L14254419 11256629 L14244138 11251489 L14228717 11251489 L14218436 11256629 L14213295 11261770 L14208155 11272051 L14208155 11313175 "/>
<path d="M14156750 11205225 L14264700 11205225 "/>
<path d="M14264700 11133258 L14264700 11112696 L14259560 11102415 L14249279 11092134 L14228717 11086994 L14192733 11086994 L14172171 11092134 L14161890 11102415 L14156750 11112696 L14156750 11133258 L14161890 11143539 L14172171 11153820 L14192733 11158960 L14228717 11158960 L14249279 11153820 L14259560 11143539 L14264700 11133258 "/>
<path d="M14156750 10984184 L14156750 11045870 "/>
<path d="M14156750 11015027 L14264700 11015027 L14249279 11025308 L14238998 11035589 L14233857 11045870 "/>
<path d="M14264700 10917358 L14264700 10907077 L14259560 10896796 L14254419 10891656 L14244138 10886515 L14223576 10881375 L14197874 10881375 L14177312 10886515 L14167031 10891656 L14161890 10896796 L14156750 10907077 L14156750 10917358 L14161890 10927639 L14167031 10932779 L14177312 10937920 L14197874 10943060 L14223576 10943060 L14244138 10937920 L14254419 10932779 L14259560 10927639 L14264700 10917358 "/>
</g><g transform="rotate(90.000000 14278610.000000 9624060.000000)">
<text x="14278610.000000" y="9732010.000000" transform="scale(-1 1) translate(-28557220.000000 0)" textLength="350489.800000" font-size="143933.300000" lengthAdjust="spacingAndGlyphs" text-anchor="end" opacity="0">PIO4</text>
</g>
<g class="stroked-text"><desc>PIO4</desc>
<path d="M14175800 9985994 L14283750 9985994 L14283750 9944871 L14278610 9934590 L14273469 9929449 L14263188 9924309 L14247767 9924309 L14237486 9929449 L14232345 9934590 L14227205 9944871 L14227205 9985994 "/>
<path d="M14175800 9878044 L14283750 9878044 "/>
<path d="M14283750 9806078 L14283750 9785516 L14278610 9775235 L14268329 9764954 L14247767 9759813 L14211783 9759813 L14191221 9764954 L14180940 9775235 L14175800 9785516 L14175800 9806078 L14180940 9816359 L14191221 9826640 L14211783 9831780 L14247767 9831780 L14268329 9826640 L14278610 9816359 L14283750 9806078 "/>
<path d="M14247767 9667285 L14175800 9667285 "/>
<path d="M14288890 9692987 L14211783 9718690 L14211783 9651863 "/>
</g><g transform="rotate(90.000000 13770610.000000 9624060.000000)">
<text x="13770610.000000" y="9732010.000000" transform="scale(-1 1) translate(-27541220.000000 0)" textLength="365911.200000" font-size="143933.300000" lengthAdjust="spacingAndGlyphs" text-anchor="end" opacity="0">MISO</text>
</g>
<g class="stroked-text"><desc>MISO</desc>
<path d="M13667800 10001416 L13775750 10001416 L13698643 9965432 L13775750 9929449 L13667800 9929449 "/>
<path d="M13667800 9878044 L13775750 9878044 "/>
<path d="M13672940 9831780 L13667800 9816359 L13667800 9790656 L13672940 9780375 L13678081 9775235 L13688362 9770094 L13698643 9770094 L13708924 9775235 L13714064 9780375 L13719205 9790656 L13724345 9811218 L13729486 9821499 L13734626 9826640 L13744907 9831780 L13755188 9831780 L13765469 9826640 L13770610 9821499 L13775750 9811218 L13775750 9785516 L13770610 9770094 "/>
<path d="M13775750 9703268 L13775750 9682706 L13770610 9672425 L13760329 9662144 L13739767 9657004 L13703783 9657004 L13683221 9662144 L13672940 9672425 L13667800 9682706 L13667800 9703268 L13672940 9713549 L13683221 9723830 L13703783 9728971 L13739767 9728971 L13760329 9723830 L13770610 9713549 L13775750 9703268 "/>
</g><g transform="rotate(90.000000 15167610.000000 11351260.000000)">
<text x="15167610.000000" y="11351260.000000" transform="scale(-1 1) translate(-30335220.000000 0)" textLength="278523.100000" font-size="143933.300000" lengthAdjust="spacingAndGlyphs" text-anchor="start" opacity="0">CLK</text>
</g>
<g class="stroked-text"><desc>CLK</desc>
<path d="M15183031 11251489 L15177890 11256629 L15172750 11272051 L15172750 11282332 L15177890 11297753 L15188171 11308034 L15198452 11313175 L15219014 11318315 L15234436 11318315 L15254998 11313175 L15265279 11308034 L15275560 11297753 L15280700 11282332 L15280700 11272051 L15275560 11256629 L15270419 11251489 "/>
<path d="M15172750 11153820 L15172750 11205225 L15280700 11205225 "/>
<path d="M15172750 11117837 L15280700 11117837 "/>
<path d="M15172750 11056151 L15234436 11102415 "/>
<path d="M15280700 11056151 L15219014 11117837 "/>
</g><g transform="rotate(90.000000 15548610.000000 9624060.000000)">
<text x="15548610.000000" y="9732010.000000" transform="scale(-1 1) translate(-31097220.000000 0)" textLength="268242.100000" font-size="143933.300000" lengthAdjust="spacingAndGlyphs" text-anchor="end" opacity="0">RTS</text>
</g>
<g class="stroked-text"><desc>RTS</desc>
<path d="M15445800 9842061 L15497205 9878044 "/>
<path d="M15445800 9903747 L15553750 9903747 L15553750 9862623 L15548610 9852342 L15543469 9847202 L15533188 9842061 L15517767 9842061 L15507486 9847202 L15502345 9852342 L15497205 9862623 L15497205 9903747 "/>
<path d="M15553750 9811218 L15553750 9749532 "/>
<path d="M15445800 9780375 L15553750 9780375 "/>
<path d="M15450940 9718690 L15445800 9703268 L15445800 9677566 L15450940 9667285 L15456081 9662144 L15466362 9657004 L15476643 9657004 L15486924 9662144 L15492064 9667285 L15497205 9677566 L15502345 9698128 L15507486 9708409 L15512626 9713549 L15522907 9718690 L15533188 9718690 L15543469 9713549 L15548610 9708409 L15553750 9698128 L15553750 9672425 L15548610 9657004 "/>
</g><g transform="rotate(90.000000 13897610.000000 11351260.000000)">
<text x="13897610.000000" y="11351260.000000" transform="scale(-1 1) translate(-27795220.000000 0)" textLength="453299.300000" font-size="143933.300000" lengthAdjust="spacingAndGlyphs" text-anchor="start" opacity="0">PIO11</text>
</g>
<g class="stroked-text"><desc>PIO11</desc>
<path d="M13902750 11313175 L14010700 11313175 L14010700 11272051 L14005560 11261770 L14000419 11256629 L13990138 11251489 L13974717 11251489 L13964436 11256629 L13959295 11261770 L13954155 11272051 L13954155 11313175 "/>
<path d="M13902750 11205225 L14010700 11205225 "/>
<path d="M14010700 11133258 L14010700 11112696 L14005560 11102415 L13995279 11092134 L13974717 11086994 L13938733 11086994 L13918171 11092134 L13907890 11102415 L13902750 11112696 L13902750 11133258 L13907890 11143539 L13918171 11153820 L13938733 11158960 L13974717 11158960 L13995279 11153820 L14005560 11143539 L14010700 11133258 "/>
<path d="M13902750 10984184 L13902750 11045870 "/>
<path d="M13902750 11015027 L14010700 11015027 L13995279 11025308 L13984998 11035589 L13979857 11045870 "/>
<path d="M13902750 10881375 L13902750 10943060 "/>
<path d="M13902750 10912217 L14010700 10912217 L13995279 10922498 L13984998 10932779 L13979857 10943060 "/>
</g></g>
<g style="fill-opacity: 0.0;stroke-width: 12192.000000;stroke-opacity: 1;stroke-linecap: round;stroke-linejoin: round">
<text x="15739110.000000" y="10754360.000000" transform="scale(-1 1) translate(-31478220.000000 0)" textLength="1389894.000000" font-size="92117.300000" lengthAdjust="spacingAndGlyphs" text-anchor="start" opacity="0">Bluetooth Module Breakout</text>
<g class="stroked-text"><desc>Bluetooth Module Breakout</desc>
<path d="M15691706 10714881 L15681836 10718171 L15678546 10721460 L15675256 10728040 L15675256 10737910 L15678546 10744490 L15681836 10747780 L15688416 10751070 L15714735 10751070 L15714735 10681982 L15691706 10681982 L15685126 10685272 L15681836 10688561 L15678546 10695141 L15678546 10701721 L15681836 10708301 L15685126 10711591 L15691706 10714881 L15714735 10714881 "/>
<path d="M15635777 10751070 L15642357 10747780 L15645647 10741200 L15645647 10681982 "/>
<path d="M15579849 10705011 L15579849 10751070 "/>
<path d="M15609458 10705011 L15609458 10741200 L15606168 10747780 L15599589 10751070 L15589719 10751070 L15583139 10747780 L15579849 10744490 "/>
<path d="M15520631 10747780 L15527211 10751070 L15540370 10751070 L15546950 10747780 L15550240 10741200 L15550240 10714881 L15546950 10708301 L15540370 10705011 L15527211 10705011 L15520631 10708301 L15517341 10714881 L15517341 10721460 L15550240 10728040 "/>
<path d="M15497601 10705011 L15471282 10705011 "/>
<path d="M15487732 10681982 L15487732 10741200 L15484442 10747780 L15477862 10751070 L15471282 10751070 "/>
<path d="M15438383 10751070 L15444963 10747780 L15448253 10744490 L15451543 10737910 L15451543 10718171 L15448253 10711591 L15444963 10708301 L15438383 10705011 L15428513 10705011 L15421934 10708301 L15418644 10711591 L15415354 10718171 L15415354 10737910 L15418644 10744490 L15421934 10747780 L15428513 10751070 L15438383 10751070 "/>
<path d="M15375875 10751070 L15382455 10747780 L15385745 10744490 L15389035 10737910 L15389035 10718171 L15385745 10711591 L15382455 10708301 L15375875 10705011 L15366005 10705011 L15359425 10708301 L15356136 10711591 L15352846 10718171 L15352846 10737910 L15356136 10744490 L15359425 10747780 L15366005 10751070 L15375875 10751070 "/>
<path d="M15333106 10705011 L15306787 10705011 "/>
<path d="M15323237 10681982 L15323237 10741200 L15319947 10747780 L15313367 10751070 L15306787 10751070 "/>
<path d="M15283758 10751070 L15283758 10681982 "/>
<path d="M15254149 10751070 L15254149 10714881 L15257438 10708301 L15264018 10705011 L15273888 10705011 L15280468 10708301 L15283758 10711591 "/>
<path d="M15168611 10751070 L15168611 10681982 L15145582 10731330 L15122552 10681982 L15122552 10751070 "/>
<path d="M15079784 10751070 L15086363 10747780 L15089653 10744490 L15092943 10737910 L15092943 10718171 L15089653 10711591 L15086363 10708301 L15079784 10705011 L15069914 10705011 L15063334 10708301 L15060044 10711591 L15056754 10718171 L15056754 10737910 L15060044 10744490 L15063334 10747780 L15069914 10751070 L15079784 10751070 "/>
<path d="M14997536 10751070 L14997536 10681982 "/>
<path d="M14997536 10747780 L15004116 10751070 L15017275 10751070 L15023855 10747780 L15027145 10744490 L15030435 10737910 L15030435 10718171 L15027145 10711591 L15023855 10708301 L15017275 10705011 L15004116 10705011 L14997536 10708301 "/>
<path d="M14935028 10705011 L14935028 10751070 "/>
<path d="M14964637 10705011 L14964637 10741200 L14961347 10747780 L14954767 10751070 L14944897 10751070 L14938318 10747780 L14935028 10744490 "/>
<path d="M14892259 10751070 L14898839 10747780 L14902129 10741200 L14902129 10681982 "/>
<path d="M14839621 10747780 L14846200 10751070 L14859360 10751070 L14865940 10747780 L14869230 10741200 L14869230 10714881 L14865940 10708301 L14859360 10705011 L14846200 10705011 L14839621 10708301 L14836331 10714881 L14836331 10721460 L14869230 10728040 "/>
<path d="M14731054 10714881 L14721184 10718171 L14717894 10721460 L14714604 10728040 L14714604 10737910 L14717894 10744490 L14721184 10747780 L14727764 10751070 L14754083 10751070 L14754083 10681982 L14731054 10681982 L14724474 10685272 L14721184 10688561 L14717894 10695141 L14717894 10701721 L14721184 10708301 L14724474 10711591 L14731054 10714881 L14754083 10714881 "/>
<path d="M14684995 10751070 L14684995 10705011 "/>
<path d="M14684995 10718171 L14681705 10711591 L14678415 10708301 L14671835 10705011 L14665256 10705011 "/>
<path d="M14615907 10747780 L14622487 10751070 L14635646 10751070 L14642226 10747780 L14645516 10741200 L14645516 10714881 L14642226 10708301 L14635646 10705011 L14622487 10705011 L14615907 10708301 L14612617 10714881 L14612617 10721460 L14645516 10728040 "/>
<path d="M14553399 10751070 L14553399 10714881 L14556689 10708301 L14563269 10705011 L14576428 10705011 L14583008 10708301 "/>
<path d="M14553399 10747780 L14559979 10751070 L14576428 10751070 L14583008 10747780 L14586298 10741200 L14586298 10734620 L14583008 10728040 L14576428 10724750 L14559979 10724750 L14553399 10721460 "/>
<path d="M14520500 10751070 L14520500 10681982 "/>
<path d="M14513920 10724750 L14494181 10751070 "/>
<path d="M14494181 10705011 L14520500 10731330 "/>
<path d="M14454702 10751070 L14461281 10747780 L14464571 10744490 L14467861 10737910 L14467861 10718171 L14464571 10711591 L14461281 10708301 L14454702 10705011 L14444832 10705011 L14438252 10708301 L14434962 10711591 L14431672 10718171 L14431672 10737910 L14434962 10744490 L14438252 10747780 L14444832 10751070 L14454702 10751070 "/>
<path d="M14372454 10705011 L14372454 10751070 "/>
<path d="M14402063 10705011 L14402063 10741200 L14398773 10747780 L14392193 10751070 L14382324 10751070 L14375744 10747780 L14372454 10744490 "/>
<path d="M14349425 10705011 L14323105 10705011 "/>
<path d="M14339555 10681982 L14339555 10741200 L14336265 10747780 L14329685 10751070 L14323105 10751070 "/>
</g></g>
<g style="fill-opacity: 0.0;stroke-width: 19050.000000;stroke-opacity: 1;stroke-linecap: round;stroke-linejoin: round">
<g transform="rotate(90.000000 15040610.000000 9624060.000000)">
<text x="15040610.000000" y="9732010.000000" transform="scale(-1 1) translate(-30081220.000000 0)" textLength="359405.200000" font-size="143933.300000" lengthAdjust="spacingAndGlyphs" text-anchor="end" opacity="0">PIO2</text>
</g>
<g class="stroked-text"><desc>PIO2</desc>
<path d="M14937800 9985994 L15045750 9985994 L15045750 9944871 L15040610 9934590 L15035469 9929449 L15025188 9924309 L15009767 9924309 L14999486 9929449 L14994345 9934590 L14989205 9944871 L14989205 9985994 "/>
<path d="M14937800 9878044 L15045750 9878044 "/>
<path d="M15045750 9806078 L15045750 9785516 L15040610 9775235 L15030329 9764954 L15009767 9759813 L14973783 9759813 L14953221 9764954 L14942940 9775235 L14937800 9785516 L14937800 9806078 L14942940 9816359 L14953221 9826640 L14973783 9831780 L15009767 9831780 L15030329 9826640 L15040610 9816359 L15045750 9806078 "/>
<path d="M15035469 9718690 L15040610 9713549 L15045750 9703268 L15045750 9677566 L15040610 9667285 L15035469 9662144 L15025188 9657004 L15014907 9657004 L14999486 9662144 L14937800 9723830 L14937800 9657004 "/>
</g><g transform="rotate(90.000000 14786610.000000 9624060.000000)">
<text x="14786610.000000" y="9732010.000000" transform="scale(-1 1) translate(-29573220.000000 0)" textLength="350489.800000" font-size="143933.300000" lengthAdjust="spacingAndGlyphs" text-anchor="end" opacity="0">PIO3</text>
</g>
<g class="stroked-text"><desc>PIO3</desc>
<path d="M14683800 9985994 L14791750 9985994 L14791750 9944871 L14786610 9934590 L14781469 9929449 L14771188 9924309 L14755767 9924309 L14745486 9929449 L14740345 9934590 L14735205 9944871 L14735205 9985994 "/>
<path d="M14683800 9878044 L14791750 9878044 "/>
<path d="M14791750 9806078 L14791750 9785516 L14786610 9775235 L14776329 9764954 L14755767 9759813 L14719783 9759813 L14699221 9764954 L14688940 9775235 L14683800 9785516 L14683800 9806078 L14688940 9816359 L14699221 9826640 L14719783 9831780 L14755767 9831780 L14776329 9826640 L14786610 9816359 L14791750 9806078 "/>
<path d="M14791750 9723830 L14791750 9657004 L14750626 9692987 L14750626 9677566 L14745486 9667285 L14740345 9662144 L14730064 9657004 L14704362 9657004 L14694081 9662144 L14688940 9667285 L14683800 9677566 L14683800 9708409 L14688940 9718690 L14694081 9723830 "/>
</g><g transform="rotate(90.000000 14405610.000000 11351260.000000)">
<text x="14405610.000000" y="11351260.000000" transform="scale(-1 1) translate(-28811220.000000 0)" textLength="365911.200000" font-size="143933.300000" lengthAdjust="spacingAndGlyphs" text-anchor="start" opacity="0">MOSI</text>
</g>
<g class="stroked-text"><desc>MOSI</desc>
<path d="M14410750 11313175 L14518700 11313175 L14441593 11277191 L14518700 11241208 L14410750 11241208 "/>
<path d="M14518700 11169241 L14518700 11148679 L14513560 11138398 L14503279 11128117 L14482717 11122977 L14446733 11122977 L14426171 11128117 L14415890 11138398 L14410750 11148679 L14410750 11169241 L14415890 11179522 L14426171 11189803 L14446733 11194944 L14482717 11194944 L14503279 11189803 L14513560 11179522 L14518700 11169241 "/>
<path d="M14415890 11081853 L14410750 11066432 L14410750 11040729 L14415890 11030448 L14421031 11025308 L14431312 11020167 L14441593 11020167 L14451874 11025308 L14457014 11030448 L14462155 11040729 L14467295 11061291 L14472436 11071572 L14477576 11076713 L14487857 11081853 L14498138 11081853 L14508419 11076713 L14513560 11071572 L14518700 11061291 L14518700 11035589 L14513560 11020167 "/>
<path d="M14410750 10973903 L14518700 10973903 "/>
</g><g transform="rotate(90.000000 15421610.000000 11351260.000000)">
<text x="15421610.000000" y="11351260.000000" transform="scale(-1 1) translate(-30843220.000000 0)" textLength="463580.200000" font-size="143933.300000" lengthAdjust="spacingAndGlyphs" text-anchor="start" opacity="0">RESET</text>
</g>
<g class="stroked-text"><desc>RESET</desc>
<path d="M15426750 11251489 L15478155 11287472 "/>
<path d="M15426750 11313175 L15534700 11313175 L15534700 11272051 L15529560 11261770 L15524419 11256629 L15514138 11251489 L15498717 11251489 L15488436 11256629 L15483295 11261770 L15478155 11272051 L15478155 11313175 "/>
<path d="M15483295 11205225 L15483295 11169241 "/>
<path d="M15426750 11153820 L15426750 11205225 L15534700 11205225 L15534700 11153820 "/>
<path d="M15431890 11112696 L15426750 11097275 L15426750 11071572 L15431890 11061291 L15437031 11056151 L15447312 11051010 L15457593 11051010 L15467874 11056151 L15473014 11061291 L15478155 11071572 L15483295 11092134 L15488436 11102415 L15493576 11107556 L15503857 11112696 L15514138 11112696 L15524419 11107556 L15529560 11102415 L15534700 11092134 L15534700 11066432 L15529560 11051010 "/>
<path d="M15483295 11004746 L15483295 10968763 "/>
<path d="M15426750 10953341 L15426750 11004746 L15534700 11004746 L15534700 10953341 "/>
<path d="M15534700 10922498 L15534700 10860813 "/>
<path d="M15426750 10891656 L15534700 10891656 "/>
</g><g transform="rotate(90.000000 15294610.000000 9624060.000000)">
<text x="15294610.000000" y="9732010.000000" transform="scale(-1 1) translate(-30589220.000000 0)" textLength="268242.100000" font-size="143933.300000" lengthAdjust="spacingAndGlyphs" text-anchor="end" opacity="0">CTS</text>
</g>
<g class="stroked-text"><desc>CTS</desc>
<path d="M15202081 9842061 L15196940 9847202 L15191800 9862623 L15191800 9872904 L15196940 9888325 L15207221 9898606 L15217502 9903747 L15238064 9908887 L15253486 9908887 L15274048 9903747 L15284329 9898606 L15294610 9888325 L15299750 9872904 L15299750 9862623 L15294610 9847202 L15289469 9842061 "/>
<path d="M15299750 9811218 L15299750 9749532 "/>
<path d="M15191800 9780375 L15299750 9780375 "/>
<path d="M15196940 9718690 L15191800 9703268 L15191800 9677566 L15196940 9667285 L15202081 9662144 L15212362 9657004 L15222643 9657004 L15232924 9662144 L15238064 9667285 L15243205 9677566 L15248345 9698128 L15253486 9708409 L15258626 9713549 L15268907 9718690 L15279188 9718690 L15289469 9713549 L15294610 9708409 L15299750 9698128 L15299750 9672425 L15294610 9657004 "/>
</g><g transform="rotate(90.000000 14913610.000000 11351260.000000)">
<text x="14913610.000000" y="11351260.000000" transform="scale(-1 1) translate(-29827220.000000 0)" textLength="350489.800000" font-size="143933.300000" lengthAdjust="spacingAndGlyphs" text-anchor="start" opacity="0">PIO7</text>
</g>
<g class="stroked-text"><desc>PIO7</desc>
<path d="M14918750 11313175 L15026700 11313175 L15026700 11272051 L15021560 11261770 L15016419 11256629 L15006138 11251489 L14990717 11251489 L14980436 11256629 L14975295 11261770 L14970155 11272051 L14970155 11313175 "/>
<path d="M14918750 11205225 L15026700 11205225 "/>
<path d="M15026700 11133258 L15026700 11112696 L15021560 11102415 L15011279 11092134 L14990717 11086994 L14954733 11086994 L14934171 11092134 L14923890 11102415 L14918750 11112696 L14918750 11133258 L14923890 11143539 L14934171 11153820 L14954733 11158960 L14990717 11158960 L15011279 11153820 L15021560 11143539 L15026700 11133258 "/>
<path d="M15026700 11051010 L15026700 10979044 L14918750 11025308 "/>
</g></g>
<g style="fill-opacity: 0.0;stroke-width: 2540.000000;stroke-opacity: 1;stroke-linecap: round;stroke-linejoin: round">
<path d="M14232890 10416790 L14231370 10416790 "/>
<path d="M14234920 10416790 L14234920 10449050 "/>
<path d="M14677900 10426450 L14677900 10448540 "/>
<path d="M14612620 10582660 L14612620 10486140 "/>
<path d="M14234920 10449050 L14237210 10449050 "/>
<path d="M14676120 10496800 L14676120 10583670 "/>
<path d="M14232890 10448540 L14232890 10416790 "/>
<path d="M14676120 10583670 L14718280 10583670 "/>
<path d="M14571730 10477250 L14571730 10582660 "/>
<path d="M14677900 10448540 L14677140 10448540 "/>
<path d="M14718280 10583670 L14718280 10426450 "/>
<path d="M14718280 10426450 L14677900 10426450 "/>
<path d="M14571730 10582660 L14612620 10582660 "/>
<path d="M14314678.838550 10521439.809000 A113513.300000 113513.300000 0.0 0 0 14314420.008139 10483089.998548"/>
<path d="M14636750.008435 10454389.816487 A16988.100000 16988.100000 0.0 0 0 14630149.984455 10455399.957373"/>
<path d="M14217139.450498 10451078.370764 A25878.800000 25878.800000 0.0 0 0 14206729.975044 10457689.976073"/>
<path d="M14262098.176907 10461241.492901 A31520.000000 31520.000000 0.0 0 0 14237209.999999 10449050.001586"/>
<path d="M14232889.991444 10448541.596592 A48519.100000 48519.100000 0.0 0 0 14217139.991562 10451079.974952"/>
<path d="M14272769.984314 10514329.998533 A148375.000000 148375.000000 0.0 0 0 14273019.959081 10489690.002992"/>
<path d="M14675360.999224 10447779.045685 A2460.000000 2460.000000 0.0 0 0 14677140.000000 10448540.000000"/>
<path d="M14671289.251014 10442450.555224 A46865.800000 46865.800000 0.0 0 0 14662660.018561 10433559.976463"/>
<path d="M14613129.722714 10423137.001025 A43558.000000 43558.000000 0.0 0 0 14586460.026293 10435590.126499"/>
<path d="M14231370.000000 10416790.000000 A90680.000000 90680.000000 0.0 0 0 14209010.002175 10419590.008550"/>
<path d="M14191229.346512 10506200.006113 A67353.600000 67353.600000 0.0 0 0 14199109.986019 10537190.007433"/>
<path d="M14673068.050343 10474200.755221 A32749.100000 32749.100000 0.0 0 0 14663929.994521 10461240.006347"/>
<path d="M14177011.984340 10436352.281782 A79803.400000 79803.400000 0.0 0 0 14149580.031930 10497310.099704"/>
<path d="M14314421.129441 10483089.798653 A78631.600000 78631.600000 0.0 0 0 14277089.924745 10429239.958234"/>
<path d="M14158208.902716 10541510.433647 A67204.900000 67204.900000 0.0 0 0 14199620.013112 10580619.960328"/>
<path d="M14290800.640876 10566150.782112 A58062.600000 58062.600000 0.0 0 0 14303760.011208 10551160.006740"/>
<path d="M14674089.352728 10446260.471722 A14874.200000 14874.200000 0.0 0 0 14675359.977512 10447780.021505"/>
<path d="M14662661.228611 10433558.441790 A51054.900000 51054.900000 0.0 0 0 14633190.001278 10422639.969530"/>
<path d="M14636749.999396 10454390.013142 A4466003.000000 4466003.000000 0.0 0 0 14647929.999668 10454890.007640"/>
<path d="M14206731.091744 10457691.047355 A50440.200000 50440.200000 0.0 0 0 14194029.987687 10481059.997104"/>
<path d="M14199111.095227 10537189.417778 A31358.200000 31358.200000 0.0 0 0 14213590.006668 10550909.985644"/>
<path d="M14676119.778109 10489950.002848 A45193.500000 45193.500000 0.0 0 0 14673070.040668 10474199.984240"/>
<path d="M14277088.904690 10429241.848291 A89619.200000 89619.200000 0.0 0 0 14234920.001777 10416789.954795"/>
<path d="M14247110.745937 10552942.297517 A32774.100000 32774.100000 0.0 0 0 14265909.984260 10537189.991608"/>
<path d="M14235680.022229 10586211.911701 A88587.900000 88587.900000 0.0 0 0 14290800.011185 10566150.013648"/>
<path d="M14575029.674076 10454889.906332 A85007.400000 85007.400000 0.0 0 0 14571729.978505 10477249.999717"/>
<path d="M14618458.175230 10465048.905346 A40980.000000 40980.000000 0.0 0 0 14612620.001220 10486140.000000"/>
<path d="M14586460.308797 10435590.311360 A44491.100000 44491.100000 0.0 0 0 14575030.013639 10454890.103920"/>
<path d="M14674090.014820 10446259.989209 A535335.600000 535335.600000 0.0 0 0 14671290.028002 10442449.979230"/>
<path d="M14149578.359848 10497310.015289 A123377.000000 123377.000000 0.0 0 0 14158210.022504 10541509.991105"/>
<path d="M14199620.120584 10580619.635334 A110717.600000 110717.600000 0.0 0 0 14235679.999621 10586209.967712"/>
<path d="M14303761.577288 10551160.948298 A84152.800000 84152.800000 0.0 0 0 14314680.014938 10521440.002454"/>
<path d="M14633190.001835 10422639.956353 A150002.400000 150002.400000 0.0 0 0 14613130.004432 10423140.048110"/>
<path d="M14663929.285185 10461240.943640 A26224.800000 26224.800000 0.0 0 0 14647930.000443 10454889.989809"/>
<path d="M14676119.835902 10496799.997898 A267831.800000 267831.800000 0.0 0 0 14676119.963770 10489950.000463"/>
<path d="M14209009.876594 10419589.514961 A78112.200000 78112.200000 0.0 0 0 14177009.980724 10436349.977836"/>
<path d="M14265910.658414 10537190.351007 A60583.100000 60583.100000 0.0 0 0 14272770.000046 10514330.000004"/>
<path d="M14194029.061386 10481059.779091 A105414.600000 105414.600000 0.0 0 0 14191230.048885 10506199.999541"/>
<path d="M14273021.004158 10489689.933893 A52661.200000 52661.200000 0.0 0 0 14262099.984140 10461240.012311"/>
<path d="M14213590.141929 10550909.694859 A45857.400000 45857.400000 0.0 0 0 14247109.988654 10552939.965106"/>
<path d="M14630150.255166 10455400.700147 A22691.000000 22691.000000 0.0 0 0 14618459.981461 10465049.988883"/>
</g>
<g style="fill-opacity: 1.0;stroke-width: 0.100000;stroke-opacity: 1;stroke-linecap: round;stroke-linejoin: round">
<path style="fill-opacity: 1.0;stroke-width: 0.100000;stroke-opacity: 1;stroke-linecap: round;stroke-linejoin: round;fill-rule: evenodd" d="M 14547340.000000,10583670.000000 14497810.000000,10583670.000000 14497810.000000,10535160.000000 14547340.000000,10535160.000000 Z"/> 
<path style="fill-opacity: 1.0;stroke-width: 0.100000;stroke-opacity: 1;stroke-linecap: round;stroke-linejoin: round;fill-rule: evenodd" d="M 14990919.900000,10115158.000000 15005905.800000,10127559.700000 15006060.500000,10127714.400000 15012643.300000,10138784.500000 15010339.300000,10163546.300000 14983718.600000,10196829.900000 14978039.400000,10204985.600000 14976607.000000,10214404.100000 14986388.000000,10230904.400000 14994533.200000,10234861.600000 15003587.100000,10236695.800000 15014156.500000,10235515.000000 15023575.700000,10230601.500000 15026669.500000,10227352.600000 15028719.500000,10223347.100000 15029770.500000,10217020.000000 15028737.800000,10210803.000000 15026758.100000,10208154.600000 15018631.600000,10202255.900000 15016588.400000,10201345.800000 15013031.200000,10201426.700000 15012819.000000,10199060.100000 15018871.600000,10198107.700000 15028420.000000,10197361.100000 15038097.800000,10198117.800000 15051980.500000,10203321.100000 15062809.600000,10213673.300000 15070070.000000,10237793.000000 15070070.000000,10392961.000000 15019177.800000,10335691.600000 15000632.400000,10321910.800000 14997189.900000,10320665.400000 14993509.500000,10320020.000000 14970586.100000,10320020.000000 14930996.900000,10308969.000000 14902180.000000,10281811.900000 14902180.000000,10283712.200000 14890279.200000,10262585.800000 14883924.300000,10244128.000000 14881004.000000,10224826.500000 14881649.700000,10204180.600000 14881991.400000,10204185.900000 14892439.300000,10175057.300000 14915130.000000,10152076.200000 14915130.000000,10163888.800000 14915758.600000,10166174.400000 14922184.300000,10172131.100000 14922923.600000,10172451.400000 14923736.300000,10172706.800000 14931875.200000,10172987.600000 14939403.100000,10169806.200000 14948343.400000,10163350.400000 14956001.000000,10155683.100000 14960873.500000,10146187.500000 14961324.500000,10140341.400000 14947968.200000,10124078.600000 14938126.700000,10122150.000000 14930880.000000,10122150.000000 14930880.000000,10119610.000000 14931640.600000,10119610.000000 14941254.800000,10113886.600000 14943124.000000,10113212.400000 14944795.100000,10112382.500000 14945962.300000,10111791.700000 14947265.100000,10111287.100000 14956209.800000,10109049.700000 14965542.400000,10108163.600000 Z"/> 
<path style="fill-opacity: 1.0;stroke-width: 0.100000;stroke-opacity: 1;stroke-linecap: round;stroke-linejoin: round;fill-rule: evenodd" d="M 14649232.800000,10424570.400000 14663405.200000,10432521.900000 14668183.300000,10436832.100000 14672285.900000,10441660.800000 14673717.600000,10443599.800000 14675090.500000,10445476.600000 14676224.300000,10446833.700000 14676630.000000,10447114.600000 14676630.000000,10425180.000000 14719550.000000,10425180.000000 14719550.000000,10584940.000000 14674850.000000,10584940.000000 14674850.000000,10490071.700000 14671875.000000,10474709.200000 14663110.000000,10462280.900000 14647660.500000,10456149.400000 14642283.100000,10455912.200000 14636818.000000,10455664.400000 14630575.500000,10456619.700000 14624295.900000,10460213.600000 14619608.000000,10465662.900000 14613890.000000,10486312.600000 14613890.000000,10583930.000000 14570460.000000,10583930.000000 14570460.000000,10477156.800000 14573810.100000,10454457.600000 14585567.200000,10434605.200000 14612833.200000,10421877.000000 14633300.700000,10421366.800000 Z"/> 
<path style="fill-opacity: 1.0;stroke-width: 0.100000;stroke-opacity: 1;stroke-linecap: round;stroke-linejoin: round;fill-rule: evenodd" d="M 14432454.200000,10420140.900000 14463777.000000,10439275.800000 14475424.000000,10453766.800000 14483424.100000,10470466.100000 14487400.000000,10488541.900000 14487400.000000,10488660.800000 14488164.900000,10513710.500000 14480040.600000,10545512.000000 14471090.900000,10559636.300000 14447544.100000,10578667.200000 14433121.400000,10583890.700000 14417303.800000,10586745.200000 14401176.000000,10587749.600000 14366419.100000,10579245.300000 14343041.500000,10560149.200000 14334714.600000,10547363.800000 14329191.700000,10533190.000000 14327890.000000,10523555.400000 14327890.000000,10521700.000000 14370711.700000,10521700.000000 14377527.900000,10541890.500000 14381039.300000,10546121.700000 14385441.700000,10549555.500000 14393570.500000,10553237.400000 14402382.800000,10554714.500000 14410358.100000,10554301.600000 14418016.600000,10552522.400000 14434677.000000,10540206.300000 14439184.200000,10530966.400000 14443936.500000,10500165.300000 14436769.100000,10470666.400000 14428038.800000,10458298.800000 14424583.800000,10455420.400000 14420489.300000,10453580.200000 14403869.500000,10451100.000000 14387591.900000,10454557.500000 14379829.300000,10460087.100000 14374668.000000,10468122.000000 14372840.000000,10477621.200000 14372840.000000,10479020.000000 14327985.800000,10479020.000000 14335125.200000,10453508.300000 14357165.300000,10428487.500000 14371754.500000,10422093.100000 14371732.400000,10421844.100000 14401511.200000,10416526.800000 Z"/> 
<path style="fill-opacity: 1.0;stroke-width: 0.100000;stroke-opacity: 1;stroke-linecap: round;stroke-linejoin: round;fill-rule: evenodd" d="M 15727870.300000,10421371.500000 15769286.700000,10433718.400000 15781530.000000,10447815.500000 15781530.000000,10448119.100000 15786052.800000,10464613.300000 15785340.000000,10481845.900000 15785340.000000,10482150.400000 15777674.300000,10495890.300000 15766898.300000,10503796.800000 15754762.100000,10508934.600000 15736593.900000,10513744.600000 15718366.900000,10517586.900000 15695536.600000,10525368.200000 15690323.600000,10529631.200000 15687331.100000,10535616.100000 15687049.700000,10542317.200000 15689143.400000,10547940.700000 15693097.100000,10552358.100000 15710119.000000,10558271.600000 15716630.000000,10558321.100000 15723310.400000,10558270.300000 15726137.400000,10558066.700000 15728826.200000,10557558.200000 15737489.600000,10553824.100000 15744445.300000,10547574.400000 15747869.800000,10541169.300000 15748760.000000,10533813.400000 15748760.000000,10532110.000000 15793776.600000,10532110.000000 15717449.500000,10572310.800000 15675144.500000,10562914.300000 15663567.800000,10528453.300000 15665754.400000,10524092.400000 15748121.500000,10476188.800000 15752653.700000,10450449.900000 15716260.400000,10439459.800000 15674676.500000,10452735.900000 15654531.600000,10467648.900000 15648181.700000,10462968.600000 15650544.700000,10456473.300000 15652203.200000,10452399.700000 15654206.100000,10448377.600000 15660725.900000,10439773.500000 15670555.800000,10432020.100000 15681759.200000,10426526.600000 15695485.700000,10422780.100000 15709581.500000,10421370.500000 15718665.000000,10421296.600000 Z"/> 
<path style="fill-opacity: 1.0;stroke-width: 0.100000;stroke-opacity: 1;stroke-linecap: round;stroke-linejoin: round;fill-rule: evenodd" d="M 15398215.600000,10423415.200000 15410710.200000,10426813.100000 15422509.200000,10432200.300000 15432772.200000,10439813.800000 15440780.800000,10449810.600000 15445984.100000,10461515.200000 15448013.500000,10473996.200000 15447010.000000,10474159.400000 15447010.000000,10475210.000000 15403320.000000,10475210.000000 15403320.000000,10473565.900000 15401605.100000,10464988.400000 15389242.100000,10452765.000000 15377813.200000,10450582.600000 15371106.700000,10450727.400000 15364470.400000,10451068.300000 15354087.400000,10454934.600000 15348200.000000,10463177.000000 15348200.000000,10479014.500000 15348569.800000,10479860.300000 15349163.900000,10480720.900000 15352005.700000,10483329.700000 15356282.900000,10485796.300000 15360993.300000,10487454.500000 15367429.200000,10488816.600000 15374006.800000,10489698.400000 15385045.200000,10490799.900000 15396184.200000,10491996.800000 15426668.400000,10499683.400000 15437131.200000,10505869.800000 15445279.200000,10514877.800000 15449715.900000,10523797.600000 15451840.000000,10533492.500000 15451840.000000,10533743.700000 15446182.700000,10565106.800000 15441227.400000,10572495.000000 15434492.700000,10578146.600000 15421527.500000,10584334.400000 15407491.700000,10587488.800000 15374591.200000,10585435.100000 15359003.600000,10579301.000000 15346015.400000,10569271.400000 15345877.900000,10569207.200000 15345280.800000,10569665.400000 15343085.100000,10579646.700000 15342709.800000,10581086.500000 15342160.600000,10583032.100000 15340382.500000,10583930.000000 15297861.600000,10583930.000000 15299239.100000,10580232.400000 15302728.100000,10567283.500000 15303749.700000,10553905.600000 15303492.700000,10509250.000000 15303750.000000,10509250.000000 15303750.000000,10459970.000000 15303942.900000,10459970.000000 15305428.600000,10450993.400000 15317651.000000,10435107.700000 15331037.600000,10427988.800000 15345411.700000,10423668.500000 15371807.000000,10421026.200000 Z"/> 
<path style="fill-opacity: 1.0;stroke-width: 0.100000;stroke-opacity: 1;stroke-linecap: round;stroke-linejoin: round;fill-rule: evenodd" d="M 14253068.800000,10418095.200000 14287301.700000,10435090.000000 14308994.600000,10462719.500000 14317242.600000,10498795.300000 14311063.100000,10538161.500000 14294764.400000,10563516.100000 14265841.300000,10581591.800000 14235451.700000,10585708.700000 14210006.900000,10583138.900000 14191156.800000,10576682.700000 14179760.600000,10568653.300000 14167638.100000,10557048.600000 14159326.100000,10543808.700000 14152390.700000,10518897.700000 14149820.200000,10497565.200000 14152664.000000,10475373.600000 14163225.600000,10451663.200000 14174373.300000,10438698.400000 14194461.400000,10424796.000000 14211010.800000,10419106.500000 14232616.000000,10416372.200000 14233161.500000,10448800.000000 14230913.000000,10448800.000000 14219038.900000,10449783.800000 14209517.600000,10454914.300000 14201174.000000,10463006.900000 14193734.400000,10479126.100000 14191230.000000,10498411.900000 14191230.000000,10512658.300000 14194976.800000,10528137.100000 14200410.200000,10540238.300000 14211198.100000,10550041.900000 14228700.000000,10555963.300000 14246179.800000,10553744.400000 14262657.700000,10543660.000000 14268035.600000,10533394.800000 14271777.800000,10521912.900000 14273527.600000,10509428.400000 14273023.200000,10490844.700000 14270278.800000,10476099.600000 14266324.000000,10467218.400000 14258448.400000,10456374.900000 14246963.100000,10450026.200000 14234920.000000,10448378.000000 14234920.000000,10417195.100000 14237219.000000,10416290.000000 14238046.000000,10416290.000000 Z"/> 
<path style="fill-opacity: 1.0;stroke-width: 0.100000;stroke-opacity: 1;stroke-linecap: round;stroke-linejoin: round;fill-rule: evenodd" d="M 14944956.600000,10368564.100000 14957473.300000,10374866.100000 14967990.100000,10384266.300000 14975566.800000,10400458.000000 14977360.000000,10422077.400000 14977360.000000,10425430.000000 14990336.100000,10425430.000000 15019527.000000,10454620.900000 14977870.000000,10454882.100000 14977870.000000,10584940.000000 14933680.000000,10584940.000000 14933680.000000,10454640.000000 14903700.000000,10454640.000000 14903700.000000,10425430.000000 14933420.000000,10425430.000000 14933420.000000,10412816.400000 14932790.800000,10408199.800000 14931116.400000,10404153.600000 14923874.900000,10399010.000000 14905799.200000,10399010.000000 14902998.800000,10399270.000000 14900910.000000,10399270.000000 14900910.000000,10366500.000000 14902398.300000,10366500.000000 14908966.500000,10366170.500000 14915598.800000,10365740.000000 14931269.700000,10365740.000000 Z"/> 
<path style="fill-opacity: 1.0;stroke-width: 0.100000;stroke-opacity: 1;stroke-linecap: round;stroke-linejoin: round;fill-rule: evenodd" d="M 14891510.000000,10534217.700000 14889690.000000,10549050.100000 14884310.900000,10563075.800000 14875726.700000,10575349.400000 14874390.600000,10576684.400000 14872657.800000,10578080.000000 14872520.500000,10578080.000000 14858768.100000,10585234.200000 14843067.000000,10588250.400000 14813037.000000,10585683.900000 14810183.100000,10584808.700000 14807525.200000,10583482.600000 14793747.400000,10572963.500000 14784580.000000,10562188.700000 14784580.000000,10584180.000000 14741910.000000,10584180.000000 14741910.000000,10425430.000000 14786610.000000,10425430.000000 14786610.000000,10509681.600000 14789603.300000,10533863.400000 14804557.100000,10551269.200000 14818499.700000,10554022.600000 14832599.200000,10550986.600000 14838303.100000,10547341.500000 14842621.200000,10542162.600000 14847570.000000,10526079.100000 14847570.000000,10424920.000000 14891510.000000,10424920.000000 Z"/> 
<path style="fill-opacity: 1.0;stroke-width: 0.100000;stroke-opacity: 1;stroke-linecap: round;stroke-linejoin: round;fill-rule: evenodd" d="M 15547990.800000,10421871.700000 15553041.900000,10422940.600000 15566499.300000,10428370.400000 15574098.000000,10433876.100000 15583079.600000,10443625.500000 15584408.800000,10445106.200000 15584150.700000,10424403.200000 15625570.000000,10432248.000000 15625570.000000,10639604.800000 15581630.000000,10679235.700000 15581630.000000,10565401.300000 15564462.900000,10581879.400000 15552887.400000,10585960.000000 15552661.100000,10585960.000000 15515874.400000,10585447.000000 15503412.700000,10581060.400000 15492312.200000,10574013.800000 15483016.700000,10564580.200000 15466300.200000,10525487.300000 15467966.600000,10480880.600000 15477240.000000,10451809.700000 15477240.000000,10455989.100000 15488749.500000,10439786.900000 15497203.000000,10433091.700000 15506444.900000,10427552.100000 15527875.300000,10421617.800000 Z"/> 
<path style="fill-opacity: 1.0;stroke-width: 0.100000;stroke-opacity: 1;stroke-linecap: round;stroke-linejoin: round;fill-rule: evenodd" d="M 15759102.500000,10447106.300000 15753470.600000,10479313.000000 15709008.900000,10505783.600000 15667503.100000,10528395.500000 15677856.500000,10559218.500000 15716090.500000,10567852.000000 15790062.000000,10531259.700000 15789652.300000,10537094.100000 15788604.100000,10543095.600000 15784211.200000,10556010.000000 15778987.500000,10564957.700000 15771388.700000,10571979.600000 15759225.500000,10579742.100000 15741160.700000,10585939.800000 15728171.700000,10587190.900000 15715202.000000,10587742.300000 15688571.900000,10585433.300000 15675025.000000,10581177.800000 15652732.500000,10564155.700000 15644644.300000,10545126.000000 15644128.300000,10539705.900000 15643861.600000,10534464.500000 15645129.600000,10534400.000000 15643887.100000,10534139.200000 15648252.100000,10513344.900000 15650952.200000,10508923.400000 15654478.200000,10505210.600000 15669242.200000,10495891.300000 15703246.200000,10485915.600000 15723463.200000,10481876.200000 15737755.100000,10474977.600000 15742449.500000,10468398.100000 15742994.700000,10462885.500000 15741048.500000,10457587.400000 15738753.000000,10454950.200000 15735745.900000,10452991.700000 15731510.900000,10451423.400000 15727050.900000,10450580.000000 15710055.500000,10450580.000000 15702728.200000,10452399.700000 15696301.600000,10456107.600000 15689775.000000,10465526.400000 15688902.000000,10471660.000000 15647527.000000,10471660.000000 15648502.600000,10462533.200000 15669754.300000,10449150.200000 15715721.800000,10435792.800000 Z"/> 
<path style="fill-opacity: 1.0;stroke-width: 0.100000;stroke-opacity: 1;stroke-linecap: round;stroke-linejoin: round;fill-rule: evenodd" d="M 15160500.000000,10389382.400000 15160500.000000,10583946.100000 15159246.100000,10585200.000000 15116050.000000,10585200.000000 15116050.000000,10529856.800000 15099514.200000,10513788.400000 15056817.100000,10584176.500000 15002919.100000,10584441.700000 15070209.100000,10483511.700000 15011075.000000,10425680.000000 15061456.100000,10425680.000000 15116560.000000,10480784.000000 15116560.000000,10364313.300000 Z"/> 
<path style="fill-opacity: 1.0;stroke-width: 0.100000;stroke-opacity: 1;stroke-linecap: round;stroke-linejoin: round;fill-rule: evenodd" d="M 15212109.200000,10428337.700000 15221236.400000,10434343.800000 15228534.200000,10441374.600000 15232025.900000,10446707.600000 15235467.200000,10451906.300000 15237253.100000,10454589.600000 15237710.000000,10454738.900000 15237710.000000,10425434.500000 15278858.100000,10432745.400000 15279122.200000,10583930.000000 15234920.000000,10583930.000000 15234920.000000,10504523.800000 15232179.800000,10487817.700000 15226145.800000,10476294.900000 15216716.900000,10467430.300000 15201149.100000,10462001.000000 15193645.000000,10461686.000000 15186017.800000,10462006.200000 15183071.300000,10462435.300000 15180120.700000,10463238.900000 15179257.000000,10463454.600000 15178331.700000,10463530.000000 15176750.000000,10463530.000000 15176750.000000,10422448.400000 15191911.600000,10421608.500000 Z"/> 
<path style="fill-opacity: 1.0;stroke-width: 0.100000;stroke-opacity: 1;stroke-linecap: round;stroke-linejoin: round;fill-rule: evenodd" d="M 14045577.100000,10416713.700000 14052499.700000,10417575.100000 14058094.500000,10418662.000000 14063652.100000,10420171.300000 14072783.700000,10424323.300000 14080587.100000,10430589.500000 14088314.100000,10438570.000000 14091378.100000,10442581.100000 14091670.000000,10442646.100000 14091670.000000,10420860.000000 14134080.000000,10420860.000000 14134080.000000,10583930.000000 14088360.000000,10583930.000000 14088360.000000,10484749.200000 14084392.900000,10466877.900000 14080653.600000,10462125.700000 14076369.800000,10457649.700000 14070807.000000,10453950.000000 14064295.500000,10452340.200000 14060103.900000,10452073.700000 14055931.100000,10451856.000000 14046598.100000,10453545.700000 14039126.600000,10459001.100000 14032230.000000,10477479.200000 14032230.000000,10584180.000000 13986510.000000,10584180.000000 13986510.000000,10487683.300000 13986303.100000,10482145.600000 13985767.400000,10476719.200000 13983048.600000,10467239.900000 13977746.700000,10459153.900000 13966556.300000,10452826.400000 13957673.800000,10451918.700000 13948708.600000,10452591.100000 13940113.000000,10456159.700000 13934079.800000,10463111.300000 13929870.000000,10480194.200000 13929870.000000,10584180.000000 13884910.000000,10584180.000000 13884910.000000,10466861.500000 13896565.000000,10435516.400000 13920011.900000,10420151.800000 13945855.600000,10416529.600000 13959526.000000,10418133.000000 13972148.300000,10423557.700000 13981224.400000,10430071.200000 13989191.800000,10437745.300000 13993770.600000,10442574.600000 13994210.500000,10443014.500000 13999879.800000,10433888.400000 14008681.600000,10425531.200000 14018443.100000,10420147.000000 14018413.800000,10419810.400000 14038507.800000,10416283.300000 Z"/> 
<path style="fill-opacity: 1.0;stroke-width: 0.100000;stroke-opacity: 1;stroke-linecap: round;stroke-linejoin: round;fill-rule: evenodd" d="M 15896318.400000,11156655.400000 15919492.300000,11166256.500000 15958972.000000,11134065.400000 15994404.600000,11169498.000000 15962213.500000,11208977.700000 15971814.600000,11232151.600000 16022490.000000,11237303.900000 16022490.000000,11287416.100000 15971814.600000,11292568.400000 15962213.500000,11315742.300000 15994404.600000,11355222.000000 15958972.000000,11390654.600000 15920002.200000,11358879.200000 15916769.700000,11360717.700000 15901643.200000,11367733.200000 15879039.000000,11313170.000000 15856942.300000,11313170.000000 15891041.200000,11292737.300000 15898402.300000,11284616.500000 15905327.600000,11261783.300000 15903791.300000,11251203.100000 15899068.900000,11240963.800000 15891633.400000,11232487.600000 15882096.800000,11226471.900000 15871244.200000,11223412.000000 15859969.400000,11223560.100000 15849201.300000,11226903.900000 15839825.800000,11233168.200000 15832615.300000,11241837.100000 15828163.600000,11252196.600000 15826837.100000,11263393.900000 15828745.100000,11274506.800000 15833483.800000,11284120.000000 15857242.100000,11303367.300000 15830449.900000,11368039.400000 15812392.300000,11358737.000000 15773248.000000,11390654.600000 15737815.400000,11355222.000000 15770006.500000,11315742.300000 15760405.400000,11292568.400000 15709730.000000,11287416.100000 15709730.000000,11237303.900000 15760405.400000,11232151.600000 15770006.500000,11208977.700000 15737815.400000,11169498.000000 15773248.000000,11134065.400000 15812392.300000,11165983.100000 15823763.000000,11160125.600000 15835945.300000,11156224.900000 15841053.900000,11105980.000000 15891166.100000,11105980.000000 Z"/> 
</g> 
</g><g id="substrate-outline" style="fill:#000000; stroke:#000000; stroke-width: 15000.0"><g style="fill-opacity: 0.0;stroke-opacity: 1;stroke-linecap: round;stroke-linejoin: round">
<path d="M16120110 9357360 L13580110 9357360 "/>
<path d="M16120110 11643360 L16120110 9357360 "/>
<path d="M13580110 9357360 L13580110 11643360 "/>
<path d="M13580110 11643360 L16120110 11643360 "/>
</g> 
<path d="M -50800.0 0.0 A 50800.0 50800.0 0 1 1 50800.0 0.0 L 50800.0 -0.0 A 50800.0 50800.0 0 1 1 -50800.0 -0.0 Z" transform="translate(15993110.0 11516360.0) rotate(-270.0)"/><path d="M -50800.0 0.0 A 50800.0 50800.0 0 1 1 50800.0 0.0 L 50800.0 -0.0 A 50800.0 50800.0 0 1 1 -50800.0 -0.0 Z" transform="translate(15739110.0 11516360.0) rotate(-270.0)"/><path d="M -50800.0 0.0 A 50800.0 50800.0 0 1 1 50800.0 0.0 L 50800.0 -0.0 A 50800.0 50800.0 0 1 1 -50800.0 -0.0 Z" transform="translate(15485110.0 11516360.0) rotate(-270.0)"/><path d="M -50800.0 0.0 A 50800.0 50800.0 0 1 1 50800.0 0.0 L 50800.0 -0.0 A 50800.0 50800.0 0 1 1 -50800.0 -0.0 Z" transform="translate(15231110.0 11516360.0) rotate(-270.0)"/><path d="M -50800.0 0.0 A 50800.0 50800.0 0 1 1 50800.0 0.0 L 50800.0 -0.0 A 50800.0 50800.0 0 1 1 -50800.0 -0.0 Z" transform="translate(14977110.0 11516360.0) rotate(-270.0)"/><path d="M -50800.0 0.0 A 50800.0 50800.0 0 1 1 50800.0 0.0 L 50800.0 -0.0 A 50800.0 50800.0 0 1 1 -50800.0 -0.0 Z" transform="translate(14723110.0 11516360.0) rotate(-270.0)"/><path d="M -50800.0 0.0 A 50800.0 50800.0 0 1 1 50800.0 0.0 L 50800.0 -0.0 A 50800.0 50800.0 0 1 1 -50800.0 -0.0 Z" transform="translate(14469110.0 11516360.0) rotate(-270.0)"/><path d="M -50800.0 0.0 A 50800.0 50800.0 0 1 1 50800.0 0.0 L 50800.0 -0.0 A 50800.0 50800.0 0 1 1 -50800.0 -0.0 Z" transform="translate(14215110.0 11516360.0) rotate(-270.0)"/><path d="M -50800.0 0.0 A 50800.0 50800.0 0 1 1 50800.0 0.0 L 50800.0 -0.0 A 50800.0 50800.0 0 1 1 -50800.0 -0.0 Z" transform="translate(13961110.0 11516360.0) rotate(-270.0)"/><path d="M -50800.0 0.0 A 50800.0 50800.0 0 1 1 50800.0 0.0 L 50800.0 -0.0 A 50800.0 50800.0 0 1 1 -50800.0 -0.0 Z" transform="translate(13707110.0 11516360.0) rotate(-270.0)"/><path d="M -50800.0 0.0 A 50800.0 50800.0 0 1 1 50800.0 0.0 L 50800.0 -0.0 A 50800.0 50800.0 0 1 1 -50800.0 -0.0 Z" transform="translate(13707110.0 9484360.0) rotate(-90.0)"/><path d="M -50800.0 0.0 A 50800.0 50800.0 0 1 1 50800.0 0.0 L 50800.0 -0.0 A 50800.0 50800.0 0 1 1 -50800.0 -0.0 Z" transform="translate(13961110.0 9484360.0) rotate(-90.0)"/><path d="M -50800.0 0.0 A 50800.0 50800.0 0 1 1 50800.0 0.0 L 50800.0 -0.0 A 50800.0 50800.0 0 1 1 -50800.0 -0.0 Z" transform="translate(14215110.0 9484360.0) rotate(-90.0)"/><path d="M -50800.0 0.0 A 50800.0 50800.0 0 1 1 50800.0 0.0 L 50800.0 -0.0 A 50800.0 50800.0 0 1 1 -50800.0 -0.0 Z" transform="translate(14469110.0 9484360.0) rotate(-90.0)"/><path d="M -50800.0 0.0 A 50800.0 50800.0 0 1 1 50800.0 0.0 L 50800.0 -0.0 A 50800.0 50800.0 0 1 1 -50800.0 -0.0 Z" transform="translate(14723110.0 9484360.0) rotate(-90.0)"/><path d="M -50800.0 0.0 A 50800.0 50800.0 0 1 1 50800.0 0.0 L 50800.0 -0.0 A 50800.0 50800.0 0 1 1 -50800.0 -0.0 Z" transform="translate(14977110.0 9484360.0) rotate(-90.0)"/><path d="M -50800.0 0.0 A 50800.0 50800.0 0 1 1 50800.0 0.0 L 50800.0 -0.0 A 50800.0 50800.0 0 1 1 -50800.0 -0.0 Z" transform="translate(15231110.0 9484360.0) rotate(-90.0)"/><path d="M -50800.0 0.0 A 50800.0 50800.0 0 1 1 50800.0 0.0 L 50800.0 -0.0 A 50800.0 50800.0 0 1 1 -50800.0 -0.0 Z" transform="translate(15485110.0 9484360.0) rotate(-90.0)"/><path d="M -50800.0 0.0 A 50800.0 50800.0 0 1 1 50800.0 0.0 L 50800.0 -0.0 A 50800.0 50800.0 0 1 1 -50800.0 -0.0 Z" transform="translate(15739110.0 9484360.0) rotate(-90.0)"/><path d="M -50800.0 0.0 A 50800.0 50800.0 0 1 1 50800.0 0.0 L 50800.0 -0.0 A 50800.0 50800.0 0 1 1 -50800.0 -0.0 Z" transform="translate(15993110.0 9484360.0) rotate(-90.0)"/><path d="M -25400.0 0.0 A 25400.0 25400.0 0 1 1 25400.0 0.0 L 25400.0 -0.0 A 25400.0 25400.0 0 1 1 -25400.0 -0.0 Z" transform="translate(14024610.0 10055860.0) rotate(0.0)"/><path d="M -25400.0 0.0 A 25400.0 25400.0 0 1 1 25400.0 0.0 L 25400.0 -0.0 A 25400.0 25400.0 0 1 1 -25400.0 -0.0 Z" transform="translate(15866110.0 10957560.0) rotate(0.0)"/><path d="M -25400.0 0.0 A 25400.0 25400.0 0 1 1 25400.0 0.0 L 25400.0 -0.0 A 25400.0 25400.0 0 1 1 -25400.0 -0.0 Z" transform="translate(14659610.0 10182860.0) rotate(0.0)"/><path d="M -25400.0 0.0 A 25400.0 25400.0 0 1 1 25400.0 0.0 L 25400.0 -0.0 A 25400.0 25400.0 0 1 1 -25400.0 -0.0 Z" transform="translate(14024610.0 10309860.0) rotate(0.0)"/><path d="M -25400.0 0.0 A 25400.0 25400.0 0 1 1 25400.0 0.0 L 25400.0 -0.0 A 25400.0 25400.0 0 1 1 -25400.0 -0.0 Z" transform="translate(15294610.0 10817860.0) rotate(0.0)"/><path d="M -25400.0 0.0 A 25400.0 25400.0 0 1 1 25400.0 0.0 L 25400.0 -0.0 A 25400.0 25400.0 0 1 1 -25400.0 -0.0 Z" transform="translate(14278610.0 10817860.0) rotate(0.0)"/><path d="M -25400.0 0.0 A 25400.0 25400.0 0 1 1 25400.0 0.0 L 25400.0 -0.0 A 25400.0 25400.0 0 1 1 -25400.0 -0.0 Z" transform="translate(15294610.0 10182860.0) rotate(0.0)"/><path d="M -25400.0 0.0 A 25400.0 25400.0 0 1 1 25400.0 0.0 L 25400.0 -0.0 A 25400.0 25400.0 0 1 1 -25400.0 -0.0 Z" transform="translate(14659610.0 10817860.0) rotate(0.0)"/><path d="M -25400.0 0.0 A 25400.0 25400.0 0 1 1 25400.0 0.0 L 25400.0 -0.0 A 25400.0 25400.0 0 1 1 -25400.0 -0.0 Z" transform="translate(15332710.0 10957560.0) rotate(0.0)"/><path d="M -25400.0 0.0 A 25400.0 25400.0 0 1 1 25400.0 0.0 L 25400.0 -0.0 A 25400.0 25400.0 0 1 1 -25400.0 -0.0 Z" transform="translate(14469110.0 10690860.0) rotate(0.0)"/></g></g></g></svg>