<?xml version="1.0" standalone="no"?>
 <!DOCTYPE svg PUBLIC "-//W3C//DTD SVG 1.1//EN" 
 "http://www.w3.org/Graphics/SVG/1.1/DTD/svg11.dtd"> 
<svg
  xmlns:svg="http://www.w3.org/2000/svg"
  xmlns="http://www.w3.org/2000/svg"
  xmlns:xlink="http://www.w3.org/1999/xlink"
  version="1.1"
  width="29.700220cm" height="21.000720cm" viewBox="0 0 297002200 210007200">
<title>SVG Picture created as kicadBoard-B_Silkscreen.svg date 2022/11/06 08:03:08 </title>
  <desc>Picture generated by PCBNEW </desc>
<g style="fill:#000000; fill-opacity:1.000000;stroke:#000000; stroke-opacity:1.000000;
stroke-linecap:round; stroke-linejoin:round;"
 transform="translate(0 0) scale(1 1)">
</g>
<g style="fill:#000000; fill-opacity:0.0; 
stroke:#000000; stroke-width:0.000000; stroke-opacity:1; 
stroke-linecap:round; stroke-linejoin:round;">
</g>
<g style="fill:#000000; fill-opacity:0.0; 
stroke:#000000; stroke-width:21200.000000; stroke-opacity:1; 
stroke-linecap:round; stroke-linejoin:round;">
</g>
<g style="fill:#000000; fill-opacity:0.0; 
stroke:#000000; stroke-width:150000.000000; stroke-opacity:1; 
stroke-linecap:round; stroke-linejoin:round;">
<rect x="177002200.000000" y="166007200.000000" width="108000000.000000" height="32000000.000000" rx="0.000000" />
</g>
<g style="fill:#000000; fill-opacity:0.0; 
stroke:#000000; stroke-width:21200.000000; stroke-opacity:1; 
stroke-linecap:round; stroke-linejoin:round;">
</g>
<g style="fill:#000000; fill-opacity:0.0; 
stroke:#000000; stroke-width:150000.000000; stroke-opacity:1; 
stroke-linecap:round; stroke-linejoin:round;">
<rect x="10000000.000000" y="10000000.000000" width="277002200.000000" height="190007200.000000" rx="0.000000" />
</g>
<g style="fill:#000000; fill-opacity:0.0; 
stroke:#000000; stroke-width:21200.000000; stroke-opacity:1; 
stroke-linecap:round; stroke-linejoin:round;">
</g>
<g style="fill:#000000; fill-opacity:0.0; 
stroke:#000000; stroke-width:150000.000000; stroke-opacity:1; 
stroke-linecap:round; stroke-linejoin:round;">
<rect x="12000000.000000" y="12000000.000000" width="273002200.000000" height="186007200.000000" rx="0.000000" />
</g>
<g style="fill:#000000; fill-opacity:0.0; 
stroke:#000000; stroke-width:21200.000000; stroke-opacity:1; 
stroke-linecap:round; stroke-linejoin:round;">
</g>
<g style="fill:#000000; fill-opacity:0.0; 
stroke:#000000; stroke-width:150000.000000; stroke-opacity:1; 
stroke-linecap:round; stroke-linejoin:round;">
<path d="M60000000 12000000
L60000000 10000000
" />
</g>
<g style="fill:#000000; fill-opacity:0.0; 
stroke:#000000; stroke-width:21200.000000; stroke-opacity:1; 
stroke-linecap:round; stroke-linejoin:round;">
</g>
<g style="fill:#000000; fill-opacity:0.0; 
stroke:#000000; stroke-width:150000.000000; stroke-opacity:1; 
stroke-linecap:round; stroke-linejoin:round;">
<path d="M110000000 12000000
L110000000 10000000
" />
</g>
<g style="fill:#000000; fill-opacity:0.0; 
stroke:#000000; stroke-width:21200.000000; stroke-opacity:1; 
stroke-linecap:round; stroke-linejoin:round;">
</g>
<g style="fill:#000000; fill-opacity:0.0; 
stroke:#000000; stroke-width:150000.000000; stroke-opacity:1; 
stroke-linecap:round; stroke-linejoin:round;">
<path d="M160000000 12000000
L160000000 10000000
" />
</g>
<g style="fill:#000000; fill-opacity:0.0; 
stroke:#000000; stroke-width:21200.000000; stroke-opacity:1; 
stroke-linecap:round; stroke-linejoin:round;">
</g>
<g style="fill:#000000; fill-opacity:0.0; 
stroke:#000000; stroke-width:150000.000000; stroke-opacity:1; 
stroke-linecap:round; stroke-linejoin:round;">
<path d="M210000000 12000000
L210000000 10000000
" />
</g>
<g style="fill:#000000; fill-opacity:0.0; 
stroke:#000000; stroke-width:21200.000000; stroke-opacity:1; 
stroke-linecap:round; stroke-linejoin:round;">
</g>
<g style="fill:#000000; fill-opacity:0.0; 
stroke:#000000; stroke-width:150000.000000; stroke-opacity:1; 
stroke-linecap:round; stroke-linejoin:round;">
<path d="M260000000 12000000
L260000000 10000000
" />
</g>
<g style="fill:#000000; fill-opacity:0.0; 
stroke:#000000; stroke-width:21200.000000; stroke-opacity:1; 
stroke-linecap:round; stroke-linejoin:round;">
</g>
<g style="fill:#000000; fill-opacity:0.0; 
stroke:#000000; stroke-width:150000.000000; stroke-opacity:1; 
stroke-linecap:round; stroke-linejoin:round;">
<text x="35000000.000000" y="11650000.000000"
textLength="1388095.000000" font-size="1733333.000000" lengthAdjust="spacingAndGlyphs"
text-anchor="start" opacity="0">1</text>
<g class="stroked-text"><desc>1</desc>
<path d="M36065476 11588095
L35322619 11588095
" />
<path d="M35694047 11588095
L35694047 10288095
L35570238 10473809
L35446428 10597619
L35322619 10659523
" />
</g></g>
<g style="fill:#000000; fill-opacity:0.0; 
stroke:#000000; stroke-width:21200.000000; stroke-opacity:1; 
stroke-linecap:round; stroke-linejoin:round;">
</g>
<g style="fill:#000000; fill-opacity:0.0; 
stroke:#000000; stroke-width:150000.000000; stroke-opacity:1; 
stroke-linecap:round; stroke-linejoin:round;">
<text x="85000000.000000" y="11650000.000000"
textLength="1388095.000000" font-size="1733333.000000" lengthAdjust="spacingAndGlyphs"
text-anchor="start" opacity="0">2</text>
<g class="stroked-text"><desc>2</desc>
<path d="M85322619 10411904
L85384523 10350000
L85508333 10288095
L85817857 10288095
L85941666 10350000
L86003571 10411904
L86065476 10535714
L86065476 10659523
L86003571 10845238
L85260714 11588095
L86065476 11588095
" />
</g></g>
<g style="fill:#000000; fill-opacity:0.0; 
stroke:#000000; stroke-width:21200.000000; stroke-opacity:1; 
stroke-linecap:round; stroke-linejoin:round;">
</g>
<g style="fill:#000000; fill-opacity:0.0; 
stroke:#000000; stroke-width:150000.000000; stroke-opacity:1; 
stroke-linecap:round; stroke-linejoin:round;">
<text x="135000000.000000" y="11650000.000000"
textLength="1388095.000000" font-size="1733333.000000" lengthAdjust="spacingAndGlyphs"
text-anchor="start" opacity="0">3</text>
<g class="stroked-text"><desc>3</desc>
<path d="M135260714 10288095
L136065476 10288095
L135632142 10783333
L135817857 10783333
L135941666 10845238
L136003571 10907142
L136065476 11030952
L136065476 11340476
L136003571 11464285
L135941666 11526190
L135817857 11588095
L135446428 11588095
L135322619 11526190
L135260714 11464285
" />
</g></g>
<g style="fill:#000000; fill-opacity:0.0; 
stroke:#000000; stroke-width:21200.000000; stroke-opacity:1; 
stroke-linecap:round; stroke-linejoin:round;">
</g>
<g style="fill:#000000; fill-opacity:0.0; 
stroke:#000000; stroke-width:150000.000000; stroke-opacity:1; 
stroke-linecap:round; stroke-linejoin:round;">
<text x="185000000.000000" y="11650000.000000"
textLength="1388095.000000" font-size="1733333.000000" lengthAdjust="spacingAndGlyphs"
text-anchor="start" opacity="0">4</text>
<g class="stroked-text"><desc>4</desc>
<path d="M185941666 10721428
L185941666 11588095
" />
<path d="M185632142 10226190
L185322619 11154761
L186127380 11154761
" />
</g></g>
<g style="fill:#000000; fill-opacity:0.0; 
stroke:#000000; stroke-width:21200.000000; stroke-opacity:1; 
stroke-linecap:round; stroke-linejoin:round;">
</g>
<g style="fill:#000000; fill-opacity:0.0; 
stroke:#000000; stroke-width:150000.000000; stroke-opacity:1; 
stroke-linecap:round; stroke-linejoin:round;">
<text x="235000000.000000" y="11650000.000000"
textLength="1388095.000000" font-size="1733333.000000" lengthAdjust="spacingAndGlyphs"
text-anchor="start" opacity="0">5</text>
<g class="stroked-text"><desc>5</desc>
<path d="M236003571 10288095
L235384523 10288095
L235322619 10907142
L235384523 10845238
L235508333 10783333
L235817857 10783333
L235941666 10845238
L236003571 10907142
L236065476 11030952
L236065476 11340476
L236003571 11464285
L235941666 11526190
L235817857 11588095
L235508333 11588095
L235384523 11526190
L235322619 11464285
" />
</g></g>
<g style="fill:#000000; fill-opacity:0.0; 
stroke:#000000; stroke-width:21200.000000; stroke-opacity:1; 
stroke-linecap:round; stroke-linejoin:round;">
</g>
<g style="fill:#000000; fill-opacity:0.0; 
stroke:#000000; stroke-width:150000.000000; stroke-opacity:1; 
stroke-linecap:round; stroke-linejoin:round;">
<text x="285000000.000000" y="11650000.000000"
textLength="1388095.000000" font-size="1733333.000000" lengthAdjust="spacingAndGlyphs"
text-anchor="start" opacity="0">6</text>
<g class="stroked-text"><desc>6</desc>
<path d="M285941666 10288095
L285694047 10288095
L285570238 10350000
L285508333 10411904
L285384523 10597619
L285322619 10845238
L285322619 11340476
L285384523 11464285
L285446428 11526190
L285570238 11588095
L285817857 11588095
L285941666 11526190
L286003571 11464285
L286065476 11340476
L286065476 11030952
L286003571 10907142
L285941666 10845238
L285817857 10783333
L285570238 10783333
L285446428 10845238
L285384523 10907142
L285322619 11030952
" />
</g></g>
<g style="fill:#000000; fill-opacity:0.0; 
stroke:#000000; stroke-width:21200.000000; stroke-opacity:1; 
stroke-linecap:round; stroke-linejoin:round;">
</g>
<g style="fill:#000000; fill-opacity:0.0; 
stroke:#000000; stroke-width:150000.000000; stroke-opacity:1; 
stroke-linecap:round; stroke-linejoin:round;">
<path d="M60000000 198007200
L60000000 200007200
" />
</g>
<g style="fill:#000000; fill-opacity:0.0; 
stroke:#000000; stroke-width:21200.000000; stroke-opacity:1; 
stroke-linecap:round; stroke-linejoin:round;">
</g>
<g style="fill:#000000; fill-opacity:0.0; 
stroke:#000000; stroke-width:150000.000000; stroke-opacity:1; 
stroke-linecap:round; stroke-linejoin:round;">
<path d="M110000000 198007200
L110000000 200007200
" />
</g>
<g style="fill:#000000; fill-opacity:0.0; 
stroke:#000000; stroke-width:21200.000000; stroke-opacity:1; 
stroke-linecap:round; stroke-linejoin:round;">
</g>
<g style="fill:#000000; fill-opacity:0.0; 
stroke:#000000; stroke-width:150000.000000; stroke-opacity:1; 
stroke-linecap:round; stroke-linejoin:round;">
<path d="M160000000 198007200
L160000000 200007200
" />
</g>
<g style="fill:#000000; fill-opacity:0.0; 
stroke:#000000; stroke-width:21200.000000; stroke-opacity:1; 
stroke-linecap:round; stroke-linejoin:round;">
</g>
<g style="fill:#000000; fill-opacity:0.0; 
stroke:#000000; stroke-width:150000.000000; stroke-opacity:1; 
stroke-linecap:round; stroke-linejoin:round;">
<path d="M210000000 198007200
L210000000 200007200
" />
</g>
<g style="fill:#000000; fill-opacity:0.0; 
stroke:#000000; stroke-width:21200.000000; stroke-opacity:1; 
stroke-linecap:round; stroke-linejoin:round;">
</g>
<g style="fill:#000000; fill-opacity:0.0; 
stroke:#000000; stroke-width:150000.000000; stroke-opacity:1; 
stroke-linecap:round; stroke-linejoin:round;">
<path d="M260000000 198007200
L260000000 200007200
" />
</g>
<g style="fill:#000000; fill-opacity:0.0; 
stroke:#000000; stroke-width:21200.000000; stroke-opacity:1; 
stroke-linecap:round; stroke-linejoin:round;">
</g>
<g style="fill:#000000; fill-opacity:0.0; 
stroke:#000000; stroke-width:150000.000000; stroke-opacity:1; 
stroke-linecap:round; stroke-linejoin:round;">
<text x="35000000.000000" y="199657200.000000"
textLength="1388095.000000" font-size="1733333.000000" lengthAdjust="spacingAndGlyphs"
text-anchor="start" opacity="0">1</text>
<g class="stroked-text"><desc>1</desc>
<path d="M36065476 199595295
L35322619 199595295
" />
<path d="M35694047 199595295
L35694047 198295295
L35570238 198481009
L35446428 198604819
L35322619 198666723
" />
</g></g>
<g style="fill:#000000; fill-opacity:0.0; 
stroke:#000000; stroke-width:21200.000000; stroke-opacity:1; 
stroke-linecap:round; stroke-linejoin:round;">
</g>
<g style="fill:#000000; fill-opacity:0.0; 
stroke:#000000; stroke-width:150000.000000; stroke-opacity:1; 
stroke-linecap:round; stroke-linejoin:round;">
<text x="85000000.000000" y="199657200.000000"
textLength="1388095.000000" font-size="1733333.000000" lengthAdjust="spacingAndGlyphs"
text-anchor="start" opacity="0">2</text>
<g class="stroked-text"><desc>2</desc>
<path d="M85322619 198419104
L85384523 198357200
L85508333 198295295
L85817857 198295295
L85941666 198357200
L86003571 198419104
L86065476 198542914
L86065476 198666723
L86003571 198852438
L85260714 199595295
L86065476 199595295
" />
</g></g>
<g style="fill:#000000; fill-opacity:0.0; 
stroke:#000000; stroke-width:21200.000000; stroke-opacity:1; 
stroke-linecap:round; stroke-linejoin:round;">
</g>
<g style="fill:#000000; fill-opacity:0.0; 
stroke:#000000; stroke-width:150000.000000; stroke-opacity:1; 
stroke-linecap:round; stroke-linejoin:round;">
<text x="135000000.000000" y="199657200.000000"
textLength="1388095.000000" font-size="1733333.000000" lengthAdjust="spacingAndGlyphs"
text-anchor="start" opacity="0">3</text>
<g class="stroked-text"><desc>3</desc>
<path d="M135260714 198295295
L136065476 198295295
L135632142 198790533
L135817857 198790533
L135941666 198852438
L136003571 198914342
L136065476 199038152
L136065476 199347676
L136003571 199471485
L135941666 199533390
L135817857 199595295
L135446428 199595295
L135322619 199533390
L135260714 199471485
" />
</g></g>
<g style="fill:#000000; fill-opacity:0.0; 
stroke:#000000; stroke-width:21200.000000; stroke-opacity:1; 
stroke-linecap:round; stroke-linejoin:round;">
</g>
<g style="fill:#000000; fill-opacity:0.0; 
stroke:#000000; stroke-width:150000.000000; stroke-opacity:1; 
stroke-linecap:round; stroke-linejoin:round;">
<text x="185000000.000000" y="199657200.000000"
textLength="1388095.000000" font-size="1733333.000000" lengthAdjust="spacingAndGlyphs"
text-anchor="start" opacity="0">4</text>
<g class="stroked-text"><desc>4</desc>
<path d="M185941666 198728628
L185941666 199595295
" />
<path d="M185632142 198233390
L185322619 199161961
L186127380 199161961
" />
</g></g>
<g style="fill:#000000; fill-opacity:0.0; 
stroke:#000000; stroke-width:21200.000000; stroke-opacity:1; 
stroke-linecap:round; stroke-linejoin:round;">
</g>
<g style="fill:#000000; fill-opacity:0.0; 
stroke:#000000; stroke-width:150000.000000; stroke-opacity:1; 
stroke-linecap:round; stroke-linejoin:round;">
<text x="235000000.000000" y="199657200.000000"
textLength="1388095.000000" font-size="1733333.000000" lengthAdjust="spacingAndGlyphs"
text-anchor="start" opacity="0">5</text>
<g class="stroked-text"><desc>5</desc>
<path d="M236003571 198295295
L235384523 198295295
L235322619 198914342
L235384523 198852438
L235508333 198790533
L235817857 198790533
L235941666 198852438
L236003571 198914342
L236065476 199038152
L236065476 199347676
L236003571 199471485
L235941666 199533390
L235817857 199595295
L235508333 199595295
L235384523 199533390
L235322619 199471485
" />
</g></g>
<g style="fill:#000000; fill-opacity:0.0; 
stroke:#000000; stroke-width:21200.000000; stroke-opacity:1; 
stroke-linecap:round; stroke-linejoin:round;">
</g>
<g style="fill:#000000; fill-opacity:0.0; 
stroke:#000000; stroke-width:150000.000000; stroke-opacity:1; 
stroke-linecap:round; stroke-linejoin:round;">
<text x="285000000.000000" y="199657200.000000"
textLength="1388095.000000" font-size="1733333.000000" lengthAdjust="spacingAndGlyphs"
text-anchor="start" opacity="0">6</text>
<g class="stroked-text"><desc>6</desc>
<path d="M285941666 198295295
L285694047 198295295
L285570238 198357200
L285508333 198419104
L285384523 198604819
L285322619 198852438
L285322619 199347676
L285384523 199471485
L285446428 199533390
L285570238 199595295
L285817857 199595295
L285941666 199533390
L286003571 199471485
L286065476 199347676
L286065476 199038152
L286003571 198914342
L285941666 198852438
L285817857 198790533
L285570238 198790533
L285446428 198852438
L285384523 198914342
L285322619 199038152
" />
</g></g>
<g style="fill:#000000; fill-opacity:0.0; 
stroke:#000000; stroke-width:21200.000000; stroke-opacity:1; 
stroke-linecap:round; stroke-linejoin:round;">
</g>
<g style="fill:#000000; fill-opacity:0.0; 
stroke:#000000; stroke-width:150000.000000; stroke-opacity:1; 
stroke-linecap:round; stroke-linejoin:round;">
<path d="M10000000 60000000
L12000000 60000000
" />
</g>
<g style="fill:#000000; fill-opacity:0.0; 
stroke:#000000; stroke-width:21200.000000; stroke-opacity:1; 
stroke-linecap:round; stroke-linejoin:round;">
</g>
<g style="fill:#000000; fill-opacity:0.0; 
stroke:#000000; stroke-width:150000.000000; stroke-opacity:1; 
stroke-linecap:round; stroke-linejoin:round;">
<path d="M10000000 110000000
L12000000 110000000
" />
</g>
<g style="fill:#000000; fill-opacity:0.0; 
stroke:#000000; stroke-width:21200.000000; stroke-opacity:1; 
stroke-linecap:round; stroke-linejoin:round;">
</g>
<g style="fill:#000000; fill-opacity:0.0; 
stroke:#000000; stroke-width:150000.000000; stroke-opacity:1; 
stroke-linecap:round; stroke-linejoin:round;">
<path d="M10000000 160000000
L12000000 160000000
" />
</g>
<g style="fill:#000000; fill-opacity:0.0; 
stroke:#000000; stroke-width:21200.000000; stroke-opacity:1; 
stroke-linecap:round; stroke-linejoin:round;">
</g>
<g style="fill:#000000; fill-opacity:0.0; 
stroke:#000000; stroke-width:150000.000000; stroke-opacity:1; 
stroke-linecap:round; stroke-linejoin:round;">
<text x="11000000.000000" y="35650000.000000"
textLength="1264286.000000" font-size="1733333.000000" lengthAdjust="spacingAndGlyphs"
text-anchor="middle" opacity="0">A</text>
<g class="stroked-text"><desc>A</desc>
<path d="M10690476 35216666
L11309523 35216666
" />
<path d="M10566666 35588095
L11000000 34288095
L11433333 35588095
" />
</g></g>
<g style="fill:#000000; fill-opacity:0.0; 
stroke:#000000; stroke-width:21200.000000; stroke-opacity:1; 
stroke-linecap:round; stroke-linejoin:round;">
</g>
<g style="fill:#000000; fill-opacity:0.0; 
stroke:#000000; stroke-width:150000.000000; stroke-opacity:1; 
stroke-linecap:round; stroke-linejoin:round;">
<text x="11000000.000000" y="85650000.000000"
textLength="1450000.000000" font-size="1733333.000000" lengthAdjust="spacingAndGlyphs"
text-anchor="middle" opacity="0">B</text>
<g class="stroked-text"><desc>B</desc>
<path d="M11092857 84907142
L11278571 84969047
L11340476 85030952
L11402380 85154761
L11402380 85340476
L11340476 85464285
L11278571 85526190
L11154761 85588095
L10659523 85588095
L10659523 84288095
L11092857 84288095
L11216666 84350000
L11278571 84411904
L11340476 84535714
L11340476 84659523
L11278571 84783333
L11216666 84845238
L11092857 84907142
L10659523 84907142
" />
</g></g>
<g style="fill:#000000; fill-opacity:0.0; 
stroke:#000000; stroke-width:21200.000000; stroke-opacity:1; 
stroke-linecap:round; stroke-linejoin:round;">
</g>
<g style="fill:#000000; fill-opacity:0.0; 
stroke:#000000; stroke-width:150000.000000; stroke-opacity:1; 
stroke-linecap:round; stroke-linejoin:round;">
<text x="11000000.000000" y="135650000.000000"
textLength="1450000.000000" font-size="1733333.000000" lengthAdjust="spacingAndGlyphs"
text-anchor="middle" opacity="0">C</text>
<g class="stroked-text"><desc>C</desc>
<path d="M11402380 135464285
L11340476 135526190
L11154761 135588095
L11030952 135588095
L10845238 135526190
L10721428 135402380
L10659523 135278571
L10597619 135030952
L10597619 134845238
L10659523 134597619
L10721428 134473809
L10845238 134350000
L11030952 134288095
L11154761 134288095
L11340476 134350000
L11402380 134411904
" />
</g></g>
<g style="fill:#000000; fill-opacity:0.0; 
stroke:#000000; stroke-width:21200.000000; stroke-opacity:1; 
stroke-linecap:round; stroke-linejoin:round;">
</g>
<g style="fill:#000000; fill-opacity:0.0; 
stroke:#000000; stroke-width:150000.000000; stroke-opacity:1; 
stroke-linecap:round; stroke-linejoin:round;">
<text x="11000000.000000" y="185650000.000000"
textLength="1450000.000000" font-size="1733333.000000" lengthAdjust="spacingAndGlyphs"
text-anchor="middle" opacity="0">D</text>
<g class="stroked-text"><desc>D</desc>
<path d="M10659523 185588095
L10659523 184288095
L10969047 184288095
L11154761 184350000
L11278571 184473809
L11340476 184597619
L11402380 184845238
L11402380 185030952
L11340476 185278571
L11278571 185402380
L11154761 185526190
L10969047 185588095
L10659523 185588095
" />
</g></g>
<g style="fill:#000000; fill-opacity:0.0; 
stroke:#000000; stroke-width:21200.000000; stroke-opacity:1; 
stroke-linecap:round; stroke-linejoin:round;">
</g>
<g style="fill:#000000; fill-opacity:0.0; 
stroke:#000000; stroke-width:150000.000000; stroke-opacity:1; 
stroke-linecap:round; stroke-linejoin:round;">
<path d="M287002200 60000000
L285002200 60000000
" />
</g>
<g style="fill:#000000; fill-opacity:0.0; 
stroke:#000000; stroke-width:21200.000000; stroke-opacity:1; 
stroke-linecap:round; stroke-linejoin:round;">
</g>
<g style="fill:#000000; fill-opacity:0.0; 
stroke:#000000; stroke-width:150000.000000; stroke-opacity:1; 
stroke-linecap:round; stroke-linejoin:round;">
<path d="M287002200 110000000
L285002200 110000000
" />
</g>
<g style="fill:#000000; fill-opacity:0.0; 
stroke:#000000; stroke-width:21200.000000; stroke-opacity:1; 
stroke-linecap:round; stroke-linejoin:round;">
</g>
<g style="fill:#000000; fill-opacity:0.0; 
stroke:#000000; stroke-width:150000.000000; stroke-opacity:1; 
stroke-linecap:round; stroke-linejoin:round;">
<path d="M287002200 160000000
L285002200 160000000
" />
</g>
<g style="fill:#000000; fill-opacity:0.0; 
stroke:#000000; stroke-width:21200.000000; stroke-opacity:1; 
stroke-linecap:round; stroke-linejoin:round;">
</g>
<g style="fill:#000000; fill-opacity:0.0; 
stroke:#000000; stroke-width:150000.000000; stroke-opacity:1; 
stroke-linecap:round; stroke-linejoin:round;">
<text x="286002200.000000" y="35650000.000000"
textLength="1264286.000000" font-size="1733333.000000" lengthAdjust="spacingAndGlyphs"
text-anchor="middle" opacity="0">A</text>
<g class="stroked-text"><desc>A</desc>
<path d="M285692676 35216666
L286311723 35216666
" />
<path d="M285568866 35588095
L286002200 34288095
L286435533 35588095
" />
</g></g>
<g style="fill:#000000; fill-opacity:0.0; 
stroke:#000000; stroke-width:21200.000000; stroke-opacity:1; 
stroke-linecap:round; stroke-linejoin:round;">
</g>
<g style="fill:#000000; fill-opacity:0.0; 
stroke:#000000; stroke-width:150000.000000; stroke-opacity:1; 
stroke-linecap:round; stroke-linejoin:round;">
<text x="286002200.000000" y="85650000.000000"
textLength="1450000.000000" font-size="1733333.000000" lengthAdjust="spacingAndGlyphs"
text-anchor="middle" opacity="0">B</text>
<g class="stroked-text"><desc>B</desc>
<path d="M286095057 84907142
L286280771 84969047
L286342676 85030952
L286404580 85154761
L286404580 85340476
L286342676 85464285
L286280771 85526190
L286156961 85588095
L285661723 85588095
L285661723 84288095
L286095057 84288095
L286218866 84350000
L286280771 84411904
L286342676 84535714
L286342676 84659523
L286280771 84783333
L286218866 84845238
L286095057 84907142
L285661723 84907142
" />
</g></g>
<g style="fill:#000000; fill-opacity:0.0; 
stroke:#000000; stroke-width:21200.000000; stroke-opacity:1; 
stroke-linecap:round; stroke-linejoin:round;">
</g>
<g style="fill:#000000; fill-opacity:0.0; 
stroke:#000000; stroke-width:150000.000000; stroke-opacity:1; 
stroke-linecap:round; stroke-linejoin:round;">
<text x="286002200.000000" y="135650000.000000"
textLength="1450000.000000" font-size="1733333.000000" lengthAdjust="spacingAndGlyphs"
text-anchor="middle" opacity="0">C</text>
<g class="stroked-text"><desc>C</desc>
<path d="M286404580 135464285
L286342676 135526190
L286156961 135588095
L286033152 135588095
L285847438 135526190
L285723628 135402380
L285661723 135278571
L285599819 135030952
L285599819 134845238
L285661723 134597619
L285723628 134473809
L285847438 134350000
L286033152 134288095
L286156961 134288095
L286342676 134350000
L286404580 134411904
" />
</g></g>
<g style="fill:#000000; fill-opacity:0.0; 
stroke:#000000; stroke-width:21200.000000; stroke-opacity:1; 
stroke-linecap:round; stroke-linejoin:round;">
</g>
<g style="fill:#000000; fill-opacity:0.0; 
stroke:#000000; stroke-width:150000.000000; stroke-opacity:1; 
stroke-linecap:round; stroke-linejoin:round;">
<text x="286002200.000000" y="185650000.000000"
textLength="1450000.000000" font-size="1733333.000000" lengthAdjust="spacingAndGlyphs"
text-anchor="middle" opacity="0">D</text>
<g class="stroked-text"><desc>D</desc>
<path d="M285661723 185588095
L285661723 184288095
L285971247 184288095
L286156961 184350000
L286280771 184473809
L286342676 184597619
L286404580 184845238
L286404580 185030952
L286342676 185278571
L286280771 185402380
L286156961 185526190
L285971247 185588095
L285661723 185588095
" />
</g></g>
<g style="fill:#000000; fill-opacity:0.0; 
stroke:#000000; stroke-width:21200.000000; stroke-opacity:1; 
stroke-linecap:round; stroke-linejoin:round;">
</g>
<g style="fill:#000000; fill-opacity:0.0; 
stroke:#000000; stroke-width:150000.000000; stroke-opacity:1; 
stroke-linecap:round; stroke-linejoin:round;">
<text x="200002200.000000" y="193857200.000000"
textLength="7007143.000000" font-size="2000000.000000" lengthAdjust="spacingAndGlyphs"
text-anchor="start" opacity="0">Date: </text>
<g class="stroked-text"><desc>Date: </desc>
<path d="M200434342 193785771
L200434342 192285771
L200791485 192285771
L201005771 192357200
L201148628 192500057
L201220057 192642914
L201291485 192928628
L201291485 193142914
L201220057 193428628
L201148628 193571485
L201005771 193714342
L200791485 193785771
L200434342 193785771
" />
<path d="M202577200 193785771
L202577200 193000057
L202505771 192857200
L202362914 192785771
L202077200 192785771
L201934342 192857200
" />
<path d="M202577200 193714342
L202434342 193785771
L202077200 193785771
L201934342 193714342
L201862914 193571485
L201862914 193428628
L201934342 193285771
L202077200 193214342
L202434342 193214342
L202577200 193142914
" />
<path d="M203077200 192785771
L203648628 192785771
" />
<path d="M203291485 192285771
L203291485 193571485
L203362914 193714342
L203505771 193785771
L203648628 193785771
" />
<path d="M204720057 193714342
L204577200 193785771
L204291485 193785771
L204148628 193714342
L204077200 193571485
L204077200 193000057
L204148628 192857200
L204291485 192785771
L204577200 192785771
L204720057 192857200
L204791485 193000057
L204791485 193142914
L204077200 193285771
" />
<path d="M205434342 193642914
L205505771 193714342
L205434342 193785771
L205362914 193714342
L205434342 193642914
L205434342 193785771
" />
<path d="M205434342 192857200
L205505771 192928628
L205434342 193000057
L205362914 192928628
L205434342 192857200
L205434342 193000057
" />
</g></g>
<g style="fill:#000000; fill-opacity:0.0; 
stroke:#000000; stroke-width:21200.000000; stroke-opacity:1; 
stroke-linecap:round; stroke-linejoin:round;">
</g>
<g style="fill:#000000; fill-opacity:0.0; 
stroke:#000000; stroke-width:150000.000000; stroke-opacity:1; 
stroke-linecap:round; stroke-linejoin:round;">
<path d="M177002200 194507200
L285002200 194507200
" />
</g>
<g style="fill:#000000; fill-opacity:0.0; 
stroke:#000000; stroke-width:21200.000000; stroke-opacity:1; 
stroke-linecap:round; stroke-linejoin:round;">
</g>
<g style="fill:#000000; fill-opacity:0.0; 
stroke:#000000; stroke-width:150000.000000; stroke-opacity:1; 
stroke-linecap:round; stroke-linejoin:round;">
<text x="178002200.000000" y="196657200.000000"
textLength="33364286.000000" font-size="2000000.000000" lengthAdjust="spacingAndGlyphs"
text-anchor="start" opacity="0">KiCad E.D.A.  pcbnew (6.0.9)</text>
<g class="stroked-text"><desc>KiCad E.D.A.  pcbnew (6.0.9)</desc>
<path d="M178434342 196585771
L178434342 195085771
" />
<path d="M179291485 196585771
L178648628 195728628
" />
<path d="M179291485 195085771
L178434342 195942914
" />
<path d="M179934342 196585771
L179934342 195585771
" />
<path d="M179934342 195085771
L179862914 195157200
L179934342 195228628
L180005771 195157200
L179934342 195085771
L179934342 195228628
" />
<path d="M181505771 196442914
L181434342 196514342
L181220057 196585771
L181077200 196585771
L180862914 196514342
L180720057 196371485
L180648628 196228628
L180577200 195942914
L180577200 195728628
L180648628 195442914
L180720057 195300057
L180862914 195157200
L181077200 195085771
L181220057 195085771
L181434342 195157200
L181505771 195228628
" />
<path d="M182791485 196585771
L182791485 195800057
L182720057 195657200
L182577200 195585771
L182291485 195585771
L182148628 195657200
" />
<path d="M182791485 196514342
L182648628 196585771
L182291485 196585771
L182148628 196514342
L182077200 196371485
L182077200 196228628
L182148628 196085771
L182291485 196014342
L182648628 196014342
L182791485 195942914
" />
<path d="M184148628 196585771
L184148628 195085771
" />
<path d="M184148628 196514342
L184005771 196585771
L183720057 196585771
L183577200 196514342
L183505771 196442914
L183434342 196300057
L183434342 195871485
L183505771 195728628
L183577200 195657200
L183720057 195585771
L184005771 195585771
L184148628 195657200
" />
<path d="M186005771 195800057
L186505771 195800057
" />
<path d="M186720057 196585771
L186005771 196585771
L186005771 195085771
L186720057 195085771
" />
<path d="M187362914 196442914
L187434342 196514342
L187362914 196585771
L187291485 196514342
L187362914 196442914
L187362914 196585771
" />
<path d="M188077200 196585771
L188077200 195085771
L188434342 195085771
L188648628 195157200
L188791485 195300057
L188862914 195442914
L188934342 195728628
L188934342 195942914
L188862914 196228628
L188791485 196371485
L188648628 196514342
L188434342 196585771
L188077200 196585771
" />
<path d="M189577200 196442914
L189648628 196514342
L189577200 196585771
L189505771 196514342
L189577200 196442914
L189577200 196585771
" />
<path d="M190220057 196157200
L190934342 196157200
" />
<path d="M190077200 196585771
L190577200 195085771
L191077200 196585771
" />
<path d="M191577200 196442914
L191648628 196514342
L191577200 196585771
L191505771 196514342
L191577200 196442914
L191577200 196585771
" />
<path d="M194577200 195585771
L194577200 197085771
" />
<path d="M194577200 195657200
L194720057 195585771
L195005771 195585771
L195148628 195657200
L195220057 195728628
L195291485 195871485
L195291485 196300057
L195220057 196442914
L195148628 196514342
L195005771 196585771
L194720057 196585771
L194577200 196514342
" />
<path d="M196577200 196514342
L196434342 196585771
L196148628 196585771
L196005771 196514342
L195934342 196442914
L195862914 196300057
L195862914 195871485
L195934342 195728628
L196005771 195657200
L196148628 195585771
L196434342 195585771
L196577200 195657200
" />
<path d="M197220057 196585771
L197220057 195085771
" />
<path d="M197220057 195657200
L197362914 195585771
L197648628 195585771
L197791485 195657200
L197862914 195728628
L197934342 195871485
L197934342 196300057
L197862914 196442914
L197791485 196514342
L197648628 196585771
L197362914 196585771
L197220057 196514342
" />
<path d="M198577200 195585771
L198577200 196585771
" />
<path d="M198577200 195728628
L198648628 195657200
L198791485 195585771
L199005771 195585771
L199148628 195657200
L199220057 195800057
L199220057 196585771
" />
<path d="M200505771 196514342
L200362914 196585771
L200077200 196585771
L199934342 196514342
L199862914 196371485
L199862914 195800057
L199934342 195657200
L200077200 195585771
L200362914 195585771
L200505771 195657200
L200577200 195800057
L200577200 195942914
L199862914 196085771
" />
<path d="M201077200 195585771
L201362914 196585771
L201648628 195871485
L201934342 196585771
L202220057 195585771
" />
<path d="M204362914 197157200
L204291485 197085771
L204148628 196871485
L204077200 196728628
L204005771 196514342
L203934342 196157200
L203934342 195871485
L204005771 195514342
L204077200 195300057
L204148628 195157200
L204291485 194942914
L204362914 194871485
" />
<path d="M205577200 195085771
L205291485 195085771
L205148628 195157200
L205077200 195228628
L204934342 195442914
L204862914 195728628
L204862914 196300057
L204934342 196442914
L205005771 196514342
L205148628 196585771
L205434342 196585771
L205577200 196514342
L205648628 196442914
L205720057 196300057
L205720057 195942914
L205648628 195800057
L205577200 195728628
L205434342 195657200
L205148628 195657200
L205005771 195728628
L204934342 195800057
L204862914 195942914
" />
<path d="M206362914 196442914
L206434342 196514342
L206362914 196585771
L206291485 196514342
L206362914 196442914
L206362914 196585771
" />
<path d="M207362914 195085771
L207505771 195085771
L207648628 195157200
L207720057 195228628
L207791485 195371485
L207862914 195657200
L207862914 196014342
L207791485 196300057
L207720057 196442914
L207648628 196514342
L207505771 196585771
L207362914 196585771
L207220057 196514342
L207148628 196442914
L207077200 196300057
L207005771 196014342
L207005771 195657200
L207077200 195371485
L207148628 195228628
L207220057 195157200
L207362914 195085771
" />
<path d="M208505771 196442914
L208577200 196514342
L208505771 196585771
L208434342 196514342
L208505771 196442914
L208505771 196585771
" />
<path d="M209291485 196585771
L209577200 196585771
L209720057 196514342
L209791485 196442914
L209934342 196228628
L210005771 195942914
L210005771 195371485
L209934342 195228628
L209862914 195157200
L209720057 195085771
L209434342 195085771
L209291485 195157200
L209220057 195228628
L209148628 195371485
L209148628 195728628
L209220057 195871485
L209291485 195942914
L209434342 196014342
L209720057 196014342
L209862914 195942914
L209934342 195871485
L210005771 195728628
" />
<path d="M210505771 197157200
L210577200 197085771
L210720057 196871485
L210791485 196728628
L210862914 196514342
L210934342 196157200
L210934342 195871485
L210862914 195514342
L210791485 195300057
L210720057 195157200
L210577200 194942914
L210505771 194871485
" />
</g></g>
<g style="fill:#000000; fill-opacity:0.0; 
stroke:#000000; stroke-width:21200.000000; stroke-opacity:1; 
stroke-linecap:round; stroke-linejoin:round;">
</g>
<g style="fill:#000000; fill-opacity:0.0; 
stroke:#000000; stroke-width:150000.000000; stroke-opacity:1; 
stroke-linecap:round; stroke-linejoin:round;">
<path d="M177002200 191507200
L285002200 191507200
" />
</g>
<g style="fill:#000000; fill-opacity:0.0; 
stroke:#000000; stroke-width:21200.000000; stroke-opacity:1; 
stroke-linecap:round; stroke-linejoin:round;">
</g>
<g style="fill:#000000; fill-opacity:0.0; 
stroke:#000000; stroke-width:300000.000000; stroke-opacity:1; 
stroke-linecap:round; stroke-linejoin:round;">
<text x="263002200.000000" y="193857200.000000"
textLength="5935714.000000" font-size="2000000.000000" lengthAdjust="spacingAndGlyphs"
text-anchor="start" opacity="0">Rev: </text>
<g class="stroked-text"><desc>Rev: </desc>
<path d="M264411485 193785771
L263911485 193071485
" />
<path d="M263554342 193785771
L263554342 192285771
L264125771 192285771
L264268628 192357200
L264340057 192428628
L264411485 192571485
L264411485 192785771
L264340057 192928628
L264268628 193000057
L264125771 193071485
L263554342 193071485
" />
<path d="M265625771 193714342
L265482914 193785771
L265197200 193785771
L265054342 193714342
L264982914 193571485
L264982914 193000057
L265054342 192857200
L265197200 192785771
L265482914 192785771
L265625771 192857200
L265697200 193000057
L265697200 193142914
L264982914 193285771
" />
<path d="M266197200 192785771
L266554342 193785771
L266911485 192785771
" />
<path d="M267482914 193642914
L267554342 193714342
L267482914 193785771
L267411485 193714342
L267482914 193642914
L267482914 193785771
" />
<path d="M267482914 192857200
L267554342 192928628
L267482914 193000057
L267411485 192928628
L267482914 192857200
L267482914 193000057
" />
</g></g>
<g style="fill:#000000; fill-opacity:0.0; 
stroke:#000000; stroke-width:21200.000000; stroke-opacity:1; 
stroke-linecap:round; stroke-linejoin:round;">
</g>
<g style="fill:#000000; fill-opacity:0.0; 
stroke:#000000; stroke-width:150000.000000; stroke-opacity:1; 
stroke-linecap:round; stroke-linejoin:round;">
<text x="178002200.000000" y="193857200.000000"
textLength="9604286.000000" font-size="2000000.000000" lengthAdjust="spacingAndGlyphs"
text-anchor="start" opacity="0">Size: A4</text>
<g class="stroked-text"><desc>Size: A4</desc>
<path d="M178362914 193714342
L178577200 193785771
L178934342 193785771
L179077200 193714342
L179148628 193642914
L179220057 193500057
L179220057 193357200
L179148628 193214342
L179077200 193142914
L178934342 193071485
L178648628 193000057
L178505771 192928628
L178434342 192857200
L178362914 192714342
L178362914 192571485
L178434342 192428628
L178505771 192357200
L178648628 192285771
L179005771 192285771
L179220057 192357200
" />
<path d="M179862914 193785771
L179862914 192785771
" />
<path d="M179862914 192285771
L179791485 192357200
L179862914 192428628
L179934342 192357200
L179862914 192285771
L179862914 192428628
" />
<path d="M180434342 192785771
L181220057 192785771
L180434342 193785771
L181220057 193785771
" />
<path d="M182362914 193714342
L182220057 193785771
L181934342 193785771
L181791485 193714342
L181720057 193571485
L181720057 193000057
L181791485 192857200
L181934342 192785771
L182220057 192785771
L182362914 192857200
L182434342 193000057
L182434342 193142914
L181720057 193285771
" />
<path d="M183077200 193642914
L183148628 193714342
L183077200 193785771
L183005771 193714342
L183077200 193642914
L183077200 193785771
" />
<path d="M183077200 192857200
L183148628 192928628
L183077200 193000057
L183005771 192928628
L183077200 192857200
L183077200 193000057
" />
<path d="M184862914 193357200
L185577200 193357200
" />
<path d="M184720057 193785771
L185220057 192285771
L185720057 193785771
" />
<path d="M186862914 192785771
L186862914 193785771
" />
<path d="M186505771 192214342
L186148628 193285771
L187077200 193285771
" />
</g></g>
<g style="fill:#000000; fill-opacity:0.0; 
stroke:#000000; stroke-width:21200.000000; stroke-opacity:1; 
stroke-linecap:round; stroke-linejoin:round;">
</g>
<g style="fill:#000000; fill-opacity:0.0; 
stroke:#000000; stroke-width:150000.000000; stroke-opacity:1; 
stroke-linecap:round; stroke-linejoin:round;">
<text x="263002200.000000" y="196657200.000000"
textLength="8507143.000000" font-size="2000000.000000" lengthAdjust="spacingAndGlyphs"
text-anchor="start" opacity="0">Id: 1/1</text>
<g class="stroked-text"><desc>Id: 1/1</desc>
<path d="M263434342 196585771
L263434342 195085771
" />
<path d="M264791485 196585771
L264791485 195085771
" />
<path d="M264791485 196514342
L264648628 196585771
L264362914 196585771
L264220057 196514342
L264148628 196442914
L264077200 196300057
L264077200 195871485
L264148628 195728628
L264220057 195657200
L264362914 195585771
L264648628 195585771
L264791485 195657200
" />
<path d="M265505771 196442914
L265577200 196514342
L265505771 196585771
L265434342 196514342
L265505771 196442914
L265505771 196585771
" />
<path d="M265505771 195657200
L265577200 195728628
L265505771 195800057
L265434342 195728628
L265505771 195657200
L265505771 195800057
" />
<path d="M268148628 196585771
L267291485 196585771
" />
<path d="M267720057 196585771
L267720057 195085771
L267577200 195300057
L267434342 195442914
L267291485 195514342
" />
<path d="M269862914 195014342
L268577200 196942914
" />
<path d="M271148628 196585771
L270291485 196585771
" />
<path d="M270720057 196585771
L270720057 195085771
L270577200 195300057
L270434342 195442914
L270291485 195514342
" />
</g></g>
<g style="fill:#000000; fill-opacity:0.0; 
stroke:#000000; stroke-width:21200.000000; stroke-opacity:1; 
stroke-linecap:round; stroke-linejoin:round;">
</g>
<g style="fill:#000000; fill-opacity:0.0; 
stroke:#000000; stroke-width:150000.000000; stroke-opacity:1; 
stroke-linecap:round; stroke-linejoin:round;">
<path d="M177002200 187507200
L285002200 187507200
" />
</g>
<g style="fill:#000000; fill-opacity:0.0; 
stroke:#000000; stroke-width:21200.000000; stroke-opacity:1; 
stroke-linecap:round; stroke-linejoin:round;">
</g>
<g style="fill:#000000; fill-opacity:0.0; 
stroke:#000000; stroke-width:400000.000000; stroke-opacity:1; 
stroke-linecap:round; stroke-linejoin:round;">
<text x="178002200.000000" y="190307200.000000"
textLength="9409643.000000" font-size="2666666.000000" lengthAdjust="spacingAndGlyphs"
text-anchor="start" opacity="0">Title: </text>
<g class="stroked-text"><desc>Title: </desc>
<path d="M178714580 188211961
L179857438 188211961
" />
<path d="M179036009 190211961
L179286009 188211961
" />
<path d="M180274104 190211961
L180440771 188878628
" />
<path d="M180524104 188211961
L180416961 188307200
L180500295 188402438
L180607438 188307200
L180524104 188211961
L180500295 188402438
" />
<path d="M181107438 188878628
L181869342 188878628
" />
<path d="M181476485 188211961
L181262200 189926247
L181333628 190116723
L181512200 190211961
L181702676 190211961
" />
<path d="M182655057 190211961
L182476485 190116723
L182405057 189926247
L182619342 188211961
" />
<path d="M184190771 190116723
L183988390 190211961
L183607438 190211961
L183428866 190116723
L183357438 189926247
L183452676 189164342
L183571723 188973866
L183774104 188878628
L184155057 188878628
L184333628 188973866
L184405057 189164342
L184381247 189354819
L183405057 189545295
" />
<path d="M185155057 190021485
L185238390 190116723
L185131247 190211961
L185047914 190116723
L185155057 190021485
L185131247 190211961
" />
<path d="M185286009 188973866
L185369342 189069104
L185262200 189164342
L185178866 189069104
L185286009 188973866
L185262200 189164342
" />
</g></g>
<g style="fill:#000000; fill-opacity:0.0; 
stroke:#000000; stroke-width:21200.000000; stroke-opacity:1; 
stroke-linecap:round; stroke-linejoin:round;">
</g>
<g style="fill:#000000; fill-opacity:0.0; 
stroke:#000000; stroke-width:150000.000000; stroke-opacity:1; 
stroke-linecap:round; stroke-linejoin:round;">
<text x="178002200.000000" y="186457200.000000"
textLength="30662857.000000" font-size="2000000.000000" lengthAdjust="spacingAndGlyphs"
text-anchor="start" opacity="0">File: kicadBoard.kicad_pcb</text>
<g class="stroked-text"><desc>File: kicadBoard.kicad_pcb</desc>
<path d="M178934342 185600057
L178434342 185600057
" />
<path d="M178434342 186385771
L178434342 184885771
L179148628 184885771
" />
<path d="M179720057 186385771
L179720057 185385771
" />
<path d="M179720057 184885771
L179648628 184957200
L179720057 185028628
L179791485 184957200
L179720057 184885771
L179720057 185028628
" />
<path d="M180648628 186385771
L180505771 186314342
L180434342 186171485
L180434342 184885771
" />
<path d="M181791485 186314342
L181648628 186385771
L181362914 186385771
L181220057 186314342
L181148628 186171485
L181148628 185600057
L181220057 185457200
L181362914 185385771
L181648628 185385771
L181791485 185457200
L181862914 185600057
L181862914 185742914
L181148628 185885771
" />
<path d="M182505771 186242914
L182577200 186314342
L182505771 186385771
L182434342 186314342
L182505771 186242914
L182505771 186385771
" />
<path d="M182505771 185457200
L182577200 185528628
L182505771 185600057
L182434342 185528628
L182505771 185457200
L182505771 185600057
" />
<path d="M184362914 186385771
L184362914 184885771
" />
<path d="M184505771 185814342
L184934342 186385771
" />
<path d="M184934342 185385771
L184362914 185957200
" />
<path d="M185577200 186385771
L185577200 185385771
" />
<path d="M185577200 184885771
L185505771 184957200
L185577200 185028628
L185648628 184957200
L185577200 184885771
L185577200 185028628
" />
<path d="M186934342 186314342
L186791485 186385771
L186505771 186385771
L186362914 186314342
L186291485 186242914
L186220057 186100057
L186220057 185671485
L186291485 185528628
L186362914 185457200
L186505771 185385771
L186791485 185385771
L186934342 185457200
" />
<path d="M188220057 186385771
L188220057 185600057
L188148628 185457200
L188005771 185385771
L187720057 185385771
L187577200 185457200
" />
<path d="M188220057 186314342
L188077200 186385771
L187720057 186385771
L187577200 186314342
L187505771 186171485
L187505771 186028628
L187577200 185885771
L187720057 185814342
L188077200 185814342
L188220057 185742914
" />
<path d="M189577200 186385771
L189577200 184885771
" />
<path d="M189577200 186314342
L189434342 186385771
L189148628 186385771
L189005771 186314342
L188934342 186242914
L188862914 186100057
L188862914 185671485
L188934342 185528628
L189005771 185457200
L189148628 185385771
L189434342 185385771
L189577200 185457200
" />
<path d="M190791485 185600057
L191005771 185671485
L191077200 185742914
L191148628 185885771
L191148628 186100057
L191077200 186242914
L191005771 186314342
L190862914 186385771
L190291485 186385771
L190291485 184885771
L190791485 184885771
L190934342 184957200
L191005771 185028628
L191077200 185171485
L191077200 185314342
L191005771 185457200
L190934342 185528628
L190791485 185600057
L190291485 185600057
" />
<path d="M192005771 186385771
L191862914 186314342
L191791485 186242914
L191720057 186100057
L191720057 185671485
L191791485 185528628
L191862914 185457200
L192005771 185385771
L192220057 185385771
L192362914 185457200
L192434342 185528628
L192505771 185671485
L192505771 186100057
L192434342 186242914
L192362914 186314342
L192220057 186385771
L192005771 186385771
" />
<path d="M193791485 186385771
L193791485 185600057
L193720057 185457200
L193577200 185385771
L193291485 185385771
L193148628 185457200
" />
<path d="M193791485 186314342
L193648628 186385771
L193291485 186385771
L193148628 186314342
L193077200 186171485
L193077200 186028628
L193148628 185885771
L193291485 185814342
L193648628 185814342
L193791485 185742914
" />
<path d="M194505771 186385771
L194505771 185385771
" />
<path d="M194505771 185671485
L194577200 185528628
L194648628 185457200
L194791485 185385771
L194934342 185385771
" />
<path d="M196077200 186385771
L196077200 184885771
" />
<path d="M196077200 186314342
L195934342 186385771
L195648628 186385771
L195505771 186314342
L195434342 186242914
L195362914 186100057
L195362914 185671485
L195434342 185528628
L195505771 185457200
L195648628 185385771
L195934342 185385771
L196077200 185457200
" />
<path d="M196791485 186242914
L196862914 186314342
L196791485 186385771
L196720057 186314342
L196791485 186242914
L196791485 186385771
" />
<path d="M197505771 186385771
L197505771 184885771
" />
<path d="M197648628 185814342
L198077200 186385771
" />
<path d="M198077200 185385771
L197505771 185957200
" />
<path d="M198720057 186385771
L198720057 185385771
" />
<path d="M198720057 184885771
L198648628 184957200
L198720057 185028628
L198791485 184957200
L198720057 184885771
L198720057 185028628
" />
<path d="M200077200 186314342
L199934342 186385771
L199648628 186385771
L199505771 186314342
L199434342 186242914
L199362914 186100057
L199362914 185671485
L199434342 185528628
L199505771 185457200
L199648628 185385771
L199934342 185385771
L200077200 185457200
" />
<path d="M201362914 186385771
L201362914 185600057
L201291485 185457200
L201148628 185385771
L200862914 185385771
L200720057 185457200
" />
<path d="M201362914 186314342
L201220057 186385771
L200862914 186385771
L200720057 186314342
L200648628 186171485
L200648628 186028628
L200720057 185885771
L200862914 185814342
L201220057 185814342
L201362914 185742914
" />
<path d="M202720057 186385771
L202720057 184885771
" />
<path d="M202720057 186314342
L202577200 186385771
L202291485 186385771
L202148628 186314342
L202077200 186242914
L202005771 186100057
L202005771 185671485
L202077200 185528628
L202148628 185457200
L202291485 185385771
L202577200 185385771
L202720057 185457200
" />
<path d="M203077200 186528628
L204220057 186528628
" />
<path d="M204577200 185385771
L204577200 186885771
" />
<path d="M204577200 185457200
L204720057 185385771
L205005771 185385771
L205148628 185457200
L205220057 185528628
L205291485 185671485
L205291485 186100057
L205220057 186242914
L205148628 186314342
L205005771 186385771
L204720057 186385771
L204577200 186314342
" />
<path d="M206577200 186314342
L206434342 186385771
L206148628 186385771
L206005771 186314342
L205934342 186242914
L205862914 186100057
L205862914 185671485
L205934342 185528628
L206005771 185457200
L206148628 185385771
L206434342 185385771
L206577200 185457200
" />
<path d="M207220057 186385771
L207220057 184885771
" />
<path d="M207220057 185457200
L207362914 185385771
L207648628 185385771
L207791485 185457200
L207862914 185528628
L207934342 185671485
L207934342 186100057
L207862914 186242914
L207791485 186314342
L207648628 186385771
L207362914 186385771
L207220057 186314342
" />
</g></g>
<g style="fill:#000000; fill-opacity:0.0; 
stroke:#000000; stroke-width:21200.000000; stroke-opacity:1; 
stroke-linecap:round; stroke-linejoin:round;">
</g>
<g style="fill:#000000; fill-opacity:0.0; 
stroke:#000000; stroke-width:150000.000000; stroke-opacity:1; 
stroke-linecap:round; stroke-linejoin:round;">
<path d="M177002200 181507200
L285002200 181507200
" />
</g>
<g style="fill:#000000; fill-opacity:0.0; 
stroke:#000000; stroke-width:21200.000000; stroke-opacity:1; 
stroke-linecap:round; stroke-linejoin:round;">
</g>
<g style="fill:#000000; fill-opacity:0.0; 
stroke:#000000; stroke-width:150000.000000; stroke-opacity:1; 
stroke-linecap:round; stroke-linejoin:round;">
<text x="178002200.000000" y="183757200.000000"
textLength="8221429.000000" font-size="2000000.000000" lengthAdjust="spacingAndGlyphs"
text-anchor="start" opacity="0">Sheet: </text>
<g class="stroked-text"><desc>Sheet: </desc>
<path d="M178362914 183614342
L178577200 183685771
L178934342 183685771
L179077200 183614342
L179148628 183542914
L179220057 183400057
L179220057 183257200
L179148628 183114342
L179077200 183042914
L178934342 182971485
L178648628 182900057
L178505771 182828628
L178434342 182757200
L178362914 182614342
L178362914 182471485
L178434342 182328628
L178505771 182257200
L178648628 182185771
L179005771 182185771
L179220057 182257200
" />
<path d="M179862914 183685771
L179862914 182185771
" />
<path d="M180505771 183685771
L180505771 182900057
L180434342 182757200
L180291485 182685771
L180077200 182685771
L179934342 182757200
L179862914 182828628
" />
<path d="M181791485 183614342
L181648628 183685771
L181362914 183685771
L181220057 183614342
L181148628 183471485
L181148628 182900057
L181220057 182757200
L181362914 182685771
L181648628 182685771
L181791485 182757200
L181862914 182900057
L181862914 183042914
L181148628 183185771
" />
<path d="M183077200 183614342
L182934342 183685771
L182648628 183685771
L182505771 183614342
L182434342 183471485
L182434342 182900057
L182505771 182757200
L182648628 182685771
L182934342 182685771
L183077200 182757200
L183148628 182900057
L183148628 183042914
L182434342 183185771
" />
<path d="M183577200 182685771
L184148628 182685771
" />
<path d="M183791485 182185771
L183791485 183471485
L183862914 183614342
L184005771 183685771
L184148628 183685771
" />
<path d="M184648628 183542914
L184720057 183614342
L184648628 183685771
L184577200 183614342
L184648628 183542914
L184648628 183685771
" />
<path d="M184648628 182757200
L184720057 182828628
L184648628 182900057
L184577200 182828628
L184648628 182757200
L184648628 182900057
" />
</g></g>
<g style="fill:#000000; fill-opacity:0.0; 
stroke:#000000; stroke-width:21200.000000; stroke-opacity:1; 
stroke-linecap:round; stroke-linejoin:round;">
</g>
<g style="fill:#000000; fill-opacity:0.0; 
stroke:#000000; stroke-width:300000.000000; stroke-opacity:1; 
stroke-linecap:round; stroke-linejoin:round;">
<text x="178002200.000000" y="180757200.000000"
textLength="150000.000000" font-size="2000000.000000" lengthAdjust="spacingAndGlyphs"
text-anchor="start" opacity="0"></text>
<g class="stroked-text"><desc></desc>
</g></g>
<g style="fill:#000000; fill-opacity:0.0; 
stroke:#000000; stroke-width:21200.000000; stroke-opacity:1; 
stroke-linecap:round; stroke-linejoin:round;">
</g>
<g style="fill:#000000; fill-opacity:0.0; 
stroke:#000000; stroke-width:150000.000000; stroke-opacity:1; 
stroke-linecap:round; stroke-linejoin:round;">
<text x="178002200.000000" y="177757200.000000"
textLength="300000.000000" font-size="2000000.000000" lengthAdjust="spacingAndGlyphs"
text-anchor="start" opacity="0"></text>
<g class="stroked-text"><desc></desc>
</g></g>
<g style="fill:#000000; fill-opacity:0.0; 
stroke:#000000; stroke-width:21200.000000; stroke-opacity:1; 
stroke-linecap:round; stroke-linejoin:round;">
</g>
<g style="fill:#000000; fill-opacity:0.0; 
stroke:#000000; stroke-width:150000.000000; stroke-opacity:1; 
stroke-linecap:round; stroke-linejoin:round;">
<text x="178002200.000000" y="174757200.000000"
textLength="150000.000000" font-size="2000000.000000" lengthAdjust="spacingAndGlyphs"
text-anchor="start" opacity="0"></text>
<g class="stroked-text"><desc></desc>
</g></g>
<g style="fill:#000000; fill-opacity:0.0; 
stroke:#000000; stroke-width:21200.000000; stroke-opacity:1; 
stroke-linecap:round; stroke-linejoin:round;">
</g>
<g style="fill:#000000; fill-opacity:0.0; 
stroke:#000000; stroke-width:150000.000000; stroke-opacity:1; 
stroke-linecap:round; stroke-linejoin:round;">
<text x="178002200.000000" y="171757200.000000"
textLength="150000.000000" font-size="2000000.000000" lengthAdjust="spacingAndGlyphs"
text-anchor="start" opacity="0"></text>
<g class="stroked-text"><desc></desc>
</g></g>
<g style="fill:#000000; fill-opacity:0.0; 
stroke:#000000; stroke-width:21200.000000; stroke-opacity:1; 
stroke-linecap:round; stroke-linejoin:round;">
</g>
<g style="fill:#000000; fill-opacity:0.0; 
stroke:#000000; stroke-width:150000.000000; stroke-opacity:1; 
stroke-linecap:round; stroke-linejoin:round;">
<text x="178002200.000000" y="168757200.000000"
textLength="150000.000000" font-size="2000000.000000" lengthAdjust="spacingAndGlyphs"
text-anchor="start" opacity="0"></text>
<g class="stroked-text"><desc></desc>
</g></g>
<g style="fill:#000000; fill-opacity:0.0; 
stroke:#000000; stroke-width:21200.000000; stroke-opacity:1; 
stroke-linecap:round; stroke-linejoin:round;">
</g>
<g style="fill:#000000; fill-opacity:0.0; 
stroke:#000000; stroke-width:150000.000000; stroke-opacity:1; 
stroke-linecap:round; stroke-linejoin:round;">
<path d="M197002200 191507200
L197002200 194507200
" />
</g>
<g style="fill:#000000; fill-opacity:0.0; 
stroke:#000000; stroke-width:21200.000000; stroke-opacity:1; 
stroke-linecap:round; stroke-linejoin:round;">
</g>
<g style="fill:#000000; fill-opacity:0.0; 
stroke:#000000; stroke-width:150000.000000; stroke-opacity:1; 
stroke-linecap:round; stroke-linejoin:round;">
<path d="M261002200 191507200
L261002200 198007200
" />
</g>
<g style="fill:#E8B2A7; fill-opacity:0.0; 
stroke:#E8B2A7; stroke-width:150000.000000; stroke-opacity:1; 
stroke-linecap:round; stroke-linejoin:round;">
</g>
<g style="fill:#E8B2A7; fill-opacity:0.0; 
stroke:#E8B2A7; stroke-width:152400.000000; stroke-opacity:1; 
stroke-linecap:round; stroke-linejoin:round;">
<g transform="rotate(90.000000 137706100.000000 99923600.000000)">
<text x="137706100.000000" y="99923600.000000"
transform="scale(-1 1) translate(-275412200.000000 0)"
textLength="2194057.000000" font-size="1151466.000000" lengthAdjust="spacingAndGlyphs"
text-anchor="start" opacity="0">RST</text>
</g>
<g class="stroked-text"><desc>RST</desc>
<path d="M137747223 99125435
L138158461 99413301
" />
<path d="M137747223 99618920
L138610823 99618920
L138610823 99289930
L138569700 99207682
L138528576 99166559
L138446328 99125435
L138322957 99125435
L138240709 99166559
L138199585 99207682
L138158461 99289930
L138158461 99618920
" />
<path d="M137788347 98796444
L137747223 98673073
L137747223 98467454
L137788347 98385206
L137829471 98344082
L137911719 98302959
L137993966 98302959
L138076214 98344082
L138117338 98385206
L138158461 98467454
L138199585 98631949
L138240709 98714197
L138281833 98755320
L138364080 98796444
L138446328 98796444
L138528576 98755320
L138569700 98714197
L138610823 98631949
L138610823 98426330
L138569700 98302959
" />
<path d="M138610823 98056216
L138610823 97562730
" />
<path d="M137747223 97809473
L138610823 97809473
" />
</g><g transform="rotate(90.000000 136309100.000000 106527600.000000)">
<text x="136309100.000000" y="106527600.000000"
transform="scale(-1 1) translate(-272618200.000000 0)"
textLength="1899194.000000" font-size="1151466.000000" lengthAdjust="spacingAndGlyphs"
text-anchor="start" opacity="0">ISP</text>
</g>
<g class="stroked-text"><desc>ISP</desc>
<path d="M136350223 106222920
L137213823 106222920
" />
<path d="M136391347 105852806
L136350223 105729435
L136350223 105523816
L136391347 105441568
L136432471 105400444
L136514719 105359320
L136596966 105359320
L136679214 105400444
L136720338 105441568
L136761461 105523816
L136802585 105688311
L136843709 105770559
L136884833 105811682
L136967080 105852806
L137049328 105852806
L137131576 105811682
L137172700 105770559
L137213823 105688311
L137213823 105482692
L137172700 105359320
" />
<path d="M136350223 104989206
L137213823 104989206
L137213823 104660216
L137172700 104577968
L137131576 104536844
L137049328 104495720
L136925957 104495720
L136843709 104536844
L136802585 104577968
L136761461 104660216
L136761461 104989206
" />
</g></g>
<g style="fill:#E8B2A7; fill-opacity:0.0; 
stroke:#E8B2A7; stroke-width:304800.000000; stroke-opacity:1; 
stroke-linecap:round; stroke-linejoin:round;">
<g transform="rotate(90.000000 123101100.000000 110718600.000000)">
<text x="123101100.000000" y="110718600.000000"
transform="scale(-1 1) translate(-246202200.000000 0)"
textLength="10823061.000000" font-size="2302933.000000" lengthAdjust="spacingAndGlyphs"
text-anchor="start" opacity="0">H2OhNo!</text>
</g>
<g class="stroked-text"><desc>H2OhNo!</desc>
<path d="M123183347 110109241
L124910547 110109241
" />
<path d="M124088071 110109241
L124088071 109122270
" />
<path d="M123183347 109122270
L124910547 109122270
" />
<path d="M124746052 108382041
L124828300 108299794
L124910547 108135299
L124910547 107724060
L124828300 107559565
L124746052 107477318
L124581557 107395070
L124417061 107395070
L124170319 107477318
L123183347 108464289
L123183347 107395070
" />
<path d="M124910547 106325851
L124910547 105996860
L124828300 105832365
L124663804 105667870
L124334814 105585622
L123759080 105585622
L123430090 105667870
L123265595 105832365
L123183347 105996860
L123183347 106325851
L123265595 106490346
L123430090 106654841
L123759080 106737089
L124334814 106737089
L124663804 106654841
L124828300 106490346
L124910547 106325851
" />
<path d="M123183347 104845394
L124910547 104845394
" />
<path d="M123183347 104105165
L124088071 104105165
L124252566 104187413
L124334814 104351908
L124334814 104598651
L124252566 104763146
L124170319 104845394
" />
<path d="M123183347 103282689
L124910547 103282689
L123183347 102295718
L124910547 102295718
" />
<path d="M123183347 101226499
L123265595 101390994
L123347842 101473241
L123512338 101555489
L124005823 101555489
L124170319 101473241
L124252566 101390994
L124334814 101226499
L124334814 100979756
L124252566 100815260
L124170319 100733013
L124005823 100650765
L123512338 100650765
L123347842 100733013
L123265595 100815260
L123183347 100979756
L123183347 101226499
" />
<path d="M123347842 99910537
L123265595 99828289
L123183347 99910537
L123265595 99992784
L123347842 99910537
L123183347 99910537
" />
<path d="M123841328 99910537
L124828300 99992784
L124910547 99910537
L124828300 99828289
L123841328 99910537
L124910547 99910537
" />
</g></g>
<g style="fill:#E8B2A7; fill-opacity:0.0; 
stroke:#E8B2A7; stroke-width:152400.000000; stroke-opacity:1; 
stroke-linecap:round; stroke-linejoin:round;">
<g transform="rotate(90.000000 137706100.000000 112623600.000000)">
<text x="137706100.000000" y="112623600.000000"
transform="scale(-1 1) translate(-275412200.000000 0)"
textLength="2235684.000000" font-size="1151466.000000" lengthAdjust="spacingAndGlyphs"
text-anchor="start" opacity="0">GND</text>
</g>
<g class="stroked-text"><desc>GND</desc>
<path d="M138569700 111866559
L138610823 111948806
L138610823 112072178
L138569700 112195549
L138487452 112277797
L138405204 112318920
L138240709 112360044
L138117338 112360044
L137952842 112318920
L137870595 112277797
L137788347 112195549
L137747223 112072178
L137747223 111989930
L137788347 111866559
L137829471 111825435
L138117338 111825435
L138117338 111989930
" />
<path d="M137747223 111455320
L138610823 111455320
L137747223 110961835
L138610823 110961835
" />
<path d="M137747223 110550597
L138610823 110550597
L138610823 110344978
L138569700 110221606
L138487452 110139359
L138405204 110098235
L138240709 110057111
L138117338 110057111
L137952842 110098235
L137870595 110139359
L137788347 110221606
L137747223 110344978
L137747223 110550597
" />
</g></g>
<g style="fill:#E8B2A7; fill-opacity:0.0; 
stroke:#E8B2A7; stroke-width:127000.000000; stroke-opacity:1; 
stroke-linecap:round; stroke-linejoin:round;">
<g transform="rotate(-90.000000 138417300.000000 97307400.000000)">
<text x="138417300.000000" y="97307400.000000"
transform="scale(-1 1) translate(-276834600.000000 0)"
textLength="2904309.000000" font-size="1524000.000000" lengthAdjust="spacingAndGlyphs"
text-anchor="start" opacity="0">JP4</text>
</g>
<g class="stroked-text"><desc>JP4</desc>
<path d="M137219871 97988664
L138036300 97988664
L138199585 97934235
L138308442 97825378
L138362871 97662092
L138362871 97553235
" />
<path d="M138362871 98532950
L137219871 98532950
L137219871 98968378
L137274300 99077235
L137328728 99131664
L137437585 99186092
L137600871 99186092
L137709728 99131664
L137764157 99077235
L137818585 98968378
L137818585 98532950
" />
<path d="M137600871 100165807
L138362871 100165807
" />
<path d="M137165442 99893664
L137981871 99621521
L137981871 100329092
" />
</g></g>
<g style="fill:#E8B2A7; fill-opacity:1.0; 
stroke:#E8B2A7; stroke-width:1.000000; stroke-opacity:1; 
stroke-linecap:round; stroke-linejoin:round;">
<path style="fill:#E8B2A7; fill-opacity:1.0; 
stroke:#E8B2A7; stroke-width:1.000000; stroke-opacity:1; 
stroke-linecap:round; stroke-linejoin:round;fill-rule:evenodd;"
d="M 146898184.000000,103946554.000000
147129923.000000,104042565.000000
147524720.000000,103720654.000000
147879046.000000,104074980.000000
147559869.000000,104466423.000000
147618444.000000,104580130.000000
147657451.000000,104701953.000000
148159900.000000,104753039.000000
148159900.000000,105254161.000000
147653146.000000,105305684.000000
147557135.000000,105537423.000000
147879046.000000,105932220.000000
147524720.000000,106286546.000000
147129923.000000,105964635.000000
146898184.000000,106060646.000000
146846661.000000,106567400.000000
146345539.000000,106567400.000000
146294016.000000,106060646.000000
146062277.000000,105964635.000000
145667480.000000,106286546.000000
145313154.000000,105932220.000000
145630908.000000,105542522.000000
145612523.000000,105510197.000000
145542368.000000,105358932.000000
146088000.000000,105132890.000000
146088000.000000,104911923.000000
146292327.000000,105252912.000000
146373535.000000,105326523.000000
146601867.000000,105395776.000000
146707669.000000,105380413.000000
146810062.000000,105333189.000000
146894824.000000,105258834.000000
146954981.000000,105163468.000000
146985580.000000,105054942.000000
146984099.000000,104942194.000000
146950661.000000,104834513.000000
146888018.000000,104740758.000000
146801329.000000,104668653.000000
146697734.000000,104624136.000000
146585761.000000,104610871.000000
146474632.000000,104629951.000000
146378500.000000,104677338.000000
146186027.000000,104914921.000000
145539306.000000,104646999.000000
145632330.000000,104466423.000000
145313154.000000,104074980.000000
145667480.000000,103720654.000000
146062277.000000,104042565.000000
146294016.000000,103946554.000000
146345539.000000,103439800.000000
146846661.000000,103439800.000000
Z" /> 
</g>
<g style="fill:#E8B2A7; fill-opacity:1.0; 
stroke:#E8B2A7; stroke-width:203200.000000; stroke-opacity:1; 
stroke-linecap:round; stroke-linejoin:round;">
</g>
<g style="fill:#E8B2A7; fill-opacity:0.0; 
stroke:#E8B2A7; stroke-width:203200.000000; stroke-opacity:1; 
stroke-linecap:round; stroke-linejoin:round;">
<path d="M140881100 105003600
L141516100 105638600
" />
<path d="M139611100 112623600
L140881100 112623600
" />
<path d="M139611100 97383600
L140881100 97383600
" />
<path d="M138976100 98018600
L139611100 97383600
" />
<path d="M138976100 111988600
L139611100 112623600
" />
<path d="M138976100 110718600
L138976100 111988600
" />
<path d="M138976100 103098600
L138976100 104368600
" />
<path d="M138976100 104368600
L139611100 105003600
" />
<path d="M141516100 109448600
L141516100 108178600
" />
<path d="M138976100 105638600
L138976100 106908600
" />
<path d="M140881100 97383600
L141516100 98018600
" />
<path d="M139611100 99923600
L138976100 100558600
" />
<path d="M141516100 108178600
L140881100 107543600
" />
<path d="M141516100 111988600
L141516100 110718600
" />
<path d="M138976100 108178600
L138976100 109448600
" />
<path d="M141516100 106908600
L141516100 105638600
" />
<path d="M139611100 110083600
L138976100 110718600
" />
<path d="M138976100 98018600
L138976100 99288600
" />
<path d="M138976100 99288600
L139611100 99923600
" />
<path d="M138976100 109448600
L139611100 110083600
" />
<path d="M139611100 107543600
L138976100 108178600
" />
<path d="M141516100 110718600
L140881100 110083600
" />
<path d="M140881100 107543600
L141516100 106908600
" />
<path d="M138976100 106908600
L139611100 107543600
" />
<path d="M140881100 110083600
L141516100 109448600
" />
<path d="M141516100 103098600
L140881100 102463600
" />
<path d="M140881100 105003600
L141516100 104368600
" />
<path d="M140881100 99923600
L141516100 99288600
" />
<path d="M140881100 112623600
L141516100 111988600
" />
<path d="M140881100 102463600
L141516100 101828600
" />
<path d="M141516100 99288600
L141516100 98018600
" />
<path d="M141516100 101828600
L141516100 100558600
" />
<path d="M139611100 102463600
L138976100 103098600
" />
<path d="M138976100 101828600
L139611100 102463600
" />
<path d="M141516100 104368600
L141516100 103098600
" />
<path d="M138976100 100558600
L138976100 101828600
" />
<path d="M141516100 100558600
L140881100 99923600
" />
<path d="M138976100 105638600
L139611100 105003600
" />
</g>
<g style="fill:#E8B2A7; fill-opacity:0.0; 
stroke:#E8B2A7; stroke-width:25400.000000; stroke-opacity:1; 
stroke-linecap:round; stroke-linejoin:round;">
<path d="M132476200 100383300
L132476200 99979500
" />
<path d="M132255300 99979500
L132255300 99971900
" />
<path d="M130914100 98917800
L130914100 99326700
" />
<path d="M130904000 99961700
L130904000 100383300
" />
<path d="M130914100 99326700
L131879300 99326700
" />
<path d="M131968200 98917800
L130914100 98917800
" />
<path d="M130904000 100383300
L132476200 100383300
" />
<path d="M131772700 99961700
L130904000 99961700
" />
<path d="M132476200 99979500
L132255300 99979500
" />
<path d="M132509329.989751 99331797.227141 A435580.000000 435580.000000 0.0 0 0 132384798.735014 99065100.262930" />
<path d="M132316194.447759 99913392.510144 A468658.000000 468658.000000 0.0 0 0 132405100.235373 99827100.185612" />
<path d="M132196801.835126 99568000.084349 A169881.000000 169881.000000 0.0 0 0 132186700.426275 99501999.844554" />
<path d="M131772700.021017 99961698.359016 A2678318.000000 2678318.000000 0.0 0 0 131841199.995373 99961699.637698" />
<path d="M132128290.563602 99839792.851849 A262248.000000 262248.000000 0.0 0 0 132191800.101914 99679800.004434" />
<path d="M132191800.936682 98950796.740760 A850074.000000 850074.000000 0.0 0 0 131968200.002832 98917799.785051" />
<path d="M132186692.998529 99502002.551662 A226910.000000 226910.000000 0.0 0 0 132090200.111174 99385099.814615" />
<path d="M132514300.436466 99532400.018347 A1500024.000000 1500024.000000 0.0 0 0 132509299.518903 99331800.044319" />
<path d="M131998692.447793 99931180.503432 A327491.000000 327491.000000 0.0 0 0 132128299.936530 99839799.945209" />
<path d="M131841199.971521 99961697.781091 A451935.000000 451935.000000 0.0 0 0 131998700.157597 99931200.406684" />
<path d="M132405115.582100 99827112.286111 A510549.000000 510549.000000 0.0 0 0 132514300.304699 99532400.012783" />
<path d="M132384796.886399 99065103.087975 A444911.000000 444911.000000 0.0 0 0 132191798.960798 98950800.136394" />
<path d="M132278095.282776 99941393.527279 A148742.000000 148742.000000 0.0 0 0 132262899.784950 99954099.775118" />
<path d="M132262909.543151 99954109.992241 A24600.000000 24600.000000 0.0 0 0 132255300.000000 99971900.000000" />
<path d="M132090210.946544 99385081.752299 A409800.000000 409800.000000 0.0 0 0 131879300.000003 99326700.012201" />
<path d="M132196799.868579 99567999.993958 A44660030.000000 44660030.000000 0.0 0 0 132191799.923595 99679799.996679" />
<path d="M132278100.107905 99941400.148196 A5353356.000000 5353356.000000 0.0 0 0 132316200.207695 99913400.280016" />
</g>
<g style="fill:#E8B2A7; fill-opacity:1.0; 
stroke:#E8B2A7; stroke-width:1.000000; stroke-opacity:1; 
stroke-linecap:round; stroke-linejoin:round;">
<path style="fill:#E8B2A7; fill-opacity:1.0; 
stroke:#E8B2A7; stroke-width:1.000000; stroke-opacity:1; 
stroke-linecap:round; stroke-linejoin:round;fill-rule:evenodd;"
d="M 133075700.000000,102224483.000000
133078995.000000,102290165.000000
133083300.000000,102356488.000000
133083300.000000,102513197.000000
133055059.000000,102650066.000000
132992039.000000,102775233.000000
132898037.000000,102880401.000000
132736120.000000,102956168.000000
132519926.000000,102974100.000000
132486400.000000,102974100.000000
132486400.000000,103103861.000000
132194491.000000,103395770.000000
132191879.000000,102979200.000000
130891300.000000,102979200.000000
130891300.000000,102537300.000000
132194300.000000,102537300.000000
132194300.000000,102237500.000000
132486400.000000,102237500.000000
132486400.000000,102534700.000000
132612536.000000,102534700.000000
132658702.000000,102528408.000000
132699164.000000,102511664.000000
132750600.000000,102439249.000000
132750600.000000,102258492.000000
132748000.000000,102230488.000000
132748000.000000,102209600.000000
133075700.000000,102209600.000000
Z" /> 
<path style="fill:#E8B2A7; fill-opacity:1.0; 
stroke:#E8B2A7; stroke-width:1.000000; stroke-opacity:1; 
stroke-linecap:round; stroke-linejoin:round;fill-rule:evenodd;"
d="M 132486400.000000,101066600.000000
131643884.000000,101066600.000000
131402066.000000,101096533.000000
131228008.000000,101246071.000000
131200474.000000,101385497.000000
131230834.000000,101526492.000000
131267285.000000,101583531.000000
131319074.000000,101626712.000000
131479909.000000,101676200.000000
132491500.000000,101676200.000000
132491500.000000,102115600.000000
131398523.000000,102115600.000000
131250199.000000,102097400.000000
131109942.000000,102043609.000000
130987206.000000,101957767.000000
130973856.000000,101944406.000000
130959900.000000,101927078.000000
130959900.000000,101925705.000000
130888358.000000,101788181.000000
130858196.000000,101631170.000000
130883861.000000,101330870.000000
130892613.000000,101302331.000000
130905874.000000,101275752.000000
131011065.000000,101137974.000000
131118813.000000,101046300.000000
130898900.000000,101046300.000000
130898900.000000,100619600.000000
132486400.000000,100619600.000000
Z" /> 
<path style="fill:#E8B2A7; fill-opacity:1.0; 
stroke:#E8B2A7; stroke-width:1.000000; stroke-opacity:1; 
stroke-linecap:round; stroke-linejoin:round;fill-rule:evenodd;"
d="M 132175967.000000,109705947.000000
132216703.000000,109722532.000000
132256924.000000,109742561.000000
132342965.000000,109807759.000000
132420499.000000,109906058.000000
132475434.000000,110018092.000000
132512899.000000,110155357.000000
132526995.000000,110296315.000000
132527734.000000,110387150.000000
132526985.000000,110479203.000000
132403516.000000,110893367.000000
132262545.000000,111015800.000000
132259509.000000,111015800.000000
132094567.000000,111061028.000000
131922241.000000,111053900.000000
131919196.000000,111053900.000000
131781797.000000,110977243.000000
131702732.000000,110869483.000000
131651354.000000,110748121.000000
131603254.000000,110566439.000000
131564831.000000,110384169.000000
131487018.000000,110155866.000000
131444388.000000,110103736.000000
131384539.000000,110073811.000000
131317528.000000,110070997.000000
131261293.000000,110091934.000000
131217119.000000,110131471.000000
131157984.000000,110301690.000000
131157489.000000,110366800.000000
131157997.000000,110433604.000000
131160033.000000,110461874.000000
131165118.000000,110488762.000000
131202459.000000,110575396.000000
131264956.000000,110644953.000000
131329007.000000,110679198.000000
131402566.000000,110688100.000000
131419600.000000,110688100.000000
131419600.000000,111138266.000000
131017592.000000,110374995.000000
131111557.000000,109951945.000000
131456167.000000,109836178.000000
131499776.000000,109858044.000000
131978812.000000,110681715.000000
132236201.000000,110727037.000000
132346102.000000,110363104.000000
132213341.000000,109947265.000000
132064211.000000,109745816.000000
132111014.000000,109682317.000000
Z" /> 
<path style="fill:#E8B2A7; fill-opacity:1.0; 
stroke:#E8B2A7; stroke-width:1.000000; stroke-opacity:1; 
stroke-linecap:round; stroke-linejoin:round;fill-rule:evenodd;"
d="M 131905583.000000,103902591.000000
132483900.000000,103311250.000000
132483900.000000,103815061.000000
131932860.000000,104366100.000000
133097567.000000,104366100.000000
132846876.000000,104805500.000000
130901239.000000,104805500.000000
130888700.000000,104792961.000000
130888700.000000,104361000.000000
131442132.000000,104361000.000000
131602816.000000,104195642.000000
130898935.000000,103768671.000000
130896283.000000,103229691.000000
Z" /> 
<path style="fill:#E8B2A7; fill-opacity:1.0; 
stroke:#E8B2A7; stroke-width:1.000000; stroke-opacity:1; 
stroke-linecap:round; stroke-linejoin:round;fill-rule:evenodd;"
d="M 132196124.000000,98938601.000000
132394648.000000,99056172.000000
132521930.000000,99328832.000000
132527032.000000,99533507.000000
132494996.000000,99692828.000000
132415481.000000,99834552.000000
132372379.000000,99882333.000000
132324092.000000,99923359.000000
132304702.000000,99937676.000000
132285934.000000,99951405.000000
132272363.000000,99962743.000000
132269554.000000,99966800.000000
132488900.000000,99966800.000000
132488900.000000,100396000.000000
130891300.000000,100396000.000000
130891300.000000,99949000.000000
131839983.000000,99949000.000000
131993608.000000,99919250.000000
132117891.000000,99831600.000000
132179206.000000,99677105.000000
132181578.000000,99623331.000000
132184056.000000,99568680.000000
132174503.000000,99506255.000000
132138564.000000,99443459.000000
132084071.000000,99396580.000000
131877574.000000,99339400.000000
130901400.000000,99339400.000000
130901400.000000,98905100.000000
131969132.000000,98905100.000000
Z" /> 
<path style="fill:#E8B2A7; fill-opacity:1.0; 
stroke:#E8B2A7; stroke-width:1.000000; stroke-opacity:1; 
stroke-linecap:round; stroke-linejoin:round;fill-rule:evenodd;"
d="M 132524615.000000,105119616.000000
132457323.000000,105321592.000000
132397262.000000,105412864.000000
132326954.000000,105485842.000000
132273624.000000,105520759.000000
132221637.000000,105555172.000000
132194804.000000,105573031.000000
132193311.000000,105577600.000000
132486355.000000,105577600.000000
132413246.000000,105989081.000000
130901400.000000,105991722.000000
130901400.000000,105549700.000000
131695462.000000,105549700.000000
131862523.000000,105522298.000000
131977751.000000,105461958.000000
132066397.000000,105367669.000000
132120690.000000,105211991.000000
132123840.000000,105136950.000000
132120638.000000,105060678.000000
132116347.000000,105031213.000000
132108311.000000,105001707.000000
132106154.000000,104993070.000000
132105400.000000,104983817.000000
132105400.000000,104968000.000000
132516216.000000,104968000.000000
Z" /> 
<path style="fill:#E8B2A7; fill-opacity:1.0; 
stroke:#E8B2A7; stroke-width:1.000000; stroke-opacity:1; 
stroke-linecap:round; stroke-linejoin:round;fill-rule:evenodd;"
d="M 130938376.000000,106192891.000000
131067865.000000,106227781.000000
131201644.000000,106237997.000000
131648200.000000,106235427.000000
131648200.000000,106238000.000000
132141000.000000,106238000.000000
132141000.000000,106239929.000000
132230766.000000,106254786.000000
132389623.000000,106377010.000000
132460812.000000,106510876.000000
132504015.000000,106654617.000000
132530438.000000,106918570.000000
132506548.000000,107182656.000000
132472569.000000,107307602.000000
132418697.000000,107425592.000000
132342562.000000,107528222.000000
132242594.000000,107608308.000000
132125548.000000,107660341.000000
132000738.000000,107680635.000000
131999106.000000,107670600.000000
131988600.000000,107670600.000000
131988600.000000,107233700.000000
132005041.000000,107233700.000000
132090816.000000,107216551.000000
132213050.000000,107092921.000000
132234874.000000,106978632.000000
132233426.000000,106911567.000000
132230017.000000,106845204.000000
132191354.000000,106741374.000000
132108930.000000,106682500.000000
131950555.000000,106682500.000000
131942097.000000,106686198.000000
131933491.000000,106692139.000000
131907403.000000,106720557.000000
131882737.000000,106763329.000000
131866155.000000,106810433.000000
131852534.000000,106874792.000000
131843716.000000,106940568.000000
131832701.000000,107050952.000000
131820732.000000,107162342.000000
131743866.000000,107467184.000000
131682002.000000,107571812.000000
131591922.000000,107653292.000000
131502724.000000,107697659.000000
131405775.000000,107718900.000000
131403263.000000,107718900.000000
131089632.000000,107662327.000000
131015750.000000,107612774.000000
130959234.000000,107545427.000000
130897356.000000,107415775.000000
130865812.000000,107275417.000000
130886349.000000,106946412.000000
130947690.000000,106790536.000000
131047986.000000,106660654.000000
131048628.000000,106659279.000000
131044046.000000,106653308.000000
130944233.000000,106631351.000000
130929835.000000,106627598.000000
130910379.000000,106622106.000000
130901400.000000,106604325.000000
130901400.000000,106179116.000000
Z" /> 
<path style="fill:#E8B2A7; fill-opacity:1.0; 
stroke:#E8B2A7; stroke-width:1.000000; stroke-opacity:1; 
stroke-linecap:round; stroke-linejoin:round;fill-rule:evenodd;"
d="M 131931894.000000,107880166.000000
132222603.000000,107972900.000000
132180809.000000,107972900.000000
132342831.000000,108087995.000000
132409783.000000,108172530.000000
132465179.000000,108264949.000000
132524522.000000,108479253.000000
132521983.000000,108680408.000000
132511294.000000,108730919.000000
132456996.000000,108865493.000000
132401939.000000,108941480.000000
132304445.000000,109031296.000000
132289638.000000,109044588.000000
132496668.000000,109042007.000000
132418220.000000,109456200.000000
130344652.000000,109456200.000000
129948343.000000,109016800.000000
131086687.000000,109016800.000000
130921906.000000,108845129.000000
130881100.000000,108729374.000000
130881100.000000,108727111.000000
130886230.000000,108359244.000000
130930096.000000,108234627.000000
131000562.000000,108123622.000000
131094898.000000,108030667.000000
131485827.000000,107863502.000000
Z" /> 
<path style="fill:#E8B2A7; fill-opacity:1.0; 
stroke:#E8B2A7; stroke-width:1.000000; stroke-opacity:1; 
stroke-linecap:round; stroke-linejoin:round;fill-rule:evenodd;"
d="M 131396700.000000,109651796.000000
131399308.000000,109639371.000000
131607251.000000,109683021.000000
131651466.000000,109710022.000000
131688594.000000,109745282.000000
131781787.000000,109892922.000000
131881544.000000,110232962.000000
131921938.000000,110435132.000000
131990924.000000,110578051.000000
132056719.000000,110624995.000000
132111845.000000,110630447.000000
132164826.000000,110610985.000000
132191198.000000,110588030.000000
132210783.000000,110557959.000000
132226466.000000,110515609.000000
132234900.000000,110471009.000000
132234900.000000,110301055.000000
132216703.000000,110227782.000000
132179624.000000,110163516.000000
132085436.000000,110098250.000000
132024100.000000,110089520.000000
132024100.000000,109675770.000000
132115368.000000,109685526.000000
132249198.000000,109898043.000000
132382772.000000,110357718.000000
132269637.000000,110791525.000000
131947570.000000,110735206.000000
131682864.000000,110290589.000000
131456745.000000,109875531.000000
131148515.000000,109979065.000000
131062180.000000,110361405.000000
131428103.000000,111101120.000000
131369759.000000,111097023.000000
131309744.000000,111086541.000000
131180600.000000,111042612.000000
131091123.000000,110990375.000000
131020904.000000,110914387.000000
130943279.000000,110792755.000000
130881302.000000,110612107.000000
130868791.000000,110482217.000000
130863277.000000,110352520.000000
130886367.000000,110086219.000000
130928922.000000,109950750.000000
131099143.000000,109727825.000000
131289440.000000,109646943.000000
131343641.000000,109641783.000000
131396055.000000,109639116.000000
Z" /> 
<g >
</g>
<g >
</g>
<g >
</g>
<g >
</g>
<g >
</g>
<g >
</g>
<g >
</g>
<g >
</g>
<g >
</g>
<g >
</g>
<g >
</g>
<g >
</g>
<g >
</g>
<g >
</g>
<g >
</g>
<g >
</g>
<g >
</g>
<g >
</g>
<g >
</g>
<g >
</g>
<g >
</g>
<g >
</g>
<g >
</g>
<g >
</g>
<g >
</g>
</g>
<g style="fill:#000000; fill-opacity:1.0; 
stroke:#000000; stroke-width:1.000000; stroke-opacity:1; 
stroke-linecap:round; stroke-linejoin:round;">
</g>
<g style="fill:#D0D2CD; fill-opacity:1.0; 
stroke:#D0D2CD; stroke-width:1.000000; stroke-opacity:1; 
stroke-linecap:round; stroke-linejoin:round;">
</g>
<g style="fill:#D0D2CD; fill-opacity:1.0; 
stroke:#D0D2CD; stroke-width:304800.000000; stroke-opacity:1; 
stroke-linecap:round; stroke-linejoin:round;">
</g>
<g style="fill:#D0D2CD; fill-opacity:0.0; 
stroke:#D0D2CD; stroke-width:304800.000000; stroke-opacity:1; 
stroke-linecap:round; stroke-linejoin:round;">
<path d="M174536100 93573600
L122466100 93573600
" />
<path d="M122466100 93573600
L122466100 116433600
" />
<path d="M122466100 116433600
L174536100 116433600
" />
<path d="M174536100 116433600
L174536100 93573600
" />
<g >
</g>
<g >
</g>
<g >
</g>
<g >
</g>
<g >
</g>
<g >
</g>
<g >
</g>
<g >
</g>
<g >
</g>
<g >
</g>
<g >
</g>
<g >
</g>
<g >
</g>
<g >
</g>
<g >
</g>
<g >
</g>
<g >
</g>
<g >
</g>
<g >
</g>
<g >
</g>
<g >
</g>
<g >
</g>
<g >
</g>
<g >
</g>
<g >
</g>
</g> 
</svg>
