<!DOCTYPE svg PUBLIC "-//W3C//DTD SVG 1.1//EN" "http://www.w3.org/Graphics/SVG/1.1/DTD/svg11.dtd">
<svg xmlns="http://www.w3.org/2000/svg" version="1.1" width="27.4mm" height="19.78mm" viewBox="13480110.0 9511360.0 2740000.0 1978000.0">
            <title>Picture generated by PcbDraw </title>
            <desc>Picture generated by PcbDraw</desc>
        <defs><clipPath id="cut-off"><path d=" M 13580110.0 11389360.0 L 16120110.0 11389360.0 L 16120110.0 9611360.0 L 13580110.0 9611360.0 L 13580110.0 11389360.0 " style="fill-rule: evenodd;"/></clipPath><mask id="pads-mask"><g style="fill:#ffffff; fill-opacity:0.0;  stroke:#ffffff; stroke-width:0.000000; stroke-opacity:1;  stroke-linecap:round; stroke-linejoin:round;">
<g style="fill:#ffffff; fill-opacity:1.0;  stroke:#ffffff; stroke-width:0.100000; stroke-opacity:1;  stroke-linecap:round; stroke-linejoin:round;">
<path style="fill:#ffffff; fill-opacity:1.0;  stroke:#ffffff; stroke-width:0.100000; stroke-opacity:1;  stroke-linecap:round; stroke-linejoin:round;fill-rule:evenodd;" d="M 14111270.000000,10169360.000000 14110496.600000,10173248.100000 14108294.200000,10176544.200000 14104998.100000,10178746.600000 14101110.000000,10179520.000000 13991110.000000,10179520.000000 13987221.900000,10178746.600000 13983925.800000,10176544.200000 13981723.400000,10173248.100000 13980950.000000,10169360.000000 13980950.000000,10069360.000000 13981723.400000,10065471.900000 13983925.800000,10062175.800000 13987221.900000,10059973.400000 13991110.000000,10059200.000000 14101110.000000,10059200.000000 14104998.100000,10059973.400000 14108294.200000,10062175.800000 14110496.600000,10065471.900000 14111270.000000,10069360.000000 Z"/> 
<path style="fill:#ffffff; fill-opacity:1.0;  stroke:#ffffff; stroke-width:0.100000; stroke-opacity:1;  stroke-linecap:round; stroke-linejoin:round;fill-rule:evenodd;" d="M 13941270.000000,10169360.000000 13940496.600000,10173248.100000 13938294.200000,10176544.200000 13934998.100000,10178746.600000 13931110.000000,10179520.000000 13821110.000000,10179520.000000 13817221.900000,10178746.600000 13813925.800000,10176544.200000 13811723.400000,10173248.100000 13810950.000000,10169360.000000 13810950.000000,10069360.000000 13811723.400000,10065471.900000 13813925.800000,10062175.800000 13817221.900000,10059973.400000 13821110.000000,10059200.000000 13931110.000000,10059200.000000 13934998.100000,10059973.400000 13938294.200000,10062175.800000 13940496.600000,10065471.900000 13941270.000000,10069360.000000 Z"/> 
</g>
<g style="fill:#ffffff; fill-opacity:1.0;  stroke:#ffffff; stroke-width:0.100000; stroke-opacity:1;  stroke-linecap:round; stroke-linejoin:round;">
<circle cx="15739110.000000" cy="11008360.000000" r="327660.000000"/> 
</g>
<g style="fill:#ffffff; fill-opacity:1.0;  stroke:#ffffff; stroke-width:0.100000; stroke-opacity:1;  stroke-linecap:round; stroke-linejoin:round;">
<path style="fill:#ffffff; fill-opacity:1.0;  stroke:#ffffff; stroke-width:0.100000; stroke-opacity:1;  stroke-linecap:round; stroke-linejoin:round;fill-rule:evenodd;" d="M 15154110.000000,10078200.000000 15157998.100000,10078973.400000 15161294.200000,10081175.800000 15163496.600000,10084471.900000 15164270.000000,10088360.000000 15164270.000000,10388360.000000 15163496.600000,10392248.100000 15161294.200000,10395544.200000 15157998.100000,10397746.600000 15154110.000000,10398520.000000 15054110.000000,10398520.000000 15050221.900000,10397746.600000 15046925.800000,10395544.200000 15044723.400000,10392248.100000 15043950.000000,10388360.000000 15043950.000000,10088360.000000 15044723.400000,10084471.900000 15046925.800000,10081175.800000 15050221.900000,10078973.400000 15054110.000000,10078200.000000 Z"/> 
<path style="fill:#ffffff; fill-opacity:1.0;  stroke:#ffffff; stroke-width:0.100000; stroke-opacity:1;  stroke-linecap:round; stroke-linejoin:round;fill-rule:evenodd;" d="M 14900110.000000,10078200.000000 14903998.100000,10078973.400000 14907294.200000,10081175.800000 14909496.600000,10084471.900000 14910270.000000,10088360.000000 14910270.000000,10388360.000000 14909496.600000,10392248.100000 14907294.200000,10395544.200000 14903998.100000,10397746.600000 14900110.000000,10398520.000000 14800110.000000,10398520.000000 14796221.900000,10397746.600000 14792925.800000,10395544.200000 14790723.400000,10392248.100000 14789950.000000,10388360.000000 14789950.000000,10088360.000000 14790723.400000,10084471.900000 14792925.800000,10081175.800000 14796221.900000,10078973.400000 14800110.000000,10078200.000000 Z"/> 
<path style="fill:#ffffff; fill-opacity:1.0;  stroke:#ffffff; stroke-width:0.100000; stroke-opacity:1;  stroke-linecap:round; stroke-linejoin:round;fill-rule:evenodd;" d="M 14646110.000000,10078200.000000 14649998.100000,10078973.400000 14653294.200000,10081175.800000 14655496.600000,10084471.900000 14656270.000000,10088360.000000 14656270.000000,10388360.000000 14655496.600000,10392248.100000 14653294.200000,10395544.200000 14649998.100000,10397746.600000 14646110.000000,10398520.000000 14546110.000000,10398520.000000 14542221.900000,10397746.600000 14538925.800000,10395544.200000 14536723.400000,10392248.100000 14535950.000000,10388360.000000 14535950.000000,10088360.000000 14536723.400000,10084471.900000 14538925.800000,10081175.800000 14542221.900000,10078973.400000 14546110.000000,10078200.000000 Z"/> 
</g>
<g style="fill:#ffffff; fill-opacity:1.0;  stroke:#ffffff; stroke-width:0.100000; stroke-opacity:1;  stroke-linecap:round; stroke-linejoin:round;">
<path style="fill:#ffffff; fill-opacity:1.0;  stroke:#ffffff; stroke-width:0.100000; stroke-opacity:1;  stroke-linecap:round; stroke-linejoin:round;fill-rule:evenodd;" d="M 15951200.000000,9738360.000000 15953251.200000,9725409.100000 15959204.100000,9713725.900000 15968475.900000,9704454.100000 15980159.100000,9698501.200000 15993110.000000,9696450.000000 16006060.900000,9698501.200000 16017744.100000,9704454.100000 16027015.900000,9713725.900000 16032968.800000,9725409.100000 16035020.000000,9738360.000000 16032968.800000,9751310.900000 16027015.900000,9762994.100000 16017744.100000,9772265.900000 16006060.900000,9778218.800000 15993110.000000,9780270.000000 15980159.100000,9778218.800000 15968475.900000,9772265.900000 15959204.100000,9762994.100000 15953251.200000,9751310.900000 15951200.000000,9738360.000000 Z"/> 
</g>
<g style="fill:#ffffff; fill-opacity:1.0;  stroke:#ffffff; stroke-width:0.100000; stroke-opacity:1;  stroke-linecap:round; stroke-linejoin:round;">
<path style="fill:#ffffff; fill-opacity:1.0;  stroke:#ffffff; stroke-width:0.100000; stroke-opacity:1;  stroke-linecap:round; stroke-linejoin:round;fill-rule:evenodd;" d="M 13614400.000000,11313160.000000 13616451.200000,11300209.100000 13622404.100000,11288525.900000 13631675.900000,11279254.100000 13643359.100000,11273301.200000 13656310.000000,11271250.000000 13669260.900000,11273301.200000 13680944.100000,11279254.100000 13690215.900000,11288525.900000 13696168.800000,11300209.100000 13698220.000000,11313160.000000 13696168.800000,11326110.900000 13690215.900000,11337794.100000 13680944.100000,11347065.900000 13669260.900000,11353018.800000 13656310.000000,11355070.000000 13643359.100000,11353018.800000 13631675.900000,11347065.900000 13622404.100000,11337794.100000 13616451.200000,11326110.900000 13614400.000000,11313160.000000 Z"/> 
</g>
<g style="fill:#ffffff; fill-opacity:1.0;  stroke:#ffffff; stroke-width:0.100000; stroke-opacity:1;  stroke-linecap:round; stroke-linejoin:round;">
<circle cx="13961110.000000" cy="11008360.000000" r="327660.000000"/> 
</g>
</g> 
</mask><mask id="pads-mask-silkscreen"><rect x="3801110.0" y="9007010.0" width="12326620.0" height="2389970.0" fill="white"/><g style="fill:#000000; fill-opacity:0.0;  stroke:#000000; stroke-width:0.000000; stroke-opacity:1;  stroke-linecap:round; stroke-linejoin:round;">
<g style="fill:#000000; fill-opacity:1.0;  stroke:#000000; stroke-width:0.100000; stroke-opacity:1;  stroke-linecap:round; stroke-linejoin:round;">
<path style="fill:#000000; fill-opacity:1.0;  stroke:#000000; stroke-width:0.100000; stroke-opacity:1;  stroke-linecap:round; stroke-linejoin:round;fill-rule:evenodd;" d="M 14111270.000000,10169360.000000 14110496.600000,10173248.100000 14108294.200000,10176544.200000 14104998.100000,10178746.600000 14101110.000000,10179520.000000 13991110.000000,10179520.000000 13987221.900000,10178746.600000 13983925.800000,10176544.200000 13981723.400000,10173248.100000 13980950.000000,10169360.000000 13980950.000000,10069360.000000 13981723.400000,10065471.900000 13983925.800000,10062175.800000 13987221.900000,10059973.400000 13991110.000000,10059200.000000 14101110.000000,10059200.000000 14104998.100000,10059973.400000 14108294.200000,10062175.800000 14110496.600000,10065471.900000 14111270.000000,10069360.000000 Z"/> 
<path style="fill:#000000; fill-opacity:1.0;  stroke:#000000; stroke-width:0.100000; stroke-opacity:1;  stroke-linecap:round; stroke-linejoin:round;fill-rule:evenodd;" d="M 13941270.000000,10169360.000000 13940496.600000,10173248.100000 13938294.200000,10176544.200000 13934998.100000,10178746.600000 13931110.000000,10179520.000000 13821110.000000,10179520.000000 13817221.900000,10178746.600000 13813925.800000,10176544.200000 13811723.400000,10173248.100000 13810950.000000,10169360.000000 13810950.000000,10069360.000000 13811723.400000,10065471.900000 13813925.800000,10062175.800000 13817221.900000,10059973.400000 13821110.000000,10059200.000000 13931110.000000,10059200.000000 13934998.100000,10059973.400000 13938294.200000,10062175.800000 13940496.600000,10065471.900000 13941270.000000,10069360.000000 Z"/> 
</g>
<g style="fill:#000000; fill-opacity:1.0;  stroke:#000000; stroke-width:0.100000; stroke-opacity:1;  stroke-linecap:round; stroke-linejoin:round;">
<circle cx="15739110.000000" cy="11008360.000000" r="327660.000000"/> 
</g>
<g style="fill:#000000; fill-opacity:1.0;  stroke:#000000; stroke-width:0.100000; stroke-opacity:1;  stroke-linecap:round; stroke-linejoin:round;">
<path style="fill:#000000; fill-opacity:1.0;  stroke:#000000; stroke-width:0.100000; stroke-opacity:1;  stroke-linecap:round; stroke-linejoin:round;fill-rule:evenodd;" d="M 15154110.000000,10078200.000000 15157998.100000,10078973.400000 15161294.200000,10081175.800000 15163496.600000,10084471.900000 15164270.000000,10088360.000000 15164270.000000,10388360.000000 15163496.600000,10392248.100000 15161294.200000,10395544.200000 15157998.100000,10397746.600000 15154110.000000,10398520.000000 15054110.000000,10398520.000000 15050221.900000,10397746.600000 15046925.800000,10395544.200000 15044723.400000,10392248.100000 15043950.000000,10388360.000000 15043950.000000,10088360.000000 15044723.400000,10084471.900000 15046925.800000,10081175.800000 15050221.900000,10078973.400000 15054110.000000,10078200.000000 Z"/> 
<path style="fill:#000000; fill-opacity:1.0;  stroke:#000000; stroke-width:0.100000; stroke-opacity:1;  stroke-linecap:round; stroke-linejoin:round;fill-rule:evenodd;" d="M 14900110.000000,10078200.000000 14903998.100000,10078973.400000 14907294.200000,10081175.800000 14909496.600000,10084471.900000 14910270.000000,10088360.000000 14910270.000000,10388360.000000 14909496.600000,10392248.100000 14907294.200000,10395544.200000 14903998.100000,10397746.600000 14900110.000000,10398520.000000 14800110.000000,10398520.000000 14796221.900000,10397746.600000 14792925.800000,10395544.200000 14790723.400000,10392248.100000 14789950.000000,10388360.000000 14789950.000000,10088360.000000 14790723.400000,10084471.900000 14792925.800000,10081175.800000 14796221.900000,10078973.400000 14800110.000000,10078200.000000 Z"/> 
<path style="fill:#000000; fill-opacity:1.0;  stroke:#000000; stroke-width:0.100000; stroke-opacity:1;  stroke-linecap:round; stroke-linejoin:round;fill-rule:evenodd;" d="M 14646110.000000,10078200.000000 14649998.100000,10078973.400000 14653294.200000,10081175.800000 14655496.600000,10084471.900000 14656270.000000,10088360.000000 14656270.000000,10388360.000000 14655496.600000,10392248.100000 14653294.200000,10395544.200000 14649998.100000,10397746.600000 14646110.000000,10398520.000000 14546110.000000,10398520.000000 14542221.900000,10397746.600000 14538925.800000,10395544.200000 14536723.400000,10392248.100000 14535950.000000,10388360.000000 14535950.000000,10088360.000000 14536723.400000,10084471.900000 14538925.800000,10081175.800000 14542221.900000,10078973.400000 14546110.000000,10078200.000000 Z"/> 
</g>
<g style="fill:#000000; fill-opacity:1.0;  stroke:#000000; stroke-width:0.100000; stroke-opacity:1;  stroke-linecap:round; stroke-linejoin:round;">
<path style="fill:#000000; fill-opacity:1.0;  stroke:#000000; stroke-width:0.100000; stroke-opacity:1;  stroke-linecap:round; stroke-linejoin:round;fill-rule:evenodd;" d="M 15951200.000000,9738360.000000 15953251.200000,9725409.100000 15959204.100000,9713725.900000 15968475.900000,9704454.100000 15980159.100000,9698501.200000 15993110.000000,9696450.000000 16006060.900000,9698501.200000 16017744.100000,9704454.100000 16027015.900000,9713725.900000 16032968.800000,9725409.100000 16035020.000000,9738360.000000 16032968.800000,9751310.900000 16027015.900000,9762994.100000 16017744.100000,9772265.900000 16006060.900000,9778218.800000 15993110.000000,9780270.000000 15980159.100000,9778218.800000 15968475.900000,9772265.900000 15959204.100000,9762994.100000 15953251.200000,9751310.900000 15951200.000000,9738360.000000 Z"/> 
</g>
<g style="fill:#000000; fill-opacity:1.0;  stroke:#000000; stroke-width:0.100000; stroke-opacity:1;  stroke-linecap:round; stroke-linejoin:round;">
<path style="fill:#000000; fill-opacity:1.0;  stroke:#000000; stroke-width:0.100000; stroke-opacity:1;  stroke-linecap:round; stroke-linejoin:round;fill-rule:evenodd;" d="M 13614400.000000,11313160.000000 13616451.200000,11300209.100000 13622404.100000,11288525.900000 13631675.900000,11279254.100000 13643359.100000,11273301.200000 13656310.000000,11271250.000000 13669260.900000,11273301.200000 13680944.100000,11279254.100000 13690215.900000,11288525.900000 13696168.800000,11300209.100000 13698220.000000,11313160.000000 13696168.800000,11326110.900000 13690215.900000,11337794.100000 13680944.100000,11347065.900000 13669260.900000,11353018.800000 13656310.000000,11355070.000000 13643359.100000,11353018.800000 13631675.900000,11347065.900000 13622404.100000,11337794.100000 13616451.200000,11326110.900000 13614400.000000,11313160.000000 Z"/> 
</g>
<g style="fill:#000000; fill-opacity:1.0;  stroke:#000000; stroke-width:0.100000; stroke-opacity:1;  stroke-linecap:round; stroke-linejoin:round;">
<circle cx="13961110.000000" cy="11008360.000000" r="327660.000000"/> 
</g>
</g> 
</mask><mask id="hole-mask"><g><rect x="3801110.0" y="9007010.0" fill="white" width="12326620.0" height="2389970.0"/><polyline stroke-linecap="round" stroke="black" stroke-width="320000.0" points="-0.0 0 0.0 0" transform="translate(15739110.0 11008360.0) rotate(-0.0)"/><polyline stroke-linecap="round" stroke="black" stroke-width="320000.0" points="-0.0 0 0.0 0" transform="translate(13961110.0 11008360.0) rotate(-0.0)"/><polyline stroke-linecap="round" stroke="black" stroke-width="63500.0" points="-0.0 0 0.0 0" transform="translate(13834110.0 10500360.0) rotate(0.0)"/><polyline stroke-linecap="round" stroke="black" stroke-width="63500.0" points="-0.0 0 0.0 0" transform="translate(15866110.0 10500360.0) rotate(0.0)"/></g></mask></defs><g transform="" id="boardContainer"><g id="substrate" clip-path="url(#cut-off)" mask="url(#hole-mask)"><g id="substrate-board" style="fill:#4ca06c; stroke:#4ca06c;"><path d=" M 13580110.0 11389360.0 L 16120110.0 11389360.0 L 16120110.0 9611360.0 L 13580110.0 9611360.0 L 13580110.0 11389360.0 " style="fill-rule: evenodd;"/><g style="fill-opacity: 0.0;stroke-width: 15240.000000;stroke-opacity: 1;stroke-linecap: round;stroke-linejoin: round">
<path d="M13580110 9611360 L13580110 11389360 "/>
<path d="M16120110 9611360 L13580110 9611360 "/>
<path d="M13580110 11389360 L16120110 11389360 "/>
<path d="M16120110 11389360 L16120110 9611360 "/>
</g> 
</g><g id="substrate-clad" style="fill:#9c6b28; stroke:#9c6b28;"><g style="fill-opacity: 0.0;stroke-width: 0.000000;stroke-opacity: 1;stroke-linecap: round;stroke-linejoin: round">
<g style="fill-opacity: 1.0;stroke-width: 0.100000;stroke-opacity: 1;stroke-linecap: round;stroke-linejoin: round">
<path style="fill-opacity: 1.0;stroke-width: 0.100000;stroke-opacity: 1;stroke-linecap: round;stroke-linejoin: round;fill-rule: evenodd" d="M 14111270.000000,10169360.000000 14110496.600000,10173248.100000 14108294.200000,10176544.200000 14104998.100000,10178746.600000 14101110.000000,10179520.000000 13991110.000000,10179520.000000 13987221.900000,10178746.600000 13983925.800000,10176544.200000 13981723.400000,10173248.100000 13980950.000000,10169360.000000 13980950.000000,10069360.000000 13981723.400000,10065471.900000 13983925.800000,10062175.800000 13987221.900000,10059973.400000 13991110.000000,10059200.000000 14101110.000000,10059200.000000 14104998.100000,10059973.400000 14108294.200000,10062175.800000 14110496.600000,10065471.900000 14111270.000000,10069360.000000 Z"/> 
<path style="fill-opacity: 1.0;stroke-width: 0.100000;stroke-opacity: 1;stroke-linecap: round;stroke-linejoin: round;fill-rule: evenodd" d="M 13941270.000000,10169360.000000 13940496.600000,10173248.100000 13938294.200000,10176544.200000 13934998.100000,10178746.600000 13931110.000000,10179520.000000 13821110.000000,10179520.000000 13817221.900000,10178746.600000 13813925.800000,10176544.200000 13811723.400000,10173248.100000 13810950.000000,10169360.000000 13810950.000000,10069360.000000 13811723.400000,10065471.900000 13813925.800000,10062175.800000 13817221.900000,10059973.400000 13821110.000000,10059200.000000 13931110.000000,10059200.000000 13934998.100000,10059973.400000 13938294.200000,10062175.800000 13940496.600000,10065471.900000 13941270.000000,10069360.000000 Z"/> 
</g>
<g style="fill-opacity: 1.0;stroke-width: 0.100000;stroke-opacity: 1;stroke-linecap: round;stroke-linejoin: round">
<circle cx="15739110.000000" cy="11008360.000000" r="327660.000000"/> 
</g>
<g style="fill-opacity: 1.0;stroke-width: 0.100000;stroke-opacity: 1;stroke-linecap: round;stroke-linejoin: round">
<path style="fill-opacity: 1.0;stroke-width: 0.100000;stroke-opacity: 1;stroke-linecap: round;stroke-linejoin: round;fill-rule: evenodd" d="M 15154110.000000,10078200.000000 15157998.100000,10078973.400000 15161294.200000,10081175.800000 15163496.600000,10084471.900000 15164270.000000,10088360.000000 15164270.000000,10388360.000000 15163496.600000,10392248.100000 15161294.200000,10395544.200000 15157998.100000,10397746.600000 15154110.000000,10398520.000000 15054110.000000,10398520.000000 15050221.900000,10397746.600000 15046925.800000,10395544.200000 15044723.400000,10392248.100000 15043950.000000,10388360.000000 15043950.000000,10088360.000000 15044723.400000,10084471.900000 15046925.800000,10081175.800000 15050221.900000,10078973.400000 15054110.000000,10078200.000000 Z"/> 
<path style="fill-opacity: 1.0;stroke-width: 0.100000;stroke-opacity: 1;stroke-linecap: round;stroke-linejoin: round;fill-rule: evenodd" d="M 14900110.000000,10078200.000000 14903998.100000,10078973.400000 14907294.200000,10081175.800000 14909496.600000,10084471.900000 14910270.000000,10088360.000000 14910270.000000,10388360.000000 14909496.600000,10392248.100000 14907294.200000,10395544.200000 14903998.100000,10397746.600000 14900110.000000,10398520.000000 14800110.000000,10398520.000000 14796221.900000,10397746.600000 14792925.800000,10395544.200000 14790723.400000,10392248.100000 14789950.000000,10388360.000000 14789950.000000,10088360.000000 14790723.400000,10084471.900000 14792925.800000,10081175.800000 14796221.900000,10078973.400000 14800110.000000,10078200.000000 Z"/> 
<path style="fill-opacity: 1.0;stroke-width: 0.100000;stroke-opacity: 1;stroke-linecap: round;stroke-linejoin: round;fill-rule: evenodd" d="M 14646110.000000,10078200.000000 14649998.100000,10078973.400000 14653294.200000,10081175.800000 14655496.600000,10084471.900000 14656270.000000,10088360.000000 14656270.000000,10388360.000000 14655496.600000,10392248.100000 14653294.200000,10395544.200000 14649998.100000,10397746.600000 14646110.000000,10398520.000000 14546110.000000,10398520.000000 14542221.900000,10397746.600000 14538925.800000,10395544.200000 14536723.400000,10392248.100000 14535950.000000,10388360.000000 14535950.000000,10088360.000000 14536723.400000,10084471.900000 14538925.800000,10081175.800000 14542221.900000,10078973.400000 14546110.000000,10078200.000000 Z"/> 
</g>
<g style="fill-opacity: 1.0;stroke-width: 0.100000;stroke-opacity: 1;stroke-linecap: round;stroke-linejoin: round">
<path style="fill-opacity: 1.0;stroke-width: 0.100000;stroke-opacity: 1;stroke-linecap: round;stroke-linejoin: round;fill-rule: evenodd" d="M 15951200.000000,9738360.000000 15953251.200000,9725409.100000 15959204.100000,9713725.900000 15968475.900000,9704454.100000 15980159.100000,9698501.200000 15993110.000000,9696450.000000 16006060.900000,9698501.200000 16017744.100000,9704454.100000 16027015.900000,9713725.900000 16032968.800000,9725409.100000 16035020.000000,9738360.000000 16032968.800000,9751310.900000 16027015.900000,9762994.100000 16017744.100000,9772265.900000 16006060.900000,9778218.800000 15993110.000000,9780270.000000 15980159.100000,9778218.800000 15968475.900000,9772265.900000 15959204.100000,9762994.100000 15953251.200000,9751310.900000 15951200.000000,9738360.000000 Z"/> 
</g>
<g style="fill-opacity: 1.0;stroke-width: 0.100000;stroke-opacity: 1;stroke-linecap: round;stroke-linejoin: round">
<path style="fill-opacity: 1.0;stroke-width: 0.100000;stroke-opacity: 1;stroke-linecap: round;stroke-linejoin: round;fill-rule: evenodd" d="M 13614400.000000,11313160.000000 13616451.200000,11300209.100000 13622404.100000,11288525.900000 13631675.900000,11279254.100000 13643359.100000,11273301.200000 13656310.000000,11271250.000000 13669260.900000,11273301.200000 13680944.100000,11279254.100000 13690215.900000,11288525.900000 13696168.800000,11300209.100000 13698220.000000,11313160.000000 13696168.800000,11326110.900000 13690215.900000,11337794.100000 13680944.100000,11347065.900000 13669260.900000,11353018.800000 13656310.000000,11355070.000000 13643359.100000,11353018.800000 13631675.900000,11347065.900000 13622404.100000,11337794.100000 13616451.200000,11326110.900000 13614400.000000,11313160.000000 Z"/> 
</g>
<g style="fill-opacity: 1.0;stroke-width: 0.100000;stroke-opacity: 1;stroke-linecap: round;stroke-linejoin: round">
<circle cx="13961110.000000" cy="11008360.000000" r="327660.000000"/> 
</g>
</g> 
</g><g id="substrate-copper" style="fill:#417e5a; stroke:#417e5a;"><g style="fill-opacity: 0.0;stroke-width: 0.000000;stroke-opacity: 1;stroke-linecap: round;stroke-linejoin: round">
<g style="fill-opacity: 1.0;stroke-width: 0.100000;stroke-opacity: 1;stroke-linecap: round;stroke-linejoin: round">
<path style="fill-opacity: 1.0;stroke-width: 0.100000;stroke-opacity: 1;stroke-linecap: round;stroke-linejoin: round;fill-rule: evenodd" d="M 14101110.000000,10069360.000000 14101110.000000,10169360.000000 13991110.000000,10169360.000000 13991110.000000,10069360.000000 Z"/> 
<path style="fill-opacity: 1.0;stroke-width: 0.100000;stroke-opacity: 1;stroke-linecap: round;stroke-linejoin: round;fill-rule: evenodd" d="M 13931110.000000,10069360.000000 13931110.000000,10169360.000000 13821110.000000,10169360.000000 13821110.000000,10069360.000000 Z"/> 
</g>
<g style="fill-opacity: 1.0;stroke-width: 0.100000;stroke-opacity: 1;stroke-linecap: round;stroke-linejoin: round">
<circle cx="15739110.000000" cy="11008360.000000" r="317500.000000"/> 
</g>
<g style="fill-opacity: 1.0;stroke-width: 0.100000;stroke-opacity: 1;stroke-linecap: round;stroke-linejoin: round">
<path style="fill-opacity: 1.0;stroke-width: 0.100000;stroke-opacity: 1;stroke-linecap: round;stroke-linejoin: round;fill-rule: evenodd" d="M 15054110.000000,10088360.000000 15154110.000000,10088360.000000 15154110.000000,10388360.000000 15054110.000000,10388360.000000 Z"/> 
<path style="fill-opacity: 1.0;stroke-width: 0.100000;stroke-opacity: 1;stroke-linecap: round;stroke-linejoin: round;fill-rule: evenodd" d="M 14800110.000000,10088360.000000 14900110.000000,10088360.000000 14900110.000000,10388360.000000 14800110.000000,10388360.000000 Z"/> 
<path style="fill-opacity: 1.0;stroke-width: 0.100000;stroke-opacity: 1;stroke-linecap: round;stroke-linejoin: round;fill-rule: evenodd" d="M 14546110.000000,10088360.000000 14646110.000000,10088360.000000 14646110.000000,10388360.000000 14546110.000000,10388360.000000 Z"/> 
</g>
<g style="fill-opacity: 1.0;stroke-width: 0.100000;stroke-opacity: 1;stroke-linecap: round;stroke-linejoin: round">
<path style="fill-opacity: 1.0;stroke-width: 0.100000;stroke-opacity: 1;stroke-linecap: round;stroke-linejoin: round;fill-rule: evenodd" d="M 15961360.000000,9738360.000000 15962441.900000,9730142.500000 15967101.900000,9720148.900000 15974898.900000,9712351.900000 15984892.500000,9707691.900000 15993110.000000,9706610.000000 16001327.500000,9707691.900000 16011321.100000,9712351.900000 16019118.100000,9720148.900000 16023778.100000,9730142.500000 16024860.000000,9738360.000000 16023778.100000,9746577.500000 16019118.100000,9756571.100000 16011321.100000,9764368.100000 16001327.500000,9769028.100000 15993110.000000,9770110.000000 15984892.500000,9769028.100000 15974898.900000,9764368.100000 15967101.900000,9756571.100000 15962441.900000,9746577.500000 15961360.000000,9738360.000000 Z"/> 
</g>
<g style="fill-opacity: 1.0;stroke-width: 0.100000;stroke-opacity: 1;stroke-linecap: round;stroke-linejoin: round">
<path style="fill-opacity: 1.0;stroke-width: 0.100000;stroke-opacity: 1;stroke-linecap: round;stroke-linejoin: round;fill-rule: evenodd" d="M 13624560.000000,11313160.000000 13625641.900000,11304942.500000 13630301.900000,11294948.900000 13638098.900000,11287151.900000 13648092.500000,11282491.900000 13656310.000000,11281410.000000 13664527.500000,11282491.900000 13674521.100000,11287151.900000 13682318.100000,11294948.900000 13686978.100000,11304942.500000 13688060.000000,11313160.000000 13686978.100000,11321377.500000 13682318.100000,11331371.100000 13674521.100000,11339168.100000 13664527.500000,11343828.100000 13656310.000000,11344910.000000 13648092.500000,11343828.100000 13638098.900000,11339168.100000 13630301.900000,11331371.100000 13625641.900000,11321377.500000 13624560.000000,11313160.000000 Z"/> 
</g>
<g style="fill-opacity: 1.0;stroke-width: 0.100000;stroke-opacity: 1;stroke-linecap: round;stroke-linejoin: round">
<circle cx="13961110.000000" cy="11008360.000000" r="317500.000000"/> 
</g>
<g style="fill-opacity: 1.0;stroke-width: 0.100000;stroke-opacity: 1;stroke-linecap: round;stroke-linejoin: round">
<circle cx="13834110.000000" cy="10500360.000000" r="52070.000000"/> 
</g>
<g style="fill-opacity: 1.0;stroke-width: 0.100000;stroke-opacity: 1;stroke-linecap: round;stroke-linejoin: round">
<circle cx="15866110.000000" cy="10500360.000000" r="52070.000000"/> 
</g>
<g style="fill-opacity: 0.0;stroke-width: 25400.000000;stroke-opacity: 1;stroke-linecap: round;stroke-linejoin: round">
<path d="M15104110 10238360 L15705710 10238360 "/>
<path d="M15705710 10238360 L15739110 10271760 "/>
<path d="M15739110 10271760 L15739110 11008360 "/>
<path d="M14765910 10238360 L14723110 10195560 "/>
<path d="M14850110 10238360 L14765910 10238360 "/>
<path d="M14646910 9992360 L14723110 10068560 "/>
<path d="M14723110 10195560 L14723110 10068560 "/>
<path d="M13897610 9992360 L14646910 9992360 "/>
<path d="M13876110 10013860 L13897610 9992360 "/>
<path d="M13876110 10119360 L13876110 10013860 "/>
</g>
<g style="fill-opacity: 0.0;stroke-width: 15240.000000;stroke-opacity: 1;stroke-linecap: round;stroke-linejoin: round">
<path d="M14054110 10238360 L14046110 10246360 "/>
</g>
<g style="fill-opacity: 0.0;stroke-width: 25400.000000;stroke-opacity: 1;stroke-linecap: round;stroke-linejoin: round">
<path d="M14596110 10238360 L14054110 10238360 "/>
<path d="M13961110 10373360 L13961110 11008360 "/>
<path d="M14046110 10246360 L14046110 10288360 "/>
<path d="M14046110 10288360 L13961110 10373360 "/>
<path d="M14046110 10119360 L14046110 10246360 "/>
</g>
</g> 
</g><g id="substrate-pads" style="fill:#b5ae30; stroke:#b5ae30;" mask="url(#pads-mask)"><g style="fill-opacity: 0.0;stroke-width: 0.000000;stroke-opacity: 1;stroke-linecap: round;stroke-linejoin: round">
<g style="fill-opacity: 1.0;stroke-width: 0.100000;stroke-opacity: 1;stroke-linecap: round;stroke-linejoin: round">
<path style="fill-opacity: 1.0;stroke-width: 0.100000;stroke-opacity: 1;stroke-linecap: round;stroke-linejoin: round;fill-rule: evenodd" d="M 14101110.000000,10069360.000000 14101110.000000,10169360.000000 13991110.000000,10169360.000000 13991110.000000,10069360.000000 Z"/> 
<path style="fill-opacity: 1.0;stroke-width: 0.100000;stroke-opacity: 1;stroke-linecap: round;stroke-linejoin: round;fill-rule: evenodd" d="M 13931110.000000,10069360.000000 13931110.000000,10169360.000000 13821110.000000,10169360.000000 13821110.000000,10069360.000000 Z"/> 
</g>
<g style="fill-opacity: 1.0;stroke-width: 0.100000;stroke-opacity: 1;stroke-linecap: round;stroke-linejoin: round">
<circle cx="15739110.000000" cy="11008360.000000" r="317500.000000"/> 
</g>
<g style="fill-opacity: 1.0;stroke-width: 0.100000;stroke-opacity: 1;stroke-linecap: round;stroke-linejoin: round">
<path style="fill-opacity: 1.0;stroke-width: 0.100000;stroke-opacity: 1;stroke-linecap: round;stroke-linejoin: round;fill-rule: evenodd" d="M 15054110.000000,10088360.000000 15154110.000000,10088360.000000 15154110.000000,10388360.000000 15054110.000000,10388360.000000 Z"/> 
<path style="fill-opacity: 1.0;stroke-width: 0.100000;stroke-opacity: 1;stroke-linecap: round;stroke-linejoin: round;fill-rule: evenodd" d="M 14800110.000000,10088360.000000 14900110.000000,10088360.000000 14900110.000000,10388360.000000 14800110.000000,10388360.000000 Z"/> 
<path style="fill-opacity: 1.0;stroke-width: 0.100000;stroke-opacity: 1;stroke-linecap: round;stroke-linejoin: round;fill-rule: evenodd" d="M 14546110.000000,10088360.000000 14646110.000000,10088360.000000 14646110.000000,10388360.000000 14546110.000000,10388360.000000 Z"/> 
</g>
<g style="fill-opacity: 1.0;stroke-width: 0.100000;stroke-opacity: 1;stroke-linecap: round;stroke-linejoin: round">
<path style="fill-opacity: 1.0;stroke-width: 0.100000;stroke-opacity: 1;stroke-linecap: round;stroke-linejoin: round;fill-rule: evenodd" d="M 15961360.000000,9738360.000000 15962441.900000,9730142.500000 15967101.900000,9720148.900000 15974898.900000,9712351.900000 15984892.500000,9707691.900000 15993110.000000,9706610.000000 16001327.500000,9707691.900000 16011321.100000,9712351.900000 16019118.100000,9720148.900000 16023778.100000,9730142.500000 16024860.000000,9738360.000000 16023778.100000,9746577.500000 16019118.100000,9756571.100000 16011321.100000,9764368.100000 16001327.500000,9769028.100000 15993110.000000,9770110.000000 15984892.500000,9769028.100000 15974898.900000,9764368.100000 15967101.900000,9756571.100000 15962441.900000,9746577.500000 15961360.000000,9738360.000000 Z"/> 
</g>
<g style="fill-opacity: 1.0;stroke-width: 0.100000;stroke-opacity: 1;stroke-linecap: round;stroke-linejoin: round">
<path style="fill-opacity: 1.0;stroke-width: 0.100000;stroke-opacity: 1;stroke-linecap: round;stroke-linejoin: round;fill-rule: evenodd" d="M 13624560.000000,11313160.000000 13625641.900000,11304942.500000 13630301.900000,11294948.900000 13638098.900000,11287151.900000 13648092.500000,11282491.900000 13656310.000000,11281410.000000 13664527.500000,11282491.900000 13674521.100000,11287151.900000 13682318.100000,11294948.900000 13686978.100000,11304942.500000 13688060.000000,11313160.000000 13686978.100000,11321377.500000 13682318.100000,11331371.100000 13674521.100000,11339168.100000 13664527.500000,11343828.100000 13656310.000000,11344910.000000 13648092.500000,11343828.100000 13638098.900000,11339168.100000 13630301.900000,11331371.100000 13625641.900000,11321377.500000 13624560.000000,11313160.000000 Z"/> 
</g>
<g style="fill-opacity: 1.0;stroke-width: 0.100000;stroke-opacity: 1;stroke-linecap: round;stroke-linejoin: round">
<circle cx="13961110.000000" cy="11008360.000000" r="317500.000000"/> 
</g>
<g style="fill-opacity: 1.0;stroke-width: 0.100000;stroke-opacity: 1;stroke-linecap: round;stroke-linejoin: round">
<circle cx="13834110.000000" cy="10500360.000000" r="52070.000000"/> 
</g>
<g style="fill-opacity: 1.0;stroke-width: 0.100000;stroke-opacity: 1;stroke-linecap: round;stroke-linejoin: round">
<circle cx="15866110.000000" cy="10500360.000000" r="52070.000000"/> 
</g>
<g style="fill-opacity: 0.0;stroke-width: 25400.000000;stroke-opacity: 1;stroke-linecap: round;stroke-linejoin: round">
<path d="M15104110 10238360 L15705710 10238360 "/>
<path d="M15705710 10238360 L15739110 10271760 "/>
<path d="M15739110 10271760 L15739110 11008360 "/>
<path d="M14765910 10238360 L14723110 10195560 "/>
<path d="M14850110 10238360 L14765910 10238360 "/>
<path d="M14646910 9992360 L14723110 10068560 "/>
<path d="M14723110 10195560 L14723110 10068560 "/>
<path d="M13897610 9992360 L14646910 9992360 "/>
<path d="M13876110 10013860 L13897610 9992360 "/>
<path d="M13876110 10119360 L13876110 10013860 "/>
</g>
<g style="fill-opacity: 0.0;stroke-width: 15240.000000;stroke-opacity: 1;stroke-linecap: round;stroke-linejoin: round">
<path d="M14054110 10238360 L14046110 10246360 "/>
</g>
<g style="fill-opacity: 0.0;stroke-width: 25400.000000;stroke-opacity: 1;stroke-linecap: round;stroke-linejoin: round">
<path d="M14596110 10238360 L14054110 10238360 "/>
<path d="M13961110 10373360 L13961110 11008360 "/>
<path d="M14046110 10246360 L14046110 10288360 "/>
<path d="M14046110 10288360 L13961110 10373360 "/>
<path d="M14046110 10119360 L14046110 10246360 "/>
</g>
</g> 
</g><g id="substrate-silk" style="fill:#f0f0f0; stroke:#f0f0f0;" mask="url(#pads-mask-silkscreen)"><g style="fill-opacity: 0.0;stroke-width: 19050.000000;stroke-opacity: 1;stroke-linecap: round;stroke-linejoin: round">
<g transform="rotate(-90.000000 14850110.000000 10424160.000000)">
<text x="14850110.000000" y="10478135.000000" textLength="195338.200000" font-size="143933.300000" lengthAdjust="spacingAndGlyphs" text-anchor="end" opacity="0">5V</text>
</g>
<g class="stroked-text"><desc>5V</desc>
<path d="M14790994 10554773 L14790994 10606178 L14842399 10611318 L14837258 10606178 L14832118 10595897 L14832118 10570194 L14837258 10559913 L14842399 10554773 L14852680 10549632 L14878382 10549632 L14888663 10554773 L14893804 10559913 L14898944 10570194 L14898944 10595897 L14893804 10606178 L14888663 10611318 "/>
<path d="M14790994 10518790 L14898944 10482806 L14790994 10446823 "/>
</g></g>
<g style="fill-opacity: 0.0;stroke-width: 26670.000000;stroke-opacity: 1;stroke-linecap: round;stroke-linejoin: round">
<text x="14850110.000000" y="11019040.700000" textLength="816398.300000" font-size="201506.600000" lengthAdjust="spacingAndGlyphs" text-anchor="middle" opacity="0">RedBot</text>
<g class="stroked-text"><desc>RedBot</desc>
<path d="M14576636 11011844 L14526260 10939877 "/>
<path d="M14490276 11011844 L14490276 10860714 L14547850 10860714 L14562243 10867910 L14569440 10875107 L14576636 10889500 L14576636 10911090 L14569440 10925484 L14562243 10932680 L14547850 10939877 L14490276 10939877 "/>
<path d="M14698980 11004647 L14684586 11011844 L14655800 11011844 L14641406 11004647 L14634210 10990254 L14634210 10932680 L14641406 10918287 L14655800 10911090 L14684586 10911090 L14698980 10918287 L14706176 10932680 L14706176 10947074 L14634210 10961467 "/>
<path d="M14835716 11011844 L14835716 10860714 "/>
<path d="M14835716 11004647 L14821323 11011844 L14792536 11011844 L14778143 11004647 L14770946 10997450 L14763750 10983057 L14763750 10939877 L14770946 10925484 L14778143 10918287 L14792536 10911090 L14821323 10911090 L14835716 10918287 "/>
<path d="M14958060 10932680 L14979650 10939877 L14986846 10947074 L14994043 10961467 L14994043 10983057 L14986846 10997450 L14979650 11004647 L14965256 11011844 L14907683 11011844 L14907683 10860714 L14958060 10860714 L14972453 10867910 L14979650 10875107 L14986846 10889500 L14986846 10903894 L14979650 10918287 L14972453 10925484 L14958060 10932680 L14907683 10932680 "/>
<path d="M15080403 11011844 L15066010 11004647 L15058813 10997450 L15051616 10983057 L15051616 10939877 L15058813 10925484 L15066010 10918287 L15080403 10911090 L15101993 10911090 L15116386 10918287 L15123583 10925484 L15130780 10939877 L15130780 10983057 L15123583 10997450 L15116386 11004647 L15101993 11011844 L15080403 11011844 "/>
<path d="M15173960 10911090 L15231533 10911090 "/>
<path d="M15195550 10860714 L15195550 10990254 L15202746 11004647 L15217140 11011844 L15231533 11011844 "/>
</g><text x="14850110.000000" y="11262360.000000" textLength="883877.700000" font-size="201506.600000" lengthAdjust="spacingAndGlyphs" text-anchor="middle" opacity="0">Bumper</text>
<g class="stroked-text"><desc>Bumper</desc>
<path d="M14511866 11176000 L14533456 11183196 L14540653 11190393 L14547850 11204786 L14547850 11226376 L14540653 11240770 L14533456 11247966 L14519063 11255163 L14461490 11255163 L14461490 11104033 L14511866 11104033 L14526260 11111230 L14533456 11118426 L14540653 11132820 L14540653 11147213 L14533456 11161606 L14526260 11168803 L14511866 11176000 L14461490 11176000 "/>
<path d="M14677390 11154410 L14677390 11255163 "/>
<path d="M14612620 11154410 L14612620 11233573 L14619816 11247966 L14634210 11255163 L14655800 11255163 L14670193 11247966 L14677390 11240770 "/>
<path d="M14749356 11255163 L14749356 11154410 "/>
<path d="M14749356 11168803 L14756553 11161606 L14770946 11154410 L14792536 11154410 L14806930 11161606 L14814126 11176000 L14814126 11255163 "/>
<path d="M14814126 11176000 L14821323 11161606 L14835716 11154410 L14857306 11154410 L14871700 11161606 L14878896 11176000 L14878896 11255163 "/>
<path d="M14950863 11154410 L14950863 11305540 "/>
<path d="M14950863 11161606 L14965256 11154410 L14994043 11154410 L15008436 11161606 L15015633 11168803 L15022830 11183196 L15022830 11226376 L15015633 11240770 L15008436 11247966 L14994043 11255163 L14965256 11255163 L14950863 11247966 "/>
<path d="M15145173 11247966 L15130780 11255163 L15101993 11255163 L15087600 11247966 L15080403 11233573 L15080403 11176000 L15087600 11161606 L15101993 11154410 L15130780 11154410 L15145173 11161606 L15152370 11176000 L15152370 11190393 L15080403 11204786 "/>
<path d="M15217140 11255163 L15217140 11154410 "/>
<path d="M15217140 11183196 L15224336 11168803 L15231533 11161606 L15245926 11154410 L15260320 11154410 "/>
</g></g>
<g style="fill-opacity: 0.0;stroke-width: 19050.000000;stroke-opacity: 1;stroke-linecap: round;stroke-linejoin: round">
<g transform="rotate(-90.000000 14596110.000000 10424160.000000)">
<text x="14596110.000000" y="10478135.000000" textLength="343099.600000" font-size="143933.300000" lengthAdjust="spacingAndGlyphs" text-anchor="end" opacity="0">OUT</text>
</g>
<g class="stroked-text"><desc>OUT</desc>
<path d="M14536994 10698706 L14536994 10678144 L14542135 10667863 L14552415 10657582 L14572977 10652442 L14608961 10652442 L14629523 10657582 L14639804 10667863 L14644944 10678144 L14644944 10698706 L14639804 10708987 L14629523 10719268 L14608961 10724409 L14572977 10724409 L14552415 10719268 L14542135 10708987 L14536994 10698706 "/>
<path d="M14536994 10606178 L14624382 10606178 L14634663 10601037 L14639804 10595897 L14644944 10585616 L14644944 10565054 L14639804 10554773 L14634663 10549632 L14624382 10544492 L14536994 10544492 "/>
<path d="M14536994 10508509 L14536994 10446823 "/>
<path d="M14644944 10477666 L14536994 10477666 "/>
</g><g transform="rotate(-90.000000 15104110.000000 10424160.000000)">
<text x="15104110.000000" y="10478135.000000" textLength="353755.500000" font-size="143933.300000" lengthAdjust="spacingAndGlyphs" text-anchor="end" opacity="0">GND</text>
</g>
<g class="stroked-text"><desc>GND</desc>
<path d="M15050135 10683285 L15044994 10693566 L15044994 10708987 L15050135 10724409 L15060415 10734690 L15070696 10739830 L15091258 10744971 L15106680 10744971 L15127242 10739830 L15137523 10734690 L15147804 10724409 L15152944 10708987 L15152944 10698706 L15147804 10683285 L15142663 10678144 L15106680 10678144 L15106680 10698706 "/>
<path d="M15152944 10631880 L15044994 10631880 L15152944 10570194 L15044994 10570194 "/>
<path d="M15152944 10518790 L15044994 10518790 L15044994 10493087 L15050135 10477666 L15060415 10467385 L15070696 10462244 L15091258 10457104 L15106680 10457104 L15127242 10462244 L15137523 10467385 L15147804 10477666 L15152944 10493087 L15152944 10518790 "/>
</g></g>
<g style="fill-opacity: 0.0;stroke-width: 3251.200000;stroke-opacity: 1;stroke-linecap: round;stroke-linejoin: round">
<text x="14050010.000000" y="10232948.800000" textLength="97762.200000" font-size="49851.700000" lengthAdjust="spacingAndGlyphs" text-anchor="end" opacity="0">R1</text>
<g class="stroked-text"><desc>R1</desc>
<path d="M14005166 10231168 L13992703 10213364 "/>
<path d="M13983801 10231168 L13983801 10193779 L13998044 10193779 L14001605 10195560 L14003386 10197340 L14005166 10200901 L14005166 10206242 L14003386 10209803 L14001605 10211583 L13998044 10213364 L13983801 10213364 "/>
<path d="M14040775 10231168 L14019410 10231168 "/>
<path d="M14030092 10231168 L14030092 10193779 L14026531 10199120 L14022970 10202681 L14019410 10204462 "/>
</g></g>
<g style="fill-opacity: 1.0;stroke-width: 0.100000;stroke-opacity: 1;stroke-linecap: round;stroke-linejoin: round">
<path style="fill-opacity: 1.0;stroke-width: 0.100000;stroke-opacity: 1;stroke-linecap: round;stroke-linejoin: round;fill-rule: evenodd" d="M 13983970.000000,10157460.000000 13938250.000000,10157460.000000 13938250.000000,10081260.000000 13983970.000000,10081260.000000 Z"/> 
<path style="fill-opacity: 1.0;stroke-width: 0.100000;stroke-opacity: 1;stroke-linecap: round;stroke-linejoin: round;fill-rule: evenodd" d="M 15851710.200000,9711539.700000 15860654.900000,9713777.100000 15861957.700000,9714281.700000 15863124.900000,9714872.500000 15864796.000000,9715702.400000 15866665.200000,9716376.600000 15876279.400000,9722100.000000 15877040.000000,9722100.000000 15877040.000000,9724640.000000 15869793.300000,9724640.000000 15859951.800000,9726568.600000 15846595.500000,9742831.400000 15847046.500000,9748677.500000 15851919.000000,9758173.100000 15859576.600000,9765840.400000 15868516.900000,9772296.200000 15876044.800000,9775477.600000 15884183.700000,9775196.800000 15884996.400000,9774941.400000 15885735.700000,9774621.100000 15892161.400000,9768664.400000 15892790.000000,9766378.800000 15892790.000000,9754566.200000 15915480.700000,9777547.300000 15925928.600000,9806675.900000 15926270.300000,9806670.600000 15926916.000000,9827316.500000 15923995.700000,9846618.000000 15917640.800000,9865075.800000 15905740.000000,9886202.200000 15905740.000000,9884301.900000 15876923.100000,9911459.000000 15837333.900000,9922510.000000 15814410.500000,9922510.000000 15810730.100000,9923155.400000 15807287.600000,9924400.800000 15788742.200000,9938181.600000 15737850.000000,9995451.000000 15737850.000000,9840283.000000 15745110.400000,9816163.300000 15755939.500000,9805811.100000 15769822.200000,9800607.800000 15779500.000000,9799851.100000 15789048.400000,9800597.700000 15795101.000000,9801550.100000 15794888.800000,9803916.700000 15791331.600000,9803835.800000 15789288.400000,9804745.900000 15781161.900000,9810644.600000 15779182.200000,9813293.000000 15778149.500000,9819510.000000 15779200.500000,9825837.100000 15781250.500000,9829842.600000 15784344.300000,9833091.500000 15793763.500000,9838005.000000 15804332.900000,9839185.800000 15813386.800000,9837351.600000 15821532.000000,9833394.400000 15831313.000000,9816894.100000 15829880.600000,9807475.600000 15824201.400000,9799319.900000 15797580.700000,9766036.300000 15795276.700000,9741274.500000 15801859.500000,9730204.400000 15802014.200000,9730049.700000 15817000.100000,9717648.000000 15842377.600000,9710653.600000 Z"/> 
<path style="fill-opacity: 1.0;stroke-width: 0.100000;stroke-opacity: 1;stroke-linecap: round;stroke-linejoin: round;fill-rule: evenodd" d="M 15515274.700000,9759224.900000 15527457.000000,9763125.600000 15538827.700000,9768983.100000 15577972.000000,9737065.400000 15613404.600000,9772498.000000 15581213.500000,9811977.700000 15590814.600000,9835151.600000 15641490.000000,9840303.900000 15641490.000000,9890416.100000 15590814.600000,9895568.400000 15581213.500000,9918742.300000 15613404.600000,9958222.000000 15577972.000000,9993654.600000 15538827.700000,9961737.000000 15520770.100000,9971039.400000 15493977.900000,9906367.300000 15517736.200000,9887120.000000 15522474.900000,9877506.800000 15524382.900000,9866393.900000 15523056.400000,9855196.600000 15518604.700000,9844837.100000 15511394.200000,9836168.200000 15502018.700000,9829903.900000 15491250.600000,9826560.100000 15479975.800000,9826412.000000 15469123.200000,9829471.900000 15459586.600000,9835487.600000 15452151.100000,9843963.800000 15447428.700000,9854203.100000 15445892.400000,9864783.300000 15452817.700000,9887616.500000 15460178.800000,9895737.300000 15494277.700000,9916170.000000 15472181.000000,9916170.000000 15449576.800000,9970733.200000 15434450.300000,9963717.700000 15431217.800000,9961879.200000 15392248.000000,9993654.600000 15356815.400000,9958222.000000 15389006.500000,9918742.300000 15379405.400000,9895568.400000 15328730.000000,9890416.100000 15328730.000000,9840303.900000 15379405.400000,9835151.600000 15389006.500000,9811977.700000 15356815.400000,9772498.000000 15392248.000000,9737065.400000 15431727.700000,9769256.500000 15454901.600000,9759655.400000 15460053.900000,9708980.000000 15510166.100000,9708980.000000 Z"/> 
</g> 
</g><g id="substrate-outline" style="fill:#000000; stroke:#000000; stroke-width: 15000.0"><g style="fill-opacity: 0.0;stroke-opacity: 1;stroke-linecap: round;stroke-linejoin: round">
<path d="M13580110 9611360 L13580110 11389360 "/>
<path d="M16120110 9611360 L13580110 9611360 "/>
<path d="M13580110 11389360 L16120110 11389360 "/>
<path d="M16120110 11389360 L16120110 9611360 "/>
</g> 
<path d="M -160000.0 0.0 A 160000.0 160000.0 0 1 1 160000.0 0.0 L 160000.0 -0.0 A 160000.0 160000.0 0 1 1 -160000.0 -0.0 Z" transform="translate(15739110.0 11008360.0) rotate(-0.0)"/><path d="M -160000.0 0.0 A 160000.0 160000.0 0 1 1 160000.0 0.0 L 160000.0 -0.0 A 160000.0 160000.0 0 1 1 -160000.0 -0.0 Z" transform="translate(13961110.0 11008360.0) rotate(-0.0)"/><path d="M -31750.0 0.0 A 31750.0 31750.0 0 1 1 31750.0 0.0 L 31750.0 -0.0 A 31750.0 31750.0 0 1 1 -31750.0 -0.0 Z" transform="translate(13834110.0 10500360.0) rotate(0.0)"/><path d="M -31750.0 0.0 A 31750.0 31750.0 0 1 1 31750.0 0.0 L 31750.0 -0.0 A 31750.0 31750.0 0 1 1 -31750.0 -0.0 Z" transform="translate(15866110.0 10500360.0) rotate(0.0)"/></g></g></g></svg>