<?xml version="1.0" standalone="no"?>
 <!DOCTYPE svg PUBLIC "-//W3C//DTD SVG 1.1//EN" 
 "http://www.w3.org/Graphics/SVG/1.1/DTD/svg11.dtd"> 
<svg
  xmlns:svg="http://www.w3.org/2000/svg"
  xmlns="http://www.w3.org/2000/svg"
  xmlns:xlink="http://www.w3.org/1999/xlink"
  version="1.1"
  width="29.700220cm" height="21.000720cm" viewBox="0 0 297002200 210007200">
<title>SVG Picture created as kicadBoard-F_Fab.svg date 2022/11/20 08:36:12 </title>
  <desc>Picture generated by PCBNEW </desc>
<g style="fill:#000000; fill-opacity:1.000000;stroke:#000000; stroke-opacity:1.000000;
stroke-linecap:round; stroke-linejoin:round;"
 transform="translate(0 0) scale(1 1)">
</g>
<g style="fill:#000000; fill-opacity:0.0; 
stroke:#000000; stroke-width:0.000000; stroke-opacity:1; 
stroke-linecap:round; stroke-linejoin:round;">
</g>
<g style="fill:#000000; fill-opacity:0.0; 
stroke:#000000; stroke-width:21200.000000; stroke-opacity:1; 
stroke-linecap:round; stroke-linejoin:round;">
</g>
<g style="fill:#000000; fill-opacity:0.0; 
stroke:#000000; stroke-width:150000.000000; stroke-opacity:1; 
stroke-linecap:round; stroke-linejoin:round;">
<rect x="177002200.000000" y="166007200.000000" width="108000000.000000" height="32000000.000000" rx="0.000000" />
</g>
<g style="fill:#000000; fill-opacity:0.0; 
stroke:#000000; stroke-width:21200.000000; stroke-opacity:1; 
stroke-linecap:round; stroke-linejoin:round;">
</g>
<g style="fill:#000000; fill-opacity:0.0; 
stroke:#000000; stroke-width:150000.000000; stroke-opacity:1; 
stroke-linecap:round; stroke-linejoin:round;">
<rect x="10000000.000000" y="10000000.000000" width="277002200.000000" height="190007200.000000" rx="0.000000" />
</g>
<g style="fill:#000000; fill-opacity:0.0; 
stroke:#000000; stroke-width:21200.000000; stroke-opacity:1; 
stroke-linecap:round; stroke-linejoin:round;">
</g>
<g style="fill:#000000; fill-opacity:0.0; 
stroke:#000000; stroke-width:150000.000000; stroke-opacity:1; 
stroke-linecap:round; stroke-linejoin:round;">
<rect x="12000000.000000" y="12000000.000000" width="273002200.000000" height="186007200.000000" rx="0.000000" />
</g>
<g style="fill:#000000; fill-opacity:0.0; 
stroke:#000000; stroke-width:21200.000000; stroke-opacity:1; 
stroke-linecap:round; stroke-linejoin:round;">
</g>
<g style="fill:#000000; fill-opacity:0.0; 
stroke:#000000; stroke-width:150000.000000; stroke-opacity:1; 
stroke-linecap:round; stroke-linejoin:round;">
<path d="M60000000 12000000
L60000000 10000000
" />
</g>
<g style="fill:#000000; fill-opacity:0.0; 
stroke:#000000; stroke-width:21200.000000; stroke-opacity:1; 
stroke-linecap:round; stroke-linejoin:round;">
</g>
<g style="fill:#000000; fill-opacity:0.0; 
stroke:#000000; stroke-width:150000.000000; stroke-opacity:1; 
stroke-linecap:round; stroke-linejoin:round;">
<path d="M110000000 12000000
L110000000 10000000
" />
</g>
<g style="fill:#000000; fill-opacity:0.0; 
stroke:#000000; stroke-width:21200.000000; stroke-opacity:1; 
stroke-linecap:round; stroke-linejoin:round;">
</g>
<g style="fill:#000000; fill-opacity:0.0; 
stroke:#000000; stroke-width:150000.000000; stroke-opacity:1; 
stroke-linecap:round; stroke-linejoin:round;">
<path d="M160000000 12000000
L160000000 10000000
" />
</g>
<g style="fill:#000000; fill-opacity:0.0; 
stroke:#000000; stroke-width:21200.000000; stroke-opacity:1; 
stroke-linecap:round; stroke-linejoin:round;">
</g>
<g style="fill:#000000; fill-opacity:0.0; 
stroke:#000000; stroke-width:150000.000000; stroke-opacity:1; 
stroke-linecap:round; stroke-linejoin:round;">
<path d="M210000000 12000000
L210000000 10000000
" />
</g>
<g style="fill:#000000; fill-opacity:0.0; 
stroke:#000000; stroke-width:21200.000000; stroke-opacity:1; 
stroke-linecap:round; stroke-linejoin:round;">
</g>
<g style="fill:#000000; fill-opacity:0.0; 
stroke:#000000; stroke-width:150000.000000; stroke-opacity:1; 
stroke-linecap:round; stroke-linejoin:round;">
<path d="M260000000 12000000
L260000000 10000000
" />
</g>
<g style="fill:#000000; fill-opacity:0.0; 
stroke:#000000; stroke-width:21200.000000; stroke-opacity:1; 
stroke-linecap:round; stroke-linejoin:round;">
</g>
<g style="fill:#000000; fill-opacity:0.0; 
stroke:#000000; stroke-width:150000.000000; stroke-opacity:1; 
stroke-linecap:round; stroke-linejoin:round;">
<text x="35000000.000000" y="11650000.000000"
textLength="1364892.000000" font-size="1733333.000000" lengthAdjust="spacingAndGlyphs"
text-anchor="start" opacity="0">1</text>
<g class="stroked-text"><desc>1</desc>
<path d="M36065476 11588095
L35322619 11588095
" />
<path d="M35694047 11588095
L35694047 10288095
L35570238 10473809
L35446428 10597619
L35322619 10659523
" />
</g></g>
<g style="fill:#000000; fill-opacity:0.0; 
stroke:#000000; stroke-width:21200.000000; stroke-opacity:1; 
stroke-linecap:round; stroke-linejoin:round;">
</g>
<g style="fill:#000000; fill-opacity:0.0; 
stroke:#000000; stroke-width:150000.000000; stroke-opacity:1; 
stroke-linecap:round; stroke-linejoin:round;">
<text x="85000000.000000" y="11650000.000000"
textLength="1388095.000000" font-size="1733333.000000" lengthAdjust="spacingAndGlyphs"
text-anchor="start" opacity="0">2</text>
<g class="stroked-text"><desc>2</desc>
<path d="M85322619 10411904
L85384523 10350000
L85508333 10288095
L85817857 10288095
L85941666 10350000
L86003571 10411904
L86065476 10535714
L86065476 10659523
L86003571 10845238
L85260714 11588095
L86065476 11588095
" />
</g></g>
<g style="fill:#000000; fill-opacity:0.0; 
stroke:#000000; stroke-width:21200.000000; stroke-opacity:1; 
stroke-linecap:round; stroke-linejoin:round;">
</g>
<g style="fill:#000000; fill-opacity:0.0; 
stroke:#000000; stroke-width:150000.000000; stroke-opacity:1; 
stroke-linecap:round; stroke-linejoin:round;">
<text x="135000000.000000" y="11650000.000000"
textLength="1388095.000000" font-size="1733333.000000" lengthAdjust="spacingAndGlyphs"
text-anchor="start" opacity="0">3</text>
<g class="stroked-text"><desc>3</desc>
<path d="M135260714 10288095
L136065476 10288095
L135632142 10783333
L135817857 10783333
L135941666 10845238
L136003571 10907142
L136065476 11030952
L136065476 11340476
L136003571 11464285
L135941666 11526190
L135817857 11588095
L135446428 11588095
L135322619 11526190
L135260714 11464285
" />
</g></g>
<g style="fill:#000000; fill-opacity:0.0; 
stroke:#000000; stroke-width:21200.000000; stroke-opacity:1; 
stroke-linecap:round; stroke-linejoin:round;">
</g>
<g style="fill:#000000; fill-opacity:0.0; 
stroke:#000000; stroke-width:150000.000000; stroke-opacity:1; 
stroke-linecap:round; stroke-linejoin:round;">
<text x="185000000.000000" y="11650000.000000"
textLength="1388095.000000" font-size="1733333.000000" lengthAdjust="spacingAndGlyphs"
text-anchor="start" opacity="0">4</text>
<g class="stroked-text"><desc>4</desc>
<path d="M185941666 10721428
L185941666 11588095
" />
<path d="M185632142 10226190
L185322619 11154761
L186127380 11154761
" />
</g></g>
<g style="fill:#000000; fill-opacity:0.0; 
stroke:#000000; stroke-width:21200.000000; stroke-opacity:1; 
stroke-linecap:round; stroke-linejoin:round;">
</g>
<g style="fill:#000000; fill-opacity:0.0; 
stroke:#000000; stroke-width:150000.000000; stroke-opacity:1; 
stroke-linecap:round; stroke-linejoin:round;">
<text x="235000000.000000" y="11650000.000000"
textLength="1388095.000000" font-size="1733333.000000" lengthAdjust="spacingAndGlyphs"
text-anchor="start" opacity="0">5</text>
<g class="stroked-text"><desc>5</desc>
<path d="M236003571 10288095
L235384523 10288095
L235322619 10907142
L235384523 10845238
L235508333 10783333
L235817857 10783333
L235941666 10845238
L236003571 10907142
L236065476 11030952
L236065476 11340476
L236003571 11464285
L235941666 11526190
L235817857 11588095
L235508333 11588095
L235384523 11526190
L235322619 11464285
" />
</g></g>
<g style="fill:#000000; fill-opacity:0.0; 
stroke:#000000; stroke-width:21200.000000; stroke-opacity:1; 
stroke-linecap:round; stroke-linejoin:round;">
</g>
<g style="fill:#000000; fill-opacity:0.0; 
stroke:#000000; stroke-width:150000.000000; stroke-opacity:1; 
stroke-linecap:round; stroke-linejoin:round;">
<text x="285000000.000000" y="11650000.000000"
textLength="1388095.000000" font-size="1733333.000000" lengthAdjust="spacingAndGlyphs"
text-anchor="start" opacity="0">6</text>
<g class="stroked-text"><desc>6</desc>
<path d="M285941666 10288095
L285694047 10288095
L285570238 10350000
L285508333 10411904
L285384523 10597619
L285322619 10845238
L285322619 11340476
L285384523 11464285
L285446428 11526190
L285570238 11588095
L285817857 11588095
L285941666 11526190
L286003571 11464285
L286065476 11340476
L286065476 11030952
L286003571 10907142
L285941666 10845238
L285817857 10783333
L285570238 10783333
L285446428 10845238
L285384523 10907142
L285322619 11030952
" />
</g></g>
<g style="fill:#000000; fill-opacity:0.0; 
stroke:#000000; stroke-width:21200.000000; stroke-opacity:1; 
stroke-linecap:round; stroke-linejoin:round;">
</g>
<g style="fill:#000000; fill-opacity:0.0; 
stroke:#000000; stroke-width:150000.000000; stroke-opacity:1; 
stroke-linecap:round; stroke-linejoin:round;">
<path d="M60000000 198007200
L60000000 200007200
" />
</g>
<g style="fill:#000000; fill-opacity:0.0; 
stroke:#000000; stroke-width:21200.000000; stroke-opacity:1; 
stroke-linecap:round; stroke-linejoin:round;">
</g>
<g style="fill:#000000; fill-opacity:0.0; 
stroke:#000000; stroke-width:150000.000000; stroke-opacity:1; 
stroke-linecap:round; stroke-linejoin:round;">
<path d="M110000000 198007200
L110000000 200007200
" />
</g>
<g style="fill:#000000; fill-opacity:0.0; 
stroke:#000000; stroke-width:21200.000000; stroke-opacity:1; 
stroke-linecap:round; stroke-linejoin:round;">
</g>
<g style="fill:#000000; fill-opacity:0.0; 
stroke:#000000; stroke-width:150000.000000; stroke-opacity:1; 
stroke-linecap:round; stroke-linejoin:round;">
<path d="M160000000 198007200
L160000000 200007200
" />
</g>
<g style="fill:#000000; fill-opacity:0.0; 
stroke:#000000; stroke-width:21200.000000; stroke-opacity:1; 
stroke-linecap:round; stroke-linejoin:round;">
</g>
<g style="fill:#000000; fill-opacity:0.0; 
stroke:#000000; stroke-width:150000.000000; stroke-opacity:1; 
stroke-linecap:round; stroke-linejoin:round;">
<path d="M210000000 198007200
L210000000 200007200
" />
</g>
<g style="fill:#000000; fill-opacity:0.0; 
stroke:#000000; stroke-width:21200.000000; stroke-opacity:1; 
stroke-linecap:round; stroke-linejoin:round;">
</g>
<g style="fill:#000000; fill-opacity:0.0; 
stroke:#000000; stroke-width:150000.000000; stroke-opacity:1; 
stroke-linecap:round; stroke-linejoin:round;">
<path d="M260000000 198007200
L260000000 200007200
" />
</g>
<g style="fill:#000000; fill-opacity:0.0; 
stroke:#000000; stroke-width:21200.000000; stroke-opacity:1; 
stroke-linecap:round; stroke-linejoin:round;">
</g>
<g style="fill:#000000; fill-opacity:0.0; 
stroke:#000000; stroke-width:150000.000000; stroke-opacity:1; 
stroke-linecap:round; stroke-linejoin:round;">
<text x="35000000.000000" y="199657200.000000"
textLength="1388095.000000" font-size="1733333.000000" lengthAdjust="spacingAndGlyphs"
text-anchor="start" opacity="0">1</text>
<g class="stroked-text"><desc>1</desc>
<path d="M36065476 199595295
L35322619 199595295
" />
<path d="M35694047 199595295
L35694047 198295295
L35570238 198481009
L35446428 198604819
L35322619 198666723
" />
</g></g>
<g style="fill:#000000; fill-opacity:0.0; 
stroke:#000000; stroke-width:21200.000000; stroke-opacity:1; 
stroke-linecap:round; stroke-linejoin:round;">
</g>
<g style="fill:#000000; fill-opacity:0.0; 
stroke:#000000; stroke-width:150000.000000; stroke-opacity:1; 
stroke-linecap:round; stroke-linejoin:round;">
<text x="85000000.000000" y="199657200.000000"
textLength="1388095.000000" font-size="1733333.000000" lengthAdjust="spacingAndGlyphs"
text-anchor="start" opacity="0">2</text>
<g class="stroked-text"><desc>2</desc>
<path d="M85322619 198419104
L85384523 198357200
L85508333 198295295
L85817857 198295295
L85941666 198357200
L86003571 198419104
L86065476 198542914
L86065476 198666723
L86003571 198852438
L85260714 199595295
L86065476 199595295
" />
</g></g>
<g style="fill:#000000; fill-opacity:0.0; 
stroke:#000000; stroke-width:21200.000000; stroke-opacity:1; 
stroke-linecap:round; stroke-linejoin:round;">
</g>
<g style="fill:#000000; fill-opacity:0.0; 
stroke:#000000; stroke-width:150000.000000; stroke-opacity:1; 
stroke-linecap:round; stroke-linejoin:round;">
<text x="135000000.000000" y="199657200.000000"
textLength="1388095.000000" font-size="1733333.000000" lengthAdjust="spacingAndGlyphs"
text-anchor="start" opacity="0">3</text>
<g class="stroked-text"><desc>3</desc>
<path d="M135260714 198295295
L136065476 198295295
L135632142 198790533
L135817857 198790533
L135941666 198852438
L136003571 198914342
L136065476 199038152
L136065476 199347676
L136003571 199471485
L135941666 199533390
L135817857 199595295
L135446428 199595295
L135322619 199533390
L135260714 199471485
" />
</g></g>
<g style="fill:#000000; fill-opacity:0.0; 
stroke:#000000; stroke-width:21200.000000; stroke-opacity:1; 
stroke-linecap:round; stroke-linejoin:round;">
</g>
<g style="fill:#000000; fill-opacity:0.0; 
stroke:#000000; stroke-width:150000.000000; stroke-opacity:1; 
stroke-linecap:round; stroke-linejoin:round;">
<text x="185000000.000000" y="199657200.000000"
textLength="1388095.000000" font-size="1733333.000000" lengthAdjust="spacingAndGlyphs"
text-anchor="start" opacity="0">4</text>
<g class="stroked-text"><desc>4</desc>
<path d="M185941666 198728628
L185941666 199595295
" />
<path d="M185632142 198233390
L185322619 199161961
L186127380 199161961
" />
</g></g>
<g style="fill:#000000; fill-opacity:0.0; 
stroke:#000000; stroke-width:21200.000000; stroke-opacity:1; 
stroke-linecap:round; stroke-linejoin:round;">
</g>
<g style="fill:#000000; fill-opacity:0.0; 
stroke:#000000; stroke-width:150000.000000; stroke-opacity:1; 
stroke-linecap:round; stroke-linejoin:round;">
<text x="235000000.000000" y="199657200.000000"
textLength="1388095.000000" font-size="1733333.000000" lengthAdjust="spacingAndGlyphs"
text-anchor="start" opacity="0">5</text>
<g class="stroked-text"><desc>5</desc>
<path d="M236003571 198295295
L235384523 198295295
L235322619 198914342
L235384523 198852438
L235508333 198790533
L235817857 198790533
L235941666 198852438
L236003571 198914342
L236065476 199038152
L236065476 199347676
L236003571 199471485
L235941666 199533390
L235817857 199595295
L235508333 199595295
L235384523 199533390
L235322619 199471485
" />
</g></g>
<g style="fill:#000000; fill-opacity:0.0; 
stroke:#000000; stroke-width:21200.000000; stroke-opacity:1; 
stroke-linecap:round; stroke-linejoin:round;">
</g>
<g style="fill:#000000; fill-opacity:0.0; 
stroke:#000000; stroke-width:150000.000000; stroke-opacity:1; 
stroke-linecap:round; stroke-linejoin:round;">
<text x="285000000.000000" y="199657200.000000"
textLength="1388095.000000" font-size="1733333.000000" lengthAdjust="spacingAndGlyphs"
text-anchor="start" opacity="0">6</text>
<g class="stroked-text"><desc>6</desc>
<path d="M285941666 198295295
L285694047 198295295
L285570238 198357200
L285508333 198419104
L285384523 198604819
L285322619 198852438
L285322619 199347676
L285384523 199471485
L285446428 199533390
L285570238 199595295
L285817857 199595295
L285941666 199533390
L286003571 199471485
L286065476 199347676
L286065476 199038152
L286003571 198914342
L285941666 198852438
L285817857 198790533
L285570238 198790533
L285446428 198852438
L285384523 198914342
L285322619 199038152
" />
</g></g>
<g style="fill:#000000; fill-opacity:0.0; 
stroke:#000000; stroke-width:21200.000000; stroke-opacity:1; 
stroke-linecap:round; stroke-linejoin:round;">
</g>
<g style="fill:#000000; fill-opacity:0.0; 
stroke:#000000; stroke-width:150000.000000; stroke-opacity:1; 
stroke-linecap:round; stroke-linejoin:round;">
<path d="M10000000 60000000
L12000000 60000000
" />
</g>
<g style="fill:#000000; fill-opacity:0.0; 
stroke:#000000; stroke-width:21200.000000; stroke-opacity:1; 
stroke-linecap:round; stroke-linejoin:round;">
</g>
<g style="fill:#000000; fill-opacity:0.0; 
stroke:#000000; stroke-width:150000.000000; stroke-opacity:1; 
stroke-linecap:round; stroke-linejoin:round;">
<path d="M10000000 110000000
L12000000 110000000
" />
</g>
<g style="fill:#000000; fill-opacity:0.0; 
stroke:#000000; stroke-width:21200.000000; stroke-opacity:1; 
stroke-linecap:round; stroke-linejoin:round;">
</g>
<g style="fill:#000000; fill-opacity:0.0; 
stroke:#000000; stroke-width:150000.000000; stroke-opacity:1; 
stroke-linecap:round; stroke-linejoin:round;">
<path d="M10000000 160000000
L12000000 160000000
" />
</g>
<g style="fill:#000000; fill-opacity:0.0; 
stroke:#000000; stroke-width:21200.000000; stroke-opacity:1; 
stroke-linecap:round; stroke-linejoin:round;">
</g>
<g style="fill:#000000; fill-opacity:0.0; 
stroke:#000000; stroke-width:150000.000000; stroke-opacity:1; 
stroke-linecap:round; stroke-linejoin:round;">
<text x="11000000.000000" y="35650000.000000"
textLength="1264286.000000" font-size="1733333.000000" lengthAdjust="spacingAndGlyphs"
text-anchor="middle" opacity="0">A</text>
<g class="stroked-text"><desc>A</desc>
<path d="M10690476 35216666
L11309523 35216666
" />
<path d="M10566666 35588095
L11000000 34288095
L11433333 35588095
" />
</g></g>
<g style="fill:#000000; fill-opacity:0.0; 
stroke:#000000; stroke-width:21200.000000; stroke-opacity:1; 
stroke-linecap:round; stroke-linejoin:round;">
</g>
<g style="fill:#000000; fill-opacity:0.0; 
stroke:#000000; stroke-width:150000.000000; stroke-opacity:1; 
stroke-linecap:round; stroke-linejoin:round;">
<text x="11000000.000000" y="85650000.000000"
textLength="1450000.000000" font-size="1733333.000000" lengthAdjust="spacingAndGlyphs"
text-anchor="middle" opacity="0">B</text>
<g class="stroked-text"><desc>B</desc>
<path d="M11092857 84907142
L11278571 84969047
L11340476 85030952
L11402380 85154761
L11402380 85340476
L11340476 85464285
L11278571 85526190
L11154761 85588095
L10659523 85588095
L10659523 84288095
L11092857 84288095
L11216666 84350000
L11278571 84411904
L11340476 84535714
L11340476 84659523
L11278571 84783333
L11216666 84845238
L11092857 84907142
L10659523 84907142
" />
</g></g>
<g style="fill:#000000; fill-opacity:0.0; 
stroke:#000000; stroke-width:21200.000000; stroke-opacity:1; 
stroke-linecap:round; stroke-linejoin:round;">
</g>
<g style="fill:#000000; fill-opacity:0.0; 
stroke:#000000; stroke-width:150000.000000; stroke-opacity:1; 
stroke-linecap:round; stroke-linejoin:round;">
<text x="11000000.000000" y="135650000.000000"
textLength="1450000.000000" font-size="1733333.000000" lengthAdjust="spacingAndGlyphs"
text-anchor="middle" opacity="0">C</text>
<g class="stroked-text"><desc>C</desc>
<path d="M11402380 135464285
L11340476 135526190
L11154761 135588095
L11030952 135588095
L10845238 135526190
L10721428 135402380
L10659523 135278571
L10597619 135030952
L10597619 134845238
L10659523 134597619
L10721428 134473809
L10845238 134350000
L11030952 134288095
L11154761 134288095
L11340476 134350000
L11402380 134411904
" />
</g></g>
<g style="fill:#000000; fill-opacity:0.0; 
stroke:#000000; stroke-width:21200.000000; stroke-opacity:1; 
stroke-linecap:round; stroke-linejoin:round;">
</g>
<g style="fill:#000000; fill-opacity:0.0; 
stroke:#000000; stroke-width:150000.000000; stroke-opacity:1; 
stroke-linecap:round; stroke-linejoin:round;">
<text x="11000000.000000" y="185650000.000000"
textLength="1450000.000000" font-size="1733333.000000" lengthAdjust="spacingAndGlyphs"
text-anchor="middle" opacity="0">D</text>
<g class="stroked-text"><desc>D</desc>
<path d="M10659523 185588095
L10659523 184288095
L10969047 184288095
L11154761 184350000
L11278571 184473809
L11340476 184597619
L11402380 184845238
L11402380 185030952
L11340476 185278571
L11278571 185402380
L11154761 185526190
L10969047 185588095
L10659523 185588095
" />
</g></g>
<g style="fill:#000000; fill-opacity:0.0; 
stroke:#000000; stroke-width:21200.000000; stroke-opacity:1; 
stroke-linecap:round; stroke-linejoin:round;">
</g>
<g style="fill:#000000; fill-opacity:0.0; 
stroke:#000000; stroke-width:150000.000000; stroke-opacity:1; 
stroke-linecap:round; stroke-linejoin:round;">
<path d="M287002200 60000000
L285002200 60000000
" />
</g>
<g style="fill:#000000; fill-opacity:0.0; 
stroke:#000000; stroke-width:21200.000000; stroke-opacity:1; 
stroke-linecap:round; stroke-linejoin:round;">
</g>
<g style="fill:#000000; fill-opacity:0.0; 
stroke:#000000; stroke-width:150000.000000; stroke-opacity:1; 
stroke-linecap:round; stroke-linejoin:round;">
<path d="M287002200 110000000
L285002200 110000000
" />
</g>
<g style="fill:#000000; fill-opacity:0.0; 
stroke:#000000; stroke-width:21200.000000; stroke-opacity:1; 
stroke-linecap:round; stroke-linejoin:round;">
</g>
<g style="fill:#000000; fill-opacity:0.0; 
stroke:#000000; stroke-width:150000.000000; stroke-opacity:1; 
stroke-linecap:round; stroke-linejoin:round;">
<path d="M287002200 160000000
L285002200 160000000
" />
</g>
<g style="fill:#000000; fill-opacity:0.0; 
stroke:#000000; stroke-width:21200.000000; stroke-opacity:1; 
stroke-linecap:round; stroke-linejoin:round;">
</g>
<g style="fill:#000000; fill-opacity:0.0; 
stroke:#000000; stroke-width:150000.000000; stroke-opacity:1; 
stroke-linecap:round; stroke-linejoin:round;">
<text x="286002200.000000" y="35650000.000000"
textLength="1264286.000000" font-size="1733333.000000" lengthAdjust="spacingAndGlyphs"
text-anchor="middle" opacity="0">A</text>
<g class="stroked-text"><desc>A</desc>
<path d="M285692676 35216666
L286311723 35216666
" />
<path d="M285568866 35588095
L286002200 34288095
L286435533 35588095
" />
</g></g>
<g style="fill:#000000; fill-opacity:0.0; 
stroke:#000000; stroke-width:21200.000000; stroke-opacity:1; 
stroke-linecap:round; stroke-linejoin:round;">
</g>
<g style="fill:#000000; fill-opacity:0.0; 
stroke:#000000; stroke-width:150000.000000; stroke-opacity:1; 
stroke-linecap:round; stroke-linejoin:round;">
<text x="286002200.000000" y="85650000.000000"
textLength="1450000.000000" font-size="1733333.000000" lengthAdjust="spacingAndGlyphs"
text-anchor="middle" opacity="0">B</text>
<g class="stroked-text"><desc>B</desc>
<path d="M286095057 84907142
L286280771 84969047
L286342676 85030952
L286404580 85154761
L286404580 85340476
L286342676 85464285
L286280771 85526190
L286156961 85588095
L285661723 85588095
L285661723 84288095
L286095057 84288095
L286218866 84350000
L286280771 84411904
L286342676 84535714
L286342676 84659523
L286280771 84783333
L286218866 84845238
L286095057 84907142
L285661723 84907142
" />
</g></g>
<g style="fill:#000000; fill-opacity:0.0; 
stroke:#000000; stroke-width:21200.000000; stroke-opacity:1; 
stroke-linecap:round; stroke-linejoin:round;">
</g>
<g style="fill:#000000; fill-opacity:0.0; 
stroke:#000000; stroke-width:150000.000000; stroke-opacity:1; 
stroke-linecap:round; stroke-linejoin:round;">
<text x="286002200.000000" y="135650000.000000"
textLength="1450000.000000" font-size="1733333.000000" lengthAdjust="spacingAndGlyphs"
text-anchor="middle" opacity="0">C</text>
<g class="stroked-text"><desc>C</desc>
<path d="M286404580 135464285
L286342676 135526190
L286156961 135588095
L286033152 135588095
L285847438 135526190
L285723628 135402380
L285661723 135278571
L285599819 135030952
L285599819 134845238
L285661723 134597619
L285723628 134473809
L285847438 134350000
L286033152 134288095
L286156961 134288095
L286342676 134350000
L286404580 134411904
" />
</g></g>
<g style="fill:#000000; fill-opacity:0.0; 
stroke:#000000; stroke-width:21200.000000; stroke-opacity:1; 
stroke-linecap:round; stroke-linejoin:round;">
</g>
<g style="fill:#000000; fill-opacity:0.0; 
stroke:#000000; stroke-width:150000.000000; stroke-opacity:1; 
stroke-linecap:round; stroke-linejoin:round;">
<text x="286002200.000000" y="185650000.000000"
textLength="1450000.000000" font-size="1733333.000000" lengthAdjust="spacingAndGlyphs"
text-anchor="middle" opacity="0">D</text>
<g class="stroked-text"><desc>D</desc>
<path d="M285661723 185588095
L285661723 184288095
L285971247 184288095
L286156961 184350000
L286280771 184473809
L286342676 184597619
L286404580 184845238
L286404580 185030952
L286342676 185278571
L286280771 185402380
L286156961 185526190
L285971247 185588095
L285661723 185588095
" />
</g></g>
<g style="fill:#000000; fill-opacity:0.0; 
stroke:#000000; stroke-width:21200.000000; stroke-opacity:1; 
stroke-linecap:round; stroke-linejoin:round;">
</g>
<g style="fill:#000000; fill-opacity:0.0; 
stroke:#000000; stroke-width:150000.000000; stroke-opacity:1; 
stroke-linecap:round; stroke-linejoin:round;">
<text x="200002200.000000" y="193857200.000000"
textLength="7007143.000000" font-size="2000000.000000" lengthAdjust="spacingAndGlyphs"
text-anchor="start" opacity="0">Date: </text>
<g class="stroked-text"><desc>Date: </desc>
<path d="M200434342 193785771
L200434342 192285771
L200791485 192285771
L201005771 192357200
L201148628 192500057
L201220057 192642914
L201291485 192928628
L201291485 193142914
L201220057 193428628
L201148628 193571485
L201005771 193714342
L200791485 193785771
L200434342 193785771
" />
<path d="M202577200 193785771
L202577200 193000057
L202505771 192857200
L202362914 192785771
L202077200 192785771
L201934342 192857200
" />
<path d="M202577200 193714342
L202434342 193785771
L202077200 193785771
L201934342 193714342
L201862914 193571485
L201862914 193428628
L201934342 193285771
L202077200 193214342
L202434342 193214342
L202577200 193142914
" />
<path d="M203077200 192785771
L203648628 192785771
" />
<path d="M203291485 192285771
L203291485 193571485
L203362914 193714342
L203505771 193785771
L203648628 193785771
" />
<path d="M204720057 193714342
L204577200 193785771
L204291485 193785771
L204148628 193714342
L204077200 193571485
L204077200 193000057
L204148628 192857200
L204291485 192785771
L204577200 192785771
L204720057 192857200
L204791485 193000057
L204791485 193142914
L204077200 193285771
" />
<path d="M205434342 193642914
L205505771 193714342
L205434342 193785771
L205362914 193714342
L205434342 193642914
L205434342 193785771
" />
<path d="M205434342 192857200
L205505771 192928628
L205434342 193000057
L205362914 192928628
L205434342 192857200
L205434342 193000057
" />
</g></g>
<g style="fill:#000000; fill-opacity:0.0; 
stroke:#000000; stroke-width:21200.000000; stroke-opacity:1; 
stroke-linecap:round; stroke-linejoin:round;">
</g>
<g style="fill:#000000; fill-opacity:0.0; 
stroke:#000000; stroke-width:150000.000000; stroke-opacity:1; 
stroke-linecap:round; stroke-linejoin:round;">
<path d="M177002200 194507200
L285002200 194507200
" />
</g>
<g style="fill:#000000; fill-opacity:0.0; 
stroke:#000000; stroke-width:21200.000000; stroke-opacity:1; 
stroke-linecap:round; stroke-linejoin:round;">
</g>
<g style="fill:#000000; fill-opacity:0.0; 
stroke:#000000; stroke-width:150000.000000; stroke-opacity:1; 
stroke-linecap:round; stroke-linejoin:round;">
<text x="178002200.000000" y="196657200.000000"
textLength="33364286.000000" font-size="2000000.000000" lengthAdjust="spacingAndGlyphs"
text-anchor="start" opacity="0">KiCad E.D.A.  pcbnew (6.0.9)</text>
<g class="stroked-text"><desc>KiCad E.D.A.  pcbnew (6.0.9)</desc>
<path d="M178434342 196585771
L178434342 195085771
" />
<path d="M179291485 196585771
L178648628 195728628
" />
<path d="M179291485 195085771
L178434342 195942914
" />
<path d="M179934342 196585771
L179934342 195585771
" />
<path d="M179934342 195085771
L179862914 195157200
L179934342 195228628
L180005771 195157200
L179934342 195085771
L179934342 195228628
" />
<path d="M181505771 196442914
L181434342 196514342
L181220057 196585771
L181077200 196585771
L180862914 196514342
L180720057 196371485
L180648628 196228628
L180577200 195942914
L180577200 195728628
L180648628 195442914
L180720057 195300057
L180862914 195157200
L181077200 195085771
L181220057 195085771
L181434342 195157200
L181505771 195228628
" />
<path d="M182791485 196585771
L182791485 195800057
L182720057 195657200
L182577200 195585771
L182291485 195585771
L182148628 195657200
" />
<path d="M182791485 196514342
L182648628 196585771
L182291485 196585771
L182148628 196514342
L182077200 196371485
L182077200 196228628
L182148628 196085771
L182291485 196014342
L182648628 196014342
L182791485 195942914
" />
<path d="M184148628 196585771
L184148628 195085771
" />
<path d="M184148628 196514342
L184005771 196585771
L183720057 196585771
L183577200 196514342
L183505771 196442914
L183434342 196300057
L183434342 195871485
L183505771 195728628
L183577200 195657200
L183720057 195585771
L184005771 195585771
L184148628 195657200
" />
<path d="M186005771 195800057
L186505771 195800057
" />
<path d="M186720057 196585771
L186005771 196585771
L186005771 195085771
L186720057 195085771
" />
<path d="M187362914 196442914
L187434342 196514342
L187362914 196585771
L187291485 196514342
L187362914 196442914
L187362914 196585771
" />
<path d="M188077200 196585771
L188077200 195085771
L188434342 195085771
L188648628 195157200
L188791485 195300057
L188862914 195442914
L188934342 195728628
L188934342 195942914
L188862914 196228628
L188791485 196371485
L188648628 196514342
L188434342 196585771
L188077200 196585771
" />
<path d="M189577200 196442914
L189648628 196514342
L189577200 196585771
L189505771 196514342
L189577200 196442914
L189577200 196585771
" />
<path d="M190220057 196157200
L190934342 196157200
" />
<path d="M190077200 196585771
L190577200 195085771
L191077200 196585771
" />
<path d="M191577200 196442914
L191648628 196514342
L191577200 196585771
L191505771 196514342
L191577200 196442914
L191577200 196585771
" />
<path d="M194577200 195585771
L194577200 197085771
" />
<path d="M194577200 195657200
L194720057 195585771
L195005771 195585771
L195148628 195657200
L195220057 195728628
L195291485 195871485
L195291485 196300057
L195220057 196442914
L195148628 196514342
L195005771 196585771
L194720057 196585771
L194577200 196514342
" />
<path d="M196577200 196514342
L196434342 196585771
L196148628 196585771
L196005771 196514342
L195934342 196442914
L195862914 196300057
L195862914 195871485
L195934342 195728628
L196005771 195657200
L196148628 195585771
L196434342 195585771
L196577200 195657200
" />
<path d="M197220057 196585771
L197220057 195085771
" />
<path d="M197220057 195657200
L197362914 195585771
L197648628 195585771
L197791485 195657200
L197862914 195728628
L197934342 195871485
L197934342 196300057
L197862914 196442914
L197791485 196514342
L197648628 196585771
L197362914 196585771
L197220057 196514342
" />
<path d="M198577200 195585771
L198577200 196585771
" />
<path d="M198577200 195728628
L198648628 195657200
L198791485 195585771
L199005771 195585771
L199148628 195657200
L199220057 195800057
L199220057 196585771
" />
<path d="M200505771 196514342
L200362914 196585771
L200077200 196585771
L199934342 196514342
L199862914 196371485
L199862914 195800057
L199934342 195657200
L200077200 195585771
L200362914 195585771
L200505771 195657200
L200577200 195800057
L200577200 195942914
L199862914 196085771
" />
<path d="M201077200 195585771
L201362914 196585771
L201648628 195871485
L201934342 196585771
L202220057 195585771
" />
<path d="M204362914 197157200
L204291485 197085771
L204148628 196871485
L204077200 196728628
L204005771 196514342
L203934342 196157200
L203934342 195871485
L204005771 195514342
L204077200 195300057
L204148628 195157200
L204291485 194942914
L204362914 194871485
" />
<path d="M205577200 195085771
L205291485 195085771
L205148628 195157200
L205077200 195228628
L204934342 195442914
L204862914 195728628
L204862914 196300057
L204934342 196442914
L205005771 196514342
L205148628 196585771
L205434342 196585771
L205577200 196514342
L205648628 196442914
L205720057 196300057
L205720057 195942914
L205648628 195800057
L205577200 195728628
L205434342 195657200
L205148628 195657200
L205005771 195728628
L204934342 195800057
L204862914 195942914
" />
<path d="M206362914 196442914
L206434342 196514342
L206362914 196585771
L206291485 196514342
L206362914 196442914
L206362914 196585771
" />
<path d="M207362914 195085771
L207505771 195085771
L207648628 195157200
L207720057 195228628
L207791485 195371485
L207862914 195657200
L207862914 196014342
L207791485 196300057
L207720057 196442914
L207648628 196514342
L207505771 196585771
L207362914 196585771
L207220057 196514342
L207148628 196442914
L207077200 196300057
L207005771 196014342
L207005771 195657200
L207077200 195371485
L207148628 195228628
L207220057 195157200
L207362914 195085771
" />
<path d="M208505771 196442914
L208577200 196514342
L208505771 196585771
L208434342 196514342
L208505771 196442914
L208505771 196585771
" />
<path d="M209291485 196585771
L209577200 196585771
L209720057 196514342
L209791485 196442914
L209934342 196228628
L210005771 195942914
L210005771 195371485
L209934342 195228628
L209862914 195157200
L209720057 195085771
L209434342 195085771
L209291485 195157200
L209220057 195228628
L209148628 195371485
L209148628 195728628
L209220057 195871485
L209291485 195942914
L209434342 196014342
L209720057 196014342
L209862914 195942914
L209934342 195871485
L210005771 195728628
" />
<path d="M210505771 197157200
L210577200 197085771
L210720057 196871485
L210791485 196728628
L210862914 196514342
L210934342 196157200
L210934342 195871485
L210862914 195514342
L210791485 195300057
L210720057 195157200
L210577200 194942914
L210505771 194871485
" />
</g></g>
<g style="fill:#000000; fill-opacity:0.0; 
stroke:#000000; stroke-width:21200.000000; stroke-opacity:1; 
stroke-linecap:round; stroke-linejoin:round;">
</g>
<g style="fill:#000000; fill-opacity:0.0; 
stroke:#000000; stroke-width:150000.000000; stroke-opacity:1; 
stroke-linecap:round; stroke-linejoin:round;">
<path d="M177002200 191507200
L285002200 191507200
" />
</g>
<g style="fill:#000000; fill-opacity:0.0; 
stroke:#000000; stroke-width:21200.000000; stroke-opacity:1; 
stroke-linecap:round; stroke-linejoin:round;">
</g>
<g style="fill:#000000; fill-opacity:0.0; 
stroke:#000000; stroke-width:300000.000000; stroke-opacity:1; 
stroke-linecap:round; stroke-linejoin:round;">
<text x="263002200.000000" y="193857200.000000"
textLength="5935714.000000" font-size="2000000.000000" lengthAdjust="spacingAndGlyphs"
text-anchor="start" opacity="0">Rev: </text>
<g class="stroked-text"><desc>Rev: </desc>
<path d="M264411485 193785771
L263911485 193071485
" />
<path d="M263554342 193785771
L263554342 192285771
L264125771 192285771
L264268628 192357200
L264340057 192428628
L264411485 192571485
L264411485 192785771
L264340057 192928628
L264268628 193000057
L264125771 193071485
L263554342 193071485
" />
<path d="M265625771 193714342
L265482914 193785771
L265197200 193785771
L265054342 193714342
L264982914 193571485
L264982914 193000057
L265054342 192857200
L265197200 192785771
L265482914 192785771
L265625771 192857200
L265697200 193000057
L265697200 193142914
L264982914 193285771
" />
<path d="M266197200 192785771
L266554342 193785771
L266911485 192785771
" />
<path d="M267482914 193642914
L267554342 193714342
L267482914 193785771
L267411485 193714342
L267482914 193642914
L267482914 193785771
" />
<path d="M267482914 192857200
L267554342 192928628
L267482914 193000057
L267411485 192928628
L267482914 192857200
L267482914 193000057
" />
</g></g>
<g style="fill:#000000; fill-opacity:0.0; 
stroke:#000000; stroke-width:21200.000000; stroke-opacity:1; 
stroke-linecap:round; stroke-linejoin:round;">
</g>
<g style="fill:#000000; fill-opacity:0.0; 
stroke:#000000; stroke-width:150000.000000; stroke-opacity:1; 
stroke-linecap:round; stroke-linejoin:round;">
<text x="178002200.000000" y="193857200.000000"
textLength="9604286.000000" font-size="2000000.000000" lengthAdjust="spacingAndGlyphs"
text-anchor="start" opacity="0">Size: A4</text>
<g class="stroked-text"><desc>Size: A4</desc>
<path d="M178362914 193714342
L178577200 193785771
L178934342 193785771
L179077200 193714342
L179148628 193642914
L179220057 193500057
L179220057 193357200
L179148628 193214342
L179077200 193142914
L178934342 193071485
L178648628 193000057
L178505771 192928628
L178434342 192857200
L178362914 192714342
L178362914 192571485
L178434342 192428628
L178505771 192357200
L178648628 192285771
L179005771 192285771
L179220057 192357200
" />
<path d="M179862914 193785771
L179862914 192785771
" />
<path d="M179862914 192285771
L179791485 192357200
L179862914 192428628
L179934342 192357200
L179862914 192285771
L179862914 192428628
" />
<path d="M180434342 192785771
L181220057 192785771
L180434342 193785771
L181220057 193785771
" />
<path d="M182362914 193714342
L182220057 193785771
L181934342 193785771
L181791485 193714342
L181720057 193571485
L181720057 193000057
L181791485 192857200
L181934342 192785771
L182220057 192785771
L182362914 192857200
L182434342 193000057
L182434342 193142914
L181720057 193285771
" />
<path d="M183077200 193642914
L183148628 193714342
L183077200 193785771
L183005771 193714342
L183077200 193642914
L183077200 193785771
" />
<path d="M183077200 192857200
L183148628 192928628
L183077200 193000057
L183005771 192928628
L183077200 192857200
L183077200 193000057
" />
<path d="M184862914 193357200
L185577200 193357200
" />
<path d="M184720057 193785771
L185220057 192285771
L185720057 193785771
" />
<path d="M186862914 192785771
L186862914 193785771
" />
<path d="M186505771 192214342
L186148628 193285771
L187077200 193285771
" />
</g></g>
<g style="fill:#000000; fill-opacity:0.0; 
stroke:#000000; stroke-width:21200.000000; stroke-opacity:1; 
stroke-linecap:round; stroke-linejoin:round;">
</g>
<g style="fill:#000000; fill-opacity:0.0; 
stroke:#000000; stroke-width:150000.000000; stroke-opacity:1; 
stroke-linecap:round; stroke-linejoin:round;">
<text x="263002200.000000" y="196657200.000000"
textLength="8507143.000000" font-size="2000000.000000" lengthAdjust="spacingAndGlyphs"
text-anchor="start" opacity="0">Id: 1/1</text>
<g class="stroked-text"><desc>Id: 1/1</desc>
<path d="M263434342 196585771
L263434342 195085771
" />
<path d="M264791485 196585771
L264791485 195085771
" />
<path d="M264791485 196514342
L264648628 196585771
L264362914 196585771
L264220057 196514342
L264148628 196442914
L264077200 196300057
L264077200 195871485
L264148628 195728628
L264220057 195657200
L264362914 195585771
L264648628 195585771
L264791485 195657200
" />
<path d="M265505771 196442914
L265577200 196514342
L265505771 196585771
L265434342 196514342
L265505771 196442914
L265505771 196585771
" />
<path d="M265505771 195657200
L265577200 195728628
L265505771 195800057
L265434342 195728628
L265505771 195657200
L265505771 195800057
" />
<path d="M268148628 196585771
L267291485 196585771
" />
<path d="M267720057 196585771
L267720057 195085771
L267577200 195300057
L267434342 195442914
L267291485 195514342
" />
<path d="M269862914 195014342
L268577200 196942914
" />
<path d="M271148628 196585771
L270291485 196585771
" />
<path d="M270720057 196585771
L270720057 195085771
L270577200 195300057
L270434342 195442914
L270291485 195514342
" />
</g></g>
<g style="fill:#000000; fill-opacity:0.0; 
stroke:#000000; stroke-width:21200.000000; stroke-opacity:1; 
stroke-linecap:round; stroke-linejoin:round;">
</g>
<g style="fill:#000000; fill-opacity:0.0; 
stroke:#000000; stroke-width:150000.000000; stroke-opacity:1; 
stroke-linecap:round; stroke-linejoin:round;">
<path d="M177002200 187507200
L285002200 187507200
" />
</g>
<g style="fill:#000000; fill-opacity:0.0; 
stroke:#000000; stroke-width:21200.000000; stroke-opacity:1; 
stroke-linecap:round; stroke-linejoin:round;">
</g>
<g style="fill:#000000; fill-opacity:0.0; 
stroke:#000000; stroke-width:400000.000000; stroke-opacity:1; 
stroke-linecap:round; stroke-linejoin:round;">
<text x="178002200.000000" y="190307200.000000"
textLength="9409643.000000" font-size="2666666.000000" lengthAdjust="spacingAndGlyphs"
text-anchor="start" opacity="0">Title: </text>
<g class="stroked-text"><desc>Title: </desc>
<path d="M178714580 188211961
L179857438 188211961
" />
<path d="M179036009 190211961
L179286009 188211961
" />
<path d="M180274104 190211961
L180440771 188878628
" />
<path d="M180524104 188211961
L180416961 188307200
L180500295 188402438
L180607438 188307200
L180524104 188211961
L180500295 188402438
" />
<path d="M181107438 188878628
L181869342 188878628
" />
<path d="M181476485 188211961
L181262200 189926247
L181333628 190116723
L181512200 190211961
L181702676 190211961
" />
<path d="M182655057 190211961
L182476485 190116723
L182405057 189926247
L182619342 188211961
" />
<path d="M184190771 190116723
L183988390 190211961
L183607438 190211961
L183428866 190116723
L183357438 189926247
L183452676 189164342
L183571723 188973866
L183774104 188878628
L184155057 188878628
L184333628 188973866
L184405057 189164342
L184381247 189354819
L183405057 189545295
" />
<path d="M185155057 190021485
L185238390 190116723
L185131247 190211961
L185047914 190116723
L185155057 190021485
L185131247 190211961
" />
<path d="M185286009 188973866
L185369342 189069104
L185262200 189164342
L185178866 189069104
L185286009 188973866
L185262200 189164342
" />
</g></g>
<g style="fill:#000000; fill-opacity:0.0; 
stroke:#000000; stroke-width:21200.000000; stroke-opacity:1; 
stroke-linecap:round; stroke-linejoin:round;">
</g>
<g style="fill:#000000; fill-opacity:0.0; 
stroke:#000000; stroke-width:150000.000000; stroke-opacity:1; 
stroke-linecap:round; stroke-linejoin:round;">
<text x="178002200.000000" y="186457200.000000"
textLength="30662857.000000" font-size="2000000.000000" lengthAdjust="spacingAndGlyphs"
text-anchor="start" opacity="0">File: kicadBoard.kicad_pcb</text>
<g class="stroked-text"><desc>File: kicadBoard.kicad_pcb</desc>
<path d="M178934342 185600057
L178434342 185600057
" />
<path d="M178434342 186385771
L178434342 184885771
L179148628 184885771
" />
<path d="M179720057 186385771
L179720057 185385771
" />
<path d="M179720057 184885771
L179648628 184957200
L179720057 185028628
L179791485 184957200
L179720057 184885771
L179720057 185028628
" />
<path d="M180648628 186385771
L180505771 186314342
L180434342 186171485
L180434342 184885771
" />
<path d="M181791485 186314342
L181648628 186385771
L181362914 186385771
L181220057 186314342
L181148628 186171485
L181148628 185600057
L181220057 185457200
L181362914 185385771
L181648628 185385771
L181791485 185457200
L181862914 185600057
L181862914 185742914
L181148628 185885771
" />
<path d="M182505771 186242914
L182577200 186314342
L182505771 186385771
L182434342 186314342
L182505771 186242914
L182505771 186385771
" />
<path d="M182505771 185457200
L182577200 185528628
L182505771 185600057
L182434342 185528628
L182505771 185457200
L182505771 185600057
" />
<path d="M184362914 186385771
L184362914 184885771
" />
<path d="M184505771 185814342
L184934342 186385771
" />
<path d="M184934342 185385771
L184362914 185957200
" />
<path d="M185577200 186385771
L185577200 185385771
" />
<path d="M185577200 184885771
L185505771 184957200
L185577200 185028628
L185648628 184957200
L185577200 184885771
L185577200 185028628
" />
<path d="M186934342 186314342
L186791485 186385771
L186505771 186385771
L186362914 186314342
L186291485 186242914
L186220057 186100057
L186220057 185671485
L186291485 185528628
L186362914 185457200
L186505771 185385771
L186791485 185385771
L186934342 185457200
" />
<path d="M188220057 186385771
L188220057 185600057
L188148628 185457200
L188005771 185385771
L187720057 185385771
L187577200 185457200
" />
<path d="M188220057 186314342
L188077200 186385771
L187720057 186385771
L187577200 186314342
L187505771 186171485
L187505771 186028628
L187577200 185885771
L187720057 185814342
L188077200 185814342
L188220057 185742914
" />
<path d="M189577200 186385771
L189577200 184885771
" />
<path d="M189577200 186314342
L189434342 186385771
L189148628 186385771
L189005771 186314342
L188934342 186242914
L188862914 186100057
L188862914 185671485
L188934342 185528628
L189005771 185457200
L189148628 185385771
L189434342 185385771
L189577200 185457200
" />
<path d="M190791485 185600057
L191005771 185671485
L191077200 185742914
L191148628 185885771
L191148628 186100057
L191077200 186242914
L191005771 186314342
L190862914 186385771
L190291485 186385771
L190291485 184885771
L190791485 184885771
L190934342 184957200
L191005771 185028628
L191077200 185171485
L191077200 185314342
L191005771 185457200
L190934342 185528628
L190791485 185600057
L190291485 185600057
" />
<path d="M192005771 186385771
L191862914 186314342
L191791485 186242914
L191720057 186100057
L191720057 185671485
L191791485 185528628
L191862914 185457200
L192005771 185385771
L192220057 185385771
L192362914 185457200
L192434342 185528628
L192505771 185671485
L192505771 186100057
L192434342 186242914
L192362914 186314342
L192220057 186385771
L192005771 186385771
" />
<path d="M193791485 186385771
L193791485 185600057
L193720057 185457200
L193577200 185385771
L193291485 185385771
L193148628 185457200
" />
<path d="M193791485 186314342
L193648628 186385771
L193291485 186385771
L193148628 186314342
L193077200 186171485
L193077200 186028628
L193148628 185885771
L193291485 185814342
L193648628 185814342
L193791485 185742914
" />
<path d="M194505771 186385771
L194505771 185385771
" />
<path d="M194505771 185671485
L194577200 185528628
L194648628 185457200
L194791485 185385771
L194934342 185385771
" />
<path d="M196077200 186385771
L196077200 184885771
" />
<path d="M196077200 186314342
L195934342 186385771
L195648628 186385771
L195505771 186314342
L195434342 186242914
L195362914 186100057
L195362914 185671485
L195434342 185528628
L195505771 185457200
L195648628 185385771
L195934342 185385771
L196077200 185457200
" />
<path d="M196791485 186242914
L196862914 186314342
L196791485 186385771
L196720057 186314342
L196791485 186242914
L196791485 186385771
" />
<path d="M197505771 186385771
L197505771 184885771
" />
<path d="M197648628 185814342
L198077200 186385771
" />
<path d="M198077200 185385771
L197505771 185957200
" />
<path d="M198720057 186385771
L198720057 185385771
" />
<path d="M198720057 184885771
L198648628 184957200
L198720057 185028628
L198791485 184957200
L198720057 184885771
L198720057 185028628
" />
<path d="M200077200 186314342
L199934342 186385771
L199648628 186385771
L199505771 186314342
L199434342 186242914
L199362914 186100057
L199362914 185671485
L199434342 185528628
L199505771 185457200
L199648628 185385771
L199934342 185385771
L200077200 185457200
" />
<path d="M201362914 186385771
L201362914 185600057
L201291485 185457200
L201148628 185385771
L200862914 185385771
L200720057 185457200
" />
<path d="M201362914 186314342
L201220057 186385771
L200862914 186385771
L200720057 186314342
L200648628 186171485
L200648628 186028628
L200720057 185885771
L200862914 185814342
L201220057 185814342
L201362914 185742914
" />
<path d="M202720057 186385771
L202720057 184885771
" />
<path d="M202720057 186314342
L202577200 186385771
L202291485 186385771
L202148628 186314342
L202077200 186242914
L202005771 186100057
L202005771 185671485
L202077200 185528628
L202148628 185457200
L202291485 185385771
L202577200 185385771
L202720057 185457200
" />
<path d="M203077200 186528628
L204220057 186528628
" />
<path d="M204577200 185385771
L204577200 186885771
" />
<path d="M204577200 185457200
L204720057 185385771
L205005771 185385771
L205148628 185457200
L205220057 185528628
L205291485 185671485
L205291485 186100057
L205220057 186242914
L205148628 186314342
L205005771 186385771
L204720057 186385771
L204577200 186314342
" />
<path d="M206577200 186314342
L206434342 186385771
L206148628 186385771
L206005771 186314342
L205934342 186242914
L205862914 186100057
L205862914 185671485
L205934342 185528628
L206005771 185457200
L206148628 185385771
L206434342 185385771
L206577200 185457200
" />
<path d="M207220057 186385771
L207220057 184885771
" />
<path d="M207220057 185457200
L207362914 185385771
L207648628 185385771
L207791485 185457200
L207862914 185528628
L207934342 185671485
L207934342 186100057
L207862914 186242914
L207791485 186314342
L207648628 186385771
L207362914 186385771
L207220057 186314342
" />
</g></g>
<g style="fill:#000000; fill-opacity:0.0; 
stroke:#000000; stroke-width:21200.000000; stroke-opacity:1; 
stroke-linecap:round; stroke-linejoin:round;">
</g>
<g style="fill:#000000; fill-opacity:0.0; 
stroke:#000000; stroke-width:150000.000000; stroke-opacity:1; 
stroke-linecap:round; stroke-linejoin:round;">
<path d="M177002200 181507200
L285002200 181507200
" />
</g>
<g style="fill:#000000; fill-opacity:0.0; 
stroke:#000000; stroke-width:21200.000000; stroke-opacity:1; 
stroke-linecap:round; stroke-linejoin:round;">
</g>
<g style="fill:#000000; fill-opacity:0.0; 
stroke:#000000; stroke-width:150000.000000; stroke-opacity:1; 
stroke-linecap:round; stroke-linejoin:round;">
<text x="178002200.000000" y="183757200.000000"
textLength="8221429.000000" font-size="2000000.000000" lengthAdjust="spacingAndGlyphs"
text-anchor="start" opacity="0">Sheet: </text>
<g class="stroked-text"><desc>Sheet: </desc>
<path d="M178362914 183614342
L178577200 183685771
L178934342 183685771
L179077200 183614342
L179148628 183542914
L179220057 183400057
L179220057 183257200
L179148628 183114342
L179077200 183042914
L178934342 182971485
L178648628 182900057
L178505771 182828628
L178434342 182757200
L178362914 182614342
L178362914 182471485
L178434342 182328628
L178505771 182257200
L178648628 182185771
L179005771 182185771
L179220057 182257200
" />
<path d="M179862914 183685771
L179862914 182185771
" />
<path d="M180505771 183685771
L180505771 182900057
L180434342 182757200
L180291485 182685771
L180077200 182685771
L179934342 182757200
L179862914 182828628
" />
<path d="M181791485 183614342
L181648628 183685771
L181362914 183685771
L181220057 183614342
L181148628 183471485
L181148628 182900057
L181220057 182757200
L181362914 182685771
L181648628 182685771
L181791485 182757200
L181862914 182900057
L181862914 183042914
L181148628 183185771
" />
<path d="M183077200 183614342
L182934342 183685771
L182648628 183685771
L182505771 183614342
L182434342 183471485
L182434342 182900057
L182505771 182757200
L182648628 182685771
L182934342 182685771
L183077200 182757200
L183148628 182900057
L183148628 183042914
L182434342 183185771
" />
<path d="M183577200 182685771
L184148628 182685771
" />
<path d="M183791485 182185771
L183791485 183471485
L183862914 183614342
L184005771 183685771
L184148628 183685771
" />
<path d="M184648628 183542914
L184720057 183614342
L184648628 183685771
L184577200 183614342
L184648628 183542914
L184648628 183685771
" />
<path d="M184648628 182757200
L184720057 182828628
L184648628 182900057
L184577200 182828628
L184648628 182757200
L184648628 182900057
" />
</g></g>
<g style="fill:#000000; fill-opacity:0.0; 
stroke:#000000; stroke-width:21200.000000; stroke-opacity:1; 
stroke-linecap:round; stroke-linejoin:round;">
</g>
<g style="fill:#000000; fill-opacity:0.0; 
stroke:#000000; stroke-width:300000.000000; stroke-opacity:1; 
stroke-linecap:round; stroke-linejoin:round;">
<text x="178002200.000000" y="180757200.000000"
textLength="150000.000000" font-size="2000000.000000" lengthAdjust="spacingAndGlyphs"
text-anchor="start" opacity="0"></text>
<g class="stroked-text"><desc></desc>
</g></g>
<g style="fill:#000000; fill-opacity:0.0; 
stroke:#000000; stroke-width:21200.000000; stroke-opacity:1; 
stroke-linecap:round; stroke-linejoin:round;">
</g>
<g style="fill:#000000; fill-opacity:0.0; 
stroke:#000000; stroke-width:150000.000000; stroke-opacity:1; 
stroke-linecap:round; stroke-linejoin:round;">
<text x="178002200.000000" y="177757200.000000"
textLength="300000.000000" font-size="2000000.000000" lengthAdjust="spacingAndGlyphs"
text-anchor="start" opacity="0"></text>
<g class="stroked-text"><desc></desc>
</g></g>
<g style="fill:#000000; fill-opacity:0.0; 
stroke:#000000; stroke-width:21200.000000; stroke-opacity:1; 
stroke-linecap:round; stroke-linejoin:round;">
</g>
<g style="fill:#000000; fill-opacity:0.0; 
stroke:#000000; stroke-width:150000.000000; stroke-opacity:1; 
stroke-linecap:round; stroke-linejoin:round;">
<text x="178002200.000000" y="174757200.000000"
textLength="150000.000000" font-size="2000000.000000" lengthAdjust="spacingAndGlyphs"
text-anchor="start" opacity="0"></text>
<g class="stroked-text"><desc></desc>
</g></g>
<g style="fill:#000000; fill-opacity:0.0; 
stroke:#000000; stroke-width:21200.000000; stroke-opacity:1; 
stroke-linecap:round; stroke-linejoin:round;">
</g>
<g style="fill:#000000; fill-opacity:0.0; 
stroke:#000000; stroke-width:150000.000000; stroke-opacity:1; 
stroke-linecap:round; stroke-linejoin:round;">
<text x="178002200.000000" y="171757200.000000"
textLength="150000.000000" font-size="2000000.000000" lengthAdjust="spacingAndGlyphs"
text-anchor="start" opacity="0"></text>
<g class="stroked-text"><desc></desc>
</g></g>
<g style="fill:#000000; fill-opacity:0.0; 
stroke:#000000; stroke-width:21200.000000; stroke-opacity:1; 
stroke-linecap:round; stroke-linejoin:round;">
</g>
<g style="fill:#000000; fill-opacity:0.0; 
stroke:#000000; stroke-width:150000.000000; stroke-opacity:1; 
stroke-linecap:round; stroke-linejoin:round;">
<text x="178002200.000000" y="168757200.000000"
textLength="150000.000000" font-size="2000000.000000" lengthAdjust="spacingAndGlyphs"
text-anchor="start" opacity="0"></text>
<g class="stroked-text"><desc></desc>
</g></g>
<g style="fill:#000000; fill-opacity:0.0; 
stroke:#000000; stroke-width:21200.000000; stroke-opacity:1; 
stroke-linecap:round; stroke-linejoin:round;">
</g>
<g style="fill:#000000; fill-opacity:0.0; 
stroke:#000000; stroke-width:150000.000000; stroke-opacity:1; 
stroke-linecap:round; stroke-linejoin:round;">
<path d="M197002200 191507200
L197002200 194507200
" />
</g>
<g style="fill:#000000; fill-opacity:0.0; 
stroke:#000000; stroke-width:21200.000000; stroke-opacity:1; 
stroke-linecap:round; stroke-linejoin:round;">
</g>
<g style="fill:#000000; fill-opacity:0.0; 
stroke:#000000; stroke-width:150000.000000; stroke-opacity:1; 
stroke-linecap:round; stroke-linejoin:round;">
<path d="M261002200 191507200
L261002200 198007200
" />
</g>
<g style="fill:#AFAFAF; fill-opacity:0.0; 
stroke:#AFAFAF; stroke-width:150000.000000; stroke-opacity:1; 
stroke-linecap:round; stroke-linejoin:round;">
</g>
<g style="fill:#AFAFAF; fill-opacity:0.0; 
stroke:#AFAFAF; stroke-width:266700.000000; stroke-opacity:1; 
stroke-linecap:round; stroke-linejoin:round;">
<text x="153581100.000000" y="136753600.000000"
textLength="12312367.000000" font-size="2015066.000000" lengthAdjust="spacingAndGlyphs"
text-anchor="start" opacity="0">Bryan Hoff</text>
<g class="stroked-text"><desc>Bryan Hoff</desc>
<path d="M154618055 135890000
L154833955 135961966
L154905921 136033933
L154977888 136177866
L154977888 136393766
L154905921 136537700
L154833955 136609666
L154690021 136681633
L154114288 136681633
L154114288 135170333
L154618055 135170333
L154761988 135242300
L154833955 135314266
L154905921 135458200
L154905921 135602133
L154833955 135746066
L154761988 135818033
L154618055 135890000
L154114288 135890000
" />
<path d="M155625588 136681633
L155625588 135674100
" />
<path d="M155625588 135961966
L155697555 135818033
L155769521 135746066
L155913455 135674100
L156057388 135674100
" />
<path d="M156417221 135674100
L156777055 136681633
" />
<path d="M157136888 135674100
L156777055 136681633
L156633121 137041466
L156561155 137113433
L156417221 137185400
" />
<path d="M158360321 136681633
L158360321 135890000
L158288355 135746066
L158144421 135674100
L157856555 135674100
L157712621 135746066
" />
<path d="M158360321 136609666
L158216388 136681633
L157856555 136681633
L157712621 136609666
L157640655 136465733
L157640655 136321800
L157712621 136177866
L157856555 136105900
L158216388 136105900
L158360321 136033933
" />
<path d="M159079988 135674100
L159079988 136681633
" />
<path d="M159079988 135818033
L159151955 135746066
L159295888 135674100
L159511788 135674100
L159655721 135746066
L159727688 135890000
L159727688 136681633
" />
<path d="M161598821 136681633
L161598821 135170333
" />
<path d="M161598821 135890000
L162462421 135890000
" />
<path d="M162462421 136681633
L162462421 135170333
" />
<path d="M163397988 136681633
L163254055 136609666
L163182088 136537700
L163110121 136393766
L163110121 135961966
L163182088 135818033
L163254055 135746066
L163397988 135674100
L163613888 135674100
L163757821 135746066
L163829788 135818033
L163901755 135961966
L163901755 136393766
L163829788 136537700
L163757821 136609666
L163613888 136681633
L163397988 136681633
" />
<path d="M164333555 135674100
L164909288 135674100
" />
<path d="M164549455 136681633
L164549455 135386233
L164621421 135242300
L164765355 135170333
L164909288 135170333
" />
<path d="M165197155 135674100
L165772888 135674100
" />
<path d="M165413055 136681633
L165413055 135386233
L165485021 135242300
L165628955 135170333
L165772888 135170333
" />
</g></g>
<g style="fill:#AFAFAF; fill-opacity:0.0; 
stroke:#AFAFAF; stroke-width:97536.000000; stroke-opacity:1; 
stroke-linecap:round; stroke-linejoin:round;">
<g transform="rotate(-90.000000 159423100.000000 106654600.000000)">
<text x="159423100.000000" y="106910632.000000"
textLength="346710.000000" font-size="682752.000000" lengthAdjust="spacingAndGlyphs"
text-anchor="start" opacity="0"></text>
</g>
<g class="stroked-text"><desc></desc>
</g><text x="138976100.000000" y="114022632.000000"
textLength="999744.000000" font-size="682752.000000" lengthAdjust="spacingAndGlyphs"
text-anchor="start" opacity="0">1k</text>
<g class="stroked-text"><desc>1k</desc>
<path d="M139429642 113998248
L139137034 113998248
" />
<path d="M139283338 113998248
L139283338 113486184
L139234570 113559336
L139185802 113608104
L139137034 113632488
" />
<path d="M139649098 113998248
L139649098 113486184
" />
<path d="M139697866 113803176
L139844170 113998248
" />
<path d="M139844170 113656872
L139649098 113851944
" />
</g></g>
<g style="fill:#AFAFAF; fill-opacity:0.0; 
stroke:#AFAFAF; stroke-width:142240.000000; stroke-opacity:1; 
stroke-linecap:round; stroke-linejoin:round;">
<text x="102781100.000000" y="131673600.000000"
textLength="103257570.000000" font-size="2181013.000000" lengthAdjust="spacingAndGlyphs"
text-anchor="start" opacity="0">RELEASED UNDER THE CREATIVE COMMONS ATTRIBUTION SHARE-ALIKE 4.0 LICENSE</text>
<g class="stroked-text"><desc>RELEASED UNDER THE CREATIVE COMMONS ATTRIBUTION SHARE-ALIKE 4.0 LICENSE</desc>
<path d="M104197742 131595706
L103652489 130816773
" />
<path d="M103263022 131595706
L103263022 129959946
L103886169 129959946
L104041956 130037840
L104119849 130115733
L104197742 130271520
L104197742 130505200
L104119849 130660986
L104041956 130738880
L103886169 130816773
L103263022 130816773
" />
<path d="M104898782 130738880
L105444036 130738880
" />
<path d="M105677716 131595706
L104898782 131595706
L104898782 129959946
L105677716 129959946
" />
<path d="M107157689 131595706
L106378756 131595706
L106378756 129959946
" />
<path d="M107702942 130738880
L108248196 130738880
" />
<path d="M108481876 131595706
L107702942 131595706
L107702942 129959946
L108481876 129959946
" />
<path d="M109105022 131128346
L109883956 131128346
" />
<path d="M108949236 131595706
L109494489 129959946
L110039742 131595706
" />
<path d="M110507102 131517813
L110740782 131595706
L111130249 131595706
L111286036 131517813
L111363929 131439920
L111441822 131284133
L111441822 131128346
L111363929 130972560
L111286036 130894666
L111130249 130816773
L110818676 130738880
L110662889 130660986
L110584996 130583093
L110507102 130427306
L110507102 130271520
L110584996 130115733
L110662889 130037840
L110818676 129959946
L111208142 129959946
L111441822 130037840
" />
<path d="M112142862 130738880
L112688116 130738880
" />
<path d="M112921796 131595706
L112142862 131595706
L112142862 129959946
L112921796 129959946
" />
<path d="M113622836 131595706
L113622836 129959946
L114012302 129959946
L114245982 130037840
L114401769 130193626
L114479662 130349413
L114557556 130660986
L114557556 130894666
L114479662 131206240
L114401769 131362026
L114245982 131517813
L114012302 131595706
L113622836 131595706
" />
<path d="M116504889 129959946
L116504889 131284133
L116582782 131439920
L116660676 131517813
L116816462 131595706
L117128036 131595706
L117283822 131517813
L117361716 131439920
L117439609 131284133
L117439609 129959946
" />
<path d="M118218542 131595706
L118218542 129959946
L119153262 131595706
L119153262 129959946
" />
<path d="M119932196 131595706
L119932196 129959946
L120321662 129959946
L120555342 130037840
L120711129 130193626
L120789022 130349413
L120866916 130660986
L120866916 130894666
L120789022 131206240
L120711129 131362026
L120555342 131517813
L120321662 131595706
L119932196 131595706
" />
<path d="M121567956 130738880
L122113209 130738880
" />
<path d="M122346889 131595706
L121567956 131595706
L121567956 129959946
L122346889 129959946
" />
<path d="M123982649 131595706
L123437396 130816773
" />
<path d="M123047929 131595706
L123047929 129959946
L123671076 129959946
L123826862 130037840
L123904756 130115733
L123982649 130271520
L123982649 130505200
L123904756 130660986
L123826862 130738880
L123671076 130816773
L123047929 130816773
" />
<path d="M125696302 129959946
L126631022 129959946
" />
<path d="M126163662 131595706
L126163662 129959946
" />
<path d="M127176276 131595706
L127176276 129959946
" />
<path d="M127176276 130738880
L128110996 130738880
" />
<path d="M128110996 131595706
L128110996 129959946
" />
<path d="M128889929 130738880
L129435182 130738880
" />
<path d="M129668862 131595706
L128889929 131595706
L128889929 129959946
L129668862 129959946
" />
<path d="M132550916 131439920
L132473022 131517813
L132239342 131595706
L132083556 131595706
L131849876 131517813
L131694089 131362026
L131616196 131206240
L131538302 130894666
L131538302 130660986
L131616196 130349413
L131694089 130193626
L131849876 130037840
L132083556 129959946
L132239342 129959946
L132473022 130037840
L132550916 130115733
" />
<path d="M134186676 131595706
L133641422 130816773
" />
<path d="M133251956 131595706
L133251956 129959946
L133875102 129959946
L134030889 130037840
L134108782 130115733
L134186676 130271520
L134186676 130505200
L134108782 130660986
L134030889 130738880
L133875102 130816773
L133251956 130816773
" />
<path d="M134887716 130738880
L135432969 130738880
" />
<path d="M135666649 131595706
L134887716 131595706
L134887716 129959946
L135666649 129959946
" />
<path d="M136289796 131128346
L137068729 131128346
" />
<path d="M136134009 131595706
L136679262 129959946
L137224516 131595706
" />
<path d="M137536089 129959946
L138470809 129959946
" />
<path d="M138003449 131595706
L138003449 129959946
" />
<path d="M139016062 131595706
L139016062 129959946
" />
<path d="M139561316 129959946
L140106569 131595706
L140651822 129959946
" />
<path d="M141197076 130738880
L141742329 130738880
" />
<path d="M141976009 131595706
L141197076 131595706
L141197076 129959946
L141976009 129959946
" />
<path d="M144858062 131439920
L144780169 131517813
L144546489 131595706
L144390702 131595706
L144157022 131517813
L144001236 131362026
L143923342 131206240
L143845449 130894666
L143845449 130660986
L143923342 130349413
L144001236 130193626
L144157022 130037840
L144390702 129959946
L144546489 129959946
L144780169 130037840
L144858062 130115733
" />
<path d="M145870676 129959946
L146182249 129959946
L146338036 130037840
L146493822 130193626
L146571716 130505200
L146571716 131050453
L146493822 131362026
L146338036 131517813
L146182249 131595706
L145870676 131595706
L145714889 131517813
L145559102 131362026
L145481209 131050453
L145481209 130505200
L145559102 130193626
L145714889 130037840
L145870676 129959946
" />
<path d="M147272756 131595706
L147272756 129959946
L147818009 131128346
L148363262 129959946
L148363262 131595706
" />
<path d="M149142196 131595706
L149142196 129959946
L149687449 131128346
L150232702 129959946
L150232702 131595706
" />
<path d="M151323209 129959946
L151634782 129959946
L151790569 130037840
L151946356 130193626
L152024249 130505200
L152024249 131050453
L151946356 131362026
L151790569 131517813
L151634782 131595706
L151323209 131595706
L151167422 131517813
L151011636 131362026
L150933742 131050453
L150933742 130505200
L151011636 130193626
L151167422 130037840
L151323209 129959946
" />
<path d="M152725289 131595706
L152725289 129959946
L153660009 131595706
L153660009 129959946
" />
<path d="M154361049 131517813
L154594729 131595706
L154984196 131595706
L155139982 131517813
L155217876 131439920
L155295769 131284133
L155295769 131128346
L155217876 130972560
L155139982 130894666
L154984196 130816773
L154672622 130738880
L154516836 130660986
L154438942 130583093
L154361049 130427306
L154361049 130271520
L154438942 130115733
L154516836 130037840
L154672622 129959946
L155062089 129959946
L155295769 130037840
" />
<path d="M157165209 131128346
L157944142 131128346
" />
<path d="M157009422 131595706
L157554676 129959946
L158099929 131595706
" />
<path d="M158411502 129959946
L159346222 129959946
" />
<path d="M158878862 131595706
L158878862 129959946
" />
<path d="M159657796 129959946
L160592516 129959946
" />
<path d="M160125156 131595706
L160125156 129959946
" />
<path d="M162072489 131595706
L161527236 130816773
" />
<path d="M161137769 131595706
L161137769 129959946
L161760916 129959946
L161916702 130037840
L161994596 130115733
L162072489 130271520
L162072489 130505200
L161994596 130660986
L161916702 130738880
L161760916 130816773
L161137769 130816773
" />
<path d="M162773529 131595706
L162773529 129959946
" />
<path d="M164097716 130738880
L164331396 130816773
L164409289 130894666
L164487182 131050453
L164487182 131284133
L164409289 131439920
L164331396 131517813
L164175609 131595706
L163552462 131595706
L163552462 129959946
L164097716 129959946
L164253502 130037840
L164331396 130115733
L164409289 130271520
L164409289 130427306
L164331396 130583093
L164253502 130660986
L164097716 130738880
L163552462 130738880
" />
<path d="M165188222 129959946
L165188222 131284133
L165266116 131439920
L165344009 131517813
L165499796 131595706
L165811369 131595706
L165967156 131517813
L166045049 131439920
L166122942 131284133
L166122942 129959946
" />
<path d="M166668196 129959946
L167602916 129959946
" />
<path d="M167135556 131595706
L167135556 129959946
" />
<path d="M168148169 131595706
L168148169 129959946
" />
<path d="M169238676 129959946
L169550249 129959946
L169706036 130037840
L169861822 130193626
L169939716 130505200
L169939716 131050453
L169861822 131362026
L169706036 131517813
L169550249 131595706
L169238676 131595706
L169082889 131517813
L168927102 131362026
L168849209 131050453
L168849209 130505200
L168927102 130193626
L169082889 130037840
L169238676 129959946
" />
<path d="M170640756 131595706
L170640756 129959946
L171575476 131595706
L171575476 129959946
" />
<path d="M173522809 131517813
L173756489 131595706
L174145956 131595706
L174301742 131517813
L174379636 131439920
L174457529 131284133
L174457529 131128346
L174379636 130972560
L174301742 130894666
L174145956 130816773
L173834382 130738880
L173678596 130660986
L173600702 130583093
L173522809 130427306
L173522809 130271520
L173600702 130115733
L173678596 130037840
L173834382 129959946
L174223849 129959946
L174457529 130037840
" />
<path d="M175158569 131595706
L175158569 129959946
" />
<path d="M175158569 130738880
L176093289 130738880
" />
<path d="M176093289 131595706
L176093289 129959946
" />
<path d="M176794329 131128346
L177573262 131128346
" />
<path d="M176638542 131595706
L177183796 129959946
L177729049 131595706
" />
<path d="M179209022 131595706
L178663769 130816773
" />
<path d="M178274302 131595706
L178274302 129959946
L178897449 129959946
L179053236 130037840
L179131129 130115733
L179209022 130271520
L179209022 130505200
L179131129 130660986
L179053236 130738880
L178897449 130816773
L178274302 130816773
" />
<path d="M179910062 130738880
L180455316 130738880
" />
<path d="M180688996 131595706
L179910062 131595706
L179910062 129959946
L180688996 129959946
" />
<path d="M181390036 130972560
L182636329 130972560
" />
<path d="M183337369 131128346
L184116302 131128346
" />
<path d="M183181582 131595706
L183726836 129959946
L184272089 131595706
" />
<path d="M185596276 131595706
L184817342 131595706
L184817342 129959946
" />
<path d="M186141529 131595706
L186141529 129959946
" />
<path d="M186920462 131595706
L186920462 129959946
" />
<path d="M187855182 131595706
L187154142 130660986
" />
<path d="M187855182 129959946
L186920462 130894666
" />
<path d="M188556222 130738880
L189101476 130738880
" />
<path d="M189335156 131595706
L188556222 131595706
L188556222 129959946
L189335156 129959946
" />
<path d="M191983529 130505200
L191983529 131595706
" />
<path d="M191594062 129882053
L191204596 131050453
L192217209 131050453
" />
<path d="M192840356 131439920
L192918249 131517813
L192840356 131595706
L192762462 131517813
L192840356 131439920
L192840356 131595706
" />
<path d="M193930862 129959946
L194086649 129959946
L194242436 130037840
L194320329 130115733
L194398222 130271520
L194476116 130583093
L194476116 130972560
L194398222 131284133
L194320329 131439920
L194242436 131517813
L194086649 131595706
L193930862 131595706
L193775076 131517813
L193697182 131439920
L193619289 131284133
L193541396 130972560
L193541396 130583093
L193619289 130271520
L193697182 130115733
L193775076 130037840
L193930862 129959946
" />
<path d="M197202382 131595706
L196423449 131595706
L196423449 129959946
" />
<path d="M197747636 131595706
L197747636 129959946
" />
<path d="M199461289 131439920
L199383396 131517813
L199149716 131595706
L198993929 131595706
L198760249 131517813
L198604462 131362026
L198526569 131206240
L198448676 130894666
L198448676 130660986
L198526569 130349413
L198604462 130193626
L198760249 130037840
L198993929 129959946
L199149716 129959946
L199383396 130037840
L199461289 130115733
" />
<path d="M200162329 130738880
L200707582 130738880
" />
<path d="M200941262 131595706
L200162329 131595706
L200162329 129959946
L200941262 129959946
" />
<path d="M201642302 131595706
L201642302 129959946
L202577022 131595706
L202577022 129959946
" />
<path d="M203278062 131517813
L203511742 131595706
L203901209 131595706
L204056996 131517813
L204134889 131439920
L204212782 131284133
L204212782 131128346
L204134889 130972560
L204056996 130894666
L203901209 130816773
L203589636 130738880
L203433849 130660986
L203355956 130583093
L203278062 130427306
L203278062 130271520
L203355956 130115733
L203433849 130037840
L203589636 129959946
L203979102 129959946
L204212782 130037840
" />
<path d="M204913822 130738880
L205459076 130738880
" />
<path d="M205692756 131595706
L204913822 131595706
L204913822 129959946
L205692756 129959946
" />
</g><text x="134531100.000000" y="136753600.000000"
textLength="17165659.000000" font-size="2181013.000000" lengthAdjust="spacingAndGlyphs"
text-anchor="start" opacity="0">DESIGNED BY:</text>
<g class="stroked-text"><desc>DESIGNED BY:</desc>
<path d="M135013022 136675706
L135013022 135039946
L135402489 135039946
L135636169 135117840
L135791956 135273626
L135869849 135429413
L135947742 135740986
L135947742 135974666
L135869849 136286240
L135791956 136442026
L135636169 136597813
L135402489 136675706
L135013022 136675706
" />
<path d="M136648782 135818880
L137194036 135818880
" />
<path d="M137427716 136675706
L136648782 136675706
L136648782 135039946
L137427716 135039946
" />
<path d="M138050862 136597813
L138284542 136675706
L138674009 136675706
L138829796 136597813
L138907689 136519920
L138985582 136364133
L138985582 136208346
L138907689 136052560
L138829796 135974666
L138674009 135896773
L138362436 135818880
L138206649 135740986
L138128756 135663093
L138050862 135507306
L138050862 135351520
L138128756 135195733
L138206649 135117840
L138362436 135039946
L138751902 135039946
L138985582 135117840
" />
<path d="M139686622 136675706
L139686622 135039946
" />
<path d="M141322382 135117840
L141166596 135039946
L140932916 135039946
L140699236 135117840
L140543449 135273626
L140465556 135429413
L140387662 135740986
L140387662 135974666
L140465556 136286240
L140543449 136442026
L140699236 136597813
L140932916 136675706
L141088702 136675706
L141322382 136597813
L141400276 136519920
L141400276 135974666
L141088702 135974666
" />
<path d="M142101316 136675706
L142101316 135039946
L143036036 136675706
L143036036 135039946
" />
<path d="M143814969 135818880
L144360222 135818880
" />
<path d="M144593902 136675706
L143814969 136675706
L143814969 135039946
L144593902 135039946
" />
<path d="M145294942 136675706
L145294942 135039946
L145684409 135039946
L145918089 135117840
L146073876 135273626
L146151769 135429413
L146229662 135740986
L146229662 135974666
L146151769 136286240
L146073876 136442026
L145918089 136597813
L145684409 136675706
L145294942 136675706
" />
<path d="M148722249 135818880
L148955929 135896773
L149033822 135974666
L149111716 136130453
L149111716 136364133
L149033822 136519920
L148955929 136597813
L148800142 136675706
L148176996 136675706
L148176996 135039946
L148722249 135039946
L148878036 135117840
L148955929 135195733
L149033822 135351520
L149033822 135507306
L148955929 135663093
L148878036 135740986
L148722249 135818880
L148176996 135818880
" />
<path d="M150124329 135896773
L150124329 136675706
" />
<path d="M149579076 135039946
L150124329 135896773
L150669582 135039946
" />
<path d="M151214836 136519920
L151292729 136597813
L151214836 136675706
L151136942 136597813
L151214836 136519920
L151214836 136675706
" />
<path d="M151214836 135663093
L151292729 135740986
L151214836 135818880
L151136942 135740986
L151214836 135663093
L151214836 135818880
" />
</g><text x="123101100.000000" y="134213600.000000"
textLength="72236245.000000" font-size="2181013.000000" lengthAdjust="spacingAndGlyphs"
text-anchor="start" opacity="0"> HTTPS://CREATIVECOMMONS.ORG/LICENSES/BY-SA/4.0/</text>
<g class="stroked-text"><desc> HTTPS://CREATIVECOMMONS.ORG/LICENSES/BY-SA/4.0/</desc>
<path d="M124829316 134135706
L124829316 132499946
" />
<path d="M124829316 133278880
L125764036 133278880
" />
<path d="M125764036 134135706
L125764036 132499946
" />
<path d="M126309289 132499946
L127244009 132499946
" />
<path d="M126776649 134135706
L126776649 132499946
" />
<path d="M127555582 132499946
L128490302 132499946
" />
<path d="M128022942 134135706
L128022942 132499946
" />
<path d="M129035556 134135706
L129035556 132499946
L129658702 132499946
L129814489 132577840
L129892382 132655733
L129970276 132811520
L129970276 133045200
L129892382 133200986
L129814489 133278880
L129658702 133356773
L129035556 133356773
" />
<path d="M130593422 134057813
L130827102 134135706
L131216569 134135706
L131372356 134057813
L131450249 133979920
L131528142 133824133
L131528142 133668346
L131450249 133512560
L131372356 133434666
L131216569 133356773
L130904996 133278880
L130749209 133200986
L130671316 133123093
L130593422 132967306
L130593422 132811520
L130671316 132655733
L130749209 132577840
L130904996 132499946
L131294462 132499946
L131528142 132577840
" />
<path d="M132229182 133979920
L132307076 134057813
L132229182 134135706
L132151289 134057813
L132229182 133979920
L132229182 134135706
" />
<path d="M132229182 133123093
L132307076 133200986
L132229182 133278880
L132151289 133200986
L132229182 133123093
L132229182 133278880
" />
<path d="M134176516 132422053
L132774436 134525173
" />
<path d="M135890169 132422053
L134488089 134525173
" />
<path d="M137370142 133979920
L137292249 134057813
L137058569 134135706
L136902782 134135706
L136669102 134057813
L136513316 133902026
L136435422 133746240
L136357529 133434666
L136357529 133200986
L136435422 132889413
L136513316 132733626
L136669102 132577840
L136902782 132499946
L137058569 132499946
L137292249 132577840
L137370142 132655733
" />
<path d="M139005902 134135706
L138460649 133356773
" />
<path d="M138071182 134135706
L138071182 132499946
L138694329 132499946
L138850116 132577840
L138928009 132655733
L139005902 132811520
L139005902 133045200
L138928009 133200986
L138850116 133278880
L138694329 133356773
L138071182 133356773
" />
<path d="M139706942 133278880
L140252196 133278880
" />
<path d="M140485876 134135706
L139706942 134135706
L139706942 132499946
L140485876 132499946
" />
<path d="M141109022 133668346
L141887956 133668346
" />
<path d="M140953236 134135706
L141498489 132499946
L142043742 134135706
" />
<path d="M142355316 132499946
L143290036 132499946
" />
<path d="M142822676 134135706
L142822676 132499946
" />
<path d="M143835289 134135706
L143835289 132499946
" />
<path d="M144380542 132499946
L144925796 134135706
L145471049 132499946
" />
<path d="M146016302 133278880
L146561556 133278880
" />
<path d="M146795236 134135706
L146016302 134135706
L146016302 132499946
L146795236 132499946
" />
<path d="M148430996 133979920
L148353102 134057813
L148119422 134135706
L147963636 134135706
L147729956 134057813
L147574169 133902026
L147496276 133746240
L147418382 133434666
L147418382 133200986
L147496276 132889413
L147574169 132733626
L147729956 132577840
L147963636 132499946
L148119422 132499946
L148353102 132577840
L148430996 132655733
" />
<path d="M149443609 132499946
L149755182 132499946
L149910969 132577840
L150066756 132733626
L150144649 133045200
L150144649 133590453
L150066756 133902026
L149910969 134057813
L149755182 134135706
L149443609 134135706
L149287822 134057813
L149132036 133902026
L149054142 133590453
L149054142 133045200
L149132036 132733626
L149287822 132577840
L149443609 132499946
" />
<path d="M150845689 134135706
L150845689 132499946
L151390942 133668346
L151936196 132499946
L151936196 134135706
" />
<path d="M152715129 134135706
L152715129 132499946
L153260382 133668346
L153805636 132499946
L153805636 134135706
" />
<path d="M154896142 132499946
L155207716 132499946
L155363502 132577840
L155519289 132733626
L155597182 133045200
L155597182 133590453
L155519289 133902026
L155363502 134057813
L155207716 134135706
L154896142 134135706
L154740356 134057813
L154584569 133902026
L154506676 133590453
L154506676 133045200
L154584569 132733626
L154740356 132577840
L154896142 132499946
" />
<path d="M156298222 134135706
L156298222 132499946
L157232942 134135706
L157232942 132499946
" />
<path d="M157933982 134057813
L158167662 134135706
L158557129 134135706
L158712916 134057813
L158790809 133979920
L158868702 133824133
L158868702 133668346
L158790809 133512560
L158712916 133434666
L158557129 133356773
L158245556 133278880
L158089769 133200986
L158011876 133123093
L157933982 132967306
L157933982 132811520
L158011876 132655733
L158089769 132577840
L158245556 132499946
L158635022 132499946
L158868702 132577840
" />
<path d="M159569742 133979920
L159647636 134057813
L159569742 134135706
L159491849 134057813
L159569742 133979920
L159569742 134135706
" />
<path d="M160660249 132499946
L160971822 132499946
L161127609 132577840
L161283396 132733626
L161361289 133045200
L161361289 133590453
L161283396 133902026
L161127609 134057813
L160971822 134135706
L160660249 134135706
L160504462 134057813
L160348676 133902026
L160270782 133590453
L160270782 133045200
L160348676 132733626
L160504462 132577840
L160660249 132499946
" />
<path d="M162997049 134135706
L162451796 133356773
" />
<path d="M162062329 134135706
L162062329 132499946
L162685476 132499946
L162841262 132577840
L162919156 132655733
L162997049 132811520
L162997049 133045200
L162919156 133200986
L162841262 133278880
L162685476 133356773
L162062329 133356773
" />
<path d="M164554916 132577840
L164399129 132499946
L164165449 132499946
L163931769 132577840
L163775982 132733626
L163698089 132889413
L163620196 133200986
L163620196 133434666
L163698089 133746240
L163775982 133902026
L163931769 134057813
L164165449 134135706
L164321236 134135706
L164554916 134057813
L164632809 133979920
L164632809 133434666
L164321236 133434666
" />
<path d="M166502249 132422053
L165100169 134525173
" />
<path d="M167826436 134135706
L167047502 134135706
L167047502 132499946
" />
<path d="M168371689 134135706
L168371689 132499946
" />
<path d="M170085342 133979920
L170007449 134057813
L169773769 134135706
L169617982 134135706
L169384302 134057813
L169228516 133902026
L169150622 133746240
L169072729 133434666
L169072729 133200986
L169150622 132889413
L169228516 132733626
L169384302 132577840
L169617982 132499946
L169773769 132499946
L170007449 132577840
L170085342 132655733
" />
<path d="M170786382 133278880
L171331636 133278880
" />
<path d="M171565316 134135706
L170786382 134135706
L170786382 132499946
L171565316 132499946
" />
<path d="M172266356 134135706
L172266356 132499946
L173201076 134135706
L173201076 132499946
" />
<path d="M173902116 134057813
L174135796 134135706
L174525262 134135706
L174681049 134057813
L174758942 133979920
L174836836 133824133
L174836836 133668346
L174758942 133512560
L174681049 133434666
L174525262 133356773
L174213689 133278880
L174057902 133200986
L173980009 133123093
L173902116 132967306
L173902116 132811520
L173980009 132655733
L174057902 132577840
L174213689 132499946
L174603156 132499946
L174836836 132577840
" />
<path d="M175537876 133278880
L176083129 133278880
" />
<path d="M176316809 134135706
L175537876 134135706
L175537876 132499946
L176316809 132499946
" />
<path d="M176939956 134057813
L177173636 134135706
L177563102 134135706
L177718889 134057813
L177796782 133979920
L177874676 133824133
L177874676 133668346
L177796782 133512560
L177718889 133434666
L177563102 133356773
L177251529 133278880
L177095742 133200986
L177017849 133123093
L176939956 132967306
L176939956 132811520
L177017849 132655733
L177095742 132577840
L177251529 132499946
L177640996 132499946
L177874676 132577840
" />
<path d="M179744116 132422053
L178342036 134525173
" />
<path d="M180834622 133278880
L181068302 133356773
L181146196 133434666
L181224089 133590453
L181224089 133824133
L181146196 133979920
L181068302 134057813
L180912516 134135706
L180289369 134135706
L180289369 132499946
L180834622 132499946
L180990409 132577840
L181068302 132655733
L181146196 132811520
L181146196 132967306
L181068302 133123093
L180990409 133200986
L180834622 133278880
L180289369 133278880
" />
<path d="M182236702 133356773
L182236702 134135706
" />
<path d="M181691449 132499946
L182236702 133356773
L182781956 132499946
" />
<path d="M183327209 133512560
L184573502 133512560
" />
<path d="M185274542 134057813
L185508222 134135706
L185897689 134135706
L186053476 134057813
L186131369 133979920
L186209262 133824133
L186209262 133668346
L186131369 133512560
L186053476 133434666
L185897689 133356773
L185586116 133278880
L185430329 133200986
L185352436 133123093
L185274542 132967306
L185274542 132811520
L185352436 132655733
L185430329 132577840
L185586116 132499946
L185975582 132499946
L186209262 132577840
" />
<path d="M186832409 133668346
L187611342 133668346
" />
<path d="M186676622 134135706
L187221876 132499946
L187767129 134135706
" />
<path d="M189480782 132422053
L188078702 134525173
" />
<path d="M190727076 133045200
L190727076 134135706
" />
<path d="M190337609 132422053
L189948142 133590453
L190960756 133590453
" />
<path d="M191583902 133979920
L191661796 134057813
L191583902 134135706
L191506009 134057813
L191583902 133979920
L191583902 134135706
" />
<path d="M192674409 132499946
L192830196 132499946
L192985982 132577840
L193063876 132655733
L193141769 132811520
L193219662 133123093
L193219662 133512560
L193141769 133824133
L193063876 133979920
L192985982 134057813
L192830196 134135706
L192674409 134135706
L192518622 134057813
L192440729 133979920
L192362836 133824133
L192284942 133512560
L192284942 133123093
L192362836 132811520
L192440729 132655733
L192518622 132577840
L192674409 132499946
" />
<path d="M195089102 132422053
L193687022 134525173
" />
</g></g>
<g style="fill:#AFAFAF; fill-opacity:0.0; 
stroke:#AFAFAF; stroke-width:38862.000000; stroke-opacity:1; 
stroke-linecap:round; stroke-linejoin:round;">
<text x="147728100.000000" y="107444569.000000"
textLength="1438620.000000" font-size="354584.000000" lengthAdjust="spacingAndGlyphs"
text-anchor="start" opacity="0">SHTC3</text>
<g class="stroked-text"><desc>SHTC3</desc>
<path d="M147804015 107419241
L147842006 107431905
L147905324 107431905
L147930652 107419241
L147943316 107406577
L147955979 107381250
L147955979 107355923
L147943316 107330595
L147930652 107317931
L147905324 107305268
L147854670 107292604
L147829342 107279940
L147816678 107267277
L147804015 107241949
L147804015 107216622
L147816678 107191294
L147829342 107178631
L147854670 107165967
L147917988 107165967
L147955979 107178631
" />
<path d="M148069953 107431905
L148069953 107165967
" />
<path d="M148069953 107292604
L148221917 107292604
" />
<path d="M148221917 107431905
L148221917 107165967
" />
<path d="M148310563 107165967
L148462528 107165967
" />
<path d="M148386546 107431905
L148386546 107165967
" />
<path d="M148703138 107406577
L148690475 107419241
L148652484 107431905
L148627156 107431905
L148589165 107419241
L148563838 107393914
L148551174 107368586
L148538510 107317931
L148538510 107279940
L148551174 107229285
L148563838 107203958
L148589165 107178631
L148627156 107165967
L148652484 107165967
L148690475 107178631
L148703138 107191294
" />
<path d="M148791784 107165967
L148956413 107165967
L148867767 107267277
L148905758 107267277
L148931085 107279940
L148943749 107292604
L148956413 107317931
L148956413 107381250
L148943749 107406577
L148931085 107419241
L148905758 107431905
L148829776 107431905
L148804448 107419241
L148791784 107406577
" />
</g></g>
<g style="fill:#AFAFAF; fill-opacity:0.0; 
stroke:#AFAFAF; stroke-width:97536.000000; stroke-opacity:1; 
stroke-linecap:round; stroke-linejoin:round;">
<text x="148628100.000000" y="104497632.000000"
textLength="2171929.000000" font-size="682752.000000" lengthAdjust="spacingAndGlyphs"
text-anchor="start" opacity="0">0.1uF</text>
<g class="stroked-text"><desc>0.1uF</desc>
<path d="M148910954 103961184
L148959722 103961184
L149008490 103985568
L149032874 104009952
L149057258 104058720
L149081642 104156256
L149081642 104278176
L149057258 104375712
L149032874 104424480
L149008490 104448864
L148959722 104473248
L148910954 104473248
L148862186 104448864
L148837802 104424480
L148813418 104375712
L148789034 104278176
L148789034 104156256
L148813418 104058720
L148837802 104009952
L148862186 103985568
L148910954 103961184
" />
<path d="M149301098 104424480
L149325482 104448864
L149301098 104473248
L149276714 104448864
L149301098 104424480
L149301098 104473248
" />
<path d="M149813162 104473248
L149520554 104473248
" />
<path d="M149666858 104473248
L149666858 103961184
L149618090 104034336
L149569322 104083104
L149520554 104107488
" />
<path d="M150252074 104131872
L150252074 104473248
" />
<path d="M150032618 104131872
L150032618 104400096
L150057002 104448864
L150105770 104473248
L150178922 104473248
L150227690 104448864
L150252074 104424480
" />
<path d="M150666602 104205024
L150495914 104205024
" />
<path d="M150495914 104473248
L150495914 103961184
L150739754 103961184
" />
</g><g transform="rotate(-90.000000 137579100.000000 103352600.000000)">
<text x="137579100.000000" y="103608632.000000"
textLength="126797.000000" font-size="682752.000000" lengthAdjust="spacingAndGlyphs"
text-anchor="end" opacity="0"></text>
</g>
<g class="stroked-text"><desc></desc>
</g><text x="148628100.000000" y="98147632.000000"
textLength="1731264.000000" font-size="682752.000000" lengthAdjust="spacingAndGlyphs"
text-anchor="end" opacity="0">2.2k</text>
<g class="stroked-text"><desc>2.2k</desc>
<path d="M147028509 97659952
L147052893 97635568
L147101661 97611184
L147223581 97611184
L147272349 97635568
L147296733 97659952
L147321117 97708720
L147321117 97757488
L147296733 97830640
L147004125 98123248
L147321117 98123248
" />
<path d="M147540573 98074480
L147564957 98098864
L147540573 98123248
L147516189 98098864
L147540573 98074480
L147540573 98123248
" />
<path d="M147760029 97659952
L147784413 97635568
L147833181 97611184
L147955101 97611184
L148003869 97635568
L148028253 97659952
L148052637 97708720
L148052637 97757488
L148028253 97830640
L147735645 98123248
L148052637 98123248
" />
<path d="M148272093 98123248
L148272093 97611184
" />
<path d="M148320861 97928176
L148467165 98123248
" />
<path d="M148467165 97781872
L148272093 97976944
" />
</g><text x="143421100.000000" y="118721632.000000"
textLength="1565453.000000" font-size="682752.000000" lengthAdjust="spacingAndGlyphs"
text-anchor="start" opacity="0">PTH</text>
<g class="stroked-text"><desc>PTH</desc>
<path d="M143606418 118697248
L143606418 118185184
L143801490 118185184
L143850258 118209568
L143874642 118233952
L143899026 118282720
L143899026 118355872
L143874642 118404640
L143850258 118429024
L143801490 118453408
L143606418 118453408
" />
<path d="M144045330 118185184
L144337938 118185184
" />
<path d="M144191634 118697248
L144191634 118185184
" />
<path d="M144508626 118697248
L144508626 118185184
" />
<path d="M144508626 118429024
L144801234 118429024
" />
<path d="M144801234 118697248
L144801234 118185184
" />
</g><text x="138976100.000000" y="112498632.000000"
textLength="1614221.000000" font-size="682752.000000" lengthAdjust="spacingAndGlyphs"
text-anchor="start" opacity="0">RED</text>
<g class="stroked-text"><desc>RED</desc>
<path d="M139454026 112474248
L139283338 112230408
" />
<path d="M139161418 112474248
L139161418 111962184
L139356490 111962184
L139405258 111986568
L139429642 112010952
L139454026 112059720
L139454026 112132872
L139429642 112181640
L139405258 112206024
L139356490 112230408
L139161418 112230408
" />
<path d="M139673482 112206024
L139844170 112206024
" />
<path d="M139917322 112474248
L139673482 112474248
L139673482 111962184
L139917322 111962184
" />
<path d="M140136778 112474248
L140136778 111962184
L140258698 111962184
L140331850 111986568
L140380618 112035336
L140405002 112084104
L140429386 112181640
L140429386 112254792
L140405002 112352328
L140380618 112401096
L140331850 112449864
L140258698 112474248
L140136778 112474248
" />
</g><text x="148628100.000000" y="99925632.000000"
textLength="1760525.000000" font-size="682752.000000" lengthAdjust="spacingAndGlyphs"
text-anchor="end" opacity="0">2.2k</text>
<g class="stroked-text"><desc>2.2k</desc>
<path d="M147028509 99437952
L147052893 99413568
L147101661 99389184
L147223581 99389184
L147272349 99413568
L147296733 99437952
L147321117 99486720
L147321117 99535488
L147296733 99608640
L147004125 99901248
L147321117 99901248
" />
<path d="M147540573 99852480
L147564957 99876864
L147540573 99901248
L147516189 99876864
L147540573 99852480
L147540573 99901248
" />
<path d="M147760029 99437952
L147784413 99413568
L147833181 99389184
L147955101 99389184
L148003869 99413568
L148028253 99437952
L148052637 99486720
L148052637 99535488
L148028253 99608640
L147735645 99901248
L148052637 99901248
" />
<path d="M148272093 99901248
L148272093 99389184
" />
<path d="M148320861 99706176
L148467165 99901248
" />
<path d="M148467165 99559872
L148272093 99754944
" />
</g></g>
<g style="fill:#AFAFAF; fill-opacity:0.0; 
stroke:#AFAFAF; stroke-width:101600.000000; stroke-opacity:1; 
stroke-linecap:round; stroke-linejoin:round;">
<path d="M138620100 113423600
L139332100 113423600
" />
<path d="M138620100 112572600
L139332100 112572600
" />
</g>
<g style="fill:#AFAFAF; fill-opacity:1.0; 
stroke:#AFAFAF; stroke-width:1.000000; stroke-opacity:1; 
stroke-linecap:round; stroke-linejoin:round;">
<path style="fill:#AFAFAF; fill-opacity:1.0; 
stroke:#AFAFAF; stroke-width:1.000000; stroke-opacity:1; 
stroke-linecap:round; stroke-linejoin:round;fill-rule:evenodd;"
d="M 138638000.000000,113474500.000000
138137900.000000,113474500.000000
138137900.000000,112524500.000000
138638000.000000,112524500.000000
Z" /> 
<path style="fill:#AFAFAF; fill-opacity:1.0; 
stroke:#AFAFAF; stroke-width:1.000000; stroke-opacity:1; 
stroke-linecap:round; stroke-linejoin:round;fill-rule:evenodd;"
d="M 139806400.000000,113474500.000000
139306300.000000,113474500.000000
139306300.000000,112524500.000000
139806400.000000,112524500.000000
Z" /> 
</g>
<g style="fill:#AFAFAF; fill-opacity:1.0; 
stroke:#AFAFAF; stroke-width:203200.000000; stroke-opacity:1; 
stroke-linecap:round; stroke-linejoin:round;">
</g>
<g style="fill:#AFAFAF; fill-opacity:0.0; 
stroke:#AFAFAF; stroke-width:203200.000000; stroke-opacity:1; 
stroke-linecap:round; stroke-linejoin:round;">
<path d="M147628100 104511600
L147628100 106511600
" />
<path d="M149628100 104511600
L147628100 104511600
" />
<path d="M147628100 106511600
L149628100 106511600
" />
<path d="M149628100 106511600
L149628100 104511600
" />
</g>
<g style="fill:#AFAFAF; fill-opacity:0.0; 
stroke:#AFAFAF; stroke-width:101600.000000; stroke-opacity:1; 
stroke-linecap:round; stroke-linejoin:round;">
<path d="M148272100 103898600
L148984100 103898600
" />
<path d="M148272100 103047600
L148984100 103047600
" />
</g>
<g style="fill:#AFAFAF; fill-opacity:1.0; 
stroke:#AFAFAF; stroke-width:1.000000; stroke-opacity:1; 
stroke-linecap:round; stroke-linejoin:round;">
<path style="fill:#AFAFAF; fill-opacity:1.0; 
stroke:#AFAFAF; stroke-width:1.000000; stroke-opacity:1; 
stroke-linecap:round; stroke-linejoin:round;fill-rule:evenodd;"
d="M 149458400.000000,103949500.000000
148958300.000000,103949500.000000
148958300.000000,102999500.000000
149458400.000000,102999500.000000
Z" /> 
<path style="fill:#AFAFAF; fill-opacity:1.0; 
stroke:#AFAFAF; stroke-width:1.000000; stroke-opacity:1; 
stroke-linecap:round; stroke-linejoin:round;fill-rule:evenodd;"
d="M 148290000.000000,103949500.000000
147789900.000000,103949500.000000
147789900.000000,102999500.000000
148290000.000000,102999500.000000
Z" /> 
</g>
<g style="fill:#AFAFAF; fill-opacity:1.0; 
stroke:#AFAFAF; stroke-width:101600.000000; stroke-opacity:1; 
stroke-linecap:round; stroke-linejoin:round;">
</g>
<g style="fill:#AFAFAF; fill-opacity:0.0; 
stroke:#AFAFAF; stroke-width:101600.000000; stroke-opacity:1; 
stroke-linecap:round; stroke-linejoin:round;">
<path d="M148984100 98234600
L148272100 98234600
" />
<path d="M148984100 99085600
L148272100 99085600
" />
</g>
<g style="fill:#AFAFAF; fill-opacity:1.0; 
stroke:#AFAFAF; stroke-width:1.000000; stroke-opacity:1; 
stroke-linecap:round; stroke-linejoin:round;">
<path style="fill:#AFAFAF; fill-opacity:1.0; 
stroke:#AFAFAF; stroke-width:1.000000; stroke-opacity:1; 
stroke-linecap:round; stroke-linejoin:round;fill-rule:evenodd;"
d="M 148297900.000000,99133700.000000
147797800.000000,99133700.000000
147797800.000000,98183700.000000
148297900.000000,98183700.000000
Z" /> 
<path style="fill:#AFAFAF; fill-opacity:1.0; 
stroke:#AFAFAF; stroke-width:1.000000; stroke-opacity:1; 
stroke-linecap:round; stroke-linejoin:round;fill-rule:evenodd;"
d="M 149466300.000000,99133700.000000
148966200.000000,99133700.000000
148966200.000000,98183700.000000
149466300.000000,98183700.000000
Z" /> 
<path style="fill:#AFAFAF; fill-opacity:1.0; 
stroke:#AFAFAF; stroke-width:1.000000; stroke-opacity:1; 
stroke-linecap:round; stroke-linejoin:round;fill-rule:evenodd;"
d="M 150025100.000000,116687600.000000
149517100.000000,116687600.000000
149517100.000000,116179600.000000
150025100.000000,116179600.000000
Z" /> 
<path style="fill:#AFAFAF; fill-opacity:1.0; 
stroke:#AFAFAF; stroke-width:1.000000; stroke-opacity:1; 
stroke-linecap:round; stroke-linejoin:round;fill-rule:evenodd;"
d="M 147485100.000000,116687600.000000
146977100.000000,116687600.000000
146977100.000000,116179600.000000
147485100.000000,116179600.000000
Z" /> 
<path style="fill:#AFAFAF; fill-opacity:1.0; 
stroke:#AFAFAF; stroke-width:1.000000; stroke-opacity:1; 
stroke-linecap:round; stroke-linejoin:round;fill-rule:evenodd;"
d="M 152565100.000000,116687600.000000
152057100.000000,116687600.000000
152057100.000000,116179600.000000
152565100.000000,116179600.000000
Z" /> 
<path style="fill:#AFAFAF; fill-opacity:1.0; 
stroke:#AFAFAF; stroke-width:1.000000; stroke-opacity:1; 
stroke-linecap:round; stroke-linejoin:round;fill-rule:evenodd;"
d="M 144945100.000000,116687600.000000
144437100.000000,116687600.000000
144437100.000000,116179600.000000
144945100.000000,116179600.000000
Z" /> 
</g>
<g style="fill:#AFAFAF; fill-opacity:1.0; 
stroke:#AFAFAF; stroke-width:127000.000000; stroke-opacity:1; 
stroke-linecap:round; stroke-linejoin:round;">
</g>
<g style="fill:#AFAFAF; fill-opacity:0.0; 
stroke:#AFAFAF; stroke-width:127000.000000; stroke-opacity:1; 
stroke-linecap:round; stroke-linejoin:round;">
<path d="M139134850 111607600
L138817350 111925100
" />
<path d="M139134850 111131350
L139134850 111607600
" />
<path d="M139134850 111607600
L138817350 111290100
" />
<path d="M139134850 111607600
L139134850 112083850
" />
</g>
<g style="fill:#AFAFAF; fill-opacity:0.0; 
stroke:#AFAFAF; stroke-width:101600.000000; stroke-opacity:1; 
stroke-linecap:round; stroke-linejoin:round;">
<path d="M148984100 100863600
L148272100 100863600
" />
<path d="M148984100 100012600
L148272100 100012600
" />
</g>
<g style="fill:#AFAFAF; fill-opacity:1.0; 
stroke:#AFAFAF; stroke-width:1.000000; stroke-opacity:1; 
stroke-linecap:round; stroke-linejoin:round;">
<path style="fill:#AFAFAF; fill-opacity:1.0; 
stroke:#AFAFAF; stroke-width:1.000000; stroke-opacity:1; 
stroke-linecap:round; stroke-linejoin:round;fill-rule:evenodd;"
d="M 149466300.000000,100911700.000000
148966200.000000,100911700.000000
148966200.000000,99961700.000000
149466300.000000,99961700.000000
Z" /> 
<path style="fill:#AFAFAF; fill-opacity:1.0; 
stroke:#AFAFAF; stroke-width:1.000000; stroke-opacity:1; 
stroke-linecap:round; stroke-linejoin:round;fill-rule:evenodd;"
d="M 148297900.000000,100911700.000000
147797800.000000,100911700.000000
147797800.000000,99961700.000000
148297900.000000,99961700.000000
Z" /> 
<g >
</g>
<g >
</g>
<g >
</g>
<g >
</g>
<g >
</g>
<g >
</g>
<g >
</g>
<g >
</g>
<g >
</g>
<g >
</g>
<g >
</g>
<g >
</g>
<g >
</g>
<g >
</g>
<g >
</g>
<g >
</g>
<g >
</g>
<g >
</g>
<g >
</g>
<g >
</g>
<g >
</g>
<g >
</g>
<g >
</g>
<g >
</g>
<g >
</g>
<g >
</g>
<g >
</g>
<g >
</g>
<g >
</g>
<g >
</g>
<g >
</g>
<g >
</g>
<g >
</g>
<g >
</g>
<g >
</g>
<g >
</g>
<g >
</g>
</g>
<g style="fill:#000000; fill-opacity:1.0; 
stroke:#000000; stroke-width:1.000000; stroke-opacity:1; 
stroke-linecap:round; stroke-linejoin:round;">
</g>
<g style="fill:#D0D2CD; fill-opacity:1.0; 
stroke:#D0D2CD; stroke-width:1.000000; stroke-opacity:1; 
stroke-linecap:round; stroke-linejoin:round;">
</g>
<g style="fill:#D0D2CD; fill-opacity:1.0; 
stroke:#D0D2CD; stroke-width:203200.000000; stroke-opacity:1; 
stroke-linecap:round; stroke-linejoin:round;">
</g>
<g style="fill:#D0D2CD; fill-opacity:0.0; 
stroke:#D0D2CD; stroke-width:203200.000000; stroke-opacity:1; 
stroke-linecap:round; stroke-linejoin:round;">
<path d="M135801100 117703600
L135801100 92303600
" />
<path d="M161201100 92303600
L161201100 117703600
" />
<path d="M135801100 92303600
L161201100 92303600
" />
<path d="M161201100 117703600
L135801100 117703600
" />
<g >
</g>
<g >
</g>
<g >
</g>
<g >
</g>
<g >
</g>
<g >
</g>
<g >
</g>
<g >
</g>
<g >
</g>
<g >
</g>
<g >
</g>
<g >
</g>
<g >
</g>
<g >
</g>
<g >
</g>
<g >
</g>
<g >
</g>
<g >
</g>
<g >
</g>
<g >
</g>
<g >
</g>
<g >
</g>
<g >
</g>
<g >
</g>
<g >
</g>
<g >
</g>
<g >
</g>
<g >
</g>
<g >
</g>
<g >
</g>
<g >
</g>
<g >
</g>
<g >
</g>
<g >
</g>
<g >
</g>
<g >
</g>
<g >
</g>
</g> 
</svg>
