<!DOCTYPE svg PUBLIC "-//W3C//DTD SVG 1.1//EN" "http://www.w3.org/Graphics/SVG/1.1/DTD/svg11.dtd">
<svg xmlns="http://www.w3.org/2000/svg" version="1.1" width="23.38136mm" height="14.7mm" viewBox="-16021899.0 9765360.0 2338136.0 1470000.0">
            <title>Picture generated by PcbDraw </title>
            <desc>Picture generated by PcbDraw</desc>
        <defs><clipPath id="cut-off"><path d=" M 15612110.0 9865360.0 L 14088110.0 9865360.0 L 14088110.0 11135360.0 L 15612110.0 11135360.0 L 15612110.0 9865360.0 " style="fill-rule: evenodd;"/></clipPath><mask id="pads-mask"><g style="fill:#ffffff; fill-opacity:0.0;  stroke:#ffffff; stroke-width:0.000000; stroke-opacity:1;  stroke-linecap:round; stroke-linejoin:round;">
<g style="fill:#ffffff; fill-opacity:1.0;  stroke:#ffffff; stroke-width:0.100000; stroke-opacity:1;  stroke-linecap:round; stroke-linejoin:round;">
<circle cx="15485110.000000" cy="11008360.000000" r="104140.000000"/> 
</g>
<g style="fill:#ffffff; fill-opacity:1.0;  stroke:#ffffff; stroke-width:0.100000; stroke-opacity:1;  stroke-linecap:round; stroke-linejoin:round;">
<circle cx="15231110.000000" cy="11008360.000000" r="104140.000000"/> 
</g>
<g style="fill:#ffffff; fill-opacity:1.0;  stroke:#ffffff; stroke-width:0.100000; stroke-opacity:1;  stroke-linecap:round; stroke-linejoin:round;">
<circle cx="14977110.000000" cy="11008360.000000" r="104140.000000"/> 
</g>
<g style="fill:#ffffff; fill-opacity:1.0;  stroke:#ffffff; stroke-width:0.100000; stroke-opacity:1;  stroke-linecap:round; stroke-linejoin:round;">
<circle cx="14723110.000000" cy="11008360.000000" r="104140.000000"/> 
</g>
<g style="fill:#ffffff; fill-opacity:1.0;  stroke:#ffffff; stroke-width:0.100000; stroke-opacity:1;  stroke-linecap:round; stroke-linejoin:round;">
<circle cx="14469110.000000" cy="11008360.000000" r="104140.000000"/> 
</g>
<g style="fill:#ffffff; fill-opacity:1.0;  stroke:#ffffff; stroke-width:0.100000; stroke-opacity:1;  stroke-linecap:round; stroke-linejoin:round;">
<circle cx="14215110.000000" cy="11008360.000000" r="104140.000000"/> 
</g>
<g style="fill:#ffffff; fill-opacity:1.0;  stroke:#ffffff; stroke-width:0.100000; stroke-opacity:1;  stroke-linecap:round; stroke-linejoin:round;">
<circle cx="14215110.000000" cy="9992360.000000" r="104140.000000"/> 
</g>
<g style="fill:#ffffff; fill-opacity:1.0;  stroke:#ffffff; stroke-width:0.100000; stroke-opacity:1;  stroke-linecap:round; stroke-linejoin:round;">
<circle cx="14469110.000000" cy="9992360.000000" r="104140.000000"/> 
</g>
<g style="fill:#ffffff; fill-opacity:1.0;  stroke:#ffffff; stroke-width:0.100000; stroke-opacity:1;  stroke-linecap:round; stroke-linejoin:round;">
<circle cx="14723110.000000" cy="9992360.000000" r="104140.000000"/> 
</g>
<g style="fill:#ffffff; fill-opacity:1.0;  stroke:#ffffff; stroke-width:0.100000; stroke-opacity:1;  stroke-linecap:round; stroke-linejoin:round;">
<circle cx="14977110.000000" cy="9992360.000000" r="104140.000000"/> 
</g>
<g style="fill:#ffffff; fill-opacity:1.0;  stroke:#ffffff; stroke-width:0.100000; stroke-opacity:1;  stroke-linecap:round; stroke-linejoin:round;">
<circle cx="15231110.000000" cy="9992360.000000" r="104140.000000"/> 
</g>
<g style="fill:#ffffff; fill-opacity:1.0;  stroke:#ffffff; stroke-width:0.100000; stroke-opacity:1;  stroke-linecap:round; stroke-linejoin:round;">
<circle cx="15485110.000000" cy="9992360.000000" r="104140.000000"/> 
</g>
</g> 
</mask><mask id="pads-mask-silkscreen"><rect x="13757547.1" y="9479127.6" width="10784864.2" height="2682900.4" fill="white"/><g style="fill:#000000; fill-opacity:0.0;  stroke:#000000; stroke-width:0.000000; stroke-opacity:1;  stroke-linecap:round; stroke-linejoin:round;">
<g style="fill:#000000; fill-opacity:1.0;  stroke:#000000; stroke-width:0.100000; stroke-opacity:1;  stroke-linecap:round; stroke-linejoin:round;">
<circle cx="15485110.000000" cy="11008360.000000" r="104140.000000"/> 
</g>
<g style="fill:#000000; fill-opacity:1.0;  stroke:#000000; stroke-width:0.100000; stroke-opacity:1;  stroke-linecap:round; stroke-linejoin:round;">
<circle cx="15231110.000000" cy="11008360.000000" r="104140.000000"/> 
</g>
<g style="fill:#000000; fill-opacity:1.0;  stroke:#000000; stroke-width:0.100000; stroke-opacity:1;  stroke-linecap:round; stroke-linejoin:round;">
<circle cx="14977110.000000" cy="11008360.000000" r="104140.000000"/> 
</g>
<g style="fill:#000000; fill-opacity:1.0;  stroke:#000000; stroke-width:0.100000; stroke-opacity:1;  stroke-linecap:round; stroke-linejoin:round;">
<circle cx="14723110.000000" cy="11008360.000000" r="104140.000000"/> 
</g>
<g style="fill:#000000; fill-opacity:1.0;  stroke:#000000; stroke-width:0.100000; stroke-opacity:1;  stroke-linecap:round; stroke-linejoin:round;">
<circle cx="14469110.000000" cy="11008360.000000" r="104140.000000"/> 
</g>
<g style="fill:#000000; fill-opacity:1.0;  stroke:#000000; stroke-width:0.100000; stroke-opacity:1;  stroke-linecap:round; stroke-linejoin:round;">
<circle cx="14215110.000000" cy="11008360.000000" r="104140.000000"/> 
</g>
<g style="fill:#000000; fill-opacity:1.0;  stroke:#000000; stroke-width:0.100000; stroke-opacity:1;  stroke-linecap:round; stroke-linejoin:round;">
<circle cx="14215110.000000" cy="9992360.000000" r="104140.000000"/> 
</g>
<g style="fill:#000000; fill-opacity:1.0;  stroke:#000000; stroke-width:0.100000; stroke-opacity:1;  stroke-linecap:round; stroke-linejoin:round;">
<circle cx="14469110.000000" cy="9992360.000000" r="104140.000000"/> 
</g>
<g style="fill:#000000; fill-opacity:1.0;  stroke:#000000; stroke-width:0.100000; stroke-opacity:1;  stroke-linecap:round; stroke-linejoin:round;">
<circle cx="14723110.000000" cy="9992360.000000" r="104140.000000"/> 
</g>
<g style="fill:#000000; fill-opacity:1.0;  stroke:#000000; stroke-width:0.100000; stroke-opacity:1;  stroke-linecap:round; stroke-linejoin:round;">
<circle cx="14977110.000000" cy="9992360.000000" r="104140.000000"/> 
</g>
<g style="fill:#000000; fill-opacity:1.0;  stroke:#000000; stroke-width:0.100000; stroke-opacity:1;  stroke-linecap:round; stroke-linejoin:round;">
<circle cx="15231110.000000" cy="9992360.000000" r="104140.000000"/> 
</g>
<g style="fill:#000000; fill-opacity:1.0;  stroke:#000000; stroke-width:0.100000; stroke-opacity:1;  stroke-linecap:round; stroke-linejoin:round;">
<circle cx="15485110.000000" cy="9992360.000000" r="104140.000000"/> 
</g>
</g> 
</mask><mask id="hole-mask"><g><rect x="13757547.1" y="9479127.6" fill="white" width="10784864.2" height="2682900.4"/><polyline stroke-linecap="round" stroke="black" stroke-width="101600.0" points="-0.0 0 0.0 0" transform="translate(15485110.0 11008360.0) rotate(-90.0)"/><polyline stroke-linecap="round" stroke="black" stroke-width="101600.0" points="-0.0 0 0.0 0" transform="translate(15231110.0 11008360.0) rotate(-90.0)"/><polyline stroke-linecap="round" stroke="black" stroke-width="101600.0" points="-0.0 0 0.0 0" transform="translate(14977110.0 11008360.0) rotate(-90.0)"/><polyline stroke-linecap="round" stroke="black" stroke-width="101600.0" points="-0.0 0 0.0 0" transform="translate(14723110.0 11008360.0) rotate(-90.0)"/><polyline stroke-linecap="round" stroke="black" stroke-width="101600.0" points="-0.0 0 0.0 0" transform="translate(14469110.0 11008360.0) rotate(-90.0)"/><polyline stroke-linecap="round" stroke="black" stroke-width="101600.0" points="-0.0 0 0.0 0" transform="translate(14215110.0 11008360.0) rotate(-90.0)"/><polyline stroke-linecap="round" stroke="black" stroke-width="101600.0" points="-0.0 0 0.0 0" transform="translate(14215110.0 9992360.0) rotate(-270.0)"/><polyline stroke-linecap="round" stroke="black" stroke-width="101600.0" points="-0.0 0 0.0 0" transform="translate(14469110.0 9992360.0) rotate(-270.0)"/><polyline stroke-linecap="round" stroke="black" stroke-width="101600.0" points="-0.0 0 0.0 0" transform="translate(14723110.0 9992360.0) rotate(-270.0)"/><polyline stroke-linecap="round" stroke="black" stroke-width="101600.0" points="-0.0 0 0.0 0" transform="translate(14977110.0 9992360.0) rotate(-270.0)"/><polyline stroke-linecap="round" stroke="black" stroke-width="101600.0" points="-0.0 0 0.0 0" transform="translate(15231110.0 9992360.0) rotate(-270.0)"/><polyline stroke-linecap="round" stroke="black" stroke-width="101600.0" points="-0.0 0 0.0 0" transform="translate(15485110.0 9992360.0) rotate(-270.0)"/><polyline stroke-linecap="round" stroke="black" stroke-width="50800.0" points="-0.0 0 0.0 0" transform="translate(15205710.0 10398760.0) rotate(0.0)"/><polyline stroke-linecap="round" stroke="black" stroke-width="50800.0" points="-0.0 0 0.0 0" transform="translate(14494510.0 10398760.0) rotate(0.0)"/><polyline stroke-linecap="round" stroke="black" stroke-width="50800.0" points="-0.0 0 0.0 0" transform="translate(14570710.0 10246360.0) rotate(0.0)"/><polyline stroke-linecap="round" stroke="black" stroke-width="50800.0" points="-0.0 0 0.0 0" transform="translate(15129510.0 10246360.0) rotate(0.0)"/></g></mask></defs><g transform="scale(-1,1)" id="boardContainer"><g id="substrate" clip-path="url(#cut-off)" mask="url(#hole-mask)"><g id="substrate-board" style="fill:#4ca06c; stroke:#4ca06c;"><path d=" M 15612110.0 9865360.0 L 14088110.0 9865360.0 L 14088110.0 11135360.0 L 15612110.0 11135360.0 L 15612110.0 9865360.0 " style="fill-rule: evenodd;"/><g style="fill-opacity: 0.0;stroke-width: 20320.000000;stroke-opacity: 1;stroke-linecap: round;stroke-linejoin: round">
<path d="M15612110 11135360 L15612110 9865360 "/>
<path d="M15612110 9865360 L14088110 9865360 "/>
<path d="M14088110 9865360 L14088110 11135360 "/>
<path d="M14088110 11135360 L15612110 11135360 "/>
</g> 
</g><g id="substrate-clad" style="fill:#9c6b28; stroke:#9c6b28;"><g style="fill-opacity: 0.0;stroke-width: 0.000000;stroke-opacity: 1;stroke-linecap: round;stroke-linejoin: round">
<g style="fill-opacity: 1.0;stroke-width: 0.100000;stroke-opacity: 1;stroke-linecap: round;stroke-linejoin: round">
<circle cx="15485110.000000" cy="11008360.000000" r="104140.000000"/> 
</g>
<g style="fill-opacity: 1.0;stroke-width: 0.100000;stroke-opacity: 1;stroke-linecap: round;stroke-linejoin: round">
<circle cx="15231110.000000" cy="11008360.000000" r="104140.000000"/> 
</g>
<g style="fill-opacity: 1.0;stroke-width: 0.100000;stroke-opacity: 1;stroke-linecap: round;stroke-linejoin: round">
<circle cx="14977110.000000" cy="11008360.000000" r="104140.000000"/> 
</g>
<g style="fill-opacity: 1.0;stroke-width: 0.100000;stroke-opacity: 1;stroke-linecap: round;stroke-linejoin: round">
<circle cx="14723110.000000" cy="11008360.000000" r="104140.000000"/> 
</g>
<g style="fill-opacity: 1.0;stroke-width: 0.100000;stroke-opacity: 1;stroke-linecap: round;stroke-linejoin: round">
<circle cx="14469110.000000" cy="11008360.000000" r="104140.000000"/> 
</g>
<g style="fill-opacity: 1.0;stroke-width: 0.100000;stroke-opacity: 1;stroke-linecap: round;stroke-linejoin: round">
<circle cx="14215110.000000" cy="11008360.000000" r="104140.000000"/> 
</g>
<g style="fill-opacity: 1.0;stroke-width: 0.100000;stroke-opacity: 1;stroke-linecap: round;stroke-linejoin: round">
<circle cx="14215110.000000" cy="9992360.000000" r="104140.000000"/> 
</g>
<g style="fill-opacity: 1.0;stroke-width: 0.100000;stroke-opacity: 1;stroke-linecap: round;stroke-linejoin: round">
<circle cx="14469110.000000" cy="9992360.000000" r="104140.000000"/> 
</g>
<g style="fill-opacity: 1.0;stroke-width: 0.100000;stroke-opacity: 1;stroke-linecap: round;stroke-linejoin: round">
<circle cx="14723110.000000" cy="9992360.000000" r="104140.000000"/> 
</g>
<g style="fill-opacity: 1.0;stroke-width: 0.100000;stroke-opacity: 1;stroke-linecap: round;stroke-linejoin: round">
<circle cx="14977110.000000" cy="9992360.000000" r="104140.000000"/> 
</g>
<g style="fill-opacity: 1.0;stroke-width: 0.100000;stroke-opacity: 1;stroke-linecap: round;stroke-linejoin: round">
<circle cx="15231110.000000" cy="9992360.000000" r="104140.000000"/> 
</g>
<g style="fill-opacity: 1.0;stroke-width: 0.100000;stroke-opacity: 1;stroke-linecap: round;stroke-linejoin: round">
<circle cx="15485110.000000" cy="9992360.000000" r="104140.000000"/> 
</g>
</g> 
</g><g id="substrate-copper" style="fill:#417e5a; stroke:#417e5a;"><g style="fill-opacity: 0.0;stroke-width: 12192.000000;stroke-opacity: 1;stroke-linecap: round;stroke-linejoin: round">
<g transform="rotate(90.000000 15599410.000000 10386060.000000)">
<text x="15599410.000000" y="10455148.000000" transform="scale(-1 1) translate(-31198820.000000 0)" textLength="190814.400000" font-size="92117.300000" lengthAdjust="spacingAndGlyphs" text-anchor="end" opacity="0">V13</text>
</g>
<g class="stroked-text"><desc>V13</desc>
<path d="M15602699 10578219 L15533611 10555190 L15602699 10532160 "/>
<path d="M15533611 10472942 L15533611 10512421 "/>
<path d="M15533611 10492681 L15602699 10492681 L15592830 10499261 L15586250 10505841 L15582960 10512421 "/>
<path d="M15602699 10449913 L15602699 10407144 L15576380 10430173 L15576380 10420304 L15573090 10413724 L15569800 10410434 L15563221 10407144 L15546771 10407144 L15540191 10410434 L15536901 10413724 L15533611 10420304 L15533611 10440043 L15536901 10446623 L15540191 10449913 "/>
</g><g style="fill-opacity: 1.0;stroke-width: 0.100000;stroke-opacity: 1;stroke-linecap: round;stroke-linejoin: round">
<circle cx="15485110.000000" cy="11008360.000000" r="93980.000000"/> 
</g>
<g style="fill-opacity: 1.0;stroke-width: 0.100000;stroke-opacity: 1;stroke-linecap: round;stroke-linejoin: round">
<circle cx="15231110.000000" cy="11008360.000000" r="93980.000000"/> 
</g>
<g style="fill-opacity: 1.0;stroke-width: 0.100000;stroke-opacity: 1;stroke-linecap: round;stroke-linejoin: round">
<circle cx="14977110.000000" cy="11008360.000000" r="93980.000000"/> 
</g>
<g style="fill-opacity: 1.0;stroke-width: 0.100000;stroke-opacity: 1;stroke-linecap: round;stroke-linejoin: round">
<circle cx="14723110.000000" cy="11008360.000000" r="93980.000000"/> 
</g>
<g style="fill-opacity: 1.0;stroke-width: 0.100000;stroke-opacity: 1;stroke-linecap: round;stroke-linejoin: round">
<circle cx="14469110.000000" cy="11008360.000000" r="93980.000000"/> 
</g>
<g style="fill-opacity: 1.0;stroke-width: 0.100000;stroke-opacity: 1;stroke-linecap: round;stroke-linejoin: round">
<circle cx="14215110.000000" cy="11008360.000000" r="93980.000000"/> 
</g>
<g style="fill-opacity: 1.0;stroke-width: 0.100000;stroke-opacity: 1;stroke-linecap: round;stroke-linejoin: round">
<circle cx="14215110.000000" cy="9992360.000000" r="93980.000000"/> 
</g>
<g style="fill-opacity: 1.0;stroke-width: 0.100000;stroke-opacity: 1;stroke-linecap: round;stroke-linejoin: round">
<circle cx="14469110.000000" cy="9992360.000000" r="93980.000000"/> 
</g>
<g style="fill-opacity: 1.0;stroke-width: 0.100000;stroke-opacity: 1;stroke-linecap: round;stroke-linejoin: round">
<circle cx="14723110.000000" cy="9992360.000000" r="93980.000000"/> 
</g>
<g style="fill-opacity: 1.0;stroke-width: 0.100000;stroke-opacity: 1;stroke-linecap: round;stroke-linejoin: round">
<circle cx="14977110.000000" cy="9992360.000000" r="93980.000000"/> 
</g>
<g style="fill-opacity: 1.0;stroke-width: 0.100000;stroke-opacity: 1;stroke-linecap: round;stroke-linejoin: round">
<circle cx="15231110.000000" cy="9992360.000000" r="93980.000000"/> 
</g>
<g style="fill-opacity: 1.0;stroke-width: 0.100000;stroke-opacity: 1;stroke-linecap: round;stroke-linejoin: round">
<circle cx="15485110.000000" cy="9992360.000000" r="93980.000000"/> 
</g>
<g style="fill-opacity: 1.0;stroke-width: 0.100000;stroke-opacity: 1;stroke-linecap: round;stroke-linejoin: round">
<circle cx="15205710.000000" cy="10398760.000000" r="50800.000000"/> 
</g>
<g style="fill-opacity: 1.0;stroke-width: 0.100000;stroke-opacity: 1;stroke-linecap: round;stroke-linejoin: round">
<circle cx="14494510.000000" cy="10398760.000000" r="50800.000000"/> 
</g>
<g style="fill-opacity: 1.0;stroke-width: 0.100000;stroke-opacity: 1;stroke-linecap: round;stroke-linejoin: round">
<circle cx="14570710.000000" cy="10246360.000000" r="50800.000000"/> 
</g>
<g style="fill-opacity: 1.0;stroke-width: 0.100000;stroke-opacity: 1;stroke-linecap: round;stroke-linejoin: round">
<circle cx="15129510.000000" cy="10246360.000000" r="50800.000000"/> 
</g>
<g style="fill-opacity: 0.0;stroke-width: 30480.000000;stroke-opacity: 1;stroke-linecap: round;stroke-linejoin: round">
<path d="M14723110 10398760 L15205710 10398760 "/>
<path d="M14494510 10398760 L14723110 10398760 "/>
<path d="M14723110 10398760 L14723110 11008360 "/>
<path d="M14723110 10246360 L15129510 10246360 "/>
<path d="M14570710 10246360 L14723110 10246360 "/>
<path d="M14723110 10246360 L14723110 9992360 "/>
</g>
</g> 
</g><g id="substrate-pads" style="fill:#b5ae30; stroke:#b5ae30;" mask="url(#pads-mask)"><g style="fill-opacity: 0.0;stroke-width: 12192.000000;stroke-opacity: 1;stroke-linecap: round;stroke-linejoin: round">
<g transform="rotate(90.000000 15599410.000000 10386060.000000)">
<text x="15599410.000000" y="10455148.000000" transform="scale(-1 1) translate(-31198820.000000 0)" textLength="174964.900000" font-size="92117.300000" lengthAdjust="spacingAndGlyphs" text-anchor="end" opacity="0">V13</text>
</g>
<g class="stroked-text"><desc>V13</desc>
<path d="M15602699 10578219 L15533611 10555190 L15602699 10532160 "/>
<path d="M15533611 10472942 L15533611 10512421 "/>
<path d="M15533611 10492681 L15602699 10492681 L15592830 10499261 L15586250 10505841 L15582960 10512421 "/>
<path d="M15602699 10449913 L15602699 10407144 L15576380 10430173 L15576380 10420304 L15573090 10413724 L15569800 10410434 L15563221 10407144 L15546771 10407144 L15540191 10410434 L15536901 10413724 L15533611 10420304 L15533611 10440043 L15536901 10446623 L15540191 10449913 "/>
</g><g style="fill-opacity: 1.0;stroke-width: 0.100000;stroke-opacity: 1;stroke-linecap: round;stroke-linejoin: round">
<circle cx="15485110.000000" cy="11008360.000000" r="93980.000000"/> 
</g>
<g style="fill-opacity: 1.0;stroke-width: 0.100000;stroke-opacity: 1;stroke-linecap: round;stroke-linejoin: round">
<circle cx="15231110.000000" cy="11008360.000000" r="93980.000000"/> 
</g>
<g style="fill-opacity: 1.0;stroke-width: 0.100000;stroke-opacity: 1;stroke-linecap: round;stroke-linejoin: round">
<circle cx="14977110.000000" cy="11008360.000000" r="93980.000000"/> 
</g>
<g style="fill-opacity: 1.0;stroke-width: 0.100000;stroke-opacity: 1;stroke-linecap: round;stroke-linejoin: round">
<circle cx="14723110.000000" cy="11008360.000000" r="93980.000000"/> 
</g>
<g style="fill-opacity: 1.0;stroke-width: 0.100000;stroke-opacity: 1;stroke-linecap: round;stroke-linejoin: round">
<circle cx="14469110.000000" cy="11008360.000000" r="93980.000000"/> 
</g>
<g style="fill-opacity: 1.0;stroke-width: 0.100000;stroke-opacity: 1;stroke-linecap: round;stroke-linejoin: round">
<circle cx="14215110.000000" cy="11008360.000000" r="93980.000000"/> 
</g>
<g style="fill-opacity: 1.0;stroke-width: 0.100000;stroke-opacity: 1;stroke-linecap: round;stroke-linejoin: round">
<circle cx="14215110.000000" cy="9992360.000000" r="93980.000000"/> 
</g>
<g style="fill-opacity: 1.0;stroke-width: 0.100000;stroke-opacity: 1;stroke-linecap: round;stroke-linejoin: round">
<circle cx="14469110.000000" cy="9992360.000000" r="93980.000000"/> 
</g>
<g style="fill-opacity: 1.0;stroke-width: 0.100000;stroke-opacity: 1;stroke-linecap: round;stroke-linejoin: round">
<circle cx="14723110.000000" cy="9992360.000000" r="93980.000000"/> 
</g>
<g style="fill-opacity: 1.0;stroke-width: 0.100000;stroke-opacity: 1;stroke-linecap: round;stroke-linejoin: round">
<circle cx="14977110.000000" cy="9992360.000000" r="93980.000000"/> 
</g>
<g style="fill-opacity: 1.0;stroke-width: 0.100000;stroke-opacity: 1;stroke-linecap: round;stroke-linejoin: round">
<circle cx="15231110.000000" cy="9992360.000000" r="93980.000000"/> 
</g>
<g style="fill-opacity: 1.0;stroke-width: 0.100000;stroke-opacity: 1;stroke-linecap: round;stroke-linejoin: round">
<circle cx="15485110.000000" cy="9992360.000000" r="93980.000000"/> 
</g>
<g style="fill-opacity: 1.0;stroke-width: 0.100000;stroke-opacity: 1;stroke-linecap: round;stroke-linejoin: round">
<circle cx="15205710.000000" cy="10398760.000000" r="50800.000000"/> 
</g>
<g style="fill-opacity: 1.0;stroke-width: 0.100000;stroke-opacity: 1;stroke-linecap: round;stroke-linejoin: round">
<circle cx="14494510.000000" cy="10398760.000000" r="50800.000000"/> 
</g>
<g style="fill-opacity: 1.0;stroke-width: 0.100000;stroke-opacity: 1;stroke-linecap: round;stroke-linejoin: round">
<circle cx="14570710.000000" cy="10246360.000000" r="50800.000000"/> 
</g>
<g style="fill-opacity: 1.0;stroke-width: 0.100000;stroke-opacity: 1;stroke-linecap: round;stroke-linejoin: round">
<circle cx="15129510.000000" cy="10246360.000000" r="50800.000000"/> 
</g>
<g style="fill-opacity: 0.0;stroke-width: 30480.000000;stroke-opacity: 1;stroke-linecap: round;stroke-linejoin: round">
<path d="M14723110 10398760 L15205710 10398760 "/>
<path d="M14494510 10398760 L14723110 10398760 "/>
<path d="M14723110 10398760 L14723110 11008360 "/>
<path d="M14723110 10246360 L15129510 10246360 "/>
<path d="M14570710 10246360 L14723110 10246360 "/>
<path d="M14723110 10246360 L14723110 9992360 "/>
</g>
</g> 
</g><g id="substrate-silk" style="fill:#f0f0f0; stroke:#f0f0f0;" mask="url(#pads-mask-silkscreen)"><g style="fill-opacity: 0.0;stroke-width: 12192.000000;stroke-opacity: 1;stroke-linecap: round;stroke-linejoin: round">
<text x="15358110.000000" y="10792460.000000" transform="scale(-1 1) translate(-30716220.000000 0)" textLength="790177.100000" font-size="92117.300000" lengthAdjust="spacingAndGlyphs" text-anchor="start" opacity="0">Level Converter</text>
<g class="stroked-text"><desc>Level Converter</desc>
<path d="M15300836 10789170 L15333735 10789170 L15333735 10720082 "/>
<path d="M15251488 10785880 L15258067 10789170 L15271227 10789170 L15277807 10785880 L15281097 10779300 L15281097 10752981 L15277807 10746401 L15271227 10743111 L15258067 10743111 L15251488 10746401 L15248198 10752981 L15248198 10759560 L15281097 10766140 "/>
<path d="M15225168 10743111 L15208719 10789170 L15192269 10743111 "/>
<path d="M15139631 10785880 L15146211 10789170 L15159370 10789170 L15165950 10785880 L15169240 10779300 L15169240 10752981 L15165950 10746401 L15159370 10743111 L15146211 10743111 L15139631 10746401 L15136341 10752981 L15136341 10759560 L15169240 10766140 "/>
<path d="M15096862 10789170 L15103442 10785880 L15106732 10779300 L15106732 10720082 "/>
<path d="M14978425 10782590 L14981715 10785880 L14991585 10789170 L14998165 10789170 L15008035 10785880 L15014614 10779300 L15017904 10772720 L15021194 10759560 L15021194 10749691 L15017904 10736531 L15014614 10729951 L15008035 10723372 L14998165 10720082 L14991585 10720082 L14981715 10723372 L14978425 10726661 "/>
<path d="M14938947 10789170 L14945526 10785880 L14948816 10782590 L14952106 10776010 L14952106 10756271 L14948816 10749691 L14945526 10746401 L14938947 10743111 L14929077 10743111 L14922497 10746401 L14919207 10749691 L14915917 10756271 L14915917 10776010 L14919207 10782590 L14922497 10785880 L14929077 10789170 L14938947 10789170 "/>
<path d="M14886308 10743111 L14886308 10789170 "/>
<path d="M14886308 10749691 L14883018 10746401 L14876438 10743111 L14866569 10743111 L14859989 10746401 L14856699 10752981 L14856699 10789170 "/>
<path d="M14830380 10743111 L14813930 10789170 L14797481 10743111 "/>
<path d="M14744842 10785880 L14751422 10789170 L14764582 10789170 L14771161 10785880 L14774451 10779300 L14774451 10752981 L14771161 10746401 L14764582 10743111 L14751422 10743111 L14744842 10746401 L14741552 10752981 L14741552 10759560 L14774451 10766140 "/>
<path d="M14711943 10789170 L14711943 10743111 "/>
<path d="M14711943 10756271 L14708653 10749691 L14705363 10746401 L14698784 10743111 L14692204 10743111 "/>
<path d="M14679044 10743111 L14652725 10743111 "/>
<path d="M14669174 10720082 L14669174 10779300 L14665885 10785880 L14659305 10789170 L14652725 10789170 "/>
<path d="M14603376 10785880 L14609956 10789170 L14623116 10789170 L14629696 10785880 L14632985 10779300 L14632985 10752981 L14629696 10746401 L14623116 10743111 L14609956 10743111 L14603376 10746401 L14600086 10752981 L14600086 10759560 L14632985 10766140 "/>
<path d="M14570477 10789170 L14570477 10743111 "/>
<path d="M14570477 10756271 L14567187 10749691 L14563897 10746401 L14557318 10743111 L14550738 10743111 "/>
</g></g>
<g style="fill-opacity: 0.0;stroke-width: 12700.000000;stroke-opacity: 1;stroke-linecap: round;stroke-linejoin: round">
<text x="15619730.000000" y="10939780.000000" transform="scale(-1 1) translate(-31239460.000000 0)" textLength="294393.300000" font-size="152400.000000" lengthAdjust="spacingAndGlyphs" text-anchor="end" opacity="0">JP1</text>
<g class="stroked-text"><desc>JP1</desc>
<path d="M15878356 10820037 L15878356 10901680 L15883799 10918008 L15894685 10928894 L15911013 10934337 L15921899 10934337 "/>
<path d="M15823927 10934337 L15823927 10820037 L15780385 10820037 L15769499 10825480 L15764056 10830922 L15758613 10841808 L15758613 10858137 L15764056 10869022 L15769499 10874465 L15780385 10879908 L15823927 10879908 "/>
<path d="M15649756 10934337 L15715070 10934337 "/>
<path d="M15682413 10934337 L15682413 10820037 L15693299 10836365 L15704185 10847251 L15715070 10852694 "/>
</g><text x="14080490.000000" y="10175240.000000" transform="scale(-1 1) translate(-28160980.000000 0)" textLength="293732.900000" font-size="152400.000000" lengthAdjust="spacingAndGlyphs" text-anchor="start" opacity="0">JP2</text>
<g class="stroked-text"><desc>JP2</desc>
<path d="M14012363 10055497 L14012363 10137140 L14017806 10153468 L14028692 10164354 L14045020 10169797 L14055906 10169797 "/>
<path d="M13957935 10169797 L13957935 10055497 L13914392 10055497 L13903506 10060940 L13898063 10066382 L13892620 10077268 L13892620 10093597 L13898063 10104482 L13903506 10109925 L13914392 10115368 L13957935 10115368 "/>
<path d="M13849077 10066382 L13843635 10060940 L13832749 10055497 L13805535 10055497 L13794649 10060940 L13789206 10066382 L13783763 10077268 L13783763 10088154 L13789206 10104482 L13854520 10169797 L13783763 10169797 "/>
</g></g>
<g style="fill-opacity: 1.0;stroke-width: 0.100000;stroke-opacity: 1;stroke-linecap: round;stroke-linejoin: round">
<path style="fill-opacity: 1.0;stroke-width: 0.100000;stroke-opacity: 1;stroke-linecap: round;stroke-linejoin: round;fill-rule: evenodd" d="M 14296118.400000,10191455.400000 14319292.300000,10201056.500000 14358772.000000,10168865.400000 14394204.600000,10204298.000000 14362013.500000,10243777.700000 14371614.600000,10266951.600000 14422290.000000,10272103.900000 14422290.000000,10322216.100000 14371614.600000,10327368.400000 14362013.500000,10350542.300000 14394204.600000,10390022.000000 14358772.000000,10425454.600000 14319802.200000,10393679.200000 14316569.700000,10395517.700000 14301443.200000,10402533.200000 14278839.000000,10347970.000000 14256742.300000,10347970.000000 14290841.200000,10327537.300000 14298202.300000,10319416.500000 14305127.600000,10296583.300000 14303591.300000,10286003.100000 14298868.900000,10275763.800000 14291433.400000,10267287.600000 14281896.800000,10261271.900000 14271044.200000,10258212.000000 14259769.400000,10258360.100000 14249001.300000,10261703.900000 14239625.800000,10267968.200000 14232415.300000,10276637.100000 14227963.600000,10286996.600000 14226637.100000,10298193.900000 14228545.100000,10309306.800000 14233283.800000,10318920.000000 14257042.100000,10338167.300000 14230249.900000,10402839.400000 14212192.300000,10393537.000000 14173048.000000,10425454.600000 14137615.400000,10390022.000000 14169806.500000,10350542.300000 14160205.400000,10327368.400000 14109530.000000,10322216.100000 14109530.000000,10272103.900000 14160205.400000,10266951.600000 14169806.500000,10243777.700000 14137615.400000,10204298.000000 14173048.000000,10168865.400000 14212192.300000,10200783.100000 14223563.000000,10194925.600000 14235745.300000,10191024.900000 14240853.900000,10140780.000000 14290966.100000,10140780.000000 Z"/> 
</g>
<g style="fill-opacity: 0.0;stroke-width: 20320.000000;stroke-opacity: 1;stroke-linecap: round;stroke-linejoin: round">
<path d="M15548610 10881360 L15421610 10881360 "/>
<path d="M15358110 10944860 L15294610 10881360 "/>
<path d="M14913610 10881360 L14850110 10944860 "/>
<path d="M14659610 11135360 L14786610 11135360 "/>
<path d="M15421610 11135360 L15548610 11135360 "/>
<path d="M14278610 10881360 L14151610 10881360 "/>
<path d="M14088110 10944860 L14088110 11071860 "/>
<path d="M15548610 10881360 L15612110 10944860 "/>
<path d="M14532610 10881360 L14405610 10881360 "/>
<path d="M14786610 10881360 L14850110 10944860 "/>
<path d="M14342110 11071860 L14405610 11135360 "/>
<path d="M15104110 10944860 L15040610 10881360 "/>
<path d="M14913610 11135360 L15040610 11135360 "/>
<path d="M14405610 11135360 L14532610 11135360 "/>
<path d="M15104110 11071860 L15167610 11135360 "/>
<path d="M15040610 11135360 L15104110 11071860 "/>
<path d="M14151610 11135360 L14278610 11135360 "/>
<path d="M14659610 10881360 L14596110 10944860 "/>
<path d="M14532610 11135360 L14596110 11071860 "/>
<path d="M14850110 11071860 L14913610 11135360 "/>
<path d="M14786610 10881360 L14659610 10881360 "/>
<path d="M14088110 11071860 L14151610 11135360 "/>
<path d="M14151610 10881360 L14088110 10944860 "/>
<path d="M15612110 10944860 L15612110 11071860 "/>
<path d="M14278610 11135360 L14342110 11071860 "/>
<path d="M15612110 11071860 L15548610 11135360 "/>
<path d="M14850110 11071860 L14786610 11135360 "/>
<path d="M15294610 11135360 L15358110 11071860 "/>
<path d="M15358110 11071860 L15421610 11135360 "/>
<path d="M14596110 10944860 L14532610 10881360 "/>
<path d="M15294610 10881360 L15167610 10881360 "/>
<path d="M15167610 11135360 L15294610 11135360 "/>
<path d="M15167610 10881360 L15104110 10944860 "/>
<path d="M14596110 11071860 L14659610 11135360 "/>
<path d="M14342110 10944860 L14278610 10881360 "/>
<path d="M15040610 10881360 L14913610 10881360 "/>
<path d="M15421610 10881360 L15358110 10944860 "/>
<path d="M14405610 10881360 L14342110 10944860 "/>
</g>
<g style="fill-opacity: 0.0;stroke-width: 2540.000000;stroke-opacity: 1;stroke-linecap: round;stroke-linejoin: round">
<path d="M14295120 10595360 L14295120 10498840 "/>
<path d="M14254230 10489950 L14254230 10595360 "/>
<path d="M14400780 10596370 L14400780 10439150 "/>
<path d="M14254230 10595360 L14295120 10595360 "/>
<path d="M14400780 10439150 L14360400 10439150 "/>
<path d="M14360400 10461240 L14359640 10461240 "/>
<path d="M14360400 10439150 L14360400 10461240 "/>
<path d="M14358620 10509500 L14358620 10596370 "/>
<path d="M14358620 10596370 L14400780 10596370 "/>
<path d="M14295629.722714 10435837.001025 A43558.000000 43558.000000 0.0 0 0 14268960.026293 10448290.126499"/>
<path d="M14257529.674076 10467589.906332 A85007.400000 85007.400000 0.0 0 0 14254229.978505 10489949.999717"/>
<path d="M14345161.228611 10446258.441790 A51054.900000 51054.900000 0.0 0 0 14315690.001278 10435339.969530"/>
<path d="M14319250.008435 10467089.816487 A16988.100000 16988.100000 0.0 0 0 14312649.984455 10468099.957373"/>
<path d="M14356590.014820 10458959.989209 A535335.600000 535335.600000 0.0 0 0 14353790.028002 10455149.979230"/>
<path d="M14300958.175230 10477748.905346 A40980.000000 40980.000000 0.0 0 0 14295120.001220 10498840.000000"/>
<path d="M14358619.778109 10502650.002848 A45193.500000 45193.500000 0.0 0 0 14355570.040668 10486899.984240"/>
<path d="M14358619.835902 10509499.997898 A267831.800000 267831.800000 0.0 0 0 14358619.963770 10502650.000463"/>
<path d="M14319249.999396 10467090.013142 A4466003.000000 4466003.000000 0.0 0 0 14330429.999668 10467590.007640"/>
<path d="M14315690.001835 10435339.956353 A150002.400000 150002.400000 0.0 0 0 14295630.004432 10435840.048110"/>
<path d="M14353789.251014 10455150.555224 A46865.800000 46865.800000 0.0 0 0 14345160.018561 10446259.976463"/>
<path d="M14356589.352728 10458960.471722 A14874.200000 14874.200000 0.0 0 0 14357859.977512 10460480.021505"/>
<path d="M14346429.285185 10473940.943640 A26224.800000 26224.800000 0.0 0 0 14330430.000443 10467589.989809"/>
<path d="M14312650.255166 10468100.700147 A22691.000000 22691.000000 0.0 0 0 14300959.981461 10477749.988883"/>
<path d="M14355568.050343 10486900.755221 A32749.100000 32749.100000 0.0 0 0 14346429.994521 10473940.006347"/>
<path d="M14357860.999224 10460479.045685 A2460.000000 2460.000000 0.0 0 0 14359640.000000 10461240.000000"/>
<path d="M14268960.308797 10448290.311360 A44491.100000 44491.100000 0.0 0 0 14257530.013639 10467590.103920"/>
</g>
<g style="fill-opacity: 1.0;stroke-width: 0.100000;stroke-opacity: 1;stroke-linecap: round;stroke-linejoin: round">
<path style="fill-opacity: 1.0;stroke-width: 0.100000;stroke-opacity: 1;stroke-linecap: round;stroke-linejoin: round;fill-rule: evenodd" d="M 15441602.500000,10459806.300000 15435970.600000,10492013.000000 15391508.900000,10518483.600000 15350003.100000,10541095.500000 15360356.500000,10571918.500000 15398590.500000,10580552.000000 15472562.000000,10543959.700000 15472152.300000,10549794.100000 15471104.100000,10555795.600000 15466711.200000,10568710.000000 15461487.500000,10577657.700000 15453888.700000,10584679.600000 15441725.500000,10592442.100000 15423660.700000,10598639.800000 15410671.700000,10599890.900000 15397702.000000,10600442.300000 15371071.900000,10598133.300000 15357525.000000,10593877.800000 15335232.500000,10576855.700000 15327144.300000,10557826.000000 15326628.300000,10552405.900000 15326361.600000,10547164.500000 15327629.600000,10547100.000000 15326387.100000,10546839.200000 15330752.100000,10526044.900000 15333452.200000,10521623.400000 15336978.200000,10517910.600000 15351742.200000,10508591.300000 15385746.200000,10498615.600000 15405963.200000,10494576.200000 15420255.100000,10487677.600000 15424949.500000,10481098.100000 15425494.700000,10475585.500000 15423548.500000,10470287.400000 15421253.000000,10467650.200000 15418245.900000,10465691.700000 15414010.900000,10464123.400000 15409550.900000,10463280.000000 15392555.500000,10463280.000000 15385228.200000,10465099.700000 15378801.600000,10468807.600000 15372275.000000,10478226.400000 15371402.000000,10484360.000000 15330027.000000,10484360.000000 15331002.600000,10475233.200000 15352254.300000,10461850.200000 15398221.800000,10448492.800000 Z"/> 
<path style="fill-opacity: 1.0;stroke-width: 0.100000;stroke-opacity: 1;stroke-linecap: round;stroke-linejoin: round;fill-rule: evenodd" d="M 15410370.300000,10434071.500000 15451786.700000,10446418.400000 15464030.000000,10460515.500000 15464030.000000,10460819.100000 15468552.800000,10477313.300000 15467840.000000,10494545.900000 15467840.000000,10494850.400000 15460174.300000,10508590.300000 15449398.300000,10516496.800000 15437262.100000,10521634.600000 15419093.900000,10526444.600000 15400866.900000,10530286.900000 15378036.600000,10538068.200000 15372823.600000,10542331.200000 15369831.100000,10548316.100000 15369549.700000,10555017.200000 15371643.400000,10560640.700000 15375597.100000,10565058.100000 15392619.000000,10570971.600000 15399130.000000,10571021.100000 15405810.400000,10570970.300000 15408637.400000,10570766.700000 15411326.200000,10570258.200000 15419989.600000,10566524.100000 15426945.300000,10560274.400000 15430369.800000,10553869.300000 15431260.000000,10546513.400000 15431260.000000,10544810.000000 15476276.600000,10544810.000000 15399949.500000,10585010.800000 15357644.500000,10575614.300000 15346067.800000,10541153.300000 15348254.400000,10536792.400000 15430621.500000,10488888.800000 15435153.700000,10463149.900000 15398760.400000,10452159.800000 15357176.500000,10465435.900000 15337031.600000,10480348.900000 15330681.700000,10475668.600000 15333044.700000,10469173.300000 15334703.200000,10465099.700000 15336706.100000,10461077.600000 15343225.900000,10452473.500000 15353055.800000,10444720.100000 15364259.200000,10439226.600000 15377985.700000,10435480.100000 15392081.500000,10434070.500000 15401165.000000,10433996.600000 Z"/> 
<path style="fill-opacity: 1.0;stroke-width: 0.100000;stroke-opacity: 1;stroke-linecap: round;stroke-linejoin: round;fill-rule: evenodd" d="M 14574010.000000,10546917.700000 14572190.000000,10561750.100000 14566810.900000,10575775.800000 14558226.700000,10588049.400000 14556890.600000,10589384.400000 14555157.800000,10590780.000000 14555020.500000,10590780.000000 14541268.100000,10597934.200000 14525567.000000,10600950.400000 14495537.000000,10598383.900000 14492683.100000,10597508.700000 14490025.200000,10596182.600000 14476247.400000,10585663.500000 14467080.000000,10574888.700000 14467080.000000,10596880.000000 14424410.000000,10596880.000000 14424410.000000,10438130.000000 14469110.000000,10438130.000000 14469110.000000,10522381.600000 14472103.300000,10546563.400000 14487057.100000,10563969.200000 14500999.700000,10566722.600000 14515099.200000,10563686.600000 14520803.100000,10560041.500000 14525121.200000,10554862.600000 14530070.000000,10538779.100000 14530070.000000,10437620.000000 14574010.000000,10437620.000000 Z"/> 
<path style="fill-opacity: 1.0;stroke-width: 0.100000;stroke-opacity: 1;stroke-linecap: round;stroke-linejoin: round;fill-rule: evenodd" d="M 15230490.800000,10434571.700000 15235541.900000,10435640.600000 15248999.300000,10441070.400000 15256598.000000,10446576.100000 15265579.600000,10456325.500000 15266908.800000,10457806.200000 15266650.700000,10437103.200000 15308070.000000,10444948.000000 15308070.000000,10652304.800000 15264130.000000,10691935.700000 15264130.000000,10578101.300000 15246962.900000,10594579.400000 15235387.400000,10598660.000000 15235161.100000,10598660.000000 15198374.400000,10598147.000000 15185912.700000,10593760.400000 15174812.200000,10586713.800000 15165516.700000,10577280.200000 15148800.200000,10538187.300000 15150466.600000,10493580.600000 15159740.000000,10464509.700000 15159740.000000,10468689.100000 15171249.500000,10452486.900000 15179703.000000,10445791.700000 15188944.900000,10440252.100000 15210375.300000,10434317.800000 Z"/> 
<path style="fill-opacity: 1.0;stroke-width: 0.100000;stroke-opacity: 1;stroke-linecap: round;stroke-linejoin: round;fill-rule: evenodd" d="M 14894609.200000,10441037.700000 14903736.400000,10447043.800000 14911034.200000,10454074.600000 14914525.900000,10459407.600000 14917967.200000,10464606.300000 14919753.100000,10467289.600000 14920210.000000,10467438.900000 14920210.000000,10438134.500000 14961358.100000,10445445.400000 14961622.200000,10596630.000000 14917420.000000,10596630.000000 14917420.000000,10517223.800000 14914679.800000,10500517.700000 14908645.800000,10488994.900000 14899216.900000,10480130.300000 14883649.100000,10474701.000000 14876145.000000,10474386.000000 14868517.800000,10474706.200000 14865571.300000,10475135.300000 14862620.700000,10475938.900000 14861757.000000,10476154.600000 14860831.700000,10476230.000000 14859250.000000,10476230.000000 14859250.000000,10435148.400000 14874411.600000,10434308.500000 Z"/> 
<path style="fill-opacity: 1.0;stroke-width: 0.100000;stroke-opacity: 1;stroke-linecap: round;stroke-linejoin: round;fill-rule: evenodd" d="M 14627456.600000,10381264.100000 14639973.300000,10387566.100000 14650490.100000,10396966.300000 14658066.800000,10413158.000000 14659860.000000,10434777.400000 14659860.000000,10438130.000000 14672836.100000,10438130.000000 14702027.000000,10467320.900000 14660370.000000,10467582.100000 14660370.000000,10597640.000000 14616180.000000,10597640.000000 14616180.000000,10467340.000000 14586200.000000,10467340.000000 14586200.000000,10438130.000000 14615920.000000,10438130.000000 14615920.000000,10425516.400000 14615290.800000,10420899.800000 14613616.400000,10416853.600000 14606374.900000,10411710.000000 14588299.200000,10411710.000000 14585498.800000,10411970.000000 14583410.000000,10411970.000000 14583410.000000,10379200.000000 14584898.300000,10379200.000000 14591466.500000,10378870.500000 14598098.800000,10378440.000000 14613769.700000,10378440.000000 Z"/> 
<path style="fill-opacity: 1.0;stroke-width: 0.100000;stroke-opacity: 1;stroke-linecap: round;stroke-linejoin: round;fill-rule: evenodd" d="M 14331732.800000,10437270.400000 14345905.200000,10445221.900000 14350683.300000,10449532.100000 14354785.900000,10454360.800000 14356217.600000,10456299.800000 14357590.500000,10458176.600000 14358724.300000,10459533.700000 14359130.000000,10459814.600000 14359130.000000,10437880.000000 14402050.000000,10437880.000000 14402050.000000,10597640.000000 14357350.000000,10597640.000000 14357350.000000,10502771.700000 14354375.000000,10487409.200000 14345610.000000,10474980.900000 14330160.500000,10468849.400000 14324783.100000,10468612.200000 14319318.000000,10468364.400000 14313075.500000,10469319.700000 14306795.900000,10472913.600000 14302108.000000,10478362.900000 14296390.000000,10499012.600000 14296390.000000,10596630.000000 14252960.000000,10596630.000000 14252960.000000,10489856.800000 14256310.100000,10467157.600000 14268067.200000,10447305.200000 14295333.200000,10434577.000000 14315800.700000,10434066.800000 Z"/> 
<path style="fill-opacity: 1.0;stroke-width: 0.100000;stroke-opacity: 1;stroke-linecap: round;stroke-linejoin: round;fill-rule: evenodd" d="M 15080715.600000,10436115.200000 15093210.200000,10439513.100000 15105009.200000,10444900.300000 15115272.200000,10452513.800000 15123280.800000,10462510.600000 15128484.100000,10474215.200000 15130513.500000,10486696.200000 15129510.000000,10486859.400000 15129510.000000,10487910.000000 15085820.000000,10487910.000000 15085820.000000,10486265.900000 15084105.100000,10477688.400000 15071742.100000,10465465.000000 15060313.200000,10463282.600000 15053606.700000,10463427.400000 15046970.400000,10463768.300000 15036587.400000,10467634.600000 15030700.000000,10475877.000000 15030700.000000,10491714.500000 15031069.800000,10492560.300000 15031663.900000,10493420.900000 15034505.700000,10496029.700000 15038782.900000,10498496.300000 15043493.300000,10500154.500000 15049929.200000,10501516.600000 15056506.800000,10502398.400000 15067545.200000,10503499.900000 15078684.200000,10504696.800000 15109168.400000,10512383.400000 15119631.200000,10518569.800000 15127779.200000,10527577.800000 15132215.900000,10536497.600000 15134340.000000,10546192.500000 15134340.000000,10546443.700000 15128682.700000,10577806.800000 15123727.400000,10585195.000000 15116992.700000,10590846.600000 15104027.500000,10597034.400000 15089991.700000,10600188.800000 15057091.200000,10598135.100000 15041503.600000,10592001.000000 15028515.400000,10581971.400000 15028377.900000,10581907.200000 15027780.800000,10582365.400000 15025585.100000,10592346.700000 15025209.800000,10593786.500000 15024660.600000,10595732.100000 15022882.500000,10596630.000000 14980361.600000,10596630.000000 14981739.100000,10592932.400000 14985228.100000,10579983.500000 14986249.700000,10566605.600000 14985992.700000,10521950.000000 14986250.000000,10521950.000000 14986250.000000,10472670.000000 14986442.900000,10472670.000000 14987928.600000,10463693.400000 15000151.000000,10447807.700000 15013537.600000,10440688.800000 15027911.700000,10436368.500000 15054307.000000,10433726.200000 Z"/> 
<path style="fill-opacity: 1.0;stroke-width: 0.100000;stroke-opacity: 1;stroke-linecap: round;stroke-linejoin: round;fill-rule: evenodd" d="M 14843000.000000,10402082.400000 14843000.000000,10596646.100000 14841746.100000,10597900.000000 14798550.000000,10597900.000000 14798550.000000,10542556.800000 14782014.200000,10526488.400000 14739317.100000,10596876.500000 14685419.100000,10597141.700000 14752709.100000,10496211.700000 14693575.000000,10438380.000000 14743956.100000,10438380.000000 14799060.000000,10493484.000000 14799060.000000,10377013.300000 Z"/> 
</g>
<g style="fill-opacity: 0.0;stroke-width: 20320.000000;stroke-opacity: 1;stroke-linecap: round;stroke-linejoin: round">
<path d="M15421610 10119360 L15548610 10119360 "/>
<path d="M15040610 10119360 L15104110 10055860 "/>
<path d="M14278610 9865360 L14151610 9865360 "/>
<path d="M15612110 10055860 L15612110 9928860 "/>
<path d="M14405610 10119360 L14532610 10119360 "/>
<path d="M14786610 9865360 L14659610 9865360 "/>
<path d="M15548610 9865360 L15421610 9865360 "/>
<path d="M15167610 9865360 L15104110 9928860 "/>
<path d="M15040610 9865360 L14913610 9865360 "/>
<path d="M14342110 9928860 L14278610 9865360 "/>
<path d="M14278610 10119360 L14342110 10055860 "/>
<path d="M14786610 10119360 L14850110 10055860 "/>
<path d="M15358110 9928860 L15294610 9865360 "/>
<path d="M14596110 9928860 L14532610 9865360 "/>
<path d="M14659610 9865360 L14596110 9928860 "/>
<path d="M14659610 10119360 L14786610 10119360 "/>
<path d="M14151610 10119360 L14278610 10119360 "/>
<path d="M14850110 9928860 L14786610 9865360 "/>
<path d="M15612110 9928860 L15548610 9865360 "/>
<path d="M14596110 10055860 L14659610 10119360 "/>
<path d="M14342110 10055860 L14405610 10119360 "/>
<path d="M15358110 10055860 L15421610 10119360 "/>
<path d="M14913610 10119360 L14850110 10055860 "/>
<path d="M14850110 9928860 L14913610 9865360 "/>
<path d="M14088110 9928860 L14151610 9865360 "/>
<path d="M15104110 10055860 L15167610 10119360 "/>
<path d="M14151610 10119360 L14088110 10055860 "/>
<path d="M15294610 10119360 L15358110 10055860 "/>
<path d="M14088110 10055860 L14088110 9928860 "/>
<path d="M15421610 9865360 L15358110 9928860 "/>
<path d="M15104110 9928860 L15040610 9865360 "/>
<path d="M15167610 10119360 L15294610 10119360 "/>
<path d="M14913610 10119360 L15040610 10119360 "/>
<path d="M14405610 9865360 L14342110 9928860 "/>
<path d="M15294610 9865360 L15167610 9865360 "/>
<path d="M14532610 9865360 L14405610 9865360 "/>
<path d="M14532610 10119360 L14596110 10055860 "/>
<path d="M15548610 10119360 L15612110 10055860 "/>
</g>
<g style="fill-opacity: 1.0;stroke-width: 0.100000;stroke-opacity: 1;stroke-linecap: round;stroke-linejoin: round">
<path style="fill-opacity: 1.0;stroke-width: 0.100000;stroke-opacity: 1;stroke-linecap: round;stroke-linejoin: round;fill-rule: evenodd" d="M 14683319.900000,10149448.000000 14698305.800000,10161849.700000 14698460.500000,10162004.400000 14705043.300000,10173074.500000 14702739.300000,10197836.300000 14676118.600000,10231119.900000 14670439.400000,10239275.600000 14669007.000000,10248694.100000 14678788.000000,10265194.400000 14686933.200000,10269151.600000 14695987.100000,10270985.800000 14706556.500000,10269805.000000 14715975.700000,10264891.500000 14719069.500000,10261642.600000 14721119.500000,10257637.100000 14722170.500000,10251310.000000 14721137.800000,10245093.000000 14719158.100000,10242444.600000 14711031.600000,10236545.900000 14708988.400000,10235635.800000 14705431.200000,10235716.700000 14705219.000000,10233350.100000 14711271.600000,10232397.700000 14720820.000000,10231651.100000 14730497.800000,10232407.800000 14744380.500000,10237611.100000 14755209.600000,10247963.300000 14762470.000000,10272083.000000 14762470.000000,10427251.000000 14711577.800000,10369981.600000 14693032.400000,10356200.800000 14689589.900000,10354955.400000 14685909.500000,10354310.000000 14662986.100000,10354310.000000 14623396.900000,10343259.000000 14594580.000000,10316101.900000 14594580.000000,10318002.200000 14582679.200000,10296875.800000 14576324.300000,10278418.000000 14573404.000000,10259116.500000 14574049.700000,10238470.600000 14574391.400000,10238475.900000 14584839.300000,10209347.300000 14607530.000000,10186366.200000 14607530.000000,10198178.800000 14608158.600000,10200464.400000 14614584.300000,10206421.100000 14615323.600000,10206741.400000 14616136.300000,10206996.800000 14624275.200000,10207277.600000 14631803.100000,10204096.200000 14640743.400000,10197640.400000 14648401.000000,10189973.100000 14653273.500000,10180477.500000 14653724.500000,10174631.400000 14640368.200000,10158368.600000 14630526.700000,10156440.000000 14623280.000000,10156440.000000 14623280.000000,10153900.000000 14624040.600000,10153900.000000 14633654.800000,10148176.600000 14635524.000000,10147502.400000 14637195.100000,10146672.500000 14638362.300000,10146081.700000 14639665.100000,10145577.100000 14648609.800000,10143339.700000 14657942.400000,10142453.600000 Z"/> 
</g> 
</g><g id="substrate-outline" style="fill:#000000; stroke:#000000; stroke-width: 15000.0"><g style="fill-opacity: 0.0;stroke-opacity: 1;stroke-linecap: round;stroke-linejoin: round">
<path d="M15612110 11135360 L15612110 9865360 "/>
<path d="M15612110 9865360 L14088110 9865360 "/>
<path d="M14088110 9865360 L14088110 11135360 "/>
<path d="M14088110 11135360 L15612110 11135360 "/>
</g> 
<path d="M -50800.0 0.0 A 50800.0 50800.0 0 1 1 50800.0 0.0 L 50800.0 -0.0 A 50800.0 50800.0 0 1 1 -50800.0 -0.0 Z" transform="translate(15485110.0 11008360.0) rotate(-90.0)"/><path d="M -50800.0 0.0 A 50800.0 50800.0 0 1 1 50800.0 0.0 L 50800.0 -0.0 A 50800.0 50800.0 0 1 1 -50800.0 -0.0 Z" transform="translate(15231110.0 11008360.0) rotate(-90.0)"/><path d="M -50800.0 0.0 A 50800.0 50800.0 0 1 1 50800.0 0.0 L 50800.0 -0.0 A 50800.0 50800.0 0 1 1 -50800.0 -0.0 Z" transform="translate(14977110.0 11008360.0) rotate(-90.0)"/><path d="M -50800.0 0.0 A 50800.0 50800.0 0 1 1 50800.0 0.0 L 50800.0 -0.0 A 50800.0 50800.0 0 1 1 -50800.0 -0.0 Z" transform="translate(14723110.0 11008360.0) rotate(-90.0)"/><path d="M -50800.0 0.0 A 50800.0 50800.0 0 1 1 50800.0 0.0 L 50800.0 -0.0 A 50800.0 50800.0 0 1 1 -50800.0 -0.0 Z" transform="translate(14469110.0 11008360.0) rotate(-90.0)"/><path d="M -50800.0 0.0 A 50800.0 50800.0 0 1 1 50800.0 0.0 L 50800.0 -0.0 A 50800.0 50800.0 0 1 1 -50800.0 -0.0 Z" transform="translate(14215110.0 11008360.0) rotate(-90.0)"/><path d="M -50800.0 0.0 A 50800.0 50800.0 0 1 1 50800.0 0.0 L 50800.0 -0.0 A 50800.0 50800.0 0 1 1 -50800.0 -0.0 Z" transform="translate(14215110.0 9992360.0) rotate(-270.0)"/><path d="M -50800.0 0.0 A 50800.0 50800.0 0 1 1 50800.0 0.0 L 50800.0 -0.0 A 50800.0 50800.0 0 1 1 -50800.0 -0.0 Z" transform="translate(14469110.0 9992360.0) rotate(-270.0)"/><path d="M -50800.0 0.0 A 50800.0 50800.0 0 1 1 50800.0 0.0 L 50800.0 -0.0 A 50800.0 50800.0 0 1 1 -50800.0 -0.0 Z" transform="translate(14723110.0 9992360.0) rotate(-270.0)"/><path d="M -50800.0 0.0 A 50800.0 50800.0 0 1 1 50800.0 0.0 L 50800.0 -0.0 A 50800.0 50800.0 0 1 1 -50800.0 -0.0 Z" transform="translate(14977110.0 9992360.0) rotate(-270.0)"/><path d="M -50800.0 0.0 A 50800.0 50800.0 0 1 1 50800.0 0.0 L 50800.0 -0.0 A 50800.0 50800.0 0 1 1 -50800.0 -0.0 Z" transform="translate(15231110.0 9992360.0) rotate(-270.0)"/><path d="M -50800.0 0.0 A 50800.0 50800.0 0 1 1 50800.0 0.0 L 50800.0 -0.0 A 50800.0 50800.0 0 1 1 -50800.0 -0.0 Z" transform="translate(15485110.0 9992360.0) rotate(-270.0)"/><path d="M -25400.0 0.0 A 25400.0 25400.0 0 1 1 25400.0 0.0 L 25400.0 -0.0 A 25400.0 25400.0 0 1 1 -25400.0 -0.0 Z" transform="translate(15205710.0 10398760.0) rotate(0.0)"/><path d="M -25400.0 0.0 A 25400.0 25400.0 0 1 1 25400.0 0.0 L 25400.0 -0.0 A 25400.0 25400.0 0 1 1 -25400.0 -0.0 Z" transform="translate(14494510.0 10398760.0) rotate(0.0)"/><path d="M -25400.0 0.0 A 25400.0 25400.0 0 1 1 25400.0 0.0 L 25400.0 -0.0 A 25400.0 25400.0 0 1 1 -25400.0 -0.0 Z" transform="translate(14570710.0 10246360.0) rotate(0.0)"/><path d="M -25400.0 0.0 A 25400.0 25400.0 0 1 1 25400.0 0.0 L 25400.0 -0.0 A 25400.0 25400.0 0 1 1 -25400.0 -0.0 Z" transform="translate(15129510.0 10246360.0) rotate(0.0)"/></g></g></g></svg>