<?xml version="1.0" standalone="no"?>
 <!DOCTYPE svg PUBLIC "-//W3C//DTD SVG 1.1//EN" 
 "http://www.w3.org/Graphics/SVG/1.1/DTD/svg11.dtd"> 
<svg
  xmlns:svg="http://www.w3.org/2000/svg"
  xmlns="http://www.w3.org/2000/svg"
  xmlns:xlink="http://www.w3.org/1999/xlink"
  version="1.1"
  width="29.700220cm" height="21.000720cm" viewBox="0 0 297002200 210007200">
<title>SVG Picture created as kicadBoard-B_Courtyard.svg date 2022/11/06 04:15:31 </title>
  <desc>Picture generated by PCBNEW </desc>
<g style="fill:#000000; fill-opacity:1.000000;stroke:#000000; stroke-opacity:1.000000;
stroke-linecap:round; stroke-linejoin:round;"
 transform="translate(0 0) scale(1 1)">
</g>
<g style="fill:#000000; fill-opacity:0.0; 
stroke:#000000; stroke-width:0.000000; stroke-opacity:1; 
stroke-linecap:round; stroke-linejoin:round;">
</g>
<g style="fill:#000000; fill-opacity:0.0; 
stroke:#000000; stroke-width:21200.000000; stroke-opacity:1; 
stroke-linecap:round; stroke-linejoin:round;">
</g>
<g style="fill:#000000; fill-opacity:0.0; 
stroke:#000000; stroke-width:150000.000000; stroke-opacity:1; 
stroke-linecap:round; stroke-linejoin:round;">
<rect x="177002200.000000" y="166007200.000000" width="108000000.000000" height="32000000.000000" rx="0.000000" />
</g>
<g style="fill:#000000; fill-opacity:0.0; 
stroke:#000000; stroke-width:21200.000000; stroke-opacity:1; 
stroke-linecap:round; stroke-linejoin:round;">
</g>
<g style="fill:#000000; fill-opacity:0.0; 
stroke:#000000; stroke-width:150000.000000; stroke-opacity:1; 
stroke-linecap:round; stroke-linejoin:round;">
<rect x="10000000.000000" y="10000000.000000" width="277002200.000000" height="190007200.000000" rx="0.000000" />
</g>
<g style="fill:#000000; fill-opacity:0.0; 
stroke:#000000; stroke-width:21200.000000; stroke-opacity:1; 
stroke-linecap:round; stroke-linejoin:round;">
</g>
<g style="fill:#000000; fill-opacity:0.0; 
stroke:#000000; stroke-width:150000.000000; stroke-opacity:1; 
stroke-linecap:round; stroke-linejoin:round;">
<rect x="12000000.000000" y="12000000.000000" width="273002200.000000" height="186007200.000000" rx="0.000000" />
</g>
<g style="fill:#000000; fill-opacity:0.0; 
stroke:#000000; stroke-width:21200.000000; stroke-opacity:1; 
stroke-linecap:round; stroke-linejoin:round;">
</g>
<g style="fill:#000000; fill-opacity:0.0; 
stroke:#000000; stroke-width:150000.000000; stroke-opacity:1; 
stroke-linecap:round; stroke-linejoin:round;">
<path d="M60000000 12000000
L60000000 10000000
" />
</g>
<g style="fill:#000000; fill-opacity:0.0; 
stroke:#000000; stroke-width:21200.000000; stroke-opacity:1; 
stroke-linecap:round; stroke-linejoin:round;">
</g>
<g style="fill:#000000; fill-opacity:0.0; 
stroke:#000000; stroke-width:150000.000000; stroke-opacity:1; 
stroke-linecap:round; stroke-linejoin:round;">
<path d="M110000000 12000000
L110000000 10000000
" />
</g>
<g style="fill:#000000; fill-opacity:0.0; 
stroke:#000000; stroke-width:21200.000000; stroke-opacity:1; 
stroke-linecap:round; stroke-linejoin:round;">
</g>
<g style="fill:#000000; fill-opacity:0.0; 
stroke:#000000; stroke-width:150000.000000; stroke-opacity:1; 
stroke-linecap:round; stroke-linejoin:round;">
<path d="M160000000 12000000
L160000000 10000000
" />
</g>
<g style="fill:#000000; fill-opacity:0.0; 
stroke:#000000; stroke-width:21200.000000; stroke-opacity:1; 
stroke-linecap:round; stroke-linejoin:round;">
</g>
<g style="fill:#000000; fill-opacity:0.0; 
stroke:#000000; stroke-width:150000.000000; stroke-opacity:1; 
stroke-linecap:round; stroke-linejoin:round;">
<path d="M210000000 12000000
L210000000 10000000
" />
</g>
<g style="fill:#000000; fill-opacity:0.0; 
stroke:#000000; stroke-width:21200.000000; stroke-opacity:1; 
stroke-linecap:round; stroke-linejoin:round;">
</g>
<g style="fill:#000000; fill-opacity:0.0; 
stroke:#000000; stroke-width:150000.000000; stroke-opacity:1; 
stroke-linecap:round; stroke-linejoin:round;">
<path d="M260000000 12000000
L260000000 10000000
" />
</g>
<g style="fill:#000000; fill-opacity:0.0; 
stroke:#000000; stroke-width:21200.000000; stroke-opacity:1; 
stroke-linecap:round; stroke-linejoin:round;">
</g>
<g style="fill:#000000; fill-opacity:0.0; 
stroke:#000000; stroke-width:150000.000000; stroke-opacity:1; 
stroke-linecap:round; stroke-linejoin:round;">
<text x="35000000.000000" y="11650000.000000"
textLength="1388095.000000" font-size="1733333.000000" lengthAdjust="spacingAndGlyphs"
text-anchor="start" opacity="0">1</text>
<g class="stroked-text"><desc>1</desc>
<path d="M36065476 11588095
L35322619 11588095
" />
<path d="M35694047 11588095
L35694047 10288095
L35570238 10473809
L35446428 10597619
L35322619 10659523
" />
</g></g>
<g style="fill:#000000; fill-opacity:0.0; 
stroke:#000000; stroke-width:21200.000000; stroke-opacity:1; 
stroke-linecap:round; stroke-linejoin:round;">
</g>
<g style="fill:#000000; fill-opacity:0.0; 
stroke:#000000; stroke-width:150000.000000; stroke-opacity:1; 
stroke-linecap:round; stroke-linejoin:round;">
<text x="85000000.000000" y="11650000.000000"
textLength="1388095.000000" font-size="1733333.000000" lengthAdjust="spacingAndGlyphs"
text-anchor="start" opacity="0">2</text>
<g class="stroked-text"><desc>2</desc>
<path d="M85322619 10411904
L85384523 10350000
L85508333 10288095
L85817857 10288095
L85941666 10350000
L86003571 10411904
L86065476 10535714
L86065476 10659523
L86003571 10845238
L85260714 11588095
L86065476 11588095
" />
</g></g>
<g style="fill:#000000; fill-opacity:0.0; 
stroke:#000000; stroke-width:21200.000000; stroke-opacity:1; 
stroke-linecap:round; stroke-linejoin:round;">
</g>
<g style="fill:#000000; fill-opacity:0.0; 
stroke:#000000; stroke-width:150000.000000; stroke-opacity:1; 
stroke-linecap:round; stroke-linejoin:round;">
<text x="135000000.000000" y="11650000.000000"
textLength="1388095.000000" font-size="1733333.000000" lengthAdjust="spacingAndGlyphs"
text-anchor="start" opacity="0">3</text>
<g class="stroked-text"><desc>3</desc>
<path d="M135260714 10288095
L136065476 10288095
L135632142 10783333
L135817857 10783333
L135941666 10845238
L136003571 10907142
L136065476 11030952
L136065476 11340476
L136003571 11464285
L135941666 11526190
L135817857 11588095
L135446428 11588095
L135322619 11526190
L135260714 11464285
" />
</g></g>
<g style="fill:#000000; fill-opacity:0.0; 
stroke:#000000; stroke-width:21200.000000; stroke-opacity:1; 
stroke-linecap:round; stroke-linejoin:round;">
</g>
<g style="fill:#000000; fill-opacity:0.0; 
stroke:#000000; stroke-width:150000.000000; stroke-opacity:1; 
stroke-linecap:round; stroke-linejoin:round;">
<text x="185000000.000000" y="11650000.000000"
textLength="1388095.000000" font-size="1733333.000000" lengthAdjust="spacingAndGlyphs"
text-anchor="start" opacity="0">4</text>
<g class="stroked-text"><desc>4</desc>
<path d="M185941666 10721428
L185941666 11588095
" />
<path d="M185632142 10226190
L185322619 11154761
L186127380 11154761
" />
</g></g>
<g style="fill:#000000; fill-opacity:0.0; 
stroke:#000000; stroke-width:21200.000000; stroke-opacity:1; 
stroke-linecap:round; stroke-linejoin:round;">
</g>
<g style="fill:#000000; fill-opacity:0.0; 
stroke:#000000; stroke-width:150000.000000; stroke-opacity:1; 
stroke-linecap:round; stroke-linejoin:round;">
<text x="235000000.000000" y="11650000.000000"
textLength="1388095.000000" font-size="1733333.000000" lengthAdjust="spacingAndGlyphs"
text-anchor="start" opacity="0">5</text>
<g class="stroked-text"><desc>5</desc>
<path d="M236003571 10288095
L235384523 10288095
L235322619 10907142
L235384523 10845238
L235508333 10783333
L235817857 10783333
L235941666 10845238
L236003571 10907142
L236065476 11030952
L236065476 11340476
L236003571 11464285
L235941666 11526190
L235817857 11588095
L235508333 11588095
L235384523 11526190
L235322619 11464285
" />
</g></g>
<g style="fill:#000000; fill-opacity:0.0; 
stroke:#000000; stroke-width:21200.000000; stroke-opacity:1; 
stroke-linecap:round; stroke-linejoin:round;">
</g>
<g style="fill:#000000; fill-opacity:0.0; 
stroke:#000000; stroke-width:150000.000000; stroke-opacity:1; 
stroke-linecap:round; stroke-linejoin:round;">
<text x="285000000.000000" y="11650000.000000"
textLength="1388095.000000" font-size="1733333.000000" lengthAdjust="spacingAndGlyphs"
text-anchor="start" opacity="0">6</text>
<g class="stroked-text"><desc>6</desc>
<path d="M285941666 10288095
L285694047 10288095
L285570238 10350000
L285508333 10411904
L285384523 10597619
L285322619 10845238
L285322619 11340476
L285384523 11464285
L285446428 11526190
L285570238 11588095
L285817857 11588095
L285941666 11526190
L286003571 11464285
L286065476 11340476
L286065476 11030952
L286003571 10907142
L285941666 10845238
L285817857 10783333
L285570238 10783333
L285446428 10845238
L285384523 10907142
L285322619 11030952
" />
</g></g>
<g style="fill:#000000; fill-opacity:0.0; 
stroke:#000000; stroke-width:21200.000000; stroke-opacity:1; 
stroke-linecap:round; stroke-linejoin:round;">
</g>
<g style="fill:#000000; fill-opacity:0.0; 
stroke:#000000; stroke-width:150000.000000; stroke-opacity:1; 
stroke-linecap:round; stroke-linejoin:round;">
<path d="M60000000 198007200
L60000000 200007200
" />
</g>
<g style="fill:#000000; fill-opacity:0.0; 
stroke:#000000; stroke-width:21200.000000; stroke-opacity:1; 
stroke-linecap:round; stroke-linejoin:round;">
</g>
<g style="fill:#000000; fill-opacity:0.0; 
stroke:#000000; stroke-width:150000.000000; stroke-opacity:1; 
stroke-linecap:round; stroke-linejoin:round;">
<path d="M110000000 198007200
L110000000 200007200
" />
</g>
<g style="fill:#000000; fill-opacity:0.0; 
stroke:#000000; stroke-width:21200.000000; stroke-opacity:1; 
stroke-linecap:round; stroke-linejoin:round;">
</g>
<g style="fill:#000000; fill-opacity:0.0; 
stroke:#000000; stroke-width:150000.000000; stroke-opacity:1; 
stroke-linecap:round; stroke-linejoin:round;">
<path d="M160000000 198007200
L160000000 200007200
" />
</g>
<g style="fill:#000000; fill-opacity:0.0; 
stroke:#000000; stroke-width:21200.000000; stroke-opacity:1; 
stroke-linecap:round; stroke-linejoin:round;">
</g>
<g style="fill:#000000; fill-opacity:0.0; 
stroke:#000000; stroke-width:150000.000000; stroke-opacity:1; 
stroke-linecap:round; stroke-linejoin:round;">
<path d="M210000000 198007200
L210000000 200007200
" />
</g>
<g style="fill:#000000; fill-opacity:0.0; 
stroke:#000000; stroke-width:21200.000000; stroke-opacity:1; 
stroke-linecap:round; stroke-linejoin:round;">
</g>
<g style="fill:#000000; fill-opacity:0.0; 
stroke:#000000; stroke-width:150000.000000; stroke-opacity:1; 
stroke-linecap:round; stroke-linejoin:round;">
<path d="M260000000 198007200
L260000000 200007200
" />
</g>
<g style="fill:#000000; fill-opacity:0.0; 
stroke:#000000; stroke-width:21200.000000; stroke-opacity:1; 
stroke-linecap:round; stroke-linejoin:round;">
</g>
<g style="fill:#000000; fill-opacity:0.0; 
stroke:#000000; stroke-width:150000.000000; stroke-opacity:1; 
stroke-linecap:round; stroke-linejoin:round;">
<text x="35000000.000000" y="199657200.000000"
textLength="1388095.000000" font-size="1733333.000000" lengthAdjust="spacingAndGlyphs"
text-anchor="start" opacity="0">1</text>
<g class="stroked-text"><desc>1</desc>
<path d="M36065476 199595295
L35322619 199595295
" />
<path d="M35694047 199595295
L35694047 198295295
L35570238 198481009
L35446428 198604819
L35322619 198666723
" />
</g></g>
<g style="fill:#000000; fill-opacity:0.0; 
stroke:#000000; stroke-width:21200.000000; stroke-opacity:1; 
stroke-linecap:round; stroke-linejoin:round;">
</g>
<g style="fill:#000000; fill-opacity:0.0; 
stroke:#000000; stroke-width:150000.000000; stroke-opacity:1; 
stroke-linecap:round; stroke-linejoin:round;">
<text x="85000000.000000" y="199657200.000000"
textLength="1388095.000000" font-size="1733333.000000" lengthAdjust="spacingAndGlyphs"
text-anchor="start" opacity="0">2</text>
<g class="stroked-text"><desc>2</desc>
<path d="M85322619 198419104
L85384523 198357200
L85508333 198295295
L85817857 198295295
L85941666 198357200
L86003571 198419104
L86065476 198542914
L86065476 198666723
L86003571 198852438
L85260714 199595295
L86065476 199595295
" />
</g></g>
<g style="fill:#000000; fill-opacity:0.0; 
stroke:#000000; stroke-width:21200.000000; stroke-opacity:1; 
stroke-linecap:round; stroke-linejoin:round;">
</g>
<g style="fill:#000000; fill-opacity:0.0; 
stroke:#000000; stroke-width:150000.000000; stroke-opacity:1; 
stroke-linecap:round; stroke-linejoin:round;">
<text x="135000000.000000" y="199657200.000000"
textLength="1388095.000000" font-size="1733333.000000" lengthAdjust="spacingAndGlyphs"
text-anchor="start" opacity="0">3</text>
<g class="stroked-text"><desc>3</desc>
<path d="M135260714 198295295
L136065476 198295295
L135632142 198790533
L135817857 198790533
L135941666 198852438
L136003571 198914342
L136065476 199038152
L136065476 199347676
L136003571 199471485
L135941666 199533390
L135817857 199595295
L135446428 199595295
L135322619 199533390
L135260714 199471485
" />
</g></g>
<g style="fill:#000000; fill-opacity:0.0; 
stroke:#000000; stroke-width:21200.000000; stroke-opacity:1; 
stroke-linecap:round; stroke-linejoin:round;">
</g>
<g style="fill:#000000; fill-opacity:0.0; 
stroke:#000000; stroke-width:150000.000000; stroke-opacity:1; 
stroke-linecap:round; stroke-linejoin:round;">
<text x="185000000.000000" y="199657200.000000"
textLength="1388095.000000" font-size="1733333.000000" lengthAdjust="spacingAndGlyphs"
text-anchor="start" opacity="0">4</text>
<g class="stroked-text"><desc>4</desc>
<path d="M185941666 198728628
L185941666 199595295
" />
<path d="M185632142 198233390
L185322619 199161961
L186127380 199161961
" />
</g></g>
<g style="fill:#000000; fill-opacity:0.0; 
stroke:#000000; stroke-width:21200.000000; stroke-opacity:1; 
stroke-linecap:round; stroke-linejoin:round;">
</g>
<g style="fill:#000000; fill-opacity:0.0; 
stroke:#000000; stroke-width:150000.000000; stroke-opacity:1; 
stroke-linecap:round; stroke-linejoin:round;">
<text x="235000000.000000" y="199657200.000000"
textLength="1388095.000000" font-size="1733333.000000" lengthAdjust="spacingAndGlyphs"
text-anchor="start" opacity="0">5</text>
<g class="stroked-text"><desc>5</desc>
<path d="M236003571 198295295
L235384523 198295295
L235322619 198914342
L235384523 198852438
L235508333 198790533
L235817857 198790533
L235941666 198852438
L236003571 198914342
L236065476 199038152
L236065476 199347676
L236003571 199471485
L235941666 199533390
L235817857 199595295
L235508333 199595295
L235384523 199533390
L235322619 199471485
" />
</g></g>
<g style="fill:#000000; fill-opacity:0.0; 
stroke:#000000; stroke-width:21200.000000; stroke-opacity:1; 
stroke-linecap:round; stroke-linejoin:round;">
</g>
<g style="fill:#000000; fill-opacity:0.0; 
stroke:#000000; stroke-width:150000.000000; stroke-opacity:1; 
stroke-linecap:round; stroke-linejoin:round;">
<text x="285000000.000000" y="199657200.000000"
textLength="1388095.000000" font-size="1733333.000000" lengthAdjust="spacingAndGlyphs"
text-anchor="start" opacity="0">6</text>
<g class="stroked-text"><desc>6</desc>
<path d="M285941666 198295295
L285694047 198295295
L285570238 198357200
L285508333 198419104
L285384523 198604819
L285322619 198852438
L285322619 199347676
L285384523 199471485
L285446428 199533390
L285570238 199595295
L285817857 199595295
L285941666 199533390
L286003571 199471485
L286065476 199347676
L286065476 199038152
L286003571 198914342
L285941666 198852438
L285817857 198790533
L285570238 198790533
L285446428 198852438
L285384523 198914342
L285322619 199038152
" />
</g></g>
<g style="fill:#000000; fill-opacity:0.0; 
stroke:#000000; stroke-width:21200.000000; stroke-opacity:1; 
stroke-linecap:round; stroke-linejoin:round;">
</g>
<g style="fill:#000000; fill-opacity:0.0; 
stroke:#000000; stroke-width:150000.000000; stroke-opacity:1; 
stroke-linecap:round; stroke-linejoin:round;">
<path d="M10000000 60000000
L12000000 60000000
" />
</g>
<g style="fill:#000000; fill-opacity:0.0; 
stroke:#000000; stroke-width:21200.000000; stroke-opacity:1; 
stroke-linecap:round; stroke-linejoin:round;">
</g>
<g style="fill:#000000; fill-opacity:0.0; 
stroke:#000000; stroke-width:150000.000000; stroke-opacity:1; 
stroke-linecap:round; stroke-linejoin:round;">
<path d="M10000000 110000000
L12000000 110000000
" />
</g>
<g style="fill:#000000; fill-opacity:0.0; 
stroke:#000000; stroke-width:21200.000000; stroke-opacity:1; 
stroke-linecap:round; stroke-linejoin:round;">
</g>
<g style="fill:#000000; fill-opacity:0.0; 
stroke:#000000; stroke-width:150000.000000; stroke-opacity:1; 
stroke-linecap:round; stroke-linejoin:round;">
<path d="M10000000 160000000
L12000000 160000000
" />
</g>
<g style="fill:#000000; fill-opacity:0.0; 
stroke:#000000; stroke-width:21200.000000; stroke-opacity:1; 
stroke-linecap:round; stroke-linejoin:round;">
</g>
<g style="fill:#000000; fill-opacity:0.0; 
stroke:#000000; stroke-width:150000.000000; stroke-opacity:1; 
stroke-linecap:round; stroke-linejoin:round;">
<text x="11000000.000000" y="35650000.000000"
textLength="1264286.000000" font-size="1733333.000000" lengthAdjust="spacingAndGlyphs"
text-anchor="middle" opacity="0">A</text>
<g class="stroked-text"><desc>A</desc>
<path d="M10690476 35216666
L11309523 35216666
" />
<path d="M10566666 35588095
L11000000 34288095
L11433333 35588095
" />
</g></g>
<g style="fill:#000000; fill-opacity:0.0; 
stroke:#000000; stroke-width:21200.000000; stroke-opacity:1; 
stroke-linecap:round; stroke-linejoin:round;">
</g>
<g style="fill:#000000; fill-opacity:0.0; 
stroke:#000000; stroke-width:150000.000000; stroke-opacity:1; 
stroke-linecap:round; stroke-linejoin:round;">
<text x="11000000.000000" y="85650000.000000"
textLength="1450000.000000" font-size="1733333.000000" lengthAdjust="spacingAndGlyphs"
text-anchor="middle" opacity="0">B</text>
<g class="stroked-text"><desc>B</desc>
<path d="M11092857 84907142
L11278571 84969047
L11340476 85030952
L11402380 85154761
L11402380 85340476
L11340476 85464285
L11278571 85526190
L11154761 85588095
L10659523 85588095
L10659523 84288095
L11092857 84288095
L11216666 84350000
L11278571 84411904
L11340476 84535714
L11340476 84659523
L11278571 84783333
L11216666 84845238
L11092857 84907142
L10659523 84907142
" />
</g></g>
<g style="fill:#000000; fill-opacity:0.0; 
stroke:#000000; stroke-width:21200.000000; stroke-opacity:1; 
stroke-linecap:round; stroke-linejoin:round;">
</g>
<g style="fill:#000000; fill-opacity:0.0; 
stroke:#000000; stroke-width:150000.000000; stroke-opacity:1; 
stroke-linecap:round; stroke-linejoin:round;">
<text x="11000000.000000" y="135650000.000000"
textLength="1450000.000000" font-size="1733333.000000" lengthAdjust="spacingAndGlyphs"
text-anchor="middle" opacity="0">C</text>
<g class="stroked-text"><desc>C</desc>
<path d="M11402380 135464285
L11340476 135526190
L11154761 135588095
L11030952 135588095
L10845238 135526190
L10721428 135402380
L10659523 135278571
L10597619 135030952
L10597619 134845238
L10659523 134597619
L10721428 134473809
L10845238 134350000
L11030952 134288095
L11154761 134288095
L11340476 134350000
L11402380 134411904
" />
</g></g>
<g style="fill:#000000; fill-opacity:0.0; 
stroke:#000000; stroke-width:21200.000000; stroke-opacity:1; 
stroke-linecap:round; stroke-linejoin:round;">
</g>
<g style="fill:#000000; fill-opacity:0.0; 
stroke:#000000; stroke-width:150000.000000; stroke-opacity:1; 
stroke-linecap:round; stroke-linejoin:round;">
<text x="11000000.000000" y="185650000.000000"
textLength="1450000.000000" font-size="1733333.000000" lengthAdjust="spacingAndGlyphs"
text-anchor="middle" opacity="0">D</text>
<g class="stroked-text"><desc>D</desc>
<path d="M10659523 185588095
L10659523 184288095
L10969047 184288095
L11154761 184350000
L11278571 184473809
L11340476 184597619
L11402380 184845238
L11402380 185030952
L11340476 185278571
L11278571 185402380
L11154761 185526190
L10969047 185588095
L10659523 185588095
" />
</g></g>
<g style="fill:#000000; fill-opacity:0.0; 
stroke:#000000; stroke-width:21200.000000; stroke-opacity:1; 
stroke-linecap:round; stroke-linejoin:round;">
</g>
<g style="fill:#000000; fill-opacity:0.0; 
stroke:#000000; stroke-width:150000.000000; stroke-opacity:1; 
stroke-linecap:round; stroke-linejoin:round;">
<path d="M287002200 60000000
L285002200 60000000
" />
</g>
<g style="fill:#000000; fill-opacity:0.0; 
stroke:#000000; stroke-width:21200.000000; stroke-opacity:1; 
stroke-linecap:round; stroke-linejoin:round;">
</g>
<g style="fill:#000000; fill-opacity:0.0; 
stroke:#000000; stroke-width:150000.000000; stroke-opacity:1; 
stroke-linecap:round; stroke-linejoin:round;">
<path d="M287002200 110000000
L285002200 110000000
" />
</g>
<g style="fill:#000000; fill-opacity:0.0; 
stroke:#000000; stroke-width:21200.000000; stroke-opacity:1; 
stroke-linecap:round; stroke-linejoin:round;">
</g>
<g style="fill:#000000; fill-opacity:0.0; 
stroke:#000000; stroke-width:150000.000000; stroke-opacity:1; 
stroke-linecap:round; stroke-linejoin:round;">
<path d="M287002200 160000000
L285002200 160000000
" />
</g>
<g style="fill:#000000; fill-opacity:0.0; 
stroke:#000000; stroke-width:21200.000000; stroke-opacity:1; 
stroke-linecap:round; stroke-linejoin:round;">
</g>
<g style="fill:#000000; fill-opacity:0.0; 
stroke:#000000; stroke-width:150000.000000; stroke-opacity:1; 
stroke-linecap:round; stroke-linejoin:round;">
<text x="286002200.000000" y="35650000.000000"
textLength="1264286.000000" font-size="1733333.000000" lengthAdjust="spacingAndGlyphs"
text-anchor="middle" opacity="0">A</text>
<g class="stroked-text"><desc>A</desc>
<path d="M285692676 35216666
L286311723 35216666
" />
<path d="M285568866 35588095
L286002200 34288095
L286435533 35588095
" />
</g></g>
<g style="fill:#000000; fill-opacity:0.0; 
stroke:#000000; stroke-width:21200.000000; stroke-opacity:1; 
stroke-linecap:round; stroke-linejoin:round;">
</g>
<g style="fill:#000000; fill-opacity:0.0; 
stroke:#000000; stroke-width:150000.000000; stroke-opacity:1; 
stroke-linecap:round; stroke-linejoin:round;">
<text x="286002200.000000" y="85650000.000000"
textLength="1450000.000000" font-size="1733333.000000" lengthAdjust="spacingAndGlyphs"
text-anchor="middle" opacity="0">B</text>
<g class="stroked-text"><desc>B</desc>
<path d="M286095057 84907142
L286280771 84969047
L286342676 85030952
L286404580 85154761
L286404580 85340476
L286342676 85464285
L286280771 85526190
L286156961 85588095
L285661723 85588095
L285661723 84288095
L286095057 84288095
L286218866 84350000
L286280771 84411904
L286342676 84535714
L286342676 84659523
L286280771 84783333
L286218866 84845238
L286095057 84907142
L285661723 84907142
" />
</g></g>
<g style="fill:#000000; fill-opacity:0.0; 
stroke:#000000; stroke-width:21200.000000; stroke-opacity:1; 
stroke-linecap:round; stroke-linejoin:round;">
</g>
<g style="fill:#000000; fill-opacity:0.0; 
stroke:#000000; stroke-width:150000.000000; stroke-opacity:1; 
stroke-linecap:round; stroke-linejoin:round;">
<text x="286002200.000000" y="135650000.000000"
textLength="1450000.000000" font-size="1733333.000000" lengthAdjust="spacingAndGlyphs"
text-anchor="middle" opacity="0">C</text>
<g class="stroked-text"><desc>C</desc>
<path d="M286404580 135464285
L286342676 135526190
L286156961 135588095
L286033152 135588095
L285847438 135526190
L285723628 135402380
L285661723 135278571
L285599819 135030952
L285599819 134845238
L285661723 134597619
L285723628 134473809
L285847438 134350000
L286033152 134288095
L286156961 134288095
L286342676 134350000
L286404580 134411904
" />
</g></g>
<g style="fill:#000000; fill-opacity:0.0; 
stroke:#000000; stroke-width:21200.000000; stroke-opacity:1; 
stroke-linecap:round; stroke-linejoin:round;">
</g>
<g style="fill:#000000; fill-opacity:0.0; 
stroke:#000000; stroke-width:150000.000000; stroke-opacity:1; 
stroke-linecap:round; stroke-linejoin:round;">
<text x="286002200.000000" y="185650000.000000"
textLength="1450000.000000" font-size="1733333.000000" lengthAdjust="spacingAndGlyphs"
text-anchor="middle" opacity="0">D</text>
<g class="stroked-text"><desc>D</desc>
<path d="M285661723 185588095
L285661723 184288095
L285971247 184288095
L286156961 184350000
L286280771 184473809
L286342676 184597619
L286404580 184845238
L286404580 185030952
L286342676 185278571
L286280771 185402380
L286156961 185526190
L285971247 185588095
L285661723 185588095
" />
</g></g>
<g style="fill:#000000; fill-opacity:0.0; 
stroke:#000000; stroke-width:21200.000000; stroke-opacity:1; 
stroke-linecap:round; stroke-linejoin:round;">
</g>
<g style="fill:#000000; fill-opacity:0.0; 
stroke:#000000; stroke-width:150000.000000; stroke-opacity:1; 
stroke-linecap:round; stroke-linejoin:round;">
<text x="200002200.000000" y="193857200.000000"
textLength="7007143.000000" font-size="2000000.000000" lengthAdjust="spacingAndGlyphs"
text-anchor="start" opacity="0">Date: </text>
<g class="stroked-text"><desc>Date: </desc>
<path d="M200434342 193785771
L200434342 192285771
L200791485 192285771
L201005771 192357200
L201148628 192500057
L201220057 192642914
L201291485 192928628
L201291485 193142914
L201220057 193428628
L201148628 193571485
L201005771 193714342
L200791485 193785771
L200434342 193785771
" />
<path d="M202577200 193785771
L202577200 193000057
L202505771 192857200
L202362914 192785771
L202077200 192785771
L201934342 192857200
" />
<path d="M202577200 193714342
L202434342 193785771
L202077200 193785771
L201934342 193714342
L201862914 193571485
L201862914 193428628
L201934342 193285771
L202077200 193214342
L202434342 193214342
L202577200 193142914
" />
<path d="M203077200 192785771
L203648628 192785771
" />
<path d="M203291485 192285771
L203291485 193571485
L203362914 193714342
L203505771 193785771
L203648628 193785771
" />
<path d="M204720057 193714342
L204577200 193785771
L204291485 193785771
L204148628 193714342
L204077200 193571485
L204077200 193000057
L204148628 192857200
L204291485 192785771
L204577200 192785771
L204720057 192857200
L204791485 193000057
L204791485 193142914
L204077200 193285771
" />
<path d="M205434342 193642914
L205505771 193714342
L205434342 193785771
L205362914 193714342
L205434342 193642914
L205434342 193785771
" />
<path d="M205434342 192857200
L205505771 192928628
L205434342 193000057
L205362914 192928628
L205434342 192857200
L205434342 193000057
" />
</g></g>
<g style="fill:#000000; fill-opacity:0.0; 
stroke:#000000; stroke-width:21200.000000; stroke-opacity:1; 
stroke-linecap:round; stroke-linejoin:round;">
</g>
<g style="fill:#000000; fill-opacity:0.0; 
stroke:#000000; stroke-width:150000.000000; stroke-opacity:1; 
stroke-linecap:round; stroke-linejoin:round;">
<path d="M177002200 194507200
L285002200 194507200
" />
</g>
<g style="fill:#000000; fill-opacity:0.0; 
stroke:#000000; stroke-width:21200.000000; stroke-opacity:1; 
stroke-linecap:round; stroke-linejoin:round;">
</g>
<g style="fill:#000000; fill-opacity:0.0; 
stroke:#000000; stroke-width:150000.000000; stroke-opacity:1; 
stroke-linecap:round; stroke-linejoin:round;">
<text x="178002200.000000" y="196657200.000000"
textLength="33364286.000000" font-size="2000000.000000" lengthAdjust="spacingAndGlyphs"
text-anchor="start" opacity="0">KiCad E.D.A.  pcbnew (6.0.9)</text>
<g class="stroked-text"><desc>KiCad E.D.A.  pcbnew (6.0.9)</desc>
<path d="M178434342 196585771
L178434342 195085771
" />
<path d="M179291485 196585771
L178648628 195728628
" />
<path d="M179291485 195085771
L178434342 195942914
" />
<path d="M179934342 196585771
L179934342 195585771
" />
<path d="M179934342 195085771
L179862914 195157200
L179934342 195228628
L180005771 195157200
L179934342 195085771
L179934342 195228628
" />
<path d="M181505771 196442914
L181434342 196514342
L181220057 196585771
L181077200 196585771
L180862914 196514342
L180720057 196371485
L180648628 196228628
L180577200 195942914
L180577200 195728628
L180648628 195442914
L180720057 195300057
L180862914 195157200
L181077200 195085771
L181220057 195085771
L181434342 195157200
L181505771 195228628
" />
<path d="M182791485 196585771
L182791485 195800057
L182720057 195657200
L182577200 195585771
L182291485 195585771
L182148628 195657200
" />
<path d="M182791485 196514342
L182648628 196585771
L182291485 196585771
L182148628 196514342
L182077200 196371485
L182077200 196228628
L182148628 196085771
L182291485 196014342
L182648628 196014342
L182791485 195942914
" />
<path d="M184148628 196585771
L184148628 195085771
" />
<path d="M184148628 196514342
L184005771 196585771
L183720057 196585771
L183577200 196514342
L183505771 196442914
L183434342 196300057
L183434342 195871485
L183505771 195728628
L183577200 195657200
L183720057 195585771
L184005771 195585771
L184148628 195657200
" />
<path d="M186005771 195800057
L186505771 195800057
" />
<path d="M186720057 196585771
L186005771 196585771
L186005771 195085771
L186720057 195085771
" />
<path d="M187362914 196442914
L187434342 196514342
L187362914 196585771
L187291485 196514342
L187362914 196442914
L187362914 196585771
" />
<path d="M188077200 196585771
L188077200 195085771
L188434342 195085771
L188648628 195157200
L188791485 195300057
L188862914 195442914
L188934342 195728628
L188934342 195942914
L188862914 196228628
L188791485 196371485
L188648628 196514342
L188434342 196585771
L188077200 196585771
" />
<path d="M189577200 196442914
L189648628 196514342
L189577200 196585771
L189505771 196514342
L189577200 196442914
L189577200 196585771
" />
<path d="M190220057 196157200
L190934342 196157200
" />
<path d="M190077200 196585771
L190577200 195085771
L191077200 196585771
" />
<path d="M191577200 196442914
L191648628 196514342
L191577200 196585771
L191505771 196514342
L191577200 196442914
L191577200 196585771
" />
<path d="M194577200 195585771
L194577200 197085771
" />
<path d="M194577200 195657200
L194720057 195585771
L195005771 195585771
L195148628 195657200
L195220057 195728628
L195291485 195871485
L195291485 196300057
L195220057 196442914
L195148628 196514342
L195005771 196585771
L194720057 196585771
L194577200 196514342
" />
<path d="M196577200 196514342
L196434342 196585771
L196148628 196585771
L196005771 196514342
L195934342 196442914
L195862914 196300057
L195862914 195871485
L195934342 195728628
L196005771 195657200
L196148628 195585771
L196434342 195585771
L196577200 195657200
" />
<path d="M197220057 196585771
L197220057 195085771
" />
<path d="M197220057 195657200
L197362914 195585771
L197648628 195585771
L197791485 195657200
L197862914 195728628
L197934342 195871485
L197934342 196300057
L197862914 196442914
L197791485 196514342
L197648628 196585771
L197362914 196585771
L197220057 196514342
" />
<path d="M198577200 195585771
L198577200 196585771
" />
<path d="M198577200 195728628
L198648628 195657200
L198791485 195585771
L199005771 195585771
L199148628 195657200
L199220057 195800057
L199220057 196585771
" />
<path d="M200505771 196514342
L200362914 196585771
L200077200 196585771
L199934342 196514342
L199862914 196371485
L199862914 195800057
L199934342 195657200
L200077200 195585771
L200362914 195585771
L200505771 195657200
L200577200 195800057
L200577200 195942914
L199862914 196085771
" />
<path d="M201077200 195585771
L201362914 196585771
L201648628 195871485
L201934342 196585771
L202220057 195585771
" />
<path d="M204362914 197157200
L204291485 197085771
L204148628 196871485
L204077200 196728628
L204005771 196514342
L203934342 196157200
L203934342 195871485
L204005771 195514342
L204077200 195300057
L204148628 195157200
L204291485 194942914
L204362914 194871485
" />
<path d="M205577200 195085771
L205291485 195085771
L205148628 195157200
L205077200 195228628
L204934342 195442914
L204862914 195728628
L204862914 196300057
L204934342 196442914
L205005771 196514342
L205148628 196585771
L205434342 196585771
L205577200 196514342
L205648628 196442914
L205720057 196300057
L205720057 195942914
L205648628 195800057
L205577200 195728628
L205434342 195657200
L205148628 195657200
L205005771 195728628
L204934342 195800057
L204862914 195942914
" />
<path d="M206362914 196442914
L206434342 196514342
L206362914 196585771
L206291485 196514342
L206362914 196442914
L206362914 196585771
" />
<path d="M207362914 195085771
L207505771 195085771
L207648628 195157200
L207720057 195228628
L207791485 195371485
L207862914 195657200
L207862914 196014342
L207791485 196300057
L207720057 196442914
L207648628 196514342
L207505771 196585771
L207362914 196585771
L207220057 196514342
L207148628 196442914
L207077200 196300057
L207005771 196014342
L207005771 195657200
L207077200 195371485
L207148628 195228628
L207220057 195157200
L207362914 195085771
" />
<path d="M208505771 196442914
L208577200 196514342
L208505771 196585771
L208434342 196514342
L208505771 196442914
L208505771 196585771
" />
<path d="M209291485 196585771
L209577200 196585771
L209720057 196514342
L209791485 196442914
L209934342 196228628
L210005771 195942914
L210005771 195371485
L209934342 195228628
L209862914 195157200
L209720057 195085771
L209434342 195085771
L209291485 195157200
L209220057 195228628
L209148628 195371485
L209148628 195728628
L209220057 195871485
L209291485 195942914
L209434342 196014342
L209720057 196014342
L209862914 195942914
L209934342 195871485
L210005771 195728628
" />
<path d="M210505771 197157200
L210577200 197085771
L210720057 196871485
L210791485 196728628
L210862914 196514342
L210934342 196157200
L210934342 195871485
L210862914 195514342
L210791485 195300057
L210720057 195157200
L210577200 194942914
L210505771 194871485
" />
</g></g>
<g style="fill:#000000; fill-opacity:0.0; 
stroke:#000000; stroke-width:21200.000000; stroke-opacity:1; 
stroke-linecap:round; stroke-linejoin:round;">
</g>
<g style="fill:#000000; fill-opacity:0.0; 
stroke:#000000; stroke-width:150000.000000; stroke-opacity:1; 
stroke-linecap:round; stroke-linejoin:round;">
<path d="M177002200 191507200
L285002200 191507200
" />
</g>
<g style="fill:#000000; fill-opacity:0.0; 
stroke:#000000; stroke-width:21200.000000; stroke-opacity:1; 
stroke-linecap:round; stroke-linejoin:round;">
</g>
<g style="fill:#000000; fill-opacity:0.0; 
stroke:#000000; stroke-width:300000.000000; stroke-opacity:1; 
stroke-linecap:round; stroke-linejoin:round;">
<text x="263002200.000000" y="193857200.000000"
textLength="5935714.000000" font-size="2000000.000000" lengthAdjust="spacingAndGlyphs"
text-anchor="start" opacity="0">Rev: </text>
<g class="stroked-text"><desc>Rev: </desc>
<path d="M264411485 193785771
L263911485 193071485
" />
<path d="M263554342 193785771
L263554342 192285771
L264125771 192285771
L264268628 192357200
L264340057 192428628
L264411485 192571485
L264411485 192785771
L264340057 192928628
L264268628 193000057
L264125771 193071485
L263554342 193071485
" />
<path d="M265625771 193714342
L265482914 193785771
L265197200 193785771
L265054342 193714342
L264982914 193571485
L264982914 193000057
L265054342 192857200
L265197200 192785771
L265482914 192785771
L265625771 192857200
L265697200 193000057
L265697200 193142914
L264982914 193285771
" />
<path d="M266197200 192785771
L266554342 193785771
L266911485 192785771
" />
<path d="M267482914 193642914
L267554342 193714342
L267482914 193785771
L267411485 193714342
L267482914 193642914
L267482914 193785771
" />
<path d="M267482914 192857200
L267554342 192928628
L267482914 193000057
L267411485 192928628
L267482914 192857200
L267482914 193000057
" />
</g></g>
<g style="fill:#000000; fill-opacity:0.0; 
stroke:#000000; stroke-width:21200.000000; stroke-opacity:1; 
stroke-linecap:round; stroke-linejoin:round;">
</g>
<g style="fill:#000000; fill-opacity:0.0; 
stroke:#000000; stroke-width:150000.000000; stroke-opacity:1; 
stroke-linecap:round; stroke-linejoin:round;">
<text x="178002200.000000" y="193857200.000000"
textLength="9604286.000000" font-size="2000000.000000" lengthAdjust="spacingAndGlyphs"
text-anchor="start" opacity="0">Size: A4</text>
<g class="stroked-text"><desc>Size: A4</desc>
<path d="M178362914 193714342
L178577200 193785771
L178934342 193785771
L179077200 193714342
L179148628 193642914
L179220057 193500057
L179220057 193357200
L179148628 193214342
L179077200 193142914
L178934342 193071485
L178648628 193000057
L178505771 192928628
L178434342 192857200
L178362914 192714342
L178362914 192571485
L178434342 192428628
L178505771 192357200
L178648628 192285771
L179005771 192285771
L179220057 192357200
" />
<path d="M179862914 193785771
L179862914 192785771
" />
<path d="M179862914 192285771
L179791485 192357200
L179862914 192428628
L179934342 192357200
L179862914 192285771
L179862914 192428628
" />
<path d="M180434342 192785771
L181220057 192785771
L180434342 193785771
L181220057 193785771
" />
<path d="M182362914 193714342
L182220057 193785771
L181934342 193785771
L181791485 193714342
L181720057 193571485
L181720057 193000057
L181791485 192857200
L181934342 192785771
L182220057 192785771
L182362914 192857200
L182434342 193000057
L182434342 193142914
L181720057 193285771
" />
<path d="M183077200 193642914
L183148628 193714342
L183077200 193785771
L183005771 193714342
L183077200 193642914
L183077200 193785771
" />
<path d="M183077200 192857200
L183148628 192928628
L183077200 193000057
L183005771 192928628
L183077200 192857200
L183077200 193000057
" />
<path d="M184862914 193357200
L185577200 193357200
" />
<path d="M184720057 193785771
L185220057 192285771
L185720057 193785771
" />
<path d="M186862914 192785771
L186862914 193785771
" />
<path d="M186505771 192214342
L186148628 193285771
L187077200 193285771
" />
</g></g>
<g style="fill:#000000; fill-opacity:0.0; 
stroke:#000000; stroke-width:21200.000000; stroke-opacity:1; 
stroke-linecap:round; stroke-linejoin:round;">
</g>
<g style="fill:#000000; fill-opacity:0.0; 
stroke:#000000; stroke-width:150000.000000; stroke-opacity:1; 
stroke-linecap:round; stroke-linejoin:round;">
<text x="263002200.000000" y="196657200.000000"
textLength="8507143.000000" font-size="2000000.000000" lengthAdjust="spacingAndGlyphs"
text-anchor="start" opacity="0">Id: 1/1</text>
<g class="stroked-text"><desc>Id: 1/1</desc>
<path d="M263434342 196585771
L263434342 195085771
" />
<path d="M264791485 196585771
L264791485 195085771
" />
<path d="M264791485 196514342
L264648628 196585771
L264362914 196585771
L264220057 196514342
L264148628 196442914
L264077200 196300057
L264077200 195871485
L264148628 195728628
L264220057 195657200
L264362914 195585771
L264648628 195585771
L264791485 195657200
" />
<path d="M265505771 196442914
L265577200 196514342
L265505771 196585771
L265434342 196514342
L265505771 196442914
L265505771 196585771
" />
<path d="M265505771 195657200
L265577200 195728628
L265505771 195800057
L265434342 195728628
L265505771 195657200
L265505771 195800057
" />
<path d="M268148628 196585771
L267291485 196585771
" />
<path d="M267720057 196585771
L267720057 195085771
L267577200 195300057
L267434342 195442914
L267291485 195514342
" />
<path d="M269862914 195014342
L268577200 196942914
" />
<path d="M271148628 196585771
L270291485 196585771
" />
<path d="M270720057 196585771
L270720057 195085771
L270577200 195300057
L270434342 195442914
L270291485 195514342
" />
</g></g>
<g style="fill:#000000; fill-opacity:0.0; 
stroke:#000000; stroke-width:21200.000000; stroke-opacity:1; 
stroke-linecap:round; stroke-linejoin:round;">
</g>
<g style="fill:#000000; fill-opacity:0.0; 
stroke:#000000; stroke-width:150000.000000; stroke-opacity:1; 
stroke-linecap:round; stroke-linejoin:round;">
<path d="M177002200 187507200
L285002200 187507200
" />
</g>
<g style="fill:#000000; fill-opacity:0.0; 
stroke:#000000; stroke-width:21200.000000; stroke-opacity:1; 
stroke-linecap:round; stroke-linejoin:round;">
</g>
<g style="fill:#000000; fill-opacity:0.0; 
stroke:#000000; stroke-width:400000.000000; stroke-opacity:1; 
stroke-linecap:round; stroke-linejoin:round;">
<text x="178002200.000000" y="190307200.000000"
textLength="9409643.000000" font-size="2666666.000000" lengthAdjust="spacingAndGlyphs"
text-anchor="start" opacity="0">Title: </text>
<g class="stroked-text"><desc>Title: </desc>
<path d="M178714580 188211961
L179857438 188211961
" />
<path d="M179036009 190211961
L179286009 188211961
" />
<path d="M180274104 190211961
L180440771 188878628
" />
<path d="M180524104 188211961
L180416961 188307200
L180500295 188402438
L180607438 188307200
L180524104 188211961
L180500295 188402438
" />
<path d="M181107438 188878628
L181869342 188878628
" />
<path d="M181476485 188211961
L181262200 189926247
L181333628 190116723
L181512200 190211961
L181702676 190211961
" />
<path d="M182655057 190211961
L182476485 190116723
L182405057 189926247
L182619342 188211961
" />
<path d="M184190771 190116723
L183988390 190211961
L183607438 190211961
L183428866 190116723
L183357438 189926247
L183452676 189164342
L183571723 188973866
L183774104 188878628
L184155057 188878628
L184333628 188973866
L184405057 189164342
L184381247 189354819
L183405057 189545295
" />
<path d="M185155057 190021485
L185238390 190116723
L185131247 190211961
L185047914 190116723
L185155057 190021485
L185131247 190211961
" />
<path d="M185286009 188973866
L185369342 189069104
L185262200 189164342
L185178866 189069104
L185286009 188973866
L185262200 189164342
" />
</g></g>
<g style="fill:#000000; fill-opacity:0.0; 
stroke:#000000; stroke-width:21200.000000; stroke-opacity:1; 
stroke-linecap:round; stroke-linejoin:round;">
</g>
<g style="fill:#000000; fill-opacity:0.0; 
stroke:#000000; stroke-width:150000.000000; stroke-opacity:1; 
stroke-linecap:round; stroke-linejoin:round;">
<text x="178002200.000000" y="186457200.000000"
textLength="30662857.000000" font-size="2000000.000000" lengthAdjust="spacingAndGlyphs"
text-anchor="start" opacity="0">File: kicadBoard.kicad_pcb</text>
<g class="stroked-text"><desc>File: kicadBoard.kicad_pcb</desc>
<path d="M178934342 185600057
L178434342 185600057
" />
<path d="M178434342 186385771
L178434342 184885771
L179148628 184885771
" />
<path d="M179720057 186385771
L179720057 185385771
" />
<path d="M179720057 184885771
L179648628 184957200
L179720057 185028628
L179791485 184957200
L179720057 184885771
L179720057 185028628
" />
<path d="M180648628 186385771
L180505771 186314342
L180434342 186171485
L180434342 184885771
" />
<path d="M181791485 186314342
L181648628 186385771
L181362914 186385771
L181220057 186314342
L181148628 186171485
L181148628 185600057
L181220057 185457200
L181362914 185385771
L181648628 185385771
L181791485 185457200
L181862914 185600057
L181862914 185742914
L181148628 185885771
" />
<path d="M182505771 186242914
L182577200 186314342
L182505771 186385771
L182434342 186314342
L182505771 186242914
L182505771 186385771
" />
<path d="M182505771 185457200
L182577200 185528628
L182505771 185600057
L182434342 185528628
L182505771 185457200
L182505771 185600057
" />
<path d="M184362914 186385771
L184362914 184885771
" />
<path d="M184505771 185814342
L184934342 186385771
" />
<path d="M184934342 185385771
L184362914 185957200
" />
<path d="M185577200 186385771
L185577200 185385771
" />
<path d="M185577200 184885771
L185505771 184957200
L185577200 185028628
L185648628 184957200
L185577200 184885771
L185577200 185028628
" />
<path d="M186934342 186314342
L186791485 186385771
L186505771 186385771
L186362914 186314342
L186291485 186242914
L186220057 186100057
L186220057 185671485
L186291485 185528628
L186362914 185457200
L186505771 185385771
L186791485 185385771
L186934342 185457200
" />
<path d="M188220057 186385771
L188220057 185600057
L188148628 185457200
L188005771 185385771
L187720057 185385771
L187577200 185457200
" />
<path d="M188220057 186314342
L188077200 186385771
L187720057 186385771
L187577200 186314342
L187505771 186171485
L187505771 186028628
L187577200 185885771
L187720057 185814342
L188077200 185814342
L188220057 185742914
" />
<path d="M189577200 186385771
L189577200 184885771
" />
<path d="M189577200 186314342
L189434342 186385771
L189148628 186385771
L189005771 186314342
L188934342 186242914
L188862914 186100057
L188862914 185671485
L188934342 185528628
L189005771 185457200
L189148628 185385771
L189434342 185385771
L189577200 185457200
" />
<path d="M190791485 185600057
L191005771 185671485
L191077200 185742914
L191148628 185885771
L191148628 186100057
L191077200 186242914
L191005771 186314342
L190862914 186385771
L190291485 186385771
L190291485 184885771
L190791485 184885771
L190934342 184957200
L191005771 185028628
L191077200 185171485
L191077200 185314342
L191005771 185457200
L190934342 185528628
L190791485 185600057
L190291485 185600057
" />
<path d="M192005771 186385771
L191862914 186314342
L191791485 186242914
L191720057 186100057
L191720057 185671485
L191791485 185528628
L191862914 185457200
L192005771 185385771
L192220057 185385771
L192362914 185457200
L192434342 185528628
L192505771 185671485
L192505771 186100057
L192434342 186242914
L192362914 186314342
L192220057 186385771
L192005771 186385771
" />
<path d="M193791485 186385771
L193791485 185600057
L193720057 185457200
L193577200 185385771
L193291485 185385771
L193148628 185457200
" />
<path d="M193791485 186314342
L193648628 186385771
L193291485 186385771
L193148628 186314342
L193077200 186171485
L193077200 186028628
L193148628 185885771
L193291485 185814342
L193648628 185814342
L193791485 185742914
" />
<path d="M194505771 186385771
L194505771 185385771
" />
<path d="M194505771 185671485
L194577200 185528628
L194648628 185457200
L194791485 185385771
L194934342 185385771
" />
<path d="M196077200 186385771
L196077200 184885771
" />
<path d="M196077200 186314342
L195934342 186385771
L195648628 186385771
L195505771 186314342
L195434342 186242914
L195362914 186100057
L195362914 185671485
L195434342 185528628
L195505771 185457200
L195648628 185385771
L195934342 185385771
L196077200 185457200
" />
<path d="M196791485 186242914
L196862914 186314342
L196791485 186385771
L196720057 186314342
L196791485 186242914
L196791485 186385771
" />
<path d="M197505771 186385771
L197505771 184885771
" />
<path d="M197648628 185814342
L198077200 186385771
" />
<path d="M198077200 185385771
L197505771 185957200
" />
<path d="M198720057 186385771
L198720057 185385771
" />
<path d="M198720057 184885771
L198648628 184957200
L198720057 185028628
L198791485 184957200
L198720057 184885771
L198720057 185028628
" />
<path d="M200077200 186314342
L199934342 186385771
L199648628 186385771
L199505771 186314342
L199434342 186242914
L199362914 186100057
L199362914 185671485
L199434342 185528628
L199505771 185457200
L199648628 185385771
L199934342 185385771
L200077200 185457200
" />
<path d="M201362914 186385771
L201362914 185600057
L201291485 185457200
L201148628 185385771
L200862914 185385771
L200720057 185457200
" />
<path d="M201362914 186314342
L201220057 186385771
L200862914 186385771
L200720057 186314342
L200648628 186171485
L200648628 186028628
L200720057 185885771
L200862914 185814342
L201220057 185814342
L201362914 185742914
" />
<path d="M202720057 186385771
L202720057 184885771
" />
<path d="M202720057 186314342
L202577200 186385771
L202291485 186385771
L202148628 186314342
L202077200 186242914
L202005771 186100057
L202005771 185671485
L202077200 185528628
L202148628 185457200
L202291485 185385771
L202577200 185385771
L202720057 185457200
" />
<path d="M203077200 186528628
L204220057 186528628
" />
<path d="M204577200 185385771
L204577200 186885771
" />
<path d="M204577200 185457200
L204720057 185385771
L205005771 185385771
L205148628 185457200
L205220057 185528628
L205291485 185671485
L205291485 186100057
L205220057 186242914
L205148628 186314342
L205005771 186385771
L204720057 186385771
L204577200 186314342
" />
<path d="M206577200 186314342
L206434342 186385771
L206148628 186385771
L206005771 186314342
L205934342 186242914
L205862914 186100057
L205862914 185671485
L205934342 185528628
L206005771 185457200
L206148628 185385771
L206434342 185385771
L206577200 185457200
" />
<path d="M207220057 186385771
L207220057 184885771
" />
<path d="M207220057 185457200
L207362914 185385771
L207648628 185385771
L207791485 185457200
L207862914 185528628
L207934342 185671485
L207934342 186100057
L207862914 186242914
L207791485 186314342
L207648628 186385771
L207362914 186385771
L207220057 186314342
" />
</g></g>
<g style="fill:#000000; fill-opacity:0.0; 
stroke:#000000; stroke-width:21200.000000; stroke-opacity:1; 
stroke-linecap:round; stroke-linejoin:round;">
</g>
<g style="fill:#000000; fill-opacity:0.0; 
stroke:#000000; stroke-width:150000.000000; stroke-opacity:1; 
stroke-linecap:round; stroke-linejoin:round;">
<path d="M177002200 181507200
L285002200 181507200
" />
</g>
<g style="fill:#000000; fill-opacity:0.0; 
stroke:#000000; stroke-width:21200.000000; stroke-opacity:1; 
stroke-linecap:round; stroke-linejoin:round;">
</g>
<g style="fill:#000000; fill-opacity:0.0; 
stroke:#000000; stroke-width:150000.000000; stroke-opacity:1; 
stroke-linecap:round; stroke-linejoin:round;">
<text x="178002200.000000" y="183757200.000000"
textLength="8221429.000000" font-size="2000000.000000" lengthAdjust="spacingAndGlyphs"
text-anchor="start" opacity="0">Sheet: </text>
<g class="stroked-text"><desc>Sheet: </desc>
<path d="M178362914 183614342
L178577200 183685771
L178934342 183685771
L179077200 183614342
L179148628 183542914
L179220057 183400057
L179220057 183257200
L179148628 183114342
L179077200 183042914
L178934342 182971485
L178648628 182900057
L178505771 182828628
L178434342 182757200
L178362914 182614342
L178362914 182471485
L178434342 182328628
L178505771 182257200
L178648628 182185771
L179005771 182185771
L179220057 182257200
" />
<path d="M179862914 183685771
L179862914 182185771
" />
<path d="M180505771 183685771
L180505771 182900057
L180434342 182757200
L180291485 182685771
L180077200 182685771
L179934342 182757200
L179862914 182828628
" />
<path d="M181791485 183614342
L181648628 183685771
L181362914 183685771
L181220057 183614342
L181148628 183471485
L181148628 182900057
L181220057 182757200
L181362914 182685771
L181648628 182685771
L181791485 182757200
L181862914 182900057
L181862914 183042914
L181148628 183185771
" />
<path d="M183077200 183614342
L182934342 183685771
L182648628 183685771
L182505771 183614342
L182434342 183471485
L182434342 182900057
L182505771 182757200
L182648628 182685771
L182934342 182685771
L183077200 182757200
L183148628 182900057
L183148628 183042914
L182434342 183185771
" />
<path d="M183577200 182685771
L184148628 182685771
" />
<path d="M183791485 182185771
L183791485 183471485
L183862914 183614342
L184005771 183685771
L184148628 183685771
" />
<path d="M184648628 183542914
L184720057 183614342
L184648628 183685771
L184577200 183614342
L184648628 183542914
L184648628 183685771
" />
<path d="M184648628 182757200
L184720057 182828628
L184648628 182900057
L184577200 182828628
L184648628 182757200
L184648628 182900057
" />
</g></g>
<g style="fill:#000000; fill-opacity:0.0; 
stroke:#000000; stroke-width:21200.000000; stroke-opacity:1; 
stroke-linecap:round; stroke-linejoin:round;">
</g>
<g style="fill:#000000; fill-opacity:0.0; 
stroke:#000000; stroke-width:300000.000000; stroke-opacity:1; 
stroke-linecap:round; stroke-linejoin:round;">
<text x="178002200.000000" y="180757200.000000"
textLength="150000.000000" font-size="2000000.000000" lengthAdjust="spacingAndGlyphs"
text-anchor="start" opacity="0"></text>
<g class="stroked-text"><desc></desc>
</g></g>
<g style="fill:#000000; fill-opacity:0.0; 
stroke:#000000; stroke-width:21200.000000; stroke-opacity:1; 
stroke-linecap:round; stroke-linejoin:round;">
</g>
<g style="fill:#000000; fill-opacity:0.0; 
stroke:#000000; stroke-width:150000.000000; stroke-opacity:1; 
stroke-linecap:round; stroke-linejoin:round;">
<text x="178002200.000000" y="177757200.000000"
textLength="300000.000000" font-size="2000000.000000" lengthAdjust="spacingAndGlyphs"
text-anchor="start" opacity="0"></text>
<g class="stroked-text"><desc></desc>
</g></g>
<g style="fill:#000000; fill-opacity:0.0; 
stroke:#000000; stroke-width:21200.000000; stroke-opacity:1; 
stroke-linecap:round; stroke-linejoin:round;">
</g>
<g style="fill:#000000; fill-opacity:0.0; 
stroke:#000000; stroke-width:150000.000000; stroke-opacity:1; 
stroke-linecap:round; stroke-linejoin:round;">
<text x="178002200.000000" y="174757200.000000"
textLength="150000.000000" font-size="2000000.000000" lengthAdjust="spacingAndGlyphs"
text-anchor="start" opacity="0"></text>
<g class="stroked-text"><desc></desc>
</g></g>
<g style="fill:#000000; fill-opacity:0.0; 
stroke:#000000; stroke-width:21200.000000; stroke-opacity:1; 
stroke-linecap:round; stroke-linejoin:round;">
</g>
<g style="fill:#000000; fill-opacity:0.0; 
stroke:#000000; stroke-width:150000.000000; stroke-opacity:1; 
stroke-linecap:round; stroke-linejoin:round;">
<text x="178002200.000000" y="171757200.000000"
textLength="150000.000000" font-size="2000000.000000" lengthAdjust="spacingAndGlyphs"
text-anchor="start" opacity="0"></text>
<g class="stroked-text"><desc></desc>
</g></g>
<g style="fill:#000000; fill-opacity:0.0; 
stroke:#000000; stroke-width:21200.000000; stroke-opacity:1; 
stroke-linecap:round; stroke-linejoin:round;">
</g>
<g style="fill:#000000; fill-opacity:0.0; 
stroke:#000000; stroke-width:150000.000000; stroke-opacity:1; 
stroke-linecap:round; stroke-linejoin:round;">
<text x="178002200.000000" y="168757200.000000"
textLength="150000.000000" font-size="2000000.000000" lengthAdjust="spacingAndGlyphs"
text-anchor="start" opacity="0"></text>
<g class="stroked-text"><desc></desc>
</g></g>
<g style="fill:#000000; fill-opacity:0.0; 
stroke:#000000; stroke-width:21200.000000; stroke-opacity:1; 
stroke-linecap:round; stroke-linejoin:round;">
</g>
<g style="fill:#000000; fill-opacity:0.0; 
stroke:#000000; stroke-width:150000.000000; stroke-opacity:1; 
stroke-linecap:round; stroke-linejoin:round;">
<path d="M197002200 191507200
L197002200 194507200
" />
</g>
<g style="fill:#000000; fill-opacity:0.0; 
stroke:#000000; stroke-width:21200.000000; stroke-opacity:1; 
stroke-linecap:round; stroke-linejoin:round;">
</g>
<g style="fill:#000000; fill-opacity:0.0; 
stroke:#000000; stroke-width:150000.000000; stroke-opacity:1; 
stroke-linecap:round; stroke-linejoin:round;">
<path d="M261002200 191507200
L261002200 198007200
" />
<g >
</g>
<g >
</g>
<g >
</g>
<g >
</g>
<g >
</g>
<g >
</g>
<g >
</g>
<g >
</g>
<g >
</g>
<g >
</g>
<g >
</g>
<g >
</g>
<g >
</g>
<g >
</g>
<g >
</g>
<g >
</g>
<g >
</g>
<g >
</g>
<g >
</g>
<g >
</g>
<g >
</g>
<g >
</g>
<g >
</g>
<g >
</g>
<g >
</g>
<g >
</g>
<g >
</g>
<g >
</g>
<g >
</g>
<g >
</g>
<g >
</g>
<g >
</g>
<g >
</g>
<g >
</g>
<g >
</g>
<g >
</g>
<g >
</g>
<g >
</g>
<g >
</g>
<g >
</g>
<g >
</g>
<g >
</g>
<g >
</g>
<g >
</g>
<g >
</g>
<g >
</g>
<g >
</g>
<g >
</g>
<g >
</g>
<g >
</g>
<g >
</g>
<g >
</g>
<g >
</g>
<g >
</g>
<g >
</g>
<g >
</g>
<g >
</g>
<g >
</g>
<g >
</g>
<g >
</g>
<g >
</g>
<g >
</g>
<g >
</g>
<g >
</g>
<g >
</g>
<g >
</g>
<g >
</g>
<g >
</g>
<g >
</g>
<g >
</g>
<g >
</g>
<g >
</g>
<g >
</g>
<g >
</g>
<g >
</g>
<g >
</g>
<g >
</g>
<g >
</g>
<g >
</g>
<g >
</g>
<g >
</g>
<g >
</g>
<g >
</g>
<g >
</g>
<g >
</g>
<g >
</g>
<g >
</g>
<g >
</g>
<g >
</g>
<g >
</g>
<g >
</g>
<g >
</g>
<g >
</g>
<g >
</g>
<g >
</g>
<g >
</g>
<g >
</g>
<g >
</g>
<g >
</g>
<g >
</g>
<g >
</g>
<g >
</g>
<g >
</g>
<g >
</g>
<g >
</g>
<g >
</g>
<g >
</g>
<g >
</g>
<g >
</g>
<g >
</g>
<g >
</g>
<g >
</g>
<g >
</g>
<g >
</g>
<g >
</g>
<g >
</g>
<g >
</g>
<g >
</g>
<g >
</g>
<g >
</g>
<g >
</g>
<g >
</g>
<g >
</g>
<g >
</g>
<g >
</g>
<g >
</g>
<g >
</g>
<g >
</g>
<g >
</g>
<g >
</g>
<g >
</g>
<g >
</g>
<g >
</g>
<g >
</g>
<g >
</g>
<g >
</g>
<g >
</g>
<g >
</g>
<g >
</g>
<g >
</g>
<g >
</g>
<g >
</g>
</g>
<g style="fill:#000000; fill-opacity:0.0; 
stroke:#000000; stroke-width:150000.000000; stroke-opacity:1; 
stroke-linecap:round; stroke-linejoin:round;">
</g>
<g style="fill:#D0D2CD; fill-opacity:0.0; 
stroke:#D0D2CD; stroke-width:150000.000000; stroke-opacity:1; 
stroke-linecap:round; stroke-linejoin:round;">
</g>
<g style="fill:#D0D2CD; fill-opacity:0.0; 
stroke:#D0D2CD; stroke-width:203200.000000; stroke-opacity:1; 
stroke-linecap:round; stroke-linejoin:round;">
<path d="M169631400 77048878
L169445900 76754178
" />
<path d="M124411700 140274478
L124594600 140363378
" />
<path d="M133649700 140548878
L133649700 141587678
" />
<path d="M126870500 140274478
L126687600 140363378
" />
<path d="M162694599.630814 140363378.759578 A1934615.000000 1934615.000000 0.0 0 0 163352499.979183 140548878.213433" />
<path d="M171749698.998903 140548867.735404 A1934704.000000 1934704.000000 0.0 0 0 172407599.958375 140363377.914354" />
<path d="M164129700 127879278
L164129700 126840478
" />
<path d="M123101100 130454878
L123101100 138100278
" />
<path d="M166476700 109558278
L166339500 109692878
" />
<path d="M135801065.350559 130327877.817505 A2426099.000000 2426099.000000 0.0 0 0 134404099.134930 128118076.711938" />
<path d="M177711121.999809 66269077.999619 A1270022.000000 1270022.000000 0.0 0 0 176441100.000000 64999078.000000" />
<path d="M132997900 70751078
L134179000 69875278
" />
<path d="M174058600 96591578
L174012900 96774478
" />
<path d="M128181133.537141 130454879.255479 A2512192.000000 2512192.000000 0.0 0 0 126870399.189806 128153677.650792" />
<path d="M157985503.983367 113528288.099351 A23100499.000000 23100499.000000 0.0 0 0 165315900.194836 108885178.207657" />
<path d="M165521600 108692178
L165315900 108885178
" />
<path d="M170972500 140548878
L170972500 141587678
" />
<path d="M165011100 64999078
L162471100 64999078
" />
<path d="M137071100.000000 125959117.000000 A2359217.000000 2359217.000000 0.0 0 0 139049799.108643 124884678.070542" />
<path d="M162471100 125959078
L161201100 125959078
" />
<path d="M157238692.055417 126136882.547926 A10244170.000000 10244170.000000 0.0 0 0 153047699.808873 122123678.370200" />
<path d="M163352500 140548878
L163352500 141587678
" />
<path d="M132999501.385142 70747079.659527 A34131226.000000 34131226.000000 0.0 0 0 130205499.907262 73358177.911295" />
<path d="M132872501.369172 127879292.038915 A1934744.000000 1934744.000000 0.0 0 0 132214599.855333 128064777.702331" />
<path d="M121831100 127229078
L121831100 141199078
" />
<path d="M132872521.999725 126840477.999451 A881422.000000 881422.000000 0.0 0 0 131991100.000000 125959078.000000" />
<path d="M177711100 143739078
L177711100 66269078
" />
<path d="M139763494.276508 135941381.276559 A10244040.000000 10244040.000000 0.0 0 0 143954499.803289 139954478.381030" />
<path d="M167517600 108528178
L166465200 109564178
" />
<path d="M175171100 127229078
L175171100 141199078
" />
<path d="M125066698.606572 78624023.983623 A635002.000000 635002.000000 0.0 0 0 126217700.384726 79160778.179412" />
<path d="M131965714.820212 128194304.350608 A2447896.000000 2447896.000000 0.0 0 0 130721099.540157 130454878.023885" />
<path d="M134531100.000000 125959100.000000 A881400.000000 881400.000000 0.0 0 0 133649700.000275 126840478.000000" />
<path d="M153047701.203693 122123675.668510 A9437466.000000 9437466.000000 0.0 0 0 151320499.911624 121437878.308092" />
<path d="M158470599.205299 114689075.812999 A16893012.000000 16893012.000000 0.0 0 0 160977600.182081 113538478.323987" />
<path d="M175171121.999809 127229077.999619 A1270022.000000 1270022.000000 0.0 0 0 173901100.000000 125959078.000000" />
<path d="M131102099.999629 125961578.028241 A29033122.000000 29033122.000000 0.0 0 0 130721100.000000 125959078.000000" />
<path d="M162471100.000000 142469100.000000 A881400.000000 881400.000000 0.0 0 0 163352499.999725 141587678.000000" />
<path d="M126870402.721984 140274484.007840 A2512160.000000 2512160.000000 0.0 0 0 128181099.914300 137973278.003210" />
<path d="M133649700 127879278
L133649700 126840478
" />
<path d="M172590500 128153678
L172407600 128064778
" />
<path d="M150718500.065982 116578879.226069 A16083519.000000 16083519.000000 0.0 0 0 153370299.894800 116213077.530429" />
<path d="M143954496.851152 139954484.099196 A9437520.000000 9437520.000000 0.0 0 0 145681700.041272 140640277.856119" />
<path d="M164970402.721984 140274484.007840 A2512160.000000 2512160.000000 0.0 0 0 166281099.914300 137973278.003210" />
<path d="M126029698.998903 140548867.735404 A1934704.000000 1934704.000000 0.0 0 0 126687599.958375 140363377.914354" />
<path d="M124594599.630814 140363378.759578 A1934615.000000 1934615.000000 0.0 0 0 125252499.979183 140548878.213433" />
<path d="M161201100 125959078
L159931100 125959078
" />
<path d="M164129698.998903 140548867.735404 A1934704.000000 1934704.000000 0.0 0 0 164787599.958375 140363377.914354" />
<path d="M163496300 68798178
L164432600 69479678
" />
<path d="M128181100 137973278
L128181100 130327878
" />
<path d="M151041100 142469078
L162471100 142469078
" />
<path d="M164129722.000275 141587678.000549 A881378.000000 881378.000000 0.0 0 0 165011100.000000 142469078.000000" />
<path d="M132214599.630814 140363378.759578 A1934615.000000 1934615.000000 0.0 0 0 132872499.979183 140548878.213433" />
<path d="M131483101.373810 108714976.520790 A24690103.000000 24690103.000000 0.0 0 0 138744999.875974 113396278.296051" />
<path d="M156587619.579997 114063144.079451 A634918.000000 634918.000000 0.0 0 0 156948298.091580 115280680.309222" />
<path d="M131991100 64999078
L134531100 64999078
" />
<path d="M173901065.350559 130327877.817505 A2426099.000000 2426099.000000 0.0 0 0 172504099.134930 128118076.711938" />
<path d="M141871710.556202 138532066.710300 A8868618.000000 8868618.000000 0.0 0 0 145808699.893857 140665578.431132" />
<path d="M164004300 70751078
L162823200 69875278
" />
<path d="M125252500 127879278
L125252500 126840478
" />
<path d="M128081100 106913078
L127191300 105734478
" />
<path d="M158508691.902298 130988377.936335 A9613189.000000 9613189.000000 0.0 0 0 157238699.611337 126136878.222492" />
<path d="M147236106.376374 142469036.746920 A749533.000000 749533.000000 0.0 1 0 147431799.962652 140983178.342716" />
<path d="M157060897.741270 136195377.577773 A9426600.000000 9426600.000000 0.0 0 0 158508699.722897 130988378.005416" />
<path d="M124861300 82309178
L124749600 82652078
" />
<path d="M145808698.632664 121412572.446089 A8868666.000000 8868666.000000 0.0 0 0 141871699.723646 123546077.704442" />
<path d="M159727900 68074978
L159555200 67993778
" />
<path d="M170131700 128153678
L170314600 128064778
" />
<path d="M134531100 125959078
L137071100 125959078
" />
<path d="M133649722.000275 141587678.000549 A881378.000000 881378.000000 0.0 0 0 134531100.000000 142469078.000000" />
<path d="M138493498.277485 130988277.966331 A9426602.000000 9426602.000000 0.0 0 0 139941300.115393 136195277.927342" />
<path d="M171749700 140548878
L171749700 141587678
" />
<path d="M173799500 83312478
L172920700 80696278
" />
<path d="M162511817.046920 128153707.523334 A2512158.000000 2512158.000000 0.0 0 0 161201100.439060 130454877.983564" />
<path d="M149067499.992702 115412971.083709 A16016180.000000 16016180.000000 0.0 0 0 151655800.008478 115199678.051426" />
<path d="M132872500 140548878
L132872500 141587678
" />
<path d="M163352500 127879278
L163352500 126840478
" />
<path d="M124411817.046920 128153707.523334 A2512158.000000 2512158.000000 0.0 0 0 123101100.439060 130454877.983564" />
<path d="M164444700 69484678
L164561500 69576178
" />
<path d="M130629702.230689 109639575.780867 A13402387.000000 13402387.000000 0.0 0 0 131813299.998405 110696178.002015" />
<path d="M154957301.964572 115865291.381196 A635054.000000 635054.000000 0.0 0 0 154596600.113816 114647478.384389" />
<path d="M145476004.881579 120162795.469730 A11282249.000000 11282249.000000 0.0 0 0 139049799.959221 124884677.973522" />
<path d="M163352501.369172 127879292.038915 A1934744.000000 1934744.000000 0.0 0 0 162694599.855333 128064777.702331" />
<path d="M130721083.355855 138100277.912721 A2426150.000000 2426150.000000 0.0 0 0 132118099.102971 140310078.780161" />
<path d="M174231300.239489 84950777.944348 A92707162.000000 92707162.000000 0.0 0 0 173946800.050509 83762077.987559" />
<path d="M126687602.304199 128064773.259127 A1934659.000000 1934659.000000 0.0 0 0 126029700.040988 127879277.579750" />
<path d="M119291100 66269078
L119291100 143739078
" />
<path d="M142061500 115888978
L143557000 116218678
" />
<path d="M134490500 140274478
L134307600 140363378
" />
<path d="M143925200 115005878
L142432800 114674478
" />
<path d="M173405092.682021 92911576.972108 A634980.000000 634980.000000 0.0 0 0 174662699.601944 93088277.944053" />
<path d="M167517565.411418 108528147.404846 A635048.000000 635048.000000 0.0 0 0 166566300.326304 107686578.288721" />
<path d="M169882796.804420 105666975.606040 A21428226.000000 21428226.000000 0.0 0 0 171444899.649291 103261677.804283" />
<path d="M134490500 128153678
L134307600 128064778
" />
<path d="M123482099.999629 125961578.028241 A29033122.000000 29033122.000000 0.0 0 0 123101100.000000 125959078.000000" />
<path d="M148523999.997767 65400378.120134 A21639060.000000 21639060.000000 0.0 0 0 142425399.996667 66159877.987786" />
<path d="M133322099.275269 68936076.953179 A15843587.000000 15843587.000000 0.0 0 0 131531400.197148 70378778.211276" />
<path d="M166281133.537141 130454879.255479 A2512192.000000 2512192.000000 0.0 0 0 164970399.189806 128153677.650792" />
<path d="M143954499.729752 139954478.538869 A10085594.000000 10085594.000000 0.0 0 0 145808800.029592 140665677.892079" />
<path d="M123101107.080795 137973278.265197 A2512153.000000 2512153.000000 0.0 0 0 124411800.201341 140274477.629577" />
<path d="M172631100 125959078
L173901100 125959078
" />
<path d="M126029700 140548878
L126029700 141587678
" />
<path d="M140078577.707337 115277645.396418 A635078.000000 635078.000000 0.0 0 0 140449899.899720 114062978.327961" />
<path d="M167945227.094224 106135801.967906 A634946.000000 634946.000000 0.0 0 0 168896300.214963 106977280.190225" />
<path d="M127850900 125959078
L130721100 125959078
" />
<path d="M147340300.635059 119817384.743310 A10631249.000000 10631249.000000 0.0 0 0 145476000.119312 120162778.426982" />
<path d="M164970500 140274478
L164787600 140363378
" />
<path d="M158374200 114728478
L158511200 114672078
" />
<path d="M143555300 116215478
L143700700 116244078
" />
<path d="M132026700 71575178
L131874300 71717378
" />
<path d="M134769901.650847 112794275.394623 A17132214.000000 17132214.000000 0.0 0 0 136331999.948767 113673078.103377" />
<path d="M173494712.830151 90373678.042466 A24677548.000000 24677548.000000 0.0 0 0 169633899.926450 77038678.046827" />
<path d="M172158697.568330 78892879.222656 A29198835.000000 29198835.000000 0.0 0 0 169664400.295993 74805977.784165" />
<path d="M146870400.539473 140909475.493924 A3477860.000000 3477860.000000 0.0 0 0 147431799.992375 140983178.155356" />
<path d="M134179002.712477 69875282.341397 A635063.000000 635063.000000 0.0 1 0 133505900.204693 68798178.327485" />
<path d="M146870400.293373 121168679.363012 A41300288.000000 41300288.000000 0.0 0 0 145671499.975054 121445477.898851" />
<path d="M176441100.000000 145009100.000000 A1270000.000000 1270000.000000 0.0 0 0 177711099.999809 143739078.000000" />
<path d="M165011100 142469078
L170091100 142469078
" />
<path d="M135801065.350559 130327877.817505 A2426099.000000 2426099.000000 0.0 0 0 134404099.134930 128118076.711938" />
<path d="M147131999.933070 115374879.655744 A46719703.000000 46719703.000000 0.0 0 0 149067499.999819 115412977.825925" />
<path d="M131813303.170895 110696173.993860 A34623216.000000 34623216.000000 0.0 0 0 134769900.248780 112794277.607376" />
<path d="M162511700 128153678
L162694600 128064778
" />
<path d="M172590402.721984 140274484.007840 A2512160.000000 2512160.000000 0.0 0 0 173901099.914300 137973278.003210" />
<path d="M145961100 142469078
L135801100 142469078
" />
<path d="M131991100.000000 142469100.000000 A881400.000000 881400.000000 0.0 0 0 132872499.999725 141587678.000000" />
<path d="M135801100 137973278
L135801100 130327878
" />
<path d="M151041100 142469178
L149796500 142469178
" />
<path d="M173901065.350559 130327877.817505 A2426099.000000 2426099.000000 0.0 0 0 172504099.134930 128118076.711938" />
<path d="M158014900 113515678
L156587600 114063078
" />
<path d="M170091100.000000 142469100.000000 A881400.000000 881400.000000 0.0 0 0 170972499.999725 141587678.000000" />
<path d="M146819599.840353 116614382.488680 A43669677.000000 43669677.000000 0.0 0 0 150718500.026779 116578878.497615" />
<path d="M163352521.999725 126840477.999451 A881422.000000 881422.000000 0.0 0 0 162471100.000000 125959078.000000" />
<path d="M127205700 105760978
L126819700 105217478
" />
<path d="M157952415.137503 124884668.171026 A11282267.000000 11282267.000000 0.0 0 0 151526199.962607 120162778.133817" />
<path d="M170972521.999725 126840477.999451 A881422.000000 881422.000000 0.0 0 0 170091100.000000 125959078.000000" />
<path d="M139941322.493346 125882792.163228 A9426599.000000 9426599.000000 0.0 0 0 138493500.417297 131089777.991845" />
<path d="M134490402.721984 140274484.007840 A2512160.000000 2512160.000000 0.0 0 0 135801099.914300 137973278.003210" />
<path d="M125252500 140548878
L125252500 141587678
" />
<path d="M168856694.719491 104932974.252695 A25605795.000000 25605795.000000 0.0 0 0 172727599.695039 96667777.919257" />
<path d="M167800003.668528 72547974.579898 A28221916.000000 28221916.000000 0.0 0 0 164561499.957658 69576178.054050" />
<path d="M130532500 109550878
L130640700 109652178
" />
<path d="M171749722.000275 141587678.000549 A881378.000000 881378.000000 0.0 0 0 172631100.000000 142469078.000000" />
<path d="M173901100 142469078
L172631100 142469078
" />
<path d="M135263119.813046 67694309.708057 A634973.000000 634973.000000 0.0 1 0 135936099.960042 68771277.936058" />
<path d="M140078600 115277578
L138699400 114749578
" />
<path d="M119291122.000191 143739078.000381 A1269978.000000 1269978.000000 0.0 0 0 120561100.000000 145009078.000000" />
<path d="M174751500 91561778
L174757000 91413778
" />
<path d="M124871400 82313478
L125346200 81072278
" />
<path d="M158508726.577549 131089878.519374 A9426626.000000 9426626.000000 0.0 0 0 157060900.354597 125882877.776724" />
<path d="M173898600 83607078
L173799500 83312478
" />
<path d="M123083300 83769678
L123151900 83515678
" />
<path d="M127014100 77724278
L126217700 79160778
" />
<path d="M124371100 142469078
L123101100 142469078
" />
<path d="M125066600 78623978
L125852500 77174278
" />
<path d="M162445714.820212 128194304.350608 A2447896.000000 2447896.000000 0.0 0 0 161201099.540157 130454878.023885" />
<path d="M159555198.146306 67993781.942514 A30683782.000000 30683782.000000 0.0 0 0 154576799.924275 66159878.277513" />
<path d="M150131799.709759 140909476.651543 A41300245.000000 41300245.000000 0.0 0 0 151330699.957899 140632677.829290" />
<path d="M137192999.766453 114099778.471397 A15463836.000000 15463836.000000 0.0 0 0 138493499.832267 114671278.434909" />
<path d="M161582099.999629 125961578.028241 A29033122.000000 29033122.000000 0.0 0 0 161201100.000000 125959078.000000" />
<path d="M135232063.273780 67714211.431834 A1435479.000000 1435479.000000 0.0 0 0 134531099.989435 64999077.710757" />
<path d="M174662700 93088278
L174754400 91559678
" />
<path d="M125252501.369172 127879292.038915 A1934744.000000 1934744.000000 0.0 0 0 124594599.855333 128064777.702331" />
<path d="M138341100 142469078
L134531100 142469078
" />
<path d="M137193000 114099778
L136332000 113673078
" />
<path d="M151330700.264394 121445476.927942 A41300289.000000 41300289.000000 0.0 0 0 150131799.917047 121168678.385401" />
<path d="M168896300 106977278
L169816500 105753278
" />
<path d="M161201107.080795 137973278.265197 A2512153.000000 2512153.000000 0.0 0 0 162511800.201341 140274477.629577" />
<path d="M172796200 96408678
L172727600 96667778
" />
<path d="M122905517.236815 96413774.160481 A24345587.000000 24345587.000000 0.0 0 0 126819699.721339 105217478.197908" />
<path d="M124749602.626289 82652078.855518 A24989381.000000 24989381.000000 0.0 0 0 128188699.317129 104935477.773041" />
<path d="M131487100 108721078
L130397200 107649278
" />
<path d="M173901133.537141 130454879.255479 A2512192.000000 2512192.000000 0.0 0 0 172590399.189806 128153677.650792" />
<path d="M169445901.972834 76754176.758192 A21424207.000000 21424207.000000 0.0 0 0 166796700.272223 73358177.739615" />
<path d="M170972501.369172 127879292.038915 A1934744.000000 1934744.000000 0.0 0 0 170314599.855333 128064777.702331" />
<path d="M145671499.802652 140632678.800199 A41300246.000000 41300246.000000 0.0 0 0 146870400.079820 140909477.629154" />
<path d="M145188900.565090 115186974.320814 A17440113.000000 17440113.000000 0.0 0 0 147132000.003322 115374877.917840" />
<path d="M147431799.661270 121094971.101863 A3478415.000000 3478415.000000 0.0 0 0 146870400.089546 121168678.415990" />
<path d="M142432824.706640 114674397.168022 A635038.000000 635038.000000 0.0 0 0 142061497.943637 115888979.184318" />
<path d="M164970500 128153678
L164787600 128064778
" />
<path d="M130205501.173067 73358179.122053 A21424205.000000 21424205.000000 0.0 0 0 127556299.719766 76754177.823605" />
<path d="M160977598.759881 113538475.793384 A38673046.000000 38673046.000000 0.0 0 0 163616600.173009 111912878.257181" />
<path d="M169812900 105753478
L169899100 105632978
" />
<path d="M168865500 104915278
L167945200 106135778
" />
<path d="M122268002.721210 89085878.124228 A27859683.000000 27859683.000000 0.0 0 0 122905500.308564 96413777.931266" />
<path d="M139941322.493346 125882892.163228 A9426599.000000 9426599.000000 0.0 0 0 138493500.417297 131089877.991845" />
<path d="M172407602.304199 128064773.259127 A1934659.000000 1934659.000000 0.0 0 0 171749700.040988 127879277.579750" />
<path d="M163616601.305194 111912879.940181 A19156667.000000 19156667.000000 0.0 0 0 166339500.252967 109692878.257854" />
<path d="M129438700 108482478
L130532200 109554478
" />
<path d="M135801133.537141 130454879.255479 A2512192.000000 2512192.000000 0.0 0 0 134490399.189806 128153677.650792" />
<path d="M143659898.210055 116235986.703758 A19046714.000000 19046714.000000 0.0 0 0 146819599.982613 116614378.488860" />
<path d="M157060899.045334 125882878.601115 A11826102.000000 11826102.000000 0.0 0 0 155130499.781046 123546078.234163" />
<path d="M164787602.304199 128064773.259127 A1934659.000000 1934659.000000 0.0 0 0 164129700.040988 127879277.579750" />
<path d="M145206700 115184378
L143893500 114998978
" />
<path d="M128181065.350559 130327877.817505 A2426099.000000 2426099.000000 0.0 0 0 126784099.134930 128118076.711938" />
<path d="M141871699.535965 123546077.503734 A11826103.000000 11826103.000000 0.0 0 0 139941300.108445 125882878.068283" />
<path d="M130721107.080795 137973278.265197 A2512153.000000 2512153.000000 0.0 0 0 132031800.201341 140274477.629577" />
<path d="M151193503.459863 140665593.053366 A8868633.000000 8868633.000000 0.0 0 0 155130499.688499 138532077.666855" />
<path d="M155130506.705765 138532085.171500 A11826080.000000 11826080.000000 0.0 0 0 157060900.267730 136195278.168577" />
<path d="M168821107.080795 137973278.265197 A2512153.000000 2512153.000000 0.0 0 0 170131800.201341 140274477.629577" />
<path d="M172852096.434546 80533679.237160 A1494696.000000 1494696.000000 0.0 0 0 172923199.957764 80703878.020793" />
<path d="M125252521.999725 126840477.999451 A881422.000000 881422.000000 0.0 0 0 124371100.000000 125959078.000000" />
<path d="M134307602.304199 128064773.259127 A1934659.000000 1934659.000000 0.0 0 0 133649700.040988 127879277.579750" />
<path d="M162511700 140274478
L162694600 140363378
" />
<path d="M126911100 125959078
L128181100 125959078
" />
<path d="M174369006.507262 95142478.914452 A635086.000000 635086.000000 0.0 0 0 173111199.557708 94965677.937815" />
<path d="M137274300 68074978
L137447000 67993778
" />
<path d="M162471102.821335 64999000.762076 A1435556.000000 1435556.000000 0.0 0 0 161770099.942075 67714279.114375" />
<path d="M131991100 142469078
L126911100 142469078
" />
<path d="M174767197.901428 90414277.931192 A25301091.000000 25301091.000000 0.0 0 0 174754499.529661 91455678.003946" />
<path d="M124411700 128153678
L124594600 128064778
" />
<path d="M173498900 91385778
L173405100 92911578
" />
<path d="M153177200 114950678
L151848800 115171678
" />
<path d="M126029722.000275 141587678.000549 A881378.000000 881378.000000 0.0 0 0 126911100.000000 142469078.000000" />
<path d="M165112700 64999078
L176441100 64999078
" />
<path d="M156948300 115280678
L158377300 114730278
" />
<path d="M130397235.124110 107649247.462694 A635032.000000 635032.000000 0.0 0 0 129438700.046983 108482477.959165" />
<path d="M166796701.538030 73358176.528859 A34131228.000000 34131228.000000 0.0 0 0 164002699.896429 70747078.124087" />
<path d="M123090899.943175 83762077.984817 A25049160.000000 25049160.000000 0.0 0 0 122268000.328134 89085878.014980" />
<path d="M176441100 145009078
L120561100 145009078
" />
<path d="M154576801.860307 66159871.182395 A21639260.000000 21639260.000000 0.0 0 0 148478200.001591 65400378.085591" />
<path d="M157952395.565902 124884681.879304 A2359278.000000 2359278.000000 0.0 0 0 159931100.000000 125959078.000000" />
<path d="M170314599.630814 140363378.759578 A1934615.000000 1934615.000000 0.0 0 0 170972499.979183 140548878.213433" />
<path d="M128166200 104896978
L129039600 106079878
" />
<path d="M125849400 77196178
L125943400 77031078
" />
<path d="M153517600 116180078
L153370300 116213078
" />
<path d="M161201083.355855 138100277.912721 A2426150.000000 2426150.000000 0.0 0 0 162598099.102971 140310078.780161" />
<path d="M145961100 142469178
L147231100 142469078
" />
<path d="M131991100 125959078
L130721100 125959078
" />
<path d="M174767190.094464 90414277.675216 A21085315.000000 21085315.000000 0.0 0 0 174231299.787471 84950778.049386" />
<path d="M142425398.563844 66159872.736857 A30683472.000000 30683472.000000 0.0 0 0 137447000.135670 67993778.288547" />
<path d="M139074700 113540478
L140449900 114062978
" />
<path d="M171444890.884169 103261672.912822 A26489081.000000 26489081.000000 0.0 0 0 174012900.001305 96774478.000326" />
<path d="M170091100 125959078
L168821100 125959078
" />
<path d="M166281100 137973278
L166281100 130327878
" />
<path d="M133649698.998903 140548867.735404 A1934704.000000 1934704.000000 0.0 0 0 134307599.958375 140363377.914354" />
<path d="M169202099.999629 125961578.028241 A29033122.000000 29033122.000000 0.0 0 0 168821100.000000 125959078.000000" />
<path d="M172590500 140274478
L172407600 140363378
" />
<path d="M149661890.781952 119817475.828179 A640549.000000 640549.000000 0.0 1 0 149570400.004111 121094978.916235" />
<path d="M120561100.000000 64999100.000000 A1270000.000000 1270000.000000 0.0 0 0 119291100.000191 66269078.000000" />
<path d="M137291800 68064978
L135936100 68771278
" />
<path d="M173497200 91384578
L173497200 90388878
" />
<path d="M172852103.528243 80533676.776168 A13513449.000000 13513449.000000 0.0 0 0 172158699.599859 78892878.201145" />
<path d="M151526199.054875 120162781.382222 A10630957.000000 10630957.000000 0.0 0 0 149661899.991114 119817378.094355" />
<path d="M124183096.580017 80533676.545644 A22832781.000000 22832781.000000 0.0 0 0 123151900.076989 83515678.020793" />
<path d="M159710400 68064978
L161066100 68771278
" />
<path d="M121831122.000191 141199078.000381 A1269978.000000 1269978.000000 0.0 0 0 123101100.000000 142469078.000000" />
<path d="M149570403.782918 140983208.521109 A748966.000000 748966.000000 0.0 1 0 149793999.950360 142463977.714736" />
<path d="M170131817.046920 128153707.523334 A2512158.000000 2512158.000000 0.0 0 0 168821100.439060 130454877.983564" />
<path d="M170065714.820212 128194304.350608 A2447896.000000 2447896.000000 0.0 0 0 168821099.540157 130454878.023885" />
<path d="M127982994.093484 74041473.225375 A22330768.000000 22330768.000000 0.0 0 0 125943400.256328 77031078.145940" />
<path d="M131531401.552501 70383879.805749 A28217807.000000 28217807.000000 0.0 0 0 127982999.908782 74041477.926262" />
<path d="M168821100 130454878
L168821100 138100278
" />
<path d="M124371100.000000 142469100.000000 A881400.000000 881400.000000 0.0 0 0 125252499.999725 141587678.000000" />
<path d="M172631100.000000 125959100.000000 A881400.000000 881400.000000 0.0 0 0 171749700.000275 126840478.000000" />
<path d="M126870500 128153678
L126687600 128064778
" />
<path d="M161066080.432040 68771309.313272 A635010.000000 635010.000000 0.0 1 0 161739099.793720 67694278.330123" />
<path d="M173946799.059166 83762078.231764 A1083757.000000 1083757.000000 0.0 0 0 173878200.206603 83566477.904475" />
<path d="M139763521.952202 135941265.433434 A10244132.000000 10244132.000000 0.0 0 0 143954498.898383 139954478.196825" />
<path d="M173901100.000000 142469100.000000 A1270000.000000 1270000.000000 0.0 0 0 175171099.999809 141199078.000000" />
<path d="M139941308.194500 136195272.840288 A11826070.000000 11826070.000000 0.0 0 0 141871700.124145 138532077.867232" />
<path d="M138704300 114752578
L138493500 114671278
" />
<path d="M133487200 68821778
L133322100 68936078
" />
<path d="M131889500 64999078
L120561100 64999078
" />
<path d="M164129700 140548878
L164129700 141587678
" />
<path d="M171749700 127879278
L171749700 126840478
" />
<path d="M128081120.526352 106913060.151754 A634995.000000 634995.000000 0.0 0 0 129039599.752481 106079878.215099" />
<path d="M132872500 127879278
L132872500 126840478
" />
<path d="M128181065.350559 130327877.817505 A2426099.000000 2426099.000000 0.0 0 0 126784099.134930 128118076.711938" />
<path d="M165507600 108706878
L166566300 107686578
" />
<path d="M170131700 140274478
L170314600 140363378
" />
<path d="M168821083.355855 138100277.912721 A2426150.000000 2426150.000000 0.0 0 0 170218099.102971 140310078.780161" />
<path d="M132031817.046920 128153707.523334 A2512158.000000 2512158.000000 0.0 0 0 130721100.439060 130454877.983564" />
<path d="M123101083.355855 138100277.912721 A2426150.000000 2426150.000000 0.0 0 0 124498099.102971 140310078.780161" />
<path d="M169664399.996714 74805978.002396 A24352796.000000 24352796.000000 0.0 0 0 167800000.358769 72547977.665527" />
<path d="M173901100 137973278
L173901100 130327878
" />
<path d="M131874301.326910 71717379.422089 A35547689.000000 35547689.000000 0.0 0 0 129237700.271021 74455478.234379" />
<path d="M124345714.820212 128194304.350608 A2447896.000000 2447896.000000 0.0 0 0 123101099.540157 130454878.023885" />
<path d="M170972500 127879278
L170972500 126840478
" />
<path d="M172791600 96400878
L173111200 94965678
" />
<path d="M161201100 130454878
L161201100 138100278
" />
<path d="M129237705.023922 74455482.344698 A16978744.000000 16978744.000000 0.0 0 0 126999999.739839 77760077.865408" />
<path d="M165011100 125959078
L168821100 125959078
" />
<path d="M177711100 139929078
L177711100 128499078
" />
<path d="M130721100 130454878
L130721100 138100278
" />
<path d="M155130496.178488 123546082.087078 A8868660.000000 8868660.000000 0.0 0 0 151193499.933005 121412578.272124" />
<path d="M163496295.707041 68798181.668497 A635058.000000 635058.000000 0.0 1 0 162823199.936888 69875278.101012" />
<path d="M155130506.705765 138532185.171500 A11826080.000000 11826080.000000 0.0 0 0 157060900.267730 136195378.168577" />
<path d="M126911100.000000 125959100.000000 A881400.000000 881400.000000 0.0 0 0 126029700.000275 126840478.000000" />
<path d="M165011100.000000 125959100.000000 A881400.000000 881400.000000 0.0 0 0 164129700.000275 126840478.000000" />
<path d="M166281065.350559 130327877.817505 A2426099.000000 2426099.000000 0.0 0 0 164884099.134930 128118076.711938" />
<path d="M138493492.654990 131089877.942296 A9613304.000000 9613304.000000 0.0 0 0 139763500.047850 135941377.972608" />
<path d="M126029700 127879278
L126029700 126840478
" />
<path d="M150131800.610326 121168675.164578 A3478104.000000 3478104.000000 0.0 0 0 149570400.022006 121094977.551627" />
<path d="M153158000 114951778
L154596600 114647478
" />
<path d="M125346254.999737 81072303.638957 A635020.000000 635020.000000 0.0 0 0 124195199.211933 80535580.098848" />
<path d="M132031700 128153678
L132214600 128064778
" />
<path d="M154957300 115865278
L153515800 116186178
" />
<path d="M124371100 125959078
L123101100 125959078
" />
<path d="M149570399.829225 140983174.520426 A3478156.000000 3478156.000000 0.0 0 0 150131800.032460 140909478.150802" />
<path d="M138493479.658477 131089777.840191 A9613217.000000 9613217.000000 0.0 0 0 139763500.233701 135941277.866215" />
<path d="M132031700 140274478
L132214600 140363378
" />
<path d="M147431802.804393 121095076.896352 A640647.000000 640647.000000 0.0 1 0 147340300.024533 119817378.260360" />
<path d="M151193503.459863 140665693.053366 A8868633.000000 8868633.000000 0.0 0 0 155130499.688499 138532177.666855" />
<path d="M139090400 113540978
L138745000 113396278
" />
<path d="M151886900 115161578
L151655800 115199678
" />
<path d="M123101100.000000 125959100.000000 A1270000.000000 1270000.000000 0.0 0 0 121831100.000191 127229078.000000" />
<path d="M174369000 95142478
L174063200 96587178
" />
<path d="M157060897.741270 136195277.577773 A9426600.000000 9426600.000000 0.0 0 0 158508699.722897 130988278.005416" />
<path d="M166281065.350559 130327877.817505 A2426099.000000 2426099.000000 0.0 0 0 164884099.134930 128118076.711938" />
<g >
</g>
<g >
</g>
<g >
</g>
<g >
</g>
<g >
</g>
<g >
</g>
<g >
</g>
<g >
</g>
<g >
</g>
<g >
</g>
<g >
</g>
<g >
</g>
<g >
</g>
<g >
</g>
<g >
</g>
<g >
</g>
<g >
</g>
<g >
</g>
<g >
</g>
<g >
</g>
<g >
</g>
<g >
</g>
<g >
</g>
<g >
</g>
<g >
</g>
<g >
</g>
<g >
</g>
<g >
</g>
<g >
</g>
<g >
</g>
<g >
</g>
<g >
</g>
<g >
</g>
<g >
</g>
<g >
</g>
<g >
</g>
<g >
</g>
<g >
</g>
<g >
</g>
<g >
</g>
<g >
</g>
<g >
</g>
<g >
</g>
<g >
</g>
<g >
</g>
<g >
</g>
<g >
</g>
<g >
</g>
<g >
</g>
<g >
</g>
<g >
</g>
<g >
</g>
<g >
</g>
<g >
</g>
<g >
</g>
<g >
</g>
<g >
</g>
<g >
</g>
<g >
</g>
<g >
</g>
<g >
</g>
<g >
</g>
<g >
</g>
<g >
</g>
<g >
</g>
<g >
</g>
<g >
</g>
<g >
</g>
<g >
</g>
<g >
</g>
<g >
</g>
<g >
</g>
<g >
</g>
<g >
</g>
<g >
</g>
<g >
</g>
<g >
</g>
<g >
</g>
<g >
</g>
<g >
</g>
<g >
</g>
<g >
</g>
<g >
</g>
<g >
</g>
<g >
</g>
<g >
</g>
<g >
</g>
<g >
</g>
<g >
</g>
<g >
</g>
<g >
</g>
<g >
</g>
<g >
</g>
<g >
</g>
<g >
</g>
<g >
</g>
<g >
</g>
<g >
</g>
<g >
</g>
<g >
</g>
<g >
</g>
<g >
</g>
<g >
</g>
<g >
</g>
<g >
</g>
<g >
</g>
<g >
</g>
<g >
</g>
<g >
</g>
<g >
</g>
<g >
</g>
<g >
</g>
<g >
</g>
<g >
</g>
<g >
</g>
<g >
</g>
<g >
</g>
<g >
</g>
<g >
</g>
<g >
</g>
<g >
</g>
<g >
</g>
<g >
</g>
<g >
</g>
<g >
</g>
<g >
</g>
<g >
</g>
<g >
</g>
<g >
</g>
<g >
</g>
<g >
</g>
<g >
</g>
<g >
</g>
<g >
</g>
<g >
</g>
<g >
</g>
<g >
</g>
<g >
</g>
<g >
</g>
<g >
</g>
<g >
</g>
<g >
</g>
</g> 
</svg>
