<!DOCTYPE svg PUBLIC "-//W3C//DTD SVG 1.1//EN" "http://www.w3.org/Graphics/SVG/1.1/DTD/svg11.dtd">
<svg xmlns="http://www.w3.org/2000/svg" version="1.1" width="13.294982mm" height="39.455mm" viewBox="-155716082.0 85276100.0 13294982.0 39455000.0">
            <title>Picture generated by PcbDraw </title>
            <desc>Picture generated by PcbDraw</desc>
        <defs><clipPath id="cut-off"><path d=" M 153581100.0 91981100.0 L 153581100.0 117381100.0 L 153581100.0 88171100.0 L 153327100.0 88425100.0 L 152311100.0 88425100.0 L 152311100.0 91727100.0 L 153327100.0 91727100.0 L 153581100.0 91981100.0  M 153568600.0 87546100.0 A 1270000 1270000 0 0 0 152298600.0 86276100.0 L 144691100.0 86276100.0 A 1270000 1270000 0 0 0 143421100.0 87546100.0  M 143421100.0 117381100.0 L 143675100.0 117635100.0 L 143421100.0 88171100.0 L 143675100.0 88425100.0 L 144691100.0 88425100.0 L 144691100.0 91727100.0 L 143675100.0 91727100.0 L 143421100.0 91981100.0 L 143421100.0 117381100.0  M 144691100.0 120937100.0 L 143675100.0 120937100.0 L 144691100.0 117635100.0 L 144691100.0 120937100.0  M 152311100.0 117635100.0 L 152311100.0 120937100.0 L 153327100.0 117635100.0 L 152311100.0 117635100.0  M 143421100.0 121191100.0 L 143421100.0 122461100.0 L 143421100.0 121191100.0  M 152311100.0 120937100.0 L 153327100.0 120937100.0 L 153581100.0 121191100.0 L 153581100.0 122461100.0  M 143421100.0 122461100.0 A 1270000 1270000 0 0 0 144691100.0 123731100.0 L 152298600.0 123731100.0 A 1270000 1270000 0 0 0 153568600.0 122461100.0 " style="fill-rule: evenodd;"/></clipPath><mask id="pads-mask"><g style="fill:#ffffff; fill-opacity:0.0;  stroke:#ffffff; stroke-width:0.000000; stroke-opacity:1;  stroke-linecap:round; stroke-linejoin:round;">
<g style="fill:#ffffff; fill-opacity:1.0;  stroke:#ffffff; stroke-width:1.000000; stroke-opacity:1;  stroke-linecap:round; stroke-linejoin:round;">
<circle cx="149771100.000000" cy="118651100.000000" r="1041400.000000"/> 
</g>
<g style="fill:#ffffff; fill-opacity:1.0;  stroke:#ffffff; stroke-width:1.000000; stroke-opacity:1;  stroke-linecap:round; stroke-linejoin:round;">
<circle cx="147231100.000000" cy="118651100.000000" r="1041400.000000"/> 
</g>
<g style="fill:#ffffff; fill-opacity:1.0;  stroke:#ffffff; stroke-width:1.000000; stroke-opacity:1;  stroke-linecap:round; stroke-linejoin:round;">
<path style="fill:#ffffff; fill-opacity:1.0;  stroke:#ffffff; stroke-width:1.000000; stroke-opacity:1;  stroke-linecap:round; stroke-linejoin:round;fill-rule:evenodd;" d="M 145427700.000000,114714100.000000 145435434.000000,114675219.000000 145457458.000000,114642258.000000 145490419.000000,114620234.000000 145529300.000000,114612500.000000 147561300.000000,114612500.000000 147600181.000000,114620234.000000 147633142.000000,114642258.000000 147655166.000000,114675219.000000 147662900.000000,114714100.000000 147662900.000000,116746100.000000 147655166.000000,116784981.000000 147633142.000000,116817942.000000 147600181.000000,116839966.000000 147561300.000000,116847700.000000 145529300.000000,116847700.000000 145490419.000000,116839966.000000 145457458.000000,116817942.000000 145435434.000000,116784981.000000 145427700.000000,116746100.000000 Z"/> 
<circle cx="150400900.000000" cy="115730100.000000" r="1117600.000000"/> 
</g>
<g style="fill:#ffffff; fill-opacity:1.0;  stroke:#ffffff; stroke-width:1.000000; stroke-opacity:1;  stroke-linecap:round; stroke-linejoin:round;">
<path style="fill:#ffffff; fill-opacity:1.0;  stroke:#ffffff; stroke-width:1.000000; stroke-opacity:1;  stroke-linecap:round; stroke-linejoin:round;fill-rule:evenodd;" d="M 143751300.000000,94292500.000000 143712419.000000,94284766.000000 143679458.000000,94262742.000000 143657434.000000,94229781.000000 143649700.000000,94190900.000000 143649700.000000,92311300.000000 143657434.000000,92272419.000000 143679458.000000,92239458.000000 143712419.000000,92217434.000000 143751300.000000,92209700.000000 145630900.000000,92209700.000000 145669781.000000,92217434.000000 145702742.000000,92239458.000000 145724766.000000,92272419.000000 145732500.000000,92311300.000000 145732500.000000,94190900.000000 145724766.000000,94229781.000000 145702742.000000,94262742.000000 145669781.000000,94284766.000000 145630900.000000,94292500.000000 Z"/> 
<circle cx="147231100.000000" cy="93251100.000000" r="1041400.000000"/> 
</g>
<g style="fill:#ffffff; fill-opacity:1.0;  stroke:#ffffff; stroke-width:1.000000; stroke-opacity:1;  stroke-linecap:round; stroke-linejoin:round;">
<circle cx="149771100.000000" cy="93251100.000000" r="1041400.000000"/> 
</g>
<g style="fill:#ffffff; fill-opacity:1.0;  stroke:#ffffff; stroke-width:1.000000; stroke-opacity:1;  stroke-linecap:round; stroke-linejoin:round;">
<circle cx="152311100.000000" cy="93251100.000000" r="1041400.000000"/> 
</g>
</g> 
</mask><mask id="pads-mask-silkscreen"><rect x="134531100" y="86174500" width="103273013" height="59396600" fill="white"/><g style="fill:#000000; fill-opacity:0.0;  stroke:#000000; stroke-width:0.000000; stroke-opacity:1;  stroke-linecap:round; stroke-linejoin:round;">
<g style="fill:#000000; fill-opacity:1.0;  stroke:#000000; stroke-width:1.000000; stroke-opacity:1;  stroke-linecap:round; stroke-linejoin:round;">
<circle cx="149771100.000000" cy="118651100.000000" r="1041400.000000"/> 
</g>
<g style="fill:#000000; fill-opacity:1.0;  stroke:#000000; stroke-width:1.000000; stroke-opacity:1;  stroke-linecap:round; stroke-linejoin:round;">
<circle cx="147231100.000000" cy="118651100.000000" r="1041400.000000"/> 
</g>
<g style="fill:#000000; fill-opacity:1.0;  stroke:#000000; stroke-width:1.000000; stroke-opacity:1;  stroke-linecap:round; stroke-linejoin:round;">
<path style="fill:#000000; fill-opacity:1.0;  stroke:#000000; stroke-width:1.000000; stroke-opacity:1;  stroke-linecap:round; stroke-linejoin:round;fill-rule:evenodd;" d="M 145427700.000000,114714100.000000 145435434.000000,114675219.000000 145457458.000000,114642258.000000 145490419.000000,114620234.000000 145529300.000000,114612500.000000 147561300.000000,114612500.000000 147600181.000000,114620234.000000 147633142.000000,114642258.000000 147655166.000000,114675219.000000 147662900.000000,114714100.000000 147662900.000000,116746100.000000 147655166.000000,116784981.000000 147633142.000000,116817942.000000 147600181.000000,116839966.000000 147561300.000000,116847700.000000 145529300.000000,116847700.000000 145490419.000000,116839966.000000 145457458.000000,116817942.000000 145435434.000000,116784981.000000 145427700.000000,116746100.000000 Z"/> 
<circle cx="150400900.000000" cy="115730100.000000" r="1117600.000000"/> 
</g>
<g style="fill:#000000; fill-opacity:1.0;  stroke:#000000; stroke-width:1.000000; stroke-opacity:1;  stroke-linecap:round; stroke-linejoin:round;">
<path style="fill:#000000; fill-opacity:1.0;  stroke:#000000; stroke-width:1.000000; stroke-opacity:1;  stroke-linecap:round; stroke-linejoin:round;fill-rule:evenodd;" d="M 143751300.000000,94292500.000000 143712419.000000,94284766.000000 143679458.000000,94262742.000000 143657434.000000,94229781.000000 143649700.000000,94190900.000000 143649700.000000,92311300.000000 143657434.000000,92272419.000000 143679458.000000,92239458.000000 143712419.000000,92217434.000000 143751300.000000,92209700.000000 145630900.000000,92209700.000000 145669781.000000,92217434.000000 145702742.000000,92239458.000000 145724766.000000,92272419.000000 145732500.000000,92311300.000000 145732500.000000,94190900.000000 145724766.000000,94229781.000000 145702742.000000,94262742.000000 145669781.000000,94284766.000000 145630900.000000,94292500.000000 Z"/> 
<circle cx="147231100.000000" cy="93251100.000000" r="1041400.000000"/> 
</g>
<g style="fill:#000000; fill-opacity:1.0;  stroke:#000000; stroke-width:1.000000; stroke-opacity:1;  stroke-linecap:round; stroke-linejoin:round;">
<circle cx="149771100.000000" cy="93251100.000000" r="1041400.000000"/> 
</g>
<g style="fill:#000000; fill-opacity:1.0;  stroke:#000000; stroke-width:1.000000; stroke-opacity:1;  stroke-linecap:round; stroke-linejoin:round;">
<circle cx="152311100.000000" cy="93251100.000000" r="1041400.000000"/> 
</g>
</g> 
</mask><mask id="hole-mask"><g><rect x="134531100" y="86174500" fill="white" width="103273013" height="59396600"/><polyline stroke-linecap="round" stroke="black" stroke-width="1016000" points="0.0 0 0.0 0" transform="translate(149771100 118651100) rotate(-270.0)"/><polyline stroke-linecap="round" stroke="black" stroke-width="1016000" points="0.0 0 0.0 0" transform="translate(147231100 118651100) rotate(-270.0)"/><polyline stroke-linecap="round" stroke="black" stroke-width="1200000" points="0.0 0 0.0 0" transform="translate(146545300 115730100) rotate(-0.0)"/><polyline stroke-linecap="round" stroke="black" stroke-width="1200000" points="0.0 0 0.0 0" transform="translate(150400900 115730100) rotate(-0.0)"/><polyline stroke-linecap="round" stroke="black" stroke-width="1016000" points="0.0 0 0.0 0" transform="translate(144691100 93251100) rotate(-90.0)"/><polyline stroke-linecap="round" stroke="black" stroke-width="1016000" points="0.0 0 0.0 0" transform="translate(147231100 93251100) rotate(-90.0)"/><polyline stroke-linecap="round" stroke="black" stroke-width="1016000" points="0.0 0 0.0 0" transform="translate(149771100 93251100) rotate(-90.0)"/><polyline stroke-linecap="round" stroke="black" stroke-width="1016000" points="0.0 0 0.0 0" transform="translate(152311100 93251100) rotate(-90.0)"/><polyline stroke-linecap="round" stroke="black" stroke-width="508000" points="0.0 0 0.0 0" transform="translate(148501100 102903100) rotate(0.0)"/><polyline stroke-linecap="round" stroke="black" stroke-width="508000" points="0.0 0 0.0 0" transform="translate(148501100 105824100) rotate(0.0)"/><polyline stroke-linecap="round" stroke="black" stroke-width="508000" points="0.0 0 0.0 0" transform="translate(148501100 107094100) rotate(0.0)"/><polyline stroke-linecap="round" stroke="black" stroke-width="508000" points="0.0 0 0.0 0" transform="translate(148501100 109761100) rotate(0.0)"/><polyline stroke-linecap="round" stroke="black" stroke-width="508000" points="0.0 0 0.0 0" transform="translate(148501100 111031100) rotate(0.0)"/><polyline stroke-linecap="round" stroke="black" stroke-width="508000" points="0.0 0 0.0 0" transform="translate(148501100 108491100) rotate(0.0)"/><polyline stroke-linecap="round" stroke="black" stroke-width="508000" points="0.0 0 0.0 0" transform="translate(150533100 101379100) rotate(0.0)"/><polyline stroke-linecap="round" stroke="black" stroke-width="508000" points="0.0 0 0.0 0" transform="translate(150533100 103030100) rotate(0.0)"/></g></mask></defs><g transform="scale(-1,1)" id="boardContainer"><g id="substrate" clip-path="url(#cut-off)" mask="url(#hole-mask)"><g id="substrate-board" style="fill:#4ca06c; stroke:#4ca06c;"><path d=" M 153581100.0 91981100.0 L 153581100.0 117381100.0 L 153581100.0 88171100.0 L 153327100.0 88425100.0 L 152311100.0 88425100.0 L 152311100.0 91727100.0 L 153327100.0 91727100.0 L 153581100.0 91981100.0  M 153568600.0 87546100.0 A 1270000 1270000 0 0 0 152298600.0 86276100.0 L 144691100.0 86276100.0 A 1270000 1270000 0 0 0 143421100.0 87546100.0  M 143421100.0 117381100.0 L 143675100.0 117635100.0 L 143421100.0 88171100.0 L 143675100.0 88425100.0 L 144691100.0 88425100.0 L 144691100.0 91727100.0 L 143675100.0 91727100.0 L 143421100.0 91981100.0 L 143421100.0 117381100.0  M 144691100.0 120937100.0 L 143675100.0 120937100.0 L 144691100.0 117635100.0 L 144691100.0 120937100.0  M 152311100.0 117635100.0 L 152311100.0 120937100.0 L 153327100.0 117635100.0 L 152311100.0 117635100.0  M 143421100.0 121191100.0 L 143421100.0 122461100.0 L 143421100.0 121191100.0  M 152311100.0 120937100.0 L 153327100.0 120937100.0 L 153581100.0 121191100.0 L 153581100.0 122461100.0  M 143421100.0 122461100.0 A 1270000 1270000 0 0 0 144691100.0 123731100.0 L 152298600.0 123731100.0 A 1270000 1270000 0 0 0 153568600.0 122461100.0 " style="fill-rule: evenodd;"/><g style="fill-opacity: 0.0;stroke-width: 203200.000000;stroke-opacity: 1;stroke-linecap: round;stroke-linejoin: round">
<path d="M153327100 91727100 L153581100 91981100 "/>
<path d="M144691100.000000 86276100.000000 A1270000.000000 1270000.000000 0.0 0 0 143421100.000000 87546100.000000"/>
<path d="M143421100 91981100 L143421100 117381100 "/>
<path d="M144691100 117635100 L144691100 120937100 "/>
<path d="M144691100 120937100 L143675100 120937100 "/>
<path d="M153327100 117635100 L152311100 117635100 "/>
<path d="M152311100 117635100 L152311100 120937100 "/>
<path d="M153327100 88425100 L152311100 88425100 "/>
<path d="M143675100 120937100 L143421100 121191100 "/>
<path d="M144691100 91727100 L143675100 91727100 "/>
<path d="M143421100 117381100 L143675100 117635100 "/>
<path d="M152311100 91727100 L153327100 91727100 "/>
<path d="M153581100 121191100 L153581100 122461100 "/>
<path d="M143421100 87536100 L143421100 88171100 "/>
<path d="M153581100 87536100 L153581100 88171100 "/>
<path d="M153327100 120937100 L153581100 121191100 "/>
<path d="M144691100 88425100 L144691100 91727100 "/>
<path d="M143421100 121191100 L143421100 122461100 "/>
<path d="M153568600.000000 87546100.000000 A1270000.000000 1270000.000000 0.0 0 0 152298600.000000 86276100.000000"/>
<path d="M152311100 120937100 L153327100 120937100 "/>
<path d="M152298600.000000 123731100.000000 A1270000.000000 1270000.000000 0.0 0 0 153568600.000000 122461100.000000"/>
<path d="M153581100 88171100 L153327100 88425100 "/>
<path d="M152311100 88425100 L152311100 91727100 "/>
<path d="M143421100.000000 122461100.000000 A1270000.000000 1270000.000000 0.0 0 0 144691100.000000 123731100.000000"/>
<path d="M143421100 88171100 L143675100 88425100 "/>
<path d="M152298600 86276100 L144691100 86276100 "/>
<path d="M143675100 91727100 L143421100 91981100 "/>
<path d="M144691100 123731100 L152298600 123731100 "/>
<path d="M153581100 91981100 L153581100 117381100 "/>
<path d="M153581100 117381100 L153327100 117635100 "/>
<path d="M143675100 117635100 L144691100 117635100 "/>
<path d="M143675100 88425100 L144691100 88425100 "/>
</g> 
</g><g id="substrate-clad" style="fill:#9c6b28; stroke:#9c6b28;"><g style="fill-opacity: 0.0;stroke-width: 0.000000;stroke-opacity: 1;stroke-linecap: round;stroke-linejoin: round">
<g style="fill-opacity: 1.0;stroke-width: 1.000000;stroke-opacity: 1;stroke-linecap: round;stroke-linejoin: round">
<circle cx="149771100.000000" cy="118651100.000000" r="1041400.000000"/> 
</g>
<g style="fill-opacity: 1.0;stroke-width: 1.000000;stroke-opacity: 1;stroke-linecap: round;stroke-linejoin: round">
<circle cx="147231100.000000" cy="118651100.000000" r="1041400.000000"/> 
</g>
<g style="fill-opacity: 1.0;stroke-width: 1.000000;stroke-opacity: 1;stroke-linecap: round;stroke-linejoin: round">
<path style="fill-opacity: 1.0;stroke-width: 1.000000;stroke-opacity: 1;stroke-linecap: round;stroke-linejoin: round;fill-rule: evenodd" d="M 145427700.000000,114714100.000000 145435434.000000,114675219.000000 145457458.000000,114642258.000000 145490419.000000,114620234.000000 145529300.000000,114612500.000000 147561300.000000,114612500.000000 147600181.000000,114620234.000000 147633142.000000,114642258.000000 147655166.000000,114675219.000000 147662900.000000,114714100.000000 147662900.000000,116746100.000000 147655166.000000,116784981.000000 147633142.000000,116817942.000000 147600181.000000,116839966.000000 147561300.000000,116847700.000000 145529300.000000,116847700.000000 145490419.000000,116839966.000000 145457458.000000,116817942.000000 145435434.000000,116784981.000000 145427700.000000,116746100.000000 Z"/> 
<circle cx="150400900.000000" cy="115730100.000000" r="1117600.000000"/> 
</g>
<g style="fill-opacity: 1.0;stroke-width: 1.000000;stroke-opacity: 1;stroke-linecap: round;stroke-linejoin: round">
<path style="fill-opacity: 1.0;stroke-width: 1.000000;stroke-opacity: 1;stroke-linecap: round;stroke-linejoin: round;fill-rule: evenodd" d="M 143751300.000000,94292500.000000 143712419.000000,94284766.000000 143679458.000000,94262742.000000 143657434.000000,94229781.000000 143649700.000000,94190900.000000 143649700.000000,92311300.000000 143657434.000000,92272419.000000 143679458.000000,92239458.000000 143712419.000000,92217434.000000 143751300.000000,92209700.000000 145630900.000000,92209700.000000 145669781.000000,92217434.000000 145702742.000000,92239458.000000 145724766.000000,92272419.000000 145732500.000000,92311300.000000 145732500.000000,94190900.000000 145724766.000000,94229781.000000 145702742.000000,94262742.000000 145669781.000000,94284766.000000 145630900.000000,94292500.000000 Z"/> 
<circle cx="147231100.000000" cy="93251100.000000" r="1041400.000000"/> 
</g>
<g style="fill-opacity: 1.0;stroke-width: 1.000000;stroke-opacity: 1;stroke-linecap: round;stroke-linejoin: round">
<circle cx="149771100.000000" cy="93251100.000000" r="1041400.000000"/> 
</g>
<g style="fill-opacity: 1.0;stroke-width: 1.000000;stroke-opacity: 1;stroke-linecap: round;stroke-linejoin: round">
<circle cx="152311100.000000" cy="93251100.000000" r="1041400.000000"/> 
</g>
</g> 
</g><g id="substrate-copper" style="fill:#417e5a; stroke:#417e5a;"><g style="fill-opacity: 0.0;stroke-width: 190500.000000;stroke-opacity: 1;stroke-linecap: round;stroke-linejoin: round">
<text x="150025100.000000" y="121095850.000000" transform="scale(-1 1) translate(-300050200.000000 0)" textLength="2878666.000000" font-size="1439333.000000" lengthAdjust="spacingAndGlyphs" text-anchor="start" opacity="0">v13</text>
<g class="stroked-text"><desc>v13</desc>
<path d="M149747060 120324778 L149490036 121044445 L149233013 120324778 "/>
<path d="M148256322 121044445 L148873179 121044445 "/>
<path d="M148564751 121044445 L148564751 119964945 L148667560 120119159 L148770370 120221969 L148873179 120273373 "/>
<path d="M147896489 119964945 L147228227 119964945 L147588060 120376183 L147433846 120376183 L147331036 120427588 L147279632 120478992 L147228227 120581802 L147228227 120838826 L147279632 120941635 L147331036 120993040 L147433846 121044445 L147742275 121044445 L147845084 120993040 L147896489 120941635 "/>
</g><g style="fill-opacity: 1.0;stroke-width: 1.000000;stroke-opacity: 1;stroke-linecap: round;stroke-linejoin: round">
<circle cx="149771100.000000" cy="118651100.000000" r="939800.000000"/> 
</g>
<g style="fill-opacity: 1.0;stroke-width: 1.000000;stroke-opacity: 1;stroke-linecap: round;stroke-linejoin: round">
<circle cx="147231100.000000" cy="118651100.000000" r="939800.000000"/> 
</g>
<g style="fill-opacity: 1.0;stroke-width: 1.000000;stroke-opacity: 1;stroke-linecap: round;stroke-linejoin: round">
<path style="fill-opacity: 1.0;stroke-width: 1.000000;stroke-opacity: 1;stroke-linecap: round;stroke-linejoin: round;fill-rule: evenodd" d="M 145529301.000000,116746099.000000 145529301.000000,114714101.000000 147561299.000000,114714101.000000 147561299.000000,116746099.000000 Z"/> 
<circle cx="150400900.000000" cy="115730100.000000" r="1016000.000000"/> 
</g>
<g style="fill-opacity: 1.0;stroke-width: 1.000000;stroke-opacity: 1;stroke-linecap: round;stroke-linejoin: round">
<path style="fill-opacity: 1.0;stroke-width: 1.000000;stroke-opacity: 1;stroke-linecap: round;stroke-linejoin: round;fill-rule: evenodd" d="M 145630899.000000,94190899.000000 143751301.000000,94190899.000000 143751301.000000,92311301.000000 145630899.000000,92311301.000000 Z"/> 
<circle cx="147231100.000000" cy="93251100.000000" r="939800.000000"/> 
</g>
<g style="fill-opacity: 1.0;stroke-width: 1.000000;stroke-opacity: 1;stroke-linecap: round;stroke-linejoin: round">
<circle cx="149771100.000000" cy="93251100.000000" r="939800.000000"/> 
</g>
<g style="fill-opacity: 1.0;stroke-width: 1.000000;stroke-opacity: 1;stroke-linecap: round;stroke-linejoin: round">
<circle cx="152311100.000000" cy="93251100.000000" r="939800.000000"/> 
</g>
<g style="fill-opacity: 1.0;stroke-width: 1.000000;stroke-opacity: 1;stroke-linecap: round;stroke-linejoin: round">
<circle cx="148501100.000000" cy="102903100.000000" r="431800.000000"/> 
</g>
<g style="fill-opacity: 1.0;stroke-width: 1.000000;stroke-opacity: 1;stroke-linecap: round;stroke-linejoin: round">
<circle cx="148501100.000000" cy="105824100.000000" r="431800.000000"/> 
</g>
<g style="fill-opacity: 1.0;stroke-width: 1.000000;stroke-opacity: 1;stroke-linecap: round;stroke-linejoin: round">
<circle cx="148501100.000000" cy="107094100.000000" r="431800.000000"/> 
</g>
<g style="fill-opacity: 1.0;stroke-width: 1.000000;stroke-opacity: 1;stroke-linecap: round;stroke-linejoin: round">
<circle cx="148501100.000000" cy="109761100.000000" r="431800.000000"/> 
</g>
<g style="fill-opacity: 1.0;stroke-width: 1.000000;stroke-opacity: 1;stroke-linecap: round;stroke-linejoin: round">
<circle cx="148501100.000000" cy="111031100.000000" r="431800.000000"/> 
</g>
<g style="fill-opacity: 1.0;stroke-width: 1.000000;stroke-opacity: 1;stroke-linecap: round;stroke-linejoin: round">
<circle cx="148501100.000000" cy="108491100.000000" r="431800.000000"/> 
</g>
<g style="fill-opacity: 1.0;stroke-width: 1.000000;stroke-opacity: 1;stroke-linecap: round;stroke-linejoin: round">
<circle cx="150533100.000000" cy="101379100.000000" r="431800.000000"/> 
</g>
<g style="fill-opacity: 1.0;stroke-width: 1.000000;stroke-opacity: 1;stroke-linecap: round;stroke-linejoin: round">
<circle cx="150533100.000000" cy="103030100.000000" r="431800.000000"/> 
</g>
<g style="fill-opacity: 0.0;stroke-width: 304800.000000;stroke-opacity: 1;stroke-linecap: round;stroke-linejoin: round">
<path d="M149009100 102395100 L149009100 98839100 "/>
<path d="M149771100 98077100 L149771100 93251100 "/>
<path d="M149009100 98839100 L149771100 98077100 "/>
<path d="M148501100 102903100 L149009100 102395100 "/>
</g>
<g style="fill-opacity: 0.0;stroke-width: 1016000.000000;stroke-opacity: 1;stroke-linecap: round;stroke-linejoin: round">
<path d="M152184100 101379100 L152565100 101760100 "/>
<path d="M152565100 112047100 L150400900 114211300 "/>
<path d="M152565100 101760100 L152565100 112047100 "/>
<path d="M150533100 101379100 L152184100 101379100 "/>
<path d="M150400900 115730100 L150400900 114211300 "/>
</g>
<g style="fill-opacity: 0.0;stroke-width: 304800.000000;stroke-opacity: 1;stroke-linecap: round;stroke-linejoin: round">
<path d="M150152100 99093100 L151930100 99093100 "/>
<path d="M150533100 103030100 L149898100 103030100 "/>
<path d="M149898100 103030100 L149517100 102649100 "/>
<path d="M151930100 99093100 L152311100 98712100 "/>
<path d="M149517100 102649100 L149517100 99728100 "/>
<path d="M149517100 99728100 L150152100 99093100 "/>
<path d="M152311100 98712100 L152311100 93251100 "/>
</g>
</g> 
</g><g id="substrate-pads" style="fill:#b5ae30; stroke:#b5ae30;" mask="url(#pads-mask)"><g style="fill-opacity: 0.0;stroke-width: 190500.000000;stroke-opacity: 1;stroke-linecap: round;stroke-linejoin: round">
<text x="150025100.000000" y="121095850.000000" transform="scale(-1 1) translate(-300050200.000000 0)" textLength="2631017.000000" font-size="1439333.000000" lengthAdjust="spacingAndGlyphs" text-anchor="start" opacity="0">v13</text>
<g class="stroked-text"><desc>v13</desc>
<path d="M149747060 120324778 L149490036 121044445 L149233013 120324778 "/>
<path d="M148256322 121044445 L148873179 121044445 "/>
<path d="M148564751 121044445 L148564751 119964945 L148667560 120119159 L148770370 120221969 L148873179 120273373 "/>
<path d="M147896489 119964945 L147228227 119964945 L147588060 120376183 L147433846 120376183 L147331036 120427588 L147279632 120478992 L147228227 120581802 L147228227 120838826 L147279632 120941635 L147331036 120993040 L147433846 121044445 L147742275 121044445 L147845084 120993040 L147896489 120941635 "/>
</g><g style="fill-opacity: 1.0;stroke-width: 1.000000;stroke-opacity: 1;stroke-linecap: round;stroke-linejoin: round">
<circle cx="149771100.000000" cy="118651100.000000" r="939800.000000"/> 
</g>
<g style="fill-opacity: 1.0;stroke-width: 1.000000;stroke-opacity: 1;stroke-linecap: round;stroke-linejoin: round">
<circle cx="147231100.000000" cy="118651100.000000" r="939800.000000"/> 
</g>
<g style="fill-opacity: 1.0;stroke-width: 1.000000;stroke-opacity: 1;stroke-linecap: round;stroke-linejoin: round">
<path style="fill-opacity: 1.0;stroke-width: 1.000000;stroke-opacity: 1;stroke-linecap: round;stroke-linejoin: round;fill-rule: evenodd" d="M 145529301.000000,116746099.000000 145529301.000000,114714101.000000 147561299.000000,114714101.000000 147561299.000000,116746099.000000 Z"/> 
<circle cx="150400900.000000" cy="115730100.000000" r="1016000.000000"/> 
</g>
<g style="fill-opacity: 1.0;stroke-width: 1.000000;stroke-opacity: 1;stroke-linecap: round;stroke-linejoin: round">
<path style="fill-opacity: 1.0;stroke-width: 1.000000;stroke-opacity: 1;stroke-linecap: round;stroke-linejoin: round;fill-rule: evenodd" d="M 145630899.000000,94190899.000000 143751301.000000,94190899.000000 143751301.000000,92311301.000000 145630899.000000,92311301.000000 Z"/> 
<circle cx="147231100.000000" cy="93251100.000000" r="939800.000000"/> 
</g>
<g style="fill-opacity: 1.0;stroke-width: 1.000000;stroke-opacity: 1;stroke-linecap: round;stroke-linejoin: round">
<circle cx="149771100.000000" cy="93251100.000000" r="939800.000000"/> 
</g>
<g style="fill-opacity: 1.0;stroke-width: 1.000000;stroke-opacity: 1;stroke-linecap: round;stroke-linejoin: round">
<circle cx="152311100.000000" cy="93251100.000000" r="939800.000000"/> 
</g>
<g style="fill-opacity: 1.0;stroke-width: 1.000000;stroke-opacity: 1;stroke-linecap: round;stroke-linejoin: round">
<circle cx="148501100.000000" cy="102903100.000000" r="431800.000000"/> 
</g>
<g style="fill-opacity: 1.0;stroke-width: 1.000000;stroke-opacity: 1;stroke-linecap: round;stroke-linejoin: round">
<circle cx="148501100.000000" cy="105824100.000000" r="431800.000000"/> 
</g>
<g style="fill-opacity: 1.0;stroke-width: 1.000000;stroke-opacity: 1;stroke-linecap: round;stroke-linejoin: round">
<circle cx="148501100.000000" cy="107094100.000000" r="431800.000000"/> 
</g>
<g style="fill-opacity: 1.0;stroke-width: 1.000000;stroke-opacity: 1;stroke-linecap: round;stroke-linejoin: round">
<circle cx="148501100.000000" cy="109761100.000000" r="431800.000000"/> 
</g>
<g style="fill-opacity: 1.0;stroke-width: 1.000000;stroke-opacity: 1;stroke-linecap: round;stroke-linejoin: round">
<circle cx="148501100.000000" cy="111031100.000000" r="431800.000000"/> 
</g>
<g style="fill-opacity: 1.0;stroke-width: 1.000000;stroke-opacity: 1;stroke-linecap: round;stroke-linejoin: round">
<circle cx="148501100.000000" cy="108491100.000000" r="431800.000000"/> 
</g>
<g style="fill-opacity: 1.0;stroke-width: 1.000000;stroke-opacity: 1;stroke-linecap: round;stroke-linejoin: round">
<circle cx="150533100.000000" cy="101379100.000000" r="431800.000000"/> 
</g>
<g style="fill-opacity: 1.0;stroke-width: 1.000000;stroke-opacity: 1;stroke-linecap: round;stroke-linejoin: round">
<circle cx="150533100.000000" cy="103030100.000000" r="431800.000000"/> 
</g>
<g style="fill-opacity: 0.0;stroke-width: 304800.000000;stroke-opacity: 1;stroke-linecap: round;stroke-linejoin: round">
<path d="M149009100 102395100 L149009100 98839100 "/>
<path d="M149771100 98077100 L149771100 93251100 "/>
<path d="M149009100 98839100 L149771100 98077100 "/>
<path d="M148501100 102903100 L149009100 102395100 "/>
</g>
<g style="fill-opacity: 0.0;stroke-width: 1016000.000000;stroke-opacity: 1;stroke-linecap: round;stroke-linejoin: round">
<path d="M152184100 101379100 L152565100 101760100 "/>
<path d="M152565100 112047100 L150400900 114211300 "/>
<path d="M152565100 101760100 L152565100 112047100 "/>
<path d="M150533100 101379100 L152184100 101379100 "/>
<path d="M150400900 115730100 L150400900 114211300 "/>
</g>
<g style="fill-opacity: 0.0;stroke-width: 304800.000000;stroke-opacity: 1;stroke-linecap: round;stroke-linejoin: round">
<path d="M150152100 99093100 L151930100 99093100 "/>
<path d="M150533100 103030100 L149898100 103030100 "/>
<path d="M149898100 103030100 L149517100 102649100 "/>
<path d="M151930100 99093100 L152311100 98712100 "/>
<path d="M149517100 102649100 L149517100 99728100 "/>
<path d="M149517100 99728100 L150152100 99093100 "/>
<path d="M152311100 98712100 L152311100 93251100 "/>
</g>
</g> 
</g><g id="substrate-silk" style="fill:#f0f0f0; stroke:#f0f0f0;" mask="url(#pads-mask-silkscreen)"><g style="fill-opacity: 0.0;stroke-width: 152400.000000;stroke-opacity: 1;stroke-linecap: round;stroke-linejoin: round">
<g transform="rotate(270.000000 147231100.000000 89314100.000000)">
<text x="147231100.000000" y="89745900.000000" transform="scale(-1 1) translate(-294462200.000000 0)" textLength="1808540.000000" font-size="1151466.000000" lengthAdjust="spacingAndGlyphs" text-anchor="start" opacity="0">VIN</text>
</g>
<g class="stroked-text"><desc>VIN</desc>
<path d="M146758176 89495407 L147621776 89783274 L146758176 90071140 "/>
<path d="M147621776 90359007 L146758176 90359007 "/>
<path d="M147621776 90770245 L146758176 90770245 L147621776 91263731 L146758176 91263731 "/>
</g><g transform="rotate(270.000000 149771100.000000 88044100.000000)">
<text x="149771100.000000" y="88475900.000000" transform="scale(-1 1) translate(-299542200.000000 0)" textLength="3297404.000000" font-size="1151466.000000" lengthAdjust="spacingAndGlyphs" text-anchor="start" opacity="0">DGND</text>
</g>
<g class="stroked-text"><desc>DGND</desc>
<path d="M150161776 88348779 L149298176 88348779 L149298176 88554398 L149339300 88677769 L149421547 88760017 L149503795 88801140 L149668290 88842264 L149791661 88842264 L149956157 88801140 L150038404 88760017 L150120652 88677769 L150161776 88554398 L150161776 88348779 "/>
<path d="M149339300 89664740 L149298176 89582493 L149298176 89459121 L149339300 89335750 L149421547 89253502 L149503795 89212379 L149668290 89171255 L149791661 89171255 L149956157 89212379 L150038404 89253502 L150120652 89335750 L150161776 89459121 L150161776 89541369 L150120652 89664740 L150079528 89705864 L149791661 89705864 L149791661 89541369 "/>
<path d="M150161776 90075979 L149298176 90075979 L150161776 90569464 L149298176 90569464 "/>
<path d="M150161776 90980702 L149298176 90980702 L149298176 91186321 L149339300 91309693 L149421547 91391940 L149503795 91433064 L149668290 91474188 L149791661 91474188 L149956157 91433064 L150038404 91391940 L150120652 91309693 L150161776 91186321 L150161776 90980702 "/>
</g></g>
<g style="fill-opacity: 0.0;stroke-width: 190500.000000;stroke-opacity: 1;stroke-linecap: round;stroke-linejoin: round">
<text x="149771100.000000" y="96045100.000000" transform="scale(-1 1) translate(-299542200.000000 0)" textLength="2217904.000000" font-size="1439333.000000" lengthAdjust="spacingAndGlyphs" text-anchor="middle" opacity="0">D-</text>
<g class="stroked-text"><desc>D-</desc>
<path d="M150722088 95993695 L150722088 94914195 L150465064 94914195 L150310850 94965600 L150208040 95068409 L150156635 95171219 L150105230 95376838 L150105230 95531052 L150156635 95736671 L150208040 95839480 L150310850 95942290 L150465064 95993695 L150722088 95993695 "/>
<path d="M149642588 95582457 L148820111 95582457 "/>
</g><text x="144691100.000000" y="96045100.000000" transform="scale(-1 1) translate(-289382200.000000 0)" textLength="2014160.000000" font-size="1439333.000000" lengthAdjust="spacingAndGlyphs" text-anchor="middle" opacity="0">V-</text>
<g class="stroked-text"><desc>V-</desc>
<path d="M145719195 94914195 L145359361 95993695 L144999528 94914195 "/>
<path d="M144639695 95582457 L143817219 95582457 "/>
</g></g>
<g style="fill-opacity: 0.0;stroke-width: 121920.000000;stroke-opacity: 1;stroke-linecap: round;stroke-linejoin: round">
<g transform="rotate(270.000000 149517100.000000 96553100.000000)">
<text x="149517100.000000" y="96553100.000000" transform="scale(-1 1) translate(-299034200.000000 0)" textLength="5147794.000000" font-size="921173.000000" lengthAdjust="spacingAndGlyphs" text-anchor="start" opacity="0">LED Driver</text>
</g>
<g class="stroked-text"><desc>LED Driver</desc>
<path d="M149484200 97125833 L149484200 96796843 L148793320 96796843 "/>
<path d="M149122311 97356127 L149122311 97586420 "/>
<path d="M149484200 97685117 L149484200 97356127 L148793320 97356127 L148793320 97685117 "/>
<path d="M149484200 97981208 L148793320 97981208 L148793320 98145704 L148826220 98244401 L148892018 98310199 L148957816 98343098 L149089412 98375997 L149188109 98375997 L149319705 98343098 L149385503 98310199 L149451301 98244401 L149484200 98145704 L149484200 97981208 "/>
<path d="M149484200 99198473 L148793320 99198473 L148793320 99362968 L148826220 99461666 L148892018 99527464 L148957816 99560363 L149089412 99593262 L149188109 99593262 L149319705 99560363 L149385503 99527464 L149451301 99461666 L149484200 99362968 L149484200 99198473 "/>
<path d="M149484200 99889353 L149023614 99889353 "/>
<path d="M149155210 99889353 L149089412 99922252 L149056513 99955151 L149023614 100020949 L149023614 100086748 "/>
<path d="M149484200 100317041 L149023614 100317041 "/>
<path d="M148793320 100317041 L148826220 100284142 L148859119 100317041 L148826220 100349940 L148793320 100317041 L148859119 100317041 "/>
<path d="M149023614 100580233 L149484200 100744728 L149023614 100909224 "/>
<path d="M149451301 101435608 L149484200 101369810 L149484200 101238214 L149451301 101172416 L149385503 101139517 L149122311 101139517 L149056513 101172416 L149023614 101238214 L149023614 101369810 L149056513 101435608 L149122311 101468508 L149188109 101468508 L149253907 101139517 "/>
<path d="M149484200 101764599 L149023614 101764599 "/>
<path d="M149155210 101764599 L149089412 101797498 L149056513 101830397 L149023614 101896195 L149023614 101961993 "/>
</g><g transform="rotate(270.000000 147739100.000000 96553100.000000)">
<text x="147739100.000000" y="96898540.000000" transform="scale(-1 1) translate(-295478200.000000 0)" textLength="9974411.000000" font-size="921173.000000" lengthAdjust="spacingAndGlyphs" text-anchor="start" opacity="0">6-36V 333/667mA</text>
</g>
<g class="stroked-text"><desc>6-36V 333/667mA</desc>
<path d="M147360760 97092934 L147360760 96961338 L147393660 96895540 L147426559 96862641 L147525256 96796843 L147656852 96763944 L147920044 96763944 L147985842 96796843 L148018741 96829742 L148051640 96895540 L148051640 97027136 L148018741 97092934 L147985842 97125833 L147920044 97158732 L147755549 97158732 L147689751 97125833 L147656852 97092934 L147623953 97027136 L147623953 96895540 L147656852 96829742 L147689751 96796843 L147755549 96763944 "/>
<path d="M147788448 97454824 L147788448 97981208 "/>
<path d="M147360760 98244401 L147360760 98672088 L147623953 98441795 L147623953 98540492 L147656852 98606290 L147689751 98639189 L147755549 98672088 L147920044 98672088 L147985842 98639189 L148018741 98606290 L148051640 98540492 L148051640 98343098 L148018741 98277300 L147985842 98244401 "/>
<path d="M147360760 99264271 L147360760 99132675 L147393660 99066877 L147426559 99033978 L147525256 98968180 L147656852 98935281 L147920044 98935281 L147985842 98968180 L148018741 99001079 L148051640 99066877 L148051640 99198473 L148018741 99264271 L147985842 99297170 L147920044 99330069 L147755549 99330069 L147689751 99297170 L147656852 99264271 L147623953 99198473 L147623953 99066877 L147656852 99001079 L147689751 98968180 L147755549 98935281 "/>
<path d="M147360760 99527464 L148051640 99757757 L147360760 99988050 "/>
<path d="M147360760 100678930 L147360760 101106618 L147623953 100876325 L147623953 100975022 L147656852 101040820 L147689751 101073719 L147755549 101106618 L147920044 101106618 L147985842 101073719 L148018741 101040820 L148051640 100975022 L148051640 100777628 L148018741 100711829 L147985842 100678930 "/>
<path d="M147360760 101336911 L147360760 101764599 L147623953 101534306 L147623953 101633003 L147656852 101698801 L147689751 101731700 L147755549 101764599 L147920044 101764599 L147985842 101731700 L148018741 101698801 L148051640 101633003 L148051640 101435608 L148018741 101369810 L147985842 101336911 "/>
<path d="M147360760 101994892 L147360760 102422580 L147623953 102192287 L147623953 102290984 L147656852 102356782 L147689751 102389681 L147755549 102422580 L147920044 102422580 L147985842 102389681 L148018741 102356782 L148051640 102290984 L148051640 102093589 L148018741 102027791 L147985842 101994892 "/>
<path d="M147327861 103212157 L148216136 102619974 "/>
<path d="M147360760 103738542 L147360760 103606946 L147393660 103541148 L147426559 103508248 L147525256 103442450 L147656852 103409551 L147920044 103409551 L147985842 103442450 L148018741 103475349 L148051640 103541148 L148051640 103672744 L148018741 103738542 L147985842 103771441 L147920044 103804340 L147755549 103804340 L147689751 103771441 L147656852 103738542 L147623953 103672744 L147623953 103541148 L147656852 103475349 L147689751 103442450 L147755549 103409551 "/>
<path d="M147360760 104396523 L147360760 104264927 L147393660 104199128 L147426559 104166229 L147525256 104100431 L147656852 104067532 L147920044 104067532 L147985842 104100431 L148018741 104133330 L148051640 104199128 L148051640 104330725 L148018741 104396523 L147985842 104429422 L147920044 104462321 L147755549 104462321 L147689751 104429422 L147656852 104396523 L147623953 104330725 L147623953 104199128 L147656852 104133330 L147689751 104100431 L147755549 104067532 "/>
<path d="M147360760 104692614 L147360760 105153201 L148051640 104857109 "/>
<path d="M148051640 105416393 L147591054 105416393 "/>
<path d="M147656852 105416393 L147623953 105449292 L147591054 105515090 L147591054 105613788 L147623953 105679586 L147689751 105712485 L148051640 105712485 "/>
<path d="M147689751 105712485 L147623953 105745384 L147591054 105811182 L147591054 105909879 L147623953 105975677 L147689751 106008576 L148051640 106008576 "/>
<path d="M147854246 106304668 L147854246 106633658 "/>
<path d="M148051640 106238869 L147360760 106469163 L148051640 106699456 "/>
</g></g>
<g style="fill-opacity: 0.0;stroke-width: 152400.000000;stroke-opacity: 1;stroke-linecap: round;stroke-linejoin: round">
<text x="151676100.000000" y="122461100.000000" transform="scale(-1 1) translate(-303352200.000000 0)" textLength="5639961.000000" font-size="1151466.000000" lengthAdjust="spacingAndGlyphs" text-anchor="start" opacity="0">+ LED -</text>
<g class="stroked-text"><desc>+ LED -</desc>
<path d="M151371420 122090985 L150713440 122090985 "/>
<path d="M151042430 122419976 L151042430 121761995 "/>
<path d="M149232982 122419976 L149644220 122419976 L149644220 121556376 "/>
<path d="M148945116 121967614 L148657249 121967614 "/>
<path d="M148533878 122419976 L148945116 122419976 L148945116 121556376 L148533878 121556376 "/>
<path d="M148163763 122419976 L148163763 121556376 L147958144 121556376 L147834773 121597500 L147752525 121679747 L147711401 121761995 L147670278 121926490 L147670278 122049861 L147711401 122214357 L147752525 122296604 L147834773 122378852 L147958144 122419976 L148163763 122419976 "/>
<path d="M146642182 122090985 L145984201 122090985 "/>
</g></g>
<g style="fill-opacity: 0.0;stroke-width: 190500.000000;stroke-opacity: 1;stroke-linecap: round;stroke-linejoin: round">
<text x="147358100.000000" y="96045100.000000" transform="scale(-1 1) translate(-294716200.000000 0)" textLength="2063690.000000" font-size="1439333.000000" lengthAdjust="spacingAndGlyphs" text-anchor="middle" opacity="0">V+</text>
<g class="stroked-text"><desc>V+</desc>
<path d="M148386195 94914195 L148026361 95993695 L147666528 94914195 "/>
<path d="M147306695 95582457 L146484219 95582457 "/>
<path d="M146895457 95993695 L146895457 95171219 "/>
</g></g>
<g style="fill-opacity: 0.0;stroke-width: 251460.000000;stroke-opacity: 1;stroke-linecap: round;stroke-linejoin: round">
<g transform="rotate(270.000000 145453100.000000 100998100.000000)">
<text x="145453100.000000" y="101710570.000000" transform="scale(-1 1) translate(-290906200.000000 0)" textLength="11287579.000000" font-size="1899920.000000" lengthAdjust="spacingAndGlyphs" text-anchor="start" opacity="0">FemtoBuck</text>
</g>
<g class="stroked-text"><desc>FemtoBuck</desc>
<path d="M145351318 101975800 L145351318 101500820 "/>
<path d="M146097715 101500820 L144672775 101500820 L144672775 102179363 "/>
<path d="M146029861 103265031 L146097715 103129323 L146097715 102857906 L146029861 102722197 L145894152 102654343 L145351318 102654343 L145215610 102722197 L145147755 102857906 L145147755 103129323 L145215610 103265031 L145351318 103332886 L145487027 103332886 L145622735 102654343 "/>
<path d="M146097715 103943574 L145147755 103943574 "/>
<path d="M145283464 103943574 L145215610 104011429 L145147755 104147137 L145147755 104350700 L145215610 104486409 L145351318 104554263 L146097715 104554263 "/>
<path d="M145351318 104554263 L145215610 104622117 L145147755 104757826 L145147755 104961389 L145215610 105097097 L145351318 105164951 L146097715 105164951 "/>
<path d="M145147755 105639931 L145147755 106182766 "/>
<path d="M144672775 105843494 L145894152 105843494 L146029861 105911349 L146097715 106047057 L146097715 106182766 "/>
<path d="M146097715 106861309 L146029861 106725600 L145962007 106657746 L145826298 106589891 L145419172 106589891 L145283464 106657746 L145215610 106725600 L145147755 106861309 L145147755 107064871 L145215610 107200580 L145283464 107268434 L145419172 107336289 L145826298 107336289 L145962007 107268434 L146029861 107200580 L146097715 107064871 L146097715 106861309 "/>
<path d="M145351318 108421957 L145419172 108625520 L145487027 108693374 L145622735 108761229 L145826298 108761229 L145962007 108693374 L146029861 108625520 L146097715 108489811 L146097715 107946977 L144672775 107946977 L144672775 108421957 L144740630 108557666 L144808484 108625520 L144944192 108693374 L145079901 108693374 L145215610 108625520 L145283464 108557666 L145351318 108421957 L145351318 107946977 "/>
<path d="M145147755 109982606 L146097715 109982606 "/>
<path d="M145147755 109371917 L145894152 109371917 L146029861 109439771 L146097715 109575480 L146097715 109779043 L146029861 109914751 L145962007 109982606 "/>
<path d="M146029861 111271837 L146097715 111136129 L146097715 110864711 L146029861 110729003 L145962007 110661149 L145826298 110593294 L145419172 110593294 L145283464 110661149 L145215610 110729003 L145147755 110864711 L145147755 111136129 L145215610 111271837 "/>
<path d="M146097715 111882526 L144672775 111882526 "/>
<path d="M145554881 112018234 L146097715 112425360 "/>
<path d="M145147755 112425360 L145690590 111882526 "/>
</g></g>
<g style="fill-opacity: 0.0;stroke-width: 190500.000000;stroke-opacity: 1;stroke-linecap: round;stroke-linejoin: round">
<text x="152184100.000000" y="96045100.000000" transform="scale(-1 1) translate(-304368200.000000 0)" textLength="2089126.000000" font-size="1439333.000000" lengthAdjust="spacingAndGlyphs" text-anchor="middle" opacity="0">D+</text>
<g class="stroked-text"><desc>D+</desc>
<path d="M153135088 95993695 L153135088 94914195 L152878064 94914195 L152723850 94965600 L152621040 95068409 L152569635 95171219 L152518230 95376838 L152518230 95531052 L152569635 95736671 L152621040 95839480 L152723850 95942290 L152878064 95993695 L153135088 95993695 "/>
<path d="M152055588 95582457 L151233111 95582457 "/>
<path d="M151644350 95993695 L151644350 95171219 "/>
</g></g>
<g style="fill-opacity: 0.0;stroke-width: 152400.000000;stroke-opacity: 1;stroke-linecap: round;stroke-linejoin: round">
<g transform="rotate(270.000000 151549100.000000 88171100.000000)">
<text x="151549100.000000" y="88602900.000000" transform="scale(-1 1) translate(-303098200.000000 0)" textLength="2836636.000000" font-size="1151466.000000" lengthAdjust="spacingAndGlyphs" text-anchor="start" opacity="0">CTRL</text>
</g>
<g class="stroked-text"><desc>CTRL</desc>
<path d="M151857528 88969264 L151898652 88928140 L151939776 88804769 L151939776 88722521 L151898652 88599150 L151816404 88516902 L151734157 88475779 L151569661 88434655 L151446290 88434655 L151281795 88475779 L151199547 88516902 L151117300 88599150 L151076176 88722521 L151076176 88804769 L151117300 88928140 L151158423 88969264 "/>
<path d="M151076176 89216007 L151076176 89709493 "/>
<path d="M151939776 89462750 L151076176 89462750 "/>
<path d="M151939776 90490845 L151528538 90202979 "/>
<path d="M151939776 89997360 L151076176 89997360 L151076176 90326350 L151117300 90408598 L151158423 90449721 L151240671 90490845 L151364042 90490845 L151446290 90449721 L151487414 90408598 L151528538 90326350 L151528538 89997360 "/>
<path d="M151939776 91272198 L151939776 90860960 L151076176 90860960 "/>
</g><g transform="rotate(270.000000 145453100.000000 88171100.000000)">
<text x="145453100.000000" y="88602900.000000" transform="scale(-1 1) translate(-290906200.000000 0)" textLength="3297404.000000" font-size="1151466.000000" lengthAdjust="spacingAndGlyphs" text-anchor="start" opacity="0">PGND</text>
</g>
<g class="stroked-text"><desc>PGND</desc>
<path d="M145843776 88475779 L144980176 88475779 L144980176 88804769 L145021300 88887017 L145062423 88928140 L145144671 88969264 L145268042 88969264 L145350290 88928140 L145391414 88887017 L145432538 88804769 L145432538 88475779 "/>
<path d="M145021300 89791740 L144980176 89709493 L144980176 89586121 L145021300 89462750 L145103547 89380502 L145185795 89339379 L145350290 89298255 L145473661 89298255 L145638157 89339379 L145720404 89380502 L145802652 89462750 L145843776 89586121 L145843776 89668369 L145802652 89791740 L145761528 89832864 L145473661 89832864 L145473661 89668369 "/>
<path d="M145843776 90202979 L144980176 90202979 L145843776 90696464 L144980176 90696464 "/>
<path d="M145843776 91107702 L144980176 91107702 L144980176 91313321 L145021300 91436693 L145103547 91518940 L145185795 91560064 L145350290 91601188 L145473661 91601188 L145638157 91560064 L145720404 91518940 L145802652 91436693 L145843776 91313321 L145843776 91107702 "/>
</g></g>
<g style="fill-opacity: 1.0;stroke-width: 1.000000;stroke-opacity: 1;stroke-linecap: round;stroke-linejoin: round">
<path style="fill-opacity: 1.0;stroke-width: 1.000000;stroke-opacity: 1;stroke-linecap: round;stroke-linejoin: round;fill-rule: evenodd" d="M 145755184.000000,97655054.000000 145986923.000000,97751065.000000 146381720.000000,97429154.000000 146736046.000000,97783480.000000 146418292.000000,98173178.000000 146436677.000000,98205503.000000 146506832.000000,98356768.000000 145961200.000000,98582810.000000 145961200.000000,98803777.000000 145756873.000000,98462788.000000 145675665.000000,98389177.000000 145447333.000000,98319924.000000 145341531.000000,98335287.000000 145239138.000000,98382511.000000 145154376.000000,98456866.000000 145094219.000000,98552232.000000 145063620.000000,98660758.000000 145065101.000000,98773506.000000 145098539.000000,98881187.000000 145161182.000000,98974942.000000 145247871.000000,99047047.000000 145351466.000000,99091564.000000 145463439.000000,99104829.000000 145574568.000000,99085749.000000 145670700.000000,99038362.000000 145863173.000000,98800779.000000 146509894.000000,99068701.000000 146416870.000000,99249277.000000 146736046.000000,99640720.000000 146381720.000000,99995046.000000 145986923.000000,99673135.000000 145755184.000000,99769146.000000 145703661.000000,100275900.000000 145202539.000000,100275900.000000 145151016.000000,99769146.000000 144919277.000000,99673135.000000 144524480.000000,99995046.000000 144170154.000000,99640720.000000 144489331.000000,99249277.000000 144430756.000000,99135570.000000 144391749.000000,99013747.000000 143889300.000000,98962661.000000 143889300.000000,98461539.000000 144396054.000000,98410016.000000 144492065.000000,98178277.000000 144170154.000000,97783480.000000 144524480.000000,97429154.000000 144919277.000000,97751065.000000 145151016.000000,97655054.000000 145202539.000000,97148300.000000 145703661.000000,97148300.000000 Z"/> 
<path style="fill-opacity: 1.0;stroke-width: 1.000000;stroke-opacity: 1;stroke-linecap: round;stroke-linejoin: round;fill-rule: evenodd" d="M 153535544.000000,97917940.000000 153375793.000000,97984503.000000 153239775.000000,98015892.000000 153057035.000000,98028945.000000 153045011.000000,97560000.000000 153161726.000000,97560000.000000 153234924.000000,97550850.000000 153343615.000000,97510091.000000 Z"/> 
<path style="fill-opacity: 1.0;stroke-width: 1.000000;stroke-opacity: 1;stroke-linecap: round;stroke-linejoin: round;fill-rule: evenodd" d="M 153483009.000000,103100995.000000 153588998.000000,103132792.000000 153688579.000000,103188115.000000 153755535.000000,103266230.000000 153808873.000000,103362239.000000 153851724.000000,103480079.000000 153862426.000000,103629900.000000 153851751.000000,103693950.000000 153841331.000000,103766889.000000 153819891.000000,103831210.000000 153798886.000000,103883721.000000 153766373.000000,103948749.000000 153721207.000000,104005207.000000 153690215.000000,104030000.000000 153822200.000000,104030000.000000 153822200.000000,104476200.000000 152326000.000000,104476200.000000 152326000.000000,104010000.000000 153211726.000000,104010000.000000 153284039.000000,104000961.000000 153348049.000000,103973528.000000 153401531.000000,103946787.000000 153433845.000000,103914473.000000 153457707.000000,103874703.000000 153466391.000000,103822598.000000 153475605.000000,103748886.000000 153466616.000000,103694952.000000 153458034.000000,103652042.000000 153435271.000000,103614103.000000 153368673.000000,103564155.000000 153318598.000000,103555809.000000 153161726.000000,103536200.000000 152326000.000000,103536200.000000 152326000.000000,103080000.000000 153367535.000000,103080000.000000 Z"/> 
<path style="fill-opacity: 1.0;stroke-width: 1.000000;stroke-opacity: 1;stroke-linecap: round;stroke-linejoin: round;fill-rule: evenodd" d="M 153822200.000000,100076200.000000 153058283.000000,100076200.000000 152973470.000000,100095048.000000 152909000.000000,100113467.000000 152845914.000000,100149517.000000 152793771.000000,100192969.000000 152759787.000000,100252441.000000 152741735.000000,100324648.000000 152732200.000000,100420001.000000 152732200.000000,100519105.000000 152742200.000000,100539106.000000 152742200.000000,100596200.000000 152306000.000000,100596200.000000 152306000.000000,100563882.000000 152296000.000000,100553882.000000 152296000.000000,100392764.000000 152317693.000000,100316837.000000 152339148.000000,100252473.000000 152382494.000000,100176618.000000 152426753.000000,100121294.000000 152490002.000000,100068587.000000 152505486.000000,100056200.000000 152315302.000000,100056200.000000 152336917.000000,99969743.000000 152356918.000000,99869739.000000 152366917.000000,99829743.000000 152376000.000000,99784328.000000 152376000.000000,99733410.000000 152386917.000000,99689743.000000 152402865.000000,99610000.000000 153822200.000000,99610000.000000 Z"/> 
<path style="fill-opacity: 1.0;stroke-width: 1.000000;stroke-opacity: 1;stroke-linecap: round;stroke-linejoin: round;fill-rule: evenodd" d="M 153822200.000000,105076200.000000 152946210.000000,105076200.000000 152863917.000000,105085344.000000 152801485.000000,105112100.000000 152755903.000000,105139449.000000 152713246.000000,105173575.000000 152690493.000000,105211497.000000 152681809.000000,105263602.000000 152672595.000000,105337314.000000 152681584.000000,105391248.000000 152690166.000000,105434158.000000 152712929.000000,105472097.000000 152745392.000000,105496444.000000 152787497.000000,105521707.000000 152839950.000000,105530449.000000 152909138.000000,105540333.000000 152986474.000000,105550000.000000 153822200.000000,105550000.000000 153822200.000000,106016200.000000 152912637.000000,106016200.000000 152779218.000000,106005937.000000 152665191.000000,105985205.000000 152558248.000000,105953122.000000 152470227.000000,105898109.000000 152393386.000000,105821268.000000 152338556.000000,105722573.000000 152306362.000000,105604531.000000 152296000.000000,105459459.000000 152296000.000000,105394947.000000 152307010.000000,105328888.000000 152349569.000000,105201211.000000 152393316.000000,105135590.000000 152435667.000000,105082651.000000 152462119.000000,105056200.000000 152326000.000000,105056200.000000 152326000.000000,104610000.000000 153822200.000000,104610000.000000 Z"/> 
<path style="fill-opacity: 1.0;stroke-width: 1.000000;stroke-opacity: 1;stroke-linecap: round;stroke-linejoin: round;fill-rule: evenodd" d="M 153464202.000000,95071106.000000 153573245.000000,95114723.000000 153670371.000000,95190265.000000 153745992.000000,95276689.000000 153799865.000000,95384436.000000 153831365.000000,95499935.000000 153851939.000000,95623378.000000 153862332.000000,95748100.000000 153851939.000000,95872822.000000 153831365.000000,95996265.000000 153799865.000000,96111764.000000 153745992.000000,96219511.000000 153670149.000000,96306189.000000 153582436.000000,96371973.000000 153463598.000000,96415187.000000 153324907.000000,96436524.000000 153224281.000000,96425343.000000 153145876.000000,96391741.000000 153078368.000000,96346736.000000 153022684.000000,96279915.000000 152938158.000000,96131995.000000 152917011.000000,96036833.000000 152856580.000000,95795109.000000 152846762.000000,95716569.000000 152828812.000000,95662719.000000 152801558.000000,95608210.000000 152776886.000000,95575314.000000 152747394.000000,95553196.000000 152719411.000000,95546200.000000 152695635.000000,95546200.000000 152656111.000000,95572550.000000 152650706.000000,95588765.000000 152640708.000000,95628760.000000 152632200.000000,95654283.000000 152632200.000000,95810762.000000 152648885.000000,95852475.000000 152667119.000000,95888943.000000 152681574.000000,95910626.000000 152701932.000000,95924198.000000 152745003.000000,95941426.000000 152822200.000000,95956865.000000 152822200.000000,96403076.000000 152652185.000000,96374740.000000 152543988.000000,96320641.000000 152456886.000000,96255314.000000 152391034.000000,96167512.000000 152348302.000000,96071364.000000 152316995.000000,95967009.000000 152296000.000000,95851535.000000 152296000.000000,95614665.000000 152316674.000000,95500956.000000 152337741.000000,95395625.000000 152392120.000000,95286866.000000 152456952.000000,95211228.000000 152543908.000000,95135142.000000 152655249.000000,95090606.000000 152784627.000000,95079824.000000 152883919.000000,95090857.000000 152962324.000000,95124459.000000 153031574.000000,95170626.000000 153076529.000000,95238058.000000 153118261.000000,95311089.000000 153149466.000000,95383899.000000 153180713.000000,95467225.000000 153201381.000000,95560231.000000 153221283.000000,95659743.000000 153260706.000000,95817435.000000 153278923.000000,95872087.000000 153305756.000000,95916808.000000 153329183.000000,95948044.000000 153357401.000000,95962153.000000 153384100.000000,95968828.000000 153444620.000000,95953698.000000 153465246.000000,95933072.000000 153491557.000000,95897990.000000 153508153.000000,95864799.000000 153516000.000000,95833411.000000 153516000.000000,95793410.000000 153525215.000000,95756549.000000 153516616.000000,95704952.000000 153506619.000000,95654970.000000 153498045.000000,95603527.000000 153446886.000000,95535314.000000 153415271.000000,95511604.000000 153376763.000000,95496200.000000 153286000.000000,95496200.000000 153286000.000000,95043690.000000 Z"/> 
<path style="fill-opacity: 1.0;stroke-width: 1.000000;stroke-opacity: 1;stroke-linecap: round;stroke-linejoin: round;fill-rule: evenodd" d="M 153822200.000000,101136200.000000 153310656.000000,101136200.000000 153213638.000000,101240148.000000 153822200.000000,101616876.000000 153822200.000000,102178634.000000 152889381.000000,101567119.000000 152326000.000000,102141335.000000 152326000.000000,101571870.000000 152779453.000000,101136200.000000 151770312.000000,101136200.000000 152021343.000000,100670000.000000 153822200.000000,100670000.000000 Z"/> 
<path style="fill-opacity: 1.0;stroke-width: 1.000000;stroke-opacity: 1;stroke-linecap: round;stroke-linejoin: round;fill-rule: evenodd" d="M 152112200.000000,101538491.000000 152068375.000000,101567707.000000 152039126.000000,101596955.000000 151999128.000000,101626954.000000 151949819.000000,101676263.000000 151889823.000000,101726259.000000 151828811.000000,101787270.000000 151758814.000000,101837268.000000 151629819.000000,101966263.000000 151571448.000000,102014905.000000 151495449.000000,102109903.000000 151470493.000000,102151497.000000 151462200.000000,102201256.000000 151462200.000000,102391253.000000 151441365.000000,102516265.000000 151410284.000000,102630227.000000 151368341.000000,102735084.000000 151305017.000000,102840624.000000 151231938.000000,102924144.000000 151149363.000000,103006718.000000 151055172.000000,103079978.000000 150868652.000000,103183600.000000 150680327.000000,103235913.000000 150491610.000000,103246397.000000 150324120.000000,103214993.000000 150177956.000000,103162791.000000 150051624.000000,103089098.000000 149953304.000000,103001702.000000 149882453.000000,102860000.000000 150017917.000000,102860000.000000 150059650.000000,102846089.000000 150069568.000000,102831212.000000 150076000.000000,102811917.000000 150076000.000000,102757095.000000 150041081.000000,102687257.000000 150022987.000000,102660116.000000 149992985.000000,102620114.000000 149974493.000000,102592375.000000 149951531.000000,102569413.000000 149914940.000000,102551117.000000 149888457.000000,102533462.000000 149853440.000000,102524708.000000 149834100.000000,102518261.000000 149818719.000000,102523388.000000 149798717.000000,102533389.000000 149770988.000000,102542632.000000 149750665.000000,102556181.000000 149726642.000000,102588210.000000 149710459.000000,102620577.000000 149701282.000000,102666461.000000 149692200.000000,102702789.000000 149692200.000000,102721917.000000 149702200.000000,102751917.000000 149702200.000000,102880082.000000 149625245.000000,102803126.000000 149591559.000000,102758212.000000 149559128.000000,102693350.000000 149528178.000000,102610817.000000 149496000.000000,102514283.000000 149496000.000000,102404665.000000 149517713.000000,102285245.000000 149582735.000000,102166038.000000 149668469.000000,102069586.000000 149746617.000000,102013767.000000 149847917.000000,101980000.000000 149938282.000000,101980000.000000 150037766.000000,102002108.000000 150136142.000000,102056761.000000 150219301.000000,102129525.000000 150309277.000000,102209504.000000 150384652.000000,102275457.000000 150441919.000000,102300000.000000 150497917.000000,102300000.000000 150545605.000000,102284104.000000 150585680.000000,102252044.000000 150618739.000000,102202457.000000 150636000.000000,102133411.000000 150636000.000000,102061872.000000 150627426.000000,102019003.000000 150610198.000000,101975933.000000 150594493.000000,101952375.000000 150571531.000000,101929413.000000 150539481.000000,101913388.000000 150517917.000000,101906200.000000 150500283.000000,101906200.000000 150480988.000000,101912632.000000 150458375.000000,101927707.000000 150427401.000000,101958681.000000 150419389.000000,101982717.000000 150395413.000000,102030669.000000 150343662.000000,102082419.000000 150306000.000000,102007094.000000 150306000.000000,101982789.000000 150296000.000000,101942790.000000 150296000.000000,101854947.000000 150307195.000000,101787774.000000 150350597.000000,101679271.000000 150382444.000000,101636808.000000 150416330.000000,101580330.000000 150475752.000000,101544677.000000 150539483.000000,101512811.000000 150605881.000000,101490679.000000 150791990.000000,101470000.000000 152112200.000000,101470000.000000 Z"/> 
<path style="fill-opacity: 1.0;stroke-width: 1.000000;stroke-opacity: 1;stroke-linecap: round;stroke-linejoin: round;fill-rule: evenodd" d="M 154352531.000000,96582649.000000 154442533.000000,96672651.000000 154562531.000000,96822649.000000 154716082.000000,96976200.000000 153700215.000000,96976200.000000 153733248.000000,97002626.000000 153797523.000000,97109752.000000 153830740.000000,97176185.000000 153862621.000000,97367472.000000 153841388.000000,97526719.000000 153798380.000000,97655741.000000 153713155.000000,97772927.000000 153617161.000000,97868920.000000 153466845.000000,97950911.000000 153272826.000000,97538623.000000 153374336.000000,97495119.000000 153417295.000000,97460752.000000 153459252.000000,97410404.000000 153476579.000000,97341096.000000 153485736.000000,97267836.000000 153476587.000000,97185489.000000 153459677.000000,97126307.000000 153415941.000000,97073823.000000 153372346.000000,97030228.000000 153311899.000000,97004322.000000 153159411.000000,96966200.000000 152996474.000000,96966200.000000 152923276.000000,96975350.000000 152848291.000000,97003469.000000 152784220.000000,97030928.000000 152731448.000000,97074905.000000 152697643.000000,97117161.000000 152671350.000000,97187276.000000 152662464.000000,97258364.000000 152671344.000000,97338283.000000 152697740.000000,97399875.000000 152732736.000000,97452368.000000 152784220.000000,97495272.000000 152848291.000000,97522731.000000 152923276.000000,97550850.000000 152996474.000000,97560000.000000 153121236.000000,97560000.000000 153133259.000000,98028895.000000 152938814.000000,98015932.000000 152794488.000000,97985005.000000 152657982.000000,97943003.000000 152540970.000000,97868541.000000 152434748.000000,97772941.000000 152359659.000000,97654945.000000 152306437.000000,97505923.000000 152296000.000000,97349369.000000 152296000.000000,97274947.000000 152317708.000000,97144701.000000 152382748.000000,97036300.000000 152425667.000000,96982651.000000 152442118.000000,96966200.000000 152317625.000000,96966200.000000 152346918.000000,96819739.000000 152356917.000000,96779743.000000 152366918.000000,96729739.000000 152376000.000000,96693411.000000 152376000.000000,96644327.000000 152386918.000000,96589739.000000 152404352.000000,96520000.000000 154302412.000000,96520000.000000 Z"/> 
<path style="fill-opacity: 1.0;stroke-width: 1.000000;stroke-opacity: 1;stroke-linecap: round;stroke-linejoin: round;fill-rule: evenodd" d="M 153222200.000000,98631843.000000 153222200.000000,98687094.000000 153212200.000000,98707095.000000 153212200.000000,98744283.000000 153202200.000000,98774283.000000 153202200.000000,98814283.000000 153192200.000000,98844283.000000 153192200.000000,98867094.000000 153164510.000000,98922475.000000 152901523.000000,98856728.000000 152916299.000000,98753303.000000 152941668.000000,98524974.000000 Z"/> 
<path style="fill-opacity: 1.0;stroke-width: 1.000000;stroke-opacity: 1;stroke-linecap: round;stroke-linejoin: round;fill-rule: evenodd" d="M 152662200.000000,102310000.000000 153822200.000000,102310000.000000 153822200.000000,102766200.000000 152662200.000000,102766200.000000 152662200.000000,103036200.000000 152326000.000000,103036200.000000 152326000.000000,102766200.000000 152288789.000000,102766200.000000 152248790.000000,102776200.000000 152213095.000000,102776200.000000 152203257.000000,102781119.000000 152183654.000000,102794188.000000 152170047.000000,102821401.000000 152162200.000000,102852789.000000 152162200.000000,103056200.000000 151820553.000000,103056200.000000 151796000.000000,103007094.000000 151796000.000000,102702508.000000 151828552.000000,102594002.000000 151871359.000000,102508387.000000 151925945.000000,102431968.000000 151993981.000000,102375271.000000 152069899.000000,102342734.000000 152157191.000000,102310000.000000 152326000.000000,102310000.000000 152326000.000000,102209050.000000 152376886.000000,102170886.000000 152405245.000000,102133074.000000 152565246.000000,101973072.000000 152662200.000000,101843800.000000 Z"/> 
<path style="fill-opacity: 1.0;stroke-width: 1.000000;stroke-opacity: 1;stroke-linecap: round;stroke-linejoin: round;fill-rule: evenodd" d="M 153457872.000000,98070000.000000 153513094.000000,98070000.000000 153556577.000000,98091741.000000 153608963.000000,98102218.000000 153646114.000000,98126985.000000 153686116.000000,98156987.000000 153718373.000000,98178492.000000 153755413.000000,98215531.000000 153777119.000000,98258943.000000 153797117.000000,98288940.000000 153818886.000000,98332479.000000 153840435.000000,98386351.000000 153852200.000000,98433410.000000 153852200.000000,98484328.000000 153862200.000000,98534327.000000 153862200.000000,98654283.000000 153852200.000000,98684283.000000 153852200.000000,98724283.000000 153842200.000000,98754283.000000 153842200.000000,98784283.000000 153798631.000000,98914989.000000 153778632.000000,98944988.000000 153768631.000000,98974989.000000 153743708.000000,99012373.000000 153727982.000000,99028100.000000 153729882.000000,99030000.000000 153759882.000000,99030000.000000 153769882.000000,99040000.000000 153779882.000000,99040000.000000 153789882.000000,99050000.000000 153822200.000000,99050000.000000 153822200.000000,99516200.000000 153758318.000000,99516200.000000 153741531.000000,99499413.000000 153735105.000000,99496200.000000 153705106.000000,99496200.000000 153685105.000000,99486200.000000 153665106.000000,99486200.000000 153645105.000000,99476200.000000 153555106.000000,99476200.000000 153535105.000000,99466200.000000 152670327.000000,99466200.000000 152613198.000000,99454774.000000 152558479.000000,99432886.000000 152513988.000000,99410641.000000 152466886.000000,99375314.000000 152370597.000000,99246929.000000 152347426.000000,99189002.000000 152337426.000000,99139003.000000 152317426.000000,99089002.000000 152306000.000000,99031873.000000 152306000.000000,98971872.000000 152296000.000000,98921873.000000 152296000.000000,98684327.000000 152306616.000000,98631248.000000 152317010.000000,98568888.000000 152337205.000000,98508301.000000 152347426.000000,98457198.000000 152369859.000000,98401116.000000 152432441.000000,98296812.000000 152466886.000000,98250886.000000 152512812.000000,98216441.000000 152562808.000000,98186444.000000 152606186.000000,98153910.000000 152674888.000000,98131010.000000 152842200.000000,98103124.000000 152842200.000000,98576200.000000 152763095.000000,98576200.000000 152748717.000000,98583389.000000 152718719.000000,98593388.000000 152706669.000000,98599413.000000 152675413.000000,98630669.000000 152632200.000000,98717095.000000 152632200.000000,98879105.000000 152642200.000000,98899106.000000 152642200.000000,98919105.000000 152662498.000000,98959702.000000 152676669.000000,98966787.000000 152686669.000000,98976787.000000 152733095.000000,99000000.000000 152821400.000000,99000000.000000 152845271.000000,98982097.000000 152869277.000000,98942087.000000 152887694.000000,98886835.000000 152917590.000000,98782200.000000 153182200.000000,98848352.000000 153182200.000000,98927094.000000 153172200.000000,98947095.000000 153172200.000000,98967094.000000 153155747.000000,99000000.000000 153317917.000000,99000000.000000 153339481.000000,98992812.000000 153359483.000000,98982811.000000 153413519.000000,98964799.000000 153429827.000000,98948492.000000 153459825.000000,98928493.000000 153474493.000000,98913825.000000 153488739.000000,98892457.000000 153498152.000000,98854802.000000 153516000.000000,98819105.000000 153516000.000000,98774327.000000 153526000.000000,98724328.000000 153526000.000000,98687095.000000 153516000.000000,98667094.000000 153516000.000000,98647095.000000 153506000.000000,98627094.000000 153506000.000000,98607095.000000 153492787.000000,98580669.000000 153482787.000000,98570669.000000 153475702.000000,98556498.000000 153461531.000000,98549413.000000 153451531.000000,98539413.000000 153445105.000000,98536200.000000 153427917.000000,98536200.000000 153397917.000000,98526200.000000 153363095.000000,98526200.000000 153343094.000000,98536200.000000 153323095.000000,98536200.000000 153282498.000000,98556498.000000 153275413.000000,98570669.000000 153265413.000000,98580669.000000 153245413.000000,98620669.000000 153235413.000000,98630669.000000 153229388.000000,98642719.000000 153207677.000000,98707853.000000 152932976.000000,98603205.000000 152946516.000000,98481346.000000 152967664.000000,98396754.000000 152999501.000000,98311855.000000 153042816.000000,98236054.000000 153109467.000000,98158294.000000 153188473.000000,98113148.000000 153284620.000000,98081099.000000 153404440.000000,98059314.000000 Z"/> 
</g> 
</g><g id="substrate-outline" style="fill:#000000; stroke:#000000; stroke-width: 150000"><g style="fill-opacity: 0.0;stroke-opacity: 1;stroke-linecap: round;stroke-linejoin: round">
<path d="M153327100 91727100 L153581100 91981100 "/>
<path d="M144691100.000000 86276100.000000 A1270000.000000 1270000.000000 0.0 0 0 143421100.000000 87546100.000000"/>
<path d="M143421100 91981100 L143421100 117381100 "/>
<path d="M144691100 117635100 L144691100 120937100 "/>
<path d="M144691100 120937100 L143675100 120937100 "/>
<path d="M153327100 117635100 L152311100 117635100 "/>
<path d="M152311100 117635100 L152311100 120937100 "/>
<path d="M153327100 88425100 L152311100 88425100 "/>
<path d="M143675100 120937100 L143421100 121191100 "/>
<path d="M144691100 91727100 L143675100 91727100 "/>
<path d="M143421100 117381100 L143675100 117635100 "/>
<path d="M152311100 91727100 L153327100 91727100 "/>
<path d="M153581100 121191100 L153581100 122461100 "/>
<path d="M143421100 87536100 L143421100 88171100 "/>
<path d="M153581100 87536100 L153581100 88171100 "/>
<path d="M153327100 120937100 L153581100 121191100 "/>
<path d="M144691100 88425100 L144691100 91727100 "/>
<path d="M143421100 121191100 L143421100 122461100 "/>
<path d="M153568600.000000 87546100.000000 A1270000.000000 1270000.000000 0.0 0 0 152298600.000000 86276100.000000"/>
<path d="M152311100 120937100 L153327100 120937100 "/>
<path d="M152298600.000000 123731100.000000 A1270000.000000 1270000.000000 0.0 0 0 153568600.000000 122461100.000000"/>
<path d="M153581100 88171100 L153327100 88425100 "/>
<path d="M152311100 88425100 L152311100 91727100 "/>
<path d="M143421100.000000 122461100.000000 A1270000.000000 1270000.000000 0.0 0 0 144691100.000000 123731100.000000"/>
<path d="M143421100 88171100 L143675100 88425100 "/>
<path d="M152298600 86276100 L144691100 86276100 "/>
<path d="M143675100 91727100 L143421100 91981100 "/>
<path d="M144691100 123731100 L152298600 123731100 "/>
<path d="M153581100 91981100 L153581100 117381100 "/>
<path d="M153581100 117381100 L153327100 117635100 "/>
<path d="M143675100 117635100 L144691100 117635100 "/>
<path d="M143675100 88425100 L144691100 88425100 "/>
</g> 
<path d="M -508000.0 0.0 A 508000.0 508000.0 0 1 1 508000.0 0.0 L 508000.0 0.0 A 508000.0 508000.0 0 1 1 -508000.0 0.0 Z" transform="translate(149771100 118651100) rotate(-270.0)"/><path d="M -508000.0 0.0 A 508000.0 508000.0 0 1 1 508000.0 0.0 L 508000.0 0.0 A 508000.0 508000.0 0 1 1 -508000.0 0.0 Z" transform="translate(147231100 118651100) rotate(-270.0)"/><path d="M -600000.0 0.0 A 600000.0 600000.0 0 1 1 600000.0 0.0 L 600000.0 0.0 A 600000.0 600000.0 0 1 1 -600000.0 0.0 Z" transform="translate(146545300 115730100) rotate(-0.0)"/><path d="M -600000.0 0.0 A 600000.0 600000.0 0 1 1 600000.0 0.0 L 600000.0 0.0 A 600000.0 600000.0 0 1 1 -600000.0 0.0 Z" transform="translate(150400900 115730100) rotate(-0.0)"/><path d="M -508000.0 0.0 A 508000.0 508000.0 0 1 1 508000.0 0.0 L 508000.0 0.0 A 508000.0 508000.0 0 1 1 -508000.0 0.0 Z" transform="translate(144691100 93251100) rotate(-90.0)"/><path d="M -508000.0 0.0 A 508000.0 508000.0 0 1 1 508000.0 0.0 L 508000.0 0.0 A 508000.0 508000.0 0 1 1 -508000.0 0.0 Z" transform="translate(147231100 93251100) rotate(-90.0)"/><path d="M -508000.0 0.0 A 508000.0 508000.0 0 1 1 508000.0 0.0 L 508000.0 0.0 A 508000.0 508000.0 0 1 1 -508000.0 0.0 Z" transform="translate(149771100 93251100) rotate(-90.0)"/><path d="M -508000.0 0.0 A 508000.0 508000.0 0 1 1 508000.0 0.0 L 508000.0 0.0 A 508000.0 508000.0 0 1 1 -508000.0 0.0 Z" transform="translate(152311100 93251100) rotate(-90.0)"/><path d="M -254000.0 0.0 A 254000.0 254000.0 0 1 1 254000.0 0.0 L 254000.0 0.0 A 254000.0 254000.0 0 1 1 -254000.0 0.0 Z" transform="translate(148501100 102903100) rotate(0.0)"/><path d="M -254000.0 0.0 A 254000.0 254000.0 0 1 1 254000.0 0.0 L 254000.0 0.0 A 254000.0 254000.0 0 1 1 -254000.0 0.0 Z" transform="translate(148501100 105824100) rotate(0.0)"/><path d="M -254000.0 0.0 A 254000.0 254000.0 0 1 1 254000.0 0.0 L 254000.0 0.0 A 254000.0 254000.0 0 1 1 -254000.0 0.0 Z" transform="translate(148501100 107094100) rotate(0.0)"/><path d="M -254000.0 0.0 A 254000.0 254000.0 0 1 1 254000.0 0.0 L 254000.0 0.0 A 254000.0 254000.0 0 1 1 -254000.0 0.0 Z" transform="translate(148501100 109761100) rotate(0.0)"/><path d="M -254000.0 0.0 A 254000.0 254000.0 0 1 1 254000.0 0.0 L 254000.0 0.0 A 254000.0 254000.0 0 1 1 -254000.0 0.0 Z" transform="translate(148501100 111031100) rotate(0.0)"/><path d="M -254000.0 0.0 A 254000.0 254000.0 0 1 1 254000.0 0.0 L 254000.0 0.0 A 254000.0 254000.0 0 1 1 -254000.0 0.0 Z" transform="translate(148501100 108491100) rotate(0.0)"/><path d="M -254000.0 0.0 A 254000.0 254000.0 0 1 1 254000.0 0.0 L 254000.0 0.0 A 254000.0 254000.0 0 1 1 -254000.0 0.0 Z" transform="translate(150533100 101379100) rotate(0.0)"/><path d="M -254000.0 0.0 A 254000.0 254000.0 0 1 1 254000.0 0.0 L 254000.0 0.0 A 254000.0 254000.0 0 1 1 -254000.0 0.0 Z" transform="translate(150533100 103030100) rotate(0.0)"/></g></g></g></svg>