<!DOCTYPE svg PUBLIC "-//W3C//DTD SVG 1.1//EN" "http://www.w3.org/Graphics/SVG/1.1/DTD/svg11.dtd">
<svg xmlns="http://www.w3.org/2000/svg" version="1.1" width="53.400028mm" height="27.400371mm" viewBox="-175201128.935194 91303428.00000028 53400028.93533416 27400371.999999717">
            <title>Picture generated by PcbDraw </title>
            <desc>Picture generated by PcbDraw</desc>
        <defs><clipPath id="cut-off"><path d=" M 174201128.935194 95213770.559079 A 2955372 2955372 0 0 0 171201099.994159 92303770.616414 L 125801100.0 92303771.0 A 2955343 2955343 0 0 0 122801100.06144 95213771.000936 L 122801100.0 114703771.0 A 2999971 2999971 0 0 0 125801100.0 117703771.0 L 171201100.0 117703771.0 A 3000000 3000000 0 0 0 174201099.99986 114703771.0 L 174201100.0 95213771.0 " style="fill-rule: evenodd;"/></clipPath><mask id="pads-mask"><g style="fill:#ffffff; fill-opacity:1.0;  stroke:#ffffff; stroke-width:1.000000; stroke-opacity:1;  stroke-linecap:round; stroke-linejoin:round;">
<path style="fill:#ffffff; fill-opacity:1.0;  stroke:#ffffff; stroke-width:1.000000; stroke-opacity:1;  stroke-linecap:round; stroke-linejoin:round;fill-rule:evenodd;" d="M 153397998.000000,112680877.000000 153710276.000000,112738105.000000 154013378.000000,112832555.000000 154302886.000000,112962852.000000 154574577.000000,113127095.000000 154824491.000000,113322890.000000 155048981.000000,113547380.000000 155244776.000000,113797294.000000 155409019.000000,114068985.000000 155539316.000000,114358493.000000 155633766.000000,114661595.000000 155690994.000000,114973873.000000 155710000.000000,115288085.000000 155710000.000000,117449671.000000 150452200.000000,117449671.000000 150452200.000000,115288085.000000 150471206.000000,114973873.000000 150528434.000000,114661595.000000 150622884.000000,114358493.000000 150753181.000000,114068985.000000 150917424.000000,113797294.000000 151113219.000000,113547380.000000 151337709.000000,113322890.000000 151587623.000000,113127095.000000 151859314.000000,112962852.000000 152148822.000000,112832555.000000 152451924.000000,112738105.000000 152764202.000000,112680877.000000 153081100.000000,112661709.000000 Z"/> 
<path style="fill:#ffffff; fill-opacity:1.0;  stroke:#ffffff; stroke-width:1.000000; stroke-opacity:1;  stroke-linecap:round; stroke-linejoin:round;fill-rule:evenodd;" d="M 140697998.000000,112680877.000000 141010276.000000,112738105.000000 141313378.000000,112832555.000000 141602886.000000,112962852.000000 141874577.000000,113127095.000000 142124491.000000,113322890.000000 142348981.000000,113547380.000000 142544776.000000,113797294.000000 142709019.000000,114068985.000000 142839316.000000,114358493.000000 142933766.000000,114661595.000000 142990994.000000,114973873.000000 143010000.000000,115288085.000000 143010000.000000,117449671.000000 137752200.000000,117449671.000000 137752200.000000,115288085.000000 137771206.000000,114973873.000000 137828434.000000,114661595.000000 137922884.000000,114358493.000000 138053181.000000,114068985.000000 138217424.000000,113797294.000000 138413219.000000,113547380.000000 138637709.000000,113322890.000000 138887623.000000,113127095.000000 139159314.000000,112962852.000000 139448822.000000,112832555.000000 139751924.000000,112738105.000000 140064202.000000,112680877.000000 140381100.000000,112661709.000000 Z"/> 
<path style="fill:#ffffff; fill-opacity:1.0;  stroke:#ffffff; stroke-width:1.000000; stroke-opacity:1;  stroke-linecap:round; stroke-linejoin:round;fill-rule:evenodd;" d="M 147047998.000000,112680877.000000 147360276.000000,112738105.000000 147663378.000000,112832555.000000 147952886.000000,112962852.000000 148224577.000000,113127095.000000 148474491.000000,113322890.000000 148698981.000000,113547380.000000 148894776.000000,113797294.000000 149059019.000000,114068985.000000 149189316.000000,114358493.000000 149283766.000000,114661595.000000 149340994.000000,114973873.000000 149360000.000000,115288085.000000 149360000.000000,117449671.000000 144102200.000000,117449671.000000 144102200.000000,115288085.000000 144121206.000000,114973873.000000 144178434.000000,114661595.000000 144272884.000000,114358493.000000 144403181.000000,114068985.000000 144567424.000000,113797294.000000 144763219.000000,113547380.000000 144987709.000000,113322890.000000 145237623.000000,113127095.000000 145509314.000000,112962852.000000 145798822.000000,112832555.000000 146101924.000000,112738105.000000 146414202.000000,112680877.000000 146731100.000000,112661709.000000 Z"/> 
<g style="fill:#ffffff; fill-opacity:1.0;  stroke:#ffffff; stroke-width:1.000000; stroke-opacity:1;  stroke-linecap:round; stroke-linejoin:round;">
<circle cx="153081100.000000" cy="114909771.000000" r="2158800.000000"/> 
</g>
<g style="fill:#ffffff; fill-opacity:1.0;  stroke:#ffffff; stroke-width:1.000000; stroke-opacity:1;  stroke-linecap:round; stroke-linejoin:round;">
<circle cx="140381100.000000" cy="114909771.000000" r="2158800.000000"/> 
</g>
<g style="fill:#ffffff; fill-opacity:1.0;  stroke:#ffffff; stroke-width:1.000000; stroke-opacity:1;  stroke-linecap:round; stroke-linejoin:round;">
<circle cx="159844000.000000" cy="97495771.000000" r="2336800.000000"/> 
</g>
<g style="fill:#ffffff; fill-opacity:1.0;  stroke:#ffffff; stroke-width:1.000000; stroke-opacity:1;  stroke-linecap:round; stroke-linejoin:round;">
<circle cx="169844000.000000" cy="97495771.000000" r="2336800.000000"/> 
</g>
<g style="fill:#ffffff; fill-opacity:1.0;  stroke:#ffffff; stroke-width:1.000000; stroke-opacity:1;  stroke-linecap:round; stroke-linejoin:round;">
<circle cx="126844000.000000" cy="97495771.000000" r="2336800.000000"/> 
</g>
<g style="fill:#ffffff; fill-opacity:1.0;  stroke:#ffffff; stroke-width:1.000000; stroke-opacity:1;  stroke-linecap:round; stroke-linejoin:round;">
<circle cx="136844000.000000" cy="97495771.000000" r="2336800.000000"/> 
</g>
<g style="fill:#ffffff; fill-opacity:1.0;  stroke:#ffffff; stroke-width:1.000000; stroke-opacity:1;  stroke-linecap:round; stroke-linejoin:round;">
<circle cx="148344000.000000" cy="97495771.000000" r="2336800.000000"/> 
</g>
<g style="fill:#ffffff; fill-opacity:1.0;  stroke:#ffffff; stroke-width:1.000000; stroke-opacity:1;  stroke-linecap:round; stroke-linejoin:round;">
<circle cx="146731100.000000" cy="114909771.000000" r="2158800.000000"/> 
</g>
</g> 
</mask><mask id="pads-mask-silkscreen"><rect x="120651338" y="89419571" width="70335429" height="30441400" fill="white"/><g style="fill:#000000; fill-opacity:1.0;  stroke:#000000; stroke-width:1.000000; stroke-opacity:1;  stroke-linecap:round; stroke-linejoin:round;">
<path style="fill:#000000; fill-opacity:1.0;  stroke:#000000; stroke-width:1.000000; stroke-opacity:1;  stroke-linecap:round; stroke-linejoin:round;fill-rule:evenodd;" d="M 153397998.000000,112680877.000000 153710276.000000,112738105.000000 154013378.000000,112832555.000000 154302886.000000,112962852.000000 154574577.000000,113127095.000000 154824491.000000,113322890.000000 155048981.000000,113547380.000000 155244776.000000,113797294.000000 155409019.000000,114068985.000000 155539316.000000,114358493.000000 155633766.000000,114661595.000000 155690994.000000,114973873.000000 155710000.000000,115288085.000000 155710000.000000,117449671.000000 150452200.000000,117449671.000000 150452200.000000,115288085.000000 150471206.000000,114973873.000000 150528434.000000,114661595.000000 150622884.000000,114358493.000000 150753181.000000,114068985.000000 150917424.000000,113797294.000000 151113219.000000,113547380.000000 151337709.000000,113322890.000000 151587623.000000,113127095.000000 151859314.000000,112962852.000000 152148822.000000,112832555.000000 152451924.000000,112738105.000000 152764202.000000,112680877.000000 153081100.000000,112661709.000000 Z"/> 
<path style="fill:#000000; fill-opacity:1.0;  stroke:#000000; stroke-width:1.000000; stroke-opacity:1;  stroke-linecap:round; stroke-linejoin:round;fill-rule:evenodd;" d="M 140697998.000000,112680877.000000 141010276.000000,112738105.000000 141313378.000000,112832555.000000 141602886.000000,112962852.000000 141874577.000000,113127095.000000 142124491.000000,113322890.000000 142348981.000000,113547380.000000 142544776.000000,113797294.000000 142709019.000000,114068985.000000 142839316.000000,114358493.000000 142933766.000000,114661595.000000 142990994.000000,114973873.000000 143010000.000000,115288085.000000 143010000.000000,117449671.000000 137752200.000000,117449671.000000 137752200.000000,115288085.000000 137771206.000000,114973873.000000 137828434.000000,114661595.000000 137922884.000000,114358493.000000 138053181.000000,114068985.000000 138217424.000000,113797294.000000 138413219.000000,113547380.000000 138637709.000000,113322890.000000 138887623.000000,113127095.000000 139159314.000000,112962852.000000 139448822.000000,112832555.000000 139751924.000000,112738105.000000 140064202.000000,112680877.000000 140381100.000000,112661709.000000 Z"/> 
<path style="fill:#000000; fill-opacity:1.0;  stroke:#000000; stroke-width:1.000000; stroke-opacity:1;  stroke-linecap:round; stroke-linejoin:round;fill-rule:evenodd;" d="M 147047998.000000,112680877.000000 147360276.000000,112738105.000000 147663378.000000,112832555.000000 147952886.000000,112962852.000000 148224577.000000,113127095.000000 148474491.000000,113322890.000000 148698981.000000,113547380.000000 148894776.000000,113797294.000000 149059019.000000,114068985.000000 149189316.000000,114358493.000000 149283766.000000,114661595.000000 149340994.000000,114973873.000000 149360000.000000,115288085.000000 149360000.000000,117449671.000000 144102200.000000,117449671.000000 144102200.000000,115288085.000000 144121206.000000,114973873.000000 144178434.000000,114661595.000000 144272884.000000,114358493.000000 144403181.000000,114068985.000000 144567424.000000,113797294.000000 144763219.000000,113547380.000000 144987709.000000,113322890.000000 145237623.000000,113127095.000000 145509314.000000,112962852.000000 145798822.000000,112832555.000000 146101924.000000,112738105.000000 146414202.000000,112680877.000000 146731100.000000,112661709.000000 Z"/> 
<g style="fill:#000000; fill-opacity:1.0;  stroke:#000000; stroke-width:1.000000; stroke-opacity:1;  stroke-linecap:round; stroke-linejoin:round;">
<circle cx="153081100.000000" cy="114909771.000000" r="2158800.000000"/> 
</g>
<g style="fill:#000000; fill-opacity:1.0;  stroke:#000000; stroke-width:1.000000; stroke-opacity:1;  stroke-linecap:round; stroke-linejoin:round;">
<circle cx="140381100.000000" cy="114909771.000000" r="2158800.000000"/> 
</g>
<g style="fill:#000000; fill-opacity:1.0;  stroke:#000000; stroke-width:1.000000; stroke-opacity:1;  stroke-linecap:round; stroke-linejoin:round;">
<circle cx="159844000.000000" cy="97495771.000000" r="2336800.000000"/> 
</g>
<g style="fill:#000000; fill-opacity:1.0;  stroke:#000000; stroke-width:1.000000; stroke-opacity:1;  stroke-linecap:round; stroke-linejoin:round;">
<circle cx="169844000.000000" cy="97495771.000000" r="2336800.000000"/> 
</g>
<g style="fill:#000000; fill-opacity:1.0;  stroke:#000000; stroke-width:1.000000; stroke-opacity:1;  stroke-linecap:round; stroke-linejoin:round;">
<circle cx="126844000.000000" cy="97495771.000000" r="2336800.000000"/> 
</g>
<g style="fill:#000000; fill-opacity:1.0;  stroke:#000000; stroke-width:1.000000; stroke-opacity:1;  stroke-linecap:round; stroke-linejoin:round;">
<circle cx="136844000.000000" cy="97495771.000000" r="2336800.000000"/> 
</g>
<g style="fill:#000000; fill-opacity:1.0;  stroke:#000000; stroke-width:1.000000; stroke-opacity:1;  stroke-linecap:round; stroke-linejoin:round;">
<circle cx="148344000.000000" cy="97495771.000000" r="2336800.000000"/> 
</g>
<g style="fill:#000000; fill-opacity:1.0;  stroke:#000000; stroke-width:1.000000; stroke-opacity:1;  stroke-linecap:round; stroke-linejoin:round;">
<circle cx="146731100.000000" cy="114909771.000000" r="2158800.000000"/> 
</g>
</g> 
</mask><mask id="hole-mask"><g><rect x="120651338" y="89419571" fill="white" width="70335429" height="30441400"/><polyline stroke-linecap="round" stroke="black" stroke-width="3200000" points="0.0 0 0.0 0" transform="translate(153081100 114909771) rotate(-180.0)"/><polyline stroke-linecap="round" stroke="black" stroke-width="3200000" points="0.0 0 0.0 0" transform="translate(140381100 114909771) rotate(-180.0)"/><polyline stroke-linecap="round" stroke="black" stroke-width="4250000" points="0.0 0 0.0 0" transform="translate(159844000 97495771) rotate(-0.0)"/><polyline stroke-linecap="round" stroke="black" stroke-width="4250000" points="0.0 0 0.0 0" transform="translate(169844000 97495771) rotate(-0.0)"/><polyline stroke-linecap="round" stroke="black" stroke-width="4250000" points="0.0 0 0.0 0" transform="translate(126844000 97495771) rotate(-0.0)"/><polyline stroke-linecap="round" stroke="black" stroke-width="4250000" points="0.0 0 0.0 0" transform="translate(136844000 97495771) rotate(-0.0)"/><polyline stroke-linecap="round" stroke="black" stroke-width="4250000" points="0.0 0 0.0 0" transform="translate(148344000 97495771) rotate(-0.0)"/><polyline stroke-linecap="round" stroke="black" stroke-width="3200000" points="0.0 0 0.0 0" transform="translate(146731100 114909771) rotate(-180.0)"/><polyline stroke-linecap="round" stroke="black" stroke-width="500000" points="0.0 0 0.0 0" transform="translate(133015100 105765771) rotate(0.0)"/><polyline stroke-linecap="round" stroke="black" stroke-width="500000" points="0.0 0 0.0 0" transform="translate(151184550 106155221) rotate(0.0)"/></g></mask></defs><g transform="scale(-1,1)" id="boardContainer"><g id="substrate" clip-path="url(#cut-off)" mask="url(#hole-mask)"><g id="substrate-board" style="fill:#4ca06c; stroke:#4ca06c;"><path d=" M 174201128.935194 95213770.559079 A 2955372 2955372 0 0 0 171201099.994159 92303770.616414 L 125801100.0 92303771.0 A 2955343 2955343 0 0 0 122801100.06144 95213771.000936 L 122801100.0 114703771.0 A 2999971 2999971 0 0 0 125801100.0 117703771.0 L 171201100.0 117703771.0 A 3000000 3000000 0 0 0 174201099.99986 114703771.0 L 174201100.0 95213771.0 " style="fill-rule: evenodd;"/><g style="fill-opacity: 0.0;stroke-width: 50000.000000;stroke-opacity: 1;stroke-linecap: round;stroke-linejoin: round">
<path d="M174201100 114703771 L174201100 95213771 "/>
<path d="M125801100 117703771 L171201100 117703771 "/>
<path d="M122801100 95213771 L122801100 114703771 "/>
<path d="M125801099.564273 92303799.613052 A2955343.000000 2955343.000000 0.0 0 0 122801100.061440 95213771.000936"/>
<path d="M122801129.000140 114703771.000280 A2999971.000000 2999971.000000 0.0 0 0 125801100.000000 117703771.000000"/>
<path d="M174201128.935194 95213770.559079 A2955372.000000 2955372.000000 0.0 0 0 171201099.994159 92303770.616414"/>
<path d="M171201100 92303771 L125801100 92303771 "/>
<path d="M171201100.000000 117703800.000000 A3000000.000000 3000000.000000 0.0 0 0 174201099.999860 114703771.000000"/>
</g> 
</g><g id="substrate-clad" style="fill:#9c6b28; stroke:#9c6b28;"><g style="fill-opacity: 1.0;stroke-width: 1.000000;stroke-opacity: 1;stroke-linecap: round;stroke-linejoin: round">
<path style="fill-opacity: 1.0;stroke-width: 1.000000;stroke-opacity: 1;stroke-linecap: round;stroke-linejoin: round;fill-rule: evenodd" d="M 153397998.000000,112680877.000000 153710276.000000,112738105.000000 154013378.000000,112832555.000000 154302886.000000,112962852.000000 154574577.000000,113127095.000000 154824491.000000,113322890.000000 155048981.000000,113547380.000000 155244776.000000,113797294.000000 155409019.000000,114068985.000000 155539316.000000,114358493.000000 155633766.000000,114661595.000000 155690994.000000,114973873.000000 155710000.000000,115288085.000000 155710000.000000,117449671.000000 150452200.000000,117449671.000000 150452200.000000,115288085.000000 150471206.000000,114973873.000000 150528434.000000,114661595.000000 150622884.000000,114358493.000000 150753181.000000,114068985.000000 150917424.000000,113797294.000000 151113219.000000,113547380.000000 151337709.000000,113322890.000000 151587623.000000,113127095.000000 151859314.000000,112962852.000000 152148822.000000,112832555.000000 152451924.000000,112738105.000000 152764202.000000,112680877.000000 153081100.000000,112661709.000000 Z"/> 
<path style="fill-opacity: 1.0;stroke-width: 1.000000;stroke-opacity: 1;stroke-linecap: round;stroke-linejoin: round;fill-rule: evenodd" d="M 140697998.000000,112680877.000000 141010276.000000,112738105.000000 141313378.000000,112832555.000000 141602886.000000,112962852.000000 141874577.000000,113127095.000000 142124491.000000,113322890.000000 142348981.000000,113547380.000000 142544776.000000,113797294.000000 142709019.000000,114068985.000000 142839316.000000,114358493.000000 142933766.000000,114661595.000000 142990994.000000,114973873.000000 143010000.000000,115288085.000000 143010000.000000,117449671.000000 137752200.000000,117449671.000000 137752200.000000,115288085.000000 137771206.000000,114973873.000000 137828434.000000,114661595.000000 137922884.000000,114358493.000000 138053181.000000,114068985.000000 138217424.000000,113797294.000000 138413219.000000,113547380.000000 138637709.000000,113322890.000000 138887623.000000,113127095.000000 139159314.000000,112962852.000000 139448822.000000,112832555.000000 139751924.000000,112738105.000000 140064202.000000,112680877.000000 140381100.000000,112661709.000000 Z"/> 
<path style="fill-opacity: 1.0;stroke-width: 1.000000;stroke-opacity: 1;stroke-linecap: round;stroke-linejoin: round;fill-rule: evenodd" d="M 147047998.000000,112680877.000000 147360276.000000,112738105.000000 147663378.000000,112832555.000000 147952886.000000,112962852.000000 148224577.000000,113127095.000000 148474491.000000,113322890.000000 148698981.000000,113547380.000000 148894776.000000,113797294.000000 149059019.000000,114068985.000000 149189316.000000,114358493.000000 149283766.000000,114661595.000000 149340994.000000,114973873.000000 149360000.000000,115288085.000000 149360000.000000,117449671.000000 144102200.000000,117449671.000000 144102200.000000,115288085.000000 144121206.000000,114973873.000000 144178434.000000,114661595.000000 144272884.000000,114358493.000000 144403181.000000,114068985.000000 144567424.000000,113797294.000000 144763219.000000,113547380.000000 144987709.000000,113322890.000000 145237623.000000,113127095.000000 145509314.000000,112962852.000000 145798822.000000,112832555.000000 146101924.000000,112738105.000000 146414202.000000,112680877.000000 146731100.000000,112661709.000000 Z"/> 
<g style="fill-opacity: 1.0;stroke-width: 1.000000;stroke-opacity: 1;stroke-linecap: round;stroke-linejoin: round">
<circle cx="153081100.000000" cy="114909771.000000" r="2158800.000000"/> 
</g>
<g style="fill-opacity: 1.0;stroke-width: 1.000000;stroke-opacity: 1;stroke-linecap: round;stroke-linejoin: round">
<circle cx="140381100.000000" cy="114909771.000000" r="2158800.000000"/> 
</g>
<g style="fill-opacity: 1.0;stroke-width: 1.000000;stroke-opacity: 1;stroke-linecap: round;stroke-linejoin: round">
<circle cx="159844000.000000" cy="97495771.000000" r="2336800.000000"/> 
</g>
<g style="fill-opacity: 1.0;stroke-width: 1.000000;stroke-opacity: 1;stroke-linecap: round;stroke-linejoin: round">
<circle cx="169844000.000000" cy="97495771.000000" r="2336800.000000"/> 
</g>
<g style="fill-opacity: 1.0;stroke-width: 1.000000;stroke-opacity: 1;stroke-linecap: round;stroke-linejoin: round">
<circle cx="126844000.000000" cy="97495771.000000" r="2336800.000000"/> 
</g>
<g style="fill-opacity: 1.0;stroke-width: 1.000000;stroke-opacity: 1;stroke-linecap: round;stroke-linejoin: round">
<circle cx="136844000.000000" cy="97495771.000000" r="2336800.000000"/> 
</g>
<g style="fill-opacity: 1.0;stroke-width: 1.000000;stroke-opacity: 1;stroke-linecap: round;stroke-linejoin: round">
<circle cx="148344000.000000" cy="97495771.000000" r="2336800.000000"/> 
</g>
<g style="fill-opacity: 1.0;stroke-width: 1.000000;stroke-opacity: 1;stroke-linecap: round;stroke-linejoin: round">
<circle cx="146731100.000000" cy="114909771.000000" r="2158800.000000"/> 
</g>
</g> 
</g><g id="substrate-copper" style="fill:#417e5a; stroke:#417e5a;"><g style="fill-opacity: 1.0;stroke-width: 1.000000;stroke-opacity: 1;stroke-linecap: round;stroke-linejoin: round">
<path style="fill-opacity: 1.0;stroke-width: 1.000000;stroke-opacity: 1;stroke-linecap: round;stroke-linejoin: round;fill-rule: evenodd" d="M 153397998.000000,112680877.000000 153710276.000000,112738105.000000 154013378.000000,112832555.000000 154302886.000000,112962852.000000 154574577.000000,113127095.000000 154824491.000000,113322890.000000 155048981.000000,113547380.000000 155244776.000000,113797294.000000 155409019.000000,114068985.000000 155539316.000000,114358493.000000 155633766.000000,114661595.000000 155690994.000000,114973873.000000 155710000.000000,115288085.000000 155710000.000000,117449671.000000 150452200.000000,117449671.000000 150452200.000000,115288085.000000 150471206.000000,114973873.000000 150528434.000000,114661595.000000 150622884.000000,114358493.000000 150753181.000000,114068985.000000 150917424.000000,113797294.000000 151113219.000000,113547380.000000 151337709.000000,113322890.000000 151587623.000000,113127095.000000 151859314.000000,112962852.000000 152148822.000000,112832555.000000 152451924.000000,112738105.000000 152764202.000000,112680877.000000 153081100.000000,112661709.000000 Z"/> 
<path style="fill-opacity: 1.0;stroke-width: 1.000000;stroke-opacity: 1;stroke-linecap: round;stroke-linejoin: round;fill-rule: evenodd" d="M 140697998.000000,112680877.000000 141010276.000000,112738105.000000 141313378.000000,112832555.000000 141602886.000000,112962852.000000 141874577.000000,113127095.000000 142124491.000000,113322890.000000 142348981.000000,113547380.000000 142544776.000000,113797294.000000 142709019.000000,114068985.000000 142839316.000000,114358493.000000 142933766.000000,114661595.000000 142990994.000000,114973873.000000 143010000.000000,115288085.000000 143010000.000000,117449671.000000 137752200.000000,117449671.000000 137752200.000000,115288085.000000 137771206.000000,114973873.000000 137828434.000000,114661595.000000 137922884.000000,114358493.000000 138053181.000000,114068985.000000 138217424.000000,113797294.000000 138413219.000000,113547380.000000 138637709.000000,113322890.000000 138887623.000000,113127095.000000 139159314.000000,112962852.000000 139448822.000000,112832555.000000 139751924.000000,112738105.000000 140064202.000000,112680877.000000 140381100.000000,112661709.000000 Z"/> 
<path style="fill-opacity: 1.0;stroke-width: 1.000000;stroke-opacity: 1;stroke-linecap: round;stroke-linejoin: round;fill-rule: evenodd" d="M 147047998.000000,112680877.000000 147360276.000000,112738105.000000 147663378.000000,112832555.000000 147952886.000000,112962852.000000 148224577.000000,113127095.000000 148474491.000000,113322890.000000 148698981.000000,113547380.000000 148894776.000000,113797294.000000 149059019.000000,114068985.000000 149189316.000000,114358493.000000 149283766.000000,114661595.000000 149340994.000000,114973873.000000 149360000.000000,115288085.000000 149360000.000000,117449671.000000 144102200.000000,117449671.000000 144102200.000000,115288085.000000 144121206.000000,114973873.000000 144178434.000000,114661595.000000 144272884.000000,114358493.000000 144403181.000000,114068985.000000 144567424.000000,113797294.000000 144763219.000000,113547380.000000 144987709.000000,113322890.000000 145237623.000000,113127095.000000 145509314.000000,112962852.000000 145798822.000000,112832555.000000 146101924.000000,112738105.000000 146414202.000000,112680877.000000 146731100.000000,112661709.000000 Z"/> 
<g style="fill-opacity: 1.0;stroke-width: 1.000000;stroke-opacity: 1;stroke-linecap: round;stroke-linejoin: round">
<circle cx="153081100.000000" cy="114909771.000000" r="2108000.000000"/> 
</g>
<g style="fill-opacity: 1.0;stroke-width: 1.000000;stroke-opacity: 1;stroke-linecap: round;stroke-linejoin: round">
<circle cx="140381100.000000" cy="114909771.000000" r="2108000.000000"/> 
</g>
<g style="fill-opacity: 1.0;stroke-width: 1.000000;stroke-opacity: 1;stroke-linecap: round;stroke-linejoin: round">
<circle cx="159844000.000000" cy="97495771.000000" r="2286000.000000"/> 
</g>
<g style="fill-opacity: 1.0;stroke-width: 1.000000;stroke-opacity: 1;stroke-linecap: round;stroke-linejoin: round">
<circle cx="169844000.000000" cy="97495771.000000" r="2286000.000000"/> 
</g>
<g style="fill-opacity: 1.0;stroke-width: 1.000000;stroke-opacity: 1;stroke-linecap: round;stroke-linejoin: round">
<circle cx="126844000.000000" cy="97495771.000000" r="2286000.000000"/> 
</g>
<g style="fill-opacity: 1.0;stroke-width: 1.000000;stroke-opacity: 1;stroke-linecap: round;stroke-linejoin: round">
<circle cx="136844000.000000" cy="97495771.000000" r="2286000.000000"/> 
</g>
<g style="fill-opacity: 1.0;stroke-width: 1.000000;stroke-opacity: 1;stroke-linecap: round;stroke-linejoin: round">
<circle cx="148344000.000000" cy="97495771.000000" r="2286000.000000"/> 
</g>
<g style="fill-opacity: 1.0;stroke-width: 1.000000;stroke-opacity: 1;stroke-linecap: round;stroke-linejoin: round">
<circle cx="146731100.000000" cy="114909771.000000" r="2108000.000000"/> 
</g>
<g style="fill-opacity: 1.0;stroke-width: 1.000000;stroke-opacity: 1;stroke-linecap: round;stroke-linejoin: round">
<circle cx="133015100.000000" cy="105765771.000000" r="453200.000000"/> 
</g>
<g style="fill-opacity: 1.0;stroke-width: 1.000000;stroke-opacity: 1;stroke-linecap: round;stroke-linejoin: round">
<circle cx="151184550.000000" cy="106155221.000000" r="453200.000000"/> 
</g>
<g style="fill-opacity: 0.0;stroke-width: 609600.000000;stroke-opacity: 1;stroke-linecap: round;stroke-linejoin: round">
<path d="M140381100 110845771 L140381100 114909771 "/>
<path d="M144699100 106527771 L140381100 110845771 "/>
<path d="M159844000 97495771 L151184550 106155221 "/>
<path d="M151184550 106155221 L150812000 106527771 "/>
<path d="M150812000 106527771 L144699100 106527771 "/>
</g>
</g> 
</g><g id="substrate-pads" style="fill:#b5ae30; stroke:#b5ae30;" mask="url(#pads-mask)"><g style="fill-opacity: 1.0;stroke-width: 1.000000;stroke-opacity: 1;stroke-linecap: round;stroke-linejoin: round">
<path style="fill-opacity: 1.0;stroke-width: 1.000000;stroke-opacity: 1;stroke-linecap: round;stroke-linejoin: round;fill-rule: evenodd" d="M 153397998.000000,112680877.000000 153710276.000000,112738105.000000 154013378.000000,112832555.000000 154302886.000000,112962852.000000 154574577.000000,113127095.000000 154824491.000000,113322890.000000 155048981.000000,113547380.000000 155244776.000000,113797294.000000 155409019.000000,114068985.000000 155539316.000000,114358493.000000 155633766.000000,114661595.000000 155690994.000000,114973873.000000 155710000.000000,115288085.000000 155710000.000000,117449671.000000 150452200.000000,117449671.000000 150452200.000000,115288085.000000 150471206.000000,114973873.000000 150528434.000000,114661595.000000 150622884.000000,114358493.000000 150753181.000000,114068985.000000 150917424.000000,113797294.000000 151113219.000000,113547380.000000 151337709.000000,113322890.000000 151587623.000000,113127095.000000 151859314.000000,112962852.000000 152148822.000000,112832555.000000 152451924.000000,112738105.000000 152764202.000000,112680877.000000 153081100.000000,112661709.000000 Z"/> 
<path style="fill-opacity: 1.0;stroke-width: 1.000000;stroke-opacity: 1;stroke-linecap: round;stroke-linejoin: round;fill-rule: evenodd" d="M 140697998.000000,112680877.000000 141010276.000000,112738105.000000 141313378.000000,112832555.000000 141602886.000000,112962852.000000 141874577.000000,113127095.000000 142124491.000000,113322890.000000 142348981.000000,113547380.000000 142544776.000000,113797294.000000 142709019.000000,114068985.000000 142839316.000000,114358493.000000 142933766.000000,114661595.000000 142990994.000000,114973873.000000 143010000.000000,115288085.000000 143010000.000000,117449671.000000 137752200.000000,117449671.000000 137752200.000000,115288085.000000 137771206.000000,114973873.000000 137828434.000000,114661595.000000 137922884.000000,114358493.000000 138053181.000000,114068985.000000 138217424.000000,113797294.000000 138413219.000000,113547380.000000 138637709.000000,113322890.000000 138887623.000000,113127095.000000 139159314.000000,112962852.000000 139448822.000000,112832555.000000 139751924.000000,112738105.000000 140064202.000000,112680877.000000 140381100.000000,112661709.000000 Z"/> 
<path style="fill-opacity: 1.0;stroke-width: 1.000000;stroke-opacity: 1;stroke-linecap: round;stroke-linejoin: round;fill-rule: evenodd" d="M 147047998.000000,112680877.000000 147360276.000000,112738105.000000 147663378.000000,112832555.000000 147952886.000000,112962852.000000 148224577.000000,113127095.000000 148474491.000000,113322890.000000 148698981.000000,113547380.000000 148894776.000000,113797294.000000 149059019.000000,114068985.000000 149189316.000000,114358493.000000 149283766.000000,114661595.000000 149340994.000000,114973873.000000 149360000.000000,115288085.000000 149360000.000000,117449671.000000 144102200.000000,117449671.000000 144102200.000000,115288085.000000 144121206.000000,114973873.000000 144178434.000000,114661595.000000 144272884.000000,114358493.000000 144403181.000000,114068985.000000 144567424.000000,113797294.000000 144763219.000000,113547380.000000 144987709.000000,113322890.000000 145237623.000000,113127095.000000 145509314.000000,112962852.000000 145798822.000000,112832555.000000 146101924.000000,112738105.000000 146414202.000000,112680877.000000 146731100.000000,112661709.000000 Z"/> 
<g style="fill-opacity: 1.0;stroke-width: 1.000000;stroke-opacity: 1;stroke-linecap: round;stroke-linejoin: round">
<circle cx="153081100.000000" cy="114909771.000000" r="2108000.000000"/> 
</g>
<g style="fill-opacity: 1.0;stroke-width: 1.000000;stroke-opacity: 1;stroke-linecap: round;stroke-linejoin: round">
<circle cx="140381100.000000" cy="114909771.000000" r="2108000.000000"/> 
</g>
<g style="fill-opacity: 1.0;stroke-width: 1.000000;stroke-opacity: 1;stroke-linecap: round;stroke-linejoin: round">
<circle cx="159844000.000000" cy="97495771.000000" r="2286000.000000"/> 
</g>
<g style="fill-opacity: 1.0;stroke-width: 1.000000;stroke-opacity: 1;stroke-linecap: round;stroke-linejoin: round">
<circle cx="169844000.000000" cy="97495771.000000" r="2286000.000000"/> 
</g>
<g style="fill-opacity: 1.0;stroke-width: 1.000000;stroke-opacity: 1;stroke-linecap: round;stroke-linejoin: round">
<circle cx="126844000.000000" cy="97495771.000000" r="2286000.000000"/> 
</g>
<g style="fill-opacity: 1.0;stroke-width: 1.000000;stroke-opacity: 1;stroke-linecap: round;stroke-linejoin: round">
<circle cx="136844000.000000" cy="97495771.000000" r="2286000.000000"/> 
</g>
<g style="fill-opacity: 1.0;stroke-width: 1.000000;stroke-opacity: 1;stroke-linecap: round;stroke-linejoin: round">
<circle cx="148344000.000000" cy="97495771.000000" r="2286000.000000"/> 
</g>
<g style="fill-opacity: 1.0;stroke-width: 1.000000;stroke-opacity: 1;stroke-linecap: round;stroke-linejoin: round">
<circle cx="146731100.000000" cy="114909771.000000" r="2108000.000000"/> 
</g>
<g style="fill-opacity: 1.0;stroke-width: 1.000000;stroke-opacity: 1;stroke-linecap: round;stroke-linejoin: round">
<circle cx="133015100.000000" cy="105765771.000000" r="453200.000000"/> 
</g>
<g style="fill-opacity: 1.0;stroke-width: 1.000000;stroke-opacity: 1;stroke-linecap: round;stroke-linejoin: round">
<circle cx="151184550.000000" cy="106155221.000000" r="453200.000000"/> 
</g>
<g style="fill-opacity: 0.0;stroke-width: 609600.000000;stroke-opacity: 1;stroke-linecap: round;stroke-linejoin: round">
<path d="M140381100 110845771 L140381100 114909771 "/>
<path d="M144699100 106527771 L140381100 110845771 "/>
<path d="M159844000 97495771 L151184550 106155221 "/>
<path d="M151184550 106155221 L150812000 106527771 "/>
<path d="M150812000 106527771 L144699100 106527771 "/>
</g>
</g> 
</g><g id="substrate-outline" style="fill:#000000; stroke:#000000; stroke-width: 150000"><g style="fill-opacity: 0.0;stroke-opacity: 1;stroke-linecap: round;stroke-linejoin: round">
<path d="M174201100 114703771 L174201100 95213771 "/>
<path d="M125801100 117703771 L171201100 117703771 "/>
<path d="M122801100 95213771 L122801100 114703771 "/>
<path d="M125801099.564273 92303799.613052 A2955343.000000 2955343.000000 0.0 0 0 122801100.061440 95213771.000936"/>
<path d="M122801129.000140 114703771.000280 A2999971.000000 2999971.000000 0.0 0 0 125801100.000000 117703771.000000"/>
<path d="M174201128.935194 95213770.559079 A2955372.000000 2955372.000000 0.0 0 0 171201099.994159 92303770.616414"/>
<path d="M171201100 92303771 L125801100 92303771 "/>
<path d="M171201100.000000 117703800.000000 A3000000.000000 3000000.000000 0.0 0 0 174201099.999860 114703771.000000"/>
</g> 
<path d="M -1600000.0 0.0 A 1600000.0 1600000.0 0 1 1 1600000.0 0.0 L 1600000.0 0.0 A 1600000.0 1600000.0 0 1 1 -1600000.0 0.0 Z" transform="translate(153081100 114909771) rotate(-180.0)"/><path d="M -1600000.0 0.0 A 1600000.0 1600000.0 0 1 1 1600000.0 0.0 L 1600000.0 0.0 A 1600000.0 1600000.0 0 1 1 -1600000.0 0.0 Z" transform="translate(140381100 114909771) rotate(-180.0)"/><path d="M -2125000.0 0.0 A 2125000.0 2125000.0 0 1 1 2125000.0 0.0 L 2125000.0 0.0 A 2125000.0 2125000.0 0 1 1 -2125000.0 0.0 Z" transform="translate(159844000 97495771) rotate(-0.0)"/><path d="M -2125000.0 0.0 A 2125000.0 2125000.0 0 1 1 2125000.0 0.0 L 2125000.0 0.0 A 2125000.0 2125000.0 0 1 1 -2125000.0 0.0 Z" transform="translate(169844000 97495771) rotate(-0.0)"/><path d="M -2125000.0 0.0 A 2125000.0 2125000.0 0 1 1 2125000.0 0.0 L 2125000.0 0.0 A 2125000.0 2125000.0 0 1 1 -2125000.0 0.0 Z" transform="translate(126844000 97495771) rotate(-0.0)"/><path d="M -2125000.0 0.0 A 2125000.0 2125000.0 0 1 1 2125000.0 0.0 L 2125000.0 0.0 A 2125000.0 2125000.0 0 1 1 -2125000.0 0.0 Z" transform="translate(136844000 97495771) rotate(-0.0)"/><path d="M -2125000.0 0.0 A 2125000.0 2125000.0 0 1 1 2125000.0 0.0 L 2125000.0 0.0 A 2125000.0 2125000.0 0 1 1 -2125000.0 0.0 Z" transform="translate(148344000 97495771) rotate(-0.0)"/><path d="M -1600000.0 0.0 A 1600000.0 1600000.0 0 1 1 1600000.0 0.0 L 1600000.0 0.0 A 1600000.0 1600000.0 0 1 1 -1600000.0 0.0 Z" transform="translate(146731100 114909771) rotate(-180.0)"/><path d="M -250000.0 0.0 A 250000.0 250000.0 0 1 1 250000.0 0.0 L 250000.0 0.0 A 250000.0 250000.0 0 1 1 -250000.0 0.0 Z" transform="translate(133015100 105765771) rotate(0.0)"/><path d="M -250000.0 0.0 A 250000.0 250000.0 0 1 1 250000.0 0.0 L 250000.0 0.0 A 250000.0 250000.0 0 1 1 -250000.0 0.0 Z" transform="translate(151184550 106155221) rotate(0.0)"/></g></g></g></svg>