<!DOCTYPE svg PUBLIC "-//W3C//DTD SVG 1.1//EN" "http://www.w3.org/Graphics/SVG/1.1/DTD/svg11.dtd">
<svg xmlns="http://www.w3.org/2000/svg" version="1.1" width="32.48mm" height="42.64mm" viewBox="-164741100.0 83683600.0 32480000.0 42640000.0">
            <title>Picture generated by PcbDraw </title>
            <desc>Picture generated by PcbDraw</desc>
        <defs><clipPath id="cut-off"><path d=" M 158661100.0 120243600.0 L 158661100.0 124053600.0 A 1270000 1270000 0 0 0 159931100.0 125323600.0 L 162471100.0 125323600.0 A 1270000 1270000 0 0 0 163741100.0 124053600.0 L 163741100.0 87223600.0 A 2540000 2540000 0 0 0 161201100.0 84683600.0 L 135801100.0 84683600.0 A 2540000 2540000 0 0 0 133261100.0 87223600.0 L 133261100.0 124053600.0 A 1270000 1270000 0 0 0 134531100.0 125323600.0 L 137071100.0 125323600.0 A 1270000 1270000 0 0 0 138341100.0 124053600.0 L 138341100.0 120243600.0 L 158661100.0 120243600.0 " style="fill-rule: evenodd;"/></clipPath><mask id="pads-mask"><g style="fill:#ffffff; fill-opacity:0.0;  stroke:#ffffff; stroke-width:0.000000; stroke-opacity:1;  stroke-linecap:round; stroke-linejoin:round;">
<g style="fill:#ffffff; fill-opacity:1.0;  stroke:#ffffff; stroke-width:1.000000; stroke-opacity:1;  stroke-linecap:round; stroke-linejoin:round;">
<circle cx="161201100.000000" cy="122783600.000000" r="1850800.000000"/> 
</g>
<g style="fill:#ffffff; fill-opacity:1.0;  stroke:#ffffff; stroke-width:1.000000; stroke-opacity:1;  stroke-linecap:round; stroke-linejoin:round;">
<circle cx="161201100.000000" cy="87223600.000000" r="1850800.000000"/> 
</g>
<g style="fill:#ffffff; fill-opacity:1.0;  stroke:#ffffff; stroke-width:1.000000; stroke-opacity:1;  stroke-linecap:round; stroke-linejoin:round;">
<circle cx="135801100.000000" cy="122783600.000000" r="1850800.000000"/> 
</g>
<g style="fill:#ffffff; fill-opacity:1.0;  stroke:#ffffff; stroke-width:1.000000; stroke-opacity:1;  stroke-linecap:round; stroke-linejoin:round;">
<circle cx="157391100.000000" cy="87223600.000000" r="1016000.000000"/> 
</g>
<g style="fill:#ffffff; fill-opacity:1.0;  stroke:#ffffff; stroke-width:1.000000; stroke-opacity:1;  stroke-linecap:round; stroke-linejoin:round;">
<circle cx="154851100.000000" cy="87223600.000000" r="1016000.000000"/> 
</g>
<g style="fill:#ffffff; fill-opacity:1.0;  stroke:#ffffff; stroke-width:1.000000; stroke-opacity:1;  stroke-linecap:round; stroke-linejoin:round;">
<circle cx="152311100.000000" cy="87223600.000000" r="1016000.000000"/> 
</g>
<g style="fill:#ffffff; fill-opacity:1.0;  stroke:#ffffff; stroke-width:1.000000; stroke-opacity:1;  stroke-linecap:round; stroke-linejoin:round;">
<circle cx="149771100.000000" cy="87223600.000000" r="1016000.000000"/> 
</g>
<g style="fill:#ffffff; fill-opacity:1.0;  stroke:#ffffff; stroke-width:1.000000; stroke-opacity:1;  stroke-linecap:round; stroke-linejoin:round;">
<circle cx="147231100.000000" cy="87223600.000000" r="1016000.000000"/> 
</g>
<g style="fill:#ffffff; fill-opacity:1.0;  stroke:#ffffff; stroke-width:1.000000; stroke-opacity:1;  stroke-linecap:round; stroke-linejoin:round;">
<circle cx="144691100.000000" cy="87223600.000000" r="1016000.000000"/> 
</g>
<g style="fill:#ffffff; fill-opacity:1.0;  stroke:#ffffff; stroke-width:1.000000; stroke-opacity:1;  stroke-linecap:round; stroke-linejoin:round;">
<circle cx="142151100.000000" cy="87223600.000000" r="1016000.000000"/> 
</g>
<g style="fill:#ffffff; fill-opacity:1.0;  stroke:#ffffff; stroke-width:1.000000; stroke-opacity:1;  stroke-linecap:round; stroke-linejoin:round;">
<circle cx="139611100.000000" cy="87223600.000000" r="1016000.000000"/> 
</g>
<g style="fill:#ffffff; fill-opacity:1.0;  stroke:#ffffff; stroke-width:1.000000; stroke-opacity:1;  stroke-linecap:round; stroke-linejoin:round;">
<circle cx="135801100.000000" cy="87223600.000000" r="1850800.000000"/> 
</g>
<g style="fill:#ffffff; fill-opacity:1.0;  stroke:#ffffff; stroke-width:1.000000; stroke-opacity:1;  stroke-linecap:round; stroke-linejoin:round;">
<circle cx="139851100.000000" cy="118503600.000000" r="500000.000000"/> 
</g>
<g style="fill:#ffffff; fill-opacity:1.0;  stroke:#ffffff; stroke-width:1.000000; stroke-opacity:1;  stroke-linecap:round; stroke-linejoin:round;">
<circle cx="157151100.000000" cy="118503600.000000" r="500000.000000"/> 
</g>
</g> 
</mask><mask id="pads-mask-silkscreen"><rect x="128594322" y="83395905" width="36673738" height="42054695" fill="white"/><g style="fill:#000000; fill-opacity:0.0;  stroke:#000000; stroke-width:0.000000; stroke-opacity:1;  stroke-linecap:round; stroke-linejoin:round;">
<g style="fill:#000000; fill-opacity:1.0;  stroke:#000000; stroke-width:1.000000; stroke-opacity:1;  stroke-linecap:round; stroke-linejoin:round;">
<circle cx="161201100.000000" cy="122783600.000000" r="1850800.000000"/> 
</g>
<g style="fill:#000000; fill-opacity:1.0;  stroke:#000000; stroke-width:1.000000; stroke-opacity:1;  stroke-linecap:round; stroke-linejoin:round;">
<circle cx="161201100.000000" cy="87223600.000000" r="1850800.000000"/> 
</g>
<g style="fill:#000000; fill-opacity:1.0;  stroke:#000000; stroke-width:1.000000; stroke-opacity:1;  stroke-linecap:round; stroke-linejoin:round;">
<circle cx="135801100.000000" cy="122783600.000000" r="1850800.000000"/> 
</g>
<g style="fill:#000000; fill-opacity:1.0;  stroke:#000000; stroke-width:1.000000; stroke-opacity:1;  stroke-linecap:round; stroke-linejoin:round;">
<circle cx="157391100.000000" cy="87223600.000000" r="1016000.000000"/> 
</g>
<g style="fill:#000000; fill-opacity:1.0;  stroke:#000000; stroke-width:1.000000; stroke-opacity:1;  stroke-linecap:round; stroke-linejoin:round;">
<circle cx="154851100.000000" cy="87223600.000000" r="1016000.000000"/> 
</g>
<g style="fill:#000000; fill-opacity:1.0;  stroke:#000000; stroke-width:1.000000; stroke-opacity:1;  stroke-linecap:round; stroke-linejoin:round;">
<circle cx="152311100.000000" cy="87223600.000000" r="1016000.000000"/> 
</g>
<g style="fill:#000000; fill-opacity:1.0;  stroke:#000000; stroke-width:1.000000; stroke-opacity:1;  stroke-linecap:round; stroke-linejoin:round;">
<circle cx="149771100.000000" cy="87223600.000000" r="1016000.000000"/> 
</g>
<g style="fill:#000000; fill-opacity:1.0;  stroke:#000000; stroke-width:1.000000; stroke-opacity:1;  stroke-linecap:round; stroke-linejoin:round;">
<circle cx="147231100.000000" cy="87223600.000000" r="1016000.000000"/> 
</g>
<g style="fill:#000000; fill-opacity:1.0;  stroke:#000000; stroke-width:1.000000; stroke-opacity:1;  stroke-linecap:round; stroke-linejoin:round;">
<circle cx="144691100.000000" cy="87223600.000000" r="1016000.000000"/> 
</g>
<g style="fill:#000000; fill-opacity:1.0;  stroke:#000000; stroke-width:1.000000; stroke-opacity:1;  stroke-linecap:round; stroke-linejoin:round;">
<circle cx="142151100.000000" cy="87223600.000000" r="1016000.000000"/> 
</g>
<g style="fill:#000000; fill-opacity:1.0;  stroke:#000000; stroke-width:1.000000; stroke-opacity:1;  stroke-linecap:round; stroke-linejoin:round;">
<circle cx="139611100.000000" cy="87223600.000000" r="1016000.000000"/> 
</g>
<g style="fill:#000000; fill-opacity:1.0;  stroke:#000000; stroke-width:1.000000; stroke-opacity:1;  stroke-linecap:round; stroke-linejoin:round;">
<circle cx="135801100.000000" cy="87223600.000000" r="1850800.000000"/> 
</g>
<g style="fill:#000000; fill-opacity:1.0;  stroke:#000000; stroke-width:1.000000; stroke-opacity:1;  stroke-linecap:round; stroke-linejoin:round;">
<circle cx="139851100.000000" cy="118503600.000000" r="500000.000000"/> 
</g>
<g style="fill:#000000; fill-opacity:1.0;  stroke:#000000; stroke-width:1.000000; stroke-opacity:1;  stroke-linecap:round; stroke-linejoin:round;">
<circle cx="157151100.000000" cy="118503600.000000" r="500000.000000"/> 
</g>
</g> 
</mask><mask id="hole-mask"><g><rect x="128594322" y="83395905" fill="white" width="36673738" height="42054695"/><polyline stroke-linecap="round" stroke="black" stroke-width="3000000" points="0.0 0 0.0 0" transform="translate(161201100 122783600) rotate(-0.0)"/><polyline stroke-linecap="round" stroke="black" stroke-width="3000000" points="0.0 0 0.0 0" transform="translate(161201100 87223600) rotate(-0.0)"/><polyline stroke-linecap="round" stroke="black" stroke-width="3000000" points="0.0 0 0.0 0" transform="translate(135801100 122783600) rotate(-0.0)"/><polyline stroke-linecap="round" stroke="black" stroke-width="1000000" points="0.0 0 0.0 0" transform="translate(157391100 87223600) rotate(-270.0)"/><polyline stroke-linecap="round" stroke="black" stroke-width="1000000" points="0.0 0 0.0 0" transform="translate(154851100 87223600) rotate(-270.0)"/><polyline stroke-linecap="round" stroke="black" stroke-width="1000000" points="0.0 0 0.0 0" transform="translate(152311100 87223600) rotate(-270.0)"/><polyline stroke-linecap="round" stroke="black" stroke-width="1000000" points="0.0 0 0.0 0" transform="translate(149771100 87223600) rotate(-270.0)"/><polyline stroke-linecap="round" stroke="black" stroke-width="1000000" points="0.0 0 0.0 0" transform="translate(147231100 87223600) rotate(-270.0)"/><polyline stroke-linecap="round" stroke="black" stroke-width="1000000" points="0.0 0 0.0 0" transform="translate(144691100 87223600) rotate(-270.0)"/><polyline stroke-linecap="round" stroke="black" stroke-width="1000000" points="0.0 0 0.0 0" transform="translate(142151100 87223600) rotate(-270.0)"/><polyline stroke-linecap="round" stroke="black" stroke-width="1000000" points="0.0 0 0.0 0" transform="translate(139611100 87223600) rotate(-270.0)"/><polyline stroke-linecap="round" stroke="black" stroke-width="3000000" points="0.0 0 0.0 0" transform="translate(135801100 87223600) rotate(-0.0)"/><polyline stroke-linecap="round" stroke="black" stroke-width="1000000" points="0.0 0 0.0 0" transform="translate(139851100 118503600) rotate(-180.0)"/><polyline stroke-linecap="round" stroke="black" stroke-width="1000000" points="0.0 0 0.0 0" transform="translate(157151100 118503600) rotate(-180.0)"/><polyline stroke-linecap="round" stroke="black" stroke-width="500000" points="0.0 0 0.0 0" transform="translate(141897100 102844600) rotate(0.0)"/><polyline stroke-linecap="round" stroke="black" stroke-width="500000" points="0.0 0 0.0 0" transform="translate(153708100 96113600) rotate(0.0)"/><polyline stroke-linecap="round" stroke="black" stroke-width="500000" points="0.0 0 0.0 0" transform="translate(139738100 115417600) rotate(0.0)"/><polyline stroke-linecap="round" stroke="black" stroke-width="500000" points="0.0 0 0.0 0" transform="translate(137833100 96367600) rotate(0.0)"/><polyline stroke-linecap="round" stroke="black" stroke-width="500000" points="0.0 0 0.0 0" transform="translate(134531100 104622600) rotate(0.0)"/><polyline stroke-linecap="round" stroke="black" stroke-width="500000" points="0.0 0 0.0 0" transform="translate(148374100 93954600) rotate(0.0)"/><polyline stroke-linecap="round" stroke="black" stroke-width="500000" points="0.0 0 0.0 0" transform="translate(155486100 108559600) rotate(0.0)"/><polyline stroke-linecap="round" stroke="black" stroke-width="500000" points="0.0 0 0.0 0" transform="translate(156502100 102971600) rotate(0.0)"/><polyline stroke-linecap="round" stroke="black" stroke-width="500000" points="0.0 0 0.0 0" transform="translate(157391100 90398600) rotate(0.0)"/><polyline stroke-linecap="round" stroke="black" stroke-width="500000" points="0.0 0 0.0 0" transform="translate(158534100 107924600) rotate(0.0)"/><polyline stroke-linecap="round" stroke="black" stroke-width="500000" points="0.0 0 0.0 0" transform="translate(148882100 105765600) rotate(0.0)"/><polyline stroke-linecap="round" stroke="black" stroke-width="500000" points="0.0 0 0.0 0" transform="translate(157391100 115544600) rotate(0.0)"/><polyline stroke-linecap="round" stroke="black" stroke-width="500000" points="0.0 0 0.0 0" transform="translate(145961100 95097600) rotate(0.0)"/><polyline stroke-linecap="round" stroke="black" stroke-width="500000" points="0.0 0 0.0 0" transform="translate(161201100 97383600) rotate(0.0)"/><polyline stroke-linecap="round" stroke="black" stroke-width="500000" points="0.0 0 0.0 0" transform="translate(152184100 118084600) rotate(0.0)"/><polyline stroke-linecap="round" stroke="black" stroke-width="500000" points="0.0 0 0.0 0" transform="translate(139865100 105511600) rotate(0.0)"/><polyline stroke-linecap="round" stroke="black" stroke-width="500000" points="0.0 0 0.0 0" transform="translate(160820100 103606600) rotate(0.0)"/><polyline stroke-linecap="round" stroke="black" stroke-width="500000" points="0.0 0 0.0 0" transform="translate(136690100 106527600) rotate(0.0)"/><polyline stroke-linecap="round" stroke="black" stroke-width="500000" points="0.0 0 0.0 0" transform="translate(152946100 112242600) rotate(0.0)"/><polyline stroke-linecap="round" stroke="black" stroke-width="500000" points="0.0 0 0.0 0" transform="translate(160566100 93192600) rotate(0.0)"/><polyline stroke-linecap="round" stroke="black" stroke-width="500000" points="0.0 0 0.0 0" transform="translate(154978100 93192600) rotate(0.0)"/><polyline stroke-linecap="round" stroke="black" stroke-width="500000" points="0.0 0 0.0 0" transform="translate(145961100 90779600) rotate(0.0)"/><polyline stroke-linecap="round" stroke="black" stroke-width="500000" points="0.0 0 0.0 0" transform="translate(136563100 104495600) rotate(0.0)"/><polyline stroke-linecap="round" stroke="black" stroke-width="500000" points="0.0 0 0.0 0" transform="translate(153073100 102209600) rotate(0.0)"/><polyline stroke-linecap="round" stroke="black" stroke-width="500000" points="0.0 0 0.0 0" transform="translate(159423100 95859600) rotate(0.0)"/><polyline stroke-linecap="round" stroke="black" stroke-width="500000" points="0.0 0 0.0 0" transform="translate(160439100 105511600) rotate(0.0)"/><polyline stroke-linecap="round" stroke="black" stroke-width="500000" points="0.0 0 0.0 0" transform="translate(147150050 110672650) rotate(0.0)"/><polyline stroke-linecap="round" stroke="black" stroke-width="500000" points="0.0 0 0.0 0" transform="translate(155290600 95191200) rotate(0.0)"/><polyline stroke-linecap="round" stroke="black" stroke-width="500000" points="0.0 0 0.0 0" transform="translate(145961100 110718600) rotate(0.0)"/><polyline stroke-linecap="round" stroke="black" stroke-width="500000" points="0.0 0 0.0 0" transform="translate(153983500 91668600) rotate(0.0)"/><polyline stroke-linecap="round" stroke="black" stroke-width="500000" points="0.0 0 0.0 0" transform="translate(153200100 117449600) rotate(0.0)"/><polyline stroke-linecap="round" stroke="black" stroke-width="500000" points="0.0 0 0.0 0" transform="translate(151041100 101193600) rotate(0.0)"/><polyline stroke-linecap="round" stroke="black" stroke-width="500000" points="0.0 0 0.0 0" transform="translate(146850100 96113600) rotate(0.0)"/><polyline stroke-linecap="round" stroke="black" stroke-width="500000" points="0.0 0 0.0 0" transform="translate(147866100 118868000) rotate(0.0)"/><polyline stroke-linecap="round" stroke="black" stroke-width="500000" points="0.0 0 0.0 0" transform="translate(147866100 117703600) rotate(0.0)"/><polyline stroke-linecap="round" stroke="black" stroke-width="500000" points="0.0 0 0.0 0" transform="translate(148501100 95605600) rotate(0.0)"/><polyline stroke-linecap="round" stroke="black" stroke-width="500000" points="0.0 0 0.0 0" transform="translate(144945100 104368600) rotate(0.0)"/><polyline stroke-linecap="round" stroke="black" stroke-width="500000" points="0.0 0 0.0 0" transform="translate(152196800 96227900) rotate(0.0)"/><polyline stroke-linecap="round" stroke="black" stroke-width="500000" points="0.0 0 0.0 0" transform="translate(149517100 117195600) rotate(0.0)"/></g></mask></defs><g transform="scale(-1,1)" id="boardContainer"><g id="substrate" clip-path="url(#cut-off)" mask="url(#hole-mask)"><g id="substrate-board" style="fill:#4ca06c; stroke:#4ca06c;"><path d=" M 158661100.0 120243600.0 L 158661100.0 124053600.0 A 1270000 1270000 0 0 0 159931100.0 125323600.0 L 162471100.0 125323600.0 A 1270000 1270000 0 0 0 163741100.0 124053600.0 L 163741100.0 87223600.0 A 2540000 2540000 0 0 0 161201100.0 84683600.0 L 135801100.0 84683600.0 A 2540000 2540000 0 0 0 133261100.0 87223600.0 L 133261100.0 124053600.0 A 1270000 1270000 0 0 0 134531100.0 125323600.0 L 137071100.0 125323600.0 A 1270000 1270000 0 0 0 138341100.0 124053600.0 L 138341100.0 120243600.0 L 158661100.0 120243600.0 " style="fill-rule: evenodd;"/><g style="fill-opacity: 0.0;stroke-width: 50000.000000;stroke-opacity: 1;stroke-linecap: round;stroke-linejoin: round">
<path d="M138341100 120243600 L158661100 120243600 "/>
<path d="M134531100 125323600 L137071100 125323600 "/>
<path d="M162471100.000000 125323600.000000 A1270000.000000 1270000.000000 0.0 0 0 163741100.000000 124053600.000000"/>
<path d="M163741100.000000 87223600.000000 A2540000.000000 2540000.000000 0.0 0 0 161201100.000000 84683600.000000"/>
<path d="M158661100 120243600 L158661100 124053600 "/>
<path d="M138341100 124053600 L138341100 120243600 "/>
<path d="M159931100 125323600 L162471100 125323600 "/>
<path d="M163741100 124053600 L163741100 87223600 "/>
<path d="M133261100 87223600 L133261100 124053600 "/>
<path d="M133261100.000000 124053600.000000 A1270000.000000 1270000.000000 0.0 0 0 134531100.000000 125323600.000000"/>
<path d="M161201100 84683600 L135801100 84683600 "/>
<path d="M158661100.000000 124053600.000000 A1270000.000000 1270000.000000 0.0 0 0 159931100.000000 125323600.000000"/>
<path d="M137071100.000000 125323600.000000 A1270000.000000 1270000.000000 0.0 0 0 138341100.000000 124053600.000000"/>
<path d="M135801100.000000 84683600.000000 A2540000.000000 2540000.000000 0.0 0 0 133261100.000000 87223600.000000"/>
</g> 
</g><g id="substrate-clad" style="fill:#9c6b28; stroke:#9c6b28;"><g style="fill-opacity: 0.0;stroke-width: 0.000000;stroke-opacity: 1;stroke-linecap: round;stroke-linejoin: round">
<g style="fill-opacity: 1.0;stroke-width: 1.000000;stroke-opacity: 1;stroke-linecap: round;stroke-linejoin: round">
<circle cx="161201100.000000" cy="122783600.000000" r="1850800.000000"/> 
</g>
<g style="fill-opacity: 1.0;stroke-width: 1.000000;stroke-opacity: 1;stroke-linecap: round;stroke-linejoin: round">
<circle cx="161201100.000000" cy="87223600.000000" r="1850800.000000"/> 
</g>
<g style="fill-opacity: 1.0;stroke-width: 1.000000;stroke-opacity: 1;stroke-linecap: round;stroke-linejoin: round">
<circle cx="135801100.000000" cy="122783600.000000" r="1850800.000000"/> 
</g>
<g style="fill-opacity: 1.0;stroke-width: 1.000000;stroke-opacity: 1;stroke-linecap: round;stroke-linejoin: round">
<circle cx="157391100.000000" cy="87223600.000000" r="1016000.000000"/> 
</g>
<g style="fill-opacity: 1.0;stroke-width: 1.000000;stroke-opacity: 1;stroke-linecap: round;stroke-linejoin: round">
<circle cx="154851100.000000" cy="87223600.000000" r="1016000.000000"/> 
</g>
<g style="fill-opacity: 1.0;stroke-width: 1.000000;stroke-opacity: 1;stroke-linecap: round;stroke-linejoin: round">
<circle cx="152311100.000000" cy="87223600.000000" r="1016000.000000"/> 
</g>
<g style="fill-opacity: 1.0;stroke-width: 1.000000;stroke-opacity: 1;stroke-linecap: round;stroke-linejoin: round">
<circle cx="149771100.000000" cy="87223600.000000" r="1016000.000000"/> 
</g>
<g style="fill-opacity: 1.0;stroke-width: 1.000000;stroke-opacity: 1;stroke-linecap: round;stroke-linejoin: round">
<circle cx="147231100.000000" cy="87223600.000000" r="1016000.000000"/> 
</g>
<g style="fill-opacity: 1.0;stroke-width: 1.000000;stroke-opacity: 1;stroke-linecap: round;stroke-linejoin: round">
<circle cx="144691100.000000" cy="87223600.000000" r="1016000.000000"/> 
</g>
<g style="fill-opacity: 1.0;stroke-width: 1.000000;stroke-opacity: 1;stroke-linecap: round;stroke-linejoin: round">
<circle cx="142151100.000000" cy="87223600.000000" r="1016000.000000"/> 
</g>
<g style="fill-opacity: 1.0;stroke-width: 1.000000;stroke-opacity: 1;stroke-linecap: round;stroke-linejoin: round">
<circle cx="139611100.000000" cy="87223600.000000" r="1016000.000000"/> 
</g>
<g style="fill-opacity: 1.0;stroke-width: 1.000000;stroke-opacity: 1;stroke-linecap: round;stroke-linejoin: round">
<circle cx="135801100.000000" cy="87223600.000000" r="1850800.000000"/> 
</g>
<g style="fill-opacity: 1.0;stroke-width: 1.000000;stroke-opacity: 1;stroke-linecap: round;stroke-linejoin: round">
<circle cx="139851100.000000" cy="118503600.000000" r="500000.000000"/> 
</g>
<g style="fill-opacity: 1.0;stroke-width: 1.000000;stroke-opacity: 1;stroke-linecap: round;stroke-linejoin: round">
<circle cx="157151100.000000" cy="118503600.000000" r="500000.000000"/> 
</g>
</g> 
</g><g id="substrate-copper" style="fill:#417e5a; stroke:#417e5a;"><g style="fill-opacity: 0.0;stroke-width: 0.000000;stroke-opacity: 1;stroke-linecap: round;stroke-linejoin: round">
<g style="fill-opacity: 1.0;stroke-width: 1.000000;stroke-opacity: 1;stroke-linecap: round;stroke-linejoin: round">
<circle cx="161201100.000000" cy="122783600.000000" r="1800000.000000"/> 
</g>
<g style="fill-opacity: 1.0;stroke-width: 1.000000;stroke-opacity: 1;stroke-linecap: round;stroke-linejoin: round">
<circle cx="161201100.000000" cy="87223600.000000" r="1800000.000000"/> 
</g>
<g style="fill-opacity: 1.0;stroke-width: 1.000000;stroke-opacity: 1;stroke-linecap: round;stroke-linejoin: round">
<circle cx="135801100.000000" cy="122783600.000000" r="1800000.000000"/> 
</g>
<g style="fill-opacity: 1.0;stroke-width: 1.000000;stroke-opacity: 1;stroke-linecap: round;stroke-linejoin: round">
<circle cx="157391100.000000" cy="87223600.000000" r="965200.000000"/> 
</g>
<g style="fill-opacity: 1.0;stroke-width: 1.000000;stroke-opacity: 1;stroke-linecap: round;stroke-linejoin: round">
<circle cx="154851100.000000" cy="87223600.000000" r="965200.000000"/> 
</g>
<g style="fill-opacity: 1.0;stroke-width: 1.000000;stroke-opacity: 1;stroke-linecap: round;stroke-linejoin: round">
<circle cx="152311100.000000" cy="87223600.000000" r="965200.000000"/> 
</g>
<g style="fill-opacity: 1.0;stroke-width: 1.000000;stroke-opacity: 1;stroke-linecap: round;stroke-linejoin: round">
<circle cx="149771100.000000" cy="87223600.000000" r="965200.000000"/> 
</g>
<g style="fill-opacity: 1.0;stroke-width: 1.000000;stroke-opacity: 1;stroke-linecap: round;stroke-linejoin: round">
<circle cx="147231100.000000" cy="87223600.000000" r="965200.000000"/> 
</g>
<g style="fill-opacity: 1.0;stroke-width: 1.000000;stroke-opacity: 1;stroke-linecap: round;stroke-linejoin: round">
<circle cx="144691100.000000" cy="87223600.000000" r="965200.000000"/> 
</g>
<g style="fill-opacity: 1.0;stroke-width: 1.000000;stroke-opacity: 1;stroke-linecap: round;stroke-linejoin: round">
<circle cx="142151100.000000" cy="87223600.000000" r="965200.000000"/> 
</g>
<g style="fill-opacity: 1.0;stroke-width: 1.000000;stroke-opacity: 1;stroke-linecap: round;stroke-linejoin: round">
<circle cx="139611100.000000" cy="87223600.000000" r="965200.000000"/> 
</g>
<g style="fill-opacity: 1.0;stroke-width: 1.000000;stroke-opacity: 1;stroke-linecap: round;stroke-linejoin: round">
<circle cx="135801100.000000" cy="87223600.000000" r="1800000.000000"/> 
</g>
<g style="fill-opacity: 1.0;stroke-width: 1.000000;stroke-opacity: 1;stroke-linecap: round;stroke-linejoin: round">
<circle cx="141897100.000000" cy="102844600.000000" r="453200.000000"/> 
</g>
<g style="fill-opacity: 1.0;stroke-width: 1.000000;stroke-opacity: 1;stroke-linecap: round;stroke-linejoin: round">
<circle cx="153708100.000000" cy="96113600.000000" r="453200.000000"/> 
</g>
<g style="fill-opacity: 1.0;stroke-width: 1.000000;stroke-opacity: 1;stroke-linecap: round;stroke-linejoin: round">
<circle cx="139738100.000000" cy="115417600.000000" r="453200.000000"/> 
</g>
<g style="fill-opacity: 1.0;stroke-width: 1.000000;stroke-opacity: 1;stroke-linecap: round;stroke-linejoin: round">
<circle cx="137833100.000000" cy="96367600.000000" r="453200.000000"/> 
</g>
<g style="fill-opacity: 1.0;stroke-width: 1.000000;stroke-opacity: 1;stroke-linecap: round;stroke-linejoin: round">
<circle cx="134531100.000000" cy="104622600.000000" r="453200.000000"/> 
</g>
<g style="fill-opacity: 1.0;stroke-width: 1.000000;stroke-opacity: 1;stroke-linecap: round;stroke-linejoin: round">
<circle cx="148374100.000000" cy="93954600.000000" r="453200.000000"/> 
</g>
<g style="fill-opacity: 1.0;stroke-width: 1.000000;stroke-opacity: 1;stroke-linecap: round;stroke-linejoin: round">
<circle cx="155486100.000000" cy="108559600.000000" r="453200.000000"/> 
</g>
<g style="fill-opacity: 1.0;stroke-width: 1.000000;stroke-opacity: 1;stroke-linecap: round;stroke-linejoin: round">
<circle cx="156502100.000000" cy="102971600.000000" r="453200.000000"/> 
</g>
<g style="fill-opacity: 1.0;stroke-width: 1.000000;stroke-opacity: 1;stroke-linecap: round;stroke-linejoin: round">
<circle cx="157391100.000000" cy="90398600.000000" r="453200.000000"/> 
</g>
<g style="fill-opacity: 1.0;stroke-width: 1.000000;stroke-opacity: 1;stroke-linecap: round;stroke-linejoin: round">
<circle cx="158534100.000000" cy="107924600.000000" r="453200.000000"/> 
</g>
<g style="fill-opacity: 1.0;stroke-width: 1.000000;stroke-opacity: 1;stroke-linecap: round;stroke-linejoin: round">
<circle cx="148882100.000000" cy="105765600.000000" r="453200.000000"/> 
</g>
<g style="fill-opacity: 1.0;stroke-width: 1.000000;stroke-opacity: 1;stroke-linecap: round;stroke-linejoin: round">
<circle cx="157391100.000000" cy="115544600.000000" r="453200.000000"/> 
</g>
<g style="fill-opacity: 1.0;stroke-width: 1.000000;stroke-opacity: 1;stroke-linecap: round;stroke-linejoin: round">
<circle cx="145961100.000000" cy="95097600.000000" r="453200.000000"/> 
</g>
<g style="fill-opacity: 1.0;stroke-width: 1.000000;stroke-opacity: 1;stroke-linecap: round;stroke-linejoin: round">
<circle cx="161201100.000000" cy="97383600.000000" r="453200.000000"/> 
</g>
<g style="fill-opacity: 1.0;stroke-width: 1.000000;stroke-opacity: 1;stroke-linecap: round;stroke-linejoin: round">
<circle cx="152184100.000000" cy="118084600.000000" r="453200.000000"/> 
</g>
<g style="fill-opacity: 1.0;stroke-width: 1.000000;stroke-opacity: 1;stroke-linecap: round;stroke-linejoin: round">
<circle cx="139865100.000000" cy="105511600.000000" r="453200.000000"/> 
</g>
<g style="fill-opacity: 1.0;stroke-width: 1.000000;stroke-opacity: 1;stroke-linecap: round;stroke-linejoin: round">
<circle cx="160820100.000000" cy="103606600.000000" r="453200.000000"/> 
</g>
<g style="fill-opacity: 1.0;stroke-width: 1.000000;stroke-opacity: 1;stroke-linecap: round;stroke-linejoin: round">
<circle cx="136690100.000000" cy="106527600.000000" r="453200.000000"/> 
</g>
<g style="fill-opacity: 1.0;stroke-width: 1.000000;stroke-opacity: 1;stroke-linecap: round;stroke-linejoin: round">
<circle cx="152946100.000000" cy="112242600.000000" r="453200.000000"/> 
</g>
<g style="fill-opacity: 1.0;stroke-width: 1.000000;stroke-opacity: 1;stroke-linecap: round;stroke-linejoin: round">
<circle cx="160566100.000000" cy="93192600.000000" r="453200.000000"/> 
</g>
<g style="fill-opacity: 1.0;stroke-width: 1.000000;stroke-opacity: 1;stroke-linecap: round;stroke-linejoin: round">
<circle cx="154978100.000000" cy="93192600.000000" r="453200.000000"/> 
</g>
<g style="fill-opacity: 1.0;stroke-width: 1.000000;stroke-opacity: 1;stroke-linecap: round;stroke-linejoin: round">
<circle cx="145961100.000000" cy="90779600.000000" r="453200.000000"/> 
</g>
<g style="fill-opacity: 1.0;stroke-width: 1.000000;stroke-opacity: 1;stroke-linecap: round;stroke-linejoin: round">
<circle cx="136563100.000000" cy="104495600.000000" r="453200.000000"/> 
</g>
<g style="fill-opacity: 1.0;stroke-width: 1.000000;stroke-opacity: 1;stroke-linecap: round;stroke-linejoin: round">
<circle cx="153073100.000000" cy="102209600.000000" r="453200.000000"/> 
</g>
<g style="fill-opacity: 1.0;stroke-width: 1.000000;stroke-opacity: 1;stroke-linecap: round;stroke-linejoin: round">
<circle cx="159423100.000000" cy="95859600.000000" r="453200.000000"/> 
</g>
<g style="fill-opacity: 1.0;stroke-width: 1.000000;stroke-opacity: 1;stroke-linecap: round;stroke-linejoin: round">
<circle cx="160439100.000000" cy="105511600.000000" r="453200.000000"/> 
</g>
<g style="fill-opacity: 1.0;stroke-width: 1.000000;stroke-opacity: 1;stroke-linecap: round;stroke-linejoin: round">
<circle cx="147150050.000000" cy="110672650.000000" r="453200.000000"/> 
</g>
<g style="fill-opacity: 1.0;stroke-width: 1.000000;stroke-opacity: 1;stroke-linecap: round;stroke-linejoin: round">
<circle cx="155290600.000000" cy="95191200.000000" r="453200.000000"/> 
</g>
<g style="fill-opacity: 1.0;stroke-width: 1.000000;stroke-opacity: 1;stroke-linecap: round;stroke-linejoin: round">
<circle cx="145961100.000000" cy="110718600.000000" r="453200.000000"/> 
</g>
<g style="fill-opacity: 1.0;stroke-width: 1.000000;stroke-opacity: 1;stroke-linecap: round;stroke-linejoin: round">
<circle cx="153983500.000000" cy="91668600.000000" r="453200.000000"/> 
</g>
<g style="fill-opacity: 1.0;stroke-width: 1.000000;stroke-opacity: 1;stroke-linecap: round;stroke-linejoin: round">
<circle cx="153200100.000000" cy="117449600.000000" r="453200.000000"/> 
</g>
<g style="fill-opacity: 1.0;stroke-width: 1.000000;stroke-opacity: 1;stroke-linecap: round;stroke-linejoin: round">
<circle cx="151041100.000000" cy="101193600.000000" r="453200.000000"/> 
</g>
<g style="fill-opacity: 1.0;stroke-width: 1.000000;stroke-opacity: 1;stroke-linecap: round;stroke-linejoin: round">
<circle cx="146850100.000000" cy="96113600.000000" r="453200.000000"/> 
</g>
<g style="fill-opacity: 1.0;stroke-width: 1.000000;stroke-opacity: 1;stroke-linecap: round;stroke-linejoin: round">
<circle cx="147866100.000000" cy="118868000.000000" r="453200.000000"/> 
</g>
<g style="fill-opacity: 1.0;stroke-width: 1.000000;stroke-opacity: 1;stroke-linecap: round;stroke-linejoin: round">
<circle cx="147866100.000000" cy="117703600.000000" r="453200.000000"/> 
</g>
<g style="fill-opacity: 1.0;stroke-width: 1.000000;stroke-opacity: 1;stroke-linecap: round;stroke-linejoin: round">
<circle cx="148501100.000000" cy="95605600.000000" r="453200.000000"/> 
</g>
<g style="fill-opacity: 1.0;stroke-width: 1.000000;stroke-opacity: 1;stroke-linecap: round;stroke-linejoin: round">
<circle cx="144945100.000000" cy="104368600.000000" r="453200.000000"/> 
</g>
<g style="fill-opacity: 1.0;stroke-width: 1.000000;stroke-opacity: 1;stroke-linecap: round;stroke-linejoin: round">
<circle cx="152196800.000000" cy="96227900.000000" r="453200.000000"/> 
</g>
<g style="fill-opacity: 1.0;stroke-width: 1.000000;stroke-opacity: 1;stroke-linecap: round;stroke-linejoin: round">
<circle cx="149517100.000000" cy="117195600.000000" r="453200.000000"/> 
</g>
<g style="fill-opacity: 0.0;stroke-width: 254000.000000;stroke-opacity: 1;stroke-linecap: round;stroke-linejoin: round">
<path d="M160820100 100558600 L160820100 103606600 "/>
<path d="M157391100 87223600 L157645100 87477600 "/>
<path d="M139865100 105511600 L139865100 93954600 "/>
<path d="M162471100 98907600 L160820100 100558600 "/>
<path d="M139865100 93954600 L144564100 89255600 "/>
<path d="M157645100 87477600 L162471100 92303600 "/>
<path d="M155867100 89255600 L157645100 87477600 "/>
<path d="M162471100 92303600 L162471100 98907600 "/>
<path d="M144564100 89255600 L155867100 89255600 "/>
<path d="M139230100 93943019 L144374718 88798400 "/>
<path d="M144374718 88798400 L153276300 88798400 "/>
<path d="M153276300 88798400 L154851100 87223600 "/>
<path d="M136690100 106527600 L139230100 103987600 "/>
<path d="M139230100 103987600 L139230100 93943019 "/>
<path d="M154978100 93192600 L155613100 93192600 "/>
<path d="M155613100 93192600 L157264100 93192600 "/>
<path d="M146342100 90398600 L154724100 90398600 "/>
<path d="M155613100 91287600 L155613100 93192600 "/>
<path d="M152184100 111480600 L152184100 101955600 "/>
<path d="M152946100 112242600 L152184100 111480600 "/>
<path d="M157264100 93192600 L157264100 96875600 "/>
<path d="M154724100 90398600 L155613100 91287600 "/>
<path d="M157264100 96875600 L152184100 101955600 "/>
<path d="M157264100 93192600 L160566100 93192600 "/>
<path d="M145961100 90779600 L146342100 90398600 "/>
<path d="M159423100 95859600 L159423100 104495600 "/>
</g>
<g style="fill-opacity: 0.0;stroke-width: 406400.000000;stroke-opacity: 1;stroke-linecap: round;stroke-linejoin: round">
<path d="M159423100 104495600 L160439100 105511600 "/>
<path d="M153073100 104495600 L159423100 104495600 "/>
<path d="M153073100 102209600 L153073100 104495600 "/>
<path d="M142151100 87223600 L142151100 87985600 "/>
<path d="M142151100 87985600 L136563100 93573600 "/>
<path d="M136563100 104495600 L136563100 93573600 "/>
</g>
<g style="fill-opacity: 0.0;stroke-width: 254000.000000;stroke-opacity: 1;stroke-linecap: round;stroke-linejoin: round">
<path d="M146596100 100685600 L152725500 94556200 "/>
<path d="M154655600 95191200 L154020600 94556200 "/>
<path d="M154020600 94556200 L152725500 94556200 "/>
<path d="M154655600 95191200 L155290600 95191200 "/>
<path d="M147150050 110672650 L147150050 110291650 "/>
<path d="M147150050 110291650 L146596100 109737700 "/>
<path d="M146596100 100685600 L146596100 109737700 "/>
<path d="M145961100 99691000 L145961100 110718600 "/>
<path d="M145961100 99691000 L153983500 91668600 "/>
<path d="M151168100 101320600 L151041100 101193600 "/>
<path d="M153200100 117449600 L153200100 114782600 "/>
<path d="M153200100 114782600 L151168100 112750600 "/>
<path d="M151168100 101320600 L151168100 112750600 "/>
<path d="M146850100 96113600 L146850100 96250419 "/>
<path d="M147866100 118846600 L144034700 115015200 "/>
<path d="M146850100 96250419 L144034700 99065819 "/>
<path d="M147866100 118868000 L147866100 118846600 "/>
<path d="M144034700 99065819 L144034700 115015200 "/>
<path d="M148501100 95859600 L148501100 95605600 "/>
<path d="M144945100 104368600 L144945100 99415600 "/>
<path d="M144945100 99415600 L148501100 95859600 "/>
<path d="M147866100 117703600 L144945100 114782600 "/>
<path d="M144945100 104368600 L144945100 114782600 "/>
<path d="M149771100 100050600 L149771100 116941600 "/>
<path d="M149517100 117195600 L149771100 116941600 "/>
<path d="M152196800 97624900 L152196800 96227900 "/>
<path d="M149771100 100050600 L152196800 97624900 "/>
</g>
</g> 
</g><g id="substrate-pads" style="fill:#b5ae30; stroke:#b5ae30;" mask="url(#pads-mask)"><g style="fill-opacity: 0.0;stroke-width: 0.000000;stroke-opacity: 1;stroke-linecap: round;stroke-linejoin: round">
<g style="fill-opacity: 1.0;stroke-width: 1.000000;stroke-opacity: 1;stroke-linecap: round;stroke-linejoin: round">
<circle cx="161201100.000000" cy="122783600.000000" r="1800000.000000"/> 
</g>
<g style="fill-opacity: 1.0;stroke-width: 1.000000;stroke-opacity: 1;stroke-linecap: round;stroke-linejoin: round">
<circle cx="161201100.000000" cy="87223600.000000" r="1800000.000000"/> 
</g>
<g style="fill-opacity: 1.0;stroke-width: 1.000000;stroke-opacity: 1;stroke-linecap: round;stroke-linejoin: round">
<circle cx="135801100.000000" cy="122783600.000000" r="1800000.000000"/> 
</g>
<g style="fill-opacity: 1.0;stroke-width: 1.000000;stroke-opacity: 1;stroke-linecap: round;stroke-linejoin: round">
<circle cx="157391100.000000" cy="87223600.000000" r="965200.000000"/> 
</g>
<g style="fill-opacity: 1.0;stroke-width: 1.000000;stroke-opacity: 1;stroke-linecap: round;stroke-linejoin: round">
<circle cx="154851100.000000" cy="87223600.000000" r="965200.000000"/> 
</g>
<g style="fill-opacity: 1.0;stroke-width: 1.000000;stroke-opacity: 1;stroke-linecap: round;stroke-linejoin: round">
<circle cx="152311100.000000" cy="87223600.000000" r="965200.000000"/> 
</g>
<g style="fill-opacity: 1.0;stroke-width: 1.000000;stroke-opacity: 1;stroke-linecap: round;stroke-linejoin: round">
<circle cx="149771100.000000" cy="87223600.000000" r="965200.000000"/> 
</g>
<g style="fill-opacity: 1.0;stroke-width: 1.000000;stroke-opacity: 1;stroke-linecap: round;stroke-linejoin: round">
<circle cx="147231100.000000" cy="87223600.000000" r="965200.000000"/> 
</g>
<g style="fill-opacity: 1.0;stroke-width: 1.000000;stroke-opacity: 1;stroke-linecap: round;stroke-linejoin: round">
<circle cx="144691100.000000" cy="87223600.000000" r="965200.000000"/> 
</g>
<g style="fill-opacity: 1.0;stroke-width: 1.000000;stroke-opacity: 1;stroke-linecap: round;stroke-linejoin: round">
<circle cx="142151100.000000" cy="87223600.000000" r="965200.000000"/> 
</g>
<g style="fill-opacity: 1.0;stroke-width: 1.000000;stroke-opacity: 1;stroke-linecap: round;stroke-linejoin: round">
<circle cx="139611100.000000" cy="87223600.000000" r="965200.000000"/> 
</g>
<g style="fill-opacity: 1.0;stroke-width: 1.000000;stroke-opacity: 1;stroke-linecap: round;stroke-linejoin: round">
<circle cx="135801100.000000" cy="87223600.000000" r="1800000.000000"/> 
</g>
<g style="fill-opacity: 1.0;stroke-width: 1.000000;stroke-opacity: 1;stroke-linecap: round;stroke-linejoin: round">
<circle cx="141897100.000000" cy="102844600.000000" r="453200.000000"/> 
</g>
<g style="fill-opacity: 1.0;stroke-width: 1.000000;stroke-opacity: 1;stroke-linecap: round;stroke-linejoin: round">
<circle cx="153708100.000000" cy="96113600.000000" r="453200.000000"/> 
</g>
<g style="fill-opacity: 1.0;stroke-width: 1.000000;stroke-opacity: 1;stroke-linecap: round;stroke-linejoin: round">
<circle cx="139738100.000000" cy="115417600.000000" r="453200.000000"/> 
</g>
<g style="fill-opacity: 1.0;stroke-width: 1.000000;stroke-opacity: 1;stroke-linecap: round;stroke-linejoin: round">
<circle cx="137833100.000000" cy="96367600.000000" r="453200.000000"/> 
</g>
<g style="fill-opacity: 1.0;stroke-width: 1.000000;stroke-opacity: 1;stroke-linecap: round;stroke-linejoin: round">
<circle cx="134531100.000000" cy="104622600.000000" r="453200.000000"/> 
</g>
<g style="fill-opacity: 1.0;stroke-width: 1.000000;stroke-opacity: 1;stroke-linecap: round;stroke-linejoin: round">
<circle cx="148374100.000000" cy="93954600.000000" r="453200.000000"/> 
</g>
<g style="fill-opacity: 1.0;stroke-width: 1.000000;stroke-opacity: 1;stroke-linecap: round;stroke-linejoin: round">
<circle cx="155486100.000000" cy="108559600.000000" r="453200.000000"/> 
</g>
<g style="fill-opacity: 1.0;stroke-width: 1.000000;stroke-opacity: 1;stroke-linecap: round;stroke-linejoin: round">
<circle cx="156502100.000000" cy="102971600.000000" r="453200.000000"/> 
</g>
<g style="fill-opacity: 1.0;stroke-width: 1.000000;stroke-opacity: 1;stroke-linecap: round;stroke-linejoin: round">
<circle cx="157391100.000000" cy="90398600.000000" r="453200.000000"/> 
</g>
<g style="fill-opacity: 1.0;stroke-width: 1.000000;stroke-opacity: 1;stroke-linecap: round;stroke-linejoin: round">
<circle cx="158534100.000000" cy="107924600.000000" r="453200.000000"/> 
</g>
<g style="fill-opacity: 1.0;stroke-width: 1.000000;stroke-opacity: 1;stroke-linecap: round;stroke-linejoin: round">
<circle cx="148882100.000000" cy="105765600.000000" r="453200.000000"/> 
</g>
<g style="fill-opacity: 1.0;stroke-width: 1.000000;stroke-opacity: 1;stroke-linecap: round;stroke-linejoin: round">
<circle cx="157391100.000000" cy="115544600.000000" r="453200.000000"/> 
</g>
<g style="fill-opacity: 1.0;stroke-width: 1.000000;stroke-opacity: 1;stroke-linecap: round;stroke-linejoin: round">
<circle cx="145961100.000000" cy="95097600.000000" r="453200.000000"/> 
</g>
<g style="fill-opacity: 1.0;stroke-width: 1.000000;stroke-opacity: 1;stroke-linecap: round;stroke-linejoin: round">
<circle cx="161201100.000000" cy="97383600.000000" r="453200.000000"/> 
</g>
<g style="fill-opacity: 1.0;stroke-width: 1.000000;stroke-opacity: 1;stroke-linecap: round;stroke-linejoin: round">
<circle cx="152184100.000000" cy="118084600.000000" r="453200.000000"/> 
</g>
<g style="fill-opacity: 1.0;stroke-width: 1.000000;stroke-opacity: 1;stroke-linecap: round;stroke-linejoin: round">
<circle cx="139865100.000000" cy="105511600.000000" r="453200.000000"/> 
</g>
<g style="fill-opacity: 1.0;stroke-width: 1.000000;stroke-opacity: 1;stroke-linecap: round;stroke-linejoin: round">
<circle cx="160820100.000000" cy="103606600.000000" r="453200.000000"/> 
</g>
<g style="fill-opacity: 1.0;stroke-width: 1.000000;stroke-opacity: 1;stroke-linecap: round;stroke-linejoin: round">
<circle cx="136690100.000000" cy="106527600.000000" r="453200.000000"/> 
</g>
<g style="fill-opacity: 1.0;stroke-width: 1.000000;stroke-opacity: 1;stroke-linecap: round;stroke-linejoin: round">
<circle cx="152946100.000000" cy="112242600.000000" r="453200.000000"/> 
</g>
<g style="fill-opacity: 1.0;stroke-width: 1.000000;stroke-opacity: 1;stroke-linecap: round;stroke-linejoin: round">
<circle cx="160566100.000000" cy="93192600.000000" r="453200.000000"/> 
</g>
<g style="fill-opacity: 1.0;stroke-width: 1.000000;stroke-opacity: 1;stroke-linecap: round;stroke-linejoin: round">
<circle cx="154978100.000000" cy="93192600.000000" r="453200.000000"/> 
</g>
<g style="fill-opacity: 1.0;stroke-width: 1.000000;stroke-opacity: 1;stroke-linecap: round;stroke-linejoin: round">
<circle cx="145961100.000000" cy="90779600.000000" r="453200.000000"/> 
</g>
<g style="fill-opacity: 1.0;stroke-width: 1.000000;stroke-opacity: 1;stroke-linecap: round;stroke-linejoin: round">
<circle cx="136563100.000000" cy="104495600.000000" r="453200.000000"/> 
</g>
<g style="fill-opacity: 1.0;stroke-width: 1.000000;stroke-opacity: 1;stroke-linecap: round;stroke-linejoin: round">
<circle cx="153073100.000000" cy="102209600.000000" r="453200.000000"/> 
</g>
<g style="fill-opacity: 1.0;stroke-width: 1.000000;stroke-opacity: 1;stroke-linecap: round;stroke-linejoin: round">
<circle cx="159423100.000000" cy="95859600.000000" r="453200.000000"/> 
</g>
<g style="fill-opacity: 1.0;stroke-width: 1.000000;stroke-opacity: 1;stroke-linecap: round;stroke-linejoin: round">
<circle cx="160439100.000000" cy="105511600.000000" r="453200.000000"/> 
</g>
<g style="fill-opacity: 1.0;stroke-width: 1.000000;stroke-opacity: 1;stroke-linecap: round;stroke-linejoin: round">
<circle cx="147150050.000000" cy="110672650.000000" r="453200.000000"/> 
</g>
<g style="fill-opacity: 1.0;stroke-width: 1.000000;stroke-opacity: 1;stroke-linecap: round;stroke-linejoin: round">
<circle cx="155290600.000000" cy="95191200.000000" r="453200.000000"/> 
</g>
<g style="fill-opacity: 1.0;stroke-width: 1.000000;stroke-opacity: 1;stroke-linecap: round;stroke-linejoin: round">
<circle cx="145961100.000000" cy="110718600.000000" r="453200.000000"/> 
</g>
<g style="fill-opacity: 1.0;stroke-width: 1.000000;stroke-opacity: 1;stroke-linecap: round;stroke-linejoin: round">
<circle cx="153983500.000000" cy="91668600.000000" r="453200.000000"/> 
</g>
<g style="fill-opacity: 1.0;stroke-width: 1.000000;stroke-opacity: 1;stroke-linecap: round;stroke-linejoin: round">
<circle cx="153200100.000000" cy="117449600.000000" r="453200.000000"/> 
</g>
<g style="fill-opacity: 1.0;stroke-width: 1.000000;stroke-opacity: 1;stroke-linecap: round;stroke-linejoin: round">
<circle cx="151041100.000000" cy="101193600.000000" r="453200.000000"/> 
</g>
<g style="fill-opacity: 1.0;stroke-width: 1.000000;stroke-opacity: 1;stroke-linecap: round;stroke-linejoin: round">
<circle cx="146850100.000000" cy="96113600.000000" r="453200.000000"/> 
</g>
<g style="fill-opacity: 1.0;stroke-width: 1.000000;stroke-opacity: 1;stroke-linecap: round;stroke-linejoin: round">
<circle cx="147866100.000000" cy="118868000.000000" r="453200.000000"/> 
</g>
<g style="fill-opacity: 1.0;stroke-width: 1.000000;stroke-opacity: 1;stroke-linecap: round;stroke-linejoin: round">
<circle cx="147866100.000000" cy="117703600.000000" r="453200.000000"/> 
</g>
<g style="fill-opacity: 1.0;stroke-width: 1.000000;stroke-opacity: 1;stroke-linecap: round;stroke-linejoin: round">
<circle cx="148501100.000000" cy="95605600.000000" r="453200.000000"/> 
</g>
<g style="fill-opacity: 1.0;stroke-width: 1.000000;stroke-opacity: 1;stroke-linecap: round;stroke-linejoin: round">
<circle cx="144945100.000000" cy="104368600.000000" r="453200.000000"/> 
</g>
<g style="fill-opacity: 1.0;stroke-width: 1.000000;stroke-opacity: 1;stroke-linecap: round;stroke-linejoin: round">
<circle cx="152196800.000000" cy="96227900.000000" r="453200.000000"/> 
</g>
<g style="fill-opacity: 1.0;stroke-width: 1.000000;stroke-opacity: 1;stroke-linecap: round;stroke-linejoin: round">
<circle cx="149517100.000000" cy="117195600.000000" r="453200.000000"/> 
</g>
<g style="fill-opacity: 0.0;stroke-width: 254000.000000;stroke-opacity: 1;stroke-linecap: round;stroke-linejoin: round">
<path d="M160820100 100558600 L160820100 103606600 "/>
<path d="M157391100 87223600 L157645100 87477600 "/>
<path d="M139865100 105511600 L139865100 93954600 "/>
<path d="M162471100 98907600 L160820100 100558600 "/>
<path d="M139865100 93954600 L144564100 89255600 "/>
<path d="M157645100 87477600 L162471100 92303600 "/>
<path d="M155867100 89255600 L157645100 87477600 "/>
<path d="M162471100 92303600 L162471100 98907600 "/>
<path d="M144564100 89255600 L155867100 89255600 "/>
<path d="M139230100 93943019 L144374718 88798400 "/>
<path d="M144374718 88798400 L153276300 88798400 "/>
<path d="M153276300 88798400 L154851100 87223600 "/>
<path d="M136690100 106527600 L139230100 103987600 "/>
<path d="M139230100 103987600 L139230100 93943019 "/>
<path d="M154978100 93192600 L155613100 93192600 "/>
<path d="M155613100 93192600 L157264100 93192600 "/>
<path d="M146342100 90398600 L154724100 90398600 "/>
<path d="M155613100 91287600 L155613100 93192600 "/>
<path d="M152184100 111480600 L152184100 101955600 "/>
<path d="M152946100 112242600 L152184100 111480600 "/>
<path d="M157264100 93192600 L157264100 96875600 "/>
<path d="M154724100 90398600 L155613100 91287600 "/>
<path d="M157264100 96875600 L152184100 101955600 "/>
<path d="M157264100 93192600 L160566100 93192600 "/>
<path d="M145961100 90779600 L146342100 90398600 "/>
<path d="M159423100 95859600 L159423100 104495600 "/>
</g>
<g style="fill-opacity: 0.0;stroke-width: 406400.000000;stroke-opacity: 1;stroke-linecap: round;stroke-linejoin: round">
<path d="M159423100 104495600 L160439100 105511600 "/>
<path d="M153073100 104495600 L159423100 104495600 "/>
<path d="M153073100 102209600 L153073100 104495600 "/>
<path d="M142151100 87223600 L142151100 87985600 "/>
<path d="M142151100 87985600 L136563100 93573600 "/>
<path d="M136563100 104495600 L136563100 93573600 "/>
</g>
<g style="fill-opacity: 0.0;stroke-width: 254000.000000;stroke-opacity: 1;stroke-linecap: round;stroke-linejoin: round">
<path d="M146596100 100685600 L152725500 94556200 "/>
<path d="M154655600 95191200 L154020600 94556200 "/>
<path d="M154020600 94556200 L152725500 94556200 "/>
<path d="M154655600 95191200 L155290600 95191200 "/>
<path d="M147150050 110672650 L147150050 110291650 "/>
<path d="M147150050 110291650 L146596100 109737700 "/>
<path d="M146596100 100685600 L146596100 109737700 "/>
<path d="M145961100 99691000 L145961100 110718600 "/>
<path d="M145961100 99691000 L153983500 91668600 "/>
<path d="M151168100 101320600 L151041100 101193600 "/>
<path d="M153200100 117449600 L153200100 114782600 "/>
<path d="M153200100 114782600 L151168100 112750600 "/>
<path d="M151168100 101320600 L151168100 112750600 "/>
<path d="M146850100 96113600 L146850100 96250419 "/>
<path d="M147866100 118846600 L144034700 115015200 "/>
<path d="M146850100 96250419 L144034700 99065819 "/>
<path d="M147866100 118868000 L147866100 118846600 "/>
<path d="M144034700 99065819 L144034700 115015200 "/>
<path d="M148501100 95859600 L148501100 95605600 "/>
<path d="M144945100 104368600 L144945100 99415600 "/>
<path d="M144945100 99415600 L148501100 95859600 "/>
<path d="M147866100 117703600 L144945100 114782600 "/>
<path d="M144945100 104368600 L144945100 114782600 "/>
<path d="M149771100 100050600 L149771100 116941600 "/>
<path d="M149517100 117195600 L149771100 116941600 "/>
<path d="M152196800 97624900 L152196800 96227900 "/>
<path d="M149771100 100050600 L152196800 97624900 "/>
</g>
</g> 
</g><g id="substrate-silk" style="fill:#f0f0f0; stroke:#f0f0f0;" mask="url(#pads-mask-silkscreen)"><g style="fill-opacity: 0.0;stroke-width: 142240.000000;stroke-opacity: 1;stroke-linecap: round;stroke-linejoin: round">
<text x="152184100.000000" y="89311480.000000" transform="scale(-1 1) translate(-304368200.000000 0)" textLength="1747519.000000" font-size="1165013.000000" lengthAdjust="spacingAndGlyphs" text-anchor="middle" opacity="0">DC</text>
<g class="stroked-text"><desc>DC</desc>
<path d="M152849821 89269872 L152849821 88396112 L152641783 88396112 L152516960 88437720 L152433745 88520935 L152392138 88604150 L152350530 88770580 L152350530 88895403 L152392138 89061834 L152433745 89145049 L152516960 89228264 L152641783 89269872 L152849821 89269872 "/>
<path d="M151476770 89186657 L151518378 89228264 L151643200 89269872 L151726416 89269872 L151851239 89228264 L151934454 89145049 L151976061 89061834 L152017669 88895403 L152017669 88770580 L151976061 88604150 L151934454 88520935 L151851239 88437720 L151726416 88396112 L151643200 88396112 L151518378 88437720 L151476770 88479327 "/>
</g><text x="149644100.000000" y="85882480.000000" transform="scale(-1 1) translate(-299288200.000000 0)" textLength="1895469.000000" font-size="1165013.000000" lengthAdjust="spacingAndGlyphs" text-anchor="middle" opacity="0">Rst</text>
<g class="stroked-text"><desc>Rst</desc>
<path d="M149976960 85840872 L150268214 85424796 "/>
<path d="M150476252 85840872 L150476252 84967112 L150143391 84967112 L150060176 85008720 L150018568 85050327 L149976960 85133542 L149976960 85258365 L150018568 85341580 L150060176 85383188 L150143391 85424796 L150476252 85424796 "/>
<path d="M149644100 85799264 L149560884 85840872 L149394454 85840872 L149311239 85799264 L149269631 85716049 L149269631 85674441 L149311239 85591226 L149394454 85549619 L149519277 85549619 L149602492 85508011 L149644100 85424796 L149644100 85383188 L149602492 85299973 L149519277 85258365 L149394454 85258365 L149311239 85299973 "/>
<path d="M149019985 85258365 L148687124 85258365 "/>
<path d="M148895162 84967112 L148895162 85716049 L148853555 85799264 L148770340 85840872 L148687124 85840872 "/>
</g><text x="146977100.000000" y="89311480.000000" transform="scale(-1 1) translate(-293954200.000000 0)" textLength="1521000.000000" font-size="1165013.000000" lengthAdjust="spacingAndGlyphs" text-anchor="middle" opacity="0">CS</text>
<g class="stroked-text"><desc>CS</desc>
<path d="M147122726 89186657 L147164334 89228264 L147289157 89269872 L147372372 89269872 L147497195 89228264 L147580410 89145049 L147622018 89061834 L147663625 88895403 L147663625 88770580 L147622018 88604150 L147580410 88520935 L147497195 88437720 L147372372 88396112 L147289157 88396112 L147164334 88437720 L147122726 88479327 "/>
<path d="M146789865 89228264 L146665042 89269872 L146457004 89269872 L146373789 89228264 L146332181 89186657 L146290574 89103441 L146290574 89020226 L146332181 88937011 L146373789 88895403 L146457004 88853796 L146623435 88812188 L146706650 88770580 L146748258 88728973 L146789865 88645758 L146789865 88562542 L146748258 88479327 L146706650 88437720 L146623435 88396112 L146415397 88396112 L146290574 88437720 "/>
</g><text x="152184100.000000" y="86009480.000000" transform="scale(-1 1) translate(-304368200.000000 0)" textLength="1396178.000000" font-size="1165013.000000" lengthAdjust="spacingAndGlyphs" text-anchor="middle" opacity="0">A0</text>
<g class="stroked-text"><desc>A0</desc>
<path d="M152808214 85718226 L152392138 85718226 "/>
<path d="M152891429 85967872 L152600176 85094112 L152308922 85967872 "/>
<path d="M151851239 85094112 L151768023 85094112 L151684808 85135720 L151643200 85177327 L151601593 85260542 L151559985 85426973 L151559985 85635011 L151601593 85801441 L151643200 85884657 L151684808 85926264 L151768023 85967872 L151851239 85967872 L151934454 85926264 L151976061 85884657 L152017669 85801441 L152059277 85635011 L152059277 85426973 L152017669 85260542 L151976061 85177327 L151934454 85135720 L151851239 85094112 "/>
</g><text x="154597100.000000" y="86009480.000000" transform="scale(-1 1) translate(-309194200.000000 0)" textLength="1853861.000000" font-size="1165013.000000" lengthAdjust="spacingAndGlyphs" text-anchor="middle" opacity="0">Clk</text>
<g class="stroked-text"><desc>Clk</desc>
<path d="M154909157 85884657 L154950764 85926264 L155075587 85967872 L155158802 85967872 L155283625 85926264 L155366840 85843049 L155408448 85759834 L155450056 85593403 L155450056 85468580 L155408448 85302150 L155366840 85218935 L155283625 85135720 L155158802 85094112 L155075587 85094112 L154950764 85135720 L154909157 85177327 "/>
<path d="M154409865 85967872 L154493080 85926264 L154534688 85843049 L154534688 85094112 "/>
<path d="M154077004 85967872 L154077004 85094112 "/>
<path d="M153993789 85635011 L153744143 85967872 "/>
<path d="M153744143 85385365 L154077004 85718226 "/>
</g><text x="157772100.000000" y="89311480.000000" transform="scale(-1 1) translate(-315544200.000000 0)" textLength="2769229.000000" font-size="1165013.000000" lengthAdjust="spacingAndGlyphs" text-anchor="middle" opacity="0">Data</text>
<g class="stroked-text"><desc>Data</desc>
<path d="M159041132 89269872 L159041132 88396112 L158833094 88396112 L158708271 88437720 L158625056 88520935 L158583448 88604150 L158541840 88770580 L158541840 88895403 L158583448 89061834 L158625056 89145049 L158708271 89228264 L158833094 89269872 L159041132 89269872 "/>
<path d="M157792903 89269872 L157792903 88812188 L157834511 88728973 L157917726 88687365 L158084157 88687365 L158167372 88728973 "/>
<path d="M157792903 89228264 L157876119 89269872 L158084157 89269872 L158167372 89228264 L158208980 89145049 L158208980 89061834 L158167372 88978619 L158084157 88937011 L157876119 88937011 L157792903 88895403 "/>
<path d="M157501650 88687365 L157168789 88687365 "/>
<path d="M157376827 88396112 L157376827 89145049 L157335220 89228264 L157252004 89269872 L157168789 89269872 "/>
<path d="M156503067 89269872 L156503067 88812188 L156544675 88728973 L156627890 88687365 L156794320 88687365 L156877536 88728973 "/>
<path d="M156503067 89228264 L156586282 89269872 L156794320 89269872 L156877536 89228264 L156919143 89145049 L156919143 89061834 L156877536 88978619 L156794320 88937011 L156586282 88937011 L156503067 88895403 "/>
</g><text x="142151100.000000" y="89311480.000000" transform="scale(-1 1) translate(-284302200.000000 0)" textLength="1895469.000000" font-size="1165013.000000" lengthAdjust="spacingAndGlyphs" text-anchor="middle" opacity="0">VIN</text>
<g class="stroked-text"><desc>VIN</desc>
<path d="M143108075 88396112 L142816821 89269872 L142525568 88396112 "/>
<path d="M142234315 89269872 L142234315 88396112 "/>
<path d="M141818239 89269872 L141818239 88396112 L141318947 89269872 L141318947 88396112 "/>
</g><text x="139484100.000000" y="86009480.000000" transform="scale(-1 1) translate(-278968200.000000 0)" textLength="2477976.000000" font-size="1165013.000000" lengthAdjust="spacingAndGlyphs" text-anchor="middle" opacity="0">GND</text>
<g class="stroked-text"><desc>GND</desc>
<path d="M140149821 85135720 L140233037 85094112 L140357860 85094112 L140482682 85135720 L140565898 85218935 L140607505 85302150 L140649113 85468580 L140649113 85593403 L140607505 85759834 L140565898 85843049 L140482682 85926264 L140357860 85967872 L140274644 85967872 L140149821 85926264 L140108214 85884657 L140108214 85593403 L140274644 85593403 "/>
<path d="M139733745 85967872 L139733745 85094112 L139234454 85967872 L139234454 85094112 "/>
<path d="M138818378 85967872 L138818378 85094112 L138610340 85094112 L138485517 85135720 L138402301 85218935 L138360694 85302150 L138319086 85468580 L138319086 85593403 L138360694 85759834 L138402301 85843049 L138485517 85926264 L138610340 85967872 L138818378 85967872 "/>
</g><text x="144437100.000000" y="86009480.000000" transform="scale(-1 1) translate(-288874200.000000 0)" textLength="2186722.000000" font-size="1165013.000000" lengthAdjust="spacingAndGlyphs" text-anchor="middle" opacity="0">3Vo</text>
<g class="stroked-text"><desc>3Vo</desc>
<path d="M145498094 85094112 L144957195 85094112 L145248448 85426973 L145123625 85426973 L145040410 85468580 L144998802 85510188 L144957195 85593403 L144957195 85801441 L144998802 85884657 L145040410 85926264 L145123625 85967872 L145373271 85967872 L145456486 85926264 L145498094 85884657 "/>
<path d="M144707549 85094112 L144416296 85967872 L144125042 85094112 "/>
<path d="M143708966 85967872 L143792181 85926264 L143833789 85884657 L143875397 85801441 L143875397 85551796 L143833789 85468580 L143792181 85426973 L143708966 85385365 L143584143 85385365 L143500928 85426973 L143459320 85468580 L143417713 85551796 L143417713 85801441 L143459320 85884657 L143500928 85926264 L143584143 85967872 L143708966 85967872 "/>
</g></g>
<g style="fill-opacity: 0.0;stroke-width: 119969.000000;stroke-opacity: 1;stroke-linecap: round;stroke-linejoin: round">
<text x="163026100.000000" y="88450015.000000" transform="scale(-1 1) translate(-326052200.000000 0)" textLength="1134766.000000" font-size="923774.000000" lengthAdjust="spacingAndGlyphs" text-anchor="start" opacity="0">X2</text>
<g class="stroked-text"><desc>X2</desc>
<path d="M162849144 87724192 L162387256 88417023 "/>
<path d="M162387256 87724192 L162849144 88417023 "/>
<path d="M162156313 87790176 L162123321 87757184 L162057337 87724192 L161892377 87724192 L161826393 87757184 L161793401 87790176 L161760409 87856160 L161760409 87922144 L161793401 88021120 L162189305 88417023 L161760409 88417023 "/>
</g></g>
<g style="fill-opacity: 0.0;stroke-width: 203200.000000;stroke-opacity: 1;stroke-linecap: round;stroke-linejoin: round">
<path d="M161501100 90003600 L135501100 90003600 "/>
<path d="M135501100 120003600 L161501100 120003600 "/>
<path d="M135501100 90003600 L135501100 120003600 "/>
<path d="M161501100 120003600 L161501100 90003600 "/>
</g> 
</g><g id="substrate-outline" style="fill:#000000; stroke:#000000; stroke-width: 150000"><g style="fill-opacity: 0.0;stroke-opacity: 1;stroke-linecap: round;stroke-linejoin: round">
<path d="M138341100 120243600 L158661100 120243600 "/>
<path d="M134531100 125323600 L137071100 125323600 "/>
<path d="M162471100.000000 125323600.000000 A1270000.000000 1270000.000000 0.0 0 0 163741100.000000 124053600.000000"/>
<path d="M163741100.000000 87223600.000000 A2540000.000000 2540000.000000 0.0 0 0 161201100.000000 84683600.000000"/>
<path d="M158661100 120243600 L158661100 124053600 "/>
<path d="M138341100 124053600 L138341100 120243600 "/>
<path d="M159931100 125323600 L162471100 125323600 "/>
<path d="M163741100 124053600 L163741100 87223600 "/>
<path d="M133261100 87223600 L133261100 124053600 "/>
<path d="M133261100.000000 124053600.000000 A1270000.000000 1270000.000000 0.0 0 0 134531100.000000 125323600.000000"/>
<path d="M161201100 84683600 L135801100 84683600 "/>
<path d="M158661100.000000 124053600.000000 A1270000.000000 1270000.000000 0.0 0 0 159931100.000000 125323600.000000"/>
<path d="M137071100.000000 125323600.000000 A1270000.000000 1270000.000000 0.0 0 0 138341100.000000 124053600.000000"/>
<path d="M135801100.000000 84683600.000000 A2540000.000000 2540000.000000 0.0 0 0 133261100.000000 87223600.000000"/>
</g> 
<path d="M -1500000.0 0.0 A 1500000.0 1500000.0 0 1 1 1500000.0 0.0 L 1500000.0 0.0 A 1500000.0 1500000.0 0 1 1 -1500000.0 0.0 Z" transform="translate(161201100 122783600) rotate(-0.0)"/><path d="M -1500000.0 0.0 A 1500000.0 1500000.0 0 1 1 1500000.0 0.0 L 1500000.0 0.0 A 1500000.0 1500000.0 0 1 1 -1500000.0 0.0 Z" transform="translate(161201100 87223600) rotate(-0.0)"/><path d="M -1500000.0 0.0 A 1500000.0 1500000.0 0 1 1 1500000.0 0.0 L 1500000.0 0.0 A 1500000.0 1500000.0 0 1 1 -1500000.0 0.0 Z" transform="translate(135801100 122783600) rotate(-0.0)"/><path d="M -500000.0 0.0 A 500000.0 500000.0 0 1 1 500000.0 0.0 L 500000.0 0.0 A 500000.0 500000.0 0 1 1 -500000.0 0.0 Z" transform="translate(157391100 87223600) rotate(-270.0)"/><path d="M -500000.0 0.0 A 500000.0 500000.0 0 1 1 500000.0 0.0 L 500000.0 0.0 A 500000.0 500000.0 0 1 1 -500000.0 0.0 Z" transform="translate(154851100 87223600) rotate(-270.0)"/><path d="M -500000.0 0.0 A 500000.0 500000.0 0 1 1 500000.0 0.0 L 500000.0 0.0 A 500000.0 500000.0 0 1 1 -500000.0 0.0 Z" transform="translate(152311100 87223600) rotate(-270.0)"/><path d="M -500000.0 0.0 A 500000.0 500000.0 0 1 1 500000.0 0.0 L 500000.0 0.0 A 500000.0 500000.0 0 1 1 -500000.0 0.0 Z" transform="translate(149771100 87223600) rotate(-270.0)"/><path d="M -500000.0 0.0 A 500000.0 500000.0 0 1 1 500000.0 0.0 L 500000.0 0.0 A 500000.0 500000.0 0 1 1 -500000.0 0.0 Z" transform="translate(147231100 87223600) rotate(-270.0)"/><path d="M -500000.0 0.0 A 500000.0 500000.0 0 1 1 500000.0 0.0 L 500000.0 0.0 A 500000.0 500000.0 0 1 1 -500000.0 0.0 Z" transform="translate(144691100 87223600) rotate(-270.0)"/><path d="M -500000.0 0.0 A 500000.0 500000.0 0 1 1 500000.0 0.0 L 500000.0 0.0 A 500000.0 500000.0 0 1 1 -500000.0 0.0 Z" transform="translate(142151100 87223600) rotate(-270.0)"/><path d="M -500000.0 0.0 A 500000.0 500000.0 0 1 1 500000.0 0.0 L 500000.0 0.0 A 500000.0 500000.0 0 1 1 -500000.0 0.0 Z" transform="translate(139611100 87223600) rotate(-270.0)"/><path d="M -1500000.0 0.0 A 1500000.0 1500000.0 0 1 1 1500000.0 0.0 L 1500000.0 0.0 A 1500000.0 1500000.0 0 1 1 -1500000.0 0.0 Z" transform="translate(135801100 87223600) rotate(-0.0)"/><path d="M -500000.0 0.0 A 500000.0 500000.0 0 1 1 500000.0 0.0 L 500000.0 0.0 A 500000.0 500000.0 0 1 1 -500000.0 0.0 Z" transform="translate(139851100 118503600) rotate(-180.0)"/><path d="M -500000.0 0.0 A 500000.0 500000.0 0 1 1 500000.0 0.0 L 500000.0 0.0 A 500000.0 500000.0 0 1 1 -500000.0 0.0 Z" transform="translate(157151100 118503600) rotate(-180.0)"/><path d="M -250000.0 0.0 A 250000.0 250000.0 0 1 1 250000.0 0.0 L 250000.0 0.0 A 250000.0 250000.0 0 1 1 -250000.0 0.0 Z" transform="translate(141897100 102844600) rotate(0.0)"/><path d="M -250000.0 0.0 A 250000.0 250000.0 0 1 1 250000.0 0.0 L 250000.0 0.0 A 250000.0 250000.0 0 1 1 -250000.0 0.0 Z" transform="translate(153708100 96113600) rotate(0.0)"/><path d="M -250000.0 0.0 A 250000.0 250000.0 0 1 1 250000.0 0.0 L 250000.0 0.0 A 250000.0 250000.0 0 1 1 -250000.0 0.0 Z" transform="translate(139738100 115417600) rotate(0.0)"/><path d="M -250000.0 0.0 A 250000.0 250000.0 0 1 1 250000.0 0.0 L 250000.0 0.0 A 250000.0 250000.0 0 1 1 -250000.0 0.0 Z" transform="translate(137833100 96367600) rotate(0.0)"/><path d="M -250000.0 0.0 A 250000.0 250000.0 0 1 1 250000.0 0.0 L 250000.0 0.0 A 250000.0 250000.0 0 1 1 -250000.0 0.0 Z" transform="translate(134531100 104622600) rotate(0.0)"/><path d="M -250000.0 0.0 A 250000.0 250000.0 0 1 1 250000.0 0.0 L 250000.0 0.0 A 250000.0 250000.0 0 1 1 -250000.0 0.0 Z" transform="translate(148374100 93954600) rotate(0.0)"/><path d="M -250000.0 0.0 A 250000.0 250000.0 0 1 1 250000.0 0.0 L 250000.0 0.0 A 250000.0 250000.0 0 1 1 -250000.0 0.0 Z" transform="translate(155486100 108559600) rotate(0.0)"/><path d="M -250000.0 0.0 A 250000.0 250000.0 0 1 1 250000.0 0.0 L 250000.0 0.0 A 250000.0 250000.0 0 1 1 -250000.0 0.0 Z" transform="translate(156502100 102971600) rotate(0.0)"/><path d="M -250000.0 0.0 A 250000.0 250000.0 0 1 1 250000.0 0.0 L 250000.0 0.0 A 250000.0 250000.0 0 1 1 -250000.0 0.0 Z" transform="translate(157391100 90398600) rotate(0.0)"/><path d="M -250000.0 0.0 A 250000.0 250000.0 0 1 1 250000.0 0.0 L 250000.0 0.0 A 250000.0 250000.0 0 1 1 -250000.0 0.0 Z" transform="translate(158534100 107924600) rotate(0.0)"/><path d="M -250000.0 0.0 A 250000.0 250000.0 0 1 1 250000.0 0.0 L 250000.0 0.0 A 250000.0 250000.0 0 1 1 -250000.0 0.0 Z" transform="translate(148882100 105765600) rotate(0.0)"/><path d="M -250000.0 0.0 A 250000.0 250000.0 0 1 1 250000.0 0.0 L 250000.0 0.0 A 250000.0 250000.0 0 1 1 -250000.0 0.0 Z" transform="translate(157391100 115544600) rotate(0.0)"/><path d="M -250000.0 0.0 A 250000.0 250000.0 0 1 1 250000.0 0.0 L 250000.0 0.0 A 250000.0 250000.0 0 1 1 -250000.0 0.0 Z" transform="translate(145961100 95097600) rotate(0.0)"/><path d="M -250000.0 0.0 A 250000.0 250000.0 0 1 1 250000.0 0.0 L 250000.0 0.0 A 250000.0 250000.0 0 1 1 -250000.0 0.0 Z" transform="translate(161201100 97383600) rotate(0.0)"/><path d="M -250000.0 0.0 A 250000.0 250000.0 0 1 1 250000.0 0.0 L 250000.0 0.0 A 250000.0 250000.0 0 1 1 -250000.0 0.0 Z" transform="translate(152184100 118084600) rotate(0.0)"/><path d="M -250000.0 0.0 A 250000.0 250000.0 0 1 1 250000.0 0.0 L 250000.0 0.0 A 250000.0 250000.0 0 1 1 -250000.0 0.0 Z" transform="translate(139865100 105511600) rotate(0.0)"/><path d="M -250000.0 0.0 A 250000.0 250000.0 0 1 1 250000.0 0.0 L 250000.0 0.0 A 250000.0 250000.0 0 1 1 -250000.0 0.0 Z" transform="translate(160820100 103606600) rotate(0.0)"/><path d="M -250000.0 0.0 A 250000.0 250000.0 0 1 1 250000.0 0.0 L 250000.0 0.0 A 250000.0 250000.0 0 1 1 -250000.0 0.0 Z" transform="translate(136690100 106527600) rotate(0.0)"/><path d="M -250000.0 0.0 A 250000.0 250000.0 0 1 1 250000.0 0.0 L 250000.0 0.0 A 250000.0 250000.0 0 1 1 -250000.0 0.0 Z" transform="translate(152946100 112242600) rotate(0.0)"/><path d="M -250000.0 0.0 A 250000.0 250000.0 0 1 1 250000.0 0.0 L 250000.0 0.0 A 250000.0 250000.0 0 1 1 -250000.0 0.0 Z" transform="translate(160566100 93192600) rotate(0.0)"/><path d="M -250000.0 0.0 A 250000.0 250000.0 0 1 1 250000.0 0.0 L 250000.0 0.0 A 250000.0 250000.0 0 1 1 -250000.0 0.0 Z" transform="translate(154978100 93192600) rotate(0.0)"/><path d="M -250000.0 0.0 A 250000.0 250000.0 0 1 1 250000.0 0.0 L 250000.0 0.0 A 250000.0 250000.0 0 1 1 -250000.0 0.0 Z" transform="translate(145961100 90779600) rotate(0.0)"/><path d="M -250000.0 0.0 A 250000.0 250000.0 0 1 1 250000.0 0.0 L 250000.0 0.0 A 250000.0 250000.0 0 1 1 -250000.0 0.0 Z" transform="translate(136563100 104495600) rotate(0.0)"/><path d="M -250000.0 0.0 A 250000.0 250000.0 0 1 1 250000.0 0.0 L 250000.0 0.0 A 250000.0 250000.0 0 1 1 -250000.0 0.0 Z" transform="translate(153073100 102209600) rotate(0.0)"/><path d="M -250000.0 0.0 A 250000.0 250000.0 0 1 1 250000.0 0.0 L 250000.0 0.0 A 250000.0 250000.0 0 1 1 -250000.0 0.0 Z" transform="translate(159423100 95859600) rotate(0.0)"/><path d="M -250000.0 0.0 A 250000.0 250000.0 0 1 1 250000.0 0.0 L 250000.0 0.0 A 250000.0 250000.0 0 1 1 -250000.0 0.0 Z" transform="translate(160439100 105511600) rotate(0.0)"/><path d="M -250000.0 0.0 A 250000.0 250000.0 0 1 1 250000.0 0.0 L 250000.0 0.0 A 250000.0 250000.0 0 1 1 -250000.0 0.0 Z" transform="translate(147150050 110672650) rotate(0.0)"/><path d="M -250000.0 0.0 A 250000.0 250000.0 0 1 1 250000.0 0.0 L 250000.0 0.0 A 250000.0 250000.0 0 1 1 -250000.0 0.0 Z" transform="translate(155290600 95191200) rotate(0.0)"/><path d="M -250000.0 0.0 A 250000.0 250000.0 0 1 1 250000.0 0.0 L 250000.0 0.0 A 250000.0 250000.0 0 1 1 -250000.0 0.0 Z" transform="translate(145961100 110718600) rotate(0.0)"/><path d="M -250000.0 0.0 A 250000.0 250000.0 0 1 1 250000.0 0.0 L 250000.0 0.0 A 250000.0 250000.0 0 1 1 -250000.0 0.0 Z" transform="translate(153983500 91668600) rotate(0.0)"/><path d="M -250000.0 0.0 A 250000.0 250000.0 0 1 1 250000.0 0.0 L 250000.0 0.0 A 250000.0 250000.0 0 1 1 -250000.0 0.0 Z" transform="translate(153200100 117449600) rotate(0.0)"/><path d="M -250000.0 0.0 A 250000.0 250000.0 0 1 1 250000.0 0.0 L 250000.0 0.0 A 250000.0 250000.0 0 1 1 -250000.0 0.0 Z" transform="translate(151041100 101193600) rotate(0.0)"/><path d="M -250000.0 0.0 A 250000.0 250000.0 0 1 1 250000.0 0.0 L 250000.0 0.0 A 250000.0 250000.0 0 1 1 -250000.0 0.0 Z" transform="translate(146850100 96113600) rotate(0.0)"/><path d="M -250000.0 0.0 A 250000.0 250000.0 0 1 1 250000.0 0.0 L 250000.0 0.0 A 250000.0 250000.0 0 1 1 -250000.0 0.0 Z" transform="translate(147866100 118868000) rotate(0.0)"/><path d="M -250000.0 0.0 A 250000.0 250000.0 0 1 1 250000.0 0.0 L 250000.0 0.0 A 250000.0 250000.0 0 1 1 -250000.0 0.0 Z" transform="translate(147866100 117703600) rotate(0.0)"/><path d="M -250000.0 0.0 A 250000.0 250000.0 0 1 1 250000.0 0.0 L 250000.0 0.0 A 250000.0 250000.0 0 1 1 -250000.0 0.0 Z" transform="translate(148501100 95605600) rotate(0.0)"/><path d="M -250000.0 0.0 A 250000.0 250000.0 0 1 1 250000.0 0.0 L 250000.0 0.0 A 250000.0 250000.0 0 1 1 -250000.0 0.0 Z" transform="translate(144945100 104368600) rotate(0.0)"/><path d="M -250000.0 0.0 A 250000.0 250000.0 0 1 1 250000.0 0.0 L 250000.0 0.0 A 250000.0 250000.0 0 1 1 -250000.0 0.0 Z" transform="translate(152196800 96227900) rotate(0.0)"/><path d="M -250000.0 0.0 A 250000.0 250000.0 0 1 1 250000.0 0.0 L 250000.0 0.0 A 250000.0 250000.0 0 1 1 -250000.0 0.0 Z" transform="translate(149517100 117195600) rotate(0.0)"/></g></g></g></svg>