<!DOCTYPE svg PUBLIC "-//W3C//DTD SVG 1.1//EN" "http://www.w3.org/Graphics/SVG/1.1/DTD/svg11.dtd">
<svg xmlns="http://www.w3.org/2000/svg" version="1.1" width="29.94mm" height="22.32mm" viewBox="-16347110.0 9384360.0 2994000.0 2232000.0">
            <title>Picture generated by PcbDraw </title>
            <desc>Picture generated by PcbDraw</desc>
        <defs><clipPath id="cut-off"><path d=" M 13453110.0 9484360.0 L 13453110.0 11516360.0 L 16247110.0 11516360.0 L 16247110.0 9484360.0 L 13453110.0 9484360.0 " style="fill-rule: evenodd;"/></clipPath><mask id="pads-mask"><g style="fill:#ffffff; fill-opacity:0.0;  stroke:#ffffff; stroke-width:0.000000; stroke-opacity:1;  stroke-linecap:round; stroke-linejoin:round;">
<g style="fill:#ffffff; fill-opacity:1.0;  stroke:#ffffff; stroke-width:0.100000; stroke-opacity:1;  stroke-linecap:round; stroke-linejoin:round;">
<circle cx="13580110.000000" cy="10881360.000000" r="104140.000000"/> 
</g>
<g style="fill:#ffffff; fill-opacity:1.0;  stroke:#ffffff; stroke-width:0.100000; stroke-opacity:1;  stroke-linecap:round; stroke-linejoin:round;">
<circle cx="16120110.000000" cy="10881360.000000" r="104140.000000"/> 
</g>
<g style="fill:#ffffff; fill-opacity:1.0;  stroke:#ffffff; stroke-width:0.100000; stroke-opacity:1;  stroke-linecap:round; stroke-linejoin:round;">
<circle cx="16120110.000000" cy="11135360.000000" r="104140.000000"/> 
</g>
<g style="fill:#ffffff; fill-opacity:1.0;  stroke:#ffffff; stroke-width:0.100000; stroke-opacity:1;  stroke-linecap:round; stroke-linejoin:round;">
<circle cx="16120110.000000" cy="11389360.000000" r="104140.000000"/> 
</g>
<g style="fill:#ffffff; fill-opacity:1.0;  stroke:#ffffff; stroke-width:0.100000; stroke-opacity:1;  stroke-linecap:round; stroke-linejoin:round;">
<circle cx="13580110.000000" cy="9611360.000000" r="104140.000000"/> 
</g>
<g style="fill:#ffffff; fill-opacity:1.0;  stroke:#ffffff; stroke-width:0.100000; stroke-opacity:1;  stroke-linecap:round; stroke-linejoin:round;">
<circle cx="13580110.000000" cy="9865360.000000" r="104140.000000"/> 
</g>
<g style="fill:#ffffff; fill-opacity:1.0;  stroke:#ffffff; stroke-width:0.100000; stroke-opacity:1;  stroke-linecap:round; stroke-linejoin:round;">
<circle cx="13580110.000000" cy="10119360.000000" r="104140.000000"/> 
</g>
<g style="fill:#ffffff; fill-opacity:1.0;  stroke:#ffffff; stroke-width:0.100000; stroke-opacity:1;  stroke-linecap:round; stroke-linejoin:round;">
<circle cx="13580110.000000" cy="10373360.000000" r="104140.000000"/> 
</g>
<g style="fill:#ffffff; fill-opacity:1.0;  stroke:#ffffff; stroke-width:0.100000; stroke-opacity:1;  stroke-linecap:round; stroke-linejoin:round;">
<circle cx="13580110.000000" cy="10627360.000000" r="104140.000000"/> 
</g>
<g style="fill:#ffffff; fill-opacity:1.0;  stroke:#ffffff; stroke-width:0.100000; stroke-opacity:1;  stroke-linecap:round; stroke-linejoin:round;">
<circle cx="13580110.000000" cy="11389360.000000" r="104140.000000"/> 
</g>
<g style="fill:#ffffff; fill-opacity:1.0;  stroke:#ffffff; stroke-width:0.100000; stroke-opacity:1;  stroke-linecap:round; stroke-linejoin:round;">
<circle cx="13580110.000000" cy="11135360.000000" r="104140.000000"/> 
</g>
<g style="fill:#ffffff; fill-opacity:1.0;  stroke:#ffffff; stroke-width:0.100000; stroke-opacity:1;  stroke-linecap:round; stroke-linejoin:round;">
<circle cx="16120110.000000" cy="9611360.000000" r="104140.000000"/> 
</g>
<g style="fill:#ffffff; fill-opacity:1.0;  stroke:#ffffff; stroke-width:0.100000; stroke-opacity:1;  stroke-linecap:round; stroke-linejoin:round;">
<circle cx="16120110.000000" cy="9865360.000000" r="104140.000000"/> 
</g>
<g style="fill:#ffffff; fill-opacity:1.0;  stroke:#ffffff; stroke-width:0.100000; stroke-opacity:1;  stroke-linecap:round; stroke-linejoin:round;">
<circle cx="16120110.000000" cy="10119360.000000" r="104140.000000"/> 
</g>
<g style="fill:#ffffff; fill-opacity:1.0;  stroke:#ffffff; stroke-width:0.100000; stroke-opacity:1;  stroke-linecap:round; stroke-linejoin:round;">
<circle cx="16120110.000000" cy="10373360.000000" r="104140.000000"/> 
</g>
<g style="fill:#ffffff; fill-opacity:1.0;  stroke:#ffffff; stroke-width:0.100000; stroke-opacity:1;  stroke-linecap:round; stroke-linejoin:round;">
<circle cx="16120110.000000" cy="10627360.000000" r="104140.000000"/> 
</g>
</g> 
</mask><mask id="pads-mask-silkscreen"><rect x="9897110.0" y="9001683.8" width="10327301.3" height="3809676.2" fill="white"/><g style="fill:#000000; fill-opacity:0.0;  stroke:#000000; stroke-width:0.000000; stroke-opacity:1;  stroke-linecap:round; stroke-linejoin:round;">
<g style="fill:#000000; fill-opacity:1.0;  stroke:#000000; stroke-width:0.100000; stroke-opacity:1;  stroke-linecap:round; stroke-linejoin:round;">
<circle cx="13580110.000000" cy="10881360.000000" r="104140.000000"/> 
</g>
<g style="fill:#000000; fill-opacity:1.0;  stroke:#000000; stroke-width:0.100000; stroke-opacity:1;  stroke-linecap:round; stroke-linejoin:round;">
<circle cx="16120110.000000" cy="10881360.000000" r="104140.000000"/> 
</g>
<g style="fill:#000000; fill-opacity:1.0;  stroke:#000000; stroke-width:0.100000; stroke-opacity:1;  stroke-linecap:round; stroke-linejoin:round;">
<circle cx="16120110.000000" cy="11135360.000000" r="104140.000000"/> 
</g>
<g style="fill:#000000; fill-opacity:1.0;  stroke:#000000; stroke-width:0.100000; stroke-opacity:1;  stroke-linecap:round; stroke-linejoin:round;">
<circle cx="16120110.000000" cy="11389360.000000" r="104140.000000"/> 
</g>
<g style="fill:#000000; fill-opacity:1.0;  stroke:#000000; stroke-width:0.100000; stroke-opacity:1;  stroke-linecap:round; stroke-linejoin:round;">
<circle cx="13580110.000000" cy="9611360.000000" r="104140.000000"/> 
</g>
<g style="fill:#000000; fill-opacity:1.0;  stroke:#000000; stroke-width:0.100000; stroke-opacity:1;  stroke-linecap:round; stroke-linejoin:round;">
<circle cx="13580110.000000" cy="9865360.000000" r="104140.000000"/> 
</g>
<g style="fill:#000000; fill-opacity:1.0;  stroke:#000000; stroke-width:0.100000; stroke-opacity:1;  stroke-linecap:round; stroke-linejoin:round;">
<circle cx="13580110.000000" cy="10119360.000000" r="104140.000000"/> 
</g>
<g style="fill:#000000; fill-opacity:1.0;  stroke:#000000; stroke-width:0.100000; stroke-opacity:1;  stroke-linecap:round; stroke-linejoin:round;">
<circle cx="13580110.000000" cy="10373360.000000" r="104140.000000"/> 
</g>
<g style="fill:#000000; fill-opacity:1.0;  stroke:#000000; stroke-width:0.100000; stroke-opacity:1;  stroke-linecap:round; stroke-linejoin:round;">
<circle cx="13580110.000000" cy="10627360.000000" r="104140.000000"/> 
</g>
<g style="fill:#000000; fill-opacity:1.0;  stroke:#000000; stroke-width:0.100000; stroke-opacity:1;  stroke-linecap:round; stroke-linejoin:round;">
<circle cx="13580110.000000" cy="11389360.000000" r="104140.000000"/> 
</g>
<g style="fill:#000000; fill-opacity:1.0;  stroke:#000000; stroke-width:0.100000; stroke-opacity:1;  stroke-linecap:round; stroke-linejoin:round;">
<circle cx="13580110.000000" cy="11135360.000000" r="104140.000000"/> 
</g>
<g style="fill:#000000; fill-opacity:1.0;  stroke:#000000; stroke-width:0.100000; stroke-opacity:1;  stroke-linecap:round; stroke-linejoin:round;">
<circle cx="16120110.000000" cy="9611360.000000" r="104140.000000"/> 
</g>
<g style="fill:#000000; fill-opacity:1.0;  stroke:#000000; stroke-width:0.100000; stroke-opacity:1;  stroke-linecap:round; stroke-linejoin:round;">
<circle cx="16120110.000000" cy="9865360.000000" r="104140.000000"/> 
</g>
<g style="fill:#000000; fill-opacity:1.0;  stroke:#000000; stroke-width:0.100000; stroke-opacity:1;  stroke-linecap:round; stroke-linejoin:round;">
<circle cx="16120110.000000" cy="10119360.000000" r="104140.000000"/> 
</g>
<g style="fill:#000000; fill-opacity:1.0;  stroke:#000000; stroke-width:0.100000; stroke-opacity:1;  stroke-linecap:round; stroke-linejoin:round;">
<circle cx="16120110.000000" cy="10373360.000000" r="104140.000000"/> 
</g>
<g style="fill:#000000; fill-opacity:1.0;  stroke:#000000; stroke-width:0.100000; stroke-opacity:1;  stroke-linecap:round; stroke-linejoin:round;">
<circle cx="16120110.000000" cy="10627360.000000" r="104140.000000"/> 
</g>
</g> 
</mask><mask id="hole-mask"><g><rect x="9897110.0" y="9001683.8" fill="white" width="10327301.3" height="3809676.2"/><polyline stroke-linecap="round" stroke="black" stroke-width="101600.0" points="-0.0 0 0.0 0" transform="translate(13580110.0 10881360.0) rotate(-90.0)"/><polyline stroke-linecap="round" stroke="black" stroke-width="101600.0" points="-0.0 0 0.0 0" transform="translate(16120110.0 10881360.0) rotate(-0.0)"/><polyline stroke-linecap="round" stroke="black" stroke-width="101600.0" points="-0.0 0 0.0 0" transform="translate(16120110.0 11135360.0) rotate(-0.0)"/><polyline stroke-linecap="round" stroke="black" stroke-width="101600.0" points="-0.0 0 0.0 0" transform="translate(16120110.0 11389360.0) rotate(-0.0)"/><polyline stroke-linecap="round" stroke="black" stroke-width="101600.0" points="-0.0 0 0.0 0" transform="translate(13580110.0 9611360.0) rotate(-0.0)"/><polyline stroke-linecap="round" stroke="black" stroke-width="101600.0" points="-0.0 0 0.0 0" transform="translate(13580110.0 9865360.0) rotate(-0.0)"/><polyline stroke-linecap="round" stroke="black" stroke-width="101600.0" points="-0.0 0 0.0 0" transform="translate(13580110.0 10119360.0) rotate(-0.0)"/><polyline stroke-linecap="round" stroke="black" stroke-width="101600.0" points="-0.0 0 0.0 0" transform="translate(13580110.0 10373360.0) rotate(-0.0)"/><polyline stroke-linecap="round" stroke="black" stroke-width="101600.0" points="-0.0 0 0.0 0" transform="translate(13580110.0 10627360.0) rotate(-0.0)"/><polyline stroke-linecap="round" stroke="black" stroke-width="101600.0" points="-0.0 0 0.0 0" transform="translate(13580110.0 11389360.0) rotate(-180.0)"/><polyline stroke-linecap="round" stroke="black" stroke-width="101600.0" points="-0.0 0 0.0 0" transform="translate(13580110.0 11135360.0) rotate(-180.0)"/><polyline stroke-linecap="round" stroke="black" stroke-width="101600.0" points="-0.0 0 0.0 0" transform="translate(16120110.0 9611360.0) rotate(-0.0)"/><polyline stroke-linecap="round" stroke="black" stroke-width="101600.0" points="-0.0 0 0.0 0" transform="translate(16120110.0 9865360.0) rotate(-0.0)"/><polyline stroke-linecap="round" stroke="black" stroke-width="101600.0" points="-0.0 0 0.0 0" transform="translate(16120110.0 10119360.0) rotate(-0.0)"/><polyline stroke-linecap="round" stroke="black" stroke-width="101600.0" points="-0.0 0 0.0 0" transform="translate(16120110.0 10373360.0) rotate(-0.0)"/><polyline stroke-linecap="round" stroke="black" stroke-width="101600.0" points="-0.0 0 0.0 0" transform="translate(16120110.0 10627360.0) rotate(-0.0)"/><polyline stroke-linecap="round" stroke="black" stroke-width="50800.0" points="-0.0 0 0.0 0" transform="translate(15231110.0 10405110.0) rotate(0.0)"/><polyline stroke-linecap="round" stroke="black" stroke-width="50800.0" points="-0.0 0 0.0 0" transform="translate(15231110.0 11071860.0) rotate(0.0)"/><polyline stroke-linecap="round" stroke="black" stroke-width="50800.0" points="-0.0 0 0.0 0" transform="translate(14850110.0 10405110.0) rotate(0.0)"/><polyline stroke-linecap="round" stroke="black" stroke-width="50800.0" points="-0.0 0 0.0 0" transform="translate(14977110.0 9674860.0) rotate(0.0)"/><polyline stroke-linecap="round" stroke="black" stroke-width="50800.0" points="-0.0 0 0.0 0" transform="translate(14469110.0 11071860.0) rotate(0.0)"/><polyline stroke-linecap="round" stroke="black" stroke-width="50800.0" points="-0.0 0 0.0 0" transform="translate(14469110.0 10405110.0) rotate(0.0)"/><polyline stroke-linecap="round" stroke="black" stroke-width="50800.0" points="-0.0 0 0.0 0" transform="translate(14469110.0 9674860.0) rotate(0.0)"/><polyline stroke-linecap="round" stroke="black" stroke-width="50800.0" points="-0.0 0 0.0 0" transform="translate(14723110.0 9674860.0) rotate(0.0)"/><polyline stroke-linecap="round" stroke="black" stroke-width="50800.0" points="-0.0 0 0.0 0" transform="translate(14723110.0 11071860.0) rotate(0.0)"/><polyline stroke-linecap="round" stroke="black" stroke-width="50800.0" points="-0.0 0 0.0 0" transform="translate(14977110.0 11071860.0) rotate(0.0)"/><polyline stroke-linecap="round" stroke="black" stroke-width="50800.0" points="-0.0 0 0.0 0" transform="translate(14850110.0 11389360.0) rotate(0.0)"/><polyline stroke-linecap="round" stroke="black" stroke-width="50800.0" points="-0.0 0 0.0 0" transform="translate(14977110.0 10073360.0) rotate(0.0)"/><polyline stroke-linecap="round" stroke="black" stroke-width="50800.0" points="-0.0 0 0.0 0" transform="translate(15231110.0 9673360.0) rotate(0.0)"/><polyline stroke-linecap="round" stroke="black" stroke-width="50800.0" points="-0.0 0 0.0 0" transform="translate(15231110.0 10673360.0) rotate(0.0)"/><polyline stroke-linecap="round" stroke="black" stroke-width="50800.0" points="-0.0 0 0.0 0" transform="translate(14469110.0 10873360.0) rotate(0.0)"/></g></mask></defs><g transform="scale(-1,1)" id="boardContainer"><g id="substrate" clip-path="url(#cut-off)" mask="url(#hole-mask)"><g id="substrate-board" style="fill:#4ca06c; stroke:#4ca06c;"><path d=" M 13453110.0 9484360.0 L 13453110.0 11516360.0 L 16247110.0 11516360.0 L 16247110.0 9484360.0 L 13453110.0 9484360.0 " style="fill-rule: evenodd;"/><g style="fill-opacity: 0.0;stroke-width: 20320.000000;stroke-opacity: 1;stroke-linecap: round;stroke-linejoin: round">
<path d="M16247110 9484360 L13453110 9484360 "/>
<path d="M13453110 11516360 L16247110 11516360 "/>
<path d="M13453110 9484360 L13453110 11516360 "/>
<path d="M16247110 11516360 L16247110 9484360 "/>
</g> 
</g><g id="substrate-clad" style="fill:#9c6b28; stroke:#9c6b28;"><g style="fill-opacity: 0.0;stroke-width: 0.000000;stroke-opacity: 1;stroke-linecap: round;stroke-linejoin: round">
<g style="fill-opacity: 1.0;stroke-width: 0.100000;stroke-opacity: 1;stroke-linecap: round;stroke-linejoin: round">
<circle cx="13580110.000000" cy="10881360.000000" r="104140.000000"/> 
</g>
<g style="fill-opacity: 1.0;stroke-width: 0.100000;stroke-opacity: 1;stroke-linecap: round;stroke-linejoin: round">
<circle cx="16120110.000000" cy="10881360.000000" r="104140.000000"/> 
</g>
<g style="fill-opacity: 1.0;stroke-width: 0.100000;stroke-opacity: 1;stroke-linecap: round;stroke-linejoin: round">
<circle cx="16120110.000000" cy="11135360.000000" r="104140.000000"/> 
</g>
<g style="fill-opacity: 1.0;stroke-width: 0.100000;stroke-opacity: 1;stroke-linecap: round;stroke-linejoin: round">
<circle cx="16120110.000000" cy="11389360.000000" r="104140.000000"/> 
</g>
<g style="fill-opacity: 1.0;stroke-width: 0.100000;stroke-opacity: 1;stroke-linecap: round;stroke-linejoin: round">
<circle cx="13580110.000000" cy="9611360.000000" r="104140.000000"/> 
</g>
<g style="fill-opacity: 1.0;stroke-width: 0.100000;stroke-opacity: 1;stroke-linecap: round;stroke-linejoin: round">
<circle cx="13580110.000000" cy="9865360.000000" r="104140.000000"/> 
</g>
<g style="fill-opacity: 1.0;stroke-width: 0.100000;stroke-opacity: 1;stroke-linecap: round;stroke-linejoin: round">
<circle cx="13580110.000000" cy="10119360.000000" r="104140.000000"/> 
</g>
<g style="fill-opacity: 1.0;stroke-width: 0.100000;stroke-opacity: 1;stroke-linecap: round;stroke-linejoin: round">
<circle cx="13580110.000000" cy="10373360.000000" r="104140.000000"/> 
</g>
<g style="fill-opacity: 1.0;stroke-width: 0.100000;stroke-opacity: 1;stroke-linecap: round;stroke-linejoin: round">
<circle cx="13580110.000000" cy="10627360.000000" r="104140.000000"/> 
</g>
<g style="fill-opacity: 1.0;stroke-width: 0.100000;stroke-opacity: 1;stroke-linecap: round;stroke-linejoin: round">
<circle cx="13580110.000000" cy="11389360.000000" r="104140.000000"/> 
</g>
<g style="fill-opacity: 1.0;stroke-width: 0.100000;stroke-opacity: 1;stroke-linecap: round;stroke-linejoin: round">
<circle cx="13580110.000000" cy="11135360.000000" r="104140.000000"/> 
</g>
<g style="fill-opacity: 1.0;stroke-width: 0.100000;stroke-opacity: 1;stroke-linecap: round;stroke-linejoin: round">
<circle cx="16120110.000000" cy="9611360.000000" r="104140.000000"/> 
</g>
<g style="fill-opacity: 1.0;stroke-width: 0.100000;stroke-opacity: 1;stroke-linecap: round;stroke-linejoin: round">
<circle cx="16120110.000000" cy="9865360.000000" r="104140.000000"/> 
</g>
<g style="fill-opacity: 1.0;stroke-width: 0.100000;stroke-opacity: 1;stroke-linecap: round;stroke-linejoin: round">
<circle cx="16120110.000000" cy="10119360.000000" r="104140.000000"/> 
</g>
<g style="fill-opacity: 1.0;stroke-width: 0.100000;stroke-opacity: 1;stroke-linecap: round;stroke-linejoin: round">
<circle cx="16120110.000000" cy="10373360.000000" r="104140.000000"/> 
</g>
<g style="fill-opacity: 1.0;stroke-width: 0.100000;stroke-opacity: 1;stroke-linecap: round;stroke-linejoin: round">
<circle cx="16120110.000000" cy="10627360.000000" r="104140.000000"/> 
</g>
</g> 
</g><g id="substrate-copper" style="fill:#417e5a; stroke:#417e5a;"><g style="fill-opacity: 0.0;stroke-width: 20320.000000;stroke-opacity: 1;stroke-linecap: round;stroke-linejoin: round">
<text x="15485110.000000" y="11452860.000000" transform="scale(-1 1) translate(-30970220.000000 0)" textLength="224487.500000" font-size="108373.300000" lengthAdjust="spacingAndGlyphs" text-anchor="start" opacity="0">V10</text>
<g class="stroked-text"><desc>V10</desc>
<path d="M15464161 11367709 L15437067 11448989 L15409974 11367709 "/>
<path d="M15340305 11448989 L15386751 11448989 "/>
<path d="M15363528 11448989 L15363528 11367709 L15371269 11379320 L15379010 11387061 L15386751 11390932 "/>
<path d="M15289989 11367709 L15282248 11367709 L15274507 11371580 L15270637 11375450 L15266766 11383191 L15262896 11398673 L15262896 11418025 L15266766 11433507 L15270637 11441248 L15274507 11445119 L15282248 11448989 L15289989 11448989 L15297730 11445119 L15301601 11441248 L15305471 11433507 L15309342 11418025 L15309342 11398673 L15305471 11383191 L15301601 11375450 L15297730 11371580 L15289989 11367709 "/>
</g><g style="fill-opacity: 1.0;stroke-width: 0.100000;stroke-opacity: 1;stroke-linecap: round;stroke-linejoin: round">
<circle cx="13580110.000000" cy="10881360.000000" r="93980.000000"/> 
</g>
<g style="fill-opacity: 1.0;stroke-width: 0.100000;stroke-opacity: 1;stroke-linecap: round;stroke-linejoin: round">
<circle cx="16120110.000000" cy="10881360.000000" r="93980.000000"/> 
</g>
<g style="fill-opacity: 1.0;stroke-width: 0.100000;stroke-opacity: 1;stroke-linecap: round;stroke-linejoin: round">
<circle cx="16120110.000000" cy="11135360.000000" r="93980.000000"/> 
</g>
<g style="fill-opacity: 1.0;stroke-width: 0.100000;stroke-opacity: 1;stroke-linecap: round;stroke-linejoin: round">
<circle cx="16120110.000000" cy="11389360.000000" r="93980.000000"/> 
</g>
<g style="fill-opacity: 1.0;stroke-width: 0.100000;stroke-opacity: 1;stroke-linecap: round;stroke-linejoin: round">
<circle cx="13580110.000000" cy="9611360.000000" r="93980.000000"/> 
</g>
<g style="fill-opacity: 1.0;stroke-width: 0.100000;stroke-opacity: 1;stroke-linecap: round;stroke-linejoin: round">
<circle cx="13580110.000000" cy="9865360.000000" r="93980.000000"/> 
</g>
<g style="fill-opacity: 1.0;stroke-width: 0.100000;stroke-opacity: 1;stroke-linecap: round;stroke-linejoin: round">
<circle cx="13580110.000000" cy="10119360.000000" r="93980.000000"/> 
</g>
<g style="fill-opacity: 1.0;stroke-width: 0.100000;stroke-opacity: 1;stroke-linecap: round;stroke-linejoin: round">
<circle cx="13580110.000000" cy="10373360.000000" r="93980.000000"/> 
</g>
<g style="fill-opacity: 1.0;stroke-width: 0.100000;stroke-opacity: 1;stroke-linecap: round;stroke-linejoin: round">
<circle cx="13580110.000000" cy="10627360.000000" r="93980.000000"/> 
</g>
<g style="fill-opacity: 1.0;stroke-width: 0.100000;stroke-opacity: 1;stroke-linecap: round;stroke-linejoin: round">
<circle cx="13580110.000000" cy="11389360.000000" r="93980.000000"/> 
</g>
<g style="fill-opacity: 1.0;stroke-width: 0.100000;stroke-opacity: 1;stroke-linecap: round;stroke-linejoin: round">
<circle cx="13580110.000000" cy="11135360.000000" r="93980.000000"/> 
</g>
<g style="fill-opacity: 1.0;stroke-width: 0.100000;stroke-opacity: 1;stroke-linecap: round;stroke-linejoin: round">
<circle cx="16120110.000000" cy="9611360.000000" r="93980.000000"/> 
</g>
<g style="fill-opacity: 1.0;stroke-width: 0.100000;stroke-opacity: 1;stroke-linecap: round;stroke-linejoin: round">
<circle cx="16120110.000000" cy="9865360.000000" r="93980.000000"/> 
</g>
<g style="fill-opacity: 1.0;stroke-width: 0.100000;stroke-opacity: 1;stroke-linecap: round;stroke-linejoin: round">
<circle cx="16120110.000000" cy="10119360.000000" r="93980.000000"/> 
</g>
<g style="fill-opacity: 1.0;stroke-width: 0.100000;stroke-opacity: 1;stroke-linecap: round;stroke-linejoin: round">
<circle cx="16120110.000000" cy="10373360.000000" r="93980.000000"/> 
</g>
<g style="fill-opacity: 1.0;stroke-width: 0.100000;stroke-opacity: 1;stroke-linecap: round;stroke-linejoin: round">
<circle cx="16120110.000000" cy="10627360.000000" r="93980.000000"/> 
</g>
<g style="fill-opacity: 1.0;stroke-width: 0.100000;stroke-opacity: 1;stroke-linecap: round;stroke-linejoin: round">
<circle cx="15231110.000000" cy="10405110.000000" r="50800.000000"/> 
</g>
<g style="fill-opacity: 1.0;stroke-width: 0.100000;stroke-opacity: 1;stroke-linecap: round;stroke-linejoin: round">
<circle cx="15231110.000000" cy="11071860.000000" r="50800.000000"/> 
</g>
<g style="fill-opacity: 1.0;stroke-width: 0.100000;stroke-opacity: 1;stroke-linecap: round;stroke-linejoin: round">
<circle cx="14850110.000000" cy="10405110.000000" r="50800.000000"/> 
</g>
<g style="fill-opacity: 1.0;stroke-width: 0.100000;stroke-opacity: 1;stroke-linecap: round;stroke-linejoin: round">
<circle cx="14977110.000000" cy="9674860.000000" r="50800.000000"/> 
</g>
<g style="fill-opacity: 1.0;stroke-width: 0.100000;stroke-opacity: 1;stroke-linecap: round;stroke-linejoin: round">
<circle cx="14469110.000000" cy="11071860.000000" r="50800.000000"/> 
</g>
<g style="fill-opacity: 1.0;stroke-width: 0.100000;stroke-opacity: 1;stroke-linecap: round;stroke-linejoin: round">
<circle cx="14469110.000000" cy="10405110.000000" r="50800.000000"/> 
</g>
<g style="fill-opacity: 1.0;stroke-width: 0.100000;stroke-opacity: 1;stroke-linecap: round;stroke-linejoin: round">
<circle cx="14469110.000000" cy="9674860.000000" r="50800.000000"/> 
</g>
<g style="fill-opacity: 1.0;stroke-width: 0.100000;stroke-opacity: 1;stroke-linecap: round;stroke-linejoin: round">
<circle cx="14723110.000000" cy="9674860.000000" r="50800.000000"/> 
</g>
<g style="fill-opacity: 1.0;stroke-width: 0.100000;stroke-opacity: 1;stroke-linecap: round;stroke-linejoin: round">
<circle cx="14723110.000000" cy="11071860.000000" r="50800.000000"/> 
</g>
<g style="fill-opacity: 1.0;stroke-width: 0.100000;stroke-opacity: 1;stroke-linecap: round;stroke-linejoin: round">
<circle cx="14977110.000000" cy="11071860.000000" r="50800.000000"/> 
</g>
<g style="fill-opacity: 1.0;stroke-width: 0.100000;stroke-opacity: 1;stroke-linecap: round;stroke-linejoin: round">
<circle cx="14850110.000000" cy="11389360.000000" r="50800.000000"/> 
</g>
<g style="fill-opacity: 1.0;stroke-width: 0.100000;stroke-opacity: 1;stroke-linecap: round;stroke-linejoin: round">
<circle cx="14977110.000000" cy="10073360.000000" r="50800.000000"/> 
</g>
<g style="fill-opacity: 1.0;stroke-width: 0.100000;stroke-opacity: 1;stroke-linecap: round;stroke-linejoin: round">
<circle cx="15231110.000000" cy="9673360.000000" r="50800.000000"/> 
</g>
<g style="fill-opacity: 1.0;stroke-width: 0.100000;stroke-opacity: 1;stroke-linecap: round;stroke-linejoin: round">
<circle cx="15231110.000000" cy="10673360.000000" r="50800.000000"/> 
</g>
<g style="fill-opacity: 1.0;stroke-width: 0.100000;stroke-opacity: 1;stroke-linecap: round;stroke-linejoin: round">
<circle cx="14469110.000000" cy="10873360.000000" r="50800.000000"/> 
</g>
<g style="fill-opacity: 0.0;stroke-width: 60960.000000;stroke-opacity: 1;stroke-linecap: round;stroke-linejoin: round">
<path d="M13580110 11389360 L14850110 11389360 "/>
<path d="M14977110 10073360 L14169110 10881360 "/>
<path d="M14169110 10881360 L13580110 10881360 "/>
<path d="M16120110 9865360 L15928110 9673360 "/>
<path d="M15928110 9673360 L15231110 9673360 "/>
<path d="M16120110 10119360 L15785110 10119360 "/>
<path d="M15785110 10119360 L15231110 10673360 "/>
<path d="M14469110 10873360 L15366110 10873360 "/>
<path d="M16120110 10627360 L15612110 10627360 "/>
<path d="M15366110 10873360 L15612110 10627360 "/>
</g>
</g> 
</g><g id="substrate-pads" style="fill:#b5ae30; stroke:#b5ae30;" mask="url(#pads-mask)"><g style="fill-opacity: 0.0;stroke-width: 20320.000000;stroke-opacity: 1;stroke-linecap: round;stroke-linejoin: round">
<text x="15485110.000000" y="11452860.000000" transform="scale(-1 1) translate(-30970220.000000 0)" textLength="198071.600000" font-size="108373.300000" lengthAdjust="spacingAndGlyphs" text-anchor="start" opacity="0">V10</text>
<g class="stroked-text"><desc>V10</desc>
<path d="M15464161 11367709 L15437067 11448989 L15409974 11367709 "/>
<path d="M15340305 11448989 L15386751 11448989 "/>
<path d="M15363528 11448989 L15363528 11367709 L15371269 11379320 L15379010 11387061 L15386751 11390932 "/>
<path d="M15289989 11367709 L15282248 11367709 L15274507 11371580 L15270637 11375450 L15266766 11383191 L15262896 11398673 L15262896 11418025 L15266766 11433507 L15270637 11441248 L15274507 11445119 L15282248 11448989 L15289989 11448989 L15297730 11445119 L15301601 11441248 L15305471 11433507 L15309342 11418025 L15309342 11398673 L15305471 11383191 L15301601 11375450 L15297730 11371580 L15289989 11367709 "/>
</g><g style="fill-opacity: 1.0;stroke-width: 0.100000;stroke-opacity: 1;stroke-linecap: round;stroke-linejoin: round">
<circle cx="13580110.000000" cy="10881360.000000" r="93980.000000"/> 
</g>
<g style="fill-opacity: 1.0;stroke-width: 0.100000;stroke-opacity: 1;stroke-linecap: round;stroke-linejoin: round">
<circle cx="16120110.000000" cy="10881360.000000" r="93980.000000"/> 
</g>
<g style="fill-opacity: 1.0;stroke-width: 0.100000;stroke-opacity: 1;stroke-linecap: round;stroke-linejoin: round">
<circle cx="16120110.000000" cy="11135360.000000" r="93980.000000"/> 
</g>
<g style="fill-opacity: 1.0;stroke-width: 0.100000;stroke-opacity: 1;stroke-linecap: round;stroke-linejoin: round">
<circle cx="16120110.000000" cy="11389360.000000" r="93980.000000"/> 
</g>
<g style="fill-opacity: 1.0;stroke-width: 0.100000;stroke-opacity: 1;stroke-linecap: round;stroke-linejoin: round">
<circle cx="13580110.000000" cy="9611360.000000" r="93980.000000"/> 
</g>
<g style="fill-opacity: 1.0;stroke-width: 0.100000;stroke-opacity: 1;stroke-linecap: round;stroke-linejoin: round">
<circle cx="13580110.000000" cy="9865360.000000" r="93980.000000"/> 
</g>
<g style="fill-opacity: 1.0;stroke-width: 0.100000;stroke-opacity: 1;stroke-linecap: round;stroke-linejoin: round">
<circle cx="13580110.000000" cy="10119360.000000" r="93980.000000"/> 
</g>
<g style="fill-opacity: 1.0;stroke-width: 0.100000;stroke-opacity: 1;stroke-linecap: round;stroke-linejoin: round">
<circle cx="13580110.000000" cy="10373360.000000" r="93980.000000"/> 
</g>
<g style="fill-opacity: 1.0;stroke-width: 0.100000;stroke-opacity: 1;stroke-linecap: round;stroke-linejoin: round">
<circle cx="13580110.000000" cy="10627360.000000" r="93980.000000"/> 
</g>
<g style="fill-opacity: 1.0;stroke-width: 0.100000;stroke-opacity: 1;stroke-linecap: round;stroke-linejoin: round">
<circle cx="13580110.000000" cy="11389360.000000" r="93980.000000"/> 
</g>
<g style="fill-opacity: 1.0;stroke-width: 0.100000;stroke-opacity: 1;stroke-linecap: round;stroke-linejoin: round">
<circle cx="13580110.000000" cy="11135360.000000" r="93980.000000"/> 
</g>
<g style="fill-opacity: 1.0;stroke-width: 0.100000;stroke-opacity: 1;stroke-linecap: round;stroke-linejoin: round">
<circle cx="16120110.000000" cy="9611360.000000" r="93980.000000"/> 
</g>
<g style="fill-opacity: 1.0;stroke-width: 0.100000;stroke-opacity: 1;stroke-linecap: round;stroke-linejoin: round">
<circle cx="16120110.000000" cy="9865360.000000" r="93980.000000"/> 
</g>
<g style="fill-opacity: 1.0;stroke-width: 0.100000;stroke-opacity: 1;stroke-linecap: round;stroke-linejoin: round">
<circle cx="16120110.000000" cy="10119360.000000" r="93980.000000"/> 
</g>
<g style="fill-opacity: 1.0;stroke-width: 0.100000;stroke-opacity: 1;stroke-linecap: round;stroke-linejoin: round">
<circle cx="16120110.000000" cy="10373360.000000" r="93980.000000"/> 
</g>
<g style="fill-opacity: 1.0;stroke-width: 0.100000;stroke-opacity: 1;stroke-linecap: round;stroke-linejoin: round">
<circle cx="16120110.000000" cy="10627360.000000" r="93980.000000"/> 
</g>
<g style="fill-opacity: 1.0;stroke-width: 0.100000;stroke-opacity: 1;stroke-linecap: round;stroke-linejoin: round">
<circle cx="15231110.000000" cy="10405110.000000" r="50800.000000"/> 
</g>
<g style="fill-opacity: 1.0;stroke-width: 0.100000;stroke-opacity: 1;stroke-linecap: round;stroke-linejoin: round">
<circle cx="15231110.000000" cy="11071860.000000" r="50800.000000"/> 
</g>
<g style="fill-opacity: 1.0;stroke-width: 0.100000;stroke-opacity: 1;stroke-linecap: round;stroke-linejoin: round">
<circle cx="14850110.000000" cy="10405110.000000" r="50800.000000"/> 
</g>
<g style="fill-opacity: 1.0;stroke-width: 0.100000;stroke-opacity: 1;stroke-linecap: round;stroke-linejoin: round">
<circle cx="14977110.000000" cy="9674860.000000" r="50800.000000"/> 
</g>
<g style="fill-opacity: 1.0;stroke-width: 0.100000;stroke-opacity: 1;stroke-linecap: round;stroke-linejoin: round">
<circle cx="14469110.000000" cy="11071860.000000" r="50800.000000"/> 
</g>
<g style="fill-opacity: 1.0;stroke-width: 0.100000;stroke-opacity: 1;stroke-linecap: round;stroke-linejoin: round">
<circle cx="14469110.000000" cy="10405110.000000" r="50800.000000"/> 
</g>
<g style="fill-opacity: 1.0;stroke-width: 0.100000;stroke-opacity: 1;stroke-linecap: round;stroke-linejoin: round">
<circle cx="14469110.000000" cy="9674860.000000" r="50800.000000"/> 
</g>
<g style="fill-opacity: 1.0;stroke-width: 0.100000;stroke-opacity: 1;stroke-linecap: round;stroke-linejoin: round">
<circle cx="14723110.000000" cy="9674860.000000" r="50800.000000"/> 
</g>
<g style="fill-opacity: 1.0;stroke-width: 0.100000;stroke-opacity: 1;stroke-linecap: round;stroke-linejoin: round">
<circle cx="14723110.000000" cy="11071860.000000" r="50800.000000"/> 
</g>
<g style="fill-opacity: 1.0;stroke-width: 0.100000;stroke-opacity: 1;stroke-linecap: round;stroke-linejoin: round">
<circle cx="14977110.000000" cy="11071860.000000" r="50800.000000"/> 
</g>
<g style="fill-opacity: 1.0;stroke-width: 0.100000;stroke-opacity: 1;stroke-linecap: round;stroke-linejoin: round">
<circle cx="14850110.000000" cy="11389360.000000" r="50800.000000"/> 
</g>
<g style="fill-opacity: 1.0;stroke-width: 0.100000;stroke-opacity: 1;stroke-linecap: round;stroke-linejoin: round">
<circle cx="14977110.000000" cy="10073360.000000" r="50800.000000"/> 
</g>
<g style="fill-opacity: 1.0;stroke-width: 0.100000;stroke-opacity: 1;stroke-linecap: round;stroke-linejoin: round">
<circle cx="15231110.000000" cy="9673360.000000" r="50800.000000"/> 
</g>
<g style="fill-opacity: 1.0;stroke-width: 0.100000;stroke-opacity: 1;stroke-linecap: round;stroke-linejoin: round">
<circle cx="15231110.000000" cy="10673360.000000" r="50800.000000"/> 
</g>
<g style="fill-opacity: 1.0;stroke-width: 0.100000;stroke-opacity: 1;stroke-linecap: round;stroke-linejoin: round">
<circle cx="14469110.000000" cy="10873360.000000" r="50800.000000"/> 
</g>
<g style="fill-opacity: 0.0;stroke-width: 60960.000000;stroke-opacity: 1;stroke-linecap: round;stroke-linejoin: round">
<path d="M13580110 11389360 L14850110 11389360 "/>
<path d="M14977110 10073360 L14169110 10881360 "/>
<path d="M14169110 10881360 L13580110 10881360 "/>
<path d="M16120110 9865360 L15928110 9673360 "/>
<path d="M15928110 9673360 L15231110 9673360 "/>
<path d="M16120110 10119360 L15785110 10119360 "/>
<path d="M15785110 10119360 L15231110 10673360 "/>
<path d="M14469110 10873360 L15366110 10873360 "/>
<path d="M16120110 10627360 L15612110 10627360 "/>
<path d="M15366110 10873360 L15612110 10627360 "/>
</g>
</g> 
</g><g id="substrate-silk" style="fill:#f0f0f0; stroke:#f0f0f0;" mask="url(#pads-mask-silkscreen)"><g style="fill-opacity: 0.0;stroke-width: 25400.000000;stroke-opacity: 1;stroke-linecap: round;stroke-linejoin: round">
<circle cx="16120110.000000" cy="11135360.000000" r="127000.000000"/> 
</g>
<g style="fill-opacity: 0.0;stroke-width: 19050.000000;stroke-opacity: 1;stroke-linecap: round;stroke-linejoin: round">
<text x="13707110.000000" y="10436860.000000" transform="scale(-1 1) translate(-27414220.000000 0)" textLength="292293.500000" font-size="143933.300000" lengthAdjust="spacingAndGlyphs" text-anchor="end" opacity="0">NSS</text>
<g class="stroked-text"><desc>NSS</desc>
<path d="M14012499 10431719 L14012499 10323769 L13950813 10431719 L13950813 10323769 "/>
<path d="M13904549 10426579 L13889128 10431719 L13863425 10431719 L13853144 10426579 L13848004 10421438 L13842863 10411157 L13842863 10400876 L13848004 10390595 L13853144 10385455 L13863425 10380314 L13883987 10375174 L13894268 10370033 L13899409 10364893 L13904549 10354612 L13904549 10344331 L13899409 10334050 L13894268 10328910 L13883987 10323769 L13858285 10323769 L13842863 10328910 "/>
<path d="M13801740 10426579 L13786318 10431719 L13760616 10431719 L13750335 10426579 L13745194 10421438 L13740054 10411157 L13740054 10400876 L13745194 10390595 L13750335 10385455 L13760616 10380314 L13781178 10375174 L13791459 10370033 L13796599 10364893 L13801740 10354612 L13801740 10344331 L13796599 10334050 L13791459 10328910 L13781178 10323769 L13755475 10323769 L13740054 10328910 "/>
</g><text x="15961360.000000" y="11452860.000000" transform="scale(-1 1) translate(-31922720.000000 0)" textLength="304225.500000" font-size="143933.300000" lengthAdjust="spacingAndGlyphs" text-anchor="start" opacity="0">GND</text>
<g class="stroked-text"><desc>GND</desc>
<path d="M15866729 11344910 L15877010 11339769 L15892432 11339769 L15907853 11344910 L15918134 11355190 L15923275 11365471 L15928415 11386033 L15928415 11401455 L15923275 11422017 L15918134 11432298 L15907853 11442579 L15892432 11447719 L15882151 11447719 L15866729 11442579 L15861589 11437438 L15861589 11401455 L15882151 11401455 "/>
<path d="M15815325 11447719 L15815325 11339769 L15753639 11447719 L15753639 11339769 "/>
<path d="M15702234 11447719 L15702234 11339769 L15676532 11339769 L15661110 11344910 L15650829 11355190 L15645689 11365471 L15640548 11386033 L15640548 11401455 L15645689 11422017 L15650829 11432298 L15661110 11442579 L15676532 11447719 L15702234 11447719 "/>
</g><text x="13707110.000000" y="10944860.000000" transform="scale(-1 1) translate(-27414220.000000 0)" textLength="350489.800000" font-size="143933.300000" lengthAdjust="spacingAndGlyphs" text-anchor="end" opacity="0">DIO0</text>
<g class="stroked-text"><desc>DIO0</desc>
<path d="M14069044 10939719 L14069044 10831769 L14043342 10831769 L14027921 10836910 L14017640 10847190 L14012499 10857471 L14007359 10878033 L14007359 10893455 L14012499 10914017 L14017640 10924298 L14027921 10934579 L14043342 10939719 L14069044 10939719 "/>
<path d="M13961094 10939719 L13961094 10831769 "/>
<path d="M13889128 10831769 L13868566 10831769 L13858285 10836910 L13848004 10847190 L13842863 10867752 L13842863 10903736 L13848004 10924298 L13858285 10934579 L13868566 10939719 L13889128 10939719 L13899409 10934579 L13909690 10924298 L13914830 10903736 L13914830 10867752 L13909690 10847190 L13899409 10836910 L13889128 10831769 "/>
<path d="M13776037 10831769 L13765756 10831769 L13755475 10836910 L13750335 10842050 L13745194 10852331 L13740054 10872893 L13740054 10898595 L13745194 10919157 L13750335 10929438 L13755475 10934579 L13765756 10939719 L13776037 10939719 L13786318 10934579 L13791459 10929438 L13796599 10919157 L13801740 10898595 L13801740 10872893 L13796599 10852331 L13791459 10842050 L13786318 10836910 L13776037 10831769 "/>
</g><text x="15961360.000000" y="10944860.000000" transform="scale(-1 1) translate(-31922720.000000 0)" textLength="304225.500000" font-size="143933.300000" lengthAdjust="spacingAndGlyphs" text-anchor="start" opacity="0">GND</text>
<g class="stroked-text"><desc>GND</desc>
<path d="M15866729 10836910 L15877010 10831769 L15892432 10831769 L15907853 10836910 L15918134 10847190 L15923275 10857471 L15928415 10878033 L15928415 10893455 L15923275 10914017 L15918134 10924298 L15907853 10934579 L15892432 10939719 L15882151 10939719 L15866729 10934579 L15861589 10929438 L15861589 10893455 L15882151 10893455 "/>
<path d="M15815325 10939719 L15815325 10831769 L15753639 10939719 L15753639 10831769 "/>
<path d="M15702234 10939719 L15702234 10831769 L15676532 10831769 L15661110 10836910 L15650829 10847190 L15645689 10857471 L15640548 10878033 L15640548 10893455 L15645689 10914017 L15650829 10924298 L15661110 10934579 L15676532 10939719 L15702234 10939719 "/>
</g><text x="15961360.000000" y="9674860.000000" transform="scale(-1 1) translate(-31922720.000000 0)" textLength="350489.800000" font-size="143933.300000" lengthAdjust="spacingAndGlyphs" text-anchor="start" opacity="0">DIO1</text>
<g class="stroked-text"><desc>DIO1</desc>
<path d="M15923275 9669719 L15923275 9561769 L15897572 9561769 L15882151 9566910 L15871870 9577190 L15866729 9587471 L15861589 9608033 L15861589 9623455 L15866729 9644017 L15871870 9654298 L15882151 9664579 L15897572 9669719 L15923275 9669719 "/>
<path d="M15815325 9669719 L15815325 9561769 "/>
<path d="M15743358 9561769 L15722796 9561769 L15712515 9566910 L15702234 9577190 L15697094 9597752 L15697094 9633736 L15702234 9654298 L15712515 9664579 L15722796 9669719 L15743358 9669719 L15753639 9664579 L15763920 9654298 L15769060 9633736 L15769060 9597752 L15763920 9577190 L15753639 9566910 L15743358 9561769 "/>
<path d="M15594284 9669719 L15655970 9669719 "/>
<path d="M15625127 9669719 L15625127 9561769 L15635408 9577190 L15645689 9587471 L15655970 9592612 "/>
</g><text x="13707110.000000" y="11452860.000000" transform="scale(-1 1) translate(-27414220.000000 0)" textLength="324787.400000" font-size="143933.300000" lengthAdjust="spacingAndGlyphs" text-anchor="end" opacity="0">3.3V</text>
<g class="stroked-text"><desc>3.3V</desc>
<path d="M14053623 11339769 L13986797 11339769 L14022780 11380893 L14007359 11380893 L13997078 11386033 L13991937 11391174 L13986797 11401455 L13986797 11427157 L13991937 11437438 L13997078 11442579 L14007359 11447719 L14038202 11447719 L14048482 11442579 L14053623 11437438 "/>
<path d="M13940532 11437438 L13935392 11442579 L13940532 11447719 L13945673 11442579 L13940532 11437438 L13940532 11447719 "/>
<path d="M13899409 11339769 L13832582 11339769 L13868566 11380893 L13853144 11380893 L13842863 11386033 L13837723 11391174 L13832582 11401455 L13832582 11427157 L13837723 11437438 L13842863 11442579 L13853144 11447719 L13883987 11447719 L13894268 11442579 L13899409 11437438 "/>
<path d="M13801740 11339769 L13765756 11447719 L13729773 11339769 "/>
</g><text x="14850110.000000" y="10182860.000000" transform="scale(-1 1) translate(-29700220.000000 0)" textLength="849116.000000" font-size="143933.300000" lengthAdjust="spacingAndGlyphs" text-anchor="middle" opacity="0">RFM69HCW</text>
<g class="stroked-text"><desc>RFM69HCW</desc>
<path d="M15199662 10177719 L15235645 10126314 "/>
<path d="M15261348 10177719 L15261348 10069769 L15220224 10069769 L15209943 10074910 L15204802 10080050 L15199662 10090331 L15199662 10105752 L15204802 10116033 L15209943 10121174 L15220224 10126314 L15261348 10126314 "/>
<path d="M15117414 10121174 L15153398 10121174 "/>
<path d="M15153398 10177719 L15153398 10069769 L15101993 10069769 "/>
<path d="M15060869 10177719 L15060869 10069769 L15024886 10146876 L14988902 10069769 L14988902 10177719 "/>
<path d="M14891233 10069769 L14911795 10069769 L14922076 10074910 L14927217 10080050 L14937498 10095471 L14942638 10116033 L14942638 10157157 L14937498 10167438 L14932357 10172579 L14922076 10177719 L14901514 10177719 L14891233 10172579 L14886093 10167438 L14880952 10157157 L14880952 10131455 L14886093 10121174 L14891233 10116033 L14901514 10110893 L14922076 10110893 L14932357 10116033 L14937498 10121174 L14942638 10131455 "/>
<path d="M14829548 10177719 L14808986 10177719 L14798705 10172579 L14793564 10167438 L14783283 10152017 L14778143 10131455 L14778143 10090331 L14783283 10080050 L14788424 10074910 L14798705 10069769 L14819267 10069769 L14829548 10074910 L14834688 10080050 L14839829 10090331 L14839829 10116033 L14834688 10126314 L14829548 10131455 L14819267 10136595 L14798705 10136595 L14788424 10131455 L14783283 10126314 L14778143 10116033 "/>
<path d="M14731879 10177719 L14731879 10069769 "/>
<path d="M14731879 10121174 L14670193 10121174 "/>
<path d="M14670193 10177719 L14670193 10069769 "/>
<path d="M14557102 10167438 L14562243 10172579 L14577664 10177719 L14587945 10177719 L14603367 10172579 L14613648 10162298 L14618788 10152017 L14623929 10131455 L14623929 10116033 L14618788 10095471 L14613648 10085190 L14603367 10074910 L14587945 10069769 L14577664 10069769 L14562243 10074910 L14557102 10080050 "/>
<path d="M14521119 10069769 L14495417 10177719 L14474855 10100612 L14454293 10177719 L14428590 10069769 "/>
</g><text x="15961360.000000" y="9928860.000000" transform="scale(-1 1) translate(-31922720.000000 0)" textLength="350489.800000" font-size="143933.300000" lengthAdjust="spacingAndGlyphs" text-anchor="start" opacity="0">DIO2</text>
<g class="stroked-text"><desc>DIO2</desc>
<path d="M15923275 9923719 L15923275 9815769 L15897572 9815769 L15882151 9820910 L15871870 9831190 L15866729 9841471 L15861589 9862033 L15861589 9877455 L15866729 9898017 L15871870 9908298 L15882151 9918579 L15897572 9923719 L15923275 9923719 "/>
<path d="M15815325 9923719 L15815325 9815769 "/>
<path d="M15743358 9815769 L15722796 9815769 L15712515 9820910 L15702234 9831190 L15697094 9851752 L15697094 9887736 L15702234 9908298 L15712515 9918579 L15722796 9923719 L15743358 9923719 L15753639 9918579 L15763920 9908298 L15769060 9887736 L15769060 9851752 L15763920 9831190 L15753639 9820910 L15743358 9815769 "/>
<path d="M15655970 9826050 L15650829 9820910 L15640548 9815769 L15614846 9815769 L15604565 9820910 L15599425 9826050 L15594284 9836331 L15594284 9846612 L15599425 9862033 L15661110 9923719 L15594284 9923719 "/>
</g><text x="13707110.000000" y="9928860.000000" transform="scale(-1 1) translate(-27414220.000000 0)" textLength="365911.200000" font-size="143933.300000" lengthAdjust="spacingAndGlyphs" text-anchor="end" opacity="0">MOSI</text>
<g class="stroked-text"><desc>MOSI</desc>
<path d="M14084466 9923719 L14084466 9815769 L14048482 9892876 L14012499 9815769 L14012499 9923719 "/>
<path d="M13940532 9815769 L13919971 9815769 L13909690 9820910 L13899409 9831190 L13894268 9851752 L13894268 9887736 L13899409 9908298 L13909690 9918579 L13919971 9923719 L13940532 9923719 L13950813 9918579 L13961094 9908298 L13966235 9887736 L13966235 9851752 L13961094 9831190 L13950813 9820910 L13940532 9815769 "/>
<path d="M13853144 9918579 L13837723 9923719 L13812021 9923719 L13801740 9918579 L13796599 9913438 L13791459 9903157 L13791459 9892876 L13796599 9882595 L13801740 9877455 L13812021 9872314 L13832582 9867174 L13842863 9862033 L13848004 9856893 L13853144 9846612 L13853144 9836331 L13848004 9826050 L13842863 9820910 L13832582 9815769 L13806880 9815769 L13791459 9820910 "/>
<path d="M13745194 9923719 L13745194 9815769 "/>
</g><text x="15421610.000000" y="11262360.000000" transform="scale(-1 1) translate(-30843220.000000 0)" textLength="1136982.600000" font-size="143933.300000" lengthAdjust="spacingAndGlyphs" text-anchor="start" opacity="0">(6.5" 164mm)</text>
<g class="stroked-text"><desc>(6.5" 164mm)</desc>
<path d="M15352682 11298343 L15357822 11293202 L15368103 11277781 L15373244 11267500 L15378384 11252079 L15383525 11226376 L15383525 11205814 L15378384 11180112 L15373244 11164690 L15368103 11154410 L15357822 11138988 L15352682 11133848 "/>
<path d="M15265294 11149269 L15285856 11149269 L15296137 11154410 L15301277 11159550 L15311558 11174971 L15316698 11195533 L15316698 11236657 L15311558 11246938 L15306417 11252079 L15296137 11257219 L15275575 11257219 L15265294 11252079 L15260153 11246938 L15255013 11236657 L15255013 11210955 L15260153 11200674 L15265294 11195533 L15275575 11190393 L15296137 11190393 L15306417 11195533 L15311558 11200674 L15316698 11210955 "/>
<path d="M15208748 11246938 L15203608 11252079 L15208748 11257219 L15213889 11252079 L15208748 11246938 L15208748 11257219 "/>
<path d="M15105939 11149269 L15157344 11149269 L15162484 11200674 L15157344 11195533 L15147063 11190393 L15121360 11190393 L15111079 11195533 L15105939 11200674 L15100798 11210955 L15100798 11236657 L15105939 11246938 L15111079 11252079 L15121360 11257219 L15147063 11257219 L15157344 11252079 L15162484 11246938 "/>
<path d="M15059675 11149269 L15059675 11169831 "/>
<path d="M15018551 11149269 L15018551 11169831 "/>
<path d="M14833494 11257219 L14895179 11257219 "/>
<path d="M14864337 11257219 L14864337 11149269 L14874617 11164690 L14884898 11174971 L14895179 11180112 "/>
<path d="M14740965 11149269 L14761527 11149269 L14771808 11154410 L14776948 11159550 L14787229 11174971 L14792370 11195533 L14792370 11236657 L14787229 11246938 L14782089 11252079 L14771808 11257219 L14751246 11257219 L14740965 11252079 L14735825 11246938 L14730684 11236657 L14730684 11210955 L14735825 11200674 L14740965 11195533 L14751246 11190393 L14771808 11190393 L14782089 11195533 L14787229 11200674 L14792370 11210955 "/>
<path d="M14638156 11185252 L14638156 11257219 "/>
<path d="M14663858 11144129 L14689560 11221236 L14622734 11221236 "/>
<path d="M14581610 11257219 L14581610 11185252 "/>
<path d="M14581610 11195533 L14576470 11190393 L14566189 11185252 L14550767 11185252 L14540487 11190393 L14535346 11200674 L14535346 11257219 "/>
<path d="M14535346 11200674 L14530206 11190393 L14519925 11185252 L14504503 11185252 L14494222 11190393 L14489082 11200674 L14489082 11257219 "/>
<path d="M14437677 11257219 L14437677 11185252 "/>
<path d="M14437677 11195533 L14432537 11190393 L14422256 11185252 L14406834 11185252 L14396553 11190393 L14391413 11200674 L14391413 11257219 "/>
<path d="M14391413 11200674 L14386272 11190393 L14375991 11185252 L14360570 11185252 L14350289 11190393 L14345148 11200674 L14345148 11257219 "/>
<path d="M14304025 11298343 L14298884 11293202 L14288603 11277781 L14283463 11267500 L14278322 11252079 L14273182 11226376 L14273182 11205814 L14278322 11180112 L14283463 11164690 L14288603 11154410 L14298884 11138988 L14304025 11133848 "/>
</g><text x="15961360.000000" y="10690860.000000" transform="scale(-1 1) translate(-31922720.000000 0)" textLength="350489.800000" font-size="143933.300000" lengthAdjust="spacingAndGlyphs" text-anchor="start" opacity="0">DIO5</text>
<g class="stroked-text"><desc>DIO5</desc>
<path d="M15923275 10685719 L15923275 10577769 L15897572 10577769 L15882151 10582910 L15871870 10593190 L15866729 10603471 L15861589 10624033 L15861589 10639455 L15866729 10660017 L15871870 10670298 L15882151 10680579 L15897572 10685719 L15923275 10685719 "/>
<path d="M15815325 10685719 L15815325 10577769 "/>
<path d="M15743358 10577769 L15722796 10577769 L15712515 10582910 L15702234 10593190 L15697094 10613752 L15697094 10649736 L15702234 10670298 L15712515 10680579 L15722796 10685719 L15743358 10685719 L15753639 10680579 L15763920 10670298 L15769060 10649736 L15769060 10613752 L15763920 10593190 L15753639 10582910 L15743358 10577769 "/>
<path d="M15599425 10577769 L15650829 10577769 L15655970 10629174 L15650829 10624033 L15640548 10618893 L15614846 10618893 L15604565 10624033 L15599425 10629174 L15594284 10639455 L15594284 10665157 L15599425 10675438 L15604565 10680579 L15614846 10685719 L15640548 10685719 L15650829 10680579 L15655970 10675438 "/>
</g><text x="13707110.000000" y="10182860.000000" transform="scale(-1 1) translate(-27414220.000000 0)" textLength="293944.500000" font-size="143933.300000" lengthAdjust="spacingAndGlyphs" text-anchor="end" opacity="0">SCK</text>
<g class="stroked-text"><desc>SCK</desc>
<path d="M14017640 10172579 L14002218 10177719 L13976516 10177719 L13966235 10172579 L13961094 10167438 L13955954 10157157 L13955954 10146876 L13961094 10136595 L13966235 10131455 L13976516 10126314 L13997078 10121174 L14007359 10116033 L14012499 10110893 L14017640 10100612 L14017640 10090331 L14012499 10080050 L14007359 10074910 L13997078 10069769 L13971375 10069769 L13955954 10074910 "/>
<path d="M13848004 10167438 L13853144 10172579 L13868566 10177719 L13878847 10177719 L13894268 10172579 L13904549 10162298 L13909690 10152017 L13914830 10131455 L13914830 10116033 L13909690 10095471 L13904549 10085190 L13894268 10074910 L13878847 10069769 L13868566 10069769 L13853144 10074910 L13848004 10080050 "/>
<path d="M13801740 10177719 L13801740 10069769 "/>
<path d="M13740054 10177719 L13786318 10116033 "/>
<path d="M13740054 10069769 L13801740 10131455 "/>
</g><text x="13707110.000000" y="11198860.000000" transform="scale(-1 1) translate(-27414220.000000 0)" textLength="304225.500000" font-size="143933.300000" lengthAdjust="spacingAndGlyphs" text-anchor="end" opacity="0">GND</text>
<g class="stroked-text"><desc>GND</desc>
<path d="M13966235 11090910 L13976516 11085769 L13991937 11085769 L14007359 11090910 L14017640 11101190 L14022780 11111471 L14027921 11132033 L14027921 11147455 L14022780 11168017 L14017640 11178298 L14007359 11188579 L13991937 11193719 L13981656 11193719 L13966235 11188579 L13961094 11183438 L13961094 11147455 L13981656 11147455 "/>
<path d="M13914830 11193719 L13914830 11085769 L13853144 11193719 L13853144 11085769 "/>
<path d="M13801740 11193719 L13801740 11085769 L13776037 11085769 L13760616 11090910 L13750335 11101190 L13745194 11111471 L13740054 11132033 L13740054 11147455 L13745194 11168017 L13750335 11178298 L13760616 11188579 L13776037 11193719 L13801740 11193719 "/>
</g><text x="15961360.000000" y="10182860.000000" transform="scale(-1 1) translate(-31922720.000000 0)" textLength="350489.800000" font-size="143933.300000" lengthAdjust="spacingAndGlyphs" text-anchor="start" opacity="0">DIO3</text>
<g class="stroked-text"><desc>DIO3</desc>
<path d="M15923275 10177719 L15923275 10069769 L15897572 10069769 L15882151 10074910 L15871870 10085190 L15866729 10095471 L15861589 10116033 L15861589 10131455 L15866729 10152017 L15871870 10162298 L15882151 10172579 L15897572 10177719 L15923275 10177719 "/>
<path d="M15815325 10177719 L15815325 10069769 "/>
<path d="M15743358 10069769 L15722796 10069769 L15712515 10074910 L15702234 10085190 L15697094 10105752 L15697094 10141736 L15702234 10162298 L15712515 10172579 L15722796 10177719 L15743358 10177719 L15753639 10172579 L15763920 10162298 L15769060 10141736 L15769060 10105752 L15763920 10085190 L15753639 10074910 L15743358 10069769 "/>
<path d="M15661110 10069769 L15594284 10069769 L15630267 10110893 L15614846 10110893 L15604565 10116033 L15599425 10121174 L15594284 10131455 L15594284 10157157 L15599425 10167438 L15604565 10172579 L15614846 10177719 L15645689 10177719 L15655970 10172579 L15661110 10167438 "/>
</g><text x="13707110.000000" y="10690860.000000" transform="scale(-1 1) translate(-27414220.000000 0)" textLength="463580.200000" font-size="143933.300000" lengthAdjust="spacingAndGlyphs" text-anchor="end" opacity="0">RESET</text>
<g class="stroked-text"><desc>RESET</desc>
<path d="M14120449 10685719 L14156432 10634314 "/>
<path d="M14182135 10685719 L14182135 10577769 L14141011 10577769 L14130730 10582910 L14125590 10588050 L14120449 10598331 L14120449 10613752 L14125590 10624033 L14130730 10629174 L14141011 10634314 L14182135 10634314 "/>
<path d="M14074185 10629174 L14038202 10629174 "/>
<path d="M14022780 10685719 L14074185 10685719 L14074185 10577769 L14022780 10577769 "/>
<path d="M13981656 10680579 L13966235 10685719 L13940532 10685719 L13930252 10680579 L13925111 10675438 L13919971 10665157 L13919971 10654876 L13925111 10644595 L13930252 10639455 L13940532 10634314 L13961094 10629174 L13971375 10624033 L13976516 10618893 L13981656 10608612 L13981656 10598331 L13976516 10588050 L13971375 10582910 L13961094 10577769 L13935392 10577769 L13919971 10582910 "/>
<path d="M13873706 10629174 L13837723 10629174 "/>
<path d="M13822302 10685719 L13873706 10685719 L13873706 10577769 L13822302 10577769 "/>
<path d="M13791459 10577769 L13729773 10577769 "/>
<path d="M13760616 10685719 L13760616 10577769 "/>
</g><text x="15421610.000000" y="10881360.000000" transform="scale(-1 1) translate(-30843220.000000 0)" textLength="1034173.100000" font-size="143933.300000" lengthAdjust="spacingAndGlyphs" text-anchor="start" opacity="0">(3.1" 78mm)</text>
<g class="stroked-text"><desc>(3.1" 78mm)</desc>
<path d="M15352682 10917343 L15357822 10912202 L15368103 10896781 L15373244 10886500 L15378384 10871079 L15383525 10845376 L15383525 10824814 L15378384 10799112 L15373244 10783690 L15368103 10773410 L15357822 10757988 L15352682 10752848 "/>
<path d="M15321839 10768269 L15255013 10768269 L15290996 10809393 L15275575 10809393 L15265294 10814533 L15260153 10819674 L15255013 10829955 L15255013 10855657 L15260153 10865938 L15265294 10871079 L15275575 10876219 L15306417 10876219 L15316698 10871079 L15321839 10865938 "/>
<path d="M15208748 10865938 L15203608 10871079 L15208748 10876219 L15213889 10871079 L15208748 10865938 L15208748 10876219 "/>
<path d="M15100798 10876219 L15162484 10876219 "/>
<path d="M15131641 10876219 L15131641 10768269 L15141922 10783690 L15152203 10793971 L15162484 10799112 "/>
<path d="M15059675 10768269 L15059675 10788831 "/>
<path d="M15018551 10768269 L15018551 10788831 "/>
<path d="M14900320 10768269 L14828353 10768269 L14874617 10876219 "/>
<path d="M14771808 10814533 L14782089 10809393 L14787229 10804252 L14792370 10793971 L14792370 10788831 L14787229 10778550 L14782089 10773410 L14771808 10768269 L14751246 10768269 L14740965 10773410 L14735825 10778550 L14730684 10788831 L14730684 10793971 L14735825 10804252 L14740965 10809393 L14751246 10814533 L14771808 10814533 L14782089 10819674 L14787229 10824814 L14792370 10835095 L14792370 10855657 L14787229 10865938 L14782089 10871079 L14771808 10876219 L14751246 10876219 L14740965 10871079 L14735825 10865938 L14730684 10855657 L14730684 10835095 L14735825 10824814 L14740965 10819674 L14751246 10814533 "/>
<path d="M14684420 10876219 L14684420 10804252 "/>
<path d="M14684420 10814533 L14679279 10809393 L14668998 10804252 L14653577 10804252 L14643296 10809393 L14638156 10819674 L14638156 10876219 "/>
<path d="M14638156 10819674 L14633015 10809393 L14622734 10804252 L14607313 10804252 L14597032 10809393 L14591891 10819674 L14591891 10876219 "/>
<path d="M14540487 10876219 L14540487 10804252 "/>
<path d="M14540487 10814533 L14535346 10809393 L14525065 10804252 L14509644 10804252 L14499363 10809393 L14494222 10819674 L14494222 10876219 "/>
<path d="M14494222 10819674 L14489082 10809393 L14478801 10804252 L14463379 10804252 L14453098 10809393 L14447958 10819674 L14447958 10876219 "/>
<path d="M14406834 10917343 L14401694 10912202 L14391413 10896781 L14386272 10886500 L14381132 10871079 L14375991 10845376 L14375991 10824814 L14381132 10799112 L14386272 10783690 L14391413 10773410 L14401694 10757988 L14406834 10752848 "/>
</g><text x="15961360.000000" y="11198860.000000" transform="scale(-1 1) translate(-31922720.000000 0)" textLength="263101.700000" font-size="143933.300000" lengthAdjust="spacingAndGlyphs" text-anchor="start" opacity="0">ANT</text>
<g class="stroked-text"><desc>ANT</desc>
<path d="M15928415 11162876 L15877010 11162876 "/>
<path d="M15938696 11193719 L15902713 11085769 L15866729 11193719 "/>
<path d="M15830746 11193719 L15830746 11085769 L15769060 11193719 L15769060 11085769 "/>
<path d="M15733077 11085769 L15671391 11085769 "/>
<path d="M15702234 11193719 L15702234 11085769 "/>
</g><text x="15167610.000000" y="11071860.000000" transform="scale(-1 1) translate(-30335220.000000 0)" textLength="607513.600000" font-size="143933.300000" lengthAdjust="spacingAndGlyphs" text-anchor="start" opacity="0">434MHz</text>
<g class="stroked-text"><desc>434MHz</desc>
<path d="M15083260 10994752 L15083260 11066719 "/>
<path d="M15108963 10953629 L15134665 11030736 L15067839 11030736 "/>
<path d="M15036996 10958769 L14970170 10958769 L15006153 10999893 L14990732 10999893 L14980451 11005033 L14975310 11010174 L14970170 11020455 L14970170 11046157 L14975310 11056438 L14980451 11061579 L14990732 11066719 L15021575 11066719 L15031856 11061579 L15036996 11056438 "/>
<path d="M14877641 10994752 L14877641 11066719 "/>
<path d="M14903344 10953629 L14929046 11030736 L14862220 11030736 "/>
<path d="M14821096 11066719 L14821096 10958769 L14785113 11035876 L14749129 10958769 L14749129 11066719 "/>
<path d="M14697725 11066719 L14697725 10958769 "/>
<path d="M14697725 11010174 L14636039 11010174 "/>
<path d="M14636039 11066719 L14636039 10958769 "/>
<path d="M14594915 10994752 L14538370 10994752 L14594915 11066719 L14538370 11066719 "/>
</g><text x="15961360.000000" y="10436860.000000" transform="scale(-1 1) translate(-31922720.000000 0)" textLength="350489.800000" font-size="143933.300000" lengthAdjust="spacingAndGlyphs" text-anchor="start" opacity="0">DIO4</text>
<g class="stroked-text"><desc>DIO4</desc>
<path d="M15923275 10431719 L15923275 10323769 L15897572 10323769 L15882151 10328910 L15871870 10339190 L15866729 10349471 L15861589 10370033 L15861589 10385455 L15866729 10406017 L15871870 10416298 L15882151 10426579 L15897572 10431719 L15923275 10431719 "/>
<path d="M15815325 10431719 L15815325 10323769 "/>
<path d="M15743358 10323769 L15722796 10323769 L15712515 10328910 L15702234 10339190 L15697094 10359752 L15697094 10395736 L15702234 10416298 L15712515 10426579 L15722796 10431719 L15743358 10431719 L15753639 10426579 L15763920 10416298 L15769060 10395736 L15769060 10359752 L15763920 10339190 L15753639 10328910 L15743358 10323769 "/>
<path d="M15604565 10359752 L15604565 10431719 "/>
<path d="M15630267 10318629 L15655970 10395736 L15589144 10395736 "/>
</g><text x="15167610.000000" y="10690860.000000" transform="scale(-1 1) translate(-30335220.000000 0)" textLength="607513.600000" font-size="143933.300000" lengthAdjust="spacingAndGlyphs" text-anchor="start" opacity="0">915MHz</text>
<g class="stroked-text"><desc>915MHz</desc>
<path d="M15124384 10685719 L15103822 10685719 L15093541 10680579 L15088401 10675438 L15078120 10660017 L15072979 10639455 L15072979 10598331 L15078120 10588050 L15083260 10582910 L15093541 10577769 L15114103 10577769 L15124384 10582910 L15129525 10588050 L15134665 10598331 L15134665 10624033 L15129525 10634314 L15124384 10639455 L15114103 10644595 L15093541 10644595 L15083260 10639455 L15078120 10634314 L15072979 10624033 "/>
<path d="M14970170 10685719 L15031856 10685719 "/>
<path d="M15001013 10685719 L15001013 10577769 L15011294 10593190 L15021575 10603471 L15031856 10608612 "/>
<path d="M14872501 10577769 L14923906 10577769 L14929046 10629174 L14923906 10624033 L14913625 10618893 L14887922 10618893 L14877641 10624033 L14872501 10629174 L14867360 10639455 L14867360 10665157 L14872501 10675438 L14877641 10680579 L14887922 10685719 L14913625 10685719 L14923906 10680579 L14929046 10675438 "/>
<path d="M14821096 10685719 L14821096 10577769 L14785113 10654876 L14749129 10577769 L14749129 10685719 "/>
<path d="M14697725 10685719 L14697725 10577769 "/>
<path d="M14697725 10629174 L14636039 10629174 "/>
<path d="M14636039 10685719 L14636039 10577769 "/>
<path d="M14594915 10613752 L14538370 10613752 L14594915 10685719 L14538370 10685719 "/>
</g><text x="13707110.000000" y="9674860.000000" transform="scale(-1 1) translate(-27414220.000000 0)" textLength="365911.200000" font-size="143933.300000" lengthAdjust="spacingAndGlyphs" text-anchor="end" opacity="0">MISO</text>
<g class="stroked-text"><desc>MISO</desc>
<path d="M14084466 9669719 L14084466 9561769 L14048482 9638876 L14012499 9561769 L14012499 9669719 "/>
<path d="M13961094 9669719 L13961094 9561769 "/>
<path d="M13914830 9664579 L13899409 9669719 L13873706 9669719 L13863425 9664579 L13858285 9659438 L13853144 9649157 L13853144 9638876 L13858285 9628595 L13863425 9623455 L13873706 9618314 L13894268 9613174 L13904549 9608033 L13909690 9602893 L13914830 9592612 L13914830 9582331 L13909690 9572050 L13904549 9566910 L13894268 9561769 L13868566 9561769 L13853144 9566910 "/>
<path d="M13786318 9561769 L13765756 9561769 L13755475 9566910 L13745194 9577190 L13740054 9597752 L13740054 9633736 L13745194 9654298 L13755475 9664579 L13765756 9669719 L13786318 9669719 L13796599 9664579 L13806880 9654298 L13812021 9633736 L13812021 9597752 L13806880 9577190 L13796599 9566910 L13786318 9561769 "/>
</g></g>
<g style="fill-opacity: 1.0;stroke-width: 0.100000;stroke-opacity: 1;stroke-linecap: round;stroke-linejoin: round">
<path style="fill-opacity: 1.0;stroke-width: 0.100000;stroke-opacity: 1;stroke-linecap: round;stroke-linejoin: round;fill-rule: evenodd" d="M 14880318.400000,10299405.400000 14903492.300000,10309006.500000 14942972.000000,10276815.400000 14978404.600000,10312248.000000 14946213.500000,10351727.700000 14955814.600000,10374901.600000 15006490.000000,10380053.900000 15006490.000000,10430166.100000 14955814.600000,10435318.400000 14946213.500000,10458492.300000 14978404.600000,10497972.000000 14942972.000000,10533404.600000 14904002.200000,10501629.200000 14900769.700000,10503467.700000 14885643.200000,10510483.200000 14863039.000000,10455920.000000 14840942.300000,10455920.000000 14875041.200000,10435487.300000 14882402.300000,10427366.500000 14889327.600000,10404533.300000 14887791.300000,10393953.100000 14883068.900000,10383713.800000 14875633.400000,10375237.600000 14866096.800000,10369221.900000 14855244.200000,10366162.000000 14843969.400000,10366310.100000 14833201.300000,10369653.900000 14823825.800000,10375918.200000 14816615.300000,10384587.100000 14812163.600000,10394946.600000 14810837.100000,10406143.900000 14812745.100000,10417256.800000 14817483.800000,10426870.000000 14841242.100000,10446117.300000 14814449.900000,10510789.400000 14796392.300000,10501487.000000 14757248.000000,10533404.600000 14721815.400000,10497972.000000 14754006.500000,10458492.300000 14744405.400000,10435318.400000 14693730.000000,10430166.100000 14693730.000000,10380053.900000 14744405.400000,10374901.600000 14754006.500000,10351727.700000 14721815.400000,10312248.000000 14757248.000000,10276815.400000 14796392.300000,10308733.100000 14807763.000000,10302875.600000 14819945.300000,10298974.900000 14825053.900000,10248730.000000 14875166.100000,10248730.000000 Z"/> 
<path style="fill-opacity: 1.0;stroke-width: 0.100000;stroke-opacity: 1;stroke-linecap: round;stroke-linejoin: round;fill-rule: evenodd" d="M 14506360.000000,9885610.000000 14507360.000000,9895610.000000 14508360.000000,9904610.000000 14510360.000000,9911610.000000 14513360.000000,9916610.000000 14518360.000000,9921610.000000 14523360.000000,9924610.000000 14529360.000000,9925610.000000 14536360.000000,9926610.000000 14543360.000000,9925610.000000 14548360.000000,9924610.000000 14552360.000000,9921610.000000 14556360.000000,9917610.000000 14558360.000000,9912610.000000 14560360.000000,9906610.000000 14561360.000000,9899610.000000 14561360.000000,9811610.000000 14600360.000000,9811610.000000 14600360.000000,9911610.000000 14598360.000000,9922610.000000 14595360.000000,9932610.000000 14590360.000000,9941610.000000 14583360.000000,9947610.000000 14574360.000000,9952610.000000 14563360.000000,9955610.000000 14549360.000000,9957610.000000 14542360.000000,9956610.000000 14536360.000000,9955610.000000 14524360.000000,9951610.000000 14519360.000000,9948610.000000 14514360.000000,9943610.000000 14509360.000000,9939610.000000 14505360.000000,9933610.000000 14505360.000000,9953610.000000 14468360.000000,9953610.000000 14468360.000000,9811610.000000 14506360.000000,9811610.000000 Z"/> 
<path style="fill-opacity: 1.0;stroke-width: 0.100000;stroke-opacity: 1;stroke-linecap: round;stroke-linejoin: round;fill-rule: evenodd" d="M 15195360.000000,9810610.000000 15201360.000000,9813610.000000 15211360.000000,9819610.000000 15219360.000000,9829610.000000 15219360.000000,9811610.000000 15224360.000000,9812610.000000 15228360.000000,9813610.000000 15238360.000000,9815610.000000 15242360.000000,9815610.000000 15247360.000000,9816610.000000 15251360.000000,9817610.000000 15256360.000000,9818610.000000 15256360.000000,10002610.000000 15251360.000000,10007610.000000 15246360.000000,10011610.000000 15237360.000000,10020610.000000 15227360.000000,10028610.000000 15222360.000000,10033610.000000 15217360.000000,10037610.000000 15217360.000000,9935610.000000 15213360.000000,9940610.000000 15209360.000000,9944610.000000 15204360.000000,9948610.000000 15199360.000000,9951610.000000 15187360.000000,9955610.000000 15181360.000000,9956610.000000 15175360.000000,9956610.000000 15160360.000000,9955610.000000 15147360.000000,9950610.000000 15137360.000000,9943610.000000 15128360.000000,9934610.000000 15121360.000000,9923610.000000 15155360.000000,9907610.000000 15163360.000000,9919610.000000 15169360.000000,9923610.000000 15176360.000000,9926610.000000 15185360.000000,9927610.000000 15194360.000000,9926610.000000 15201360.000000,9923610.000000 15207360.000000,9919610.000000 15215360.000000,9907610.000000 15219360.000000,9891610.000000 15219360.000000,9874610.000000 15215360.000000,9858610.000000 15212360.000000,9851610.000000 15207360.000000,9845610.000000 15201360.000000,9841610.000000 15194360.000000,9838610.000000 15185360.000000,9837610.000000 15177360.000000,9838610.000000 15170360.000000,9841610.000000 15164360.000000,9845610.000000 15159360.000000,9851610.000000 15156360.000000,9858610.000000 15153360.000000,9866610.000000 15151360.000000,9882610.000000 15113360.000000,9883610.000000 15113360.000000,9869610.000000 15116360.000000,9855610.000000 15121360.000000,9842610.000000 15128360.000000,9830610.000000 15137360.000000,9821610.000000 15148360.000000,9814610.000000 15161360.000000,9809610.000000 15177360.000000,9807610.000000 Z"/> 
<path style="fill-opacity: 1.0;stroke-width: 0.100000;stroke-opacity: 1;stroke-linecap: round;stroke-linejoin: round;fill-rule: evenodd" d="M 15152360.000000,9891610.000000 15153360.000000,9899610.000000 15155360.000000,9907610.000000 15121360.000000,9923610.000000 15116360.000000,9911610.000000 15114360.000000,9897610.000000 15113360.000000,9883610.000000 15151360.000000,9882610.000000 Z"/> 
<path style="fill-opacity: 1.0;stroke-width: 0.100000;stroke-opacity: 1;stroke-linecap: round;stroke-linejoin: round;fill-rule: evenodd" d="M 14641360.000000,9758610.000000 14651360.000000,9761610.000000 14659360.000000,9764610.000000 14665360.000000,9770610.000000 14670360.000000,9776610.000000 14674360.000000,9783610.000000 14676360.000000,9791610.000000 14677360.000000,9800610.000000 14677360.000000,9811610.000000 14689360.000000,9811610.000000 14692360.000000,9815610.000000 14696360.000000,9818610.000000 14702360.000000,9824610.000000 14705360.000000,9828610.000000 14709360.000000,9831610.000000 14715360.000000,9837610.000000 14677360.000000,9837610.000000 14677360.000000,9953610.000000 14638360.000000,9953610.000000 14638360.000000,9837610.000000 14611360.000000,9837610.000000 14611360.000000,9811610.000000 14638360.000000,9811610.000000 14638360.000000,9799610.000000 14637360.000000,9795610.000000 14636360.000000,9793610.000000 14635360.000000,9790610.000000 14633360.000000,9789610.000000 14627360.000000,9787610.000000 14609360.000000,9787610.000000 14609360.000000,9758610.000000 14619360.000000,9758610.000000 14622360.000000,9757610.000000 14630360.000000,9757610.000000 Z"/> 
<path style="fill-opacity: 1.0;stroke-width: 0.100000;stroke-opacity: 1;stroke-linecap: round;stroke-linejoin: round;fill-rule: evenodd" d="M 14378360.000000,9809610.000000 14390360.000000,9813610.000000 14395360.000000,9816610.000000 14401360.000000,9820610.000000 14405360.000000,9825610.000000 14409360.000000,9831610.000000 14410360.000000,9831610.000000 14410360.000000,9811610.000000 14446360.000000,9811610.000000 14447360.000000,9829610.000000 14447360.000000,9953610.000000 14408360.000000,9953610.000000 14408360.000000,9869610.000000 14406360.000000,9860610.000000 14404360.000000,9853610.000000 14401360.000000,9848610.000000 14397360.000000,9843610.000000 14392360.000000,9840610.000000 14378360.000000,9838610.000000 14366360.000000,9840610.000000 14362360.000000,9843610.000000 14359360.000000,9847610.000000 14356360.000000,9852610.000000 14354360.000000,9858610.000000 14353360.000000,9865610.000000 14353360.000000,9953610.000000 14314360.000000,9953610.000000 14314360.000000,9866610.000000 14315360.000000,9853610.000000 14316360.000000,9842610.000000 14320360.000000,9832610.000000 14325360.000000,9823610.000000 14331360.000000,9817610.000000 14340360.000000,9812610.000000 14352360.000000,9809610.000000 14366360.000000,9807610.000000 Z"/> 
<path style="fill-opacity: 1.0;stroke-width: 0.100000;stroke-opacity: 1;stroke-linecap: round;stroke-linejoin: round;fill-rule: evenodd" d="M 15060360.000000,9811610.000000 15070360.000000,9815610.000000 15075360.000000,9818610.000000 15083360.000000,9824610.000000 15087360.000000,9828610.000000 15090360.000000,9832610.000000 15093360.000000,9837610.000000 15095360.000000,9843610.000000 15096360.000000,9848610.000000 15097360.000000,9855610.000000 15058360.000000,9855610.000000 15058360.000000,9852610.000000 15057360.000000,9850610.000000 15057360.000000,9847610.000000 15055360.000000,9843610.000000 15049360.000000,9837610.000000 15045360.000000,9835610.000000 15043360.000000,9835610.000000 15040360.000000,9834610.000000 15035360.000000,9834610.000000 15032360.000000,9833610.000000 15030360.000000,9834610.000000 15023360.000000,9834610.000000 15021360.000000,9835610.000000 15019360.000000,9835610.000000 15013360.000000,9838610.000000 15010360.000000,9841610.000000 15008360.000000,9845610.000000 15008360.000000,9847610.000000 15007360.000000,9850610.000000 15007360.000000,9853610.000000 15008360.000000,9858610.000000 15011360.000000,9862610.000000 15015360.000000,9865610.000000 15021360.000000,9867610.000000 15028360.000000,9868610.000000 15024360.000000,9889610.000000 15019360.000000,9889610.000000 15015360.000000,9887610.000000 15013360.000000,9887610.000000 15012360.000000,9886610.000000 15010360.000000,9885610.000000 15009360.000000,9884610.000000 15007360.000000,9883610.000000 15007360.000000,9902610.000000 15008360.000000,9904610.000000 15008360.000000,9907610.000000 15009360.000000,9909610.000000 15009360.000000,9912610.000000 15010360.000000,9915610.000000 15012360.000000,9917610.000000 15013360.000000,9920610.000000 15018360.000000,9925610.000000 15021360.000000,9927610.000000 15033360.000000,9930610.000000 15048360.000000,9930610.000000 15050360.000000,9929610.000000 15052360.000000,9929610.000000 15054360.000000,9928610.000000 15055360.000000,9927610.000000 15057360.000000,9926610.000000 15060360.000000,9923610.000000 15061360.000000,9921610.000000 15061360.000000,9920610.000000 15062360.000000,9917610.000000 15062360.000000,9915610.000000 15063360.000000,9913610.000000 15062360.000000,9910610.000000 15062360.000000,9906610.000000 15060360.000000,9902610.000000 15056360.000000,9898610.000000 15046360.000000,9893610.000000 15054360.000000,9872610.000000 15062360.000000,9873610.000000 15071360.000000,9875610.000000 15079360.000000,9878610.000000 15086360.000000,9882610.000000 15092360.000000,9888610.000000 15097360.000000,9895610.000000 15100360.000000,9904610.000000 15101360.000000,9915610.000000 15101360.000000,9920610.000000 15100360.000000,9925610.000000 15098360.000000,9933610.000000 15096360.000000,9937610.000000 15093360.000000,9941610.000000 15087360.000000,9947610.000000 15084360.000000,9949610.000000 15076360.000000,9953610.000000 15072360.000000,9954610.000000 15068360.000000,9956610.000000 15063360.000000,9956610.000000 15058360.000000,9957610.000000 15050360.000000,9957610.000000 15047360.000000,9956610.000000 15040360.000000,9956610.000000 15037360.000000,9955610.000000 15034360.000000,9955610.000000 15031360.000000,9954610.000000 15027360.000000,9953610.000000 15024360.000000,9952610.000000 15021360.000000,9950610.000000 15019360.000000,9949610.000000 15016360.000000,9947610.000000 15013360.000000,9946610.000000 15010360.000000,9944610.000000 15008360.000000,9941610.000000 15006360.000000,9939610.000000 15006360.000000,9941610.000000 15005360.000000,9942610.000000 15005360.000000,9948610.000000 15004360.000000,9949610.000000 15004360.000000,9950610.000000 15003360.000000,9951610.000000 15003360.000000,9953610.000000 14964360.000000,9953610.000000 14964360.000000,9952610.000000 14965360.000000,9950610.000000 14965360.000000,9949610.000000 14966360.000000,9947610.000000 14966360.000000,9946610.000000 14967360.000000,9944610.000000 14967360.000000,9940610.000000 14968360.000000,9938610.000000 14968360.000000,9848610.000000 14970360.000000,9836610.000000 14972360.000000,9832610.000000 14974360.000000,9827610.000000 14981360.000000,9820610.000000 14985360.000000,9817610.000000 14989360.000000,9815610.000000 14994360.000000,9813610.000000 14998360.000000,9812610.000000 15004360.000000,9810610.000000 15009360.000000,9809610.000000 15014360.000000,9809610.000000 15020360.000000,9808610.000000 15042360.000000,9808610.000000 Z"/> 
<path style="fill-opacity: 1.0;stroke-width: 0.100000;stroke-opacity: 1;stroke-linecap: round;stroke-linejoin: round;fill-rule: evenodd" d="M 14885360.000000,9812610.000000 14897360.000000,9820610.000000 14902360.000000,9825610.000000 14906360.000000,9831610.000000 14909360.000000,9838610.000000 14910360.000000,9838610.000000 14910360.000000,9811610.000000 14914360.000000,9812610.000000 14919360.000000,9813610.000000 14923360.000000,9814610.000000 14928360.000000,9815610.000000 14933360.000000,9815610.000000 14937360.000000,9816610.000000 14947360.000000,9818610.000000 14947360.000000,9953610.000000 14908360.000000,9953610.000000 14908360.000000,9880610.000000 14906360.000000,9871610.000000 14900360.000000,9857610.000000 14894360.000000,9851610.000000 14888360.000000,9847610.000000 14880360.000000,9845610.000000 14870360.000000,9844610.000000 14859360.000000,9844610.000000 14857360.000000,9845610.000000 14856360.000000,9845610.000000 14856360.000000,9809610.000000 14857360.000000,9808610.000000 14871360.000000,9808610.000000 Z"/> 
<path style="fill-opacity: 1.0;stroke-width: 0.100000;stroke-opacity: 1;stroke-linecap: round;stroke-linejoin: round;fill-rule: evenodd" d="M 15350360.000000,9808610.000000 15361360.000000,9809610.000000 15371360.000000,9812610.000000 15380360.000000,9817610.000000 15388360.000000,9823610.000000 15394360.000000,9830610.000000 15398360.000000,9840610.000000 15400360.000000,9853610.000000 15399360.000000,9861610.000000 15396360.000000,9869610.000000 15386360.000000,9879610.000000 15379360.000000,9883610.000000 15371360.000000,9886610.000000 15363360.000000,9888610.000000 15355360.000000,9891610.000000 15345360.000000,9893610.000000 15336360.000000,9895610.000000 15322360.000000,9899610.000000 15317360.000000,9902610.000000 15314360.000000,9905610.000000 15312360.000000,9908610.000000 15311360.000000,9912610.000000 15311360.000000,9917610.000000 15313360.000000,9921610.000000 15319360.000000,9927610.000000 15323360.000000,9928610.000000 15328360.000000,9930610.000000 15332360.000000,9930610.000000 15336360.000000,9931610.000000 15342360.000000,9930610.000000 15347360.000000,9929610.000000 15357360.000000,9925610.000000 15361360.000000,9922610.000000 15363360.000000,9917610.000000 15365360.000000,9913610.000000 15366360.000000,9907610.000000 15403360.000000,9907610.000000 15401360.000000,9919610.000000 15397360.000000,9930610.000000 15390360.000000,9939610.000000 15382360.000000,9945610.000000 15372360.000000,9950610.000000 15361360.000000,9954610.000000 15349360.000000,9956610.000000 15325360.000000,9956610.000000 15313360.000000,9954610.000000 15302360.000000,9950610.000000 15292360.000000,9945610.000000 15284360.000000,9939610.000000 15278360.000000,9930610.000000 15273360.000000,9920610.000000 15272360.000000,9907610.000000 15273360.000000,9898610.000000 15276360.000000,9890610.000000 15280360.000000,9884610.000000 15286360.000000,9879610.000000 15293360.000000,9875610.000000 15300360.000000,9872610.000000 15308360.000000,9869610.000000 15317360.000000,9867610.000000 15325360.000000,9865610.000000 15333360.000000,9864610.000000 15347360.000000,9860610.000000 15353360.000000,9858610.000000 15357360.000000,9855610.000000 15360360.000000,9851610.000000 15361360.000000,9846610.000000 15360360.000000,9842610.000000 15359360.000000,9839610.000000 15353360.000000,9835610.000000 15350360.000000,9834610.000000 15346360.000000,9834610.000000 15343360.000000,9833610.000000 15334360.000000,9833610.000000 15329360.000000,9834610.000000 15325360.000000,9835610.000000 15321360.000000,9837610.000000 15315360.000000,9843610.000000 15314360.000000,9847610.000000 15313360.000000,9852610.000000 15276360.000000,9852610.000000 15278360.000000,9841610.000000 15282360.000000,9831610.000000 15289360.000000,9823610.000000 15297360.000000,9817610.000000 15306360.000000,9812610.000000 15316360.000000,9809610.000000 15338360.000000,9807610.000000 Z"/> 
<path style="fill-opacity: 1.0;stroke-width: 0.100000;stroke-opacity: 1;stroke-linecap: round;stroke-linejoin: round;fill-rule: evenodd" d="M 14840360.000000,9779610.000000 14840360.000000,9953610.000000 14802360.000000,9953610.000000 14802360.000000,9904610.000000 14787360.000000,9889610.000000 14748360.000000,9953610.000000 14701360.000000,9953610.000000 14760360.000000,9863610.000000 14707360.000000,9811610.000000 14753360.000000,9811610.000000 14802360.000000,9862610.000000 14802360.000000,9757610.000000 Z"/> 
<path style="fill-opacity: 1.0;stroke-width: 0.100000;stroke-opacity: 1;stroke-linecap: round;stroke-linejoin: round;fill-rule: evenodd" d="M 15036360.000000,9869610.000000 15045360.000000,9870610.000000 15054360.000000,9872610.000000 15046360.000000,9893610.000000 15044360.000000,9893610.000000 15042360.000000,9892610.000000 15040360.000000,9892610.000000 15037360.000000,9891610.000000 15033360.000000,9891610.000000 15030360.000000,9890610.000000 15026360.000000,9890610.000000 15024360.000000,9889610.000000 15028360.000000,9868610.000000 Z"/> 
</g> 
</g><g id="substrate-outline" style="fill:#000000; stroke:#000000; stroke-width: 15000.0"><g style="fill-opacity: 0.0;stroke-opacity: 1;stroke-linecap: round;stroke-linejoin: round">
<path d="M16247110 9484360 L13453110 9484360 "/>
<path d="M13453110 11516360 L16247110 11516360 "/>
<path d="M13453110 9484360 L13453110 11516360 "/>
<path d="M16247110 11516360 L16247110 9484360 "/>
</g> 
<path d="M -50800.0 0.0 A 50800.0 50800.0 0 1 1 50800.0 0.0 L 50800.0 -0.0 A 50800.0 50800.0 0 1 1 -50800.0 -0.0 Z" transform="translate(13580110.0 10881360.0) rotate(-90.0)"/><path d="M -50800.0 0.0 A 50800.0 50800.0 0 1 1 50800.0 0.0 L 50800.0 -0.0 A 50800.0 50800.0 0 1 1 -50800.0 -0.0 Z" transform="translate(16120110.0 10881360.0) rotate(-0.0)"/><path d="M -50800.0 0.0 A 50800.0 50800.0 0 1 1 50800.0 0.0 L 50800.0 -0.0 A 50800.0 50800.0 0 1 1 -50800.0 -0.0 Z" transform="translate(16120110.0 11135360.0) rotate(-0.0)"/><path d="M -50800.0 0.0 A 50800.0 50800.0 0 1 1 50800.0 0.0 L 50800.0 -0.0 A 50800.0 50800.0 0 1 1 -50800.0 -0.0 Z" transform="translate(16120110.0 11389360.0) rotate(-0.0)"/><path d="M -50800.0 0.0 A 50800.0 50800.0 0 1 1 50800.0 0.0 L 50800.0 -0.0 A 50800.0 50800.0 0 1 1 -50800.0 -0.0 Z" transform="translate(13580110.0 9611360.0) rotate(-0.0)"/><path d="M -50800.0 0.0 A 50800.0 50800.0 0 1 1 50800.0 0.0 L 50800.0 -0.0 A 50800.0 50800.0 0 1 1 -50800.0 -0.0 Z" transform="translate(13580110.0 9865360.0) rotate(-0.0)"/><path d="M -50800.0 0.0 A 50800.0 50800.0 0 1 1 50800.0 0.0 L 50800.0 -0.0 A 50800.0 50800.0 0 1 1 -50800.0 -0.0 Z" transform="translate(13580110.0 10119360.0) rotate(-0.0)"/><path d="M -50800.0 0.0 A 50800.0 50800.0 0 1 1 50800.0 0.0 L 50800.0 -0.0 A 50800.0 50800.0 0 1 1 -50800.0 -0.0 Z" transform="translate(13580110.0 10373360.0) rotate(-0.0)"/><path d="M -50800.0 0.0 A 50800.0 50800.0 0 1 1 50800.0 0.0 L 50800.0 -0.0 A 50800.0 50800.0 0 1 1 -50800.0 -0.0 Z" transform="translate(13580110.0 10627360.0) rotate(-0.0)"/><path d="M -50800.0 0.0 A 50800.0 50800.0 0 1 1 50800.0 0.0 L 50800.0 -0.0 A 50800.0 50800.0 0 1 1 -50800.0 -0.0 Z" transform="translate(13580110.0 11389360.0) rotate(-180.0)"/><path d="M -50800.0 0.0 A 50800.0 50800.0 0 1 1 50800.0 0.0 L 50800.0 -0.0 A 50800.0 50800.0 0 1 1 -50800.0 -0.0 Z" transform="translate(13580110.0 11135360.0) rotate(-180.0)"/><path d="M -50800.0 0.0 A 50800.0 50800.0 0 1 1 50800.0 0.0 L 50800.0 -0.0 A 50800.0 50800.0 0 1 1 -50800.0 -0.0 Z" transform="translate(16120110.0 9611360.0) rotate(-0.0)"/><path d="M -50800.0 0.0 A 50800.0 50800.0 0 1 1 50800.0 0.0 L 50800.0 -0.0 A 50800.0 50800.0 0 1 1 -50800.0 -0.0 Z" transform="translate(16120110.0 9865360.0) rotate(-0.0)"/><path d="M -50800.0 0.0 A 50800.0 50800.0 0 1 1 50800.0 0.0 L 50800.0 -0.0 A 50800.0 50800.0 0 1 1 -50800.0 -0.0 Z" transform="translate(16120110.0 10119360.0) rotate(-0.0)"/><path d="M -50800.0 0.0 A 50800.0 50800.0 0 1 1 50800.0 0.0 L 50800.0 -0.0 A 50800.0 50800.0 0 1 1 -50800.0 -0.0 Z" transform="translate(16120110.0 10373360.0) rotate(-0.0)"/><path d="M -50800.0 0.0 A 50800.0 50800.0 0 1 1 50800.0 0.0 L 50800.0 -0.0 A 50800.0 50800.0 0 1 1 -50800.0 -0.0 Z" transform="translate(16120110.0 10627360.0) rotate(-0.0)"/><path d="M -25400.0 0.0 A 25400.0 25400.0 0 1 1 25400.0 0.0 L 25400.0 -0.0 A 25400.0 25400.0 0 1 1 -25400.0 -0.0 Z" transform="translate(15231110.0 10405110.0) rotate(0.0)"/><path d="M -25400.0 0.0 A 25400.0 25400.0 0 1 1 25400.0 0.0 L 25400.0 -0.0 A 25400.0 25400.0 0 1 1 -25400.0 -0.0 Z" transform="translate(15231110.0 11071860.0) rotate(0.0)"/><path d="M -25400.0 0.0 A 25400.0 25400.0 0 1 1 25400.0 0.0 L 25400.0 -0.0 A 25400.0 25400.0 0 1 1 -25400.0 -0.0 Z" transform="translate(14850110.0 10405110.0) rotate(0.0)"/><path d="M -25400.0 0.0 A 25400.0 25400.0 0 1 1 25400.0 0.0 L 25400.0 -0.0 A 25400.0 25400.0 0 1 1 -25400.0 -0.0 Z" transform="translate(14977110.0 9674860.0) rotate(0.0)"/><path d="M -25400.0 0.0 A 25400.0 25400.0 0 1 1 25400.0 0.0 L 25400.0 -0.0 A 25400.0 25400.0 0 1 1 -25400.0 -0.0 Z" transform="translate(14469110.0 11071860.0) rotate(0.0)"/><path d="M -25400.0 0.0 A 25400.0 25400.0 0 1 1 25400.0 0.0 L 25400.0 -0.0 A 25400.0 25400.0 0 1 1 -25400.0 -0.0 Z" transform="translate(14469110.0 10405110.0) rotate(0.0)"/><path d="M -25400.0 0.0 A 25400.0 25400.0 0 1 1 25400.0 0.0 L 25400.0 -0.0 A 25400.0 25400.0 0 1 1 -25400.0 -0.0 Z" transform="translate(14469110.0 9674860.0) rotate(0.0)"/><path d="M -25400.0 0.0 A 25400.0 25400.0 0 1 1 25400.0 0.0 L 25400.0 -0.0 A 25400.0 25400.0 0 1 1 -25400.0 -0.0 Z" transform="translate(14723110.0 9674860.0) rotate(0.0)"/><path d="M -25400.0 0.0 A 25400.0 25400.0 0 1 1 25400.0 0.0 L 25400.0 -0.0 A 25400.0 25400.0 0 1 1 -25400.0 -0.0 Z" transform="translate(14723110.0 11071860.0) rotate(0.0)"/><path d="M -25400.0 0.0 A 25400.0 25400.0 0 1 1 25400.0 0.0 L 25400.0 -0.0 A 25400.0 25400.0 0 1 1 -25400.0 -0.0 Z" transform="translate(14977110.0 11071860.0) rotate(0.0)"/><path d="M -25400.0 0.0 A 25400.0 25400.0 0 1 1 25400.0 0.0 L 25400.0 -0.0 A 25400.0 25400.0 0 1 1 -25400.0 -0.0 Z" transform="translate(14850110.0 11389360.0) rotate(0.0)"/><path d="M -25400.0 0.0 A 25400.0 25400.0 0 1 1 25400.0 0.0 L 25400.0 -0.0 A 25400.0 25400.0 0 1 1 -25400.0 -0.0 Z" transform="translate(14977110.0 10073360.0) rotate(0.0)"/><path d="M -25400.0 0.0 A 25400.0 25400.0 0 1 1 25400.0 0.0 L 25400.0 -0.0 A 25400.0 25400.0 0 1 1 -25400.0 -0.0 Z" transform="translate(15231110.0 9673360.0) rotate(0.0)"/><path d="M -25400.0 0.0 A 25400.0 25400.0 0 1 1 25400.0 0.0 L 25400.0 -0.0 A 25400.0 25400.0 0 1 1 -25400.0 -0.0 Z" transform="translate(15231110.0 10673360.0) rotate(0.0)"/><path d="M -25400.0 0.0 A 25400.0 25400.0 0 1 1 25400.0 0.0 L 25400.0 -0.0 A 25400.0 25400.0 0 1 1 -25400.0 -0.0 Z" transform="translate(14469110.0 10873360.0) rotate(0.0)"/></g></g></g></svg>