<!DOCTYPE svg PUBLIC "-//W3C//DTD SVG 1.1//EN" "http://www.w3.org/Graphics/SVG/1.1/DTD/svg11.dtd">
<svg xmlns="http://www.w3.org/2000/svg" version="1.1" width="22.32mm" height="22.32mm" viewBox="5424500.0 2782900.0 2232000.0 2232000.0">
            <title>Picture generated by PcbDraw </title>
            <desc>Picture generated by PcbDraw</desc>
        <defs><clipPath id="cut-off"><path d=" M 7302500.0 4914900.0 A 254000 254000 0 0 0 7556500.0 4660900.0 L 7556500.0 3136900.0 A 254000 254000 0 0 0 7302500.0 2882900.0 L 5778500.0 2882900.0 A 254000 254000 0 0 0 5524500.0 3136900.0 L 5524500.0 4660900.0 A 254000 254000 0 0 0 5778500.0 4914900.0 L 7302500.0 4914900.0 " style="fill-rule: evenodd;"/></clipPath><mask id="pads-mask"><g style="fill:#ffffff; fill-opacity:0.0;  stroke:#ffffff; stroke-width:0.000000; stroke-opacity:1;  stroke-linecap:round; stroke-linejoin:round;">
<g style="fill:#ffffff; fill-opacity:1.0;  stroke:#ffffff; stroke-width:0.100000; stroke-opacity:1;  stroke-linecap:round; stroke-linejoin:round;">
<circle cx="7302500.000000" cy="4660900.000000" r="190000.000000"/> 
</g>
<g style="fill:#ffffff; fill-opacity:1.0;  stroke:#ffffff; stroke-width:0.100000; stroke-opacity:1;  stroke-linecap:round; stroke-linejoin:round;">
<circle cx="7302500.000000" cy="3136900.000000" r="190000.000000"/> 
</g>
<g style="fill:#ffffff; fill-opacity:1.0;  stroke:#ffffff; stroke-width:0.100000; stroke-opacity:1;  stroke-linecap:round; stroke-linejoin:round;">
<circle cx="5778500.000000" cy="4660900.000000" r="190000.000000"/> 
</g>
<g style="fill:#ffffff; fill-opacity:1.0;  stroke:#ffffff; stroke-width:0.100000; stroke-opacity:1;  stroke-linecap:round; stroke-linejoin:round;">
<circle cx="5778500.000000" cy="3136900.000000" r="190000.000000"/> 
</g>
<g style="fill:#ffffff; fill-opacity:1.0;  stroke:#ffffff; stroke-width:0.100000; stroke-opacity:1;  stroke-linecap:round; stroke-linejoin:round;">
<circle cx="6159500.000000" cy="3009900.000000" r="85000.000000"/> 
<circle cx="6413500.000000" cy="3009900.000000" r="85000.000000"/> 
<path style="fill:#ffffff; fill-opacity:1.0;  stroke:#ffffff; stroke-width:0.100000; stroke-opacity:1;  stroke-linecap:round; stroke-linejoin:round;fill-rule:evenodd;" d="M 6582500.000000,2924900.000000 6752500.000000,2924900.000000 6752500.000000,3094900.000000 6582500.000000,3094900.000000 Z"/> 
<path style="fill:#ffffff; fill-opacity:1.0;  stroke:#ffffff; stroke-width:0.100000; stroke-opacity:1;  stroke-linecap:round; stroke-linejoin:round;fill-rule:evenodd;" d="M 6836500.000000,2924900.000000 7006500.000000,2924900.000000 7006500.000000,3094900.000000 6836500.000000,3094900.000000 Z"/> 
</g>
<g style="fill:#ffffff; fill-opacity:1.0;  stroke:#ffffff; stroke-width:0.100000; stroke-opacity:1;  stroke-linecap:round; stroke-linejoin:round;">
<circle cx="6540500.000000" cy="3949700.000000" r="400000.000000"/> 
</g>
<g style="fill:#ffffff; fill-opacity:1.0;  stroke:#ffffff; stroke-width:0.100000; stroke-opacity:1;  stroke-linecap:round; stroke-linejoin:round;">
<path style="fill:#ffffff; fill-opacity:1.0;  stroke:#ffffff; stroke-width:0.100000; stroke-opacity:1;  stroke-linecap:round; stroke-linejoin:round;fill-rule:evenodd;" d="M 7155500.000000,4114700.000000 7155500.000000,3784700.000000 7505500.000000,3784700.000000 7505500.000000,4114700.000000 Z"/> 
<path style="fill:#ffffff; fill-opacity:1.0;  stroke:#ffffff; stroke-width:0.100000; stroke-opacity:1;  stroke-linecap:round; stroke-linejoin:round;fill-rule:evenodd;" d="M 5575500.000000,4114700.000000 5575500.000000,3784700.000000 5925500.000000,3784700.000000 5925500.000000,4114700.000000 Z"/> 
</g>
</g> 
</mask><mask id="pads-mask-silkscreen"><rect x="5517000.0" y="1850650.0" width="3111452.5" height="3071750.1" fill="white"/><g style="fill:#000000; fill-opacity:0.0;  stroke:#000000; stroke-width:0.000000; stroke-opacity:1;  stroke-linecap:round; stroke-linejoin:round;">
<g style="fill:#000000; fill-opacity:1.0;  stroke:#000000; stroke-width:0.100000; stroke-opacity:1;  stroke-linecap:round; stroke-linejoin:round;">
<circle cx="7302500.000000" cy="4660900.000000" r="190000.000000"/> 
</g>
<g style="fill:#000000; fill-opacity:1.0;  stroke:#000000; stroke-width:0.100000; stroke-opacity:1;  stroke-linecap:round; stroke-linejoin:round;">
<circle cx="7302500.000000" cy="3136900.000000" r="190000.000000"/> 
</g>
<g style="fill:#000000; fill-opacity:1.0;  stroke:#000000; stroke-width:0.100000; stroke-opacity:1;  stroke-linecap:round; stroke-linejoin:round;">
<circle cx="5778500.000000" cy="4660900.000000" r="190000.000000"/> 
</g>
<g style="fill:#000000; fill-opacity:1.0;  stroke:#000000; stroke-width:0.100000; stroke-opacity:1;  stroke-linecap:round; stroke-linejoin:round;">
<circle cx="5778500.000000" cy="3136900.000000" r="190000.000000"/> 
</g>
<g style="fill:#000000; fill-opacity:1.0;  stroke:#000000; stroke-width:0.100000; stroke-opacity:1;  stroke-linecap:round; stroke-linejoin:round;">
<circle cx="6159500.000000" cy="3009900.000000" r="85000.000000"/> 
<circle cx="6413500.000000" cy="3009900.000000" r="85000.000000"/> 
<path style="fill:#000000; fill-opacity:1.0;  stroke:#000000; stroke-width:0.100000; stroke-opacity:1;  stroke-linecap:round; stroke-linejoin:round;fill-rule:evenodd;" d="M 6582500.000000,2924900.000000 6752500.000000,2924900.000000 6752500.000000,3094900.000000 6582500.000000,3094900.000000 Z"/> 
<path style="fill:#000000; fill-opacity:1.0;  stroke:#000000; stroke-width:0.100000; stroke-opacity:1;  stroke-linecap:round; stroke-linejoin:round;fill-rule:evenodd;" d="M 6836500.000000,2924900.000000 7006500.000000,2924900.000000 7006500.000000,3094900.000000 6836500.000000,3094900.000000 Z"/> 
</g>
<g style="fill:#000000; fill-opacity:1.0;  stroke:#000000; stroke-width:0.100000; stroke-opacity:1;  stroke-linecap:round; stroke-linejoin:round;">
<circle cx="6540500.000000" cy="3949700.000000" r="400000.000000"/> 
</g>
<g style="fill:#000000; fill-opacity:1.0;  stroke:#000000; stroke-width:0.100000; stroke-opacity:1;  stroke-linecap:round; stroke-linejoin:round;">
<path style="fill:#000000; fill-opacity:1.0;  stroke:#000000; stroke-width:0.100000; stroke-opacity:1;  stroke-linecap:round; stroke-linejoin:round;fill-rule:evenodd;" d="M 7155500.000000,4114700.000000 7155500.000000,3784700.000000 7505500.000000,3784700.000000 7505500.000000,4114700.000000 Z"/> 
<path style="fill:#000000; fill-opacity:1.0;  stroke:#000000; stroke-width:0.100000; stroke-opacity:1;  stroke-linecap:round; stroke-linejoin:round;fill-rule:evenodd;" d="M 5575500.000000,4114700.000000 5575500.000000,3784700.000000 5925500.000000,3784700.000000 5925500.000000,4114700.000000 Z"/> 
</g>
</g> 
</mask><mask id="hole-mask"><g><rect x="5517000.0" y="1850650.0" fill="white" width="3111452.5" height="3071750.1"/><polyline stroke-linecap="round" stroke="black" stroke-width="270000.0" points="-0.0 0 0.0 0" transform="translate(7302500.0 4660900.0) rotate(-0.0)"/><polyline stroke-linecap="round" stroke="black" stroke-width="270000.0" points="-0.0 0 0.0 0" transform="translate(7302500.0 3136900.0) rotate(-0.0)"/><polyline stroke-linecap="round" stroke="black" stroke-width="270000.0" points="-0.0 0 0.0 0" transform="translate(5778500.0 4660900.0) rotate(-0.0)"/><polyline stroke-linecap="round" stroke="black" stroke-width="270000.0" points="-0.0 0 0.0 0" transform="translate(5778500.0 3136900.0) rotate(-0.0)"/><polyline stroke-linecap="round" stroke="black" stroke-width="100000.0" points="-0.0 0 0.0 0" transform="translate(6159500.0 3009900.0) rotate(-270.0)"/><polyline stroke-linecap="round" stroke="black" stroke-width="100000.0" points="-0.0 0 0.0 0" transform="translate(6413500.0 3009900.0) rotate(-270.0)"/><polyline stroke-linecap="round" stroke="black" stroke-width="100000.0" points="-0.0 0 0.0 0" transform="translate(6667500.0 3009900.0) rotate(-270.0)"/><polyline stroke-linecap="round" stroke="black" stroke-width="100000.0" points="-0.0 0 0.0 0" transform="translate(6921500.0 3009900.0) rotate(-270.0)"/><polyline stroke-linecap="round" stroke="black" stroke-width="60000.0" points="-0.0 0 0.0 0" transform="translate(5753100.0 4216400.0) rotate(0.0)"/><polyline stroke-linecap="round" stroke="black" stroke-width="60000.0" points="-0.0 0 0.0 0" transform="translate(5753100.0 3695700.0) rotate(0.0)"/><polyline stroke-linecap="round" stroke="black" stroke-width="60000.0" points="-0.0 0 0.0 0" transform="translate(7327900.0 3695700.0) rotate(0.0)"/><polyline stroke-linecap="round" stroke="black" stroke-width="60000.0" points="-0.0 0 0.0 0" transform="translate(7327900.0 4216400.0) rotate(0.0)"/></g></mask></defs><g transform="" id="boardContainer"><g id="substrate" clip-path="url(#cut-off)" mask="url(#hole-mask)"><g id="substrate-board" style="fill:#4ca06c; stroke:#4ca06c;"><path d=" M 7302500.0 4914900.0 A 254000 254000 0 0 0 7556500.0 4660900.0 L 7556500.0 3136900.0 A 254000 254000 0 0 0 7302500.0 2882900.0 L 5778500.0 2882900.0 A 254000 254000 0 0 0 5524500.0 3136900.0 L 5524500.0 4660900.0 A 254000 254000 0 0 0 5778500.0 4914900.0 L 7302500.0 4914900.0 " style="fill-rule: evenodd;"/><g style="fill-opacity: 0.0;stroke-width: 5000.000000;stroke-opacity: 1;stroke-linecap: round;stroke-linejoin: round">
<path d="M5778500 4914900 L7302500 4914900 "/>
<path d="M5524500 3136900 L5524500 4660900 "/>
<path d="M7302500 2882900 L5778500 2882900 "/>
<path d="M7556500 4660900 L7556500 3136900 "/>
<path d="M7302500.000000 4914900.000000 A254000.000000 254000.000000 0.0 0 0 7556500.000000 4660900.000000"/>
<path d="M5524500.000000 4660900.000000 A254000.000000 254000.000000 0.0 0 0 5778500.000000 4914900.000000"/>
<path d="M5778500.000000 2882900.000000 A254000.000000 254000.000000 0.0 0 0 5524500.000000 3136900.000000"/>
<path d="M7556500.000000 3136900.000000 A254000.000000 254000.000000 0.0 0 0 7302500.000000 2882900.000000"/>
</g> 
</g><g id="substrate-clad" style="fill:#9c6b28; stroke:#9c6b28;"><g style="fill-opacity: 0.0;stroke-width: 0.000000;stroke-opacity: 1;stroke-linecap: round;stroke-linejoin: round">
<g style="fill-opacity: 1.0;stroke-width: 0.100000;stroke-opacity: 1;stroke-linecap: round;stroke-linejoin: round">
<circle cx="7302500.000000" cy="4660900.000000" r="190000.000000"/> 
</g>
<g style="fill-opacity: 1.0;stroke-width: 0.100000;stroke-opacity: 1;stroke-linecap: round;stroke-linejoin: round">
<circle cx="7302500.000000" cy="3136900.000000" r="190000.000000"/> 
</g>
<g style="fill-opacity: 1.0;stroke-width: 0.100000;stroke-opacity: 1;stroke-linecap: round;stroke-linejoin: round">
<circle cx="5778500.000000" cy="4660900.000000" r="190000.000000"/> 
</g>
<g style="fill-opacity: 1.0;stroke-width: 0.100000;stroke-opacity: 1;stroke-linecap: round;stroke-linejoin: round">
<circle cx="5778500.000000" cy="3136900.000000" r="190000.000000"/> 
</g>
<g style="fill-opacity: 1.0;stroke-width: 0.100000;stroke-opacity: 1;stroke-linecap: round;stroke-linejoin: round">
<circle cx="6159500.000000" cy="3009900.000000" r="85000.000000"/> 
<circle cx="6413500.000000" cy="3009900.000000" r="85000.000000"/> 
<path style="fill-opacity: 1.0;stroke-width: 0.100000;stroke-opacity: 1;stroke-linecap: round;stroke-linejoin: round;fill-rule: evenodd" d="M 6582500.000000,2924900.000000 6752500.000000,2924900.000000 6752500.000000,3094900.000000 6582500.000000,3094900.000000 Z"/> 
<path style="fill-opacity: 1.0;stroke-width: 0.100000;stroke-opacity: 1;stroke-linecap: round;stroke-linejoin: round;fill-rule: evenodd" d="M 6836500.000000,2924900.000000 7006500.000000,2924900.000000 7006500.000000,3094900.000000 6836500.000000,3094900.000000 Z"/> 
</g>
<g style="fill-opacity: 1.0;stroke-width: 0.100000;stroke-opacity: 1;stroke-linecap: round;stroke-linejoin: round">
<circle cx="6540500.000000" cy="3949700.000000" r="400000.000000"/> 
</g>
<g style="fill-opacity: 1.0;stroke-width: 0.100000;stroke-opacity: 1;stroke-linecap: round;stroke-linejoin: round">
<path style="fill-opacity: 1.0;stroke-width: 0.100000;stroke-opacity: 1;stroke-linecap: round;stroke-linejoin: round;fill-rule: evenodd" d="M 7155500.000000,4114700.000000 7155500.000000,3784700.000000 7505500.000000,3784700.000000 7505500.000000,4114700.000000 Z"/> 
<path style="fill-opacity: 1.0;stroke-width: 0.100000;stroke-opacity: 1;stroke-linecap: round;stroke-linejoin: round;fill-rule: evenodd" d="M 5575500.000000,4114700.000000 5575500.000000,3784700.000000 5925500.000000,3784700.000000 5925500.000000,4114700.000000 Z"/> 
</g>
</g> 
</g><g id="substrate-copper" style="fill:#417e5a; stroke:#417e5a;"><g style="fill-opacity: 0.0;stroke-width: 0.000000;stroke-opacity: 1;stroke-linecap: round;stroke-linejoin: round">
<g style="fill-opacity: 1.0;stroke-width: 0.100000;stroke-opacity: 1;stroke-linecap: round;stroke-linejoin: round">
<circle cx="7302500.000000" cy="4660900.000000" r="190000.000000"/> 
</g>
<g style="fill-opacity: 1.0;stroke-width: 0.100000;stroke-opacity: 1;stroke-linecap: round;stroke-linejoin: round">
<circle cx="7302500.000000" cy="3136900.000000" r="190000.000000"/> 
</g>
<g style="fill-opacity: 1.0;stroke-width: 0.100000;stroke-opacity: 1;stroke-linecap: round;stroke-linejoin: round">
<circle cx="5778500.000000" cy="4660900.000000" r="190000.000000"/> 
</g>
<g style="fill-opacity: 1.0;stroke-width: 0.100000;stroke-opacity: 1;stroke-linecap: round;stroke-linejoin: round">
<circle cx="5778500.000000" cy="3136900.000000" r="190000.000000"/> 
</g>
<g style="fill-opacity: 1.0;stroke-width: 0.100000;stroke-opacity: 1;stroke-linecap: round;stroke-linejoin: round">
<circle cx="6159500.000000" cy="3009900.000000" r="85000.000000"/> 
<circle cx="6413500.000000" cy="3009900.000000" r="85000.000000"/> 
<path style="fill-opacity: 1.0;stroke-width: 0.100000;stroke-opacity: 1;stroke-linecap: round;stroke-linejoin: round;fill-rule: evenodd" d="M 6582500.000000,2924900.000000 6752500.000000,2924900.000000 6752500.000000,3094900.000000 6582500.000000,3094900.000000 Z"/> 
<path style="fill-opacity: 1.0;stroke-width: 0.100000;stroke-opacity: 1;stroke-linecap: round;stroke-linejoin: round;fill-rule: evenodd" d="M 6836500.000000,2924900.000000 7006500.000000,2924900.000000 7006500.000000,3094900.000000 6836500.000000,3094900.000000 Z"/> 
</g>
<g style="fill-opacity: 1.0;stroke-width: 0.100000;stroke-opacity: 1;stroke-linecap: round;stroke-linejoin: round">
<circle cx="6540500.000000" cy="3949700.000000" r="400000.000000"/> 
</g>
<g style="fill-opacity: 1.0;stroke-width: 0.100000;stroke-opacity: 1;stroke-linecap: round;stroke-linejoin: round">
<path style="fill-opacity: 1.0;stroke-width: 0.100000;stroke-opacity: 1;stroke-linecap: round;stroke-linejoin: round;fill-rule: evenodd" d="M 7155500.000000,4114700.000000 7155500.000000,3784700.000000 7505500.000000,3784700.000000 7505500.000000,4114700.000000 Z"/> 
<path style="fill-opacity: 1.0;stroke-width: 0.100000;stroke-opacity: 1;stroke-linecap: round;stroke-linejoin: round;fill-rule: evenodd" d="M 5575500.000000,4114700.000000 5575500.000000,3784700.000000 5925500.000000,3784700.000000 5925500.000000,4114700.000000 Z"/> 
</g>
<g style="fill-opacity: 1.0;stroke-width: 0.100000;stroke-opacity: 1;stroke-linecap: round;stroke-linejoin: round">
<circle cx="5753100.000000" cy="4216400.000000" r="50000.000000"/> 
</g>
<g style="fill-opacity: 1.0;stroke-width: 0.100000;stroke-opacity: 1;stroke-linecap: round;stroke-linejoin: round">
<circle cx="5753100.000000" cy="3695700.000000" r="50000.000000"/> 
</g>
<g style="fill-opacity: 1.0;stroke-width: 0.100000;stroke-opacity: 1;stroke-linecap: round;stroke-linejoin: round">
<circle cx="7327900.000000" cy="3695700.000000" r="50000.000000"/> 
</g>
<g style="fill-opacity: 1.0;stroke-width: 0.100000;stroke-opacity: 1;stroke-linecap: round;stroke-linejoin: round">
<circle cx="7327900.000000" cy="4216400.000000" r="50000.000000"/> 
</g>
<g style="fill-opacity: 0.0;stroke-width: 100000.000000;stroke-opacity: 1;stroke-linecap: round;stroke-linejoin: round">
<path d="M7320500 3949700 L7330500 3949700 "/>
<path d="M7320500 4074050 L7320500 3949700 "/>
<path d="M5750500 3949700 L5750500 4064050 "/>
<path d="M5750500 3949700 L5750500 4213800 "/>
<path d="M5750500 4213800 L5753100 4216400 "/>
<path d="M5750500 3949700 L5750500 3698300 "/>
<path d="M5750500 3698300 L5753100 3695700 "/>
<path d="M7325300 3949700 L7325300 3698300 "/>
<path d="M7325300 3698300 L7327900 3695700 "/>
<path d="M7325300 4213800 L7327900 4216400 "/>
<path d="M7325300 3949700 L7325300 4213800 "/>
<path d="M7325300 3949700 L7325300 4064050 "/>
</g>
<g style="fill-opacity: 0.0;stroke-width: 100000.000000;stroke-opacity: 1;stroke-linecap: round;stroke-linejoin: round">
<g style="fill-opacity: 1.0;stroke-width: 25400.000000;stroke-opacity: 1;stroke-linecap: round;stroke-linejoin: round">
<path style="fill-opacity: 1.0;stroke-width: 25400.000000;stroke-opacity: 1;stroke-linecap: round;stroke-linejoin: round;fill-rule: evenodd" d="M 6023364.000000,2950573.200000 6031634.300000,2972600.000000 6122200.000000,2972600.000000 6122200.000000,2970600.000000 6196800.000000,2970600.000000 6196800.000000,2972600.000000 6376200.000000,2972600.000000 6376200.000000,2970600.000000 6450800.000000,2970600.000000 6450800.000000,2972600.000000 6452800.000000,2972600.000000 6452800.000000,3047200.000000 6450800.000000,3047200.000000 6450800.000000,3137171.800000 6472826.500000,3146034.500000 6493732.800000,3134861.500000 6516569.900000,3116807.800000 6521771.800000,3110700.400000 6524292.500000,3119010.300000 6530114.700000,3129902.800000 6537949.900000,3139450.100000 6547497.200000,3147285.300000 6558389.700000,3153107.500000 6570208.700000,3156692.700000 6582500.000000,3157903.300000 6752500.000000,3157903.300000 6764791.300000,3156692.700000 6776610.300000,3153107.500000 6787502.800000,3147285.300000 6794500.000000,3141542.900000 6801497.200000,3147285.300000 6812389.700000,3153107.500000 6824208.700000,3156692.700000 6836500.000000,3157903.300000 7006500.000000,3157903.300000 7018791.300000,3156692.700000 7030610.300000,3153107.500000 7041502.800000,3147285.300000 7049800.000000,3140476.000000 7049800.000000,3161788.800000 7059511.100000,3210609.900000 7078560.200000,3256598.300000 7106215.100000,3297986.900000 7141413.100000,3333184.900000 7182801.700000,3360839.800000 7228790.100000,3379888.900000 7277611.200000,3389600.000000 7327388.800000,3389600.000000 7376209.900000,3379888.900000 7422198.300000,3360839.800000 7463586.900000,3333184.900000 7491300.100000,3305471.700000 7491300.100000,3721696.700000 7438000.000000,3721696.700000 7438000.000000,3720988.400000 7438969.300000,3717793.000000 7439514.600000,3712256.800000 7440600.000000,3706800.000000 7440600.000000,3701236.400000 7441145.300000,3695700.000000 7440600.000000,3690163.600000 7440600.000000,3684600.000000 7439514.600000,3679143.200000 7438969.300000,3673607.000000 7437354.500000,3668283.500000 7436269.000000,3662826.600000 7434139.900000,3657686.500000 7432525.000000,3652362.900000 7429902.500000,3647456.500000 7427773.400000,3642316.500000 7424682.500000,3637690.600000 7422060.000000,3632784.300000 7418530.900000,3628484.100000 7415439.800000,3623857.900000 7411505.500000,3619923.600000 7407976.500000,3615623.500000 7403676.400000,3612094.500000 7399742.100000,3608160.200000 7395115.900000,3605069.100000 7390815.700000,3601540.000000 7385909.400000,3598917.500000 7381283.500000,3595826.600000 7376143.500000,3593697.500000 7371237.100000,3591075.000000 7365913.500000,3589460.100000 7360773.400000,3587331.000000 7355316.500000,3586245.500000 7349993.000000,3584630.700000 7344456.800000,3584085.400000 7339000.000000,3583000.000000 7333436.400000,3583000.000000 7327900.000000,3582454.700000 7322363.600000,3583000.000000 7316800.000000,3583000.000000 7311343.200000,3584085.400000 7305807.000000,3584630.700000 7300483.600000,3586245.500000 7295026.600000,3587331.000000 7289886.300000,3589460.200000 7284563.000000,3591075.000000 7279656.900000,3593697.400000 7274516.500000,3595826.600000 7269890.200000,3598917.800000 7264984.400000,3601540.000000 7260684.500000,3605068.800000 7256057.900000,3608160.200000 7249523.100000,3614695.000000 7245223.600000,3618223.500000 7241695.100000,3622523.000000 7240360.200000,3623857.900000 7239311.700000,3625427.100000 7231140.000000,3635384.400000 7220675.000000,3654963.000000 7216185.600000,3669762.700000 7214230.800000,3676206.900000 7212600.100000,3692763.500000 7212054.800000,3698300.000000 7212600.100000,3703836.400000 7212600.100000,3721696.700000 7155500.000000,3721696.700000 7143208.700000,3722907.300000 7131389.700000,3726492.500000 7120497.200000,3732314.700000 7110949.900000,3740149.900000 7103114.700000,3749697.200000 7097292.500000,3760589.700000 7093707.300000,3772408.700000 7092496.700000,3784700.000000 7092496.700000,4114700.000000 7093707.300000,4126991.300000 7097292.500000,4138810.300000 7103114.700000,4149702.800000 7110949.900000,4159250.100000 7120497.200000,4167085.300000 7131389.700000,4172907.500000 7143208.700000,4176492.700000 7155500.000000,4177703.300000 7212600.100000,4177703.300000 7212600.100000,4208263.600000 7212054.800000,4213800.000000 7212600.100000,4219336.400000 7212600.100000,4219336.500000 7213404.200000,4227500.000000 7214230.800000,4235893.000000 7220675.000000,4257137.000000 7231140.000000,4276715.600000 7239311.700000,4286672.900000 7240360.200000,4288242.100000 7241695.100000,4289577.000000 7245223.600000,4293876.500000 7249523.100000,4297405.000000 7256057.900000,4303939.800000 7260684.500000,4307031.200000 7264984.400000,4310560.000000 7269890.200000,4313182.200000 7274516.500000,4316273.400000 7279656.900000,4318402.600000 7284563.000000,4321025.000000 7289886.300000,4322639.800000 7295026.600000,4324769.000000 7300483.600000,4325854.500000 7305807.000000,4327469.300000 7311343.200000,4328014.600000 7316800.000000,4329100.000000 7322363.600000,4329100.000000 7327900.000000,4329645.300000 7333436.400000,4329100.000000 7339000.000000,4329100.000000 7344456.800000,4328014.600000 7349993.000000,4327469.300000 7355316.500000,4325854.500000 7360773.400000,4324769.000000 7365913.500000,4322639.900000 7371237.100000,4321025.000000 7376143.500000,4318402.500000 7381283.500000,4316273.400000 7385909.400000,4313182.500000 7390815.700000,4310560.000000 7395115.900000,4307030.900000 7399742.100000,4303939.800000 7403676.400000,4300005.500000 7407976.500000,4296476.500000 7411505.500000,4292176.400000 7415439.800000,4288242.100000 7418530.900000,4283615.900000 7422060.000000,4279315.700000 7424682.500000,4274409.400000 7427773.400000,4269783.500000 7429902.500000,4264643.500000 7432525.000000,4259737.100000 7434139.900000,4254413.500000 7436269.000000,4249273.400000 7437354.500000,4243816.500000 7438969.300000,4238493.000000 7439514.600000,4232956.800000 7440600.000000,4227500.000000 7440600.000000,4221936.400000 7441145.300000,4216400.000000 7440600.000000,4210863.600000 7440600.000000,4205300.000000 7439514.600000,4199843.200000 7438969.300000,4194307.000000 7438000.000000,4191111.600000 7438000.000000,4177703.300000 7491300.000000,4177703.300000 7491300.000000,4492328.200000 7463586.900000,4464615.100000 7422198.300000,4436960.200000 7376209.900000,4417911.100000 7327388.800000,4408200.000000 7277611.200000,4408200.000000 7228790.100000,4417911.100000 7182801.700000,4436960.200000 7141413.100000,4464615.100000 7106215.100000,4499813.100000 7078560.200000,4541201.700000 7059511.100000,4587190.100000 7049800.000000,4636011.200000 7049800.000000,4685788.800000 7059511.100000,4734609.900000 7078560.200000,4780598.300000 7106215.100000,4821986.900000 7133928.200000,4849700.000000 5947071.800000,4849700.000000 5974784.900000,4821986.900000 6002439.800000,4780598.300000 6021488.900000,4734609.900000 6031200.000000,4685788.800000 6031200.000000,4636011.200000 6021488.900000,4587190.100000 6002439.800000,4541201.700000 5974784.900000,4499813.100000 5939586.900000,4464615.100000 5898198.300000,4436960.200000 5852209.900000,4417911.100000 5803388.800000,4408200.000000 5753611.200000,4408200.000000 5704790.100000,4417911.100000 5658801.700000,4436960.200000 5617413.100000,4464615.100000 5589700.000000,4492328.200000 5589700.000000,4177703.300000 5637800.100000,4177703.300000 5637800.100000,4208263.600000 5637254.800000,4213800.000000 5637800.100000,4219336.400000 5637800.100000,4219336.500000 5638604.200000,4227500.000000 5639430.800000,4235893.000000 5645875.000000,4257137.000000 5656340.000000,4276715.600000 5664511.700000,4286672.900000 5665560.200000,4288242.100000 5666895.100000,4289577.000000 5670423.600000,4293876.500000 5674723.100000,4297405.000000 5681257.900000,4303939.800000 5685884.500000,4307031.200000 5690184.400000,4310560.000000 5695090.200000,4313182.200000 5699716.500000,4316273.400000 5704856.900000,4318402.600000 5709763.000000,4321025.000000 5715086.300000,4322639.800000 5720226.600000,4324769.000000 5725683.600000,4325854.500000 5731007.000000,4327469.300000 5736543.200000,4328014.600000 5742000.000000,4329100.000000 5747563.600000,4329100.000000 5753100.000000,4329645.300000 5758636.400000,4329100.000000 5764200.000000,4329100.000000 5769656.800000,4328014.600000 5775193.000000,4327469.300000 5780516.500000,4325854.500000 5785973.400000,4324769.000000 5791113.500000,4322639.900000 5796437.100000,4321025.000000 5801343.500000,4318402.500000 5806483.500000,4316273.400000 5811109.400000,4313182.500000 5816015.700000,4310560.000000 5820315.900000,4307030.900000 5824942.100000,4303939.800000 5828876.400000,4300005.500000 5833176.500000,4296476.500000 5835960.400000,4293084.300000 6249865.900000,4293084.300000 6297799.000000,4347207.900000 6380012.400000,4386918.500000 6468393.300000,4409827.000000 6559545.100000,4415053.100000 6649965.100000,4402396.000000 6736178.400000,4372342.000000 6783201.000000,4347207.900000 6831134.100000,4293084.300000 6540500.000000,4002450.200000 6249865.900000,4293084.300000 5835960.400000,4293084.300000 5836705.500000,4292176.400000 5840639.800000,4288242.100000 5843730.900000,4283615.900000 5847260.000000,4279315.700000 5849882.500000,4274409.400000 5852973.400000,4269783.500000 5855102.500000,4264643.500000 5857725.000000,4259737.100000 5859339.900000,4254413.500000 5861469.000000,4249273.400000 5862554.500000,4243816.500000 5864169.300000,4238493.000000 5864714.600000,4232956.800000 5865800.000000,4227500.000000 5865800.000000,4221936.400000 5866345.300000,4216400.000000 5865800.000000,4210863.600000 5865800.000000,4205300.000000 5864714.600000,4199843.200000 5864169.300000,4194307.000000 5863200.000000,4191111.600000 5863200.000000,4177703.300000 5925500.000000,4177703.300000 5937791.300000,4176492.700000 5949610.300000,4172907.500000 5960502.800000,4167085.300000 5970050.100000,4159250.100000 5977885.300000,4149702.800000 5983707.500000,4138810.300000 5987292.700000,4126991.300000 5988503.300000,4114700.000000 5988503.300000,3968745.100000 6075146.900000,3968745.100000 6087804.000000,4059165.100000 6117858.000000,4145378.400000 6142992.100000,4192401.000000 6197115.700000,4240334.100000 6487749.800000,3949700.000000 6593250.200000,3949700.000000 6883884.300000,4240334.100000 6938007.900000,4192401.000000 6977718.500000,4110187.600000 7000627.000000,4021806.700000 7005853.100000,3930654.900000 6993196.000000,3840234.900000 6963142.000000,3754021.600000 6938007.900000,3706999.000000 6883884.300000,3659065.900000 6593250.200000,3949700.000000 6487749.800000,3949700.000000 6197115.700000,3659065.900000 6142992.100000,3706999.000000 6103281.500000,3789212.400000 6080373.000000,3877593.300000 6075146.900000,3968745.100000 5988503.300000,3968745.100000 5988503.300000,3784700.000000 5987292.700000,3772408.700000 5983707.500000,3760589.700000 5977885.300000,3749697.200000 5970050.100000,3740149.900000 5960502.800000,3732314.700000 5949610.300000,3726492.500000 5937791.300000,3722907.300000 5925500.000000,3721696.700000 5863200.000000,3721696.700000 5863200.000000,3720988.400000 5864169.300000,3717793.000000 5864714.600000,3712256.800000 5865800.000000,3706800.000000 5865800.000000,3701236.400000 5866345.300000,3695700.000000 5865800.000000,3690163.600000 5865800.000000,3684600.000000 5864714.600000,3679143.200000 5864169.300000,3673607.000000 5862554.500000,3668283.500000 5861469.000000,3662826.600000 5859339.900000,3657686.500000 5857725.000000,3652362.900000 5855102.500000,3647456.500000 5852973.400000,3642316.500000 5849882.500000,3637690.600000 5847260.000000,3632784.300000 5843730.900000,3628484.100000 5840639.800000,3623857.900000 5836705.500000,3619923.600000 5833176.500000,3615623.500000 5828876.400000,3612094.500000 5824942.100000,3608160.200000 5822181.600000,3606315.700000 6249865.900000,3606315.700000 6540500.000000,3896949.800000 6831134.100000,3606315.700000 6783201.000000,3552192.100000 6700987.600000,3512481.500000 6612606.700000,3489573.000000 6521454.900000,3484346.900000 6431034.900000,3497004.000000 6344821.600000,3527058.000000 6297799.000000,3552192.100000 6249865.900000,3606315.700000 5822181.600000,3606315.700000 5820315.900000,3605069.100000 5816015.700000,3601540.000000 5811109.400000,3598917.500000 5806483.500000,3595826.600000 5801343.500000,3593697.500000 5796437.100000,3591075.000000 5791113.500000,3589460.100000 5785973.400000,3587331.000000 5780516.500000,3586245.500000 5775193.000000,3584630.700000 5769656.800000,3584085.400000 5764200.000000,3583000.000000 5758636.400000,3583000.000000 5753100.000000,3582454.700000 5747563.600000,3583000.000000 5742000.000000,3583000.000000 5736543.200000,3584085.400000 5731007.000000,3584630.700000 5725683.600000,3586245.500000 5720226.600000,3587331.000000 5715086.300000,3589460.200000 5709763.000000,3591075.000000 5704856.900000,3593697.400000 5699716.500000,3595826.600000 5695090.200000,3598917.800000 5690184.400000,3601540.000000 5685884.500000,3605068.800000 5681257.900000,3608160.200000 5674723.100000,3614695.000000 5670423.600000,3618223.500000 5666895.100000,3622523.000000 5665560.200000,3623857.900000 5664511.700000,3625427.100000 5656340.000000,3635384.400000 5645875.000000,3654963.000000 5641385.600000,3669762.700000 5639430.800000,3676206.900000 5637800.100000,3692763.500000 5637254.800000,3698300.000000 5637800.100000,3703836.400000 5637800.100000,3721696.700000 5589700.000000,3721696.700000 5589700.000000,3305471.800000 5617413.100000,3333184.900000 5658801.700000,3360839.800000 5704790.100000,3379888.900000 5753611.200000,3389600.000000 5803388.800000,3389600.000000 5852209.900000,3379888.900000 5898198.300000,3360839.800000 5939586.900000,3333184.900000 5974784.900000,3297986.900000 6002439.800000,3256598.300000 6021488.900000,3210609.900000 6031200.000000,3161788.800000 6031200.000000,3112011.200000 6022689.700000,3069226.800000 6023364.000000,3069226.800000 6037553.900000,3094645.700000 6056430.100000,3116807.800000 6079267.200000,3134861.500000 6100173.500000,3146034.500000 6122200.000000,3137171.800000 6122200.000000,3047200.000000 6196800.000000,3047200.000000 6196800.000000,3137171.800000 6218826.500000,3146034.500000 6239732.800000,3134861.500000 6262569.900000,3116807.800000 6281446.100000,3094645.700000 6286500.000000,3085592.500000 6291553.900000,3094645.700000 6310430.100000,3116807.800000 6333267.200000,3134861.500000 6354173.500000,3146034.500000 6376200.000000,3137171.800000 6376200.000000,3047200.000000 6196800.000000,3047200.000000 6122200.000000,3047200.000000 6031634.300000,3047200.000000 6023364.000000,3069226.800000 6022689.700000,3069226.800000 6021488.900000,3063190.100000 6002439.800000,3017201.700000 5974784.900000,2975813.100000 5947071.800000,2948100.000000 6024744.600000,2948100.000000 Z"/> 
</g>
</g>
</g> 
</g><g id="substrate-pads" style="fill:#b5ae30; stroke:#b5ae30;" mask="url(#pads-mask)"><g style="fill-opacity: 0.0;stroke-width: 0.000000;stroke-opacity: 1;stroke-linecap: round;stroke-linejoin: round">
<g style="fill-opacity: 1.0;stroke-width: 0.100000;stroke-opacity: 1;stroke-linecap: round;stroke-linejoin: round">
<circle cx="7302500.000000" cy="4660900.000000" r="190000.000000"/> 
</g>
<g style="fill-opacity: 1.0;stroke-width: 0.100000;stroke-opacity: 1;stroke-linecap: round;stroke-linejoin: round">
<circle cx="7302500.000000" cy="3136900.000000" r="190000.000000"/> 
</g>
<g style="fill-opacity: 1.0;stroke-width: 0.100000;stroke-opacity: 1;stroke-linecap: round;stroke-linejoin: round">
<circle cx="5778500.000000" cy="4660900.000000" r="190000.000000"/> 
</g>
<g style="fill-opacity: 1.0;stroke-width: 0.100000;stroke-opacity: 1;stroke-linecap: round;stroke-linejoin: round">
<circle cx="5778500.000000" cy="3136900.000000" r="190000.000000"/> 
</g>
<g style="fill-opacity: 1.0;stroke-width: 0.100000;stroke-opacity: 1;stroke-linecap: round;stroke-linejoin: round">
<circle cx="6159500.000000" cy="3009900.000000" r="85000.000000"/> 
<circle cx="6413500.000000" cy="3009900.000000" r="85000.000000"/> 
<path style="fill-opacity: 1.0;stroke-width: 0.100000;stroke-opacity: 1;stroke-linecap: round;stroke-linejoin: round;fill-rule: evenodd" d="M 6582500.000000,2924900.000000 6752500.000000,2924900.000000 6752500.000000,3094900.000000 6582500.000000,3094900.000000 Z"/> 
<path style="fill-opacity: 1.0;stroke-width: 0.100000;stroke-opacity: 1;stroke-linecap: round;stroke-linejoin: round;fill-rule: evenodd" d="M 6836500.000000,2924900.000000 7006500.000000,2924900.000000 7006500.000000,3094900.000000 6836500.000000,3094900.000000 Z"/> 
</g>
<g style="fill-opacity: 1.0;stroke-width: 0.100000;stroke-opacity: 1;stroke-linecap: round;stroke-linejoin: round">
<circle cx="6540500.000000" cy="3949700.000000" r="400000.000000"/> 
</g>
<g style="fill-opacity: 1.0;stroke-width: 0.100000;stroke-opacity: 1;stroke-linecap: round;stroke-linejoin: round">
<path style="fill-opacity: 1.0;stroke-width: 0.100000;stroke-opacity: 1;stroke-linecap: round;stroke-linejoin: round;fill-rule: evenodd" d="M 7155500.000000,4114700.000000 7155500.000000,3784700.000000 7505500.000000,3784700.000000 7505500.000000,4114700.000000 Z"/> 
<path style="fill-opacity: 1.0;stroke-width: 0.100000;stroke-opacity: 1;stroke-linecap: round;stroke-linejoin: round;fill-rule: evenodd" d="M 5575500.000000,4114700.000000 5575500.000000,3784700.000000 5925500.000000,3784700.000000 5925500.000000,4114700.000000 Z"/> 
</g>
<g style="fill-opacity: 1.0;stroke-width: 0.100000;stroke-opacity: 1;stroke-linecap: round;stroke-linejoin: round">
<circle cx="5753100.000000" cy="4216400.000000" r="50000.000000"/> 
</g>
<g style="fill-opacity: 1.0;stroke-width: 0.100000;stroke-opacity: 1;stroke-linecap: round;stroke-linejoin: round">
<circle cx="5753100.000000" cy="3695700.000000" r="50000.000000"/> 
</g>
<g style="fill-opacity: 1.0;stroke-width: 0.100000;stroke-opacity: 1;stroke-linecap: round;stroke-linejoin: round">
<circle cx="7327900.000000" cy="3695700.000000" r="50000.000000"/> 
</g>
<g style="fill-opacity: 1.0;stroke-width: 0.100000;stroke-opacity: 1;stroke-linecap: round;stroke-linejoin: round">
<circle cx="7327900.000000" cy="4216400.000000" r="50000.000000"/> 
</g>
<g style="fill-opacity: 0.0;stroke-width: 100000.000000;stroke-opacity: 1;stroke-linecap: round;stroke-linejoin: round">
<path d="M7320500 3949700 L7330500 3949700 "/>
<path d="M7320500 4074050 L7320500 3949700 "/>
<path d="M5750500 3949700 L5750500 4064050 "/>
<path d="M5750500 3949700 L5750500 4213800 "/>
<path d="M5750500 4213800 L5753100 4216400 "/>
<path d="M5750500 3949700 L5750500 3698300 "/>
<path d="M5750500 3698300 L5753100 3695700 "/>
<path d="M7325300 3949700 L7325300 3698300 "/>
<path d="M7325300 3698300 L7327900 3695700 "/>
<path d="M7325300 4213800 L7327900 4216400 "/>
<path d="M7325300 3949700 L7325300 4213800 "/>
<path d="M7325300 3949700 L7325300 4064050 "/>
</g>
<g style="fill-opacity: 0.0;stroke-width: 100000.000000;stroke-opacity: 1;stroke-linecap: round;stroke-linejoin: round">
<g style="fill-opacity: 1.0;stroke-width: 25400.000000;stroke-opacity: 1;stroke-linecap: round;stroke-linejoin: round">
<path style="fill-opacity: 1.0;stroke-width: 25400.000000;stroke-opacity: 1;stroke-linecap: round;stroke-linejoin: round;fill-rule: evenodd" d="M 6023364.000000,2950573.200000 6031634.300000,2972600.000000 6122200.000000,2972600.000000 6122200.000000,2970600.000000 6196800.000000,2970600.000000 6196800.000000,2972600.000000 6376200.000000,2972600.000000 6376200.000000,2970600.000000 6450800.000000,2970600.000000 6450800.000000,2972600.000000 6452800.000000,2972600.000000 6452800.000000,3047200.000000 6450800.000000,3047200.000000 6450800.000000,3137171.800000 6472826.500000,3146034.500000 6493732.800000,3134861.500000 6516569.900000,3116807.800000 6521771.800000,3110700.400000 6524292.500000,3119010.300000 6530114.700000,3129902.800000 6537949.900000,3139450.100000 6547497.200000,3147285.300000 6558389.700000,3153107.500000 6570208.700000,3156692.700000 6582500.000000,3157903.300000 6752500.000000,3157903.300000 6764791.300000,3156692.700000 6776610.300000,3153107.500000 6787502.800000,3147285.300000 6794500.000000,3141542.900000 6801497.200000,3147285.300000 6812389.700000,3153107.500000 6824208.700000,3156692.700000 6836500.000000,3157903.300000 7006500.000000,3157903.300000 7018791.300000,3156692.700000 7030610.300000,3153107.500000 7041502.800000,3147285.300000 7049800.000000,3140476.000000 7049800.000000,3161788.800000 7059511.100000,3210609.900000 7078560.200000,3256598.300000 7106215.100000,3297986.900000 7141413.100000,3333184.900000 7182801.700000,3360839.800000 7228790.100000,3379888.900000 7277611.200000,3389600.000000 7327388.800000,3389600.000000 7376209.900000,3379888.900000 7422198.300000,3360839.800000 7463586.900000,3333184.900000 7491300.100000,3305471.700000 7491300.100000,3721696.700000 7438000.000000,3721696.700000 7438000.000000,3720988.400000 7438969.300000,3717793.000000 7439514.600000,3712256.800000 7440600.000000,3706800.000000 7440600.000000,3701236.400000 7441145.300000,3695700.000000 7440600.000000,3690163.600000 7440600.000000,3684600.000000 7439514.600000,3679143.200000 7438969.300000,3673607.000000 7437354.500000,3668283.500000 7436269.000000,3662826.600000 7434139.900000,3657686.500000 7432525.000000,3652362.900000 7429902.500000,3647456.500000 7427773.400000,3642316.500000 7424682.500000,3637690.600000 7422060.000000,3632784.300000 7418530.900000,3628484.100000 7415439.800000,3623857.900000 7411505.500000,3619923.600000 7407976.500000,3615623.500000 7403676.400000,3612094.500000 7399742.100000,3608160.200000 7395115.900000,3605069.100000 7390815.700000,3601540.000000 7385909.400000,3598917.500000 7381283.500000,3595826.600000 7376143.500000,3593697.500000 7371237.100000,3591075.000000 7365913.500000,3589460.100000 7360773.400000,3587331.000000 7355316.500000,3586245.500000 7349993.000000,3584630.700000 7344456.800000,3584085.400000 7339000.000000,3583000.000000 7333436.400000,3583000.000000 7327900.000000,3582454.700000 7322363.600000,3583000.000000 7316800.000000,3583000.000000 7311343.200000,3584085.400000 7305807.000000,3584630.700000 7300483.600000,3586245.500000 7295026.600000,3587331.000000 7289886.300000,3589460.200000 7284563.000000,3591075.000000 7279656.900000,3593697.400000 7274516.500000,3595826.600000 7269890.200000,3598917.800000 7264984.400000,3601540.000000 7260684.500000,3605068.800000 7256057.900000,3608160.200000 7249523.100000,3614695.000000 7245223.600000,3618223.500000 7241695.100000,3622523.000000 7240360.200000,3623857.900000 7239311.700000,3625427.100000 7231140.000000,3635384.400000 7220675.000000,3654963.000000 7216185.600000,3669762.700000 7214230.800000,3676206.900000 7212600.100000,3692763.500000 7212054.800000,3698300.000000 7212600.100000,3703836.400000 7212600.100000,3721696.700000 7155500.000000,3721696.700000 7143208.700000,3722907.300000 7131389.700000,3726492.500000 7120497.200000,3732314.700000 7110949.900000,3740149.900000 7103114.700000,3749697.200000 7097292.500000,3760589.700000 7093707.300000,3772408.700000 7092496.700000,3784700.000000 7092496.700000,4114700.000000 7093707.300000,4126991.300000 7097292.500000,4138810.300000 7103114.700000,4149702.800000 7110949.900000,4159250.100000 7120497.200000,4167085.300000 7131389.700000,4172907.500000 7143208.700000,4176492.700000 7155500.000000,4177703.300000 7212600.100000,4177703.300000 7212600.100000,4208263.600000 7212054.800000,4213800.000000 7212600.100000,4219336.400000 7212600.100000,4219336.500000 7213404.200000,4227500.000000 7214230.800000,4235893.000000 7220675.000000,4257137.000000 7231140.000000,4276715.600000 7239311.700000,4286672.900000 7240360.200000,4288242.100000 7241695.100000,4289577.000000 7245223.600000,4293876.500000 7249523.100000,4297405.000000 7256057.900000,4303939.800000 7260684.500000,4307031.200000 7264984.400000,4310560.000000 7269890.200000,4313182.200000 7274516.500000,4316273.400000 7279656.900000,4318402.600000 7284563.000000,4321025.000000 7289886.300000,4322639.800000 7295026.600000,4324769.000000 7300483.600000,4325854.500000 7305807.000000,4327469.300000 7311343.200000,4328014.600000 7316800.000000,4329100.000000 7322363.600000,4329100.000000 7327900.000000,4329645.300000 7333436.400000,4329100.000000 7339000.000000,4329100.000000 7344456.800000,4328014.600000 7349993.000000,4327469.300000 7355316.500000,4325854.500000 7360773.400000,4324769.000000 7365913.500000,4322639.900000 7371237.100000,4321025.000000 7376143.500000,4318402.500000 7381283.500000,4316273.400000 7385909.400000,4313182.500000 7390815.700000,4310560.000000 7395115.900000,4307030.900000 7399742.100000,4303939.800000 7403676.400000,4300005.500000 7407976.500000,4296476.500000 7411505.500000,4292176.400000 7415439.800000,4288242.100000 7418530.900000,4283615.900000 7422060.000000,4279315.700000 7424682.500000,4274409.400000 7427773.400000,4269783.500000 7429902.500000,4264643.500000 7432525.000000,4259737.100000 7434139.900000,4254413.500000 7436269.000000,4249273.400000 7437354.500000,4243816.500000 7438969.300000,4238493.000000 7439514.600000,4232956.800000 7440600.000000,4227500.000000 7440600.000000,4221936.400000 7441145.300000,4216400.000000 7440600.000000,4210863.600000 7440600.000000,4205300.000000 7439514.600000,4199843.200000 7438969.300000,4194307.000000 7438000.000000,4191111.600000 7438000.000000,4177703.300000 7491300.000000,4177703.300000 7491300.000000,4492328.200000 7463586.900000,4464615.100000 7422198.300000,4436960.200000 7376209.900000,4417911.100000 7327388.800000,4408200.000000 7277611.200000,4408200.000000 7228790.100000,4417911.100000 7182801.700000,4436960.200000 7141413.100000,4464615.100000 7106215.100000,4499813.100000 7078560.200000,4541201.700000 7059511.100000,4587190.100000 7049800.000000,4636011.200000 7049800.000000,4685788.800000 7059511.100000,4734609.900000 7078560.200000,4780598.300000 7106215.100000,4821986.900000 7133928.200000,4849700.000000 5947071.800000,4849700.000000 5974784.900000,4821986.900000 6002439.800000,4780598.300000 6021488.900000,4734609.900000 6031200.000000,4685788.800000 6031200.000000,4636011.200000 6021488.900000,4587190.100000 6002439.800000,4541201.700000 5974784.900000,4499813.100000 5939586.900000,4464615.100000 5898198.300000,4436960.200000 5852209.900000,4417911.100000 5803388.800000,4408200.000000 5753611.200000,4408200.000000 5704790.100000,4417911.100000 5658801.700000,4436960.200000 5617413.100000,4464615.100000 5589700.000000,4492328.200000 5589700.000000,4177703.300000 5637800.100000,4177703.300000 5637800.100000,4208263.600000 5637254.800000,4213800.000000 5637800.100000,4219336.400000 5637800.100000,4219336.500000 5638604.200000,4227500.000000 5639430.800000,4235893.000000 5645875.000000,4257137.000000 5656340.000000,4276715.600000 5664511.700000,4286672.900000 5665560.200000,4288242.100000 5666895.100000,4289577.000000 5670423.600000,4293876.500000 5674723.100000,4297405.000000 5681257.900000,4303939.800000 5685884.500000,4307031.200000 5690184.400000,4310560.000000 5695090.200000,4313182.200000 5699716.500000,4316273.400000 5704856.900000,4318402.600000 5709763.000000,4321025.000000 5715086.300000,4322639.800000 5720226.600000,4324769.000000 5725683.600000,4325854.500000 5731007.000000,4327469.300000 5736543.200000,4328014.600000 5742000.000000,4329100.000000 5747563.600000,4329100.000000 5753100.000000,4329645.300000 5758636.400000,4329100.000000 5764200.000000,4329100.000000 5769656.800000,4328014.600000 5775193.000000,4327469.300000 5780516.500000,4325854.500000 5785973.400000,4324769.000000 5791113.500000,4322639.900000 5796437.100000,4321025.000000 5801343.500000,4318402.500000 5806483.500000,4316273.400000 5811109.400000,4313182.500000 5816015.700000,4310560.000000 5820315.900000,4307030.900000 5824942.100000,4303939.800000 5828876.400000,4300005.500000 5833176.500000,4296476.500000 5835960.400000,4293084.300000 6249865.900000,4293084.300000 6297799.000000,4347207.900000 6380012.400000,4386918.500000 6468393.300000,4409827.000000 6559545.100000,4415053.100000 6649965.100000,4402396.000000 6736178.400000,4372342.000000 6783201.000000,4347207.900000 6831134.100000,4293084.300000 6540500.000000,4002450.200000 6249865.900000,4293084.300000 5835960.400000,4293084.300000 5836705.500000,4292176.400000 5840639.800000,4288242.100000 5843730.900000,4283615.900000 5847260.000000,4279315.700000 5849882.500000,4274409.400000 5852973.400000,4269783.500000 5855102.500000,4264643.500000 5857725.000000,4259737.100000 5859339.900000,4254413.500000 5861469.000000,4249273.400000 5862554.500000,4243816.500000 5864169.300000,4238493.000000 5864714.600000,4232956.800000 5865800.000000,4227500.000000 5865800.000000,4221936.400000 5866345.300000,4216400.000000 5865800.000000,4210863.600000 5865800.000000,4205300.000000 5864714.600000,4199843.200000 5864169.300000,4194307.000000 5863200.000000,4191111.600000 5863200.000000,4177703.300000 5925500.000000,4177703.300000 5937791.300000,4176492.700000 5949610.300000,4172907.500000 5960502.800000,4167085.300000 5970050.100000,4159250.100000 5977885.300000,4149702.800000 5983707.500000,4138810.300000 5987292.700000,4126991.300000 5988503.300000,4114700.000000 5988503.300000,3968745.100000 6075146.900000,3968745.100000 6087804.000000,4059165.100000 6117858.000000,4145378.400000 6142992.100000,4192401.000000 6197115.700000,4240334.100000 6487749.800000,3949700.000000 6593250.200000,3949700.000000 6883884.300000,4240334.100000 6938007.900000,4192401.000000 6977718.500000,4110187.600000 7000627.000000,4021806.700000 7005853.100000,3930654.900000 6993196.000000,3840234.900000 6963142.000000,3754021.600000 6938007.900000,3706999.000000 6883884.300000,3659065.900000 6593250.200000,3949700.000000 6487749.800000,3949700.000000 6197115.700000,3659065.900000 6142992.100000,3706999.000000 6103281.500000,3789212.400000 6080373.000000,3877593.300000 6075146.900000,3968745.100000 5988503.300000,3968745.100000 5988503.300000,3784700.000000 5987292.700000,3772408.700000 5983707.500000,3760589.700000 5977885.300000,3749697.200000 5970050.100000,3740149.900000 5960502.800000,3732314.700000 5949610.300000,3726492.500000 5937791.300000,3722907.300000 5925500.000000,3721696.700000 5863200.000000,3721696.700000 5863200.000000,3720988.400000 5864169.300000,3717793.000000 5864714.600000,3712256.800000 5865800.000000,3706800.000000 5865800.000000,3701236.400000 5866345.300000,3695700.000000 5865800.000000,3690163.600000 5865800.000000,3684600.000000 5864714.600000,3679143.200000 5864169.300000,3673607.000000 5862554.500000,3668283.500000 5861469.000000,3662826.600000 5859339.900000,3657686.500000 5857725.000000,3652362.900000 5855102.500000,3647456.500000 5852973.400000,3642316.500000 5849882.500000,3637690.600000 5847260.000000,3632784.300000 5843730.900000,3628484.100000 5840639.800000,3623857.900000 5836705.500000,3619923.600000 5833176.500000,3615623.500000 5828876.400000,3612094.500000 5824942.100000,3608160.200000 5822181.600000,3606315.700000 6249865.900000,3606315.700000 6540500.000000,3896949.800000 6831134.100000,3606315.700000 6783201.000000,3552192.100000 6700987.600000,3512481.500000 6612606.700000,3489573.000000 6521454.900000,3484346.900000 6431034.900000,3497004.000000 6344821.600000,3527058.000000 6297799.000000,3552192.100000 6249865.900000,3606315.700000 5822181.600000,3606315.700000 5820315.900000,3605069.100000 5816015.700000,3601540.000000 5811109.400000,3598917.500000 5806483.500000,3595826.600000 5801343.500000,3593697.500000 5796437.100000,3591075.000000 5791113.500000,3589460.100000 5785973.400000,3587331.000000 5780516.500000,3586245.500000 5775193.000000,3584630.700000 5769656.800000,3584085.400000 5764200.000000,3583000.000000 5758636.400000,3583000.000000 5753100.000000,3582454.700000 5747563.600000,3583000.000000 5742000.000000,3583000.000000 5736543.200000,3584085.400000 5731007.000000,3584630.700000 5725683.600000,3586245.500000 5720226.600000,3587331.000000 5715086.300000,3589460.200000 5709763.000000,3591075.000000 5704856.900000,3593697.400000 5699716.500000,3595826.600000 5695090.200000,3598917.800000 5690184.400000,3601540.000000 5685884.500000,3605068.800000 5681257.900000,3608160.200000 5674723.100000,3614695.000000 5670423.600000,3618223.500000 5666895.100000,3622523.000000 5665560.200000,3623857.900000 5664511.700000,3625427.100000 5656340.000000,3635384.400000 5645875.000000,3654963.000000 5641385.600000,3669762.700000 5639430.800000,3676206.900000 5637800.100000,3692763.500000 5637254.800000,3698300.000000 5637800.100000,3703836.400000 5637800.100000,3721696.700000 5589700.000000,3721696.700000 5589700.000000,3305471.800000 5617413.100000,3333184.900000 5658801.700000,3360839.800000 5704790.100000,3379888.900000 5753611.200000,3389600.000000 5803388.800000,3389600.000000 5852209.900000,3379888.900000 5898198.300000,3360839.800000 5939586.900000,3333184.900000 5974784.900000,3297986.900000 6002439.800000,3256598.300000 6021488.900000,3210609.900000 6031200.000000,3161788.800000 6031200.000000,3112011.200000 6022689.700000,3069226.800000 6023364.000000,3069226.800000 6037553.900000,3094645.700000 6056430.100000,3116807.800000 6079267.200000,3134861.500000 6100173.500000,3146034.500000 6122200.000000,3137171.800000 6122200.000000,3047200.000000 6196800.000000,3047200.000000 6196800.000000,3137171.800000 6218826.500000,3146034.500000 6239732.800000,3134861.500000 6262569.900000,3116807.800000 6281446.100000,3094645.700000 6286500.000000,3085592.500000 6291553.900000,3094645.700000 6310430.100000,3116807.800000 6333267.200000,3134861.500000 6354173.500000,3146034.500000 6376200.000000,3137171.800000 6376200.000000,3047200.000000 6196800.000000,3047200.000000 6122200.000000,3047200.000000 6031634.300000,3047200.000000 6023364.000000,3069226.800000 6022689.700000,3069226.800000 6021488.900000,3063190.100000 6002439.800000,3017201.700000 5974784.900000,2975813.100000 5947071.800000,2948100.000000 6024744.600000,2948100.000000 Z"/> 
</g>
</g>
</g> 
</g><g id="substrate-silk" style="fill:#f0f0f0; stroke:#f0f0f0;" mask="url(#pads-mask-silkscreen)"><g style="fill-opacity: 0.0;stroke-width: 15000.000000;stroke-opacity: 1;stroke-linecap: round;stroke-linejoin: round">
<g transform="rotate(-180.000000 6794500.000000 3175000.000000)">
<text x="6794500.000000" y="3225000.000000" textLength="180952.500000" font-size="133333.300000" lengthAdjust="spacingAndGlyphs" text-anchor="middle" opacity="0">3V</text>
</g>
<g class="stroked-text"><desc>3V</desc>
<path d="M6870690 3229761 L6808785 3229761 L6842119 3191666 L6827833 3191666 L6818309 3186904 L6813547 3182142 L6808785 3172619 L6808785 3148809 L6813547 3139285 L6818309 3134523 L6827833 3129761 L6856404 3129761 L6865928 3134523 L6870690 3139285 "/>
<path d="M6780214 3229761 L6746880 3129761 L6713547 3229761 "/>
</g><g transform="rotate(-180.000000 6286500.000000 3175000.000000)">
<text x="6286500.000000" y="3225000.000000" textLength="324261.900000" font-size="133333.300000" lengthAdjust="spacingAndGlyphs" text-anchor="middle" opacity="0">GND</text>
</g>
<g class="stroked-text"><desc>GND</desc>
<path d="M6362690 3225000 L6372214 3229761 L6386500 3229761 L6400785 3225000 L6410309 3215476 L6415071 3205952 L6419833 3186904 L6419833 3172619 L6415071 3153571 L6410309 3144047 L6400785 3134523 L6386500 3129761 L6376976 3129761 L6362690 3134523 L6357928 3139285 L6357928 3172619 L6376976 3172619 "/>
<path d="M6315071 3129761 L6315071 3229761 L6257928 3129761 L6257928 3229761 "/>
<path d="M6210309 3129761 L6210309 3229761 L6186500 3229761 L6172214 3225000 L6162690 3215476 L6157928 3205952 L6153166 3186904 L6153166 3172619 L6157928 3153571 L6162690 3144047 L6172214 3134523 L6186500 3129761 L6210309 3129761 "/>
</g><circle cx="7302500.000000" cy="4660900.000000" r="210000.000000"/> 
<circle cx="7302500.000000" cy="3136900.000000" r="210000.000000"/> 
<circle cx="5778500.000000" cy="4660900.000000" r="210000.000000"/> 
<circle cx="5778500.000000" cy="3136900.000000" r="210000.000000"/> 
</g>
<g style="fill-opacity: 0.0;stroke-width: 12000.000000;stroke-opacity: 1;stroke-linecap: round;stroke-linejoin: round">
<path d="M7215500 3604700 L7215500 3749700 "/>
<path d="M6955500 3344700 L7215500 3604700 "/>
<path d="M6955500 3264700 L6955500 3344700 "/>
<path d="M6125500 3264700 L6955500 3264700 "/>
<path d="M6125500 3344700 L6125500 3264700 "/>
<path d="M5865500 3604700 L6125500 3344700 "/>
<path d="M5865500 3749700 L5865500 3604700 "/>
<path d="M5865500 4149700 L5865500 4359700 "/>
<path d="M7215500 4149700 L7215500 4359700 "/>
<path d="M5865500.010192 4354700.000340 A150083.300000 150083.300000 0.0 0 0 6010500.000340 4509699.989808"/>
<path d="M7070499.999660 4509699.989808 A150083.300000 150083.300000 0.0 0 0 7215499.989808 4354700.000340"/>
<path d="M6989566.131324 4468567.074112 A582580.500000 582580.500000 0.0 0 0 6090499.974159 4469699.978753"/>
<path d="M5999038.500579 4508115.995425 A99201.800000 99201.800000 0.0 0 0 6090499.988453 4469699.991230"/>
<path d="M6990500.011547 4469699.991230 A99201.800000 99201.800000 0.0 0 0 7081961.499421 4508115.995425"/>
</g> 
</g><g id="substrate-outline" style="fill:#000000; stroke:#000000; stroke-width: 15000.0"><g style="fill-opacity: 0.0;stroke-opacity: 1;stroke-linecap: round;stroke-linejoin: round">
<path d="M5778500 4914900 L7302500 4914900 "/>
<path d="M5524500 3136900 L5524500 4660900 "/>
<path d="M7302500 2882900 L5778500 2882900 "/>
<path d="M7556500 4660900 L7556500 3136900 "/>
<path d="M7302500.000000 4914900.000000 A254000.000000 254000.000000 0.0 0 0 7556500.000000 4660900.000000"/>
<path d="M5524500.000000 4660900.000000 A254000.000000 254000.000000 0.0 0 0 5778500.000000 4914900.000000"/>
<path d="M5778500.000000 2882900.000000 A254000.000000 254000.000000 0.0 0 0 5524500.000000 3136900.000000"/>
<path d="M7556500.000000 3136900.000000 A254000.000000 254000.000000 0.0 0 0 7302500.000000 2882900.000000"/>
</g> 
<path d="M -135000.0 0.0 A 135000.0 135000.0 0 1 1 135000.0 0.0 L 135000.0 -0.0 A 135000.0 135000.0 0 1 1 -135000.0 -0.0 Z" transform="translate(7302500.0 4660900.0) rotate(-0.0)"/><path d="M -135000.0 0.0 A 135000.0 135000.0 0 1 1 135000.0 0.0 L 135000.0 -0.0 A 135000.0 135000.0 0 1 1 -135000.0 -0.0 Z" transform="translate(7302500.0 3136900.0) rotate(-0.0)"/><path d="M -135000.0 0.0 A 135000.0 135000.0 0 1 1 135000.0 0.0 L 135000.0 -0.0 A 135000.0 135000.0 0 1 1 -135000.0 -0.0 Z" transform="translate(5778500.0 4660900.0) rotate(-0.0)"/><path d="M -135000.0 0.0 A 135000.0 135000.0 0 1 1 135000.0 0.0 L 135000.0 -0.0 A 135000.0 135000.0 0 1 1 -135000.0 -0.0 Z" transform="translate(5778500.0 3136900.0) rotate(-0.0)"/><path d="M -50000.0 0.0 A 50000.0 50000.0 0 1 1 50000.0 0.0 L 50000.0 -0.0 A 50000.0 50000.0 0 1 1 -50000.0 -0.0 Z" transform="translate(6159500.0 3009900.0) rotate(-270.0)"/><path d="M -50000.0 0.0 A 50000.0 50000.0 0 1 1 50000.0 0.0 L 50000.0 -0.0 A 50000.0 50000.0 0 1 1 -50000.0 -0.0 Z" transform="translate(6413500.0 3009900.0) rotate(-270.0)"/><path d="M -50000.0 0.0 A 50000.0 50000.0 0 1 1 50000.0 0.0 L 50000.0 -0.0 A 50000.0 50000.0 0 1 1 -50000.0 -0.0 Z" transform="translate(6667500.0 3009900.0) rotate(-270.0)"/><path d="M -50000.0 0.0 A 50000.0 50000.0 0 1 1 50000.0 0.0 L 50000.0 -0.0 A 50000.0 50000.0 0 1 1 -50000.0 -0.0 Z" transform="translate(6921500.0 3009900.0) rotate(-270.0)"/><path d="M -30000.0 0.0 A 30000.0 30000.0 0 1 1 30000.0 0.0 L 30000.0 -0.0 A 30000.0 30000.0 0 1 1 -30000.0 -0.0 Z" transform="translate(5753100.0 4216400.0) rotate(0.0)"/><path d="M -30000.0 0.0 A 30000.0 30000.0 0 1 1 30000.0 0.0 L 30000.0 -0.0 A 30000.0 30000.0 0 1 1 -30000.0 -0.0 Z" transform="translate(5753100.0 3695700.0) rotate(0.0)"/><path d="M -30000.0 0.0 A 30000.0 30000.0 0 1 1 30000.0 0.0 L 30000.0 -0.0 A 30000.0 30000.0 0 1 1 -30000.0 -0.0 Z" transform="translate(7327900.0 3695700.0) rotate(0.0)"/><path d="M -30000.0 0.0 A 30000.0 30000.0 0 1 1 30000.0 0.0 L 30000.0 -0.0 A 30000.0 30000.0 0 1 1 -30000.0 -0.0 Z" transform="translate(7327900.0 4216400.0) rotate(0.0)"/></g></g></g><g transform="" id="componentContainer"><!--Connector_PinHeader_2.54mm:PinHeader_1x04_P2.54mm_Vertical:J1--><g transform="translate(6921500.0 3009900.0) scale(99999.98076924187, 100000.0) rotate(90.0) translate(-1.3000000715255737 -1.299933671951294)"><g id="pref_11_Connector_PinHeader_254mm__PinHeader_1x04_P254mm_Vertical_Conn_01x04"><g id="pref_12pin">
    <rect style="opacity:1;fill:#000000;fill-opacity:1;fill-rule:nonzero;stroke:#141414;stroke-width:1.15387;stroke-linecap:round;stroke-linejoin:bevel;stroke-miterlimit:4;stroke-dasharray:none;stroke-opacity:1" id="pref_12rect4686" width="1.4461316" height="1.4461316" x="0.57693499" y="0.57693422"/>
    <rect y="1.0419546" x="1.0419546" height="0.51612419" width="0.51612419" id="pref_12rect156830" style="opacity:1;fill:#fcf23a;fill-opacity:1;fill-rule:nonzero;stroke:#eb9d02;stroke-width:0.123876;stroke-linecap:round;stroke-linejoin:bevel;stroke-miterlimit:4;stroke-dasharray:none;stroke-opacity:1"/>
  </g>
  <g transform="translate(0,2.5400008)" id="pref_12g13">
    <rect style="opacity:1;fill:#000000;fill-opacity:1;fill-rule:nonzero;stroke:#141414;stroke-width:1.15387;stroke-linecap:round;stroke-linejoin:bevel;stroke-miterlimit:4;stroke-dasharray:none;stroke-opacity:1" id="pref_12rect9" width="1.4461316" height="1.4461316" x="0.57693499" y="0.57693422"/>
    <rect y="1.0419546" x="1.0419546" height="0.51612419" width="0.51612419" id="pref_12rect11" style="opacity:1;fill:#fcf23a;fill-opacity:1;fill-rule:nonzero;stroke:#eb9d02;stroke-width:0.123876;stroke-linecap:round;stroke-linejoin:bevel;stroke-miterlimit:4;stroke-dasharray:none;stroke-opacity:1"/>
  </g>
  <g transform="translate(0,5.0800008)" id="pref_12g19">
    <rect style="opacity:1;fill:#000000;fill-opacity:1;fill-rule:nonzero;stroke:#141414;stroke-width:1.15387;stroke-linecap:round;stroke-linejoin:bevel;stroke-miterlimit:4;stroke-dasharray:none;stroke-opacity:1" id="pref_12rect15" width="1.4461316" height="1.4461316" x="0.57693499" y="0.57693422"/>
    <rect y="1.0419546" x="1.0419546" height="0.51612419" width="0.51612419" id="pref_12rect17" style="opacity:1;fill:#fcf23a;fill-opacity:1;fill-rule:nonzero;stroke:#eb9d02;stroke-width:0.123876;stroke-linecap:round;stroke-linejoin:bevel;stroke-miterlimit:4;stroke-dasharray:none;stroke-opacity:1"/>
  </g>
  <g transform="translate(0,7.6200008)" id="pref_12g25">
    <rect style="opacity:1;fill:#000000;fill-opacity:1;fill-rule:nonzero;stroke:#141414;stroke-width:1.15387;stroke-linecap:round;stroke-linejoin:bevel;stroke-miterlimit:4;stroke-dasharray:none;stroke-opacity:1" id="pref_12rect21" width="1.4461316" height="1.4461316" x="0.57693499" y="0.57693422"/>
    <rect y="1.0419546" x="1.0419546" height="0.51612419" width="0.51612419" id="pref_12rect23" style="opacity:1;fill:#fcf23a;fill-opacity:1;fill-rule:nonzero;stroke:#eb9d02;stroke-width:0.123876;stroke-linecap:round;stroke-linejoin:bevel;stroke-miterlimit:4;stroke-dasharray:none;stroke-opacity:1"/>
  </g>
</g></g></g></svg>