<!DOCTYPE svg PUBLIC "-//W3C//DTD SVG 1.1//EN" "http://www.w3.org/Graphics/SVG/1.1/DTD/svg11.dtd">
<svg xmlns="http://www.w3.org/2000/svg" version="1.1" width="50.26mm" height="80.74mm" viewBox="123371100.0 64633600.0 50260000.0 80740000.0">
            <title>Picture generated by PcbDraw </title>
            <desc>Picture generated by PcbDraw</desc>
        <defs><clipPath id="cut-off"><path d=" M 124371100.0 65633600.0 L 172631100.0 65633600.0 L 172631100.0 144373600.0 L 124371100.0 144373600.0 L 124371100.0 65633600.0 " style="fill-rule: evenodd;"/></clipPath><mask id="pads-mask"><g style="fill:#ffffff; fill-opacity:0.0;  stroke:#ffffff; stroke-width:0.000000; stroke-opacity:1;  stroke-linecap:round; stroke-linejoin:round;">
<g style="fill:#ffffff; fill-opacity:1.0;  stroke:#ffffff; stroke-width:1.000000; stroke-opacity:1;  stroke-linecap:round; stroke-linejoin:round;">
<circle cx="168821100.000000" cy="140563600.000000" r="1651000.000000"/> 
</g>
<g style="fill:#ffffff; fill-opacity:1.0;  stroke:#ffffff; stroke-width:1.000000; stroke-opacity:1;  stroke-linecap:round; stroke-linejoin:round;">
<circle cx="143421100.000000" cy="143103600.000000" r="1041400.000000"/> 
</g>
<g style="fill:#ffffff; fill-opacity:1.0;  stroke:#ffffff; stroke-width:1.000000; stroke-opacity:1;  stroke-linecap:round; stroke-linejoin:round;">
<circle cx="145961100.000000" cy="143103600.000000" r="1041400.000000"/> 
</g>
<g style="fill:#ffffff; fill-opacity:1.0;  stroke:#ffffff; stroke-width:1.000000; stroke-opacity:1;  stroke-linecap:round; stroke-linejoin:round;">
<circle cx="148501100.000000" cy="143103600.000000" r="1041400.000000"/> 
</g>
<g style="fill:#ffffff; fill-opacity:1.0;  stroke:#ffffff; stroke-width:1.000000; stroke-opacity:1;  stroke-linecap:round; stroke-linejoin:round;">
<circle cx="151041100.000000" cy="143103600.000000" r="1041400.000000"/> 
</g>
<g style="fill:#ffffff; fill-opacity:1.0;  stroke:#ffffff; stroke-width:1.000000; stroke-opacity:1;  stroke-linecap:round; stroke-linejoin:round;">
<circle cx="153581100.000000" cy="143103600.000000" r="1041400.000000"/> 
</g>
<g style="fill:#ffffff; fill-opacity:1.0;  stroke:#ffffff; stroke-width:1.000000; stroke-opacity:1;  stroke-linecap:round; stroke-linejoin:round;">
<circle cx="168821100.000000" cy="68173600.000000" r="1651000.000000"/> 
</g>
<g style="fill:#ffffff; fill-opacity:1.0;  stroke:#ffffff; stroke-width:1.000000; stroke-opacity:1;  stroke-linecap:round; stroke-linejoin:round;">
<circle cx="128181100.000000" cy="68173600.000000" r="1651000.000000"/> 
</g>
<g style="fill:#ffffff; fill-opacity:1.0;  stroke:#ffffff; stroke-width:1.000000; stroke-opacity:1;  stroke-linecap:round; stroke-linejoin:round;">
<circle cx="128181100.000000" cy="140563600.000000" r="1651000.000000"/> 
</g>
</g> 
</mask><mask id="pads-mask-silkscreen"><rect x="103752188" y="65316100" width="103273013" height="102167500" fill="white"/><g style="fill:#000000; fill-opacity:0.0;  stroke:#000000; stroke-width:0.000000; stroke-opacity:1;  stroke-linecap:round; stroke-linejoin:round;">
<g style="fill:#000000; fill-opacity:1.0;  stroke:#000000; stroke-width:1.000000; stroke-opacity:1;  stroke-linecap:round; stroke-linejoin:round;">
<circle cx="168821100.000000" cy="140563600.000000" r="1651000.000000"/> 
</g>
<g style="fill:#000000; fill-opacity:1.0;  stroke:#000000; stroke-width:1.000000; stroke-opacity:1;  stroke-linecap:round; stroke-linejoin:round;">
<circle cx="143421100.000000" cy="143103600.000000" r="1041400.000000"/> 
</g>
<g style="fill:#000000; fill-opacity:1.0;  stroke:#000000; stroke-width:1.000000; stroke-opacity:1;  stroke-linecap:round; stroke-linejoin:round;">
<circle cx="145961100.000000" cy="143103600.000000" r="1041400.000000"/> 
</g>
<g style="fill:#000000; fill-opacity:1.0;  stroke:#000000; stroke-width:1.000000; stroke-opacity:1;  stroke-linecap:round; stroke-linejoin:round;">
<circle cx="148501100.000000" cy="143103600.000000" r="1041400.000000"/> 
</g>
<g style="fill:#000000; fill-opacity:1.0;  stroke:#000000; stroke-width:1.000000; stroke-opacity:1;  stroke-linecap:round; stroke-linejoin:round;">
<circle cx="151041100.000000" cy="143103600.000000" r="1041400.000000"/> 
</g>
<g style="fill:#000000; fill-opacity:1.0;  stroke:#000000; stroke-width:1.000000; stroke-opacity:1;  stroke-linecap:round; stroke-linejoin:round;">
<circle cx="153581100.000000" cy="143103600.000000" r="1041400.000000"/> 
</g>
<g style="fill:#000000; fill-opacity:1.0;  stroke:#000000; stroke-width:1.000000; stroke-opacity:1;  stroke-linecap:round; stroke-linejoin:round;">
<circle cx="168821100.000000" cy="68173600.000000" r="1651000.000000"/> 
</g>
<g style="fill:#000000; fill-opacity:1.0;  stroke:#000000; stroke-width:1.000000; stroke-opacity:1;  stroke-linecap:round; stroke-linejoin:round;">
<circle cx="128181100.000000" cy="68173600.000000" r="1651000.000000"/> 
</g>
<g style="fill:#000000; fill-opacity:1.0;  stroke:#000000; stroke-width:1.000000; stroke-opacity:1;  stroke-linecap:round; stroke-linejoin:round;">
<circle cx="128181100.000000" cy="140563600.000000" r="1651000.000000"/> 
</g>
</g> 
</mask><mask id="hole-mask"><g><rect x="103752188" y="65316100" fill="white" width="103273013" height="102167500"/><polyline stroke-linecap="round" stroke="black" stroke-width="3302000" points="0.0 0 0.0 0" transform="translate(168821100 140563600) rotate(-180.0)"/><polyline stroke-linecap="round" stroke="black" stroke-width="1016000" points="0.0 0 0.0 0" transform="translate(143421100 143103600) rotate(-270.0)"/><polyline stroke-linecap="round" stroke="black" stroke-width="1016000" points="0.0 0 0.0 0" transform="translate(145961100 143103600) rotate(-270.0)"/><polyline stroke-linecap="round" stroke="black" stroke-width="1016000" points="0.0 0 0.0 0" transform="translate(148501100 143103600) rotate(-270.0)"/><polyline stroke-linecap="round" stroke="black" stroke-width="1016000" points="0.0 0 0.0 0" transform="translate(151041100 143103600) rotate(-270.0)"/><polyline stroke-linecap="round" stroke="black" stroke-width="1016000" points="0.0 0 0.0 0" transform="translate(153581100 143103600) rotate(-270.0)"/><polyline stroke-linecap="round" stroke="black" stroke-width="3302000" points="0.0 0 0.0 0" transform="translate(168821100 68173600) rotate(-180.0)"/><polyline stroke-linecap="round" stroke="black" stroke-width="3302000" points="0.0 0 0.0 0" transform="translate(128181100 68173600) rotate(-180.0)"/><polyline stroke-linecap="round" stroke="black" stroke-width="3302000" points="0.0 0 0.0 0" transform="translate(128181100 140563600) rotate(-180.0)"/><polyline stroke-linecap="round" stroke="black" stroke-width="508000" points="0.0 0 0.0 0" transform="translate(158661100 139293600) rotate(0.0)"/><polyline stroke-linecap="round" stroke="black" stroke-width="508000" points="0.0 0 0.0 0" transform="translate(147231100 139293600) rotate(0.0)"/><polyline stroke-linecap="round" stroke="black" stroke-width="508000" points="0.0 0 0.0 0" transform="translate(168821100 83413600) rotate(0.0)"/><polyline stroke-linecap="round" stroke="black" stroke-width="508000" points="0.0 0 0.0 0" transform="translate(168821100 98653600) rotate(0.0)"/><polyline stroke-linecap="round" stroke="black" stroke-width="508000" points="0.0 0 0.0 0" transform="translate(168821100 113893600) rotate(0.0)"/><polyline stroke-linecap="round" stroke="black" stroke-width="508000" points="0.0 0 0.0 0" transform="translate(163741100 129133600) rotate(0.0)"/><polyline stroke-linecap="round" stroke="black" stroke-width="508000" points="0.0 0 0.0 0" transform="translate(153581100 83413600) rotate(0.0)"/><polyline stroke-linecap="round" stroke="black" stroke-width="508000" points="0.0 0 0.0 0" transform="translate(153581100 98653600) rotate(0.0)"/><polyline stroke-linecap="round" stroke="black" stroke-width="508000" points="0.0 0 0.0 0" transform="translate(153581100 113893600) rotate(0.0)"/><polyline stroke-linecap="round" stroke="black" stroke-width="508000" points="0.0 0 0.0 0" transform="translate(148501100 129133600) rotate(0.0)"/><polyline stroke-linecap="round" stroke="black" stroke-width="508000" points="0.0 0 0.0 0" transform="translate(138341100 83413600) rotate(0.0)"/><polyline stroke-linecap="round" stroke="black" stroke-width="508000" points="0.0 0 0.0 0" transform="translate(138341100 98653600) rotate(0.0)"/><polyline stroke-linecap="round" stroke="black" stroke-width="508000" points="0.0 0 0.0 0" transform="translate(138341100 113893600) rotate(0.0)"/><polyline stroke-linecap="round" stroke="black" stroke-width="508000" points="0.0 0 0.0 0" transform="translate(133261100 129133600) rotate(0.0)"/></g></mask></defs><g transform="" id="boardContainer"><g id="substrate" clip-path="url(#cut-off)" mask="url(#hole-mask)"><g id="substrate-board" style="fill:#4ca06c; stroke:#4ca06c;"><path d=" M 124371100.0 65633600.0 L 172631100.0 65633600.0 L 172631100.0 144373600.0 L 124371100.0 144373600.0 L 124371100.0 65633600.0 " style="fill-rule: evenodd;"/><g style="fill-opacity: 0.0;stroke-width: 203200.000000;stroke-opacity: 1;stroke-linecap: round;stroke-linejoin: round">
<path d="M124371100 144373600 L124371100 65633600 "/>
<path d="M172631100 144373600 L124371100 144373600 "/>
<path d="M172631100 65633600 L172631100 144373600 "/>
<path d="M124371100 65633600 L172631100 65633600 "/>
</g> 
</g><g id="substrate-clad" style="fill:#9c6b28; stroke:#9c6b28;"><g style="fill-opacity: 0.0;stroke-width: 0.000000;stroke-opacity: 1;stroke-linecap: round;stroke-linejoin: round">
<g style="fill-opacity: 1.0;stroke-width: 1.000000;stroke-opacity: 1;stroke-linecap: round;stroke-linejoin: round">
<circle cx="168821100.000000" cy="140563600.000000" r="1651000.000000"/> 
</g>
<g style="fill-opacity: 1.0;stroke-width: 1.000000;stroke-opacity: 1;stroke-linecap: round;stroke-linejoin: round">
<circle cx="143421100.000000" cy="143103600.000000" r="1041400.000000"/> 
</g>
<g style="fill-opacity: 1.0;stroke-width: 1.000000;stroke-opacity: 1;stroke-linecap: round;stroke-linejoin: round">
<circle cx="145961100.000000" cy="143103600.000000" r="1041400.000000"/> 
</g>
<g style="fill-opacity: 1.0;stroke-width: 1.000000;stroke-opacity: 1;stroke-linecap: round;stroke-linejoin: round">
<circle cx="148501100.000000" cy="143103600.000000" r="1041400.000000"/> 
</g>
<g style="fill-opacity: 1.0;stroke-width: 1.000000;stroke-opacity: 1;stroke-linecap: round;stroke-linejoin: round">
<circle cx="151041100.000000" cy="143103600.000000" r="1041400.000000"/> 
</g>
<g style="fill-opacity: 1.0;stroke-width: 1.000000;stroke-opacity: 1;stroke-linecap: round;stroke-linejoin: round">
<circle cx="153581100.000000" cy="143103600.000000" r="1041400.000000"/> 
</g>
<g style="fill-opacity: 1.0;stroke-width: 1.000000;stroke-opacity: 1;stroke-linecap: round;stroke-linejoin: round">
<circle cx="168821100.000000" cy="68173600.000000" r="1651000.000000"/> 
</g>
<g style="fill-opacity: 1.0;stroke-width: 1.000000;stroke-opacity: 1;stroke-linecap: round;stroke-linejoin: round">
<circle cx="128181100.000000" cy="68173600.000000" r="1651000.000000"/> 
</g>
<g style="fill-opacity: 1.0;stroke-width: 1.000000;stroke-opacity: 1;stroke-linecap: round;stroke-linejoin: round">
<circle cx="128181100.000000" cy="140563600.000000" r="1651000.000000"/> 
</g>
</g> 
</g><g id="substrate-copper" style="fill:#417e5a; stroke:#417e5a;"><g style="fill-opacity: 0.0;stroke-width: 0.000000;stroke-opacity: 1;stroke-linecap: round;stroke-linejoin: round">
<g style="fill-opacity: 1.0;stroke-width: 1.000000;stroke-opacity: 1;stroke-linecap: round;stroke-linejoin: round">
<circle cx="143421100.000000" cy="143103600.000000" r="939800.000000"/> 
</g>
<g style="fill-opacity: 1.0;stroke-width: 1.000000;stroke-opacity: 1;stroke-linecap: round;stroke-linejoin: round">
<circle cx="145961100.000000" cy="143103600.000000" r="939800.000000"/> 
</g>
<g style="fill-opacity: 1.0;stroke-width: 1.000000;stroke-opacity: 1;stroke-linecap: round;stroke-linejoin: round">
<circle cx="148501100.000000" cy="143103600.000000" r="939800.000000"/> 
</g>
<g style="fill-opacity: 1.0;stroke-width: 1.000000;stroke-opacity: 1;stroke-linecap: round;stroke-linejoin: round">
<circle cx="151041100.000000" cy="143103600.000000" r="939800.000000"/> 
</g>
<g style="fill-opacity: 1.0;stroke-width: 1.000000;stroke-opacity: 1;stroke-linecap: round;stroke-linejoin: round">
<circle cx="153581100.000000" cy="143103600.000000" r="939800.000000"/> 
</g>
<g style="fill-opacity: 1.0;stroke-width: 1.000000;stroke-opacity: 1;stroke-linecap: round;stroke-linejoin: round">
<circle cx="158661100.000000" cy="139293600.000000" r="508000.000000"/> 
</g>
<g style="fill-opacity: 1.0;stroke-width: 1.000000;stroke-opacity: 1;stroke-linecap: round;stroke-linejoin: round">
<circle cx="147231100.000000" cy="139293600.000000" r="508000.000000"/> 
</g>
<g style="fill-opacity: 1.0;stroke-width: 1.000000;stroke-opacity: 1;stroke-linecap: round;stroke-linejoin: round">
<circle cx="168821100.000000" cy="83413600.000000" r="508000.000000"/> 
</g>
<g style="fill-opacity: 1.0;stroke-width: 1.000000;stroke-opacity: 1;stroke-linecap: round;stroke-linejoin: round">
<circle cx="168821100.000000" cy="98653600.000000" r="508000.000000"/> 
</g>
<g style="fill-opacity: 1.0;stroke-width: 1.000000;stroke-opacity: 1;stroke-linecap: round;stroke-linejoin: round">
<circle cx="168821100.000000" cy="113893600.000000" r="508000.000000"/> 
</g>
<g style="fill-opacity: 1.0;stroke-width: 1.000000;stroke-opacity: 1;stroke-linecap: round;stroke-linejoin: round">
<circle cx="163741100.000000" cy="129133600.000000" r="508000.000000"/> 
</g>
<g style="fill-opacity: 1.0;stroke-width: 1.000000;stroke-opacity: 1;stroke-linecap: round;stroke-linejoin: round">
<circle cx="153581100.000000" cy="83413600.000000" r="508000.000000"/> 
</g>
<g style="fill-opacity: 1.0;stroke-width: 1.000000;stroke-opacity: 1;stroke-linecap: round;stroke-linejoin: round">
<circle cx="153581100.000000" cy="98653600.000000" r="508000.000000"/> 
</g>
<g style="fill-opacity: 1.0;stroke-width: 1.000000;stroke-opacity: 1;stroke-linecap: round;stroke-linejoin: round">
<circle cx="153581100.000000" cy="113893600.000000" r="508000.000000"/> 
</g>
<g style="fill-opacity: 1.0;stroke-width: 1.000000;stroke-opacity: 1;stroke-linecap: round;stroke-linejoin: round">
<circle cx="148501100.000000" cy="129133600.000000" r="508000.000000"/> 
</g>
<g style="fill-opacity: 1.0;stroke-width: 1.000000;stroke-opacity: 1;stroke-linecap: round;stroke-linejoin: round">
<circle cx="138341100.000000" cy="83413600.000000" r="508000.000000"/> 
</g>
<g style="fill-opacity: 1.0;stroke-width: 1.000000;stroke-opacity: 1;stroke-linecap: round;stroke-linejoin: round">
<circle cx="138341100.000000" cy="98653600.000000" r="508000.000000"/> 
</g>
<g style="fill-opacity: 1.0;stroke-width: 1.000000;stroke-opacity: 1;stroke-linecap: round;stroke-linejoin: round">
<circle cx="138341100.000000" cy="113893600.000000" r="508000.000000"/> 
</g>
<g style="fill-opacity: 1.0;stroke-width: 1.000000;stroke-opacity: 1;stroke-linecap: round;stroke-linejoin: round">
<circle cx="133261100.000000" cy="129133600.000000" r="508000.000000"/> 
</g>
<g style="fill-opacity: 0.0;stroke-width: 254000.000000;stroke-opacity: 1;stroke-linecap: round;stroke-linejoin: round">
<path d="M152311100 141833600 L153581100 143103600 "/>
<path d="M148501100 141833600 L152311100 141833600 "/>
<path d="M147231100 140563600 L148501100 141833600 "/>
<path d="M147231100 139293600 L147231100 140563600 "/>
</g>
</g> 
</g><g id="substrate-pads" style="fill:#b5ae30; stroke:#b5ae30;" mask="url(#pads-mask)"><g style="fill-opacity: 0.0;stroke-width: 0.000000;stroke-opacity: 1;stroke-linecap: round;stroke-linejoin: round">
<g style="fill-opacity: 1.0;stroke-width: 1.000000;stroke-opacity: 1;stroke-linecap: round;stroke-linejoin: round">
<circle cx="143421100.000000" cy="143103600.000000" r="939800.000000"/> 
</g>
<g style="fill-opacity: 1.0;stroke-width: 1.000000;stroke-opacity: 1;stroke-linecap: round;stroke-linejoin: round">
<circle cx="145961100.000000" cy="143103600.000000" r="939800.000000"/> 
</g>
<g style="fill-opacity: 1.0;stroke-width: 1.000000;stroke-opacity: 1;stroke-linecap: round;stroke-linejoin: round">
<circle cx="148501100.000000" cy="143103600.000000" r="939800.000000"/> 
</g>
<g style="fill-opacity: 1.0;stroke-width: 1.000000;stroke-opacity: 1;stroke-linecap: round;stroke-linejoin: round">
<circle cx="151041100.000000" cy="143103600.000000" r="939800.000000"/> 
</g>
<g style="fill-opacity: 1.0;stroke-width: 1.000000;stroke-opacity: 1;stroke-linecap: round;stroke-linejoin: round">
<circle cx="153581100.000000" cy="143103600.000000" r="939800.000000"/> 
</g>
<g style="fill-opacity: 1.0;stroke-width: 1.000000;stroke-opacity: 1;stroke-linecap: round;stroke-linejoin: round">
<circle cx="158661100.000000" cy="139293600.000000" r="508000.000000"/> 
</g>
<g style="fill-opacity: 1.0;stroke-width: 1.000000;stroke-opacity: 1;stroke-linecap: round;stroke-linejoin: round">
<circle cx="147231100.000000" cy="139293600.000000" r="508000.000000"/> 
</g>
<g style="fill-opacity: 1.0;stroke-width: 1.000000;stroke-opacity: 1;stroke-linecap: round;stroke-linejoin: round">
<circle cx="168821100.000000" cy="83413600.000000" r="508000.000000"/> 
</g>
<g style="fill-opacity: 1.0;stroke-width: 1.000000;stroke-opacity: 1;stroke-linecap: round;stroke-linejoin: round">
<circle cx="168821100.000000" cy="98653600.000000" r="508000.000000"/> 
</g>
<g style="fill-opacity: 1.0;stroke-width: 1.000000;stroke-opacity: 1;stroke-linecap: round;stroke-linejoin: round">
<circle cx="168821100.000000" cy="113893600.000000" r="508000.000000"/> 
</g>
<g style="fill-opacity: 1.0;stroke-width: 1.000000;stroke-opacity: 1;stroke-linecap: round;stroke-linejoin: round">
<circle cx="163741100.000000" cy="129133600.000000" r="508000.000000"/> 
</g>
<g style="fill-opacity: 1.0;stroke-width: 1.000000;stroke-opacity: 1;stroke-linecap: round;stroke-linejoin: round">
<circle cx="153581100.000000" cy="83413600.000000" r="508000.000000"/> 
</g>
<g style="fill-opacity: 1.0;stroke-width: 1.000000;stroke-opacity: 1;stroke-linecap: round;stroke-linejoin: round">
<circle cx="153581100.000000" cy="98653600.000000" r="508000.000000"/> 
</g>
<g style="fill-opacity: 1.0;stroke-width: 1.000000;stroke-opacity: 1;stroke-linecap: round;stroke-linejoin: round">
<circle cx="153581100.000000" cy="113893600.000000" r="508000.000000"/> 
</g>
<g style="fill-opacity: 1.0;stroke-width: 1.000000;stroke-opacity: 1;stroke-linecap: round;stroke-linejoin: round">
<circle cx="148501100.000000" cy="129133600.000000" r="508000.000000"/> 
</g>
<g style="fill-opacity: 1.0;stroke-width: 1.000000;stroke-opacity: 1;stroke-linecap: round;stroke-linejoin: round">
<circle cx="138341100.000000" cy="83413600.000000" r="508000.000000"/> 
</g>
<g style="fill-opacity: 1.0;stroke-width: 1.000000;stroke-opacity: 1;stroke-linecap: round;stroke-linejoin: round">
<circle cx="138341100.000000" cy="98653600.000000" r="508000.000000"/> 
</g>
<g style="fill-opacity: 1.0;stroke-width: 1.000000;stroke-opacity: 1;stroke-linecap: round;stroke-linejoin: round">
<circle cx="138341100.000000" cy="113893600.000000" r="508000.000000"/> 
</g>
<g style="fill-opacity: 1.0;stroke-width: 1.000000;stroke-opacity: 1;stroke-linecap: round;stroke-linejoin: round">
<circle cx="133261100.000000" cy="129133600.000000" r="508000.000000"/> 
</g>
<g style="fill-opacity: 0.0;stroke-width: 254000.000000;stroke-opacity: 1;stroke-linecap: round;stroke-linejoin: round">
<path d="M152311100 141833600 L153581100 143103600 "/>
<path d="M148501100 141833600 L152311100 141833600 "/>
<path d="M147231100 140563600 L148501100 141833600 "/>
<path d="M147231100 139293600 L147231100 140563600 "/>
</g>
</g> 
</g><g id="substrate-silk" style="fill:#f0f0f0; stroke:#f0f0f0;" mask="url(#pads-mask-silkscreen)"><g style="fill-opacity: 0.0;stroke-width: 190500.000000;stroke-opacity: 1;stroke-linecap: round;stroke-linejoin: round">
<text x="163233100.000000" y="116814600.000000" textLength="1028096.000000" font-size="1439333.000000" lengthAdjust="spacingAndGlyphs" text-anchor="start" opacity="0">9</text>
<g class="stroked-text"><desc>9</desc>
<path d="M163665353 116763195 L163870972 116763195 L163973782 116711790 L164025186 116660385 L164127996 116506171 L164179401 116300552 L164179401 115889314 L164127996 115786504 L164076591 115735100 L163973782 115683695 L163768163 115683695 L163665353 115735100 L163613948 115786504 L163562544 115889314 L163562544 116146338 L163613948 116249147 L163665353 116300552 L163768163 116351957 L163973782 116351957 L164076591 116300552 L164127996 116249147 L164179401 116146338 "/>
</g><g transform="rotate(-90.000000 151676100.000000 141579600.000000)">
<text x="151676100.000000" y="141579600.000000" textLength="2972102.000000" font-size="1439333.000000" lengthAdjust="spacingAndGlyphs" text-anchor="start" opacity="0">IRQ</text>
</g>
<g class="stroked-text"><desc>IRQ</desc>
<path d="M151624695 141198751 L150545195 141198751 "/>
<path d="M151624695 140067846 L151110647 140427679 "/>
<path d="M151624695 140684703 L150545195 140684703 L150545195 140273465 L150596600 140170655 L150648004 140119251 L150750814 140067846 L150905028 140067846 L151007838 140119251 L151059242 140170655 L151110647 140273465 L151110647 140684703 "/>
<path d="M151727504 138885536 L151676100 138988346 L151573290 139091155 L151419076 139245370 L151367671 139348179 L151367671 139450989 "/>
<path d="M151624695 139399584 L151573290 139502394 L151470480 139605203 L151264861 139656608 L150905028 139656608 L150699409 139605203 L150596600 139502394 L150545195 139399584 L150545195 139193965 L150596600 139091155 L150699409 138988346 L150905028 138936941 L151264861 138936941 L151470480 138988346 L151573290 139091155 L151624695 139193965 L151624695 139399584 "/>
</g><text x="132880100.000000" y="116814600.000000" textLength="1275745.000000" font-size="1439333.000000" lengthAdjust="spacingAndGlyphs" text-anchor="start" opacity="0">1</text>
<g class="stroked-text"><desc>1</desc>
<path d="M133826401 116763195 L133209544 116763195 "/>
<path d="M133517972 116763195 L133517972 115683695 L133415163 115837909 L133312353 115940719 L133209544 115992123 "/>
</g><g transform="rotate(-90.000000 154216100.000000 141579600.000000)">
<text x="154216100.000000" y="141579600.000000" textLength="3331936.000000" font-size="1439333.000000" lengthAdjust="spacingAndGlyphs" text-anchor="start" opacity="0">VCC</text>
</g>
<g class="stroked-text"><desc>VCC</desc>
<path d="M153085195 141352965 L154164695 140993132 L153085195 140633298 "/>
<path d="M154061885 139656608 L154113290 139708013 L154164695 139862227 L154164695 139965036 L154113290 140119251 L154010480 140222060 L153907671 140273465 L153702052 140324870 L153547838 140324870 L153342219 140273465 L153239409 140222060 L153136600 140119251 L153085195 139965036 L153085195 139862227 L153136600 139708013 L153188004 139656608 "/>
<path d="M154061885 138577108 L154113290 138628513 L154164695 138782727 L154164695 138885536 L154113290 139039751 L154010480 139142560 L153907671 139193965 L153702052 139245370 L153547838 139245370 L153342219 139193965 L153239409 139142560 L153136600 139039751 L153085195 138885536 L153085195 138782727 L153136600 138628513 L153188004 138577108 "/>
</g><text x="162725100.000000" y="86334600.000000" textLength="2303840.000000" font-size="1439333.000000" lengthAdjust="spacingAndGlyphs" text-anchor="start" opacity="0">11</text>
<g class="stroked-text"><desc>11</desc>
<path d="M163671401 86283195 L163054544 86283195 "/>
<path d="M163362972 86283195 L163362972 85203695 L163260163 85357909 L163157353 85460719 L163054544 85512123 "/>
<path d="M164699496 86283195 L164082639 86283195 "/>
<path d="M164391067 86283195 L164391067 85203695 L164288258 85357909 L164185448 85460719 L164082639 85512123 "/>
</g><g transform="rotate(-90.000000 149136100.000000 141579600.000000)">
<text x="149136100.000000" y="141579600.000000" textLength="3229126.000000" font-size="1439333.000000" lengthAdjust="spacingAndGlyphs" text-anchor="start" opacity="0">SCL</text>
</g>
<g class="stroked-text"><desc>SCL</desc>
<path d="M149033290 141250155 L149084695 141095941 L149084695 140838917 L149033290 140736108 L148981885 140684703 L148879076 140633298 L148776266 140633298 L148673457 140684703 L148622052 140736108 L148570647 140838917 L148519242 141044536 L148467838 141147346 L148416433 141198751 L148313623 141250155 L148210814 141250155 L148108004 141198751 L148056600 141147346 L148005195 141044536 L148005195 140787513 L148056600 140633298 "/>
<path d="M148981885 139553798 L149033290 139605203 L149084695 139759417 L149084695 139862227 L149033290 140016441 L148930480 140119251 L148827671 140170655 L148622052 140222060 L148467838 140222060 L148262219 140170655 L148159409 140119251 L148056600 140016441 L148005195 139862227 L148005195 139759417 L148056600 139605203 L148108004 139553798 "/>
<path d="M149084695 138577108 L149084695 139091155 L148005195 139091155 "/>
</g><text x="148120100.000000" y="86334600.000000" textLength="1275745.000000" font-size="1439333.000000" lengthAdjust="spacingAndGlyphs" text-anchor="start" opacity="0">7</text>
<g class="stroked-text"><desc>7</desc>
<path d="M148398139 85203695 L149117805 85203695 L148655163 86283195 "/>
</g><text x="163233100.000000" y="132054600.000000" textLength="1275745.000000" font-size="1439333.000000" lengthAdjust="spacingAndGlyphs" text-anchor="start" opacity="0">8</text>
<g class="stroked-text"><desc>8</desc>
<path d="M163768163 131386338 L163665353 131334933 L163613948 131283528 L163562544 131180719 L163562544 131129314 L163613948 131026504 L163665353 130975100 L163768163 130923695 L163973782 130923695 L164076591 130975100 L164127996 131026504 L164179401 131129314 L164179401 131180719 L164127996 131283528 L164076591 131334933 L163973782 131386338 L163768163 131386338 L163665353 131437742 L163613948 131489147 L163562544 131591957 L163562544 131797576 L163613948 131900385 L163665353 131951790 L163768163 132003195 L163973782 132003195 L164076591 131951790 L164127996 131900385 L164179401 131797576 L164179401 131591957 L164127996 131489147 L164076591 131437742 L163973782 131386338 "/>
</g><text x="148120100.000000" y="132054600.000000" textLength="1275745.000000" font-size="1439333.000000" lengthAdjust="spacingAndGlyphs" text-anchor="start" opacity="0">4</text>
<g class="stroked-text"><desc>4</desc>
<path d="M148963591 131283528 L148963591 132003195 "/>
<path d="M148706567 130872290 L148449544 131643361 L149117805 131643361 "/>
</g><text x="132880100.000000" y="101574600.000000" textLength="1275745.000000" font-size="1439333.000000" lengthAdjust="spacingAndGlyphs" text-anchor="start" opacity="0">2</text>
<g class="stroked-text"><desc>2</desc>
<path d="M133209544 100546504 L133260948 100495100 L133363758 100443695 L133620782 100443695 L133723591 100495100 L133774996 100546504 L133826401 100649314 L133826401 100752123 L133774996 100906338 L133158139 101523195 L133826401 101523195 "/>
</g><text x="162725100.000000" y="101574600.000000" textLength="2303840.000000" font-size="1439333.000000" lengthAdjust="spacingAndGlyphs" text-anchor="start" opacity="0">10</text>
<g class="stroked-text"><desc>10</desc>
<path d="M163671401 101523195 L163054544 101523195 "/>
<path d="M163362972 101523195 L163362972 100443695 L163260163 100597909 L163157353 100700719 L163054544 100752123 "/>
<path d="M164339663 100443695 L164442472 100443695 L164545282 100495100 L164596686 100546504 L164648091 100649314 L164699496 100854933 L164699496 101111957 L164648091 101317576 L164596686 101420385 L164545282 101471790 L164442472 101523195 L164339663 101523195 L164236853 101471790 L164185448 101420385 L164134044 101317576 L164082639 101111957 L164082639 100854933 L164134044 100649314 L164185448 100546504 L164236853 100495100 L164339663 100443695 "/>
</g><text x="132880100.000000" y="86334600.000000" textLength="1275745.000000" font-size="1439333.000000" lengthAdjust="spacingAndGlyphs" text-anchor="start" opacity="0">3</text>
<g class="stroked-text"><desc>3</desc>
<path d="M133158139 85203695 L133826401 85203695 L133466567 85614933 L133620782 85614933 L133723591 85666338 L133774996 85717742 L133826401 85820552 L133826401 86077576 L133774996 86180385 L133723591 86231790 L133620782 86283195 L133312353 86283195 L133209544 86231790 L133158139 86180385 "/>
</g><g transform="rotate(-90.000000 146596100.000000 141579600.000000)">
<text x="146596100.000000" y="141579600.000000" textLength="3280531.000000" font-size="1439333.000000" lengthAdjust="spacingAndGlyphs" text-anchor="start" opacity="0">SDA</text>
</g>
<g class="stroked-text"><desc>SDA</desc>
<path d="M146493290 141250155 L146544695 141095941 L146544695 140838917 L146493290 140736108 L146441885 140684703 L146339076 140633298 L146236266 140633298 L146133457 140684703 L146082052 140736108 L146030647 140838917 L145979242 141044536 L145927838 141147346 L145876433 141198751 L145773623 141250155 L145670814 141250155 L145568004 141198751 L145516600 141147346 L145465195 141044536 L145465195 140787513 L145516600 140633298 "/>
<path d="M146544695 140170655 L145465195 140170655 L145465195 139913632 L145516600 139759417 L145619409 139656608 L145722219 139605203 L145927838 139553798 L146082052 139553798 L146287671 139605203 L146390480 139656608 L146493290 139759417 L146544695 139913632 L146544695 140170655 "/>
<path d="M146236266 139142560 L146236266 138628513 "/>
<path d="M146544695 139245370 L145465195 138885536 L146544695 138525703 "/>
</g><text x="148120100.000000" y="101574600.000000" textLength="1275745.000000" font-size="1439333.000000" lengthAdjust="spacingAndGlyphs" text-anchor="start" opacity="0">6</text>
<g class="stroked-text"><desc>6</desc>
<path d="M148963591 100443695 L148757972 100443695 L148655163 100495100 L148603758 100546504 L148500948 100700719 L148449544 100906338 L148449544 101317576 L148500948 101420385 L148552353 101471790 L148655163 101523195 L148860782 101523195 L148963591 101471790 L149014996 101420385 L149066401 101317576 L149066401 101060552 L149014996 100957742 L148963591 100906338 L148860782 100854933 L148655163 100854933 L148552353 100906338 L148500948 100957742 L148449544 101060552 "/>
</g><text x="148120100.000000" y="116814600.000000" textLength="1275745.000000" font-size="1439333.000000" lengthAdjust="spacingAndGlyphs" text-anchor="start" opacity="0">5</text>
<g class="stroked-text"><desc>5</desc>
<path d="M149014996 115683695 L148500948 115683695 L148449544 116197742 L148500948 116146338 L148603758 116094933 L148860782 116094933 L148963591 116146338 L149014996 116197742 L149066401 116300552 L149066401 116557576 L149014996 116660385 L148963591 116711790 L148860782 116763195 L148603758 116763195 L148500948 116711790 L148449544 116660385 "/>
</g><g transform="rotate(-90.000000 144056100.000000 141579600.000000)">
<text x="144056100.000000" y="141579600.000000" textLength="3537555.000000" font-size="1439333.000000" lengthAdjust="spacingAndGlyphs" text-anchor="start" opacity="0">GND</text>
</g>
<g class="stroked-text"><desc>GND</desc>
<path d="M142976600 140633298 L142925195 140736108 L142925195 140890322 L142976600 141044536 L143079409 141147346 L143182219 141198751 L143387838 141250155 L143542052 141250155 L143747671 141198751 L143850480 141147346 L143953290 141044536 L144004695 140890322 L144004695 140787513 L143953290 140633298 L143901885 140581894 L143542052 140581894 L143542052 140787513 "/>
<path d="M144004695 140119251 L142925195 140119251 L144004695 139502394 L142925195 139502394 "/>
<path d="M144004695 138988346 L142925195 138988346 L142925195 138731322 L142976600 138577108 L143079409 138474298 L143182219 138422894 L143387838 138371489 L143542052 138371489 L143747671 138422894 L143850480 138474298 L143953290 138577108 L144004695 138731322 L144004695 138988346 "/>
</g><text x="132880100.000000" y="132054600.000000" textLength="1275745.000000" font-size="1439333.000000" lengthAdjust="spacingAndGlyphs" text-anchor="start" opacity="0">0</text>
<g class="stroked-text"><desc>0</desc>
<path d="M133466567 130923695 L133569377 130923695 L133672186 130975100 L133723591 131026504 L133774996 131129314 L133826401 131334933 L133826401 131591957 L133774996 131797576 L133723591 131900385 L133672186 131951790 L133569377 132003195 L133466567 132003195 L133363758 131951790 L133312353 131900385 L133260948 131797576 L133209544 131591957 L133209544 131334933 L133260948 131129314 L133312353 131026504 L133363758 130975100 L133466567 130923695 "/>
</g></g>
<g style="fill-opacity: 1.0;stroke-width: 1.000000;stroke-opacity: 1;stroke-linecap: round;stroke-linejoin: round">
<path style="fill-opacity: 1.0;stroke-width: 1.000000;stroke-opacity: 1;stroke-linecap: round;stroke-linejoin: round;fill-rule: evenodd" d="M 161057102.000000,140295397.000000 161146549.000000,140317771.000000 161159577.000000,140322817.000000 161171249.000000,140328725.000000 161187960.000000,140337024.000000 161206652.000000,140343766.000000 161302794.000000,140401000.000000 161310400.000000,140401000.000000 161310400.000000,140426400.000000 161237933.000000,140426400.000000 161139518.000000,140445686.000000 161005955.000000,140608314.000000 161010465.000000,140666775.000000 161059190.000000,140761731.000000 161135766.000000,140838404.000000 161225169.000000,140902962.000000 161300448.000000,140934776.000000 161381837.000000,140931968.000000 161389964.000000,140929414.000000 161397357.000000,140926211.000000 161461614.000000,140866644.000000 161467900.000000,140843788.000000 161467900.000000,140725662.000000 161694807.000000,140955473.000000 161799286.000000,141246759.000000 161802703.000000,141246706.000000 161809160.000000,141453165.000000 161779957.000000,141646180.000000 161716408.000000,141830758.000000 161597400.000000,142042022.000000 161597400.000000,142023019.000000 161309231.000000,142294590.000000 160913339.000000,142405100.000000 160684105.000000,142405100.000000 160647301.000000,142411554.000000 160612876.000000,142424008.000000 160427422.000000,142561816.000000 159918500.000000,143134510.000000 159918500.000000,141582830.000000 159991104.000000,141341633.000000 160099395.000000,141238111.000000 160238222.000000,141186078.000000 160335000.000000,141178511.000000 160430484.000000,141185977.000000 160491010.000000,141195501.000000 160488888.000000,141219167.000000 160453316.000000,141218358.000000 160432884.000000,141227459.000000 160351619.000000,141286446.000000 160331822.000000,141312930.000000 160321495.000000,141375100.000000 160332005.000000,141438371.000000 160352505.000000,141478426.000000 160383443.000000,141510915.000000 160477635.000000,141560050.000000 160583329.000000,141571858.000000 160673868.000000,141553516.000000 160755320.000000,141513944.000000 160853130.000000,141348941.000000 160838806.000000,141254756.000000 160782014.000000,141173199.000000 160515807.000000,140840363.000000 160492767.000000,140592745.000000 160558595.000000,140482044.000000 160560142.000000,140480497.000000 160710001.000000,140356480.000000 160963776.000000,140286536.000000 Z"/> 
<path style="fill-opacity: 1.0;stroke-width: 1.000000;stroke-opacity: 1;stroke-linecap: round;stroke-linejoin: round;fill-rule: evenodd" d="M 136292102.000000,140295397.000000 136381549.000000,140317771.000000 136394577.000000,140322817.000000 136406249.000000,140328725.000000 136422960.000000,140337024.000000 136441652.000000,140343766.000000 136537794.000000,140401000.000000 136545400.000000,140401000.000000 136545400.000000,140426400.000000 136472933.000000,140426400.000000 136374518.000000,140445686.000000 136240955.000000,140608314.000000 136245465.000000,140666775.000000 136294190.000000,140761731.000000 136370766.000000,140838404.000000 136460169.000000,140902962.000000 136535448.000000,140934776.000000 136616837.000000,140931968.000000 136624964.000000,140929414.000000 136632357.000000,140926211.000000 136696614.000000,140866644.000000 136702900.000000,140843788.000000 136702900.000000,140725662.000000 136929807.000000,140955473.000000 137034286.000000,141246759.000000 137037703.000000,141246706.000000 137044160.000000,141453165.000000 137014957.000000,141646180.000000 136951408.000000,141830758.000000 136832400.000000,142042022.000000 136832400.000000,142023019.000000 136544231.000000,142294590.000000 136148339.000000,142405100.000000 135919105.000000,142405100.000000 135882301.000000,142411554.000000 135847876.000000,142424008.000000 135662422.000000,142561816.000000 135153500.000000,143134510.000000 135153500.000000,141582830.000000 135226104.000000,141341633.000000 135334395.000000,141238111.000000 135473222.000000,141186078.000000 135570000.000000,141178511.000000 135665484.000000,141185977.000000 135726010.000000,141195501.000000 135723888.000000,141219167.000000 135688316.000000,141218358.000000 135667884.000000,141227459.000000 135586619.000000,141286446.000000 135566822.000000,141312930.000000 135556495.000000,141375100.000000 135567005.000000,141438371.000000 135587505.000000,141478426.000000 135618443.000000,141510915.000000 135712635.000000,141560050.000000 135818329.000000,141571858.000000 135908868.000000,141553516.000000 135990320.000000,141513944.000000 136088130.000000,141348941.000000 136073806.000000,141254756.000000 136017014.000000,141173199.000000 135750807.000000,140840363.000000 135727767.000000,140592745.000000 135793595.000000,140482044.000000 135795142.000000,140480497.000000 135945001.000000,140356480.000000 136198776.000000,140286536.000000 Z"/> 
</g> 
</g><g id="substrate-outline" style="fill:#000000; stroke:#000000; stroke-width: 150000"><g style="fill-opacity: 0.0;stroke-opacity: 1;stroke-linecap: round;stroke-linejoin: round">
<path d="M124371100 144373600 L124371100 65633600 "/>
<path d="M172631100 144373600 L124371100 144373600 "/>
<path d="M172631100 65633600 L172631100 144373600 "/>
<path d="M124371100 65633600 L172631100 65633600 "/>
</g> 
<path d="M -1651000.0 0.0 A 1651000.0 1651000.0 0 1 1 1651000.0 0.0 L 1651000.0 0.0 A 1651000.0 1651000.0 0 1 1 -1651000.0 0.0 Z" transform="translate(168821100 140563600) rotate(-180.0)"/><path d="M -508000.0 0.0 A 508000.0 508000.0 0 1 1 508000.0 0.0 L 508000.0 0.0 A 508000.0 508000.0 0 1 1 -508000.0 0.0 Z" transform="translate(143421100 143103600) rotate(-270.0)"/><path d="M -508000.0 0.0 A 508000.0 508000.0 0 1 1 508000.0 0.0 L 508000.0 0.0 A 508000.0 508000.0 0 1 1 -508000.0 0.0 Z" transform="translate(145961100 143103600) rotate(-270.0)"/><path d="M -508000.0 0.0 A 508000.0 508000.0 0 1 1 508000.0 0.0 L 508000.0 0.0 A 508000.0 508000.0 0 1 1 -508000.0 0.0 Z" transform="translate(148501100 143103600) rotate(-270.0)"/><path d="M -508000.0 0.0 A 508000.0 508000.0 0 1 1 508000.0 0.0 L 508000.0 0.0 A 508000.0 508000.0 0 1 1 -508000.0 0.0 Z" transform="translate(151041100 143103600) rotate(-270.0)"/><path d="M -508000.0 0.0 A 508000.0 508000.0 0 1 1 508000.0 0.0 L 508000.0 0.0 A 508000.0 508000.0 0 1 1 -508000.0 0.0 Z" transform="translate(153581100 143103600) rotate(-270.0)"/><path d="M -1651000.0 0.0 A 1651000.0 1651000.0 0 1 1 1651000.0 0.0 L 1651000.0 0.0 A 1651000.0 1651000.0 0 1 1 -1651000.0 0.0 Z" transform="translate(168821100 68173600) rotate(-180.0)"/><path d="M -1651000.0 0.0 A 1651000.0 1651000.0 0 1 1 1651000.0 0.0 L 1651000.0 0.0 A 1651000.0 1651000.0 0 1 1 -1651000.0 0.0 Z" transform="translate(128181100 68173600) rotate(-180.0)"/><path d="M -1651000.0 0.0 A 1651000.0 1651000.0 0 1 1 1651000.0 0.0 L 1651000.0 0.0 A 1651000.0 1651000.0 0 1 1 -1651000.0 0.0 Z" transform="translate(128181100 140563600) rotate(-180.0)"/><path d="M -254000.0 0.0 A 254000.0 254000.0 0 1 1 254000.0 0.0 L 254000.0 0.0 A 254000.0 254000.0 0 1 1 -254000.0 0.0 Z" transform="translate(158661100 139293600) rotate(0.0)"/><path d="M -254000.0 0.0 A 254000.0 254000.0 0 1 1 254000.0 0.0 L 254000.0 0.0 A 254000.0 254000.0 0 1 1 -254000.0 0.0 Z" transform="translate(147231100 139293600) rotate(0.0)"/><path d="M -254000.0 0.0 A 254000.0 254000.0 0 1 1 254000.0 0.0 L 254000.0 0.0 A 254000.0 254000.0 0 1 1 -254000.0 0.0 Z" transform="translate(168821100 83413600) rotate(0.0)"/><path d="M -254000.0 0.0 A 254000.0 254000.0 0 1 1 254000.0 0.0 L 254000.0 0.0 A 254000.0 254000.0 0 1 1 -254000.0 0.0 Z" transform="translate(168821100 98653600) rotate(0.0)"/><path d="M -254000.0 0.0 A 254000.0 254000.0 0 1 1 254000.0 0.0 L 254000.0 0.0 A 254000.0 254000.0 0 1 1 -254000.0 0.0 Z" transform="translate(168821100 113893600) rotate(0.0)"/><path d="M -254000.0 0.0 A 254000.0 254000.0 0 1 1 254000.0 0.0 L 254000.0 0.0 A 254000.0 254000.0 0 1 1 -254000.0 0.0 Z" transform="translate(163741100 129133600) rotate(0.0)"/><path d="M -254000.0 0.0 A 254000.0 254000.0 0 1 1 254000.0 0.0 L 254000.0 0.0 A 254000.0 254000.0 0 1 1 -254000.0 0.0 Z" transform="translate(153581100 83413600) rotate(0.0)"/><path d="M -254000.0 0.0 A 254000.0 254000.0 0 1 1 254000.0 0.0 L 254000.0 0.0 A 254000.0 254000.0 0 1 1 -254000.0 0.0 Z" transform="translate(153581100 98653600) rotate(0.0)"/><path d="M -254000.0 0.0 A 254000.0 254000.0 0 1 1 254000.0 0.0 L 254000.0 0.0 A 254000.0 254000.0 0 1 1 -254000.0 0.0 Z" transform="translate(153581100 113893600) rotate(0.0)"/><path d="M -254000.0 0.0 A 254000.0 254000.0 0 1 1 254000.0 0.0 L 254000.0 0.0 A 254000.0 254000.0 0 1 1 -254000.0 0.0 Z" transform="translate(148501100 129133600) rotate(0.0)"/><path d="M -254000.0 0.0 A 254000.0 254000.0 0 1 1 254000.0 0.0 L 254000.0 0.0 A 254000.0 254000.0 0 1 1 -254000.0 0.0 Z" transform="translate(138341100 83413600) rotate(0.0)"/><path d="M -254000.0 0.0 A 254000.0 254000.0 0 1 1 254000.0 0.0 L 254000.0 0.0 A 254000.0 254000.0 0 1 1 -254000.0 0.0 Z" transform="translate(138341100 98653600) rotate(0.0)"/><path d="M -254000.0 0.0 A 254000.0 254000.0 0 1 1 254000.0 0.0 L 254000.0 0.0 A 254000.0 254000.0 0 1 1 -254000.0 0.0 Z" transform="translate(138341100 113893600) rotate(0.0)"/><path d="M -254000.0 0.0 A 254000.0 254000.0 0 1 1 254000.0 0.0 L 254000.0 0.0 A 254000.0 254000.0 0 1 1 -254000.0 0.0 Z" transform="translate(133261100 129133600) rotate(0.0)"/></g></g></g></svg>