<?xml version="1.0" standalone="no"?>
 <!DOCTYPE svg PUBLIC "-//W3C//DTD SVG 1.1//EN" 
 "http://www.w3.org/Graphics/SVG/1.1/DTD/svg11.dtd"> 
<svg
  xmlns:svg="http://www.w3.org/2000/svg"
  xmlns="http://www.w3.org/2000/svg"
  xmlns:xlink="http://www.w3.org/1999/xlink"
  version="1.1"
  width="29.700220cm" height="21.000720cm" viewBox="0 0 297002200 210007200">
<title>SVG Picture created as kicadBoard-F_Fab.svg date 2022/11/07 01:17:56 </title>
  <desc>Picture generated by PCBNEW </desc>
<g style="fill:#000000; fill-opacity:1.000000;stroke:#000000; stroke-opacity:1.000000;
stroke-linecap:round; stroke-linejoin:round;"
 transform="translate(0 0) scale(1 1)">
</g>
<g style="fill:#000000; fill-opacity:0.0; 
stroke:#000000; stroke-width:0.000000; stroke-opacity:1; 
stroke-linecap:round; stroke-linejoin:round;">
</g>
<g style="fill:#000000; fill-opacity:0.0; 
stroke:#000000; stroke-width:21200.000000; stroke-opacity:1; 
stroke-linecap:round; stroke-linejoin:round;">
</g>
<g style="fill:#000000; fill-opacity:0.0; 
stroke:#000000; stroke-width:150000.000000; stroke-opacity:1; 
stroke-linecap:round; stroke-linejoin:round;">
<rect x="177002200.000000" y="166007200.000000" width="108000000.000000" height="32000000.000000" rx="0.000000" />
</g>
<g style="fill:#000000; fill-opacity:0.0; 
stroke:#000000; stroke-width:21200.000000; stroke-opacity:1; 
stroke-linecap:round; stroke-linejoin:round;">
</g>
<g style="fill:#000000; fill-opacity:0.0; 
stroke:#000000; stroke-width:150000.000000; stroke-opacity:1; 
stroke-linecap:round; stroke-linejoin:round;">
<rect x="10000000.000000" y="10000000.000000" width="277002200.000000" height="190007200.000000" rx="0.000000" />
</g>
<g style="fill:#000000; fill-opacity:0.0; 
stroke:#000000; stroke-width:21200.000000; stroke-opacity:1; 
stroke-linecap:round; stroke-linejoin:round;">
</g>
<g style="fill:#000000; fill-opacity:0.0; 
stroke:#000000; stroke-width:150000.000000; stroke-opacity:1; 
stroke-linecap:round; stroke-linejoin:round;">
<rect x="12000000.000000" y="12000000.000000" width="273002200.000000" height="186007200.000000" rx="0.000000" />
</g>
<g style="fill:#000000; fill-opacity:0.0; 
stroke:#000000; stroke-width:21200.000000; stroke-opacity:1; 
stroke-linecap:round; stroke-linejoin:round;">
</g>
<g style="fill:#000000; fill-opacity:0.0; 
stroke:#000000; stroke-width:150000.000000; stroke-opacity:1; 
stroke-linecap:round; stroke-linejoin:round;">
<path d="M60000000 12000000
L60000000 10000000
" />
</g>
<g style="fill:#000000; fill-opacity:0.0; 
stroke:#000000; stroke-width:21200.000000; stroke-opacity:1; 
stroke-linecap:round; stroke-linejoin:round;">
</g>
<g style="fill:#000000; fill-opacity:0.0; 
stroke:#000000; stroke-width:150000.000000; stroke-opacity:1; 
stroke-linecap:round; stroke-linejoin:round;">
<path d="M110000000 12000000
L110000000 10000000
" />
</g>
<g style="fill:#000000; fill-opacity:0.0; 
stroke:#000000; stroke-width:21200.000000; stroke-opacity:1; 
stroke-linecap:round; stroke-linejoin:round;">
</g>
<g style="fill:#000000; fill-opacity:0.0; 
stroke:#000000; stroke-width:150000.000000; stroke-opacity:1; 
stroke-linecap:round; stroke-linejoin:round;">
<path d="M160000000 12000000
L160000000 10000000
" />
</g>
<g style="fill:#000000; fill-opacity:0.0; 
stroke:#000000; stroke-width:21200.000000; stroke-opacity:1; 
stroke-linecap:round; stroke-linejoin:round;">
</g>
<g style="fill:#000000; fill-opacity:0.0; 
stroke:#000000; stroke-width:150000.000000; stroke-opacity:1; 
stroke-linecap:round; stroke-linejoin:round;">
<path d="M210000000 12000000
L210000000 10000000
" />
</g>
<g style="fill:#000000; fill-opacity:0.0; 
stroke:#000000; stroke-width:21200.000000; stroke-opacity:1; 
stroke-linecap:round; stroke-linejoin:round;">
</g>
<g style="fill:#000000; fill-opacity:0.0; 
stroke:#000000; stroke-width:150000.000000; stroke-opacity:1; 
stroke-linecap:round; stroke-linejoin:round;">
<path d="M260000000 12000000
L260000000 10000000
" />
</g>
<g style="fill:#000000; fill-opacity:0.0; 
stroke:#000000; stroke-width:21200.000000; stroke-opacity:1; 
stroke-linecap:round; stroke-linejoin:round;">
</g>
<g style="fill:#000000; fill-opacity:0.0; 
stroke:#000000; stroke-width:150000.000000; stroke-opacity:1; 
stroke-linecap:round; stroke-linejoin:round;">
<text x="35000000.000000" y="11650000.000000"
textLength="1388095.000000" font-size="1733333.000000" lengthAdjust="spacingAndGlyphs"
text-anchor="start" opacity="0">1</text>
<g class="stroked-text"><desc>1</desc>
<path d="M36065476 11588095
L35322619 11588095
" />
<path d="M35694047 11588095
L35694047 10288095
L35570238 10473809
L35446428 10597619
L35322619 10659523
" />
</g></g>
<g style="fill:#000000; fill-opacity:0.0; 
stroke:#000000; stroke-width:21200.000000; stroke-opacity:1; 
stroke-linecap:round; stroke-linejoin:round;">
</g>
<g style="fill:#000000; fill-opacity:0.0; 
stroke:#000000; stroke-width:150000.000000; stroke-opacity:1; 
stroke-linecap:round; stroke-linejoin:round;">
<text x="85000000.000000" y="11650000.000000"
textLength="1388095.000000" font-size="1733333.000000" lengthAdjust="spacingAndGlyphs"
text-anchor="start" opacity="0">2</text>
<g class="stroked-text"><desc>2</desc>
<path d="M85322619 10411904
L85384523 10350000
L85508333 10288095
L85817857 10288095
L85941666 10350000
L86003571 10411904
L86065476 10535714
L86065476 10659523
L86003571 10845238
L85260714 11588095
L86065476 11588095
" />
</g></g>
<g style="fill:#000000; fill-opacity:0.0; 
stroke:#000000; stroke-width:21200.000000; stroke-opacity:1; 
stroke-linecap:round; stroke-linejoin:round;">
</g>
<g style="fill:#000000; fill-opacity:0.0; 
stroke:#000000; stroke-width:150000.000000; stroke-opacity:1; 
stroke-linecap:round; stroke-linejoin:round;">
<text x="135000000.000000" y="11650000.000000"
textLength="1388095.000000" font-size="1733333.000000" lengthAdjust="spacingAndGlyphs"
text-anchor="start" opacity="0">3</text>
<g class="stroked-text"><desc>3</desc>
<path d="M135260714 10288095
L136065476 10288095
L135632142 10783333
L135817857 10783333
L135941666 10845238
L136003571 10907142
L136065476 11030952
L136065476 11340476
L136003571 11464285
L135941666 11526190
L135817857 11588095
L135446428 11588095
L135322619 11526190
L135260714 11464285
" />
</g></g>
<g style="fill:#000000; fill-opacity:0.0; 
stroke:#000000; stroke-width:21200.000000; stroke-opacity:1; 
stroke-linecap:round; stroke-linejoin:round;">
</g>
<g style="fill:#000000; fill-opacity:0.0; 
stroke:#000000; stroke-width:150000.000000; stroke-opacity:1; 
stroke-linecap:round; stroke-linejoin:round;">
<text x="185000000.000000" y="11650000.000000"
textLength="1388095.000000" font-size="1733333.000000" lengthAdjust="spacingAndGlyphs"
text-anchor="start" opacity="0">4</text>
<g class="stroked-text"><desc>4</desc>
<path d="M185941666 10721428
L185941666 11588095
" />
<path d="M185632142 10226190
L185322619 11154761
L186127380 11154761
" />
</g></g>
<g style="fill:#000000; fill-opacity:0.0; 
stroke:#000000; stroke-width:21200.000000; stroke-opacity:1; 
stroke-linecap:round; stroke-linejoin:round;">
</g>
<g style="fill:#000000; fill-opacity:0.0; 
stroke:#000000; stroke-width:150000.000000; stroke-opacity:1; 
stroke-linecap:round; stroke-linejoin:round;">
<text x="235000000.000000" y="11650000.000000"
textLength="1388095.000000" font-size="1733333.000000" lengthAdjust="spacingAndGlyphs"
text-anchor="start" opacity="0">5</text>
<g class="stroked-text"><desc>5</desc>
<path d="M236003571 10288095
L235384523 10288095
L235322619 10907142
L235384523 10845238
L235508333 10783333
L235817857 10783333
L235941666 10845238
L236003571 10907142
L236065476 11030952
L236065476 11340476
L236003571 11464285
L235941666 11526190
L235817857 11588095
L235508333 11588095
L235384523 11526190
L235322619 11464285
" />
</g></g>
<g style="fill:#000000; fill-opacity:0.0; 
stroke:#000000; stroke-width:21200.000000; stroke-opacity:1; 
stroke-linecap:round; stroke-linejoin:round;">
</g>
<g style="fill:#000000; fill-opacity:0.0; 
stroke:#000000; stroke-width:150000.000000; stroke-opacity:1; 
stroke-linecap:round; stroke-linejoin:round;">
<text x="285000000.000000" y="11650000.000000"
textLength="1388095.000000" font-size="1733333.000000" lengthAdjust="spacingAndGlyphs"
text-anchor="start" opacity="0">6</text>
<g class="stroked-text"><desc>6</desc>
<path d="M285941666 10288095
L285694047 10288095
L285570238 10350000
L285508333 10411904
L285384523 10597619
L285322619 10845238
L285322619 11340476
L285384523 11464285
L285446428 11526190
L285570238 11588095
L285817857 11588095
L285941666 11526190
L286003571 11464285
L286065476 11340476
L286065476 11030952
L286003571 10907142
L285941666 10845238
L285817857 10783333
L285570238 10783333
L285446428 10845238
L285384523 10907142
L285322619 11030952
" />
</g></g>
<g style="fill:#000000; fill-opacity:0.0; 
stroke:#000000; stroke-width:21200.000000; stroke-opacity:1; 
stroke-linecap:round; stroke-linejoin:round;">
</g>
<g style="fill:#000000; fill-opacity:0.0; 
stroke:#000000; stroke-width:150000.000000; stroke-opacity:1; 
stroke-linecap:round; stroke-linejoin:round;">
<path d="M60000000 198007200
L60000000 200007200
" />
</g>
<g style="fill:#000000; fill-opacity:0.0; 
stroke:#000000; stroke-width:21200.000000; stroke-opacity:1; 
stroke-linecap:round; stroke-linejoin:round;">
</g>
<g style="fill:#000000; fill-opacity:0.0; 
stroke:#000000; stroke-width:150000.000000; stroke-opacity:1; 
stroke-linecap:round; stroke-linejoin:round;">
<path d="M110000000 198007200
L110000000 200007200
" />
</g>
<g style="fill:#000000; fill-opacity:0.0; 
stroke:#000000; stroke-width:21200.000000; stroke-opacity:1; 
stroke-linecap:round; stroke-linejoin:round;">
</g>
<g style="fill:#000000; fill-opacity:0.0; 
stroke:#000000; stroke-width:150000.000000; stroke-opacity:1; 
stroke-linecap:round; stroke-linejoin:round;">
<path d="M160000000 198007200
L160000000 200007200
" />
</g>
<g style="fill:#000000; fill-opacity:0.0; 
stroke:#000000; stroke-width:21200.000000; stroke-opacity:1; 
stroke-linecap:round; stroke-linejoin:round;">
</g>
<g style="fill:#000000; fill-opacity:0.0; 
stroke:#000000; stroke-width:150000.000000; stroke-opacity:1; 
stroke-linecap:round; stroke-linejoin:round;">
<path d="M210000000 198007200
L210000000 200007200
" />
</g>
<g style="fill:#000000; fill-opacity:0.0; 
stroke:#000000; stroke-width:21200.000000; stroke-opacity:1; 
stroke-linecap:round; stroke-linejoin:round;">
</g>
<g style="fill:#000000; fill-opacity:0.0; 
stroke:#000000; stroke-width:150000.000000; stroke-opacity:1; 
stroke-linecap:round; stroke-linejoin:round;">
<path d="M260000000 198007200
L260000000 200007200
" />
</g>
<g style="fill:#000000; fill-opacity:0.0; 
stroke:#000000; stroke-width:21200.000000; stroke-opacity:1; 
stroke-linecap:round; stroke-linejoin:round;">
</g>
<g style="fill:#000000; fill-opacity:0.0; 
stroke:#000000; stroke-width:150000.000000; stroke-opacity:1; 
stroke-linecap:round; stroke-linejoin:round;">
<text x="35000000.000000" y="199657200.000000"
textLength="1388095.000000" font-size="1733333.000000" lengthAdjust="spacingAndGlyphs"
text-anchor="start" opacity="0">1</text>
<g class="stroked-text"><desc>1</desc>
<path d="M36065476 199595295
L35322619 199595295
" />
<path d="M35694047 199595295
L35694047 198295295
L35570238 198481009
L35446428 198604819
L35322619 198666723
" />
</g></g>
<g style="fill:#000000; fill-opacity:0.0; 
stroke:#000000; stroke-width:21200.000000; stroke-opacity:1; 
stroke-linecap:round; stroke-linejoin:round;">
</g>
<g style="fill:#000000; fill-opacity:0.0; 
stroke:#000000; stroke-width:150000.000000; stroke-opacity:1; 
stroke-linecap:round; stroke-linejoin:round;">
<text x="85000000.000000" y="199657200.000000"
textLength="1388095.000000" font-size="1733333.000000" lengthAdjust="spacingAndGlyphs"
text-anchor="start" opacity="0">2</text>
<g class="stroked-text"><desc>2</desc>
<path d="M85322619 198419104
L85384523 198357200
L85508333 198295295
L85817857 198295295
L85941666 198357200
L86003571 198419104
L86065476 198542914
L86065476 198666723
L86003571 198852438
L85260714 199595295
L86065476 199595295
" />
</g></g>
<g style="fill:#000000; fill-opacity:0.0; 
stroke:#000000; stroke-width:21200.000000; stroke-opacity:1; 
stroke-linecap:round; stroke-linejoin:round;">
</g>
<g style="fill:#000000; fill-opacity:0.0; 
stroke:#000000; stroke-width:150000.000000; stroke-opacity:1; 
stroke-linecap:round; stroke-linejoin:round;">
<text x="135000000.000000" y="199657200.000000"
textLength="1388095.000000" font-size="1733333.000000" lengthAdjust="spacingAndGlyphs"
text-anchor="start" opacity="0">3</text>
<g class="stroked-text"><desc>3</desc>
<path d="M135260714 198295295
L136065476 198295295
L135632142 198790533
L135817857 198790533
L135941666 198852438
L136003571 198914342
L136065476 199038152
L136065476 199347676
L136003571 199471485
L135941666 199533390
L135817857 199595295
L135446428 199595295
L135322619 199533390
L135260714 199471485
" />
</g></g>
<g style="fill:#000000; fill-opacity:0.0; 
stroke:#000000; stroke-width:21200.000000; stroke-opacity:1; 
stroke-linecap:round; stroke-linejoin:round;">
</g>
<g style="fill:#000000; fill-opacity:0.0; 
stroke:#000000; stroke-width:150000.000000; stroke-opacity:1; 
stroke-linecap:round; stroke-linejoin:round;">
<text x="185000000.000000" y="199657200.000000"
textLength="1388095.000000" font-size="1733333.000000" lengthAdjust="spacingAndGlyphs"
text-anchor="start" opacity="0">4</text>
<g class="stroked-text"><desc>4</desc>
<path d="M185941666 198728628
L185941666 199595295
" />
<path d="M185632142 198233390
L185322619 199161961
L186127380 199161961
" />
</g></g>
<g style="fill:#000000; fill-opacity:0.0; 
stroke:#000000; stroke-width:21200.000000; stroke-opacity:1; 
stroke-linecap:round; stroke-linejoin:round;">
</g>
<g style="fill:#000000; fill-opacity:0.0; 
stroke:#000000; stroke-width:150000.000000; stroke-opacity:1; 
stroke-linecap:round; stroke-linejoin:round;">
<text x="235000000.000000" y="199657200.000000"
textLength="1388095.000000" font-size="1733333.000000" lengthAdjust="spacingAndGlyphs"
text-anchor="start" opacity="0">5</text>
<g class="stroked-text"><desc>5</desc>
<path d="M236003571 198295295
L235384523 198295295
L235322619 198914342
L235384523 198852438
L235508333 198790533
L235817857 198790533
L235941666 198852438
L236003571 198914342
L236065476 199038152
L236065476 199347676
L236003571 199471485
L235941666 199533390
L235817857 199595295
L235508333 199595295
L235384523 199533390
L235322619 199471485
" />
</g></g>
<g style="fill:#000000; fill-opacity:0.0; 
stroke:#000000; stroke-width:21200.000000; stroke-opacity:1; 
stroke-linecap:round; stroke-linejoin:round;">
</g>
<g style="fill:#000000; fill-opacity:0.0; 
stroke:#000000; stroke-width:150000.000000; stroke-opacity:1; 
stroke-linecap:round; stroke-linejoin:round;">
<text x="285000000.000000" y="199657200.000000"
textLength="1388095.000000" font-size="1733333.000000" lengthAdjust="spacingAndGlyphs"
text-anchor="start" opacity="0">6</text>
<g class="stroked-text"><desc>6</desc>
<path d="M285941666 198295295
L285694047 198295295
L285570238 198357200
L285508333 198419104
L285384523 198604819
L285322619 198852438
L285322619 199347676
L285384523 199471485
L285446428 199533390
L285570238 199595295
L285817857 199595295
L285941666 199533390
L286003571 199471485
L286065476 199347676
L286065476 199038152
L286003571 198914342
L285941666 198852438
L285817857 198790533
L285570238 198790533
L285446428 198852438
L285384523 198914342
L285322619 199038152
" />
</g></g>
<g style="fill:#000000; fill-opacity:0.0; 
stroke:#000000; stroke-width:21200.000000; stroke-opacity:1; 
stroke-linecap:round; stroke-linejoin:round;">
</g>
<g style="fill:#000000; fill-opacity:0.0; 
stroke:#000000; stroke-width:150000.000000; stroke-opacity:1; 
stroke-linecap:round; stroke-linejoin:round;">
<path d="M10000000 60000000
L12000000 60000000
" />
</g>
<g style="fill:#000000; fill-opacity:0.0; 
stroke:#000000; stroke-width:21200.000000; stroke-opacity:1; 
stroke-linecap:round; stroke-linejoin:round;">
</g>
<g style="fill:#000000; fill-opacity:0.0; 
stroke:#000000; stroke-width:150000.000000; stroke-opacity:1; 
stroke-linecap:round; stroke-linejoin:round;">
<path d="M10000000 110000000
L12000000 110000000
" />
</g>
<g style="fill:#000000; fill-opacity:0.0; 
stroke:#000000; stroke-width:21200.000000; stroke-opacity:1; 
stroke-linecap:round; stroke-linejoin:round;">
</g>
<g style="fill:#000000; fill-opacity:0.0; 
stroke:#000000; stroke-width:150000.000000; stroke-opacity:1; 
stroke-linecap:round; stroke-linejoin:round;">
<path d="M10000000 160000000
L12000000 160000000
" />
</g>
<g style="fill:#000000; fill-opacity:0.0; 
stroke:#000000; stroke-width:21200.000000; stroke-opacity:1; 
stroke-linecap:round; stroke-linejoin:round;">
</g>
<g style="fill:#000000; fill-opacity:0.0; 
stroke:#000000; stroke-width:150000.000000; stroke-opacity:1; 
stroke-linecap:round; stroke-linejoin:round;">
<text x="11000000.000000" y="35650000.000000"
textLength="1264286.000000" font-size="1733333.000000" lengthAdjust="spacingAndGlyphs"
text-anchor="middle" opacity="0">A</text>
<g class="stroked-text"><desc>A</desc>
<path d="M10690476 35216666
L11309523 35216666
" />
<path d="M10566666 35588095
L11000000 34288095
L11433333 35588095
" />
</g></g>
<g style="fill:#000000; fill-opacity:0.0; 
stroke:#000000; stroke-width:21200.000000; stroke-opacity:1; 
stroke-linecap:round; stroke-linejoin:round;">
</g>
<g style="fill:#000000; fill-opacity:0.0; 
stroke:#000000; stroke-width:150000.000000; stroke-opacity:1; 
stroke-linecap:round; stroke-linejoin:round;">
<text x="11000000.000000" y="85650000.000000"
textLength="1450000.000000" font-size="1733333.000000" lengthAdjust="spacingAndGlyphs"
text-anchor="middle" opacity="0">B</text>
<g class="stroked-text"><desc>B</desc>
<path d="M11092857 84907142
L11278571 84969047
L11340476 85030952
L11402380 85154761
L11402380 85340476
L11340476 85464285
L11278571 85526190
L11154761 85588095
L10659523 85588095
L10659523 84288095
L11092857 84288095
L11216666 84350000
L11278571 84411904
L11340476 84535714
L11340476 84659523
L11278571 84783333
L11216666 84845238
L11092857 84907142
L10659523 84907142
" />
</g></g>
<g style="fill:#000000; fill-opacity:0.0; 
stroke:#000000; stroke-width:21200.000000; stroke-opacity:1; 
stroke-linecap:round; stroke-linejoin:round;">
</g>
<g style="fill:#000000; fill-opacity:0.0; 
stroke:#000000; stroke-width:150000.000000; stroke-opacity:1; 
stroke-linecap:round; stroke-linejoin:round;">
<text x="11000000.000000" y="135650000.000000"
textLength="1450000.000000" font-size="1733333.000000" lengthAdjust="spacingAndGlyphs"
text-anchor="middle" opacity="0">C</text>
<g class="stroked-text"><desc>C</desc>
<path d="M11402380 135464285
L11340476 135526190
L11154761 135588095
L11030952 135588095
L10845238 135526190
L10721428 135402380
L10659523 135278571
L10597619 135030952
L10597619 134845238
L10659523 134597619
L10721428 134473809
L10845238 134350000
L11030952 134288095
L11154761 134288095
L11340476 134350000
L11402380 134411904
" />
</g></g>
<g style="fill:#000000; fill-opacity:0.0; 
stroke:#000000; stroke-width:21200.000000; stroke-opacity:1; 
stroke-linecap:round; stroke-linejoin:round;">
</g>
<g style="fill:#000000; fill-opacity:0.0; 
stroke:#000000; stroke-width:150000.000000; stroke-opacity:1; 
stroke-linecap:round; stroke-linejoin:round;">
<text x="11000000.000000" y="185650000.000000"
textLength="1450000.000000" font-size="1733333.000000" lengthAdjust="spacingAndGlyphs"
text-anchor="middle" opacity="0">D</text>
<g class="stroked-text"><desc>D</desc>
<path d="M10659523 185588095
L10659523 184288095
L10969047 184288095
L11154761 184350000
L11278571 184473809
L11340476 184597619
L11402380 184845238
L11402380 185030952
L11340476 185278571
L11278571 185402380
L11154761 185526190
L10969047 185588095
L10659523 185588095
" />
</g></g>
<g style="fill:#000000; fill-opacity:0.0; 
stroke:#000000; stroke-width:21200.000000; stroke-opacity:1; 
stroke-linecap:round; stroke-linejoin:round;">
</g>
<g style="fill:#000000; fill-opacity:0.0; 
stroke:#000000; stroke-width:150000.000000; stroke-opacity:1; 
stroke-linecap:round; stroke-linejoin:round;">
<path d="M287002200 60000000
L285002200 60000000
" />
</g>
<g style="fill:#000000; fill-opacity:0.0; 
stroke:#000000; stroke-width:21200.000000; stroke-opacity:1; 
stroke-linecap:round; stroke-linejoin:round;">
</g>
<g style="fill:#000000; fill-opacity:0.0; 
stroke:#000000; stroke-width:150000.000000; stroke-opacity:1; 
stroke-linecap:round; stroke-linejoin:round;">
<path d="M287002200 110000000
L285002200 110000000
" />
</g>
<g style="fill:#000000; fill-opacity:0.0; 
stroke:#000000; stroke-width:21200.000000; stroke-opacity:1; 
stroke-linecap:round; stroke-linejoin:round;">
</g>
<g style="fill:#000000; fill-opacity:0.0; 
stroke:#000000; stroke-width:150000.000000; stroke-opacity:1; 
stroke-linecap:round; stroke-linejoin:round;">
<path d="M287002200 160000000
L285002200 160000000
" />
</g>
<g style="fill:#000000; fill-opacity:0.0; 
stroke:#000000; stroke-width:21200.000000; stroke-opacity:1; 
stroke-linecap:round; stroke-linejoin:round;">
</g>
<g style="fill:#000000; fill-opacity:0.0; 
stroke:#000000; stroke-width:150000.000000; stroke-opacity:1; 
stroke-linecap:round; stroke-linejoin:round;">
<text x="286002200.000000" y="35650000.000000"
textLength="1264286.000000" font-size="1733333.000000" lengthAdjust="spacingAndGlyphs"
text-anchor="middle" opacity="0">A</text>
<g class="stroked-text"><desc>A</desc>
<path d="M285692676 35216666
L286311723 35216666
" />
<path d="M285568866 35588095
L286002200 34288095
L286435533 35588095
" />
</g></g>
<g style="fill:#000000; fill-opacity:0.0; 
stroke:#000000; stroke-width:21200.000000; stroke-opacity:1; 
stroke-linecap:round; stroke-linejoin:round;">
</g>
<g style="fill:#000000; fill-opacity:0.0; 
stroke:#000000; stroke-width:150000.000000; stroke-opacity:1; 
stroke-linecap:round; stroke-linejoin:round;">
<text x="286002200.000000" y="85650000.000000"
textLength="1450000.000000" font-size="1733333.000000" lengthAdjust="spacingAndGlyphs"
text-anchor="middle" opacity="0">B</text>
<g class="stroked-text"><desc>B</desc>
<path d="M286095057 84907142
L286280771 84969047
L286342676 85030952
L286404580 85154761
L286404580 85340476
L286342676 85464285
L286280771 85526190
L286156961 85588095
L285661723 85588095
L285661723 84288095
L286095057 84288095
L286218866 84350000
L286280771 84411904
L286342676 84535714
L286342676 84659523
L286280771 84783333
L286218866 84845238
L286095057 84907142
L285661723 84907142
" />
</g></g>
<g style="fill:#000000; fill-opacity:0.0; 
stroke:#000000; stroke-width:21200.000000; stroke-opacity:1; 
stroke-linecap:round; stroke-linejoin:round;">
</g>
<g style="fill:#000000; fill-opacity:0.0; 
stroke:#000000; stroke-width:150000.000000; stroke-opacity:1; 
stroke-linecap:round; stroke-linejoin:round;">
<text x="286002200.000000" y="135650000.000000"
textLength="1450000.000000" font-size="1733333.000000" lengthAdjust="spacingAndGlyphs"
text-anchor="middle" opacity="0">C</text>
<g class="stroked-text"><desc>C</desc>
<path d="M286404580 135464285
L286342676 135526190
L286156961 135588095
L286033152 135588095
L285847438 135526190
L285723628 135402380
L285661723 135278571
L285599819 135030952
L285599819 134845238
L285661723 134597619
L285723628 134473809
L285847438 134350000
L286033152 134288095
L286156961 134288095
L286342676 134350000
L286404580 134411904
" />
</g></g>
<g style="fill:#000000; fill-opacity:0.0; 
stroke:#000000; stroke-width:21200.000000; stroke-opacity:1; 
stroke-linecap:round; stroke-linejoin:round;">
</g>
<g style="fill:#000000; fill-opacity:0.0; 
stroke:#000000; stroke-width:150000.000000; stroke-opacity:1; 
stroke-linecap:round; stroke-linejoin:round;">
<text x="286002200.000000" y="185650000.000000"
textLength="1450000.000000" font-size="1733333.000000" lengthAdjust="spacingAndGlyphs"
text-anchor="middle" opacity="0">D</text>
<g class="stroked-text"><desc>D</desc>
<path d="M285661723 185588095
L285661723 184288095
L285971247 184288095
L286156961 184350000
L286280771 184473809
L286342676 184597619
L286404580 184845238
L286404580 185030952
L286342676 185278571
L286280771 185402380
L286156961 185526190
L285971247 185588095
L285661723 185588095
" />
</g></g>
<g style="fill:#000000; fill-opacity:0.0; 
stroke:#000000; stroke-width:21200.000000; stroke-opacity:1; 
stroke-linecap:round; stroke-linejoin:round;">
</g>
<g style="fill:#000000; fill-opacity:0.0; 
stroke:#000000; stroke-width:150000.000000; stroke-opacity:1; 
stroke-linecap:round; stroke-linejoin:round;">
<text x="200002200.000000" y="193857200.000000"
textLength="7007143.000000" font-size="2000000.000000" lengthAdjust="spacingAndGlyphs"
text-anchor="start" opacity="0">Date: </text>
<g class="stroked-text"><desc>Date: </desc>
<path d="M200434342 193785771
L200434342 192285771
L200791485 192285771
L201005771 192357200
L201148628 192500057
L201220057 192642914
L201291485 192928628
L201291485 193142914
L201220057 193428628
L201148628 193571485
L201005771 193714342
L200791485 193785771
L200434342 193785771
" />
<path d="M202577200 193785771
L202577200 193000057
L202505771 192857200
L202362914 192785771
L202077200 192785771
L201934342 192857200
" />
<path d="M202577200 193714342
L202434342 193785771
L202077200 193785771
L201934342 193714342
L201862914 193571485
L201862914 193428628
L201934342 193285771
L202077200 193214342
L202434342 193214342
L202577200 193142914
" />
<path d="M203077200 192785771
L203648628 192785771
" />
<path d="M203291485 192285771
L203291485 193571485
L203362914 193714342
L203505771 193785771
L203648628 193785771
" />
<path d="M204720057 193714342
L204577200 193785771
L204291485 193785771
L204148628 193714342
L204077200 193571485
L204077200 193000057
L204148628 192857200
L204291485 192785771
L204577200 192785771
L204720057 192857200
L204791485 193000057
L204791485 193142914
L204077200 193285771
" />
<path d="M205434342 193642914
L205505771 193714342
L205434342 193785771
L205362914 193714342
L205434342 193642914
L205434342 193785771
" />
<path d="M205434342 192857200
L205505771 192928628
L205434342 193000057
L205362914 192928628
L205434342 192857200
L205434342 193000057
" />
</g></g>
<g style="fill:#000000; fill-opacity:0.0; 
stroke:#000000; stroke-width:21200.000000; stroke-opacity:1; 
stroke-linecap:round; stroke-linejoin:round;">
</g>
<g style="fill:#000000; fill-opacity:0.0; 
stroke:#000000; stroke-width:150000.000000; stroke-opacity:1; 
stroke-linecap:round; stroke-linejoin:round;">
<path d="M177002200 194507200
L285002200 194507200
" />
</g>
<g style="fill:#000000; fill-opacity:0.0; 
stroke:#000000; stroke-width:21200.000000; stroke-opacity:1; 
stroke-linecap:round; stroke-linejoin:round;">
</g>
<g style="fill:#000000; fill-opacity:0.0; 
stroke:#000000; stroke-width:150000.000000; stroke-opacity:1; 
stroke-linecap:round; stroke-linejoin:round;">
<text x="178002200.000000" y="196657200.000000"
textLength="33364286.000000" font-size="2000000.000000" lengthAdjust="spacingAndGlyphs"
text-anchor="start" opacity="0">KiCad E.D.A.  pcbnew (6.0.9)</text>
<g class="stroked-text"><desc>KiCad E.D.A.  pcbnew (6.0.9)</desc>
<path d="M178434342 196585771
L178434342 195085771
" />
<path d="M179291485 196585771
L178648628 195728628
" />
<path d="M179291485 195085771
L178434342 195942914
" />
<path d="M179934342 196585771
L179934342 195585771
" />
<path d="M179934342 195085771
L179862914 195157200
L179934342 195228628
L180005771 195157200
L179934342 195085771
L179934342 195228628
" />
<path d="M181505771 196442914
L181434342 196514342
L181220057 196585771
L181077200 196585771
L180862914 196514342
L180720057 196371485
L180648628 196228628
L180577200 195942914
L180577200 195728628
L180648628 195442914
L180720057 195300057
L180862914 195157200
L181077200 195085771
L181220057 195085771
L181434342 195157200
L181505771 195228628
" />
<path d="M182791485 196585771
L182791485 195800057
L182720057 195657200
L182577200 195585771
L182291485 195585771
L182148628 195657200
" />
<path d="M182791485 196514342
L182648628 196585771
L182291485 196585771
L182148628 196514342
L182077200 196371485
L182077200 196228628
L182148628 196085771
L182291485 196014342
L182648628 196014342
L182791485 195942914
" />
<path d="M184148628 196585771
L184148628 195085771
" />
<path d="M184148628 196514342
L184005771 196585771
L183720057 196585771
L183577200 196514342
L183505771 196442914
L183434342 196300057
L183434342 195871485
L183505771 195728628
L183577200 195657200
L183720057 195585771
L184005771 195585771
L184148628 195657200
" />
<path d="M186005771 195800057
L186505771 195800057
" />
<path d="M186720057 196585771
L186005771 196585771
L186005771 195085771
L186720057 195085771
" />
<path d="M187362914 196442914
L187434342 196514342
L187362914 196585771
L187291485 196514342
L187362914 196442914
L187362914 196585771
" />
<path d="M188077200 196585771
L188077200 195085771
L188434342 195085771
L188648628 195157200
L188791485 195300057
L188862914 195442914
L188934342 195728628
L188934342 195942914
L188862914 196228628
L188791485 196371485
L188648628 196514342
L188434342 196585771
L188077200 196585771
" />
<path d="M189577200 196442914
L189648628 196514342
L189577200 196585771
L189505771 196514342
L189577200 196442914
L189577200 196585771
" />
<path d="M190220057 196157200
L190934342 196157200
" />
<path d="M190077200 196585771
L190577200 195085771
L191077200 196585771
" />
<path d="M191577200 196442914
L191648628 196514342
L191577200 196585771
L191505771 196514342
L191577200 196442914
L191577200 196585771
" />
<path d="M194577200 195585771
L194577200 197085771
" />
<path d="M194577200 195657200
L194720057 195585771
L195005771 195585771
L195148628 195657200
L195220057 195728628
L195291485 195871485
L195291485 196300057
L195220057 196442914
L195148628 196514342
L195005771 196585771
L194720057 196585771
L194577200 196514342
" />
<path d="M196577200 196514342
L196434342 196585771
L196148628 196585771
L196005771 196514342
L195934342 196442914
L195862914 196300057
L195862914 195871485
L195934342 195728628
L196005771 195657200
L196148628 195585771
L196434342 195585771
L196577200 195657200
" />
<path d="M197220057 196585771
L197220057 195085771
" />
<path d="M197220057 195657200
L197362914 195585771
L197648628 195585771
L197791485 195657200
L197862914 195728628
L197934342 195871485
L197934342 196300057
L197862914 196442914
L197791485 196514342
L197648628 196585771
L197362914 196585771
L197220057 196514342
" />
<path d="M198577200 195585771
L198577200 196585771
" />
<path d="M198577200 195728628
L198648628 195657200
L198791485 195585771
L199005771 195585771
L199148628 195657200
L199220057 195800057
L199220057 196585771
" />
<path d="M200505771 196514342
L200362914 196585771
L200077200 196585771
L199934342 196514342
L199862914 196371485
L199862914 195800057
L199934342 195657200
L200077200 195585771
L200362914 195585771
L200505771 195657200
L200577200 195800057
L200577200 195942914
L199862914 196085771
" />
<path d="M201077200 195585771
L201362914 196585771
L201648628 195871485
L201934342 196585771
L202220057 195585771
" />
<path d="M204362914 197157200
L204291485 197085771
L204148628 196871485
L204077200 196728628
L204005771 196514342
L203934342 196157200
L203934342 195871485
L204005771 195514342
L204077200 195300057
L204148628 195157200
L204291485 194942914
L204362914 194871485
" />
<path d="M205577200 195085771
L205291485 195085771
L205148628 195157200
L205077200 195228628
L204934342 195442914
L204862914 195728628
L204862914 196300057
L204934342 196442914
L205005771 196514342
L205148628 196585771
L205434342 196585771
L205577200 196514342
L205648628 196442914
L205720057 196300057
L205720057 195942914
L205648628 195800057
L205577200 195728628
L205434342 195657200
L205148628 195657200
L205005771 195728628
L204934342 195800057
L204862914 195942914
" />
<path d="M206362914 196442914
L206434342 196514342
L206362914 196585771
L206291485 196514342
L206362914 196442914
L206362914 196585771
" />
<path d="M207362914 195085771
L207505771 195085771
L207648628 195157200
L207720057 195228628
L207791485 195371485
L207862914 195657200
L207862914 196014342
L207791485 196300057
L207720057 196442914
L207648628 196514342
L207505771 196585771
L207362914 196585771
L207220057 196514342
L207148628 196442914
L207077200 196300057
L207005771 196014342
L207005771 195657200
L207077200 195371485
L207148628 195228628
L207220057 195157200
L207362914 195085771
" />
<path d="M208505771 196442914
L208577200 196514342
L208505771 196585771
L208434342 196514342
L208505771 196442914
L208505771 196585771
" />
<path d="M209291485 196585771
L209577200 196585771
L209720057 196514342
L209791485 196442914
L209934342 196228628
L210005771 195942914
L210005771 195371485
L209934342 195228628
L209862914 195157200
L209720057 195085771
L209434342 195085771
L209291485 195157200
L209220057 195228628
L209148628 195371485
L209148628 195728628
L209220057 195871485
L209291485 195942914
L209434342 196014342
L209720057 196014342
L209862914 195942914
L209934342 195871485
L210005771 195728628
" />
<path d="M210505771 197157200
L210577200 197085771
L210720057 196871485
L210791485 196728628
L210862914 196514342
L210934342 196157200
L210934342 195871485
L210862914 195514342
L210791485 195300057
L210720057 195157200
L210577200 194942914
L210505771 194871485
" />
</g></g>
<g style="fill:#000000; fill-opacity:0.0; 
stroke:#000000; stroke-width:21200.000000; stroke-opacity:1; 
stroke-linecap:round; stroke-linejoin:round;">
</g>
<g style="fill:#000000; fill-opacity:0.0; 
stroke:#000000; stroke-width:150000.000000; stroke-opacity:1; 
stroke-linecap:round; stroke-linejoin:round;">
<path d="M177002200 191507200
L285002200 191507200
" />
</g>
<g style="fill:#000000; fill-opacity:0.0; 
stroke:#000000; stroke-width:21200.000000; stroke-opacity:1; 
stroke-linecap:round; stroke-linejoin:round;">
</g>
<g style="fill:#000000; fill-opacity:0.0; 
stroke:#000000; stroke-width:300000.000000; stroke-opacity:1; 
stroke-linecap:round; stroke-linejoin:round;">
<text x="263002200.000000" y="193857200.000000"
textLength="5935714.000000" font-size="2000000.000000" lengthAdjust="spacingAndGlyphs"
text-anchor="start" opacity="0">Rev: </text>
<g class="stroked-text"><desc>Rev: </desc>
<path d="M264411485 193785771
L263911485 193071485
" />
<path d="M263554342 193785771
L263554342 192285771
L264125771 192285771
L264268628 192357200
L264340057 192428628
L264411485 192571485
L264411485 192785771
L264340057 192928628
L264268628 193000057
L264125771 193071485
L263554342 193071485
" />
<path d="M265625771 193714342
L265482914 193785771
L265197200 193785771
L265054342 193714342
L264982914 193571485
L264982914 193000057
L265054342 192857200
L265197200 192785771
L265482914 192785771
L265625771 192857200
L265697200 193000057
L265697200 193142914
L264982914 193285771
" />
<path d="M266197200 192785771
L266554342 193785771
L266911485 192785771
" />
<path d="M267482914 193642914
L267554342 193714342
L267482914 193785771
L267411485 193714342
L267482914 193642914
L267482914 193785771
" />
<path d="M267482914 192857200
L267554342 192928628
L267482914 193000057
L267411485 192928628
L267482914 192857200
L267482914 193000057
" />
</g></g>
<g style="fill:#000000; fill-opacity:0.0; 
stroke:#000000; stroke-width:21200.000000; stroke-opacity:1; 
stroke-linecap:round; stroke-linejoin:round;">
</g>
<g style="fill:#000000; fill-opacity:0.0; 
stroke:#000000; stroke-width:150000.000000; stroke-opacity:1; 
stroke-linecap:round; stroke-linejoin:round;">
<text x="178002200.000000" y="193857200.000000"
textLength="9604286.000000" font-size="2000000.000000" lengthAdjust="spacingAndGlyphs"
text-anchor="start" opacity="0">Size: A4</text>
<g class="stroked-text"><desc>Size: A4</desc>
<path d="M178362914 193714342
L178577200 193785771
L178934342 193785771
L179077200 193714342
L179148628 193642914
L179220057 193500057
L179220057 193357200
L179148628 193214342
L179077200 193142914
L178934342 193071485
L178648628 193000057
L178505771 192928628
L178434342 192857200
L178362914 192714342
L178362914 192571485
L178434342 192428628
L178505771 192357200
L178648628 192285771
L179005771 192285771
L179220057 192357200
" />
<path d="M179862914 193785771
L179862914 192785771
" />
<path d="M179862914 192285771
L179791485 192357200
L179862914 192428628
L179934342 192357200
L179862914 192285771
L179862914 192428628
" />
<path d="M180434342 192785771
L181220057 192785771
L180434342 193785771
L181220057 193785771
" />
<path d="M182362914 193714342
L182220057 193785771
L181934342 193785771
L181791485 193714342
L181720057 193571485
L181720057 193000057
L181791485 192857200
L181934342 192785771
L182220057 192785771
L182362914 192857200
L182434342 193000057
L182434342 193142914
L181720057 193285771
" />
<path d="M183077200 193642914
L183148628 193714342
L183077200 193785771
L183005771 193714342
L183077200 193642914
L183077200 193785771
" />
<path d="M183077200 192857200
L183148628 192928628
L183077200 193000057
L183005771 192928628
L183077200 192857200
L183077200 193000057
" />
<path d="M184862914 193357200
L185577200 193357200
" />
<path d="M184720057 193785771
L185220057 192285771
L185720057 193785771
" />
<path d="M186862914 192785771
L186862914 193785771
" />
<path d="M186505771 192214342
L186148628 193285771
L187077200 193285771
" />
</g></g>
<g style="fill:#000000; fill-opacity:0.0; 
stroke:#000000; stroke-width:21200.000000; stroke-opacity:1; 
stroke-linecap:round; stroke-linejoin:round;">
</g>
<g style="fill:#000000; fill-opacity:0.0; 
stroke:#000000; stroke-width:150000.000000; stroke-opacity:1; 
stroke-linecap:round; stroke-linejoin:round;">
<text x="263002200.000000" y="196657200.000000"
textLength="8507143.000000" font-size="2000000.000000" lengthAdjust="spacingAndGlyphs"
text-anchor="start" opacity="0">Id: 1/1</text>
<g class="stroked-text"><desc>Id: 1/1</desc>
<path d="M263434342 196585771
L263434342 195085771
" />
<path d="M264791485 196585771
L264791485 195085771
" />
<path d="M264791485 196514342
L264648628 196585771
L264362914 196585771
L264220057 196514342
L264148628 196442914
L264077200 196300057
L264077200 195871485
L264148628 195728628
L264220057 195657200
L264362914 195585771
L264648628 195585771
L264791485 195657200
" />
<path d="M265505771 196442914
L265577200 196514342
L265505771 196585771
L265434342 196514342
L265505771 196442914
L265505771 196585771
" />
<path d="M265505771 195657200
L265577200 195728628
L265505771 195800057
L265434342 195728628
L265505771 195657200
L265505771 195800057
" />
<path d="M268148628 196585771
L267291485 196585771
" />
<path d="M267720057 196585771
L267720057 195085771
L267577200 195300057
L267434342 195442914
L267291485 195514342
" />
<path d="M269862914 195014342
L268577200 196942914
" />
<path d="M271148628 196585771
L270291485 196585771
" />
<path d="M270720057 196585771
L270720057 195085771
L270577200 195300057
L270434342 195442914
L270291485 195514342
" />
</g></g>
<g style="fill:#000000; fill-opacity:0.0; 
stroke:#000000; stroke-width:21200.000000; stroke-opacity:1; 
stroke-linecap:round; stroke-linejoin:round;">
</g>
<g style="fill:#000000; fill-opacity:0.0; 
stroke:#000000; stroke-width:150000.000000; stroke-opacity:1; 
stroke-linecap:round; stroke-linejoin:round;">
<path d="M177002200 187507200
L285002200 187507200
" />
</g>
<g style="fill:#000000; fill-opacity:0.0; 
stroke:#000000; stroke-width:21200.000000; stroke-opacity:1; 
stroke-linecap:round; stroke-linejoin:round;">
</g>
<g style="fill:#000000; fill-opacity:0.0; 
stroke:#000000; stroke-width:400000.000000; stroke-opacity:1; 
stroke-linecap:round; stroke-linejoin:round;">
<text x="178002200.000000" y="190307200.000000"
textLength="9409643.000000" font-size="2666666.000000" lengthAdjust="spacingAndGlyphs"
text-anchor="start" opacity="0">Title: </text>
<g class="stroked-text"><desc>Title: </desc>
<path d="M178714580 188211961
L179857438 188211961
" />
<path d="M179036009 190211961
L179286009 188211961
" />
<path d="M180274104 190211961
L180440771 188878628
" />
<path d="M180524104 188211961
L180416961 188307200
L180500295 188402438
L180607438 188307200
L180524104 188211961
L180500295 188402438
" />
<path d="M181107438 188878628
L181869342 188878628
" />
<path d="M181476485 188211961
L181262200 189926247
L181333628 190116723
L181512200 190211961
L181702676 190211961
" />
<path d="M182655057 190211961
L182476485 190116723
L182405057 189926247
L182619342 188211961
" />
<path d="M184190771 190116723
L183988390 190211961
L183607438 190211961
L183428866 190116723
L183357438 189926247
L183452676 189164342
L183571723 188973866
L183774104 188878628
L184155057 188878628
L184333628 188973866
L184405057 189164342
L184381247 189354819
L183405057 189545295
" />
<path d="M185155057 190021485
L185238390 190116723
L185131247 190211961
L185047914 190116723
L185155057 190021485
L185131247 190211961
" />
<path d="M185286009 188973866
L185369342 189069104
L185262200 189164342
L185178866 189069104
L185286009 188973866
L185262200 189164342
" />
</g></g>
<g style="fill:#000000; fill-opacity:0.0; 
stroke:#000000; stroke-width:21200.000000; stroke-opacity:1; 
stroke-linecap:round; stroke-linejoin:round;">
</g>
<g style="fill:#000000; fill-opacity:0.0; 
stroke:#000000; stroke-width:150000.000000; stroke-opacity:1; 
stroke-linecap:round; stroke-linejoin:round;">
<text x="178002200.000000" y="186457200.000000"
textLength="30662857.000000" font-size="2000000.000000" lengthAdjust="spacingAndGlyphs"
text-anchor="start" opacity="0">File: kicadBoard.kicad_pcb</text>
<g class="stroked-text"><desc>File: kicadBoard.kicad_pcb</desc>
<path d="M178934342 185600057
L178434342 185600057
" />
<path d="M178434342 186385771
L178434342 184885771
L179148628 184885771
" />
<path d="M179720057 186385771
L179720057 185385771
" />
<path d="M179720057 184885771
L179648628 184957200
L179720057 185028628
L179791485 184957200
L179720057 184885771
L179720057 185028628
" />
<path d="M180648628 186385771
L180505771 186314342
L180434342 186171485
L180434342 184885771
" />
<path d="M181791485 186314342
L181648628 186385771
L181362914 186385771
L181220057 186314342
L181148628 186171485
L181148628 185600057
L181220057 185457200
L181362914 185385771
L181648628 185385771
L181791485 185457200
L181862914 185600057
L181862914 185742914
L181148628 185885771
" />
<path d="M182505771 186242914
L182577200 186314342
L182505771 186385771
L182434342 186314342
L182505771 186242914
L182505771 186385771
" />
<path d="M182505771 185457200
L182577200 185528628
L182505771 185600057
L182434342 185528628
L182505771 185457200
L182505771 185600057
" />
<path d="M184362914 186385771
L184362914 184885771
" />
<path d="M184505771 185814342
L184934342 186385771
" />
<path d="M184934342 185385771
L184362914 185957200
" />
<path d="M185577200 186385771
L185577200 185385771
" />
<path d="M185577200 184885771
L185505771 184957200
L185577200 185028628
L185648628 184957200
L185577200 184885771
L185577200 185028628
" />
<path d="M186934342 186314342
L186791485 186385771
L186505771 186385771
L186362914 186314342
L186291485 186242914
L186220057 186100057
L186220057 185671485
L186291485 185528628
L186362914 185457200
L186505771 185385771
L186791485 185385771
L186934342 185457200
" />
<path d="M188220057 186385771
L188220057 185600057
L188148628 185457200
L188005771 185385771
L187720057 185385771
L187577200 185457200
" />
<path d="M188220057 186314342
L188077200 186385771
L187720057 186385771
L187577200 186314342
L187505771 186171485
L187505771 186028628
L187577200 185885771
L187720057 185814342
L188077200 185814342
L188220057 185742914
" />
<path d="M189577200 186385771
L189577200 184885771
" />
<path d="M189577200 186314342
L189434342 186385771
L189148628 186385771
L189005771 186314342
L188934342 186242914
L188862914 186100057
L188862914 185671485
L188934342 185528628
L189005771 185457200
L189148628 185385771
L189434342 185385771
L189577200 185457200
" />
<path d="M190791485 185600057
L191005771 185671485
L191077200 185742914
L191148628 185885771
L191148628 186100057
L191077200 186242914
L191005771 186314342
L190862914 186385771
L190291485 186385771
L190291485 184885771
L190791485 184885771
L190934342 184957200
L191005771 185028628
L191077200 185171485
L191077200 185314342
L191005771 185457200
L190934342 185528628
L190791485 185600057
L190291485 185600057
" />
<path d="M192005771 186385771
L191862914 186314342
L191791485 186242914
L191720057 186100057
L191720057 185671485
L191791485 185528628
L191862914 185457200
L192005771 185385771
L192220057 185385771
L192362914 185457200
L192434342 185528628
L192505771 185671485
L192505771 186100057
L192434342 186242914
L192362914 186314342
L192220057 186385771
L192005771 186385771
" />
<path d="M193791485 186385771
L193791485 185600057
L193720057 185457200
L193577200 185385771
L193291485 185385771
L193148628 185457200
" />
<path d="M193791485 186314342
L193648628 186385771
L193291485 186385771
L193148628 186314342
L193077200 186171485
L193077200 186028628
L193148628 185885771
L193291485 185814342
L193648628 185814342
L193791485 185742914
" />
<path d="M194505771 186385771
L194505771 185385771
" />
<path d="M194505771 185671485
L194577200 185528628
L194648628 185457200
L194791485 185385771
L194934342 185385771
" />
<path d="M196077200 186385771
L196077200 184885771
" />
<path d="M196077200 186314342
L195934342 186385771
L195648628 186385771
L195505771 186314342
L195434342 186242914
L195362914 186100057
L195362914 185671485
L195434342 185528628
L195505771 185457200
L195648628 185385771
L195934342 185385771
L196077200 185457200
" />
<path d="M196791485 186242914
L196862914 186314342
L196791485 186385771
L196720057 186314342
L196791485 186242914
L196791485 186385771
" />
<path d="M197505771 186385771
L197505771 184885771
" />
<path d="M197648628 185814342
L198077200 186385771
" />
<path d="M198077200 185385771
L197505771 185957200
" />
<path d="M198720057 186385771
L198720057 185385771
" />
<path d="M198720057 184885771
L198648628 184957200
L198720057 185028628
L198791485 184957200
L198720057 184885771
L198720057 185028628
" />
<path d="M200077200 186314342
L199934342 186385771
L199648628 186385771
L199505771 186314342
L199434342 186242914
L199362914 186100057
L199362914 185671485
L199434342 185528628
L199505771 185457200
L199648628 185385771
L199934342 185385771
L200077200 185457200
" />
<path d="M201362914 186385771
L201362914 185600057
L201291485 185457200
L201148628 185385771
L200862914 185385771
L200720057 185457200
" />
<path d="M201362914 186314342
L201220057 186385771
L200862914 186385771
L200720057 186314342
L200648628 186171485
L200648628 186028628
L200720057 185885771
L200862914 185814342
L201220057 185814342
L201362914 185742914
" />
<path d="M202720057 186385771
L202720057 184885771
" />
<path d="M202720057 186314342
L202577200 186385771
L202291485 186385771
L202148628 186314342
L202077200 186242914
L202005771 186100057
L202005771 185671485
L202077200 185528628
L202148628 185457200
L202291485 185385771
L202577200 185385771
L202720057 185457200
" />
<path d="M203077200 186528628
L204220057 186528628
" />
<path d="M204577200 185385771
L204577200 186885771
" />
<path d="M204577200 185457200
L204720057 185385771
L205005771 185385771
L205148628 185457200
L205220057 185528628
L205291485 185671485
L205291485 186100057
L205220057 186242914
L205148628 186314342
L205005771 186385771
L204720057 186385771
L204577200 186314342
" />
<path d="M206577200 186314342
L206434342 186385771
L206148628 186385771
L206005771 186314342
L205934342 186242914
L205862914 186100057
L205862914 185671485
L205934342 185528628
L206005771 185457200
L206148628 185385771
L206434342 185385771
L206577200 185457200
" />
<path d="M207220057 186385771
L207220057 184885771
" />
<path d="M207220057 185457200
L207362914 185385771
L207648628 185385771
L207791485 185457200
L207862914 185528628
L207934342 185671485
L207934342 186100057
L207862914 186242914
L207791485 186314342
L207648628 186385771
L207362914 186385771
L207220057 186314342
" />
</g></g>
<g style="fill:#000000; fill-opacity:0.0; 
stroke:#000000; stroke-width:21200.000000; stroke-opacity:1; 
stroke-linecap:round; stroke-linejoin:round;">
</g>
<g style="fill:#000000; fill-opacity:0.0; 
stroke:#000000; stroke-width:150000.000000; stroke-opacity:1; 
stroke-linecap:round; stroke-linejoin:round;">
<path d="M177002200 181507200
L285002200 181507200
" />
</g>
<g style="fill:#000000; fill-opacity:0.0; 
stroke:#000000; stroke-width:21200.000000; stroke-opacity:1; 
stroke-linecap:round; stroke-linejoin:round;">
</g>
<g style="fill:#000000; fill-opacity:0.0; 
stroke:#000000; stroke-width:150000.000000; stroke-opacity:1; 
stroke-linecap:round; stroke-linejoin:round;">
<text x="178002200.000000" y="183757200.000000"
textLength="8221429.000000" font-size="2000000.000000" lengthAdjust="spacingAndGlyphs"
text-anchor="start" opacity="0">Sheet: </text>
<g class="stroked-text"><desc>Sheet: </desc>
<path d="M178362914 183614342
L178577200 183685771
L178934342 183685771
L179077200 183614342
L179148628 183542914
L179220057 183400057
L179220057 183257200
L179148628 183114342
L179077200 183042914
L178934342 182971485
L178648628 182900057
L178505771 182828628
L178434342 182757200
L178362914 182614342
L178362914 182471485
L178434342 182328628
L178505771 182257200
L178648628 182185771
L179005771 182185771
L179220057 182257200
" />
<path d="M179862914 183685771
L179862914 182185771
" />
<path d="M180505771 183685771
L180505771 182900057
L180434342 182757200
L180291485 182685771
L180077200 182685771
L179934342 182757200
L179862914 182828628
" />
<path d="M181791485 183614342
L181648628 183685771
L181362914 183685771
L181220057 183614342
L181148628 183471485
L181148628 182900057
L181220057 182757200
L181362914 182685771
L181648628 182685771
L181791485 182757200
L181862914 182900057
L181862914 183042914
L181148628 183185771
" />
<path d="M183077200 183614342
L182934342 183685771
L182648628 183685771
L182505771 183614342
L182434342 183471485
L182434342 182900057
L182505771 182757200
L182648628 182685771
L182934342 182685771
L183077200 182757200
L183148628 182900057
L183148628 183042914
L182434342 183185771
" />
<path d="M183577200 182685771
L184148628 182685771
" />
<path d="M183791485 182185771
L183791485 183471485
L183862914 183614342
L184005771 183685771
L184148628 183685771
" />
<path d="M184648628 183542914
L184720057 183614342
L184648628 183685771
L184577200 183614342
L184648628 183542914
L184648628 183685771
" />
<path d="M184648628 182757200
L184720057 182828628
L184648628 182900057
L184577200 182828628
L184648628 182757200
L184648628 182900057
" />
</g></g>
<g style="fill:#000000; fill-opacity:0.0; 
stroke:#000000; stroke-width:21200.000000; stroke-opacity:1; 
stroke-linecap:round; stroke-linejoin:round;">
</g>
<g style="fill:#000000; fill-opacity:0.0; 
stroke:#000000; stroke-width:300000.000000; stroke-opacity:1; 
stroke-linecap:round; stroke-linejoin:round;">
<text x="178002200.000000" y="180757200.000000"
textLength="150000.000000" font-size="2000000.000000" lengthAdjust="spacingAndGlyphs"
text-anchor="start" opacity="0"></text>
<g class="stroked-text"><desc></desc>
</g></g>
<g style="fill:#000000; fill-opacity:0.0; 
stroke:#000000; stroke-width:21200.000000; stroke-opacity:1; 
stroke-linecap:round; stroke-linejoin:round;">
</g>
<g style="fill:#000000; fill-opacity:0.0; 
stroke:#000000; stroke-width:150000.000000; stroke-opacity:1; 
stroke-linecap:round; stroke-linejoin:round;">
<text x="178002200.000000" y="177757200.000000"
textLength="300000.000000" font-size="2000000.000000" lengthAdjust="spacingAndGlyphs"
text-anchor="start" opacity="0"></text>
<g class="stroked-text"><desc></desc>
</g></g>
<g style="fill:#000000; fill-opacity:0.0; 
stroke:#000000; stroke-width:21200.000000; stroke-opacity:1; 
stroke-linecap:round; stroke-linejoin:round;">
</g>
<g style="fill:#000000; fill-opacity:0.0; 
stroke:#000000; stroke-width:150000.000000; stroke-opacity:1; 
stroke-linecap:round; stroke-linejoin:round;">
<text x="178002200.000000" y="174757200.000000"
textLength="150000.000000" font-size="2000000.000000" lengthAdjust="spacingAndGlyphs"
text-anchor="start" opacity="0"></text>
<g class="stroked-text"><desc></desc>
</g></g>
<g style="fill:#000000; fill-opacity:0.0; 
stroke:#000000; stroke-width:21200.000000; stroke-opacity:1; 
stroke-linecap:round; stroke-linejoin:round;">
</g>
<g style="fill:#000000; fill-opacity:0.0; 
stroke:#000000; stroke-width:150000.000000; stroke-opacity:1; 
stroke-linecap:round; stroke-linejoin:round;">
<text x="178002200.000000" y="171757200.000000"
textLength="150000.000000" font-size="2000000.000000" lengthAdjust="spacingAndGlyphs"
text-anchor="start" opacity="0"></text>
<g class="stroked-text"><desc></desc>
</g></g>
<g style="fill:#000000; fill-opacity:0.0; 
stroke:#000000; stroke-width:21200.000000; stroke-opacity:1; 
stroke-linecap:round; stroke-linejoin:round;">
</g>
<g style="fill:#000000; fill-opacity:0.0; 
stroke:#000000; stroke-width:150000.000000; stroke-opacity:1; 
stroke-linecap:round; stroke-linejoin:round;">
<text x="178002200.000000" y="168757200.000000"
textLength="150000.000000" font-size="2000000.000000" lengthAdjust="spacingAndGlyphs"
text-anchor="start" opacity="0"></text>
<g class="stroked-text"><desc></desc>
</g></g>
<g style="fill:#000000; fill-opacity:0.0; 
stroke:#000000; stroke-width:21200.000000; stroke-opacity:1; 
stroke-linecap:round; stroke-linejoin:round;">
</g>
<g style="fill:#000000; fill-opacity:0.0; 
stroke:#000000; stroke-width:150000.000000; stroke-opacity:1; 
stroke-linecap:round; stroke-linejoin:round;">
<path d="M197002200 191507200
L197002200 194507200
" />
</g>
<g style="fill:#000000; fill-opacity:0.0; 
stroke:#000000; stroke-width:21200.000000; stroke-opacity:1; 
stroke-linecap:round; stroke-linejoin:round;">
</g>
<g style="fill:#000000; fill-opacity:0.0; 
stroke:#000000; stroke-width:150000.000000; stroke-opacity:1; 
stroke-linecap:round; stroke-linejoin:round;">
<path d="M261002200 191507200
L261002200 198007200
" />
</g>
<g style="fill:#AFAFAF; fill-opacity:0.0; 
stroke:#AFAFAF; stroke-width:150000.000000; stroke-opacity:1; 
stroke-linecap:round; stroke-linejoin:round;">
</g>
<g style="fill:#AFAFAF; fill-opacity:0.0; 
stroke:#AFAFAF; stroke-width:177800.000000; stroke-opacity:1; 
stroke-linecap:round; stroke-linejoin:round;">
<text x="156121100.000000" y="145643600.000000"
textLength="15237600.000000" font-size="2133600.000000" lengthAdjust="spacingAndGlyphs"
text-anchor="start" opacity="0">Joel Bartlett</text>
<g class="stroked-text"><desc>Joel Bartlett</desc>
<path d="M157074870 143967200
L157074870 145110200
L156998670 145338800
L156846270 145491200
L156617670 145567400
L156465270 145567400
" />
<path d="M158065470 145567400
L157913070 145491200
L157836870 145415000
L157760670 145262600
L157760670 144805400
L157836870 144653000
L157913070 144576800
L158065470 144500600
L158294070 144500600
L158446470 144576800
L158522670 144653000
L158598870 144805400
L158598870 145262600
L158522670 145415000
L158446470 145491200
L158294070 145567400
L158065470 145567400
" />
<path d="M159894270 145491200
L159741870 145567400
L159437070 145567400
L159284670 145491200
L159208470 145338800
L159208470 144729200
L159284670 144576800
L159437070 144500600
L159741870 144500600
L159894270 144576800
L159970470 144729200
L159970470 144881600
L159208470 145034000
" />
<path d="M160884870 145567400
L160732470 145491200
L160656270 145338800
L160656270 143967200
" />
<path d="M163247070 144729200
L163475670 144805400
L163551870 144881600
L163628070 145034000
L163628070 145262600
L163551870 145415000
L163475670 145491200
L163323270 145567400
L162713670 145567400
L162713670 143967200
L163247070 143967200
L163399470 144043400
L163475670 144119600
L163551870 144272000
L163551870 144424400
L163475670 144576800
L163399470 144653000
L163247070 144729200
L162713670 144729200
" />
<path d="M164999670 145567400
L164999670 144729200
L164923470 144576800
L164771070 144500600
L164466270 144500600
L164313870 144576800
" />
<path d="M164999670 145491200
L164847270 145567400
L164466270 145567400
L164313870 145491200
L164237670 145338800
L164237670 145186400
L164313870 145034000
L164466270 144957800
L164847270 144957800
L164999670 144881600
" />
<path d="M165761670 145567400
L165761670 144500600
" />
<path d="M165761670 144805400
L165837870 144653000
L165914070 144576800
L166066470 144500600
L166218870 144500600
" />
<path d="M166523670 144500600
L167133270 144500600
" />
<path d="M166752270 143967200
L166752270 145338800
L166828470 145491200
L166980870 145567400
L167133270 145567400
" />
<path d="M167895270 145567400
L167742870 145491200
L167666670 145338800
L167666670 143967200
" />
<path d="M169114470 145491200
L168962070 145567400
L168657270 145567400
L168504870 145491200
L168428670 145338800
L168428670 144729200
L168504870 144576800
L168657270 144500600
L168962070 144500600
L169114470 144576800
L169190670 144729200
L169190670 144881600
L168428670 145034000
" />
<path d="M169647870 144500600
L170257470 144500600
" />
<path d="M169876470 143967200
L169876470 145338800
L169952670 145491200
L170105070 145567400
L170257470 145567400
" />
<path d="M170562270 144500600
L171171870 144500600
" />
<path d="M170790870 143967200
L170790870 145338800
L170867070 145491200
L171019470 145567400
L171171870 145567400
" />
</g></g>
<g style="fill:#AFAFAF; fill-opacity:0.0; 
stroke:#AFAFAF; stroke-width:142240.000000; stroke-opacity:1; 
stroke-linecap:round; stroke-linejoin:round;">
<text x="129451100.000000" y="143103600.000000"
textLength="72282473.000000" font-size="2181013.000000" lengthAdjust="spacingAndGlyphs"
text-anchor="start" opacity="0"> HTTPS://CREATIVECOMMONS.ORG/LICENSES/BY-SA/4.0/</text>
<g class="stroked-text"><desc> HTTPS://CREATIVECOMMONS.ORG/LICENSES/BY-SA/4.0/</desc>
<path d="M131179316 143025706
L131179316 141389946
" />
<path d="M131179316 142168880
L132114036 142168880
" />
<path d="M132114036 143025706
L132114036 141389946
" />
<path d="M132659289 141389946
L133594009 141389946
" />
<path d="M133126649 143025706
L133126649 141389946
" />
<path d="M133905582 141389946
L134840302 141389946
" />
<path d="M134372942 143025706
L134372942 141389946
" />
<path d="M135385556 143025706
L135385556 141389946
L136008702 141389946
L136164489 141467840
L136242382 141545733
L136320276 141701520
L136320276 141935200
L136242382 142090986
L136164489 142168880
L136008702 142246773
L135385556 142246773
" />
<path d="M136943422 142947813
L137177102 143025706
L137566569 143025706
L137722356 142947813
L137800249 142869920
L137878142 142714133
L137878142 142558346
L137800249 142402560
L137722356 142324666
L137566569 142246773
L137254996 142168880
L137099209 142090986
L137021316 142013093
L136943422 141857306
L136943422 141701520
L137021316 141545733
L137099209 141467840
L137254996 141389946
L137644462 141389946
L137878142 141467840
" />
<path d="M138579182 142869920
L138657076 142947813
L138579182 143025706
L138501289 142947813
L138579182 142869920
L138579182 143025706
" />
<path d="M138579182 142013093
L138657076 142090986
L138579182 142168880
L138501289 142090986
L138579182 142013093
L138579182 142168880
" />
<path d="M140526516 141312053
L139124436 143415173
" />
<path d="M142240169 141312053
L140838089 143415173
" />
<path d="M143720142 142869920
L143642249 142947813
L143408569 143025706
L143252782 143025706
L143019102 142947813
L142863316 142792026
L142785422 142636240
L142707529 142324666
L142707529 142090986
L142785422 141779413
L142863316 141623626
L143019102 141467840
L143252782 141389946
L143408569 141389946
L143642249 141467840
L143720142 141545733
" />
<path d="M145355902 143025706
L144810649 142246773
" />
<path d="M144421182 143025706
L144421182 141389946
L145044329 141389946
L145200116 141467840
L145278009 141545733
L145355902 141701520
L145355902 141935200
L145278009 142090986
L145200116 142168880
L145044329 142246773
L144421182 142246773
" />
<path d="M146056942 142168880
L146602196 142168880
" />
<path d="M146835876 143025706
L146056942 143025706
L146056942 141389946
L146835876 141389946
" />
<path d="M147459022 142558346
L148237956 142558346
" />
<path d="M147303236 143025706
L147848489 141389946
L148393742 143025706
" />
<path d="M148705316 141389946
L149640036 141389946
" />
<path d="M149172676 143025706
L149172676 141389946
" />
<path d="M150185289 143025706
L150185289 141389946
" />
<path d="M150730542 141389946
L151275796 143025706
L151821049 141389946
" />
<path d="M152366302 142168880
L152911556 142168880
" />
<path d="M153145236 143025706
L152366302 143025706
L152366302 141389946
L153145236 141389946
" />
<path d="M154780996 142869920
L154703102 142947813
L154469422 143025706
L154313636 143025706
L154079956 142947813
L153924169 142792026
L153846276 142636240
L153768382 142324666
L153768382 142090986
L153846276 141779413
L153924169 141623626
L154079956 141467840
L154313636 141389946
L154469422 141389946
L154703102 141467840
L154780996 141545733
" />
<path d="M155793609 141389946
L156105182 141389946
L156260969 141467840
L156416756 141623626
L156494649 141935200
L156494649 142480453
L156416756 142792026
L156260969 142947813
L156105182 143025706
L155793609 143025706
L155637822 142947813
L155482036 142792026
L155404142 142480453
L155404142 141935200
L155482036 141623626
L155637822 141467840
L155793609 141389946
" />
<path d="M157195689 143025706
L157195689 141389946
L157740942 142558346
L158286196 141389946
L158286196 143025706
" />
<path d="M159065129 143025706
L159065129 141389946
L159610382 142558346
L160155636 141389946
L160155636 143025706
" />
<path d="M161246142 141389946
L161557716 141389946
L161713502 141467840
L161869289 141623626
L161947182 141935200
L161947182 142480453
L161869289 142792026
L161713502 142947813
L161557716 143025706
L161246142 143025706
L161090356 142947813
L160934569 142792026
L160856676 142480453
L160856676 141935200
L160934569 141623626
L161090356 141467840
L161246142 141389946
" />
<path d="M162648222 143025706
L162648222 141389946
L163582942 143025706
L163582942 141389946
" />
<path d="M164283982 142947813
L164517662 143025706
L164907129 143025706
L165062916 142947813
L165140809 142869920
L165218702 142714133
L165218702 142558346
L165140809 142402560
L165062916 142324666
L164907129 142246773
L164595556 142168880
L164439769 142090986
L164361876 142013093
L164283982 141857306
L164283982 141701520
L164361876 141545733
L164439769 141467840
L164595556 141389946
L164985022 141389946
L165218702 141467840
" />
<path d="M165919742 142869920
L165997636 142947813
L165919742 143025706
L165841849 142947813
L165919742 142869920
L165919742 143025706
" />
<path d="M167010249 141389946
L167321822 141389946
L167477609 141467840
L167633396 141623626
L167711289 141935200
L167711289 142480453
L167633396 142792026
L167477609 142947813
L167321822 143025706
L167010249 143025706
L166854462 142947813
L166698676 142792026
L166620782 142480453
L166620782 141935200
L166698676 141623626
L166854462 141467840
L167010249 141389946
" />
<path d="M169347049 143025706
L168801796 142246773
" />
<path d="M168412329 143025706
L168412329 141389946
L169035476 141389946
L169191262 141467840
L169269156 141545733
L169347049 141701520
L169347049 141935200
L169269156 142090986
L169191262 142168880
L169035476 142246773
L168412329 142246773
" />
<path d="M170904916 141467840
L170749129 141389946
L170515449 141389946
L170281769 141467840
L170125982 141623626
L170048089 141779413
L169970196 142090986
L169970196 142324666
L170048089 142636240
L170125982 142792026
L170281769 142947813
L170515449 143025706
L170671236 143025706
L170904916 142947813
L170982809 142869920
L170982809 142324666
L170671236 142324666
" />
<path d="M172852249 141312053
L171450169 143415173
" />
<path d="M174176436 143025706
L173397502 143025706
L173397502 141389946
" />
<path d="M174721689 143025706
L174721689 141389946
" />
<path d="M176435342 142869920
L176357449 142947813
L176123769 143025706
L175967982 143025706
L175734302 142947813
L175578516 142792026
L175500622 142636240
L175422729 142324666
L175422729 142090986
L175500622 141779413
L175578516 141623626
L175734302 141467840
L175967982 141389946
L176123769 141389946
L176357449 141467840
L176435342 141545733
" />
<path d="M177136382 142168880
L177681636 142168880
" />
<path d="M177915316 143025706
L177136382 143025706
L177136382 141389946
L177915316 141389946
" />
<path d="M178616356 143025706
L178616356 141389946
L179551076 143025706
L179551076 141389946
" />
<path d="M180252116 142947813
L180485796 143025706
L180875262 143025706
L181031049 142947813
L181108942 142869920
L181186836 142714133
L181186836 142558346
L181108942 142402560
L181031049 142324666
L180875262 142246773
L180563689 142168880
L180407902 142090986
L180330009 142013093
L180252116 141857306
L180252116 141701520
L180330009 141545733
L180407902 141467840
L180563689 141389946
L180953156 141389946
L181186836 141467840
" />
<path d="M181887876 142168880
L182433129 142168880
" />
<path d="M182666809 143025706
L181887876 143025706
L181887876 141389946
L182666809 141389946
" />
<path d="M183289956 142947813
L183523636 143025706
L183913102 143025706
L184068889 142947813
L184146782 142869920
L184224676 142714133
L184224676 142558346
L184146782 142402560
L184068889 142324666
L183913102 142246773
L183601529 142168880
L183445742 142090986
L183367849 142013093
L183289956 141857306
L183289956 141701520
L183367849 141545733
L183445742 141467840
L183601529 141389946
L183990996 141389946
L184224676 141467840
" />
<path d="M186094116 141312053
L184692036 143415173
" />
<path d="M187184622 142168880
L187418302 142246773
L187496196 142324666
L187574089 142480453
L187574089 142714133
L187496196 142869920
L187418302 142947813
L187262516 143025706
L186639369 143025706
L186639369 141389946
L187184622 141389946
L187340409 141467840
L187418302 141545733
L187496196 141701520
L187496196 141857306
L187418302 142013093
L187340409 142090986
L187184622 142168880
L186639369 142168880
" />
<path d="M188586702 142246773
L188586702 143025706
" />
<path d="M188041449 141389946
L188586702 142246773
L189131956 141389946
" />
<path d="M189677209 142402560
L190923502 142402560
" />
<path d="M191624542 142947813
L191858222 143025706
L192247689 143025706
L192403476 142947813
L192481369 142869920
L192559262 142714133
L192559262 142558346
L192481369 142402560
L192403476 142324666
L192247689 142246773
L191936116 142168880
L191780329 142090986
L191702436 142013093
L191624542 141857306
L191624542 141701520
L191702436 141545733
L191780329 141467840
L191936116 141389946
L192325582 141389946
L192559262 141467840
" />
<path d="M193182409 142558346
L193961342 142558346
" />
<path d="M193026622 143025706
L193571876 141389946
L194117129 143025706
" />
<path d="M195830782 141312053
L194428702 143415173
" />
<path d="M197077076 141935200
L197077076 143025706
" />
<path d="M196687609 141312053
L196298142 142480453
L197310756 142480453
" />
<path d="M197933902 142869920
L198011796 142947813
L197933902 143025706
L197856009 142947813
L197933902 142869920
L197933902 143025706
" />
<path d="M199024409 141389946
L199180196 141389946
L199335982 141467840
L199413876 141545733
L199491769 141701520
L199569662 142013093
L199569662 142402560
L199491769 142714133
L199413876 142869920
L199335982 142947813
L199180196 143025706
L199024409 143025706
L198868622 142947813
L198790729 142869920
L198712836 142714133
L198634942 142402560
L198634942 142013093
L198712836 141701520
L198790729 141545733
L198868622 141467840
L199024409 141389946
" />
<path d="M201439102 141312053
L200037022 143415173
" />
</g><text x="109131100.000000" y="140563600.000000"
textLength="103315685.000000" font-size="2181013.000000" lengthAdjust="spacingAndGlyphs"
text-anchor="start" opacity="0">RELEASED UNDER THE CREATIVE COMMONS ATTRIBUTION SHARE-ALIKE 4.0 LICENSE</text>
<g class="stroked-text"><desc>RELEASED UNDER THE CREATIVE COMMONS ATTRIBUTION SHARE-ALIKE 4.0 LICENSE</desc>
<path d="M110547742 140485706
L110002489 139706773
" />
<path d="M109613022 140485706
L109613022 138849946
L110236169 138849946
L110391956 138927840
L110469849 139005733
L110547742 139161520
L110547742 139395200
L110469849 139550986
L110391956 139628880
L110236169 139706773
L109613022 139706773
" />
<path d="M111248782 139628880
L111794036 139628880
" />
<path d="M112027716 140485706
L111248782 140485706
L111248782 138849946
L112027716 138849946
" />
<path d="M113507689 140485706
L112728756 140485706
L112728756 138849946
" />
<path d="M114052942 139628880
L114598196 139628880
" />
<path d="M114831876 140485706
L114052942 140485706
L114052942 138849946
L114831876 138849946
" />
<path d="M115455022 140018346
L116233956 140018346
" />
<path d="M115299236 140485706
L115844489 138849946
L116389742 140485706
" />
<path d="M116857102 140407813
L117090782 140485706
L117480249 140485706
L117636036 140407813
L117713929 140329920
L117791822 140174133
L117791822 140018346
L117713929 139862560
L117636036 139784666
L117480249 139706773
L117168676 139628880
L117012889 139550986
L116934996 139473093
L116857102 139317306
L116857102 139161520
L116934996 139005733
L117012889 138927840
L117168676 138849946
L117558142 138849946
L117791822 138927840
" />
<path d="M118492862 139628880
L119038116 139628880
" />
<path d="M119271796 140485706
L118492862 140485706
L118492862 138849946
L119271796 138849946
" />
<path d="M119972836 140485706
L119972836 138849946
L120362302 138849946
L120595982 138927840
L120751769 139083626
L120829662 139239413
L120907556 139550986
L120907556 139784666
L120829662 140096240
L120751769 140252026
L120595982 140407813
L120362302 140485706
L119972836 140485706
" />
<path d="M122854889 138849946
L122854889 140174133
L122932782 140329920
L123010676 140407813
L123166462 140485706
L123478036 140485706
L123633822 140407813
L123711716 140329920
L123789609 140174133
L123789609 138849946
" />
<path d="M124568542 140485706
L124568542 138849946
L125503262 140485706
L125503262 138849946
" />
<path d="M126282196 140485706
L126282196 138849946
L126671662 138849946
L126905342 138927840
L127061129 139083626
L127139022 139239413
L127216916 139550986
L127216916 139784666
L127139022 140096240
L127061129 140252026
L126905342 140407813
L126671662 140485706
L126282196 140485706
" />
<path d="M127917956 139628880
L128463209 139628880
" />
<path d="M128696889 140485706
L127917956 140485706
L127917956 138849946
L128696889 138849946
" />
<path d="M130332649 140485706
L129787396 139706773
" />
<path d="M129397929 140485706
L129397929 138849946
L130021076 138849946
L130176862 138927840
L130254756 139005733
L130332649 139161520
L130332649 139395200
L130254756 139550986
L130176862 139628880
L130021076 139706773
L129397929 139706773
" />
<path d="M132046302 138849946
L132981022 138849946
" />
<path d="M132513662 140485706
L132513662 138849946
" />
<path d="M133526276 140485706
L133526276 138849946
" />
<path d="M133526276 139628880
L134460996 139628880
" />
<path d="M134460996 140485706
L134460996 138849946
" />
<path d="M135239929 139628880
L135785182 139628880
" />
<path d="M136018862 140485706
L135239929 140485706
L135239929 138849946
L136018862 138849946
" />
<path d="M138900916 140329920
L138823022 140407813
L138589342 140485706
L138433556 140485706
L138199876 140407813
L138044089 140252026
L137966196 140096240
L137888302 139784666
L137888302 139550986
L137966196 139239413
L138044089 139083626
L138199876 138927840
L138433556 138849946
L138589342 138849946
L138823022 138927840
L138900916 139005733
" />
<path d="M140536676 140485706
L139991422 139706773
" />
<path d="M139601956 140485706
L139601956 138849946
L140225102 138849946
L140380889 138927840
L140458782 139005733
L140536676 139161520
L140536676 139395200
L140458782 139550986
L140380889 139628880
L140225102 139706773
L139601956 139706773
" />
<path d="M141237716 139628880
L141782969 139628880
" />
<path d="M142016649 140485706
L141237716 140485706
L141237716 138849946
L142016649 138849946
" />
<path d="M142639796 140018346
L143418729 140018346
" />
<path d="M142484009 140485706
L143029262 138849946
L143574516 140485706
" />
<path d="M143886089 138849946
L144820809 138849946
" />
<path d="M144353449 140485706
L144353449 138849946
" />
<path d="M145366062 140485706
L145366062 138849946
" />
<path d="M145911316 138849946
L146456569 140485706
L147001822 138849946
" />
<path d="M147547076 139628880
L148092329 139628880
" />
<path d="M148326009 140485706
L147547076 140485706
L147547076 138849946
L148326009 138849946
" />
<path d="M151208062 140329920
L151130169 140407813
L150896489 140485706
L150740702 140485706
L150507022 140407813
L150351236 140252026
L150273342 140096240
L150195449 139784666
L150195449 139550986
L150273342 139239413
L150351236 139083626
L150507022 138927840
L150740702 138849946
L150896489 138849946
L151130169 138927840
L151208062 139005733
" />
<path d="M152220676 138849946
L152532249 138849946
L152688036 138927840
L152843822 139083626
L152921716 139395200
L152921716 139940453
L152843822 140252026
L152688036 140407813
L152532249 140485706
L152220676 140485706
L152064889 140407813
L151909102 140252026
L151831209 139940453
L151831209 139395200
L151909102 139083626
L152064889 138927840
L152220676 138849946
" />
<path d="M153622756 140485706
L153622756 138849946
L154168009 140018346
L154713262 138849946
L154713262 140485706
" />
<path d="M155492196 140485706
L155492196 138849946
L156037449 140018346
L156582702 138849946
L156582702 140485706
" />
<path d="M157673209 138849946
L157984782 138849946
L158140569 138927840
L158296356 139083626
L158374249 139395200
L158374249 139940453
L158296356 140252026
L158140569 140407813
L157984782 140485706
L157673209 140485706
L157517422 140407813
L157361636 140252026
L157283742 139940453
L157283742 139395200
L157361636 139083626
L157517422 138927840
L157673209 138849946
" />
<path d="M159075289 140485706
L159075289 138849946
L160010009 140485706
L160010009 138849946
" />
<path d="M160711049 140407813
L160944729 140485706
L161334196 140485706
L161489982 140407813
L161567876 140329920
L161645769 140174133
L161645769 140018346
L161567876 139862560
L161489982 139784666
L161334196 139706773
L161022622 139628880
L160866836 139550986
L160788942 139473093
L160711049 139317306
L160711049 139161520
L160788942 139005733
L160866836 138927840
L161022622 138849946
L161412089 138849946
L161645769 138927840
" />
<path d="M163515209 140018346
L164294142 140018346
" />
<path d="M163359422 140485706
L163904676 138849946
L164449929 140485706
" />
<path d="M164761502 138849946
L165696222 138849946
" />
<path d="M165228862 140485706
L165228862 138849946
" />
<path d="M166007796 138849946
L166942516 138849946
" />
<path d="M166475156 140485706
L166475156 138849946
" />
<path d="M168422489 140485706
L167877236 139706773
" />
<path d="M167487769 140485706
L167487769 138849946
L168110916 138849946
L168266702 138927840
L168344596 139005733
L168422489 139161520
L168422489 139395200
L168344596 139550986
L168266702 139628880
L168110916 139706773
L167487769 139706773
" />
<path d="M169123529 140485706
L169123529 138849946
" />
<path d="M170447716 139628880
L170681396 139706773
L170759289 139784666
L170837182 139940453
L170837182 140174133
L170759289 140329920
L170681396 140407813
L170525609 140485706
L169902462 140485706
L169902462 138849946
L170447716 138849946
L170603502 138927840
L170681396 139005733
L170759289 139161520
L170759289 139317306
L170681396 139473093
L170603502 139550986
L170447716 139628880
L169902462 139628880
" />
<path d="M171538222 138849946
L171538222 140174133
L171616116 140329920
L171694009 140407813
L171849796 140485706
L172161369 140485706
L172317156 140407813
L172395049 140329920
L172472942 140174133
L172472942 138849946
" />
<path d="M173018196 138849946
L173952916 138849946
" />
<path d="M173485556 140485706
L173485556 138849946
" />
<path d="M174498169 140485706
L174498169 138849946
" />
<path d="M175588676 138849946
L175900249 138849946
L176056036 138927840
L176211822 139083626
L176289716 139395200
L176289716 139940453
L176211822 140252026
L176056036 140407813
L175900249 140485706
L175588676 140485706
L175432889 140407813
L175277102 140252026
L175199209 139940453
L175199209 139395200
L175277102 139083626
L175432889 138927840
L175588676 138849946
" />
<path d="M176990756 140485706
L176990756 138849946
L177925476 140485706
L177925476 138849946
" />
<path d="M179872809 140407813
L180106489 140485706
L180495956 140485706
L180651742 140407813
L180729636 140329920
L180807529 140174133
L180807529 140018346
L180729636 139862560
L180651742 139784666
L180495956 139706773
L180184382 139628880
L180028596 139550986
L179950702 139473093
L179872809 139317306
L179872809 139161520
L179950702 139005733
L180028596 138927840
L180184382 138849946
L180573849 138849946
L180807529 138927840
" />
<path d="M181508569 140485706
L181508569 138849946
" />
<path d="M181508569 139628880
L182443289 139628880
" />
<path d="M182443289 140485706
L182443289 138849946
" />
<path d="M183144329 140018346
L183923262 140018346
" />
<path d="M182988542 140485706
L183533796 138849946
L184079049 140485706
" />
<path d="M185559022 140485706
L185013769 139706773
" />
<path d="M184624302 140485706
L184624302 138849946
L185247449 138849946
L185403236 138927840
L185481129 139005733
L185559022 139161520
L185559022 139395200
L185481129 139550986
L185403236 139628880
L185247449 139706773
L184624302 139706773
" />
<path d="M186260062 139628880
L186805316 139628880
" />
<path d="M187038996 140485706
L186260062 140485706
L186260062 138849946
L187038996 138849946
" />
<path d="M187740036 139862560
L188986329 139862560
" />
<path d="M189687369 140018346
L190466302 140018346
" />
<path d="M189531582 140485706
L190076836 138849946
L190622089 140485706
" />
<path d="M191946276 140485706
L191167342 140485706
L191167342 138849946
" />
<path d="M192491529 140485706
L192491529 138849946
" />
<path d="M193270462 140485706
L193270462 138849946
" />
<path d="M194205182 140485706
L193504142 139550986
" />
<path d="M194205182 138849946
L193270462 139784666
" />
<path d="M194906222 139628880
L195451476 139628880
" />
<path d="M195685156 140485706
L194906222 140485706
L194906222 138849946
L195685156 138849946
" />
<path d="M198333529 139395200
L198333529 140485706
" />
<path d="M197944062 138772053
L197554596 139940453
L198567209 139940453
" />
<path d="M199190356 140329920
L199268249 140407813
L199190356 140485706
L199112462 140407813
L199190356 140329920
L199190356 140485706
" />
<path d="M200280862 138849946
L200436649 138849946
L200592436 138927840
L200670329 139005733
L200748222 139161520
L200826116 139473093
L200826116 139862560
L200748222 140174133
L200670329 140329920
L200592436 140407813
L200436649 140485706
L200280862 140485706
L200125076 140407813
L200047182 140329920
L199969289 140174133
L199891396 139862560
L199891396 139473093
L199969289 139161520
L200047182 139005733
L200125076 138927840
L200280862 138849946
" />
<path d="M203552382 140485706
L202773449 140485706
L202773449 138849946
" />
<path d="M204097636 140485706
L204097636 138849946
" />
<path d="M205811289 140329920
L205733396 140407813
L205499716 140485706
L205343929 140485706
L205110249 140407813
L204954462 140252026
L204876569 140096240
L204798676 139784666
L204798676 139550986
L204876569 139239413
L204954462 139083626
L205110249 138927840
L205343929 138849946
L205499716 138849946
L205733396 138927840
L205811289 139005733
" />
<path d="M206512329 139628880
L207057582 139628880
" />
<path d="M207291262 140485706
L206512329 140485706
L206512329 138849946
L207291262 138849946
" />
<path d="M207992302 140485706
L207992302 138849946
L208927022 140485706
L208927022 138849946
" />
<path d="M209628062 140407813
L209861742 140485706
L210251209 140485706
L210406996 140407813
L210484889 140329920
L210562782 140174133
L210562782 140018346
L210484889 139862560
L210406996 139784666
L210251209 139706773
L209939636 139628880
L209783849 139550986
L209705956 139473093
L209628062 139317306
L209628062 139161520
L209705956 139005733
L209783849 138927840
L209939636 138849946
L210329102 138849946
L210562782 138927840
" />
<path d="M211263822 139628880
L211809076 139628880
" />
<path d="M212042756 140485706
L211263822 140485706
L211263822 138849946
L212042756 138849946
" />
</g><text x="140881100.000000" y="145643600.000000"
textLength="17165659.000000" font-size="2181013.000000" lengthAdjust="spacingAndGlyphs"
text-anchor="start" opacity="0">DESIGNED BY:</text>
<g class="stroked-text"><desc>DESIGNED BY:</desc>
<path d="M141363022 145565706
L141363022 143929946
L141752489 143929946
L141986169 144007840
L142141956 144163626
L142219849 144319413
L142297742 144630986
L142297742 144864666
L142219849 145176240
L142141956 145332026
L141986169 145487813
L141752489 145565706
L141363022 145565706
" />
<path d="M142998782 144708880
L143544036 144708880
" />
<path d="M143777716 145565706
L142998782 145565706
L142998782 143929946
L143777716 143929946
" />
<path d="M144400862 145487813
L144634542 145565706
L145024009 145565706
L145179796 145487813
L145257689 145409920
L145335582 145254133
L145335582 145098346
L145257689 144942560
L145179796 144864666
L145024009 144786773
L144712436 144708880
L144556649 144630986
L144478756 144553093
L144400862 144397306
L144400862 144241520
L144478756 144085733
L144556649 144007840
L144712436 143929946
L145101902 143929946
L145335582 144007840
" />
<path d="M146036622 145565706
L146036622 143929946
" />
<path d="M147672382 144007840
L147516596 143929946
L147282916 143929946
L147049236 144007840
L146893449 144163626
L146815556 144319413
L146737662 144630986
L146737662 144864666
L146815556 145176240
L146893449 145332026
L147049236 145487813
L147282916 145565706
L147438702 145565706
L147672382 145487813
L147750276 145409920
L147750276 144864666
L147438702 144864666
" />
<path d="M148451316 145565706
L148451316 143929946
L149386036 145565706
L149386036 143929946
" />
<path d="M150164969 144708880
L150710222 144708880
" />
<path d="M150943902 145565706
L150164969 145565706
L150164969 143929946
L150943902 143929946
" />
<path d="M151644942 145565706
L151644942 143929946
L152034409 143929946
L152268089 144007840
L152423876 144163626
L152501769 144319413
L152579662 144630986
L152579662 144864666
L152501769 145176240
L152423876 145332026
L152268089 145487813
L152034409 145565706
L151644942 145565706
" />
<path d="M155072249 144708880
L155305929 144786773
L155383822 144864666
L155461716 145020453
L155461716 145254133
L155383822 145409920
L155305929 145487813
L155150142 145565706
L154526996 145565706
L154526996 143929946
L155072249 143929946
L155228036 144007840
L155305929 144085733
L155383822 144241520
L155383822 144397306
L155305929 144553093
L155228036 144630986
L155072249 144708880
L154526996 144708880
" />
<path d="M156474329 144786773
L156474329 145565706
" />
<path d="M155929076 143929946
L156474329 144786773
L157019582 143929946
" />
<path d="M157564836 145409920
L157642729 145487813
L157564836 145565706
L157486942 145487813
L157564836 145409920
L157564836 145565706
" />
<path d="M157564836 144553093
L157642729 144630986
L157564836 144708880
L157486942 144630986
L157564836 144553093
L157564836 144708880
" />
</g></g>
<g style="fill:#AFAFAF; fill-opacity:0.0; 
stroke:#AFAFAF; stroke-width:32512.000000; stroke-opacity:1; 
stroke-linecap:round; stroke-linejoin:round;">
<g transform="rotate(-90.000000 149898100.000000 84937600.000000)">
<text x="149898100.000000" y="84937600.000000"
textLength="1199751.000000" font-size="498517.000000" lengthAdjust="spacingAndGlyphs"
text-anchor="start" opacity="0">10k</text>
</g>
<g class="stroked-text"><desc>10k</desc>
<path d="M149880295 84631600
L149880295 84845250
" />
<path d="M149880295 84738425
L149506407 84738425
L149559820 84774033
L149595428 84809642
L149613232 84845250
" />
<path d="M149506407 84400145
L149506407 84364537
L149524212 84328928
L149542016 84311124
L149577624 84293320
L149648841 84275516
L149737862 84275516
L149809079 84293320
L149844687 84311124
L149862491 84328928
L149880295 84364537
L149880295 84400145
L149862491 84435754
L149844687 84453558
L149809079 84471362
L149737862 84489166
L149648841 84489166
L149577624 84471362
L149542016 84453558
L149524212 84435754
L149506407 84400145
" />
<path d="M149880295 84115278
L149506407 84115278
" />
<path d="M149737862 84079670
L149880295 83972845
" />
<path d="M149631037 83972845
L149773470 84115278
" />
</g><text x="147485100.000000" y="86144100.000000"
textLength="2214377.000000" font-size="498517.000000" lengthAdjust="spacingAndGlyphs"
text-anchor="start" opacity="0">2N3904</text>
<g class="stroked-text"><desc>2N3904</desc>
<path d="M147577449 85788016
L147595253 85770212
L147630862 85752407
L147719883 85752407
L147755491 85770212
L147773295 85788016
L147791099 85823624
L147791099 85859232
L147773295 85912645
L147559645 86126295
L147791099 86126295
" />
<path d="M147951337 86126295
L147951337 85752407
L148164987 86126295
L148164987 85752407
" />
<path d="M148307421 85752407
L148538875 85752407
L148414246 85894841
L148467659 85894841
L148503267 85912645
L148521071 85930449
L148538875 85966058
L148538875 86055079
L148521071 86090687
L148503267 86108491
L148467659 86126295
L148360833 86126295
L148325225 86108491
L148307421 86090687
" />
<path d="M148716917 86126295
L148788134 86126295
L148823742 86108491
L148841547 86090687
L148877155 86037274
L148894959 85966058
L148894959 85823624
L148877155 85788016
L148859351 85770212
L148823742 85752407
L148752526 85752407
L148716917 85770212
L148699113 85788016
L148681309 85823624
L148681309 85912645
L148699113 85948253
L148716917 85966058
L148752526 85983862
L148823742 85983862
L148859351 85966058
L148877155 85948253
L148894959 85912645
" />
<path d="M149126414 85752407
L149162022 85752407
L149197630 85770212
L149215435 85788016
L149233239 85823624
L149251043 85894841
L149251043 85983862
L149233239 86055079
L149215435 86090687
L149197630 86108491
L149162022 86126295
L149126414 86126295
L149090805 86108491
L149073001 86090687
L149055197 86055079
L149037393 85983862
L149037393 85894841
L149055197 85823624
L149073001 85788016
L149090805 85770212
L149126414 85752407
" />
<path d="M149571518 85877037
L149571518 86126295
" />
<path d="M149482497 85734603
L149393476 86001666
L149624931 86001666
" />
</g><g transform="rotate(-90.000000 147104100.000000 86969600.000000)">
<text x="147104100.000000" y="86969600.000000"
textLength="1110517.000000" font-size="498517.000000" lengthAdjust="spacingAndGlyphs"
text-anchor="start" opacity="0">100</text>
</g>
<g class="stroked-text"><desc>100</desc>
<path d="M147086295 86663600
L147086295 86877250
" />
<path d="M147086295 86770425
L146712407 86770425
L146765820 86806033
L146801428 86841642
L146819232 86877250
" />
<path d="M146712407 86432145
L146712407 86396537
L146730212 86360928
L146748016 86343124
L146783624 86325320
L146854841 86307516
L146943862 86307516
L147015079 86325320
L147050687 86343124
L147068491 86360928
L147086295 86396537
L147086295 86432145
L147068491 86467754
L147050687 86485558
L147015079 86503362
L146943862 86521166
L146854841 86521166
L146783624 86503362
L146748016 86485558
L146730212 86467754
L146712407 86432145
" />
<path d="M146712407 86076061
L146712407 86040453
L146730212 86004845
L146748016 85987040
L146783624 85969236
L146854841 85951432
L146943862 85951432
L147015079 85969236
L147050687 85987040
L147068491 86004845
L147086295 86040453
L147086295 86076061
L147068491 86111670
L147050687 86129474
L147015079 86147278
L146943862 86165082
L146854841 86165082
L146783624 86147278
L146748016 86129474
L146730212 86111670
L146712407 86076061
" />
</g><text x="153250900.000000" y="79748888.000000"
textLength="42266.000000" font-size="498517.000000" lengthAdjust="spacingAndGlyphs"
text-anchor="end" opacity="0"></text>
<g class="stroked-text"><desc></desc>
</g></g>
<g style="fill:#AFAFAF; fill-opacity:0.0; 
stroke:#AFAFAF; stroke-width:101600.000000; stroke-opacity:1; 
stroke-linecap:round; stroke-linejoin:round;">
<path d="M151473100 85597600
L151473100 86309600
" />
<path d="M150622100 85597600
L150622100 86309600
" />
</g>
<g style="fill:#AFAFAF; fill-opacity:1.0; 
stroke:#AFAFAF; stroke-width:1.000000; stroke-opacity:1; 
stroke-linecap:round; stroke-linejoin:round;">
<path style="fill:#AFAFAF; fill-opacity:1.0; 
stroke:#AFAFAF; stroke-width:1.000000; stroke-opacity:1; 
stroke-linecap:round; stroke-linejoin:round;fill-rule:evenodd;"
d="M 151521200.000000,86783900.000000
150571200.000000,86783900.000000
150571200.000000,86283800.000000
151521200.000000,86283800.000000
Z" /> 
<path style="fill:#AFAFAF; fill-opacity:1.0; 
stroke:#AFAFAF; stroke-width:1.000000; stroke-opacity:1; 
stroke-linecap:round; stroke-linejoin:round;fill-rule:evenodd;"
d="M 151521200.000000,85615500.000000
150571200.000000,85615500.000000
150571200.000000,85115400.000000
151521200.000000,85115400.000000
Z" /> 
</g>
<g style="fill:#AFAFAF; fill-opacity:1.0; 
stroke:#AFAFAF; stroke-width:152400.000000; stroke-opacity:1; 
stroke-linecap:round; stroke-linejoin:round;">
</g>
<g style="fill:#AFAFAF; fill-opacity:0.0; 
stroke:#AFAFAF; stroke-width:152400.000000; stroke-opacity:1; 
stroke-linecap:round; stroke-linejoin:round;">
<path d="M149923500 86614000
L147078700 86614000
" />
<path d="M149923500 85293200
L149923500 86614000
" />
<path d="M147078700 86614000
L147078700 85293200
" />
<path d="M147078700 85293200
L149923500 85293200
" />
</g>
<g style="fill:#AFAFAF; fill-opacity:0.0; 
stroke:#AFAFAF; stroke-width:101600.000000; stroke-opacity:1; 
stroke-linecap:round; stroke-linejoin:round;">
<path d="M146380100 86309600
L146380100 85597600
" />
<path d="M145529100 86309600
L145529100 85597600
" />
</g>
<g style="fill:#AFAFAF; fill-opacity:1.0; 
stroke:#AFAFAF; stroke-width:1.000000; stroke-opacity:1; 
stroke-linecap:round; stroke-linejoin:round;">
<path style="fill:#AFAFAF; fill-opacity:1.0; 
stroke:#AFAFAF; stroke-width:1.000000; stroke-opacity:1; 
stroke-linecap:round; stroke-linejoin:round;fill-rule:evenodd;"
d="M 146431000.000000,86791800.000000
145481000.000000,86791800.000000
145481000.000000,86291700.000000
146431000.000000,86291700.000000
Z" /> 
<path style="fill:#AFAFAF; fill-opacity:1.0; 
stroke:#AFAFAF; stroke-width:1.000000; stroke-opacity:1; 
stroke-linecap:round; stroke-linejoin:round;fill-rule:evenodd;"
d="M 146431000.000000,85623400.000000
145481000.000000,85623400.000000
145481000.000000,85123300.000000
146431000.000000,85123300.000000
Z" /> 
</g>
<g style="fill:#AFAFAF; fill-opacity:1.0; 
stroke:#AFAFAF; stroke-width:203200.000000; stroke-opacity:1; 
stroke-linecap:round; stroke-linejoin:round;">
</g>
<g style="fill:#AFAFAF; fill-opacity:0.0; 
stroke:#AFAFAF; stroke-width:203200.000000; stroke-opacity:1; 
stroke-linecap:round; stroke-linejoin:round;">
<path d="M142280900 80255000
L142680900 80255000
" />
<path d="M154680900 75755000
L154280900 75755000
" />
<path d="M154680900 76755000
L154680900 75755000
" />
<path d="M154280900 76755000
L154680900 76755000
" />
<path d="M142680900 81255000
L142280900 81255000
" />
<path d="M142280900 81255000
L142280900 80255000
" />
</g>
<g style="fill:#AFAFAF; fill-opacity:0.0; 
stroke:#AFAFAF; stroke-width:1000.000000; stroke-opacity:1; 
stroke-linecap:round; stroke-linejoin:round;">
<circle cx="151980900.000000" cy="78105000.000000" r="425000.000000" /> 
<circle cx="148480900.000000" cy="78105000.000000" r="425000.000000" /> 
<circle cx="144980900.000000" cy="78105000.000000" r="425000.000000" /> 
<g >
</g>
<g >
</g>
<g >
</g>
<g >
</g>
<g >
</g>
<g >
</g>
<g >
</g>
<g >
</g>
<g >
</g>
<g >
</g>
<g >
</g>
<g >
</g>
<g >
</g>
<g >
</g>
<g >
</g>
<g >
</g>
</g>
<g style="fill:#000000; fill-opacity:0.0; 
stroke:#000000; stroke-width:1000.000000; stroke-opacity:1; 
stroke-linecap:round; stroke-linejoin:round;">
</g>
<g style="fill:#D0D2CD; fill-opacity:0.0; 
stroke:#D0D2CD; stroke-width:1000.000000; stroke-opacity:1; 
stroke-linecap:round; stroke-linejoin:round;">
</g>
<g style="fill:#D0D2CD; fill-opacity:0.0; 
stroke:#D0D2CD; stroke-width:203200.000000; stroke-opacity:1; 
stroke-linecap:round; stroke-linejoin:round;">
<path d="M157391100 135483600
L154851100 135483600
" />
<path d="M159931100.000000 77063600.000000 A2540000.000000 2540000.000000 0.0 0 0 157391100.000000 74523600.000000" />
<path d="M142151100 135483600
L144691100 127863600
" />
<path d="M152311100.000000 91033600.000000 A1270000.000000 1270000.000000 0.0 0 0 151041100.000000 89763600.000000" />
<path d="M145961100 89763600
L151041100 89763600
" />
<path d="M137071100 77063600
L137071100 127863600
" />
<path d="M144691100 127863600
L144691100 91033600
" />
<path d="M159931100 77063600
L159931100 127863600
" />
<path d="M145961100.000000 89763600.000000 A1270000.000000 1270000.000000 0.0 0 0 144691100.000000 91033600.000000" />
<path d="M137071100 127863600
L139611100 135483600
" />
<path d="M152311100 127863600
L152311100 91033600
" />
<path d="M159931100 127863600
L157391100 135483600
" />
<path d="M139611100 74523600
L157391100 74523600
" />
<path d="M154851100 135483600
L152311100 127863600
" />
<path d="M139611100.000000 74523600.000000 A2540000.000000 2540000.000000 0.0 0 0 137071100.000000 77063600.000000" />
<path d="M139611100 135483600
L142151100 135483600
" />
<g >
</g>
<g >
</g>
<g >
</g>
<g >
</g>
<g >
</g>
<g >
</g>
<g >
</g>
<g >
</g>
<g >
</g>
<g >
</g>
<g >
</g>
<g >
</g>
<g >
</g>
<g >
</g>
<g >
</g>
<g >
</g>
</g> 
</svg>
