<!DOCTYPE svg PUBLIC "-//W3C//DTD SVG 1.1//EN" "http://www.w3.org/Graphics/SVG/1.1/DTD/svg11.dtd">
<svg xmlns="http://www.w3.org/2000/svg" version="1.1" width="40.1mm" height="22.32mm" viewBox="12845110.0 9384360.0 4010000.0 2232000.0">
            <title>Picture generated by PcbDraw </title>
            <desc>Picture generated by PcbDraw</desc>
        <defs><clipPath id="cut-off"><path d=" M 16755110.0 11516360.0 L 16755110.0 9484360.0 L 12945110.0 9484360.0 L 12945110.0 11516360.0 L 16755110.0 11516360.0 " style="fill-rule: evenodd;"/></clipPath><mask id="pads-mask"><g style="fill:#ffffff; fill-opacity:0.0;  stroke:#ffffff; stroke-width:0.000000; stroke-opacity:1;  stroke-linecap:round; stroke-linejoin:round;">
<g style="fill:#ffffff; fill-opacity:1.0;  stroke:#ffffff; stroke-width:0.100000; stroke-opacity:1;  stroke-linecap:round; stroke-linejoin:round;">
<circle cx="16501110.000000" cy="9738360.000000" r="165100.000000"/> 
</g>
<g style="fill:#ffffff; fill-opacity:1.0;  stroke:#ffffff; stroke-width:0.100000; stroke-opacity:1;  stroke-linecap:round; stroke-linejoin:round;">
<circle cx="14723110.000000" cy="9865360.000000" r="104140.000000"/> 
</g>
<g style="fill:#ffffff; fill-opacity:1.0;  stroke:#ffffff; stroke-width:0.100000; stroke-opacity:1;  stroke-linecap:round; stroke-linejoin:round;">
<circle cx="14850110.000000" cy="9674860.000000" r="104140.000000"/> 
</g>
<g style="fill:#ffffff; fill-opacity:1.0;  stroke:#ffffff; stroke-width:0.100000; stroke-opacity:1;  stroke-linecap:round; stroke-linejoin:round;">
<circle cx="14977110.000000" cy="9865360.000000" r="104140.000000"/> 
</g>
<g style="fill:#ffffff; fill-opacity:1.0;  stroke:#ffffff; stroke-width:0.100000; stroke-opacity:1;  stroke-linecap:round; stroke-linejoin:round;">
<path style="fill:#ffffff; fill-opacity:1.0;  stroke:#ffffff; stroke-width:0.100000; stroke-opacity:1;  stroke-linecap:round; stroke-linejoin:round;fill-rule:evenodd;" d="M 14491970.000000,10661880.000000 14492743.400000,10657991.900000 14494945.800000,10654695.800000 14498241.900000,10652493.400000 14502130.000000,10651720.000000 14690090.000000,10651720.000000 14693978.100000,10652493.400000 14697274.200000,10654695.800000 14699476.600000,10657991.900000 14700250.000000,10661880.000000 14700250.000000,10849840.000000 14699476.600000,10853728.100000 14697274.200000,10857024.200000 14693978.100000,10859226.600000 14690090.000000,10860000.000000 14502130.000000,10860000.000000 14498241.900000,10859226.600000 14494945.800000,10857024.200000 14492743.400000,10853728.100000 14491970.000000,10849840.000000 Z"/> 
<circle cx="14850110.000000" cy="10755860.000000" r="104140.000000"/> 
</g>
<g style="fill:#ffffff; fill-opacity:1.0;  stroke:#ffffff; stroke-width:0.100000; stroke-opacity:1;  stroke-linecap:round; stroke-linejoin:round;">
<circle cx="15104110.000000" cy="10755860.000000" r="104140.000000"/> 
</g>
<g style="fill:#ffffff; fill-opacity:1.0;  stroke:#ffffff; stroke-width:0.100000; stroke-opacity:1;  stroke-linecap:round; stroke-linejoin:round;">
<circle cx="13580110.000000" cy="11108360.000000" r="82550.000000"/> 
</g>
<g style="fill:#ffffff; fill-opacity:1.0;  stroke:#ffffff; stroke-width:0.100000; stroke-opacity:1;  stroke-linecap:round; stroke-linejoin:round;">
<circle cx="13580110.000000" cy="10908360.000000" r="82550.000000"/> 
</g>
<g style="fill:#ffffff; fill-opacity:1.0;  stroke:#ffffff; stroke-width:0.100000; stroke-opacity:1;  stroke-linecap:round; stroke-linejoin:round;">
<circle cx="13326110.000000" cy="10119360.000000" r="104140.000000"/> 
</g>
<g style="fill:#ffffff; fill-opacity:1.0;  stroke:#ffffff; stroke-width:0.100000; stroke-opacity:1;  stroke-linecap:round; stroke-linejoin:round;">
<circle cx="13326110.000000" cy="9865360.000000" r="104140.000000"/> 
</g>
<g style="fill:#ffffff; fill-opacity:1.0;  stroke:#ffffff; stroke-width:0.100000; stroke-opacity:1;  stroke-linecap:round; stroke-linejoin:round;">
<circle cx="16120110.000000" cy="10373360.000000" r="104140.000000"/> 
</g>
<g style="fill:#ffffff; fill-opacity:1.0;  stroke:#ffffff; stroke-width:0.100000; stroke-opacity:1;  stroke-linecap:round; stroke-linejoin:round;">
<circle cx="16120110.000000" cy="10627360.000000" r="104140.000000"/> 
</g>
<g style="fill:#ffffff; fill-opacity:1.0;  stroke:#ffffff; stroke-width:0.100000; stroke-opacity:1;  stroke-linecap:round; stroke-linejoin:round;">
<circle cx="13580110.000000" cy="10092360.000000" r="82550.000000"/> 
</g>
<g style="fill:#ffffff; fill-opacity:1.0;  stroke:#ffffff; stroke-width:0.100000; stroke-opacity:1;  stroke-linecap:round; stroke-linejoin:round;">
<circle cx="13580110.000000" cy="9892360.000000" r="82550.000000"/> 
</g>
<g style="fill:#ffffff; fill-opacity:1.0;  stroke:#ffffff; stroke-width:0.100000; stroke-opacity:1;  stroke-linecap:round; stroke-linejoin:round;">
<circle cx="16501110.000000" cy="11262360.000000" r="165100.000000"/> 
</g>
<g style="fill:#ffffff; fill-opacity:1.0;  stroke:#ffffff; stroke-width:0.100000; stroke-opacity:1;  stroke-linecap:round; stroke-linejoin:round;">
<circle cx="13326110.000000" cy="10881360.000000" r="104140.000000"/> 
</g>
<g style="fill:#ffffff; fill-opacity:1.0;  stroke:#ffffff; stroke-width:0.100000; stroke-opacity:1;  stroke-linecap:round; stroke-linejoin:round;">
<circle cx="13326110.000000" cy="11135360.000000" r="104140.000000"/> 
</g>
<g style="fill:#ffffff; fill-opacity:1.0;  stroke:#ffffff; stroke-width:0.100000; stroke-opacity:1;  stroke-linecap:round; stroke-linejoin:round;">
<circle cx="15485110.000000" cy="10881360.000000" r="104140.000000"/> 
</g>
<g style="fill:#ffffff; fill-opacity:1.0;  stroke:#ffffff; stroke-width:0.100000; stroke-opacity:1;  stroke-linecap:round; stroke-linejoin:round;">
<circle cx="15485110.000000" cy="10119360.000000" r="104140.000000"/> 
</g>
<g style="fill:#ffffff; fill-opacity:1.0;  stroke:#ffffff; stroke-width:0.100000; stroke-opacity:1;  stroke-linecap:round; stroke-linejoin:round;">
<circle cx="13961110.000000" cy="10500360.000000" r="165100.000000"/> 
</g>
<g style="fill:#ffffff; fill-opacity:1.0;  stroke:#ffffff; stroke-width:0.100000; stroke-opacity:1;  stroke-linecap:round; stroke-linejoin:round;">
<circle cx="14469110.000000" cy="9738360.000000" r="104140.000000"/> 
</g>
<g style="fill:#ffffff; fill-opacity:1.0;  stroke:#ffffff; stroke-width:0.100000; stroke-opacity:1;  stroke-linecap:round; stroke-linejoin:round;">
<circle cx="15231110.000000" cy="9738360.000000" r="104140.000000"/> 
</g>
</g> 
</mask><mask id="pads-mask-silkscreen"><rect x="12183110.0" y="9452610.0" width="10327301.3" height="4755750.0" fill="white"/><g style="fill:#000000; fill-opacity:0.0;  stroke:#000000; stroke-width:0.000000; stroke-opacity:1;  stroke-linecap:round; stroke-linejoin:round;">
<g style="fill:#000000; fill-opacity:1.0;  stroke:#000000; stroke-width:0.100000; stroke-opacity:1;  stroke-linecap:round; stroke-linejoin:round;">
<circle cx="16501110.000000" cy="9738360.000000" r="165100.000000"/> 
</g>
<g style="fill:#000000; fill-opacity:1.0;  stroke:#000000; stroke-width:0.100000; stroke-opacity:1;  stroke-linecap:round; stroke-linejoin:round;">
<circle cx="14723110.000000" cy="9865360.000000" r="104140.000000"/> 
</g>
<g style="fill:#000000; fill-opacity:1.0;  stroke:#000000; stroke-width:0.100000; stroke-opacity:1;  stroke-linecap:round; stroke-linejoin:round;">
<circle cx="14850110.000000" cy="9674860.000000" r="104140.000000"/> 
</g>
<g style="fill:#000000; fill-opacity:1.0;  stroke:#000000; stroke-width:0.100000; stroke-opacity:1;  stroke-linecap:round; stroke-linejoin:round;">
<circle cx="14977110.000000" cy="9865360.000000" r="104140.000000"/> 
</g>
<g style="fill:#000000; fill-opacity:1.0;  stroke:#000000; stroke-width:0.100000; stroke-opacity:1;  stroke-linecap:round; stroke-linejoin:round;">
<path style="fill:#000000; fill-opacity:1.0;  stroke:#000000; stroke-width:0.100000; stroke-opacity:1;  stroke-linecap:round; stroke-linejoin:round;fill-rule:evenodd;" d="M 14491970.000000,10661880.000000 14492743.400000,10657991.900000 14494945.800000,10654695.800000 14498241.900000,10652493.400000 14502130.000000,10651720.000000 14690090.000000,10651720.000000 14693978.100000,10652493.400000 14697274.200000,10654695.800000 14699476.600000,10657991.900000 14700250.000000,10661880.000000 14700250.000000,10849840.000000 14699476.600000,10853728.100000 14697274.200000,10857024.200000 14693978.100000,10859226.600000 14690090.000000,10860000.000000 14502130.000000,10860000.000000 14498241.900000,10859226.600000 14494945.800000,10857024.200000 14492743.400000,10853728.100000 14491970.000000,10849840.000000 Z"/> 
<circle cx="14850110.000000" cy="10755860.000000" r="104140.000000"/> 
</g>
<g style="fill:#000000; fill-opacity:1.0;  stroke:#000000; stroke-width:0.100000; stroke-opacity:1;  stroke-linecap:round; stroke-linejoin:round;">
<circle cx="15104110.000000" cy="10755860.000000" r="104140.000000"/> 
</g>
<g style="fill:#000000; fill-opacity:1.0;  stroke:#000000; stroke-width:0.100000; stroke-opacity:1;  stroke-linecap:round; stroke-linejoin:round;">
<circle cx="13580110.000000" cy="11108360.000000" r="82550.000000"/> 
</g>
<g style="fill:#000000; fill-opacity:1.0;  stroke:#000000; stroke-width:0.100000; stroke-opacity:1;  stroke-linecap:round; stroke-linejoin:round;">
<circle cx="13580110.000000" cy="10908360.000000" r="82550.000000"/> 
</g>
<g style="fill:#000000; fill-opacity:1.0;  stroke:#000000; stroke-width:0.100000; stroke-opacity:1;  stroke-linecap:round; stroke-linejoin:round;">
<circle cx="13326110.000000" cy="10119360.000000" r="104140.000000"/> 
</g>
<g style="fill:#000000; fill-opacity:1.0;  stroke:#000000; stroke-width:0.100000; stroke-opacity:1;  stroke-linecap:round; stroke-linejoin:round;">
<circle cx="13326110.000000" cy="9865360.000000" r="104140.000000"/> 
</g>
<g style="fill:#000000; fill-opacity:1.0;  stroke:#000000; stroke-width:0.100000; stroke-opacity:1;  stroke-linecap:round; stroke-linejoin:round;">
<circle cx="16120110.000000" cy="10373360.000000" r="104140.000000"/> 
</g>
<g style="fill:#000000; fill-opacity:1.0;  stroke:#000000; stroke-width:0.100000; stroke-opacity:1;  stroke-linecap:round; stroke-linejoin:round;">
<circle cx="16120110.000000" cy="10627360.000000" r="104140.000000"/> 
</g>
<g style="fill:#000000; fill-opacity:1.0;  stroke:#000000; stroke-width:0.100000; stroke-opacity:1;  stroke-linecap:round; stroke-linejoin:round;">
<circle cx="13580110.000000" cy="10092360.000000" r="82550.000000"/> 
</g>
<g style="fill:#000000; fill-opacity:1.0;  stroke:#000000; stroke-width:0.100000; stroke-opacity:1;  stroke-linecap:round; stroke-linejoin:round;">
<circle cx="13580110.000000" cy="9892360.000000" r="82550.000000"/> 
</g>
<g style="fill:#000000; fill-opacity:1.0;  stroke:#000000; stroke-width:0.100000; stroke-opacity:1;  stroke-linecap:round; stroke-linejoin:round;">
<circle cx="16501110.000000" cy="11262360.000000" r="165100.000000"/> 
</g>
<g style="fill:#000000; fill-opacity:1.0;  stroke:#000000; stroke-width:0.100000; stroke-opacity:1;  stroke-linecap:round; stroke-linejoin:round;">
<circle cx="13326110.000000" cy="10881360.000000" r="104140.000000"/> 
</g>
<g style="fill:#000000; fill-opacity:1.0;  stroke:#000000; stroke-width:0.100000; stroke-opacity:1;  stroke-linecap:round; stroke-linejoin:round;">
<circle cx="13326110.000000" cy="11135360.000000" r="104140.000000"/> 
</g>
<g style="fill:#000000; fill-opacity:1.0;  stroke:#000000; stroke-width:0.100000; stroke-opacity:1;  stroke-linecap:round; stroke-linejoin:round;">
<circle cx="15485110.000000" cy="10881360.000000" r="104140.000000"/> 
</g>
<g style="fill:#000000; fill-opacity:1.0;  stroke:#000000; stroke-width:0.100000; stroke-opacity:1;  stroke-linecap:round; stroke-linejoin:round;">
<circle cx="15485110.000000" cy="10119360.000000" r="104140.000000"/> 
</g>
<g style="fill:#000000; fill-opacity:1.0;  stroke:#000000; stroke-width:0.100000; stroke-opacity:1;  stroke-linecap:round; stroke-linejoin:round;">
<circle cx="13961110.000000" cy="10500360.000000" r="165100.000000"/> 
</g>
<g style="fill:#000000; fill-opacity:1.0;  stroke:#000000; stroke-width:0.100000; stroke-opacity:1;  stroke-linecap:round; stroke-linejoin:round;">
<circle cx="14469110.000000" cy="9738360.000000" r="104140.000000"/> 
</g>
<g style="fill:#000000; fill-opacity:1.0;  stroke:#000000; stroke-width:0.100000; stroke-opacity:1;  stroke-linecap:round; stroke-linejoin:round;">
<circle cx="15231110.000000" cy="9738360.000000" r="104140.000000"/> 
</g>
</g> 
</mask><mask id="hole-mask"><g><rect x="12183110.0" y="9452610.0" fill="white" width="10327301.3" height="4755750.0"/><polyline stroke-linecap="round" stroke="black" stroke-width="330200.0" points="-0.0 0 0.0 0" transform="translate(16501110.0 9738360.0) rotate(-0.0)"/><polyline stroke-linecap="round" stroke="black" stroke-width="81280.0" points="-0.0 0 0.0 0" transform="translate(14723110.0 9865360.0) rotate(-0.0)"/><polyline stroke-linecap="round" stroke="black" stroke-width="81280.0" points="-0.0 0 0.0 0" transform="translate(14850110.0 9674860.0) rotate(-0.0)"/><polyline stroke-linecap="round" stroke="black" stroke-width="81280.0" points="-0.0 0 0.0 0" transform="translate(14977110.0 9865360.0) rotate(-0.0)"/><polyline stroke-linecap="round" stroke="black" stroke-width="101600.0" points="-0.0 0 0.0 0" transform="translate(14596110.0 10755860.0) rotate(-0.0)"/><polyline stroke-linecap="round" stroke="black" stroke-width="101600.0" points="-0.0 0 0.0 0" transform="translate(14850110.0 10755860.0) rotate(-0.0)"/><polyline stroke-linecap="round" stroke="black" stroke-width="101600.0" points="-0.0 0 0.0 0" transform="translate(15104110.0 10755860.0) rotate(-0.0)"/><polyline stroke-linecap="round" stroke="black" stroke-width="70000.0" points="-0.0 0 0.0 0" transform="translate(13580110.0 11108360.0) rotate(-90.0)"/><polyline stroke-linecap="round" stroke="black" stroke-width="70000.0" points="-0.0 0 0.0 0" transform="translate(13580110.0 10908360.0) rotate(-90.0)"/><polyline stroke-linecap="round" stroke="black" stroke-width="101600.0" points="-0.0 0 0.0 0" transform="translate(13326110.0 10119360.0) rotate(-180.0)"/><polyline stroke-linecap="round" stroke="black" stroke-width="101600.0" points="-0.0 0 0.0 0" transform="translate(13326110.0 9865360.0) rotate(-180.0)"/><polyline stroke-linecap="round" stroke="black" stroke-width="81280.0" points="-0.0 0 0.0 0" transform="translate(16120110.0 10373360.0) rotate(-270.0)"/><polyline stroke-linecap="round" stroke="black" stroke-width="81280.0" points="-0.0 0 0.0 0" transform="translate(16120110.0 10627360.0) rotate(-270.0)"/><polyline stroke-linecap="round" stroke="black" stroke-width="70000.0" points="-0.0 0 0.0 0" transform="translate(13580110.0 10092360.0) rotate(-90.0)"/><polyline stroke-linecap="round" stroke="black" stroke-width="70000.0" points="-0.0 0 0.0 0" transform="translate(13580110.0 9892360.0) rotate(-90.0)"/><polyline stroke-linecap="round" stroke="black" stroke-width="330200.0" points="-0.0 0 0.0 0" transform="translate(16501110.0 11262360.0) rotate(-0.0)"/><polyline stroke-linecap="round" stroke="black" stroke-width="101600.0" points="-0.0 0 0.0 0" transform="translate(13326110.0 10881360.0) rotate(-0.0)"/><polyline stroke-linecap="round" stroke="black" stroke-width="101600.0" points="-0.0 0 0.0 0" transform="translate(13326110.0 11135360.0) rotate(-0.0)"/><polyline stroke-linecap="round" stroke="black" stroke-width="90000.0" points="-0.0 0 0.0 0" transform="translate(15485110.0 10881360.0) rotate(-90.0)"/><polyline stroke-linecap="round" stroke="black" stroke-width="90000.0" points="-0.0 0 0.0 0" transform="translate(15485110.0 10119360.0) rotate(-90.0)"/><polyline stroke-linecap="round" stroke="black" stroke-width="330200.0" points="-0.0 0 0.0 0" transform="translate(13961110.0 10500360.0) rotate(-0.0)"/><polyline stroke-linecap="round" stroke="black" stroke-width="101600.0" points="-0.0 0 0.0 0" transform="translate(14469110.0 9738360.0) rotate(-90.0)"/><polyline stroke-linecap="round" stroke="black" stroke-width="101600.0" points="-0.0 0 0.0 0" transform="translate(15231110.0 9738360.0) rotate(-90.0)"/></g></mask></defs><g transform="" id="boardContainer"><g id="substrate" clip-path="url(#cut-off)" mask="url(#hole-mask)"><g id="substrate-board" style="fill:#4ca06c; stroke:#4ca06c;"><path d=" M 16755110.0 11516360.0 L 16755110.0 9484360.0 L 12945110.0 9484360.0 L 12945110.0 11516360.0 L 16755110.0 11516360.0 " style="fill-rule: evenodd;"/><g style="fill-opacity: 0.0;stroke-width: 20320.000000;stroke-opacity: 1;stroke-linecap: round;stroke-linejoin: round">
<path d="M12945110 11516360 L16755110 11516360 "/>
<path d="M16755110 9484360 L12945110 9484360 "/>
<path d="M16755110 11516360 L16755110 9484360 "/>
<path d="M12945110 9484360 L12945110 11516360 "/>
</g> 
</g><g id="substrate-clad" style="fill:#9c6b28; stroke:#9c6b28;"><g style="fill-opacity: 0.0;stroke-width: 0.000000;stroke-opacity: 1;stroke-linecap: round;stroke-linejoin: round">
<g style="fill-opacity: 1.0;stroke-width: 0.100000;stroke-opacity: 1;stroke-linecap: round;stroke-linejoin: round">
<circle cx="16501110.000000" cy="9738360.000000" r="165100.000000"/> 
</g>
<g style="fill-opacity: 1.0;stroke-width: 0.100000;stroke-opacity: 1;stroke-linecap: round;stroke-linejoin: round">
<circle cx="14723110.000000" cy="9865360.000000" r="104140.000000"/> 
</g>
<g style="fill-opacity: 1.0;stroke-width: 0.100000;stroke-opacity: 1;stroke-linecap: round;stroke-linejoin: round">
<circle cx="14850110.000000" cy="9674860.000000" r="104140.000000"/> 
</g>
<g style="fill-opacity: 1.0;stroke-width: 0.100000;stroke-opacity: 1;stroke-linecap: round;stroke-linejoin: round">
<circle cx="14977110.000000" cy="9865360.000000" r="104140.000000"/> 
</g>
<g style="fill-opacity: 1.0;stroke-width: 0.100000;stroke-opacity: 1;stroke-linecap: round;stroke-linejoin: round">
<path style="fill-opacity: 1.0;stroke-width: 0.100000;stroke-opacity: 1;stroke-linecap: round;stroke-linejoin: round;fill-rule: evenodd" d="M 14491970.000000,10661880.000000 14492743.400000,10657991.900000 14494945.800000,10654695.800000 14498241.900000,10652493.400000 14502130.000000,10651720.000000 14690090.000000,10651720.000000 14693978.100000,10652493.400000 14697274.200000,10654695.800000 14699476.600000,10657991.900000 14700250.000000,10661880.000000 14700250.000000,10849840.000000 14699476.600000,10853728.100000 14697274.200000,10857024.200000 14693978.100000,10859226.600000 14690090.000000,10860000.000000 14502130.000000,10860000.000000 14498241.900000,10859226.600000 14494945.800000,10857024.200000 14492743.400000,10853728.100000 14491970.000000,10849840.000000 Z"/> 
<circle cx="14850110.000000" cy="10755860.000000" r="104140.000000"/> 
</g>
<g style="fill-opacity: 1.0;stroke-width: 0.100000;stroke-opacity: 1;stroke-linecap: round;stroke-linejoin: round">
<circle cx="15104110.000000" cy="10755860.000000" r="104140.000000"/> 
</g>
<g style="fill-opacity: 1.0;stroke-width: 0.100000;stroke-opacity: 1;stroke-linecap: round;stroke-linejoin: round">
<circle cx="13580110.000000" cy="11108360.000000" r="82550.000000"/> 
</g>
<g style="fill-opacity: 1.0;stroke-width: 0.100000;stroke-opacity: 1;stroke-linecap: round;stroke-linejoin: round">
<circle cx="13580110.000000" cy="10908360.000000" r="82550.000000"/> 
</g>
<g style="fill-opacity: 1.0;stroke-width: 0.100000;stroke-opacity: 1;stroke-linecap: round;stroke-linejoin: round">
<circle cx="13326110.000000" cy="10119360.000000" r="104140.000000"/> 
</g>
<g style="fill-opacity: 1.0;stroke-width: 0.100000;stroke-opacity: 1;stroke-linecap: round;stroke-linejoin: round">
<circle cx="13326110.000000" cy="9865360.000000" r="104140.000000"/> 
</g>
<g style="fill-opacity: 1.0;stroke-width: 0.100000;stroke-opacity: 1;stroke-linecap: round;stroke-linejoin: round">
<circle cx="16120110.000000" cy="10373360.000000" r="104140.000000"/> 
</g>
<g style="fill-opacity: 1.0;stroke-width: 0.100000;stroke-opacity: 1;stroke-linecap: round;stroke-linejoin: round">
<circle cx="16120110.000000" cy="10627360.000000" r="104140.000000"/> 
</g>
<g style="fill-opacity: 1.0;stroke-width: 0.100000;stroke-opacity: 1;stroke-linecap: round;stroke-linejoin: round">
<circle cx="13580110.000000" cy="10092360.000000" r="82550.000000"/> 
</g>
<g style="fill-opacity: 1.0;stroke-width: 0.100000;stroke-opacity: 1;stroke-linecap: round;stroke-linejoin: round">
<circle cx="13580110.000000" cy="9892360.000000" r="82550.000000"/> 
</g>
<g style="fill-opacity: 1.0;stroke-width: 0.100000;stroke-opacity: 1;stroke-linecap: round;stroke-linejoin: round">
<circle cx="16501110.000000" cy="11262360.000000" r="165100.000000"/> 
</g>
<g style="fill-opacity: 1.0;stroke-width: 0.100000;stroke-opacity: 1;stroke-linecap: round;stroke-linejoin: round">
<circle cx="13326110.000000" cy="10881360.000000" r="104140.000000"/> 
</g>
<g style="fill-opacity: 1.0;stroke-width: 0.100000;stroke-opacity: 1;stroke-linecap: round;stroke-linejoin: round">
<circle cx="13326110.000000" cy="11135360.000000" r="104140.000000"/> 
</g>
<g style="fill-opacity: 1.0;stroke-width: 0.100000;stroke-opacity: 1;stroke-linecap: round;stroke-linejoin: round">
<circle cx="15485110.000000" cy="10881360.000000" r="104140.000000"/> 
</g>
<g style="fill-opacity: 1.0;stroke-width: 0.100000;stroke-opacity: 1;stroke-linecap: round;stroke-linejoin: round">
<circle cx="15485110.000000" cy="10119360.000000" r="104140.000000"/> 
</g>
<g style="fill-opacity: 1.0;stroke-width: 0.100000;stroke-opacity: 1;stroke-linecap: round;stroke-linejoin: round">
<circle cx="13961110.000000" cy="10500360.000000" r="165100.000000"/> 
</g>
<g style="fill-opacity: 1.0;stroke-width: 0.100000;stroke-opacity: 1;stroke-linecap: round;stroke-linejoin: round">
<circle cx="14469110.000000" cy="9738360.000000" r="104140.000000"/> 
</g>
<g style="fill-opacity: 1.0;stroke-width: 0.100000;stroke-opacity: 1;stroke-linecap: round;stroke-linejoin: round">
<circle cx="15231110.000000" cy="9738360.000000" r="104140.000000"/> 
</g>
</g> 
</g><g id="substrate-copper" style="fill:#417e5a; stroke:#417e5a;"><g style="fill-opacity: 0.0;stroke-width: 0.000000;stroke-opacity: 1;stroke-linecap: round;stroke-linejoin: round">
<g style="fill-opacity: 1.0;stroke-width: 0.100000;stroke-opacity: 1;stroke-linecap: round;stroke-linejoin: round">
<circle cx="14723110.000000" cy="9865360.000000" r="93980.000000"/> 
</g>
<g style="fill-opacity: 1.0;stroke-width: 0.100000;stroke-opacity: 1;stroke-linecap: round;stroke-linejoin: round">
<circle cx="14850110.000000" cy="9674860.000000" r="93980.000000"/> 
</g>
<g style="fill-opacity: 1.0;stroke-width: 0.100000;stroke-opacity: 1;stroke-linecap: round;stroke-linejoin: round">
<circle cx="14977110.000000" cy="9865360.000000" r="93980.000000"/> 
</g>
<g style="fill-opacity: 1.0;stroke-width: 0.100000;stroke-opacity: 1;stroke-linecap: round;stroke-linejoin: round">
<path style="fill-opacity: 1.0;stroke-width: 0.100000;stroke-opacity: 1;stroke-linecap: round;stroke-linejoin: round;fill-rule: evenodd" d="M 14502130.000000,10849840.000000 14502130.000000,10661880.000000 14690090.000000,10661880.000000 14690090.000000,10849840.000000 Z"/> 
<circle cx="14850110.000000" cy="10755860.000000" r="93980.000000"/> 
</g>
<g style="fill-opacity: 1.0;stroke-width: 0.100000;stroke-opacity: 1;stroke-linecap: round;stroke-linejoin: round">
<circle cx="15104110.000000" cy="10755860.000000" r="93980.000000"/> 
</g>
<g style="fill-opacity: 1.0;stroke-width: 0.100000;stroke-opacity: 1;stroke-linecap: round;stroke-linejoin: round">
<circle cx="13580110.000000" cy="11108360.000000" r="72390.000000"/> 
</g>
<g style="fill-opacity: 1.0;stroke-width: 0.100000;stroke-opacity: 1;stroke-linecap: round;stroke-linejoin: round">
<circle cx="13580110.000000" cy="10908360.000000" r="72390.000000"/> 
</g>
<g style="fill-opacity: 1.0;stroke-width: 0.100000;stroke-opacity: 1;stroke-linecap: round;stroke-linejoin: round">
<circle cx="13326110.000000" cy="10119360.000000" r="93980.000000"/> 
</g>
<g style="fill-opacity: 1.0;stroke-width: 0.100000;stroke-opacity: 1;stroke-linecap: round;stroke-linejoin: round">
<circle cx="13326110.000000" cy="9865360.000000" r="93980.000000"/> 
</g>
<g style="fill-opacity: 1.0;stroke-width: 0.100000;stroke-opacity: 1;stroke-linecap: round;stroke-linejoin: round">
<circle cx="16120110.000000" cy="10373360.000000" r="93980.000000"/> 
</g>
<g style="fill-opacity: 1.0;stroke-width: 0.100000;stroke-opacity: 1;stroke-linecap: round;stroke-linejoin: round">
<circle cx="16120110.000000" cy="10627360.000000" r="93980.000000"/> 
</g>
<g style="fill-opacity: 1.0;stroke-width: 0.100000;stroke-opacity: 1;stroke-linecap: round;stroke-linejoin: round">
<circle cx="13580110.000000" cy="10092360.000000" r="72390.000000"/> 
</g>
<g style="fill-opacity: 1.0;stroke-width: 0.100000;stroke-opacity: 1;stroke-linecap: round;stroke-linejoin: round">
<circle cx="13580110.000000" cy="9892360.000000" r="72390.000000"/> 
</g>
<g style="fill-opacity: 1.0;stroke-width: 0.100000;stroke-opacity: 1;stroke-linecap: round;stroke-linejoin: round">
<circle cx="13326110.000000" cy="10881360.000000" r="93980.000000"/> 
</g>
<g style="fill-opacity: 1.0;stroke-width: 0.100000;stroke-opacity: 1;stroke-linecap: round;stroke-linejoin: round">
<circle cx="13326110.000000" cy="11135360.000000" r="93980.000000"/> 
</g>
<g style="fill-opacity: 1.0;stroke-width: 0.100000;stroke-opacity: 1;stroke-linecap: round;stroke-linejoin: round">
<circle cx="15485110.000000" cy="10881360.000000" r="93980.000000"/> 
</g>
<g style="fill-opacity: 1.0;stroke-width: 0.100000;stroke-opacity: 1;stroke-linecap: round;stroke-linejoin: round">
<circle cx="15485110.000000" cy="10119360.000000" r="93980.000000"/> 
</g>
<g style="fill-opacity: 1.0;stroke-width: 0.100000;stroke-opacity: 1;stroke-linecap: round;stroke-linejoin: round">
<circle cx="14469110.000000" cy="9738360.000000" r="93980.000000"/> 
</g>
<g style="fill-opacity: 1.0;stroke-width: 0.100000;stroke-opacity: 1;stroke-linecap: round;stroke-linejoin: round">
<circle cx="15231110.000000" cy="9738360.000000" r="93980.000000"/> 
</g>
<g style="fill-opacity: 0.0;stroke-width: 40640.000000;stroke-opacity: 1;stroke-linecap: round;stroke-linejoin: round">
<path d="M14596110 10881360 L14723110 11008360 "/>
<path d="M13353110 9892360 L13326110 9865360 "/>
<path d="M13326110 10881360 L13353110 10908360 "/>
<path d="M15358110 11008360 L15485110 10881360 "/>
<path d="M13580110 10908360 L14188110 10908360 "/>
<path d="M14596110 10755860 L14596110 10881360 "/>
<path d="M14723110 11008360 L15358110 11008360 "/>
<path d="M14188110 10908360 L14342110 10754360 "/>
<path d="M14596110 10119360 L14369110 9892360 "/>
<path d="M13353110 10908360 L13580110 10908360 "/>
<path d="M14369110 9892360 L13580110 9892360 "/>
<path d="M13580110 9892360 L13353110 9892360 "/>
<path d="M14596110 10755860 L14596110 10119360 "/>
<path d="M14594610 10754360 L14596110 10755860 "/>
<path d="M14342110 10754360 L14594610 10754360 "/>
<path d="M14850110 10119360 L14723110 9992360 "/>
<path d="M14723110 9992360 L14723110 9865360 "/>
<path d="M14723110 9865360 L14596110 9865360 "/>
<path d="M14596110 9865360 L14469110 9738360 "/>
<path d="M14850110 10755860 L14850110 10119360 "/>
<path d="M15485110 10119360 L15485110 10246360 "/>
<path d="M15612110 10373360 L16120110 10373360 "/>
<path d="M14977110 9992360 L14977110 9865360 "/>
<path d="M15485110 10246360 L15612110 10373360 "/>
<path d="M15104110 10119360 L14977110 9992360 "/>
<path d="M15104110 10119360 L15485110 10119360 "/>
</g>
</g> 
</g><g id="substrate-pads" style="fill:#b5ae30; stroke:#b5ae30;" mask="url(#pads-mask)"><g style="fill-opacity: 0.0;stroke-width: 0.000000;stroke-opacity: 1;stroke-linecap: round;stroke-linejoin: round">
<g style="fill-opacity: 1.0;stroke-width: 0.100000;stroke-opacity: 1;stroke-linecap: round;stroke-linejoin: round">
<circle cx="14723110.000000" cy="9865360.000000" r="93980.000000"/> 
</g>
<g style="fill-opacity: 1.0;stroke-width: 0.100000;stroke-opacity: 1;stroke-linecap: round;stroke-linejoin: round">
<circle cx="14850110.000000" cy="9674860.000000" r="93980.000000"/> 
</g>
<g style="fill-opacity: 1.0;stroke-width: 0.100000;stroke-opacity: 1;stroke-linecap: round;stroke-linejoin: round">
<circle cx="14977110.000000" cy="9865360.000000" r="93980.000000"/> 
</g>
<g style="fill-opacity: 1.0;stroke-width: 0.100000;stroke-opacity: 1;stroke-linecap: round;stroke-linejoin: round">
<path style="fill-opacity: 1.0;stroke-width: 0.100000;stroke-opacity: 1;stroke-linecap: round;stroke-linejoin: round;fill-rule: evenodd" d="M 14502130.000000,10849840.000000 14502130.000000,10661880.000000 14690090.000000,10661880.000000 14690090.000000,10849840.000000 Z"/> 
<circle cx="14850110.000000" cy="10755860.000000" r="93980.000000"/> 
</g>
<g style="fill-opacity: 1.0;stroke-width: 0.100000;stroke-opacity: 1;stroke-linecap: round;stroke-linejoin: round">
<circle cx="15104110.000000" cy="10755860.000000" r="93980.000000"/> 
</g>
<g style="fill-opacity: 1.0;stroke-width: 0.100000;stroke-opacity: 1;stroke-linecap: round;stroke-linejoin: round">
<circle cx="13580110.000000" cy="11108360.000000" r="72390.000000"/> 
</g>
<g style="fill-opacity: 1.0;stroke-width: 0.100000;stroke-opacity: 1;stroke-linecap: round;stroke-linejoin: round">
<circle cx="13580110.000000" cy="10908360.000000" r="72390.000000"/> 
</g>
<g style="fill-opacity: 1.0;stroke-width: 0.100000;stroke-opacity: 1;stroke-linecap: round;stroke-linejoin: round">
<circle cx="13326110.000000" cy="10119360.000000" r="93980.000000"/> 
</g>
<g style="fill-opacity: 1.0;stroke-width: 0.100000;stroke-opacity: 1;stroke-linecap: round;stroke-linejoin: round">
<circle cx="13326110.000000" cy="9865360.000000" r="93980.000000"/> 
</g>
<g style="fill-opacity: 1.0;stroke-width: 0.100000;stroke-opacity: 1;stroke-linecap: round;stroke-linejoin: round">
<circle cx="16120110.000000" cy="10373360.000000" r="93980.000000"/> 
</g>
<g style="fill-opacity: 1.0;stroke-width: 0.100000;stroke-opacity: 1;stroke-linecap: round;stroke-linejoin: round">
<circle cx="16120110.000000" cy="10627360.000000" r="93980.000000"/> 
</g>
<g style="fill-opacity: 1.0;stroke-width: 0.100000;stroke-opacity: 1;stroke-linecap: round;stroke-linejoin: round">
<circle cx="13580110.000000" cy="10092360.000000" r="72390.000000"/> 
</g>
<g style="fill-opacity: 1.0;stroke-width: 0.100000;stroke-opacity: 1;stroke-linecap: round;stroke-linejoin: round">
<circle cx="13580110.000000" cy="9892360.000000" r="72390.000000"/> 
</g>
<g style="fill-opacity: 1.0;stroke-width: 0.100000;stroke-opacity: 1;stroke-linecap: round;stroke-linejoin: round">
<circle cx="13326110.000000" cy="10881360.000000" r="93980.000000"/> 
</g>
<g style="fill-opacity: 1.0;stroke-width: 0.100000;stroke-opacity: 1;stroke-linecap: round;stroke-linejoin: round">
<circle cx="13326110.000000" cy="11135360.000000" r="93980.000000"/> 
</g>
<g style="fill-opacity: 1.0;stroke-width: 0.100000;stroke-opacity: 1;stroke-linecap: round;stroke-linejoin: round">
<circle cx="15485110.000000" cy="10881360.000000" r="93980.000000"/> 
</g>
<g style="fill-opacity: 1.0;stroke-width: 0.100000;stroke-opacity: 1;stroke-linecap: round;stroke-linejoin: round">
<circle cx="15485110.000000" cy="10119360.000000" r="93980.000000"/> 
</g>
<g style="fill-opacity: 1.0;stroke-width: 0.100000;stroke-opacity: 1;stroke-linecap: round;stroke-linejoin: round">
<circle cx="14469110.000000" cy="9738360.000000" r="93980.000000"/> 
</g>
<g style="fill-opacity: 1.0;stroke-width: 0.100000;stroke-opacity: 1;stroke-linecap: round;stroke-linejoin: round">
<circle cx="15231110.000000" cy="9738360.000000" r="93980.000000"/> 
</g>
<g style="fill-opacity: 0.0;stroke-width: 40640.000000;stroke-opacity: 1;stroke-linecap: round;stroke-linejoin: round">
<path d="M14596110 10881360 L14723110 11008360 "/>
<path d="M13353110 9892360 L13326110 9865360 "/>
<path d="M13326110 10881360 L13353110 10908360 "/>
<path d="M15358110 11008360 L15485110 10881360 "/>
<path d="M13580110 10908360 L14188110 10908360 "/>
<path d="M14596110 10755860 L14596110 10881360 "/>
<path d="M14723110 11008360 L15358110 11008360 "/>
<path d="M14188110 10908360 L14342110 10754360 "/>
<path d="M14596110 10119360 L14369110 9892360 "/>
<path d="M13353110 10908360 L13580110 10908360 "/>
<path d="M14369110 9892360 L13580110 9892360 "/>
<path d="M13580110 9892360 L13353110 9892360 "/>
<path d="M14596110 10755860 L14596110 10119360 "/>
<path d="M14594610 10754360 L14596110 10755860 "/>
<path d="M14342110 10754360 L14594610 10754360 "/>
<path d="M14850110 10119360 L14723110 9992360 "/>
<path d="M14723110 9992360 L14723110 9865360 "/>
<path d="M14723110 9865360 L14596110 9865360 "/>
<path d="M14596110 9865360 L14469110 9738360 "/>
<path d="M14850110 10755860 L14850110 10119360 "/>
<path d="M15485110 10119360 L15485110 10246360 "/>
<path d="M15612110 10373360 L16120110 10373360 "/>
<path d="M14977110 9992360 L14977110 9865360 "/>
<path d="M15485110 10246360 L15612110 10373360 "/>
<path d="M15104110 10119360 L14977110 9992360 "/>
<path d="M15104110 10119360 L15485110 10119360 "/>
</g>
</g> 
</g><g id="substrate-silk" style="fill:#f0f0f0; stroke:#f0f0f0;" mask="url(#pads-mask-silkscreen)"><g style="fill-opacity: 0.0;stroke-width: 26670.000000;stroke-opacity: 1;stroke-linecap: round;stroke-linejoin: round">
<g transform="rotate(-90.000000 13923010.000000 9954260.000000)">
<text x="13923010.000000" y="9954260.000000" textLength="187113.400000" font-size="201506.600000" lengthAdjust="spacingAndGlyphs" text-anchor="start" opacity="0">+</text>
</g>
<g class="stroked-text"><desc>+</desc>
<path d="M13858240 9900941 L13858240 9785794 "/>
<path d="M13915813 9843367 L13800666 9843367 "/>
</g></g>
<g style="fill-opacity: 0.0;stroke-width: 19050.000000;stroke-opacity: 1;stroke-linecap: round;stroke-linejoin: round">
<text x="15675610.000000" y="9928860.000000" textLength="574421.000000" font-size="143933.300000" lengthAdjust="spacingAndGlyphs" text-anchor="start" opacity="0">Uh oh!</text>
<g class="stroked-text"><desc>Uh oh!</desc>
<path d="M15713694 9815769 L15713694 9903157 L15718835 9913438 L15723975 9918579 L15734256 9923719 L15754818 9923719 L15765099 9918579 L15770240 9913438 L15775380 9903157 L15775380 9815769 "/>
<path d="M15826785 9923719 L15826785 9815769 "/>
<path d="M15873049 9923719 L15873049 9867174 L15867909 9856893 L15857628 9851752 L15842206 9851752 L15831925 9856893 L15826785 9862033 "/>
<path d="M16022123 9923719 L16011842 9918579 L16006702 9913438 L16001561 9903157 L16001561 9872314 L16006702 9862033 L16011842 9856893 L16022123 9851752 L16037544 9851752 L16047825 9856893 L16052966 9862033 L16058106 9872314 L16058106 9903157 L16052966 9913438 L16047825 9918579 L16037544 9923719 L16022123 9923719 "/>
<path d="M16104371 9923719 L16104371 9815769 "/>
<path d="M16150635 9923719 L16150635 9867174 L16145494 9856893 L16135213 9851752 L16119792 9851752 L16109511 9856893 L16104371 9862033 "/>
<path d="M16202040 9913438 L16207180 9918579 L16202040 9923719 L16196899 9918579 L16202040 9913438 L16202040 9923719 "/>
<path d="M16202040 9882595 L16196899 9820910 L16202040 9815769 L16207180 9820910 L16202040 9882595 L16202040 9815769 "/>
</g><text x="15485110.000000" y="11173460.000000" textLength="312631.700000" font-size="143933.300000" lengthAdjust="spacingAndGlyphs" text-anchor="start" opacity="0">Off:</text>
<g class="stroked-text"><desc>Off:</desc>
<path d="M15543756 11060369 L15564318 11060369 L15574599 11065510 L15584880 11075790 L15590021 11096352 L15590021 11132336 L15584880 11152898 L15574599 11163179 L15564318 11168319 L15543756 11168319 L15533475 11163179 L15523194 11152898 L15518054 11132336 L15518054 11096352 L15523194 11075790 L15533475 11065510 L15543756 11060369 "/>
<path d="M15620863 11096352 L15661987 11096352 "/>
<path d="M15636285 11168319 L15636285 11075790 L15641425 11065510 L15651706 11060369 L15661987 11060369 "/>
<path d="M15682549 11096352 L15723673 11096352 "/>
<path d="M15697971 11168319 L15697971 11075790 L15703111 11065510 L15713392 11060369 L15723673 11060369 "/>
<path d="M15759656 11158038 L15764797 11163179 L15759656 11168319 L15754516 11163179 L15759656 11158038 L15759656 11168319 "/>
<path d="M15759656 11101493 L15764797 11106633 L15759656 11111774 L15754516 11106633 L15759656 11101493 L15759656 11111774 "/>
</g><g transform="rotate(-90.000000 16399510.000000 10665460.000000)">
<text x="16399510.000000" y="10665460.000000" textLength="302350.700000" font-size="143933.300000" lengthAdjust="spacingAndGlyphs" text-anchor="start" opacity="0">Leg</text>
</g>
<g class="stroked-text"><desc>Leg</desc>
<path d="M16394369 10575970 L16394369 10627375 L16286419 10627375 "/>
<path d="M16389229 10498863 L16394369 10509144 L16394369 10529706 L16389229 10539987 L16378948 10545127 L16337824 10545127 L16327543 10539987 L16322402 10529706 L16322402 10509144 L16327543 10498863 L16337824 10493722 L16348105 10493722 L16358386 10545127 "/>
<path d="M16322402 10401194 L16409790 10401194 L16420071 10406334 L16425212 10411475 L16430352 10421756 L16430352 10437177 L16425212 10447458 "/>
<path d="M16389229 10401194 L16394369 10411475 L16394369 10432037 L16389229 10442317 L16384088 10447458 L16373807 10452598 L16342964 10452598 L16332683 10447458 L16327543 10442317 L16322402 10432037 L16322402 10411475 L16327543 10401194 "/>
</g></g>
<g style="fill-opacity: 0.0;stroke-width: 15240.000000;stroke-opacity: 1;stroke-linecap: round;stroke-linejoin: round">
<text x="15955010.000000" y="10246360.000000" textLength="329081.200000" font-size="115146.600000" lengthAdjust="spacingAndGlyphs" text-anchor="start" opacity="0">Long</text>
<g class="stroked-text"><desc>Long</desc>
<path d="M16026601 10242247 L15985477 10242247 L15985477 10155887 "/>
<path d="M16067725 10242247 L16059500 10238135 L16055388 10234022 L16051276 10225798 L16051276 10201123 L16055388 10192899 L16059500 10188786 L16067725 10184674 L16080062 10184674 L16088287 10188786 L16092399 10192899 L16096512 10201123 L16096512 10225798 L16092399 10234022 L16088287 10238135 L16080062 10242247 L16067725 10242247 "/>
<path d="M16133523 10184674 L16133523 10242247 "/>
<path d="M16133523 10192899 L16137636 10188786 L16145860 10184674 L16158197 10184674 L16166422 10188786 L16170535 10197011 L16170535 10242247 "/>
<path d="M16248670 10184674 L16248670 10254584 L16244557 10262809 L16240445 10266921 L16232220 10271034 L16219883 10271034 L16211658 10266921 "/>
<path d="M16248670 10238135 L16240445 10242247 L16223996 10242247 L16215771 10238135 L16211658 10234022 L16207546 10225798 L16207546 10201123 L16211658 10192899 L16215771 10188786 L16223996 10184674 L16240445 10184674 L16248670 10188786 "/>
</g></g>
<g style="fill-opacity: 0.0;stroke-width: 19050.000000;stroke-opacity: 1;stroke-linecap: round;stroke-linejoin: round">
<text x="15485110.000000" y="9738360.000000" textLength="281976.300000" font-size="143933.300000" lengthAdjust="spacingAndGlyphs" text-anchor="start" opacity="0">On:</text>
<g class="stroked-text"><desc>On:</desc>
<path d="M15543756 9625269 L15564318 9625269 L15574599 9630410 L15584880 9640690 L15590021 9661252 L15590021 9697236 L15584880 9717798 L15574599 9728079 L15564318 9733219 L15543756 9733219 L15533475 9728079 L15523194 9717798 L15518054 9697236 L15518054 9661252 L15523194 9640690 L15533475 9630410 L15543756 9625269 "/>
<path d="M15636285 9661252 L15636285 9733219 "/>
<path d="M15636285 9671533 L15641425 9666393 L15651706 9661252 L15667128 9661252 L15677409 9666393 L15682549 9676674 L15682549 9733219 "/>
<path d="M15733954 9722938 L15739094 9728079 L15733954 9733219 L15728813 9728079 L15733954 9722938 L15733954 9733219 "/>
<path d="M15733954 9666393 L15739094 9671533 L15733954 9676674 L15728813 9671533 L15733954 9666393 L15733954 9676674 "/>
</g></g>
<g style="fill-opacity: 0.0;stroke-width: 26670.000000;stroke-opacity: 1;stroke-linecap: round;stroke-linejoin: round">
<g transform="rotate(-90.000000 14177010.000000 11262360.000000)">
<text x="14177010.000000" y="11262360.000000" textLength="485351.700000" font-size="201506.600000" lengthAdjust="spacingAndGlyphs" text-anchor="start" opacity="0">Batt</text>
</g>
<g class="stroked-text"><desc>Batt</desc>
<path d="M14090650 11158664 L14097846 11137074 L14105043 11129877 L14119436 11122681 L14141026 11122681 L14155420 11129877 L14162616 11137074 L14169813 11151467 L14169813 11209041 L14018683 11209041 L14018683 11158664 L14025880 11144271 L14033076 11137074 L14047470 11129877 L14061863 11129877 L14076256 11137074 L14083453 11144271 L14090650 11158664 L14090650 11209041 "/>
<path d="M14169813 10993141 L14090650 10993141 L14076256 11000337 L14069060 11014731 L14069060 11043517 L14076256 11057911 "/>
<path d="M14162616 10993141 L14169813 11007534 L14169813 11043517 L14162616 11057911 L14148223 11065107 L14133830 11065107 L14119436 11057911 L14112240 11043517 L14112240 11007534 L14105043 10993141 "/>
<path d="M14069060 10942764 L14069060 10885191 "/>
<path d="M14018683 10921174 L14148223 10921174 L14162616 10913977 L14169813 10899584 L14169813 10885191 "/>
<path d="M14069060 10856404 L14069060 10798831 "/>
<path d="M14018683 10834814 L14148223 10834814 L14162616 10827617 L14169813 10813224 L14169813 10798831 "/>
</g></g>
<g style="fill-opacity: 0.0;stroke-width: 19050.000000;stroke-opacity: 1;stroke-linecap: round;stroke-linejoin: round">
<text x="15662910.000000" y="11351260.000000" textLength="435628.100000" font-size="143933.300000" lengthAdjust="spacingAndGlyphs" text-anchor="start" opacity="0">Good</text>
<g class="stroked-text"><desc>Good</desc>
<path d="M15757540 11243310 L15747259 11238169 L15731837 11238169 L15716416 11243310 L15706135 11253590 L15700994 11263871 L15695854 11284433 L15695854 11299855 L15700994 11320417 L15706135 11330698 L15716416 11340979 L15731837 11346119 L15742118 11346119 L15757540 11340979 L15762680 11335838 L15762680 11299855 L15742118 11299855 "/>
<path d="M15824366 11346119 L15814085 11340979 L15808944 11335838 L15803804 11325557 L15803804 11294714 L15808944 11284433 L15814085 11279293 L15824366 11274152 L15839787 11274152 L15850068 11279293 L15855209 11284433 L15860349 11294714 L15860349 11325557 L15855209 11335838 L15850068 11340979 L15839787 11346119 L15824366 11346119 "/>
<path d="M15922035 11346119 L15911754 11340979 L15906613 11335838 L15901473 11325557 L15901473 11294714 L15906613 11284433 L15911754 11279293 L15922035 11274152 L15937456 11274152 L15947737 11279293 L15952878 11284433 L15958018 11294714 L15958018 11325557 L15952878 11335838 L15947737 11340979 L15937456 11346119 L15922035 11346119 "/>
<path d="M16050547 11346119 L16050547 11238169 "/>
<path d="M16050547 11340979 L16040266 11346119 L16019704 11346119 L16009423 11340979 L16004282 11335838 L15999142 11325557 L15999142 11294714 L16004282 11284433 L16009423 11279293 L16019704 11274152 L16040266 11274152 L16050547 11279293 "/>
</g></g>
<g style="fill-opacity: 0.0;stroke-width: 26670.000000;stroke-opacity: 1;stroke-linecap: round;stroke-linejoin: round">
<g transform="rotate(-90.000000 14177010.000000 10220960.000000)">
<text x="14177010.000000" y="10220960.000000" textLength="406188.300000" font-size="201506.600000" lengthAdjust="spacingAndGlyphs" text-anchor="start" opacity="0">Sys</text>
</g>
<g class="stroked-text"><desc>Sys</desc>
<path d="M14162616 10174837 L14169813 10153247 L14169813 10117264 L14162616 10102871 L14155420 10095674 L14141026 10088477 L14126633 10088477 L14112240 10095674 L14105043 10102871 L14097846 10117264 L14090650 10146051 L14083453 10160444 L14076256 10167641 L14061863 10174837 L14047470 10174837 L14033076 10167641 L14025880 10160444 L14018683 10146051 L14018683 10110067 L14025880 10088477 "/>
<path d="M14069060 10038101 L14169813 10002117 "/>
<path d="M14069060 9966134 L14169813 10002117 L14205796 10016511 L14212993 10023707 L14220190 10038101 "/>
<path d="M14162616 9915757 L14169813 9901364 L14169813 9872577 L14162616 9858184 L14148223 9850987 L14141026 9850987 L14126633 9858184 L14119436 9872577 L14119436 9894167 L14112240 9908561 L14097846 9915757 L14090650 9915757 L14076256 9908561 L14069060 9894167 L14069060 9872577 L14076256 9858184 "/>
</g></g>
<g style="fill-opacity: 0.0;stroke-width: 15240.000000;stroke-opacity: 1;stroke-linecap: round;stroke-linejoin: round">
<text x="15929610.000000" y="10843260.000000" textLength="375998.600000" font-size="115146.600000" lengthAdjust="spacingAndGlyphs" text-anchor="start" opacity="0">Short</text>
<g class="stroked-text"><desc>Short</desc>
<path d="M15955965 10835035 L15968302 10839147 L15988864 10839147 L15997089 10835035 L16001201 10830922 L16005314 10822698 L16005314 10814473 L16001201 10806248 L15997089 10802136 L15988864 10798023 L15972415 10793911 L15964190 10789799 L15960077 10785686 L15955965 10777461 L15955965 10769237 L15960077 10761012 L15964190 10756900 L15972415 10752787 L15992976 10752787 L16005314 10756900 "/>
<path d="M16042325 10839147 L16042325 10752787 "/>
<path d="M16079336 10839147 L16079336 10793911 L16075224 10785686 L16066999 10781574 L16054662 10781574 L16046437 10785686 L16042325 10789799 "/>
<path d="M16132797 10839147 L16124573 10835035 L16120460 10830922 L16116348 10822698 L16116348 10798023 L16120460 10789799 L16124573 10785686 L16132797 10781574 L16145135 10781574 L16153359 10785686 L16157472 10789799 L16161584 10798023 L16161584 10822698 L16157472 10830922 L16153359 10835035 L16145135 10839147 L16132797 10839147 "/>
<path d="M16198596 10839147 L16198596 10781574 "/>
<path d="M16198596 10798023 L16202708 10789799 L16206820 10785686 L16215045 10781574 L16223270 10781574 "/>
<path d="M16239719 10781574 L16272618 10781574 "/>
<path d="M16252056 10752787 L16252056 10826810 L16256169 10835035 L16264394 10839147 L16272618 10839147 "/>
</g></g>
<g style="fill-opacity: 0.0;stroke-width: 19050.000000;stroke-opacity: 1;stroke-linecap: round;stroke-linejoin: round">
<text x="14710410.000000" y="11389360.000000" textLength="261414.400000" font-size="143933.300000" lengthAdjust="spacingAndGlyphs" text-anchor="start" opacity="0">Adj</text>
<g class="stroked-text"><desc>Adj</desc>
<path d="M14743354 11353376 L14794759 11353376 "/>
<path d="M14733073 11384219 L14769056 11276269 L14805040 11384219 "/>
<path d="M14887287 11384219 L14887287 11276269 "/>
<path d="M14887287 11379079 L14877006 11384219 L14856444 11384219 L14846163 11379079 L14841023 11373938 L14835882 11363657 L14835882 11332814 L14841023 11322533 L14846163 11317393 L14856444 11312252 L14877006 11312252 L14887287 11317393 "/>
<path d="M14938692 11312252 L14938692 11404781 L14933552 11415062 L14923271 11420202 L14918130 11420202 "/>
<path d="M14938692 11276269 L14933552 11281410 L14938692 11286550 L14943832 11281410 L14938692 11276269 L14938692 11286550 "/>
</g></g>
<g style="fill-opacity: 0.0;stroke-width: 26670.000000;stroke-opacity: 1;stroke-linecap: round;stroke-linejoin: round">
<g transform="rotate(-90.000000 13923010.000000 10970260.000000)">
<text x="13923010.000000" y="10970260.000000" textLength="211878.300000" font-size="201506.600000" lengthAdjust="spacingAndGlyphs" text-anchor="start" opacity="0">+</text>
</g>
<g class="stroked-text"><desc>+</desc>
<path d="M13858240 10916941 L13858240 10801794 "/>
<path d="M13915813 10859367 L13800666 10859367 "/>
</g><g transform="rotate(-90.000000 13923010.000000 11186160.000000)">
<text x="13923010.000000" y="11186160.000000" textLength="221784.300000" font-size="201506.600000" lengthAdjust="spacingAndGlyphs" text-anchor="start" opacity="0">-</text>
</g>
<g class="stroked-text"><desc>-</desc>
<path d="M13858240 11132841 L13858240 11017694 "/>
</g><g transform="rotate(-90.000000 13923010.000000 10170160.000000)">
<text x="13923010.000000" y="10170160.000000" textLength="221784.300000" font-size="201506.600000" lengthAdjust="spacingAndGlyphs" text-anchor="start" opacity="0">-</text>
</g>
<g class="stroked-text"><desc>-</desc>
<path d="M13858240 10116841 L13858240 10001694 "/>
</g></g>
<g style="fill-opacity: 0.0;stroke-width: 2926.100000;stroke-opacity: 1;stroke-linecap: round;stroke-linejoin: round">
<text x="14767560.000000" y="9706416.900000" textLength="110098.800000" font-size="50285.200000" lengthAdjust="spacingAndGlyphs" text-anchor="start" opacity="0">U1</text>
<g class="stroked-text"><desc>U1</desc>
<path d="M14778441 9666907 L14778441 9697437 L14780237 9701029 L14782033 9702825 L14785625 9704621 L14792808 9704621 L14796400 9702825 L14798196 9701029 L14799992 9697437 L14799992 9666907 "/>
<path d="M14837706 9704621 L14816155 9704621 "/>
<path d="M14826930 9704621 L14826930 9666907 L14823338 9672294 L14819747 9675886 L14816155 9677682 "/>
</g></g>
<g style="fill-opacity: 0.0;stroke-width: 3251.200000;stroke-opacity: 1;stroke-linecap: round;stroke-linejoin: round">
<g transform="rotate(-90.000000 13053110.000000 11135360.000000)">
<text x="13053110.000000" y="11135360.000000" textLength="105287.800000" font-size="49851.700000" lengthAdjust="spacingAndGlyphs" text-anchor="start" opacity="0">JP1</text>
</g>
<g class="stroked-text"><desc>JP1</desc>
<path d="M13013940 11113662 L13040647 11113662 L13045988 11115442 L13049549 11119003 L13051329 11124344 L13051329 11127905 "/>
<path d="M13051329 11095857 L13013940 11095857 L13013940 11081614 L13015721 11078053 L13017501 11076273 L13021062 11074492 L13026403 11074492 L13029964 11076273 L13031744 11078053 L13033525 11081614 L13033525 11095857 "/>
<path d="M13051329 11038884 L13051329 11060249 "/>
<path d="M13051329 11049567 L13013940 11049567 L13019282 11053127 L13022842 11056688 L13024623 11060249 "/>
</g></g>
<g style="fill-opacity: 0.0;stroke-width: 12700.000000;stroke-opacity: 1;stroke-linecap: round;stroke-linejoin: round">
<g transform="rotate(-90.000000 13143230.000000 10253980.000000)">
<text x="13143230.000000" y="10253980.000000" textLength="314469.400000" font-size="152400.000000" lengthAdjust="spacingAndGlyphs" text-anchor="start" opacity="0">JP3</text>
</g>
<g class="stroked-text"><desc>JP3</desc>
<path d="M13023487 10185853 L13105130 10185853 L13121458 10191296 L13132344 10202182 L13137787 10218510 L13137787 10229396 "/>
<path d="M13137787 10131425 L13023487 10131425 L13023487 10087882 L13028930 10076996 L13034372 10071553 L13045258 10066110 L13061587 10066110 L13072472 10071553 L13077915 10076996 L13083358 10087882 L13083358 10131425 "/>
<path d="M13023487 10028010 L13023487 9957253 L13067030 9995353 L13067030 9979025 L13072472 9968139 L13077915 9962696 L13088801 9957253 L13116015 9957253 L13126901 9962696 L13132344 9968139 L13137787 9979025 L13137787 10011682 L13132344 10022567 L13126901 10028010 "/>
</g><g transform="rotate(-90.000000 16173450.000000 10817860.000000)">
<text x="16173450.000000" y="10817860.000000" textLength="435610.000000" font-size="152400.000000" lengthAdjust="spacingAndGlyphs" text-anchor="start" opacity="0">LED1</text>
</g>
<g class="stroked-text"><desc>LED1</desc>
<path d="M16168007 10727962 L16168007 10782390 L16053707 10782390 "/>
<path d="M16108135 10689862 L16108135 10651762 "/>
<path d="M16168007 10635433 L16168007 10689862 L16053707 10689862 L16053707 10635433 "/>
<path d="M16168007 10586447 L16053707 10586447 L16053707 10559233 L16059150 10542905 L16070035 10532019 L16080921 10526576 L16102692 10521133 L16119021 10521133 L16140792 10526576 L16151678 10532019 L16162564 10542905 L16168007 10559233 L16168007 10586447 "/>
<path d="M16168007 10412276 L16168007 10477590 "/>
<path d="M16168007 10444933 L16053707 10444933 L16070035 10455819 L16080921 10466705 L16086364 10477590 "/>
</g></g>
<g style="fill-opacity: 0.0;stroke-width: 3251.200000;stroke-opacity: 1;stroke-linecap: round;stroke-linejoin: round">
<g transform="rotate(-90.000000 13053110.000000 10119360.000000)">
<text x="13053110.000000" y="10119360.000000" textLength="117993.900000" font-size="49851.700000" lengthAdjust="spacingAndGlyphs" text-anchor="start" opacity="0">JP2</text>
</g>
<g class="stroked-text"><desc>JP2</desc>
<path d="M13013940 10097662 L13040647 10097662 L13045988 10099442 L13049549 10103003 L13051329 10108344 L13051329 10111905 "/>
<path d="M13051329 10079857 L13013940 10079857 L13013940 10065614 L13015721 10062053 L13017501 10060273 L13021062 10058492 L13026403 10058492 L13029964 10060273 L13031744 10062053 L13033525 10065614 L13033525 10079857 "/>
<path d="M13017501 10044249 L13015721 10042469 L13013940 10038908 L13013940 10030006 L13015721 10026445 L13017501 10024664 L13021062 10022884 L13024623 10022884 L13029964 10024664 L13051329 10046029 L13051329 10022884 "/>
</g></g>
<g style="fill-opacity: 0.0;stroke-width: 12700.000000;stroke-opacity: 1;stroke-linecap: round;stroke-linejoin: round">
<g transform="rotate(-90.000000 13508990.000000 10746740.000000)">
<text x="13508990.000000" y="10746740.000000" textLength="314469.400000" font-size="152400.000000" lengthAdjust="spacingAndGlyphs" text-anchor="start" opacity="0">JP4</text>
</g>
<g class="stroked-text"><desc>JP4</desc>
<path d="M13389247 10678613 L13470890 10678613 L13487218 10684056 L13498104 10694942 L13503547 10711270 L13503547 10722156 "/>
<path d="M13503547 10624185 L13389247 10624185 L13389247 10580642 L13394690 10569756 L13400132 10564313 L13411018 10558870 L13427347 10558870 L13438232 10564313 L13443675 10569756 L13449118 10580642 L13449118 10624185 "/>
<path d="M13427347 10460899 L13503547 10460899 "/>
<path d="M13383804 10488113 L13465447 10515327 L13465447 10444570 "/>
</g></g>
<g style="fill-opacity: 0.0;stroke-width: 2991.100000;stroke-opacity: 1;stroke-linecap: round;stroke-linejoin: round">
<g transform="rotate(-90.000000 15370810.000000 10627360.000000)">
<text x="15370810.000000" y="10646184.400000" textLength="90015.000000" font-size="50198.500000" lengthAdjust="spacingAndGlyphs" text-anchor="start" opacity="0">R1</text>
</g>
<g class="stroked-text"><desc>R1</desc>
<path d="M15387841 10594938 L15369913 10607487 "/>
<path d="M15387841 10616451 L15350192 10616451 L15350192 10602109 L15351985 10598523 L15353778 10596730 L15357363 10594938 L15362742 10594938 L15366327 10596730 L15368120 10598523 L15369913 10602109 L15369913 10616451 "/>
<path d="M15387841 10559082 L15387841 10580595 "/>
<path d="M15387841 10569838 L15350192 10569838 L15355571 10573424 L15359156 10577010 L15360949 10580595 "/>
</g></g>
<g style="fill-opacity: 0.0;stroke-width: 12954.000000;stroke-opacity: 1;stroke-linecap: round;stroke-linejoin: round">
<g transform="rotate(-90.000000 15535910.000000 10640060.000000)">
<text x="15535910.000000" y="10684383.000000" textLength="257162.700000" font-size="118194.600000" lengthAdjust="spacingAndGlyphs" text-anchor="start" opacity="0">330</text>
</g>
<g class="stroked-text"><desc>330</desc>
<path d="M15487365 10618976 L15487365 10564100 L15521135 10593648 L15521135 10580985 L15525356 10572542 L15529578 10568321 L15538020 10564100 L15559126 10564100 L15567569 10568321 L15571790 10572542 L15576011 10580985 L15576011 10606312 L15571790 10614754 L15567569 10618976 "/>
<path d="M15487365 10534551 L15487365 10479675 L15521135 10509223 L15521135 10496560 L15525356 10488117 L15529578 10483896 L15538020 10479675 L15559126 10479675 L15567569 10483896 L15571790 10488117 L15576011 10496560 L15576011 10521887 L15571790 10530330 L15567569 10534551 "/>
<path d="M15487365 10424799 L15487365 10416356 L15491587 10407914 L15495808 10403693 L15504250 10399471 L15521135 10395250 L15542241 10395250 L15559126 10399471 L15567569 10403693 L15571790 10407914 L15576011 10416356 L15576011 10424799 L15571790 10433241 L15567569 10437462 L15559126 10441684 L15542241 10445905 L15521135 10445905 L15504250 10441684 L15495808 10437462 L15491587 10433241 L15487365 10424799 "/>
</g></g>
<g style="fill-opacity: 0.0;stroke-width: 20320.000000;stroke-opacity: 1;stroke-linecap: round;stroke-linejoin: round">
<path d="M14821480 9890760 L14878740 9890760 "/>
<path d="M14640660 10030460 L15059560 10030460 "/>
<path d="M14584620 9890760 L14624740 9890760 "/>
<path d="M15075480 9890760 L15115600 9890760 "/>
<path d="M15059559.989035 10030459.891357 A266696.100000 266696.100000 0.0 0 0 14928739.996518 9610520.011284"/>
<path d="M14771479.891372 9610509.872035 A266704.800000 266704.800000 0.0 0 0 14640649.991297 10030460.006860"/>
<path d="M15250110 11230860 L15326610 11230860 "/>
<path d="M14450110 11230860 L14450110 11190860 "/>
<path d="M14450110 11190860 L15250110 11190860 "/>
<path d="M15250110 11190860 L15250110 11230860 "/>
<path d="M15326610 11230860 L15326610 10277860 "/>
<path d="M14373610 10277860 L14373610 11230860 "/>
<path d="M14373610 11230860 L14450110 11230860 "/>
<path d="M15326610 10277860 L14373610 10277860 "/>
<path d="M13760110 11308360 L12980110 11308360 "/>
<path d="M12980110 11308360 L12980110 10708360 "/>
<path d="M13580110 11208360 L13760110 11208360 "/>
<path d="M13760110 11208360 L13760110 11308360 "/>
<path d="M13760110 10708360 L13760110 10808360 "/>
<path d="M12980110 10708360 L13760110 10708360 "/>
<path d="M13760110 10808360 L13580110 10808360 "/>
<path d="M13262610 9738360 L13389610 9738360 "/>
<path d="M13199110 10182860 L13262610 10246360 "/>
<path d="M13199110 10055860 L13262610 9992360 "/>
<path d="M13199110 9801860 L13262610 9738360 "/>
<path d="M13453110 9801860 L13453110 9928860 "/>
<path d="M13199110 10182860 L13199110 10055860 "/>
<path d="M13199110 9928860 L13199110 9801860 "/>
<path d="M13262610 10246360 L13389610 10246360 "/>
<path d="M13389610 9738360 L13453110 9801860 "/>
<path d="M13453110 9928860 L13389610 9992360 "/>
<path d="M13262610 9992360 L13199110 9928860 "/>
<path d="M13389610 10246360 L13453110 10182860 "/>
<path d="M13453110 10055860 L13453110 10182860 "/>
<path d="M13389610 9992360 L13453110 10055860 "/>
</g>
<g style="fill-opacity: 0.0;stroke-width: 25400.000000;stroke-opacity: 1;stroke-linecap: round;stroke-linejoin: round">
<path d="M15929610 10954360 L16310610 10954360 "/>
<path d="M16310609.888371 10954359.972043 A496024.400000 496024.400000 0.0 1 0 15929609.996879 10954360.007503"/>
</g>
<g style="fill-opacity: 0.0;stroke-width: 15240.000000;stroke-opacity: 1;stroke-linecap: round;stroke-linejoin: round">
<circle cx="16120110.000000" cy="10500360.000000" r="400000.000000"/> 
</g>
<g style="fill-opacity: 0.0;stroke-width: 20320.000000;stroke-opacity: 1;stroke-linecap: round;stroke-linejoin: round">
<path d="M13760110 10192360 L13760110 10292360 "/>
<path d="M13760110 9792360 L13580110 9792360 "/>
<path d="M12980110 9692360 L13760110 9692360 "/>
<path d="M13760110 9692360 L13760110 9792360 "/>
<path d="M12980110 10292360 L12980110 9692360 "/>
<path d="M13580110 10192360 L13760110 10192360 "/>
<path d="M13760110 10292360 L12980110 10292360 "/>
<path d="M13453110 11071860 L13453110 11198860 "/>
<path d="M13199110 10944860 L13199110 10817860 "/>
<path d="M13389610 10754360 L13262610 10754360 "/>
<path d="M13262610 11008360 L13199110 10944860 "/>
<path d="M13262610 10754360 L13199110 10817860 "/>
<path d="M13262610 11262360 L13199110 11198860 "/>
<path d="M13389610 11262360 L13262610 11262360 "/>
<path d="M13199110 11071860 L13262610 11008360 "/>
<path d="M13199110 11198860 L13199110 11071860 "/>
<path d="M13453110 10944860 L13389610 11008360 "/>
<path d="M13453110 10817860 L13453110 10944860 "/>
<path d="M13453110 11198860 L13389610 11262360 "/>
<path d="M13453110 10817860 L13389610 10754360 "/>
<path d="M13389610 11008360 L13453110 11071860 "/>
<path d="M15485110 10754360 L15408910 10754360 "/>
<path d="M15561310 10246360 L15561310 10754360 "/>
<path d="M15485110 10246360 L15561310 10246360 "/>
<path d="M15408910 10246360 L15485110 10246360 "/>
<path d="M15561310 10754360 L15485110 10754360 "/>
<path d="M15408910 10754360 L15408910 10246360 "/>
<path d="M15485110 10246360 L15485110 10220960 "/>
<path d="M15485110 10754360 L15485110 10779760 "/>
</g> 
</g><g id="substrate-outline" style="fill:#000000; stroke:#000000; stroke-width: 15000.0"><g style="fill-opacity: 0.0;stroke-opacity: 1;stroke-linecap: round;stroke-linejoin: round">
<path d="M12945110 11516360 L16755110 11516360 "/>
<path d="M16755110 9484360 L12945110 9484360 "/>
<path d="M16755110 11516360 L16755110 9484360 "/>
<path d="M12945110 9484360 L12945110 11516360 "/>
</g> 
<path d="M -165100.0 0.0 A 165100.0 165100.0 0 1 1 165100.0 0.0 L 165100.0 -0.0 A 165100.0 165100.0 0 1 1 -165100.0 -0.0 Z" transform="translate(16501110.0 9738360.0) rotate(-0.0)"/><path d="M -40640.0 0.0 A 40640.0 40640.0 0 1 1 40640.0 0.0 L 40640.0 -0.0 A 40640.0 40640.0 0 1 1 -40640.0 -0.0 Z" transform="translate(14723110.0 9865360.0) rotate(-0.0)"/><path d="M -40640.0 0.0 A 40640.0 40640.0 0 1 1 40640.0 0.0 L 40640.0 -0.0 A 40640.0 40640.0 0 1 1 -40640.0 -0.0 Z" transform="translate(14850110.0 9674860.0) rotate(-0.0)"/><path d="M -40640.0 0.0 A 40640.0 40640.0 0 1 1 40640.0 0.0 L 40640.0 -0.0 A 40640.0 40640.0 0 1 1 -40640.0 -0.0 Z" transform="translate(14977110.0 9865360.0) rotate(-0.0)"/><path d="M -50800.0 0.0 A 50800.0 50800.0 0 1 1 50800.0 0.0 L 50800.0 -0.0 A 50800.0 50800.0 0 1 1 -50800.0 -0.0 Z" transform="translate(14596110.0 10755860.0) rotate(-0.0)"/><path d="M -50800.0 0.0 A 50800.0 50800.0 0 1 1 50800.0 0.0 L 50800.0 -0.0 A 50800.0 50800.0 0 1 1 -50800.0 -0.0 Z" transform="translate(14850110.0 10755860.0) rotate(-0.0)"/><path d="M -50800.0 0.0 A 50800.0 50800.0 0 1 1 50800.0 0.0 L 50800.0 -0.0 A 50800.0 50800.0 0 1 1 -50800.0 -0.0 Z" transform="translate(15104110.0 10755860.0) rotate(-0.0)"/><path d="M -35000.0 0.0 A 35000.0 35000.0 0 1 1 35000.0 0.0 L 35000.0 -0.0 A 35000.0 35000.0 0 1 1 -35000.0 -0.0 Z" transform="translate(13580110.0 11108360.0) rotate(-90.0)"/><path d="M -35000.0 0.0 A 35000.0 35000.0 0 1 1 35000.0 0.0 L 35000.0 -0.0 A 35000.0 35000.0 0 1 1 -35000.0 -0.0 Z" transform="translate(13580110.0 10908360.0) rotate(-90.0)"/><path d="M -50800.0 0.0 A 50800.0 50800.0 0 1 1 50800.0 0.0 L 50800.0 -0.0 A 50800.0 50800.0 0 1 1 -50800.0 -0.0 Z" transform="translate(13326110.0 10119360.0) rotate(-180.0)"/><path d="M -50800.0 0.0 A 50800.0 50800.0 0 1 1 50800.0 0.0 L 50800.0 -0.0 A 50800.0 50800.0 0 1 1 -50800.0 -0.0 Z" transform="translate(13326110.0 9865360.0) rotate(-180.0)"/><path d="M -40640.0 0.0 A 40640.0 40640.0 0 1 1 40640.0 0.0 L 40640.0 -0.0 A 40640.0 40640.0 0 1 1 -40640.0 -0.0 Z" transform="translate(16120110.0 10373360.0) rotate(-270.0)"/><path d="M -40640.0 0.0 A 40640.0 40640.0 0 1 1 40640.0 0.0 L 40640.0 -0.0 A 40640.0 40640.0 0 1 1 -40640.0 -0.0 Z" transform="translate(16120110.0 10627360.0) rotate(-270.0)"/><path d="M -35000.0 0.0 A 35000.0 35000.0 0 1 1 35000.0 0.0 L 35000.0 -0.0 A 35000.0 35000.0 0 1 1 -35000.0 -0.0 Z" transform="translate(13580110.0 10092360.0) rotate(-90.0)"/><path d="M -35000.0 0.0 A 35000.0 35000.0 0 1 1 35000.0 0.0 L 35000.0 -0.0 A 35000.0 35000.0 0 1 1 -35000.0 -0.0 Z" transform="translate(13580110.0 9892360.0) rotate(-90.0)"/><path d="M -165100.0 0.0 A 165100.0 165100.0 0 1 1 165100.0 0.0 L 165100.0 -0.0 A 165100.0 165100.0 0 1 1 -165100.0 -0.0 Z" transform="translate(16501110.0 11262360.0) rotate(-0.0)"/><path d="M -50800.0 0.0 A 50800.0 50800.0 0 1 1 50800.0 0.0 L 50800.0 -0.0 A 50800.0 50800.0 0 1 1 -50800.0 -0.0 Z" transform="translate(13326110.0 10881360.0) rotate(-0.0)"/><path d="M -50800.0 0.0 A 50800.0 50800.0 0 1 1 50800.0 0.0 L 50800.0 -0.0 A 50800.0 50800.0 0 1 1 -50800.0 -0.0 Z" transform="translate(13326110.0 11135360.0) rotate(-0.0)"/><path d="M -45000.0 0.0 A 45000.0 45000.0 0 1 1 45000.0 0.0 L 45000.0 -0.0 A 45000.0 45000.0 0 1 1 -45000.0 -0.0 Z" transform="translate(15485110.0 10881360.0) rotate(-90.0)"/><path d="M -45000.0 0.0 A 45000.0 45000.0 0 1 1 45000.0 0.0 L 45000.0 -0.0 A 45000.0 45000.0 0 1 1 -45000.0 -0.0 Z" transform="translate(15485110.0 10119360.0) rotate(-90.0)"/><path d="M -165100.0 0.0 A 165100.0 165100.0 0 1 1 165100.0 0.0 L 165100.0 -0.0 A 165100.0 165100.0 0 1 1 -165100.0 -0.0 Z" transform="translate(13961110.0 10500360.0) rotate(-0.0)"/><path d="M -50800.0 0.0 A 50800.0 50800.0 0 1 1 50800.0 0.0 L 50800.0 -0.0 A 50800.0 50800.0 0 1 1 -50800.0 -0.0 Z" transform="translate(14469110.0 9738360.0) rotate(-90.0)"/><path d="M -50800.0 0.0 A 50800.0 50800.0 0 1 1 50800.0 0.0 L 50800.0 -0.0 A 50800.0 50800.0 0 1 1 -50800.0 -0.0 Z" transform="translate(15231110.0 9738360.0) rotate(-90.0)"/></g></g></g></svg>