<!DOCTYPE svg PUBLIC "-//W3C//DTD SVG 1.1//EN" "http://www.w3.org/Graphics/SVG/1.1/DTD/svg11.dtd">
<svg xmlns="http://www.w3.org/2000/svg" version="1.1" width="24.86mm" height="33.75mm" viewBox="-16093110.0 8812860.0 2486000.0 3375000.0">
            <title>Picture generated by PcbDraw </title>
            <desc>Picture generated by PcbDraw</desc>
        <defs><clipPath id="cut-off"><path d=" M 13707110.0 12087860.0 L 15993110.0 12087860.0 L 15993110.0 8912860.0 L 13707110.0 8912860.0 L 13707110.0 12087860.0 " style="fill-rule: evenodd;"/></clipPath><mask id="pads-mask"><g style="fill:#ffffff; fill-opacity:0.0;  stroke:#ffffff; stroke-width:0.000000; stroke-opacity:1;  stroke-linecap:round; stroke-linejoin:round;">
<g style="fill:#ffffff; fill-opacity:1.0;  stroke:#ffffff; stroke-width:0.100000; stroke-opacity:1;  stroke-linecap:round; stroke-linejoin:round;">
<circle cx="14342110.000000" cy="9262860.000000" r="100000.000000"/> 
</g>
<g style="fill:#ffffff; fill-opacity:1.0;  stroke:#ffffff; stroke-width:0.100000; stroke-opacity:1;  stroke-linecap:round; stroke-linejoin:round;">
<circle cx="14342110.000000" cy="9962860.000000" r="100000.000000"/> 
</g>
<g style="fill:#ffffff; fill-opacity:1.0;  stroke:#ffffff; stroke-width:0.100000; stroke-opacity:1;  stroke-linecap:round; stroke-linejoin:round;">
<path style="fill:#ffffff; fill-opacity:1.0;  stroke:#ffffff; stroke-width:0.100000; stroke-opacity:1;  stroke-linecap:round; stroke-linejoin:round;fill-rule:evenodd;" d="M 13867130.000000,12065000.000000 13863241.900000,12064226.600000 13859945.800000,12062024.200000 13857743.400000,12058728.100000 13856970.000000,12054840.000000 13856970.000000,11866880.000000 13857743.400000,11862991.900000 13859945.800000,11859695.800000 13863241.900000,11857493.400000 13867130.000000,11856720.000000 14055090.000000,11856720.000000 14058978.100000,11857493.400000 14062274.200000,11859695.800000 14064476.600000,11862991.900000 14065250.000000,11866880.000000 14065250.000000,12054840.000000 14064476.600000,12058728.100000 14062274.200000,12062024.200000 14058978.100000,12064226.600000 14055090.000000,12065000.000000 Z"/> 
<circle cx="14215110.000000" cy="11960860.000000" r="104140.000000"/> 
</g>
<g style="fill:#ffffff; fill-opacity:1.0;  stroke:#ffffff; stroke-width:0.100000; stroke-opacity:1;  stroke-linecap:round; stroke-linejoin:round;">
<circle cx="14469110.000000" cy="11960860.000000" r="104140.000000"/> 
</g>
<g style="fill:#ffffff; fill-opacity:1.0;  stroke:#ffffff; stroke-width:0.100000; stroke-opacity:1;  stroke-linecap:round; stroke-linejoin:round;">
<circle cx="14723110.000000" cy="11960860.000000" r="104140.000000"/> 
</g>
<g style="fill:#ffffff; fill-opacity:1.0;  stroke:#ffffff; stroke-width:0.100000; stroke-opacity:1;  stroke-linecap:round; stroke-linejoin:round;">
<circle cx="14977110.000000" cy="11960860.000000" r="104140.000000"/> 
</g>
<g style="fill:#ffffff; fill-opacity:1.0;  stroke:#ffffff; stroke-width:0.100000; stroke-opacity:1;  stroke-linecap:round; stroke-linejoin:round;">
<circle cx="15231110.000000" cy="11960860.000000" r="104140.000000"/> 
</g>
<g style="fill:#ffffff; fill-opacity:1.0;  stroke:#ffffff; stroke-width:0.100000; stroke-opacity:1;  stroke-linecap:round; stroke-linejoin:round;">
<circle cx="15485110.000000" cy="11960860.000000" r="104140.000000"/> 
</g>
<g style="fill:#ffffff; fill-opacity:1.0;  stroke:#ffffff; stroke-width:0.100000; stroke-opacity:1;  stroke-linecap:round; stroke-linejoin:round;">
<circle cx="15739110.000000" cy="11960860.000000" r="104140.000000"/> 
</g>
</g> 
</mask><mask id="pads-mask-silkscreen"><rect x="10405110.0" y="8628380.0" width="10327301.3" height="4627480.0" fill="white"/><g style="fill:#000000; fill-opacity:0.0;  stroke:#000000; stroke-width:0.000000; stroke-opacity:1;  stroke-linecap:round; stroke-linejoin:round;">
<g style="fill:#000000; fill-opacity:1.0;  stroke:#000000; stroke-width:0.100000; stroke-opacity:1;  stroke-linecap:round; stroke-linejoin:round;">
<circle cx="14342110.000000" cy="9262860.000000" r="100000.000000"/> 
</g>
<g style="fill:#000000; fill-opacity:1.0;  stroke:#000000; stroke-width:0.100000; stroke-opacity:1;  stroke-linecap:round; stroke-linejoin:round;">
<circle cx="14342110.000000" cy="9962860.000000" r="100000.000000"/> 
</g>
<g style="fill:#000000; fill-opacity:1.0;  stroke:#000000; stroke-width:0.100000; stroke-opacity:1;  stroke-linecap:round; stroke-linejoin:round;">
<path style="fill:#000000; fill-opacity:1.0;  stroke:#000000; stroke-width:0.100000; stroke-opacity:1;  stroke-linecap:round; stroke-linejoin:round;fill-rule:evenodd;" d="M 13867130.000000,12065000.000000 13863241.900000,12064226.600000 13859945.800000,12062024.200000 13857743.400000,12058728.100000 13856970.000000,12054840.000000 13856970.000000,11866880.000000 13857743.400000,11862991.900000 13859945.800000,11859695.800000 13863241.900000,11857493.400000 13867130.000000,11856720.000000 14055090.000000,11856720.000000 14058978.100000,11857493.400000 14062274.200000,11859695.800000 14064476.600000,11862991.900000 14065250.000000,11866880.000000 14065250.000000,12054840.000000 14064476.600000,12058728.100000 14062274.200000,12062024.200000 14058978.100000,12064226.600000 14055090.000000,12065000.000000 Z"/> 
<circle cx="14215110.000000" cy="11960860.000000" r="104140.000000"/> 
</g>
<g style="fill:#000000; fill-opacity:1.0;  stroke:#000000; stroke-width:0.100000; stroke-opacity:1;  stroke-linecap:round; stroke-linejoin:round;">
<circle cx="14469110.000000" cy="11960860.000000" r="104140.000000"/> 
</g>
<g style="fill:#000000; fill-opacity:1.0;  stroke:#000000; stroke-width:0.100000; stroke-opacity:1;  stroke-linecap:round; stroke-linejoin:round;">
<circle cx="14723110.000000" cy="11960860.000000" r="104140.000000"/> 
</g>
<g style="fill:#000000; fill-opacity:1.0;  stroke:#000000; stroke-width:0.100000; stroke-opacity:1;  stroke-linecap:round; stroke-linejoin:round;">
<circle cx="14977110.000000" cy="11960860.000000" r="104140.000000"/> 
</g>
<g style="fill:#000000; fill-opacity:1.0;  stroke:#000000; stroke-width:0.100000; stroke-opacity:1;  stroke-linecap:round; stroke-linejoin:round;">
<circle cx="15231110.000000" cy="11960860.000000" r="104140.000000"/> 
</g>
<g style="fill:#000000; fill-opacity:1.0;  stroke:#000000; stroke-width:0.100000; stroke-opacity:1;  stroke-linecap:round; stroke-linejoin:round;">
<circle cx="15485110.000000" cy="11960860.000000" r="104140.000000"/> 
</g>
<g style="fill:#000000; fill-opacity:1.0;  stroke:#000000; stroke-width:0.100000; stroke-opacity:1;  stroke-linecap:round; stroke-linejoin:round;">
<circle cx="15739110.000000" cy="11960860.000000" r="104140.000000"/> 
</g>
</g> 
</mask><mask id="hole-mask"><g><rect x="10405110.0" y="8628380.0" fill="white" width="10327301.3" height="4627480.0"/><polyline stroke-linecap="round" stroke="black" stroke-width="200000.0" points="-0.0 0 0.0 0" transform="translate(14342110.0 9262860.0) rotate(-270.0)"/><polyline stroke-linecap="round" stroke="black" stroke-width="200000.0" points="-0.0 0 0.0 0" transform="translate(14342110.0 9962860.0) rotate(-270.0)"/><polyline stroke-linecap="round" stroke="black" stroke-width="101600.0" points="-0.0 0 0.0 0" transform="translate(13961110.0 11960860.0) rotate(-90.0)"/><polyline stroke-linecap="round" stroke="black" stroke-width="101600.0" points="-0.0 0 0.0 0" transform="translate(14215110.0 11960860.0) rotate(-90.0)"/><polyline stroke-linecap="round" stroke="black" stroke-width="101600.0" points="-0.0 0 0.0 0" transform="translate(14469110.0 11960860.0) rotate(-90.0)"/><polyline stroke-linecap="round" stroke="black" stroke-width="101600.0" points="-0.0 0 0.0 0" transform="translate(14723110.0 11960860.0) rotate(-90.0)"/><polyline stroke-linecap="round" stroke="black" stroke-width="101600.0" points="-0.0 0 0.0 0" transform="translate(14977110.0 11960860.0) rotate(-90.0)"/><polyline stroke-linecap="round" stroke="black" stroke-width="101600.0" points="-0.0 0 0.0 0" transform="translate(15231110.0 11960860.0) rotate(-90.0)"/><polyline stroke-linecap="round" stroke="black" stroke-width="101600.0" points="-0.0 0 0.0 0" transform="translate(15485110.0 11960860.0) rotate(-90.0)"/><polyline stroke-linecap="round" stroke="black" stroke-width="101600.0" points="-0.0 0 0.0 0" transform="translate(15739110.0 11960860.0) rotate(-90.0)"/><polyline stroke-linecap="round" stroke="black" stroke-width="50800.0" points="-0.0 0 0.0 0" transform="translate(15612110.0 9928860.0) rotate(0.0)"/><polyline stroke-linecap="round" stroke="black" stroke-width="50800.0" points="-0.0 0 0.0 0" transform="translate(15104110.0 11071860.0) rotate(0.0)"/><polyline stroke-linecap="round" stroke="black" stroke-width="50800.0" points="-0.0 0 0.0 0" transform="translate(14088110.0 11579860.0) rotate(0.0)"/><polyline stroke-linecap="round" stroke="black" stroke-width="50800.0" points="-0.0 0 0.0 0" transform="translate(14342110.0 10817860.0) rotate(0.0)"/><polyline stroke-linecap="round" stroke="black" stroke-width="50800.0" points="-0.0 0 0.0 0" transform="translate(15739110.0 10817860.0) rotate(0.0)"/><polyline stroke-linecap="round" stroke="black" stroke-width="50800.0" points="-0.0 0 0.0 0" transform="translate(15231110.0 9166860.0) rotate(0.0)"/><polyline stroke-linecap="round" stroke="black" stroke-width="50800.0" points="-0.0 0 0.0 0" transform="translate(14850110.0 9928860.0) rotate(0.0)"/><polyline stroke-linecap="round" stroke="black" stroke-width="50800.0" points="-0.0 0 0.0 0" transform="translate(14596110.0 10817860.0) rotate(0.0)"/><polyline stroke-linecap="round" stroke="black" stroke-width="50800.0" points="-0.0 0 0.0 0" transform="translate(14443710.0 11363960.0) rotate(0.0)"/><polyline stroke-linecap="round" stroke="black" stroke-width="50800.0" points="-0.0 0 0.0 0" transform="translate(14113510.0 10944860.0) rotate(0.0)"/><polyline stroke-linecap="round" stroke="black" stroke-width="50800.0" points="-0.0 0 0.0 0" transform="translate(14850110.0 10944860.0) rotate(0.0)"/><polyline stroke-linecap="round" stroke="black" stroke-width="50800.0" points="-0.0 0 0.0 0" transform="translate(13961110.0 9420860.0) rotate(0.0)"/><polyline stroke-linecap="round" stroke="black" stroke-width="50800.0" points="-0.0 0 0.0 0" transform="translate(13999210.0 11325860.0) rotate(0.0)"/><polyline stroke-linecap="round" stroke="black" stroke-width="50800.0" points="-0.0 0 0.0 0" transform="translate(15612110.0 10817860.0) rotate(0.0)"/><polyline stroke-linecap="round" stroke="black" stroke-width="50800.0" points="-0.0 0 0.0 0" transform="translate(14456410.0 10690860.0) rotate(0.0)"/><polyline stroke-linecap="round" stroke="black" stroke-width="50800.0" points="-0.0 0 0.0 0" transform="translate(14599410.0 10536170.0) rotate(0.0)"/><polyline stroke-linecap="round" stroke="black" stroke-width="50800.0" points="-0.0 0 0.0 0" transform="translate(15104110.0 9039860.0) rotate(0.0)"/><polyline stroke-linecap="round" stroke="black" stroke-width="50800.0" points="-0.0 0 0.0 0" transform="translate(14723110.0 10627360.0) rotate(0.0)"/><polyline stroke-linecap="round" stroke="black" stroke-width="50800.0" points="-0.0 0 0.0 0" transform="translate(14215110.0 10690860.0) rotate(0.0)"/><polyline stroke-linecap="round" stroke="black" stroke-width="50800.0" points="-0.0 0 0.0 0" transform="translate(14723110.0 11452860.0) rotate(0.0)"/><polyline stroke-linecap="round" stroke="black" stroke-width="50800.0" points="-0.0 0 0.0 0" transform="translate(15292830.0 9675620.0) rotate(0.0)"/></g></mask></defs><g transform="scale(-1,1)" id="boardContainer"><g id="substrate" clip-path="url(#cut-off)" mask="url(#hole-mask)"><g id="substrate-board" style="fill:#4ca06c; stroke:#4ca06c;"><path d=" M 13707110.0 12087860.0 L 15993110.0 12087860.0 L 15993110.0 8912860.0 L 13707110.0 8912860.0 L 13707110.0 12087860.0 " style="fill-rule: evenodd;"/><g style="fill-opacity: 0.0;stroke-width: 20320.000000;stroke-opacity: 1;stroke-linecap: round;stroke-linejoin: round">
<path d="M13707110 8912860 L13707110 12087860 "/>
<path d="M15993110 8912860 L13707110 8912860 "/>
<path d="M15993110 12087860 L15993110 8912860 "/>
<path d="M13707110 12087860 L15993110 12087860 "/>
</g> 
</g><g id="substrate-clad" style="fill:#9c6b28; stroke:#9c6b28;"><g style="fill-opacity: 0.0;stroke-width: 0.000000;stroke-opacity: 1;stroke-linecap: round;stroke-linejoin: round">
<g style="fill-opacity: 1.0;stroke-width: 0.100000;stroke-opacity: 1;stroke-linecap: round;stroke-linejoin: round">
<circle cx="14342110.000000" cy="9262860.000000" r="100000.000000"/> 
</g>
<g style="fill-opacity: 1.0;stroke-width: 0.100000;stroke-opacity: 1;stroke-linecap: round;stroke-linejoin: round">
<circle cx="14342110.000000" cy="9962860.000000" r="100000.000000"/> 
</g>
<g style="fill-opacity: 1.0;stroke-width: 0.100000;stroke-opacity: 1;stroke-linecap: round;stroke-linejoin: round">
<path style="fill-opacity: 1.0;stroke-width: 0.100000;stroke-opacity: 1;stroke-linecap: round;stroke-linejoin: round;fill-rule: evenodd" d="M 13867130.000000,12065000.000000 13863241.900000,12064226.600000 13859945.800000,12062024.200000 13857743.400000,12058728.100000 13856970.000000,12054840.000000 13856970.000000,11866880.000000 13857743.400000,11862991.900000 13859945.800000,11859695.800000 13863241.900000,11857493.400000 13867130.000000,11856720.000000 14055090.000000,11856720.000000 14058978.100000,11857493.400000 14062274.200000,11859695.800000 14064476.600000,11862991.900000 14065250.000000,11866880.000000 14065250.000000,12054840.000000 14064476.600000,12058728.100000 14062274.200000,12062024.200000 14058978.100000,12064226.600000 14055090.000000,12065000.000000 Z"/> 
<circle cx="14215110.000000" cy="11960860.000000" r="104140.000000"/> 
</g>
<g style="fill-opacity: 1.0;stroke-width: 0.100000;stroke-opacity: 1;stroke-linecap: round;stroke-linejoin: round">
<circle cx="14469110.000000" cy="11960860.000000" r="104140.000000"/> 
</g>
<g style="fill-opacity: 1.0;stroke-width: 0.100000;stroke-opacity: 1;stroke-linecap: round;stroke-linejoin: round">
<circle cx="14723110.000000" cy="11960860.000000" r="104140.000000"/> 
</g>
<g style="fill-opacity: 1.0;stroke-width: 0.100000;stroke-opacity: 1;stroke-linecap: round;stroke-linejoin: round">
<circle cx="14977110.000000" cy="11960860.000000" r="104140.000000"/> 
</g>
<g style="fill-opacity: 1.0;stroke-width: 0.100000;stroke-opacity: 1;stroke-linecap: round;stroke-linejoin: round">
<circle cx="15231110.000000" cy="11960860.000000" r="104140.000000"/> 
</g>
<g style="fill-opacity: 1.0;stroke-width: 0.100000;stroke-opacity: 1;stroke-linecap: round;stroke-linejoin: round">
<circle cx="15485110.000000" cy="11960860.000000" r="104140.000000"/> 
</g>
<g style="fill-opacity: 1.0;stroke-width: 0.100000;stroke-opacity: 1;stroke-linecap: round;stroke-linejoin: round">
<circle cx="15739110.000000" cy="11960860.000000" r="104140.000000"/> 
</g>
</g> 
</g><g id="substrate-copper" style="fill:#417e5a; stroke:#417e5a;"><g style="fill-opacity: 0.0;stroke-width: 25400.000000;stroke-opacity: 1;stroke-linecap: round;stroke-linejoin: round">
<text x="15840710.000000" y="9128760.000000" transform="scale(-1 1) translate(-31681420.000000 0)" textLength="270933.200000" font-size="135466.600000" lengthAdjust="spacingAndGlyphs" text-anchor="start" opacity="0">v13</text>
<g class="stroked-text"><desc>v13</desc>
<path d="M15809685 9056188 L15785495 9123921 L15761304 9056188 "/>
<path d="M15669380 9123921 L15727438 9123921 "/>
<path d="M15698409 9123921 L15698409 9022321 L15708085 9036836 L15717761 9046512 L15727438 9051350 "/>
<path d="M15635514 9022321 L15572619 9022321 L15606485 9061026 L15591971 9061026 L15582295 9065864 L15577457 9070702 L15572619 9080379 L15572619 9104569 L15577457 9114245 L15582295 9119083 L15591971 9123921 L15621000 9123921 L15630676 9119083 L15635514 9114245 "/>
</g><g style="fill-opacity: 1.0;stroke-width: 0.100000;stroke-opacity: 1;stroke-linecap: round;stroke-linejoin: round">
<path style="fill-opacity: 1.0;stroke-width: 0.100000;stroke-opacity: 1;stroke-linecap: round;stroke-linejoin: round;fill-rule: evenodd" d="M 14055090.000000,12054840.000000 13867130.000000,12054840.000000 13867130.000000,11866880.000000 14055090.000000,11866880.000000 Z"/> 
<circle cx="14215110.000000" cy="11960860.000000" r="93980.000000"/> 
</g>
<g style="fill-opacity: 1.0;stroke-width: 0.100000;stroke-opacity: 1;stroke-linecap: round;stroke-linejoin: round">
<circle cx="14469110.000000" cy="11960860.000000" r="93980.000000"/> 
</g>
<g style="fill-opacity: 1.0;stroke-width: 0.100000;stroke-opacity: 1;stroke-linecap: round;stroke-linejoin: round">
<circle cx="14723110.000000" cy="11960860.000000" r="93980.000000"/> 
</g>
<g style="fill-opacity: 1.0;stroke-width: 0.100000;stroke-opacity: 1;stroke-linecap: round;stroke-linejoin: round">
<circle cx="14977110.000000" cy="11960860.000000" r="93980.000000"/> 
</g>
<g style="fill-opacity: 1.0;stroke-width: 0.100000;stroke-opacity: 1;stroke-linecap: round;stroke-linejoin: round">
<circle cx="15231110.000000" cy="11960860.000000" r="93980.000000"/> 
</g>
<g style="fill-opacity: 1.0;stroke-width: 0.100000;stroke-opacity: 1;stroke-linecap: round;stroke-linejoin: round">
<circle cx="15485110.000000" cy="11960860.000000" r="93980.000000"/> 
</g>
<g style="fill-opacity: 1.0;stroke-width: 0.100000;stroke-opacity: 1;stroke-linecap: round;stroke-linejoin: round">
<circle cx="15739110.000000" cy="11960860.000000" r="93980.000000"/> 
</g>
<g style="fill-opacity: 1.0;stroke-width: 0.100000;stroke-opacity: 1;stroke-linecap: round;stroke-linejoin: round">
<circle cx="15612110.000000" cy="9928860.000000" r="50800.000000"/> 
</g>
<g style="fill-opacity: 1.0;stroke-width: 0.100000;stroke-opacity: 1;stroke-linecap: round;stroke-linejoin: round">
<circle cx="15104110.000000" cy="11071860.000000" r="50800.000000"/> 
</g>
<g style="fill-opacity: 1.0;stroke-width: 0.100000;stroke-opacity: 1;stroke-linecap: round;stroke-linejoin: round">
<circle cx="14088110.000000" cy="11579860.000000" r="50800.000000"/> 
</g>
<g style="fill-opacity: 1.0;stroke-width: 0.100000;stroke-opacity: 1;stroke-linecap: round;stroke-linejoin: round">
<circle cx="14342110.000000" cy="10817860.000000" r="50800.000000"/> 
</g>
<g style="fill-opacity: 1.0;stroke-width: 0.100000;stroke-opacity: 1;stroke-linecap: round;stroke-linejoin: round">
<circle cx="15739110.000000" cy="10817860.000000" r="50800.000000"/> 
</g>
<g style="fill-opacity: 1.0;stroke-width: 0.100000;stroke-opacity: 1;stroke-linecap: round;stroke-linejoin: round">
<circle cx="15231110.000000" cy="9166860.000000" r="50800.000000"/> 
</g>
<g style="fill-opacity: 1.0;stroke-width: 0.100000;stroke-opacity: 1;stroke-linecap: round;stroke-linejoin: round">
<circle cx="14850110.000000" cy="9928860.000000" r="50800.000000"/> 
</g>
<g style="fill-opacity: 1.0;stroke-width: 0.100000;stroke-opacity: 1;stroke-linecap: round;stroke-linejoin: round">
<circle cx="14596110.000000" cy="10817860.000000" r="50800.000000"/> 
</g>
<g style="fill-opacity: 1.0;stroke-width: 0.100000;stroke-opacity: 1;stroke-linecap: round;stroke-linejoin: round">
<circle cx="14443710.000000" cy="11363960.000000" r="50800.000000"/> 
</g>
<g style="fill-opacity: 1.0;stroke-width: 0.100000;stroke-opacity: 1;stroke-linecap: round;stroke-linejoin: round">
<circle cx="14113510.000000" cy="10944860.000000" r="50800.000000"/> 
</g>
<g style="fill-opacity: 1.0;stroke-width: 0.100000;stroke-opacity: 1;stroke-linecap: round;stroke-linejoin: round">
<circle cx="14850110.000000" cy="10944860.000000" r="50800.000000"/> 
</g>
<g style="fill-opacity: 1.0;stroke-width: 0.100000;stroke-opacity: 1;stroke-linecap: round;stroke-linejoin: round">
<circle cx="13961110.000000" cy="9420860.000000" r="50800.000000"/> 
</g>
<g style="fill-opacity: 1.0;stroke-width: 0.100000;stroke-opacity: 1;stroke-linecap: round;stroke-linejoin: round">
<circle cx="13999210.000000" cy="11325860.000000" r="50800.000000"/> 
</g>
<g style="fill-opacity: 1.0;stroke-width: 0.100000;stroke-opacity: 1;stroke-linecap: round;stroke-linejoin: round">
<circle cx="15612110.000000" cy="10817860.000000" r="50800.000000"/> 
</g>
<g style="fill-opacity: 1.0;stroke-width: 0.100000;stroke-opacity: 1;stroke-linecap: round;stroke-linejoin: round">
<circle cx="14456410.000000" cy="10690860.000000" r="50800.000000"/> 
</g>
<g style="fill-opacity: 1.0;stroke-width: 0.100000;stroke-opacity: 1;stroke-linecap: round;stroke-linejoin: round">
<circle cx="14599410.000000" cy="10536170.000000" r="50800.000000"/> 
</g>
<g style="fill-opacity: 1.0;stroke-width: 0.100000;stroke-opacity: 1;stroke-linecap: round;stroke-linejoin: round">
<circle cx="15104110.000000" cy="9039860.000000" r="50800.000000"/> 
</g>
<g style="fill-opacity: 1.0;stroke-width: 0.100000;stroke-opacity: 1;stroke-linecap: round;stroke-linejoin: round">
<circle cx="14723110.000000" cy="10627360.000000" r="50800.000000"/> 
</g>
<g style="fill-opacity: 1.0;stroke-width: 0.100000;stroke-opacity: 1;stroke-linecap: round;stroke-linejoin: round">
<circle cx="14215110.000000" cy="10690860.000000" r="50800.000000"/> 
</g>
<g style="fill-opacity: 1.0;stroke-width: 0.100000;stroke-opacity: 1;stroke-linecap: round;stroke-linejoin: round">
<circle cx="14723110.000000" cy="11452860.000000" r="50800.000000"/> 
</g>
<g style="fill-opacity: 1.0;stroke-width: 0.100000;stroke-opacity: 1;stroke-linecap: round;stroke-linejoin: round">
<circle cx="15292830.000000" cy="9675620.000000" r="50800.000000"/> 
</g>
<g style="fill-opacity: 0.0;stroke-width: 20320.000000;stroke-opacity: 1;stroke-linecap: round;stroke-linejoin: round">
<path d="M14850110 10944860 L14113510 10944860 "/>
<path d="M13999210 11325860 L13961110 11287760 "/>
<path d="M13961110 11287760 L13961110 9420860 "/>
<path d="M15586710 10792460 L15612110 10817860 "/>
<path d="M15523210 10728960 L15612110 10817860 "/>
<path d="M14570710 10728960 L15523210 10728960 "/>
<path d="M14456410 10690860 L14532610 10690860 "/>
<path d="M14532610 10690860 L14570710 10728960 "/>
<path d="M14599410 10536170 L14623800 10536170 "/>
<path d="M15104110 10055860 L15104110 9039860 "/>
<path d="M14623800 10536170 L15104110 10055860 "/>
<path d="M14507210 10601960 L14304010 10601960 "/>
</g>
<g style="fill-opacity: 0.0;stroke-width: 25400.000000;stroke-opacity: 1;stroke-linecap: round;stroke-linejoin: round">
<path d="M15485110 11579860 L15485110 11960860 "/>
</g>
<g style="fill-opacity: 0.0;stroke-width: 20320.000000;stroke-opacity: 1;stroke-linecap: round;stroke-linejoin: round">
<path d="M15167610 10627360 L15292830 10502140 "/>
<path d="M15292830 10502140 L15292830 9675620 "/>
<path d="M14011910 11122660 L14342110 11452860 "/>
</g>
<g style="fill-opacity: 0.0;stroke-width: 25400.000000;stroke-opacity: 1;stroke-linecap: round;stroke-linejoin: round">
<path d="M14723110 11452860 L15358110 11452860 "/>
<path d="M15358110 11452860 L15485110 11579860 "/>
</g>
<g style="fill-opacity: 0.0;stroke-width: 20320.000000;stroke-opacity: 1;stroke-linecap: round;stroke-linejoin: round">
<path d="M14011910 11122660 L14011910 10767060 "/>
<path d="M14723110 10627360 L14532610 10627360 "/>
<path d="M14011910 10767060 L14088110 10690860 "/>
<path d="M14532610 10627360 L14507210 10601960 "/>
<path d="M14088110 10690860 L14215110 10690860 "/>
<path d="M14723110 10627360 L15167610 10627360 "/>
<path d="M14304010 10601960 L14215110 10690860 "/>
<path d="M14342110 11452860 L14723110 11452860 "/>
</g>
</g> 
</g><g id="substrate-pads" style="fill:#b5ae30; stroke:#b5ae30;" mask="url(#pads-mask)"><g style="fill-opacity: 0.0;stroke-width: 25400.000000;stroke-opacity: 1;stroke-linecap: round;stroke-linejoin: round">
<text x="15840710.000000" y="9128760.000000" transform="scale(-1 1) translate(-31681420.000000 0)" textLength="237913.300000" font-size="135466.600000" lengthAdjust="spacingAndGlyphs" text-anchor="start" opacity="0">v13</text>
<g class="stroked-text"><desc>v13</desc>
<path d="M15809685 9056188 L15785495 9123921 L15761304 9056188 "/>
<path d="M15669380 9123921 L15727438 9123921 "/>
<path d="M15698409 9123921 L15698409 9022321 L15708085 9036836 L15717761 9046512 L15727438 9051350 "/>
<path d="M15635514 9022321 L15572619 9022321 L15606485 9061026 L15591971 9061026 L15582295 9065864 L15577457 9070702 L15572619 9080379 L15572619 9104569 L15577457 9114245 L15582295 9119083 L15591971 9123921 L15621000 9123921 L15630676 9119083 L15635514 9114245 "/>
</g><g style="fill-opacity: 1.0;stroke-width: 0.100000;stroke-opacity: 1;stroke-linecap: round;stroke-linejoin: round">
<path style="fill-opacity: 1.0;stroke-width: 0.100000;stroke-opacity: 1;stroke-linecap: round;stroke-linejoin: round;fill-rule: evenodd" d="M 14055090.000000,12054840.000000 13867130.000000,12054840.000000 13867130.000000,11866880.000000 14055090.000000,11866880.000000 Z"/> 
<circle cx="14215110.000000" cy="11960860.000000" r="93980.000000"/> 
</g>
<g style="fill-opacity: 1.0;stroke-width: 0.100000;stroke-opacity: 1;stroke-linecap: round;stroke-linejoin: round">
<circle cx="14469110.000000" cy="11960860.000000" r="93980.000000"/> 
</g>
<g style="fill-opacity: 1.0;stroke-width: 0.100000;stroke-opacity: 1;stroke-linecap: round;stroke-linejoin: round">
<circle cx="14723110.000000" cy="11960860.000000" r="93980.000000"/> 
</g>
<g style="fill-opacity: 1.0;stroke-width: 0.100000;stroke-opacity: 1;stroke-linecap: round;stroke-linejoin: round">
<circle cx="14977110.000000" cy="11960860.000000" r="93980.000000"/> 
</g>
<g style="fill-opacity: 1.0;stroke-width: 0.100000;stroke-opacity: 1;stroke-linecap: round;stroke-linejoin: round">
<circle cx="15231110.000000" cy="11960860.000000" r="93980.000000"/> 
</g>
<g style="fill-opacity: 1.0;stroke-width: 0.100000;stroke-opacity: 1;stroke-linecap: round;stroke-linejoin: round">
<circle cx="15485110.000000" cy="11960860.000000" r="93980.000000"/> 
</g>
<g style="fill-opacity: 1.0;stroke-width: 0.100000;stroke-opacity: 1;stroke-linecap: round;stroke-linejoin: round">
<circle cx="15739110.000000" cy="11960860.000000" r="93980.000000"/> 
</g>
<g style="fill-opacity: 1.0;stroke-width: 0.100000;stroke-opacity: 1;stroke-linecap: round;stroke-linejoin: round">
<circle cx="15612110.000000" cy="9928860.000000" r="50800.000000"/> 
</g>
<g style="fill-opacity: 1.0;stroke-width: 0.100000;stroke-opacity: 1;stroke-linecap: round;stroke-linejoin: round">
<circle cx="15104110.000000" cy="11071860.000000" r="50800.000000"/> 
</g>
<g style="fill-opacity: 1.0;stroke-width: 0.100000;stroke-opacity: 1;stroke-linecap: round;stroke-linejoin: round">
<circle cx="14088110.000000" cy="11579860.000000" r="50800.000000"/> 
</g>
<g style="fill-opacity: 1.0;stroke-width: 0.100000;stroke-opacity: 1;stroke-linecap: round;stroke-linejoin: round">
<circle cx="14342110.000000" cy="10817860.000000" r="50800.000000"/> 
</g>
<g style="fill-opacity: 1.0;stroke-width: 0.100000;stroke-opacity: 1;stroke-linecap: round;stroke-linejoin: round">
<circle cx="15739110.000000" cy="10817860.000000" r="50800.000000"/> 
</g>
<g style="fill-opacity: 1.0;stroke-width: 0.100000;stroke-opacity: 1;stroke-linecap: round;stroke-linejoin: round">
<circle cx="15231110.000000" cy="9166860.000000" r="50800.000000"/> 
</g>
<g style="fill-opacity: 1.0;stroke-width: 0.100000;stroke-opacity: 1;stroke-linecap: round;stroke-linejoin: round">
<circle cx="14850110.000000" cy="9928860.000000" r="50800.000000"/> 
</g>
<g style="fill-opacity: 1.0;stroke-width: 0.100000;stroke-opacity: 1;stroke-linecap: round;stroke-linejoin: round">
<circle cx="14596110.000000" cy="10817860.000000" r="50800.000000"/> 
</g>
<g style="fill-opacity: 1.0;stroke-width: 0.100000;stroke-opacity: 1;stroke-linecap: round;stroke-linejoin: round">
<circle cx="14443710.000000" cy="11363960.000000" r="50800.000000"/> 
</g>
<g style="fill-opacity: 1.0;stroke-width: 0.100000;stroke-opacity: 1;stroke-linecap: round;stroke-linejoin: round">
<circle cx="14113510.000000" cy="10944860.000000" r="50800.000000"/> 
</g>
<g style="fill-opacity: 1.0;stroke-width: 0.100000;stroke-opacity: 1;stroke-linecap: round;stroke-linejoin: round">
<circle cx="14850110.000000" cy="10944860.000000" r="50800.000000"/> 
</g>
<g style="fill-opacity: 1.0;stroke-width: 0.100000;stroke-opacity: 1;stroke-linecap: round;stroke-linejoin: round">
<circle cx="13961110.000000" cy="9420860.000000" r="50800.000000"/> 
</g>
<g style="fill-opacity: 1.0;stroke-width: 0.100000;stroke-opacity: 1;stroke-linecap: round;stroke-linejoin: round">
<circle cx="13999210.000000" cy="11325860.000000" r="50800.000000"/> 
</g>
<g style="fill-opacity: 1.0;stroke-width: 0.100000;stroke-opacity: 1;stroke-linecap: round;stroke-linejoin: round">
<circle cx="15612110.000000" cy="10817860.000000" r="50800.000000"/> 
</g>
<g style="fill-opacity: 1.0;stroke-width: 0.100000;stroke-opacity: 1;stroke-linecap: round;stroke-linejoin: round">
<circle cx="14456410.000000" cy="10690860.000000" r="50800.000000"/> 
</g>
<g style="fill-opacity: 1.0;stroke-width: 0.100000;stroke-opacity: 1;stroke-linecap: round;stroke-linejoin: round">
<circle cx="14599410.000000" cy="10536170.000000" r="50800.000000"/> 
</g>
<g style="fill-opacity: 1.0;stroke-width: 0.100000;stroke-opacity: 1;stroke-linecap: round;stroke-linejoin: round">
<circle cx="15104110.000000" cy="9039860.000000" r="50800.000000"/> 
</g>
<g style="fill-opacity: 1.0;stroke-width: 0.100000;stroke-opacity: 1;stroke-linecap: round;stroke-linejoin: round">
<circle cx="14723110.000000" cy="10627360.000000" r="50800.000000"/> 
</g>
<g style="fill-opacity: 1.0;stroke-width: 0.100000;stroke-opacity: 1;stroke-linecap: round;stroke-linejoin: round">
<circle cx="14215110.000000" cy="10690860.000000" r="50800.000000"/> 
</g>
<g style="fill-opacity: 1.0;stroke-width: 0.100000;stroke-opacity: 1;stroke-linecap: round;stroke-linejoin: round">
<circle cx="14723110.000000" cy="11452860.000000" r="50800.000000"/> 
</g>
<g style="fill-opacity: 1.0;stroke-width: 0.100000;stroke-opacity: 1;stroke-linecap: round;stroke-linejoin: round">
<circle cx="15292830.000000" cy="9675620.000000" r="50800.000000"/> 
</g>
<g style="fill-opacity: 0.0;stroke-width: 20320.000000;stroke-opacity: 1;stroke-linecap: round;stroke-linejoin: round">
<path d="M14850110 10944860 L14113510 10944860 "/>
<path d="M13999210 11325860 L13961110 11287760 "/>
<path d="M13961110 11287760 L13961110 9420860 "/>
<path d="M15586710 10792460 L15612110 10817860 "/>
<path d="M15523210 10728960 L15612110 10817860 "/>
<path d="M14570710 10728960 L15523210 10728960 "/>
<path d="M14456410 10690860 L14532610 10690860 "/>
<path d="M14532610 10690860 L14570710 10728960 "/>
<path d="M14599410 10536170 L14623800 10536170 "/>
<path d="M15104110 10055860 L15104110 9039860 "/>
<path d="M14623800 10536170 L15104110 10055860 "/>
<path d="M14507210 10601960 L14304010 10601960 "/>
</g>
<g style="fill-opacity: 0.0;stroke-width: 25400.000000;stroke-opacity: 1;stroke-linecap: round;stroke-linejoin: round">
<path d="M15485110 11579860 L15485110 11960860 "/>
</g>
<g style="fill-opacity: 0.0;stroke-width: 20320.000000;stroke-opacity: 1;stroke-linecap: round;stroke-linejoin: round">
<path d="M15167610 10627360 L15292830 10502140 "/>
<path d="M15292830 10502140 L15292830 9675620 "/>
<path d="M14011910 11122660 L14342110 11452860 "/>
</g>
<g style="fill-opacity: 0.0;stroke-width: 25400.000000;stroke-opacity: 1;stroke-linecap: round;stroke-linejoin: round">
<path d="M14723110 11452860 L15358110 11452860 "/>
<path d="M15358110 11452860 L15485110 11579860 "/>
</g>
<g style="fill-opacity: 0.0;stroke-width: 20320.000000;stroke-opacity: 1;stroke-linecap: round;stroke-linejoin: round">
<path d="M14011910 11122660 L14011910 10767060 "/>
<path d="M14723110 10627360 L14532610 10627360 "/>
<path d="M14011910 10767060 L14088110 10690860 "/>
<path d="M14532610 10627360 L14507210 10601960 "/>
<path d="M14088110 10690860 L14215110 10690860 "/>
<path d="M14723110 10627360 L15167610 10627360 "/>
<path d="M14304010 10601960 L14215110 10690860 "/>
<path d="M14342110 11452860 L14723110 11452860 "/>
</g>
</g> 
</g><g id="substrate-silk" style="fill:#f0f0f0; stroke:#f0f0f0;" mask="url(#pads-mask-silkscreen)"><g style="fill-opacity: 0.0;stroke-width: 19050.000000;stroke-opacity: 1;stroke-linecap: round;stroke-linejoin: round">
<g transform="rotate(90.000000 14913610.000000 11821160.000000)">
<text x="14913610.000000" y="11821160.000000" transform="scale(-1 1) translate(-29827220.000000 0)" textLength="373077.600000" font-size="143933.300000" lengthAdjust="spacingAndGlyphs" text-anchor="start" opacity="0">SCLK</text>
</g>
<g class="stroked-text"><desc>SCLK</desc>
<path d="M14923890 11788215 L14918750 11772794 L14918750 11747091 L14923890 11736810 L14929031 11731670 L14939312 11726529 L14949593 11726529 L14959874 11731670 L14965014 11736810 L14970155 11747091 L14975295 11767653 L14980436 11777934 L14985576 11783075 L14995857 11788215 L15006138 11788215 L15016419 11783075 L15021560 11777934 L15026700 11767653 L15026700 11741951 L15021560 11726529 "/>
<path d="M14929031 11618579 L14923890 11623720 L14918750 11639141 L14918750 11649422 L14923890 11664844 L14934171 11675125 L14944452 11680265 L14965014 11685406 L14980436 11685406 L15000998 11680265 L15011279 11675125 L15021560 11664844 L15026700 11649422 L15026700 11639141 L15021560 11623720 L15016419 11618579 "/>
<path d="M14918750 11520910 L14918750 11572315 L15026700 11572315 "/>
<path d="M14918750 11484927 L15026700 11484927 "/>
<path d="M14918750 11423241 L14980436 11469506 "/>
<path d="M15026700 11423241 L14965014 11484927 "/>
</g><g transform="rotate(90.000000 14151610.000000 11821160.000000)">
<text x="14151610.000000" y="11821160.000000" transform="scale(-1 1) translate(-28303220.000000 0)" textLength="458439.800000" font-size="143933.300000" lengthAdjust="spacingAndGlyphs" text-anchor="start" opacity="0">GPIO1</text>
</g>
<g class="stroked-text"><desc>GPIO1</desc>
<path d="M14259560 11726529 L14264700 11736810 L14264700 11752232 L14259560 11767653 L14249279 11777934 L14238998 11783075 L14218436 11788215 L14203014 11788215 L14182452 11783075 L14172171 11777934 L14161890 11767653 L14156750 11752232 L14156750 11741951 L14161890 11726529 L14167031 11721389 L14203014 11721389 L14203014 11741951 "/>
<path d="M14156750 11675125 L14264700 11675125 L14264700 11634001 L14259560 11623720 L14254419 11618579 L14244138 11613439 L14228717 11613439 L14218436 11618579 L14213295 11623720 L14208155 11634001 L14208155 11675125 "/>
<path d="M14156750 11567175 L14264700 11567175 "/>
<path d="M14264700 11495208 L14264700 11474646 L14259560 11464365 L14249279 11454084 L14228717 11448944 L14192733 11448944 L14172171 11454084 L14161890 11464365 L14156750 11474646 L14156750 11495208 L14161890 11505489 L14172171 11515770 L14192733 11520910 L14228717 11520910 L14249279 11515770 L14259560 11505489 L14264700 11495208 "/>
<path d="M14156750 11346134 L14156750 11407820 "/>
<path d="M14156750 11376977 L14264700 11376977 L14249279 11387258 L14238998 11397539 L14233857 11407820 "/>
</g><g transform="rotate(90.000000 14405610.000000 11821160.000000)">
<text x="14405610.000000" y="11821160.000000" transform="scale(-1 1) translate(-28811220.000000 0)" textLength="345349.300000" font-size="143933.300000" lengthAdjust="spacingAndGlyphs" text-anchor="start" opacity="0">~RST</text>
</g>
<g class="stroked-text"><desc>~RST</desc>
<path d="M14451874 11798496 L14457014 11793356 L14462155 11783075 L14451874 11762513 L14457014 11752232 L14462155 11747091 "/>
<path d="M14410750 11644282 L14462155 11680265 "/>
<path d="M14410750 11705967 L14518700 11705967 L14518700 11664844 L14513560 11654563 L14508419 11649422 L14498138 11644282 L14482717 11644282 L14472436 11649422 L14467295 11654563 L14462155 11664844 L14462155 11705967 "/>
<path d="M14415890 11603158 L14410750 11587737 L14410750 11562034 L14415890 11551753 L14421031 11546613 L14431312 11541472 L14441593 11541472 L14451874 11546613 L14457014 11551753 L14462155 11562034 L14467295 11582596 L14472436 11592877 L14477576 11598017 L14487857 11603158 L14498138 11603158 L14508419 11598017 L14513560 11592877 L14518700 11582596 L14518700 11556894 L14513560 11541472 "/>
<path d="M14518700 11510629 L14518700 11448944 "/>
<path d="M14410750 11479787 L14518700 11479787 "/>
</g><g transform="rotate(90.000000 15675610.000000 11821160.000000)">
<text x="15675610.000000" y="11821160.000000" transform="scale(-1 1) translate(-31351220.000000 0)" textLength="304225.500000" font-size="143933.300000" lengthAdjust="spacingAndGlyphs" text-anchor="start" opacity="0">GND</text>
</g>
<g class="stroked-text"><desc>GND</desc>
<path d="M15783560 11726529 L15788700 11736810 L15788700 11752232 L15783560 11767653 L15773279 11777934 L15762998 11783075 L15742436 11788215 L15727014 11788215 L15706452 11783075 L15696171 11777934 L15685890 11767653 L15680750 11752232 L15680750 11741951 L15685890 11726529 L15691031 11721389 L15727014 11721389 L15727014 11741951 "/>
<path d="M15680750 11675125 L15788700 11675125 L15680750 11613439 L15788700 11613439 "/>
<path d="M15680750 11562034 L15788700 11562034 L15788700 11536332 L15783560 11520910 L15773279 11510629 L15762998 11505489 L15742436 11500348 L15727014 11500348 L15706452 11505489 L15696171 11510629 L15685890 11520910 L15680750 11536332 L15680750 11562034 "/>
</g><g transform="rotate(90.000000 15421610.000000 11821160.000000)">
<text x="15421610.000000" y="11821160.000000" transform="scale(-1 1) translate(-30843220.000000 0)" textLength="324787.400000" font-size="143933.300000" lengthAdjust="spacingAndGlyphs" text-anchor="start" opacity="0">3.3V</text>
</g>
<g class="stroked-text"><desc>3.3V</desc>
<path d="M15534700 11793356 L15534700 11726529 L15493576 11762513 L15493576 11747091 L15488436 11736810 L15483295 11731670 L15473014 11726529 L15447312 11726529 L15437031 11731670 L15431890 11736810 L15426750 11747091 L15426750 11777934 L15431890 11788215 L15437031 11793356 "/>
<path d="M15437031 11680265 L15431890 11675125 L15426750 11680265 L15431890 11685406 L15437031 11680265 L15426750 11680265 "/>
<path d="M15534700 11639141 L15534700 11572315 L15493576 11608298 L15493576 11592877 L15488436 11582596 L15483295 11577456 L15473014 11572315 L15447312 11572315 L15437031 11577456 L15431890 11582596 L15426750 11592877 L15426750 11623720 L15431890 11634001 L15437031 11639141 "/>
<path d="M15534700 11541472 L15426750 11505489 L15534700 11469506 "/>
</g><g transform="rotate(90.000000 15167610.000000 11821160.000000)">
<text x="15167610.000000" y="11821160.000000" transform="scale(-1 1) translate(-30335220.000000 0)" textLength="350489.800000" font-size="143933.300000" lengthAdjust="spacingAndGlyphs" text-anchor="start" opacity="0">SDIO</text>
</g>
<g class="stroked-text"><desc>SDIO</desc>
<path d="M15177890 11788215 L15172750 11772794 L15172750 11747091 L15177890 11736810 L15183031 11731670 L15193312 11726529 L15203593 11726529 L15213874 11731670 L15219014 11736810 L15224155 11747091 L15229295 11767653 L15234436 11777934 L15239576 11783075 L15249857 11788215 L15260138 11788215 L15270419 11783075 L15275560 11777934 L15280700 11767653 L15280700 11741951 L15275560 11726529 "/>
<path d="M15172750 11680265 L15280700 11680265 L15280700 11654563 L15275560 11639141 L15265279 11628860 L15254998 11623720 L15234436 11618579 L15219014 11618579 L15198452 11623720 L15188171 11628860 L15177890 11639141 L15172750 11654563 L15172750 11680265 "/>
<path d="M15172750 11572315 L15280700 11572315 "/>
<path d="M15280700 11500348 L15280700 11479787 L15275560 11469506 L15265279 11459225 L15244717 11454084 L15208733 11454084 L15188171 11459225 L15177890 11469506 L15172750 11479787 L15172750 11500348 L15177890 11510629 L15188171 11520910 L15208733 11526051 L15244717 11526051 L15265279 11520910 L15275560 11510629 L15280700 11500348 "/>
</g><g transform="rotate(90.000000 13897610.000000 11821160.000000)">
<text x="13897610.000000" y="11821160.000000" transform="scale(-1 1) translate(-27795220.000000 0)" textLength="458439.800000" font-size="143933.300000" lengthAdjust="spacingAndGlyphs" text-anchor="start" opacity="0">GPIO2</text>
</g>
<g class="stroked-text"><desc>GPIO2</desc>
<path d="M14005560 11726529 L14010700 11736810 L14010700 11752232 L14005560 11767653 L13995279 11777934 L13984998 11783075 L13964436 11788215 L13949014 11788215 L13928452 11783075 L13918171 11777934 L13907890 11767653 L13902750 11752232 L13902750 11741951 L13907890 11726529 L13913031 11721389 L13949014 11721389 L13949014 11741951 "/>
<path d="M13902750 11675125 L14010700 11675125 L14010700 11634001 L14005560 11623720 L14000419 11618579 L13990138 11613439 L13974717 11613439 L13964436 11618579 L13959295 11623720 L13954155 11634001 L13954155 11675125 "/>
<path d="M13902750 11567175 L14010700 11567175 "/>
<path d="M14010700 11495208 L14010700 11474646 L14005560 11464365 L13995279 11454084 L13974717 11448944 L13938733 11448944 L13918171 11454084 L13907890 11464365 L13902750 11474646 L13902750 11495208 L13907890 11505489 L13918171 11515770 L13938733 11520910 L13974717 11520910 L13995279 11515770 L14005560 11505489 L14010700 11495208 "/>
<path d="M14000419 11407820 L14005560 11402679 L14010700 11392398 L14010700 11366696 L14005560 11356415 L14000419 11351275 L13990138 11346134 L13979857 11346134 L13964436 11351275 L13902750 11412960 L13902750 11346134 "/>
</g><g transform="rotate(90.000000 14659610.000000 11821160.000000)">
<text x="14659610.000000" y="11821160.000000" transform="scale(-1 1) translate(-29319220.000000 0)" textLength="365911.200000" font-size="143933.300000" lengthAdjust="spacingAndGlyphs" text-anchor="start" opacity="0">~SEN</text>
</g>
<g class="stroked-text"><desc>~SEN</desc>
<path d="M14705874 11798496 L14711014 11793356 L14716155 11783075 L14705874 11762513 L14711014 11752232 L14716155 11747091 "/>
<path d="M14669890 11711108 L14664750 11695687 L14664750 11669984 L14669890 11659703 L14675031 11654563 L14685312 11649422 L14695593 11649422 L14705874 11654563 L14711014 11659703 L14716155 11669984 L14721295 11690546 L14726436 11700827 L14731576 11705967 L14741857 11711108 L14752138 11711108 L14762419 11705967 L14767560 11700827 L14772700 11690546 L14772700 11664844 L14767560 11649422 "/>
<path d="M14721295 11603158 L14721295 11567175 "/>
<path d="M14664750 11551753 L14664750 11603158 L14772700 11603158 L14772700 11551753 "/>
<path d="M14664750 11505489 L14772700 11505489 L14664750 11443803 L14772700 11443803 "/>
</g></g>
<g style="fill-opacity: 1.0;stroke-width: 0.100000;stroke-opacity: 1;stroke-linecap: round;stroke-linejoin: round">
<path style="fill-opacity: 1.0;stroke-width: 0.100000;stroke-opacity: 1;stroke-linecap: round;stroke-linejoin: round;fill-rule: evenodd" d="M 15348310.000000,10301460.000000 15358310.000000,10303460.000000 15368310.000000,10308460.000000 15375310.000000,10314460.000000 15382310.000000,10322460.000000 15386310.000000,10332460.000000 15387310.000000,10344460.000000 15386310.000000,10353460.000000 15383310.000000,10360460.000000 15379310.000000,10366460.000000 15373310.000000,10370460.000000 15366310.000000,10374460.000000 15359310.000000,10377460.000000 15351310.000000,10380460.000000 15342310.000000,10382460.000000 15332310.000000,10384460.000000 15316310.000000,10388460.000000 15310310.000000,10390460.000000 15305310.000000,10393460.000000 15301310.000000,10396460.000000 15299310.000000,10400460.000000 15298310.000000,10404460.000000 15300310.000000,10412460.000000 15303310.000000,10415460.000000 15307310.000000,10418460.000000 15311310.000000,10420460.000000 15315310.000000,10421460.000000 15319310.000000,10421460.000000 15323310.000000,10422460.000000 15329310.000000,10421460.000000 15334310.000000,10420460.000000 15340310.000000,10419460.000000 15348310.000000,10413460.000000 15351310.000000,10409460.000000 15353310.000000,10404460.000000 15353310.000000,10398460.000000 15390310.000000,10398460.000000 15388310.000000,10411460.000000 15384310.000000,10421460.000000 15377310.000000,10430460.000000 15369310.000000,10437460.000000 15359310.000000,10442460.000000 15348310.000000,10445460.000000 15336310.000000,10447460.000000 15324310.000000,10448460.000000 15312310.000000,10447460.000000 15300310.000000,10445460.000000 15289310.000000,10442460.000000 15279310.000000,10437460.000000 15271310.000000,10430460.000000 15265310.000000,10422460.000000 15261310.000000,10411460.000000 15259310.000000,10398460.000000 15260310.000000,10389460.000000 15263310.000000,10382460.000000 15267310.000000,10376460.000000 15273310.000000,10371460.000000 15287310.000000,10363460.000000 15296310.000000,10361460.000000 15320310.000000,10355460.000000 15328310.000000,10354460.000000 15334310.000000,10352460.000000 15340310.000000,10349460.000000 15344310.000000,10346460.000000 15347310.000000,10342460.000000 15348310.000000,10338460.000000 15348310.000000,10334460.000000 15344310.000000,10328460.000000 15341310.000000,10327460.000000 15337310.000000,10326460.000000 15334310.000000,10325460.000000 15317310.000000,10325460.000000 15312310.000000,10327460.000000 15308310.000000,10329460.000000 15305310.000000,10331460.000000 15303310.000000,10334460.000000 15301310.000000,10339460.000000 15300310.000000,10344460.000000 15263310.000000,10344460.000000 15265310.000000,10332460.000000 15270310.000000,10322460.000000 15276310.000000,10314460.000000 15284310.000000,10308460.000000 15293310.000000,10304460.000000 15303310.000000,10301460.000000 15314310.000000,10299460.000000 15337310.000000,10299460.000000 Z"/> 
<path style="fill-opacity: 1.0;stroke-width: 0.100000;stroke-opacity: 1;stroke-linecap: round;stroke-linejoin: round;fill-rule: evenodd" d="M 15183310.000000,10301460.000000 15193310.000000,10307460.000000 15198310.000000,10311460.000000 15202310.000000,10315460.000000 15206310.000000,10320460.000000 15206310.000000,10302460.000000 15216310.000000,10304460.000000 15220310.000000,10305460.000000 15225310.000000,10306460.000000 15229310.000000,10307460.000000 15234310.000000,10307460.000000 15239310.000000,10308460.000000 15243310.000000,10309460.000000 15243310.000000,10494460.000000 15238310.000000,10498460.000000 15229310.000000,10507460.000000 15214310.000000,10519460.000000 15205310.000000,10528460.000000 15205310.000000,10426460.000000 15204310.000000,10426460.000000 15196310.000000,10436460.000000 15186310.000000,10442460.000000 15180310.000000,10445460.000000 15162310.000000,10448460.000000 15147310.000000,10446460.000000 15135310.000000,10442460.000000 15124310.000000,10434460.000000 15115310.000000,10425460.000000 15109310.000000,10414460.000000 15143310.000000,10398460.000000 15146310.000000,10405460.000000 15150310.000000,10410460.000000 15156310.000000,10415460.000000 15164310.000000,10417460.000000 15172310.000000,10418460.000000 15181310.000000,10417460.000000 15188310.000000,10415460.000000 15194310.000000,10410460.000000 15199310.000000,10405460.000000 15202310.000000,10398460.000000 15206310.000000,10382460.000000 15206310.000000,10365460.000000 15205310.000000,10357460.000000 15202310.000000,10349460.000000 15199310.000000,10342460.000000 15194310.000000,10336460.000000 15189310.000000,10332460.000000 15181310.000000,10329460.000000 15173310.000000,10328460.000000 15164310.000000,10329460.000000 15157310.000000,10332460.000000 15151310.000000,10336460.000000 15146310.000000,10342460.000000 15143310.000000,10349460.000000 15140310.000000,10357460.000000 15139310.000000,10365460.000000 15139310.000000,10374460.000000 15100310.000000,10375460.000000 15101310.000000,10360460.000000 15104310.000000,10346460.000000 15108310.000000,10333460.000000 15115310.000000,10322460.000000 15124310.000000,10312460.000000 15135310.000000,10305460.000000 15149310.000000,10300460.000000 15164310.000000,10299460.000000 15171310.000000,10299460.000000 Z"/> 
<path style="fill-opacity: 1.0;stroke-width: 0.100000;stroke-opacity: 1;stroke-linecap: round;stroke-linejoin: round;fill-rule: evenodd" d="M 14638310.000000,10252460.000000 14646310.000000,10256460.000000 14653310.000000,10261460.000000 14658310.000000,10267460.000000 14661310.000000,10274460.000000 14664310.000000,10282460.000000 14664310.000000,10302460.000000 14676310.000000,10302460.000000 14679310.000000,10306460.000000 14683310.000000,10309460.000000 14699310.000000,10325460.000000 14703310.000000,10328460.000000 14664310.000000,10328460.000000 14664310.000000,10444460.000000 14626310.000000,10444460.000000 14626310.000000,10328460.000000 14599310.000000,10328460.000000 14599310.000000,10302460.000000 14626310.000000,10302460.000000 14626310.000000,10294460.000000 14625310.000000,10290460.000000 14625310.000000,10286460.000000 14624310.000000,10284460.000000 14622310.000000,10281460.000000 14618310.000000,10279460.000000 14614310.000000,10278460.000000 14597310.000000,10278460.000000 14597310.000000,10250460.000000 14599310.000000,10249460.000000 14628310.000000,10249460.000000 Z"/> 
<path style="fill-opacity: 1.0;stroke-width: 0.100000;stroke-opacity: 1;stroke-linecap: round;stroke-linejoin: round;fill-rule: evenodd" d="M 14669310.000000,10021460.000000 14680310.000000,10027460.000000 14689310.000000,10035460.000000 14694310.000000,10042460.000000 14697310.000000,10051460.000000 14697310.000000,10059460.000000 14695310.000000,10068460.000000 14690310.000000,10077460.000000 14683310.000000,10085460.000000 14675310.000000,10094460.000000 14668310.000000,10102460.000000 14665310.000000,10109460.000000 14665310.000000,10116460.000000 14667310.000000,10122460.000000 14671310.000000,10127460.000000 14677310.000000,10131460.000000 14685310.000000,10133460.000000 14693310.000000,10133460.000000 14698310.000000,10132460.000000 14703310.000000,10130460.000000 14706310.000000,10128460.000000 14709310.000000,10125460.000000 14711310.000000,10121460.000000 14712310.000000,10118460.000000 14712310.000000,10115460.000000 14711310.000000,10112460.000000 14709310.000000,10109460.000000 14705310.000000,10105460.000000 14702310.000000,10104460.000000 14698310.000000,10102460.000000 14697310.000000,10101460.000000 14699310.000000,10100460.000000 14701310.000000,10100460.000000 14705310.000000,10099460.000000 14713310.000000,10099460.000000 14719310.000000,10100460.000000 14729310.000000,10104460.000000 14733310.000000,10107460.000000 14738310.000000,10110460.000000 14741310.000000,10115460.000000 14744310.000000,10121460.000000 14746310.000000,10127460.000000 14748310.000000,10145460.000000 14748310.000000,10273460.000000 14747310.000000,10273460.000000 14745310.000000,10270460.000000 14742310.000000,10267460.000000 14739310.000000,10263460.000000 14734310.000000,10258460.000000 14729310.000000,10252460.000000 14723310.000000,10246460.000000 14718310.000000,10239460.000000 14705310.000000,10226460.000000 14700310.000000,10220460.000000 14690310.000000,10212460.000000 14685310.000000,10209460.000000 14679310.000000,10208460.000000 14660310.000000,10208460.000000 14648310.000000,10206460.000000 14637310.000000,10203460.000000 14627310.000000,10199460.000000 14617310.000000,10193460.000000 14609310.000000,10186460.000000 14601310.000000,10178460.000000 14594310.000000,10169460.000000 14584310.000000,10151460.000000 14579310.000000,10133460.000000 14578310.000000,10115460.000000 14581310.000000,10099460.000000 14586310.000000,10085460.000000 14593310.000000,10073460.000000 14601310.000000,10064460.000000 14609310.000000,10060460.000000 14609310.000000,10068460.000000 14611310.000000,10074460.000000 14614310.000000,10076460.000000 14617310.000000,10077460.000000 14624310.000000,10077460.000000 14632310.000000,10073460.000000 14635310.000000,10071460.000000 14639310.000000,10068460.000000 14642310.000000,10066460.000000 14645310.000000,10063460.000000 14647310.000000,10059460.000000 14649310.000000,10056460.000000 14650310.000000,10052460.000000 14651310.000000,10049460.000000 14650310.000000,10046460.000000 14649310.000000,10044460.000000 14648310.000000,10041460.000000 14646310.000000,10038460.000000 14642310.000000,10035460.000000 14638310.000000,10033460.000000 14633310.000000,10032460.000000 14629310.000000,10031460.000000 14626310.000000,10031460.000000 14623310.000000,10032460.000000 14620310.000000,10032460.000000 14621310.000000,10031460.000000 14625310.000000,10028460.000000 14631310.000000,10025460.000000 14639310.000000,10022460.000000 14648310.000000,10019460.000000 14658310.000000,10019460.000000 Z"/> 
<path style="fill-opacity: 1.0;stroke-width: 0.100000;stroke-opacity: 1;stroke-linecap: round;stroke-linejoin: round;fill-rule: evenodd" d="M 14494310.000000,10387460.000000 14495310.000000,10395460.000000 14498310.000000,10402460.000000 14501310.000000,10408460.000000 14505310.000000,10412460.000000 14510310.000000,10415460.000000 14516310.000000,10416460.000000 14524310.000000,10417460.000000 14530310.000000,10416460.000000 14535310.000000,10415460.000000 14540310.000000,10412460.000000 14546310.000000,10404460.000000 14547310.000000,10398460.000000 14549310.000000,10382460.000000 14549310.000000,10302460.000000 14587310.000000,10302460.000000 14587310.000000,10402460.000000 14585310.000000,10413460.000000 14582310.000000,10423460.000000 14577310.000000,10432460.000000 14570310.000000,10438460.000000 14561310.000000,10443460.000000 14550310.000000,10447460.000000 14536310.000000,10448460.000000 14530310.000000,10447460.000000 14523310.000000,10446460.000000 14517310.000000,10444460.000000 14512310.000000,10442460.000000 14506310.000000,10439460.000000 14501310.000000,10435460.000000 14497310.000000,10430460.000000 14493310.000000,10424460.000000 14492310.000000,10424460.000000 14492310.000000,10444460.000000 14455310.000000,10444460.000000 14455310.000000,10302460.000000 14494310.000000,10302460.000000 Z"/> 
<path style="fill-opacity: 1.0;stroke-width: 0.100000;stroke-opacity: 1;stroke-linecap: round;stroke-linejoin: round;fill-rule: evenodd" d="M 15035310.000000,10300460.000000 15041310.000000,10301460.000000 15047310.000000,10303460.000000 15052310.000000,10304460.000000 15057310.000000,10306460.000000 15067310.000000,10312460.000000 15071310.000000,10315460.000000 15074310.000000,10319460.000000 15077310.000000,10324460.000000 15080310.000000,10328460.000000 15082310.000000,10334460.000000 15084310.000000,10346460.000000 15045310.000000,10346460.000000 15045310.000000,10341460.000000 15044310.000000,10339460.000000 15043310.000000,10336460.000000 15042310.000000,10334460.000000 15038310.000000,10330460.000000 15028310.000000,10325460.000000 15010310.000000,10325460.000000 15008310.000000,10326460.000000 15006310.000000,10326460.000000 15000310.000000,10329460.000000 14999310.000000,10331460.000000 14998310.000000,10332460.000000 14995310.000000,10338460.000000 14995310.000000,10349460.000000 14998310.000000,10353460.000000 15003310.000000,10356460.000000 15009310.000000,10358460.000000 15016310.000000,10360460.000000 15011310.000000,10380460.000000 15007310.000000,10380460.000000 15005310.000000,10379460.000000 15003310.000000,10379460.000000 14999310.000000,10377460.000000 14997310.000000,10377460.000000 14995310.000000,10375460.000000 14995310.000000,10398460.000000 14996310.000000,10401460.000000 14997310.000000,10403460.000000 14999310.000000,10409460.000000 15001310.000000,10411460.000000 15003310.000000,10414460.000000 15005310.000000,10416460.000000 15008310.000000,10418460.000000 15012310.000000,10419460.000000 15016310.000000,10421460.000000 15021310.000000,10421460.000000 15026310.000000,10422460.000000 15031310.000000,10422460.000000 15033310.000000,10421460.000000 15035310.000000,10421460.000000 15037310.000000,10420460.000000 15039310.000000,10420460.000000 15043310.000000,10418460.000000 15044310.000000,10417460.000000 15046310.000000,10416460.000000 15047310.000000,10414460.000000 15048310.000000,10413460.000000 15049310.000000,10411460.000000 15049310.000000,10409460.000000 15050310.000000,10406460.000000 15050310.000000,10401460.000000 15049310.000000,10399460.000000 15049310.000000,10397460.000000 15046310.000000,10391460.000000 15044310.000000,10390460.000000 15043310.000000,10389460.000000 15039310.000000,10387460.000000 15038310.000000,10386460.000000 15036310.000000,10385460.000000 15033310.000000,10384460.000000 15041310.000000,10363460.000000 15050310.000000,10364460.000000 15058310.000000,10366460.000000 15066310.000000,10369460.000000 15073310.000000,10373460.000000 15080310.000000,10379460.000000 15084310.000000,10386460.000000 15087310.000000,10395460.000000 15089310.000000,10406460.000000 15088310.000000,10411460.000000 15088310.000000,10416460.000000 15086310.000000,10420460.000000 15085310.000000,10425460.000000 15083310.000000,10428460.000000 15080310.000000,10432460.000000 15078310.000000,10435460.000000 15075310.000000,10438460.000000 15071310.000000,10440460.000000 15068310.000000,10442460.000000 15064310.000000,10444460.000000 15059310.000000,10446460.000000 15055310.000000,10447460.000000 15050310.000000,10447460.000000 15045310.000000,10448460.000000 15034310.000000,10448460.000000 15031310.000000,10447460.000000 15027310.000000,10447460.000000 15024310.000000,10446460.000000 15021310.000000,10446460.000000 15009310.000000,10442460.000000 15006310.000000,10440460.000000 15003310.000000,10439460.000000 15000310.000000,10437460.000000 14998310.000000,10435460.000000 14995310.000000,10433460.000000 14993310.000000,10430460.000000 14993310.000000,10436460.000000 14992310.000000,10437460.000000 14992310.000000,10440460.000000 14991310.000000,10441460.000000 14991310.000000,10442460.000000 14990310.000000,10443460.000000 14990310.000000,10444460.000000 14951310.000000,10444460.000000 14951310.000000,10443460.000000 14952310.000000,10442460.000000 14953310.000000,10440460.000000 14953310.000000,10437460.000000 14954310.000000,10435460.000000 14954310.000000,10433460.000000 14955310.000000,10431460.000000 14955310.000000,10422460.000000 14956310.000000,10420460.000000 14956310.000000,10333460.000000 14957310.000000,10328460.000000 14959310.000000,10323460.000000 14961310.000000,10319460.000000 14964310.000000,10315460.000000 14976310.000000,10306460.000000 14981310.000000,10304460.000000 14986310.000000,10303460.000000 14991310.000000,10301460.000000 14996310.000000,10300460.000000 15002310.000000,10300460.000000 15007310.000000,10299460.000000 15030310.000000,10299460.000000 Z"/> 
<path style="fill-opacity: 1.0;stroke-width: 0.100000;stroke-opacity: 1;stroke-linecap: round;stroke-linejoin: round;fill-rule: evenodd" d="M 14828310.000000,10270460.000000 14828310.000000,10444460.000000 14789310.000000,10444460.000000 14789310.000000,10395460.000000 14774310.000000,10381460.000000 14735310.000000,10444460.000000 14688310.000000,10444460.000000 14747310.000000,10354460.000000 14694310.000000,10302460.000000 14740310.000000,10302460.000000 14789310.000000,10353460.000000 14789310.000000,10249460.000000 Z"/> 
<path style="fill-opacity: 1.0;stroke-width: 0.100000;stroke-opacity: 1;stroke-linecap: round;stroke-linejoin: round;fill-rule: evenodd" d="M 14365310.000000,10300460.000000 14377310.000000,10304460.000000 14383310.000000,10308460.000000 14388310.000000,10312460.000000 14392310.000000,10316460.000000 14396310.000000,10322460.000000 14397310.000000,10322460.000000 14397310.000000,10302460.000000 14434310.000000,10302460.000000 14434310.000000,10444460.000000 14395310.000000,10444460.000000 14395310.000000,10360460.000000 14394310.000000,10351460.000000 14391310.000000,10344460.000000 14388310.000000,10339460.000000 14384310.000000,10334460.000000 14379310.000000,10331460.000000 14373310.000000,10330460.000000 14365310.000000,10329460.000000 14359310.000000,10330460.000000 14354310.000000,10331460.000000 14349310.000000,10334460.000000 14346310.000000,10338460.000000 14343310.000000,10343460.000000 14342310.000000,10349460.000000 14341310.000000,10356460.000000 14340310.000000,10364460.000000 14340310.000000,10444460.000000 14301310.000000,10444460.000000 14301310.000000,10357460.000000 14302310.000000,10344460.000000 14304310.000000,10333460.000000 14307310.000000,10323460.000000 14312310.000000,10315460.000000 14319310.000000,10308460.000000 14328310.000000,10303460.000000 14339310.000000,10300460.000000 14353310.000000,10299460.000000 14359310.000000,10299460.000000 Z"/> 
<path style="fill-opacity: 1.0;stroke-width: 0.100000;stroke-opacity: 1;stroke-linecap: round;stroke-linejoin: round;fill-rule: evenodd" d="M 14866310.000000,10301460.000000 14872310.000000,10303460.000000 14879310.000000,10307460.000000 14884310.000000,10311460.000000 14889310.000000,10317460.000000 14893310.000000,10322460.000000 14897310.000000,10329460.000000 14897310.000000,10302460.000000 14901310.000000,10303460.000000 14911310.000000,10305460.000000 14915310.000000,10306460.000000 14920310.000000,10307460.000000 14925310.000000,10307460.000000 14929310.000000,10308460.000000 14934310.000000,10309460.000000 14934310.000000,10444460.000000 14895310.000000,10444460.000000 14895310.000000,10371460.000000 14893310.000000,10362460.000000 14891310.000000,10355460.000000 14887310.000000,10348460.000000 14882310.000000,10342460.000000 14875310.000000,10338460.000000 14867310.000000,10336460.000000 14857310.000000,10335460.000000 14846310.000000,10335460.000000 14844310.000000,10336460.000000 14843310.000000,10336460.000000 14843310.000000,10300460.000000 14844310.000000,10300460.000000 14845310.000000,10299460.000000 14859310.000000,10299460.000000 Z"/> 
<path style="fill-opacity: 1.0;stroke-width: 0.100000;stroke-opacity: 1;stroke-linecap: round;stroke-linejoin: round;fill-rule: evenodd" d="M 15139310.000000,10382460.000000 15140310.000000,10390460.000000 15143310.000000,10398460.000000 15109310.000000,10414460.000000 15104310.000000,10402460.000000 15101310.000000,10389460.000000 15100310.000000,10375460.000000 15139310.000000,10374460.000000 Z"/> 
<path style="fill-opacity: 1.0;stroke-width: 0.100000;stroke-opacity: 1;stroke-linecap: round;stroke-linejoin: round;fill-rule: evenodd" d="M 15023310.000000,10361460.000000 15041310.000000,10363460.000000 15033310.000000,10384460.000000 15031310.000000,10384460.000000 15029310.000000,10383460.000000 15025310.000000,10383460.000000 15022310.000000,10382460.000000 15018310.000000,10382460.000000 15015310.000000,10381460.000000 15013310.000000,10381460.000000 15011310.000000,10380460.000000 15016310.000000,10360460.000000 Z"/> 
<path style="fill-opacity: 1.0;stroke-width: 0.100000;stroke-opacity: 1;stroke-linecap: round;stroke-linejoin: round;fill-rule: evenodd" d="M 15680418.400000,9277055.400000 15703592.300000,9286656.500000 15743072.000000,9254465.400000 15778504.600000,9289898.000000 15746313.500000,9329377.700000 15755914.600000,9352551.600000 15806590.000000,9357703.900000 15806590.000000,9407816.100000 15755914.600000,9412968.400000 15746313.500000,9436142.300000 15778504.600000,9475622.000000 15743072.000000,9511054.600000 15704102.200000,9479279.200000 15700869.700000,9481117.700000 15685743.200000,9488133.200000 15663139.000000,9433570.000000 15641042.300000,9433570.000000 15675141.200000,9413137.300000 15682502.300000,9405016.500000 15689427.600000,9382183.300000 15687891.300000,9371603.100000 15683168.900000,9361363.800000 15675733.400000,9352887.600000 15666196.800000,9346871.900000 15655344.200000,9343812.000000 15644069.400000,9343960.100000 15633301.300000,9347303.900000 15623925.800000,9353568.200000 15616715.300000,9362237.100000 15612263.600000,9372596.600000 15610937.100000,9383793.900000 15612845.100000,9394906.800000 15617583.800000,9404520.000000 15641342.100000,9423767.300000 15614549.900000,9488439.400000 15596492.300000,9479137.000000 15557348.000000,9511054.600000 15521915.400000,9475622.000000 15554106.500000,9436142.300000 15544505.400000,9412968.400000 15493830.000000,9407816.100000 15493830.000000,9357703.900000 15544505.400000,9352551.600000 15554106.500000,9329377.700000 15521915.400000,9289898.000000 15557348.000000,9254465.400000 15596492.300000,9286383.100000 15607863.000000,9280525.600000 15620045.300000,9276624.900000 15625153.900000,9226380.000000 15675266.100000,9226380.000000 Z"/> 
</g> 
</g><g id="substrate-outline" style="fill:#000000; stroke:#000000; stroke-width: 15000.0"><g style="fill-opacity: 0.0;stroke-opacity: 1;stroke-linecap: round;stroke-linejoin: round">
<path d="M13707110 8912860 L13707110 12087860 "/>
<path d="M15993110 8912860 L13707110 8912860 "/>
<path d="M15993110 12087860 L15993110 8912860 "/>
<path d="M13707110 12087860 L15993110 12087860 "/>
</g> 
<path d="M -100000.0 0.0 A 100000.0 100000.0 0 1 1 100000.0 0.0 L 100000.0 -0.0 A 100000.0 100000.0 0 1 1 -100000.0 -0.0 Z" transform="translate(14342110.0 9262860.0) rotate(-270.0)"/><path d="M -100000.0 0.0 A 100000.0 100000.0 0 1 1 100000.0 0.0 L 100000.0 -0.0 A 100000.0 100000.0 0 1 1 -100000.0 -0.0 Z" transform="translate(14342110.0 9962860.0) rotate(-270.0)"/><path d="M -50800.0 0.0 A 50800.0 50800.0 0 1 1 50800.0 0.0 L 50800.0 -0.0 A 50800.0 50800.0 0 1 1 -50800.0 -0.0 Z" transform="translate(13961110.0 11960860.0) rotate(-90.0)"/><path d="M -50800.0 0.0 A 50800.0 50800.0 0 1 1 50800.0 0.0 L 50800.0 -0.0 A 50800.0 50800.0 0 1 1 -50800.0 -0.0 Z" transform="translate(14215110.0 11960860.0) rotate(-90.0)"/><path d="M -50800.0 0.0 A 50800.0 50800.0 0 1 1 50800.0 0.0 L 50800.0 -0.0 A 50800.0 50800.0 0 1 1 -50800.0 -0.0 Z" transform="translate(14469110.0 11960860.0) rotate(-90.0)"/><path d="M -50800.0 0.0 A 50800.0 50800.0 0 1 1 50800.0 0.0 L 50800.0 -0.0 A 50800.0 50800.0 0 1 1 -50800.0 -0.0 Z" transform="translate(14723110.0 11960860.0) rotate(-90.0)"/><path d="M -50800.0 0.0 A 50800.0 50800.0 0 1 1 50800.0 0.0 L 50800.0 -0.0 A 50800.0 50800.0 0 1 1 -50800.0 -0.0 Z" transform="translate(14977110.0 11960860.0) rotate(-90.0)"/><path d="M -50800.0 0.0 A 50800.0 50800.0 0 1 1 50800.0 0.0 L 50800.0 -0.0 A 50800.0 50800.0 0 1 1 -50800.0 -0.0 Z" transform="translate(15231110.0 11960860.0) rotate(-90.0)"/><path d="M -50800.0 0.0 A 50800.0 50800.0 0 1 1 50800.0 0.0 L 50800.0 -0.0 A 50800.0 50800.0 0 1 1 -50800.0 -0.0 Z" transform="translate(15485110.0 11960860.0) rotate(-90.0)"/><path d="M -50800.0 0.0 A 50800.0 50800.0 0 1 1 50800.0 0.0 L 50800.0 -0.0 A 50800.0 50800.0 0 1 1 -50800.0 -0.0 Z" transform="translate(15739110.0 11960860.0) rotate(-90.0)"/><path d="M -25400.0 0.0 A 25400.0 25400.0 0 1 1 25400.0 0.0 L 25400.0 -0.0 A 25400.0 25400.0 0 1 1 -25400.0 -0.0 Z" transform="translate(15612110.0 9928860.0) rotate(0.0)"/><path d="M -25400.0 0.0 A 25400.0 25400.0 0 1 1 25400.0 0.0 L 25400.0 -0.0 A 25400.0 25400.0 0 1 1 -25400.0 -0.0 Z" transform="translate(15104110.0 11071860.0) rotate(0.0)"/><path d="M -25400.0 0.0 A 25400.0 25400.0 0 1 1 25400.0 0.0 L 25400.0 -0.0 A 25400.0 25400.0 0 1 1 -25400.0 -0.0 Z" transform="translate(14088110.0 11579860.0) rotate(0.0)"/><path d="M -25400.0 0.0 A 25400.0 25400.0 0 1 1 25400.0 0.0 L 25400.0 -0.0 A 25400.0 25400.0 0 1 1 -25400.0 -0.0 Z" transform="translate(14342110.0 10817860.0) rotate(0.0)"/><path d="M -25400.0 0.0 A 25400.0 25400.0 0 1 1 25400.0 0.0 L 25400.0 -0.0 A 25400.0 25400.0 0 1 1 -25400.0 -0.0 Z" transform="translate(15739110.0 10817860.0) rotate(0.0)"/><path d="M -25400.0 0.0 A 25400.0 25400.0 0 1 1 25400.0 0.0 L 25400.0 -0.0 A 25400.0 25400.0 0 1 1 -25400.0 -0.0 Z" transform="translate(15231110.0 9166860.0) rotate(0.0)"/><path d="M -25400.0 0.0 A 25400.0 25400.0 0 1 1 25400.0 0.0 L 25400.0 -0.0 A 25400.0 25400.0 0 1 1 -25400.0 -0.0 Z" transform="translate(14850110.0 9928860.0) rotate(0.0)"/><path d="M -25400.0 0.0 A 25400.0 25400.0 0 1 1 25400.0 0.0 L 25400.0 -0.0 A 25400.0 25400.0 0 1 1 -25400.0 -0.0 Z" transform="translate(14596110.0 10817860.0) rotate(0.0)"/><path d="M -25400.0 0.0 A 25400.0 25400.0 0 1 1 25400.0 0.0 L 25400.0 -0.0 A 25400.0 25400.0 0 1 1 -25400.0 -0.0 Z" transform="translate(14443710.0 11363960.0) rotate(0.0)"/><path d="M -25400.0 0.0 A 25400.0 25400.0 0 1 1 25400.0 0.0 L 25400.0 -0.0 A 25400.0 25400.0 0 1 1 -25400.0 -0.0 Z" transform="translate(14113510.0 10944860.0) rotate(0.0)"/><path d="M -25400.0 0.0 A 25400.0 25400.0 0 1 1 25400.0 0.0 L 25400.0 -0.0 A 25400.0 25400.0 0 1 1 -25400.0 -0.0 Z" transform="translate(14850110.0 10944860.0) rotate(0.0)"/><path d="M -25400.0 0.0 A 25400.0 25400.0 0 1 1 25400.0 0.0 L 25400.0 -0.0 A 25400.0 25400.0 0 1 1 -25400.0 -0.0 Z" transform="translate(13961110.0 9420860.0) rotate(0.0)"/><path d="M -25400.0 0.0 A 25400.0 25400.0 0 1 1 25400.0 0.0 L 25400.0 -0.0 A 25400.0 25400.0 0 1 1 -25400.0 -0.0 Z" transform="translate(13999210.0 11325860.0) rotate(0.0)"/><path d="M -25400.0 0.0 A 25400.0 25400.0 0 1 1 25400.0 0.0 L 25400.0 -0.0 A 25400.0 25400.0 0 1 1 -25400.0 -0.0 Z" transform="translate(15612110.0 10817860.0) rotate(0.0)"/><path d="M -25400.0 0.0 A 25400.0 25400.0 0 1 1 25400.0 0.0 L 25400.0 -0.0 A 25400.0 25400.0 0 1 1 -25400.0 -0.0 Z" transform="translate(14456410.0 10690860.0) rotate(0.0)"/><path d="M -25400.0 0.0 A 25400.0 25400.0 0 1 1 25400.0 0.0 L 25400.0 -0.0 A 25400.0 25400.0 0 1 1 -25400.0 -0.0 Z" transform="translate(14599410.0 10536170.0) rotate(0.0)"/><path d="M -25400.0 0.0 A 25400.0 25400.0 0 1 1 25400.0 0.0 L 25400.0 -0.0 A 25400.0 25400.0 0 1 1 -25400.0 -0.0 Z" transform="translate(15104110.0 9039860.0) rotate(0.0)"/><path d="M -25400.0 0.0 A 25400.0 25400.0 0 1 1 25400.0 0.0 L 25400.0 -0.0 A 25400.0 25400.0 0 1 1 -25400.0 -0.0 Z" transform="translate(14723110.0 10627360.0) rotate(0.0)"/><path d="M -25400.0 0.0 A 25400.0 25400.0 0 1 1 25400.0 0.0 L 25400.0 -0.0 A 25400.0 25400.0 0 1 1 -25400.0 -0.0 Z" transform="translate(14215110.0 10690860.0) rotate(0.0)"/><path d="M -25400.0 0.0 A 25400.0 25400.0 0 1 1 25400.0 0.0 L 25400.0 -0.0 A 25400.0 25400.0 0 1 1 -25400.0 -0.0 Z" transform="translate(14723110.0 11452860.0) rotate(0.0)"/><path d="M -25400.0 0.0 A 25400.0 25400.0 0 1 1 25400.0 0.0 L 25400.0 -0.0 A 25400.0 25400.0 0 1 1 -25400.0 -0.0 Z" transform="translate(15292830.0 9675620.0) rotate(0.0)"/></g></g></g></svg>