<!DOCTYPE svg PUBLIC "-//W3C//DTD SVG 1.1//EN" "http://www.w3.org/Graphics/SVG/1.1/DTD/svg11.dtd">
<svg xmlns="http://www.w3.org/2000/svg" version="1.1" width="13.33228mm" height="17.24mm" viewBox="-15458110.0 9638360.0 1333228.0 1724000.0">
            <title>Picture generated by PcbDraw </title>
            <desc>Picture generated by PcbDraw</desc>
        <defs><clipPath id="cut-off"><path d=" M 14342110.0 9992360.0 L 14342110.0 11262360.0 L 15358110.0 11262360.0 L 15358110.0 9992360.0 A 254000 254000 0 0 0 15104110.0 9738360.0 L 14596110.0 9738360.0 A 254000 254000 0 0 0 14342110.0 9992360.0 " style="fill-rule: evenodd;"/></clipPath><mask id="pads-mask"><g style="fill:#ffffff; fill-opacity:0.0;  stroke:#ffffff; stroke-width:0.000000; stroke-opacity:1;  stroke-linecap:round; stroke-linejoin:round;">
<g style="fill:#ffffff; fill-opacity:1.0;  stroke:#ffffff; stroke-width:0.100000; stroke-opacity:1;  stroke-linecap:round; stroke-linejoin:round;">
<circle cx="14850110.000000" cy="9992360.000000" r="165080.000000"/> 
</g>
<g style="fill:#ffffff; fill-opacity:1.0;  stroke:#ffffff; stroke-width:0.100000; stroke-opacity:1;  stroke-linecap:round; stroke-linejoin:round;">
<circle cx="15231110.000000" cy="11008360.000000" r="93980.000000"/> 
</g>
<g style="fill:#ffffff; fill-opacity:1.0;  stroke:#ffffff; stroke-width:0.100000; stroke-opacity:1;  stroke-linecap:round; stroke-linejoin:round;">
<circle cx="14977110.000000" cy="11008360.000000" r="93980.000000"/> 
</g>
<g style="fill:#ffffff; fill-opacity:1.0;  stroke:#ffffff; stroke-width:0.100000; stroke-opacity:1;  stroke-linecap:round; stroke-linejoin:round;">
<circle cx="14723110.000000" cy="11008360.000000" r="93980.000000"/> 
</g>
<g style="fill:#ffffff; fill-opacity:1.0;  stroke:#ffffff; stroke-width:0.100000; stroke-opacity:1;  stroke-linecap:round; stroke-linejoin:round;">
<circle cx="14469110.000000" cy="11008360.000000" r="93980.000000"/> 
</g>
</g> 
</mask><mask id="pads-mask-silkscreen"><rect x="13682523.2" y="9725660.0" width="2334926.6" height="1796086.9" fill="white"/><g style="fill:#000000; fill-opacity:0.0;  stroke:#000000; stroke-width:0.000000; stroke-opacity:1;  stroke-linecap:round; stroke-linejoin:round;">
<g style="fill:#000000; fill-opacity:1.0;  stroke:#000000; stroke-width:0.100000; stroke-opacity:1;  stroke-linecap:round; stroke-linejoin:round;">
<circle cx="14850110.000000" cy="9992360.000000" r="165080.000000"/> 
</g>
<g style="fill:#000000; fill-opacity:1.0;  stroke:#000000; stroke-width:0.100000; stroke-opacity:1;  stroke-linecap:round; stroke-linejoin:round;">
<circle cx="15231110.000000" cy="11008360.000000" r="93980.000000"/> 
</g>
<g style="fill:#000000; fill-opacity:1.0;  stroke:#000000; stroke-width:0.100000; stroke-opacity:1;  stroke-linecap:round; stroke-linejoin:round;">
<circle cx="14977110.000000" cy="11008360.000000" r="93980.000000"/> 
</g>
<g style="fill:#000000; fill-opacity:1.0;  stroke:#000000; stroke-width:0.100000; stroke-opacity:1;  stroke-linecap:round; stroke-linejoin:round;">
<circle cx="14723110.000000" cy="11008360.000000" r="93980.000000"/> 
</g>
<g style="fill:#000000; fill-opacity:1.0;  stroke:#000000; stroke-width:0.100000; stroke-opacity:1;  stroke-linecap:round; stroke-linejoin:round;">
<circle cx="14469110.000000" cy="11008360.000000" r="93980.000000"/> 
</g>
</g> 
</mask><mask id="hole-mask"><g><rect x="13682523.2" y="9725660.0" fill="white" width="2334926.6" height="1796086.9"/><polyline stroke-linecap="round" stroke="black" stroke-width="250000.0" points="-0.0 0 0.0 0" transform="translate(14850110.0 9992360.0) rotate(-0.0)"/><polyline stroke-linecap="round" stroke="black" stroke-width="100000.0" points="-0.0 0 0.0 0" transform="translate(15231110.0 11008360.0) rotate(-270.0)"/><polyline stroke-linecap="round" stroke="black" stroke-width="100000.0" points="-0.0 0 0.0 0" transform="translate(14977110.0 11008360.0) rotate(-270.0)"/><polyline stroke-linecap="round" stroke="black" stroke-width="100000.0" points="-0.0 0 0.0 0" transform="translate(14723110.0 11008360.0) rotate(-270.0)"/><polyline stroke-linecap="round" stroke="black" stroke-width="100000.0" points="-0.0 0 0.0 0" transform="translate(14469110.0 11008360.0) rotate(-270.0)"/><polyline stroke-linecap="round" stroke="black" stroke-width="39370.0" points="-0.0 0 0.0 0" transform="translate(15288260.0 10455910.0) rotate(0.0)"/><polyline stroke-linecap="round" stroke="black" stroke-width="39370.0" points="-0.0 0 0.0 0" transform="translate(14418310.0 10151110.0) rotate(0.0)"/><polyline stroke-linecap="round" stroke="black" stroke-width="39370.0" points="-0.0 0 0.0 0" transform="translate(14850110.0 10906760.0) rotate(0.0)"/><polyline stroke-linecap="round" stroke="black" stroke-width="39370.0" points="-0.0 0 0.0 0" transform="translate(14837410.0 10754360.0) rotate(0.0)"/><polyline stroke-linecap="round" stroke="black" stroke-width="39370.0" points="-0.0 0 0.0 0" transform="translate(15046960.0 10182860.0) rotate(0.0)"/><polyline stroke-linecap="round" stroke="black" stroke-width="39370.0" points="-0.0 0 0.0 0" transform="translate(14850110.0 11109960.0) rotate(0.0)"/><polyline stroke-linecap="round" stroke="black" stroke-width="39370.0" points="-0.0 0 0.0 0" transform="translate(15288260.0 10189210.0) rotate(0.0)"/><polyline stroke-linecap="round" stroke="black" stroke-width="39370.0" points="-0.0 0 0.0 0" transform="translate(15281910.0 10754360.0) rotate(0.0)"/><polyline stroke-linecap="round" stroke="black" stroke-width="39370.0" points="-0.0 0 0.0 0" transform="translate(14862810.0 10589260.0) rotate(0.0)"/><polyline stroke-linecap="round" stroke="black" stroke-width="39370.0" points="-0.0 0 0.0 0" transform="translate(14532610.0 10170160.0) rotate(0.0)"/><polyline stroke-linecap="round" stroke="black" stroke-width="39370.0" points="-0.0 0 0.0 0" transform="translate(14862810.0 10462260.0) rotate(0.0)"/></g></mask></defs><g transform="scale(-1,1)" id="boardContainer"><g id="substrate" clip-path="url(#cut-off)" mask="url(#hole-mask)"><g id="substrate-board" style="fill:#4ca06c; stroke:#4ca06c;"><path d=" M 14342110.0 9992360.0 L 14342110.0 11262360.0 L 15358110.0 11262360.0 L 15358110.0 9992360.0 A 254000 254000 0 0 0 15104110.0 9738360.0 L 14596110.0 9738360.0 A 254000 254000 0 0 0 14342110.0 9992360.0 " style="fill-rule: evenodd;"/><g style="fill-opacity: 0.0;stroke-width: 5000.000000;stroke-opacity: 1;stroke-linecap: round;stroke-linejoin: round">
<path d="M14596110.000000 9738360.000000 A254000.000000 254000.000000 0.0 0 0 14342110.000000 9992360.000000"/>
<path d="M14596110 9738360 L15104110 9738360 "/>
<path d="M14342110 11262360 L14342110 9992360 "/>
<path d="M15358110.000000 9992360.000000 A254000.000000 254000.000000 0.0 0 0 15104110.000000 9738360.000000"/>
<path d="M15358110 9992360 L15358110 11262360 "/>
<path d="M15358110 11262360 L14342110 11262360 "/>
</g> 
</g><g id="substrate-clad" style="fill:#9c6b28; stroke:#9c6b28;"><g style="fill-opacity: 0.0;stroke-width: 0.000000;stroke-opacity: 1;stroke-linecap: round;stroke-linejoin: round">
<g style="fill-opacity: 1.0;stroke-width: 0.100000;stroke-opacity: 1;stroke-linecap: round;stroke-linejoin: round">
<circle cx="14850110.000000" cy="9992360.000000" r="165080.000000"/> 
</g>
<g style="fill-opacity: 1.0;stroke-width: 0.100000;stroke-opacity: 1;stroke-linecap: round;stroke-linejoin: round">
<circle cx="15231110.000000" cy="11008360.000000" r="93980.000000"/> 
</g>
<g style="fill-opacity: 1.0;stroke-width: 0.100000;stroke-opacity: 1;stroke-linecap: round;stroke-linejoin: round">
<circle cx="14977110.000000" cy="11008360.000000" r="93980.000000"/> 
</g>
<g style="fill-opacity: 1.0;stroke-width: 0.100000;stroke-opacity: 1;stroke-linecap: round;stroke-linejoin: round">
<circle cx="14723110.000000" cy="11008360.000000" r="93980.000000"/> 
</g>
<g style="fill-opacity: 1.0;stroke-width: 0.100000;stroke-opacity: 1;stroke-linecap: round;stroke-linejoin: round">
<circle cx="14469110.000000" cy="11008360.000000" r="93980.000000"/> 
</g>
</g> 
</g><g id="substrate-copper" style="fill:#417e5a; stroke:#417e5a;"><g style="fill-opacity: 0.0;stroke-width: 0.000000;stroke-opacity: 1;stroke-linecap: round;stroke-linejoin: round">
<g style="fill-opacity: 1.0;stroke-width: 0.100000;stroke-opacity: 1;stroke-linecap: round;stroke-linejoin: round">
<circle cx="14850110.000000" cy="9992360.000000" r="160000.000000"/> 
</g>
<g style="fill-opacity: 1.0;stroke-width: 0.100000;stroke-opacity: 1;stroke-linecap: round;stroke-linejoin: round">
<circle cx="15231110.000000" cy="11008360.000000" r="88900.000000"/> 
</g>
<g style="fill-opacity: 1.0;stroke-width: 0.100000;stroke-opacity: 1;stroke-linecap: round;stroke-linejoin: round">
<circle cx="14977110.000000" cy="11008360.000000" r="88900.000000"/> 
</g>
<g style="fill-opacity: 1.0;stroke-width: 0.100000;stroke-opacity: 1;stroke-linecap: round;stroke-linejoin: round">
<circle cx="14723110.000000" cy="11008360.000000" r="88900.000000"/> 
</g>
<g style="fill-opacity: 1.0;stroke-width: 0.100000;stroke-opacity: 1;stroke-linecap: round;stroke-linejoin: round">
<circle cx="14469110.000000" cy="11008360.000000" r="88900.000000"/> 
</g>
<g style="fill-opacity: 1.0;stroke-width: 0.100000;stroke-opacity: 1;stroke-linecap: round;stroke-linejoin: round">
<circle cx="15288260.000000" cy="10455910.000000" r="40005.000000"/> 
</g>
<g style="fill-opacity: 1.0;stroke-width: 0.100000;stroke-opacity: 1;stroke-linecap: round;stroke-linejoin: round">
<circle cx="14418310.000000" cy="10151110.000000" r="40005.000000"/> 
</g>
<g style="fill-opacity: 1.0;stroke-width: 0.100000;stroke-opacity: 1;stroke-linecap: round;stroke-linejoin: round">
<circle cx="14850110.000000" cy="10906760.000000" r="40005.000000"/> 
</g>
<g style="fill-opacity: 1.0;stroke-width: 0.100000;stroke-opacity: 1;stroke-linecap: round;stroke-linejoin: round">
<circle cx="14837410.000000" cy="10754360.000000" r="40005.000000"/> 
</g>
<g style="fill-opacity: 1.0;stroke-width: 0.100000;stroke-opacity: 1;stroke-linecap: round;stroke-linejoin: round">
<circle cx="15046960.000000" cy="10182860.000000" r="40005.000000"/> 
</g>
<g style="fill-opacity: 1.0;stroke-width: 0.100000;stroke-opacity: 1;stroke-linecap: round;stroke-linejoin: round">
<circle cx="14850110.000000" cy="11109960.000000" r="40005.000000"/> 
</g>
<g style="fill-opacity: 1.0;stroke-width: 0.100000;stroke-opacity: 1;stroke-linecap: round;stroke-linejoin: round">
<circle cx="15288260.000000" cy="10189210.000000" r="40005.000000"/> 
</g>
<g style="fill-opacity: 1.0;stroke-width: 0.100000;stroke-opacity: 1;stroke-linecap: round;stroke-linejoin: round">
<circle cx="15281910.000000" cy="10754360.000000" r="40005.000000"/> 
</g>
<g style="fill-opacity: 1.0;stroke-width: 0.100000;stroke-opacity: 1;stroke-linecap: round;stroke-linejoin: round">
<circle cx="14862810.000000" cy="10589260.000000" r="40005.000000"/> 
</g>
<g style="fill-opacity: 1.0;stroke-width: 0.100000;stroke-opacity: 1;stroke-linecap: round;stroke-linejoin: round">
<circle cx="14532610.000000" cy="10170160.000000" r="40005.000000"/> 
</g>
<g style="fill-opacity: 1.0;stroke-width: 0.100000;stroke-opacity: 1;stroke-linecap: round;stroke-linejoin: round">
<circle cx="14862810.000000" cy="10462260.000000" r="40005.000000"/> 
</g>
<g style="fill-opacity: 0.0;stroke-width: 81280.000000;stroke-opacity: 1;stroke-linecap: round;stroke-linejoin: round">
<path d="M14558010 10195560 L14558010 10728960 "/>
<path d="M14723110 10894060 L14558010 10728960 "/>
</g>
<g style="fill-opacity: 0.0;stroke-width: 40640.000000;stroke-opacity: 1;stroke-linecap: round;stroke-linejoin: round">
<path d="M14532610 10170160 L14558010 10195560 "/>
</g>
<g style="fill-opacity: 0.0;stroke-width: 81280.000000;stroke-opacity: 1;stroke-linecap: round;stroke-linejoin: round">
<path d="M14723110 11008360 L14723110 10894060 "/>
</g>
<g style="fill-opacity: 0.0;stroke-width: 25400.000000;stroke-opacity: 1;stroke-linecap: round;stroke-linejoin: round">
<path d="M15231110 10830560 L15231110 11008360 "/>
<path d="M14862810 10462260 L15231110 10830560 "/>
</g>
</g> 
</g><g id="substrate-pads" style="fill:#b5ae30; stroke:#b5ae30;" mask="url(#pads-mask)"><g style="fill-opacity: 0.0;stroke-width: 0.000000;stroke-opacity: 1;stroke-linecap: round;stroke-linejoin: round">
<g style="fill-opacity: 1.0;stroke-width: 0.100000;stroke-opacity: 1;stroke-linecap: round;stroke-linejoin: round">
<circle cx="14850110.000000" cy="9992360.000000" r="160000.000000"/> 
</g>
<g style="fill-opacity: 1.0;stroke-width: 0.100000;stroke-opacity: 1;stroke-linecap: round;stroke-linejoin: round">
<circle cx="15231110.000000" cy="11008360.000000" r="88900.000000"/> 
</g>
<g style="fill-opacity: 1.0;stroke-width: 0.100000;stroke-opacity: 1;stroke-linecap: round;stroke-linejoin: round">
<circle cx="14977110.000000" cy="11008360.000000" r="88900.000000"/> 
</g>
<g style="fill-opacity: 1.0;stroke-width: 0.100000;stroke-opacity: 1;stroke-linecap: round;stroke-linejoin: round">
<circle cx="14723110.000000" cy="11008360.000000" r="88900.000000"/> 
</g>
<g style="fill-opacity: 1.0;stroke-width: 0.100000;stroke-opacity: 1;stroke-linecap: round;stroke-linejoin: round">
<circle cx="14469110.000000" cy="11008360.000000" r="88900.000000"/> 
</g>
<g style="fill-opacity: 1.0;stroke-width: 0.100000;stroke-opacity: 1;stroke-linecap: round;stroke-linejoin: round">
<circle cx="15288260.000000" cy="10455910.000000" r="40005.000000"/> 
</g>
<g style="fill-opacity: 1.0;stroke-width: 0.100000;stroke-opacity: 1;stroke-linecap: round;stroke-linejoin: round">
<circle cx="14418310.000000" cy="10151110.000000" r="40005.000000"/> 
</g>
<g style="fill-opacity: 1.0;stroke-width: 0.100000;stroke-opacity: 1;stroke-linecap: round;stroke-linejoin: round">
<circle cx="14850110.000000" cy="10906760.000000" r="40005.000000"/> 
</g>
<g style="fill-opacity: 1.0;stroke-width: 0.100000;stroke-opacity: 1;stroke-linecap: round;stroke-linejoin: round">
<circle cx="14837410.000000" cy="10754360.000000" r="40005.000000"/> 
</g>
<g style="fill-opacity: 1.0;stroke-width: 0.100000;stroke-opacity: 1;stroke-linecap: round;stroke-linejoin: round">
<circle cx="15046960.000000" cy="10182860.000000" r="40005.000000"/> 
</g>
<g style="fill-opacity: 1.0;stroke-width: 0.100000;stroke-opacity: 1;stroke-linecap: round;stroke-linejoin: round">
<circle cx="14850110.000000" cy="11109960.000000" r="40005.000000"/> 
</g>
<g style="fill-opacity: 1.0;stroke-width: 0.100000;stroke-opacity: 1;stroke-linecap: round;stroke-linejoin: round">
<circle cx="15288260.000000" cy="10189210.000000" r="40005.000000"/> 
</g>
<g style="fill-opacity: 1.0;stroke-width: 0.100000;stroke-opacity: 1;stroke-linecap: round;stroke-linejoin: round">
<circle cx="15281910.000000" cy="10754360.000000" r="40005.000000"/> 
</g>
<g style="fill-opacity: 1.0;stroke-width: 0.100000;stroke-opacity: 1;stroke-linecap: round;stroke-linejoin: round">
<circle cx="14862810.000000" cy="10589260.000000" r="40005.000000"/> 
</g>
<g style="fill-opacity: 1.0;stroke-width: 0.100000;stroke-opacity: 1;stroke-linecap: round;stroke-linejoin: round">
<circle cx="14532610.000000" cy="10170160.000000" r="40005.000000"/> 
</g>
<g style="fill-opacity: 1.0;stroke-width: 0.100000;stroke-opacity: 1;stroke-linecap: round;stroke-linejoin: round">
<circle cx="14862810.000000" cy="10462260.000000" r="40005.000000"/> 
</g>
<g style="fill-opacity: 0.0;stroke-width: 81280.000000;stroke-opacity: 1;stroke-linecap: round;stroke-linejoin: round">
<path d="M14558010 10195560 L14558010 10728960 "/>
<path d="M14723110 10894060 L14558010 10728960 "/>
</g>
<g style="fill-opacity: 0.0;stroke-width: 40640.000000;stroke-opacity: 1;stroke-linecap: round;stroke-linejoin: round">
<path d="M14532610 10170160 L14558010 10195560 "/>
</g>
<g style="fill-opacity: 0.0;stroke-width: 81280.000000;stroke-opacity: 1;stroke-linecap: round;stroke-linejoin: round">
<path d="M14723110 11008360 L14723110 10894060 "/>
</g>
<g style="fill-opacity: 0.0;stroke-width: 25400.000000;stroke-opacity: 1;stroke-linecap: round;stroke-linejoin: round">
<path d="M15231110 10830560 L15231110 11008360 "/>
<path d="M14862810 10462260 L15231110 10830560 "/>
</g>
</g> 
</g><g id="substrate-silk" style="fill:#f0f0f0; stroke:#f0f0f0;" mask="url(#pads-mask-silkscreen)"><g style="fill-opacity: 0.0;stroke-width: 15240.000000;stroke-opacity: 1;stroke-linecap: round;stroke-linejoin: round">
<text x="14850110.000000" y="10302900.400000" transform="scale(-1 1) translate(-29700220.000000 0)" textLength="769015.100000" font-size="115146.600000" lengthAdjust="spacingAndGlyphs" text-anchor="middle" opacity="0">Vin: 3-5.5V</text>
<g class="stroked-text"><desc>Vin: 3-5.5V</desc>
<path d="M15226392 10212428 L15197606 10298788 L15168819 10212428 "/>
<path d="M15140032 10298788 L15140032 10241214 "/>
<path d="M15140032 10212428 L15144145 10216540 L15140032 10220652 L15135920 10216540 L15140032 10212428 L15140032 10220652 "/>
<path d="M15098909 10241214 L15098909 10298788 "/>
<path d="M15098909 10249439 L15094796 10245327 L15086571 10241214 L15074234 10241214 L15066010 10245327 L15061897 10253551 L15061897 10298788 "/>
<path d="M15020773 10290563 L15016661 10294675 L15020773 10298788 L15024886 10294675 L15020773 10290563 L15020773 10298788 "/>
<path d="M15020773 10245327 L15016661 10249439 L15020773 10253551 L15024886 10249439 L15020773 10245327 L15020773 10253551 "/>
<path d="M14922076 10212428 L14868615 10212428 L14897402 10245327 L14885065 10245327 L14876840 10249439 L14872728 10253551 L14868615 10261776 L14868615 10282338 L14872728 10290563 L14876840 10294675 L14885065 10298788 L14909739 10298788 L14917964 10294675 L14922076 10290563 "/>
<path d="M14831604 10265888 L14765806 10265888 "/>
<path d="M14683558 10212428 L14724682 10212428 L14728794 10253551 L14724682 10249439 L14716457 10245327 L14695895 10245327 L14687670 10249439 L14683558 10253551 L14679446 10261776 L14679446 10282338 L14683558 10290563 L14687670 10294675 L14695895 10298788 L14716457 10298788 L14724682 10294675 L14728794 10290563 "/>
<path d="M14642434 10290563 L14638322 10294675 L14642434 10298788 L14646547 10294675 L14642434 10290563 L14642434 10298788 "/>
<path d="M14560187 10212428 L14601310 10212428 L14605423 10253551 L14601310 10249439 L14593086 10245327 L14572524 10245327 L14564299 10249439 L14560187 10253551 L14556074 10261776 L14556074 10282338 L14560187 10290563 L14564299 10294675 L14572524 10298788 L14593086 10298788 L14601310 10294675 L14605423 10290563 "/>
<path d="M14531400 10212428 L14502613 10298788 L14473827 10212428 "/>
</g><text x="14850110.000000" y="10441940.000000" transform="scale(-1 1) translate(-29700220.000000 0)" textLength="802664.200000" font-size="115146.600000" lengthAdjust="spacingAndGlyphs" text-anchor="middle" opacity="0">Vout:3.3V 1A</text>
<g class="stroked-text"><desc>Vout:3.3V 1A</desc>
<path d="M15253123 10351467 L15224336 10437827 L15195550 10351467 "/>
<path d="M15154426 10437827 L15162650 10433715 L15166763 10429602 L15170875 10421378 L15170875 10396703 L15166763 10388479 L15162650 10384366 L15154426 10380254 L15142089 10380254 L15133864 10384366 L15129751 10388479 L15125639 10396703 L15125639 10421378 L15129751 10429602 L15133864 10433715 L15142089 10437827 L15154426 10437827 "/>
<path d="M15051616 10380254 L15051616 10437827 "/>
<path d="M15088628 10380254 L15088628 10425490 L15084515 10433715 L15076290 10437827 L15063953 10437827 L15055729 10433715 L15051616 10429602 "/>
<path d="M15022830 10380254 L14989930 10380254 "/>
<path d="M15010492 10351467 L15010492 10425490 L15006380 10433715 L14998155 10437827 L14989930 10437827 "/>
<path d="M14961144 10429602 L14957031 10433715 L14961144 10437827 L14965256 10433715 L14961144 10429602 L14961144 10437827 "/>
<path d="M14961144 10384366 L14957031 10388479 L14961144 10392591 L14965256 10388479 L14961144 10384366 L14961144 10392591 "/>
<path d="M14928245 10351467 L14874784 10351467 L14903570 10384366 L14891233 10384366 L14883009 10388479 L14878896 10392591 L14874784 10400816 L14874784 10421378 L14878896 10429602 L14883009 10433715 L14891233 10437827 L14915908 10437827 L14924132 10433715 L14928245 10429602 "/>
<path d="M14837772 10429602 L14833660 10433715 L14837772 10437827 L14841885 10433715 L14837772 10429602 L14837772 10437827 "/>
<path d="M14804873 10351467 L14751412 10351467 L14780199 10384366 L14767862 10384366 L14759637 10388479 L14755525 10392591 L14751412 10400816 L14751412 10421378 L14755525 10429602 L14759637 10433715 L14767862 10437827 L14792536 10437827 L14800761 10433715 L14804873 10429602 "/>
<path d="M14726738 10351467 L14697951 10437827 L14669165 10351467 "/>
<path d="M14529344 10437827 L14578692 10437827 "/>
<path d="M14554018 10437827 L14554018 10351467 L14562243 10363804 L14570468 10372029 L14578692 10376141 "/>
<path d="M14496445 10413153 L14455321 10413153 "/>
<path d="M14504670 10437827 L14475883 10351467 L14447096 10437827 "/>
</g><text x="14850110.000000" y="10580979.600000" transform="scale(-1 1) translate(-29700220.000000 0)" textLength="794439.400000" font-size="115146.600000" lengthAdjust="spacingAndGlyphs" text-anchor="middle" opacity="0">2A Peak Out</text>
<g class="stroked-text"><desc>2A Peak Out</desc>
<path d="M15240786 10498731 L15236673 10494619 L15228449 10490507 L15207887 10490507 L15199662 10494619 L15195550 10498731 L15191437 10506956 L15191437 10515181 L15195550 10527518 L15244898 10576867 L15191437 10576867 "/>
<path d="M15158538 10552192 L15117414 10552192 "/>
<path d="M15166763 10576867 L15137976 10490507 L15109190 10576867 "/>
<path d="M15014605 10576867 L15014605 10490507 L14981706 10490507 L14973481 10494619 L14969369 10498731 L14965256 10506956 L14965256 10519293 L14969369 10527518 L14973481 10531631 L14981706 10535743 L15014605 10535743 "/>
<path d="M14895346 10572754 L14903570 10576867 L14920020 10576867 L14928245 10572754 L14932357 10564530 L14932357 10531631 L14928245 10523406 L14920020 10519293 L14903570 10519293 L14895346 10523406 L14891233 10531631 L14891233 10539855 L14932357 10548080 "/>
<path d="M14817210 10576867 L14817210 10531631 L14821323 10523406 L14829548 10519293 L14845997 10519293 L14854222 10523406 "/>
<path d="M14817210 10572754 L14825435 10576867 L14845997 10576867 L14854222 10572754 L14858334 10564530 L14858334 10556305 L14854222 10548080 L14845997 10543968 L14825435 10543968 L14817210 10539855 "/>
<path d="M14776087 10576867 L14776087 10490507 "/>
<path d="M14767862 10543968 L14743188 10576867 "/>
<path d="M14743188 10519293 L14776087 10552192 "/>
<path d="M14623929 10490507 L14607479 10490507 L14599254 10494619 L14591030 10502844 L14586917 10519293 L14586917 10548080 L14591030 10564530 L14599254 10572754 L14607479 10576867 L14623929 10576867 L14632153 10572754 L14640378 10564530 L14644490 10548080 L14644490 10519293 L14640378 10502844 L14632153 10494619 L14623929 10490507 "/>
<path d="M14512894 10519293 L14512894 10576867 "/>
<path d="M14549906 10519293 L14549906 10564530 L14545793 10572754 L14537569 10576867 L14525231 10576867 L14517007 10572754 L14512894 10568642 "/>
<path d="M14484108 10519293 L14451209 10519293 "/>
<path d="M14471770 10490507 L14471770 10564530 L14467658 10572754 L14459433 10576867 L14451209 10576867 "/>
</g></g>
<g style="fill-opacity: 0.0;stroke-width: 17780.000000;stroke-opacity: 1;stroke-linecap: round;stroke-linejoin: round">
<text x="14837410.000000" y="11228070.000000" transform="scale(-1 1) translate(-29674820.000000 0)" textLength="599101.300000" font-size="145626.600000" lengthAdjust="spacingAndGlyphs" text-anchor="middle" opacity="0">AP3429</text>
<g class="stroked-text"><desc>AP3429</desc>
<path d="M15126062 11191663 L15074053 11191663 "/>
<path d="M15136464 11222869 L15100058 11113649 L15063651 11222869 "/>
<path d="M15027244 11222869 L15027244 11113649 L14985637 11113649 L14975235 11118850 L14970034 11124050 L14964833 11134452 L14964833 11150055 L14970034 11160457 L14975235 11165658 L14985637 11170859 L15027244 11170859 "/>
<path d="M14928426 11113649 L14860814 11113649 L14897220 11155256 L14881618 11155256 L14871216 11160457 L14866015 11165658 L14860814 11176060 L14860814 11202065 L14866015 11212467 L14871216 11217668 L14881618 11222869 L14912823 11222869 L14923225 11217668 L14928426 11212467 "/>
<path d="M14767197 11150055 L14767197 11222869 "/>
<path d="M14793201 11108448 L14819206 11186462 L14751594 11186462 "/>
<path d="M14715187 11124050 L14709986 11118850 L14699584 11113649 L14673580 11113649 L14663178 11118850 L14657977 11124050 L14652776 11134452 L14652776 11144854 L14657977 11160457 L14720388 11222869 L14652776 11222869 "/>
<path d="M14600766 11222869 L14579962 11222869 L14569560 11217668 L14564360 11212467 L14553958 11196864 L14548757 11176060 L14548757 11134452 L14553958 11124050 L14559159 11118850 L14569560 11113649 L14590364 11113649 L14600766 11118850 L14605967 11124050 L14611168 11134452 L14611168 11160457 L14605967 11170859 L14600766 11176060 L14590364 11181261 L14569560 11181261 L14559159 11176060 L14553958 11170859 L14548757 11160457 "/>
</g></g>
<g style="fill-opacity: 0.0;stroke-width: 20320.000000;stroke-opacity: 1;stroke-linecap: round;stroke-linejoin: round">
<text x="14555470.000000" y="9979660.000000" transform="scale(-1 1) translate(-29110940.000000 0)" textLength="302006.000000" font-size="108373.300000" lengthAdjust="spacingAndGlyphs" text-anchor="start" opacity="0">&gt;REV</text>
<g class="stroked-text"><desc>&gt;REV</desc>
<path d="M14522909 9921602 L14460982 9944825 L14522909 9968048 "/>
<path d="M14375831 9975789 L14402924 9937084 "/>
<path d="M14422277 9975789 L14422277 9894509 L14391313 9894509 L14383572 9898380 L14379702 9902250 L14375831 9909991 L14375831 9921602 L14379702 9929343 L14383572 9933214 L14391313 9937084 L14422277 9937084 "/>
<path d="M14340997 9933214 L14313903 9933214 "/>
<path d="M14302292 9975789 L14340997 9975789 L14340997 9894509 L14302292 9894509 "/>
<path d="M14279069 9894509 L14251976 9975789 L14224882 9894509 "/>
</g></g>
<g style="fill-opacity: 0.0;stroke-width: 30480.000000;stroke-opacity: 1;stroke-linecap: round;stroke-linejoin: round">
<circle cx="14519910.000000" cy="9928860.000000" r="89800.000000"/> 
</g> 
</g><g id="substrate-outline" style="fill:#000000; stroke:#000000; stroke-width: 15000.0"><g style="fill-opacity: 0.0;stroke-opacity: 1;stroke-linecap: round;stroke-linejoin: round">
<path d="M14596110.000000 9738360.000000 A254000.000000 254000.000000 0.0 0 0 14342110.000000 9992360.000000"/>
<path d="M14596110 9738360 L15104110 9738360 "/>
<path d="M14342110 11262360 L14342110 9992360 "/>
<path d="M15358110.000000 9992360.000000 A254000.000000 254000.000000 0.0 0 0 15104110.000000 9738360.000000"/>
<path d="M15358110 9992360 L15358110 11262360 "/>
<path d="M15358110 11262360 L14342110 11262360 "/>
</g> 
<path d="M -125000.0 0.0 A 125000.0 125000.0 0 1 1 125000.0 0.0 L 125000.0 -0.0 A 125000.0 125000.0 0 1 1 -125000.0 -0.0 Z" transform="translate(14850110.0 9992360.0) rotate(-0.0)"/><path d="M -50000.0 0.0 A 50000.0 50000.0 0 1 1 50000.0 0.0 L 50000.0 -0.0 A 50000.0 50000.0 0 1 1 -50000.0 -0.0 Z" transform="translate(15231110.0 11008360.0) rotate(-270.0)"/><path d="M -50000.0 0.0 A 50000.0 50000.0 0 1 1 50000.0 0.0 L 50000.0 -0.0 A 50000.0 50000.0 0 1 1 -50000.0 -0.0 Z" transform="translate(14977110.0 11008360.0) rotate(-270.0)"/><path d="M -50000.0 0.0 A 50000.0 50000.0 0 1 1 50000.0 0.0 L 50000.0 -0.0 A 50000.0 50000.0 0 1 1 -50000.0 -0.0 Z" transform="translate(14723110.0 11008360.0) rotate(-270.0)"/><path d="M -50000.0 0.0 A 50000.0 50000.0 0 1 1 50000.0 0.0 L 50000.0 -0.0 A 50000.0 50000.0 0 1 1 -50000.0 -0.0 Z" transform="translate(14469110.0 11008360.0) rotate(-270.0)"/><path d="M -19685.0 0.0 A 19685.0 19685.0 0 1 1 19685.0 0.0 L 19685.0 -0.0 A 19685.0 19685.0 0 1 1 -19685.0 -0.0 Z" transform="translate(15288260.0 10455910.0) rotate(0.0)"/><path d="M -19685.0 0.0 A 19685.0 19685.0 0 1 1 19685.0 0.0 L 19685.0 -0.0 A 19685.0 19685.0 0 1 1 -19685.0 -0.0 Z" transform="translate(14418310.0 10151110.0) rotate(0.0)"/><path d="M -19685.0 0.0 A 19685.0 19685.0 0 1 1 19685.0 0.0 L 19685.0 -0.0 A 19685.0 19685.0 0 1 1 -19685.0 -0.0 Z" transform="translate(14850110.0 10906760.0) rotate(0.0)"/><path d="M -19685.0 0.0 A 19685.0 19685.0 0 1 1 19685.0 0.0 L 19685.0 -0.0 A 19685.0 19685.0 0 1 1 -19685.0 -0.0 Z" transform="translate(14837410.0 10754360.0) rotate(0.0)"/><path d="M -19685.0 0.0 A 19685.0 19685.0 0 1 1 19685.0 0.0 L 19685.0 -0.0 A 19685.0 19685.0 0 1 1 -19685.0 -0.0 Z" transform="translate(15046960.0 10182860.0) rotate(0.0)"/><path d="M -19685.0 0.0 A 19685.0 19685.0 0 1 1 19685.0 0.0 L 19685.0 -0.0 A 19685.0 19685.0 0 1 1 -19685.0 -0.0 Z" transform="translate(14850110.0 11109960.0) rotate(0.0)"/><path d="M -19685.0 0.0 A 19685.0 19685.0 0 1 1 19685.0 0.0 L 19685.0 -0.0 A 19685.0 19685.0 0 1 1 -19685.0 -0.0 Z" transform="translate(15288260.0 10189210.0) rotate(0.0)"/><path d="M -19685.0 0.0 A 19685.0 19685.0 0 1 1 19685.0 0.0 L 19685.0 -0.0 A 19685.0 19685.0 0 1 1 -19685.0 -0.0 Z" transform="translate(15281910.0 10754360.0) rotate(0.0)"/><path d="M -19685.0 0.0 A 19685.0 19685.0 0 1 1 19685.0 0.0 L 19685.0 -0.0 A 19685.0 19685.0 0 1 1 -19685.0 -0.0 Z" transform="translate(14862810.0 10589260.0) rotate(0.0)"/><path d="M -19685.0 0.0 A 19685.0 19685.0 0 1 1 19685.0 0.0 L 19685.0 -0.0 A 19685.0 19685.0 0 1 1 -19685.0 -0.0 Z" transform="translate(14532610.0 10170160.0) rotate(0.0)"/><path d="M -19685.0 0.0 A 19685.0 19685.0 0 1 1 19685.0 0.0 L 19685.0 -0.0 A 19685.0 19685.0 0 1 1 -19685.0 -0.0 Z" transform="translate(14862810.0 10462260.0) rotate(0.0)"/></g></g></g></svg>