<!DOCTYPE svg PUBLIC "-//W3C//DTD SVG 1.1//EN" "http://www.w3.org/Graphics/SVG/1.1/DTD/svg11.dtd">
<svg xmlns="http://www.w3.org/2000/svg" version="1.1" width="112.498651mm" height="61.055029mm" viewBox="-20475041.001244605 7447610.0 11249865.138788462 6105502.999996001">
            <title>Picture generated by PcbDraw </title>
            <desc>Picture generated by PcbDraw</desc>
        <defs><clipPath id="cut-off"><path d=" M 10595563.0 13453110.0 A 1270000 1270000 0 0 1 9325563.0 12183110.0 L 9325563.0 8881110.0 A 1302137.1 1302137.1 0 0 1 10595563.000916 7547610.037544 L 19358563.0 7547610.0 A 1048231 1048231 0 0 1 20374560.052509 8627109.910682 L 20374563.0 12437110.0 A 1016003 1016003 0 0 1 19358563.000009 13453112.999996 L 10595563.0 13453110.0 " style="fill-rule: evenodd;"/></clipPath><mask id="pads-mask"><g style="fill:#ffffff; fill-opacity:0.0;  stroke:#ffffff; stroke-width:0.000000; stroke-opacity:1;  stroke-linecap:round; stroke-linejoin:round;">
<g style="fill:#ffffff; fill-opacity:1.0;  stroke:#ffffff; stroke-width:0.100000; stroke-opacity:1;  stroke-linecap:round; stroke-linejoin:round;">
<circle cx="9852563.000000" cy="11103610.000000" r="60000.000000"/> 
</g>
<g style="fill:#ffffff; fill-opacity:1.0;  stroke:#ffffff; stroke-width:0.100000; stroke-opacity:1;  stroke-linecap:round; stroke-linejoin:round;">
<circle cx="9452563.000000" cy="11103610.000000" r="60000.000000"/> 
</g>
<g style="fill:#ffffff; fill-opacity:1.0;  stroke:#ffffff; stroke-width:0.100000; stroke-opacity:1;  stroke-linecap:round; stroke-linejoin:round;">
<circle cx="19866563.000000" cy="10248610.000000" r="45000.000000"/> 
</g>
<g style="fill:#ffffff; fill-opacity:1.0;  stroke:#ffffff; stroke-width:0.100000; stroke-opacity:1;  stroke-linecap:round; stroke-linejoin:round;">
<circle cx="19866563.000000" cy="10688610.000000" r="45000.000000"/> 
</g>
<g style="fill:#ffffff; fill-opacity:1.0;  stroke:#ffffff; stroke-width:0.100000; stroke-opacity:1;  stroke-linecap:round; stroke-linejoin:round;">
<circle cx="18413563.000000" cy="8382610.000000" r="213360.000000"/> 
</g>
<g style="fill:#ffffff; fill-opacity:1.0;  stroke:#ffffff; stroke-width:0.100000; stroke-opacity:1;  stroke-linecap:round; stroke-linejoin:round;">
<circle cx="18913563.000000" cy="7882610.000000" r="213360.000000"/> 
</g>
<g style="fill:#ffffff; fill-opacity:1.0;  stroke:#ffffff; stroke-width:0.100000; stroke-opacity:1;  stroke-linecap:round; stroke-linejoin:round;">
<circle cx="11413563.000000" cy="8382610.000000" r="213360.000000"/> 
</g>
<g style="fill:#ffffff; fill-opacity:1.0;  stroke:#ffffff; stroke-width:0.100000; stroke-opacity:1;  stroke-linecap:round; stroke-linejoin:round;">
<circle cx="9452563.000000" cy="9300210.000000" r="60000.000000"/> 
</g>
<g style="fill:#ffffff; fill-opacity:1.0;  stroke:#ffffff; stroke-width:0.100000; stroke-opacity:1;  stroke-linecap:round; stroke-linejoin:round;">
<circle cx="9852563.000000" cy="9300210.000000" r="60000.000000"/> 
</g>
<g style="fill:#ffffff; fill-opacity:1.0;  stroke:#ffffff; stroke-width:0.100000; stroke-opacity:1;  stroke-linecap:round; stroke-linejoin:round;">
<path style="fill:#ffffff; fill-opacity:1.0;  stroke:#ffffff; stroke-width:0.100000; stroke-opacity:1;  stroke-linecap:round; stroke-linejoin:round;fill-rule:evenodd;" d="M 16519663.300000,9173809.600000 16518451.000000,9172774.200000 16463398.800000,9117722.000000 16460548.100000,9112127.200000 16460423.000000,9110537.800000 16460423.000000,9032682.200000 16462363.400000,9026710.300000 16463398.800000,9025498.000000 16518451.000000,8970445.800000 16524045.800000,8967595.100000 16525635.200000,8967470.000000 16603490.800000,8967470.000000 16609462.700000,8969410.400000 16610675.000000,8970445.800000 16665727.200000,9025498.000000 16668577.900000,9031092.800000 16668703.000000,9032682.200000 16668703.000000,9110537.800000 16666762.600000,9116509.700000 16665727.200000,9117722.000000 16610675.000000,9172774.200000 16605080.200000,9175624.900000 16603490.800000,9175750.000000 16525635.200000,9175750.000000 Z"/> 
<path style="fill:#ffffff; fill-opacity:1.0;  stroke:#ffffff; stroke-width:0.100000; stroke-opacity:1;  stroke-linecap:round; stroke-linejoin:round;fill-rule:evenodd;" d="M 16519663.300000,9427809.600000 16518451.000000,9426774.200000 16463398.800000,9371722.000000 16460548.100000,9366127.200000 16460423.000000,9364537.800000 16460423.000000,9286682.200000 16462363.400000,9280710.300000 16463398.800000,9279498.000000 16518451.000000,9224445.800000 16524045.800000,9221595.100000 16525635.200000,9221470.000000 16603490.800000,9221470.000000 16609462.700000,9223410.400000 16610675.000000,9224445.800000 16665727.200000,9279498.000000 16668577.900000,9285092.800000 16668703.000000,9286682.200000 16668703.000000,9364537.800000 16666762.600000,9370509.700000 16665727.200000,9371722.000000 16610675.000000,9426774.200000 16605080.200000,9429624.900000 16603490.800000,9429750.000000 16525635.200000,9429750.000000 Z"/> 
<path style="fill:#ffffff; fill-opacity:1.0;  stroke:#ffffff; stroke-width:0.100000; stroke-opacity:1;  stroke-linecap:round; stroke-linejoin:round;fill-rule:evenodd;" d="M 16265663.300000,9173809.600000 16264451.000000,9172774.200000 16209398.800000,9117722.000000 16206548.100000,9112127.200000 16206423.000000,9110537.800000 16206423.000000,9032682.200000 16208363.400000,9026710.300000 16209398.800000,9025498.000000 16264451.000000,8970445.800000 16270045.800000,8967595.100000 16271635.200000,8967470.000000 16349490.800000,8967470.000000 16355462.700000,8969410.400000 16356675.000000,8970445.800000 16411727.200000,9025498.000000 16414577.900000,9031092.800000 16414703.000000,9032682.200000 16414703.000000,9110537.800000 16412762.600000,9116509.700000 16411727.200000,9117722.000000 16356675.000000,9172774.200000 16351080.200000,9175624.900000 16349490.800000,9175750.000000 16271635.200000,9175750.000000 Z"/> 
<path style="fill:#ffffff; fill-opacity:1.0;  stroke:#ffffff; stroke-width:0.100000; stroke-opacity:1;  stroke-linecap:round; stroke-linejoin:round;fill-rule:evenodd;" d="M 16265663.300000,9427809.600000 16264451.000000,9426774.200000 16209398.800000,9371722.000000 16206548.100000,9366127.200000 16206423.000000,9364537.800000 16206423.000000,9286682.200000 16208363.400000,9280710.300000 16209398.800000,9279498.000000 16264451.000000,9224445.800000 16270045.800000,9221595.100000 16271635.200000,9221470.000000 16349490.800000,9221470.000000 16355462.700000,9223410.400000 16356675.000000,9224445.800000 16411727.200000,9279498.000000 16414577.900000,9285092.800000 16414703.000000,9286682.200000 16414703.000000,9364537.800000 16412762.600000,9370509.700000 16411727.200000,9371722.000000 16356675.000000,9426774.200000 16351080.200000,9429624.900000 16349490.800000,9429750.000000 16271635.200000,9429750.000000 Z"/> 
<path style="fill:#ffffff; fill-opacity:1.0;  stroke:#ffffff; stroke-width:0.100000; stroke-opacity:1;  stroke-linecap:round; stroke-linejoin:round;fill-rule:evenodd;" d="M 16011663.300000,9173809.600000 16010451.000000,9172774.200000 15955398.800000,9117722.000000 15952548.100000,9112127.200000 15952423.000000,9110537.800000 15952423.000000,9032682.200000 15954363.400000,9026710.300000 15955398.800000,9025498.000000 16010451.000000,8970445.800000 16016045.800000,8967595.100000 16017635.200000,8967470.000000 16095490.800000,8967470.000000 16101462.700000,8969410.400000 16102675.000000,8970445.800000 16157727.200000,9025498.000000 16160577.900000,9031092.800000 16160703.000000,9032682.200000 16160703.000000,9110537.800000 16158762.600000,9116509.700000 16157727.200000,9117722.000000 16102675.000000,9172774.200000 16097080.200000,9175624.900000 16095490.800000,9175750.000000 16017635.200000,9175750.000000 Z"/> 
<path style="fill:#ffffff; fill-opacity:1.0;  stroke:#ffffff; stroke-width:0.100000; stroke-opacity:1;  stroke-linecap:round; stroke-linejoin:round;fill-rule:evenodd;" d="M 16011663.300000,9427809.600000 16010451.000000,9426774.200000 15955398.800000,9371722.000000 15952548.100000,9366127.200000 15952423.000000,9364537.800000 15952423.000000,9286682.200000 15954363.400000,9280710.300000 15955398.800000,9279498.000000 16010451.000000,9224445.800000 16016045.800000,9221595.100000 16017635.200000,9221470.000000 16095490.800000,9221470.000000 16101462.700000,9223410.400000 16102675.000000,9224445.800000 16157727.200000,9279498.000000 16160577.900000,9285092.800000 16160703.000000,9286682.200000 16160703.000000,9364537.800000 16158762.600000,9370509.700000 16157727.200000,9371722.000000 16102675.000000,9426774.200000 16097080.200000,9429624.900000 16095490.800000,9429750.000000 16017635.200000,9429750.000000 Z"/> 
</g>
<g style="fill:#ffffff; fill-opacity:1.0;  stroke:#ffffff; stroke-width:0.100000; stroke-opacity:1;  stroke-linecap:round; stroke-linejoin:round;">
<circle cx="9852563.000000" cy="10201910.000000" r="60000.000000"/> 
</g>
<g style="fill:#ffffff; fill-opacity:1.0;  stroke:#ffffff; stroke-width:0.100000; stroke-opacity:1;  stroke-linecap:round; stroke-linejoin:round;">
<circle cx="9452563.000000" cy="10201910.000000" r="60000.000000"/> 
</g>
<g style="fill:#ffffff; fill-opacity:1.0;  stroke:#ffffff; stroke-width:0.100000; stroke-opacity:1;  stroke-linecap:round; stroke-linejoin:round;">
<circle cx="12500563.000000" cy="12554610.000000" r="93980.000000"/> 
</g>
<g style="fill:#ffffff; fill-opacity:1.0;  stroke:#ffffff; stroke-width:0.100000; stroke-opacity:1;  stroke-linecap:round; stroke-linejoin:round;">
<circle cx="12246563.000000" cy="12554610.000000" r="93980.000000"/> 
</g>
<g style="fill:#ffffff; fill-opacity:1.0;  stroke:#ffffff; stroke-width:0.100000; stroke-opacity:1;  stroke-linecap:round; stroke-linejoin:round;">
<circle cx="9452563.000000" cy="12005310.000000" r="60000.000000"/> 
</g>
<g style="fill:#ffffff; fill-opacity:1.0;  stroke:#ffffff; stroke-width:0.100000; stroke-opacity:1;  stroke-linecap:round; stroke-linejoin:round;">
<circle cx="9852563.000000" cy="12005310.000000" r="60000.000000"/> 
</g>
</g> 
</mask><mask id="pads-mask-silkscreen"><rect x="9192403.0" y="7534910.0" width="11274320.0" height="7011035.0" fill="white"/><g style="fill:#000000; fill-opacity:0.0;  stroke:#000000; stroke-width:0.000000; stroke-opacity:1;  stroke-linecap:round; stroke-linejoin:round;">
<g style="fill:#000000; fill-opacity:1.0;  stroke:#000000; stroke-width:0.100000; stroke-opacity:1;  stroke-linecap:round; stroke-linejoin:round;">
<circle cx="9852563.000000" cy="11103610.000000" r="60000.000000"/> 
</g>
<g style="fill:#000000; fill-opacity:1.0;  stroke:#000000; stroke-width:0.100000; stroke-opacity:1;  stroke-linecap:round; stroke-linejoin:round;">
<circle cx="9452563.000000" cy="11103610.000000" r="60000.000000"/> 
</g>
<g style="fill:#000000; fill-opacity:1.0;  stroke:#000000; stroke-width:0.100000; stroke-opacity:1;  stroke-linecap:round; stroke-linejoin:round;">
<circle cx="19866563.000000" cy="10248610.000000" r="45000.000000"/> 
</g>
<g style="fill:#000000; fill-opacity:1.0;  stroke:#000000; stroke-width:0.100000; stroke-opacity:1;  stroke-linecap:round; stroke-linejoin:round;">
<circle cx="19866563.000000" cy="10688610.000000" r="45000.000000"/> 
</g>
<g style="fill:#000000; fill-opacity:1.0;  stroke:#000000; stroke-width:0.100000; stroke-opacity:1;  stroke-linecap:round; stroke-linejoin:round;">
<circle cx="18413563.000000" cy="8382610.000000" r="213360.000000"/> 
</g>
<g style="fill:#000000; fill-opacity:1.0;  stroke:#000000; stroke-width:0.100000; stroke-opacity:1;  stroke-linecap:round; stroke-linejoin:round;">
<circle cx="18913563.000000" cy="7882610.000000" r="213360.000000"/> 
</g>
<g style="fill:#000000; fill-opacity:1.0;  stroke:#000000; stroke-width:0.100000; stroke-opacity:1;  stroke-linecap:round; stroke-linejoin:round;">
<circle cx="11413563.000000" cy="8382610.000000" r="213360.000000"/> 
</g>
<g style="fill:#000000; fill-opacity:1.0;  stroke:#000000; stroke-width:0.100000; stroke-opacity:1;  stroke-linecap:round; stroke-linejoin:round;">
<circle cx="9452563.000000" cy="9300210.000000" r="60000.000000"/> 
</g>
<g style="fill:#000000; fill-opacity:1.0;  stroke:#000000; stroke-width:0.100000; stroke-opacity:1;  stroke-linecap:round; stroke-linejoin:round;">
<circle cx="9852563.000000" cy="9300210.000000" r="60000.000000"/> 
</g>
<g style="fill:#000000; fill-opacity:1.0;  stroke:#000000; stroke-width:0.100000; stroke-opacity:1;  stroke-linecap:round; stroke-linejoin:round;">
<path style="fill:#000000; fill-opacity:1.0;  stroke:#000000; stroke-width:0.100000; stroke-opacity:1;  stroke-linecap:round; stroke-linejoin:round;fill-rule:evenodd;" d="M 16519663.300000,9173809.600000 16518451.000000,9172774.200000 16463398.800000,9117722.000000 16460548.100000,9112127.200000 16460423.000000,9110537.800000 16460423.000000,9032682.200000 16462363.400000,9026710.300000 16463398.800000,9025498.000000 16518451.000000,8970445.800000 16524045.800000,8967595.100000 16525635.200000,8967470.000000 16603490.800000,8967470.000000 16609462.700000,8969410.400000 16610675.000000,8970445.800000 16665727.200000,9025498.000000 16668577.900000,9031092.800000 16668703.000000,9032682.200000 16668703.000000,9110537.800000 16666762.600000,9116509.700000 16665727.200000,9117722.000000 16610675.000000,9172774.200000 16605080.200000,9175624.900000 16603490.800000,9175750.000000 16525635.200000,9175750.000000 Z"/> 
<path style="fill:#000000; fill-opacity:1.0;  stroke:#000000; stroke-width:0.100000; stroke-opacity:1;  stroke-linecap:round; stroke-linejoin:round;fill-rule:evenodd;" d="M 16519663.300000,9427809.600000 16518451.000000,9426774.200000 16463398.800000,9371722.000000 16460548.100000,9366127.200000 16460423.000000,9364537.800000 16460423.000000,9286682.200000 16462363.400000,9280710.300000 16463398.800000,9279498.000000 16518451.000000,9224445.800000 16524045.800000,9221595.100000 16525635.200000,9221470.000000 16603490.800000,9221470.000000 16609462.700000,9223410.400000 16610675.000000,9224445.800000 16665727.200000,9279498.000000 16668577.900000,9285092.800000 16668703.000000,9286682.200000 16668703.000000,9364537.800000 16666762.600000,9370509.700000 16665727.200000,9371722.000000 16610675.000000,9426774.200000 16605080.200000,9429624.900000 16603490.800000,9429750.000000 16525635.200000,9429750.000000 Z"/> 
<path style="fill:#000000; fill-opacity:1.0;  stroke:#000000; stroke-width:0.100000; stroke-opacity:1;  stroke-linecap:round; stroke-linejoin:round;fill-rule:evenodd;" d="M 16265663.300000,9173809.600000 16264451.000000,9172774.200000 16209398.800000,9117722.000000 16206548.100000,9112127.200000 16206423.000000,9110537.800000 16206423.000000,9032682.200000 16208363.400000,9026710.300000 16209398.800000,9025498.000000 16264451.000000,8970445.800000 16270045.800000,8967595.100000 16271635.200000,8967470.000000 16349490.800000,8967470.000000 16355462.700000,8969410.400000 16356675.000000,8970445.800000 16411727.200000,9025498.000000 16414577.900000,9031092.800000 16414703.000000,9032682.200000 16414703.000000,9110537.800000 16412762.600000,9116509.700000 16411727.200000,9117722.000000 16356675.000000,9172774.200000 16351080.200000,9175624.900000 16349490.800000,9175750.000000 16271635.200000,9175750.000000 Z"/> 
<path style="fill:#000000; fill-opacity:1.0;  stroke:#000000; stroke-width:0.100000; stroke-opacity:1;  stroke-linecap:round; stroke-linejoin:round;fill-rule:evenodd;" d="M 16265663.300000,9427809.600000 16264451.000000,9426774.200000 16209398.800000,9371722.000000 16206548.100000,9366127.200000 16206423.000000,9364537.800000 16206423.000000,9286682.200000 16208363.400000,9280710.300000 16209398.800000,9279498.000000 16264451.000000,9224445.800000 16270045.800000,9221595.100000 16271635.200000,9221470.000000 16349490.800000,9221470.000000 16355462.700000,9223410.400000 16356675.000000,9224445.800000 16411727.200000,9279498.000000 16414577.900000,9285092.800000 16414703.000000,9286682.200000 16414703.000000,9364537.800000 16412762.600000,9370509.700000 16411727.200000,9371722.000000 16356675.000000,9426774.200000 16351080.200000,9429624.900000 16349490.800000,9429750.000000 16271635.200000,9429750.000000 Z"/> 
<path style="fill:#000000; fill-opacity:1.0;  stroke:#000000; stroke-width:0.100000; stroke-opacity:1;  stroke-linecap:round; stroke-linejoin:round;fill-rule:evenodd;" d="M 16011663.300000,9173809.600000 16010451.000000,9172774.200000 15955398.800000,9117722.000000 15952548.100000,9112127.200000 15952423.000000,9110537.800000 15952423.000000,9032682.200000 15954363.400000,9026710.300000 15955398.800000,9025498.000000 16010451.000000,8970445.800000 16016045.800000,8967595.100000 16017635.200000,8967470.000000 16095490.800000,8967470.000000 16101462.700000,8969410.400000 16102675.000000,8970445.800000 16157727.200000,9025498.000000 16160577.900000,9031092.800000 16160703.000000,9032682.200000 16160703.000000,9110537.800000 16158762.600000,9116509.700000 16157727.200000,9117722.000000 16102675.000000,9172774.200000 16097080.200000,9175624.900000 16095490.800000,9175750.000000 16017635.200000,9175750.000000 Z"/> 
<path style="fill:#000000; fill-opacity:1.0;  stroke:#000000; stroke-width:0.100000; stroke-opacity:1;  stroke-linecap:round; stroke-linejoin:round;fill-rule:evenodd;" d="M 16011663.300000,9427809.600000 16010451.000000,9426774.200000 15955398.800000,9371722.000000 15952548.100000,9366127.200000 15952423.000000,9364537.800000 15952423.000000,9286682.200000 15954363.400000,9280710.300000 15955398.800000,9279498.000000 16010451.000000,9224445.800000 16016045.800000,9221595.100000 16017635.200000,9221470.000000 16095490.800000,9221470.000000 16101462.700000,9223410.400000 16102675.000000,9224445.800000 16157727.200000,9279498.000000 16160577.900000,9285092.800000 16160703.000000,9286682.200000 16160703.000000,9364537.800000 16158762.600000,9370509.700000 16157727.200000,9371722.000000 16102675.000000,9426774.200000 16097080.200000,9429624.900000 16095490.800000,9429750.000000 16017635.200000,9429750.000000 Z"/> 
</g>
<g style="fill:#000000; fill-opacity:1.0;  stroke:#000000; stroke-width:0.100000; stroke-opacity:1;  stroke-linecap:round; stroke-linejoin:round;">
<circle cx="9852563.000000" cy="10201910.000000" r="60000.000000"/> 
</g>
<g style="fill:#000000; fill-opacity:1.0;  stroke:#000000; stroke-width:0.100000; stroke-opacity:1;  stroke-linecap:round; stroke-linejoin:round;">
<circle cx="9452563.000000" cy="10201910.000000" r="60000.000000"/> 
</g>
<g style="fill:#000000; fill-opacity:1.0;  stroke:#000000; stroke-width:0.100000; stroke-opacity:1;  stroke-linecap:round; stroke-linejoin:round;">
<circle cx="12500563.000000" cy="12554610.000000" r="93980.000000"/> 
</g>
<g style="fill:#000000; fill-opacity:1.0;  stroke:#000000; stroke-width:0.100000; stroke-opacity:1;  stroke-linecap:round; stroke-linejoin:round;">
<circle cx="12246563.000000" cy="12554610.000000" r="93980.000000"/> 
</g>
<g style="fill:#000000; fill-opacity:1.0;  stroke:#000000; stroke-width:0.100000; stroke-opacity:1;  stroke-linecap:round; stroke-linejoin:round;">
<circle cx="9452563.000000" cy="12005310.000000" r="60000.000000"/> 
</g>
<g style="fill:#000000; fill-opacity:1.0;  stroke:#000000; stroke-width:0.100000; stroke-opacity:1;  stroke-linecap:round; stroke-linejoin:round;">
<circle cx="9852563.000000" cy="12005310.000000" r="60000.000000"/> 
</g>
</g> 
</mask><mask id="hole-mask"><g><rect x="9192403.0" y="7534910.0" fill="white" width="11274320.0" height="7011035.0"/><polyline stroke-linecap="round" stroke="black" stroke-width="120000.0" points="-0.0 0 0.0 0" transform="translate(9852563.0 11103610.0) rotate(-0.0)"/><polyline stroke-linecap="round" stroke="black" stroke-width="120000.0" points="-0.0 0 0.0 0" transform="translate(9452563.0 11103610.0) rotate(-0.0)"/><polyline stroke-linecap="round" stroke="black" stroke-width="90000.0" points="-0.0 0 0.0 0" transform="translate(19866563.0 10248610.0) rotate(-180.0)"/><polyline stroke-linecap="round" stroke="black" stroke-width="90000.0" points="-0.0 0 0.0 0" transform="translate(19866563.0 10688610.0) rotate(-180.0)"/><polyline stroke-linecap="round" stroke="black" stroke-width="280000.0" points="-0.0 0 0.0 0" transform="translate(18413563.0 8382610.0) rotate(-180.0)"/><polyline stroke-linecap="round" stroke="black" stroke-width="280000.0" points="-0.0 0 0.0 0" transform="translate(18913563.0 7882610.0) rotate(-180.0)"/><polyline stroke-linecap="round" stroke="black" stroke-width="280000.0" points="-0.0 0 0.0 0" transform="translate(11413563.0 8382610.0) rotate(-180.0)"/><polyline stroke-linecap="round" stroke="black" stroke-width="120000.0" points="-0.0 0 0.0 0" transform="translate(9452563.0 9300210.0) rotate(-0.0)"/><polyline stroke-linecap="round" stroke="black" stroke-width="120000.0" points="-0.0 0 0.0 0" transform="translate(9852563.0 9300210.0) rotate(-0.0)"/><polyline stroke-linecap="round" stroke="black" stroke-width="101600.0" points="-0.0 0 0.0 0" transform="translate(16564563.0 9071610.0) rotate(-180.0)"/><polyline stroke-linecap="round" stroke="black" stroke-width="101600.0" points="-0.0 0 0.0 0" transform="translate(16564563.0 9325610.0) rotate(-180.0)"/><polyline stroke-linecap="round" stroke="black" stroke-width="101600.0" points="-0.0 0 0.0 0" transform="translate(16310563.0 9071610.0) rotate(-180.0)"/><polyline stroke-linecap="round" stroke="black" stroke-width="101600.0" points="-0.0 0 0.0 0" transform="translate(16310563.0 9325610.0) rotate(-180.0)"/><polyline stroke-linecap="round" stroke="black" stroke-width="101600.0" points="-0.0 0 0.0 0" transform="translate(16056563.0 9071610.0) rotate(-180.0)"/><polyline stroke-linecap="round" stroke="black" stroke-width="101600.0" points="-0.0 0 0.0 0" transform="translate(16056563.0 9325610.0) rotate(-180.0)"/><polyline stroke-linecap="round" stroke="black" stroke-width="120000.0" points="-0.0 0 0.0 0" transform="translate(9852563.0 10201910.0) rotate(-0.0)"/><polyline stroke-linecap="round" stroke="black" stroke-width="120000.0" points="-0.0 0 0.0 0" transform="translate(9452563.0 10201910.0) rotate(-0.0)"/><polyline stroke-linecap="round" stroke="black" stroke-width="80000.0" points="-0.0 0 0.0 0" transform="translate(12500563.0 12554610.0) rotate(-270.0)"/><polyline stroke-linecap="round" stroke="black" stroke-width="80000.0" points="-0.0 0 0.0 0" transform="translate(12246563.0 12554610.0) rotate(-270.0)"/><polyline stroke-linecap="round" stroke="black" stroke-width="120000.0" points="-0.0 0 0.0 0" transform="translate(9452563.0 12005310.0) rotate(-0.0)"/><polyline stroke-linecap="round" stroke="black" stroke-width="120000.0" points="-0.0 0 0.0 0" transform="translate(9852563.0 12005310.0) rotate(-0.0)"/><polyline stroke-linecap="round" stroke="black" stroke-width="50800.0" points="-0.0 0 0.0 0" transform="translate(13872163.0 10951210.0) rotate(0.0)"/><polyline stroke-linecap="round" stroke="black" stroke-width="50800.0" points="-0.0 0 0.0 0" transform="translate(12983163.0 9605010.0) rotate(0.0)"/><polyline stroke-linecap="round" stroke="black" stroke-width="50800.0" points="-0.0 0 0.0 0" transform="translate(14278563.0 9389110.0) rotate(0.0)"/><polyline stroke-linecap="round" stroke="black" stroke-width="50800.0" points="-0.0 0 0.0 0" transform="translate(13097463.0 10900410.0) rotate(0.0)"/><polyline stroke-linecap="round" stroke="black" stroke-width="50800.0" points="-0.0 0 0.0 0" transform="translate(13846763.0 9605010.0) rotate(0.0)"/><polyline stroke-linecap="round" stroke="black" stroke-width="50800.0" points="-0.0 0 0.0 0" transform="translate(14837363.0 10722610.0) rotate(0.0)"/><polyline stroke-linecap="round" stroke="black" stroke-width="50800.0" points="-0.0 0 0.0 0" transform="translate(15624763.0 9693910.0) rotate(0.0)"/><polyline stroke-linecap="round" stroke="black" stroke-width="50800.0" points="-0.0 0 0.0 0" transform="translate(13935663.0 9389110.0) rotate(0.0)"/><polyline stroke-linecap="round" stroke="black" stroke-width="50800.0" points="-0.0 0 0.0 0" transform="translate(11979863.0 10379710.0) rotate(0.0)"/><polyline stroke-linecap="round" stroke="black" stroke-width="50800.0" points="-0.0 0 0.0 0" transform="translate(13084763.0 11256010.0) rotate(0.0)"/><polyline stroke-linecap="round" stroke="black" stroke-width="50800.0" points="-0.0 0 0.0 0" transform="translate(14443663.0 9668510.0) rotate(0.0)"/><polyline stroke-linecap="round" stroke="black" stroke-width="50800.0" points="-0.0 0 0.0 0" transform="translate(13884863.0 10455910.0) rotate(0.0)"/><polyline stroke-linecap="round" stroke="black" stroke-width="50800.0" points="-0.0 0 0.0 0" transform="translate(14240463.0 9592310.0) rotate(0.0)"/><polyline stroke-linecap="round" stroke="black" stroke-width="50800.0" points="-0.0 0 0.0 0" transform="translate(10468563.0 11738610.0) rotate(0.0)"/><polyline stroke-linecap="round" stroke="black" stroke-width="50800.0" points="-0.0 0 0.0 0" transform="translate(18342563.0 10341610.0) rotate(0.0)"/><polyline stroke-linecap="round" stroke="black" stroke-width="50800.0" points="-0.0 0 0.0 0" transform="translate(14329363.0 10125710.0) rotate(0.0)"/><polyline stroke-linecap="round" stroke="black" stroke-width="50800.0" points="-0.0 0 0.0 0" transform="translate(10468563.0 12627610.0) rotate(0.0)"/><polyline stroke-linecap="round" stroke="black" stroke-width="50800.0" points="-0.0 0 0.0 0" transform="translate(10468563.0 9960610.0) rotate(0.0)"/><polyline stroke-linecap="round" stroke="black" stroke-width="50800.0" points="-0.0 0 0.0 0" transform="translate(18596563.0 10087610.0) rotate(0.0)"/><polyline stroke-linecap="round" stroke="black" stroke-width="50800.0" points="-0.0 0 0.0 0" transform="translate(10468563.0 10849610.0) rotate(0.0)"/><polyline stroke-linecap="round" stroke="black" stroke-width="50800.0" points="-0.0 0 0.0 0" transform="translate(14532563.0 10341610.0) rotate(0.0)"/><polyline stroke-linecap="round" stroke="black" stroke-width="50800.0" points="-0.0 0 0.0 0" transform="translate(15929563.0 10722610.0) rotate(0.0)"/><polyline stroke-linecap="round" stroke="black" stroke-width="50800.0" points="-0.0 0 0.0 0" transform="translate(16183563.0 10722610.0) rotate(0.0)"/><polyline stroke-linecap="round" stroke="black" stroke-width="50800.0" points="-0.0 0 0.0 0" transform="translate(15167563.0 11738610.0) rotate(0.0)"/><polyline stroke-linecap="round" stroke="black" stroke-width="50800.0" points="-0.0 0 0.0 0" transform="translate(14227763.0 10532110.0) rotate(0.0)"/><polyline stroke-linecap="round" stroke="black" stroke-width="50800.0" points="-0.0 0 0.0 0" transform="translate(10722563.0 9579610.0) rotate(0.0)"/><polyline stroke-linecap="round" stroke="black" stroke-width="50800.0" points="-0.0 0 0.0 0" transform="translate(14037263.0 10811510.0) rotate(0.0)"/><polyline stroke-linecap="round" stroke="black" stroke-width="50800.0" points="-0.0 0 0.0 0" transform="translate(11027363.0 10519410.0) rotate(0.0)"/><polyline stroke-linecap="round" stroke="black" stroke-width="50800.0" points="-0.0 0 0.0 0" transform="translate(12716463.0 10900410.0) rotate(0.0)"/><polyline stroke-linecap="round" stroke="black" stroke-width="50800.0" points="-0.0 0 0.0 0" transform="translate(11103563.0 10976610.0) rotate(0.0)"/><polyline stroke-linecap="round" stroke="black" stroke-width="50800.0" points="-0.0 0 0.0 0" transform="translate(14278563.0 10976610.0) rotate(0.0)"/><polyline stroke-linecap="round" stroke="black" stroke-width="50800.0" points="-0.0 0 0.0 0" transform="translate(11294063.0 11408410.0) rotate(0.0)"/><polyline stroke-linecap="round" stroke="black" stroke-width="50800.0" points="-0.0 0 0.0 0" transform="translate(12627563.0 9198610.0) rotate(0.0)"/><polyline stroke-linecap="round" stroke="black" stroke-width="50800.0" points="-0.0 0 0.0 0" transform="translate(14392863.0 10532110.0) rotate(0.0)"/><polyline stroke-linecap="round" stroke="black" stroke-width="50800.0" points="-0.0 0 0.0 0" transform="translate(16691563.0 10468610.0) rotate(0.0)"/><polyline stroke-linecap="round" stroke="black" stroke-width="50800.0" points="-0.0 0 0.0 0" transform="translate(15548563.0 10468610.0) rotate(0.0)"/><polyline stroke-linecap="round" stroke="black" stroke-width="50800.0" points="-0.0 0 0.0 0" transform="translate(15002463.0 10900410.0) rotate(0.0)"/><polyline stroke-linecap="round" stroke="black" stroke-width="50800.0" points="-0.0 0 0.0 0" transform="translate(17580563.0 11205210.0) rotate(0.0)"/><polyline stroke-linecap="round" stroke="black" stroke-width="50800.0" points="-0.0 0 0.0 0" transform="translate(14354763.0 11167110.0) rotate(0.0)"/></g></mask></defs><g transform="scale(-1,1)" id="boardContainer"><g id="substrate" clip-path="url(#cut-off)" mask="url(#hole-mask)"><g id="substrate-board" style="fill:#4ca06c; stroke:#4ca06c;"><path d=" M 10595563.0 13453110.0 A 1270000 1270000 0 0 1 9325563.0 12183110.0 L 9325563.0 8881110.0 A 1302137.1 1302137.1 0 0 1 10595563.000916 7547610.037544 L 19358563.0 7547610.0 A 1048231 1048231 0 0 1 20374560.052509 8627109.910682 L 20374563.0 12437110.0 A 1016003 1016003 0 0 1 19358563.000009 13453112.999996 L 10595563.0 13453110.0 " style="fill-rule: evenodd;"/><g style="fill-opacity: 0.0;stroke-width: 25400.000000;stroke-opacity: 1;stroke-linecap: round;stroke-linejoin: round">
<path d="M19358563 13453110 L10595563 13453110 "/>
<path d="M10595563.000916 7547610.037544 A1302137.100000 1302137.100000 0.0 0 0 9325563.037544 8881109.999084"/>
<path d="M19358563 7547610 L10595563 7547610 "/>
<path d="M9325563 12119610 L9325563 8881110 "/>
<path d="M19358563.000009 13453112.999996 A1016003.000000 1016003.000000 0.0 0 0 20374563.000000 12437110.000000"/>
<path d="M20374563 12437110 L20374563 8627110 "/>
<path d="M9325563.000000 12183110.000000 A1270000.000000 1270000.000000 0.0 0 0 10595563.000000 13453110.000000"/>
<path d="M20374560.052509 8627109.910682 A1048231.000000 1048231.000000 0.0 0 0 19358562.998755 7547610.041073"/>
</g> 
</g><g id="substrate-clad" style="fill:#9c6b28; stroke:#9c6b28;"><g style="fill-opacity: 0.0;stroke-width: 0.000000;stroke-opacity: 1;stroke-linecap: round;stroke-linejoin: round">
<g style="fill-opacity: 1.0;stroke-width: 0.100000;stroke-opacity: 1;stroke-linecap: round;stroke-linejoin: round">
<circle cx="9852563.000000" cy="11103610.000000" r="60000.000000"/> 
</g>
<g style="fill-opacity: 1.0;stroke-width: 0.100000;stroke-opacity: 1;stroke-linecap: round;stroke-linejoin: round">
<circle cx="9452563.000000" cy="11103610.000000" r="60000.000000"/> 
</g>
<g style="fill-opacity: 1.0;stroke-width: 0.100000;stroke-opacity: 1;stroke-linecap: round;stroke-linejoin: round">
<circle cx="19866563.000000" cy="10248610.000000" r="45000.000000"/> 
</g>
<g style="fill-opacity: 1.0;stroke-width: 0.100000;stroke-opacity: 1;stroke-linecap: round;stroke-linejoin: round">
<circle cx="19866563.000000" cy="10688610.000000" r="45000.000000"/> 
</g>
<g style="fill-opacity: 1.0;stroke-width: 0.100000;stroke-opacity: 1;stroke-linecap: round;stroke-linejoin: round">
<circle cx="18413563.000000" cy="8382610.000000" r="213360.000000"/> 
</g>
<g style="fill-opacity: 1.0;stroke-width: 0.100000;stroke-opacity: 1;stroke-linecap: round;stroke-linejoin: round">
<circle cx="18913563.000000" cy="7882610.000000" r="213360.000000"/> 
</g>
<g style="fill-opacity: 1.0;stroke-width: 0.100000;stroke-opacity: 1;stroke-linecap: round;stroke-linejoin: round">
<circle cx="11413563.000000" cy="8382610.000000" r="213360.000000"/> 
</g>
<g style="fill-opacity: 1.0;stroke-width: 0.100000;stroke-opacity: 1;stroke-linecap: round;stroke-linejoin: round">
<circle cx="9452563.000000" cy="9300210.000000" r="60000.000000"/> 
</g>
<g style="fill-opacity: 1.0;stroke-width: 0.100000;stroke-opacity: 1;stroke-linecap: round;stroke-linejoin: round">
<circle cx="9852563.000000" cy="9300210.000000" r="60000.000000"/> 
</g>
<g style="fill-opacity: 1.0;stroke-width: 0.100000;stroke-opacity: 1;stroke-linecap: round;stroke-linejoin: round">
<path style="fill-opacity: 1.0;stroke-width: 0.100000;stroke-opacity: 1;stroke-linecap: round;stroke-linejoin: round;fill-rule: evenodd" d="M 16519663.300000,9173809.600000 16518451.000000,9172774.200000 16463398.800000,9117722.000000 16460548.100000,9112127.200000 16460423.000000,9110537.800000 16460423.000000,9032682.200000 16462363.400000,9026710.300000 16463398.800000,9025498.000000 16518451.000000,8970445.800000 16524045.800000,8967595.100000 16525635.200000,8967470.000000 16603490.800000,8967470.000000 16609462.700000,8969410.400000 16610675.000000,8970445.800000 16665727.200000,9025498.000000 16668577.900000,9031092.800000 16668703.000000,9032682.200000 16668703.000000,9110537.800000 16666762.600000,9116509.700000 16665727.200000,9117722.000000 16610675.000000,9172774.200000 16605080.200000,9175624.900000 16603490.800000,9175750.000000 16525635.200000,9175750.000000 Z"/> 
<path style="fill-opacity: 1.0;stroke-width: 0.100000;stroke-opacity: 1;stroke-linecap: round;stroke-linejoin: round;fill-rule: evenodd" d="M 16519663.300000,9427809.600000 16518451.000000,9426774.200000 16463398.800000,9371722.000000 16460548.100000,9366127.200000 16460423.000000,9364537.800000 16460423.000000,9286682.200000 16462363.400000,9280710.300000 16463398.800000,9279498.000000 16518451.000000,9224445.800000 16524045.800000,9221595.100000 16525635.200000,9221470.000000 16603490.800000,9221470.000000 16609462.700000,9223410.400000 16610675.000000,9224445.800000 16665727.200000,9279498.000000 16668577.900000,9285092.800000 16668703.000000,9286682.200000 16668703.000000,9364537.800000 16666762.600000,9370509.700000 16665727.200000,9371722.000000 16610675.000000,9426774.200000 16605080.200000,9429624.900000 16603490.800000,9429750.000000 16525635.200000,9429750.000000 Z"/> 
<path style="fill-opacity: 1.0;stroke-width: 0.100000;stroke-opacity: 1;stroke-linecap: round;stroke-linejoin: round;fill-rule: evenodd" d="M 16265663.300000,9173809.600000 16264451.000000,9172774.200000 16209398.800000,9117722.000000 16206548.100000,9112127.200000 16206423.000000,9110537.800000 16206423.000000,9032682.200000 16208363.400000,9026710.300000 16209398.800000,9025498.000000 16264451.000000,8970445.800000 16270045.800000,8967595.100000 16271635.200000,8967470.000000 16349490.800000,8967470.000000 16355462.700000,8969410.400000 16356675.000000,8970445.800000 16411727.200000,9025498.000000 16414577.900000,9031092.800000 16414703.000000,9032682.200000 16414703.000000,9110537.800000 16412762.600000,9116509.700000 16411727.200000,9117722.000000 16356675.000000,9172774.200000 16351080.200000,9175624.900000 16349490.800000,9175750.000000 16271635.200000,9175750.000000 Z"/> 
<path style="fill-opacity: 1.0;stroke-width: 0.100000;stroke-opacity: 1;stroke-linecap: round;stroke-linejoin: round;fill-rule: evenodd" d="M 16265663.300000,9427809.600000 16264451.000000,9426774.200000 16209398.800000,9371722.000000 16206548.100000,9366127.200000 16206423.000000,9364537.800000 16206423.000000,9286682.200000 16208363.400000,9280710.300000 16209398.800000,9279498.000000 16264451.000000,9224445.800000 16270045.800000,9221595.100000 16271635.200000,9221470.000000 16349490.800000,9221470.000000 16355462.700000,9223410.400000 16356675.000000,9224445.800000 16411727.200000,9279498.000000 16414577.900000,9285092.800000 16414703.000000,9286682.200000 16414703.000000,9364537.800000 16412762.600000,9370509.700000 16411727.200000,9371722.000000 16356675.000000,9426774.200000 16351080.200000,9429624.900000 16349490.800000,9429750.000000 16271635.200000,9429750.000000 Z"/> 
<path style="fill-opacity: 1.0;stroke-width: 0.100000;stroke-opacity: 1;stroke-linecap: round;stroke-linejoin: round;fill-rule: evenodd" d="M 16011663.300000,9173809.600000 16010451.000000,9172774.200000 15955398.800000,9117722.000000 15952548.100000,9112127.200000 15952423.000000,9110537.800000 15952423.000000,9032682.200000 15954363.400000,9026710.300000 15955398.800000,9025498.000000 16010451.000000,8970445.800000 16016045.800000,8967595.100000 16017635.200000,8967470.000000 16095490.800000,8967470.000000 16101462.700000,8969410.400000 16102675.000000,8970445.800000 16157727.200000,9025498.000000 16160577.900000,9031092.800000 16160703.000000,9032682.200000 16160703.000000,9110537.800000 16158762.600000,9116509.700000 16157727.200000,9117722.000000 16102675.000000,9172774.200000 16097080.200000,9175624.900000 16095490.800000,9175750.000000 16017635.200000,9175750.000000 Z"/> 
<path style="fill-opacity: 1.0;stroke-width: 0.100000;stroke-opacity: 1;stroke-linecap: round;stroke-linejoin: round;fill-rule: evenodd" d="M 16011663.300000,9427809.600000 16010451.000000,9426774.200000 15955398.800000,9371722.000000 15952548.100000,9366127.200000 15952423.000000,9364537.800000 15952423.000000,9286682.200000 15954363.400000,9280710.300000 15955398.800000,9279498.000000 16010451.000000,9224445.800000 16016045.800000,9221595.100000 16017635.200000,9221470.000000 16095490.800000,9221470.000000 16101462.700000,9223410.400000 16102675.000000,9224445.800000 16157727.200000,9279498.000000 16160577.900000,9285092.800000 16160703.000000,9286682.200000 16160703.000000,9364537.800000 16158762.600000,9370509.700000 16157727.200000,9371722.000000 16102675.000000,9426774.200000 16097080.200000,9429624.900000 16095490.800000,9429750.000000 16017635.200000,9429750.000000 Z"/> 
</g>
<g style="fill-opacity: 1.0;stroke-width: 0.100000;stroke-opacity: 1;stroke-linecap: round;stroke-linejoin: round">
<circle cx="9852563.000000" cy="10201910.000000" r="60000.000000"/> 
</g>
<g style="fill-opacity: 1.0;stroke-width: 0.100000;stroke-opacity: 1;stroke-linecap: round;stroke-linejoin: round">
<circle cx="9452563.000000" cy="10201910.000000" r="60000.000000"/> 
</g>
<g style="fill-opacity: 1.0;stroke-width: 0.100000;stroke-opacity: 1;stroke-linecap: round;stroke-linejoin: round">
<circle cx="12500563.000000" cy="12554610.000000" r="93980.000000"/> 
</g>
<g style="fill-opacity: 1.0;stroke-width: 0.100000;stroke-opacity: 1;stroke-linecap: round;stroke-linejoin: round">
<circle cx="12246563.000000" cy="12554610.000000" r="93980.000000"/> 
</g>
<g style="fill-opacity: 1.0;stroke-width: 0.100000;stroke-opacity: 1;stroke-linecap: round;stroke-linejoin: round">
<circle cx="9452563.000000" cy="12005310.000000" r="60000.000000"/> 
</g>
<g style="fill-opacity: 1.0;stroke-width: 0.100000;stroke-opacity: 1;stroke-linecap: round;stroke-linejoin: round">
<circle cx="9852563.000000" cy="12005310.000000" r="60000.000000"/> 
</g>
</g> 
</g><g id="substrate-copper" style="fill:#417e5a; stroke:#417e5a;"><g style="fill-opacity: 0.0;stroke-width: 26670.000000;stroke-opacity: 1;stroke-linecap: round;stroke-linejoin: round">
<text x="15040563.000000" y="13008610.000000" transform="scale(-1 1) translate(-30081126.000000 0)" textLength="403013.200000" font-size="201506.600000" lengthAdjust="spacingAndGlyphs" text-anchor="start" opacity="0">v12</text>
<g class="stroked-text"><desc>v12</desc>
<path d="M15001637 12900660 L14965654 13001413 L14929670 12900660 "/>
<path d="M14792934 13001413 L14879294 13001413 "/>
<path d="M14836114 13001413 L14836114 12850283 L14850507 12871873 L14864900 12886266 L14879294 12893463 "/>
<path d="M14735360 12864676 L14728164 12857480 L14713770 12850283 L14677787 12850283 L14663394 12857480 L14656197 12864676 L14649000 12879070 L14649000 12893463 L14656197 12915053 L14742557 13001413 L14649000 13001413 "/>
</g><g style="fill-opacity: 1.0;stroke-width: 0.100000;stroke-opacity: 1;stroke-linecap: round;stroke-linejoin: round">
<circle cx="18413563.000000" cy="8382610.000000" r="203200.000000"/> 
</g>
<g style="fill-opacity: 1.0;stroke-width: 0.100000;stroke-opacity: 1;stroke-linecap: round;stroke-linejoin: round">
<circle cx="18913563.000000" cy="7882610.000000" r="203200.000000"/> 
</g>
<g style="fill-opacity: 1.0;stroke-width: 0.100000;stroke-opacity: 1;stroke-linecap: round;stroke-linejoin: round">
<circle cx="11413563.000000" cy="8382610.000000" r="203200.000000"/> 
</g>
<g style="fill-opacity: 1.0;stroke-width: 0.100000;stroke-opacity: 1;stroke-linecap: round;stroke-linejoin: round">
<path style="fill-opacity: 1.0;stroke-width: 0.100000;stroke-opacity: 1;stroke-linecap: round;stroke-linejoin: round;fill-rule: evenodd" d="M 16658543.000000,9110537.800000 16603490.800000,9165590.000000 16525635.200000,9165590.000000 16470583.000000,9110537.800000 16470583.000000,9032682.200000 16525635.200000,8977630.000000 16603490.800000,8977630.000000 16658543.000000,9032682.200000 Z"/> 
<path style="fill-opacity: 1.0;stroke-width: 0.100000;stroke-opacity: 1;stroke-linecap: round;stroke-linejoin: round;fill-rule: evenodd" d="M 16658543.000000,9364537.800000 16603490.800000,9419590.000000 16525635.200000,9419590.000000 16470583.000000,9364537.800000 16470583.000000,9286682.200000 16525635.200000,9231630.000000 16603490.800000,9231630.000000 16658543.000000,9286682.200000 Z"/> 
<path style="fill-opacity: 1.0;stroke-width: 0.100000;stroke-opacity: 1;stroke-linecap: round;stroke-linejoin: round;fill-rule: evenodd" d="M 16404543.000000,9110537.800000 16349490.800000,9165590.000000 16271635.200000,9165590.000000 16216583.000000,9110537.800000 16216583.000000,9032682.200000 16271635.200000,8977630.000000 16349490.800000,8977630.000000 16404543.000000,9032682.200000 Z"/> 
<path style="fill-opacity: 1.0;stroke-width: 0.100000;stroke-opacity: 1;stroke-linecap: round;stroke-linejoin: round;fill-rule: evenodd" d="M 16404543.000000,9364537.800000 16349490.800000,9419590.000000 16271635.200000,9419590.000000 16216583.000000,9364537.800000 16216583.000000,9286682.200000 16271635.200000,9231630.000000 16349490.800000,9231630.000000 16404543.000000,9286682.200000 Z"/> 
<path style="fill-opacity: 1.0;stroke-width: 0.100000;stroke-opacity: 1;stroke-linecap: round;stroke-linejoin: round;fill-rule: evenodd" d="M 16150543.000000,9110537.800000 16095490.800000,9165590.000000 16017635.200000,9165590.000000 15962583.000000,9110537.800000 15962583.000000,9032682.200000 16017635.200000,8977630.000000 16095490.800000,8977630.000000 16150543.000000,9032682.200000 Z"/> 
<path style="fill-opacity: 1.0;stroke-width: 0.100000;stroke-opacity: 1;stroke-linecap: round;stroke-linejoin: round;fill-rule: evenodd" d="M 16150543.000000,9364537.800000 16095490.800000,9419590.000000 16017635.200000,9419590.000000 15962583.000000,9364537.800000 15962583.000000,9286682.200000 16017635.200000,9231630.000000 16095490.800000,9231630.000000 16150543.000000,9286682.200000 Z"/> 
</g>
<g style="fill-opacity: 1.0;stroke-width: 0.100000;stroke-opacity: 1;stroke-linecap: round;stroke-linejoin: round">
<circle cx="12500563.000000" cy="12554610.000000" r="83820.000000"/> 
</g>
<g style="fill-opacity: 1.0;stroke-width: 0.100000;stroke-opacity: 1;stroke-linecap: round;stroke-linejoin: round">
<circle cx="12246563.000000" cy="12554610.000000" r="83820.000000"/> 
</g>
<g style="fill-opacity: 1.0;stroke-width: 0.100000;stroke-opacity: 1;stroke-linecap: round;stroke-linejoin: round">
<circle cx="13872163.000000" cy="10951210.000000" r="50800.000000"/> 
</g>
<g style="fill-opacity: 1.0;stroke-width: 0.100000;stroke-opacity: 1;stroke-linecap: round;stroke-linejoin: round">
<circle cx="12983163.000000" cy="9605010.000000" r="50800.000000"/> 
</g>
<g style="fill-opacity: 1.0;stroke-width: 0.100000;stroke-opacity: 1;stroke-linecap: round;stroke-linejoin: round">
<circle cx="14278563.000000" cy="9389110.000000" r="50800.000000"/> 
</g>
<g style="fill-opacity: 1.0;stroke-width: 0.100000;stroke-opacity: 1;stroke-linecap: round;stroke-linejoin: round">
<circle cx="13097463.000000" cy="10900410.000000" r="50800.000000"/> 
</g>
<g style="fill-opacity: 1.0;stroke-width: 0.100000;stroke-opacity: 1;stroke-linecap: round;stroke-linejoin: round">
<circle cx="13846763.000000" cy="9605010.000000" r="50800.000000"/> 
</g>
<g style="fill-opacity: 1.0;stroke-width: 0.100000;stroke-opacity: 1;stroke-linecap: round;stroke-linejoin: round">
<circle cx="14837363.000000" cy="10722610.000000" r="50800.000000"/> 
</g>
<g style="fill-opacity: 1.0;stroke-width: 0.100000;stroke-opacity: 1;stroke-linecap: round;stroke-linejoin: round">
<circle cx="15624763.000000" cy="9693910.000000" r="50800.000000"/> 
</g>
<g style="fill-opacity: 1.0;stroke-width: 0.100000;stroke-opacity: 1;stroke-linecap: round;stroke-linejoin: round">
<circle cx="13935663.000000" cy="9389110.000000" r="50800.000000"/> 
</g>
<g style="fill-opacity: 1.0;stroke-width: 0.100000;stroke-opacity: 1;stroke-linecap: round;stroke-linejoin: round">
<circle cx="11979863.000000" cy="10379710.000000" r="50800.000000"/> 
</g>
<g style="fill-opacity: 1.0;stroke-width: 0.100000;stroke-opacity: 1;stroke-linecap: round;stroke-linejoin: round">
<circle cx="13084763.000000" cy="11256010.000000" r="50800.000000"/> 
</g>
<g style="fill-opacity: 1.0;stroke-width: 0.100000;stroke-opacity: 1;stroke-linecap: round;stroke-linejoin: round">
<circle cx="14443663.000000" cy="9668510.000000" r="50800.000000"/> 
</g>
<g style="fill-opacity: 1.0;stroke-width: 0.100000;stroke-opacity: 1;stroke-linecap: round;stroke-linejoin: round">
<circle cx="13884863.000000" cy="10455910.000000" r="50800.000000"/> 
</g>
<g style="fill-opacity: 1.0;stroke-width: 0.100000;stroke-opacity: 1;stroke-linecap: round;stroke-linejoin: round">
<circle cx="14240463.000000" cy="9592310.000000" r="50800.000000"/> 
</g>
<g style="fill-opacity: 1.0;stroke-width: 0.100000;stroke-opacity: 1;stroke-linecap: round;stroke-linejoin: round">
<circle cx="10468563.000000" cy="11738610.000000" r="50800.000000"/> 
</g>
<g style="fill-opacity: 1.0;stroke-width: 0.100000;stroke-opacity: 1;stroke-linecap: round;stroke-linejoin: round">
<circle cx="18342563.000000" cy="10341610.000000" r="50800.000000"/> 
</g>
<g style="fill-opacity: 1.0;stroke-width: 0.100000;stroke-opacity: 1;stroke-linecap: round;stroke-linejoin: round">
<circle cx="14329363.000000" cy="10125710.000000" r="50800.000000"/> 
</g>
<g style="fill-opacity: 1.0;stroke-width: 0.100000;stroke-opacity: 1;stroke-linecap: round;stroke-linejoin: round">
<circle cx="10468563.000000" cy="12627610.000000" r="50800.000000"/> 
</g>
<g style="fill-opacity: 1.0;stroke-width: 0.100000;stroke-opacity: 1;stroke-linecap: round;stroke-linejoin: round">
<circle cx="10468563.000000" cy="9960610.000000" r="50800.000000"/> 
</g>
<g style="fill-opacity: 1.0;stroke-width: 0.100000;stroke-opacity: 1;stroke-linecap: round;stroke-linejoin: round">
<circle cx="18596563.000000" cy="10087610.000000" r="50800.000000"/> 
</g>
<g style="fill-opacity: 1.0;stroke-width: 0.100000;stroke-opacity: 1;stroke-linecap: round;stroke-linejoin: round">
<circle cx="10468563.000000" cy="10849610.000000" r="50800.000000"/> 
</g>
<g style="fill-opacity: 1.0;stroke-width: 0.100000;stroke-opacity: 1;stroke-linecap: round;stroke-linejoin: round">
<circle cx="14532563.000000" cy="10341610.000000" r="50800.000000"/> 
</g>
<g style="fill-opacity: 1.0;stroke-width: 0.100000;stroke-opacity: 1;stroke-linecap: round;stroke-linejoin: round">
<circle cx="15929563.000000" cy="10722610.000000" r="50800.000000"/> 
</g>
<g style="fill-opacity: 1.0;stroke-width: 0.100000;stroke-opacity: 1;stroke-linecap: round;stroke-linejoin: round">
<circle cx="16183563.000000" cy="10722610.000000" r="50800.000000"/> 
</g>
<g style="fill-opacity: 1.0;stroke-width: 0.100000;stroke-opacity: 1;stroke-linecap: round;stroke-linejoin: round">
<circle cx="15167563.000000" cy="11738610.000000" r="50800.000000"/> 
</g>
<g style="fill-opacity: 1.0;stroke-width: 0.100000;stroke-opacity: 1;stroke-linecap: round;stroke-linejoin: round">
<circle cx="14227763.000000" cy="10532110.000000" r="50800.000000"/> 
</g>
<g style="fill-opacity: 1.0;stroke-width: 0.100000;stroke-opacity: 1;stroke-linecap: round;stroke-linejoin: round">
<circle cx="10722563.000000" cy="9579610.000000" r="50800.000000"/> 
</g>
<g style="fill-opacity: 1.0;stroke-width: 0.100000;stroke-opacity: 1;stroke-linecap: round;stroke-linejoin: round">
<circle cx="14037263.000000" cy="10811510.000000" r="50800.000000"/> 
</g>
<g style="fill-opacity: 1.0;stroke-width: 0.100000;stroke-opacity: 1;stroke-linecap: round;stroke-linejoin: round">
<circle cx="11027363.000000" cy="10519410.000000" r="50800.000000"/> 
</g>
<g style="fill-opacity: 1.0;stroke-width: 0.100000;stroke-opacity: 1;stroke-linecap: round;stroke-linejoin: round">
<circle cx="12716463.000000" cy="10900410.000000" r="50800.000000"/> 
</g>
<g style="fill-opacity: 1.0;stroke-width: 0.100000;stroke-opacity: 1;stroke-linecap: round;stroke-linejoin: round">
<circle cx="11103563.000000" cy="10976610.000000" r="50800.000000"/> 
</g>
<g style="fill-opacity: 1.0;stroke-width: 0.100000;stroke-opacity: 1;stroke-linecap: round;stroke-linejoin: round">
<circle cx="14278563.000000" cy="10976610.000000" r="50800.000000"/> 
</g>
<g style="fill-opacity: 1.0;stroke-width: 0.100000;stroke-opacity: 1;stroke-linecap: round;stroke-linejoin: round">
<circle cx="11294063.000000" cy="11408410.000000" r="50800.000000"/> 
</g>
<g style="fill-opacity: 1.0;stroke-width: 0.100000;stroke-opacity: 1;stroke-linecap: round;stroke-linejoin: round">
<circle cx="12627563.000000" cy="9198610.000000" r="50800.000000"/> 
</g>
<g style="fill-opacity: 1.0;stroke-width: 0.100000;stroke-opacity: 1;stroke-linecap: round;stroke-linejoin: round">
<circle cx="14392863.000000" cy="10532110.000000" r="50800.000000"/> 
</g>
<g style="fill-opacity: 1.0;stroke-width: 0.100000;stroke-opacity: 1;stroke-linecap: round;stroke-linejoin: round">
<circle cx="16691563.000000" cy="10468610.000000" r="50800.000000"/> 
</g>
<g style="fill-opacity: 1.0;stroke-width: 0.100000;stroke-opacity: 1;stroke-linecap: round;stroke-linejoin: round">
<circle cx="15548563.000000" cy="10468610.000000" r="50800.000000"/> 
</g>
<g style="fill-opacity: 1.0;stroke-width: 0.100000;stroke-opacity: 1;stroke-linecap: round;stroke-linejoin: round">
<circle cx="15002463.000000" cy="10900410.000000" r="50800.000000"/> 
</g>
<g style="fill-opacity: 1.0;stroke-width: 0.100000;stroke-opacity: 1;stroke-linecap: round;stroke-linejoin: round">
<circle cx="17580563.000000" cy="11205210.000000" r="50800.000000"/> 
</g>
<g style="fill-opacity: 1.0;stroke-width: 0.100000;stroke-opacity: 1;stroke-linecap: round;stroke-linejoin: round">
<circle cx="14354763.000000" cy="11167110.000000" r="50800.000000"/> 
</g>
<g style="fill-opacity: 0.0;stroke-width: 25400.000000;stroke-opacity: 1;stroke-linecap: round;stroke-linejoin: round">
<path d="M13834063 10659110 L13770563 10595610 "/>
<path d="M13834063 10659110 L14469063 10659110 "/>
<path d="M13770563 10481310 L13795963 10455910 "/>
<path d="M13770563 10595610 L13770563 10481310 "/>
<path d="M14507163 10468610 L14443663 10405110 "/>
<path d="M14507163 10621010 L14507163 10468610 "/>
<path d="M14443663 10405110 L14443663 9668510 "/>
<path d="M13795963 10455910 L13884863 10455910 "/>
<path d="M14469063 10659110 L14507163 10621010 "/>
<path d="M10468563 11738610 L10468563 10849610 "/>
<path d="M14329363 9681210 L14329363 10125710 "/>
<path d="M10468563 9122410 L11208363 8382610 "/>
<path d="M10468563 12627610 L10468563 11738610 "/>
<path d="M10468563 10849610 L10468563 9960610 "/>
<path d="M18596563 10087610 L18342563 10341610 "/>
<path d="M14240463 9592310 L14329363 9681210 "/>
<path d="M11208363 8382610 L11413563 8382610 "/>
<path d="M10468563 9960610 L10468563 9122410 "/>
<path d="M14888163 9236710 L15053263 9071610 "/>
<path d="M14532563 10341610 L14888163 9986010 "/>
<path d="M14888163 9986010 L14888163 9236710 "/>
<path d="M15053263 9071610 L16056563 9071610 "/>
<path d="M16183563 9198610 L16310563 9071610 "/>
<path d="M15929563 9706610 L16183563 9452610 "/>
<path d="M15929563 10722610 L15929563 9706610 "/>
<path d="M16183563 9452610 L16183563 9325610 "/>
<path d="M16183563 9325610 L16183563 9198610 "/>
<path d="M16437563 9198610 L16564563 9071610 "/>
<path d="M16183563 10722610 L16437563 10468610 "/>
<path d="M16437563 10468610 L16437563 9579610 "/>
<path d="M16437563 9579610 L16437563 9198610 "/>
<path d="M15167563 11738610 L16056563 10849610 "/>
<path d="M16310563 9503410 L16310563 9325610 "/>
<path d="M16056563 10849610 L16056563 9757410 "/>
<path d="M16056563 9757410 L16310563 9503410 "/>
<path d="M13148263 9452610 L14227763 10532110 "/>
<path d="M10849563 9452610 L13148263 9452610 "/>
<path d="M10722563 9579610 L10849563 9452610 "/>
<path d="M13453063 10811510 L14037263 10811510 "/>
<path d="M11027363 10519410 L13160963 10519410 "/>
<path d="M13160963 10519410 L13453063 10811510 "/>
<path d="M11103563 10976610 L11179763 10900410 "/>
<path d="M11179763 10900410 L12716463 10900410 "/>
<path d="M14037263 11040110 L14100763 10976610 "/>
<path d="M14100763 10976610 L14278563 10976610 "/>
<path d="M11662363 11040110 L14037263 11040110 "/>
<path d="M11294063 11408410 L11662363 11040110 "/>
<path d="M13059363 9198610 L14392863 10532110 "/>
<path d="M12627563 9198610 L13059363 9198610 "/>
<path d="M15002463 10900410 L15434263 10468610 "/>
<path d="M18914063 7890510 L18914063 7883110 "/>
<path d="M16691563 10468610 L18914063 8246110 "/>
<path d="M18914063 7883110 L18913563 7882610 "/>
<path d="M18914063 8246110 L18914063 7890510 "/>
<path d="M15434263 10468610 L15548563 10468610 "/>
<path d="M14545263 11827510 L14354763 11637010 "/>
<path d="M16958263 11827510 L17580563 11205210 "/>
<path d="M14545263 11827510 L16958263 11827510 "/>
<path d="M14354763 11637010 L14354763 11167110 "/>
</g>
</g> 
</g><g id="substrate-pads" style="fill:#b5ae30; stroke:#b5ae30;" mask="url(#pads-mask)"><g style="fill-opacity: 0.0;stroke-width: 26670.000000;stroke-opacity: 1;stroke-linecap: round;stroke-linejoin: round">
<text x="15040563.000000" y="13008610.000000" transform="scale(-1 1) translate(-30081126.000000 0)" textLength="368342.300000" font-size="201506.600000" lengthAdjust="spacingAndGlyphs" text-anchor="start" opacity="0">v12</text>
<g class="stroked-text"><desc>v12</desc>
<path d="M15001637 12900660 L14965654 13001413 L14929670 12900660 "/>
<path d="M14792934 13001413 L14879294 13001413 "/>
<path d="M14836114 13001413 L14836114 12850283 L14850507 12871873 L14864900 12886266 L14879294 12893463 "/>
<path d="M14735360 12864676 L14728164 12857480 L14713770 12850283 L14677787 12850283 L14663394 12857480 L14656197 12864676 L14649000 12879070 L14649000 12893463 L14656197 12915053 L14742557 13001413 L14649000 13001413 "/>
</g><g style="fill-opacity: 1.0;stroke-width: 0.100000;stroke-opacity: 1;stroke-linecap: round;stroke-linejoin: round">
<circle cx="18413563.000000" cy="8382610.000000" r="203200.000000"/> 
</g>
<g style="fill-opacity: 1.0;stroke-width: 0.100000;stroke-opacity: 1;stroke-linecap: round;stroke-linejoin: round">
<circle cx="18913563.000000" cy="7882610.000000" r="203200.000000"/> 
</g>
<g style="fill-opacity: 1.0;stroke-width: 0.100000;stroke-opacity: 1;stroke-linecap: round;stroke-linejoin: round">
<circle cx="11413563.000000" cy="8382610.000000" r="203200.000000"/> 
</g>
<g style="fill-opacity: 1.0;stroke-width: 0.100000;stroke-opacity: 1;stroke-linecap: round;stroke-linejoin: round">
<path style="fill-opacity: 1.0;stroke-width: 0.100000;stroke-opacity: 1;stroke-linecap: round;stroke-linejoin: round;fill-rule: evenodd" d="M 16658543.000000,9110537.800000 16603490.800000,9165590.000000 16525635.200000,9165590.000000 16470583.000000,9110537.800000 16470583.000000,9032682.200000 16525635.200000,8977630.000000 16603490.800000,8977630.000000 16658543.000000,9032682.200000 Z"/> 
<path style="fill-opacity: 1.0;stroke-width: 0.100000;stroke-opacity: 1;stroke-linecap: round;stroke-linejoin: round;fill-rule: evenodd" d="M 16658543.000000,9364537.800000 16603490.800000,9419590.000000 16525635.200000,9419590.000000 16470583.000000,9364537.800000 16470583.000000,9286682.200000 16525635.200000,9231630.000000 16603490.800000,9231630.000000 16658543.000000,9286682.200000 Z"/> 
<path style="fill-opacity: 1.0;stroke-width: 0.100000;stroke-opacity: 1;stroke-linecap: round;stroke-linejoin: round;fill-rule: evenodd" d="M 16404543.000000,9110537.800000 16349490.800000,9165590.000000 16271635.200000,9165590.000000 16216583.000000,9110537.800000 16216583.000000,9032682.200000 16271635.200000,8977630.000000 16349490.800000,8977630.000000 16404543.000000,9032682.200000 Z"/> 
<path style="fill-opacity: 1.0;stroke-width: 0.100000;stroke-opacity: 1;stroke-linecap: round;stroke-linejoin: round;fill-rule: evenodd" d="M 16404543.000000,9364537.800000 16349490.800000,9419590.000000 16271635.200000,9419590.000000 16216583.000000,9364537.800000 16216583.000000,9286682.200000 16271635.200000,9231630.000000 16349490.800000,9231630.000000 16404543.000000,9286682.200000 Z"/> 
<path style="fill-opacity: 1.0;stroke-width: 0.100000;stroke-opacity: 1;stroke-linecap: round;stroke-linejoin: round;fill-rule: evenodd" d="M 16150543.000000,9110537.800000 16095490.800000,9165590.000000 16017635.200000,9165590.000000 15962583.000000,9110537.800000 15962583.000000,9032682.200000 16017635.200000,8977630.000000 16095490.800000,8977630.000000 16150543.000000,9032682.200000 Z"/> 
<path style="fill-opacity: 1.0;stroke-width: 0.100000;stroke-opacity: 1;stroke-linecap: round;stroke-linejoin: round;fill-rule: evenodd" d="M 16150543.000000,9364537.800000 16095490.800000,9419590.000000 16017635.200000,9419590.000000 15962583.000000,9364537.800000 15962583.000000,9286682.200000 16017635.200000,9231630.000000 16095490.800000,9231630.000000 16150543.000000,9286682.200000 Z"/> 
</g>
<g style="fill-opacity: 1.0;stroke-width: 0.100000;stroke-opacity: 1;stroke-linecap: round;stroke-linejoin: round">
<circle cx="12500563.000000" cy="12554610.000000" r="83820.000000"/> 
</g>
<g style="fill-opacity: 1.0;stroke-width: 0.100000;stroke-opacity: 1;stroke-linecap: round;stroke-linejoin: round">
<circle cx="12246563.000000" cy="12554610.000000" r="83820.000000"/> 
</g>
<g style="fill-opacity: 1.0;stroke-width: 0.100000;stroke-opacity: 1;stroke-linecap: round;stroke-linejoin: round">
<circle cx="13872163.000000" cy="10951210.000000" r="50800.000000"/> 
</g>
<g style="fill-opacity: 1.0;stroke-width: 0.100000;stroke-opacity: 1;stroke-linecap: round;stroke-linejoin: round">
<circle cx="12983163.000000" cy="9605010.000000" r="50800.000000"/> 
</g>
<g style="fill-opacity: 1.0;stroke-width: 0.100000;stroke-opacity: 1;stroke-linecap: round;stroke-linejoin: round">
<circle cx="14278563.000000" cy="9389110.000000" r="50800.000000"/> 
</g>
<g style="fill-opacity: 1.0;stroke-width: 0.100000;stroke-opacity: 1;stroke-linecap: round;stroke-linejoin: round">
<circle cx="13097463.000000" cy="10900410.000000" r="50800.000000"/> 
</g>
<g style="fill-opacity: 1.0;stroke-width: 0.100000;stroke-opacity: 1;stroke-linecap: round;stroke-linejoin: round">
<circle cx="13846763.000000" cy="9605010.000000" r="50800.000000"/> 
</g>
<g style="fill-opacity: 1.0;stroke-width: 0.100000;stroke-opacity: 1;stroke-linecap: round;stroke-linejoin: round">
<circle cx="14837363.000000" cy="10722610.000000" r="50800.000000"/> 
</g>
<g style="fill-opacity: 1.0;stroke-width: 0.100000;stroke-opacity: 1;stroke-linecap: round;stroke-linejoin: round">
<circle cx="15624763.000000" cy="9693910.000000" r="50800.000000"/> 
</g>
<g style="fill-opacity: 1.0;stroke-width: 0.100000;stroke-opacity: 1;stroke-linecap: round;stroke-linejoin: round">
<circle cx="13935663.000000" cy="9389110.000000" r="50800.000000"/> 
</g>
<g style="fill-opacity: 1.0;stroke-width: 0.100000;stroke-opacity: 1;stroke-linecap: round;stroke-linejoin: round">
<circle cx="11979863.000000" cy="10379710.000000" r="50800.000000"/> 
</g>
<g style="fill-opacity: 1.0;stroke-width: 0.100000;stroke-opacity: 1;stroke-linecap: round;stroke-linejoin: round">
<circle cx="13084763.000000" cy="11256010.000000" r="50800.000000"/> 
</g>
<g style="fill-opacity: 1.0;stroke-width: 0.100000;stroke-opacity: 1;stroke-linecap: round;stroke-linejoin: round">
<circle cx="14443663.000000" cy="9668510.000000" r="50800.000000"/> 
</g>
<g style="fill-opacity: 1.0;stroke-width: 0.100000;stroke-opacity: 1;stroke-linecap: round;stroke-linejoin: round">
<circle cx="13884863.000000" cy="10455910.000000" r="50800.000000"/> 
</g>
<g style="fill-opacity: 1.0;stroke-width: 0.100000;stroke-opacity: 1;stroke-linecap: round;stroke-linejoin: round">
<circle cx="14240463.000000" cy="9592310.000000" r="50800.000000"/> 
</g>
<g style="fill-opacity: 1.0;stroke-width: 0.100000;stroke-opacity: 1;stroke-linecap: round;stroke-linejoin: round">
<circle cx="10468563.000000" cy="11738610.000000" r="50800.000000"/> 
</g>
<g style="fill-opacity: 1.0;stroke-width: 0.100000;stroke-opacity: 1;stroke-linecap: round;stroke-linejoin: round">
<circle cx="18342563.000000" cy="10341610.000000" r="50800.000000"/> 
</g>
<g style="fill-opacity: 1.0;stroke-width: 0.100000;stroke-opacity: 1;stroke-linecap: round;stroke-linejoin: round">
<circle cx="14329363.000000" cy="10125710.000000" r="50800.000000"/> 
</g>
<g style="fill-opacity: 1.0;stroke-width: 0.100000;stroke-opacity: 1;stroke-linecap: round;stroke-linejoin: round">
<circle cx="10468563.000000" cy="12627610.000000" r="50800.000000"/> 
</g>
<g style="fill-opacity: 1.0;stroke-width: 0.100000;stroke-opacity: 1;stroke-linecap: round;stroke-linejoin: round">
<circle cx="10468563.000000" cy="9960610.000000" r="50800.000000"/> 
</g>
<g style="fill-opacity: 1.0;stroke-width: 0.100000;stroke-opacity: 1;stroke-linecap: round;stroke-linejoin: round">
<circle cx="18596563.000000" cy="10087610.000000" r="50800.000000"/> 
</g>
<g style="fill-opacity: 1.0;stroke-width: 0.100000;stroke-opacity: 1;stroke-linecap: round;stroke-linejoin: round">
<circle cx="10468563.000000" cy="10849610.000000" r="50800.000000"/> 
</g>
<g style="fill-opacity: 1.0;stroke-width: 0.100000;stroke-opacity: 1;stroke-linecap: round;stroke-linejoin: round">
<circle cx="14532563.000000" cy="10341610.000000" r="50800.000000"/> 
</g>
<g style="fill-opacity: 1.0;stroke-width: 0.100000;stroke-opacity: 1;stroke-linecap: round;stroke-linejoin: round">
<circle cx="15929563.000000" cy="10722610.000000" r="50800.000000"/> 
</g>
<g style="fill-opacity: 1.0;stroke-width: 0.100000;stroke-opacity: 1;stroke-linecap: round;stroke-linejoin: round">
<circle cx="16183563.000000" cy="10722610.000000" r="50800.000000"/> 
</g>
<g style="fill-opacity: 1.0;stroke-width: 0.100000;stroke-opacity: 1;stroke-linecap: round;stroke-linejoin: round">
<circle cx="15167563.000000" cy="11738610.000000" r="50800.000000"/> 
</g>
<g style="fill-opacity: 1.0;stroke-width: 0.100000;stroke-opacity: 1;stroke-linecap: round;stroke-linejoin: round">
<circle cx="14227763.000000" cy="10532110.000000" r="50800.000000"/> 
</g>
<g style="fill-opacity: 1.0;stroke-width: 0.100000;stroke-opacity: 1;stroke-linecap: round;stroke-linejoin: round">
<circle cx="10722563.000000" cy="9579610.000000" r="50800.000000"/> 
</g>
<g style="fill-opacity: 1.0;stroke-width: 0.100000;stroke-opacity: 1;stroke-linecap: round;stroke-linejoin: round">
<circle cx="14037263.000000" cy="10811510.000000" r="50800.000000"/> 
</g>
<g style="fill-opacity: 1.0;stroke-width: 0.100000;stroke-opacity: 1;stroke-linecap: round;stroke-linejoin: round">
<circle cx="11027363.000000" cy="10519410.000000" r="50800.000000"/> 
</g>
<g style="fill-opacity: 1.0;stroke-width: 0.100000;stroke-opacity: 1;stroke-linecap: round;stroke-linejoin: round">
<circle cx="12716463.000000" cy="10900410.000000" r="50800.000000"/> 
</g>
<g style="fill-opacity: 1.0;stroke-width: 0.100000;stroke-opacity: 1;stroke-linecap: round;stroke-linejoin: round">
<circle cx="11103563.000000" cy="10976610.000000" r="50800.000000"/> 
</g>
<g style="fill-opacity: 1.0;stroke-width: 0.100000;stroke-opacity: 1;stroke-linecap: round;stroke-linejoin: round">
<circle cx="14278563.000000" cy="10976610.000000" r="50800.000000"/> 
</g>
<g style="fill-opacity: 1.0;stroke-width: 0.100000;stroke-opacity: 1;stroke-linecap: round;stroke-linejoin: round">
<circle cx="11294063.000000" cy="11408410.000000" r="50800.000000"/> 
</g>
<g style="fill-opacity: 1.0;stroke-width: 0.100000;stroke-opacity: 1;stroke-linecap: round;stroke-linejoin: round">
<circle cx="12627563.000000" cy="9198610.000000" r="50800.000000"/> 
</g>
<g style="fill-opacity: 1.0;stroke-width: 0.100000;stroke-opacity: 1;stroke-linecap: round;stroke-linejoin: round">
<circle cx="14392863.000000" cy="10532110.000000" r="50800.000000"/> 
</g>
<g style="fill-opacity: 1.0;stroke-width: 0.100000;stroke-opacity: 1;stroke-linecap: round;stroke-linejoin: round">
<circle cx="16691563.000000" cy="10468610.000000" r="50800.000000"/> 
</g>
<g style="fill-opacity: 1.0;stroke-width: 0.100000;stroke-opacity: 1;stroke-linecap: round;stroke-linejoin: round">
<circle cx="15548563.000000" cy="10468610.000000" r="50800.000000"/> 
</g>
<g style="fill-opacity: 1.0;stroke-width: 0.100000;stroke-opacity: 1;stroke-linecap: round;stroke-linejoin: round">
<circle cx="15002463.000000" cy="10900410.000000" r="50800.000000"/> 
</g>
<g style="fill-opacity: 1.0;stroke-width: 0.100000;stroke-opacity: 1;stroke-linecap: round;stroke-linejoin: round">
<circle cx="17580563.000000" cy="11205210.000000" r="50800.000000"/> 
</g>
<g style="fill-opacity: 1.0;stroke-width: 0.100000;stroke-opacity: 1;stroke-linecap: round;stroke-linejoin: round">
<circle cx="14354763.000000" cy="11167110.000000" r="50800.000000"/> 
</g>
<g style="fill-opacity: 0.0;stroke-width: 25400.000000;stroke-opacity: 1;stroke-linecap: round;stroke-linejoin: round">
<path d="M13834063 10659110 L13770563 10595610 "/>
<path d="M13834063 10659110 L14469063 10659110 "/>
<path d="M13770563 10481310 L13795963 10455910 "/>
<path d="M13770563 10595610 L13770563 10481310 "/>
<path d="M14507163 10468610 L14443663 10405110 "/>
<path d="M14507163 10621010 L14507163 10468610 "/>
<path d="M14443663 10405110 L14443663 9668510 "/>
<path d="M13795963 10455910 L13884863 10455910 "/>
<path d="M14469063 10659110 L14507163 10621010 "/>
<path d="M10468563 11738610 L10468563 10849610 "/>
<path d="M14329363 9681210 L14329363 10125710 "/>
<path d="M10468563 9122410 L11208363 8382610 "/>
<path d="M10468563 12627610 L10468563 11738610 "/>
<path d="M10468563 10849610 L10468563 9960610 "/>
<path d="M18596563 10087610 L18342563 10341610 "/>
<path d="M14240463 9592310 L14329363 9681210 "/>
<path d="M11208363 8382610 L11413563 8382610 "/>
<path d="M10468563 9960610 L10468563 9122410 "/>
<path d="M14888163 9236710 L15053263 9071610 "/>
<path d="M14532563 10341610 L14888163 9986010 "/>
<path d="M14888163 9986010 L14888163 9236710 "/>
<path d="M15053263 9071610 L16056563 9071610 "/>
<path d="M16183563 9198610 L16310563 9071610 "/>
<path d="M15929563 9706610 L16183563 9452610 "/>
<path d="M15929563 10722610 L15929563 9706610 "/>
<path d="M16183563 9452610 L16183563 9325610 "/>
<path d="M16183563 9325610 L16183563 9198610 "/>
<path d="M16437563 9198610 L16564563 9071610 "/>
<path d="M16183563 10722610 L16437563 10468610 "/>
<path d="M16437563 10468610 L16437563 9579610 "/>
<path d="M16437563 9579610 L16437563 9198610 "/>
<path d="M15167563 11738610 L16056563 10849610 "/>
<path d="M16310563 9503410 L16310563 9325610 "/>
<path d="M16056563 10849610 L16056563 9757410 "/>
<path d="M16056563 9757410 L16310563 9503410 "/>
<path d="M13148263 9452610 L14227763 10532110 "/>
<path d="M10849563 9452610 L13148263 9452610 "/>
<path d="M10722563 9579610 L10849563 9452610 "/>
<path d="M13453063 10811510 L14037263 10811510 "/>
<path d="M11027363 10519410 L13160963 10519410 "/>
<path d="M13160963 10519410 L13453063 10811510 "/>
<path d="M11103563 10976610 L11179763 10900410 "/>
<path d="M11179763 10900410 L12716463 10900410 "/>
<path d="M14037263 11040110 L14100763 10976610 "/>
<path d="M14100763 10976610 L14278563 10976610 "/>
<path d="M11662363 11040110 L14037263 11040110 "/>
<path d="M11294063 11408410 L11662363 11040110 "/>
<path d="M13059363 9198610 L14392863 10532110 "/>
<path d="M12627563 9198610 L13059363 9198610 "/>
<path d="M15002463 10900410 L15434263 10468610 "/>
<path d="M18914063 7890510 L18914063 7883110 "/>
<path d="M16691563 10468610 L18914063 8246110 "/>
<path d="M18914063 7883110 L18913563 7882610 "/>
<path d="M18914063 8246110 L18914063 7890510 "/>
<path d="M15434263 10468610 L15548563 10468610 "/>
<path d="M14545263 11827510 L14354763 11637010 "/>
<path d="M16958263 11827510 L17580563 11205210 "/>
<path d="M14545263 11827510 L16958263 11827510 "/>
<path d="M14354763 11637010 L14354763 11167110 "/>
</g>
</g> 
</g><g id="substrate-outline" style="fill:#000000; stroke:#000000; stroke-width: 15000.0"><g style="fill-opacity: 0.0;stroke-opacity: 1;stroke-linecap: round;stroke-linejoin: round">
<path d="M19358563 13453110 L10595563 13453110 "/>
<path d="M10595563.000916 7547610.037544 A1302137.100000 1302137.100000 0.0 0 0 9325563.037544 8881109.999084"/>
<path d="M19358563 7547610 L10595563 7547610 "/>
<path d="M9325563 12119610 L9325563 8881110 "/>
<path d="M19358563.000009 13453112.999996 A1016003.000000 1016003.000000 0.0 0 0 20374563.000000 12437110.000000"/>
<path d="M20374563 12437110 L20374563 8627110 "/>
<path d="M9325563.000000 12183110.000000 A1270000.000000 1270000.000000 0.0 0 0 10595563.000000 13453110.000000"/>
<path d="M20374560.052509 8627109.910682 A1048231.000000 1048231.000000 0.0 0 0 19358562.998755 7547610.041073"/>
</g> 
<path d="M -60000.0 0.0 A 60000.0 60000.0 0 1 1 60000.0 0.0 L 60000.0 -0.0 A 60000.0 60000.0 0 1 1 -60000.0 -0.0 Z" transform="translate(9852563.0 11103610.0) rotate(-0.0)"/><path d="M -60000.0 0.0 A 60000.0 60000.0 0 1 1 60000.0 0.0 L 60000.0 -0.0 A 60000.0 60000.0 0 1 1 -60000.0 -0.0 Z" transform="translate(9452563.0 11103610.0) rotate(-0.0)"/><path d="M -45000.0 0.0 A 45000.0 45000.0 0 1 1 45000.0 0.0 L 45000.0 -0.0 A 45000.0 45000.0 0 1 1 -45000.0 -0.0 Z" transform="translate(19866563.0 10248610.0) rotate(-180.0)"/><path d="M -45000.0 0.0 A 45000.0 45000.0 0 1 1 45000.0 0.0 L 45000.0 -0.0 A 45000.0 45000.0 0 1 1 -45000.0 -0.0 Z" transform="translate(19866563.0 10688610.0) rotate(-180.0)"/><path d="M -140000.0 0.0 A 140000.0 140000.0 0 1 1 140000.0 0.0 L 140000.0 -0.0 A 140000.0 140000.0 0 1 1 -140000.0 -0.0 Z" transform="translate(18413563.0 8382610.0) rotate(-180.0)"/><path d="M -140000.0 0.0 A 140000.0 140000.0 0 1 1 140000.0 0.0 L 140000.0 -0.0 A 140000.0 140000.0 0 1 1 -140000.0 -0.0 Z" transform="translate(18913563.0 7882610.0) rotate(-180.0)"/><path d="M -140000.0 0.0 A 140000.0 140000.0 0 1 1 140000.0 0.0 L 140000.0 -0.0 A 140000.0 140000.0 0 1 1 -140000.0 -0.0 Z" transform="translate(11413563.0 8382610.0) rotate(-180.0)"/><path d="M -60000.0 0.0 A 60000.0 60000.0 0 1 1 60000.0 0.0 L 60000.0 -0.0 A 60000.0 60000.0 0 1 1 -60000.0 -0.0 Z" transform="translate(9452563.0 9300210.0) rotate(-0.0)"/><path d="M -60000.0 0.0 A 60000.0 60000.0 0 1 1 60000.0 0.0 L 60000.0 -0.0 A 60000.0 60000.0 0 1 1 -60000.0 -0.0 Z" transform="translate(9852563.0 9300210.0) rotate(-0.0)"/><path d="M -50800.0 0.0 A 50800.0 50800.0 0 1 1 50800.0 0.0 L 50800.0 -0.0 A 50800.0 50800.0 0 1 1 -50800.0 -0.0 Z" transform="translate(16564563.0 9071610.0) rotate(-180.0)"/><path d="M -50800.0 0.0 A 50800.0 50800.0 0 1 1 50800.0 0.0 L 50800.0 -0.0 A 50800.0 50800.0 0 1 1 -50800.0 -0.0 Z" transform="translate(16564563.0 9325610.0) rotate(-180.0)"/><path d="M -50800.0 0.0 A 50800.0 50800.0 0 1 1 50800.0 0.0 L 50800.0 -0.0 A 50800.0 50800.0 0 1 1 -50800.0 -0.0 Z" transform="translate(16310563.0 9071610.0) rotate(-180.0)"/><path d="M -50800.0 0.0 A 50800.0 50800.0 0 1 1 50800.0 0.0 L 50800.0 -0.0 A 50800.0 50800.0 0 1 1 -50800.0 -0.0 Z" transform="translate(16310563.0 9325610.0) rotate(-180.0)"/><path d="M -50800.0 0.0 A 50800.0 50800.0 0 1 1 50800.0 0.0 L 50800.0 -0.0 A 50800.0 50800.0 0 1 1 -50800.0 -0.0 Z" transform="translate(16056563.0 9071610.0) rotate(-180.0)"/><path d="M -50800.0 0.0 A 50800.0 50800.0 0 1 1 50800.0 0.0 L 50800.0 -0.0 A 50800.0 50800.0 0 1 1 -50800.0 -0.0 Z" transform="translate(16056563.0 9325610.0) rotate(-180.0)"/><path d="M -60000.0 0.0 A 60000.0 60000.0 0 1 1 60000.0 0.0 L 60000.0 -0.0 A 60000.0 60000.0 0 1 1 -60000.0 -0.0 Z" transform="translate(9852563.0 10201910.0) rotate(-0.0)"/><path d="M -60000.0 0.0 A 60000.0 60000.0 0 1 1 60000.0 0.0 L 60000.0 -0.0 A 60000.0 60000.0 0 1 1 -60000.0 -0.0 Z" transform="translate(9452563.0 10201910.0) rotate(-0.0)"/><path d="M -40000.0 0.0 A 40000.0 40000.0 0 1 1 40000.0 0.0 L 40000.0 -0.0 A 40000.0 40000.0 0 1 1 -40000.0 -0.0 Z" transform="translate(12500563.0 12554610.0) rotate(-270.0)"/><path d="M -40000.0 0.0 A 40000.0 40000.0 0 1 1 40000.0 0.0 L 40000.0 -0.0 A 40000.0 40000.0 0 1 1 -40000.0 -0.0 Z" transform="translate(12246563.0 12554610.0) rotate(-270.0)"/><path d="M -60000.0 0.0 A 60000.0 60000.0 0 1 1 60000.0 0.0 L 60000.0 -0.0 A 60000.0 60000.0 0 1 1 -60000.0 -0.0 Z" transform="translate(9452563.0 12005310.0) rotate(-0.0)"/><path d="M -60000.0 0.0 A 60000.0 60000.0 0 1 1 60000.0 0.0 L 60000.0 -0.0 A 60000.0 60000.0 0 1 1 -60000.0 -0.0 Z" transform="translate(9852563.0 12005310.0) rotate(-0.0)"/><path d="M -25400.0 0.0 A 25400.0 25400.0 0 1 1 25400.0 0.0 L 25400.0 -0.0 A 25400.0 25400.0 0 1 1 -25400.0 -0.0 Z" transform="translate(13872163.0 10951210.0) rotate(0.0)"/><path d="M -25400.0 0.0 A 25400.0 25400.0 0 1 1 25400.0 0.0 L 25400.0 -0.0 A 25400.0 25400.0 0 1 1 -25400.0 -0.0 Z" transform="translate(12983163.0 9605010.0) rotate(0.0)"/><path d="M -25400.0 0.0 A 25400.0 25400.0 0 1 1 25400.0 0.0 L 25400.0 -0.0 A 25400.0 25400.0 0 1 1 -25400.0 -0.0 Z" transform="translate(14278563.0 9389110.0) rotate(0.0)"/><path d="M -25400.0 0.0 A 25400.0 25400.0 0 1 1 25400.0 0.0 L 25400.0 -0.0 A 25400.0 25400.0 0 1 1 -25400.0 -0.0 Z" transform="translate(13097463.0 10900410.0) rotate(0.0)"/><path d="M -25400.0 0.0 A 25400.0 25400.0 0 1 1 25400.0 0.0 L 25400.0 -0.0 A 25400.0 25400.0 0 1 1 -25400.0 -0.0 Z" transform="translate(13846763.0 9605010.0) rotate(0.0)"/><path d="M -25400.0 0.0 A 25400.0 25400.0 0 1 1 25400.0 0.0 L 25400.0 -0.0 A 25400.0 25400.0 0 1 1 -25400.0 -0.0 Z" transform="translate(14837363.0 10722610.0) rotate(0.0)"/><path d="M -25400.0 0.0 A 25400.0 25400.0 0 1 1 25400.0 0.0 L 25400.0 -0.0 A 25400.0 25400.0 0 1 1 -25400.0 -0.0 Z" transform="translate(15624763.0 9693910.0) rotate(0.0)"/><path d="M -25400.0 0.0 A 25400.0 25400.0 0 1 1 25400.0 0.0 L 25400.0 -0.0 A 25400.0 25400.0 0 1 1 -25400.0 -0.0 Z" transform="translate(13935663.0 9389110.0) rotate(0.0)"/><path d="M -25400.0 0.0 A 25400.0 25400.0 0 1 1 25400.0 0.0 L 25400.0 -0.0 A 25400.0 25400.0 0 1 1 -25400.0 -0.0 Z" transform="translate(11979863.0 10379710.0) rotate(0.0)"/><path d="M -25400.0 0.0 A 25400.0 25400.0 0 1 1 25400.0 0.0 L 25400.0 -0.0 A 25400.0 25400.0 0 1 1 -25400.0 -0.0 Z" transform="translate(13084763.0 11256010.0) rotate(0.0)"/><path d="M -25400.0 0.0 A 25400.0 25400.0 0 1 1 25400.0 0.0 L 25400.0 -0.0 A 25400.0 25400.0 0 1 1 -25400.0 -0.0 Z" transform="translate(14443663.0 9668510.0) rotate(0.0)"/><path d="M -25400.0 0.0 A 25400.0 25400.0 0 1 1 25400.0 0.0 L 25400.0 -0.0 A 25400.0 25400.0 0 1 1 -25400.0 -0.0 Z" transform="translate(13884863.0 10455910.0) rotate(0.0)"/><path d="M -25400.0 0.0 A 25400.0 25400.0 0 1 1 25400.0 0.0 L 25400.0 -0.0 A 25400.0 25400.0 0 1 1 -25400.0 -0.0 Z" transform="translate(14240463.0 9592310.0) rotate(0.0)"/><path d="M -25400.0 0.0 A 25400.0 25400.0 0 1 1 25400.0 0.0 L 25400.0 -0.0 A 25400.0 25400.0 0 1 1 -25400.0 -0.0 Z" transform="translate(10468563.0 11738610.0) rotate(0.0)"/><path d="M -25400.0 0.0 A 25400.0 25400.0 0 1 1 25400.0 0.0 L 25400.0 -0.0 A 25400.0 25400.0 0 1 1 -25400.0 -0.0 Z" transform="translate(18342563.0 10341610.0) rotate(0.0)"/><path d="M -25400.0 0.0 A 25400.0 25400.0 0 1 1 25400.0 0.0 L 25400.0 -0.0 A 25400.0 25400.0 0 1 1 -25400.0 -0.0 Z" transform="translate(14329363.0 10125710.0) rotate(0.0)"/><path d="M -25400.0 0.0 A 25400.0 25400.0 0 1 1 25400.0 0.0 L 25400.0 -0.0 A 25400.0 25400.0 0 1 1 -25400.0 -0.0 Z" transform="translate(10468563.0 12627610.0) rotate(0.0)"/><path d="M -25400.0 0.0 A 25400.0 25400.0 0 1 1 25400.0 0.0 L 25400.0 -0.0 A 25400.0 25400.0 0 1 1 -25400.0 -0.0 Z" transform="translate(10468563.0 9960610.0) rotate(0.0)"/><path d="M -25400.0 0.0 A 25400.0 25400.0 0 1 1 25400.0 0.0 L 25400.0 -0.0 A 25400.0 25400.0 0 1 1 -25400.0 -0.0 Z" transform="translate(18596563.0 10087610.0) rotate(0.0)"/><path d="M -25400.0 0.0 A 25400.0 25400.0 0 1 1 25400.0 0.0 L 25400.0 -0.0 A 25400.0 25400.0 0 1 1 -25400.0 -0.0 Z" transform="translate(10468563.0 10849610.0) rotate(0.0)"/><path d="M -25400.0 0.0 A 25400.0 25400.0 0 1 1 25400.0 0.0 L 25400.0 -0.0 A 25400.0 25400.0 0 1 1 -25400.0 -0.0 Z" transform="translate(14532563.0 10341610.0) rotate(0.0)"/><path d="M -25400.0 0.0 A 25400.0 25400.0 0 1 1 25400.0 0.0 L 25400.0 -0.0 A 25400.0 25400.0 0 1 1 -25400.0 -0.0 Z" transform="translate(15929563.0 10722610.0) rotate(0.0)"/><path d="M -25400.0 0.0 A 25400.0 25400.0 0 1 1 25400.0 0.0 L 25400.0 -0.0 A 25400.0 25400.0 0 1 1 -25400.0 -0.0 Z" transform="translate(16183563.0 10722610.0) rotate(0.0)"/><path d="M -25400.0 0.0 A 25400.0 25400.0 0 1 1 25400.0 0.0 L 25400.0 -0.0 A 25400.0 25400.0 0 1 1 -25400.0 -0.0 Z" transform="translate(15167563.0 11738610.0) rotate(0.0)"/><path d="M -25400.0 0.0 A 25400.0 25400.0 0 1 1 25400.0 0.0 L 25400.0 -0.0 A 25400.0 25400.0 0 1 1 -25400.0 -0.0 Z" transform="translate(14227763.0 10532110.0) rotate(0.0)"/><path d="M -25400.0 0.0 A 25400.0 25400.0 0 1 1 25400.0 0.0 L 25400.0 -0.0 A 25400.0 25400.0 0 1 1 -25400.0 -0.0 Z" transform="translate(10722563.0 9579610.0) rotate(0.0)"/><path d="M -25400.0 0.0 A 25400.0 25400.0 0 1 1 25400.0 0.0 L 25400.0 -0.0 A 25400.0 25400.0 0 1 1 -25400.0 -0.0 Z" transform="translate(14037263.0 10811510.0) rotate(0.0)"/><path d="M -25400.0 0.0 A 25400.0 25400.0 0 1 1 25400.0 0.0 L 25400.0 -0.0 A 25400.0 25400.0 0 1 1 -25400.0 -0.0 Z" transform="translate(11027363.0 10519410.0) rotate(0.0)"/><path d="M -25400.0 0.0 A 25400.0 25400.0 0 1 1 25400.0 0.0 L 25400.0 -0.0 A 25400.0 25400.0 0 1 1 -25400.0 -0.0 Z" transform="translate(12716463.0 10900410.0) rotate(0.0)"/><path d="M -25400.0 0.0 A 25400.0 25400.0 0 1 1 25400.0 0.0 L 25400.0 -0.0 A 25400.0 25400.0 0 1 1 -25400.0 -0.0 Z" transform="translate(11103563.0 10976610.0) rotate(0.0)"/><path d="M -25400.0 0.0 A 25400.0 25400.0 0 1 1 25400.0 0.0 L 25400.0 -0.0 A 25400.0 25400.0 0 1 1 -25400.0 -0.0 Z" transform="translate(14278563.0 10976610.0) rotate(0.0)"/><path d="M -25400.0 0.0 A 25400.0 25400.0 0 1 1 25400.0 0.0 L 25400.0 -0.0 A 25400.0 25400.0 0 1 1 -25400.0 -0.0 Z" transform="translate(11294063.0 11408410.0) rotate(0.0)"/><path d="M -25400.0 0.0 A 25400.0 25400.0 0 1 1 25400.0 0.0 L 25400.0 -0.0 A 25400.0 25400.0 0 1 1 -25400.0 -0.0 Z" transform="translate(12627563.0 9198610.0) rotate(0.0)"/><path d="M -25400.0 0.0 A 25400.0 25400.0 0 1 1 25400.0 0.0 L 25400.0 -0.0 A 25400.0 25400.0 0 1 1 -25400.0 -0.0 Z" transform="translate(14392863.0 10532110.0) rotate(0.0)"/><path d="M -25400.0 0.0 A 25400.0 25400.0 0 1 1 25400.0 0.0 L 25400.0 -0.0 A 25400.0 25400.0 0 1 1 -25400.0 -0.0 Z" transform="translate(16691563.0 10468610.0) rotate(0.0)"/><path d="M -25400.0 0.0 A 25400.0 25400.0 0 1 1 25400.0 0.0 L 25400.0 -0.0 A 25400.0 25400.0 0 1 1 -25400.0 -0.0 Z" transform="translate(15548563.0 10468610.0) rotate(0.0)"/><path d="M -25400.0 0.0 A 25400.0 25400.0 0 1 1 25400.0 0.0 L 25400.0 -0.0 A 25400.0 25400.0 0 1 1 -25400.0 -0.0 Z" transform="translate(15002463.0 10900410.0) rotate(0.0)"/><path d="M -25400.0 0.0 A 25400.0 25400.0 0 1 1 25400.0 0.0 L 25400.0 -0.0 A 25400.0 25400.0 0 1 1 -25400.0 -0.0 Z" transform="translate(17580563.0 11205210.0) rotate(0.0)"/><path d="M -25400.0 0.0 A 25400.0 25400.0 0 1 1 25400.0 0.0 L 25400.0 -0.0 A 25400.0 25400.0 0 1 1 -25400.0 -0.0 Z" transform="translate(14354763.0 11167110.0) rotate(0.0)"/></g></g></g></svg>