<?xml version="1.0" standalone="no"?>
 <!DOCTYPE svg PUBLIC "-//W3C//DTD SVG 1.1//EN" 
 "http://www.w3.org/Graphics/SVG/1.1/DTD/svg11.dtd"> 
<svg
  xmlns:svg="http://www.w3.org/2000/svg"
  xmlns="http://www.w3.org/2000/svg"
  xmlns:xlink="http://www.w3.org/1999/xlink"
  version="1.1"
  width="29.700220cm" height="21.000720cm" viewBox="0 0 297002200 210007200">
<title>SVG Picture created as kicadBoard-F_Silkscreen.svg date 2022/11/09 00:19:14 </title>
  <desc>Picture generated by PCBNEW </desc>
<g style="fill:#000000; fill-opacity:1.000000;stroke:#000000; stroke-opacity:1.000000;
stroke-linecap:round; stroke-linejoin:round;"
 transform="translate(0 0) scale(1 1)">
</g>
<g style="fill:#000000; fill-opacity:0.0; 
stroke:#000000; stroke-width:0.000000; stroke-opacity:1; 
stroke-linecap:round; stroke-linejoin:round;">
</g>
<g style="fill:#000000; fill-opacity:0.0; 
stroke:#000000; stroke-width:21200.000000; stroke-opacity:1; 
stroke-linecap:round; stroke-linejoin:round;">
</g>
<g style="fill:#000000; fill-opacity:0.0; 
stroke:#000000; stroke-width:150000.000000; stroke-opacity:1; 
stroke-linecap:round; stroke-linejoin:round;">
<rect x="177002200.000000" y="166007200.000000" width="108000000.000000" height="32000000.000000" rx="0.000000" />
</g>
<g style="fill:#000000; fill-opacity:0.0; 
stroke:#000000; stroke-width:21200.000000; stroke-opacity:1; 
stroke-linecap:round; stroke-linejoin:round;">
</g>
<g style="fill:#000000; fill-opacity:0.0; 
stroke:#000000; stroke-width:150000.000000; stroke-opacity:1; 
stroke-linecap:round; stroke-linejoin:round;">
<rect x="10000000.000000" y="10000000.000000" width="277002200.000000" height="190007200.000000" rx="0.000000" />
</g>
<g style="fill:#000000; fill-opacity:0.0; 
stroke:#000000; stroke-width:21200.000000; stroke-opacity:1; 
stroke-linecap:round; stroke-linejoin:round;">
</g>
<g style="fill:#000000; fill-opacity:0.0; 
stroke:#000000; stroke-width:150000.000000; stroke-opacity:1; 
stroke-linecap:round; stroke-linejoin:round;">
<rect x="12000000.000000" y="12000000.000000" width="273002200.000000" height="186007200.000000" rx="0.000000" />
</g>
<g style="fill:#000000; fill-opacity:0.0; 
stroke:#000000; stroke-width:21200.000000; stroke-opacity:1; 
stroke-linecap:round; stroke-linejoin:round;">
</g>
<g style="fill:#000000; fill-opacity:0.0; 
stroke:#000000; stroke-width:150000.000000; stroke-opacity:1; 
stroke-linecap:round; stroke-linejoin:round;">
<path d="M60000000 12000000
L60000000 10000000
" />
</g>
<g style="fill:#000000; fill-opacity:0.0; 
stroke:#000000; stroke-width:21200.000000; stroke-opacity:1; 
stroke-linecap:round; stroke-linejoin:round;">
</g>
<g style="fill:#000000; fill-opacity:0.0; 
stroke:#000000; stroke-width:150000.000000; stroke-opacity:1; 
stroke-linecap:round; stroke-linejoin:round;">
<path d="M110000000 12000000
L110000000 10000000
" />
</g>
<g style="fill:#000000; fill-opacity:0.0; 
stroke:#000000; stroke-width:21200.000000; stroke-opacity:1; 
stroke-linecap:round; stroke-linejoin:round;">
</g>
<g style="fill:#000000; fill-opacity:0.0; 
stroke:#000000; stroke-width:150000.000000; stroke-opacity:1; 
stroke-linecap:round; stroke-linejoin:round;">
<path d="M160000000 12000000
L160000000 10000000
" />
</g>
<g style="fill:#000000; fill-opacity:0.0; 
stroke:#000000; stroke-width:21200.000000; stroke-opacity:1; 
stroke-linecap:round; stroke-linejoin:round;">
</g>
<g style="fill:#000000; fill-opacity:0.0; 
stroke:#000000; stroke-width:150000.000000; stroke-opacity:1; 
stroke-linecap:round; stroke-linejoin:round;">
<path d="M210000000 12000000
L210000000 10000000
" />
</g>
<g style="fill:#000000; fill-opacity:0.0; 
stroke:#000000; stroke-width:21200.000000; stroke-opacity:1; 
stroke-linecap:round; stroke-linejoin:round;">
</g>
<g style="fill:#000000; fill-opacity:0.0; 
stroke:#000000; stroke-width:150000.000000; stroke-opacity:1; 
stroke-linecap:round; stroke-linejoin:round;">
<path d="M260000000 12000000
L260000000 10000000
" />
</g>
<g style="fill:#000000; fill-opacity:0.0; 
stroke:#000000; stroke-width:21200.000000; stroke-opacity:1; 
stroke-linecap:round; stroke-linejoin:round;">
</g>
<g style="fill:#000000; fill-opacity:0.0; 
stroke:#000000; stroke-width:150000.000000; stroke-opacity:1; 
stroke-linecap:round; stroke-linejoin:round;">
<text x="35000000.000000" y="11650000.000000"
textLength="1403195.000000" font-size="1733333.000000" lengthAdjust="spacingAndGlyphs"
text-anchor="start" opacity="0">1</text>
<g class="stroked-text"><desc>1</desc>
<path d="M36065476 11588095
L35322619 11588095
" />
<path d="M35694047 11588095
L35694047 10288095
L35570238 10473809
L35446428 10597619
L35322619 10659523
" />
</g></g>
<g style="fill:#000000; fill-opacity:0.0; 
stroke:#000000; stroke-width:21200.000000; stroke-opacity:1; 
stroke-linecap:round; stroke-linejoin:round;">
</g>
<g style="fill:#000000; fill-opacity:0.0; 
stroke:#000000; stroke-width:150000.000000; stroke-opacity:1; 
stroke-linecap:round; stroke-linejoin:round;">
<text x="85000000.000000" y="11650000.000000"
textLength="1388095.000000" font-size="1733333.000000" lengthAdjust="spacingAndGlyphs"
text-anchor="start" opacity="0">2</text>
<g class="stroked-text"><desc>2</desc>
<path d="M85322619 10411904
L85384523 10350000
L85508333 10288095
L85817857 10288095
L85941666 10350000
L86003571 10411904
L86065476 10535714
L86065476 10659523
L86003571 10845238
L85260714 11588095
L86065476 11588095
" />
</g></g>
<g style="fill:#000000; fill-opacity:0.0; 
stroke:#000000; stroke-width:21200.000000; stroke-opacity:1; 
stroke-linecap:round; stroke-linejoin:round;">
</g>
<g style="fill:#000000; fill-opacity:0.0; 
stroke:#000000; stroke-width:150000.000000; stroke-opacity:1; 
stroke-linecap:round; stroke-linejoin:round;">
<text x="135000000.000000" y="11650000.000000"
textLength="1388095.000000" font-size="1733333.000000" lengthAdjust="spacingAndGlyphs"
text-anchor="start" opacity="0">3</text>
<g class="stroked-text"><desc>3</desc>
<path d="M135260714 10288095
L136065476 10288095
L135632142 10783333
L135817857 10783333
L135941666 10845238
L136003571 10907142
L136065476 11030952
L136065476 11340476
L136003571 11464285
L135941666 11526190
L135817857 11588095
L135446428 11588095
L135322619 11526190
L135260714 11464285
" />
</g></g>
<g style="fill:#000000; fill-opacity:0.0; 
stroke:#000000; stroke-width:21200.000000; stroke-opacity:1; 
stroke-linecap:round; stroke-linejoin:round;">
</g>
<g style="fill:#000000; fill-opacity:0.0; 
stroke:#000000; stroke-width:150000.000000; stroke-opacity:1; 
stroke-linecap:round; stroke-linejoin:round;">
<text x="185000000.000000" y="11650000.000000"
textLength="1388095.000000" font-size="1733333.000000" lengthAdjust="spacingAndGlyphs"
text-anchor="start" opacity="0">4</text>
<g class="stroked-text"><desc>4</desc>
<path d="M185941666 10721428
L185941666 11588095
" />
<path d="M185632142 10226190
L185322619 11154761
L186127380 11154761
" />
</g></g>
<g style="fill:#000000; fill-opacity:0.0; 
stroke:#000000; stroke-width:21200.000000; stroke-opacity:1; 
stroke-linecap:round; stroke-linejoin:round;">
</g>
<g style="fill:#000000; fill-opacity:0.0; 
stroke:#000000; stroke-width:150000.000000; stroke-opacity:1; 
stroke-linecap:round; stroke-linejoin:round;">
<text x="235000000.000000" y="11650000.000000"
textLength="1388095.000000" font-size="1733333.000000" lengthAdjust="spacingAndGlyphs"
text-anchor="start" opacity="0">5</text>
<g class="stroked-text"><desc>5</desc>
<path d="M236003571 10288095
L235384523 10288095
L235322619 10907142
L235384523 10845238
L235508333 10783333
L235817857 10783333
L235941666 10845238
L236003571 10907142
L236065476 11030952
L236065476 11340476
L236003571 11464285
L235941666 11526190
L235817857 11588095
L235508333 11588095
L235384523 11526190
L235322619 11464285
" />
</g></g>
<g style="fill:#000000; fill-opacity:0.0; 
stroke:#000000; stroke-width:21200.000000; stroke-opacity:1; 
stroke-linecap:round; stroke-linejoin:round;">
</g>
<g style="fill:#000000; fill-opacity:0.0; 
stroke:#000000; stroke-width:150000.000000; stroke-opacity:1; 
stroke-linecap:round; stroke-linejoin:round;">
<text x="285000000.000000" y="11650000.000000"
textLength="1388095.000000" font-size="1733333.000000" lengthAdjust="spacingAndGlyphs"
text-anchor="start" opacity="0">6</text>
<g class="stroked-text"><desc>6</desc>
<path d="M285941666 10288095
L285694047 10288095
L285570238 10350000
L285508333 10411904
L285384523 10597619
L285322619 10845238
L285322619 11340476
L285384523 11464285
L285446428 11526190
L285570238 11588095
L285817857 11588095
L285941666 11526190
L286003571 11464285
L286065476 11340476
L286065476 11030952
L286003571 10907142
L285941666 10845238
L285817857 10783333
L285570238 10783333
L285446428 10845238
L285384523 10907142
L285322619 11030952
" />
</g></g>
<g style="fill:#000000; fill-opacity:0.0; 
stroke:#000000; stroke-width:21200.000000; stroke-opacity:1; 
stroke-linecap:round; stroke-linejoin:round;">
</g>
<g style="fill:#000000; fill-opacity:0.0; 
stroke:#000000; stroke-width:150000.000000; stroke-opacity:1; 
stroke-linecap:round; stroke-linejoin:round;">
<path d="M60000000 198007200
L60000000 200007200
" />
</g>
<g style="fill:#000000; fill-opacity:0.0; 
stroke:#000000; stroke-width:21200.000000; stroke-opacity:1; 
stroke-linecap:round; stroke-linejoin:round;">
</g>
<g style="fill:#000000; fill-opacity:0.0; 
stroke:#000000; stroke-width:150000.000000; stroke-opacity:1; 
stroke-linecap:round; stroke-linejoin:round;">
<path d="M110000000 198007200
L110000000 200007200
" />
</g>
<g style="fill:#000000; fill-opacity:0.0; 
stroke:#000000; stroke-width:21200.000000; stroke-opacity:1; 
stroke-linecap:round; stroke-linejoin:round;">
</g>
<g style="fill:#000000; fill-opacity:0.0; 
stroke:#000000; stroke-width:150000.000000; stroke-opacity:1; 
stroke-linecap:round; stroke-linejoin:round;">
<path d="M160000000 198007200
L160000000 200007200
" />
</g>
<g style="fill:#000000; fill-opacity:0.0; 
stroke:#000000; stroke-width:21200.000000; stroke-opacity:1; 
stroke-linecap:round; stroke-linejoin:round;">
</g>
<g style="fill:#000000; fill-opacity:0.0; 
stroke:#000000; stroke-width:150000.000000; stroke-opacity:1; 
stroke-linecap:round; stroke-linejoin:round;">
<path d="M210000000 198007200
L210000000 200007200
" />
</g>
<g style="fill:#000000; fill-opacity:0.0; 
stroke:#000000; stroke-width:21200.000000; stroke-opacity:1; 
stroke-linecap:round; stroke-linejoin:round;">
</g>
<g style="fill:#000000; fill-opacity:0.0; 
stroke:#000000; stroke-width:150000.000000; stroke-opacity:1; 
stroke-linecap:round; stroke-linejoin:round;">
<path d="M260000000 198007200
L260000000 200007200
" />
</g>
<g style="fill:#000000; fill-opacity:0.0; 
stroke:#000000; stroke-width:21200.000000; stroke-opacity:1; 
stroke-linecap:round; stroke-linejoin:round;">
</g>
<g style="fill:#000000; fill-opacity:0.0; 
stroke:#000000; stroke-width:150000.000000; stroke-opacity:1; 
stroke-linecap:round; stroke-linejoin:round;">
<text x="35000000.000000" y="199657200.000000"
textLength="1388095.000000" font-size="1733333.000000" lengthAdjust="spacingAndGlyphs"
text-anchor="start" opacity="0">1</text>
<g class="stroked-text"><desc>1</desc>
<path d="M36065476 199595295
L35322619 199595295
" />
<path d="M35694047 199595295
L35694047 198295295
L35570238 198481009
L35446428 198604819
L35322619 198666723
" />
</g></g>
<g style="fill:#000000; fill-opacity:0.0; 
stroke:#000000; stroke-width:21200.000000; stroke-opacity:1; 
stroke-linecap:round; stroke-linejoin:round;">
</g>
<g style="fill:#000000; fill-opacity:0.0; 
stroke:#000000; stroke-width:150000.000000; stroke-opacity:1; 
stroke-linecap:round; stroke-linejoin:round;">
<text x="85000000.000000" y="199657200.000000"
textLength="1388095.000000" font-size="1733333.000000" lengthAdjust="spacingAndGlyphs"
text-anchor="start" opacity="0">2</text>
<g class="stroked-text"><desc>2</desc>
<path d="M85322619 198419104
L85384523 198357200
L85508333 198295295
L85817857 198295295
L85941666 198357200
L86003571 198419104
L86065476 198542914
L86065476 198666723
L86003571 198852438
L85260714 199595295
L86065476 199595295
" />
</g></g>
<g style="fill:#000000; fill-opacity:0.0; 
stroke:#000000; stroke-width:21200.000000; stroke-opacity:1; 
stroke-linecap:round; stroke-linejoin:round;">
</g>
<g style="fill:#000000; fill-opacity:0.0; 
stroke:#000000; stroke-width:150000.000000; stroke-opacity:1; 
stroke-linecap:round; stroke-linejoin:round;">
<text x="135000000.000000" y="199657200.000000"
textLength="1388095.000000" font-size="1733333.000000" lengthAdjust="spacingAndGlyphs"
text-anchor="start" opacity="0">3</text>
<g class="stroked-text"><desc>3</desc>
<path d="M135260714 198295295
L136065476 198295295
L135632142 198790533
L135817857 198790533
L135941666 198852438
L136003571 198914342
L136065476 199038152
L136065476 199347676
L136003571 199471485
L135941666 199533390
L135817857 199595295
L135446428 199595295
L135322619 199533390
L135260714 199471485
" />
</g></g>
<g style="fill:#000000; fill-opacity:0.0; 
stroke:#000000; stroke-width:21200.000000; stroke-opacity:1; 
stroke-linecap:round; stroke-linejoin:round;">
</g>
<g style="fill:#000000; fill-opacity:0.0; 
stroke:#000000; stroke-width:150000.000000; stroke-opacity:1; 
stroke-linecap:round; stroke-linejoin:round;">
<text x="185000000.000000" y="199657200.000000"
textLength="1388095.000000" font-size="1733333.000000" lengthAdjust="spacingAndGlyphs"
text-anchor="start" opacity="0">4</text>
<g class="stroked-text"><desc>4</desc>
<path d="M185941666 198728628
L185941666 199595295
" />
<path d="M185632142 198233390
L185322619 199161961
L186127380 199161961
" />
</g></g>
<g style="fill:#000000; fill-opacity:0.0; 
stroke:#000000; stroke-width:21200.000000; stroke-opacity:1; 
stroke-linecap:round; stroke-linejoin:round;">
</g>
<g style="fill:#000000; fill-opacity:0.0; 
stroke:#000000; stroke-width:150000.000000; stroke-opacity:1; 
stroke-linecap:round; stroke-linejoin:round;">
<text x="235000000.000000" y="199657200.000000"
textLength="1388095.000000" font-size="1733333.000000" lengthAdjust="spacingAndGlyphs"
text-anchor="start" opacity="0">5</text>
<g class="stroked-text"><desc>5</desc>
<path d="M236003571 198295295
L235384523 198295295
L235322619 198914342
L235384523 198852438
L235508333 198790533
L235817857 198790533
L235941666 198852438
L236003571 198914342
L236065476 199038152
L236065476 199347676
L236003571 199471485
L235941666 199533390
L235817857 199595295
L235508333 199595295
L235384523 199533390
L235322619 199471485
" />
</g></g>
<g style="fill:#000000; fill-opacity:0.0; 
stroke:#000000; stroke-width:21200.000000; stroke-opacity:1; 
stroke-linecap:round; stroke-linejoin:round;">
</g>
<g style="fill:#000000; fill-opacity:0.0; 
stroke:#000000; stroke-width:150000.000000; stroke-opacity:1; 
stroke-linecap:round; stroke-linejoin:round;">
<text x="285000000.000000" y="199657200.000000"
textLength="1388095.000000" font-size="1733333.000000" lengthAdjust="spacingAndGlyphs"
text-anchor="start" opacity="0">6</text>
<g class="stroked-text"><desc>6</desc>
<path d="M285941666 198295295
L285694047 198295295
L285570238 198357200
L285508333 198419104
L285384523 198604819
L285322619 198852438
L285322619 199347676
L285384523 199471485
L285446428 199533390
L285570238 199595295
L285817857 199595295
L285941666 199533390
L286003571 199471485
L286065476 199347676
L286065476 199038152
L286003571 198914342
L285941666 198852438
L285817857 198790533
L285570238 198790533
L285446428 198852438
L285384523 198914342
L285322619 199038152
" />
</g></g>
<g style="fill:#000000; fill-opacity:0.0; 
stroke:#000000; stroke-width:21200.000000; stroke-opacity:1; 
stroke-linecap:round; stroke-linejoin:round;">
</g>
<g style="fill:#000000; fill-opacity:0.0; 
stroke:#000000; stroke-width:150000.000000; stroke-opacity:1; 
stroke-linecap:round; stroke-linejoin:round;">
<path d="M10000000 60000000
L12000000 60000000
" />
</g>
<g style="fill:#000000; fill-opacity:0.0; 
stroke:#000000; stroke-width:21200.000000; stroke-opacity:1; 
stroke-linecap:round; stroke-linejoin:round;">
</g>
<g style="fill:#000000; fill-opacity:0.0; 
stroke:#000000; stroke-width:150000.000000; stroke-opacity:1; 
stroke-linecap:round; stroke-linejoin:round;">
<path d="M10000000 110000000
L12000000 110000000
" />
</g>
<g style="fill:#000000; fill-opacity:0.0; 
stroke:#000000; stroke-width:21200.000000; stroke-opacity:1; 
stroke-linecap:round; stroke-linejoin:round;">
</g>
<g style="fill:#000000; fill-opacity:0.0; 
stroke:#000000; stroke-width:150000.000000; stroke-opacity:1; 
stroke-linecap:round; stroke-linejoin:round;">
<path d="M10000000 160000000
L12000000 160000000
" />
</g>
<g style="fill:#000000; fill-opacity:0.0; 
stroke:#000000; stroke-width:21200.000000; stroke-opacity:1; 
stroke-linecap:round; stroke-linejoin:round;">
</g>
<g style="fill:#000000; fill-opacity:0.0; 
stroke:#000000; stroke-width:150000.000000; stroke-opacity:1; 
stroke-linecap:round; stroke-linejoin:round;">
<text x="11000000.000000" y="35650000.000000"
textLength="1264286.000000" font-size="1733333.000000" lengthAdjust="spacingAndGlyphs"
text-anchor="middle" opacity="0">A</text>
<g class="stroked-text"><desc>A</desc>
<path d="M10690476 35216666
L11309523 35216666
" />
<path d="M10566666 35588095
L11000000 34288095
L11433333 35588095
" />
</g></g>
<g style="fill:#000000; fill-opacity:0.0; 
stroke:#000000; stroke-width:21200.000000; stroke-opacity:1; 
stroke-linecap:round; stroke-linejoin:round;">
</g>
<g style="fill:#000000; fill-opacity:0.0; 
stroke:#000000; stroke-width:150000.000000; stroke-opacity:1; 
stroke-linecap:round; stroke-linejoin:round;">
<text x="11000000.000000" y="85650000.000000"
textLength="1450000.000000" font-size="1733333.000000" lengthAdjust="spacingAndGlyphs"
text-anchor="middle" opacity="0">B</text>
<g class="stroked-text"><desc>B</desc>
<path d="M11092857 84907142
L11278571 84969047
L11340476 85030952
L11402380 85154761
L11402380 85340476
L11340476 85464285
L11278571 85526190
L11154761 85588095
L10659523 85588095
L10659523 84288095
L11092857 84288095
L11216666 84350000
L11278571 84411904
L11340476 84535714
L11340476 84659523
L11278571 84783333
L11216666 84845238
L11092857 84907142
L10659523 84907142
" />
</g></g>
<g style="fill:#000000; fill-opacity:0.0; 
stroke:#000000; stroke-width:21200.000000; stroke-opacity:1; 
stroke-linecap:round; stroke-linejoin:round;">
</g>
<g style="fill:#000000; fill-opacity:0.0; 
stroke:#000000; stroke-width:150000.000000; stroke-opacity:1; 
stroke-linecap:round; stroke-linejoin:round;">
<text x="11000000.000000" y="135650000.000000"
textLength="1450000.000000" font-size="1733333.000000" lengthAdjust="spacingAndGlyphs"
text-anchor="middle" opacity="0">C</text>
<g class="stroked-text"><desc>C</desc>
<path d="M11402380 135464285
L11340476 135526190
L11154761 135588095
L11030952 135588095
L10845238 135526190
L10721428 135402380
L10659523 135278571
L10597619 135030952
L10597619 134845238
L10659523 134597619
L10721428 134473809
L10845238 134350000
L11030952 134288095
L11154761 134288095
L11340476 134350000
L11402380 134411904
" />
</g></g>
<g style="fill:#000000; fill-opacity:0.0; 
stroke:#000000; stroke-width:21200.000000; stroke-opacity:1; 
stroke-linecap:round; stroke-linejoin:round;">
</g>
<g style="fill:#000000; fill-opacity:0.0; 
stroke:#000000; stroke-width:150000.000000; stroke-opacity:1; 
stroke-linecap:round; stroke-linejoin:round;">
<text x="11000000.000000" y="185650000.000000"
textLength="1450000.000000" font-size="1733333.000000" lengthAdjust="spacingAndGlyphs"
text-anchor="middle" opacity="0">D</text>
<g class="stroked-text"><desc>D</desc>
<path d="M10659523 185588095
L10659523 184288095
L10969047 184288095
L11154761 184350000
L11278571 184473809
L11340476 184597619
L11402380 184845238
L11402380 185030952
L11340476 185278571
L11278571 185402380
L11154761 185526190
L10969047 185588095
L10659523 185588095
" />
</g></g>
<g style="fill:#000000; fill-opacity:0.0; 
stroke:#000000; stroke-width:21200.000000; stroke-opacity:1; 
stroke-linecap:round; stroke-linejoin:round;">
</g>
<g style="fill:#000000; fill-opacity:0.0; 
stroke:#000000; stroke-width:150000.000000; stroke-opacity:1; 
stroke-linecap:round; stroke-linejoin:round;">
<path d="M287002200 60000000
L285002200 60000000
" />
</g>
<g style="fill:#000000; fill-opacity:0.0; 
stroke:#000000; stroke-width:21200.000000; stroke-opacity:1; 
stroke-linecap:round; stroke-linejoin:round;">
</g>
<g style="fill:#000000; fill-opacity:0.0; 
stroke:#000000; stroke-width:150000.000000; stroke-opacity:1; 
stroke-linecap:round; stroke-linejoin:round;">
<path d="M287002200 110000000
L285002200 110000000
" />
</g>
<g style="fill:#000000; fill-opacity:0.0; 
stroke:#000000; stroke-width:21200.000000; stroke-opacity:1; 
stroke-linecap:round; stroke-linejoin:round;">
</g>
<g style="fill:#000000; fill-opacity:0.0; 
stroke:#000000; stroke-width:150000.000000; stroke-opacity:1; 
stroke-linecap:round; stroke-linejoin:round;">
<path d="M287002200 160000000
L285002200 160000000
" />
</g>
<g style="fill:#000000; fill-opacity:0.0; 
stroke:#000000; stroke-width:21200.000000; stroke-opacity:1; 
stroke-linecap:round; stroke-linejoin:round;">
</g>
<g style="fill:#000000; fill-opacity:0.0; 
stroke:#000000; stroke-width:150000.000000; stroke-opacity:1; 
stroke-linecap:round; stroke-linejoin:round;">
<text x="286002200.000000" y="35650000.000000"
textLength="1264286.000000" font-size="1733333.000000" lengthAdjust="spacingAndGlyphs"
text-anchor="middle" opacity="0">A</text>
<g class="stroked-text"><desc>A</desc>
<path d="M285692676 35216666
L286311723 35216666
" />
<path d="M285568866 35588095
L286002200 34288095
L286435533 35588095
" />
</g></g>
<g style="fill:#000000; fill-opacity:0.0; 
stroke:#000000; stroke-width:21200.000000; stroke-opacity:1; 
stroke-linecap:round; stroke-linejoin:round;">
</g>
<g style="fill:#000000; fill-opacity:0.0; 
stroke:#000000; stroke-width:150000.000000; stroke-opacity:1; 
stroke-linecap:round; stroke-linejoin:round;">
<text x="286002200.000000" y="85650000.000000"
textLength="1450000.000000" font-size="1733333.000000" lengthAdjust="spacingAndGlyphs"
text-anchor="middle" opacity="0">B</text>
<g class="stroked-text"><desc>B</desc>
<path d="M286095057 84907142
L286280771 84969047
L286342676 85030952
L286404580 85154761
L286404580 85340476
L286342676 85464285
L286280771 85526190
L286156961 85588095
L285661723 85588095
L285661723 84288095
L286095057 84288095
L286218866 84350000
L286280771 84411904
L286342676 84535714
L286342676 84659523
L286280771 84783333
L286218866 84845238
L286095057 84907142
L285661723 84907142
" />
</g></g>
<g style="fill:#000000; fill-opacity:0.0; 
stroke:#000000; stroke-width:21200.000000; stroke-opacity:1; 
stroke-linecap:round; stroke-linejoin:round;">
</g>
<g style="fill:#000000; fill-opacity:0.0; 
stroke:#000000; stroke-width:150000.000000; stroke-opacity:1; 
stroke-linecap:round; stroke-linejoin:round;">
<text x="286002200.000000" y="135650000.000000"
textLength="1450000.000000" font-size="1733333.000000" lengthAdjust="spacingAndGlyphs"
text-anchor="middle" opacity="0">C</text>
<g class="stroked-text"><desc>C</desc>
<path d="M286404580 135464285
L286342676 135526190
L286156961 135588095
L286033152 135588095
L285847438 135526190
L285723628 135402380
L285661723 135278571
L285599819 135030952
L285599819 134845238
L285661723 134597619
L285723628 134473809
L285847438 134350000
L286033152 134288095
L286156961 134288095
L286342676 134350000
L286404580 134411904
" />
</g></g>
<g style="fill:#000000; fill-opacity:0.0; 
stroke:#000000; stroke-width:21200.000000; stroke-opacity:1; 
stroke-linecap:round; stroke-linejoin:round;">
</g>
<g style="fill:#000000; fill-opacity:0.0; 
stroke:#000000; stroke-width:150000.000000; stroke-opacity:1; 
stroke-linecap:round; stroke-linejoin:round;">
<text x="286002200.000000" y="185650000.000000"
textLength="1450000.000000" font-size="1733333.000000" lengthAdjust="spacingAndGlyphs"
text-anchor="middle" opacity="0">D</text>
<g class="stroked-text"><desc>D</desc>
<path d="M285661723 185588095
L285661723 184288095
L285971247 184288095
L286156961 184350000
L286280771 184473809
L286342676 184597619
L286404580 184845238
L286404580 185030952
L286342676 185278571
L286280771 185402380
L286156961 185526190
L285971247 185588095
L285661723 185588095
" />
</g></g>
<g style="fill:#000000; fill-opacity:0.0; 
stroke:#000000; stroke-width:21200.000000; stroke-opacity:1; 
stroke-linecap:round; stroke-linejoin:round;">
</g>
<g style="fill:#000000; fill-opacity:0.0; 
stroke:#000000; stroke-width:150000.000000; stroke-opacity:1; 
stroke-linecap:round; stroke-linejoin:round;">
<text x="200002200.000000" y="193857200.000000"
textLength="7007143.000000" font-size="2000000.000000" lengthAdjust="spacingAndGlyphs"
text-anchor="start" opacity="0">Date: </text>
<g class="stroked-text"><desc>Date: </desc>
<path d="M200434342 193785771
L200434342 192285771
L200791485 192285771
L201005771 192357200
L201148628 192500057
L201220057 192642914
L201291485 192928628
L201291485 193142914
L201220057 193428628
L201148628 193571485
L201005771 193714342
L200791485 193785771
L200434342 193785771
" />
<path d="M202577200 193785771
L202577200 193000057
L202505771 192857200
L202362914 192785771
L202077200 192785771
L201934342 192857200
" />
<path d="M202577200 193714342
L202434342 193785771
L202077200 193785771
L201934342 193714342
L201862914 193571485
L201862914 193428628
L201934342 193285771
L202077200 193214342
L202434342 193214342
L202577200 193142914
" />
<path d="M203077200 192785771
L203648628 192785771
" />
<path d="M203291485 192285771
L203291485 193571485
L203362914 193714342
L203505771 193785771
L203648628 193785771
" />
<path d="M204720057 193714342
L204577200 193785771
L204291485 193785771
L204148628 193714342
L204077200 193571485
L204077200 193000057
L204148628 192857200
L204291485 192785771
L204577200 192785771
L204720057 192857200
L204791485 193000057
L204791485 193142914
L204077200 193285771
" />
<path d="M205434342 193642914
L205505771 193714342
L205434342 193785771
L205362914 193714342
L205434342 193642914
L205434342 193785771
" />
<path d="M205434342 192857200
L205505771 192928628
L205434342 193000057
L205362914 192928628
L205434342 192857200
L205434342 193000057
" />
</g></g>
<g style="fill:#000000; fill-opacity:0.0; 
stroke:#000000; stroke-width:21200.000000; stroke-opacity:1; 
stroke-linecap:round; stroke-linejoin:round;">
</g>
<g style="fill:#000000; fill-opacity:0.0; 
stroke:#000000; stroke-width:150000.000000; stroke-opacity:1; 
stroke-linecap:round; stroke-linejoin:round;">
<path d="M177002200 194507200
L285002200 194507200
" />
</g>
<g style="fill:#000000; fill-opacity:0.0; 
stroke:#000000; stroke-width:21200.000000; stroke-opacity:1; 
stroke-linecap:round; stroke-linejoin:round;">
</g>
<g style="fill:#000000; fill-opacity:0.0; 
stroke:#000000; stroke-width:150000.000000; stroke-opacity:1; 
stroke-linecap:round; stroke-linejoin:round;">
<text x="178002200.000000" y="196657200.000000"
textLength="33364286.000000" font-size="2000000.000000" lengthAdjust="spacingAndGlyphs"
text-anchor="start" opacity="0">KiCad E.D.A.  pcbnew (6.0.9)</text>
<g class="stroked-text"><desc>KiCad E.D.A.  pcbnew (6.0.9)</desc>
<path d="M178434342 196585771
L178434342 195085771
" />
<path d="M179291485 196585771
L178648628 195728628
" />
<path d="M179291485 195085771
L178434342 195942914
" />
<path d="M179934342 196585771
L179934342 195585771
" />
<path d="M179934342 195085771
L179862914 195157200
L179934342 195228628
L180005771 195157200
L179934342 195085771
L179934342 195228628
" />
<path d="M181505771 196442914
L181434342 196514342
L181220057 196585771
L181077200 196585771
L180862914 196514342
L180720057 196371485
L180648628 196228628
L180577200 195942914
L180577200 195728628
L180648628 195442914
L180720057 195300057
L180862914 195157200
L181077200 195085771
L181220057 195085771
L181434342 195157200
L181505771 195228628
" />
<path d="M182791485 196585771
L182791485 195800057
L182720057 195657200
L182577200 195585771
L182291485 195585771
L182148628 195657200
" />
<path d="M182791485 196514342
L182648628 196585771
L182291485 196585771
L182148628 196514342
L182077200 196371485
L182077200 196228628
L182148628 196085771
L182291485 196014342
L182648628 196014342
L182791485 195942914
" />
<path d="M184148628 196585771
L184148628 195085771
" />
<path d="M184148628 196514342
L184005771 196585771
L183720057 196585771
L183577200 196514342
L183505771 196442914
L183434342 196300057
L183434342 195871485
L183505771 195728628
L183577200 195657200
L183720057 195585771
L184005771 195585771
L184148628 195657200
" />
<path d="M186005771 195800057
L186505771 195800057
" />
<path d="M186720057 196585771
L186005771 196585771
L186005771 195085771
L186720057 195085771
" />
<path d="M187362914 196442914
L187434342 196514342
L187362914 196585771
L187291485 196514342
L187362914 196442914
L187362914 196585771
" />
<path d="M188077200 196585771
L188077200 195085771
L188434342 195085771
L188648628 195157200
L188791485 195300057
L188862914 195442914
L188934342 195728628
L188934342 195942914
L188862914 196228628
L188791485 196371485
L188648628 196514342
L188434342 196585771
L188077200 196585771
" />
<path d="M189577200 196442914
L189648628 196514342
L189577200 196585771
L189505771 196514342
L189577200 196442914
L189577200 196585771
" />
<path d="M190220057 196157200
L190934342 196157200
" />
<path d="M190077200 196585771
L190577200 195085771
L191077200 196585771
" />
<path d="M191577200 196442914
L191648628 196514342
L191577200 196585771
L191505771 196514342
L191577200 196442914
L191577200 196585771
" />
<path d="M194577200 195585771
L194577200 197085771
" />
<path d="M194577200 195657200
L194720057 195585771
L195005771 195585771
L195148628 195657200
L195220057 195728628
L195291485 195871485
L195291485 196300057
L195220057 196442914
L195148628 196514342
L195005771 196585771
L194720057 196585771
L194577200 196514342
" />
<path d="M196577200 196514342
L196434342 196585771
L196148628 196585771
L196005771 196514342
L195934342 196442914
L195862914 196300057
L195862914 195871485
L195934342 195728628
L196005771 195657200
L196148628 195585771
L196434342 195585771
L196577200 195657200
" />
<path d="M197220057 196585771
L197220057 195085771
" />
<path d="M197220057 195657200
L197362914 195585771
L197648628 195585771
L197791485 195657200
L197862914 195728628
L197934342 195871485
L197934342 196300057
L197862914 196442914
L197791485 196514342
L197648628 196585771
L197362914 196585771
L197220057 196514342
" />
<path d="M198577200 195585771
L198577200 196585771
" />
<path d="M198577200 195728628
L198648628 195657200
L198791485 195585771
L199005771 195585771
L199148628 195657200
L199220057 195800057
L199220057 196585771
" />
<path d="M200505771 196514342
L200362914 196585771
L200077200 196585771
L199934342 196514342
L199862914 196371485
L199862914 195800057
L199934342 195657200
L200077200 195585771
L200362914 195585771
L200505771 195657200
L200577200 195800057
L200577200 195942914
L199862914 196085771
" />
<path d="M201077200 195585771
L201362914 196585771
L201648628 195871485
L201934342 196585771
L202220057 195585771
" />
<path d="M204362914 197157200
L204291485 197085771
L204148628 196871485
L204077200 196728628
L204005771 196514342
L203934342 196157200
L203934342 195871485
L204005771 195514342
L204077200 195300057
L204148628 195157200
L204291485 194942914
L204362914 194871485
" />
<path d="M205577200 195085771
L205291485 195085771
L205148628 195157200
L205077200 195228628
L204934342 195442914
L204862914 195728628
L204862914 196300057
L204934342 196442914
L205005771 196514342
L205148628 196585771
L205434342 196585771
L205577200 196514342
L205648628 196442914
L205720057 196300057
L205720057 195942914
L205648628 195800057
L205577200 195728628
L205434342 195657200
L205148628 195657200
L205005771 195728628
L204934342 195800057
L204862914 195942914
" />
<path d="M206362914 196442914
L206434342 196514342
L206362914 196585771
L206291485 196514342
L206362914 196442914
L206362914 196585771
" />
<path d="M207362914 195085771
L207505771 195085771
L207648628 195157200
L207720057 195228628
L207791485 195371485
L207862914 195657200
L207862914 196014342
L207791485 196300057
L207720057 196442914
L207648628 196514342
L207505771 196585771
L207362914 196585771
L207220057 196514342
L207148628 196442914
L207077200 196300057
L207005771 196014342
L207005771 195657200
L207077200 195371485
L207148628 195228628
L207220057 195157200
L207362914 195085771
" />
<path d="M208505771 196442914
L208577200 196514342
L208505771 196585771
L208434342 196514342
L208505771 196442914
L208505771 196585771
" />
<path d="M209291485 196585771
L209577200 196585771
L209720057 196514342
L209791485 196442914
L209934342 196228628
L210005771 195942914
L210005771 195371485
L209934342 195228628
L209862914 195157200
L209720057 195085771
L209434342 195085771
L209291485 195157200
L209220057 195228628
L209148628 195371485
L209148628 195728628
L209220057 195871485
L209291485 195942914
L209434342 196014342
L209720057 196014342
L209862914 195942914
L209934342 195871485
L210005771 195728628
" />
<path d="M210505771 197157200
L210577200 197085771
L210720057 196871485
L210791485 196728628
L210862914 196514342
L210934342 196157200
L210934342 195871485
L210862914 195514342
L210791485 195300057
L210720057 195157200
L210577200 194942914
L210505771 194871485
" />
</g></g>
<g style="fill:#000000; fill-opacity:0.0; 
stroke:#000000; stroke-width:21200.000000; stroke-opacity:1; 
stroke-linecap:round; stroke-linejoin:round;">
</g>
<g style="fill:#000000; fill-opacity:0.0; 
stroke:#000000; stroke-width:150000.000000; stroke-opacity:1; 
stroke-linecap:round; stroke-linejoin:round;">
<path d="M177002200 191507200
L285002200 191507200
" />
</g>
<g style="fill:#000000; fill-opacity:0.0; 
stroke:#000000; stroke-width:21200.000000; stroke-opacity:1; 
stroke-linecap:round; stroke-linejoin:round;">
</g>
<g style="fill:#000000; fill-opacity:0.0; 
stroke:#000000; stroke-width:300000.000000; stroke-opacity:1; 
stroke-linecap:round; stroke-linejoin:round;">
<text x="263002200.000000" y="193857200.000000"
textLength="5935714.000000" font-size="2000000.000000" lengthAdjust="spacingAndGlyphs"
text-anchor="start" opacity="0">Rev: </text>
<g class="stroked-text"><desc>Rev: </desc>
<path d="M264411485 193785771
L263911485 193071485
" />
<path d="M263554342 193785771
L263554342 192285771
L264125771 192285771
L264268628 192357200
L264340057 192428628
L264411485 192571485
L264411485 192785771
L264340057 192928628
L264268628 193000057
L264125771 193071485
L263554342 193071485
" />
<path d="M265625771 193714342
L265482914 193785771
L265197200 193785771
L265054342 193714342
L264982914 193571485
L264982914 193000057
L265054342 192857200
L265197200 192785771
L265482914 192785771
L265625771 192857200
L265697200 193000057
L265697200 193142914
L264982914 193285771
" />
<path d="M266197200 192785771
L266554342 193785771
L266911485 192785771
" />
<path d="M267482914 193642914
L267554342 193714342
L267482914 193785771
L267411485 193714342
L267482914 193642914
L267482914 193785771
" />
<path d="M267482914 192857200
L267554342 192928628
L267482914 193000057
L267411485 192928628
L267482914 192857200
L267482914 193000057
" />
</g></g>
<g style="fill:#000000; fill-opacity:0.0; 
stroke:#000000; stroke-width:21200.000000; stroke-opacity:1; 
stroke-linecap:round; stroke-linejoin:round;">
</g>
<g style="fill:#000000; fill-opacity:0.0; 
stroke:#000000; stroke-width:150000.000000; stroke-opacity:1; 
stroke-linecap:round; stroke-linejoin:round;">
<text x="178002200.000000" y="193857200.000000"
textLength="9604286.000000" font-size="2000000.000000" lengthAdjust="spacingAndGlyphs"
text-anchor="start" opacity="0">Size: A4</text>
<g class="stroked-text"><desc>Size: A4</desc>
<path d="M178362914 193714342
L178577200 193785771
L178934342 193785771
L179077200 193714342
L179148628 193642914
L179220057 193500057
L179220057 193357200
L179148628 193214342
L179077200 193142914
L178934342 193071485
L178648628 193000057
L178505771 192928628
L178434342 192857200
L178362914 192714342
L178362914 192571485
L178434342 192428628
L178505771 192357200
L178648628 192285771
L179005771 192285771
L179220057 192357200
" />
<path d="M179862914 193785771
L179862914 192785771
" />
<path d="M179862914 192285771
L179791485 192357200
L179862914 192428628
L179934342 192357200
L179862914 192285771
L179862914 192428628
" />
<path d="M180434342 192785771
L181220057 192785771
L180434342 193785771
L181220057 193785771
" />
<path d="M182362914 193714342
L182220057 193785771
L181934342 193785771
L181791485 193714342
L181720057 193571485
L181720057 193000057
L181791485 192857200
L181934342 192785771
L182220057 192785771
L182362914 192857200
L182434342 193000057
L182434342 193142914
L181720057 193285771
" />
<path d="M183077200 193642914
L183148628 193714342
L183077200 193785771
L183005771 193714342
L183077200 193642914
L183077200 193785771
" />
<path d="M183077200 192857200
L183148628 192928628
L183077200 193000057
L183005771 192928628
L183077200 192857200
L183077200 193000057
" />
<path d="M184862914 193357200
L185577200 193357200
" />
<path d="M184720057 193785771
L185220057 192285771
L185720057 193785771
" />
<path d="M186862914 192785771
L186862914 193785771
" />
<path d="M186505771 192214342
L186148628 193285771
L187077200 193285771
" />
</g></g>
<g style="fill:#000000; fill-opacity:0.0; 
stroke:#000000; stroke-width:21200.000000; stroke-opacity:1; 
stroke-linecap:round; stroke-linejoin:round;">
</g>
<g style="fill:#000000; fill-opacity:0.0; 
stroke:#000000; stroke-width:150000.000000; stroke-opacity:1; 
stroke-linecap:round; stroke-linejoin:round;">
<text x="263002200.000000" y="196657200.000000"
textLength="8507143.000000" font-size="2000000.000000" lengthAdjust="spacingAndGlyphs"
text-anchor="start" opacity="0">Id: 1/1</text>
<g class="stroked-text"><desc>Id: 1/1</desc>
<path d="M263434342 196585771
L263434342 195085771
" />
<path d="M264791485 196585771
L264791485 195085771
" />
<path d="M264791485 196514342
L264648628 196585771
L264362914 196585771
L264220057 196514342
L264148628 196442914
L264077200 196300057
L264077200 195871485
L264148628 195728628
L264220057 195657200
L264362914 195585771
L264648628 195585771
L264791485 195657200
" />
<path d="M265505771 196442914
L265577200 196514342
L265505771 196585771
L265434342 196514342
L265505771 196442914
L265505771 196585771
" />
<path d="M265505771 195657200
L265577200 195728628
L265505771 195800057
L265434342 195728628
L265505771 195657200
L265505771 195800057
" />
<path d="M268148628 196585771
L267291485 196585771
" />
<path d="M267720057 196585771
L267720057 195085771
L267577200 195300057
L267434342 195442914
L267291485 195514342
" />
<path d="M269862914 195014342
L268577200 196942914
" />
<path d="M271148628 196585771
L270291485 196585771
" />
<path d="M270720057 196585771
L270720057 195085771
L270577200 195300057
L270434342 195442914
L270291485 195514342
" />
</g></g>
<g style="fill:#000000; fill-opacity:0.0; 
stroke:#000000; stroke-width:21200.000000; stroke-opacity:1; 
stroke-linecap:round; stroke-linejoin:round;">
</g>
<g style="fill:#000000; fill-opacity:0.0; 
stroke:#000000; stroke-width:150000.000000; stroke-opacity:1; 
stroke-linecap:round; stroke-linejoin:round;">
<path d="M177002200 187507200
L285002200 187507200
" />
</g>
<g style="fill:#000000; fill-opacity:0.0; 
stroke:#000000; stroke-width:21200.000000; stroke-opacity:1; 
stroke-linecap:round; stroke-linejoin:round;">
</g>
<g style="fill:#000000; fill-opacity:0.0; 
stroke:#000000; stroke-width:400000.000000; stroke-opacity:1; 
stroke-linecap:round; stroke-linejoin:round;">
<text x="178002200.000000" y="190307200.000000"
textLength="9409643.000000" font-size="2666666.000000" lengthAdjust="spacingAndGlyphs"
text-anchor="start" opacity="0">Title: </text>
<g class="stroked-text"><desc>Title: </desc>
<path d="M178714580 188211961
L179857438 188211961
" />
<path d="M179036009 190211961
L179286009 188211961
" />
<path d="M180274104 190211961
L180440771 188878628
" />
<path d="M180524104 188211961
L180416961 188307200
L180500295 188402438
L180607438 188307200
L180524104 188211961
L180500295 188402438
" />
<path d="M181107438 188878628
L181869342 188878628
" />
<path d="M181476485 188211961
L181262200 189926247
L181333628 190116723
L181512200 190211961
L181702676 190211961
" />
<path d="M182655057 190211961
L182476485 190116723
L182405057 189926247
L182619342 188211961
" />
<path d="M184190771 190116723
L183988390 190211961
L183607438 190211961
L183428866 190116723
L183357438 189926247
L183452676 189164342
L183571723 188973866
L183774104 188878628
L184155057 188878628
L184333628 188973866
L184405057 189164342
L184381247 189354819
L183405057 189545295
" />
<path d="M185155057 190021485
L185238390 190116723
L185131247 190211961
L185047914 190116723
L185155057 190021485
L185131247 190211961
" />
<path d="M185286009 188973866
L185369342 189069104
L185262200 189164342
L185178866 189069104
L185286009 188973866
L185262200 189164342
" />
</g></g>
<g style="fill:#000000; fill-opacity:0.0; 
stroke:#000000; stroke-width:21200.000000; stroke-opacity:1; 
stroke-linecap:round; stroke-linejoin:round;">
</g>
<g style="fill:#000000; fill-opacity:0.0; 
stroke:#000000; stroke-width:150000.000000; stroke-opacity:1; 
stroke-linecap:round; stroke-linejoin:round;">
<text x="178002200.000000" y="186457200.000000"
textLength="30662857.000000" font-size="2000000.000000" lengthAdjust="spacingAndGlyphs"
text-anchor="start" opacity="0">File: kicadBoard.kicad_pcb</text>
<g class="stroked-text"><desc>File: kicadBoard.kicad_pcb</desc>
<path d="M178934342 185600057
L178434342 185600057
" />
<path d="M178434342 186385771
L178434342 184885771
L179148628 184885771
" />
<path d="M179720057 186385771
L179720057 185385771
" />
<path d="M179720057 184885771
L179648628 184957200
L179720057 185028628
L179791485 184957200
L179720057 184885771
L179720057 185028628
" />
<path d="M180648628 186385771
L180505771 186314342
L180434342 186171485
L180434342 184885771
" />
<path d="M181791485 186314342
L181648628 186385771
L181362914 186385771
L181220057 186314342
L181148628 186171485
L181148628 185600057
L181220057 185457200
L181362914 185385771
L181648628 185385771
L181791485 185457200
L181862914 185600057
L181862914 185742914
L181148628 185885771
" />
<path d="M182505771 186242914
L182577200 186314342
L182505771 186385771
L182434342 186314342
L182505771 186242914
L182505771 186385771
" />
<path d="M182505771 185457200
L182577200 185528628
L182505771 185600057
L182434342 185528628
L182505771 185457200
L182505771 185600057
" />
<path d="M184362914 186385771
L184362914 184885771
" />
<path d="M184505771 185814342
L184934342 186385771
" />
<path d="M184934342 185385771
L184362914 185957200
" />
<path d="M185577200 186385771
L185577200 185385771
" />
<path d="M185577200 184885771
L185505771 184957200
L185577200 185028628
L185648628 184957200
L185577200 184885771
L185577200 185028628
" />
<path d="M186934342 186314342
L186791485 186385771
L186505771 186385771
L186362914 186314342
L186291485 186242914
L186220057 186100057
L186220057 185671485
L186291485 185528628
L186362914 185457200
L186505771 185385771
L186791485 185385771
L186934342 185457200
" />
<path d="M188220057 186385771
L188220057 185600057
L188148628 185457200
L188005771 185385771
L187720057 185385771
L187577200 185457200
" />
<path d="M188220057 186314342
L188077200 186385771
L187720057 186385771
L187577200 186314342
L187505771 186171485
L187505771 186028628
L187577200 185885771
L187720057 185814342
L188077200 185814342
L188220057 185742914
" />
<path d="M189577200 186385771
L189577200 184885771
" />
<path d="M189577200 186314342
L189434342 186385771
L189148628 186385771
L189005771 186314342
L188934342 186242914
L188862914 186100057
L188862914 185671485
L188934342 185528628
L189005771 185457200
L189148628 185385771
L189434342 185385771
L189577200 185457200
" />
<path d="M190791485 185600057
L191005771 185671485
L191077200 185742914
L191148628 185885771
L191148628 186100057
L191077200 186242914
L191005771 186314342
L190862914 186385771
L190291485 186385771
L190291485 184885771
L190791485 184885771
L190934342 184957200
L191005771 185028628
L191077200 185171485
L191077200 185314342
L191005771 185457200
L190934342 185528628
L190791485 185600057
L190291485 185600057
" />
<path d="M192005771 186385771
L191862914 186314342
L191791485 186242914
L191720057 186100057
L191720057 185671485
L191791485 185528628
L191862914 185457200
L192005771 185385771
L192220057 185385771
L192362914 185457200
L192434342 185528628
L192505771 185671485
L192505771 186100057
L192434342 186242914
L192362914 186314342
L192220057 186385771
L192005771 186385771
" />
<path d="M193791485 186385771
L193791485 185600057
L193720057 185457200
L193577200 185385771
L193291485 185385771
L193148628 185457200
" />
<path d="M193791485 186314342
L193648628 186385771
L193291485 186385771
L193148628 186314342
L193077200 186171485
L193077200 186028628
L193148628 185885771
L193291485 185814342
L193648628 185814342
L193791485 185742914
" />
<path d="M194505771 186385771
L194505771 185385771
" />
<path d="M194505771 185671485
L194577200 185528628
L194648628 185457200
L194791485 185385771
L194934342 185385771
" />
<path d="M196077200 186385771
L196077200 184885771
" />
<path d="M196077200 186314342
L195934342 186385771
L195648628 186385771
L195505771 186314342
L195434342 186242914
L195362914 186100057
L195362914 185671485
L195434342 185528628
L195505771 185457200
L195648628 185385771
L195934342 185385771
L196077200 185457200
" />
<path d="M196791485 186242914
L196862914 186314342
L196791485 186385771
L196720057 186314342
L196791485 186242914
L196791485 186385771
" />
<path d="M197505771 186385771
L197505771 184885771
" />
<path d="M197648628 185814342
L198077200 186385771
" />
<path d="M198077200 185385771
L197505771 185957200
" />
<path d="M198720057 186385771
L198720057 185385771
" />
<path d="M198720057 184885771
L198648628 184957200
L198720057 185028628
L198791485 184957200
L198720057 184885771
L198720057 185028628
" />
<path d="M200077200 186314342
L199934342 186385771
L199648628 186385771
L199505771 186314342
L199434342 186242914
L199362914 186100057
L199362914 185671485
L199434342 185528628
L199505771 185457200
L199648628 185385771
L199934342 185385771
L200077200 185457200
" />
<path d="M201362914 186385771
L201362914 185600057
L201291485 185457200
L201148628 185385771
L200862914 185385771
L200720057 185457200
" />
<path d="M201362914 186314342
L201220057 186385771
L200862914 186385771
L200720057 186314342
L200648628 186171485
L200648628 186028628
L200720057 185885771
L200862914 185814342
L201220057 185814342
L201362914 185742914
" />
<path d="M202720057 186385771
L202720057 184885771
" />
<path d="M202720057 186314342
L202577200 186385771
L202291485 186385771
L202148628 186314342
L202077200 186242914
L202005771 186100057
L202005771 185671485
L202077200 185528628
L202148628 185457200
L202291485 185385771
L202577200 185385771
L202720057 185457200
" />
<path d="M203077200 186528628
L204220057 186528628
" />
<path d="M204577200 185385771
L204577200 186885771
" />
<path d="M204577200 185457200
L204720057 185385771
L205005771 185385771
L205148628 185457200
L205220057 185528628
L205291485 185671485
L205291485 186100057
L205220057 186242914
L205148628 186314342
L205005771 186385771
L204720057 186385771
L204577200 186314342
" />
<path d="M206577200 186314342
L206434342 186385771
L206148628 186385771
L206005771 186314342
L205934342 186242914
L205862914 186100057
L205862914 185671485
L205934342 185528628
L206005771 185457200
L206148628 185385771
L206434342 185385771
L206577200 185457200
" />
<path d="M207220057 186385771
L207220057 184885771
" />
<path d="M207220057 185457200
L207362914 185385771
L207648628 185385771
L207791485 185457200
L207862914 185528628
L207934342 185671485
L207934342 186100057
L207862914 186242914
L207791485 186314342
L207648628 186385771
L207362914 186385771
L207220057 186314342
" />
</g></g>
<g style="fill:#000000; fill-opacity:0.0; 
stroke:#000000; stroke-width:21200.000000; stroke-opacity:1; 
stroke-linecap:round; stroke-linejoin:round;">
</g>
<g style="fill:#000000; fill-opacity:0.0; 
stroke:#000000; stroke-width:150000.000000; stroke-opacity:1; 
stroke-linecap:round; stroke-linejoin:round;">
<path d="M177002200 181507200
L285002200 181507200
" />
</g>
<g style="fill:#000000; fill-opacity:0.0; 
stroke:#000000; stroke-width:21200.000000; stroke-opacity:1; 
stroke-linecap:round; stroke-linejoin:round;">
</g>
<g style="fill:#000000; fill-opacity:0.0; 
stroke:#000000; stroke-width:150000.000000; stroke-opacity:1; 
stroke-linecap:round; stroke-linejoin:round;">
<text x="178002200.000000" y="183757200.000000"
textLength="8221429.000000" font-size="2000000.000000" lengthAdjust="spacingAndGlyphs"
text-anchor="start" opacity="0">Sheet: </text>
<g class="stroked-text"><desc>Sheet: </desc>
<path d="M178362914 183614342
L178577200 183685771
L178934342 183685771
L179077200 183614342
L179148628 183542914
L179220057 183400057
L179220057 183257200
L179148628 183114342
L179077200 183042914
L178934342 182971485
L178648628 182900057
L178505771 182828628
L178434342 182757200
L178362914 182614342
L178362914 182471485
L178434342 182328628
L178505771 182257200
L178648628 182185771
L179005771 182185771
L179220057 182257200
" />
<path d="M179862914 183685771
L179862914 182185771
" />
<path d="M180505771 183685771
L180505771 182900057
L180434342 182757200
L180291485 182685771
L180077200 182685771
L179934342 182757200
L179862914 182828628
" />
<path d="M181791485 183614342
L181648628 183685771
L181362914 183685771
L181220057 183614342
L181148628 183471485
L181148628 182900057
L181220057 182757200
L181362914 182685771
L181648628 182685771
L181791485 182757200
L181862914 182900057
L181862914 183042914
L181148628 183185771
" />
<path d="M183077200 183614342
L182934342 183685771
L182648628 183685771
L182505771 183614342
L182434342 183471485
L182434342 182900057
L182505771 182757200
L182648628 182685771
L182934342 182685771
L183077200 182757200
L183148628 182900057
L183148628 183042914
L182434342 183185771
" />
<path d="M183577200 182685771
L184148628 182685771
" />
<path d="M183791485 182185771
L183791485 183471485
L183862914 183614342
L184005771 183685771
L184148628 183685771
" />
<path d="M184648628 183542914
L184720057 183614342
L184648628 183685771
L184577200 183614342
L184648628 183542914
L184648628 183685771
" />
<path d="M184648628 182757200
L184720057 182828628
L184648628 182900057
L184577200 182828628
L184648628 182757200
L184648628 182900057
" />
</g></g>
<g style="fill:#000000; fill-opacity:0.0; 
stroke:#000000; stroke-width:21200.000000; stroke-opacity:1; 
stroke-linecap:round; stroke-linejoin:round;">
</g>
<g style="fill:#000000; fill-opacity:0.0; 
stroke:#000000; stroke-width:300000.000000; stroke-opacity:1; 
stroke-linecap:round; stroke-linejoin:round;">
<text x="178002200.000000" y="180757200.000000"
textLength="150000.000000" font-size="2000000.000000" lengthAdjust="spacingAndGlyphs"
text-anchor="start" opacity="0"></text>
<g class="stroked-text"><desc></desc>
</g></g>
<g style="fill:#000000; fill-opacity:0.0; 
stroke:#000000; stroke-width:21200.000000; stroke-opacity:1; 
stroke-linecap:round; stroke-linejoin:round;">
</g>
<g style="fill:#000000; fill-opacity:0.0; 
stroke:#000000; stroke-width:150000.000000; stroke-opacity:1; 
stroke-linecap:round; stroke-linejoin:round;">
<text x="178002200.000000" y="177757200.000000"
textLength="300000.000000" font-size="2000000.000000" lengthAdjust="spacingAndGlyphs"
text-anchor="start" opacity="0"></text>
<g class="stroked-text"><desc></desc>
</g></g>
<g style="fill:#000000; fill-opacity:0.0; 
stroke:#000000; stroke-width:21200.000000; stroke-opacity:1; 
stroke-linecap:round; stroke-linejoin:round;">
</g>
<g style="fill:#000000; fill-opacity:0.0; 
stroke:#000000; stroke-width:150000.000000; stroke-opacity:1; 
stroke-linecap:round; stroke-linejoin:round;">
<text x="178002200.000000" y="174757200.000000"
textLength="150000.000000" font-size="2000000.000000" lengthAdjust="spacingAndGlyphs"
text-anchor="start" opacity="0"></text>
<g class="stroked-text"><desc></desc>
</g></g>
<g style="fill:#000000; fill-opacity:0.0; 
stroke:#000000; stroke-width:21200.000000; stroke-opacity:1; 
stroke-linecap:round; stroke-linejoin:round;">
</g>
<g style="fill:#000000; fill-opacity:0.0; 
stroke:#000000; stroke-width:150000.000000; stroke-opacity:1; 
stroke-linecap:round; stroke-linejoin:round;">
<text x="178002200.000000" y="171757200.000000"
textLength="150000.000000" font-size="2000000.000000" lengthAdjust="spacingAndGlyphs"
text-anchor="start" opacity="0"></text>
<g class="stroked-text"><desc></desc>
</g></g>
<g style="fill:#000000; fill-opacity:0.0; 
stroke:#000000; stroke-width:21200.000000; stroke-opacity:1; 
stroke-linecap:round; stroke-linejoin:round;">
</g>
<g style="fill:#000000; fill-opacity:0.0; 
stroke:#000000; stroke-width:150000.000000; stroke-opacity:1; 
stroke-linecap:round; stroke-linejoin:round;">
<text x="178002200.000000" y="168757200.000000"
textLength="150000.000000" font-size="2000000.000000" lengthAdjust="spacingAndGlyphs"
text-anchor="start" opacity="0"></text>
<g class="stroked-text"><desc></desc>
</g></g>
<g style="fill:#000000; fill-opacity:0.0; 
stroke:#000000; stroke-width:21200.000000; stroke-opacity:1; 
stroke-linecap:round; stroke-linejoin:round;">
</g>
<g style="fill:#000000; fill-opacity:0.0; 
stroke:#000000; stroke-width:150000.000000; stroke-opacity:1; 
stroke-linecap:round; stroke-linejoin:round;">
<path d="M197002200 191507200
L197002200 194507200
" />
</g>
<g style="fill:#000000; fill-opacity:0.0; 
stroke:#000000; stroke-width:21200.000000; stroke-opacity:1; 
stroke-linecap:round; stroke-linejoin:round;">
</g>
<g style="fill:#000000; fill-opacity:0.0; 
stroke:#000000; stroke-width:150000.000000; stroke-opacity:1; 
stroke-linecap:round; stroke-linejoin:round;">
<path d="M261002200 191507200
L261002200 198007200
" />
</g>
<g style="fill:#F2EDA1; fill-opacity:0.0; 
stroke:#F2EDA1; stroke-width:150000.000000; stroke-opacity:1; 
stroke-linecap:round; stroke-linejoin:round;">
</g>
<g style="fill:#F2EDA1; fill-opacity:0.0; 
stroke:#F2EDA1; stroke-width:152400.000000; stroke-opacity:1; 
stroke-linecap:round; stroke-linejoin:round;">
<text x="142151100.000000" y="91541600.000000"
textLength="2658552.000000" font-size="1151466.000000" lengthAdjust="spacingAndGlyphs"
text-anchor="start" opacity="0">C13</text>
<g class="stroked-text"><desc>C13</desc>
<path d="M142949264 91418228
L142908140 91459352
L142784769 91500476
L142702521 91500476
L142579150 91459352
L142496902 91377104
L142455779 91294857
L142414655 91130361
L142414655 91006990
L142455779 90842495
L142496902 90760247
L142579150 90678000
L142702521 90636876
L142784769 90636876
L142908140 90678000
L142949264 90719123
" />
<path d="M143771740 91500476
L143278255 91500476
" />
<path d="M143524998 91500476
L143524998 90636876
L143442750 90760247
L143360502 90842495
L143278255 90883619
" />
<path d="M144059607 90636876
L144594217 90636876
L144306350 90965866
L144429721 90965866
L144511969 91006990
L144553093 91048114
L144594217 91130361
L144594217 91335980
L144553093 91418228
L144511969 91459352
L144429721 91500476
L144182979 91500476
L144100731 91459352
L144059607 91418228
" />
</g><text x="154851100.000000" y="99009200.000000"
textLength="1843072.000000" font-size="1151466.000000" lengthAdjust="spacingAndGlyphs"
text-anchor="end" opacity="0">S3</text>
<g class="stroked-text"><desc>S3</desc>
<path d="M153271582 98926952
L153394954 98968076
L153600573 98968076
L153682820 98926952
L153723944 98885828
L153765068 98803580
L153765068 98721333
L153723944 98639085
L153682820 98597961
L153600573 98556838
L153436078 98515714
L153353830 98474590
L153312706 98433466
L153271582 98351219
L153271582 98268971
L153312706 98186723
L153353830 98145600
L153436078 98104476
L153641697 98104476
L153765068 98145600
" />
<path d="M154052935 98104476
L154587544 98104476
L154299678 98433466
L154423049 98433466
L154505297 98474590
L154546420 98515714
L154587544 98597961
L154587544 98803580
L154546420 98885828
L154505297 98926952
L154423049 98968076
L154176306 98968076
L154094059 98926952
L154052935 98885828
" />
</g><text x="142151100.000000" y="114401600.000000"
textLength="1884196.000000" font-size="1151466.000000" lengthAdjust="spacingAndGlyphs"
text-anchor="start" opacity="0">C4</text>
<g class="stroked-text"><desc>C4</desc>
<path d="M142949264 114278228
L142908140 114319352
L142784769 114360476
L142702521 114360476
L142579150 114319352
L142496902 114237104
L142455779 114154857
L142414655 113990361
L142414655 113866990
L142455779 113702495
L142496902 113620247
L142579150 113538000
L142702521 113496876
L142784769 113496876
L142908140 113538000
L142949264 113579123
" />
<path d="M143689493 113784742
L143689493 114360476
" />
<path d="M143483874 113455752
L143278255 114072609
L143812864 114072609
" />
</g><text x="142151100.000000" y="122021600.000000"
textLength="1884196.000000" font-size="1151466.000000" lengthAdjust="spacingAndGlyphs"
text-anchor="start" opacity="0">C1</text>
<g class="stroked-text"><desc>C1</desc>
<path d="M142949264 121898228
L142908140 121939352
L142784769 121980476
L142702521 121980476
L142579150 121939352
L142496902 121857104
L142455779 121774857
L142414655 121610361
L142414655 121486990
L142455779 121322495
L142496902 121240247
L142579150 121158000
L142702521 121116876
L142784769 121116876
L142908140 121158000
L142949264 121199123
" />
<path d="M143771740 121980476
L143278255 121980476
" />
<path d="M143524998 121980476
L143524998 121116876
L143442750 121240247
L143360502 121322495
L143278255 121363619
" />
</g></g>
<g style="fill:#F2EDA1; fill-opacity:0.0; 
stroke:#F2EDA1; stroke-width:266700.000000; stroke-opacity:1; 
stroke-linecap:round; stroke-linejoin:round;">
<text x="176568100.000000" y="134073900.000000"
textLength="10561320.000000" font-size="2015066.000000" lengthAdjust="spacingAndGlyphs"
text-anchor="end" opacity="0">N. Seidle</text>
<g class="stroked-text"><desc>N. Seidle</desc>
<path d="M166391378 134001933
L166391378 132490633
L167254978 134001933
L167254978 132490633
" />
<path d="M167974645 133858000
L168046611 133929966
L167974645 134001933
L167902678 133929966
L167974645 133858000
L167974645 134001933
" />
<path d="M169773811 133929966
L169989711 134001933
L170349545 134001933
L170493478 133929966
L170565445 133858000
L170637411 133714066
L170637411 133570133
L170565445 133426200
L170493478 133354233
L170349545 133282266
L170061678 133210300
L169917745 133138333
L169845778 133066366
L169773811 132922433
L169773811 132778500
L169845778 132634566
L169917745 132562600
L170061678 132490633
L170421511 132490633
L170637411 132562600
" />
<path d="M171860845 133929966
L171716911 134001933
L171429045 134001933
L171285111 133929966
L171213145 133786033
L171213145 133210300
L171285111 133066366
L171429045 132994400
L171716911 132994400
L171860845 133066366
L171932811 133210300
L171932811 133354233
L171213145 133498166
" />
<path d="M172580511 134001933
L172580511 132994400
" />
<path d="M172580511 132490633
L172508545 132562600
L172580511 132634566
L172652478 132562600
L172580511 132490633
L172580511 132634566
" />
<path d="M173947878 134001933
L173947878 132490633
" />
<path d="M173947878 133929966
L173803945 134001933
L173516078 134001933
L173372145 133929966
L173300178 133858000
L173228211 133714066
L173228211 133282266
L173300178 133138333
L173372145 133066366
L173516078 132994400
L173803945 132994400
L173947878 133066366
" />
<path d="M174883445 134001933
L174739511 133929966
L174667545 133786033
L174667545 132490633
" />
<path d="M176034911 133929966
L175890978 134001933
L175603111 134001933
L175459178 133929966
L175387211 133786033
L175387211 133210300
L175459178 133066366
L175603111 132994400
L175890978 132994400
L176034911 133066366
L176106878 133210300
L176106878 133354233
L175387211 133498166
" />
</g></g>
<g style="fill:#F2EDA1; fill-opacity:0.0; 
stroke:#F2EDA1; stroke-width:152400.000000; stroke-opacity:1; 
stroke-linecap:round; stroke-linejoin:round;">
<text x="154851100.000000" y="109169200.000000"
textLength="2032786.000000" font-size="1151466.000000" lengthAdjust="spacingAndGlyphs"
text-anchor="end" opacity="0">EN</text>
<g class="stroked-text"><desc>EN</desc>
<path d="M153271582 108675714
L153559449 108675714
" />
<path d="M153682820 109128076
L153271582 109128076
L153271582 108264476
L153682820 108264476
" />
<path d="M154052935 109128076
L154052935 108264476
L154546420 109128076
L154546420 108264476
" />
</g><text x="142151100.000000" y="124561600.000000"
textLength="1884196.000000" font-size="1151466.000000" lengthAdjust="spacingAndGlyphs"
text-anchor="start" opacity="0">C0</text>
<g class="stroked-text"><desc>C0</desc>
<path d="M142949264 124438228
L142908140 124479352
L142784769 124520476
L142702521 124520476
L142579150 124479352
L142496902 124397104
L142455779 124314857
L142414655 124150361
L142414655 124026990
L142455779 123862495
L142496902 123780247
L142579150 123698000
L142702521 123656876
L142784769 123656876
L142908140 123698000
L142949264 123739123
" />
<path d="M143483874 123656876
L143566121 123656876
L143648369 123698000
L143689493 123739123
L143730617 123821371
L143771740 123985866
L143771740 124191485
L143730617 124355980
L143689493 124438228
L143648369 124479352
L143566121 124520476
L143483874 124520476
L143401626 124479352
L143360502 124438228
L143319379 124355980
L143278255 124191485
L143278255 123985866
L143319379 123821371
L143360502 123739123
L143401626 123698000
L143483874 123656876
" />
</g><text x="154851100.000000" y="106629200.000000"
textLength="1843072.000000" font-size="1151466.000000" lengthAdjust="spacingAndGlyphs"
text-anchor="end" opacity="0">S0</text>
<g class="stroked-text"><desc>S0</desc>
<path d="M153271582 106546952
L153394954 106588076
L153600573 106588076
L153682820 106546952
L153723944 106505828
L153765068 106423580
L153765068 106341333
L153723944 106259085
L153682820 106217961
L153600573 106176838
L153436078 106135714
L153353830 106094590
L153312706 106053466
L153271582 105971219
L153271582 105888971
L153312706 105806723
L153353830 105765600
L153436078 105724476
L153641697 105724476
L153765068 105765600
" />
<path d="M154299678 105724476
L154381925 105724476
L154464173 105765600
L154505297 105806723
L154546420 105888971
L154587544 106053466
L154587544 106259085
L154546420 106423580
L154505297 106505828
L154464173 106546952
L154381925 106588076
L154299678 106588076
L154217430 106546952
L154176306 106505828
L154135182 106423580
L154094059 106259085
L154094059 106053466
L154135182 105888971
L154176306 105806723
L154217430 105765600
L154299678 105724476
" />
</g><text x="142151100.000000" y="116941600.000000"
textLength="1884196.000000" font-size="1151466.000000" lengthAdjust="spacingAndGlyphs"
text-anchor="start" opacity="0">C3</text>
<g class="stroked-text"><desc>C3</desc>
<path d="M142949264 116818228
L142908140 116859352
L142784769 116900476
L142702521 116900476
L142579150 116859352
L142496902 116777104
L142455779 116694857
L142414655 116530361
L142414655 116406990
L142455779 116242495
L142496902 116160247
L142579150 116078000
L142702521 116036876
L142784769 116036876
L142908140 116078000
L142949264 116119123
" />
<path d="M143237131 116036876
L143771740 116036876
L143483874 116365866
L143607245 116365866
L143689493 116406990
L143730617 116448114
L143771740 116530361
L143771740 116735980
L143730617 116818228
L143689493 116859352
L143607245 116900476
L143360502 116900476
L143278255 116859352
L143237131 116818228
" />
</g><text x="142151100.000000" y="111861600.000000"
textLength="1884196.000000" font-size="1151466.000000" lengthAdjust="spacingAndGlyphs"
text-anchor="start" opacity="0">C5</text>
<g class="stroked-text"><desc>C5</desc>
<path d="M142949264 111738228
L142908140 111779352
L142784769 111820476
L142702521 111820476
L142579150 111779352
L142496902 111697104
L142455779 111614857
L142414655 111450361
L142414655 111326990
L142455779 111162495
L142496902 111080247
L142579150 110998000
L142702521 110956876
L142784769 110956876
L142908140 110998000
L142949264 111039123
" />
<path d="M143730617 110956876
L143319379 110956876
L143278255 111368114
L143319379 111326990
L143401626 111285866
L143607245 111285866
L143689493 111326990
L143730617 111368114
L143771740 111450361
L143771740 111655980
L143730617 111738228
L143689493 111779352
L143607245 111820476
L143401626 111820476
L143319379 111779352
L143278255 111738228
" />
</g><text x="154851100.000000" y="114249200.000000"
textLength="2830044.000000" font-size="1151466.000000" lengthAdjust="spacingAndGlyphs"
text-anchor="end" opacity="0">GND</text>
<g class="stroked-text"><desc>GND</desc>
<path d="M152778097 113385600
L152695849 113344476
L152572478 113344476
L152449106 113385600
L152366859 113467847
L152325735 113550095
L152284611 113714590
L152284611 113837961
L152325735 114002457
L152366859 114084704
L152449106 114166952
L152572478 114208076
L152654725 114208076
L152778097 114166952
L152819220 114125828
L152819220 113837961
L152654725 113837961
" />
<path d="M153189335 114208076
L153189335 113344476
L153682820 114208076
L153682820 113344476
" />
<path d="M154094059 114208076
L154094059 113344476
L154299678 113344476
L154423049 113385600
L154505297 113467847
L154546420 113550095
L154587544 113714590
L154587544 113837961
L154546420 114002457
L154505297 114084704
L154423049 114166952
L154299678 114208076
L154094059 114208076
" />
</g><text x="142151100.000000" y="94081600.000000"
textLength="2706672.000000" font-size="1151466.000000" lengthAdjust="spacingAndGlyphs"
text-anchor="start" opacity="0">C12</text>
<g class="stroked-text"><desc>C12</desc>
<path d="M142949264 93958228
L142908140 93999352
L142784769 94040476
L142702521 94040476
L142579150 93999352
L142496902 93917104
L142455779 93834857
L142414655 93670361
L142414655 93546990
L142455779 93382495
L142496902 93300247
L142579150 93218000
L142702521 93176876
L142784769 93176876
L142908140 93218000
L142949264 93259123
" />
<path d="M143771740 94040476
L143278255 94040476
" />
<path d="M143524998 94040476
L143524998 93176876
L143442750 93300247
L143360502 93382495
L143278255 93423619
" />
<path d="M144100731 93259123
L144141855 93218000
L144224102 93176876
L144429721 93176876
L144511969 93218000
L144553093 93259123
L144594217 93341371
L144594217 93423619
L144553093 93546990
L144059607 94040476
L144594217 94040476
" />
</g></g>
<g style="fill:#F2EDA1; fill-opacity:0.0; 
stroke:#F2EDA1; stroke-width:190500.000000; stroke-opacity:1; 
stroke-linecap:round; stroke-linejoin:round;">
<text x="144310100.000000" y="116894610.000000"
textLength="10067834.000000" font-size="1439333.000000" lengthAdjust="spacingAndGlyphs"
text-anchor="start" opacity="0">16-Channel</text>
<g class="stroked-text"><desc>16-Channel</desc>
<path d="M145256401 116843205
L144639544 116843205
" />
<path d="M144947972 116843205
L144947972 115763705
L144845163 115917919
L144742353 116020729
L144639544 116072133
" />
<path d="M146181686 115763705
L145976067 115763705
L145873258 115815110
L145821853 115866514
L145719044 116020729
L145667639 116226348
L145667639 116637586
L145719044 116740395
L145770448 116791800
L145873258 116843205
L146078877 116843205
L146181686 116791800
L146233091 116740395
L146284496 116637586
L146284496 116380562
L146233091 116277752
L146181686 116226348
L146078877 116174943
L145873258 116174943
L145770448 116226348
L145719044 116277752
L145667639 116380562
" />
<path d="M146747139 116431967
L147569615 116431967
" />
<path d="M148700520 116740395
L148649115 116791800
L148494901 116843205
L148392091 116843205
L148237877 116791800
L148135067 116688990
L148083663 116586181
L148032258 116380562
L148032258 116226348
L148083663 116020729
L148135067 115917919
L148237877 115815110
L148392091 115763705
L148494901 115763705
L148649115 115815110
L148700520 115866514
" />
<path d="M149163163 116843205
L149163163 115763705
" />
<path d="M149625805 116843205
L149625805 116277752
L149574401 116174943
L149471591 116123538
L149317377 116123538
L149214567 116174943
L149163163 116226348
" />
<path d="M150602496 116843205
L150602496 116277752
L150551091 116174943
L150448282 116123538
L150242663 116123538
L150139853 116174943
" />
<path d="M150602496 116791800
L150499686 116843205
L150242663 116843205
L150139853 116791800
L150088448 116688990
L150088448 116586181
L150139853 116483371
L150242663 116431967
L150499686 116431967
L150602496 116380562
" />
<path d="M151116544 116123538
L151116544 116843205
" />
<path d="M151116544 116226348
L151167948 116174943
L151270758 116123538
L151424972 116123538
L151527782 116174943
L151579186 116277752
L151579186 116843205
" />
<path d="M152093234 116123538
L152093234 116843205
" />
<path d="M152093234 116226348
L152144639 116174943
L152247448 116123538
L152401663 116123538
L152504472 116174943
L152555877 116277752
L152555877 116843205
" />
<path d="M153481163 116791800
L153378353 116843205
L153172734 116843205
L153069925 116791800
L153018520 116688990
L153018520 116277752
L153069925 116174943
L153172734 116123538
L153378353 116123538
L153481163 116174943
L153532567 116277752
L153532567 116380562
L153018520 116483371
" />
<path d="M154149425 116843205
L154046615 116791800
L153995210 116688990
L153995210 115763705
" />
</g><text x="144310100.000000" y="118632605.000000"
textLength="7290102.000000" font-size="1439333.000000" lengthAdjust="spacingAndGlyphs"
text-anchor="start" opacity="0">  Analog</text>
<g class="stroked-text"><desc>  Analog</desc>
<path d="M146284496 118272771
L146798544 118272771
" />
<path d="M146181686 118581200
L146541520 117501700
L146901353 118581200
" />
<path d="M147261186 117861533
L147261186 118581200
" />
<path d="M147261186 117964343
L147312591 117912938
L147415401 117861533
L147569615 117861533
L147672425 117912938
L147723829 118015747
L147723829 118581200
" />
<path d="M148700520 118581200
L148700520 118015747
L148649115 117912938
L148546305 117861533
L148340686 117861533
L148237877 117912938
" />
<path d="M148700520 118529795
L148597710 118581200
L148340686 118581200
L148237877 118529795
L148186472 118426985
L148186472 118324176
L148237877 118221366
L148340686 118169962
L148597710 118169962
L148700520 118118557
" />
<path d="M149368782 118581200
L149265972 118529795
L149214567 118426985
L149214567 117501700
" />
<path d="M149934234 118581200
L149831425 118529795
L149780020 118478390
L149728615 118375581
L149728615 118067152
L149780020 117964343
L149831425 117912938
L149934234 117861533
L150088448 117861533
L150191258 117912938
L150242663 117964343
L150294067 118067152
L150294067 118375581
L150242663 118478390
L150191258 118529795
L150088448 118581200
L149934234 118581200
" />
<path d="M151219353 117861533
L151219353 118735414
L151167948 118838224
L151116544 118889628
L151013734 118941033
L150859520 118941033
L150756710 118889628
" />
<path d="M151219353 118529795
L151116544 118581200
L150910925 118581200
L150808115 118529795
L150756710 118478390
L150705305 118375581
L150705305 118067152
L150756710 117964343
L150808115 117912938
L150910925 117861533
L151116544 117861533
L151219353 117912938
" />
</g><text x="144310100.000000" y="120370600.000000"
textLength="9089269.000000" font-size="1439333.000000" lengthAdjust="spacingAndGlyphs"
text-anchor="start" opacity="0">Multiplexer</text>
<g class="stroked-text"><desc>Multiplexer</desc>
<path d="M144690948 120319195
L144690948 119239695
L145050782 120010766
L145410615 119239695
L145410615 120319195
" />
<path d="M146387305 119599528
L146387305 120319195
" />
<path d="M145924663 119599528
L145924663 120164980
L145976067 120267790
L146078877 120319195
L146233091 120319195
L146335901 120267790
L146387305 120216385
" />
<path d="M147055567 120319195
L146952758 120267790
L146901353 120164980
L146901353 119239695
" />
<path d="M147312591 119599528
L147723829 119599528
" />
<path d="M147466805 119239695
L147466805 120164980
L147518210 120267790
L147621020 120319195
L147723829 120319195
" />
<path d="M148083663 120319195
L148083663 119599528
" />
<path d="M148083663 119239695
L148032258 119291100
L148083663 119342504
L148135067 119291100
L148083663 119239695
L148083663 119342504
" />
<path d="M148597710 119599528
L148597710 120679028
" />
<path d="M148597710 119650933
L148700520 119599528
L148906139 119599528
L149008948 119650933
L149060353 119702338
L149111758 119805147
L149111758 120113576
L149060353 120216385
L149008948 120267790
L148906139 120319195
L148700520 120319195
L148597710 120267790
" />
<path d="M149728615 120319195
L149625805 120267790
L149574401 120164980
L149574401 119239695
" />
<path d="M150551091 120267790
L150448282 120319195
L150242663 120319195
L150139853 120267790
L150088448 120164980
L150088448 119753742
L150139853 119650933
L150242663 119599528
L150448282 119599528
L150551091 119650933
L150602496 119753742
L150602496 119856552
L150088448 119959361
" />
<path d="M150962329 120319195
L151527782 119599528
" />
<path d="M150962329 119599528
L151527782 120319195
" />
<path d="M152350258 120267790
L152247448 120319195
L152041829 120319195
L151939020 120267790
L151887615 120164980
L151887615 119753742
L151939020 119650933
L152041829 119599528
L152247448 119599528
L152350258 119650933
L152401663 119753742
L152401663 119856552
L151887615 119959361
" />
<path d="M152864305 120319195
L152864305 119599528
" />
<path d="M152864305 119805147
L152915710 119702338
L152967115 119650933
L153069925 119599528
L153172734 119599528
" />
</g></g>
<g style="fill:#F2EDA1; fill-opacity:0.0; 
stroke:#F2EDA1; stroke-width:152400.000000; stroke-opacity:1; 
stroke-linecap:round; stroke-linejoin:round;">
<text x="142151100.000000" y="109321600.000000"
textLength="1933726.000000" font-size="1151466.000000" lengthAdjust="spacingAndGlyphs"
text-anchor="start" opacity="0">C6</text>
<g class="stroked-text"><desc>C6</desc>
<path d="M142949264 109198228
L142908140 109239352
L142784769 109280476
L142702521 109280476
L142579150 109239352
L142496902 109157104
L142455779 109074857
L142414655 108910361
L142414655 108786990
L142455779 108622495
L142496902 108540247
L142579150 108458000
L142702521 108416876
L142784769 108416876
L142908140 108458000
L142949264 108499123
" />
<path d="M143689493 108416876
L143524998 108416876
L143442750 108458000
L143401626 108499123
L143319379 108622495
L143278255 108786990
L143278255 109115980
L143319379 109198228
L143360502 109239352
L143442750 109280476
L143607245 109280476
L143689493 109239352
L143730617 109198228
L143771740 109115980
L143771740 108910361
L143730617 108828114
L143689493 108786990
L143607245 108745866
L143442750 108745866
L143360502 108786990
L143319379 108828114
L143278255 108910361
" />
</g><text x="142151100.000000" y="119481600.000000"
textLength="1884196.000000" font-size="1151466.000000" lengthAdjust="spacingAndGlyphs"
text-anchor="start" opacity="0">C2</text>
<g class="stroked-text"><desc>C2</desc>
<path d="M142949264 119358228
L142908140 119399352
L142784769 119440476
L142702521 119440476
L142579150 119399352
L142496902 119317104
L142455779 119234857
L142414655 119070361
L142414655 118946990
L142455779 118782495
L142496902 118700247
L142579150 118618000
L142702521 118576876
L142784769 118576876
L142908140 118618000
L142949264 118659123
" />
<path d="M143278255 118659123
L143319379 118618000
L143401626 118576876
L143607245 118576876
L143689493 118618000
L143730617 118659123
L143771740 118741371
L143771740 118823619
L143730617 118946990
L143237131 119440476
L143771740 119440476
" />
</g><text x="142151100.000000" y="99161600.000000"
textLength="2706672.000000" font-size="1151466.000000" lengthAdjust="spacingAndGlyphs"
text-anchor="start" opacity="0">C10</text>
<g class="stroked-text"><desc>C10</desc>
<path d="M142949264 99038228
L142908140 99079352
L142784769 99120476
L142702521 99120476
L142579150 99079352
L142496902 98997104
L142455779 98914857
L142414655 98750361
L142414655 98626990
L142455779 98462495
L142496902 98380247
L142579150 98298000
L142702521 98256876
L142784769 98256876
L142908140 98298000
L142949264 98339123
" />
<path d="M143771740 99120476
L143278255 99120476
" />
<path d="M143524998 99120476
L143524998 98256876
L143442750 98380247
L143360502 98462495
L143278255 98503619
" />
<path d="M144306350 98256876
L144388598 98256876
L144470845 98298000
L144511969 98339123
L144553093 98421371
L144594217 98585866
L144594217 98791485
L144553093 98955980
L144511969 99038228
L144470845 99079352
L144388598 99120476
L144306350 99120476
L144224102 99079352
L144182979 99038228
L144141855 98955980
L144100731 98791485
L144100731 98585866
L144141855 98421371
L144182979 98339123
L144224102 98298000
L144306350 98256876
" />
</g><text x="142151100.000000" y="101701600.000000"
textLength="1884196.000000" font-size="1151466.000000" lengthAdjust="spacingAndGlyphs"
text-anchor="start" opacity="0">C9</text>
<g class="stroked-text"><desc>C9</desc>
<path d="M142949264 101578228
L142908140 101619352
L142784769 101660476
L142702521 101660476
L142579150 101619352
L142496902 101537104
L142455779 101454857
L142414655 101290361
L142414655 101166990
L142455779 101002495
L142496902 100920247
L142579150 100838000
L142702521 100796876
L142784769 100796876
L142908140 100838000
L142949264 100879123
" />
<path d="M143360502 101660476
L143524998 101660476
L143607245 101619352
L143648369 101578228
L143730617 101454857
L143771740 101290361
L143771740 100961371
L143730617 100879123
L143689493 100838000
L143607245 100796876
L143442750 100796876
L143360502 100838000
L143319379 100879123
L143278255 100961371
L143278255 101166990
L143319379 101249238
L143360502 101290361
L143442750 101331485
L143607245 101331485
L143689493 101290361
L143730617 101249238
L143771740 101166990
" />
</g><text x="142151100.000000" y="106781600.000000"
textLength="1884196.000000" font-size="1151466.000000" lengthAdjust="spacingAndGlyphs"
text-anchor="start" opacity="0">C7</text>
<g class="stroked-text"><desc>C7</desc>
<path d="M142949264 106658228
L142908140 106699352
L142784769 106740476
L142702521 106740476
L142579150 106699352
L142496902 106617104
L142455779 106534857
L142414655 106370361
L142414655 106246990
L142455779 106082495
L142496902 106000247
L142579150 105918000
L142702521 105876876
L142784769 105876876
L142908140 105918000
L142949264 105959123
" />
<path d="M143237131 105876876
L143812864 105876876
L143442750 106740476
" />
</g><text x="142151100.000000" y="104241600.000000"
textLength="1884196.000000" font-size="1151466.000000" lengthAdjust="spacingAndGlyphs"
text-anchor="start" opacity="0">C8</text>
<g class="stroked-text"><desc>C8</desc>
<path d="M142949264 104118228
L142908140 104159352
L142784769 104200476
L142702521 104200476
L142579150 104159352
L142496902 104077104
L142455779 103994857
L142414655 103830361
L142414655 103706990
L142455779 103542495
L142496902 103460247
L142579150 103378000
L142702521 103336876
L142784769 103336876
L142908140 103378000
L142949264 103419123
" />
<path d="M143442750 103706990
L143360502 103665866
L143319379 103624742
L143278255 103542495
L143278255 103501371
L143319379 103419123
L143360502 103378000
L143442750 103336876
L143607245 103336876
L143689493 103378000
L143730617 103419123
L143771740 103501371
L143771740 103542495
L143730617 103624742
L143689493 103665866
L143607245 103706990
L143442750 103706990
L143360502 103748114
L143319379 103789238
L143278255 103871485
L143278255 104035980
L143319379 104118228
L143360502 104159352
L143442750 104200476
L143607245 104200476
L143689493 104159352
L143730617 104118228
L143771740 104035980
L143771740 103871485
L143730617 103789238
L143689493 103748114
L143607245 103706990
" />
</g><text x="154851100.000000" y="101549200.000000"
textLength="1843072.000000" font-size="1151466.000000" lengthAdjust="spacingAndGlyphs"
text-anchor="end" opacity="0">S2</text>
<g class="stroked-text"><desc>S2</desc>
<path d="M153271582 101466952
L153394954 101508076
L153600573 101508076
L153682820 101466952
L153723944 101425828
L153765068 101343580
L153765068 101261333
L153723944 101179085
L153682820 101137961
L153600573 101096838
L153436078 101055714
L153353830 101014590
L153312706 100973466
L153271582 100891219
L153271582 100808971
L153312706 100726723
L153353830 100685600
L153436078 100644476
L153641697 100644476
L153765068 100685600
" />
<path d="M154094059 100726723
L154135182 100685600
L154217430 100644476
L154423049 100644476
L154505297 100685600
L154546420 100726723
L154587544 100808971
L154587544 100891219
L154546420 101014590
L154052935 101508076
L154587544 101508076
" />
</g></g>
<g style="fill:#F2EDA1; fill-opacity:0.0; 
stroke:#F2EDA1; stroke-width:266700.000000; stroke-opacity:1; 
stroke-linecap:round; stroke-linejoin:round;">
<text x="184188100.000000" y="136613900.000000"
textLength="17254220.000000" font-size="2015066.000000" lengthAdjust="spacingAndGlyphs"
text-anchor="end" opacity="0">T. Klopfenstein</text>
<g class="stroked-text"><desc>T. Klopfenstein</desc>
<path d="M167102578 135030633
L167966178 135030633
" />
<path d="M167534378 136541933
L167534378 135030633
" />
<path d="M168469945 136398000
L168541911 136469966
L168469945 136541933
L168397978 136469966
L168469945 136398000
L168469945 136541933
" />
<path d="M170341078 136541933
L170341078 135030633
" />
<path d="M171204678 136541933
L170556978 135678333
" />
<path d="M171204678 135030633
L170341078 135894233
" />
<path d="M172068278 136541933
L171924345 136469966
L171852378 136326033
L171852378 135030633
" />
<path d="M172859911 136541933
L172715978 136469966
L172644011 136398000
L172572045 136254066
L172572045 135822266
L172644011 135678333
L172715978 135606366
L172859911 135534400
L173075811 135534400
L173219745 135606366
L173291711 135678333
L173363678 135822266
L173363678 136254066
L173291711 136398000
L173219745 136469966
L173075811 136541933
L172859911 136541933
" />
<path d="M174011378 135534400
L174011378 137045700
" />
<path d="M174011378 135606366
L174155311 135534400
L174443178 135534400
L174587111 135606366
L174659078 135678333
L174731045 135822266
L174731045 136254066
L174659078 136398000
L174587111 136469966
L174443178 136541933
L174155311 136541933
L174011378 136469966
" />
<path d="M175162845 135534400
L175738578 135534400
" />
<path d="M175378745 136541933
L175378745 135246533
L175450711 135102600
L175594645 135030633
L175738578 135030633
" />
<path d="M176818078 136469966
L176674145 136541933
L176386278 136541933
L176242345 136469966
L176170378 136326033
L176170378 135750300
L176242345 135606366
L176386278 135534400
L176674145 135534400
L176818078 135606366
L176890045 135750300
L176890045 135894233
L176170378 136038166
" />
<path d="M177537745 135534400
L177537745 136541933
" />
<path d="M177537745 135678333
L177609711 135606366
L177753645 135534400
L177969545 135534400
L178113478 135606366
L178185445 135750300
L178185445 136541933
" />
<path d="M178833145 136469966
L178977078 136541933
L179264945 136541933
L179408878 136469966
L179480845 136326033
L179480845 136254066
L179408878 136110133
L179264945 136038166
L179049045 136038166
L178905111 135966200
L178833145 135822266
L178833145 135750300
L178905111 135606366
L179049045 135534400
L179264945 135534400
L179408878 135606366
" />
<path d="M179912645 135534400
L180488378 135534400
" />
<path d="M180128545 135030633
L180128545 136326033
L180200511 136469966
L180344445 136541933
L180488378 136541933
" />
<path d="M181567878 136469966
L181423945 136541933
L181136078 136541933
L180992145 136469966
L180920178 136326033
L180920178 135750300
L180992145 135606366
L181136078 135534400
L181423945 135534400
L181567878 135606366
L181639845 135750300
L181639845 135894233
L180920178 136038166
" />
<path d="M182287545 136541933
L182287545 135534400
" />
<path d="M182287545 135030633
L182215578 135102600
L182287545 135174566
L182359511 135102600
L182287545 135030633
L182287545 135174566
" />
<path d="M183007211 135534400
L183007211 136541933
" />
<path d="M183007211 135678333
L183079178 135606366
L183223111 135534400
L183439011 135534400
L183582945 135606366
L183654911 135750300
L183654911 136541933
" />
</g></g>
<g style="fill:#F2EDA1; fill-opacity:0.0; 
stroke:#F2EDA1; stroke-width:152400.000000; stroke-opacity:1; 
stroke-linecap:round; stroke-linejoin:round;">
<text x="142151100.000000" y="96621600.000000"
textLength="2855262.000000" font-size="1151466.000000" lengthAdjust="spacingAndGlyphs"
text-anchor="start" opacity="0">C11</text>
<g class="stroked-text"><desc>C11</desc>
<path d="M142949264 96498228
L142908140 96539352
L142784769 96580476
L142702521 96580476
L142579150 96539352
L142496902 96457104
L142455779 96374857
L142414655 96210361
L142414655 96086990
L142455779 95922495
L142496902 95840247
L142579150 95758000
L142702521 95716876
L142784769 95716876
L142908140 95758000
L142949264 95799123
" />
<path d="M143771740 96580476
L143278255 96580476
" />
<path d="M143524998 96580476
L143524998 95716876
L143442750 95840247
L143360502 95922495
L143278255 95963619
" />
<path d="M144594217 96580476
L144100731 96580476
" />
<path d="M144347474 96580476
L144347474 95716876
L144265226 95840247
L144182979 95922495
L144100731 95963619
" />
</g><text x="154851100.000000" y="111709200.000000"
textLength="2665549.000000" font-size="1151466.000000" lengthAdjust="spacingAndGlyphs"
text-anchor="end" opacity="0">VCC</text>
<g class="stroked-text"><desc>VCC</desc>
<path d="M152366859 110804476
L152654725 111668076
L152942592 110804476
" />
<path d="M153723944 111585828
L153682820 111626952
L153559449 111668076
L153477201 111668076
L153353830 111626952
L153271582 111544704
L153230459 111462457
L153189335 111297961
L153189335 111174590
L153230459 111010095
L153271582 110927847
L153353830 110845600
L153477201 110804476
L153559449 110804476
L153682820 110845600
L153723944 110886723
" />
<path d="M154587544 111585828
L154546420 111626952
L154423049 111668076
L154340801 111668076
L154217430 111626952
L154135182 111544704
L154094059 111462457
L154052935 111297961
L154052935 111174590
L154094059 111010095
L154135182 110927847
L154217430 110845600
L154340801 110804476
L154423049 110804476
L154546420 110845600
L154587544 110886723
" />
</g><text x="142151100.000000" y="86461600.000000"
textLength="2706672.000000" font-size="1151466.000000" lengthAdjust="spacingAndGlyphs"
text-anchor="start" opacity="0">C15</text>
<g class="stroked-text"><desc>C15</desc>
<path d="M142949264 86338228
L142908140 86379352
L142784769 86420476
L142702521 86420476
L142579150 86379352
L142496902 86297104
L142455779 86214857
L142414655 86050361
L142414655 85926990
L142455779 85762495
L142496902 85680247
L142579150 85598000
L142702521 85556876
L142784769 85556876
L142908140 85598000
L142949264 85639123
" />
<path d="M143771740 86420476
L143278255 86420476
" />
<path d="M143524998 86420476
L143524998 85556876
L143442750 85680247
L143360502 85762495
L143278255 85803619
" />
<path d="M144553093 85556876
L144141855 85556876
L144100731 85968114
L144141855 85926990
L144224102 85885866
L144429721 85885866
L144511969 85926990
L144553093 85968114
L144594217 86050361
L144594217 86255980
L144553093 86338228
L144511969 86379352
L144429721 86420476
L144224102 86420476
L144141855 86379352
L144100731 86338228
" />
</g><text x="154851100.000000" y="96469200.000000"
textLength="2295434.000000" font-size="1151466.000000" lengthAdjust="spacingAndGlyphs"
text-anchor="end" opacity="0">SIG</text>
<g class="stroked-text"><desc>SIG</desc>
<path d="M152819220 96386952
L152942592 96428076
L153148211 96428076
L153230459 96386952
L153271582 96345828
L153312706 96263580
L153312706 96181333
L153271582 96099085
L153230459 96057961
L153148211 96016838
L152983716 95975714
L152901468 95934590
L152860344 95893466
L152819220 95811219
L152819220 95728971
L152860344 95646723
L152901468 95605600
L152983716 95564476
L153189335 95564476
L153312706 95605600
" />
<path d="M153682820 96428076
L153682820 95564476
" />
<path d="M154546420 95605600
L154464173 95564476
L154340801 95564476
L154217430 95605600
L154135182 95687847
L154094059 95770095
L154052935 95934590
L154052935 96057961
L154094059 96222457
L154135182 96304704
L154217430 96386952
L154340801 96428076
L154423049 96428076
L154546420 96386952
L154587544 96345828
L154587544 96057961
L154423049 96057961
" />
</g><text x="142151100.000000" y="89001600.000000"
textLength="2706672.000000" font-size="1151466.000000" lengthAdjust="spacingAndGlyphs"
text-anchor="start" opacity="0">C14</text>
<g class="stroked-text"><desc>C14</desc>
<path d="M142949264 88878228
L142908140 88919352
L142784769 88960476
L142702521 88960476
L142579150 88919352
L142496902 88837104
L142455779 88754857
L142414655 88590361
L142414655 88466990
L142455779 88302495
L142496902 88220247
L142579150 88138000
L142702521 88096876
L142784769 88096876
L142908140 88138000
L142949264 88179123
" />
<path d="M143771740 88960476
L143278255 88960476
" />
<path d="M143524998 88960476
L143524998 88096876
L143442750 88220247
L143360502 88302495
L143278255 88343619
" />
<path d="M144511969 88384742
L144511969 88960476
" />
<path d="M144306350 88055752
L144100731 88672609
L144635340 88672609
" />
</g><text x="154851100.000000" y="104089200.000000"
textLength="1843072.000000" font-size="1151466.000000" lengthAdjust="spacingAndGlyphs"
text-anchor="end" opacity="0">S1</text>
<g class="stroked-text"><desc>S1</desc>
<path d="M153271582 104006952
L153394954 104048076
L153600573 104048076
L153682820 104006952
L153723944 103965828
L153765068 103883580
L153765068 103801333
L153723944 103719085
L153682820 103677961
L153600573 103636838
L153436078 103595714
L153353830 103554590
L153312706 103513466
L153271582 103431219
L153271582 103348971
L153312706 103266723
L153353830 103225600
L153436078 103184476
L153641697 103184476
L153765068 103225600
" />
<path d="M154587544 104048076
L154094059 104048076
" />
<path d="M154340801 104048076
L154340801 103184476
L154258554 103307847
L154176306 103390095
L154094059 103431219
" />
</g></g>
<g style="fill:#F2EDA1; fill-opacity:0.0; 
stroke:#F2EDA1; stroke-width:32512.000000; stroke-opacity:1; 
stroke-linecap:round; stroke-linejoin:round;">
<g transform="rotate(-90.000000 151803100.000000 97764600.000000)">
<text x="151803100.000000" y="97764600.000000"
textLength="928092.000000" font-size="498517.000000" lengthAdjust="spacingAndGlyphs"
text-anchor="start" opacity="0">R1</text>
</g>
<g class="stroked-text"><desc>R1</desc>
<path d="M151785295 97440795
L151607253 97565425
" />
<path d="M151785295 97654446
L151411407 97654446
L151411407 97512012
L151429212 97476404
L151447016 97458600
L151482624 97440795
L151536037 97440795
L151571645 97458600
L151589449 97476404
L151607253 97512012
L151607253 97654446
" />
<path d="M151785295 97084712
L151785295 97298362
" />
<path d="M151785295 97191537
L151411407 97191537
L151464820 97227145
L151500428 97262754
L151518232 97298362
" />
</g><text x="144691100.000000" y="103733600.000000"
textLength="790042.000000" font-size="498517.000000" lengthAdjust="spacingAndGlyphs"
text-anchor="start" opacity="0">U1</text>
<g class="stroked-text"><desc>U1</desc>
<path d="M144801253 103341907
L144801253 103644579
L144819057 103680187
L144836862 103697991
L144872470 103715795
L144943687 103715795
L144979295 103697991
L144997099 103680187
L145014904 103644579
L145014904 103341907
" />
<path d="M145388792 103715795
L145175141 103715795
" />
<path d="M145281966 103715795
L145281966 103341907
L145246358 103395320
L145210750 103430928
L145175141 103448732
" />
</g><g transform="rotate(-90.000000 151803100.000000 113004600.000000)">
<text x="151803100.000000" y="113004600.000000"
textLength="772237.000000" font-size="498517.000000" lengthAdjust="spacingAndGlyphs"
text-anchor="start" opacity="0">C1</text>
</g>
<g class="stroked-text"><desc>C1</desc>
<path d="M151749687 112680795
L151767491 112698600
L151785295 112752012
L151785295 112787621
L151767491 112841033
L151731883 112876642
L151696274 112894446
L151625058 112912250
L151571645 112912250
L151500428 112894446
L151464820 112876642
L151429212 112841033
L151411407 112787621
L151411407 112752012
L151429212 112698600
L151447016 112680795
" />
<path d="M151785295 112324712
L151785295 112538362
" />
<path d="M151785295 112431537
L151411407 112431537
L151464820 112467145
L151500428 112502754
L151518232 112538362
" />
</g></g>
<g style="fill:#F2EDA1; fill-opacity:0.0; 
stroke:#F2EDA1; stroke-width:203200.000000; stroke-opacity:1; 
stroke-linecap:round; stroke-linejoin:round;">
<path d="M152751100 107503600
L144251100 107503600
" />
<path d="M144251100 107503600
L144251100 102503600
" />
<path d="M144251100 102503600
L152751100 102503600
" />
<path d="M152751100 102503600
L152751100 107503600
" />
<circle cx="144945100.000000" cy="106781600.000000" r="223100.000000" /> 
</g>
<g style="fill:#F2EDA1; fill-opacity:1.0; 
stroke:#F2EDA1; stroke-width:1.000000; stroke-opacity:1; 
stroke-linecap:round; stroke-linejoin:round;">
<path style="fill:#F2EDA1; fill-opacity:1.0; 
stroke:#F2EDA1; stroke-width:1.000000; stroke-opacity:1; 
stroke-linecap:round; stroke-linejoin:round;fill-rule:evenodd;"
d="M 149627102.000000,89495397.000000
149716549.000000,89517771.000000
149729577.000000,89522817.000000
149741249.000000,89528725.000000
149757960.000000,89537024.000000
149776652.000000,89543766.000000
149872794.000000,89601000.000000
149880400.000000,89601000.000000
149880400.000000,89626400.000000
149807933.000000,89626400.000000
149709518.000000,89645686.000000
149575955.000000,89808314.000000
149580465.000000,89866775.000000
149629190.000000,89961731.000000
149705766.000000,90038404.000000
149795169.000000,90102962.000000
149870448.000000,90134776.000000
149951837.000000,90131968.000000
149959964.000000,90129414.000000
149967357.000000,90126211.000000
150031614.000000,90066644.000000
150037900.000000,90043788.000000
150037900.000000,89925662.000000
150264807.000000,90155473.000000
150369286.000000,90446759.000000
150372703.000000,90446706.000000
150379160.000000,90653165.000000
150349957.000000,90846180.000000
150286408.000000,91030758.000000
150167400.000000,91242022.000000
150167400.000000,91223019.000000
149879231.000000,91494590.000000
149483339.000000,91605100.000000
149254105.000000,91605100.000000
149217301.000000,91611554.000000
149182876.000000,91624008.000000
148997422.000000,91761816.000000
148488500.000000,92334510.000000
148488500.000000,90782830.000000
148561104.000000,90541633.000000
148669395.000000,90438111.000000
148808222.000000,90386078.000000
148905000.000000,90378511.000000
149000484.000000,90385977.000000
149061010.000000,90395501.000000
149058888.000000,90419167.000000
149023316.000000,90418358.000000
149002884.000000,90427459.000000
148921619.000000,90486446.000000
148901822.000000,90512930.000000
148891495.000000,90575100.000000
148902005.000000,90638371.000000
148922505.000000,90678426.000000
148953443.000000,90710915.000000
149047635.000000,90760050.000000
149153329.000000,90771858.000000
149243868.000000,90753516.000000
149325320.000000,90713944.000000
149423130.000000,90548941.000000
149408806.000000,90454756.000000
149352014.000000,90373199.000000
149085807.000000,90040363.000000
149062767.000000,89792745.000000
149128595.000000,89682044.000000
149130142.000000,89680497.000000
149280001.000000,89556480.000000
149533776.000000,89486536.000000
Z" /> 
<g >
</g>
<g >
</g>
<g >
</g>
<g >
</g>
<g >
</g>
<g >
</g>
<g >
</g>
<g >
</g>
<g >
</g>
<g >
</g>
<g >
</g>
<g >
</g>
<g >
</g>
<g >
</g>
<g >
</g>
</g>
<g style="fill:#000000; fill-opacity:1.0; 
stroke:#000000; stroke-width:1.000000; stroke-opacity:1; 
stroke-linecap:round; stroke-linejoin:round;">
</g>
<g style="fill:#D0D2CD; fill-opacity:1.0; 
stroke:#D0D2CD; stroke-width:1.000000; stroke-opacity:1; 
stroke-linecap:round; stroke-linejoin:round;">
</g>
<g style="fill:#D0D2CD; fill-opacity:1.0; 
stroke:#D0D2CD; stroke-width:203200.000000; stroke-opacity:1; 
stroke-linecap:round; stroke-linejoin:round;">
</g>
<g style="fill:#D0D2CD; fill-opacity:0.0; 
stroke:#D0D2CD; stroke-width:203200.000000; stroke-opacity:1; 
stroke-linecap:round; stroke-linejoin:round;">
<path d="M139611100 84683600
L139611100 125323600
" />
<path d="M139611100 125323600
L157391100 125323600
" />
<path d="M157391100 125323600
L157391100 84683600
" />
<path d="M157391100 84683600
L139611100 84683600
" />
<g >
</g>
<g >
</g>
<g >
</g>
<g >
</g>
<g >
</g>
<g >
</g>
<g >
</g>
<g >
</g>
<g >
</g>
<g >
</g>
<g >
</g>
<g >
</g>
<g >
</g>
<g >
</g>
<g >
</g>
</g> 
</svg>
