<?xml version="1.0" standalone="no"?>
 <!DOCTYPE svg PUBLIC "-//W3C//DTD SVG 1.1//EN" 
 "http://www.w3.org/Graphics/SVG/1.1/DTD/svg11.dtd"> 
<svg
  xmlns:svg="http://www.w3.org/2000/svg"
  xmlns="http://www.w3.org/2000/svg"
  xmlns:xlink="http://www.w3.org/1999/xlink"
  version="1.1"
  width="29.700220cm" height="21.000720cm" viewBox="0 0 297002200 210007200">
<title>SVG Picture created as kicadBoard-F_Fab.svg date 2022/11/06 08:23:49 </title>
  <desc>Picture generated by PCBNEW </desc>
<g style="fill:#000000; fill-opacity:1.000000;stroke:#000000; stroke-opacity:1.000000;
stroke-linecap:round; stroke-linejoin:round;"
 transform="translate(0 0) scale(1 1)">
</g>
<g style="fill:#000000; fill-opacity:0.0; 
stroke:#000000; stroke-width:0.000000; stroke-opacity:1; 
stroke-linecap:round; stroke-linejoin:round;">
</g>
<g style="fill:#000000; fill-opacity:0.0; 
stroke:#000000; stroke-width:21200.000000; stroke-opacity:1; 
stroke-linecap:round; stroke-linejoin:round;">
</g>
<g style="fill:#000000; fill-opacity:0.0; 
stroke:#000000; stroke-width:150000.000000; stroke-opacity:1; 
stroke-linecap:round; stroke-linejoin:round;">
<rect x="177002200.000000" y="166007200.000000" width="108000000.000000" height="32000000.000000" rx="0.000000" />
</g>
<g style="fill:#000000; fill-opacity:0.0; 
stroke:#000000; stroke-width:21200.000000; stroke-opacity:1; 
stroke-linecap:round; stroke-linejoin:round;">
</g>
<g style="fill:#000000; fill-opacity:0.0; 
stroke:#000000; stroke-width:150000.000000; stroke-opacity:1; 
stroke-linecap:round; stroke-linejoin:round;">
<rect x="10000000.000000" y="10000000.000000" width="277002200.000000" height="190007200.000000" rx="0.000000" />
</g>
<g style="fill:#000000; fill-opacity:0.0; 
stroke:#000000; stroke-width:21200.000000; stroke-opacity:1; 
stroke-linecap:round; stroke-linejoin:round;">
</g>
<g style="fill:#000000; fill-opacity:0.0; 
stroke:#000000; stroke-width:150000.000000; stroke-opacity:1; 
stroke-linecap:round; stroke-linejoin:round;">
<rect x="12000000.000000" y="12000000.000000" width="273002200.000000" height="186007200.000000" rx="0.000000" />
</g>
<g style="fill:#000000; fill-opacity:0.0; 
stroke:#000000; stroke-width:21200.000000; stroke-opacity:1; 
stroke-linecap:round; stroke-linejoin:round;">
</g>
<g style="fill:#000000; fill-opacity:0.0; 
stroke:#000000; stroke-width:150000.000000; stroke-opacity:1; 
stroke-linecap:round; stroke-linejoin:round;">
<path d="M60000000 12000000
L60000000 10000000
" />
</g>
<g style="fill:#000000; fill-opacity:0.0; 
stroke:#000000; stroke-width:21200.000000; stroke-opacity:1; 
stroke-linecap:round; stroke-linejoin:round;">
</g>
<g style="fill:#000000; fill-opacity:0.0; 
stroke:#000000; stroke-width:150000.000000; stroke-opacity:1; 
stroke-linecap:round; stroke-linejoin:round;">
<path d="M110000000 12000000
L110000000 10000000
" />
</g>
<g style="fill:#000000; fill-opacity:0.0; 
stroke:#000000; stroke-width:21200.000000; stroke-opacity:1; 
stroke-linecap:round; stroke-linejoin:round;">
</g>
<g style="fill:#000000; fill-opacity:0.0; 
stroke:#000000; stroke-width:150000.000000; stroke-opacity:1; 
stroke-linecap:round; stroke-linejoin:round;">
<path d="M160000000 12000000
L160000000 10000000
" />
</g>
<g style="fill:#000000; fill-opacity:0.0; 
stroke:#000000; stroke-width:21200.000000; stroke-opacity:1; 
stroke-linecap:round; stroke-linejoin:round;">
</g>
<g style="fill:#000000; fill-opacity:0.0; 
stroke:#000000; stroke-width:150000.000000; stroke-opacity:1; 
stroke-linecap:round; stroke-linejoin:round;">
<path d="M210000000 12000000
L210000000 10000000
" />
</g>
<g style="fill:#000000; fill-opacity:0.0; 
stroke:#000000; stroke-width:21200.000000; stroke-opacity:1; 
stroke-linecap:round; stroke-linejoin:round;">
</g>
<g style="fill:#000000; fill-opacity:0.0; 
stroke:#000000; stroke-width:150000.000000; stroke-opacity:1; 
stroke-linecap:round; stroke-linejoin:round;">
<path d="M260000000 12000000
L260000000 10000000
" />
</g>
<g style="fill:#000000; fill-opacity:0.0; 
stroke:#000000; stroke-width:21200.000000; stroke-opacity:1; 
stroke-linecap:round; stroke-linejoin:round;">
</g>
<g style="fill:#000000; fill-opacity:0.0; 
stroke:#000000; stroke-width:150000.000000; stroke-opacity:1; 
stroke-linecap:round; stroke-linejoin:round;">
<text x="35000000.000000" y="11650000.000000"
textLength="1388095.000000" font-size="1733333.000000" lengthAdjust="spacingAndGlyphs"
text-anchor="start" opacity="0">1</text>
<g class="stroked-text"><desc>1</desc>
<path d="M36065476 11588095
L35322619 11588095
" />
<path d="M35694047 11588095
L35694047 10288095
L35570238 10473809
L35446428 10597619
L35322619 10659523
" />
</g></g>
<g style="fill:#000000; fill-opacity:0.0; 
stroke:#000000; stroke-width:21200.000000; stroke-opacity:1; 
stroke-linecap:round; stroke-linejoin:round;">
</g>
<g style="fill:#000000; fill-opacity:0.0; 
stroke:#000000; stroke-width:150000.000000; stroke-opacity:1; 
stroke-linecap:round; stroke-linejoin:round;">
<text x="85000000.000000" y="11650000.000000"
textLength="1388095.000000" font-size="1733333.000000" lengthAdjust="spacingAndGlyphs"
text-anchor="start" opacity="0">2</text>
<g class="stroked-text"><desc>2</desc>
<path d="M85322619 10411904
L85384523 10350000
L85508333 10288095
L85817857 10288095
L85941666 10350000
L86003571 10411904
L86065476 10535714
L86065476 10659523
L86003571 10845238
L85260714 11588095
L86065476 11588095
" />
</g></g>
<g style="fill:#000000; fill-opacity:0.0; 
stroke:#000000; stroke-width:21200.000000; stroke-opacity:1; 
stroke-linecap:round; stroke-linejoin:round;">
</g>
<g style="fill:#000000; fill-opacity:0.0; 
stroke:#000000; stroke-width:150000.000000; stroke-opacity:1; 
stroke-linecap:round; stroke-linejoin:round;">
<text x="135000000.000000" y="11650000.000000"
textLength="1388095.000000" font-size="1733333.000000" lengthAdjust="spacingAndGlyphs"
text-anchor="start" opacity="0">3</text>
<g class="stroked-text"><desc>3</desc>
<path d="M135260714 10288095
L136065476 10288095
L135632142 10783333
L135817857 10783333
L135941666 10845238
L136003571 10907142
L136065476 11030952
L136065476 11340476
L136003571 11464285
L135941666 11526190
L135817857 11588095
L135446428 11588095
L135322619 11526190
L135260714 11464285
" />
</g></g>
<g style="fill:#000000; fill-opacity:0.0; 
stroke:#000000; stroke-width:21200.000000; stroke-opacity:1; 
stroke-linecap:round; stroke-linejoin:round;">
</g>
<g style="fill:#000000; fill-opacity:0.0; 
stroke:#000000; stroke-width:150000.000000; stroke-opacity:1; 
stroke-linecap:round; stroke-linejoin:round;">
<text x="185000000.000000" y="11650000.000000"
textLength="1388095.000000" font-size="1733333.000000" lengthAdjust="spacingAndGlyphs"
text-anchor="start" opacity="0">4</text>
<g class="stroked-text"><desc>4</desc>
<path d="M185941666 10721428
L185941666 11588095
" />
<path d="M185632142 10226190
L185322619 11154761
L186127380 11154761
" />
</g></g>
<g style="fill:#000000; fill-opacity:0.0; 
stroke:#000000; stroke-width:21200.000000; stroke-opacity:1; 
stroke-linecap:round; stroke-linejoin:round;">
</g>
<g style="fill:#000000; fill-opacity:0.0; 
stroke:#000000; stroke-width:150000.000000; stroke-opacity:1; 
stroke-linecap:round; stroke-linejoin:round;">
<text x="235000000.000000" y="11650000.000000"
textLength="1388095.000000" font-size="1733333.000000" lengthAdjust="spacingAndGlyphs"
text-anchor="start" opacity="0">5</text>
<g class="stroked-text"><desc>5</desc>
<path d="M236003571 10288095
L235384523 10288095
L235322619 10907142
L235384523 10845238
L235508333 10783333
L235817857 10783333
L235941666 10845238
L236003571 10907142
L236065476 11030952
L236065476 11340476
L236003571 11464285
L235941666 11526190
L235817857 11588095
L235508333 11588095
L235384523 11526190
L235322619 11464285
" />
</g></g>
<g style="fill:#000000; fill-opacity:0.0; 
stroke:#000000; stroke-width:21200.000000; stroke-opacity:1; 
stroke-linecap:round; stroke-linejoin:round;">
</g>
<g style="fill:#000000; fill-opacity:0.0; 
stroke:#000000; stroke-width:150000.000000; stroke-opacity:1; 
stroke-linecap:round; stroke-linejoin:round;">
<text x="285000000.000000" y="11650000.000000"
textLength="1388095.000000" font-size="1733333.000000" lengthAdjust="spacingAndGlyphs"
text-anchor="start" opacity="0">6</text>
<g class="stroked-text"><desc>6</desc>
<path d="M285941666 10288095
L285694047 10288095
L285570238 10350000
L285508333 10411904
L285384523 10597619
L285322619 10845238
L285322619 11340476
L285384523 11464285
L285446428 11526190
L285570238 11588095
L285817857 11588095
L285941666 11526190
L286003571 11464285
L286065476 11340476
L286065476 11030952
L286003571 10907142
L285941666 10845238
L285817857 10783333
L285570238 10783333
L285446428 10845238
L285384523 10907142
L285322619 11030952
" />
</g></g>
<g style="fill:#000000; fill-opacity:0.0; 
stroke:#000000; stroke-width:21200.000000; stroke-opacity:1; 
stroke-linecap:round; stroke-linejoin:round;">
</g>
<g style="fill:#000000; fill-opacity:0.0; 
stroke:#000000; stroke-width:150000.000000; stroke-opacity:1; 
stroke-linecap:round; stroke-linejoin:round;">
<path d="M60000000 198007200
L60000000 200007200
" />
</g>
<g style="fill:#000000; fill-opacity:0.0; 
stroke:#000000; stroke-width:21200.000000; stroke-opacity:1; 
stroke-linecap:round; stroke-linejoin:round;">
</g>
<g style="fill:#000000; fill-opacity:0.0; 
stroke:#000000; stroke-width:150000.000000; stroke-opacity:1; 
stroke-linecap:round; stroke-linejoin:round;">
<path d="M110000000 198007200
L110000000 200007200
" />
</g>
<g style="fill:#000000; fill-opacity:0.0; 
stroke:#000000; stroke-width:21200.000000; stroke-opacity:1; 
stroke-linecap:round; stroke-linejoin:round;">
</g>
<g style="fill:#000000; fill-opacity:0.0; 
stroke:#000000; stroke-width:150000.000000; stroke-opacity:1; 
stroke-linecap:round; stroke-linejoin:round;">
<path d="M160000000 198007200
L160000000 200007200
" />
</g>
<g style="fill:#000000; fill-opacity:0.0; 
stroke:#000000; stroke-width:21200.000000; stroke-opacity:1; 
stroke-linecap:round; stroke-linejoin:round;">
</g>
<g style="fill:#000000; fill-opacity:0.0; 
stroke:#000000; stroke-width:150000.000000; stroke-opacity:1; 
stroke-linecap:round; stroke-linejoin:round;">
<path d="M210000000 198007200
L210000000 200007200
" />
</g>
<g style="fill:#000000; fill-opacity:0.0; 
stroke:#000000; stroke-width:21200.000000; stroke-opacity:1; 
stroke-linecap:round; stroke-linejoin:round;">
</g>
<g style="fill:#000000; fill-opacity:0.0; 
stroke:#000000; stroke-width:150000.000000; stroke-opacity:1; 
stroke-linecap:round; stroke-linejoin:round;">
<path d="M260000000 198007200
L260000000 200007200
" />
</g>
<g style="fill:#000000; fill-opacity:0.0; 
stroke:#000000; stroke-width:21200.000000; stroke-opacity:1; 
stroke-linecap:round; stroke-linejoin:round;">
</g>
<g style="fill:#000000; fill-opacity:0.0; 
stroke:#000000; stroke-width:150000.000000; stroke-opacity:1; 
stroke-linecap:round; stroke-linejoin:round;">
<text x="35000000.000000" y="199657200.000000"
textLength="1388095.000000" font-size="1733333.000000" lengthAdjust="spacingAndGlyphs"
text-anchor="start" opacity="0">1</text>
<g class="stroked-text"><desc>1</desc>
<path d="M36065476 199595295
L35322619 199595295
" />
<path d="M35694047 199595295
L35694047 198295295
L35570238 198481009
L35446428 198604819
L35322619 198666723
" />
</g></g>
<g style="fill:#000000; fill-opacity:0.0; 
stroke:#000000; stroke-width:21200.000000; stroke-opacity:1; 
stroke-linecap:round; stroke-linejoin:round;">
</g>
<g style="fill:#000000; fill-opacity:0.0; 
stroke:#000000; stroke-width:150000.000000; stroke-opacity:1; 
stroke-linecap:round; stroke-linejoin:round;">
<text x="85000000.000000" y="199657200.000000"
textLength="1388095.000000" font-size="1733333.000000" lengthAdjust="spacingAndGlyphs"
text-anchor="start" opacity="0">2</text>
<g class="stroked-text"><desc>2</desc>
<path d="M85322619 198419104
L85384523 198357200
L85508333 198295295
L85817857 198295295
L85941666 198357200
L86003571 198419104
L86065476 198542914
L86065476 198666723
L86003571 198852438
L85260714 199595295
L86065476 199595295
" />
</g></g>
<g style="fill:#000000; fill-opacity:0.0; 
stroke:#000000; stroke-width:21200.000000; stroke-opacity:1; 
stroke-linecap:round; stroke-linejoin:round;">
</g>
<g style="fill:#000000; fill-opacity:0.0; 
stroke:#000000; stroke-width:150000.000000; stroke-opacity:1; 
stroke-linecap:round; stroke-linejoin:round;">
<text x="135000000.000000" y="199657200.000000"
textLength="1388095.000000" font-size="1733333.000000" lengthAdjust="spacingAndGlyphs"
text-anchor="start" opacity="0">3</text>
<g class="stroked-text"><desc>3</desc>
<path d="M135260714 198295295
L136065476 198295295
L135632142 198790533
L135817857 198790533
L135941666 198852438
L136003571 198914342
L136065476 199038152
L136065476 199347676
L136003571 199471485
L135941666 199533390
L135817857 199595295
L135446428 199595295
L135322619 199533390
L135260714 199471485
" />
</g></g>
<g style="fill:#000000; fill-opacity:0.0; 
stroke:#000000; stroke-width:21200.000000; stroke-opacity:1; 
stroke-linecap:round; stroke-linejoin:round;">
</g>
<g style="fill:#000000; fill-opacity:0.0; 
stroke:#000000; stroke-width:150000.000000; stroke-opacity:1; 
stroke-linecap:round; stroke-linejoin:round;">
<text x="185000000.000000" y="199657200.000000"
textLength="1388095.000000" font-size="1733333.000000" lengthAdjust="spacingAndGlyphs"
text-anchor="start" opacity="0">4</text>
<g class="stroked-text"><desc>4</desc>
<path d="M185941666 198728628
L185941666 199595295
" />
<path d="M185632142 198233390
L185322619 199161961
L186127380 199161961
" />
</g></g>
<g style="fill:#000000; fill-opacity:0.0; 
stroke:#000000; stroke-width:21200.000000; stroke-opacity:1; 
stroke-linecap:round; stroke-linejoin:round;">
</g>
<g style="fill:#000000; fill-opacity:0.0; 
stroke:#000000; stroke-width:150000.000000; stroke-opacity:1; 
stroke-linecap:round; stroke-linejoin:round;">
<text x="235000000.000000" y="199657200.000000"
textLength="1388095.000000" font-size="1733333.000000" lengthAdjust="spacingAndGlyphs"
text-anchor="start" opacity="0">5</text>
<g class="stroked-text"><desc>5</desc>
<path d="M236003571 198295295
L235384523 198295295
L235322619 198914342
L235384523 198852438
L235508333 198790533
L235817857 198790533
L235941666 198852438
L236003571 198914342
L236065476 199038152
L236065476 199347676
L236003571 199471485
L235941666 199533390
L235817857 199595295
L235508333 199595295
L235384523 199533390
L235322619 199471485
" />
</g></g>
<g style="fill:#000000; fill-opacity:0.0; 
stroke:#000000; stroke-width:21200.000000; stroke-opacity:1; 
stroke-linecap:round; stroke-linejoin:round;">
</g>
<g style="fill:#000000; fill-opacity:0.0; 
stroke:#000000; stroke-width:150000.000000; stroke-opacity:1; 
stroke-linecap:round; stroke-linejoin:round;">
<text x="285000000.000000" y="199657200.000000"
textLength="1388095.000000" font-size="1733333.000000" lengthAdjust="spacingAndGlyphs"
text-anchor="start" opacity="0">6</text>
<g class="stroked-text"><desc>6</desc>
<path d="M285941666 198295295
L285694047 198295295
L285570238 198357200
L285508333 198419104
L285384523 198604819
L285322619 198852438
L285322619 199347676
L285384523 199471485
L285446428 199533390
L285570238 199595295
L285817857 199595295
L285941666 199533390
L286003571 199471485
L286065476 199347676
L286065476 199038152
L286003571 198914342
L285941666 198852438
L285817857 198790533
L285570238 198790533
L285446428 198852438
L285384523 198914342
L285322619 199038152
" />
</g></g>
<g style="fill:#000000; fill-opacity:0.0; 
stroke:#000000; stroke-width:21200.000000; stroke-opacity:1; 
stroke-linecap:round; stroke-linejoin:round;">
</g>
<g style="fill:#000000; fill-opacity:0.0; 
stroke:#000000; stroke-width:150000.000000; stroke-opacity:1; 
stroke-linecap:round; stroke-linejoin:round;">
<path d="M10000000 60000000
L12000000 60000000
" />
</g>
<g style="fill:#000000; fill-opacity:0.0; 
stroke:#000000; stroke-width:21200.000000; stroke-opacity:1; 
stroke-linecap:round; stroke-linejoin:round;">
</g>
<g style="fill:#000000; fill-opacity:0.0; 
stroke:#000000; stroke-width:150000.000000; stroke-opacity:1; 
stroke-linecap:round; stroke-linejoin:round;">
<path d="M10000000 110000000
L12000000 110000000
" />
</g>
<g style="fill:#000000; fill-opacity:0.0; 
stroke:#000000; stroke-width:21200.000000; stroke-opacity:1; 
stroke-linecap:round; stroke-linejoin:round;">
</g>
<g style="fill:#000000; fill-opacity:0.0; 
stroke:#000000; stroke-width:150000.000000; stroke-opacity:1; 
stroke-linecap:round; stroke-linejoin:round;">
<path d="M10000000 160000000
L12000000 160000000
" />
</g>
<g style="fill:#000000; fill-opacity:0.0; 
stroke:#000000; stroke-width:21200.000000; stroke-opacity:1; 
stroke-linecap:round; stroke-linejoin:round;">
</g>
<g style="fill:#000000; fill-opacity:0.0; 
stroke:#000000; stroke-width:150000.000000; stroke-opacity:1; 
stroke-linecap:round; stroke-linejoin:round;">
<text x="11000000.000000" y="35650000.000000"
textLength="1264286.000000" font-size="1733333.000000" lengthAdjust="spacingAndGlyphs"
text-anchor="middle" opacity="0">A</text>
<g class="stroked-text"><desc>A</desc>
<path d="M10690476 35216666
L11309523 35216666
" />
<path d="M10566666 35588095
L11000000 34288095
L11433333 35588095
" />
</g></g>
<g style="fill:#000000; fill-opacity:0.0; 
stroke:#000000; stroke-width:21200.000000; stroke-opacity:1; 
stroke-linecap:round; stroke-linejoin:round;">
</g>
<g style="fill:#000000; fill-opacity:0.0; 
stroke:#000000; stroke-width:150000.000000; stroke-opacity:1; 
stroke-linecap:round; stroke-linejoin:round;">
<text x="11000000.000000" y="85650000.000000"
textLength="1450000.000000" font-size="1733333.000000" lengthAdjust="spacingAndGlyphs"
text-anchor="middle" opacity="0">B</text>
<g class="stroked-text"><desc>B</desc>
<path d="M11092857 84907142
L11278571 84969047
L11340476 85030952
L11402380 85154761
L11402380 85340476
L11340476 85464285
L11278571 85526190
L11154761 85588095
L10659523 85588095
L10659523 84288095
L11092857 84288095
L11216666 84350000
L11278571 84411904
L11340476 84535714
L11340476 84659523
L11278571 84783333
L11216666 84845238
L11092857 84907142
L10659523 84907142
" />
</g></g>
<g style="fill:#000000; fill-opacity:0.0; 
stroke:#000000; stroke-width:21200.000000; stroke-opacity:1; 
stroke-linecap:round; stroke-linejoin:round;">
</g>
<g style="fill:#000000; fill-opacity:0.0; 
stroke:#000000; stroke-width:150000.000000; stroke-opacity:1; 
stroke-linecap:round; stroke-linejoin:round;">
<text x="11000000.000000" y="135650000.000000"
textLength="1450000.000000" font-size="1733333.000000" lengthAdjust="spacingAndGlyphs"
text-anchor="middle" opacity="0">C</text>
<g class="stroked-text"><desc>C</desc>
<path d="M11402380 135464285
L11340476 135526190
L11154761 135588095
L11030952 135588095
L10845238 135526190
L10721428 135402380
L10659523 135278571
L10597619 135030952
L10597619 134845238
L10659523 134597619
L10721428 134473809
L10845238 134350000
L11030952 134288095
L11154761 134288095
L11340476 134350000
L11402380 134411904
" />
</g></g>
<g style="fill:#000000; fill-opacity:0.0; 
stroke:#000000; stroke-width:21200.000000; stroke-opacity:1; 
stroke-linecap:round; stroke-linejoin:round;">
</g>
<g style="fill:#000000; fill-opacity:0.0; 
stroke:#000000; stroke-width:150000.000000; stroke-opacity:1; 
stroke-linecap:round; stroke-linejoin:round;">
<text x="11000000.000000" y="185650000.000000"
textLength="1450000.000000" font-size="1733333.000000" lengthAdjust="spacingAndGlyphs"
text-anchor="middle" opacity="0">D</text>
<g class="stroked-text"><desc>D</desc>
<path d="M10659523 185588095
L10659523 184288095
L10969047 184288095
L11154761 184350000
L11278571 184473809
L11340476 184597619
L11402380 184845238
L11402380 185030952
L11340476 185278571
L11278571 185402380
L11154761 185526190
L10969047 185588095
L10659523 185588095
" />
</g></g>
<g style="fill:#000000; fill-opacity:0.0; 
stroke:#000000; stroke-width:21200.000000; stroke-opacity:1; 
stroke-linecap:round; stroke-linejoin:round;">
</g>
<g style="fill:#000000; fill-opacity:0.0; 
stroke:#000000; stroke-width:150000.000000; stroke-opacity:1; 
stroke-linecap:round; stroke-linejoin:round;">
<path d="M287002200 60000000
L285002200 60000000
" />
</g>
<g style="fill:#000000; fill-opacity:0.0; 
stroke:#000000; stroke-width:21200.000000; stroke-opacity:1; 
stroke-linecap:round; stroke-linejoin:round;">
</g>
<g style="fill:#000000; fill-opacity:0.0; 
stroke:#000000; stroke-width:150000.000000; stroke-opacity:1; 
stroke-linecap:round; stroke-linejoin:round;">
<path d="M287002200 110000000
L285002200 110000000
" />
</g>
<g style="fill:#000000; fill-opacity:0.0; 
stroke:#000000; stroke-width:21200.000000; stroke-opacity:1; 
stroke-linecap:round; stroke-linejoin:round;">
</g>
<g style="fill:#000000; fill-opacity:0.0; 
stroke:#000000; stroke-width:150000.000000; stroke-opacity:1; 
stroke-linecap:round; stroke-linejoin:round;">
<path d="M287002200 160000000
L285002200 160000000
" />
</g>
<g style="fill:#000000; fill-opacity:0.0; 
stroke:#000000; stroke-width:21200.000000; stroke-opacity:1; 
stroke-linecap:round; stroke-linejoin:round;">
</g>
<g style="fill:#000000; fill-opacity:0.0; 
stroke:#000000; stroke-width:150000.000000; stroke-opacity:1; 
stroke-linecap:round; stroke-linejoin:round;">
<text x="286002200.000000" y="35650000.000000"
textLength="1264286.000000" font-size="1733333.000000" lengthAdjust="spacingAndGlyphs"
text-anchor="middle" opacity="0">A</text>
<g class="stroked-text"><desc>A</desc>
<path d="M285692676 35216666
L286311723 35216666
" />
<path d="M285568866 35588095
L286002200 34288095
L286435533 35588095
" />
</g></g>
<g style="fill:#000000; fill-opacity:0.0; 
stroke:#000000; stroke-width:21200.000000; stroke-opacity:1; 
stroke-linecap:round; stroke-linejoin:round;">
</g>
<g style="fill:#000000; fill-opacity:0.0; 
stroke:#000000; stroke-width:150000.000000; stroke-opacity:1; 
stroke-linecap:round; stroke-linejoin:round;">
<text x="286002200.000000" y="85650000.000000"
textLength="1450000.000000" font-size="1733333.000000" lengthAdjust="spacingAndGlyphs"
text-anchor="middle" opacity="0">B</text>
<g class="stroked-text"><desc>B</desc>
<path d="M286095057 84907142
L286280771 84969047
L286342676 85030952
L286404580 85154761
L286404580 85340476
L286342676 85464285
L286280771 85526190
L286156961 85588095
L285661723 85588095
L285661723 84288095
L286095057 84288095
L286218866 84350000
L286280771 84411904
L286342676 84535714
L286342676 84659523
L286280771 84783333
L286218866 84845238
L286095057 84907142
L285661723 84907142
" />
</g></g>
<g style="fill:#000000; fill-opacity:0.0; 
stroke:#000000; stroke-width:21200.000000; stroke-opacity:1; 
stroke-linecap:round; stroke-linejoin:round;">
</g>
<g style="fill:#000000; fill-opacity:0.0; 
stroke:#000000; stroke-width:150000.000000; stroke-opacity:1; 
stroke-linecap:round; stroke-linejoin:round;">
<text x="286002200.000000" y="135650000.000000"
textLength="1450000.000000" font-size="1733333.000000" lengthAdjust="spacingAndGlyphs"
text-anchor="middle" opacity="0">C</text>
<g class="stroked-text"><desc>C</desc>
<path d="M286404580 135464285
L286342676 135526190
L286156961 135588095
L286033152 135588095
L285847438 135526190
L285723628 135402380
L285661723 135278571
L285599819 135030952
L285599819 134845238
L285661723 134597619
L285723628 134473809
L285847438 134350000
L286033152 134288095
L286156961 134288095
L286342676 134350000
L286404580 134411904
" />
</g></g>
<g style="fill:#000000; fill-opacity:0.0; 
stroke:#000000; stroke-width:21200.000000; stroke-opacity:1; 
stroke-linecap:round; stroke-linejoin:round;">
</g>
<g style="fill:#000000; fill-opacity:0.0; 
stroke:#000000; stroke-width:150000.000000; stroke-opacity:1; 
stroke-linecap:round; stroke-linejoin:round;">
<text x="286002200.000000" y="185650000.000000"
textLength="1450000.000000" font-size="1733333.000000" lengthAdjust="spacingAndGlyphs"
text-anchor="middle" opacity="0">D</text>
<g class="stroked-text"><desc>D</desc>
<path d="M285661723 185588095
L285661723 184288095
L285971247 184288095
L286156961 184350000
L286280771 184473809
L286342676 184597619
L286404580 184845238
L286404580 185030952
L286342676 185278571
L286280771 185402380
L286156961 185526190
L285971247 185588095
L285661723 185588095
" />
</g></g>
<g style="fill:#000000; fill-opacity:0.0; 
stroke:#000000; stroke-width:21200.000000; stroke-opacity:1; 
stroke-linecap:round; stroke-linejoin:round;">
</g>
<g style="fill:#000000; fill-opacity:0.0; 
stroke:#000000; stroke-width:150000.000000; stroke-opacity:1; 
stroke-linecap:round; stroke-linejoin:round;">
<text x="200002200.000000" y="193857200.000000"
textLength="7007143.000000" font-size="2000000.000000" lengthAdjust="spacingAndGlyphs"
text-anchor="start" opacity="0">Date: </text>
<g class="stroked-text"><desc>Date: </desc>
<path d="M200434342 193785771
L200434342 192285771
L200791485 192285771
L201005771 192357200
L201148628 192500057
L201220057 192642914
L201291485 192928628
L201291485 193142914
L201220057 193428628
L201148628 193571485
L201005771 193714342
L200791485 193785771
L200434342 193785771
" />
<path d="M202577200 193785771
L202577200 193000057
L202505771 192857200
L202362914 192785771
L202077200 192785771
L201934342 192857200
" />
<path d="M202577200 193714342
L202434342 193785771
L202077200 193785771
L201934342 193714342
L201862914 193571485
L201862914 193428628
L201934342 193285771
L202077200 193214342
L202434342 193214342
L202577200 193142914
" />
<path d="M203077200 192785771
L203648628 192785771
" />
<path d="M203291485 192285771
L203291485 193571485
L203362914 193714342
L203505771 193785771
L203648628 193785771
" />
<path d="M204720057 193714342
L204577200 193785771
L204291485 193785771
L204148628 193714342
L204077200 193571485
L204077200 193000057
L204148628 192857200
L204291485 192785771
L204577200 192785771
L204720057 192857200
L204791485 193000057
L204791485 193142914
L204077200 193285771
" />
<path d="M205434342 193642914
L205505771 193714342
L205434342 193785771
L205362914 193714342
L205434342 193642914
L205434342 193785771
" />
<path d="M205434342 192857200
L205505771 192928628
L205434342 193000057
L205362914 192928628
L205434342 192857200
L205434342 193000057
" />
</g></g>
<g style="fill:#000000; fill-opacity:0.0; 
stroke:#000000; stroke-width:21200.000000; stroke-opacity:1; 
stroke-linecap:round; stroke-linejoin:round;">
</g>
<g style="fill:#000000; fill-opacity:0.0; 
stroke:#000000; stroke-width:150000.000000; stroke-opacity:1; 
stroke-linecap:round; stroke-linejoin:round;">
<path d="M177002200 194507200
L285002200 194507200
" />
</g>
<g style="fill:#000000; fill-opacity:0.0; 
stroke:#000000; stroke-width:21200.000000; stroke-opacity:1; 
stroke-linecap:round; stroke-linejoin:round;">
</g>
<g style="fill:#000000; fill-opacity:0.0; 
stroke:#000000; stroke-width:150000.000000; stroke-opacity:1; 
stroke-linecap:round; stroke-linejoin:round;">
<text x="178002200.000000" y="196657200.000000"
textLength="33364286.000000" font-size="2000000.000000" lengthAdjust="spacingAndGlyphs"
text-anchor="start" opacity="0">KiCad E.D.A.  pcbnew (6.0.9)</text>
<g class="stroked-text"><desc>KiCad E.D.A.  pcbnew (6.0.9)</desc>
<path d="M178434342 196585771
L178434342 195085771
" />
<path d="M179291485 196585771
L178648628 195728628
" />
<path d="M179291485 195085771
L178434342 195942914
" />
<path d="M179934342 196585771
L179934342 195585771
" />
<path d="M179934342 195085771
L179862914 195157200
L179934342 195228628
L180005771 195157200
L179934342 195085771
L179934342 195228628
" />
<path d="M181505771 196442914
L181434342 196514342
L181220057 196585771
L181077200 196585771
L180862914 196514342
L180720057 196371485
L180648628 196228628
L180577200 195942914
L180577200 195728628
L180648628 195442914
L180720057 195300057
L180862914 195157200
L181077200 195085771
L181220057 195085771
L181434342 195157200
L181505771 195228628
" />
<path d="M182791485 196585771
L182791485 195800057
L182720057 195657200
L182577200 195585771
L182291485 195585771
L182148628 195657200
" />
<path d="M182791485 196514342
L182648628 196585771
L182291485 196585771
L182148628 196514342
L182077200 196371485
L182077200 196228628
L182148628 196085771
L182291485 196014342
L182648628 196014342
L182791485 195942914
" />
<path d="M184148628 196585771
L184148628 195085771
" />
<path d="M184148628 196514342
L184005771 196585771
L183720057 196585771
L183577200 196514342
L183505771 196442914
L183434342 196300057
L183434342 195871485
L183505771 195728628
L183577200 195657200
L183720057 195585771
L184005771 195585771
L184148628 195657200
" />
<path d="M186005771 195800057
L186505771 195800057
" />
<path d="M186720057 196585771
L186005771 196585771
L186005771 195085771
L186720057 195085771
" />
<path d="M187362914 196442914
L187434342 196514342
L187362914 196585771
L187291485 196514342
L187362914 196442914
L187362914 196585771
" />
<path d="M188077200 196585771
L188077200 195085771
L188434342 195085771
L188648628 195157200
L188791485 195300057
L188862914 195442914
L188934342 195728628
L188934342 195942914
L188862914 196228628
L188791485 196371485
L188648628 196514342
L188434342 196585771
L188077200 196585771
" />
<path d="M189577200 196442914
L189648628 196514342
L189577200 196585771
L189505771 196514342
L189577200 196442914
L189577200 196585771
" />
<path d="M190220057 196157200
L190934342 196157200
" />
<path d="M190077200 196585771
L190577200 195085771
L191077200 196585771
" />
<path d="M191577200 196442914
L191648628 196514342
L191577200 196585771
L191505771 196514342
L191577200 196442914
L191577200 196585771
" />
<path d="M194577200 195585771
L194577200 197085771
" />
<path d="M194577200 195657200
L194720057 195585771
L195005771 195585771
L195148628 195657200
L195220057 195728628
L195291485 195871485
L195291485 196300057
L195220057 196442914
L195148628 196514342
L195005771 196585771
L194720057 196585771
L194577200 196514342
" />
<path d="M196577200 196514342
L196434342 196585771
L196148628 196585771
L196005771 196514342
L195934342 196442914
L195862914 196300057
L195862914 195871485
L195934342 195728628
L196005771 195657200
L196148628 195585771
L196434342 195585771
L196577200 195657200
" />
<path d="M197220057 196585771
L197220057 195085771
" />
<path d="M197220057 195657200
L197362914 195585771
L197648628 195585771
L197791485 195657200
L197862914 195728628
L197934342 195871485
L197934342 196300057
L197862914 196442914
L197791485 196514342
L197648628 196585771
L197362914 196585771
L197220057 196514342
" />
<path d="M198577200 195585771
L198577200 196585771
" />
<path d="M198577200 195728628
L198648628 195657200
L198791485 195585771
L199005771 195585771
L199148628 195657200
L199220057 195800057
L199220057 196585771
" />
<path d="M200505771 196514342
L200362914 196585771
L200077200 196585771
L199934342 196514342
L199862914 196371485
L199862914 195800057
L199934342 195657200
L200077200 195585771
L200362914 195585771
L200505771 195657200
L200577200 195800057
L200577200 195942914
L199862914 196085771
" />
<path d="M201077200 195585771
L201362914 196585771
L201648628 195871485
L201934342 196585771
L202220057 195585771
" />
<path d="M204362914 197157200
L204291485 197085771
L204148628 196871485
L204077200 196728628
L204005771 196514342
L203934342 196157200
L203934342 195871485
L204005771 195514342
L204077200 195300057
L204148628 195157200
L204291485 194942914
L204362914 194871485
" />
<path d="M205577200 195085771
L205291485 195085771
L205148628 195157200
L205077200 195228628
L204934342 195442914
L204862914 195728628
L204862914 196300057
L204934342 196442914
L205005771 196514342
L205148628 196585771
L205434342 196585771
L205577200 196514342
L205648628 196442914
L205720057 196300057
L205720057 195942914
L205648628 195800057
L205577200 195728628
L205434342 195657200
L205148628 195657200
L205005771 195728628
L204934342 195800057
L204862914 195942914
" />
<path d="M206362914 196442914
L206434342 196514342
L206362914 196585771
L206291485 196514342
L206362914 196442914
L206362914 196585771
" />
<path d="M207362914 195085771
L207505771 195085771
L207648628 195157200
L207720057 195228628
L207791485 195371485
L207862914 195657200
L207862914 196014342
L207791485 196300057
L207720057 196442914
L207648628 196514342
L207505771 196585771
L207362914 196585771
L207220057 196514342
L207148628 196442914
L207077200 196300057
L207005771 196014342
L207005771 195657200
L207077200 195371485
L207148628 195228628
L207220057 195157200
L207362914 195085771
" />
<path d="M208505771 196442914
L208577200 196514342
L208505771 196585771
L208434342 196514342
L208505771 196442914
L208505771 196585771
" />
<path d="M209291485 196585771
L209577200 196585771
L209720057 196514342
L209791485 196442914
L209934342 196228628
L210005771 195942914
L210005771 195371485
L209934342 195228628
L209862914 195157200
L209720057 195085771
L209434342 195085771
L209291485 195157200
L209220057 195228628
L209148628 195371485
L209148628 195728628
L209220057 195871485
L209291485 195942914
L209434342 196014342
L209720057 196014342
L209862914 195942914
L209934342 195871485
L210005771 195728628
" />
<path d="M210505771 197157200
L210577200 197085771
L210720057 196871485
L210791485 196728628
L210862914 196514342
L210934342 196157200
L210934342 195871485
L210862914 195514342
L210791485 195300057
L210720057 195157200
L210577200 194942914
L210505771 194871485
" />
</g></g>
<g style="fill:#000000; fill-opacity:0.0; 
stroke:#000000; stroke-width:21200.000000; stroke-opacity:1; 
stroke-linecap:round; stroke-linejoin:round;">
</g>
<g style="fill:#000000; fill-opacity:0.0; 
stroke:#000000; stroke-width:150000.000000; stroke-opacity:1; 
stroke-linecap:round; stroke-linejoin:round;">
<path d="M177002200 191507200
L285002200 191507200
" />
</g>
<g style="fill:#000000; fill-opacity:0.0; 
stroke:#000000; stroke-width:21200.000000; stroke-opacity:1; 
stroke-linecap:round; stroke-linejoin:round;">
</g>
<g style="fill:#000000; fill-opacity:0.0; 
stroke:#000000; stroke-width:300000.000000; stroke-opacity:1; 
stroke-linecap:round; stroke-linejoin:round;">
<text x="263002200.000000" y="193857200.000000"
textLength="5935714.000000" font-size="2000000.000000" lengthAdjust="spacingAndGlyphs"
text-anchor="start" opacity="0">Rev: </text>
<g class="stroked-text"><desc>Rev: </desc>
<path d="M264411485 193785771
L263911485 193071485
" />
<path d="M263554342 193785771
L263554342 192285771
L264125771 192285771
L264268628 192357200
L264340057 192428628
L264411485 192571485
L264411485 192785771
L264340057 192928628
L264268628 193000057
L264125771 193071485
L263554342 193071485
" />
<path d="M265625771 193714342
L265482914 193785771
L265197200 193785771
L265054342 193714342
L264982914 193571485
L264982914 193000057
L265054342 192857200
L265197200 192785771
L265482914 192785771
L265625771 192857200
L265697200 193000057
L265697200 193142914
L264982914 193285771
" />
<path d="M266197200 192785771
L266554342 193785771
L266911485 192785771
" />
<path d="M267482914 193642914
L267554342 193714342
L267482914 193785771
L267411485 193714342
L267482914 193642914
L267482914 193785771
" />
<path d="M267482914 192857200
L267554342 192928628
L267482914 193000057
L267411485 192928628
L267482914 192857200
L267482914 193000057
" />
</g></g>
<g style="fill:#000000; fill-opacity:0.0; 
stroke:#000000; stroke-width:21200.000000; stroke-opacity:1; 
stroke-linecap:round; stroke-linejoin:round;">
</g>
<g style="fill:#000000; fill-opacity:0.0; 
stroke:#000000; stroke-width:150000.000000; stroke-opacity:1; 
stroke-linecap:round; stroke-linejoin:round;">
<text x="178002200.000000" y="193857200.000000"
textLength="9604286.000000" font-size="2000000.000000" lengthAdjust="spacingAndGlyphs"
text-anchor="start" opacity="0">Size: A4</text>
<g class="stroked-text"><desc>Size: A4</desc>
<path d="M178362914 193714342
L178577200 193785771
L178934342 193785771
L179077200 193714342
L179148628 193642914
L179220057 193500057
L179220057 193357200
L179148628 193214342
L179077200 193142914
L178934342 193071485
L178648628 193000057
L178505771 192928628
L178434342 192857200
L178362914 192714342
L178362914 192571485
L178434342 192428628
L178505771 192357200
L178648628 192285771
L179005771 192285771
L179220057 192357200
" />
<path d="M179862914 193785771
L179862914 192785771
" />
<path d="M179862914 192285771
L179791485 192357200
L179862914 192428628
L179934342 192357200
L179862914 192285771
L179862914 192428628
" />
<path d="M180434342 192785771
L181220057 192785771
L180434342 193785771
L181220057 193785771
" />
<path d="M182362914 193714342
L182220057 193785771
L181934342 193785771
L181791485 193714342
L181720057 193571485
L181720057 193000057
L181791485 192857200
L181934342 192785771
L182220057 192785771
L182362914 192857200
L182434342 193000057
L182434342 193142914
L181720057 193285771
" />
<path d="M183077200 193642914
L183148628 193714342
L183077200 193785771
L183005771 193714342
L183077200 193642914
L183077200 193785771
" />
<path d="M183077200 192857200
L183148628 192928628
L183077200 193000057
L183005771 192928628
L183077200 192857200
L183077200 193000057
" />
<path d="M184862914 193357200
L185577200 193357200
" />
<path d="M184720057 193785771
L185220057 192285771
L185720057 193785771
" />
<path d="M186862914 192785771
L186862914 193785771
" />
<path d="M186505771 192214342
L186148628 193285771
L187077200 193285771
" />
</g></g>
<g style="fill:#000000; fill-opacity:0.0; 
stroke:#000000; stroke-width:21200.000000; stroke-opacity:1; 
stroke-linecap:round; stroke-linejoin:round;">
</g>
<g style="fill:#000000; fill-opacity:0.0; 
stroke:#000000; stroke-width:150000.000000; stroke-opacity:1; 
stroke-linecap:round; stroke-linejoin:round;">
<text x="263002200.000000" y="196657200.000000"
textLength="8507143.000000" font-size="2000000.000000" lengthAdjust="spacingAndGlyphs"
text-anchor="start" opacity="0">Id: 1/1</text>
<g class="stroked-text"><desc>Id: 1/1</desc>
<path d="M263434342 196585771
L263434342 195085771
" />
<path d="M264791485 196585771
L264791485 195085771
" />
<path d="M264791485 196514342
L264648628 196585771
L264362914 196585771
L264220057 196514342
L264148628 196442914
L264077200 196300057
L264077200 195871485
L264148628 195728628
L264220057 195657200
L264362914 195585771
L264648628 195585771
L264791485 195657200
" />
<path d="M265505771 196442914
L265577200 196514342
L265505771 196585771
L265434342 196514342
L265505771 196442914
L265505771 196585771
" />
<path d="M265505771 195657200
L265577200 195728628
L265505771 195800057
L265434342 195728628
L265505771 195657200
L265505771 195800057
" />
<path d="M268148628 196585771
L267291485 196585771
" />
<path d="M267720057 196585771
L267720057 195085771
L267577200 195300057
L267434342 195442914
L267291485 195514342
" />
<path d="M269862914 195014342
L268577200 196942914
" />
<path d="M271148628 196585771
L270291485 196585771
" />
<path d="M270720057 196585771
L270720057 195085771
L270577200 195300057
L270434342 195442914
L270291485 195514342
" />
</g></g>
<g style="fill:#000000; fill-opacity:0.0; 
stroke:#000000; stroke-width:21200.000000; stroke-opacity:1; 
stroke-linecap:round; stroke-linejoin:round;">
</g>
<g style="fill:#000000; fill-opacity:0.0; 
stroke:#000000; stroke-width:150000.000000; stroke-opacity:1; 
stroke-linecap:round; stroke-linejoin:round;">
<path d="M177002200 187507200
L285002200 187507200
" />
</g>
<g style="fill:#000000; fill-opacity:0.0; 
stroke:#000000; stroke-width:21200.000000; stroke-opacity:1; 
stroke-linecap:round; stroke-linejoin:round;">
</g>
<g style="fill:#000000; fill-opacity:0.0; 
stroke:#000000; stroke-width:400000.000000; stroke-opacity:1; 
stroke-linecap:round; stroke-linejoin:round;">
<text x="178002200.000000" y="190307200.000000"
textLength="9409643.000000" font-size="2666666.000000" lengthAdjust="spacingAndGlyphs"
text-anchor="start" opacity="0">Title: </text>
<g class="stroked-text"><desc>Title: </desc>
<path d="M178714580 188211961
L179857438 188211961
" />
<path d="M179036009 190211961
L179286009 188211961
" />
<path d="M180274104 190211961
L180440771 188878628
" />
<path d="M180524104 188211961
L180416961 188307200
L180500295 188402438
L180607438 188307200
L180524104 188211961
L180500295 188402438
" />
<path d="M181107438 188878628
L181869342 188878628
" />
<path d="M181476485 188211961
L181262200 189926247
L181333628 190116723
L181512200 190211961
L181702676 190211961
" />
<path d="M182655057 190211961
L182476485 190116723
L182405057 189926247
L182619342 188211961
" />
<path d="M184190771 190116723
L183988390 190211961
L183607438 190211961
L183428866 190116723
L183357438 189926247
L183452676 189164342
L183571723 188973866
L183774104 188878628
L184155057 188878628
L184333628 188973866
L184405057 189164342
L184381247 189354819
L183405057 189545295
" />
<path d="M185155057 190021485
L185238390 190116723
L185131247 190211961
L185047914 190116723
L185155057 190021485
L185131247 190211961
" />
<path d="M185286009 188973866
L185369342 189069104
L185262200 189164342
L185178866 189069104
L185286009 188973866
L185262200 189164342
" />
</g></g>
<g style="fill:#000000; fill-opacity:0.0; 
stroke:#000000; stroke-width:21200.000000; stroke-opacity:1; 
stroke-linecap:round; stroke-linejoin:round;">
</g>
<g style="fill:#000000; fill-opacity:0.0; 
stroke:#000000; stroke-width:150000.000000; stroke-opacity:1; 
stroke-linecap:round; stroke-linejoin:round;">
<text x="178002200.000000" y="186457200.000000"
textLength="30662857.000000" font-size="2000000.000000" lengthAdjust="spacingAndGlyphs"
text-anchor="start" opacity="0">File: kicadBoard.kicad_pcb</text>
<g class="stroked-text"><desc>File: kicadBoard.kicad_pcb</desc>
<path d="M178934342 185600057
L178434342 185600057
" />
<path d="M178434342 186385771
L178434342 184885771
L179148628 184885771
" />
<path d="M179720057 186385771
L179720057 185385771
" />
<path d="M179720057 184885771
L179648628 184957200
L179720057 185028628
L179791485 184957200
L179720057 184885771
L179720057 185028628
" />
<path d="M180648628 186385771
L180505771 186314342
L180434342 186171485
L180434342 184885771
" />
<path d="M181791485 186314342
L181648628 186385771
L181362914 186385771
L181220057 186314342
L181148628 186171485
L181148628 185600057
L181220057 185457200
L181362914 185385771
L181648628 185385771
L181791485 185457200
L181862914 185600057
L181862914 185742914
L181148628 185885771
" />
<path d="M182505771 186242914
L182577200 186314342
L182505771 186385771
L182434342 186314342
L182505771 186242914
L182505771 186385771
" />
<path d="M182505771 185457200
L182577200 185528628
L182505771 185600057
L182434342 185528628
L182505771 185457200
L182505771 185600057
" />
<path d="M184362914 186385771
L184362914 184885771
" />
<path d="M184505771 185814342
L184934342 186385771
" />
<path d="M184934342 185385771
L184362914 185957200
" />
<path d="M185577200 186385771
L185577200 185385771
" />
<path d="M185577200 184885771
L185505771 184957200
L185577200 185028628
L185648628 184957200
L185577200 184885771
L185577200 185028628
" />
<path d="M186934342 186314342
L186791485 186385771
L186505771 186385771
L186362914 186314342
L186291485 186242914
L186220057 186100057
L186220057 185671485
L186291485 185528628
L186362914 185457200
L186505771 185385771
L186791485 185385771
L186934342 185457200
" />
<path d="M188220057 186385771
L188220057 185600057
L188148628 185457200
L188005771 185385771
L187720057 185385771
L187577200 185457200
" />
<path d="M188220057 186314342
L188077200 186385771
L187720057 186385771
L187577200 186314342
L187505771 186171485
L187505771 186028628
L187577200 185885771
L187720057 185814342
L188077200 185814342
L188220057 185742914
" />
<path d="M189577200 186385771
L189577200 184885771
" />
<path d="M189577200 186314342
L189434342 186385771
L189148628 186385771
L189005771 186314342
L188934342 186242914
L188862914 186100057
L188862914 185671485
L188934342 185528628
L189005771 185457200
L189148628 185385771
L189434342 185385771
L189577200 185457200
" />
<path d="M190791485 185600057
L191005771 185671485
L191077200 185742914
L191148628 185885771
L191148628 186100057
L191077200 186242914
L191005771 186314342
L190862914 186385771
L190291485 186385771
L190291485 184885771
L190791485 184885771
L190934342 184957200
L191005771 185028628
L191077200 185171485
L191077200 185314342
L191005771 185457200
L190934342 185528628
L190791485 185600057
L190291485 185600057
" />
<path d="M192005771 186385771
L191862914 186314342
L191791485 186242914
L191720057 186100057
L191720057 185671485
L191791485 185528628
L191862914 185457200
L192005771 185385771
L192220057 185385771
L192362914 185457200
L192434342 185528628
L192505771 185671485
L192505771 186100057
L192434342 186242914
L192362914 186314342
L192220057 186385771
L192005771 186385771
" />
<path d="M193791485 186385771
L193791485 185600057
L193720057 185457200
L193577200 185385771
L193291485 185385771
L193148628 185457200
" />
<path d="M193791485 186314342
L193648628 186385771
L193291485 186385771
L193148628 186314342
L193077200 186171485
L193077200 186028628
L193148628 185885771
L193291485 185814342
L193648628 185814342
L193791485 185742914
" />
<path d="M194505771 186385771
L194505771 185385771
" />
<path d="M194505771 185671485
L194577200 185528628
L194648628 185457200
L194791485 185385771
L194934342 185385771
" />
<path d="M196077200 186385771
L196077200 184885771
" />
<path d="M196077200 186314342
L195934342 186385771
L195648628 186385771
L195505771 186314342
L195434342 186242914
L195362914 186100057
L195362914 185671485
L195434342 185528628
L195505771 185457200
L195648628 185385771
L195934342 185385771
L196077200 185457200
" />
<path d="M196791485 186242914
L196862914 186314342
L196791485 186385771
L196720057 186314342
L196791485 186242914
L196791485 186385771
" />
<path d="M197505771 186385771
L197505771 184885771
" />
<path d="M197648628 185814342
L198077200 186385771
" />
<path d="M198077200 185385771
L197505771 185957200
" />
<path d="M198720057 186385771
L198720057 185385771
" />
<path d="M198720057 184885771
L198648628 184957200
L198720057 185028628
L198791485 184957200
L198720057 184885771
L198720057 185028628
" />
<path d="M200077200 186314342
L199934342 186385771
L199648628 186385771
L199505771 186314342
L199434342 186242914
L199362914 186100057
L199362914 185671485
L199434342 185528628
L199505771 185457200
L199648628 185385771
L199934342 185385771
L200077200 185457200
" />
<path d="M201362914 186385771
L201362914 185600057
L201291485 185457200
L201148628 185385771
L200862914 185385771
L200720057 185457200
" />
<path d="M201362914 186314342
L201220057 186385771
L200862914 186385771
L200720057 186314342
L200648628 186171485
L200648628 186028628
L200720057 185885771
L200862914 185814342
L201220057 185814342
L201362914 185742914
" />
<path d="M202720057 186385771
L202720057 184885771
" />
<path d="M202720057 186314342
L202577200 186385771
L202291485 186385771
L202148628 186314342
L202077200 186242914
L202005771 186100057
L202005771 185671485
L202077200 185528628
L202148628 185457200
L202291485 185385771
L202577200 185385771
L202720057 185457200
" />
<path d="M203077200 186528628
L204220057 186528628
" />
<path d="M204577200 185385771
L204577200 186885771
" />
<path d="M204577200 185457200
L204720057 185385771
L205005771 185385771
L205148628 185457200
L205220057 185528628
L205291485 185671485
L205291485 186100057
L205220057 186242914
L205148628 186314342
L205005771 186385771
L204720057 186385771
L204577200 186314342
" />
<path d="M206577200 186314342
L206434342 186385771
L206148628 186385771
L206005771 186314342
L205934342 186242914
L205862914 186100057
L205862914 185671485
L205934342 185528628
L206005771 185457200
L206148628 185385771
L206434342 185385771
L206577200 185457200
" />
<path d="M207220057 186385771
L207220057 184885771
" />
<path d="M207220057 185457200
L207362914 185385771
L207648628 185385771
L207791485 185457200
L207862914 185528628
L207934342 185671485
L207934342 186100057
L207862914 186242914
L207791485 186314342
L207648628 186385771
L207362914 186385771
L207220057 186314342
" />
</g></g>
<g style="fill:#000000; fill-opacity:0.0; 
stroke:#000000; stroke-width:21200.000000; stroke-opacity:1; 
stroke-linecap:round; stroke-linejoin:round;">
</g>
<g style="fill:#000000; fill-opacity:0.0; 
stroke:#000000; stroke-width:150000.000000; stroke-opacity:1; 
stroke-linecap:round; stroke-linejoin:round;">
<path d="M177002200 181507200
L285002200 181507200
" />
</g>
<g style="fill:#000000; fill-opacity:0.0; 
stroke:#000000; stroke-width:21200.000000; stroke-opacity:1; 
stroke-linecap:round; stroke-linejoin:round;">
</g>
<g style="fill:#000000; fill-opacity:0.0; 
stroke:#000000; stroke-width:150000.000000; stroke-opacity:1; 
stroke-linecap:round; stroke-linejoin:round;">
<text x="178002200.000000" y="183757200.000000"
textLength="8221429.000000" font-size="2000000.000000" lengthAdjust="spacingAndGlyphs"
text-anchor="start" opacity="0">Sheet: </text>
<g class="stroked-text"><desc>Sheet: </desc>
<path d="M178362914 183614342
L178577200 183685771
L178934342 183685771
L179077200 183614342
L179148628 183542914
L179220057 183400057
L179220057 183257200
L179148628 183114342
L179077200 183042914
L178934342 182971485
L178648628 182900057
L178505771 182828628
L178434342 182757200
L178362914 182614342
L178362914 182471485
L178434342 182328628
L178505771 182257200
L178648628 182185771
L179005771 182185771
L179220057 182257200
" />
<path d="M179862914 183685771
L179862914 182185771
" />
<path d="M180505771 183685771
L180505771 182900057
L180434342 182757200
L180291485 182685771
L180077200 182685771
L179934342 182757200
L179862914 182828628
" />
<path d="M181791485 183614342
L181648628 183685771
L181362914 183685771
L181220057 183614342
L181148628 183471485
L181148628 182900057
L181220057 182757200
L181362914 182685771
L181648628 182685771
L181791485 182757200
L181862914 182900057
L181862914 183042914
L181148628 183185771
" />
<path d="M183077200 183614342
L182934342 183685771
L182648628 183685771
L182505771 183614342
L182434342 183471485
L182434342 182900057
L182505771 182757200
L182648628 182685771
L182934342 182685771
L183077200 182757200
L183148628 182900057
L183148628 183042914
L182434342 183185771
" />
<path d="M183577200 182685771
L184148628 182685771
" />
<path d="M183791485 182185771
L183791485 183471485
L183862914 183614342
L184005771 183685771
L184148628 183685771
" />
<path d="M184648628 183542914
L184720057 183614342
L184648628 183685771
L184577200 183614342
L184648628 183542914
L184648628 183685771
" />
<path d="M184648628 182757200
L184720057 182828628
L184648628 182900057
L184577200 182828628
L184648628 182757200
L184648628 182900057
" />
</g></g>
<g style="fill:#000000; fill-opacity:0.0; 
stroke:#000000; stroke-width:21200.000000; stroke-opacity:1; 
stroke-linecap:round; stroke-linejoin:round;">
</g>
<g style="fill:#000000; fill-opacity:0.0; 
stroke:#000000; stroke-width:300000.000000; stroke-opacity:1; 
stroke-linecap:round; stroke-linejoin:round;">
<text x="178002200.000000" y="180757200.000000"
textLength="150000.000000" font-size="2000000.000000" lengthAdjust="spacingAndGlyphs"
text-anchor="start" opacity="0"></text>
<g class="stroked-text"><desc></desc>
</g></g>
<g style="fill:#000000; fill-opacity:0.0; 
stroke:#000000; stroke-width:21200.000000; stroke-opacity:1; 
stroke-linecap:round; stroke-linejoin:round;">
</g>
<g style="fill:#000000; fill-opacity:0.0; 
stroke:#000000; stroke-width:150000.000000; stroke-opacity:1; 
stroke-linecap:round; stroke-linejoin:round;">
<text x="178002200.000000" y="177757200.000000"
textLength="300000.000000" font-size="2000000.000000" lengthAdjust="spacingAndGlyphs"
text-anchor="start" opacity="0"></text>
<g class="stroked-text"><desc></desc>
</g></g>
<g style="fill:#000000; fill-opacity:0.0; 
stroke:#000000; stroke-width:21200.000000; stroke-opacity:1; 
stroke-linecap:round; stroke-linejoin:round;">
</g>
<g style="fill:#000000; fill-opacity:0.0; 
stroke:#000000; stroke-width:150000.000000; stroke-opacity:1; 
stroke-linecap:round; stroke-linejoin:round;">
<text x="178002200.000000" y="174757200.000000"
textLength="150000.000000" font-size="2000000.000000" lengthAdjust="spacingAndGlyphs"
text-anchor="start" opacity="0"></text>
<g class="stroked-text"><desc></desc>
</g></g>
<g style="fill:#000000; fill-opacity:0.0; 
stroke:#000000; stroke-width:21200.000000; stroke-opacity:1; 
stroke-linecap:round; stroke-linejoin:round;">
</g>
<g style="fill:#000000; fill-opacity:0.0; 
stroke:#000000; stroke-width:150000.000000; stroke-opacity:1; 
stroke-linecap:round; stroke-linejoin:round;">
<text x="178002200.000000" y="171757200.000000"
textLength="150000.000000" font-size="2000000.000000" lengthAdjust="spacingAndGlyphs"
text-anchor="start" opacity="0"></text>
<g class="stroked-text"><desc></desc>
</g></g>
<g style="fill:#000000; fill-opacity:0.0; 
stroke:#000000; stroke-width:21200.000000; stroke-opacity:1; 
stroke-linecap:round; stroke-linejoin:round;">
</g>
<g style="fill:#000000; fill-opacity:0.0; 
stroke:#000000; stroke-width:150000.000000; stroke-opacity:1; 
stroke-linecap:round; stroke-linejoin:round;">
<text x="178002200.000000" y="168757200.000000"
textLength="150000.000000" font-size="2000000.000000" lengthAdjust="spacingAndGlyphs"
text-anchor="start" opacity="0"></text>
<g class="stroked-text"><desc></desc>
</g></g>
<g style="fill:#000000; fill-opacity:0.0; 
stroke:#000000; stroke-width:21200.000000; stroke-opacity:1; 
stroke-linecap:round; stroke-linejoin:round;">
</g>
<g style="fill:#000000; fill-opacity:0.0; 
stroke:#000000; stroke-width:150000.000000; stroke-opacity:1; 
stroke-linecap:round; stroke-linejoin:round;">
<path d="M197002200 191507200
L197002200 194507200
" />
</g>
<g style="fill:#000000; fill-opacity:0.0; 
stroke:#000000; stroke-width:21200.000000; stroke-opacity:1; 
stroke-linecap:round; stroke-linejoin:round;">
</g>
<g style="fill:#000000; fill-opacity:0.0; 
stroke:#000000; stroke-width:150000.000000; stroke-opacity:1; 
stroke-linecap:round; stroke-linejoin:round;">
<path d="M261002200 191507200
L261002200 198007200
" />
</g>
<g style="fill:#AFAFAF; fill-opacity:0.0; 
stroke:#AFAFAF; stroke-width:150000.000000; stroke-opacity:1; 
stroke-linecap:round; stroke-linejoin:round;">
</g>
<g style="fill:#AFAFAF; fill-opacity:0.0; 
stroke:#AFAFAF; stroke-width:266700.000000; stroke-opacity:1; 
stroke-linecap:round; stroke-linejoin:round;">
<text x="175171100.000000" y="132943600.000000"
textLength="9001900.000000" font-size="2015066.000000" lengthAdjust="spacingAndGlyphs"
text-anchor="start" opacity="0">M. Hord</text>
<g class="stroked-text"><desc>M. Hord</desc>
<path d="M175704288 132871633
L175704288 131360333
L176208055 132439833
L176711821 131360333
L176711821 132871633
" />
<path d="M177431488 132727700
L177503455 132799666
L177431488 132871633
L177359521 132799666
L177431488 132727700
L177431488 132871633
" />
<path d="M179302621 132871633
L179302621 131360333
" />
<path d="M179302621 132080000
L180166221 132080000
" />
<path d="M180166221 132871633
L180166221 131360333
" />
<path d="M181101788 132871633
L180957855 132799666
L180885888 132727700
L180813921 132583766
L180813921 132151966
L180885888 132008033
L180957855 131936066
L181101788 131864100
L181317688 131864100
L181461621 131936066
L181533588 132008033
L181605555 132151966
L181605555 132583766
L181533588 132727700
L181461621 132799666
L181317688 132871633
L181101788 132871633
" />
<path d="M182253255 132871633
L182253255 131864100
" />
<path d="M182253255 132151966
L182325221 132008033
L182397188 131936066
L182541121 131864100
L182685055 131864100
" />
<path d="M183836521 132871633
L183836521 131360333
" />
<path d="M183836521 132799666
L183692588 132871633
L183404721 132871633
L183260788 132799666
L183188821 132727700
L183116855 132583766
L183116855 132151966
L183188821 132008033
L183260788 131936066
L183404721 131864100
L183692588 131864100
L183836521 131936066
" />
</g></g>
<g style="fill:#AFAFAF; fill-opacity:0.0; 
stroke:#AFAFAF; stroke-width:80000.000000; stroke-opacity:1; 
stroke-linecap:round; stroke-linejoin:round;">
<text x="143441100.000000" y="110483600.000000"
textLength="13577186.000000" font-size="1226666.000000" lengthAdjust="spacingAndGlyphs"
text-anchor="start" opacity="0">1x3 RA Female .1"</text>
<g class="stroked-text"><desc>1x3 RA Female .1"</desc>
<path d="M144194052 110439790
L143668338 110439790
" />
<path d="M143931195 110439790
L143931195 109519790
L143843576 109651219
L143755957 109738838
L143668338 109782647
" />
<path d="M144500719 110439790
L144982623 109826457
" />
<path d="M144500719 109826457
L144982623 110439790
" />
<path d="M145245480 109519790
L145815004 109519790
L145508338 109870266
L145639766 109870266
L145727385 109914076
L145771195 109957885
L145815004 110045504
L145815004 110264552
L145771195 110352171
L145727385 110395980
L145639766 110439790
L145376909 110439790
L145289290 110395980
L145245480 110352171
" />
<path d="M147435957 110439790
L147129290 110001695
" />
<path d="M146910242 110439790
L146910242 109519790
L147260719 109519790
L147348338 109563600
L147392147 109607409
L147435957 109695028
L147435957 109826457
L147392147 109914076
L147348338 109957885
L147260719 110001695
L146910242 110001695
" />
<path d="M147786433 110176933
L148224528 110176933
" />
<path d="M147698814 110439790
L148005480 109519790
L148312147 110439790
" />
<path d="M149626433 109957885
L149319766 109957885
" />
<path d="M149319766 110439790
L149319766 109519790
L149757861 109519790
" />
<path d="M150458814 110395980
L150371195 110439790
L150195957 110439790
L150108338 110395980
L150064528 110308361
L150064528 109957885
L150108338 109870266
L150195957 109826457
L150371195 109826457
L150458814 109870266
L150502623 109957885
L150502623 110045504
L150064528 110133123
" />
<path d="M150896909 110439790
L150896909 109826457
" />
<path d="M150896909 109914076
L150940719 109870266
L151028338 109826457
L151159766 109826457
L151247385 109870266
L151291195 109957885
L151291195 110439790
" />
<path d="M151291195 109957885
L151335004 109870266
L151422623 109826457
L151554052 109826457
L151641671 109870266
L151685480 109957885
L151685480 110439790
" />
<path d="M152517861 110439790
L152517861 109957885
L152474052 109870266
L152386433 109826457
L152211195 109826457
L152123576 109870266
" />
<path d="M152517861 110395980
L152430242 110439790
L152211195 110439790
L152123576 110395980
L152079766 110308361
L152079766 110220742
L152123576 110133123
L152211195 110089314
L152430242 110089314
L152517861 110045504
" />
<path d="M153087385 110439790
L152999766 110395980
L152955957 110308361
L152955957 109519790
" />
<path d="M153788338 110395980
L153700719 110439790
L153525480 110439790
L153437861 110395980
L153394052 110308361
L153394052 109957885
L153437861 109870266
L153525480 109826457
L153700719 109826457
L153788338 109870266
L153832147 109957885
L153832147 110045504
L153394052 110133123
" />
<path d="M154927385 110352171
L154971195 110395980
L154927385 110439790
L154883576 110395980
L154927385 110352171
L154927385 110439790
" />
<path d="M155847385 110439790
L155321671 110439790
" />
<path d="M155584528 110439790
L155584528 109519790
L155496909 109651219
L155409290 109738838
L155321671 109782647
" />
<path d="M156197861 109519790
L156197861 109695028
" />
<path d="M156548338 109519790
L156548338 109695028
" />
</g></g>
<g style="fill:#AFAFAF; fill-opacity:0.0; 
stroke:#AFAFAF; stroke-width:142240.000000; stroke-opacity:1; 
stroke-linecap:round; stroke-linejoin:round;">
<text x="144691100.000000" y="130403600.000000"
textLength="67637520.000000" font-size="2181013.000000" lengthAdjust="spacingAndGlyphs"
text-anchor="start" opacity="0">HTTP://CREATIVECOMMONS.ORG/LICENSES/BY-SA/3.0</text>
<g class="stroked-text"><desc>HTTP://CREATIVECOMMONS.ORG/LICENSES/BY-SA/3.0</desc>
<path d="M145173022 130325706
L145173022 128689946
" />
<path d="M145173022 129468880
L146107742 129468880
" />
<path d="M146107742 130325706
L146107742 128689946
" />
<path d="M146652996 128689946
L147587716 128689946
" />
<path d="M147120356 130325706
L147120356 128689946
" />
<path d="M147899289 128689946
L148834009 128689946
" />
<path d="M148366649 130325706
L148366649 128689946
" />
<path d="M149379262 130325706
L149379262 128689946
L150002409 128689946
L150158196 128767840
L150236089 128845733
L150313982 129001520
L150313982 129235200
L150236089 129390986
L150158196 129468880
L150002409 129546773
L149379262 129546773
" />
<path d="M151015022 130169920
L151092916 130247813
L151015022 130325706
L150937129 130247813
L151015022 130169920
L151015022 130325706
" />
<path d="M151015022 129313093
L151092916 129390986
L151015022 129468880
L150937129 129390986
L151015022 129313093
L151015022 129468880
" />
<path d="M152962356 128612053
L151560276 130715173
" />
<path d="M154676009 128612053
L153273929 130715173
" />
<path d="M156155982 130169920
L156078089 130247813
L155844409 130325706
L155688622 130325706
L155454942 130247813
L155299156 130092026
L155221262 129936240
L155143369 129624666
L155143369 129390986
L155221262 129079413
L155299156 128923626
L155454942 128767840
L155688622 128689946
L155844409 128689946
L156078089 128767840
L156155982 128845733
" />
<path d="M157791742 130325706
L157246489 129546773
" />
<path d="M156857022 130325706
L156857022 128689946
L157480169 128689946
L157635956 128767840
L157713849 128845733
L157791742 129001520
L157791742 129235200
L157713849 129390986
L157635956 129468880
L157480169 129546773
L156857022 129546773
" />
<path d="M158492782 129468880
L159038036 129468880
" />
<path d="M159271716 130325706
L158492782 130325706
L158492782 128689946
L159271716 128689946
" />
<path d="M159894862 129858346
L160673796 129858346
" />
<path d="M159739076 130325706
L160284329 128689946
L160829582 130325706
" />
<path d="M161141156 128689946
L162075876 128689946
" />
<path d="M161608516 130325706
L161608516 128689946
" />
<path d="M162621129 130325706
L162621129 128689946
" />
<path d="M163166382 128689946
L163711636 130325706
L164256889 128689946
" />
<path d="M164802142 129468880
L165347396 129468880
" />
<path d="M165581076 130325706
L164802142 130325706
L164802142 128689946
L165581076 128689946
" />
<path d="M167216836 130169920
L167138942 130247813
L166905262 130325706
L166749476 130325706
L166515796 130247813
L166360009 130092026
L166282116 129936240
L166204222 129624666
L166204222 129390986
L166282116 129079413
L166360009 128923626
L166515796 128767840
L166749476 128689946
L166905262 128689946
L167138942 128767840
L167216836 128845733
" />
<path d="M168229449 128689946
L168541022 128689946
L168696809 128767840
L168852596 128923626
L168930489 129235200
L168930489 129780453
L168852596 130092026
L168696809 130247813
L168541022 130325706
L168229449 130325706
L168073662 130247813
L167917876 130092026
L167839982 129780453
L167839982 129235200
L167917876 128923626
L168073662 128767840
L168229449 128689946
" />
<path d="M169631529 130325706
L169631529 128689946
L170176782 129858346
L170722036 128689946
L170722036 130325706
" />
<path d="M171500969 130325706
L171500969 128689946
L172046222 129858346
L172591476 128689946
L172591476 130325706
" />
<path d="M173681982 128689946
L173993556 128689946
L174149342 128767840
L174305129 128923626
L174383022 129235200
L174383022 129780453
L174305129 130092026
L174149342 130247813
L173993556 130325706
L173681982 130325706
L173526196 130247813
L173370409 130092026
L173292516 129780453
L173292516 129235200
L173370409 128923626
L173526196 128767840
L173681982 128689946
" />
<path d="M175084062 130325706
L175084062 128689946
L176018782 130325706
L176018782 128689946
" />
<path d="M176719822 130247813
L176953502 130325706
L177342969 130325706
L177498756 130247813
L177576649 130169920
L177654542 130014133
L177654542 129858346
L177576649 129702560
L177498756 129624666
L177342969 129546773
L177031396 129468880
L176875609 129390986
L176797716 129313093
L176719822 129157306
L176719822 129001520
L176797716 128845733
L176875609 128767840
L177031396 128689946
L177420862 128689946
L177654542 128767840
" />
<path d="M178355582 130169920
L178433476 130247813
L178355582 130325706
L178277689 130247813
L178355582 130169920
L178355582 130325706
" />
<path d="M179446089 128689946
L179757662 128689946
L179913449 128767840
L180069236 128923626
L180147129 129235200
L180147129 129780453
L180069236 130092026
L179913449 130247813
L179757662 130325706
L179446089 130325706
L179290302 130247813
L179134516 130092026
L179056622 129780453
L179056622 129235200
L179134516 128923626
L179290302 128767840
L179446089 128689946
" />
<path d="M181782889 130325706
L181237636 129546773
" />
<path d="M180848169 130325706
L180848169 128689946
L181471316 128689946
L181627102 128767840
L181704996 128845733
L181782889 129001520
L181782889 129235200
L181704996 129390986
L181627102 129468880
L181471316 129546773
L180848169 129546773
" />
<path d="M183340756 128767840
L183184969 128689946
L182951289 128689946
L182717609 128767840
L182561822 128923626
L182483929 129079413
L182406036 129390986
L182406036 129624666
L182483929 129936240
L182561822 130092026
L182717609 130247813
L182951289 130325706
L183107076 130325706
L183340756 130247813
L183418649 130169920
L183418649 129624666
L183107076 129624666
" />
<path d="M185288089 128612053
L183886009 130715173
" />
<path d="M186612276 130325706
L185833342 130325706
L185833342 128689946
" />
<path d="M187157529 130325706
L187157529 128689946
" />
<path d="M188871182 130169920
L188793289 130247813
L188559609 130325706
L188403822 130325706
L188170142 130247813
L188014356 130092026
L187936462 129936240
L187858569 129624666
L187858569 129390986
L187936462 129079413
L188014356 128923626
L188170142 128767840
L188403822 128689946
L188559609 128689946
L188793289 128767840
L188871182 128845733
" />
<path d="M189572222 129468880
L190117476 129468880
" />
<path d="M190351156 130325706
L189572222 130325706
L189572222 128689946
L190351156 128689946
" />
<path d="M191052196 130325706
L191052196 128689946
L191986916 130325706
L191986916 128689946
" />
<path d="M192687956 130247813
L192921636 130325706
L193311102 130325706
L193466889 130247813
L193544782 130169920
L193622676 130014133
L193622676 129858346
L193544782 129702560
L193466889 129624666
L193311102 129546773
L192999529 129468880
L192843742 129390986
L192765849 129313093
L192687956 129157306
L192687956 129001520
L192765849 128845733
L192843742 128767840
L192999529 128689946
L193388996 128689946
L193622676 128767840
" />
<path d="M194323716 129468880
L194868969 129468880
" />
<path d="M195102649 130325706
L194323716 130325706
L194323716 128689946
L195102649 128689946
" />
<path d="M195725796 130247813
L195959476 130325706
L196348942 130325706
L196504729 130247813
L196582622 130169920
L196660516 130014133
L196660516 129858346
L196582622 129702560
L196504729 129624666
L196348942 129546773
L196037369 129468880
L195881582 129390986
L195803689 129313093
L195725796 129157306
L195725796 129001520
L195803689 128845733
L195881582 128767840
L196037369 128689946
L196426836 128689946
L196660516 128767840
" />
<path d="M198529956 128612053
L197127876 130715173
" />
<path d="M199620462 129468880
L199854142 129546773
L199932036 129624666
L200009929 129780453
L200009929 130014133
L199932036 130169920
L199854142 130247813
L199698356 130325706
L199075209 130325706
L199075209 128689946
L199620462 128689946
L199776249 128767840
L199854142 128845733
L199932036 129001520
L199932036 129157306
L199854142 129313093
L199776249 129390986
L199620462 129468880
L199075209 129468880
" />
<path d="M201022542 129546773
L201022542 130325706
" />
<path d="M200477289 128689946
L201022542 129546773
L201567796 128689946
" />
<path d="M202113049 129702560
L203359342 129702560
" />
<path d="M204060382 130247813
L204294062 130325706
L204683529 130325706
L204839316 130247813
L204917209 130169920
L204995102 130014133
L204995102 129858346
L204917209 129702560
L204839316 129624666
L204683529 129546773
L204371956 129468880
L204216169 129390986
L204138276 129313093
L204060382 129157306
L204060382 129001520
L204138276 128845733
L204216169 128767840
L204371956 128689946
L204761422 128689946
L204995102 128767840
" />
<path d="M205618249 129858346
L206397182 129858346
" />
<path d="M205462462 130325706
L206007716 128689946
L206552969 130325706
" />
<path d="M208266622 128612053
L206864542 130715173
" />
<path d="M208656089 128689946
L209668702 128689946
L209123449 129313093
L209357129 129313093
L209512916 129390986
L209590809 129468880
L209668702 129624666
L209668702 130014133
L209590809 130169920
L209512916 130247813
L209357129 130325706
L208889769 130325706
L208733982 130247813
L208656089 130169920
" />
<path d="M210369742 130169920
L210447636 130247813
L210369742 130325706
L210291849 130247813
L210369742 130169920
L210369742 130325706
" />
<path d="M211460249 128689946
L211616036 128689946
L211771822 128767840
L211849716 128845733
L211927609 129001520
L212005502 129313093
L212005502 129702560
L211927609 130014133
L211849716 130169920
L211771822 130247813
L211616036 130325706
L211460249 130325706
L211304462 130247813
L211226569 130169920
L211148676 130014133
L211070782 129702560
L211070782 129313093
L211148676 129001520
L211226569 128845733
L211304462 128767840
L211460249 128689946
" />
</g><text x="156121100.000000" y="132943600.000000"
textLength="17165659.000000" font-size="2181013.000000" lengthAdjust="spacingAndGlyphs"
text-anchor="start" opacity="0">DESIGNED BY:</text>
<g class="stroked-text"><desc>DESIGNED BY:</desc>
<path d="M156603022 132865706
L156603022 131229946
L156992489 131229946
L157226169 131307840
L157381956 131463626
L157459849 131619413
L157537742 131930986
L157537742 132164666
L157459849 132476240
L157381956 132632026
L157226169 132787813
L156992489 132865706
L156603022 132865706
" />
<path d="M158238782 132008880
L158784036 132008880
" />
<path d="M159017716 132865706
L158238782 132865706
L158238782 131229946
L159017716 131229946
" />
<path d="M159640862 132787813
L159874542 132865706
L160264009 132865706
L160419796 132787813
L160497689 132709920
L160575582 132554133
L160575582 132398346
L160497689 132242560
L160419796 132164666
L160264009 132086773
L159952436 132008880
L159796649 131930986
L159718756 131853093
L159640862 131697306
L159640862 131541520
L159718756 131385733
L159796649 131307840
L159952436 131229946
L160341902 131229946
L160575582 131307840
" />
<path d="M161276622 132865706
L161276622 131229946
" />
<path d="M162912382 131307840
L162756596 131229946
L162522916 131229946
L162289236 131307840
L162133449 131463626
L162055556 131619413
L161977662 131930986
L161977662 132164666
L162055556 132476240
L162133449 132632026
L162289236 132787813
L162522916 132865706
L162678702 132865706
L162912382 132787813
L162990276 132709920
L162990276 132164666
L162678702 132164666
" />
<path d="M163691316 132865706
L163691316 131229946
L164626036 132865706
L164626036 131229946
" />
<path d="M165404969 132008880
L165950222 132008880
" />
<path d="M166183902 132865706
L165404969 132865706
L165404969 131229946
L166183902 131229946
" />
<path d="M166884942 132865706
L166884942 131229946
L167274409 131229946
L167508089 131307840
L167663876 131463626
L167741769 131619413
L167819662 131930986
L167819662 132164666
L167741769 132476240
L167663876 132632026
L167508089 132787813
L167274409 132865706
L166884942 132865706
" />
<path d="M170312249 132008880
L170545929 132086773
L170623822 132164666
L170701716 132320453
L170701716 132554133
L170623822 132709920
L170545929 132787813
L170390142 132865706
L169766996 132865706
L169766996 131229946
L170312249 131229946
L170468036 131307840
L170545929 131385733
L170623822 131541520
L170623822 131697306
L170545929 131853093
L170468036 131930986
L170312249 132008880
L169766996 132008880
" />
<path d="M171714329 132086773
L171714329 132865706
" />
<path d="M171169076 131229946
L171714329 132086773
L172259582 131229946
" />
<path d="M172804836 132709920
L172882729 132787813
L172804836 132865706
L172726942 132787813
L172804836 132709920
L172804836 132865706
" />
<path d="M172804836 131853093
L172882729 131930986
L172804836 132008880
L172726942 131930986
L172804836 131853093
L172804836 132008880
" />
</g><text x="124371100.000000" y="127863600.000000"
textLength="103315685.000000" font-size="2181013.000000" lengthAdjust="spacingAndGlyphs"
text-anchor="start" opacity="0">RELEASED UNDER THE CREATIVE COMMONS ATTRIBUTION SHARE-ALIKE 3.0 LICENSE</text>
<g class="stroked-text"><desc>RELEASED UNDER THE CREATIVE COMMONS ATTRIBUTION SHARE-ALIKE 3.0 LICENSE</desc>
<path d="M125787742 127785706
L125242489 127006773
" />
<path d="M124853022 127785706
L124853022 126149946
L125476169 126149946
L125631956 126227840
L125709849 126305733
L125787742 126461520
L125787742 126695200
L125709849 126850986
L125631956 126928880
L125476169 127006773
L124853022 127006773
" />
<path d="M126488782 126928880
L127034036 126928880
" />
<path d="M127267716 127785706
L126488782 127785706
L126488782 126149946
L127267716 126149946
" />
<path d="M128747689 127785706
L127968756 127785706
L127968756 126149946
" />
<path d="M129292942 126928880
L129838196 126928880
" />
<path d="M130071876 127785706
L129292942 127785706
L129292942 126149946
L130071876 126149946
" />
<path d="M130695022 127318346
L131473956 127318346
" />
<path d="M130539236 127785706
L131084489 126149946
L131629742 127785706
" />
<path d="M132097102 127707813
L132330782 127785706
L132720249 127785706
L132876036 127707813
L132953929 127629920
L133031822 127474133
L133031822 127318346
L132953929 127162560
L132876036 127084666
L132720249 127006773
L132408676 126928880
L132252889 126850986
L132174996 126773093
L132097102 126617306
L132097102 126461520
L132174996 126305733
L132252889 126227840
L132408676 126149946
L132798142 126149946
L133031822 126227840
" />
<path d="M133732862 126928880
L134278116 126928880
" />
<path d="M134511796 127785706
L133732862 127785706
L133732862 126149946
L134511796 126149946
" />
<path d="M135212836 127785706
L135212836 126149946
L135602302 126149946
L135835982 126227840
L135991769 126383626
L136069662 126539413
L136147556 126850986
L136147556 127084666
L136069662 127396240
L135991769 127552026
L135835982 127707813
L135602302 127785706
L135212836 127785706
" />
<path d="M138094889 126149946
L138094889 127474133
L138172782 127629920
L138250676 127707813
L138406462 127785706
L138718036 127785706
L138873822 127707813
L138951716 127629920
L139029609 127474133
L139029609 126149946
" />
<path d="M139808542 127785706
L139808542 126149946
L140743262 127785706
L140743262 126149946
" />
<path d="M141522196 127785706
L141522196 126149946
L141911662 126149946
L142145342 126227840
L142301129 126383626
L142379022 126539413
L142456916 126850986
L142456916 127084666
L142379022 127396240
L142301129 127552026
L142145342 127707813
L141911662 127785706
L141522196 127785706
" />
<path d="M143157956 126928880
L143703209 126928880
" />
<path d="M143936889 127785706
L143157956 127785706
L143157956 126149946
L143936889 126149946
" />
<path d="M145572649 127785706
L145027396 127006773
" />
<path d="M144637929 127785706
L144637929 126149946
L145261076 126149946
L145416862 126227840
L145494756 126305733
L145572649 126461520
L145572649 126695200
L145494756 126850986
L145416862 126928880
L145261076 127006773
L144637929 127006773
" />
<path d="M147286302 126149946
L148221022 126149946
" />
<path d="M147753662 127785706
L147753662 126149946
" />
<path d="M148766276 127785706
L148766276 126149946
" />
<path d="M148766276 126928880
L149700996 126928880
" />
<path d="M149700996 127785706
L149700996 126149946
" />
<path d="M150479929 126928880
L151025182 126928880
" />
<path d="M151258862 127785706
L150479929 127785706
L150479929 126149946
L151258862 126149946
" />
<path d="M154140916 127629920
L154063022 127707813
L153829342 127785706
L153673556 127785706
L153439876 127707813
L153284089 127552026
L153206196 127396240
L153128302 127084666
L153128302 126850986
L153206196 126539413
L153284089 126383626
L153439876 126227840
L153673556 126149946
L153829342 126149946
L154063022 126227840
L154140916 126305733
" />
<path d="M155776676 127785706
L155231422 127006773
" />
<path d="M154841956 127785706
L154841956 126149946
L155465102 126149946
L155620889 126227840
L155698782 126305733
L155776676 126461520
L155776676 126695200
L155698782 126850986
L155620889 126928880
L155465102 127006773
L154841956 127006773
" />
<path d="M156477716 126928880
L157022969 126928880
" />
<path d="M157256649 127785706
L156477716 127785706
L156477716 126149946
L157256649 126149946
" />
<path d="M157879796 127318346
L158658729 127318346
" />
<path d="M157724009 127785706
L158269262 126149946
L158814516 127785706
" />
<path d="M159126089 126149946
L160060809 126149946
" />
<path d="M159593449 127785706
L159593449 126149946
" />
<path d="M160606062 127785706
L160606062 126149946
" />
<path d="M161151316 126149946
L161696569 127785706
L162241822 126149946
" />
<path d="M162787076 126928880
L163332329 126928880
" />
<path d="M163566009 127785706
L162787076 127785706
L162787076 126149946
L163566009 126149946
" />
<path d="M166448062 127629920
L166370169 127707813
L166136489 127785706
L165980702 127785706
L165747022 127707813
L165591236 127552026
L165513342 127396240
L165435449 127084666
L165435449 126850986
L165513342 126539413
L165591236 126383626
L165747022 126227840
L165980702 126149946
L166136489 126149946
L166370169 126227840
L166448062 126305733
" />
<path d="M167460676 126149946
L167772249 126149946
L167928036 126227840
L168083822 126383626
L168161716 126695200
L168161716 127240453
L168083822 127552026
L167928036 127707813
L167772249 127785706
L167460676 127785706
L167304889 127707813
L167149102 127552026
L167071209 127240453
L167071209 126695200
L167149102 126383626
L167304889 126227840
L167460676 126149946
" />
<path d="M168862756 127785706
L168862756 126149946
L169408009 127318346
L169953262 126149946
L169953262 127785706
" />
<path d="M170732196 127785706
L170732196 126149946
L171277449 127318346
L171822702 126149946
L171822702 127785706
" />
<path d="M172913209 126149946
L173224782 126149946
L173380569 126227840
L173536356 126383626
L173614249 126695200
L173614249 127240453
L173536356 127552026
L173380569 127707813
L173224782 127785706
L172913209 127785706
L172757422 127707813
L172601636 127552026
L172523742 127240453
L172523742 126695200
L172601636 126383626
L172757422 126227840
L172913209 126149946
" />
<path d="M174315289 127785706
L174315289 126149946
L175250009 127785706
L175250009 126149946
" />
<path d="M175951049 127707813
L176184729 127785706
L176574196 127785706
L176729982 127707813
L176807876 127629920
L176885769 127474133
L176885769 127318346
L176807876 127162560
L176729982 127084666
L176574196 127006773
L176262622 126928880
L176106836 126850986
L176028942 126773093
L175951049 126617306
L175951049 126461520
L176028942 126305733
L176106836 126227840
L176262622 126149946
L176652089 126149946
L176885769 126227840
" />
<path d="M178755209 127318346
L179534142 127318346
" />
<path d="M178599422 127785706
L179144676 126149946
L179689929 127785706
" />
<path d="M180001502 126149946
L180936222 126149946
" />
<path d="M180468862 127785706
L180468862 126149946
" />
<path d="M181247796 126149946
L182182516 126149946
" />
<path d="M181715156 127785706
L181715156 126149946
" />
<path d="M183662489 127785706
L183117236 127006773
" />
<path d="M182727769 127785706
L182727769 126149946
L183350916 126149946
L183506702 126227840
L183584596 126305733
L183662489 126461520
L183662489 126695200
L183584596 126850986
L183506702 126928880
L183350916 127006773
L182727769 127006773
" />
<path d="M184363529 127785706
L184363529 126149946
" />
<path d="M185687716 126928880
L185921396 127006773
L185999289 127084666
L186077182 127240453
L186077182 127474133
L185999289 127629920
L185921396 127707813
L185765609 127785706
L185142462 127785706
L185142462 126149946
L185687716 126149946
L185843502 126227840
L185921396 126305733
L185999289 126461520
L185999289 126617306
L185921396 126773093
L185843502 126850986
L185687716 126928880
L185142462 126928880
" />
<path d="M186778222 126149946
L186778222 127474133
L186856116 127629920
L186934009 127707813
L187089796 127785706
L187401369 127785706
L187557156 127707813
L187635049 127629920
L187712942 127474133
L187712942 126149946
" />
<path d="M188258196 126149946
L189192916 126149946
" />
<path d="M188725556 127785706
L188725556 126149946
" />
<path d="M189738169 127785706
L189738169 126149946
" />
<path d="M190828676 126149946
L191140249 126149946
L191296036 126227840
L191451822 126383626
L191529716 126695200
L191529716 127240453
L191451822 127552026
L191296036 127707813
L191140249 127785706
L190828676 127785706
L190672889 127707813
L190517102 127552026
L190439209 127240453
L190439209 126695200
L190517102 126383626
L190672889 126227840
L190828676 126149946
" />
<path d="M192230756 127785706
L192230756 126149946
L193165476 127785706
L193165476 126149946
" />
<path d="M195112809 127707813
L195346489 127785706
L195735956 127785706
L195891742 127707813
L195969636 127629920
L196047529 127474133
L196047529 127318346
L195969636 127162560
L195891742 127084666
L195735956 127006773
L195424382 126928880
L195268596 126850986
L195190702 126773093
L195112809 126617306
L195112809 126461520
L195190702 126305733
L195268596 126227840
L195424382 126149946
L195813849 126149946
L196047529 126227840
" />
<path d="M196748569 127785706
L196748569 126149946
" />
<path d="M196748569 126928880
L197683289 126928880
" />
<path d="M197683289 127785706
L197683289 126149946
" />
<path d="M198384329 127318346
L199163262 127318346
" />
<path d="M198228542 127785706
L198773796 126149946
L199319049 127785706
" />
<path d="M200799022 127785706
L200253769 127006773
" />
<path d="M199864302 127785706
L199864302 126149946
L200487449 126149946
L200643236 126227840
L200721129 126305733
L200799022 126461520
L200799022 126695200
L200721129 126850986
L200643236 126928880
L200487449 127006773
L199864302 127006773
" />
<path d="M201500062 126928880
L202045316 126928880
" />
<path d="M202278996 127785706
L201500062 127785706
L201500062 126149946
L202278996 126149946
" />
<path d="M202980036 127162560
L204226329 127162560
" />
<path d="M204927369 127318346
L205706302 127318346
" />
<path d="M204771582 127785706
L205316836 126149946
L205862089 127785706
" />
<path d="M207186276 127785706
L206407342 127785706
L206407342 126149946
" />
<path d="M207731529 127785706
L207731529 126149946
" />
<path d="M208510462 127785706
L208510462 126149946
" />
<path d="M209445182 127785706
L208744142 126850986
" />
<path d="M209445182 126149946
L208510462 127084666
" />
<path d="M210146222 126928880
L210691476 126928880
" />
<path d="M210925156 127785706
L210146222 127785706
L210146222 126149946
L210925156 126149946
" />
<path d="M212716702 126149946
L213729316 126149946
L213184062 126773093
L213417742 126773093
L213573529 126850986
L213651422 126928880
L213729316 127084666
L213729316 127474133
L213651422 127629920
L213573529 127707813
L213417742 127785706
L212950382 127785706
L212794596 127707813
L212716702 127629920
" />
<path d="M214430356 127629920
L214508249 127707813
L214430356 127785706
L214352462 127707813
L214430356 127629920
L214430356 127785706
" />
<path d="M215520862 126149946
L215676649 126149946
L215832436 126227840
L215910329 126305733
L215988222 126461520
L216066116 126773093
L216066116 127162560
L215988222 127474133
L215910329 127629920
L215832436 127707813
L215676649 127785706
L215520862 127785706
L215365076 127707813
L215287182 127629920
L215209289 127474133
L215131396 127162560
L215131396 126773093
L215209289 126461520
L215287182 126305733
L215365076 126227840
L215520862 126149946
" />
<path d="M218792382 127785706
L218013449 127785706
L218013449 126149946
" />
<path d="M219337636 127785706
L219337636 126149946
" />
<path d="M221051289 127629920
L220973396 127707813
L220739716 127785706
L220583929 127785706
L220350249 127707813
L220194462 127552026
L220116569 127396240
L220038676 127084666
L220038676 126850986
L220116569 126539413
L220194462 126383626
L220350249 126227840
L220583929 126149946
L220739716 126149946
L220973396 126227840
L221051289 126305733
" />
<path d="M221752329 126928880
L222297582 126928880
" />
<path d="M222531262 127785706
L221752329 127785706
L221752329 126149946
L222531262 126149946
" />
<path d="M223232302 127785706
L223232302 126149946
L224167022 127785706
L224167022 126149946
" />
<path d="M224868062 127707813
L225101742 127785706
L225491209 127785706
L225646996 127707813
L225724889 127629920
L225802782 127474133
L225802782 127318346
L225724889 127162560
L225646996 127084666
L225491209 127006773
L225179636 126928880
L225023849 126850986
L224945956 126773093
L224868062 126617306
L224868062 126461520
L224945956 126305733
L225023849 126227840
L225179636 126149946
L225569102 126149946
L225802782 126227840
" />
<path d="M226503822 126928880
L227049076 126928880
" />
<path d="M227282756 127785706
L226503822 127785706
L226503822 126149946
L227282756 126149946
" />
</g></g>
<g style="fill:#AFAFAF; fill-opacity:1.0; 
stroke:#AFAFAF; stroke-width:1.000000; stroke-opacity:1; 
stroke-linecap:round; stroke-linejoin:round;">
<path style="fill:#AFAFAF; fill-opacity:1.0; 
stroke:#AFAFAF; stroke-width:1.000000; stroke-opacity:1; 
stroke-linecap:round; stroke-linejoin:round;fill-rule:evenodd;"
d="M 146916100.000000,106458600.000000
146276100.000000,106458600.000000
146276100.000000,105608600.000000
146916100.000000,105608600.000000
Z" /> 
<path style="fill:#AFAFAF; fill-opacity:1.0; 
stroke:#AFAFAF; stroke-width:1.000000; stroke-opacity:1; 
stroke-linecap:round; stroke-linejoin:round;fill-rule:evenodd;"
d="M 149456100.000000,106458600.000000
148816100.000000,106458600.000000
148816100.000000,105608600.000000
149456100.000000,105608600.000000
Z" /> 
<path style="fill:#AFAFAF; fill-opacity:1.0; 
stroke:#AFAFAF; stroke-width:1.000000; stroke-opacity:1; 
stroke-linecap:round; stroke-linejoin:round;fill-rule:evenodd;"
d="M 144376100.000000,106458600.000000
143736100.000000,106458600.000000
143736100.000000,105608600.000000
144376100.000000,105608600.000000
Z" /> 
</g>
<g style="fill:#AFAFAF; fill-opacity:1.0; 
stroke:#AFAFAF; stroke-width:127000.000000; stroke-opacity:1; 
stroke-linecap:round; stroke-linejoin:round;">
</g>
<g style="fill:#AFAFAF; fill-opacity:0.0; 
stroke:#AFAFAF; stroke-width:127000.000000; stroke-opacity:1; 
stroke-linecap:round; stroke-linejoin:round;">
<path d="M151101100 92653600
L151101100 94953600
" />
<path d="M145901100 92653600
L145901100 94953600
" />
<path d="M145901100 92653600
L151101100 92653600
" />
<circle cx="148501100.000000" cy="98653600.000000" r="4500000.000000" /> 
<g >
</g>
<g >
</g>
<g >
</g>
<g >
</g>
<g >
</g>
<g >
</g>
<g >
</g>
<g >
</g>
</g>
<g style="fill:#000000; fill-opacity:0.0; 
stroke:#000000; stroke-width:127000.000000; stroke-opacity:1; 
stroke-linecap:round; stroke-linejoin:round;">
</g>
<g style="fill:#D0D2CD; fill-opacity:0.0; 
stroke:#D0D2CD; stroke-width:127000.000000; stroke-opacity:1; 
stroke-linecap:round; stroke-linejoin:round;">
</g>
<g style="fill:#D0D2CD; fill-opacity:0.0; 
stroke:#D0D2CD; stroke-width:254000.000000; stroke-opacity:1; 
stroke-linecap:round; stroke-linejoin:round;">
<path d="M151041100 117703600
L151041100 105003600
" />
<path d="M143421100 92303600
L153581100 92303600
" />
<path d="M151041100 105003600
L154851100 101193600
" />
<path d="M151041100 117703600
L142151100 117703600
" />
<path d="M154851100 93573600
L154851100 101193600
" />
<path d="M154851100.000000 93573600.000000 A1270000.000000 1270000.000000 0.0 0 0 153581100.000000 92303600.000000" />
<path d="M143421100.000000 92303600.000000 A1270000.000000 1270000.000000 0.0 0 0 142151100.000000 93573600.000000" />
<path d="M142151100 117703600
L142151100 93573600
" />
<g >
</g>
<g >
</g>
<g >
</g>
<g >
</g>
<g >
</g>
<g >
</g>
<g >
</g>
<g >
</g>
</g> 
</svg>
