<?xml version="1.0" standalone="no"?>
 <!DOCTYPE svg PUBLIC "-//W3C//DTD SVG 1.1//EN" 
 "http://www.w3.org/Graphics/SVG/1.1/DTD/svg11.dtd"> 
<svg
  xmlns:svg="http://www.w3.org/2000/svg"
  xmlns="http://www.w3.org/2000/svg"
  xmlns:xlink="http://www.w3.org/1999/xlink"
  version="1.1"
  width="29.700220cm" height="21.000720cm" viewBox="0 0 297002200 210007200">
<title>SVG Picture created as kicadBoard-B_Silkscreen.svg date 2022/11/09 02:12:43 </title>
  <desc>Picture generated by PCBNEW </desc>
<g style="fill:#000000; fill-opacity:1.000000;stroke:#000000; stroke-opacity:1.000000;
stroke-linecap:round; stroke-linejoin:round;"
 transform="translate(0 0) scale(1 1)">
</g>
<g style="fill:#000000; fill-opacity:0.0; 
stroke:#000000; stroke-width:0.000000; stroke-opacity:1; 
stroke-linecap:round; stroke-linejoin:round;">
</g>
<g style="fill:#000000; fill-opacity:0.0; 
stroke:#000000; stroke-width:21200.000000; stroke-opacity:1; 
stroke-linecap:round; stroke-linejoin:round;">
</g>
<g style="fill:#000000; fill-opacity:0.0; 
stroke:#000000; stroke-width:150000.000000; stroke-opacity:1; 
stroke-linecap:round; stroke-linejoin:round;">
<rect x="177002200.000000" y="166007200.000000" width="108000000.000000" height="32000000.000000" rx="0.000000" />
</g>
<g style="fill:#000000; fill-opacity:0.0; 
stroke:#000000; stroke-width:21200.000000; stroke-opacity:1; 
stroke-linecap:round; stroke-linejoin:round;">
</g>
<g style="fill:#000000; fill-opacity:0.0; 
stroke:#000000; stroke-width:150000.000000; stroke-opacity:1; 
stroke-linecap:round; stroke-linejoin:round;">
<rect x="10000000.000000" y="10000000.000000" width="277002200.000000" height="190007200.000000" rx="0.000000" />
</g>
<g style="fill:#000000; fill-opacity:0.0; 
stroke:#000000; stroke-width:21200.000000; stroke-opacity:1; 
stroke-linecap:round; stroke-linejoin:round;">
</g>
<g style="fill:#000000; fill-opacity:0.0; 
stroke:#000000; stroke-width:150000.000000; stroke-opacity:1; 
stroke-linecap:round; stroke-linejoin:round;">
<rect x="12000000.000000" y="12000000.000000" width="273002200.000000" height="186007200.000000" rx="0.000000" />
</g>
<g style="fill:#000000; fill-opacity:0.0; 
stroke:#000000; stroke-width:21200.000000; stroke-opacity:1; 
stroke-linecap:round; stroke-linejoin:round;">
</g>
<g style="fill:#000000; fill-opacity:0.0; 
stroke:#000000; stroke-width:150000.000000; stroke-opacity:1; 
stroke-linecap:round; stroke-linejoin:round;">
<path d="M60000000 12000000
L60000000 10000000
" />
</g>
<g style="fill:#000000; fill-opacity:0.0; 
stroke:#000000; stroke-width:21200.000000; stroke-opacity:1; 
stroke-linecap:round; stroke-linejoin:round;">
</g>
<g style="fill:#000000; fill-opacity:0.0; 
stroke:#000000; stroke-width:150000.000000; stroke-opacity:1; 
stroke-linecap:round; stroke-linejoin:round;">
<path d="M110000000 12000000
L110000000 10000000
" />
</g>
<g style="fill:#000000; fill-opacity:0.0; 
stroke:#000000; stroke-width:21200.000000; stroke-opacity:1; 
stroke-linecap:round; stroke-linejoin:round;">
</g>
<g style="fill:#000000; fill-opacity:0.0; 
stroke:#000000; stroke-width:150000.000000; stroke-opacity:1; 
stroke-linecap:round; stroke-linejoin:round;">
<path d="M160000000 12000000
L160000000 10000000
" />
</g>
<g style="fill:#000000; fill-opacity:0.0; 
stroke:#000000; stroke-width:21200.000000; stroke-opacity:1; 
stroke-linecap:round; stroke-linejoin:round;">
</g>
<g style="fill:#000000; fill-opacity:0.0; 
stroke:#000000; stroke-width:150000.000000; stroke-opacity:1; 
stroke-linecap:round; stroke-linejoin:round;">
<path d="M210000000 12000000
L210000000 10000000
" />
</g>
<g style="fill:#000000; fill-opacity:0.0; 
stroke:#000000; stroke-width:21200.000000; stroke-opacity:1; 
stroke-linecap:round; stroke-linejoin:round;">
</g>
<g style="fill:#000000; fill-opacity:0.0; 
stroke:#000000; stroke-width:150000.000000; stroke-opacity:1; 
stroke-linecap:round; stroke-linejoin:round;">
<path d="M260000000 12000000
L260000000 10000000
" />
</g>
<g style="fill:#000000; fill-opacity:0.0; 
stroke:#000000; stroke-width:21200.000000; stroke-opacity:1; 
stroke-linecap:round; stroke-linejoin:round;">
</g>
<g style="fill:#000000; fill-opacity:0.0; 
stroke:#000000; stroke-width:150000.000000; stroke-opacity:1; 
stroke-linecap:round; stroke-linejoin:round;">
<text x="35000000.000000" y="11650000.000000"
textLength="1388095.000000" font-size="1733333.000000" lengthAdjust="spacingAndGlyphs"
text-anchor="start" opacity="0">1</text>
<g class="stroked-text"><desc>1</desc>
<path d="M36065476 11588095
L35322619 11588095
" />
<path d="M35694047 11588095
L35694047 10288095
L35570238 10473809
L35446428 10597619
L35322619 10659523
" />
</g></g>
<g style="fill:#000000; fill-opacity:0.0; 
stroke:#000000; stroke-width:21200.000000; stroke-opacity:1; 
stroke-linecap:round; stroke-linejoin:round;">
</g>
<g style="fill:#000000; fill-opacity:0.0; 
stroke:#000000; stroke-width:150000.000000; stroke-opacity:1; 
stroke-linecap:round; stroke-linejoin:round;">
<text x="85000000.000000" y="11650000.000000"
textLength="1388095.000000" font-size="1733333.000000" lengthAdjust="spacingAndGlyphs"
text-anchor="start" opacity="0">2</text>
<g class="stroked-text"><desc>2</desc>
<path d="M85322619 10411904
L85384523 10350000
L85508333 10288095
L85817857 10288095
L85941666 10350000
L86003571 10411904
L86065476 10535714
L86065476 10659523
L86003571 10845238
L85260714 11588095
L86065476 11588095
" />
</g></g>
<g style="fill:#000000; fill-opacity:0.0; 
stroke:#000000; stroke-width:21200.000000; stroke-opacity:1; 
stroke-linecap:round; stroke-linejoin:round;">
</g>
<g style="fill:#000000; fill-opacity:0.0; 
stroke:#000000; stroke-width:150000.000000; stroke-opacity:1; 
stroke-linecap:round; stroke-linejoin:round;">
<text x="135000000.000000" y="11650000.000000"
textLength="1388095.000000" font-size="1733333.000000" lengthAdjust="spacingAndGlyphs"
text-anchor="start" opacity="0">3</text>
<g class="stroked-text"><desc>3</desc>
<path d="M135260714 10288095
L136065476 10288095
L135632142 10783333
L135817857 10783333
L135941666 10845238
L136003571 10907142
L136065476 11030952
L136065476 11340476
L136003571 11464285
L135941666 11526190
L135817857 11588095
L135446428 11588095
L135322619 11526190
L135260714 11464285
" />
</g></g>
<g style="fill:#000000; fill-opacity:0.0; 
stroke:#000000; stroke-width:21200.000000; stroke-opacity:1; 
stroke-linecap:round; stroke-linejoin:round;">
</g>
<g style="fill:#000000; fill-opacity:0.0; 
stroke:#000000; stroke-width:150000.000000; stroke-opacity:1; 
stroke-linecap:round; stroke-linejoin:round;">
<text x="185000000.000000" y="11650000.000000"
textLength="1388095.000000" font-size="1733333.000000" lengthAdjust="spacingAndGlyphs"
text-anchor="start" opacity="0">4</text>
<g class="stroked-text"><desc>4</desc>
<path d="M185941666 10721428
L185941666 11588095
" />
<path d="M185632142 10226190
L185322619 11154761
L186127380 11154761
" />
</g></g>
<g style="fill:#000000; fill-opacity:0.0; 
stroke:#000000; stroke-width:21200.000000; stroke-opacity:1; 
stroke-linecap:round; stroke-linejoin:round;">
</g>
<g style="fill:#000000; fill-opacity:0.0; 
stroke:#000000; stroke-width:150000.000000; stroke-opacity:1; 
stroke-linecap:round; stroke-linejoin:round;">
<text x="235000000.000000" y="11650000.000000"
textLength="1388095.000000" font-size="1733333.000000" lengthAdjust="spacingAndGlyphs"
text-anchor="start" opacity="0">5</text>
<g class="stroked-text"><desc>5</desc>
<path d="M236003571 10288095
L235384523 10288095
L235322619 10907142
L235384523 10845238
L235508333 10783333
L235817857 10783333
L235941666 10845238
L236003571 10907142
L236065476 11030952
L236065476 11340476
L236003571 11464285
L235941666 11526190
L235817857 11588095
L235508333 11588095
L235384523 11526190
L235322619 11464285
" />
</g></g>
<g style="fill:#000000; fill-opacity:0.0; 
stroke:#000000; stroke-width:21200.000000; stroke-opacity:1; 
stroke-linecap:round; stroke-linejoin:round;">
</g>
<g style="fill:#000000; fill-opacity:0.0; 
stroke:#000000; stroke-width:150000.000000; stroke-opacity:1; 
stroke-linecap:round; stroke-linejoin:round;">
<text x="285000000.000000" y="11650000.000000"
textLength="1388095.000000" font-size="1733333.000000" lengthAdjust="spacingAndGlyphs"
text-anchor="start" opacity="0">6</text>
<g class="stroked-text"><desc>6</desc>
<path d="M285941666 10288095
L285694047 10288095
L285570238 10350000
L285508333 10411904
L285384523 10597619
L285322619 10845238
L285322619 11340476
L285384523 11464285
L285446428 11526190
L285570238 11588095
L285817857 11588095
L285941666 11526190
L286003571 11464285
L286065476 11340476
L286065476 11030952
L286003571 10907142
L285941666 10845238
L285817857 10783333
L285570238 10783333
L285446428 10845238
L285384523 10907142
L285322619 11030952
" />
</g></g>
<g style="fill:#000000; fill-opacity:0.0; 
stroke:#000000; stroke-width:21200.000000; stroke-opacity:1; 
stroke-linecap:round; stroke-linejoin:round;">
</g>
<g style="fill:#000000; fill-opacity:0.0; 
stroke:#000000; stroke-width:150000.000000; stroke-opacity:1; 
stroke-linecap:round; stroke-linejoin:round;">
<path d="M60000000 198007200
L60000000 200007200
" />
</g>
<g style="fill:#000000; fill-opacity:0.0; 
stroke:#000000; stroke-width:21200.000000; stroke-opacity:1; 
stroke-linecap:round; stroke-linejoin:round;">
</g>
<g style="fill:#000000; fill-opacity:0.0; 
stroke:#000000; stroke-width:150000.000000; stroke-opacity:1; 
stroke-linecap:round; stroke-linejoin:round;">
<path d="M110000000 198007200
L110000000 200007200
" />
</g>
<g style="fill:#000000; fill-opacity:0.0; 
stroke:#000000; stroke-width:21200.000000; stroke-opacity:1; 
stroke-linecap:round; stroke-linejoin:round;">
</g>
<g style="fill:#000000; fill-opacity:0.0; 
stroke:#000000; stroke-width:150000.000000; stroke-opacity:1; 
stroke-linecap:round; stroke-linejoin:round;">
<path d="M160000000 198007200
L160000000 200007200
" />
</g>
<g style="fill:#000000; fill-opacity:0.0; 
stroke:#000000; stroke-width:21200.000000; stroke-opacity:1; 
stroke-linecap:round; stroke-linejoin:round;">
</g>
<g style="fill:#000000; fill-opacity:0.0; 
stroke:#000000; stroke-width:150000.000000; stroke-opacity:1; 
stroke-linecap:round; stroke-linejoin:round;">
<path d="M210000000 198007200
L210000000 200007200
" />
</g>
<g style="fill:#000000; fill-opacity:0.0; 
stroke:#000000; stroke-width:21200.000000; stroke-opacity:1; 
stroke-linecap:round; stroke-linejoin:round;">
</g>
<g style="fill:#000000; fill-opacity:0.0; 
stroke:#000000; stroke-width:150000.000000; stroke-opacity:1; 
stroke-linecap:round; stroke-linejoin:round;">
<path d="M260000000 198007200
L260000000 200007200
" />
</g>
<g style="fill:#000000; fill-opacity:0.0; 
stroke:#000000; stroke-width:21200.000000; stroke-opacity:1; 
stroke-linecap:round; stroke-linejoin:round;">
</g>
<g style="fill:#000000; fill-opacity:0.0; 
stroke:#000000; stroke-width:150000.000000; stroke-opacity:1; 
stroke-linecap:round; stroke-linejoin:round;">
<text x="35000000.000000" y="199657200.000000"
textLength="1388095.000000" font-size="1733333.000000" lengthAdjust="spacingAndGlyphs"
text-anchor="start" opacity="0">1</text>
<g class="stroked-text"><desc>1</desc>
<path d="M36065476 199595295
L35322619 199595295
" />
<path d="M35694047 199595295
L35694047 198295295
L35570238 198481009
L35446428 198604819
L35322619 198666723
" />
</g></g>
<g style="fill:#000000; fill-opacity:0.0; 
stroke:#000000; stroke-width:21200.000000; stroke-opacity:1; 
stroke-linecap:round; stroke-linejoin:round;">
</g>
<g style="fill:#000000; fill-opacity:0.0; 
stroke:#000000; stroke-width:150000.000000; stroke-opacity:1; 
stroke-linecap:round; stroke-linejoin:round;">
<text x="85000000.000000" y="199657200.000000"
textLength="1388095.000000" font-size="1733333.000000" lengthAdjust="spacingAndGlyphs"
text-anchor="start" opacity="0">2</text>
<g class="stroked-text"><desc>2</desc>
<path d="M85322619 198419104
L85384523 198357200
L85508333 198295295
L85817857 198295295
L85941666 198357200
L86003571 198419104
L86065476 198542914
L86065476 198666723
L86003571 198852438
L85260714 199595295
L86065476 199595295
" />
</g></g>
<g style="fill:#000000; fill-opacity:0.0; 
stroke:#000000; stroke-width:21200.000000; stroke-opacity:1; 
stroke-linecap:round; stroke-linejoin:round;">
</g>
<g style="fill:#000000; fill-opacity:0.0; 
stroke:#000000; stroke-width:150000.000000; stroke-opacity:1; 
stroke-linecap:round; stroke-linejoin:round;">
<text x="135000000.000000" y="199657200.000000"
textLength="1388095.000000" font-size="1733333.000000" lengthAdjust="spacingAndGlyphs"
text-anchor="start" opacity="0">3</text>
<g class="stroked-text"><desc>3</desc>
<path d="M135260714 198295295
L136065476 198295295
L135632142 198790533
L135817857 198790533
L135941666 198852438
L136003571 198914342
L136065476 199038152
L136065476 199347676
L136003571 199471485
L135941666 199533390
L135817857 199595295
L135446428 199595295
L135322619 199533390
L135260714 199471485
" />
</g></g>
<g style="fill:#000000; fill-opacity:0.0; 
stroke:#000000; stroke-width:21200.000000; stroke-opacity:1; 
stroke-linecap:round; stroke-linejoin:round;">
</g>
<g style="fill:#000000; fill-opacity:0.0; 
stroke:#000000; stroke-width:150000.000000; stroke-opacity:1; 
stroke-linecap:round; stroke-linejoin:round;">
<text x="185000000.000000" y="199657200.000000"
textLength="1388095.000000" font-size="1733333.000000" lengthAdjust="spacingAndGlyphs"
text-anchor="start" opacity="0">4</text>
<g class="stroked-text"><desc>4</desc>
<path d="M185941666 198728628
L185941666 199595295
" />
<path d="M185632142 198233390
L185322619 199161961
L186127380 199161961
" />
</g></g>
<g style="fill:#000000; fill-opacity:0.0; 
stroke:#000000; stroke-width:21200.000000; stroke-opacity:1; 
stroke-linecap:round; stroke-linejoin:round;">
</g>
<g style="fill:#000000; fill-opacity:0.0; 
stroke:#000000; stroke-width:150000.000000; stroke-opacity:1; 
stroke-linecap:round; stroke-linejoin:round;">
<text x="235000000.000000" y="199657200.000000"
textLength="1388095.000000" font-size="1733333.000000" lengthAdjust="spacingAndGlyphs"
text-anchor="start" opacity="0">5</text>
<g class="stroked-text"><desc>5</desc>
<path d="M236003571 198295295
L235384523 198295295
L235322619 198914342
L235384523 198852438
L235508333 198790533
L235817857 198790533
L235941666 198852438
L236003571 198914342
L236065476 199038152
L236065476 199347676
L236003571 199471485
L235941666 199533390
L235817857 199595295
L235508333 199595295
L235384523 199533390
L235322619 199471485
" />
</g></g>
<g style="fill:#000000; fill-opacity:0.0; 
stroke:#000000; stroke-width:21200.000000; stroke-opacity:1; 
stroke-linecap:round; stroke-linejoin:round;">
</g>
<g style="fill:#000000; fill-opacity:0.0; 
stroke:#000000; stroke-width:150000.000000; stroke-opacity:1; 
stroke-linecap:round; stroke-linejoin:round;">
<text x="285000000.000000" y="199657200.000000"
textLength="1388095.000000" font-size="1733333.000000" lengthAdjust="spacingAndGlyphs"
text-anchor="start" opacity="0">6</text>
<g class="stroked-text"><desc>6</desc>
<path d="M285941666 198295295
L285694047 198295295
L285570238 198357200
L285508333 198419104
L285384523 198604819
L285322619 198852438
L285322619 199347676
L285384523 199471485
L285446428 199533390
L285570238 199595295
L285817857 199595295
L285941666 199533390
L286003571 199471485
L286065476 199347676
L286065476 199038152
L286003571 198914342
L285941666 198852438
L285817857 198790533
L285570238 198790533
L285446428 198852438
L285384523 198914342
L285322619 199038152
" />
</g></g>
<g style="fill:#000000; fill-opacity:0.0; 
stroke:#000000; stroke-width:21200.000000; stroke-opacity:1; 
stroke-linecap:round; stroke-linejoin:round;">
</g>
<g style="fill:#000000; fill-opacity:0.0; 
stroke:#000000; stroke-width:150000.000000; stroke-opacity:1; 
stroke-linecap:round; stroke-linejoin:round;">
<path d="M10000000 60000000
L12000000 60000000
" />
</g>
<g style="fill:#000000; fill-opacity:0.0; 
stroke:#000000; stroke-width:21200.000000; stroke-opacity:1; 
stroke-linecap:round; stroke-linejoin:round;">
</g>
<g style="fill:#000000; fill-opacity:0.0; 
stroke:#000000; stroke-width:150000.000000; stroke-opacity:1; 
stroke-linecap:round; stroke-linejoin:round;">
<path d="M10000000 110000000
L12000000 110000000
" />
</g>
<g style="fill:#000000; fill-opacity:0.0; 
stroke:#000000; stroke-width:21200.000000; stroke-opacity:1; 
stroke-linecap:round; stroke-linejoin:round;">
</g>
<g style="fill:#000000; fill-opacity:0.0; 
stroke:#000000; stroke-width:150000.000000; stroke-opacity:1; 
stroke-linecap:round; stroke-linejoin:round;">
<path d="M10000000 160000000
L12000000 160000000
" />
</g>
<g style="fill:#000000; fill-opacity:0.0; 
stroke:#000000; stroke-width:21200.000000; stroke-opacity:1; 
stroke-linecap:round; stroke-linejoin:round;">
</g>
<g style="fill:#000000; fill-opacity:0.0; 
stroke:#000000; stroke-width:150000.000000; stroke-opacity:1; 
stroke-linecap:round; stroke-linejoin:round;">
<text x="11000000.000000" y="35650000.000000"
textLength="1264286.000000" font-size="1733333.000000" lengthAdjust="spacingAndGlyphs"
text-anchor="middle" opacity="0">A</text>
<g class="stroked-text"><desc>A</desc>
<path d="M10690476 35216666
L11309523 35216666
" />
<path d="M10566666 35588095
L11000000 34288095
L11433333 35588095
" />
</g></g>
<g style="fill:#000000; fill-opacity:0.0; 
stroke:#000000; stroke-width:21200.000000; stroke-opacity:1; 
stroke-linecap:round; stroke-linejoin:round;">
</g>
<g style="fill:#000000; fill-opacity:0.0; 
stroke:#000000; stroke-width:150000.000000; stroke-opacity:1; 
stroke-linecap:round; stroke-linejoin:round;">
<text x="11000000.000000" y="85650000.000000"
textLength="1450000.000000" font-size="1733333.000000" lengthAdjust="spacingAndGlyphs"
text-anchor="middle" opacity="0">B</text>
<g class="stroked-text"><desc>B</desc>
<path d="M11092857 84907142
L11278571 84969047
L11340476 85030952
L11402380 85154761
L11402380 85340476
L11340476 85464285
L11278571 85526190
L11154761 85588095
L10659523 85588095
L10659523 84288095
L11092857 84288095
L11216666 84350000
L11278571 84411904
L11340476 84535714
L11340476 84659523
L11278571 84783333
L11216666 84845238
L11092857 84907142
L10659523 84907142
" />
</g></g>
<g style="fill:#000000; fill-opacity:0.0; 
stroke:#000000; stroke-width:21200.000000; stroke-opacity:1; 
stroke-linecap:round; stroke-linejoin:round;">
</g>
<g style="fill:#000000; fill-opacity:0.0; 
stroke:#000000; stroke-width:150000.000000; stroke-opacity:1; 
stroke-linecap:round; stroke-linejoin:round;">
<text x="11000000.000000" y="135650000.000000"
textLength="1450000.000000" font-size="1733333.000000" lengthAdjust="spacingAndGlyphs"
text-anchor="middle" opacity="0">C</text>
<g class="stroked-text"><desc>C</desc>
<path d="M11402380 135464285
L11340476 135526190
L11154761 135588095
L11030952 135588095
L10845238 135526190
L10721428 135402380
L10659523 135278571
L10597619 135030952
L10597619 134845238
L10659523 134597619
L10721428 134473809
L10845238 134350000
L11030952 134288095
L11154761 134288095
L11340476 134350000
L11402380 134411904
" />
</g></g>
<g style="fill:#000000; fill-opacity:0.0; 
stroke:#000000; stroke-width:21200.000000; stroke-opacity:1; 
stroke-linecap:round; stroke-linejoin:round;">
</g>
<g style="fill:#000000; fill-opacity:0.0; 
stroke:#000000; stroke-width:150000.000000; stroke-opacity:1; 
stroke-linecap:round; stroke-linejoin:round;">
<text x="11000000.000000" y="185650000.000000"
textLength="1450000.000000" font-size="1733333.000000" lengthAdjust="spacingAndGlyphs"
text-anchor="middle" opacity="0">D</text>
<g class="stroked-text"><desc>D</desc>
<path d="M10659523 185588095
L10659523 184288095
L10969047 184288095
L11154761 184350000
L11278571 184473809
L11340476 184597619
L11402380 184845238
L11402380 185030952
L11340476 185278571
L11278571 185402380
L11154761 185526190
L10969047 185588095
L10659523 185588095
" />
</g></g>
<g style="fill:#000000; fill-opacity:0.0; 
stroke:#000000; stroke-width:21200.000000; stroke-opacity:1; 
stroke-linecap:round; stroke-linejoin:round;">
</g>
<g style="fill:#000000; fill-opacity:0.0; 
stroke:#000000; stroke-width:150000.000000; stroke-opacity:1; 
stroke-linecap:round; stroke-linejoin:round;">
<path d="M287002200 60000000
L285002200 60000000
" />
</g>
<g style="fill:#000000; fill-opacity:0.0; 
stroke:#000000; stroke-width:21200.000000; stroke-opacity:1; 
stroke-linecap:round; stroke-linejoin:round;">
</g>
<g style="fill:#000000; fill-opacity:0.0; 
stroke:#000000; stroke-width:150000.000000; stroke-opacity:1; 
stroke-linecap:round; stroke-linejoin:round;">
<path d="M287002200 110000000
L285002200 110000000
" />
</g>
<g style="fill:#000000; fill-opacity:0.0; 
stroke:#000000; stroke-width:21200.000000; stroke-opacity:1; 
stroke-linecap:round; stroke-linejoin:round;">
</g>
<g style="fill:#000000; fill-opacity:0.0; 
stroke:#000000; stroke-width:150000.000000; stroke-opacity:1; 
stroke-linecap:round; stroke-linejoin:round;">
<path d="M287002200 160000000
L285002200 160000000
" />
</g>
<g style="fill:#000000; fill-opacity:0.0; 
stroke:#000000; stroke-width:21200.000000; stroke-opacity:1; 
stroke-linecap:round; stroke-linejoin:round;">
</g>
<g style="fill:#000000; fill-opacity:0.0; 
stroke:#000000; stroke-width:150000.000000; stroke-opacity:1; 
stroke-linecap:round; stroke-linejoin:round;">
<text x="286002200.000000" y="35650000.000000"
textLength="1264286.000000" font-size="1733333.000000" lengthAdjust="spacingAndGlyphs"
text-anchor="middle" opacity="0">A</text>
<g class="stroked-text"><desc>A</desc>
<path d="M285692676 35216666
L286311723 35216666
" />
<path d="M285568866 35588095
L286002200 34288095
L286435533 35588095
" />
</g></g>
<g style="fill:#000000; fill-opacity:0.0; 
stroke:#000000; stroke-width:21200.000000; stroke-opacity:1; 
stroke-linecap:round; stroke-linejoin:round;">
</g>
<g style="fill:#000000; fill-opacity:0.0; 
stroke:#000000; stroke-width:150000.000000; stroke-opacity:1; 
stroke-linecap:round; stroke-linejoin:round;">
<text x="286002200.000000" y="85650000.000000"
textLength="1450000.000000" font-size="1733333.000000" lengthAdjust="spacingAndGlyphs"
text-anchor="middle" opacity="0">B</text>
<g class="stroked-text"><desc>B</desc>
<path d="M286095057 84907142
L286280771 84969047
L286342676 85030952
L286404580 85154761
L286404580 85340476
L286342676 85464285
L286280771 85526190
L286156961 85588095
L285661723 85588095
L285661723 84288095
L286095057 84288095
L286218866 84350000
L286280771 84411904
L286342676 84535714
L286342676 84659523
L286280771 84783333
L286218866 84845238
L286095057 84907142
L285661723 84907142
" />
</g></g>
<g style="fill:#000000; fill-opacity:0.0; 
stroke:#000000; stroke-width:21200.000000; stroke-opacity:1; 
stroke-linecap:round; stroke-linejoin:round;">
</g>
<g style="fill:#000000; fill-opacity:0.0; 
stroke:#000000; stroke-width:150000.000000; stroke-opacity:1; 
stroke-linecap:round; stroke-linejoin:round;">
<text x="286002200.000000" y="135650000.000000"
textLength="1450000.000000" font-size="1733333.000000" lengthAdjust="spacingAndGlyphs"
text-anchor="middle" opacity="0">C</text>
<g class="stroked-text"><desc>C</desc>
<path d="M286404580 135464285
L286342676 135526190
L286156961 135588095
L286033152 135588095
L285847438 135526190
L285723628 135402380
L285661723 135278571
L285599819 135030952
L285599819 134845238
L285661723 134597619
L285723628 134473809
L285847438 134350000
L286033152 134288095
L286156961 134288095
L286342676 134350000
L286404580 134411904
" />
</g></g>
<g style="fill:#000000; fill-opacity:0.0; 
stroke:#000000; stroke-width:21200.000000; stroke-opacity:1; 
stroke-linecap:round; stroke-linejoin:round;">
</g>
<g style="fill:#000000; fill-opacity:0.0; 
stroke:#000000; stroke-width:150000.000000; stroke-opacity:1; 
stroke-linecap:round; stroke-linejoin:round;">
<text x="286002200.000000" y="185650000.000000"
textLength="1450000.000000" font-size="1733333.000000" lengthAdjust="spacingAndGlyphs"
text-anchor="middle" opacity="0">D</text>
<g class="stroked-text"><desc>D</desc>
<path d="M285661723 185588095
L285661723 184288095
L285971247 184288095
L286156961 184350000
L286280771 184473809
L286342676 184597619
L286404580 184845238
L286404580 185030952
L286342676 185278571
L286280771 185402380
L286156961 185526190
L285971247 185588095
L285661723 185588095
" />
</g></g>
<g style="fill:#000000; fill-opacity:0.0; 
stroke:#000000; stroke-width:21200.000000; stroke-opacity:1; 
stroke-linecap:round; stroke-linejoin:round;">
</g>
<g style="fill:#000000; fill-opacity:0.0; 
stroke:#000000; stroke-width:150000.000000; stroke-opacity:1; 
stroke-linecap:round; stroke-linejoin:round;">
<text x="200002200.000000" y="193857200.000000"
textLength="7007143.000000" font-size="2000000.000000" lengthAdjust="spacingAndGlyphs"
text-anchor="start" opacity="0">Date: </text>
<g class="stroked-text"><desc>Date: </desc>
<path d="M200434342 193785771
L200434342 192285771
L200791485 192285771
L201005771 192357200
L201148628 192500057
L201220057 192642914
L201291485 192928628
L201291485 193142914
L201220057 193428628
L201148628 193571485
L201005771 193714342
L200791485 193785771
L200434342 193785771
" />
<path d="M202577200 193785771
L202577200 193000057
L202505771 192857200
L202362914 192785771
L202077200 192785771
L201934342 192857200
" />
<path d="M202577200 193714342
L202434342 193785771
L202077200 193785771
L201934342 193714342
L201862914 193571485
L201862914 193428628
L201934342 193285771
L202077200 193214342
L202434342 193214342
L202577200 193142914
" />
<path d="M203077200 192785771
L203648628 192785771
" />
<path d="M203291485 192285771
L203291485 193571485
L203362914 193714342
L203505771 193785771
L203648628 193785771
" />
<path d="M204720057 193714342
L204577200 193785771
L204291485 193785771
L204148628 193714342
L204077200 193571485
L204077200 193000057
L204148628 192857200
L204291485 192785771
L204577200 192785771
L204720057 192857200
L204791485 193000057
L204791485 193142914
L204077200 193285771
" />
<path d="M205434342 193642914
L205505771 193714342
L205434342 193785771
L205362914 193714342
L205434342 193642914
L205434342 193785771
" />
<path d="M205434342 192857200
L205505771 192928628
L205434342 193000057
L205362914 192928628
L205434342 192857200
L205434342 193000057
" />
</g></g>
<g style="fill:#000000; fill-opacity:0.0; 
stroke:#000000; stroke-width:21200.000000; stroke-opacity:1; 
stroke-linecap:round; stroke-linejoin:round;">
</g>
<g style="fill:#000000; fill-opacity:0.0; 
stroke:#000000; stroke-width:150000.000000; stroke-opacity:1; 
stroke-linecap:round; stroke-linejoin:round;">
<path d="M177002200 194507200
L285002200 194507200
" />
</g>
<g style="fill:#000000; fill-opacity:0.0; 
stroke:#000000; stroke-width:21200.000000; stroke-opacity:1; 
stroke-linecap:round; stroke-linejoin:round;">
</g>
<g style="fill:#000000; fill-opacity:0.0; 
stroke:#000000; stroke-width:150000.000000; stroke-opacity:1; 
stroke-linecap:round; stroke-linejoin:round;">
<text x="178002200.000000" y="196657200.000000"
textLength="33364286.000000" font-size="2000000.000000" lengthAdjust="spacingAndGlyphs"
text-anchor="start" opacity="0">KiCad E.D.A.  pcbnew (6.0.9)</text>
<g class="stroked-text"><desc>KiCad E.D.A.  pcbnew (6.0.9)</desc>
<path d="M178434342 196585771
L178434342 195085771
" />
<path d="M179291485 196585771
L178648628 195728628
" />
<path d="M179291485 195085771
L178434342 195942914
" />
<path d="M179934342 196585771
L179934342 195585771
" />
<path d="M179934342 195085771
L179862914 195157200
L179934342 195228628
L180005771 195157200
L179934342 195085771
L179934342 195228628
" />
<path d="M181505771 196442914
L181434342 196514342
L181220057 196585771
L181077200 196585771
L180862914 196514342
L180720057 196371485
L180648628 196228628
L180577200 195942914
L180577200 195728628
L180648628 195442914
L180720057 195300057
L180862914 195157200
L181077200 195085771
L181220057 195085771
L181434342 195157200
L181505771 195228628
" />
<path d="M182791485 196585771
L182791485 195800057
L182720057 195657200
L182577200 195585771
L182291485 195585771
L182148628 195657200
" />
<path d="M182791485 196514342
L182648628 196585771
L182291485 196585771
L182148628 196514342
L182077200 196371485
L182077200 196228628
L182148628 196085771
L182291485 196014342
L182648628 196014342
L182791485 195942914
" />
<path d="M184148628 196585771
L184148628 195085771
" />
<path d="M184148628 196514342
L184005771 196585771
L183720057 196585771
L183577200 196514342
L183505771 196442914
L183434342 196300057
L183434342 195871485
L183505771 195728628
L183577200 195657200
L183720057 195585771
L184005771 195585771
L184148628 195657200
" />
<path d="M186005771 195800057
L186505771 195800057
" />
<path d="M186720057 196585771
L186005771 196585771
L186005771 195085771
L186720057 195085771
" />
<path d="M187362914 196442914
L187434342 196514342
L187362914 196585771
L187291485 196514342
L187362914 196442914
L187362914 196585771
" />
<path d="M188077200 196585771
L188077200 195085771
L188434342 195085771
L188648628 195157200
L188791485 195300057
L188862914 195442914
L188934342 195728628
L188934342 195942914
L188862914 196228628
L188791485 196371485
L188648628 196514342
L188434342 196585771
L188077200 196585771
" />
<path d="M189577200 196442914
L189648628 196514342
L189577200 196585771
L189505771 196514342
L189577200 196442914
L189577200 196585771
" />
<path d="M190220057 196157200
L190934342 196157200
" />
<path d="M190077200 196585771
L190577200 195085771
L191077200 196585771
" />
<path d="M191577200 196442914
L191648628 196514342
L191577200 196585771
L191505771 196514342
L191577200 196442914
L191577200 196585771
" />
<path d="M194577200 195585771
L194577200 197085771
" />
<path d="M194577200 195657200
L194720057 195585771
L195005771 195585771
L195148628 195657200
L195220057 195728628
L195291485 195871485
L195291485 196300057
L195220057 196442914
L195148628 196514342
L195005771 196585771
L194720057 196585771
L194577200 196514342
" />
<path d="M196577200 196514342
L196434342 196585771
L196148628 196585771
L196005771 196514342
L195934342 196442914
L195862914 196300057
L195862914 195871485
L195934342 195728628
L196005771 195657200
L196148628 195585771
L196434342 195585771
L196577200 195657200
" />
<path d="M197220057 196585771
L197220057 195085771
" />
<path d="M197220057 195657200
L197362914 195585771
L197648628 195585771
L197791485 195657200
L197862914 195728628
L197934342 195871485
L197934342 196300057
L197862914 196442914
L197791485 196514342
L197648628 196585771
L197362914 196585771
L197220057 196514342
" />
<path d="M198577200 195585771
L198577200 196585771
" />
<path d="M198577200 195728628
L198648628 195657200
L198791485 195585771
L199005771 195585771
L199148628 195657200
L199220057 195800057
L199220057 196585771
" />
<path d="M200505771 196514342
L200362914 196585771
L200077200 196585771
L199934342 196514342
L199862914 196371485
L199862914 195800057
L199934342 195657200
L200077200 195585771
L200362914 195585771
L200505771 195657200
L200577200 195800057
L200577200 195942914
L199862914 196085771
" />
<path d="M201077200 195585771
L201362914 196585771
L201648628 195871485
L201934342 196585771
L202220057 195585771
" />
<path d="M204362914 197157200
L204291485 197085771
L204148628 196871485
L204077200 196728628
L204005771 196514342
L203934342 196157200
L203934342 195871485
L204005771 195514342
L204077200 195300057
L204148628 195157200
L204291485 194942914
L204362914 194871485
" />
<path d="M205577200 195085771
L205291485 195085771
L205148628 195157200
L205077200 195228628
L204934342 195442914
L204862914 195728628
L204862914 196300057
L204934342 196442914
L205005771 196514342
L205148628 196585771
L205434342 196585771
L205577200 196514342
L205648628 196442914
L205720057 196300057
L205720057 195942914
L205648628 195800057
L205577200 195728628
L205434342 195657200
L205148628 195657200
L205005771 195728628
L204934342 195800057
L204862914 195942914
" />
<path d="M206362914 196442914
L206434342 196514342
L206362914 196585771
L206291485 196514342
L206362914 196442914
L206362914 196585771
" />
<path d="M207362914 195085771
L207505771 195085771
L207648628 195157200
L207720057 195228628
L207791485 195371485
L207862914 195657200
L207862914 196014342
L207791485 196300057
L207720057 196442914
L207648628 196514342
L207505771 196585771
L207362914 196585771
L207220057 196514342
L207148628 196442914
L207077200 196300057
L207005771 196014342
L207005771 195657200
L207077200 195371485
L207148628 195228628
L207220057 195157200
L207362914 195085771
" />
<path d="M208505771 196442914
L208577200 196514342
L208505771 196585771
L208434342 196514342
L208505771 196442914
L208505771 196585771
" />
<path d="M209291485 196585771
L209577200 196585771
L209720057 196514342
L209791485 196442914
L209934342 196228628
L210005771 195942914
L210005771 195371485
L209934342 195228628
L209862914 195157200
L209720057 195085771
L209434342 195085771
L209291485 195157200
L209220057 195228628
L209148628 195371485
L209148628 195728628
L209220057 195871485
L209291485 195942914
L209434342 196014342
L209720057 196014342
L209862914 195942914
L209934342 195871485
L210005771 195728628
" />
<path d="M210505771 197157200
L210577200 197085771
L210720057 196871485
L210791485 196728628
L210862914 196514342
L210934342 196157200
L210934342 195871485
L210862914 195514342
L210791485 195300057
L210720057 195157200
L210577200 194942914
L210505771 194871485
" />
</g></g>
<g style="fill:#000000; fill-opacity:0.0; 
stroke:#000000; stroke-width:21200.000000; stroke-opacity:1; 
stroke-linecap:round; stroke-linejoin:round;">
</g>
<g style="fill:#000000; fill-opacity:0.0; 
stroke:#000000; stroke-width:150000.000000; stroke-opacity:1; 
stroke-linecap:round; stroke-linejoin:round;">
<path d="M177002200 191507200
L285002200 191507200
" />
</g>
<g style="fill:#000000; fill-opacity:0.0; 
stroke:#000000; stroke-width:21200.000000; stroke-opacity:1; 
stroke-linecap:round; stroke-linejoin:round;">
</g>
<g style="fill:#000000; fill-opacity:0.0; 
stroke:#000000; stroke-width:300000.000000; stroke-opacity:1; 
stroke-linecap:round; stroke-linejoin:round;">
<text x="263002200.000000" y="193857200.000000"
textLength="5935714.000000" font-size="2000000.000000" lengthAdjust="spacingAndGlyphs"
text-anchor="start" opacity="0">Rev: </text>
<g class="stroked-text"><desc>Rev: </desc>
<path d="M264411485 193785771
L263911485 193071485
" />
<path d="M263554342 193785771
L263554342 192285771
L264125771 192285771
L264268628 192357200
L264340057 192428628
L264411485 192571485
L264411485 192785771
L264340057 192928628
L264268628 193000057
L264125771 193071485
L263554342 193071485
" />
<path d="M265625771 193714342
L265482914 193785771
L265197200 193785771
L265054342 193714342
L264982914 193571485
L264982914 193000057
L265054342 192857200
L265197200 192785771
L265482914 192785771
L265625771 192857200
L265697200 193000057
L265697200 193142914
L264982914 193285771
" />
<path d="M266197200 192785771
L266554342 193785771
L266911485 192785771
" />
<path d="M267482914 193642914
L267554342 193714342
L267482914 193785771
L267411485 193714342
L267482914 193642914
L267482914 193785771
" />
<path d="M267482914 192857200
L267554342 192928628
L267482914 193000057
L267411485 192928628
L267482914 192857200
L267482914 193000057
" />
</g></g>
<g style="fill:#000000; fill-opacity:0.0; 
stroke:#000000; stroke-width:21200.000000; stroke-opacity:1; 
stroke-linecap:round; stroke-linejoin:round;">
</g>
<g style="fill:#000000; fill-opacity:0.0; 
stroke:#000000; stroke-width:150000.000000; stroke-opacity:1; 
stroke-linecap:round; stroke-linejoin:round;">
<text x="178002200.000000" y="193857200.000000"
textLength="9604286.000000" font-size="2000000.000000" lengthAdjust="spacingAndGlyphs"
text-anchor="start" opacity="0">Size: A4</text>
<g class="stroked-text"><desc>Size: A4</desc>
<path d="M178362914 193714342
L178577200 193785771
L178934342 193785771
L179077200 193714342
L179148628 193642914
L179220057 193500057
L179220057 193357200
L179148628 193214342
L179077200 193142914
L178934342 193071485
L178648628 193000057
L178505771 192928628
L178434342 192857200
L178362914 192714342
L178362914 192571485
L178434342 192428628
L178505771 192357200
L178648628 192285771
L179005771 192285771
L179220057 192357200
" />
<path d="M179862914 193785771
L179862914 192785771
" />
<path d="M179862914 192285771
L179791485 192357200
L179862914 192428628
L179934342 192357200
L179862914 192285771
L179862914 192428628
" />
<path d="M180434342 192785771
L181220057 192785771
L180434342 193785771
L181220057 193785771
" />
<path d="M182362914 193714342
L182220057 193785771
L181934342 193785771
L181791485 193714342
L181720057 193571485
L181720057 193000057
L181791485 192857200
L181934342 192785771
L182220057 192785771
L182362914 192857200
L182434342 193000057
L182434342 193142914
L181720057 193285771
" />
<path d="M183077200 193642914
L183148628 193714342
L183077200 193785771
L183005771 193714342
L183077200 193642914
L183077200 193785771
" />
<path d="M183077200 192857200
L183148628 192928628
L183077200 193000057
L183005771 192928628
L183077200 192857200
L183077200 193000057
" />
<path d="M184862914 193357200
L185577200 193357200
" />
<path d="M184720057 193785771
L185220057 192285771
L185720057 193785771
" />
<path d="M186862914 192785771
L186862914 193785771
" />
<path d="M186505771 192214342
L186148628 193285771
L187077200 193285771
" />
</g></g>
<g style="fill:#000000; fill-opacity:0.0; 
stroke:#000000; stroke-width:21200.000000; stroke-opacity:1; 
stroke-linecap:round; stroke-linejoin:round;">
</g>
<g style="fill:#000000; fill-opacity:0.0; 
stroke:#000000; stroke-width:150000.000000; stroke-opacity:1; 
stroke-linecap:round; stroke-linejoin:round;">
<text x="263002200.000000" y="196657200.000000"
textLength="8507143.000000" font-size="2000000.000000" lengthAdjust="spacingAndGlyphs"
text-anchor="start" opacity="0">Id: 1/1</text>
<g class="stroked-text"><desc>Id: 1/1</desc>
<path d="M263434342 196585771
L263434342 195085771
" />
<path d="M264791485 196585771
L264791485 195085771
" />
<path d="M264791485 196514342
L264648628 196585771
L264362914 196585771
L264220057 196514342
L264148628 196442914
L264077200 196300057
L264077200 195871485
L264148628 195728628
L264220057 195657200
L264362914 195585771
L264648628 195585771
L264791485 195657200
" />
<path d="M265505771 196442914
L265577200 196514342
L265505771 196585771
L265434342 196514342
L265505771 196442914
L265505771 196585771
" />
<path d="M265505771 195657200
L265577200 195728628
L265505771 195800057
L265434342 195728628
L265505771 195657200
L265505771 195800057
" />
<path d="M268148628 196585771
L267291485 196585771
" />
<path d="M267720057 196585771
L267720057 195085771
L267577200 195300057
L267434342 195442914
L267291485 195514342
" />
<path d="M269862914 195014342
L268577200 196942914
" />
<path d="M271148628 196585771
L270291485 196585771
" />
<path d="M270720057 196585771
L270720057 195085771
L270577200 195300057
L270434342 195442914
L270291485 195514342
" />
</g></g>
<g style="fill:#000000; fill-opacity:0.0; 
stroke:#000000; stroke-width:21200.000000; stroke-opacity:1; 
stroke-linecap:round; stroke-linejoin:round;">
</g>
<g style="fill:#000000; fill-opacity:0.0; 
stroke:#000000; stroke-width:150000.000000; stroke-opacity:1; 
stroke-linecap:round; stroke-linejoin:round;">
<path d="M177002200 187507200
L285002200 187507200
" />
</g>
<g style="fill:#000000; fill-opacity:0.0; 
stroke:#000000; stroke-width:21200.000000; stroke-opacity:1; 
stroke-linecap:round; stroke-linejoin:round;">
</g>
<g style="fill:#000000; fill-opacity:0.0; 
stroke:#000000; stroke-width:400000.000000; stroke-opacity:1; 
stroke-linecap:round; stroke-linejoin:round;">
<text x="178002200.000000" y="190307200.000000"
textLength="9409643.000000" font-size="2666666.000000" lengthAdjust="spacingAndGlyphs"
text-anchor="start" opacity="0">Title: </text>
<g class="stroked-text"><desc>Title: </desc>
<path d="M178714580 188211961
L179857438 188211961
" />
<path d="M179036009 190211961
L179286009 188211961
" />
<path d="M180274104 190211961
L180440771 188878628
" />
<path d="M180524104 188211961
L180416961 188307200
L180500295 188402438
L180607438 188307200
L180524104 188211961
L180500295 188402438
" />
<path d="M181107438 188878628
L181869342 188878628
" />
<path d="M181476485 188211961
L181262200 189926247
L181333628 190116723
L181512200 190211961
L181702676 190211961
" />
<path d="M182655057 190211961
L182476485 190116723
L182405057 189926247
L182619342 188211961
" />
<path d="M184190771 190116723
L183988390 190211961
L183607438 190211961
L183428866 190116723
L183357438 189926247
L183452676 189164342
L183571723 188973866
L183774104 188878628
L184155057 188878628
L184333628 188973866
L184405057 189164342
L184381247 189354819
L183405057 189545295
" />
<path d="M185155057 190021485
L185238390 190116723
L185131247 190211961
L185047914 190116723
L185155057 190021485
L185131247 190211961
" />
<path d="M185286009 188973866
L185369342 189069104
L185262200 189164342
L185178866 189069104
L185286009 188973866
L185262200 189164342
" />
</g></g>
<g style="fill:#000000; fill-opacity:0.0; 
stroke:#000000; stroke-width:21200.000000; stroke-opacity:1; 
stroke-linecap:round; stroke-linejoin:round;">
</g>
<g style="fill:#000000; fill-opacity:0.0; 
stroke:#000000; stroke-width:150000.000000; stroke-opacity:1; 
stroke-linecap:round; stroke-linejoin:round;">
<text x="178002200.000000" y="186457200.000000"
textLength="30662857.000000" font-size="2000000.000000" lengthAdjust="spacingAndGlyphs"
text-anchor="start" opacity="0">File: kicadBoard.kicad_pcb</text>
<g class="stroked-text"><desc>File: kicadBoard.kicad_pcb</desc>
<path d="M178934342 185600057
L178434342 185600057
" />
<path d="M178434342 186385771
L178434342 184885771
L179148628 184885771
" />
<path d="M179720057 186385771
L179720057 185385771
" />
<path d="M179720057 184885771
L179648628 184957200
L179720057 185028628
L179791485 184957200
L179720057 184885771
L179720057 185028628
" />
<path d="M180648628 186385771
L180505771 186314342
L180434342 186171485
L180434342 184885771
" />
<path d="M181791485 186314342
L181648628 186385771
L181362914 186385771
L181220057 186314342
L181148628 186171485
L181148628 185600057
L181220057 185457200
L181362914 185385771
L181648628 185385771
L181791485 185457200
L181862914 185600057
L181862914 185742914
L181148628 185885771
" />
<path d="M182505771 186242914
L182577200 186314342
L182505771 186385771
L182434342 186314342
L182505771 186242914
L182505771 186385771
" />
<path d="M182505771 185457200
L182577200 185528628
L182505771 185600057
L182434342 185528628
L182505771 185457200
L182505771 185600057
" />
<path d="M184362914 186385771
L184362914 184885771
" />
<path d="M184505771 185814342
L184934342 186385771
" />
<path d="M184934342 185385771
L184362914 185957200
" />
<path d="M185577200 186385771
L185577200 185385771
" />
<path d="M185577200 184885771
L185505771 184957200
L185577200 185028628
L185648628 184957200
L185577200 184885771
L185577200 185028628
" />
<path d="M186934342 186314342
L186791485 186385771
L186505771 186385771
L186362914 186314342
L186291485 186242914
L186220057 186100057
L186220057 185671485
L186291485 185528628
L186362914 185457200
L186505771 185385771
L186791485 185385771
L186934342 185457200
" />
<path d="M188220057 186385771
L188220057 185600057
L188148628 185457200
L188005771 185385771
L187720057 185385771
L187577200 185457200
" />
<path d="M188220057 186314342
L188077200 186385771
L187720057 186385771
L187577200 186314342
L187505771 186171485
L187505771 186028628
L187577200 185885771
L187720057 185814342
L188077200 185814342
L188220057 185742914
" />
<path d="M189577200 186385771
L189577200 184885771
" />
<path d="M189577200 186314342
L189434342 186385771
L189148628 186385771
L189005771 186314342
L188934342 186242914
L188862914 186100057
L188862914 185671485
L188934342 185528628
L189005771 185457200
L189148628 185385771
L189434342 185385771
L189577200 185457200
" />
<path d="M190791485 185600057
L191005771 185671485
L191077200 185742914
L191148628 185885771
L191148628 186100057
L191077200 186242914
L191005771 186314342
L190862914 186385771
L190291485 186385771
L190291485 184885771
L190791485 184885771
L190934342 184957200
L191005771 185028628
L191077200 185171485
L191077200 185314342
L191005771 185457200
L190934342 185528628
L190791485 185600057
L190291485 185600057
" />
<path d="M192005771 186385771
L191862914 186314342
L191791485 186242914
L191720057 186100057
L191720057 185671485
L191791485 185528628
L191862914 185457200
L192005771 185385771
L192220057 185385771
L192362914 185457200
L192434342 185528628
L192505771 185671485
L192505771 186100057
L192434342 186242914
L192362914 186314342
L192220057 186385771
L192005771 186385771
" />
<path d="M193791485 186385771
L193791485 185600057
L193720057 185457200
L193577200 185385771
L193291485 185385771
L193148628 185457200
" />
<path d="M193791485 186314342
L193648628 186385771
L193291485 186385771
L193148628 186314342
L193077200 186171485
L193077200 186028628
L193148628 185885771
L193291485 185814342
L193648628 185814342
L193791485 185742914
" />
<path d="M194505771 186385771
L194505771 185385771
" />
<path d="M194505771 185671485
L194577200 185528628
L194648628 185457200
L194791485 185385771
L194934342 185385771
" />
<path d="M196077200 186385771
L196077200 184885771
" />
<path d="M196077200 186314342
L195934342 186385771
L195648628 186385771
L195505771 186314342
L195434342 186242914
L195362914 186100057
L195362914 185671485
L195434342 185528628
L195505771 185457200
L195648628 185385771
L195934342 185385771
L196077200 185457200
" />
<path d="M196791485 186242914
L196862914 186314342
L196791485 186385771
L196720057 186314342
L196791485 186242914
L196791485 186385771
" />
<path d="M197505771 186385771
L197505771 184885771
" />
<path d="M197648628 185814342
L198077200 186385771
" />
<path d="M198077200 185385771
L197505771 185957200
" />
<path d="M198720057 186385771
L198720057 185385771
" />
<path d="M198720057 184885771
L198648628 184957200
L198720057 185028628
L198791485 184957200
L198720057 184885771
L198720057 185028628
" />
<path d="M200077200 186314342
L199934342 186385771
L199648628 186385771
L199505771 186314342
L199434342 186242914
L199362914 186100057
L199362914 185671485
L199434342 185528628
L199505771 185457200
L199648628 185385771
L199934342 185385771
L200077200 185457200
" />
<path d="M201362914 186385771
L201362914 185600057
L201291485 185457200
L201148628 185385771
L200862914 185385771
L200720057 185457200
" />
<path d="M201362914 186314342
L201220057 186385771
L200862914 186385771
L200720057 186314342
L200648628 186171485
L200648628 186028628
L200720057 185885771
L200862914 185814342
L201220057 185814342
L201362914 185742914
" />
<path d="M202720057 186385771
L202720057 184885771
" />
<path d="M202720057 186314342
L202577200 186385771
L202291485 186385771
L202148628 186314342
L202077200 186242914
L202005771 186100057
L202005771 185671485
L202077200 185528628
L202148628 185457200
L202291485 185385771
L202577200 185385771
L202720057 185457200
" />
<path d="M203077200 186528628
L204220057 186528628
" />
<path d="M204577200 185385771
L204577200 186885771
" />
<path d="M204577200 185457200
L204720057 185385771
L205005771 185385771
L205148628 185457200
L205220057 185528628
L205291485 185671485
L205291485 186100057
L205220057 186242914
L205148628 186314342
L205005771 186385771
L204720057 186385771
L204577200 186314342
" />
<path d="M206577200 186314342
L206434342 186385771
L206148628 186385771
L206005771 186314342
L205934342 186242914
L205862914 186100057
L205862914 185671485
L205934342 185528628
L206005771 185457200
L206148628 185385771
L206434342 185385771
L206577200 185457200
" />
<path d="M207220057 186385771
L207220057 184885771
" />
<path d="M207220057 185457200
L207362914 185385771
L207648628 185385771
L207791485 185457200
L207862914 185528628
L207934342 185671485
L207934342 186100057
L207862914 186242914
L207791485 186314342
L207648628 186385771
L207362914 186385771
L207220057 186314342
" />
</g></g>
<g style="fill:#000000; fill-opacity:0.0; 
stroke:#000000; stroke-width:21200.000000; stroke-opacity:1; 
stroke-linecap:round; stroke-linejoin:round;">
</g>
<g style="fill:#000000; fill-opacity:0.0; 
stroke:#000000; stroke-width:150000.000000; stroke-opacity:1; 
stroke-linecap:round; stroke-linejoin:round;">
<path d="M177002200 181507200
L285002200 181507200
" />
</g>
<g style="fill:#000000; fill-opacity:0.0; 
stroke:#000000; stroke-width:21200.000000; stroke-opacity:1; 
stroke-linecap:round; stroke-linejoin:round;">
</g>
<g style="fill:#000000; fill-opacity:0.0; 
stroke:#000000; stroke-width:150000.000000; stroke-opacity:1; 
stroke-linecap:round; stroke-linejoin:round;">
<text x="178002200.000000" y="183757200.000000"
textLength="8221429.000000" font-size="2000000.000000" lengthAdjust="spacingAndGlyphs"
text-anchor="start" opacity="0">Sheet: </text>
<g class="stroked-text"><desc>Sheet: </desc>
<path d="M178362914 183614342
L178577200 183685771
L178934342 183685771
L179077200 183614342
L179148628 183542914
L179220057 183400057
L179220057 183257200
L179148628 183114342
L179077200 183042914
L178934342 182971485
L178648628 182900057
L178505771 182828628
L178434342 182757200
L178362914 182614342
L178362914 182471485
L178434342 182328628
L178505771 182257200
L178648628 182185771
L179005771 182185771
L179220057 182257200
" />
<path d="M179862914 183685771
L179862914 182185771
" />
<path d="M180505771 183685771
L180505771 182900057
L180434342 182757200
L180291485 182685771
L180077200 182685771
L179934342 182757200
L179862914 182828628
" />
<path d="M181791485 183614342
L181648628 183685771
L181362914 183685771
L181220057 183614342
L181148628 183471485
L181148628 182900057
L181220057 182757200
L181362914 182685771
L181648628 182685771
L181791485 182757200
L181862914 182900057
L181862914 183042914
L181148628 183185771
" />
<path d="M183077200 183614342
L182934342 183685771
L182648628 183685771
L182505771 183614342
L182434342 183471485
L182434342 182900057
L182505771 182757200
L182648628 182685771
L182934342 182685771
L183077200 182757200
L183148628 182900057
L183148628 183042914
L182434342 183185771
" />
<path d="M183577200 182685771
L184148628 182685771
" />
<path d="M183791485 182185771
L183791485 183471485
L183862914 183614342
L184005771 183685771
L184148628 183685771
" />
<path d="M184648628 183542914
L184720057 183614342
L184648628 183685771
L184577200 183614342
L184648628 183542914
L184648628 183685771
" />
<path d="M184648628 182757200
L184720057 182828628
L184648628 182900057
L184577200 182828628
L184648628 182757200
L184648628 182900057
" />
</g></g>
<g style="fill:#000000; fill-opacity:0.0; 
stroke:#000000; stroke-width:21200.000000; stroke-opacity:1; 
stroke-linecap:round; stroke-linejoin:round;">
</g>
<g style="fill:#000000; fill-opacity:0.0; 
stroke:#000000; stroke-width:300000.000000; stroke-opacity:1; 
stroke-linecap:round; stroke-linejoin:round;">
<text x="178002200.000000" y="180757200.000000"
textLength="150000.000000" font-size="2000000.000000" lengthAdjust="spacingAndGlyphs"
text-anchor="start" opacity="0"></text>
<g class="stroked-text"><desc></desc>
</g></g>
<g style="fill:#000000; fill-opacity:0.0; 
stroke:#000000; stroke-width:21200.000000; stroke-opacity:1; 
stroke-linecap:round; stroke-linejoin:round;">
</g>
<g style="fill:#000000; fill-opacity:0.0; 
stroke:#000000; stroke-width:150000.000000; stroke-opacity:1; 
stroke-linecap:round; stroke-linejoin:round;">
<text x="178002200.000000" y="177757200.000000"
textLength="300000.000000" font-size="2000000.000000" lengthAdjust="spacingAndGlyphs"
text-anchor="start" opacity="0"></text>
<g class="stroked-text"><desc></desc>
</g></g>
<g style="fill:#000000; fill-opacity:0.0; 
stroke:#000000; stroke-width:21200.000000; stroke-opacity:1; 
stroke-linecap:round; stroke-linejoin:round;">
</g>
<g style="fill:#000000; fill-opacity:0.0; 
stroke:#000000; stroke-width:150000.000000; stroke-opacity:1; 
stroke-linecap:round; stroke-linejoin:round;">
<text x="178002200.000000" y="174757200.000000"
textLength="150000.000000" font-size="2000000.000000" lengthAdjust="spacingAndGlyphs"
text-anchor="start" opacity="0"></text>
<g class="stroked-text"><desc></desc>
</g></g>
<g style="fill:#000000; fill-opacity:0.0; 
stroke:#000000; stroke-width:21200.000000; stroke-opacity:1; 
stroke-linecap:round; stroke-linejoin:round;">
</g>
<g style="fill:#000000; fill-opacity:0.0; 
stroke:#000000; stroke-width:150000.000000; stroke-opacity:1; 
stroke-linecap:round; stroke-linejoin:round;">
<text x="178002200.000000" y="171757200.000000"
textLength="150000.000000" font-size="2000000.000000" lengthAdjust="spacingAndGlyphs"
text-anchor="start" opacity="0"></text>
<g class="stroked-text"><desc></desc>
</g></g>
<g style="fill:#000000; fill-opacity:0.0; 
stroke:#000000; stroke-width:21200.000000; stroke-opacity:1; 
stroke-linecap:round; stroke-linejoin:round;">
</g>
<g style="fill:#000000; fill-opacity:0.0; 
stroke:#000000; stroke-width:150000.000000; stroke-opacity:1; 
stroke-linecap:round; stroke-linejoin:round;">
<text x="178002200.000000" y="168757200.000000"
textLength="150000.000000" font-size="2000000.000000" lengthAdjust="spacingAndGlyphs"
text-anchor="start" opacity="0"></text>
<g class="stroked-text"><desc></desc>
</g></g>
<g style="fill:#000000; fill-opacity:0.0; 
stroke:#000000; stroke-width:21200.000000; stroke-opacity:1; 
stroke-linecap:round; stroke-linejoin:round;">
</g>
<g style="fill:#000000; fill-opacity:0.0; 
stroke:#000000; stroke-width:150000.000000; stroke-opacity:1; 
stroke-linecap:round; stroke-linejoin:round;">
<path d="M197002200 191507200
L197002200 194507200
" />
</g>
<g style="fill:#000000; fill-opacity:0.0; 
stroke:#000000; stroke-width:21200.000000; stroke-opacity:1; 
stroke-linecap:round; stroke-linejoin:round;">
</g>
<g style="fill:#000000; fill-opacity:0.0; 
stroke:#000000; stroke-width:150000.000000; stroke-opacity:1; 
stroke-linecap:round; stroke-linejoin:round;">
<path d="M261002200 191507200
L261002200 198007200
" />
</g>
<g style="fill:#E8B2A7; fill-opacity:0.0; 
stroke:#E8B2A7; stroke-width:150000.000000; stroke-opacity:1; 
stroke-linecap:round; stroke-linejoin:round;">
</g>
<g style="fill:#E8B2A7; fill-opacity:0.0; 
stroke:#E8B2A7; stroke-width:152400.000000; stroke-opacity:1; 
stroke-linecap:round; stroke-linejoin:round;">
<g transform="rotate(270.000000 157137100.000000 96494600.000000)">
<text x="157137100.000000" y="96494600.000000"
transform="scale(-1 1) translate(-314274200.000000 0)"
textLength="672476.000000" font-size="1151466.000000" lengthAdjust="spacingAndGlyphs"
text-anchor="start" opacity="0">4</text>
</g>
<g class="stroked-text"><desc>4</desc>
<path d="M156520242 97169393
L157095976 97169393
" />
<path d="M156191252 96963774
L156808109 96758155
L156808109 97292764
" />
</g><g transform="rotate(270.000000 162217100.000000 96494600.000000)">
<text x="162217100.000000" y="96494600.000000"
transform="scale(-1 1) translate(-324434200.000000 0)"
textLength="624356.000000" font-size="1151466.000000" lengthAdjust="spacingAndGlyphs"
text-anchor="start" opacity="0">2</text>
</g>
<g class="stroked-text"><desc>2</desc>
<path d="M161394623 96758155
L161353500 96799279
L161312376 96881526
L161312376 97087145
L161353500 97169393
L161394623 97210517
L161476871 97251640
L161559119 97251640
L161682490 97210517
L162175976 96717031
L162175976 97251640
" />
</g><g transform="rotate(270.000000 149644100.000000 110845600.000000)">
<text x="149644100.000000" y="110845600.000000"
transform="scale(-1 1) translate(-299288200.000000 0)"
textLength="2433804.000000" font-size="1151466.000000" lengthAdjust="spacingAndGlyphs"
text-anchor="start" opacity="0">GND</text>
</g>
<g class="stroked-text"><desc>GND</desc>
<path d="M148780500 111602640
L148739376 111520393
L148739376 111397021
L148780500 111273650
L148862747 111191402
L148944995 111150279
L149109490 111109155
L149232861 111109155
L149397357 111150279
L149479604 111191402
L149561852 111273650
L149602976 111397021
L149602976 111479269
L149561852 111602640
L149520728 111643764
L149232861 111643764
L149232861 111479269
" />
<path d="M149602976 112013879
L148739376 112013879
L149602976 112507364
L148739376 112507364
" />
<path d="M149602976 112918602
L148739376 112918602
L148739376 113124221
L148780500 113247593
L148862747 113329840
L148944995 113370964
L149109490 113412088
L149232861 113412088
L149397357 113370964
L149479604 113329840
L149561852 113247593
L149602976 113124221
L149602976 112918602
" />
</g><g transform="rotate(270.000000 144564100.000000 109956600.000000)">
<text x="144564100.000000" y="109956600.000000"
transform="scale(-1 1) translate(-289128200.000000 0)"
textLength="3256280.000000" font-size="1151466.000000" lengthAdjust="spacingAndGlyphs"
text-anchor="start" opacity="0">TX-O</text>
</g>
<g class="stroked-text"><desc>TX-O</desc>
<path d="M143659376 110137907
L143659376 110631393
" />
<path d="M144522976 110384650
L143659376 110384650
" />
<path d="M143659376 110837012
L144522976 111412745
" />
<path d="M143659376 111412745
L144522976 110837012
" />
<path d="M144193985 111741736
L144193985 112399717
" />
<path d="M143659376 112975450
L143659376 113139945
L143700500 113222193
L143782747 113304440
L143947242 113345564
L144235109 113345564
L144399604 113304440
L144481852 113222193
L144522976 113139945
L144522976 112975450
L144481852 112893202
L144399604 112810955
L144235109 112769831
L143947242 112769831
L143782747 112810955
L143700500 112893202
L143659376 112975450
" />
</g><g transform="rotate(270.000000 142024100.000000 110337600.000000)">
<text x="142024100.000000" y="110337600.000000"
transform="scale(-1 1) translate(-284048200.000000 0)"
textLength="2598299.000000" font-size="1151466.000000" lengthAdjust="spacingAndGlyphs"
text-anchor="start" opacity="0">3.3V</text>
</g>
<g class="stroked-text"><desc>3.3V</desc>
<path d="M141119376 110560031
L141119376 111094640
L141448366 110806774
L141448366 110930145
L141489490 111012393
L141530614 111053517
L141612861 111094640
L141818480 111094640
L141900728 111053517
L141941852 111012393
L141982976 110930145
L141982976 110683402
L141941852 110601155
L141900728 110560031
" />
<path d="M141900728 111464755
L141941852 111505879
L141982976 111464755
L141941852 111423631
L141900728 111464755
L141982976 111464755
" />
<path d="M141119376 111793745
L141119376 112328355
L141448366 112040488
L141448366 112163860
L141489490 112246107
L141530614 112287231
L141612861 112328355
L141818480 112328355
L141900728 112287231
L141941852 112246107
L141982976 112163860
L141982976 111917117
L141941852 111834869
L141900728 111793745
" />
<path d="M141119376 112575098
L141982976 112862964
L141119376 113150831
" />
</g><g transform="rotate(270.000000 147104100.000000 110210600.000000)">
<text x="147104100.000000" y="110210600.000000"
transform="scale(-1 1) translate(-294208200.000000 0)"
textLength="2968413.000000" font-size="1151466.000000" lengthAdjust="spacingAndGlyphs"
text-anchor="start" opacity="0">RX-I</text>
</g>
<g class="stroked-text"><desc>RX-I</desc>
<path d="M147062976 111008764
L146651738 110720898
" />
<path d="M147062976 110515279
L146199376 110515279
L146199376 110844269
L146240500 110926517
L146281623 110967640
L146363871 111008764
L146487242 111008764
L146569490 110967640
L146610614 110926517
L146651738 110844269
L146651738 110515279
" />
<path d="M146199376 111296631
L147062976 111872364
" />
<path d="M146199376 111872364
L147062976 111296631
" />
<path d="M146733985 112201355
L146733985 112859336
" />
<path d="M147062976 113270574
L146199376 113270574
" />
</g><g transform="rotate(270.000000 164757100.000000 96494600.000000)">
<text x="164757100.000000" y="96494600.000000"
transform="scale(-1 1) translate(-329514200.000000 0)"
textLength="624356.000000" font-size="1151466.000000" lengthAdjust="spacingAndGlyphs"
text-anchor="start" opacity="0">1</text>
</g>
<g class="stroked-text"><desc>1</desc>
<path d="M164715976 97251640
L164715976 96758155
" />
<path d="M164715976 97004898
L163852376 97004898
L163975747 96922650
L164057995 96840402
L164099119 96758155
" />
</g></g>
<g style="fill:#E8B2A7; fill-opacity:0.0; 
stroke:#E8B2A7; stroke-width:190500.000000; stroke-opacity:1; 
stroke-linecap:round; stroke-linejoin:round;">
<text x="165265100.000000" y="103098600.000000"
transform="scale(-1 1) translate(-330530200.000000 0)"
textLength="881380.000000" font-size="1439333.000000" lengthAdjust="spacingAndGlyphs"
text-anchor="start" opacity="0">B</text>
<g class="stroked-text"><desc>B</desc>
<path d="M164524417 102481742
L164370203 102533147
L164318798 102584552
L164267394 102687361
L164267394 102841576
L164318798 102944385
L164370203 102995790
L164473013 103047195
L164884251 103047195
L164884251 101967695
L164524417 101967695
L164421608 102019100
L164370203 102070504
L164318798 102173314
L164318798 102276123
L164370203 102378933
L164421608 102430338
L164524417 102481742
L164884251 102481742
" />
</g><text x="165265100.000000" y="108178600.000000"
transform="scale(-1 1) translate(-330530200.000000 0)"
textLength="831850.000000" font-size="1439333.000000" lengthAdjust="spacingAndGlyphs"
text-anchor="start" opacity="0">G</text>
<g class="stroked-text"><desc>G</desc>
<path d="M164318798 107099100
L164421608 107047695
L164575822 107047695
L164730036 107099100
L164832846 107201909
L164884251 107304719
L164935655 107510338
L164935655 107664552
L164884251 107870171
L164832846 107972980
L164730036 108075790
L164575822 108127195
L164473013 108127195
L164318798 108075790
L164267394 108024385
L164267394 107664552
L164473013 107664552
" />
</g><text x="165265100.000000" y="105638600.000000"
transform="scale(-1 1) translate(-330530200.000000 0)"
textLength="677636.000000" font-size="1439333.000000" lengthAdjust="spacingAndGlyphs"
text-anchor="start" opacity="0">A</text>
<g class="stroked-text"><desc>A</desc>
<path d="M164935655 105278766
L164421608 105278766
" />
<path d="M165038465 105587195
L164678632 104507695
L164318798 105587195
" />
</g></g>
<g style="fill:#E8B2A7; fill-opacity:0.0; 
stroke:#E8B2A7; stroke-width:152400.000000; stroke-opacity:1; 
stroke-linecap:round; stroke-linejoin:round;">
<g transform="rotate(270.000000 159677100.000000 96494600.000000)">
<text x="159677100.000000" y="96494600.000000"
transform="scale(-1 1) translate(-319354200.000000 0)"
textLength="574826.000000" font-size="1151466.000000" lengthAdjust="spacingAndGlyphs"
text-anchor="start" opacity="0">3</text>
</g>
<g class="stroked-text"><desc>3</desc>
<path d="M158772376 96717031
L158772376 97251640
L159101366 96963774
L159101366 97087145
L159142490 97169393
L159183614 97210517
L159265861 97251640
L159471480 97251640
L159553728 97210517
L159594852 97169393
L159635976 97087145
L159635976 96840402
L159594852 96758155
L159553728 96717031
" />
</g></g>
<g style="fill:#E8B2A7; fill-opacity:0.0; 
stroke:#E8B2A7; stroke-width:25400.000000; stroke-opacity:1; 
stroke-linecap:round; stroke-linejoin:round;">
<path d="M137094000 107787400
L138148100 107787400
" />
<path d="M138148100 107787400
L138148100 107378500
" />
<path d="M137289500 106743500
L138158200 106743500
" />
<path d="M136806900 111175800
L136489400 111175800
" />
<path d="M136586000 106321900
L136586000 106725700
" />
<path d="M138148100 107378500
L137182900 107378500
" />
<path d="M136489400 111155500
L136812000 111155500
" />
<path d="M136586000 106725700
L136806900 106725700
" />
<path d="M138158200 106321900
L136586000 106321900
" />
<path d="M136489400 111175800
L136489400 111191000
" />
<path d="M136806900 106725700
L136806900 106733300
" />
<path d="M136812000 111155500
L136812000 111132600
" />
<path d="M138158200 106743500
L138158200 106321900
" />
<path d="M136933909.436398 106865407.148151 A262248.000000 262248.000000 0.0 0 0 136870399.898086 107025399.995566" />
<path d="M137383500.061128 111592406.534880 A673536.000000 673536.000000 0.0 0 0 137693400.074335 111513600.139807" />
<path d="M137152397.986528 110360488.705590 A786316.000000 786316.000000 0.0 0 0 136613899.582336 110733800.752551" />
<path d="M138127696.353340 111508498.794160 A1107176.000000 1107176.000000 0.0 0 0 138183599.677118 111147900.003791" />
<path d="M137535898.090000 110357911.614501 A1135133.000000 1135133.000000 0.0 0 0 137152399.985485 110360499.918612" />
<path d="M136657084.417900 106878087.713889 A510549.000000 510549.000000 0.0 0 0 136547899.695301 107172799.987217" />
<path d="M136685022.817822 111734580.156603 A798034.000000 798034.000000 0.0 0 0 137294600.997039 112008899.680701" />
<path d="M137693403.510066 110845593.415855 A605831.000000 605831.000000 0.0 0 0 137464800.000043 110776999.999539" />
<path d="M137218399.338926 110774489.958423 A526612.000000 526612.000000 0.0 0 0 136933900.123105 110883700.158599" />
<path d="M136489400.000000 111191000.000000 A906800.000000 906800.000000 0.0 0 0 136517400.085498 111414599.978246" />
<path d="M137289499.978983 106743501.640984 A2678318.000000 2678318.000000 0.0 0 0 137221000.004627 106743500.362302" />
<path d="M137850922.975169 111033592.540625 A327741.000000 327741.000000 0.0 0 0 137693399.916078 110845600.157395" />
<path d="M136971989.053456 107320118.247701 A409800.000000 409800.000000 0.0 0 0 137182899.999997 107378499.987799" />
<path d="M136746005.552241 106791807.489856 A468658.000000 468658.000000 0.0 0 0 136657099.764627 106878099.814388" />
<path d="M136806915.965920 111175800.085555 A485191.000000 485191.000000 0.0 0 0 136832299.749522 111333300.084382" />
<path d="M137063507.552207 106774019.496568 A327491.000000 327491.000000 0.0 0 0 136933900.063470 106865400.054791" />
<path d="M136517395.149605 111414601.234063 A781122.000000 781122.000000 0.0 0 0 136684999.778361 111734600.192759" />
<path d="M137830596.948590 111368798.580706 A458574.000000 458574.000000 0.0 0 0 137850899.651058 111033600.113460" />
<path d="M136547899.563534 107172799.981653 A1500024.000000 1500024.000000 0.0 0 0 136552900.481097 107373399.955681" />
<path d="M136875507.001471 107203197.448338 A226910.000000 226910.000000 0.0 0 0 136971999.888826 107320100.185385" />
<path d="M136865400.131421 107137200.006042 A44660030.000000 44660030.000000 0.0 0 0 136870400.076405 107025400.003321" />
<path d="M137736604.336466 111922610.972838 A672049.000000 672049.000000 0.0 0 0 138127699.603281 111508499.868879" />
<path d="M136832283.707641 111333305.495017 A258788.000000 258788.000000 0.0 0 0 136898399.760726 111437400.249561" />
<path d="M137132097.790905 111564409.386137 A1054146.000000 1054146.000000 0.0 0 0 137383499.995409 111592399.511150" />
<path d="M138183619.117011 111147899.777709 A885879.000000 885879.000000 0.0 0 0 137983000.136485 110596699.888155" />
<path d="M137983007.821120 110596693.591245 A580626.000000 580626.000000 0.0 0 0 137833100.067395 110467099.887915" />
<path d="M136870399.063318 107754403.259240 A850074.000000 850074.000000 0.0 0 0 137093999.997168 107787400.214949" />
<path d="M137294600.152888 112008916.401522 A1233770.000000 1233770.000000 0.0 0 0 137736599.911054 111922599.774958" />
<path d="M137833109.482976 110467084.227116 A841528.000000 841528.000000 0.0 0 0 137535900.024537 110357899.850620" />
<path d="M136613918.482913 110733810.953104 A896192.000000 896192.000000 0.0 0 0 136489399.547955 111155499.982231" />
<path d="M136552870.010249 107373402.772859 A435580.000000 435580.000000 0.0 0 0 136677401.264986 107640099.737070" />
<path d="M136865398.164874 107137199.915651 A169881.000000 169881.000000 0.0 0 0 136875499.573725 107203200.155446" />
<path d="M137221000.028479 106743502.218909 A451935.000000 451935.000000 0.0 0 0 137063499.842403 106773999.593316" />
<path d="M136677403.113601 107640096.912025 A444911.000000 444911.000000 0.0 0 0 136870401.039202 107754399.863606" />
<path d="M136933914.929008 110883718.230925 A315200.000000 315200.000000 0.0 0 0 136812000.015863 111132600.000005" />
<path d="M136784099.892095 106763799.851804 A5353356.000000 5353356.000000 0.0 0 0 136745999.792305 106791799.719984" />
<path d="M136784104.717224 106763806.472721 A148742.000000 148742.000000 0.0 0 0 136799300.215050 106751100.224882" />
<path d="M137693394.177775 111513589.047731 A313582.000000 313582.000000 0.0 0 0 137830599.856437 111368799.933317" />
<path d="M137464799.985326 110777000.156855 A1483750.000000 1483750.000000 0.0 0 0 137218400.029919 110774500.409186" />
<path d="M136898410.473548 111437389.082556 A504402.000000 504402.000000 0.0 0 0 137132099.971036 111564400.123130" />
<path d="M136799290.456849 106751090.007759 A24600.000000 24600.000000 0.0 0 0 136806900.000000 106733300.000000" />
</g>
<g style="fill:#E8B2A7; fill-opacity:1.0; 
stroke:#E8B2A7; stroke-width:1.000000; stroke-opacity:1; 
stroke-linecap:round; stroke-linejoin:round;">
<path style="fill:#E8B2A7; fill-opacity:1.0; 
stroke:#E8B2A7; stroke-width:1.000000; stroke-opacity:1; 
stroke-linecap:round; stroke-linejoin:round;fill-rule:evenodd;"
d="M 136870321.000000,103726000.000000
138170900.000000,103726000.000000
138170900.000000,104167900.000000
136867900.000000,104167900.000000
136867900.000000,104467700.000000
136575800.000000,104467700.000000
136575800.000000,104170500.000000
136449664.000000,104170500.000000
136403498.000000,104176792.000000
136363036.000000,104193536.000000
136311600.000000,104265951.000000
136311600.000000,104446708.000000
136314200.000000,104474712.000000
136314200.000000,104495600.000000
135986500.000000,104495600.000000
135986500.000000,104480717.000000
135983205.000000,104415035.000000
135978900.000000,104348712.000000
135978900.000000,104192003.000000
136007141.000000,104055134.000000
136070161.000000,103929967.000000
136164163.000000,103824799.000000
136326080.000000,103749032.000000
136542274.000000,103731100.000000
136575800.000000,103731100.000000
136575800.000000,103601339.000000
136867709.000000,103309430.000000
Z" /> 
<path style="fill:#E8B2A7; fill-opacity:1.0; 
stroke:#E8B2A7; stroke-width:1.000000; stroke-opacity:1; 
stroke-linecap:round; stroke-linejoin:round;fill-rule:evenodd;"
d="M 137972568.000000,99042873.000000
138046450.000000,99092426.000000
138102966.000000,99159773.000000
138164844.000000,99289425.000000
138196388.000000,99429783.000000
138175851.000000,99758788.000000
138114510.000000,99914664.000000
138014214.000000,100044546.000000
138013572.000000,100045921.000000
138018154.000000,100051892.000000
138117967.000000,100073849.000000
138132365.000000,100077602.000000
138151821.000000,100083094.000000
138160800.000000,100100875.000000
138160800.000000,100526084.000000
138123824.000000,100512309.000000
137994335.000000,100477419.000000
137860556.000000,100467203.000000
137414000.000000,100469773.000000
137414000.000000,100467200.000000
136921200.000000,100467200.000000
136921200.000000,100465271.000000
136831434.000000,100450414.000000
136672577.000000,100328190.000000
136601388.000000,100194324.000000
136558185.000000,100050583.000000
136531762.000000,99786630.000000
136555652.000000,99522544.000000
136589631.000000,99397598.000000
136643503.000000,99279608.000000
136719638.000000,99176978.000000
136819606.000000,99096892.000000
136936652.000000,99044859.000000
137061462.000000,99024565.000000
137063094.000000,99034600.000000
137073600.000000,99034600.000000
137073600.000000,99471500.000000
137057159.000000,99471500.000000
136971384.000000,99488649.000000
136849150.000000,99612279.000000
136827326.000000,99726568.000000
136828774.000000,99793633.000000
136832183.000000,99859996.000000
136870846.000000,99963826.000000
136953270.000000,100022700.000000
137111645.000000,100022700.000000
137120103.000000,100019002.000000
137128709.000000,100013061.000000
137154797.000000,99984643.000000
137179463.000000,99941871.000000
137196045.000000,99894767.000000
137209666.000000,99830408.000000
137218484.000000,99764632.000000
137229499.000000,99654248.000000
137241468.000000,99542858.000000
137318334.000000,99238016.000000
137380198.000000,99133388.000000
137470278.000000,99051908.000000
137559476.000000,99007541.000000
137656425.000000,98986300.000000
137658937.000000,98986300.000000
Z" /> 
<path style="fill:#E8B2A7; fill-opacity:1.0; 
stroke:#E8B2A7; stroke-width:1.000000; stroke-opacity:1; 
stroke-linecap:round; stroke-linejoin:round;fill-rule:evenodd;"
d="M 137692441.000000,95608177.000000
137752456.000000,95618659.000000
137881600.000000,95662588.000000
137971077.000000,95714825.000000
138041296.000000,95790813.000000
138118921.000000,95912445.000000
138180898.000000,96093093.000000
138193409.000000,96222983.000000
138198923.000000,96352680.000000
138175833.000000,96618981.000000
138133278.000000,96754450.000000
137963057.000000,96977375.000000
137772760.000000,97058257.000000
137718559.000000,97063417.000000
137666145.000000,97066084.000000
137665500.000000,97053404.000000
137662892.000000,97065829.000000
137454949.000000,97022179.000000
137410734.000000,96995178.000000
137373606.000000,96959918.000000
137280413.000000,96812278.000000
137180656.000000,96472238.000000
137140262.000000,96270068.000000
137071276.000000,96127149.000000
137005481.000000,96080205.000000
136950355.000000,96074753.000000
136897374.000000,96094215.000000
136871002.000000,96117170.000000
136851417.000000,96147241.000000
136835734.000000,96189591.000000
136827300.000000,96234191.000000
136827300.000000,96404145.000000
136845497.000000,96477418.000000
136882576.000000,96541684.000000
136976764.000000,96606950.000000
137038100.000000,96615680.000000
137038100.000000,97029430.000000
136946832.000000,97019674.000000
136813002.000000,96807157.000000
136679428.000000,96347482.000000
136792563.000000,95913675.000000
137114630.000000,95969994.000000
137379336.000000,96414611.000000
137605455.000000,96829669.000000
137913685.000000,96726135.000000
138000020.000000,96343795.000000
137634097.000000,95604080.000000
Z" /> 
<path style="fill:#E8B2A7; fill-opacity:1.0; 
stroke:#E8B2A7; stroke-width:1.000000; stroke-opacity:1; 
stroke-linecap:round; stroke-linejoin:round;fill-rule:evenodd;"
d="M 138160800.000000,112621100.000000
137168992.000000,112621100.000000
136990279.000000,112660771.000000
136942757.000000,112698164.000000
136897997.000000,112741002.000000
136861000.000000,112796630.000000
136844902.000000,112861745.000000
136842237.000000,112903661.000000
136840060.000000,112945389.000000
136856957.000000,113038719.000000
136911511.000000,113113434.000000
137096292.000000,113182400.000000
138163300.000000,113182400.000000
138163300.000000,113639600.000000
137198333.000000,113639600.000000
137142956.000000,113641669.000000
137088692.000000,113647026.000000
136993899.000000,113674214.000000
136913039.000000,113727233.000000
136849764.000000,113839137.000000
136840687.000000,113927962.000000
136847411.000000,114017614.000000
136883097.000000,114103570.000000
136952613.000000,114163902.000000
137123442.000000,114206000.000000
138163300.000000,114206000.000000
138163300.000000,114655600.000000
136990115.000000,114655600.000000
136676664.000000,114539050.000000
136523018.000000,114304581.000000
136486796.000000,114046144.000000
136502830.000000,113909440.000000
136557077.000000,113783217.000000
136622212.000000,113692456.000000
136698953.000000,113612782.000000
136747246.000000,113566994.000000
136751645.000000,113562595.000000
136660384.000000,113505902.000000
136576812.000000,113417884.000000
136522970.000000,113320269.000000
136519604.000000,113320562.000000
136484333.000000,113119622.000000
136488637.000000,113048929.000000
136497251.000000,112979703.000000
136508120.000000,112923755.000000
136523213.000000,112868179.000000
136564733.000000,112776863.000000
136627395.000000,112698829.000000
136707200.000000,112621559.000000
136747311.000000,112590919.000000
136747961.000000,112588000.000000
136530100.000000,112588000.000000
136530100.000000,112163900.000000
138160800.000000,112163900.000000
Z" /> 
<path style="fill:#E8B2A7; fill-opacity:1.0; 
stroke:#E8B2A7; stroke-width:1.000000; stroke-opacity:1; 
stroke-linecap:round; stroke-linejoin:round;fill-rule:evenodd;"
d="M 138158200.000000,108526600.000000
137673100.000000,108526600.000000
137673100.000000,108031300.000000
138158200.000000,108031300.000000
Z" /> 
<path style="fill:#E8B2A7; fill-opacity:1.0; 
stroke:#E8B2A7; stroke-width:1.000000; stroke-opacity:1; 
stroke-linecap:round; stroke-linejoin:round;fill-rule:evenodd;"
d="M 138044608.000000,96330205.000000
137950643.000000,96753255.000000
137606033.000000,96869022.000000
137562424.000000,96847156.000000
137083388.000000,96023485.000000
136825999.000000,95978163.000000
136716098.000000,96342096.000000
136848859.000000,96757935.000000
136997989.000000,96959384.000000
136951186.000000,97022883.000000
136886233.000000,96999253.000000
136845497.000000,96982668.000000
136805276.000000,96962639.000000
136719235.000000,96897441.000000
136641701.000000,96799142.000000
136586766.000000,96687108.000000
136549301.000000,96549843.000000
136535205.000000,96408885.000000
136534466.000000,96318050.000000
136535215.000000,96225997.000000
136658684.000000,95811833.000000
136799655.000000,95689400.000000
136802691.000000,95689400.000000
136967633.000000,95644172.000000
137139959.000000,95651300.000000
137143004.000000,95651300.000000
137280403.000000,95727957.000000
137359468.000000,95835717.000000
137410846.000000,95957079.000000
137458946.000000,96138761.000000
137497369.000000,96321031.000000
137575182.000000,96549334.000000
137617812.000000,96601464.000000
137677661.000000,96631389.000000
137744672.000000,96634203.000000
137800907.000000,96613266.000000
137845081.000000,96573729.000000
137904216.000000,96403510.000000
137904711.000000,96338400.000000
137904203.000000,96271596.000000
137902167.000000,96243326.000000
137897082.000000,96216438.000000
137859741.000000,96129804.000000
137797244.000000,96060247.000000
137733193.000000,96026002.000000
137659634.000000,96017100.000000
137642600.000000,96017100.000000
137642600.000000,95566934.000000
Z" /> 
<path style="fill:#E8B2A7; fill-opacity:1.0; 
stroke:#E8B2A7; stroke-width:1.000000; stroke-opacity:1; 
stroke-linecap:round; stroke-linejoin:round;fill-rule:evenodd;"
d="M 138160800.000000,101155500.000000
137366738.000000,101155500.000000
137199677.000000,101182902.000000
137084449.000000,101243242.000000
136995803.000000,101337531.000000
136941510.000000,101493209.000000
136938360.000000,101568250.000000
136941562.000000,101644522.000000
136945853.000000,101673987.000000
136953889.000000,101703493.000000
136956046.000000,101712130.000000
136956800.000000,101721383.000000
136956800.000000,101737200.000000
136545984.000000,101737200.000000
136537585.000000,101585584.000000
136604877.000000,101383608.000000
136664938.000000,101292336.000000
136735246.000000,101219358.000000
136788576.000000,101184441.000000
136840563.000000,101150028.000000
136867396.000000,101132169.000000
136868889.000000,101127600.000000
136575845.000000,101127600.000000
136648954.000000,100716119.000000
138160800.000000,100713478.000000
Z" /> 
<path style="fill:#E8B2A7; fill-opacity:1.0; 
stroke:#E8B2A7; stroke-width:1.000000; stroke-opacity:1; 
stroke-linecap:round; stroke-linejoin:round;fill-rule:evenodd;"
d="M 137776620.000000,108704294.000000
137917863.000000,108793791.000000
138108172.000000,109029259.000000
138160407.000000,109173486.000000
138188952.000000,109331662.000000
138198996.000000,109492940.000000
138113953.000000,109840509.000000
137922992.000000,110074285.000000
137795138.000000,110157554.000000
137653400.000000,110212783.000000
137557054.000000,110225800.000000
137538500.000000,110225800.000000
137538500.000000,109797583.000000
137740405.000000,109729421.000000
137782717.000000,109694307.000000
137817055.000000,109650283.000000
137853874.000000,109568995.000000
137868645.000000,109480872.000000
137864516.000000,109401119.000000
137846724.000000,109324534.000000
137723563.000000,109157930.000000
137631164.000000,109112858.000000
137323153.000000,109065335.000000
137028164.000000,109137009.000000
136904488.000000,109224312.000000
136875704.000000,109258862.000000
136857302.000000,109299807.000000
136832500.000000,109466005.000000
136867075.000000,109628781.000000
136922371.000000,109706407.000000
137002720.000000,109758020.000000
137097712.000000,109776300.000000
137111700.000000,109776300.000000
137111700.000000,110224842.000000
136856583.000000,110153448.000000
136606375.000000,109933047.000000
136542431.000000,109787155.000000
136539941.000000,109787376.000000
136486768.000000,109489588.000000
136522909.000000,109180158.000000
136714258.000000,108866930.000000
136859168.000000,108750460.000000
137026161.000000,108670459.000000
137206919.000000,108630700.000000
137208108.000000,108630700.000000
137458605.000000,108623051.000000
Z" /> 
<path style="fill:#E8B2A7; fill-opacity:1.0; 
stroke:#E8B2A7; stroke-width:1.000000; stroke-opacity:1; 
stroke-linecap:round; stroke-linejoin:round;fill-rule:evenodd;"
d="M 137812001.000000,104607800.000000
137952258.000000,104661591.000000
138074994.000000,104747433.000000
138088344.000000,104760794.000000
138102300.000000,104778122.000000
138102300.000000,104779495.000000
138173842.000000,104917019.000000
138204004.000000,105074030.000000
138178339.000000,105374330.000000
138169587.000000,105402869.000000
138156326.000000,105429448.000000
138051135.000000,105567226.000000
137943387.000000,105658900.000000
138163300.000000,105658900.000000
138163300.000000,106085600.000000
136575800.000000,106085600.000000
136575800.000000,105638600.000000
137418316.000000,105638600.000000
137660134.000000,105608667.000000
137834192.000000,105459129.000000
137861726.000000,105319703.000000
137831366.000000,105178708.000000
137794915.000000,105121669.000000
137743126.000000,105078488.000000
137582291.000000,105029000.000000
136570700.000000,105029000.000000
136570700.000000,104589600.000000
137663677.000000,104589600.000000
Z" /> 
<path style="fill:#E8B2A7; fill-opacity:1.0; 
stroke:#E8B2A7; stroke-width:1.000000; stroke-opacity:1; 
stroke-linecap:round; stroke-linejoin:round;fill-rule:evenodd;"
d="M 139113857.000000,97688400.000000
137975513.000000,97688400.000000
138140294.000000,97860071.000000
138181100.000000,97975826.000000
138181100.000000,97978089.000000
138175970.000000,98345956.000000
138132104.000000,98470573.000000
138061638.000000,98581578.000000
137967302.000000,98674533.000000
137576373.000000,98841698.000000
137130306.000000,98825034.000000
136839597.000000,98732300.000000
136881391.000000,98732300.000000
136719369.000000,98617205.000000
136652417.000000,98532670.000000
136597021.000000,98440251.000000
136537678.000000,98225947.000000
136540217.000000,98024792.000000
136550906.000000,97974281.000000
136605204.000000,97839707.000000
136660261.000000,97763720.000000
136757755.000000,97673904.000000
136772562.000000,97660612.000000
136565532.000000,97663193.000000
136643980.000000,97249000.000000
138717548.000000,97249000.000000
Z" /> 
<path style="fill:#E8B2A7; fill-opacity:1.0; 
stroke:#E8B2A7; stroke-width:1.000000; stroke-opacity:1; 
stroke-linecap:round; stroke-linejoin:round;fill-rule:evenodd;"
d="M 137703115.000000,110394069.000000
137956661.000000,110557056.000000
138137418.000000,110846287.000000
138178587.000000,111150183.000000
138152889.000000,111404631.000000
138088327.000000,111593132.000000
138008033.000000,111707094.000000
137891986.000000,111828319.000000
137759587.000000,111911439.000000
137510477.000000,111980793.000000
137297152.000000,112006498.000000
137075236.000000,111978060.000000
136838132.000000,111872444.000000
136708484.000000,111760967.000000
136569460.000000,111560086.000000
136512565.000000,111394592.000000
136485222.000000,111178540.000000
136809500.000000,111173085.000000
136809500.000000,111195570.000000
136819338.000000,111314311.000000
136870643.000000,111409524.000000
136951569.000000,111492960.000000
137112761.000000,111567356.000000
137305619.000000,111592400.000000
137448083.000000,111592400.000000
137602871.000000,111554932.000000
137723883.000000,111500598.000000
137821919.000000,111392719.000000
137881133.000000,111217700.000000
137858944.000000,111042902.000000
137758100.000000,110878123.000000
137655448.000000,110824344.000000
137540629.000000,110786922.000000
137415784.000000,110769424.000000
137229947.000000,110774468.000000
137082496.000000,110801912.000000
136993684.000000,110841460.000000
136885249.000000,110920216.000000
136821762.000000,111035069.000000
136805280.000000,111155500.000000
136493451.000000,111155500.000000
136484400.000000,111132510.000000
136484400.000000,111124240.000000
136502452.000000,110974012.000000
136672400.000000,110631683.000000
136948695.000000,110414754.000000
137309453.000000,110332274.000000
Z" /> 
<path style="fill:#E8B2A7; fill-opacity:1.0; 
stroke:#E8B2A7; stroke-width:1.000000; stroke-opacity:1; 
stroke-linecap:round; stroke-linejoin:round;fill-rule:evenodd;"
d="M 135678416.000000,103312922.000000
135540608.000000,103498376.000000
135528154.000000,103532801.000000
135521700.000000,103569605.000000
135521700.000000,103798839.000000
135411190.000000,104194731.000000
135139619.000000,104482900.000000
135158622.000000,104482900.000000
134947358.000000,104601908.000000
134762780.000000,104665457.000000
134569765.000000,104694660.000000
134363306.000000,104688203.000000
134363359.000000,104684786.000000
134072073.000000,104580307.000000
133842262.000000,104353400.000000
133960388.000000,104353400.000000
133983244.000000,104347114.000000
134042811.000000,104282857.000000
134046014.000000,104275464.000000
134048568.000000,104267337.000000
134051376.000000,104185948.000000
134019562.000000,104110669.000000
133955004.000000,104021266.000000
133878331.000000,103944690.000000
133783375.000000,103895965.000000
133724914.000000,103891455.000000
133562286.000000,104025018.000000
133543000.000000,104123433.000000
133543000.000000,104195900.000000
133517600.000000,104195900.000000
133517600.000000,104188294.000000
133460366.000000,104092152.000000
133453624.000000,104073460.000000
133445325.000000,104056749.000000
133439417.000000,104045077.000000
133434371.000000,104032049.000000
133411997.000000,103942602.000000
133403136.000000,103849276.000000
133473080.000000,103595501.000000
133597097.000000,103445642.000000
133598644.000000,103444095.000000
133709345.000000,103378267.000000
133956963.000000,103401307.000000
134289799.000000,103667514.000000
134371356.000000,103724306.000000
134465541.000000,103738630.000000
134630544.000000,103640820.000000
134670116.000000,103559368.000000
134688458.000000,103468829.000000
134676650.000000,103363135.000000
134627515.000000,103268943.000000
134595026.000000,103238005.000000
134554971.000000,103217505.000000
134491700.000000,103206995.000000
134429530.000000,103217322.000000
134403046.000000,103237119.000000
134344059.000000,103318384.000000
134334958.000000,103338816.000000
134335767.000000,103374388.000000
134312101.000000,103376510.000000
134302577.000000,103315984.000000
134295111.000000,103220500.000000
134302678.000000,103123722.000000
134354711.000000,102984895.000000
134458233.000000,102876604.000000
134699430.000000,102804000.000000
136251110.000000,102804000.000000
Z" /> 
<path style="fill:#E8B2A7; fill-opacity:1.0; 
stroke:#E8B2A7; stroke-width:1.000000; stroke-opacity:1; 
stroke-linecap:round; stroke-linejoin:round;fill-rule:evenodd;"
d="M 138173500.000000,101912239.000000
138173500.000000,102344200.000000
137620068.000000,102344200.000000
137459384.000000,102509558.000000
138163265.000000,102936529.000000
138165917.000000,103475509.000000
137156617.000000,102802609.000000
136578300.000000,103393950.000000
136578300.000000,102890139.000000
137129340.000000,102339100.000000
135964633.000000,102339100.000000
136215324.000000,101899700.000000
138160961.000000,101899700.000000
Z" /> 
<path style="fill:#E8B2A7; fill-opacity:1.0; 
stroke:#E8B2A7; stroke-width:1.000000; stroke-opacity:1; 
stroke-linecap:round; stroke-linejoin:round;fill-rule:evenodd;"
d="M 138170900.000000,106756200.000000
137222217.000000,106756200.000000
137068592.000000,106785950.000000
136944309.000000,106873600.000000
136882994.000000,107028095.000000
136880622.000000,107081869.000000
136878144.000000,107136520.000000
136887697.000000,107198945.000000
136923636.000000,107261741.000000
136978129.000000,107308620.000000
137184626.000000,107365800.000000
138160800.000000,107365800.000000
138160800.000000,107800100.000000
137093068.000000,107800100.000000
136866076.000000,107766599.000000
136667552.000000,107649028.000000
136540270.000000,107376368.000000
136535168.000000,107171693.000000
136567204.000000,107012372.000000
136646719.000000,106870648.000000
136689821.000000,106822867.000000
136738108.000000,106781841.000000
136757498.000000,106767524.000000
136776266.000000,106753795.000000
136789837.000000,106742457.000000
136792646.000000,106738400.000000
136573300.000000,106738400.000000
136573300.000000,106309200.000000
138170900.000000,106309200.000000
Z" /> 
<g >
</g>
<g >
</g>
<g >
</g>
<g >
</g>
<g >
</g>
<g >
</g>
<g >
</g>
<g >
</g>
<g >
</g>
<g >
</g>
<g >
</g>
<g >
</g>
<g >
</g>
<g >
</g>
<g >
</g>
<g >
</g>
<g >
</g>
<g >
</g>
<g >
</g>
<g >
</g>
<g >
</g>
<g >
</g>
<g >
</g>
<g >
</g>
<g >
</g>
<g >
</g>
<g >
</g>
<g >
</g>
<g >
</g>
<g >
</g>
<g >
</g>
<g >
</g>
</g>
<g style="fill:#000000; fill-opacity:1.0; 
stroke:#000000; stroke-width:1.000000; stroke-opacity:1; 
stroke-linecap:round; stroke-linejoin:round;">
</g>
<g style="fill:#D0D2CD; fill-opacity:1.0; 
stroke:#D0D2CD; stroke-width:1.000000; stroke-opacity:1; 
stroke-linecap:round; stroke-linejoin:round;">
</g>
<g style="fill:#D0D2CD; fill-opacity:1.0; 
stroke:#D0D2CD; stroke-width:203200.000000; stroke-opacity:1; 
stroke-linecap:round; stroke-linejoin:round;">
</g>
<g style="fill:#D0D2CD; fill-opacity:0.0; 
stroke:#D0D2CD; stroke-width:203200.000000; stroke-opacity:1; 
stroke-linecap:round; stroke-linejoin:round;">
<path d="M128816100 93573600
L168186100 93573600
" />
<path d="M168186100 93573600
L168186100 116433600
" />
<path d="M168186100 116433600
L128816100 116433600
" />
<path d="M128816100 116433600
L128816100 93573600
" />
<g >
</g>
<g >
</g>
<g >
</g>
<g >
</g>
<g >
</g>
<g >
</g>
<g >
</g>
<g >
</g>
<g >
</g>
<g >
</g>
<g >
</g>
<g >
</g>
<g >
</g>
<g >
</g>
<g >
</g>
<g >
</g>
<g >
</g>
<g >
</g>
<g >
</g>
<g >
</g>
<g >
</g>
<g >
</g>
<g >
</g>
<g >
</g>
<g >
</g>
<g >
</g>
<g >
</g>
<g >
</g>
<g >
</g>
<g >
</g>
<g >
</g>
<g >
</g>
</g> 
</svg>
