<?xml version="1.0" standalone="no"?>
 <!DOCTYPE svg PUBLIC "-//W3C//DTD SVG 1.1//EN" 
 "http://www.w3.org/Graphics/SVG/1.1/DTD/svg11.dtd"> 
<svg
  xmlns:svg="http://www.w3.org/2000/svg"
  xmlns="http://www.w3.org/2000/svg"
  xmlns:xlink="http://www.w3.org/1999/xlink"
  version="1.1"
  width="29.700220cm" height="21.000720cm" viewBox="0 0 297002200 210007200">
<title>SVG Picture created as kicadBoard-F_Fab.svg date 2022/11/05 04:40:15 </title>
  <desc>Picture generated by PCBNEW </desc>
<g style="fill:#000000; fill-opacity:1.000000;stroke:#000000; stroke-opacity:1.000000;
stroke-linecap:round; stroke-linejoin:round;"
 transform="translate(0 0) scale(1 1)">
</g>
<g style="fill:#000000; fill-opacity:0.0; 
stroke:#000000; stroke-width:0.000000; stroke-opacity:1; 
stroke-linecap:round; stroke-linejoin:round;">
</g>
<g style="fill:#000000; fill-opacity:0.0; 
stroke:#000000; stroke-width:21200.000000; stroke-opacity:1; 
stroke-linecap:round; stroke-linejoin:round;">
</g>
<g style="fill:#000000; fill-opacity:0.0; 
stroke:#000000; stroke-width:150000.000000; stroke-opacity:1; 
stroke-linecap:round; stroke-linejoin:round;">
<rect x="177002200.000000" y="166007200.000000" width="108000000.000000" height="32000000.000000" rx="0.000000" />
</g>
<g style="fill:#000000; fill-opacity:0.0; 
stroke:#000000; stroke-width:21200.000000; stroke-opacity:1; 
stroke-linecap:round; stroke-linejoin:round;">
</g>
<g style="fill:#000000; fill-opacity:0.0; 
stroke:#000000; stroke-width:150000.000000; stroke-opacity:1; 
stroke-linecap:round; stroke-linejoin:round;">
<rect x="10000000.000000" y="10000000.000000" width="277002200.000000" height="190007200.000000" rx="0.000000" />
</g>
<g style="fill:#000000; fill-opacity:0.0; 
stroke:#000000; stroke-width:21200.000000; stroke-opacity:1; 
stroke-linecap:round; stroke-linejoin:round;">
</g>
<g style="fill:#000000; fill-opacity:0.0; 
stroke:#000000; stroke-width:150000.000000; stroke-opacity:1; 
stroke-linecap:round; stroke-linejoin:round;">
<rect x="12000000.000000" y="12000000.000000" width="273002200.000000" height="186007200.000000" rx="0.000000" />
</g>
<g style="fill:#000000; fill-opacity:0.0; 
stroke:#000000; stroke-width:21200.000000; stroke-opacity:1; 
stroke-linecap:round; stroke-linejoin:round;">
</g>
<g style="fill:#000000; fill-opacity:0.0; 
stroke:#000000; stroke-width:150000.000000; stroke-opacity:1; 
stroke-linecap:round; stroke-linejoin:round;">
<path d="M60000000 12000000
L60000000 10000000
" />
</g>
<g style="fill:#000000; fill-opacity:0.0; 
stroke:#000000; stroke-width:21200.000000; stroke-opacity:1; 
stroke-linecap:round; stroke-linejoin:round;">
</g>
<g style="fill:#000000; fill-opacity:0.0; 
stroke:#000000; stroke-width:150000.000000; stroke-opacity:1; 
stroke-linecap:round; stroke-linejoin:round;">
<path d="M110000000 12000000
L110000000 10000000
" />
</g>
<g style="fill:#000000; fill-opacity:0.0; 
stroke:#000000; stroke-width:21200.000000; stroke-opacity:1; 
stroke-linecap:round; stroke-linejoin:round;">
</g>
<g style="fill:#000000; fill-opacity:0.0; 
stroke:#000000; stroke-width:150000.000000; stroke-opacity:1; 
stroke-linecap:round; stroke-linejoin:round;">
<path d="M160000000 12000000
L160000000 10000000
" />
</g>
<g style="fill:#000000; fill-opacity:0.0; 
stroke:#000000; stroke-width:21200.000000; stroke-opacity:1; 
stroke-linecap:round; stroke-linejoin:round;">
</g>
<g style="fill:#000000; fill-opacity:0.0; 
stroke:#000000; stroke-width:150000.000000; stroke-opacity:1; 
stroke-linecap:round; stroke-linejoin:round;">
<path d="M210000000 12000000
L210000000 10000000
" />
</g>
<g style="fill:#000000; fill-opacity:0.0; 
stroke:#000000; stroke-width:21200.000000; stroke-opacity:1; 
stroke-linecap:round; stroke-linejoin:round;">
</g>
<g style="fill:#000000; fill-opacity:0.0; 
stroke:#000000; stroke-width:150000.000000; stroke-opacity:1; 
stroke-linecap:round; stroke-linejoin:round;">
<path d="M260000000 12000000
L260000000 10000000
" />
</g>
<g style="fill:#000000; fill-opacity:0.0; 
stroke:#000000; stroke-width:21200.000000; stroke-opacity:1; 
stroke-linecap:round; stroke-linejoin:round;">
</g>
<g style="fill:#000000; fill-opacity:0.0; 
stroke:#000000; stroke-width:150000.000000; stroke-opacity:1; 
stroke-linecap:round; stroke-linejoin:round;">
<text x="35000000.000000" y="11650000.000000"
textLength="1388095.000000" font-size="1733333.000000" lengthAdjust="spacingAndGlyphs"
text-anchor="start" opacity="0">1</text>
<g class="stroked-text"><desc>1</desc>
<path d="M36065476 11588095
L35322619 11588095
" />
<path d="M35694047 11588095
L35694047 10288095
L35570238 10473809
L35446428 10597619
L35322619 10659523
" />
</g></g>
<g style="fill:#000000; fill-opacity:0.0; 
stroke:#000000; stroke-width:21200.000000; stroke-opacity:1; 
stroke-linecap:round; stroke-linejoin:round;">
</g>
<g style="fill:#000000; fill-opacity:0.0; 
stroke:#000000; stroke-width:150000.000000; stroke-opacity:1; 
stroke-linecap:round; stroke-linejoin:round;">
<text x="85000000.000000" y="11650000.000000"
textLength="1388095.000000" font-size="1733333.000000" lengthAdjust="spacingAndGlyphs"
text-anchor="start" opacity="0">2</text>
<g class="stroked-text"><desc>2</desc>
<path d="M85322619 10411904
L85384523 10350000
L85508333 10288095
L85817857 10288095
L85941666 10350000
L86003571 10411904
L86065476 10535714
L86065476 10659523
L86003571 10845238
L85260714 11588095
L86065476 11588095
" />
</g></g>
<g style="fill:#000000; fill-opacity:0.0; 
stroke:#000000; stroke-width:21200.000000; stroke-opacity:1; 
stroke-linecap:round; stroke-linejoin:round;">
</g>
<g style="fill:#000000; fill-opacity:0.0; 
stroke:#000000; stroke-width:150000.000000; stroke-opacity:1; 
stroke-linecap:round; stroke-linejoin:round;">
<text x="135000000.000000" y="11650000.000000"
textLength="1388095.000000" font-size="1733333.000000" lengthAdjust="spacingAndGlyphs"
text-anchor="start" opacity="0">3</text>
<g class="stroked-text"><desc>3</desc>
<path d="M135260714 10288095
L136065476 10288095
L135632142 10783333
L135817857 10783333
L135941666 10845238
L136003571 10907142
L136065476 11030952
L136065476 11340476
L136003571 11464285
L135941666 11526190
L135817857 11588095
L135446428 11588095
L135322619 11526190
L135260714 11464285
" />
</g></g>
<g style="fill:#000000; fill-opacity:0.0; 
stroke:#000000; stroke-width:21200.000000; stroke-opacity:1; 
stroke-linecap:round; stroke-linejoin:round;">
</g>
<g style="fill:#000000; fill-opacity:0.0; 
stroke:#000000; stroke-width:150000.000000; stroke-opacity:1; 
stroke-linecap:round; stroke-linejoin:round;">
<text x="185000000.000000" y="11650000.000000"
textLength="1388095.000000" font-size="1733333.000000" lengthAdjust="spacingAndGlyphs"
text-anchor="start" opacity="0">4</text>
<g class="stroked-text"><desc>4</desc>
<path d="M185941666 10721428
L185941666 11588095
" />
<path d="M185632142 10226190
L185322619 11154761
L186127380 11154761
" />
</g></g>
<g style="fill:#000000; fill-opacity:0.0; 
stroke:#000000; stroke-width:21200.000000; stroke-opacity:1; 
stroke-linecap:round; stroke-linejoin:round;">
</g>
<g style="fill:#000000; fill-opacity:0.0; 
stroke:#000000; stroke-width:150000.000000; stroke-opacity:1; 
stroke-linecap:round; stroke-linejoin:round;">
<text x="235000000.000000" y="11650000.000000"
textLength="1388095.000000" font-size="1733333.000000" lengthAdjust="spacingAndGlyphs"
text-anchor="start" opacity="0">5</text>
<g class="stroked-text"><desc>5</desc>
<path d="M236003571 10288095
L235384523 10288095
L235322619 10907142
L235384523 10845238
L235508333 10783333
L235817857 10783333
L235941666 10845238
L236003571 10907142
L236065476 11030952
L236065476 11340476
L236003571 11464285
L235941666 11526190
L235817857 11588095
L235508333 11588095
L235384523 11526190
L235322619 11464285
" />
</g></g>
<g style="fill:#000000; fill-opacity:0.0; 
stroke:#000000; stroke-width:21200.000000; stroke-opacity:1; 
stroke-linecap:round; stroke-linejoin:round;">
</g>
<g style="fill:#000000; fill-opacity:0.0; 
stroke:#000000; stroke-width:150000.000000; stroke-opacity:1; 
stroke-linecap:round; stroke-linejoin:round;">
<text x="285000000.000000" y="11650000.000000"
textLength="1388095.000000" font-size="1733333.000000" lengthAdjust="spacingAndGlyphs"
text-anchor="start" opacity="0">6</text>
<g class="stroked-text"><desc>6</desc>
<path d="M285941666 10288095
L285694047 10288095
L285570238 10350000
L285508333 10411904
L285384523 10597619
L285322619 10845238
L285322619 11340476
L285384523 11464285
L285446428 11526190
L285570238 11588095
L285817857 11588095
L285941666 11526190
L286003571 11464285
L286065476 11340476
L286065476 11030952
L286003571 10907142
L285941666 10845238
L285817857 10783333
L285570238 10783333
L285446428 10845238
L285384523 10907142
L285322619 11030952
" />
</g></g>
<g style="fill:#000000; fill-opacity:0.0; 
stroke:#000000; stroke-width:21200.000000; stroke-opacity:1; 
stroke-linecap:round; stroke-linejoin:round;">
</g>
<g style="fill:#000000; fill-opacity:0.0; 
stroke:#000000; stroke-width:150000.000000; stroke-opacity:1; 
stroke-linecap:round; stroke-linejoin:round;">
<path d="M60000000 198007200
L60000000 200007200
" />
</g>
<g style="fill:#000000; fill-opacity:0.0; 
stroke:#000000; stroke-width:21200.000000; stroke-opacity:1; 
stroke-linecap:round; stroke-linejoin:round;">
</g>
<g style="fill:#000000; fill-opacity:0.0; 
stroke:#000000; stroke-width:150000.000000; stroke-opacity:1; 
stroke-linecap:round; stroke-linejoin:round;">
<path d="M110000000 198007200
L110000000 200007200
" />
</g>
<g style="fill:#000000; fill-opacity:0.0; 
stroke:#000000; stroke-width:21200.000000; stroke-opacity:1; 
stroke-linecap:round; stroke-linejoin:round;">
</g>
<g style="fill:#000000; fill-opacity:0.0; 
stroke:#000000; stroke-width:150000.000000; stroke-opacity:1; 
stroke-linecap:round; stroke-linejoin:round;">
<path d="M160000000 198007200
L160000000 200007200
" />
</g>
<g style="fill:#000000; fill-opacity:0.0; 
stroke:#000000; stroke-width:21200.000000; stroke-opacity:1; 
stroke-linecap:round; stroke-linejoin:round;">
</g>
<g style="fill:#000000; fill-opacity:0.0; 
stroke:#000000; stroke-width:150000.000000; stroke-opacity:1; 
stroke-linecap:round; stroke-linejoin:round;">
<path d="M210000000 198007200
L210000000 200007200
" />
</g>
<g style="fill:#000000; fill-opacity:0.0; 
stroke:#000000; stroke-width:21200.000000; stroke-opacity:1; 
stroke-linecap:round; stroke-linejoin:round;">
</g>
<g style="fill:#000000; fill-opacity:0.0; 
stroke:#000000; stroke-width:150000.000000; stroke-opacity:1; 
stroke-linecap:round; stroke-linejoin:round;">
<path d="M260000000 198007200
L260000000 200007200
" />
</g>
<g style="fill:#000000; fill-opacity:0.0; 
stroke:#000000; stroke-width:21200.000000; stroke-opacity:1; 
stroke-linecap:round; stroke-linejoin:round;">
</g>
<g style="fill:#000000; fill-opacity:0.0; 
stroke:#000000; stroke-width:150000.000000; stroke-opacity:1; 
stroke-linecap:round; stroke-linejoin:round;">
<text x="35000000.000000" y="199657200.000000"
textLength="1388095.000000" font-size="1733333.000000" lengthAdjust="spacingAndGlyphs"
text-anchor="start" opacity="0">1</text>
<g class="stroked-text"><desc>1</desc>
<path d="M36065476 199595295
L35322619 199595295
" />
<path d="M35694047 199595295
L35694047 198295295
L35570238 198481009
L35446428 198604819
L35322619 198666723
" />
</g></g>
<g style="fill:#000000; fill-opacity:0.0; 
stroke:#000000; stroke-width:21200.000000; stroke-opacity:1; 
stroke-linecap:round; stroke-linejoin:round;">
</g>
<g style="fill:#000000; fill-opacity:0.0; 
stroke:#000000; stroke-width:150000.000000; stroke-opacity:1; 
stroke-linecap:round; stroke-linejoin:round;">
<text x="85000000.000000" y="199657200.000000"
textLength="1388095.000000" font-size="1733333.000000" lengthAdjust="spacingAndGlyphs"
text-anchor="start" opacity="0">2</text>
<g class="stroked-text"><desc>2</desc>
<path d="M85322619 198419104
L85384523 198357200
L85508333 198295295
L85817857 198295295
L85941666 198357200
L86003571 198419104
L86065476 198542914
L86065476 198666723
L86003571 198852438
L85260714 199595295
L86065476 199595295
" />
</g></g>
<g style="fill:#000000; fill-opacity:0.0; 
stroke:#000000; stroke-width:21200.000000; stroke-opacity:1; 
stroke-linecap:round; stroke-linejoin:round;">
</g>
<g style="fill:#000000; fill-opacity:0.0; 
stroke:#000000; stroke-width:150000.000000; stroke-opacity:1; 
stroke-linecap:round; stroke-linejoin:round;">
<text x="135000000.000000" y="199657200.000000"
textLength="1388095.000000" font-size="1733333.000000" lengthAdjust="spacingAndGlyphs"
text-anchor="start" opacity="0">3</text>
<g class="stroked-text"><desc>3</desc>
<path d="M135260714 198295295
L136065476 198295295
L135632142 198790533
L135817857 198790533
L135941666 198852438
L136003571 198914342
L136065476 199038152
L136065476 199347676
L136003571 199471485
L135941666 199533390
L135817857 199595295
L135446428 199595295
L135322619 199533390
L135260714 199471485
" />
</g></g>
<g style="fill:#000000; fill-opacity:0.0; 
stroke:#000000; stroke-width:21200.000000; stroke-opacity:1; 
stroke-linecap:round; stroke-linejoin:round;">
</g>
<g style="fill:#000000; fill-opacity:0.0; 
stroke:#000000; stroke-width:150000.000000; stroke-opacity:1; 
stroke-linecap:round; stroke-linejoin:round;">
<text x="185000000.000000" y="199657200.000000"
textLength="1388095.000000" font-size="1733333.000000" lengthAdjust="spacingAndGlyphs"
text-anchor="start" opacity="0">4</text>
<g class="stroked-text"><desc>4</desc>
<path d="M185941666 198728628
L185941666 199595295
" />
<path d="M185632142 198233390
L185322619 199161961
L186127380 199161961
" />
</g></g>
<g style="fill:#000000; fill-opacity:0.0; 
stroke:#000000; stroke-width:21200.000000; stroke-opacity:1; 
stroke-linecap:round; stroke-linejoin:round;">
</g>
<g style="fill:#000000; fill-opacity:0.0; 
stroke:#000000; stroke-width:150000.000000; stroke-opacity:1; 
stroke-linecap:round; stroke-linejoin:round;">
<text x="235000000.000000" y="199657200.000000"
textLength="1388095.000000" font-size="1733333.000000" lengthAdjust="spacingAndGlyphs"
text-anchor="start" opacity="0">5</text>
<g class="stroked-text"><desc>5</desc>
<path d="M236003571 198295295
L235384523 198295295
L235322619 198914342
L235384523 198852438
L235508333 198790533
L235817857 198790533
L235941666 198852438
L236003571 198914342
L236065476 199038152
L236065476 199347676
L236003571 199471485
L235941666 199533390
L235817857 199595295
L235508333 199595295
L235384523 199533390
L235322619 199471485
" />
</g></g>
<g style="fill:#000000; fill-opacity:0.0; 
stroke:#000000; stroke-width:21200.000000; stroke-opacity:1; 
stroke-linecap:round; stroke-linejoin:round;">
</g>
<g style="fill:#000000; fill-opacity:0.0; 
stroke:#000000; stroke-width:150000.000000; stroke-opacity:1; 
stroke-linecap:round; stroke-linejoin:round;">
<text x="285000000.000000" y="199657200.000000"
textLength="1388095.000000" font-size="1733333.000000" lengthAdjust="spacingAndGlyphs"
text-anchor="start" opacity="0">6</text>
<g class="stroked-text"><desc>6</desc>
<path d="M285941666 198295295
L285694047 198295295
L285570238 198357200
L285508333 198419104
L285384523 198604819
L285322619 198852438
L285322619 199347676
L285384523 199471485
L285446428 199533390
L285570238 199595295
L285817857 199595295
L285941666 199533390
L286003571 199471485
L286065476 199347676
L286065476 199038152
L286003571 198914342
L285941666 198852438
L285817857 198790533
L285570238 198790533
L285446428 198852438
L285384523 198914342
L285322619 199038152
" />
</g></g>
<g style="fill:#000000; fill-opacity:0.0; 
stroke:#000000; stroke-width:21200.000000; stroke-opacity:1; 
stroke-linecap:round; stroke-linejoin:round;">
</g>
<g style="fill:#000000; fill-opacity:0.0; 
stroke:#000000; stroke-width:150000.000000; stroke-opacity:1; 
stroke-linecap:round; stroke-linejoin:round;">
<path d="M10000000 60000000
L12000000 60000000
" />
</g>
<g style="fill:#000000; fill-opacity:0.0; 
stroke:#000000; stroke-width:21200.000000; stroke-opacity:1; 
stroke-linecap:round; stroke-linejoin:round;">
</g>
<g style="fill:#000000; fill-opacity:0.0; 
stroke:#000000; stroke-width:150000.000000; stroke-opacity:1; 
stroke-linecap:round; stroke-linejoin:round;">
<path d="M10000000 110000000
L12000000 110000000
" />
</g>
<g style="fill:#000000; fill-opacity:0.0; 
stroke:#000000; stroke-width:21200.000000; stroke-opacity:1; 
stroke-linecap:round; stroke-linejoin:round;">
</g>
<g style="fill:#000000; fill-opacity:0.0; 
stroke:#000000; stroke-width:150000.000000; stroke-opacity:1; 
stroke-linecap:round; stroke-linejoin:round;">
<path d="M10000000 160000000
L12000000 160000000
" />
</g>
<g style="fill:#000000; fill-opacity:0.0; 
stroke:#000000; stroke-width:21200.000000; stroke-opacity:1; 
stroke-linecap:round; stroke-linejoin:round;">
</g>
<g style="fill:#000000; fill-opacity:0.0; 
stroke:#000000; stroke-width:150000.000000; stroke-opacity:1; 
stroke-linecap:round; stroke-linejoin:round;">
<text x="11000000.000000" y="35650000.000000"
textLength="1264286.000000" font-size="1733333.000000" lengthAdjust="spacingAndGlyphs"
text-anchor="middle" opacity="0">A</text>
<g class="stroked-text"><desc>A</desc>
<path d="M10690476 35216666
L11309523 35216666
" />
<path d="M10566666 35588095
L11000000 34288095
L11433333 35588095
" />
</g></g>
<g style="fill:#000000; fill-opacity:0.0; 
stroke:#000000; stroke-width:21200.000000; stroke-opacity:1; 
stroke-linecap:round; stroke-linejoin:round;">
</g>
<g style="fill:#000000; fill-opacity:0.0; 
stroke:#000000; stroke-width:150000.000000; stroke-opacity:1; 
stroke-linecap:round; stroke-linejoin:round;">
<text x="11000000.000000" y="85650000.000000"
textLength="1450000.000000" font-size="1733333.000000" lengthAdjust="spacingAndGlyphs"
text-anchor="middle" opacity="0">B</text>
<g class="stroked-text"><desc>B</desc>
<path d="M11092857 84907142
L11278571 84969047
L11340476 85030952
L11402380 85154761
L11402380 85340476
L11340476 85464285
L11278571 85526190
L11154761 85588095
L10659523 85588095
L10659523 84288095
L11092857 84288095
L11216666 84350000
L11278571 84411904
L11340476 84535714
L11340476 84659523
L11278571 84783333
L11216666 84845238
L11092857 84907142
L10659523 84907142
" />
</g></g>
<g style="fill:#000000; fill-opacity:0.0; 
stroke:#000000; stroke-width:21200.000000; stroke-opacity:1; 
stroke-linecap:round; stroke-linejoin:round;">
</g>
<g style="fill:#000000; fill-opacity:0.0; 
stroke:#000000; stroke-width:150000.000000; stroke-opacity:1; 
stroke-linecap:round; stroke-linejoin:round;">
<text x="11000000.000000" y="135650000.000000"
textLength="1450000.000000" font-size="1733333.000000" lengthAdjust="spacingAndGlyphs"
text-anchor="middle" opacity="0">C</text>
<g class="stroked-text"><desc>C</desc>
<path d="M11402380 135464285
L11340476 135526190
L11154761 135588095
L11030952 135588095
L10845238 135526190
L10721428 135402380
L10659523 135278571
L10597619 135030952
L10597619 134845238
L10659523 134597619
L10721428 134473809
L10845238 134350000
L11030952 134288095
L11154761 134288095
L11340476 134350000
L11402380 134411904
" />
</g></g>
<g style="fill:#000000; fill-opacity:0.0; 
stroke:#000000; stroke-width:21200.000000; stroke-opacity:1; 
stroke-linecap:round; stroke-linejoin:round;">
</g>
<g style="fill:#000000; fill-opacity:0.0; 
stroke:#000000; stroke-width:150000.000000; stroke-opacity:1; 
stroke-linecap:round; stroke-linejoin:round;">
<text x="11000000.000000" y="185650000.000000"
textLength="1450000.000000" font-size="1733333.000000" lengthAdjust="spacingAndGlyphs"
text-anchor="middle" opacity="0">D</text>
<g class="stroked-text"><desc>D</desc>
<path d="M10659523 185588095
L10659523 184288095
L10969047 184288095
L11154761 184350000
L11278571 184473809
L11340476 184597619
L11402380 184845238
L11402380 185030952
L11340476 185278571
L11278571 185402380
L11154761 185526190
L10969047 185588095
L10659523 185588095
" />
</g></g>
<g style="fill:#000000; fill-opacity:0.0; 
stroke:#000000; stroke-width:21200.000000; stroke-opacity:1; 
stroke-linecap:round; stroke-linejoin:round;">
</g>
<g style="fill:#000000; fill-opacity:0.0; 
stroke:#000000; stroke-width:150000.000000; stroke-opacity:1; 
stroke-linecap:round; stroke-linejoin:round;">
<path d="M287002200 60000000
L285002200 60000000
" />
</g>
<g style="fill:#000000; fill-opacity:0.0; 
stroke:#000000; stroke-width:21200.000000; stroke-opacity:1; 
stroke-linecap:round; stroke-linejoin:round;">
</g>
<g style="fill:#000000; fill-opacity:0.0; 
stroke:#000000; stroke-width:150000.000000; stroke-opacity:1; 
stroke-linecap:round; stroke-linejoin:round;">
<path d="M287002200 110000000
L285002200 110000000
" />
</g>
<g style="fill:#000000; fill-opacity:0.0; 
stroke:#000000; stroke-width:21200.000000; stroke-opacity:1; 
stroke-linecap:round; stroke-linejoin:round;">
</g>
<g style="fill:#000000; fill-opacity:0.0; 
stroke:#000000; stroke-width:150000.000000; stroke-opacity:1; 
stroke-linecap:round; stroke-linejoin:round;">
<path d="M287002200 160000000
L285002200 160000000
" />
</g>
<g style="fill:#000000; fill-opacity:0.0; 
stroke:#000000; stroke-width:21200.000000; stroke-opacity:1; 
stroke-linecap:round; stroke-linejoin:round;">
</g>
<g style="fill:#000000; fill-opacity:0.0; 
stroke:#000000; stroke-width:150000.000000; stroke-opacity:1; 
stroke-linecap:round; stroke-linejoin:round;">
<text x="286002200.000000" y="35650000.000000"
textLength="1264286.000000" font-size="1733333.000000" lengthAdjust="spacingAndGlyphs"
text-anchor="middle" opacity="0">A</text>
<g class="stroked-text"><desc>A</desc>
<path d="M285692676 35216666
L286311723 35216666
" />
<path d="M285568866 35588095
L286002200 34288095
L286435533 35588095
" />
</g></g>
<g style="fill:#000000; fill-opacity:0.0; 
stroke:#000000; stroke-width:21200.000000; stroke-opacity:1; 
stroke-linecap:round; stroke-linejoin:round;">
</g>
<g style="fill:#000000; fill-opacity:0.0; 
stroke:#000000; stroke-width:150000.000000; stroke-opacity:1; 
stroke-linecap:round; stroke-linejoin:round;">
<text x="286002200.000000" y="85650000.000000"
textLength="1450000.000000" font-size="1733333.000000" lengthAdjust="spacingAndGlyphs"
text-anchor="middle" opacity="0">B</text>
<g class="stroked-text"><desc>B</desc>
<path d="M286095057 84907142
L286280771 84969047
L286342676 85030952
L286404580 85154761
L286404580 85340476
L286342676 85464285
L286280771 85526190
L286156961 85588095
L285661723 85588095
L285661723 84288095
L286095057 84288095
L286218866 84350000
L286280771 84411904
L286342676 84535714
L286342676 84659523
L286280771 84783333
L286218866 84845238
L286095057 84907142
L285661723 84907142
" />
</g></g>
<g style="fill:#000000; fill-opacity:0.0; 
stroke:#000000; stroke-width:21200.000000; stroke-opacity:1; 
stroke-linecap:round; stroke-linejoin:round;">
</g>
<g style="fill:#000000; fill-opacity:0.0; 
stroke:#000000; stroke-width:150000.000000; stroke-opacity:1; 
stroke-linecap:round; stroke-linejoin:round;">
<text x="286002200.000000" y="135650000.000000"
textLength="1450000.000000" font-size="1733333.000000" lengthAdjust="spacingAndGlyphs"
text-anchor="middle" opacity="0">C</text>
<g class="stroked-text"><desc>C</desc>
<path d="M286404580 135464285
L286342676 135526190
L286156961 135588095
L286033152 135588095
L285847438 135526190
L285723628 135402380
L285661723 135278571
L285599819 135030952
L285599819 134845238
L285661723 134597619
L285723628 134473809
L285847438 134350000
L286033152 134288095
L286156961 134288095
L286342676 134350000
L286404580 134411904
" />
</g></g>
<g style="fill:#000000; fill-opacity:0.0; 
stroke:#000000; stroke-width:21200.000000; stroke-opacity:1; 
stroke-linecap:round; stroke-linejoin:round;">
</g>
<g style="fill:#000000; fill-opacity:0.0; 
stroke:#000000; stroke-width:150000.000000; stroke-opacity:1; 
stroke-linecap:round; stroke-linejoin:round;">
<text x="286002200.000000" y="185650000.000000"
textLength="1450000.000000" font-size="1733333.000000" lengthAdjust="spacingAndGlyphs"
text-anchor="middle" opacity="0">D</text>
<g class="stroked-text"><desc>D</desc>
<path d="M285661723 185588095
L285661723 184288095
L285971247 184288095
L286156961 184350000
L286280771 184473809
L286342676 184597619
L286404580 184845238
L286404580 185030952
L286342676 185278571
L286280771 185402380
L286156961 185526190
L285971247 185588095
L285661723 185588095
" />
</g></g>
<g style="fill:#000000; fill-opacity:0.0; 
stroke:#000000; stroke-width:21200.000000; stroke-opacity:1; 
stroke-linecap:round; stroke-linejoin:round;">
</g>
<g style="fill:#000000; fill-opacity:0.0; 
stroke:#000000; stroke-width:150000.000000; stroke-opacity:1; 
stroke-linecap:round; stroke-linejoin:round;">
<text x="200002200.000000" y="193857200.000000"
textLength="7007143.000000" font-size="2000000.000000" lengthAdjust="spacingAndGlyphs"
text-anchor="start" opacity="0">Date: </text>
<g class="stroked-text"><desc>Date: </desc>
<path d="M200434342 193785771
L200434342 192285771
L200791485 192285771
L201005771 192357200
L201148628 192500057
L201220057 192642914
L201291485 192928628
L201291485 193142914
L201220057 193428628
L201148628 193571485
L201005771 193714342
L200791485 193785771
L200434342 193785771
" />
<path d="M202577200 193785771
L202577200 193000057
L202505771 192857200
L202362914 192785771
L202077200 192785771
L201934342 192857200
" />
<path d="M202577200 193714342
L202434342 193785771
L202077200 193785771
L201934342 193714342
L201862914 193571485
L201862914 193428628
L201934342 193285771
L202077200 193214342
L202434342 193214342
L202577200 193142914
" />
<path d="M203077200 192785771
L203648628 192785771
" />
<path d="M203291485 192285771
L203291485 193571485
L203362914 193714342
L203505771 193785771
L203648628 193785771
" />
<path d="M204720057 193714342
L204577200 193785771
L204291485 193785771
L204148628 193714342
L204077200 193571485
L204077200 193000057
L204148628 192857200
L204291485 192785771
L204577200 192785771
L204720057 192857200
L204791485 193000057
L204791485 193142914
L204077200 193285771
" />
<path d="M205434342 193642914
L205505771 193714342
L205434342 193785771
L205362914 193714342
L205434342 193642914
L205434342 193785771
" />
<path d="M205434342 192857200
L205505771 192928628
L205434342 193000057
L205362914 192928628
L205434342 192857200
L205434342 193000057
" />
</g></g>
<g style="fill:#000000; fill-opacity:0.0; 
stroke:#000000; stroke-width:21200.000000; stroke-opacity:1; 
stroke-linecap:round; stroke-linejoin:round;">
</g>
<g style="fill:#000000; fill-opacity:0.0; 
stroke:#000000; stroke-width:150000.000000; stroke-opacity:1; 
stroke-linecap:round; stroke-linejoin:round;">
<path d="M177002200 194507200
L285002200 194507200
" />
</g>
<g style="fill:#000000; fill-opacity:0.0; 
stroke:#000000; stroke-width:21200.000000; stroke-opacity:1; 
stroke-linecap:round; stroke-linejoin:round;">
</g>
<g style="fill:#000000; fill-opacity:0.0; 
stroke:#000000; stroke-width:150000.000000; stroke-opacity:1; 
stroke-linecap:round; stroke-linejoin:round;">
<text x="178002200.000000" y="196657200.000000"
textLength="33364286.000000" font-size="2000000.000000" lengthAdjust="spacingAndGlyphs"
text-anchor="start" opacity="0">KiCad E.D.A.  pcbnew (6.0.9)</text>
<g class="stroked-text"><desc>KiCad E.D.A.  pcbnew (6.0.9)</desc>
<path d="M178434342 196585771
L178434342 195085771
" />
<path d="M179291485 196585771
L178648628 195728628
" />
<path d="M179291485 195085771
L178434342 195942914
" />
<path d="M179934342 196585771
L179934342 195585771
" />
<path d="M179934342 195085771
L179862914 195157200
L179934342 195228628
L180005771 195157200
L179934342 195085771
L179934342 195228628
" />
<path d="M181505771 196442914
L181434342 196514342
L181220057 196585771
L181077200 196585771
L180862914 196514342
L180720057 196371485
L180648628 196228628
L180577200 195942914
L180577200 195728628
L180648628 195442914
L180720057 195300057
L180862914 195157200
L181077200 195085771
L181220057 195085771
L181434342 195157200
L181505771 195228628
" />
<path d="M182791485 196585771
L182791485 195800057
L182720057 195657200
L182577200 195585771
L182291485 195585771
L182148628 195657200
" />
<path d="M182791485 196514342
L182648628 196585771
L182291485 196585771
L182148628 196514342
L182077200 196371485
L182077200 196228628
L182148628 196085771
L182291485 196014342
L182648628 196014342
L182791485 195942914
" />
<path d="M184148628 196585771
L184148628 195085771
" />
<path d="M184148628 196514342
L184005771 196585771
L183720057 196585771
L183577200 196514342
L183505771 196442914
L183434342 196300057
L183434342 195871485
L183505771 195728628
L183577200 195657200
L183720057 195585771
L184005771 195585771
L184148628 195657200
" />
<path d="M186005771 195800057
L186505771 195800057
" />
<path d="M186720057 196585771
L186005771 196585771
L186005771 195085771
L186720057 195085771
" />
<path d="M187362914 196442914
L187434342 196514342
L187362914 196585771
L187291485 196514342
L187362914 196442914
L187362914 196585771
" />
<path d="M188077200 196585771
L188077200 195085771
L188434342 195085771
L188648628 195157200
L188791485 195300057
L188862914 195442914
L188934342 195728628
L188934342 195942914
L188862914 196228628
L188791485 196371485
L188648628 196514342
L188434342 196585771
L188077200 196585771
" />
<path d="M189577200 196442914
L189648628 196514342
L189577200 196585771
L189505771 196514342
L189577200 196442914
L189577200 196585771
" />
<path d="M190220057 196157200
L190934342 196157200
" />
<path d="M190077200 196585771
L190577200 195085771
L191077200 196585771
" />
<path d="M191577200 196442914
L191648628 196514342
L191577200 196585771
L191505771 196514342
L191577200 196442914
L191577200 196585771
" />
<path d="M194577200 195585771
L194577200 197085771
" />
<path d="M194577200 195657200
L194720057 195585771
L195005771 195585771
L195148628 195657200
L195220057 195728628
L195291485 195871485
L195291485 196300057
L195220057 196442914
L195148628 196514342
L195005771 196585771
L194720057 196585771
L194577200 196514342
" />
<path d="M196577200 196514342
L196434342 196585771
L196148628 196585771
L196005771 196514342
L195934342 196442914
L195862914 196300057
L195862914 195871485
L195934342 195728628
L196005771 195657200
L196148628 195585771
L196434342 195585771
L196577200 195657200
" />
<path d="M197220057 196585771
L197220057 195085771
" />
<path d="M197220057 195657200
L197362914 195585771
L197648628 195585771
L197791485 195657200
L197862914 195728628
L197934342 195871485
L197934342 196300057
L197862914 196442914
L197791485 196514342
L197648628 196585771
L197362914 196585771
L197220057 196514342
" />
<path d="M198577200 195585771
L198577200 196585771
" />
<path d="M198577200 195728628
L198648628 195657200
L198791485 195585771
L199005771 195585771
L199148628 195657200
L199220057 195800057
L199220057 196585771
" />
<path d="M200505771 196514342
L200362914 196585771
L200077200 196585771
L199934342 196514342
L199862914 196371485
L199862914 195800057
L199934342 195657200
L200077200 195585771
L200362914 195585771
L200505771 195657200
L200577200 195800057
L200577200 195942914
L199862914 196085771
" />
<path d="M201077200 195585771
L201362914 196585771
L201648628 195871485
L201934342 196585771
L202220057 195585771
" />
<path d="M204362914 197157200
L204291485 197085771
L204148628 196871485
L204077200 196728628
L204005771 196514342
L203934342 196157200
L203934342 195871485
L204005771 195514342
L204077200 195300057
L204148628 195157200
L204291485 194942914
L204362914 194871485
" />
<path d="M205577200 195085771
L205291485 195085771
L205148628 195157200
L205077200 195228628
L204934342 195442914
L204862914 195728628
L204862914 196300057
L204934342 196442914
L205005771 196514342
L205148628 196585771
L205434342 196585771
L205577200 196514342
L205648628 196442914
L205720057 196300057
L205720057 195942914
L205648628 195800057
L205577200 195728628
L205434342 195657200
L205148628 195657200
L205005771 195728628
L204934342 195800057
L204862914 195942914
" />
<path d="M206362914 196442914
L206434342 196514342
L206362914 196585771
L206291485 196514342
L206362914 196442914
L206362914 196585771
" />
<path d="M207362914 195085771
L207505771 195085771
L207648628 195157200
L207720057 195228628
L207791485 195371485
L207862914 195657200
L207862914 196014342
L207791485 196300057
L207720057 196442914
L207648628 196514342
L207505771 196585771
L207362914 196585771
L207220057 196514342
L207148628 196442914
L207077200 196300057
L207005771 196014342
L207005771 195657200
L207077200 195371485
L207148628 195228628
L207220057 195157200
L207362914 195085771
" />
<path d="M208505771 196442914
L208577200 196514342
L208505771 196585771
L208434342 196514342
L208505771 196442914
L208505771 196585771
" />
<path d="M209291485 196585771
L209577200 196585771
L209720057 196514342
L209791485 196442914
L209934342 196228628
L210005771 195942914
L210005771 195371485
L209934342 195228628
L209862914 195157200
L209720057 195085771
L209434342 195085771
L209291485 195157200
L209220057 195228628
L209148628 195371485
L209148628 195728628
L209220057 195871485
L209291485 195942914
L209434342 196014342
L209720057 196014342
L209862914 195942914
L209934342 195871485
L210005771 195728628
" />
<path d="M210505771 197157200
L210577200 197085771
L210720057 196871485
L210791485 196728628
L210862914 196514342
L210934342 196157200
L210934342 195871485
L210862914 195514342
L210791485 195300057
L210720057 195157200
L210577200 194942914
L210505771 194871485
" />
</g></g>
<g style="fill:#000000; fill-opacity:0.0; 
stroke:#000000; stroke-width:21200.000000; stroke-opacity:1; 
stroke-linecap:round; stroke-linejoin:round;">
</g>
<g style="fill:#000000; fill-opacity:0.0; 
stroke:#000000; stroke-width:150000.000000; stroke-opacity:1; 
stroke-linecap:round; stroke-linejoin:round;">
<path d="M177002200 191507200
L285002200 191507200
" />
</g>
<g style="fill:#000000; fill-opacity:0.0; 
stroke:#000000; stroke-width:21200.000000; stroke-opacity:1; 
stroke-linecap:round; stroke-linejoin:round;">
</g>
<g style="fill:#000000; fill-opacity:0.0; 
stroke:#000000; stroke-width:300000.000000; stroke-opacity:1; 
stroke-linecap:round; stroke-linejoin:round;">
<text x="263002200.000000" y="193857200.000000"
textLength="5935714.000000" font-size="2000000.000000" lengthAdjust="spacingAndGlyphs"
text-anchor="start" opacity="0">Rev: </text>
<g class="stroked-text"><desc>Rev: </desc>
<path d="M264411485 193785771
L263911485 193071485
" />
<path d="M263554342 193785771
L263554342 192285771
L264125771 192285771
L264268628 192357200
L264340057 192428628
L264411485 192571485
L264411485 192785771
L264340057 192928628
L264268628 193000057
L264125771 193071485
L263554342 193071485
" />
<path d="M265625771 193714342
L265482914 193785771
L265197200 193785771
L265054342 193714342
L264982914 193571485
L264982914 193000057
L265054342 192857200
L265197200 192785771
L265482914 192785771
L265625771 192857200
L265697200 193000057
L265697200 193142914
L264982914 193285771
" />
<path d="M266197200 192785771
L266554342 193785771
L266911485 192785771
" />
<path d="M267482914 193642914
L267554342 193714342
L267482914 193785771
L267411485 193714342
L267482914 193642914
L267482914 193785771
" />
<path d="M267482914 192857200
L267554342 192928628
L267482914 193000057
L267411485 192928628
L267482914 192857200
L267482914 193000057
" />
</g></g>
<g style="fill:#000000; fill-opacity:0.0; 
stroke:#000000; stroke-width:21200.000000; stroke-opacity:1; 
stroke-linecap:round; stroke-linejoin:round;">
</g>
<g style="fill:#000000; fill-opacity:0.0; 
stroke:#000000; stroke-width:150000.000000; stroke-opacity:1; 
stroke-linecap:round; stroke-linejoin:round;">
<text x="178002200.000000" y="193857200.000000"
textLength="9604286.000000" font-size="2000000.000000" lengthAdjust="spacingAndGlyphs"
text-anchor="start" opacity="0">Size: A4</text>
<g class="stroked-text"><desc>Size: A4</desc>
<path d="M178362914 193714342
L178577200 193785771
L178934342 193785771
L179077200 193714342
L179148628 193642914
L179220057 193500057
L179220057 193357200
L179148628 193214342
L179077200 193142914
L178934342 193071485
L178648628 193000057
L178505771 192928628
L178434342 192857200
L178362914 192714342
L178362914 192571485
L178434342 192428628
L178505771 192357200
L178648628 192285771
L179005771 192285771
L179220057 192357200
" />
<path d="M179862914 193785771
L179862914 192785771
" />
<path d="M179862914 192285771
L179791485 192357200
L179862914 192428628
L179934342 192357200
L179862914 192285771
L179862914 192428628
" />
<path d="M180434342 192785771
L181220057 192785771
L180434342 193785771
L181220057 193785771
" />
<path d="M182362914 193714342
L182220057 193785771
L181934342 193785771
L181791485 193714342
L181720057 193571485
L181720057 193000057
L181791485 192857200
L181934342 192785771
L182220057 192785771
L182362914 192857200
L182434342 193000057
L182434342 193142914
L181720057 193285771
" />
<path d="M183077200 193642914
L183148628 193714342
L183077200 193785771
L183005771 193714342
L183077200 193642914
L183077200 193785771
" />
<path d="M183077200 192857200
L183148628 192928628
L183077200 193000057
L183005771 192928628
L183077200 192857200
L183077200 193000057
" />
<path d="M184862914 193357200
L185577200 193357200
" />
<path d="M184720057 193785771
L185220057 192285771
L185720057 193785771
" />
<path d="M186862914 192785771
L186862914 193785771
" />
<path d="M186505771 192214342
L186148628 193285771
L187077200 193285771
" />
</g></g>
<g style="fill:#000000; fill-opacity:0.0; 
stroke:#000000; stroke-width:21200.000000; stroke-opacity:1; 
stroke-linecap:round; stroke-linejoin:round;">
</g>
<g style="fill:#000000; fill-opacity:0.0; 
stroke:#000000; stroke-width:150000.000000; stroke-opacity:1; 
stroke-linecap:round; stroke-linejoin:round;">
<text x="263002200.000000" y="196657200.000000"
textLength="8507143.000000" font-size="2000000.000000" lengthAdjust="spacingAndGlyphs"
text-anchor="start" opacity="0">Id: 1/1</text>
<g class="stroked-text"><desc>Id: 1/1</desc>
<path d="M263434342 196585771
L263434342 195085771
" />
<path d="M264791485 196585771
L264791485 195085771
" />
<path d="M264791485 196514342
L264648628 196585771
L264362914 196585771
L264220057 196514342
L264148628 196442914
L264077200 196300057
L264077200 195871485
L264148628 195728628
L264220057 195657200
L264362914 195585771
L264648628 195585771
L264791485 195657200
" />
<path d="M265505771 196442914
L265577200 196514342
L265505771 196585771
L265434342 196514342
L265505771 196442914
L265505771 196585771
" />
<path d="M265505771 195657200
L265577200 195728628
L265505771 195800057
L265434342 195728628
L265505771 195657200
L265505771 195800057
" />
<path d="M268148628 196585771
L267291485 196585771
" />
<path d="M267720057 196585771
L267720057 195085771
L267577200 195300057
L267434342 195442914
L267291485 195514342
" />
<path d="M269862914 195014342
L268577200 196942914
" />
<path d="M271148628 196585771
L270291485 196585771
" />
<path d="M270720057 196585771
L270720057 195085771
L270577200 195300057
L270434342 195442914
L270291485 195514342
" />
</g></g>
<g style="fill:#000000; fill-opacity:0.0; 
stroke:#000000; stroke-width:21200.000000; stroke-opacity:1; 
stroke-linecap:round; stroke-linejoin:round;">
</g>
<g style="fill:#000000; fill-opacity:0.0; 
stroke:#000000; stroke-width:150000.000000; stroke-opacity:1; 
stroke-linecap:round; stroke-linejoin:round;">
<path d="M177002200 187507200
L285002200 187507200
" />
</g>
<g style="fill:#000000; fill-opacity:0.0; 
stroke:#000000; stroke-width:21200.000000; stroke-opacity:1; 
stroke-linecap:round; stroke-linejoin:round;">
</g>
<g style="fill:#000000; fill-opacity:0.0; 
stroke:#000000; stroke-width:400000.000000; stroke-opacity:1; 
stroke-linecap:round; stroke-linejoin:round;">
<text x="178002200.000000" y="190307200.000000"
textLength="9409643.000000" font-size="2666666.000000" lengthAdjust="spacingAndGlyphs"
text-anchor="start" opacity="0">Title: </text>
<g class="stroked-text"><desc>Title: </desc>
<path d="M178714580 188211961
L179857438 188211961
" />
<path d="M179036009 190211961
L179286009 188211961
" />
<path d="M180274104 190211961
L180440771 188878628
" />
<path d="M180524104 188211961
L180416961 188307200
L180500295 188402438
L180607438 188307200
L180524104 188211961
L180500295 188402438
" />
<path d="M181107438 188878628
L181869342 188878628
" />
<path d="M181476485 188211961
L181262200 189926247
L181333628 190116723
L181512200 190211961
L181702676 190211961
" />
<path d="M182655057 190211961
L182476485 190116723
L182405057 189926247
L182619342 188211961
" />
<path d="M184190771 190116723
L183988390 190211961
L183607438 190211961
L183428866 190116723
L183357438 189926247
L183452676 189164342
L183571723 188973866
L183774104 188878628
L184155057 188878628
L184333628 188973866
L184405057 189164342
L184381247 189354819
L183405057 189545295
" />
<path d="M185155057 190021485
L185238390 190116723
L185131247 190211961
L185047914 190116723
L185155057 190021485
L185131247 190211961
" />
<path d="M185286009 188973866
L185369342 189069104
L185262200 189164342
L185178866 189069104
L185286009 188973866
L185262200 189164342
" />
</g></g>
<g style="fill:#000000; fill-opacity:0.0; 
stroke:#000000; stroke-width:21200.000000; stroke-opacity:1; 
stroke-linecap:round; stroke-linejoin:round;">
</g>
<g style="fill:#000000; fill-opacity:0.0; 
stroke:#000000; stroke-width:150000.000000; stroke-opacity:1; 
stroke-linecap:round; stroke-linejoin:round;">
<text x="178002200.000000" y="186457200.000000"
textLength="30662857.000000" font-size="2000000.000000" lengthAdjust="spacingAndGlyphs"
text-anchor="start" opacity="0">File: kicadBoard.kicad_pcb</text>
<g class="stroked-text"><desc>File: kicadBoard.kicad_pcb</desc>
<path d="M178934342 185600057
L178434342 185600057
" />
<path d="M178434342 186385771
L178434342 184885771
L179148628 184885771
" />
<path d="M179720057 186385771
L179720057 185385771
" />
<path d="M179720057 184885771
L179648628 184957200
L179720057 185028628
L179791485 184957200
L179720057 184885771
L179720057 185028628
" />
<path d="M180648628 186385771
L180505771 186314342
L180434342 186171485
L180434342 184885771
" />
<path d="M181791485 186314342
L181648628 186385771
L181362914 186385771
L181220057 186314342
L181148628 186171485
L181148628 185600057
L181220057 185457200
L181362914 185385771
L181648628 185385771
L181791485 185457200
L181862914 185600057
L181862914 185742914
L181148628 185885771
" />
<path d="M182505771 186242914
L182577200 186314342
L182505771 186385771
L182434342 186314342
L182505771 186242914
L182505771 186385771
" />
<path d="M182505771 185457200
L182577200 185528628
L182505771 185600057
L182434342 185528628
L182505771 185457200
L182505771 185600057
" />
<path d="M184362914 186385771
L184362914 184885771
" />
<path d="M184505771 185814342
L184934342 186385771
" />
<path d="M184934342 185385771
L184362914 185957200
" />
<path d="M185577200 186385771
L185577200 185385771
" />
<path d="M185577200 184885771
L185505771 184957200
L185577200 185028628
L185648628 184957200
L185577200 184885771
L185577200 185028628
" />
<path d="M186934342 186314342
L186791485 186385771
L186505771 186385771
L186362914 186314342
L186291485 186242914
L186220057 186100057
L186220057 185671485
L186291485 185528628
L186362914 185457200
L186505771 185385771
L186791485 185385771
L186934342 185457200
" />
<path d="M188220057 186385771
L188220057 185600057
L188148628 185457200
L188005771 185385771
L187720057 185385771
L187577200 185457200
" />
<path d="M188220057 186314342
L188077200 186385771
L187720057 186385771
L187577200 186314342
L187505771 186171485
L187505771 186028628
L187577200 185885771
L187720057 185814342
L188077200 185814342
L188220057 185742914
" />
<path d="M189577200 186385771
L189577200 184885771
" />
<path d="M189577200 186314342
L189434342 186385771
L189148628 186385771
L189005771 186314342
L188934342 186242914
L188862914 186100057
L188862914 185671485
L188934342 185528628
L189005771 185457200
L189148628 185385771
L189434342 185385771
L189577200 185457200
" />
<path d="M190791485 185600057
L191005771 185671485
L191077200 185742914
L191148628 185885771
L191148628 186100057
L191077200 186242914
L191005771 186314342
L190862914 186385771
L190291485 186385771
L190291485 184885771
L190791485 184885771
L190934342 184957200
L191005771 185028628
L191077200 185171485
L191077200 185314342
L191005771 185457200
L190934342 185528628
L190791485 185600057
L190291485 185600057
" />
<path d="M192005771 186385771
L191862914 186314342
L191791485 186242914
L191720057 186100057
L191720057 185671485
L191791485 185528628
L191862914 185457200
L192005771 185385771
L192220057 185385771
L192362914 185457200
L192434342 185528628
L192505771 185671485
L192505771 186100057
L192434342 186242914
L192362914 186314342
L192220057 186385771
L192005771 186385771
" />
<path d="M193791485 186385771
L193791485 185600057
L193720057 185457200
L193577200 185385771
L193291485 185385771
L193148628 185457200
" />
<path d="M193791485 186314342
L193648628 186385771
L193291485 186385771
L193148628 186314342
L193077200 186171485
L193077200 186028628
L193148628 185885771
L193291485 185814342
L193648628 185814342
L193791485 185742914
" />
<path d="M194505771 186385771
L194505771 185385771
" />
<path d="M194505771 185671485
L194577200 185528628
L194648628 185457200
L194791485 185385771
L194934342 185385771
" />
<path d="M196077200 186385771
L196077200 184885771
" />
<path d="M196077200 186314342
L195934342 186385771
L195648628 186385771
L195505771 186314342
L195434342 186242914
L195362914 186100057
L195362914 185671485
L195434342 185528628
L195505771 185457200
L195648628 185385771
L195934342 185385771
L196077200 185457200
" />
<path d="M196791485 186242914
L196862914 186314342
L196791485 186385771
L196720057 186314342
L196791485 186242914
L196791485 186385771
" />
<path d="M197505771 186385771
L197505771 184885771
" />
<path d="M197648628 185814342
L198077200 186385771
" />
<path d="M198077200 185385771
L197505771 185957200
" />
<path d="M198720057 186385771
L198720057 185385771
" />
<path d="M198720057 184885771
L198648628 184957200
L198720057 185028628
L198791485 184957200
L198720057 184885771
L198720057 185028628
" />
<path d="M200077200 186314342
L199934342 186385771
L199648628 186385771
L199505771 186314342
L199434342 186242914
L199362914 186100057
L199362914 185671485
L199434342 185528628
L199505771 185457200
L199648628 185385771
L199934342 185385771
L200077200 185457200
" />
<path d="M201362914 186385771
L201362914 185600057
L201291485 185457200
L201148628 185385771
L200862914 185385771
L200720057 185457200
" />
<path d="M201362914 186314342
L201220057 186385771
L200862914 186385771
L200720057 186314342
L200648628 186171485
L200648628 186028628
L200720057 185885771
L200862914 185814342
L201220057 185814342
L201362914 185742914
" />
<path d="M202720057 186385771
L202720057 184885771
" />
<path d="M202720057 186314342
L202577200 186385771
L202291485 186385771
L202148628 186314342
L202077200 186242914
L202005771 186100057
L202005771 185671485
L202077200 185528628
L202148628 185457200
L202291485 185385771
L202577200 185385771
L202720057 185457200
" />
<path d="M203077200 186528628
L204220057 186528628
" />
<path d="M204577200 185385771
L204577200 186885771
" />
<path d="M204577200 185457200
L204720057 185385771
L205005771 185385771
L205148628 185457200
L205220057 185528628
L205291485 185671485
L205291485 186100057
L205220057 186242914
L205148628 186314342
L205005771 186385771
L204720057 186385771
L204577200 186314342
" />
<path d="M206577200 186314342
L206434342 186385771
L206148628 186385771
L206005771 186314342
L205934342 186242914
L205862914 186100057
L205862914 185671485
L205934342 185528628
L206005771 185457200
L206148628 185385771
L206434342 185385771
L206577200 185457200
" />
<path d="M207220057 186385771
L207220057 184885771
" />
<path d="M207220057 185457200
L207362914 185385771
L207648628 185385771
L207791485 185457200
L207862914 185528628
L207934342 185671485
L207934342 186100057
L207862914 186242914
L207791485 186314342
L207648628 186385771
L207362914 186385771
L207220057 186314342
" />
</g></g>
<g style="fill:#000000; fill-opacity:0.0; 
stroke:#000000; stroke-width:21200.000000; stroke-opacity:1; 
stroke-linecap:round; stroke-linejoin:round;">
</g>
<g style="fill:#000000; fill-opacity:0.0; 
stroke:#000000; stroke-width:150000.000000; stroke-opacity:1; 
stroke-linecap:round; stroke-linejoin:round;">
<path d="M177002200 181507200
L285002200 181507200
" />
</g>
<g style="fill:#000000; fill-opacity:0.0; 
stroke:#000000; stroke-width:21200.000000; stroke-opacity:1; 
stroke-linecap:round; stroke-linejoin:round;">
</g>
<g style="fill:#000000; fill-opacity:0.0; 
stroke:#000000; stroke-width:150000.000000; stroke-opacity:1; 
stroke-linecap:round; stroke-linejoin:round;">
<text x="178002200.000000" y="183757200.000000"
textLength="8221429.000000" font-size="2000000.000000" lengthAdjust="spacingAndGlyphs"
text-anchor="start" opacity="0">Sheet: </text>
<g class="stroked-text"><desc>Sheet: </desc>
<path d="M178362914 183614342
L178577200 183685771
L178934342 183685771
L179077200 183614342
L179148628 183542914
L179220057 183400057
L179220057 183257200
L179148628 183114342
L179077200 183042914
L178934342 182971485
L178648628 182900057
L178505771 182828628
L178434342 182757200
L178362914 182614342
L178362914 182471485
L178434342 182328628
L178505771 182257200
L178648628 182185771
L179005771 182185771
L179220057 182257200
" />
<path d="M179862914 183685771
L179862914 182185771
" />
<path d="M180505771 183685771
L180505771 182900057
L180434342 182757200
L180291485 182685771
L180077200 182685771
L179934342 182757200
L179862914 182828628
" />
<path d="M181791485 183614342
L181648628 183685771
L181362914 183685771
L181220057 183614342
L181148628 183471485
L181148628 182900057
L181220057 182757200
L181362914 182685771
L181648628 182685771
L181791485 182757200
L181862914 182900057
L181862914 183042914
L181148628 183185771
" />
<path d="M183077200 183614342
L182934342 183685771
L182648628 183685771
L182505771 183614342
L182434342 183471485
L182434342 182900057
L182505771 182757200
L182648628 182685771
L182934342 182685771
L183077200 182757200
L183148628 182900057
L183148628 183042914
L182434342 183185771
" />
<path d="M183577200 182685771
L184148628 182685771
" />
<path d="M183791485 182185771
L183791485 183471485
L183862914 183614342
L184005771 183685771
L184148628 183685771
" />
<path d="M184648628 183542914
L184720057 183614342
L184648628 183685771
L184577200 183614342
L184648628 183542914
L184648628 183685771
" />
<path d="M184648628 182757200
L184720057 182828628
L184648628 182900057
L184577200 182828628
L184648628 182757200
L184648628 182900057
" />
</g></g>
<g style="fill:#000000; fill-opacity:0.0; 
stroke:#000000; stroke-width:21200.000000; stroke-opacity:1; 
stroke-linecap:round; stroke-linejoin:round;">
</g>
<g style="fill:#000000; fill-opacity:0.0; 
stroke:#000000; stroke-width:300000.000000; stroke-opacity:1; 
stroke-linecap:round; stroke-linejoin:round;">
<text x="178002200.000000" y="180757200.000000"
textLength="150000.000000" font-size="2000000.000000" lengthAdjust="spacingAndGlyphs"
text-anchor="start" opacity="0"></text>
<g class="stroked-text"><desc></desc>
</g></g>
<g style="fill:#000000; fill-opacity:0.0; 
stroke:#000000; stroke-width:21200.000000; stroke-opacity:1; 
stroke-linecap:round; stroke-linejoin:round;">
</g>
<g style="fill:#000000; fill-opacity:0.0; 
stroke:#000000; stroke-width:150000.000000; stroke-opacity:1; 
stroke-linecap:round; stroke-linejoin:round;">
<text x="178002200.000000" y="177757200.000000"
textLength="300000.000000" font-size="2000000.000000" lengthAdjust="spacingAndGlyphs"
text-anchor="start" opacity="0"></text>
<g class="stroked-text"><desc></desc>
</g></g>
<g style="fill:#000000; fill-opacity:0.0; 
stroke:#000000; stroke-width:21200.000000; stroke-opacity:1; 
stroke-linecap:round; stroke-linejoin:round;">
</g>
<g style="fill:#000000; fill-opacity:0.0; 
stroke:#000000; stroke-width:150000.000000; stroke-opacity:1; 
stroke-linecap:round; stroke-linejoin:round;">
<text x="178002200.000000" y="174757200.000000"
textLength="150000.000000" font-size="2000000.000000" lengthAdjust="spacingAndGlyphs"
text-anchor="start" opacity="0"></text>
<g class="stroked-text"><desc></desc>
</g></g>
<g style="fill:#000000; fill-opacity:0.0; 
stroke:#000000; stroke-width:21200.000000; stroke-opacity:1; 
stroke-linecap:round; stroke-linejoin:round;">
</g>
<g style="fill:#000000; fill-opacity:0.0; 
stroke:#000000; stroke-width:150000.000000; stroke-opacity:1; 
stroke-linecap:round; stroke-linejoin:round;">
<text x="178002200.000000" y="171757200.000000"
textLength="150000.000000" font-size="2000000.000000" lengthAdjust="spacingAndGlyphs"
text-anchor="start" opacity="0"></text>
<g class="stroked-text"><desc></desc>
</g></g>
<g style="fill:#000000; fill-opacity:0.0; 
stroke:#000000; stroke-width:21200.000000; stroke-opacity:1; 
stroke-linecap:round; stroke-linejoin:round;">
</g>
<g style="fill:#000000; fill-opacity:0.0; 
stroke:#000000; stroke-width:150000.000000; stroke-opacity:1; 
stroke-linecap:round; stroke-linejoin:round;">
<text x="178002200.000000" y="168757200.000000"
textLength="150000.000000" font-size="2000000.000000" lengthAdjust="spacingAndGlyphs"
text-anchor="start" opacity="0"></text>
<g class="stroked-text"><desc></desc>
</g></g>
<g style="fill:#000000; fill-opacity:0.0; 
stroke:#000000; stroke-width:21200.000000; stroke-opacity:1; 
stroke-linecap:round; stroke-linejoin:round;">
</g>
<g style="fill:#000000; fill-opacity:0.0; 
stroke:#000000; stroke-width:150000.000000; stroke-opacity:1; 
stroke-linecap:round; stroke-linejoin:round;">
<path d="M197002200 191507200
L197002200 194507200
" />
</g>
<g style="fill:#000000; fill-opacity:0.0; 
stroke:#000000; stroke-width:21200.000000; stroke-opacity:1; 
stroke-linecap:round; stroke-linejoin:round;">
</g>
<g style="fill:#000000; fill-opacity:0.0; 
stroke:#000000; stroke-width:150000.000000; stroke-opacity:1; 
stroke-linecap:round; stroke-linejoin:round;">
<path d="M261002200 191507200
L261002200 198007200
" />
</g>
<g style="fill:#AFAFAF; fill-opacity:0.0; 
stroke:#AFAFAF; stroke-width:150000.000000; stroke-opacity:1; 
stroke-linecap:round; stroke-linejoin:round;">
</g>
<g style="fill:#AFAFAF; fill-opacity:0.0; 
stroke:#AFAFAF; stroke-width:36576.000000; stroke-opacity:1; 
stroke-linecap:round; stroke-linejoin:round;">
<text x="138087100.000000" y="108185712.000000"
textLength="3107044.000000" font-size="1034965.000000" lengthAdjust="spacingAndGlyphs"
text-anchor="end" opacity="0">10F</text>
<g class="stroked-text"><desc>10F</desc>
<path d="M135697690 108148748
L135254133 108148748
" />
<path d="M135475912 108148748
L135475912 107372524
L135401986 107483414
L135328060 107557340
L135254133 107594303
" />
<path d="M136178210 107372524
L136252136 107372524
L136326062 107409488
L136363025 107446451
L136399988 107520377
L136436951 107668229
L136436951 107853044
L136399988 108000896
L136363025 108074822
L136326062 108111785
L136252136 108148748
L136178210 108148748
L136104284 108111785
L136067321 108074822
L136030357 108000896
L135993394 107853044
L135993394 107668229
L136030357 107520377
L136067321 107446451
L136104284 107409488
L136178210 107372524
" />
<path d="M136769618 107631266
L136769618 108407490
" />
<path d="M137139249 108037859
L137176212 108111785
L137250138 108148748
" />
<path d="M136769618 108037859
L136806581 108111785
L136880508 108148748
L137028360 108148748
L137102286 108111785
L137139249 108037859
L137139249 107631266
" />
<path d="M137841547 107742155
L137582805 107742155
" />
<path d="M137582805 108148748
L137582805 107372524
L137952436 107372524
" />
</g><text x="150744100.000000" y="108933712.000000"
textLength="4557041.000000" font-size="1034965.000000" lengthAdjust="spacingAndGlyphs"
text-anchor="end" opacity="0">1N4148</text>
<g class="stroked-text"><desc>1N4148</desc>
<path d="M146802242 108896748
L146358685 108896748
" />
<path d="M146580464 108896748
L146580464 108120524
L146506538 108231414
L146432612 108305340
L146358685 108342303
" />
<path d="M147134909 108896748
L147134909 108120524
L147578466 108896748
L147578466 108120524
" />
<path d="M148280764 108379266
L148280764 108896748
" />
<path d="M148095949 108083561
L147911133 108638007
L148391653 108638007
" />
<path d="M149093951 108896748
L148650394 108896748
" />
<path d="M148872173 108896748
L148872173 108120524
L148798247 108231414
L148724321 108305340
L148650394 108342303
" />
<path d="M149759286 108379266
L149759286 108896748
" />
<path d="M149574471 108083561
L149389655 108638007
L149870175 108638007
" />
<path d="M150276769 108453192
L150202842 108416229
L150165879 108379266
L150128916 108305340
L150128916 108268377
L150165879 108194451
L150202842 108157488
L150276769 108120524
L150424621 108120524
L150498547 108157488
L150535510 108194451
L150572473 108268377
L150572473 108305340
L150535510 108379266
L150498547 108416229
L150424621 108453192
L150276769 108453192
L150202842 108490155
L150165879 108527118
L150128916 108601044
L150128916 108748896
L150165879 108822822
L150202842 108859785
L150276769 108896748
L150424621 108896748
L150498547 108859785
L150535510 108822822
L150572473 108748896
L150572473 108601044
L150535510 108527118
L150498547 108490155
L150424621 108453192
" />
</g><text x="137506100.000000" y="104502712.000000"
textLength="8142456.000000" font-size="1034965.000000" lengthAdjust="spacingAndGlyphs"
text-anchor="end" opacity="0">MIC5225_2.8V</text>
<g class="stroked-text"><desc>MIC5225_2.8V</desc>
<path d="M129572233 104465748
L129572233 103689524
L129830974 104243970
L130089716 103689524
L130089716 104465748
" />
<path d="M130459346 104465748
L130459346 103689524
" />
<path d="M131272533 104391822
L131235570 104428785
L131124681 104465748
L131050755 104465748
L130939866 104428785
L130865940 104354859
L130828977 104280933
L130792013 104133081
L130792013 104022192
L130828977 103874340
L130865940 103800414
L130939866 103726488
L131050755 103689524
L131124681 103689524
L131235570 103726488
L131272533 103763451
" />
<path d="M131974831 103689524
L131605201 103689524
L131568237 104059155
L131605201 104022192
L131679127 103985229
L131863942 103985229
L131937868 104022192
L131974831 104059155
L132011794 104133081
L132011794 104317896
L131974831 104391822
L131937868 104428785
L131863942 104465748
L131679127 104465748
L131605201 104428785
L131568237 104391822
" />
<path d="M132307498 103763451
L132344461 103726488
L132418388 103689524
L132603203 103689524
L132677129 103726488
L132714092 103763451
L132751055 103837377
L132751055 103911303
L132714092 104022192
L132270535 104465748
L132751055 104465748
" />
<path d="M133046759 103763451
L133083722 103726488
L133157649 103689524
L133342464 103689524
L133416390 103726488
L133453353 103763451
L133490316 103837377
L133490316 103911303
L133453353 104022192
L133009796 104465748
L133490316 104465748
" />
<path d="M134192614 103689524
L133822983 103689524
L133786020 104059155
L133822983 104022192
L133896909 103985229
L134081725 103985229
L134155651 104022192
L134192614 104059155
L134229577 104133081
L134229577 104317896
L134192614 104391822
L134155651 104428785
L134081725 104465748
L133896909 104465748
L133822983 104428785
L133786020 104391822
" />
<path d="M134377429 104539675
L134968838 104539675
" />
<path d="M135116690 103763451
L135153653 103726488
L135227579 103689524
L135412394 103689524
L135486321 103726488
L135523284 103763451
L135560247 103837377
L135560247 103911303
L135523284 104022192
L135079727 104465748
L135560247 104465748
" />
<path d="M135892914 104391822
L135929877 104428785
L135892914 104465748
L135855951 104428785
L135892914 104391822
L135892914 104465748
" />
<path d="M136373434 104022192
L136299508 103985229
L136262545 103948266
L136225581 103874340
L136225581 103837377
L136262545 103763451
L136299508 103726488
L136373434 103689524
L136521286 103689524
L136595212 103726488
L136632175 103763451
L136669138 103837377
L136669138 103874340
L136632175 103948266
L136595212 103985229
L136521286 104022192
L136373434 104022192
L136299508 104059155
L136262545 104096118
L136225581 104170044
L136225581 104317896
L136262545 104391822
L136299508 104428785
L136373434 104465748
L136521286 104465748
L136595212 104428785
L136632175 104391822
L136669138 104317896
L136669138 104170044
L136632175 104096118
L136595212 104059155
L136521286 104022192
" />
<path d="M136890916 103689524
L137149658 104465748
L137408399 103689524
" />
</g><text x="151422100.000000" y="101835712.000000"
textLength="2302295.000000" font-size="1034965.000000" lengthAdjust="spacingAndGlyphs"
text-anchor="start" opacity="0">10K</text>
<g class="stroked-text"><desc>10K</desc>
<path d="M152037283 101798748
L151593726 101798748
" />
<path d="M151815504 101798748
L151815504 101022524
L151741578 101133414
L151667652 101207340
L151593726 101244303
" />
<path d="M152517802 101022524
L152591728 101022524
L152665654 101059488
L152702618 101096451
L152739581 101170377
L152776544 101318229
L152776544 101503044
L152739581 101650896
L152702618 101724822
L152665654 101761785
L152591728 101798748
L152517802 101798748
L152443876 101761785
L152406913 101724822
L152369950 101650896
L152332987 101503044
L152332987 101318229
L152369950 101170377
L152406913 101096451
L152443876 101059488
L152517802 101022524
" />
<path d="M153109211 101798748
L153109211 101022524
" />
<path d="M153552768 101798748
L153220100 101355192
" />
<path d="M153552768 101022524
L153109211 101466081
" />
</g><g transform="rotate(-90.000000 143421100.000000 105638600.000000)">
<text x="143421100.000000" y="106026712.000000"
textLength="2302295.000000" font-size="1034965.000000" lengthAdjust="spacingAndGlyphs"
text-anchor="end" opacity="0">10K</text>
</g>
<g class="stroked-text"><desc>10K</desc>
<path d="M143772248 107325711
L143772248 107769268
" />
<path d="M143772248 107547489
L142996024 107547489
L143106914 107621415
L143180840 107695342
L143217803 107769268
" />
<path d="M142996024 106845191
L142996024 106771265
L143032988 106697339
L143069951 106660376
L143143877 106623413
L143291729 106586450
L143476544 106586450
L143624396 106623413
L143698322 106660376
L143735285 106697339
L143772248 106771265
L143772248 106845191
L143735285 106919118
L143698322 106956081
L143624396 106993044
L143476544 107030007
L143291729 107030007
L143143877 106993044
L143069951 106956081
L143032988 106919118
L142996024 106845191
" />
<path d="M143772248 106253783
L142996024 106253783
" />
<path d="M143772248 105810226
L143328692 106142894
" />
<path d="M142996024 105810226
L143439581 106253783
" />
</g><text x="139611100.000000" y="114713512.000000"
textLength="47549.000000" font-size="493098.000000" lengthAdjust="spacingAndGlyphs"
text-anchor="start" opacity="0"></text>
<g class="stroked-text"><desc></desc>
</g><text x="155486100.000000" y="110217712.000000"
textLength="2291322.000000" font-size="1034965.000000" lengthAdjust="spacingAndGlyphs"
text-anchor="start" opacity="0">10K</text>
<g class="stroked-text"><desc>10K</desc>
<path d="M156101283 110180748
L155657726 110180748
" />
<path d="M155879504 110180748
L155879504 109404524
L155805578 109515414
L155731652 109589340
L155657726 109626303
" />
<path d="M156581802 109404524
L156655728 109404524
L156729654 109441488
L156766618 109478451
L156803581 109552377
L156840544 109700229
L156840544 109885044
L156803581 110032896
L156766618 110106822
L156729654 110143785
L156655728 110180748
L156581802 110180748
L156507876 110143785
L156470913 110106822
L156433950 110032896
L156396987 109885044
L156396987 109700229
L156433950 109552377
L156470913 109478451
L156507876 109441488
L156581802 109404524
" />
<path d="M157173211 110180748
L157173211 109404524
" />
<path d="M157616768 110180748
L157284100 109737192
" />
<path d="M157616768 109404524
L157173211 109848081
" />
</g><text x="146723100.000000" y="98406712.000000"
textLength="3263334.000000" font-size="1034965.000000" lengthAdjust="spacingAndGlyphs"
text-anchor="end" opacity="0">0.1uF</text>
<g class="stroked-text"><desc>0.1uF</desc>
<path d="M143816207 97593524
L143890133 97593524
L143964060 97630488
L144001023 97667451
L144037986 97741377
L144074949 97889229
L144074949 98074044
L144037986 98221896
L144001023 98295822
L143964060 98332785
L143890133 98369748
L143816207 98369748
L143742281 98332785
L143705318 98295822
L143668355 98221896
L143631392 98074044
L143631392 97889229
L143668355 97741377
L143705318 97667451
L143742281 97630488
L143816207 97593524
" />
<path d="M144407616 98295822
L144444579 98332785
L144407616 98369748
L144370653 98332785
L144407616 98295822
L144407616 98369748
" />
<path d="M145183840 98369748
L144740284 98369748
" />
<path d="M144962062 98369748
L144962062 97593524
L144888136 97704414
L144814210 97778340
L144740284 97815303
" />
<path d="M145849175 97852266
L145849175 98369748
" />
<path d="M145516508 97852266
L145516508 98258859
L145553471 98332785
L145627397 98369748
L145738286 98369748
L145812212 98332785
L145849175 98295822
" />
<path d="M146477547 97963155
L146218805 97963155
" />
<path d="M146218805 98369748
L146218805 97593524
L146588436 97593524
" />
</g><text x="151803100.000000" y="110090712.000000"
textLength="2302295.000000" font-size="1034965.000000" lengthAdjust="spacingAndGlyphs"
text-anchor="start" opacity="0">10K</text>
<g class="stroked-text"><desc>10K</desc>
<path d="M152418283 110053748
L151974726 110053748
" />
<path d="M152196504 110053748
L152196504 109277524
L152122578 109388414
L152048652 109462340
L151974726 109499303
" />
<path d="M152898802 109277524
L152972728 109277524
L153046654 109314488
L153083618 109351451
L153120581 109425377
L153157544 109573229
L153157544 109758044
L153120581 109905896
L153083618 109979822
L153046654 110016785
L152972728 110053748
L152898802 110053748
L152824876 110016785
L152787913 109979822
L152750950 109905896
L152713987 109758044
L152713987 109573229
L152750950 109425377
L152787913 109351451
L152824876 109314488
L152898802 109277524
" />
<path d="M153490211 110053748
L153490211 109277524
" />
<path d="M153933768 110053748
L153601100 109610192
" />
<path d="M153933768 109277524
L153490211 109721081
" />
</g><g transform="rotate(-90.000000 159042100.000000 103098600.000000)">
<text x="159042100.000000" y="103486712.000000"
textLength="4520078.000000" font-size="1034965.000000" lengthAdjust="spacingAndGlyphs"
text-anchor="end" opacity="0">BSS138</text>
</g>
<g class="stroked-text"><desc>BSS138</desc>
<path d="M158986655 107151346
L159023618 107040457
L159060581 107003494
L159134507 106966531
L159245396 106966531
L159319322 107003494
L159356285 107040457
L159393248 107114383
L159393248 107410087
L158617024 107410087
L158617024 107151346
L158653988 107077420
L158690951 107040457
L158764877 107003494
L158838803 107003494
L158912729 107040457
L158949692 107077420
L158986655 107151346
L158986655 107410087
" />
<path d="M159356285 106670826
L159393248 106559937
L159393248 106375122
L159356285 106301196
L159319322 106264233
L159245396 106227270
L159171470 106227270
L159097544 106264233
L159060581 106301196
L159023618 106375122
L158986655 106522974
L158949692 106596900
L158912729 106633863
L158838803 106670826
L158764877 106670826
L158690951 106633863
L158653988 106596900
L158617024 106522974
L158617024 106338159
L158653988 106227270
" />
<path d="M159356285 105931566
L159393248 105820676
L159393248 105635861
L159356285 105561935
L159319322 105524972
L159245396 105488009
L159171470 105488009
L159097544 105524972
L159060581 105561935
L159023618 105635861
L158986655 105783713
L158949692 105857639
L158912729 105894602
L158838803 105931566
L158764877 105931566
L158690951 105894602
L158653988 105857639
L158617024 105783713
L158617024 105598898
L158653988 105488009
" />
<path d="M159393248 104748748
L159393248 105192305
" />
<path d="M159393248 104970526
L158617024 104970526
L158727914 105044452
L158801840 105118378
L158838803 105192305
" />
<path d="M158617024 104490007
L158617024 104009487
L158912729 104268228
L158912729 104157339
L158949692 104083413
L158986655 104046450
L159060581 104009487
L159245396 104009487
L159319322 104046450
L159356285 104083413
L159393248 104157339
L159393248 104379118
L159356285 104453044
L159319322 104490007
" />
<path d="M158949692 103565930
L158912729 103639857
L158875766 103676820
L158801840 103713783
L158764877 103713783
L158690951 103676820
L158653988 103639857
L158617024 103565930
L158617024 103418078
L158653988 103344152
L158690951 103307189
L158764877 103270226
L158801840 103270226
L158875766 103307189
L158912729 103344152
L158949692 103418078
L158949692 103565930
L158986655 103639857
L159023618 103676820
L159097544 103713783
L159245396 103713783
L159319322 103676820
L159356285 103639857
L159393248 103565930
L159393248 103418078
L159356285 103344152
L159319322 103307189
L159245396 103270226
L159097544 103270226
L159023618 103307189
L158986655 103344152
L158949692 103418078
" />
</g><g transform="rotate(-90.000000 143929100.000000 104241600.000000)">
<text x="143929100.000000" y="104629712.000000"
textLength="2302295.000000" font-size="1034965.000000" lengthAdjust="spacingAndGlyphs"
text-anchor="start" opacity="0">10K</text>
</g>
<g class="stroked-text"><desc>10K</desc>
<path d="M144280248 103626416
L144280248 104069973
" />
<path d="M144280248 103848195
L143504024 103848195
L143614914 103922121
L143688840 103996047
L143725803 104069973
" />
<path d="M143504024 103145897
L143504024 103071971
L143540988 102998045
L143577951 102961081
L143651877 102924118
L143799729 102887155
L143984544 102887155
L144132396 102924118
L144206322 102961081
L144243285 102998045
L144280248 103071971
L144280248 103145897
L144243285 103219823
L144206322 103256786
L144132396 103293749
L143984544 103330712
L143799729 103330712
L143651877 103293749
L143577951 103256786
L143540988 103219823
L143504024 103145897
" />
<path d="M144280248 102554488
L143504024 102554488
" />
<path d="M144280248 102110931
L143836692 102443599
" />
<path d="M143504024 102110931
L143947581 102554488
" />
</g><text x="155359100.000000" y="101962712.000000"
textLength="2302295.000000" font-size="1034965.000000" lengthAdjust="spacingAndGlyphs"
text-anchor="start" opacity="0">10K</text>
<g class="stroked-text"><desc>10K</desc>
<path d="M155974283 101925748
L155530726 101925748
" />
<path d="M155752504 101925748
L155752504 101149524
L155678578 101260414
L155604652 101334340
L155530726 101371303
" />
<path d="M156454802 101149524
L156528728 101149524
L156602654 101186488
L156639618 101223451
L156676581 101297377
L156713544 101445229
L156713544 101630044
L156676581 101777896
L156639618 101851822
L156602654 101888785
L156528728 101925748
L156454802 101925748
L156380876 101888785
L156343913 101851822
L156306950 101777896
L156269987 101630044
L156269987 101445229
L156306950 101297377
L156343913 101223451
L156380876 101186488
L156454802 101149524
" />
<path d="M157046211 101925748
L157046211 101149524
" />
<path d="M157489768 101925748
L157157100 101482192
" />
<path d="M157489768 101149524
L157046211 101593081
" />
</g><text x="137960100.000000" y="101581712.000000"
textLength="3004593.000000" font-size="1034965.000000" lengthAdjust="spacingAndGlyphs"
text-anchor="end" opacity="0">10F</text>
<g class="stroked-text"><desc>10F</desc>
<path d="M135570690 101544748
L135127133 101544748
" />
<path d="M135348912 101544748
L135348912 100768524
L135274986 100879414
L135201060 100953340
L135127133 100990303
" />
<path d="M136051210 100768524
L136125136 100768524
L136199062 100805488
L136236025 100842451
L136272988 100916377
L136309951 101064229
L136309951 101249044
L136272988 101396896
L136236025 101470822
L136199062 101507785
L136125136 101544748
L136051210 101544748
L135977284 101507785
L135940321 101470822
L135903357 101396896
L135866394 101249044
L135866394 101064229
L135903357 100916377
L135940321 100842451
L135977284 100805488
L136051210 100768524
" />
<path d="M136642618 101027266
L136642618 101803490
" />
<path d="M137012249 101433859
L137049212 101507785
L137123138 101544748
" />
<path d="M136642618 101433859
L136679581 101507785
L136753508 101544748
L136901360 101544748
L136975286 101507785
L137012249 101433859
L137012249 101027266
" />
<path d="M137714547 101138155
L137455805 101138155
" />
<path d="M137455805 101544748
L137455805 100768524
L137825436 100768524
" />
</g><g transform="rotate(-90.000000 160185100.000000 103225600.000000)">
<text x="160185100.000000" y="103613712.000000"
textLength="4520078.000000" font-size="1034965.000000" lengthAdjust="spacingAndGlyphs"
text-anchor="end" opacity="0">BSS138</text>
</g>
<g class="stroked-text"><desc>BSS138</desc>
<path d="M160129655 107278346
L160166618 107167457
L160203581 107130494
L160277507 107093531
L160388396 107093531
L160462322 107130494
L160499285 107167457
L160536248 107241383
L160536248 107537087
L159760024 107537087
L159760024 107278346
L159796988 107204420
L159833951 107167457
L159907877 107130494
L159981803 107130494
L160055729 107167457
L160092692 107204420
L160129655 107278346
L160129655 107537087
" />
<path d="M160499285 106797826
L160536248 106686937
L160536248 106502122
L160499285 106428196
L160462322 106391233
L160388396 106354270
L160314470 106354270
L160240544 106391233
L160203581 106428196
L160166618 106502122
L160129655 106649974
L160092692 106723900
L160055729 106760863
L159981803 106797826
L159907877 106797826
L159833951 106760863
L159796988 106723900
L159760024 106649974
L159760024 106465159
L159796988 106354270
" />
<path d="M160499285 106058566
L160536248 105947676
L160536248 105762861
L160499285 105688935
L160462322 105651972
L160388396 105615009
L160314470 105615009
L160240544 105651972
L160203581 105688935
L160166618 105762861
L160129655 105910713
L160092692 105984639
L160055729 106021602
L159981803 106058566
L159907877 106058566
L159833951 106021602
L159796988 105984639
L159760024 105910713
L159760024 105725898
L159796988 105615009
" />
<path d="M160536248 104875748
L160536248 105319305
" />
<path d="M160536248 105097526
L159760024 105097526
L159870914 105171452
L159944840 105245378
L159981803 105319305
" />
<path d="M159760024 104617007
L159760024 104136487
L160055729 104395228
L160055729 104284339
L160092692 104210413
L160129655 104173450
L160203581 104136487
L160388396 104136487
L160462322 104173450
L160499285 104210413
L160536248 104284339
L160536248 104506118
L160499285 104580044
L160462322 104617007
" />
<path d="M160092692 103692930
L160055729 103766857
L160018766 103803820
L159944840 103840783
L159907877 103840783
L159833951 103803820
L159796988 103766857
L159760024 103692930
L159760024 103545078
L159796988 103471152
L159833951 103434189
L159907877 103397226
L159944840 103397226
L160018766 103434189
L160055729 103471152
L160092692 103545078
L160092692 103692930
L160129655 103766857
L160166618 103803820
L160240544 103840783
L160388396 103840783
L160462322 103803820
L160499285 103766857
L160536248 103692930
L160536248 103545078
L160499285 103471152
L160462322 103434189
L160388396 103397226
L160240544 103397226
L160166618 103434189
L160129655 103471152
L160092692 103545078
" />
</g></g>
<g style="fill:#AFAFAF; fill-opacity:0.0; 
stroke:#AFAFAF; stroke-width:101600.000000; stroke-opacity:1; 
stroke-linecap:round; stroke-linejoin:round;">
<path d="M141135100 107391600
L141897100 107391600
" />
<path d="M141160100 108711600
L141897100 108711600
" />
</g>
<g style="fill:#AFAFAF; fill-opacity:1.0; 
stroke:#AFAFAF; stroke-width:1.000000; stroke-opacity:1; 
stroke-linecap:round; stroke-linejoin:round;">
<path style="fill:#AFAFAF; fill-opacity:1.0; 
stroke:#AFAFAF; stroke-width:1.000000; stroke-opacity:1; 
stroke-linecap:round; stroke-linejoin:round;fill-rule:evenodd;"
d="M 142621800.000000,108775500.000000
141871700.000000,108775500.000000
141871700.000000,107325400.000000
142621800.000000,107325400.000000
Z" /> 
<path style="fill:#AFAFAF; fill-opacity:1.0; 
stroke:#AFAFAF; stroke-width:1.000000; stroke-opacity:1; 
stroke-linecap:round; stroke-linejoin:round;fill-rule:evenodd;"
d="M 141174000.000000,108775500.000000
140423900.000000,108775500.000000
140423900.000000,107325400.000000
141174000.000000,107325400.000000
Z" /> 
</g>
<g style="fill:#AFAFAF; fill-opacity:1.0; 
stroke:#AFAFAF; stroke-width:203200.000000; stroke-opacity:1; 
stroke-linecap:round; stroke-linejoin:round;">
</g>
<g style="fill:#AFAFAF; fill-opacity:0.0; 
stroke:#AFAFAF; stroke-width:203200.000000; stroke-opacity:1; 
stroke-linecap:round; stroke-linejoin:round;">
<path d="M147501100 108624600
L147501100 107224600
" />
<path d="M149501100 107224600
L149501100 108624600
" />
<path d="M142684500 105687000
L139839700 105687000
" />
<path d="M142684500 104066200
L142684500 105687000
" />
<path d="M139839700 105687000
L139839700 104066200
" />
<path d="M139839700 104066200
L142684500 104066200
" />
</g>
<g style="fill:#AFAFAF; fill-opacity:1.0; 
stroke:#AFAFAF; stroke-width:1.000000; stroke-opacity:1; 
stroke-linecap:round; stroke-linejoin:round;">
<path style="fill:#AFAFAF; fill-opacity:1.0; 
stroke:#AFAFAF; stroke-width:1.000000; stroke-opacity:1; 
stroke-linecap:round; stroke-linejoin:round;fill-rule:evenodd;"
d="M 140562100.000000,106376600.000000
140062100.000000,106376600.000000
140062100.000000,105726600.000000
140562100.000000,105726600.000000
Z" /> 
<path style="fill:#AFAFAF; fill-opacity:1.0; 
stroke:#AFAFAF; stroke-width:1.000000; stroke-opacity:1; 
stroke-linecap:round; stroke-linejoin:round;fill-rule:evenodd;"
d="M 142462100.000000,106376600.000000
141962100.000000,106376600.000000
141962100.000000,105726600.000000
142462100.000000,105726600.000000
Z" /> 
<path style="fill:#AFAFAF; fill-opacity:1.0; 
stroke:#AFAFAF; stroke-width:1.000000; stroke-opacity:1; 
stroke-linecap:round; stroke-linejoin:round;fill-rule:evenodd;"
d="M 141512100.000000,106376600.000000
141012100.000000,106376600.000000
141012100.000000,105726600.000000
141512100.000000,105726600.000000
Z" /> 
<path style="fill:#AFAFAF; fill-opacity:1.0; 
stroke:#AFAFAF; stroke-width:1.000000; stroke-opacity:1; 
stroke-linecap:round; stroke-linejoin:round;fill-rule:evenodd;"
d="M 142462100.000000,104026600.000000
141962100.000000,104026600.000000
141962100.000000,103376600.000000
142462100.000000,103376600.000000
Z" /> 
<path style="fill:#AFAFAF; fill-opacity:1.0; 
stroke:#AFAFAF; stroke-width:1.000000; stroke-opacity:1; 
stroke-linecap:round; stroke-linejoin:round;fill-rule:evenodd;"
d="M 140562100.000000,104026600.000000
140062100.000000,104026600.000000
140062100.000000,103376600.000000
140562100.000000,103376600.000000
Z" /> 
</g>
<g style="fill:#AFAFAF; fill-opacity:1.0; 
stroke:#AFAFAF; stroke-width:101600.000000; stroke-opacity:1; 
stroke-linecap:round; stroke-linejoin:round;">
</g>
<g style="fill:#AFAFAF; fill-opacity:0.0; 
stroke:#AFAFAF; stroke-width:101600.000000; stroke-opacity:1; 
stroke-linecap:round; stroke-linejoin:round;">
<path d="M152336100 103250600
L153073100 103250600
" />
<path d="M152311100 101930600
L153073100 101930600
" />
</g>
<g style="fill:#AFAFAF; fill-opacity:1.0; 
stroke:#AFAFAF; stroke-width:1.000000; stroke-opacity:1; 
stroke-linecap:round; stroke-linejoin:round;">
<path style="fill:#AFAFAF; fill-opacity:1.0; 
stroke:#AFAFAF; stroke-width:1.000000; stroke-opacity:1; 
stroke-linecap:round; stroke-linejoin:round;fill-rule:evenodd;"
d="M 153797800.000000,103314500.000000
153047700.000000,103314500.000000
153047700.000000,101864400.000000
153797800.000000,101864400.000000
Z" /> 
<path style="fill:#AFAFAF; fill-opacity:1.0; 
stroke:#AFAFAF; stroke-width:1.000000; stroke-opacity:1; 
stroke-linecap:round; stroke-linejoin:round;fill-rule:evenodd;"
d="M 152350000.000000,103314500.000000
151599900.000000,103314500.000000
151599900.000000,101864400.000000
152350000.000000,101864400.000000
Z" /> 
</g>
<g style="fill:#AFAFAF; fill-opacity:1.0; 
stroke:#AFAFAF; stroke-width:101600.000000; stroke-opacity:1; 
stroke-linecap:round; stroke-linejoin:round;">
</g>
<g style="fill:#AFAFAF; fill-opacity:0.0; 
stroke:#AFAFAF; stroke-width:101600.000000; stroke-opacity:1; 
stroke-linecap:round; stroke-linejoin:round;">
<path d="M144031100 106552600
L144031100 107289600
" />
<path d="M145351100 106527600
L145351100 107289600
" />
</g>
<g style="fill:#AFAFAF; fill-opacity:1.0; 
stroke:#AFAFAF; stroke-width:1.000000; stroke-opacity:1; 
stroke-linecap:round; stroke-linejoin:round;">
<path style="fill:#AFAFAF; fill-opacity:1.0; 
stroke:#AFAFAF; stroke-width:1.000000; stroke-opacity:1; 
stroke-linecap:round; stroke-linejoin:round;fill-rule:evenodd;"
d="M 145417300.000000,108014300.000000
143967200.000000,108014300.000000
143967200.000000,107264200.000000
145417300.000000,107264200.000000
Z" /> 
<path style="fill:#AFAFAF; fill-opacity:1.0; 
stroke:#AFAFAF; stroke-width:1.000000; stroke-opacity:1; 
stroke-linecap:round; stroke-linejoin:round;fill-rule:evenodd;"
d="M 145417300.000000,106566500.000000
143967200.000000,106566500.000000
143967200.000000,105816400.000000
145417300.000000,105816400.000000
Z" /> 
</g>
<g style="fill:#AFAFAF; fill-opacity:1.0; 
stroke:#AFAFAF; stroke-width:203200.000000; stroke-opacity:1; 
stroke-linecap:round; stroke-linejoin:round;">
</g>
<g style="fill:#AFAFAF; fill-opacity:0.0; 
stroke:#AFAFAF; stroke-width:203200.000000; stroke-opacity:1; 
stroke-linecap:round; stroke-linejoin:round;">
<path d="M139611100 110718600
L139611100 111988600
" />
</g>
<g style="fill:#AFAFAF; fill-opacity:1.0; 
stroke:#AFAFAF; stroke-width:1.000000; stroke-opacity:1; 
stroke-linecap:round; stroke-linejoin:round;">
<path style="fill:#AFAFAF; fill-opacity:1.0; 
stroke:#AFAFAF; stroke-width:1.000000; stroke-opacity:1; 
stroke-linecap:round; stroke-linejoin:round;fill-rule:evenodd;"
d="M 141135100.000000,111607600.000000
140627100.000000,111607600.000000
140627100.000000,111099600.000000
141135100.000000,111099600.000000
Z" /> 
<path style="fill:#AFAFAF; fill-opacity:1.0; 
stroke:#AFAFAF; stroke-width:1.000000; stroke-opacity:1; 
stroke-linecap:round; stroke-linejoin:round;fill-rule:evenodd;"
d="M 153835100.000000,111607600.000000
153327100.000000,111607600.000000
153327100.000000,111099600.000000
153835100.000000,111099600.000000
Z" /> 
<path style="fill:#AFAFAF; fill-opacity:1.0; 
stroke:#AFAFAF; stroke-width:1.000000; stroke-opacity:1; 
stroke-linecap:round; stroke-linejoin:round;fill-rule:evenodd;"
d="M 148755100.000000,111607600.000000
148247100.000000,111607600.000000
148247100.000000,111099600.000000
148755100.000000,111099600.000000
Z" /> 
<path style="fill:#AFAFAF; fill-opacity:1.0; 
stroke:#AFAFAF; stroke-width:1.000000; stroke-opacity:1; 
stroke-linecap:round; stroke-linejoin:round;fill-rule:evenodd;"
d="M 156375100.000000,111607600.000000
155867100.000000,111607600.000000
155867100.000000,111099600.000000
156375100.000000,111099600.000000
Z" /> 
<path style="fill:#AFAFAF; fill-opacity:1.0; 
stroke:#AFAFAF; stroke-width:1.000000; stroke-opacity:1; 
stroke-linecap:round; stroke-linejoin:round;fill-rule:evenodd;"
d="M 146215100.000000,111607600.000000
145707100.000000,111607600.000000
145707100.000000,111099600.000000
146215100.000000,111099600.000000
Z" /> 
<path style="fill:#AFAFAF; fill-opacity:1.0; 
stroke:#AFAFAF; stroke-width:1.000000; stroke-opacity:1; 
stroke-linecap:round; stroke-linejoin:round;fill-rule:evenodd;"
d="M 151295100.000000,111607600.000000
150787100.000000,111607600.000000
150787100.000000,111099600.000000
151295100.000000,111099600.000000
Z" /> 
<path style="fill:#AFAFAF; fill-opacity:1.0; 
stroke:#AFAFAF; stroke-width:1.000000; stroke-opacity:1; 
stroke-linecap:round; stroke-linejoin:round;fill-rule:evenodd;"
d="M 143675100.000000,111607600.000000
143167100.000000,111607600.000000
143167100.000000,111099600.000000
143675100.000000,111099600.000000
Z" /> 
</g>
<g style="fill:#AFAFAF; fill-opacity:1.0; 
stroke:#AFAFAF; stroke-width:101600.000000; stroke-opacity:1; 
stroke-linecap:round; stroke-linejoin:round;">
</g>
<g style="fill:#AFAFAF; fill-opacity:0.0; 
stroke:#AFAFAF; stroke-width:101600.000000; stroke-opacity:1; 
stroke-linecap:round; stroke-linejoin:round;">
<path d="M156858100 107391600
L156121100 107391600
" />
<path d="M156883100 108711600
L156121100 108711600
" />
</g>
<g style="fill:#AFAFAF; fill-opacity:1.0; 
stroke:#AFAFAF; stroke-width:1.000000; stroke-opacity:1; 
stroke-linecap:round; stroke-linejoin:round;">
<path style="fill:#AFAFAF; fill-opacity:1.0; 
stroke:#AFAFAF; stroke-width:1.000000; stroke-opacity:1; 
stroke-linecap:round; stroke-linejoin:round;fill-rule:evenodd;"
d="M 156146500.000000,108777800.000000
155396400.000000,108777800.000000
155396400.000000,107327700.000000
156146500.000000,107327700.000000
Z" /> 
<path style="fill:#AFAFAF; fill-opacity:1.0; 
stroke:#AFAFAF; stroke-width:1.000000; stroke-opacity:1; 
stroke-linecap:round; stroke-linejoin:round;fill-rule:evenodd;"
d="M 157594300.000000,108777800.000000
156844200.000000,108777800.000000
156844200.000000,107327700.000000
157594300.000000,107327700.000000
Z" /> 
</g>
<g style="fill:#AFAFAF; fill-opacity:1.0; 
stroke:#AFAFAF; stroke-width:101600.000000; stroke-opacity:1; 
stroke-linecap:round; stroke-linejoin:round;">
</g>
<g style="fill:#AFAFAF; fill-opacity:0.0; 
stroke:#AFAFAF; stroke-width:101600.000000; stroke-opacity:1; 
stroke-linecap:round; stroke-linejoin:round;">
<path d="M145301100 99517600
L144564100 99517600
" />
<path d="M145326100 100837600
L144564100 100837600
" />
</g>
<g style="fill:#AFAFAF; fill-opacity:1.0; 
stroke:#AFAFAF; stroke-width:1.000000; stroke-opacity:1; 
stroke-linecap:round; stroke-linejoin:round;">
<path style="fill:#AFAFAF; fill-opacity:1.0; 
stroke:#AFAFAF; stroke-width:1.000000; stroke-opacity:1; 
stroke-linecap:round; stroke-linejoin:round;fill-rule:evenodd;"
d="M 146037300.000000,100903800.000000
145287200.000000,100903800.000000
145287200.000000,99453700.000000
146037300.000000,99453700.000000
Z" /> 
<path style="fill:#AFAFAF; fill-opacity:1.0; 
stroke:#AFAFAF; stroke-width:1.000000; stroke-opacity:1; 
stroke-linecap:round; stroke-linejoin:round;fill-rule:evenodd;"
d="M 144589500.000000,100903800.000000
143839400.000000,100903800.000000
143839400.000000,99453700.000000
144589500.000000,99453700.000000
Z" /> 
</g>
<g style="fill:#AFAFAF; fill-opacity:1.0; 
stroke:#AFAFAF; stroke-width:101600.000000; stroke-opacity:1; 
stroke-linecap:round; stroke-linejoin:round;">
</g>
<g style="fill:#AFAFAF; fill-opacity:0.0; 
stroke:#AFAFAF; stroke-width:101600.000000; stroke-opacity:1; 
stroke-linecap:round; stroke-linejoin:round;">
<path d="M152336100 108711600
L153073100 108711600
" />
<path d="M152311100 107391600
L153073100 107391600
" />
</g>
<g style="fill:#AFAFAF; fill-opacity:1.0; 
stroke:#AFAFAF; stroke-width:1.000000; stroke-opacity:1; 
stroke-linecap:round; stroke-linejoin:round;">
<path style="fill:#AFAFAF; fill-opacity:1.0; 
stroke:#AFAFAF; stroke-width:1.000000; stroke-opacity:1; 
stroke-linecap:round; stroke-linejoin:round;fill-rule:evenodd;"
d="M 152350000.000000,108775500.000000
151599900.000000,108775500.000000
151599900.000000,107325400.000000
152350000.000000,107325400.000000
Z" /> 
<path style="fill:#AFAFAF; fill-opacity:1.0; 
stroke:#AFAFAF; stroke-width:1.000000; stroke-opacity:1; 
stroke-linecap:round; stroke-linejoin:round;fill-rule:evenodd;"
d="M 153797800.000000,108775500.000000
153047700.000000,108775500.000000
153047700.000000,107325400.000000
153797800.000000,107325400.000000
Z" /> 
</g>
<g style="fill:#AFAFAF; fill-opacity:1.0; 
stroke:#AFAFAF; stroke-width:203200.000000; stroke-opacity:1; 
stroke-linecap:round; stroke-linejoin:round;">
</g>
<g style="fill:#AFAFAF; fill-opacity:0.0; 
stroke:#AFAFAF; stroke-width:203200.000000; stroke-opacity:1; 
stroke-linecap:round; stroke-linejoin:round;">
<path d="M158074500 104597200
L158074500 105918000
" />
<path d="M154929700 105918000
L154929700 104597200
" />
<path d="M158074500 105918000
L154929700 105918000
" />
</g>
<g style="fill:#AFAFAF; fill-opacity:0.0; 
stroke:#AFAFAF; stroke-width:152400.000000; stroke-opacity:1; 
stroke-linecap:round; stroke-linejoin:round;">
<path d="M154929700 104597200
L158074500 104597200
" />
</g>
<g style="fill:#AFAFAF; fill-opacity:1.0; 
stroke:#AFAFAF; stroke-width:1.000000; stroke-opacity:1; 
stroke-linecap:round; stroke-linejoin:round;">
<path style="fill:#AFAFAF; fill-opacity:1.0; 
stroke:#AFAFAF; stroke-width:1.000000; stroke-opacity:1; 
stroke-linecap:round; stroke-linejoin:round;fill-rule:evenodd;"
d="M 155790900.000000,104546400.000000
155333700.000000,104546400.000000
155333700.000000,103962200.000000
155790900.000000,103962200.000000
Z" /> 
<path style="fill:#AFAFAF; fill-opacity:1.0; 
stroke:#AFAFAF; stroke-width:1.000000; stroke-opacity:1; 
stroke-linecap:round; stroke-linejoin:round;fill-rule:evenodd;"
d="M 157670500.000000,104546400.000000
157213300.000000,104546400.000000
157213300.000000,103962200.000000
157670500.000000,103962200.000000
Z" /> 
<path style="fill:#AFAFAF; fill-opacity:1.0; 
stroke:#AFAFAF; stroke-width:1.000000; stroke-opacity:1; 
stroke-linecap:round; stroke-linejoin:round;fill-rule:evenodd;"
d="M 156730700.000000,106553000.000000
156273500.000000,106553000.000000
156273500.000000,105968800.000000
156730700.000000,105968800.000000
Z" /> 
</g>
<g style="fill:#AFAFAF; fill-opacity:1.0; 
stroke:#AFAFAF; stroke-width:127000.000000; stroke-opacity:1; 
stroke-linecap:round; stroke-linejoin:round;">
</g>
<g style="fill:#AFAFAF; fill-opacity:0.0; 
stroke:#AFAFAF; stroke-width:127000.000000; stroke-opacity:1; 
stroke-linecap:round; stroke-linejoin:round;">
<path d="M149701100 105933600
L147301100 105933600
" />
<path d="M147301100 101533600
L149701100 101533600
" />
<path d="M149701100 101533600
L149701100 105933600
" />
<path d="M147301100 105933600
L147301100 101533600
" />
<circle cx="148501100.000000" cy="105268600.000000" r="100000.000000" /> 
<circle cx="148501100.000000" cy="102268600.000000" r="200000.000000" /> 
</g>
<g style="fill:#AFAFAF; fill-opacity:0.0; 
stroke:#AFAFAF; stroke-width:101600.000000; stroke-opacity:1; 
stroke-linecap:round; stroke-linejoin:round;">
<path d="M144158100 103225600
L144158100 102463600
" />
<path d="M145478100 103200600
L145478100 102463600
" />
</g>
<g style="fill:#AFAFAF; fill-opacity:1.0; 
stroke:#AFAFAF; stroke-width:1.000000; stroke-opacity:1; 
stroke-linecap:round; stroke-linejoin:round;">
<path style="fill:#AFAFAF; fill-opacity:1.0; 
stroke:#AFAFAF; stroke-width:1.000000; stroke-opacity:1; 
stroke-linecap:round; stroke-linejoin:round;fill-rule:evenodd;"
d="M 145542000.000000,103936800.000000
144091900.000000,103936800.000000
144091900.000000,103186700.000000
145542000.000000,103186700.000000
Z" /> 
<path style="fill:#AFAFAF; fill-opacity:1.0; 
stroke:#AFAFAF; stroke-width:1.000000; stroke-opacity:1; 
stroke-linecap:round; stroke-linejoin:round;fill-rule:evenodd;"
d="M 145542000.000000,102489000.000000
144091900.000000,102489000.000000
144091900.000000,101738900.000000
145542000.000000,101738900.000000
Z" /> 
</g>
<g style="fill:#AFAFAF; fill-opacity:1.0; 
stroke:#AFAFAF; stroke-width:101600.000000; stroke-opacity:1; 
stroke-linecap:round; stroke-linejoin:round;">
</g>
<g style="fill:#AFAFAF; fill-opacity:0.0; 
stroke:#AFAFAF; stroke-width:101600.000000; stroke-opacity:1; 
stroke-linecap:round; stroke-linejoin:round;">
<path d="M156121100 101930600
L156883100 101930600
" />
<path d="M156146100 103250600
L156883100 103250600
" />
</g>
<g style="fill:#AFAFAF; fill-opacity:1.0; 
stroke:#AFAFAF; stroke-width:1.000000; stroke-opacity:1; 
stroke-linecap:round; stroke-linejoin:round;">
<path style="fill:#AFAFAF; fill-opacity:1.0; 
stroke:#AFAFAF; stroke-width:1.000000; stroke-opacity:1; 
stroke-linecap:round; stroke-linejoin:round;fill-rule:evenodd;"
d="M 157607800.000000,103314500.000000
156857700.000000,103314500.000000
156857700.000000,101864400.000000
157607800.000000,101864400.000000
Z" /> 
<path style="fill:#AFAFAF; fill-opacity:1.0; 
stroke:#AFAFAF; stroke-width:1.000000; stroke-opacity:1; 
stroke-linecap:round; stroke-linejoin:round;fill-rule:evenodd;"
d="M 156160000.000000,103314500.000000
155409900.000000,103314500.000000
155409900.000000,101864400.000000
156160000.000000,101864400.000000
Z" /> 
</g>
<g style="fill:#AFAFAF; fill-opacity:1.0; 
stroke:#AFAFAF; stroke-width:101600.000000; stroke-opacity:1; 
stroke-linecap:round; stroke-linejoin:round;">
</g>
<g style="fill:#AFAFAF; fill-opacity:0.0; 
stroke:#AFAFAF; stroke-width:101600.000000; stroke-opacity:1; 
stroke-linecap:round; stroke-linejoin:round;">
<path d="M140906100 102488600
L141643100 102488600
" />
<path d="M140881100 101168600
L141643100 101168600
" />
</g>
<g style="fill:#AFAFAF; fill-opacity:1.0; 
stroke:#AFAFAF; stroke-width:1.000000; stroke-opacity:1; 
stroke-linecap:round; stroke-linejoin:round;">
<path style="fill:#AFAFAF; fill-opacity:1.0; 
stroke:#AFAFAF; stroke-width:1.000000; stroke-opacity:1; 
stroke-linecap:round; stroke-linejoin:round;fill-rule:evenodd;"
d="M 140920000.000000,102552500.000000
140169900.000000,102552500.000000
140169900.000000,101102400.000000
140920000.000000,101102400.000000
Z" /> 
<path style="fill:#AFAFAF; fill-opacity:1.0; 
stroke:#AFAFAF; stroke-width:1.000000; stroke-opacity:1; 
stroke-linecap:round; stroke-linejoin:round;fill-rule:evenodd;"
d="M 142367800.000000,102552500.000000
141617700.000000,102552500.000000
141617700.000000,101102400.000000
142367800.000000,101102400.000000
Z" /> 
</g>
<g style="fill:#AFAFAF; fill-opacity:1.0; 
stroke:#AFAFAF; stroke-width:152400.000000; stroke-opacity:1; 
stroke-linecap:round; stroke-linejoin:round;">
</g>
<g style="fill:#AFAFAF; fill-opacity:0.0; 
stroke:#AFAFAF; stroke-width:152400.000000; stroke-opacity:1; 
stroke-linecap:round; stroke-linejoin:round;">
<path d="M151119700 104597200
L154264500 104597200
" />
</g>
<g style="fill:#AFAFAF; fill-opacity:0.0; 
stroke:#AFAFAF; stroke-width:203200.000000; stroke-opacity:1; 
stroke-linecap:round; stroke-linejoin:round;">
<path d="M154264500 105918000
L151119700 105918000
" />
<path d="M151119700 105918000
L151119700 104597200
" />
<path d="M154264500 104597200
L154264500 105918000
" />
</g>
<g style="fill:#AFAFAF; fill-opacity:1.0; 
stroke:#AFAFAF; stroke-width:1.000000; stroke-opacity:1; 
stroke-linecap:round; stroke-linejoin:round;">
<path style="fill:#AFAFAF; fill-opacity:1.0; 
stroke:#AFAFAF; stroke-width:1.000000; stroke-opacity:1; 
stroke-linecap:round; stroke-linejoin:round;fill-rule:evenodd;"
d="M 151980900.000000,104546400.000000
151523700.000000,104546400.000000
151523700.000000,103962200.000000
151980900.000000,103962200.000000
Z" /> 
<path style="fill:#AFAFAF; fill-opacity:1.0; 
stroke:#AFAFAF; stroke-width:1.000000; stroke-opacity:1; 
stroke-linecap:round; stroke-linejoin:round;fill-rule:evenodd;"
d="M 153860500.000000,104546400.000000
153403300.000000,104546400.000000
153403300.000000,103962200.000000
153860500.000000,103962200.000000
Z" /> 
<path style="fill:#AFAFAF; fill-opacity:1.0; 
stroke:#AFAFAF; stroke-width:1.000000; stroke-opacity:1; 
stroke-linecap:round; stroke-linejoin:round;fill-rule:evenodd;"
d="M 152920700.000000,106553000.000000
152463500.000000,106553000.000000
152463500.000000,105968800.000000
152920700.000000,105968800.000000
Z" /> 
<g >
</g>
<g >
</g>
<g >
</g>
<g >
</g>
<g >
</g>
<g >
</g>
<g >
</g>
<g >
</g>
<g >
</g>
<g >
</g>
<g >
</g>
<g >
</g>
<g >
</g>
<g >
</g>
<g >
</g>
<g >
</g>
<g >
</g>
<g >
</g>
<g >
</g>
<g >
</g>
<g >
</g>
<g >
</g>
<g >
</g>
<g >
</g>
<g >
</g>
</g>
<g style="fill:#000000; fill-opacity:1.0; 
stroke:#000000; stroke-width:1.000000; stroke-opacity:1; 
stroke-linecap:round; stroke-linejoin:round;">
</g>
<g style="fill:#D0D2CD; fill-opacity:1.0; 
stroke:#D0D2CD; stroke-width:1.000000; stroke-opacity:1; 
stroke-linecap:round; stroke-linejoin:round;">
</g>
<g style="fill:#D0D2CD; fill-opacity:1.0; 
stroke:#D0D2CD; stroke-width:50000.000000; stroke-opacity:1; 
stroke-linecap:round; stroke-linejoin:round;">
</g>
<g style="fill:#D0D2CD; fill-opacity:0.0; 
stroke:#D0D2CD; stroke-width:50000.000000; stroke-opacity:1; 
stroke-linecap:round; stroke-linejoin:round;">
<path d="M138341100 111353600
L138341100 98653600
" />
<path d="M140881100.000000 96113600.000000 A2540000.000000 2540000.000000 0.0 0 0 138341100.000000 98653600.000000" />
<path d="M158661100.000000 98653600.000000 A2540000.000000 2540000.000000 0.0 0 0 156121100.000000 96113600.000000" />
<path d="M156121100.000000 113893600.000000 A2540000.000000 2540000.000000 0.0 0 0 158661100.000000 111353600.000000" />
<path d="M156121100 113893600
L140881100 113893600
" />
<path d="M138341100.000000 111353600.000000 A2540000.000000 2540000.000000 0.0 0 0 140881100.000000 113893600.000000" />
<path d="M158661100 98653600
L158661100 111353600
" />
<path d="M140881100 96113600
L156121100 96113600
" />
<g >
</g>
<g >
</g>
<g >
</g>
<g >
</g>
<g >
</g>
<g >
</g>
<g >
</g>
<g >
</g>
<g >
</g>
<g >
</g>
<g >
</g>
<g >
</g>
<g >
</g>
<g >
</g>
<g >
</g>
<g >
</g>
<g >
</g>
<g >
</g>
<g >
</g>
<g >
</g>
<g >
</g>
<g >
</g>
<g >
</g>
<g >
</g>
<g >
</g>
</g> 
</svg>
