<!DOCTYPE svg PUBLIC "-//W3C//DTD SVG 1.1//EN" "http://www.w3.org/Graphics/SVG/1.1/DTD/svg11.dtd">
<svg xmlns="http://www.w3.org/2000/svg" version="1.1" width="19.78mm" height="19.78mm" viewBox="-15839110.0 9511360.0 1978000.0 1978000.0">
            <title>Picture generated by PcbDraw </title>
            <desc>Picture generated by PcbDraw</desc>
        <defs><clipPath id="cut-off"><path d=" M 15739110.0 9611360.0 L 13961110.0 9611360.0 L 13961110.0 11389360.0 L 15737110.0 11389360.0 L 15739110.0 9611360.0 " style="fill-rule: evenodd;"/></clipPath><mask id="pads-mask"><g style="fill:#ffffff; fill-opacity:0.0;  stroke:#ffffff; stroke-width:0.000000; stroke-opacity:1;  stroke-linecap:round; stroke-linejoin:round;">
<g style="fill:#ffffff; fill-opacity:1.0;  stroke:#ffffff; stroke-width:0.100000; stroke-opacity:1;  stroke-linecap:round; stroke-linejoin:round;">
<circle cx="15485110.000000" cy="9865360.000000" r="165100.000000"/> 
</g>
<g style="fill:#ffffff; fill-opacity:1.0;  stroke:#ffffff; stroke-width:0.100000; stroke-opacity:1;  stroke-linecap:round; stroke-linejoin:round;">
<path style="fill:#ffffff; fill-opacity:1.0;  stroke:#ffffff; stroke-width:0.100000; stroke-opacity:1;  stroke-linecap:round; stroke-linejoin:round;fill-rule:evenodd;" d="M 15325090.000000,11158220.000000 15328978.100000,11158993.400000 15332274.200000,11161195.800000 15334476.600000,11164491.900000 15335250.000000,11168380.000000 15335250.000000,11356340.000000 15334476.600000,11360228.100000 15332274.200000,11363524.200000 15328978.100000,11365726.600000 15325090.000000,11366500.000000 15137130.000000,11366500.000000 15133241.900000,11365726.600000 15129945.800000,11363524.200000 15127743.400000,11360228.100000 15126970.000000,11356340.000000 15126970.000000,11168380.000000 15127743.400000,11164491.900000 15129945.800000,11161195.800000 15133241.900000,11158993.400000 15137130.000000,11158220.000000 Z"/> 
<circle cx="14977110.000000" cy="11262360.000000" r="104140.000000"/> 
</g>
<g style="fill:#ffffff; fill-opacity:1.0;  stroke:#ffffff; stroke-width:0.100000; stroke-opacity:1;  stroke-linecap:round; stroke-linejoin:round;">
<circle cx="14723110.000000" cy="11262360.000000" r="104140.000000"/> 
</g>
<g style="fill:#ffffff; fill-opacity:1.0;  stroke:#ffffff; stroke-width:0.100000; stroke-opacity:1;  stroke-linecap:round; stroke-linejoin:round;">
<circle cx="14469110.000000" cy="11262360.000000" r="104140.000000"/> 
</g>
<g style="fill:#ffffff; fill-opacity:1.0;  stroke:#ffffff; stroke-width:0.100000; stroke-opacity:1;  stroke-linecap:round; stroke-linejoin:round;">
<circle cx="14215110.000000" cy="9865360.000000" r="165100.000000"/> 
</g>
</g> 
</mask><mask id="pads-mask-silkscreen"><rect x="12310110.0" y="9579610.0" width="10327301.3" height="2723750.0" fill="white"/><g style="fill:#000000; fill-opacity:0.0;  stroke:#000000; stroke-width:0.000000; stroke-opacity:1;  stroke-linecap:round; stroke-linejoin:round;">
<g style="fill:#000000; fill-opacity:1.0;  stroke:#000000; stroke-width:0.100000; stroke-opacity:1;  stroke-linecap:round; stroke-linejoin:round;">
<circle cx="15485110.000000" cy="9865360.000000" r="165100.000000"/> 
</g>
<g style="fill:#000000; fill-opacity:1.0;  stroke:#000000; stroke-width:0.100000; stroke-opacity:1;  stroke-linecap:round; stroke-linejoin:round;">
<path style="fill:#000000; fill-opacity:1.0;  stroke:#000000; stroke-width:0.100000; stroke-opacity:1;  stroke-linecap:round; stroke-linejoin:round;fill-rule:evenodd;" d="M 15325090.000000,11158220.000000 15328978.100000,11158993.400000 15332274.200000,11161195.800000 15334476.600000,11164491.900000 15335250.000000,11168380.000000 15335250.000000,11356340.000000 15334476.600000,11360228.100000 15332274.200000,11363524.200000 15328978.100000,11365726.600000 15325090.000000,11366500.000000 15137130.000000,11366500.000000 15133241.900000,11365726.600000 15129945.800000,11363524.200000 15127743.400000,11360228.100000 15126970.000000,11356340.000000 15126970.000000,11168380.000000 15127743.400000,11164491.900000 15129945.800000,11161195.800000 15133241.900000,11158993.400000 15137130.000000,11158220.000000 Z"/> 
<circle cx="14977110.000000" cy="11262360.000000" r="104140.000000"/> 
</g>
<g style="fill:#000000; fill-opacity:1.0;  stroke:#000000; stroke-width:0.100000; stroke-opacity:1;  stroke-linecap:round; stroke-linejoin:round;">
<circle cx="14723110.000000" cy="11262360.000000" r="104140.000000"/> 
</g>
<g style="fill:#000000; fill-opacity:1.0;  stroke:#000000; stroke-width:0.100000; stroke-opacity:1;  stroke-linecap:round; stroke-linejoin:round;">
<circle cx="14469110.000000" cy="11262360.000000" r="104140.000000"/> 
</g>
<g style="fill:#000000; fill-opacity:1.0;  stroke:#000000; stroke-width:0.100000; stroke-opacity:1;  stroke-linecap:round; stroke-linejoin:round;">
<circle cx="14215110.000000" cy="9865360.000000" r="165100.000000"/> 
</g>
</g> 
</mask><mask id="hole-mask"><g><rect x="12310110.0" y="9579610.0" fill="white" width="10327301.3" height="2723750.0"/><polyline stroke-linecap="round" stroke="black" stroke-width="330200.0" points="-0.0 0 0.0 0" transform="translate(15485110.0 9865360.0) rotate(-0.0)"/><polyline stroke-linecap="round" stroke="black" stroke-width="101600.0" points="-0.0 0 0.0 0" transform="translate(15231110.0 11262360.0) rotate(-270.0)"/><polyline stroke-linecap="round" stroke="black" stroke-width="101600.0" points="-0.0 0 0.0 0" transform="translate(14977110.0 11262360.0) rotate(-270.0)"/><polyline stroke-linecap="round" stroke="black" stroke-width="101600.0" points="-0.0 0 0.0 0" transform="translate(14723110.0 11262360.0) rotate(-270.0)"/><polyline stroke-linecap="round" stroke="black" stroke-width="101600.0" points="-0.0 0 0.0 0" transform="translate(14469110.0 11262360.0) rotate(-270.0)"/><polyline stroke-linecap="round" stroke="black" stroke-width="330200.0" points="-0.0 0 0.0 0" transform="translate(14215110.0 9865360.0) rotate(-0.0)"/><polyline stroke-linecap="round" stroke="black" stroke-width="50800.0" points="-0.0 0 0.0 0" transform="translate(14291310.0 10309860.0) rotate(0.0)"/><polyline stroke-linecap="round" stroke="black" stroke-width="50800.0" points="-0.0 0 0.0 0" transform="translate(14519910.0 10690860.0) rotate(0.0)"/><polyline stroke-linecap="round" stroke="black" stroke-width="50800.0" points="-0.0 0 0.0 0" transform="translate(15116810.0 10220960.0) rotate(0.0)"/></g></mask></defs><g transform="scale(-1,1)" id="boardContainer"><g id="substrate" clip-path="url(#cut-off)" mask="url(#hole-mask)"><g id="substrate-board" style="fill:#4ca06c; stroke:#4ca06c;"><path d=" M 15739110.0 9611360.0 L 13961110.0 9611360.0 L 13961110.0 11389360.0 L 15737110.0 11389360.0 L 15739110.0 9611360.0 " style="fill-rule: evenodd;"/><g style="fill-opacity: 0.0;stroke-width: 25400.000000;stroke-opacity: 1;stroke-linecap: round;stroke-linejoin: round">
<path d="M15737110 11389360 L15739110 9611360 "/>
<path d="M15739110 9611360 L13961110 9611360 "/>
<path d="M13961110 9611360 L13961110 11389360 "/>
<path d="M13961110 11389360 L15737110 11389360 "/>
</g> 
</g><g id="substrate-clad" style="fill:#9c6b28; stroke:#9c6b28;"><g style="fill-opacity: 0.0;stroke-width: 0.000000;stroke-opacity: 1;stroke-linecap: round;stroke-linejoin: round">
<g style="fill-opacity: 1.0;stroke-width: 0.100000;stroke-opacity: 1;stroke-linecap: round;stroke-linejoin: round">
<circle cx="15485110.000000" cy="9865360.000000" r="165100.000000"/> 
</g>
<g style="fill-opacity: 1.0;stroke-width: 0.100000;stroke-opacity: 1;stroke-linecap: round;stroke-linejoin: round">
<path style="fill-opacity: 1.0;stroke-width: 0.100000;stroke-opacity: 1;stroke-linecap: round;stroke-linejoin: round;fill-rule: evenodd" d="M 15325090.000000,11158220.000000 15328978.100000,11158993.400000 15332274.200000,11161195.800000 15334476.600000,11164491.900000 15335250.000000,11168380.000000 15335250.000000,11356340.000000 15334476.600000,11360228.100000 15332274.200000,11363524.200000 15328978.100000,11365726.600000 15325090.000000,11366500.000000 15137130.000000,11366500.000000 15133241.900000,11365726.600000 15129945.800000,11363524.200000 15127743.400000,11360228.100000 15126970.000000,11356340.000000 15126970.000000,11168380.000000 15127743.400000,11164491.900000 15129945.800000,11161195.800000 15133241.900000,11158993.400000 15137130.000000,11158220.000000 Z"/> 
<circle cx="14977110.000000" cy="11262360.000000" r="104140.000000"/> 
</g>
<g style="fill-opacity: 1.0;stroke-width: 0.100000;stroke-opacity: 1;stroke-linecap: round;stroke-linejoin: round">
<circle cx="14723110.000000" cy="11262360.000000" r="104140.000000"/> 
</g>
<g style="fill-opacity: 1.0;stroke-width: 0.100000;stroke-opacity: 1;stroke-linecap: round;stroke-linejoin: round">
<circle cx="14469110.000000" cy="11262360.000000" r="104140.000000"/> 
</g>
<g style="fill-opacity: 1.0;stroke-width: 0.100000;stroke-opacity: 1;stroke-linecap: round;stroke-linejoin: round">
<circle cx="14215110.000000" cy="9865360.000000" r="165100.000000"/> 
</g>
</g> 
</g><g id="substrate-copper" style="fill:#417e5a; stroke:#417e5a;"><g style="fill-opacity: 0.0;stroke-width: 15240.000000;stroke-opacity: 1;stroke-linecap: round;stroke-linejoin: round">
<g transform="rotate(90.000000 14088110.000000 10627360.000000)">
<text x="14088110.000000" y="10713720.000000" transform="scale(-1 1) translate(-28176220.000000 0)" textLength="542834.200000" font-size="115146.600000" lengthAdjust="spacingAndGlyphs" text-anchor="end" opacity="0">7-8-11</text>
</g>
<g class="stroked-text"><desc>7-8-11</desc>
<path d="M14092222 11167763 L14092222 11110189 L14005862 11147201 "/>
<path d="M14038761 11077290 L14038761 11011492 "/>
<path d="M14055210 10958031 L14059323 10966256 L14063435 10970368 L14071660 10974481 L14075772 10974481 L14083997 10970368 L14088110 10966256 L14092222 10958031 L14092222 10941582 L14088110 10933357 L14083997 10929245 L14075772 10925132 L14071660 10925132 L14063435 10929245 L14059323 10933357 L14055210 10941582 L14055210 10958031 L14051098 10966256 L14046986 10970368 L14038761 10974481 L14022311 10974481 L14014087 10970368 L14009974 10966256 L14005862 10958031 L14005862 10941582 L14009974 10933357 L14014087 10929245 L14022311 10925132 L14038761 10925132 L14046986 10929245 L14051098 10933357 L14055210 10941582 "/>
<path d="M14038761 10888121 L14038761 10822323 "/>
<path d="M14005862 10735963 L14005862 10785311 "/>
<path d="M14005862 10760637 L14092222 10760637 L14079885 10768862 L14071660 10777086 L14067548 10785311 "/>
<path d="M14005862 10653715 L14005862 10703064 "/>
<path d="M14005862 10678389 L14092222 10678389 L14079885 10686614 L14071660 10694839 L14067548 10703064 "/>
</g><g style="fill-opacity: 1.0;stroke-width: 0.100000;stroke-opacity: 1;stroke-linecap: round;stroke-linejoin: round">
<path style="fill-opacity: 1.0;stroke-width: 0.100000;stroke-opacity: 1;stroke-linecap: round;stroke-linejoin: round;fill-rule: evenodd" d="M 15137130.000000,11168380.000000 15325090.000000,11168380.000000 15325090.000000,11356340.000000 15137130.000000,11356340.000000 Z"/> 
<circle cx="14977110.000000" cy="11262360.000000" r="93980.000000"/> 
</g>
<g style="fill-opacity: 1.0;stroke-width: 0.100000;stroke-opacity: 1;stroke-linecap: round;stroke-linejoin: round">
<circle cx="14723110.000000" cy="11262360.000000" r="93980.000000"/> 
</g>
<g style="fill-opacity: 1.0;stroke-width: 0.100000;stroke-opacity: 1;stroke-linecap: round;stroke-linejoin: round">
<circle cx="14469110.000000" cy="11262360.000000" r="93980.000000"/> 
</g>
<g style="fill-opacity: 1.0;stroke-width: 0.100000;stroke-opacity: 1;stroke-linecap: round;stroke-linejoin: round">
<circle cx="14291310.000000" cy="10309860.000000" r="50800.000000"/> 
</g>
<g style="fill-opacity: 1.0;stroke-width: 0.100000;stroke-opacity: 1;stroke-linecap: round;stroke-linejoin: round">
<circle cx="14519910.000000" cy="10690860.000000" r="50800.000000"/> 
</g>
<g style="fill-opacity: 1.0;stroke-width: 0.100000;stroke-opacity: 1;stroke-linecap: round;stroke-linejoin: round">
<circle cx="15116810.000000" cy="10220960.000000" r="50800.000000"/> 
</g>
<g style="fill-opacity: 0.0;stroke-width: 25400.000000;stroke-opacity: 1;stroke-linecap: round;stroke-linejoin: round">
<path d="M14659610 10944860 L14659610 10678160 "/>
<path d="M14659610 10944860 L14977110 11262360 "/>
<path d="M14659610 10678160 L14291310 10309860 "/>
<path d="M14596110 10767060 L14519910 10690860 "/>
<path d="M14723110 11262360 L14723110 11097260 "/>
<path d="M14723110 11097260 L14596110 10970260 "/>
<path d="M14596110 10970260 L14596110 10767060 "/>
</g>
</g> 
</g><g id="substrate-pads" style="fill:#b5ae30; stroke:#b5ae30;" mask="url(#pads-mask)"><g style="fill-opacity: 0.0;stroke-width: 15240.000000;stroke-opacity: 1;stroke-linecap: round;stroke-linejoin: round">
<g transform="rotate(90.000000 14088110.000000 10627360.000000)">
<text x="14088110.000000" y="10713720.000000" transform="scale(-1 1) translate(-28176220.000000 0)" textLength="523022.300000" font-size="115146.600000" lengthAdjust="spacingAndGlyphs" text-anchor="end" opacity="0">7-8-11</text>
</g>
<g class="stroked-text"><desc>7-8-11</desc>
<path d="M14092222 11167763 L14092222 11110189 L14005862 11147201 "/>
<path d="M14038761 11077290 L14038761 11011492 "/>
<path d="M14055210 10958031 L14059323 10966256 L14063435 10970368 L14071660 10974481 L14075772 10974481 L14083997 10970368 L14088110 10966256 L14092222 10958031 L14092222 10941582 L14088110 10933357 L14083997 10929245 L14075772 10925132 L14071660 10925132 L14063435 10929245 L14059323 10933357 L14055210 10941582 L14055210 10958031 L14051098 10966256 L14046986 10970368 L14038761 10974481 L14022311 10974481 L14014087 10970368 L14009974 10966256 L14005862 10958031 L14005862 10941582 L14009974 10933357 L14014087 10929245 L14022311 10925132 L14038761 10925132 L14046986 10929245 L14051098 10933357 L14055210 10941582 "/>
<path d="M14038761 10888121 L14038761 10822323 "/>
<path d="M14005862 10735963 L14005862 10785311 "/>
<path d="M14005862 10760637 L14092222 10760637 L14079885 10768862 L14071660 10777086 L14067548 10785311 "/>
<path d="M14005862 10653715 L14005862 10703064 "/>
<path d="M14005862 10678389 L14092222 10678389 L14079885 10686614 L14071660 10694839 L14067548 10703064 "/>
</g><g style="fill-opacity: 1.0;stroke-width: 0.100000;stroke-opacity: 1;stroke-linecap: round;stroke-linejoin: round">
<path style="fill-opacity: 1.0;stroke-width: 0.100000;stroke-opacity: 1;stroke-linecap: round;stroke-linejoin: round;fill-rule: evenodd" d="M 15137130.000000,11168380.000000 15325090.000000,11168380.000000 15325090.000000,11356340.000000 15137130.000000,11356340.000000 Z"/> 
<circle cx="14977110.000000" cy="11262360.000000" r="93980.000000"/> 
</g>
<g style="fill-opacity: 1.0;stroke-width: 0.100000;stroke-opacity: 1;stroke-linecap: round;stroke-linejoin: round">
<circle cx="14723110.000000" cy="11262360.000000" r="93980.000000"/> 
</g>
<g style="fill-opacity: 1.0;stroke-width: 0.100000;stroke-opacity: 1;stroke-linecap: round;stroke-linejoin: round">
<circle cx="14469110.000000" cy="11262360.000000" r="93980.000000"/> 
</g>
<g style="fill-opacity: 1.0;stroke-width: 0.100000;stroke-opacity: 1;stroke-linecap: round;stroke-linejoin: round">
<circle cx="14291310.000000" cy="10309860.000000" r="50800.000000"/> 
</g>
<g style="fill-opacity: 1.0;stroke-width: 0.100000;stroke-opacity: 1;stroke-linecap: round;stroke-linejoin: round">
<circle cx="14519910.000000" cy="10690860.000000" r="50800.000000"/> 
</g>
<g style="fill-opacity: 1.0;stroke-width: 0.100000;stroke-opacity: 1;stroke-linecap: round;stroke-linejoin: round">
<circle cx="15116810.000000" cy="10220960.000000" r="50800.000000"/> 
</g>
<g style="fill-opacity: 0.0;stroke-width: 25400.000000;stroke-opacity: 1;stroke-linecap: round;stroke-linejoin: round">
<path d="M14659610 10944860 L14659610 10678160 "/>
<path d="M14659610 10944860 L14977110 11262360 "/>
<path d="M14659610 10678160 L14291310 10309860 "/>
<path d="M14596110 10767060 L14519910 10690860 "/>
<path d="M14723110 11262360 L14723110 11097260 "/>
<path d="M14723110 11097260 L14596110 10970260 "/>
<path d="M14596110 10970260 L14596110 10767060 "/>
</g>
</g> 
</g><g id="substrate-silk" style="fill:#f0f0f0; stroke:#f0f0f0;" mask="url(#pads-mask-silkscreen)"><g style="fill-opacity: 0.0;stroke-width: 19050.000000;stroke-opacity: 1;stroke-linecap: round;stroke-linejoin: round">
<g transform="rotate(90.000000 14913610.000000 11109960.000000)">
<text x="14913610.000000" y="11109960.000000" transform="scale(-1 1) translate(-29827220.000000 0)" textLength="288616.600000" font-size="143933.300000" lengthAdjust="spacingAndGlyphs" text-anchor="start" opacity="0">VCC</text>
</g>
<g class="stroked-text"><desc>VCC</desc>
<path d="M15026700 11087296 L14918750 11051313 L15026700 11015329 "/>
<path d="M14929031 10917660 L14923890 10922801 L14918750 10938222 L14918750 10948503 L14923890 10963925 L14934171 10974206 L14944452 10979346 L14965014 10984487 L14980436 10984487 L15000998 10979346 L15011279 10974206 L15021560 10963925 L15026700 10948503 L15026700 10938222 L15021560 10922801 L15016419 10917660 "/>
<path d="M14929031 10809710 L14923890 10814851 L14918750 10830272 L14918750 10840553 L14923890 10855975 L14934171 10866256 L14944452 10871396 L14965014 10876537 L14980436 10876537 L15000998 10871396 L15011279 10866256 L15021560 10855975 L15026700 10840553 L15026700 10830272 L15021560 10814851 L15016419 10809710 "/>
</g><g transform="rotate(90.000000 15167610.000000 11109960.000000)">
<text x="15167610.000000" y="11109960.000000" transform="scale(-1 1) translate(-30335220.000000 0)" textLength="304225.500000" font-size="143933.300000" lengthAdjust="spacingAndGlyphs" text-anchor="start" opacity="0">GND</text>
</g>
<g class="stroked-text"><desc>GND</desc>
<path d="M15275560 11015329 L15280700 11025610 L15280700 11041032 L15275560 11056453 L15265279 11066734 L15254998 11071875 L15234436 11077015 L15219014 11077015 L15198452 11071875 L15188171 11066734 L15177890 11056453 L15172750 11041032 L15172750 11030751 L15177890 11015329 L15183031 11010189 L15219014 11010189 L15219014 11030751 "/>
<path d="M15172750 10963925 L15280700 10963925 L15172750 10902239 L15280700 10902239 "/>
<path d="M15172750 10850834 L15280700 10850834 L15280700 10825132 L15275560 10809710 L15265279 10799429 L15254998 10794289 L15234436 10789148 L15219014 10789148 L15198452 10794289 L15188171 10799429 L15177890 10809710 L15172750 10825132 L15172750 10850834 "/>
</g><g transform="rotate(90.000000 14405610.000000 11097260.000000)">
<text x="14405610.000000" y="11097260.000000" transform="scale(-1 1) translate(-28811220.000000 0)" textLength="273382.600000" font-size="143933.300000" lengthAdjust="spacingAndGlyphs" text-anchor="start" opacity="0">SCL</text>
</g>
<g class="stroked-text"><desc>SCL</desc>
<path d="M14415890 11064315 L14410750 11048894 L14410750 11023191 L14415890 11012910 L14421031 11007770 L14431312 11002629 L14441593 11002629 L14451874 11007770 L14457014 11012910 L14462155 11023191 L14467295 11043753 L14472436 11054034 L14477576 11059175 L14487857 11064315 L14498138 11064315 L14508419 11059175 L14513560 11054034 L14518700 11043753 L14518700 11018051 L14513560 11002629 "/>
<path d="M14421031 10894679 L14415890 10899820 L14410750 10915241 L14410750 10925522 L14415890 10940944 L14426171 10951225 L14436452 10956365 L14457014 10961506 L14472436 10961506 L14492998 10956365 L14503279 10951225 L14513560 10940944 L14518700 10925522 L14518700 10915241 L14513560 10899820 L14508419 10894679 "/>
<path d="M14410750 10797010 L14410750 10848415 L14518700 10848415 "/>
</g><g transform="rotate(90.000000 14659610.000000 11109960.000000)">
<text x="14659610.000000" y="11109960.000000" transform="scale(-1 1) translate(-29319220.000000 0)" textLength="278523.100000" font-size="143933.300000" lengthAdjust="spacingAndGlyphs" text-anchor="start" opacity="0">SDA</text>
</g>
<g class="stroked-text"><desc>SDA</desc>
<path d="M14669890 11077015 L14664750 11061594 L14664750 11035891 L14669890 11025610 L14675031 11020470 L14685312 11015329 L14695593 11015329 L14705874 11020470 L14711014 11025610 L14716155 11035891 L14721295 11056453 L14726436 11066734 L14731576 11071875 L14741857 11077015 L14752138 11077015 L14762419 11071875 L14767560 11066734 L14772700 11056453 L14772700 11030751 L14767560 11015329 "/>
<path d="M14664750 10969065 L14772700 10969065 L14772700 10943363 L14767560 10927941 L14757279 10917660 L14746998 10912520 L14726436 10907379 L14711014 10907379 L14690452 10912520 L14680171 10917660 L14669890 10927941 L14664750 10943363 L14664750 10969065 "/>
<path d="M14695593 10866256 L14695593 10814851 "/>
<path d="M14664750 10876537 L14772700 10840553 L14664750 10804570 "/>
</g></g>
<g style="fill-opacity: 1.0;stroke-width: 0.100000;stroke-opacity: 1;stroke-linecap: round;stroke-linejoin: round">
<path style="fill-opacity: 1.0;stroke-width: 0.100000;stroke-opacity: 1;stroke-linecap: round;stroke-linejoin: round;fill-rule: evenodd" d="M 14895735.300000,9819244.500000 14918761.700000,9826613.900000 14940257.000000,9837683.500000 15004541.900000,9785265.300000 15057204.700000,9837928.100000 15004786.500000,9902213.000000 15015856.100000,9923708.300000 15023225.500000,9946734.700000 15105750.000000,9955112.900000 15105750.000000,10029607.100000 15023225.500000,10037985.300000 15015856.100000,10061011.700000 15004786.500000,10082507.000000 15057204.700000,10146791.900000 15004541.900000,10199454.700000 14939921.600000,10146763.000000 14895779.100000,10165044.900000 14887357.100000,10248000.000000 14812862.900000,10248000.000000 14804440.900000,10165044.900000 14760298.400000,10146763.000000 14695678.100000,10199454.700000 14643015.300000,10146791.900000 14695290.000000,10082683.000000 14690633.100000,10074499.400000 14681215.200000,10054203.500000 14781217.600000,10012780.300000 14793013.300000,10033845.900000 14804274.500000,10046029.100000 14817693.400000,10054995.500000 14850573.800000,10062888.300000 14866018.400000,10061125.000000 14881108.200000,10055769.900000 14894602.300000,10047151.400000 14905807.200000,10035712.700000 14914145.000000,10022043.700000 14919187.400000,10006846.500000 14920674.700000,9990903.600000 14918530.400000,9975036.600000 14912864.700000,9960060.600000 14903969.200000,9946746.900000 14892301.900000,9935781.000000 14878463.700000,9927727.300000 14863165.200000,9922999.700000 14847195.300000,9921841.900000 14831375.700000,9924313.500000 14816519.700000,9930287.300000 14803749.800000,9939206.400000 14780568.700000,9971671.000000 14680908.900000,9930389.600000 14695432.300000,9902211.500000 14643015.300000,9837928.100000 14695678.100000,9785265.300000 14760298.400000,9837957.000000 14804440.900000,9819675.100000 14812862.900000,9736720.000000 14887357.100000,9736720.000000 Z"/> 
</g> 
</g><g id="substrate-outline" style="fill:#000000; stroke:#000000; stroke-width: 15000.0"><g style="fill-opacity: 0.0;stroke-opacity: 1;stroke-linecap: round;stroke-linejoin: round">
<path d="M15737110 11389360 L15739110 9611360 "/>
<path d="M15739110 9611360 L13961110 9611360 "/>
<path d="M13961110 9611360 L13961110 11389360 "/>
<path d="M13961110 11389360 L15737110 11389360 "/>
</g> 
<path d="M -165100.0 0.0 A 165100.0 165100.0 0 1 1 165100.0 0.0 L 165100.0 -0.0 A 165100.0 165100.0 0 1 1 -165100.0 -0.0 Z" transform="translate(15485110.0 9865360.0) rotate(-0.0)"/><path d="M -50800.0 0.0 A 50800.0 50800.0 0 1 1 50800.0 0.0 L 50800.0 -0.0 A 50800.0 50800.0 0 1 1 -50800.0 -0.0 Z" transform="translate(15231110.0 11262360.0) rotate(-270.0)"/><path d="M -50800.0 0.0 A 50800.0 50800.0 0 1 1 50800.0 0.0 L 50800.0 -0.0 A 50800.0 50800.0 0 1 1 -50800.0 -0.0 Z" transform="translate(14977110.0 11262360.0) rotate(-270.0)"/><path d="M -50800.0 0.0 A 50800.0 50800.0 0 1 1 50800.0 0.0 L 50800.0 -0.0 A 50800.0 50800.0 0 1 1 -50800.0 -0.0 Z" transform="translate(14723110.0 11262360.0) rotate(-270.0)"/><path d="M -50800.0 0.0 A 50800.0 50800.0 0 1 1 50800.0 0.0 L 50800.0 -0.0 A 50800.0 50800.0 0 1 1 -50800.0 -0.0 Z" transform="translate(14469110.0 11262360.0) rotate(-270.0)"/><path d="M -165100.0 0.0 A 165100.0 165100.0 0 1 1 165100.0 0.0 L 165100.0 -0.0 A 165100.0 165100.0 0 1 1 -165100.0 -0.0 Z" transform="translate(14215110.0 9865360.0) rotate(-0.0)"/><path d="M -25400.0 0.0 A 25400.0 25400.0 0 1 1 25400.0 0.0 L 25400.0 -0.0 A 25400.0 25400.0 0 1 1 -25400.0 -0.0 Z" transform="translate(14291310.0 10309860.0) rotate(0.0)"/><path d="M -25400.0 0.0 A 25400.0 25400.0 0 1 1 25400.0 0.0 L 25400.0 -0.0 A 25400.0 25400.0 0 1 1 -25400.0 -0.0 Z" transform="translate(14519910.0 10690860.0) rotate(0.0)"/><path d="M -25400.0 0.0 A 25400.0 25400.0 0 1 1 25400.0 0.0 L 25400.0 -0.0 A 25400.0 25400.0 0 1 1 -25400.0 -0.0 Z" transform="translate(15116810.0 10220960.0) rotate(0.0)"/></g></g></g></svg>