<?xml version="1.0" standalone="no"?>
 <!DOCTYPE svg PUBLIC "-//W3C//DTD SVG 1.1//EN" 
 "http://www.w3.org/Graphics/SVG/1.1/DTD/svg11.dtd"> 
<svg
  xmlns:svg="http://www.w3.org/2000/svg"
  xmlns="http://www.w3.org/2000/svg"
  xmlns:xlink="http://www.w3.org/1999/xlink"
  version="1.1"
  width="29.700220cm" height="21.000720cm" viewBox="0 0 297002200 210007200">
<title>SVG Picture created as kicadBoard-F_Fab.svg date 2022/11/05 06:20:05 </title>
  <desc>Picture generated by PCBNEW </desc>
<g style="fill:#000000; fill-opacity:1.000000;stroke:#000000; stroke-opacity:1.000000;
stroke-linecap:round; stroke-linejoin:round;"
 transform="translate(0 0) scale(1 1)">
</g>
<g style="fill:#000000; fill-opacity:0.0; 
stroke:#000000; stroke-width:0.000000; stroke-opacity:1; 
stroke-linecap:round; stroke-linejoin:round;">
</g>
<g style="fill:#000000; fill-opacity:0.0; 
stroke:#000000; stroke-width:21200.000000; stroke-opacity:1; 
stroke-linecap:round; stroke-linejoin:round;">
</g>
<g style="fill:#000000; fill-opacity:0.0; 
stroke:#000000; stroke-width:150000.000000; stroke-opacity:1; 
stroke-linecap:round; stroke-linejoin:round;">
<rect x="177002200.000000" y="166007200.000000" width="108000000.000000" height="32000000.000000" rx="0.000000" />
</g>
<g style="fill:#000000; fill-opacity:0.0; 
stroke:#000000; stroke-width:21200.000000; stroke-opacity:1; 
stroke-linecap:round; stroke-linejoin:round;">
</g>
<g style="fill:#000000; fill-opacity:0.0; 
stroke:#000000; stroke-width:150000.000000; stroke-opacity:1; 
stroke-linecap:round; stroke-linejoin:round;">
<rect x="10000000.000000" y="10000000.000000" width="277002200.000000" height="190007200.000000" rx="0.000000" />
</g>
<g style="fill:#000000; fill-opacity:0.0; 
stroke:#000000; stroke-width:21200.000000; stroke-opacity:1; 
stroke-linecap:round; stroke-linejoin:round;">
</g>
<g style="fill:#000000; fill-opacity:0.0; 
stroke:#000000; stroke-width:150000.000000; stroke-opacity:1; 
stroke-linecap:round; stroke-linejoin:round;">
<rect x="12000000.000000" y="12000000.000000" width="273002200.000000" height="186007200.000000" rx="0.000000" />
</g>
<g style="fill:#000000; fill-opacity:0.0; 
stroke:#000000; stroke-width:21200.000000; stroke-opacity:1; 
stroke-linecap:round; stroke-linejoin:round;">
</g>
<g style="fill:#000000; fill-opacity:0.0; 
stroke:#000000; stroke-width:150000.000000; stroke-opacity:1; 
stroke-linecap:round; stroke-linejoin:round;">
<path d="M60000000 12000000
L60000000 10000000
" />
</g>
<g style="fill:#000000; fill-opacity:0.0; 
stroke:#000000; stroke-width:21200.000000; stroke-opacity:1; 
stroke-linecap:round; stroke-linejoin:round;">
</g>
<g style="fill:#000000; fill-opacity:0.0; 
stroke:#000000; stroke-width:150000.000000; stroke-opacity:1; 
stroke-linecap:round; stroke-linejoin:round;">
<path d="M110000000 12000000
L110000000 10000000
" />
</g>
<g style="fill:#000000; fill-opacity:0.0; 
stroke:#000000; stroke-width:21200.000000; stroke-opacity:1; 
stroke-linecap:round; stroke-linejoin:round;">
</g>
<g style="fill:#000000; fill-opacity:0.0; 
stroke:#000000; stroke-width:150000.000000; stroke-opacity:1; 
stroke-linecap:round; stroke-linejoin:round;">
<path d="M160000000 12000000
L160000000 10000000
" />
</g>
<g style="fill:#000000; fill-opacity:0.0; 
stroke:#000000; stroke-width:21200.000000; stroke-opacity:1; 
stroke-linecap:round; stroke-linejoin:round;">
</g>
<g style="fill:#000000; fill-opacity:0.0; 
stroke:#000000; stroke-width:150000.000000; stroke-opacity:1; 
stroke-linecap:round; stroke-linejoin:round;">
<path d="M210000000 12000000
L210000000 10000000
" />
</g>
<g style="fill:#000000; fill-opacity:0.0; 
stroke:#000000; stroke-width:21200.000000; stroke-opacity:1; 
stroke-linecap:round; stroke-linejoin:round;">
</g>
<g style="fill:#000000; fill-opacity:0.0; 
stroke:#000000; stroke-width:150000.000000; stroke-opacity:1; 
stroke-linecap:round; stroke-linejoin:round;">
<path d="M260000000 12000000
L260000000 10000000
" />
</g>
<g style="fill:#000000; fill-opacity:0.0; 
stroke:#000000; stroke-width:21200.000000; stroke-opacity:1; 
stroke-linecap:round; stroke-linejoin:round;">
</g>
<g style="fill:#000000; fill-opacity:0.0; 
stroke:#000000; stroke-width:150000.000000; stroke-opacity:1; 
stroke-linecap:round; stroke-linejoin:round;">
<text x="35000000.000000" y="11650000.000000"
textLength="1388095.000000" font-size="1733333.000000" lengthAdjust="spacingAndGlyphs"
text-anchor="start" opacity="0">1</text>
<g class="stroked-text"><desc>1</desc>
<path d="M36065476 11588095
L35322619 11588095
" />
<path d="M35694047 11588095
L35694047 10288095
L35570238 10473809
L35446428 10597619
L35322619 10659523
" />
</g></g>
<g style="fill:#000000; fill-opacity:0.0; 
stroke:#000000; stroke-width:21200.000000; stroke-opacity:1; 
stroke-linecap:round; stroke-linejoin:round;">
</g>
<g style="fill:#000000; fill-opacity:0.0; 
stroke:#000000; stroke-width:150000.000000; stroke-opacity:1; 
stroke-linecap:round; stroke-linejoin:round;">
<text x="85000000.000000" y="11650000.000000"
textLength="1388095.000000" font-size="1733333.000000" lengthAdjust="spacingAndGlyphs"
text-anchor="start" opacity="0">2</text>
<g class="stroked-text"><desc>2</desc>
<path d="M85322619 10411904
L85384523 10350000
L85508333 10288095
L85817857 10288095
L85941666 10350000
L86003571 10411904
L86065476 10535714
L86065476 10659523
L86003571 10845238
L85260714 11588095
L86065476 11588095
" />
</g></g>
<g style="fill:#000000; fill-opacity:0.0; 
stroke:#000000; stroke-width:21200.000000; stroke-opacity:1; 
stroke-linecap:round; stroke-linejoin:round;">
</g>
<g style="fill:#000000; fill-opacity:0.0; 
stroke:#000000; stroke-width:150000.000000; stroke-opacity:1; 
stroke-linecap:round; stroke-linejoin:round;">
<text x="135000000.000000" y="11650000.000000"
textLength="1388095.000000" font-size="1733333.000000" lengthAdjust="spacingAndGlyphs"
text-anchor="start" opacity="0">3</text>
<g class="stroked-text"><desc>3</desc>
<path d="M135260714 10288095
L136065476 10288095
L135632142 10783333
L135817857 10783333
L135941666 10845238
L136003571 10907142
L136065476 11030952
L136065476 11340476
L136003571 11464285
L135941666 11526190
L135817857 11588095
L135446428 11588095
L135322619 11526190
L135260714 11464285
" />
</g></g>
<g style="fill:#000000; fill-opacity:0.0; 
stroke:#000000; stroke-width:21200.000000; stroke-opacity:1; 
stroke-linecap:round; stroke-linejoin:round;">
</g>
<g style="fill:#000000; fill-opacity:0.0; 
stroke:#000000; stroke-width:150000.000000; stroke-opacity:1; 
stroke-linecap:round; stroke-linejoin:round;">
<text x="185000000.000000" y="11650000.000000"
textLength="1388095.000000" font-size="1733333.000000" lengthAdjust="spacingAndGlyphs"
text-anchor="start" opacity="0">4</text>
<g class="stroked-text"><desc>4</desc>
<path d="M185941666 10721428
L185941666 11588095
" />
<path d="M185632142 10226190
L185322619 11154761
L186127380 11154761
" />
</g></g>
<g style="fill:#000000; fill-opacity:0.0; 
stroke:#000000; stroke-width:21200.000000; stroke-opacity:1; 
stroke-linecap:round; stroke-linejoin:round;">
</g>
<g style="fill:#000000; fill-opacity:0.0; 
stroke:#000000; stroke-width:150000.000000; stroke-opacity:1; 
stroke-linecap:round; stroke-linejoin:round;">
<text x="235000000.000000" y="11650000.000000"
textLength="1388095.000000" font-size="1733333.000000" lengthAdjust="spacingAndGlyphs"
text-anchor="start" opacity="0">5</text>
<g class="stroked-text"><desc>5</desc>
<path d="M236003571 10288095
L235384523 10288095
L235322619 10907142
L235384523 10845238
L235508333 10783333
L235817857 10783333
L235941666 10845238
L236003571 10907142
L236065476 11030952
L236065476 11340476
L236003571 11464285
L235941666 11526190
L235817857 11588095
L235508333 11588095
L235384523 11526190
L235322619 11464285
" />
</g></g>
<g style="fill:#000000; fill-opacity:0.0; 
stroke:#000000; stroke-width:21200.000000; stroke-opacity:1; 
stroke-linecap:round; stroke-linejoin:round;">
</g>
<g style="fill:#000000; fill-opacity:0.0; 
stroke:#000000; stroke-width:150000.000000; stroke-opacity:1; 
stroke-linecap:round; stroke-linejoin:round;">
<text x="285000000.000000" y="11650000.000000"
textLength="1388095.000000" font-size="1733333.000000" lengthAdjust="spacingAndGlyphs"
text-anchor="start" opacity="0">6</text>
<g class="stroked-text"><desc>6</desc>
<path d="M285941666 10288095
L285694047 10288095
L285570238 10350000
L285508333 10411904
L285384523 10597619
L285322619 10845238
L285322619 11340476
L285384523 11464285
L285446428 11526190
L285570238 11588095
L285817857 11588095
L285941666 11526190
L286003571 11464285
L286065476 11340476
L286065476 11030952
L286003571 10907142
L285941666 10845238
L285817857 10783333
L285570238 10783333
L285446428 10845238
L285384523 10907142
L285322619 11030952
" />
</g></g>
<g style="fill:#000000; fill-opacity:0.0; 
stroke:#000000; stroke-width:21200.000000; stroke-opacity:1; 
stroke-linecap:round; stroke-linejoin:round;">
</g>
<g style="fill:#000000; fill-opacity:0.0; 
stroke:#000000; stroke-width:150000.000000; stroke-opacity:1; 
stroke-linecap:round; stroke-linejoin:round;">
<path d="M60000000 198007200
L60000000 200007200
" />
</g>
<g style="fill:#000000; fill-opacity:0.0; 
stroke:#000000; stroke-width:21200.000000; stroke-opacity:1; 
stroke-linecap:round; stroke-linejoin:round;">
</g>
<g style="fill:#000000; fill-opacity:0.0; 
stroke:#000000; stroke-width:150000.000000; stroke-opacity:1; 
stroke-linecap:round; stroke-linejoin:round;">
<path d="M110000000 198007200
L110000000 200007200
" />
</g>
<g style="fill:#000000; fill-opacity:0.0; 
stroke:#000000; stroke-width:21200.000000; stroke-opacity:1; 
stroke-linecap:round; stroke-linejoin:round;">
</g>
<g style="fill:#000000; fill-opacity:0.0; 
stroke:#000000; stroke-width:150000.000000; stroke-opacity:1; 
stroke-linecap:round; stroke-linejoin:round;">
<path d="M160000000 198007200
L160000000 200007200
" />
</g>
<g style="fill:#000000; fill-opacity:0.0; 
stroke:#000000; stroke-width:21200.000000; stroke-opacity:1; 
stroke-linecap:round; stroke-linejoin:round;">
</g>
<g style="fill:#000000; fill-opacity:0.0; 
stroke:#000000; stroke-width:150000.000000; stroke-opacity:1; 
stroke-linecap:round; stroke-linejoin:round;">
<path d="M210000000 198007200
L210000000 200007200
" />
</g>
<g style="fill:#000000; fill-opacity:0.0; 
stroke:#000000; stroke-width:21200.000000; stroke-opacity:1; 
stroke-linecap:round; stroke-linejoin:round;">
</g>
<g style="fill:#000000; fill-opacity:0.0; 
stroke:#000000; stroke-width:150000.000000; stroke-opacity:1; 
stroke-linecap:round; stroke-linejoin:round;">
<path d="M260000000 198007200
L260000000 200007200
" />
</g>
<g style="fill:#000000; fill-opacity:0.0; 
stroke:#000000; stroke-width:21200.000000; stroke-opacity:1; 
stroke-linecap:round; stroke-linejoin:round;">
</g>
<g style="fill:#000000; fill-opacity:0.0; 
stroke:#000000; stroke-width:150000.000000; stroke-opacity:1; 
stroke-linecap:round; stroke-linejoin:round;">
<text x="35000000.000000" y="199657200.000000"
textLength="1388095.000000" font-size="1733333.000000" lengthAdjust="spacingAndGlyphs"
text-anchor="start" opacity="0">1</text>
<g class="stroked-text"><desc>1</desc>
<path d="M36065476 199595295
L35322619 199595295
" />
<path d="M35694047 199595295
L35694047 198295295
L35570238 198481009
L35446428 198604819
L35322619 198666723
" />
</g></g>
<g style="fill:#000000; fill-opacity:0.0; 
stroke:#000000; stroke-width:21200.000000; stroke-opacity:1; 
stroke-linecap:round; stroke-linejoin:round;">
</g>
<g style="fill:#000000; fill-opacity:0.0; 
stroke:#000000; stroke-width:150000.000000; stroke-opacity:1; 
stroke-linecap:round; stroke-linejoin:round;">
<text x="85000000.000000" y="199657200.000000"
textLength="1388095.000000" font-size="1733333.000000" lengthAdjust="spacingAndGlyphs"
text-anchor="start" opacity="0">2</text>
<g class="stroked-text"><desc>2</desc>
<path d="M85322619 198419104
L85384523 198357200
L85508333 198295295
L85817857 198295295
L85941666 198357200
L86003571 198419104
L86065476 198542914
L86065476 198666723
L86003571 198852438
L85260714 199595295
L86065476 199595295
" />
</g></g>
<g style="fill:#000000; fill-opacity:0.0; 
stroke:#000000; stroke-width:21200.000000; stroke-opacity:1; 
stroke-linecap:round; stroke-linejoin:round;">
</g>
<g style="fill:#000000; fill-opacity:0.0; 
stroke:#000000; stroke-width:150000.000000; stroke-opacity:1; 
stroke-linecap:round; stroke-linejoin:round;">
<text x="135000000.000000" y="199657200.000000"
textLength="1388095.000000" font-size="1733333.000000" lengthAdjust="spacingAndGlyphs"
text-anchor="start" opacity="0">3</text>
<g class="stroked-text"><desc>3</desc>
<path d="M135260714 198295295
L136065476 198295295
L135632142 198790533
L135817857 198790533
L135941666 198852438
L136003571 198914342
L136065476 199038152
L136065476 199347676
L136003571 199471485
L135941666 199533390
L135817857 199595295
L135446428 199595295
L135322619 199533390
L135260714 199471485
" />
</g></g>
<g style="fill:#000000; fill-opacity:0.0; 
stroke:#000000; stroke-width:21200.000000; stroke-opacity:1; 
stroke-linecap:round; stroke-linejoin:round;">
</g>
<g style="fill:#000000; fill-opacity:0.0; 
stroke:#000000; stroke-width:150000.000000; stroke-opacity:1; 
stroke-linecap:round; stroke-linejoin:round;">
<text x="185000000.000000" y="199657200.000000"
textLength="1388095.000000" font-size="1733333.000000" lengthAdjust="spacingAndGlyphs"
text-anchor="start" opacity="0">4</text>
<g class="stroked-text"><desc>4</desc>
<path d="M185941666 198728628
L185941666 199595295
" />
<path d="M185632142 198233390
L185322619 199161961
L186127380 199161961
" />
</g></g>
<g style="fill:#000000; fill-opacity:0.0; 
stroke:#000000; stroke-width:21200.000000; stroke-opacity:1; 
stroke-linecap:round; stroke-linejoin:round;">
</g>
<g style="fill:#000000; fill-opacity:0.0; 
stroke:#000000; stroke-width:150000.000000; stroke-opacity:1; 
stroke-linecap:round; stroke-linejoin:round;">
<text x="235000000.000000" y="199657200.000000"
textLength="1388095.000000" font-size="1733333.000000" lengthAdjust="spacingAndGlyphs"
text-anchor="start" opacity="0">5</text>
<g class="stroked-text"><desc>5</desc>
<path d="M236003571 198295295
L235384523 198295295
L235322619 198914342
L235384523 198852438
L235508333 198790533
L235817857 198790533
L235941666 198852438
L236003571 198914342
L236065476 199038152
L236065476 199347676
L236003571 199471485
L235941666 199533390
L235817857 199595295
L235508333 199595295
L235384523 199533390
L235322619 199471485
" />
</g></g>
<g style="fill:#000000; fill-opacity:0.0; 
stroke:#000000; stroke-width:21200.000000; stroke-opacity:1; 
stroke-linecap:round; stroke-linejoin:round;">
</g>
<g style="fill:#000000; fill-opacity:0.0; 
stroke:#000000; stroke-width:150000.000000; stroke-opacity:1; 
stroke-linecap:round; stroke-linejoin:round;">
<text x="285000000.000000" y="199657200.000000"
textLength="1388095.000000" font-size="1733333.000000" lengthAdjust="spacingAndGlyphs"
text-anchor="start" opacity="0">6</text>
<g class="stroked-text"><desc>6</desc>
<path d="M285941666 198295295
L285694047 198295295
L285570238 198357200
L285508333 198419104
L285384523 198604819
L285322619 198852438
L285322619 199347676
L285384523 199471485
L285446428 199533390
L285570238 199595295
L285817857 199595295
L285941666 199533390
L286003571 199471485
L286065476 199347676
L286065476 199038152
L286003571 198914342
L285941666 198852438
L285817857 198790533
L285570238 198790533
L285446428 198852438
L285384523 198914342
L285322619 199038152
" />
</g></g>
<g style="fill:#000000; fill-opacity:0.0; 
stroke:#000000; stroke-width:21200.000000; stroke-opacity:1; 
stroke-linecap:round; stroke-linejoin:round;">
</g>
<g style="fill:#000000; fill-opacity:0.0; 
stroke:#000000; stroke-width:150000.000000; stroke-opacity:1; 
stroke-linecap:round; stroke-linejoin:round;">
<path d="M10000000 60000000
L12000000 60000000
" />
</g>
<g style="fill:#000000; fill-opacity:0.0; 
stroke:#000000; stroke-width:21200.000000; stroke-opacity:1; 
stroke-linecap:round; stroke-linejoin:round;">
</g>
<g style="fill:#000000; fill-opacity:0.0; 
stroke:#000000; stroke-width:150000.000000; stroke-opacity:1; 
stroke-linecap:round; stroke-linejoin:round;">
<path d="M10000000 110000000
L12000000 110000000
" />
</g>
<g style="fill:#000000; fill-opacity:0.0; 
stroke:#000000; stroke-width:21200.000000; stroke-opacity:1; 
stroke-linecap:round; stroke-linejoin:round;">
</g>
<g style="fill:#000000; fill-opacity:0.0; 
stroke:#000000; stroke-width:150000.000000; stroke-opacity:1; 
stroke-linecap:round; stroke-linejoin:round;">
<path d="M10000000 160000000
L12000000 160000000
" />
</g>
<g style="fill:#000000; fill-opacity:0.0; 
stroke:#000000; stroke-width:21200.000000; stroke-opacity:1; 
stroke-linecap:round; stroke-linejoin:round;">
</g>
<g style="fill:#000000; fill-opacity:0.0; 
stroke:#000000; stroke-width:150000.000000; stroke-opacity:1; 
stroke-linecap:round; stroke-linejoin:round;">
<text x="11000000.000000" y="35650000.000000"
textLength="1264286.000000" font-size="1733333.000000" lengthAdjust="spacingAndGlyphs"
text-anchor="middle" opacity="0">A</text>
<g class="stroked-text"><desc>A</desc>
<path d="M10690476 35216666
L11309523 35216666
" />
<path d="M10566666 35588095
L11000000 34288095
L11433333 35588095
" />
</g></g>
<g style="fill:#000000; fill-opacity:0.0; 
stroke:#000000; stroke-width:21200.000000; stroke-opacity:1; 
stroke-linecap:round; stroke-linejoin:round;">
</g>
<g style="fill:#000000; fill-opacity:0.0; 
stroke:#000000; stroke-width:150000.000000; stroke-opacity:1; 
stroke-linecap:round; stroke-linejoin:round;">
<text x="11000000.000000" y="85650000.000000"
textLength="1450000.000000" font-size="1733333.000000" lengthAdjust="spacingAndGlyphs"
text-anchor="middle" opacity="0">B</text>
<g class="stroked-text"><desc>B</desc>
<path d="M11092857 84907142
L11278571 84969047
L11340476 85030952
L11402380 85154761
L11402380 85340476
L11340476 85464285
L11278571 85526190
L11154761 85588095
L10659523 85588095
L10659523 84288095
L11092857 84288095
L11216666 84350000
L11278571 84411904
L11340476 84535714
L11340476 84659523
L11278571 84783333
L11216666 84845238
L11092857 84907142
L10659523 84907142
" />
</g></g>
<g style="fill:#000000; fill-opacity:0.0; 
stroke:#000000; stroke-width:21200.000000; stroke-opacity:1; 
stroke-linecap:round; stroke-linejoin:round;">
</g>
<g style="fill:#000000; fill-opacity:0.0; 
stroke:#000000; stroke-width:150000.000000; stroke-opacity:1; 
stroke-linecap:round; stroke-linejoin:round;">
<text x="11000000.000000" y="135650000.000000"
textLength="1450000.000000" font-size="1733333.000000" lengthAdjust="spacingAndGlyphs"
text-anchor="middle" opacity="0">C</text>
<g class="stroked-text"><desc>C</desc>
<path d="M11402380 135464285
L11340476 135526190
L11154761 135588095
L11030952 135588095
L10845238 135526190
L10721428 135402380
L10659523 135278571
L10597619 135030952
L10597619 134845238
L10659523 134597619
L10721428 134473809
L10845238 134350000
L11030952 134288095
L11154761 134288095
L11340476 134350000
L11402380 134411904
" />
</g></g>
<g style="fill:#000000; fill-opacity:0.0; 
stroke:#000000; stroke-width:21200.000000; stroke-opacity:1; 
stroke-linecap:round; stroke-linejoin:round;">
</g>
<g style="fill:#000000; fill-opacity:0.0; 
stroke:#000000; stroke-width:150000.000000; stroke-opacity:1; 
stroke-linecap:round; stroke-linejoin:round;">
<text x="11000000.000000" y="185650000.000000"
textLength="1450000.000000" font-size="1733333.000000" lengthAdjust="spacingAndGlyphs"
text-anchor="middle" opacity="0">D</text>
<g class="stroked-text"><desc>D</desc>
<path d="M10659523 185588095
L10659523 184288095
L10969047 184288095
L11154761 184350000
L11278571 184473809
L11340476 184597619
L11402380 184845238
L11402380 185030952
L11340476 185278571
L11278571 185402380
L11154761 185526190
L10969047 185588095
L10659523 185588095
" />
</g></g>
<g style="fill:#000000; fill-opacity:0.0; 
stroke:#000000; stroke-width:21200.000000; stroke-opacity:1; 
stroke-linecap:round; stroke-linejoin:round;">
</g>
<g style="fill:#000000; fill-opacity:0.0; 
stroke:#000000; stroke-width:150000.000000; stroke-opacity:1; 
stroke-linecap:round; stroke-linejoin:round;">
<path d="M287002200 60000000
L285002200 60000000
" />
</g>
<g style="fill:#000000; fill-opacity:0.0; 
stroke:#000000; stroke-width:21200.000000; stroke-opacity:1; 
stroke-linecap:round; stroke-linejoin:round;">
</g>
<g style="fill:#000000; fill-opacity:0.0; 
stroke:#000000; stroke-width:150000.000000; stroke-opacity:1; 
stroke-linecap:round; stroke-linejoin:round;">
<path d="M287002200 110000000
L285002200 110000000
" />
</g>
<g style="fill:#000000; fill-opacity:0.0; 
stroke:#000000; stroke-width:21200.000000; stroke-opacity:1; 
stroke-linecap:round; stroke-linejoin:round;">
</g>
<g style="fill:#000000; fill-opacity:0.0; 
stroke:#000000; stroke-width:150000.000000; stroke-opacity:1; 
stroke-linecap:round; stroke-linejoin:round;">
<path d="M287002200 160000000
L285002200 160000000
" />
</g>
<g style="fill:#000000; fill-opacity:0.0; 
stroke:#000000; stroke-width:21200.000000; stroke-opacity:1; 
stroke-linecap:round; stroke-linejoin:round;">
</g>
<g style="fill:#000000; fill-opacity:0.0; 
stroke:#000000; stroke-width:150000.000000; stroke-opacity:1; 
stroke-linecap:round; stroke-linejoin:round;">
<text x="286002200.000000" y="35650000.000000"
textLength="1264286.000000" font-size="1733333.000000" lengthAdjust="spacingAndGlyphs"
text-anchor="middle" opacity="0">A</text>
<g class="stroked-text"><desc>A</desc>
<path d="M285692676 35216666
L286311723 35216666
" />
<path d="M285568866 35588095
L286002200 34288095
L286435533 35588095
" />
</g></g>
<g style="fill:#000000; fill-opacity:0.0; 
stroke:#000000; stroke-width:21200.000000; stroke-opacity:1; 
stroke-linecap:round; stroke-linejoin:round;">
</g>
<g style="fill:#000000; fill-opacity:0.0; 
stroke:#000000; stroke-width:150000.000000; stroke-opacity:1; 
stroke-linecap:round; stroke-linejoin:round;">
<text x="286002200.000000" y="85650000.000000"
textLength="1450000.000000" font-size="1733333.000000" lengthAdjust="spacingAndGlyphs"
text-anchor="middle" opacity="0">B</text>
<g class="stroked-text"><desc>B</desc>
<path d="M286095057 84907142
L286280771 84969047
L286342676 85030952
L286404580 85154761
L286404580 85340476
L286342676 85464285
L286280771 85526190
L286156961 85588095
L285661723 85588095
L285661723 84288095
L286095057 84288095
L286218866 84350000
L286280771 84411904
L286342676 84535714
L286342676 84659523
L286280771 84783333
L286218866 84845238
L286095057 84907142
L285661723 84907142
" />
</g></g>
<g style="fill:#000000; fill-opacity:0.0; 
stroke:#000000; stroke-width:21200.000000; stroke-opacity:1; 
stroke-linecap:round; stroke-linejoin:round;">
</g>
<g style="fill:#000000; fill-opacity:0.0; 
stroke:#000000; stroke-width:150000.000000; stroke-opacity:1; 
stroke-linecap:round; stroke-linejoin:round;">
<text x="286002200.000000" y="135650000.000000"
textLength="1450000.000000" font-size="1733333.000000" lengthAdjust="spacingAndGlyphs"
text-anchor="middle" opacity="0">C</text>
<g class="stroked-text"><desc>C</desc>
<path d="M286404580 135464285
L286342676 135526190
L286156961 135588095
L286033152 135588095
L285847438 135526190
L285723628 135402380
L285661723 135278571
L285599819 135030952
L285599819 134845238
L285661723 134597619
L285723628 134473809
L285847438 134350000
L286033152 134288095
L286156961 134288095
L286342676 134350000
L286404580 134411904
" />
</g></g>
<g style="fill:#000000; fill-opacity:0.0; 
stroke:#000000; stroke-width:21200.000000; stroke-opacity:1; 
stroke-linecap:round; stroke-linejoin:round;">
</g>
<g style="fill:#000000; fill-opacity:0.0; 
stroke:#000000; stroke-width:150000.000000; stroke-opacity:1; 
stroke-linecap:round; stroke-linejoin:round;">
<text x="286002200.000000" y="185650000.000000"
textLength="1450000.000000" font-size="1733333.000000" lengthAdjust="spacingAndGlyphs"
text-anchor="middle" opacity="0">D</text>
<g class="stroked-text"><desc>D</desc>
<path d="M285661723 185588095
L285661723 184288095
L285971247 184288095
L286156961 184350000
L286280771 184473809
L286342676 184597619
L286404580 184845238
L286404580 185030952
L286342676 185278571
L286280771 185402380
L286156961 185526190
L285971247 185588095
L285661723 185588095
" />
</g></g>
<g style="fill:#000000; fill-opacity:0.0; 
stroke:#000000; stroke-width:21200.000000; stroke-opacity:1; 
stroke-linecap:round; stroke-linejoin:round;">
</g>
<g style="fill:#000000; fill-opacity:0.0; 
stroke:#000000; stroke-width:150000.000000; stroke-opacity:1; 
stroke-linecap:round; stroke-linejoin:round;">
<text x="200002200.000000" y="193857200.000000"
textLength="7007143.000000" font-size="2000000.000000" lengthAdjust="spacingAndGlyphs"
text-anchor="start" opacity="0">Date: </text>
<g class="stroked-text"><desc>Date: </desc>
<path d="M200434342 193785771
L200434342 192285771
L200791485 192285771
L201005771 192357200
L201148628 192500057
L201220057 192642914
L201291485 192928628
L201291485 193142914
L201220057 193428628
L201148628 193571485
L201005771 193714342
L200791485 193785771
L200434342 193785771
" />
<path d="M202577200 193785771
L202577200 193000057
L202505771 192857200
L202362914 192785771
L202077200 192785771
L201934342 192857200
" />
<path d="M202577200 193714342
L202434342 193785771
L202077200 193785771
L201934342 193714342
L201862914 193571485
L201862914 193428628
L201934342 193285771
L202077200 193214342
L202434342 193214342
L202577200 193142914
" />
<path d="M203077200 192785771
L203648628 192785771
" />
<path d="M203291485 192285771
L203291485 193571485
L203362914 193714342
L203505771 193785771
L203648628 193785771
" />
<path d="M204720057 193714342
L204577200 193785771
L204291485 193785771
L204148628 193714342
L204077200 193571485
L204077200 193000057
L204148628 192857200
L204291485 192785771
L204577200 192785771
L204720057 192857200
L204791485 193000057
L204791485 193142914
L204077200 193285771
" />
<path d="M205434342 193642914
L205505771 193714342
L205434342 193785771
L205362914 193714342
L205434342 193642914
L205434342 193785771
" />
<path d="M205434342 192857200
L205505771 192928628
L205434342 193000057
L205362914 192928628
L205434342 192857200
L205434342 193000057
" />
</g></g>
<g style="fill:#000000; fill-opacity:0.0; 
stroke:#000000; stroke-width:21200.000000; stroke-opacity:1; 
stroke-linecap:round; stroke-linejoin:round;">
</g>
<g style="fill:#000000; fill-opacity:0.0; 
stroke:#000000; stroke-width:150000.000000; stroke-opacity:1; 
stroke-linecap:round; stroke-linejoin:round;">
<path d="M177002200 194507200
L285002200 194507200
" />
</g>
<g style="fill:#000000; fill-opacity:0.0; 
stroke:#000000; stroke-width:21200.000000; stroke-opacity:1; 
stroke-linecap:round; stroke-linejoin:round;">
</g>
<g style="fill:#000000; fill-opacity:0.0; 
stroke:#000000; stroke-width:150000.000000; stroke-opacity:1; 
stroke-linecap:round; stroke-linejoin:round;">
<text x="178002200.000000" y="196657200.000000"
textLength="33364286.000000" font-size="2000000.000000" lengthAdjust="spacingAndGlyphs"
text-anchor="start" opacity="0">KiCad E.D.A.  pcbnew (6.0.9)</text>
<g class="stroked-text"><desc>KiCad E.D.A.  pcbnew (6.0.9)</desc>
<path d="M178434342 196585771
L178434342 195085771
" />
<path d="M179291485 196585771
L178648628 195728628
" />
<path d="M179291485 195085771
L178434342 195942914
" />
<path d="M179934342 196585771
L179934342 195585771
" />
<path d="M179934342 195085771
L179862914 195157200
L179934342 195228628
L180005771 195157200
L179934342 195085771
L179934342 195228628
" />
<path d="M181505771 196442914
L181434342 196514342
L181220057 196585771
L181077200 196585771
L180862914 196514342
L180720057 196371485
L180648628 196228628
L180577200 195942914
L180577200 195728628
L180648628 195442914
L180720057 195300057
L180862914 195157200
L181077200 195085771
L181220057 195085771
L181434342 195157200
L181505771 195228628
" />
<path d="M182791485 196585771
L182791485 195800057
L182720057 195657200
L182577200 195585771
L182291485 195585771
L182148628 195657200
" />
<path d="M182791485 196514342
L182648628 196585771
L182291485 196585771
L182148628 196514342
L182077200 196371485
L182077200 196228628
L182148628 196085771
L182291485 196014342
L182648628 196014342
L182791485 195942914
" />
<path d="M184148628 196585771
L184148628 195085771
" />
<path d="M184148628 196514342
L184005771 196585771
L183720057 196585771
L183577200 196514342
L183505771 196442914
L183434342 196300057
L183434342 195871485
L183505771 195728628
L183577200 195657200
L183720057 195585771
L184005771 195585771
L184148628 195657200
" />
<path d="M186005771 195800057
L186505771 195800057
" />
<path d="M186720057 196585771
L186005771 196585771
L186005771 195085771
L186720057 195085771
" />
<path d="M187362914 196442914
L187434342 196514342
L187362914 196585771
L187291485 196514342
L187362914 196442914
L187362914 196585771
" />
<path d="M188077200 196585771
L188077200 195085771
L188434342 195085771
L188648628 195157200
L188791485 195300057
L188862914 195442914
L188934342 195728628
L188934342 195942914
L188862914 196228628
L188791485 196371485
L188648628 196514342
L188434342 196585771
L188077200 196585771
" />
<path d="M189577200 196442914
L189648628 196514342
L189577200 196585771
L189505771 196514342
L189577200 196442914
L189577200 196585771
" />
<path d="M190220057 196157200
L190934342 196157200
" />
<path d="M190077200 196585771
L190577200 195085771
L191077200 196585771
" />
<path d="M191577200 196442914
L191648628 196514342
L191577200 196585771
L191505771 196514342
L191577200 196442914
L191577200 196585771
" />
<path d="M194577200 195585771
L194577200 197085771
" />
<path d="M194577200 195657200
L194720057 195585771
L195005771 195585771
L195148628 195657200
L195220057 195728628
L195291485 195871485
L195291485 196300057
L195220057 196442914
L195148628 196514342
L195005771 196585771
L194720057 196585771
L194577200 196514342
" />
<path d="M196577200 196514342
L196434342 196585771
L196148628 196585771
L196005771 196514342
L195934342 196442914
L195862914 196300057
L195862914 195871485
L195934342 195728628
L196005771 195657200
L196148628 195585771
L196434342 195585771
L196577200 195657200
" />
<path d="M197220057 196585771
L197220057 195085771
" />
<path d="M197220057 195657200
L197362914 195585771
L197648628 195585771
L197791485 195657200
L197862914 195728628
L197934342 195871485
L197934342 196300057
L197862914 196442914
L197791485 196514342
L197648628 196585771
L197362914 196585771
L197220057 196514342
" />
<path d="M198577200 195585771
L198577200 196585771
" />
<path d="M198577200 195728628
L198648628 195657200
L198791485 195585771
L199005771 195585771
L199148628 195657200
L199220057 195800057
L199220057 196585771
" />
<path d="M200505771 196514342
L200362914 196585771
L200077200 196585771
L199934342 196514342
L199862914 196371485
L199862914 195800057
L199934342 195657200
L200077200 195585771
L200362914 195585771
L200505771 195657200
L200577200 195800057
L200577200 195942914
L199862914 196085771
" />
<path d="M201077200 195585771
L201362914 196585771
L201648628 195871485
L201934342 196585771
L202220057 195585771
" />
<path d="M204362914 197157200
L204291485 197085771
L204148628 196871485
L204077200 196728628
L204005771 196514342
L203934342 196157200
L203934342 195871485
L204005771 195514342
L204077200 195300057
L204148628 195157200
L204291485 194942914
L204362914 194871485
" />
<path d="M205577200 195085771
L205291485 195085771
L205148628 195157200
L205077200 195228628
L204934342 195442914
L204862914 195728628
L204862914 196300057
L204934342 196442914
L205005771 196514342
L205148628 196585771
L205434342 196585771
L205577200 196514342
L205648628 196442914
L205720057 196300057
L205720057 195942914
L205648628 195800057
L205577200 195728628
L205434342 195657200
L205148628 195657200
L205005771 195728628
L204934342 195800057
L204862914 195942914
" />
<path d="M206362914 196442914
L206434342 196514342
L206362914 196585771
L206291485 196514342
L206362914 196442914
L206362914 196585771
" />
<path d="M207362914 195085771
L207505771 195085771
L207648628 195157200
L207720057 195228628
L207791485 195371485
L207862914 195657200
L207862914 196014342
L207791485 196300057
L207720057 196442914
L207648628 196514342
L207505771 196585771
L207362914 196585771
L207220057 196514342
L207148628 196442914
L207077200 196300057
L207005771 196014342
L207005771 195657200
L207077200 195371485
L207148628 195228628
L207220057 195157200
L207362914 195085771
" />
<path d="M208505771 196442914
L208577200 196514342
L208505771 196585771
L208434342 196514342
L208505771 196442914
L208505771 196585771
" />
<path d="M209291485 196585771
L209577200 196585771
L209720057 196514342
L209791485 196442914
L209934342 196228628
L210005771 195942914
L210005771 195371485
L209934342 195228628
L209862914 195157200
L209720057 195085771
L209434342 195085771
L209291485 195157200
L209220057 195228628
L209148628 195371485
L209148628 195728628
L209220057 195871485
L209291485 195942914
L209434342 196014342
L209720057 196014342
L209862914 195942914
L209934342 195871485
L210005771 195728628
" />
<path d="M210505771 197157200
L210577200 197085771
L210720057 196871485
L210791485 196728628
L210862914 196514342
L210934342 196157200
L210934342 195871485
L210862914 195514342
L210791485 195300057
L210720057 195157200
L210577200 194942914
L210505771 194871485
" />
</g></g>
<g style="fill:#000000; fill-opacity:0.0; 
stroke:#000000; stroke-width:21200.000000; stroke-opacity:1; 
stroke-linecap:round; stroke-linejoin:round;">
</g>
<g style="fill:#000000; fill-opacity:0.0; 
stroke:#000000; stroke-width:150000.000000; stroke-opacity:1; 
stroke-linecap:round; stroke-linejoin:round;">
<path d="M177002200 191507200
L285002200 191507200
" />
</g>
<g style="fill:#000000; fill-opacity:0.0; 
stroke:#000000; stroke-width:21200.000000; stroke-opacity:1; 
stroke-linecap:round; stroke-linejoin:round;">
</g>
<g style="fill:#000000; fill-opacity:0.0; 
stroke:#000000; stroke-width:300000.000000; stroke-opacity:1; 
stroke-linecap:round; stroke-linejoin:round;">
<text x="263002200.000000" y="193857200.000000"
textLength="5935714.000000" font-size="2000000.000000" lengthAdjust="spacingAndGlyphs"
text-anchor="start" opacity="0">Rev: </text>
<g class="stroked-text"><desc>Rev: </desc>
<path d="M264411485 193785771
L263911485 193071485
" />
<path d="M263554342 193785771
L263554342 192285771
L264125771 192285771
L264268628 192357200
L264340057 192428628
L264411485 192571485
L264411485 192785771
L264340057 192928628
L264268628 193000057
L264125771 193071485
L263554342 193071485
" />
<path d="M265625771 193714342
L265482914 193785771
L265197200 193785771
L265054342 193714342
L264982914 193571485
L264982914 193000057
L265054342 192857200
L265197200 192785771
L265482914 192785771
L265625771 192857200
L265697200 193000057
L265697200 193142914
L264982914 193285771
" />
<path d="M266197200 192785771
L266554342 193785771
L266911485 192785771
" />
<path d="M267482914 193642914
L267554342 193714342
L267482914 193785771
L267411485 193714342
L267482914 193642914
L267482914 193785771
" />
<path d="M267482914 192857200
L267554342 192928628
L267482914 193000057
L267411485 192928628
L267482914 192857200
L267482914 193000057
" />
</g></g>
<g style="fill:#000000; fill-opacity:0.0; 
stroke:#000000; stroke-width:21200.000000; stroke-opacity:1; 
stroke-linecap:round; stroke-linejoin:round;">
</g>
<g style="fill:#000000; fill-opacity:0.0; 
stroke:#000000; stroke-width:150000.000000; stroke-opacity:1; 
stroke-linecap:round; stroke-linejoin:round;">
<text x="178002200.000000" y="193857200.000000"
textLength="9604286.000000" font-size="2000000.000000" lengthAdjust="spacingAndGlyphs"
text-anchor="start" opacity="0">Size: A4</text>
<g class="stroked-text"><desc>Size: A4</desc>
<path d="M178362914 193714342
L178577200 193785771
L178934342 193785771
L179077200 193714342
L179148628 193642914
L179220057 193500057
L179220057 193357200
L179148628 193214342
L179077200 193142914
L178934342 193071485
L178648628 193000057
L178505771 192928628
L178434342 192857200
L178362914 192714342
L178362914 192571485
L178434342 192428628
L178505771 192357200
L178648628 192285771
L179005771 192285771
L179220057 192357200
" />
<path d="M179862914 193785771
L179862914 192785771
" />
<path d="M179862914 192285771
L179791485 192357200
L179862914 192428628
L179934342 192357200
L179862914 192285771
L179862914 192428628
" />
<path d="M180434342 192785771
L181220057 192785771
L180434342 193785771
L181220057 193785771
" />
<path d="M182362914 193714342
L182220057 193785771
L181934342 193785771
L181791485 193714342
L181720057 193571485
L181720057 193000057
L181791485 192857200
L181934342 192785771
L182220057 192785771
L182362914 192857200
L182434342 193000057
L182434342 193142914
L181720057 193285771
" />
<path d="M183077200 193642914
L183148628 193714342
L183077200 193785771
L183005771 193714342
L183077200 193642914
L183077200 193785771
" />
<path d="M183077200 192857200
L183148628 192928628
L183077200 193000057
L183005771 192928628
L183077200 192857200
L183077200 193000057
" />
<path d="M184862914 193357200
L185577200 193357200
" />
<path d="M184720057 193785771
L185220057 192285771
L185720057 193785771
" />
<path d="M186862914 192785771
L186862914 193785771
" />
<path d="M186505771 192214342
L186148628 193285771
L187077200 193285771
" />
</g></g>
<g style="fill:#000000; fill-opacity:0.0; 
stroke:#000000; stroke-width:21200.000000; stroke-opacity:1; 
stroke-linecap:round; stroke-linejoin:round;">
</g>
<g style="fill:#000000; fill-opacity:0.0; 
stroke:#000000; stroke-width:150000.000000; stroke-opacity:1; 
stroke-linecap:round; stroke-linejoin:round;">
<text x="263002200.000000" y="196657200.000000"
textLength="8507143.000000" font-size="2000000.000000" lengthAdjust="spacingAndGlyphs"
text-anchor="start" opacity="0">Id: 1/1</text>
<g class="stroked-text"><desc>Id: 1/1</desc>
<path d="M263434342 196585771
L263434342 195085771
" />
<path d="M264791485 196585771
L264791485 195085771
" />
<path d="M264791485 196514342
L264648628 196585771
L264362914 196585771
L264220057 196514342
L264148628 196442914
L264077200 196300057
L264077200 195871485
L264148628 195728628
L264220057 195657200
L264362914 195585771
L264648628 195585771
L264791485 195657200
" />
<path d="M265505771 196442914
L265577200 196514342
L265505771 196585771
L265434342 196514342
L265505771 196442914
L265505771 196585771
" />
<path d="M265505771 195657200
L265577200 195728628
L265505771 195800057
L265434342 195728628
L265505771 195657200
L265505771 195800057
" />
<path d="M268148628 196585771
L267291485 196585771
" />
<path d="M267720057 196585771
L267720057 195085771
L267577200 195300057
L267434342 195442914
L267291485 195514342
" />
<path d="M269862914 195014342
L268577200 196942914
" />
<path d="M271148628 196585771
L270291485 196585771
" />
<path d="M270720057 196585771
L270720057 195085771
L270577200 195300057
L270434342 195442914
L270291485 195514342
" />
</g></g>
<g style="fill:#000000; fill-opacity:0.0; 
stroke:#000000; stroke-width:21200.000000; stroke-opacity:1; 
stroke-linecap:round; stroke-linejoin:round;">
</g>
<g style="fill:#000000; fill-opacity:0.0; 
stroke:#000000; stroke-width:150000.000000; stroke-opacity:1; 
stroke-linecap:round; stroke-linejoin:round;">
<path d="M177002200 187507200
L285002200 187507200
" />
</g>
<g style="fill:#000000; fill-opacity:0.0; 
stroke:#000000; stroke-width:21200.000000; stroke-opacity:1; 
stroke-linecap:round; stroke-linejoin:round;">
</g>
<g style="fill:#000000; fill-opacity:0.0; 
stroke:#000000; stroke-width:400000.000000; stroke-opacity:1; 
stroke-linecap:round; stroke-linejoin:round;">
<text x="178002200.000000" y="190307200.000000"
textLength="9409643.000000" font-size="2666666.000000" lengthAdjust="spacingAndGlyphs"
text-anchor="start" opacity="0">Title: </text>
<g class="stroked-text"><desc>Title: </desc>
<path d="M178714580 188211961
L179857438 188211961
" />
<path d="M179036009 190211961
L179286009 188211961
" />
<path d="M180274104 190211961
L180440771 188878628
" />
<path d="M180524104 188211961
L180416961 188307200
L180500295 188402438
L180607438 188307200
L180524104 188211961
L180500295 188402438
" />
<path d="M181107438 188878628
L181869342 188878628
" />
<path d="M181476485 188211961
L181262200 189926247
L181333628 190116723
L181512200 190211961
L181702676 190211961
" />
<path d="M182655057 190211961
L182476485 190116723
L182405057 189926247
L182619342 188211961
" />
<path d="M184190771 190116723
L183988390 190211961
L183607438 190211961
L183428866 190116723
L183357438 189926247
L183452676 189164342
L183571723 188973866
L183774104 188878628
L184155057 188878628
L184333628 188973866
L184405057 189164342
L184381247 189354819
L183405057 189545295
" />
<path d="M185155057 190021485
L185238390 190116723
L185131247 190211961
L185047914 190116723
L185155057 190021485
L185131247 190211961
" />
<path d="M185286009 188973866
L185369342 189069104
L185262200 189164342
L185178866 189069104
L185286009 188973866
L185262200 189164342
" />
</g></g>
<g style="fill:#000000; fill-opacity:0.0; 
stroke:#000000; stroke-width:21200.000000; stroke-opacity:1; 
stroke-linecap:round; stroke-linejoin:round;">
</g>
<g style="fill:#000000; fill-opacity:0.0; 
stroke:#000000; stroke-width:150000.000000; stroke-opacity:1; 
stroke-linecap:round; stroke-linejoin:round;">
<text x="178002200.000000" y="186457200.000000"
textLength="30662857.000000" font-size="2000000.000000" lengthAdjust="spacingAndGlyphs"
text-anchor="start" opacity="0">File: kicadBoard.kicad_pcb</text>
<g class="stroked-text"><desc>File: kicadBoard.kicad_pcb</desc>
<path d="M178934342 185600057
L178434342 185600057
" />
<path d="M178434342 186385771
L178434342 184885771
L179148628 184885771
" />
<path d="M179720057 186385771
L179720057 185385771
" />
<path d="M179720057 184885771
L179648628 184957200
L179720057 185028628
L179791485 184957200
L179720057 184885771
L179720057 185028628
" />
<path d="M180648628 186385771
L180505771 186314342
L180434342 186171485
L180434342 184885771
" />
<path d="M181791485 186314342
L181648628 186385771
L181362914 186385771
L181220057 186314342
L181148628 186171485
L181148628 185600057
L181220057 185457200
L181362914 185385771
L181648628 185385771
L181791485 185457200
L181862914 185600057
L181862914 185742914
L181148628 185885771
" />
<path d="M182505771 186242914
L182577200 186314342
L182505771 186385771
L182434342 186314342
L182505771 186242914
L182505771 186385771
" />
<path d="M182505771 185457200
L182577200 185528628
L182505771 185600057
L182434342 185528628
L182505771 185457200
L182505771 185600057
" />
<path d="M184362914 186385771
L184362914 184885771
" />
<path d="M184505771 185814342
L184934342 186385771
" />
<path d="M184934342 185385771
L184362914 185957200
" />
<path d="M185577200 186385771
L185577200 185385771
" />
<path d="M185577200 184885771
L185505771 184957200
L185577200 185028628
L185648628 184957200
L185577200 184885771
L185577200 185028628
" />
<path d="M186934342 186314342
L186791485 186385771
L186505771 186385771
L186362914 186314342
L186291485 186242914
L186220057 186100057
L186220057 185671485
L186291485 185528628
L186362914 185457200
L186505771 185385771
L186791485 185385771
L186934342 185457200
" />
<path d="M188220057 186385771
L188220057 185600057
L188148628 185457200
L188005771 185385771
L187720057 185385771
L187577200 185457200
" />
<path d="M188220057 186314342
L188077200 186385771
L187720057 186385771
L187577200 186314342
L187505771 186171485
L187505771 186028628
L187577200 185885771
L187720057 185814342
L188077200 185814342
L188220057 185742914
" />
<path d="M189577200 186385771
L189577200 184885771
" />
<path d="M189577200 186314342
L189434342 186385771
L189148628 186385771
L189005771 186314342
L188934342 186242914
L188862914 186100057
L188862914 185671485
L188934342 185528628
L189005771 185457200
L189148628 185385771
L189434342 185385771
L189577200 185457200
" />
<path d="M190791485 185600057
L191005771 185671485
L191077200 185742914
L191148628 185885771
L191148628 186100057
L191077200 186242914
L191005771 186314342
L190862914 186385771
L190291485 186385771
L190291485 184885771
L190791485 184885771
L190934342 184957200
L191005771 185028628
L191077200 185171485
L191077200 185314342
L191005771 185457200
L190934342 185528628
L190791485 185600057
L190291485 185600057
" />
<path d="M192005771 186385771
L191862914 186314342
L191791485 186242914
L191720057 186100057
L191720057 185671485
L191791485 185528628
L191862914 185457200
L192005771 185385771
L192220057 185385771
L192362914 185457200
L192434342 185528628
L192505771 185671485
L192505771 186100057
L192434342 186242914
L192362914 186314342
L192220057 186385771
L192005771 186385771
" />
<path d="M193791485 186385771
L193791485 185600057
L193720057 185457200
L193577200 185385771
L193291485 185385771
L193148628 185457200
" />
<path d="M193791485 186314342
L193648628 186385771
L193291485 186385771
L193148628 186314342
L193077200 186171485
L193077200 186028628
L193148628 185885771
L193291485 185814342
L193648628 185814342
L193791485 185742914
" />
<path d="M194505771 186385771
L194505771 185385771
" />
<path d="M194505771 185671485
L194577200 185528628
L194648628 185457200
L194791485 185385771
L194934342 185385771
" />
<path d="M196077200 186385771
L196077200 184885771
" />
<path d="M196077200 186314342
L195934342 186385771
L195648628 186385771
L195505771 186314342
L195434342 186242914
L195362914 186100057
L195362914 185671485
L195434342 185528628
L195505771 185457200
L195648628 185385771
L195934342 185385771
L196077200 185457200
" />
<path d="M196791485 186242914
L196862914 186314342
L196791485 186385771
L196720057 186314342
L196791485 186242914
L196791485 186385771
" />
<path d="M197505771 186385771
L197505771 184885771
" />
<path d="M197648628 185814342
L198077200 186385771
" />
<path d="M198077200 185385771
L197505771 185957200
" />
<path d="M198720057 186385771
L198720057 185385771
" />
<path d="M198720057 184885771
L198648628 184957200
L198720057 185028628
L198791485 184957200
L198720057 184885771
L198720057 185028628
" />
<path d="M200077200 186314342
L199934342 186385771
L199648628 186385771
L199505771 186314342
L199434342 186242914
L199362914 186100057
L199362914 185671485
L199434342 185528628
L199505771 185457200
L199648628 185385771
L199934342 185385771
L200077200 185457200
" />
<path d="M201362914 186385771
L201362914 185600057
L201291485 185457200
L201148628 185385771
L200862914 185385771
L200720057 185457200
" />
<path d="M201362914 186314342
L201220057 186385771
L200862914 186385771
L200720057 186314342
L200648628 186171485
L200648628 186028628
L200720057 185885771
L200862914 185814342
L201220057 185814342
L201362914 185742914
" />
<path d="M202720057 186385771
L202720057 184885771
" />
<path d="M202720057 186314342
L202577200 186385771
L202291485 186385771
L202148628 186314342
L202077200 186242914
L202005771 186100057
L202005771 185671485
L202077200 185528628
L202148628 185457200
L202291485 185385771
L202577200 185385771
L202720057 185457200
" />
<path d="M203077200 186528628
L204220057 186528628
" />
<path d="M204577200 185385771
L204577200 186885771
" />
<path d="M204577200 185457200
L204720057 185385771
L205005771 185385771
L205148628 185457200
L205220057 185528628
L205291485 185671485
L205291485 186100057
L205220057 186242914
L205148628 186314342
L205005771 186385771
L204720057 186385771
L204577200 186314342
" />
<path d="M206577200 186314342
L206434342 186385771
L206148628 186385771
L206005771 186314342
L205934342 186242914
L205862914 186100057
L205862914 185671485
L205934342 185528628
L206005771 185457200
L206148628 185385771
L206434342 185385771
L206577200 185457200
" />
<path d="M207220057 186385771
L207220057 184885771
" />
<path d="M207220057 185457200
L207362914 185385771
L207648628 185385771
L207791485 185457200
L207862914 185528628
L207934342 185671485
L207934342 186100057
L207862914 186242914
L207791485 186314342
L207648628 186385771
L207362914 186385771
L207220057 186314342
" />
</g></g>
<g style="fill:#000000; fill-opacity:0.0; 
stroke:#000000; stroke-width:21200.000000; stroke-opacity:1; 
stroke-linecap:round; stroke-linejoin:round;">
</g>
<g style="fill:#000000; fill-opacity:0.0; 
stroke:#000000; stroke-width:150000.000000; stroke-opacity:1; 
stroke-linecap:round; stroke-linejoin:round;">
<path d="M177002200 181507200
L285002200 181507200
" />
</g>
<g style="fill:#000000; fill-opacity:0.0; 
stroke:#000000; stroke-width:21200.000000; stroke-opacity:1; 
stroke-linecap:round; stroke-linejoin:round;">
</g>
<g style="fill:#000000; fill-opacity:0.0; 
stroke:#000000; stroke-width:150000.000000; stroke-opacity:1; 
stroke-linecap:round; stroke-linejoin:round;">
<text x="178002200.000000" y="183757200.000000"
textLength="8221429.000000" font-size="2000000.000000" lengthAdjust="spacingAndGlyphs"
text-anchor="start" opacity="0">Sheet: </text>
<g class="stroked-text"><desc>Sheet: </desc>
<path d="M178362914 183614342
L178577200 183685771
L178934342 183685771
L179077200 183614342
L179148628 183542914
L179220057 183400057
L179220057 183257200
L179148628 183114342
L179077200 183042914
L178934342 182971485
L178648628 182900057
L178505771 182828628
L178434342 182757200
L178362914 182614342
L178362914 182471485
L178434342 182328628
L178505771 182257200
L178648628 182185771
L179005771 182185771
L179220057 182257200
" />
<path d="M179862914 183685771
L179862914 182185771
" />
<path d="M180505771 183685771
L180505771 182900057
L180434342 182757200
L180291485 182685771
L180077200 182685771
L179934342 182757200
L179862914 182828628
" />
<path d="M181791485 183614342
L181648628 183685771
L181362914 183685771
L181220057 183614342
L181148628 183471485
L181148628 182900057
L181220057 182757200
L181362914 182685771
L181648628 182685771
L181791485 182757200
L181862914 182900057
L181862914 183042914
L181148628 183185771
" />
<path d="M183077200 183614342
L182934342 183685771
L182648628 183685771
L182505771 183614342
L182434342 183471485
L182434342 182900057
L182505771 182757200
L182648628 182685771
L182934342 182685771
L183077200 182757200
L183148628 182900057
L183148628 183042914
L182434342 183185771
" />
<path d="M183577200 182685771
L184148628 182685771
" />
<path d="M183791485 182185771
L183791485 183471485
L183862914 183614342
L184005771 183685771
L184148628 183685771
" />
<path d="M184648628 183542914
L184720057 183614342
L184648628 183685771
L184577200 183614342
L184648628 183542914
L184648628 183685771
" />
<path d="M184648628 182757200
L184720057 182828628
L184648628 182900057
L184577200 182828628
L184648628 182757200
L184648628 182900057
" />
</g></g>
<g style="fill:#000000; fill-opacity:0.0; 
stroke:#000000; stroke-width:21200.000000; stroke-opacity:1; 
stroke-linecap:round; stroke-linejoin:round;">
</g>
<g style="fill:#000000; fill-opacity:0.0; 
stroke:#000000; stroke-width:300000.000000; stroke-opacity:1; 
stroke-linecap:round; stroke-linejoin:round;">
<text x="178002200.000000" y="180757200.000000"
textLength="150000.000000" font-size="2000000.000000" lengthAdjust="spacingAndGlyphs"
text-anchor="start" opacity="0"></text>
<g class="stroked-text"><desc></desc>
</g></g>
<g style="fill:#000000; fill-opacity:0.0; 
stroke:#000000; stroke-width:21200.000000; stroke-opacity:1; 
stroke-linecap:round; stroke-linejoin:round;">
</g>
<g style="fill:#000000; fill-opacity:0.0; 
stroke:#000000; stroke-width:150000.000000; stroke-opacity:1; 
stroke-linecap:round; stroke-linejoin:round;">
<text x="178002200.000000" y="177757200.000000"
textLength="300000.000000" font-size="2000000.000000" lengthAdjust="spacingAndGlyphs"
text-anchor="start" opacity="0"></text>
<g class="stroked-text"><desc></desc>
</g></g>
<g style="fill:#000000; fill-opacity:0.0; 
stroke:#000000; stroke-width:21200.000000; stroke-opacity:1; 
stroke-linecap:round; stroke-linejoin:round;">
</g>
<g style="fill:#000000; fill-opacity:0.0; 
stroke:#000000; stroke-width:150000.000000; stroke-opacity:1; 
stroke-linecap:round; stroke-linejoin:round;">
<text x="178002200.000000" y="174757200.000000"
textLength="150000.000000" font-size="2000000.000000" lengthAdjust="spacingAndGlyphs"
text-anchor="start" opacity="0"></text>
<g class="stroked-text"><desc></desc>
</g></g>
<g style="fill:#000000; fill-opacity:0.0; 
stroke:#000000; stroke-width:21200.000000; stroke-opacity:1; 
stroke-linecap:round; stroke-linejoin:round;">
</g>
<g style="fill:#000000; fill-opacity:0.0; 
stroke:#000000; stroke-width:150000.000000; stroke-opacity:1; 
stroke-linecap:round; stroke-linejoin:round;">
<text x="178002200.000000" y="171757200.000000"
textLength="150000.000000" font-size="2000000.000000" lengthAdjust="spacingAndGlyphs"
text-anchor="start" opacity="0"></text>
<g class="stroked-text"><desc></desc>
</g></g>
<g style="fill:#000000; fill-opacity:0.0; 
stroke:#000000; stroke-width:21200.000000; stroke-opacity:1; 
stroke-linecap:round; stroke-linejoin:round;">
</g>
<g style="fill:#000000; fill-opacity:0.0; 
stroke:#000000; stroke-width:150000.000000; stroke-opacity:1; 
stroke-linecap:round; stroke-linejoin:round;">
<text x="178002200.000000" y="168757200.000000"
textLength="150000.000000" font-size="2000000.000000" lengthAdjust="spacingAndGlyphs"
text-anchor="start" opacity="0"></text>
<g class="stroked-text"><desc></desc>
</g></g>
<g style="fill:#000000; fill-opacity:0.0; 
stroke:#000000; stroke-width:21200.000000; stroke-opacity:1; 
stroke-linecap:round; stroke-linejoin:round;">
</g>
<g style="fill:#000000; fill-opacity:0.0; 
stroke:#000000; stroke-width:150000.000000; stroke-opacity:1; 
stroke-linecap:round; stroke-linejoin:round;">
<path d="M197002200 191507200
L197002200 194507200
" />
</g>
<g style="fill:#000000; fill-opacity:0.0; 
stroke:#000000; stroke-width:21200.000000; stroke-opacity:1; 
stroke-linecap:round; stroke-linejoin:round;">
</g>
<g style="fill:#000000; fill-opacity:0.0; 
stroke:#000000; stroke-width:150000.000000; stroke-opacity:1; 
stroke-linecap:round; stroke-linejoin:round;">
<path d="M261002200 191507200
L261002200 198007200
" />
</g>
<g style="fill:#AFAFAF; fill-opacity:0.0; 
stroke:#AFAFAF; stroke-width:150000.000000; stroke-opacity:1; 
stroke-linecap:round; stroke-linejoin:round;">
</g>
<g style="fill:#AFAFAF; fill-opacity:0.0; 
stroke:#AFAFAF; stroke-width:36576.000000; stroke-opacity:1; 
stroke-linecap:round; stroke-linejoin:round;">
<text x="156502100.000000" y="108185712.000000"
textLength="5435716.000000" font-size="1034965.000000" lengthAdjust="spacingAndGlyphs"
text-anchor="start" opacity="0">2N7002D</text>
<g class="stroked-text"><desc>2N7002D</desc>
<path d="M156673726 107446451
L156710689 107409488
L156784615 107372524
L156969430 107372524
L157043357 107409488
L157080320 107446451
L157117283 107520377
L157117283 107594303
L157080320 107705192
L156636763 108148748
L157117283 108148748
" />
<path d="M157449950 108148748
L157449950 107372524
L157893507 108148748
L157893507 107372524
" />
<path d="M158189211 107372524
L158706694 107372524
L158374026 108148748
" />
<path d="M159150250 107372524
L159224176 107372524
L159298102 107409488
L159335066 107446451
L159372029 107520377
L159408992 107668229
L159408992 107853044
L159372029 108000896
L159335066 108074822
L159298102 108111785
L159224176 108148748
L159150250 108148748
L159076324 108111785
L159039361 108074822
L159002398 108000896
L158965435 107853044
L158965435 107668229
L159002398 107520377
L159039361 107446451
L159076324 107409488
L159150250 107372524
" />
<path d="M159889511 107372524
L159963437 107372524
L160037363 107409488
L160074326 107446451
L160111290 107520377
L160148253 107668229
L160148253 107853044
L160111290 108000896
L160074326 108074822
L160037363 108111785
L159963437 108148748
L159889511 108148748
L159815585 108111785
L159778622 108074822
L159741659 108000896
L159704696 107853044
L159704696 107668229
L159741659 107520377
L159778622 107446451
L159815585 107409488
L159889511 107372524
" />
<path d="M160443957 107446451
L160480920 107409488
L160554846 107372524
L160739661 107372524
L160813587 107409488
L160850550 107446451
L160887514 107520377
L160887514 107594303
L160850550 107705192
L160406994 108148748
L160887514 108148748
" />
<path d="M161220181 108148748
L161220181 107372524
L161404996 107372524
L161515885 107409488
L161589811 107483414
L161626774 107557340
L161663738 107705192
L161663738 107816081
L161626774 107963933
L161589811 108037859
L161515885 108111785
L161404996 108148748
L161220181 108148748
" />
</g><g transform="rotate(-90.000000 145086100.000000 108897600.000000)">
<text x="145086100.000000" y="109285712.000000"
textLength="4557041.000000" font-size="1034965.000000" lengthAdjust="spacingAndGlyphs"
text-anchor="start" opacity="0">1N4148</text>
</g>
<g class="stroked-text"><desc>1N4148</desc>
<path d="M145437248 108282416
L145437248 108725973
" />
<path d="M145437248 108504195
L144661024 108504195
L144771914 108578121
L144845840 108652047
L144882803 108725973
" />
<path d="M145437248 107949749
L144661024 107949749
L145437248 107506192
L144661024 107506192
" />
<path d="M144919766 106803894
L145437248 106803894
" />
<path d="M144624061 106988710
L145178507 107173525
L145178507 106693005
" />
<path d="M145437248 105990707
L145437248 106434264
" />
<path d="M145437248 106212486
L144661024 106212486
L144771914 106286412
L144845840 106360338
L144882803 106434264
" />
<path d="M144919766 105325373
L145437248 105325373
" />
<path d="M144624061 105510188
L145178507 105695003
L145178507 105214483
" />
<path d="M144993692 104807890
L144956729 104881816
L144919766 104918779
L144845840 104955742
L144808877 104955742
L144734951 104918779
L144697988 104881816
L144661024 104807890
L144661024 104660038
L144697988 104586112
L144734951 104549149
L144808877 104512185
L144845840 104512185
L144919766 104549149
L144956729 104586112
L144993692 104660038
L144993692 104807890
L145030655 104881816
L145067618 104918779
L145141544 104955742
L145289396 104955742
L145363322 104918779
L145400285 104881816
L145437248 104807890
L145437248 104660038
L145400285 104586112
L145363322 104549149
L145289396 104512185
L145141544 104512185
L145067618 104549149
L145030655 104586112
L144993692 104660038
" />
</g><text x="139484100.000000" y="102597712.000000"
textLength="2893703.000000" font-size="1034965.000000" lengthAdjust="spacingAndGlyphs"
text-anchor="start" opacity="0">10uF</text>
<g class="stroked-text"><desc>10uF</desc>
<path d="M140099283 102560748
L139655726 102560748
" />
<path d="M139877504 102560748
L139877504 101784524
L139803578 101895414
L139729652 101969340
L139655726 102006303
" />
<path d="M140579802 101784524
L140653728 101784524
L140727654 101821488
L140764618 101858451
L140801581 101932377
L140838544 102080229
L140838544 102265044
L140801581 102412896
L140764618 102486822
L140727654 102523785
L140653728 102560748
L140579802 102560748
L140505876 102523785
L140468913 102486822
L140431950 102412896
L140394987 102265044
L140394987 102080229
L140431950 101932377
L140468913 101858451
L140505876 101821488
L140579802 101784524
" />
<path d="M141503878 102043266
L141503878 102560748
" />
<path d="M141171211 102043266
L141171211 102449859
L141208174 102523785
L141282100 102560748
L141392989 102560748
L141466915 102523785
L141503878 102486822
" />
<path d="M142132250 102154155
L141873509 102154155
" />
<path d="M141873509 102560748
L141873509 101784524
L142243139 101784524
" />
</g></g>
<g style="fill:#AFAFAF; fill-opacity:0.0; 
stroke:#AFAFAF; stroke-width:73152.000000; stroke-opacity:1; 
stroke-linecap:round; stroke-linejoin:round;">
<g transform="rotate(-90.000000 154965100.000000 104952600.000000)">
<text x="154965100.000000" y="105322424.000000"
textLength="2055165.000000" font-size="986197.000000" lengthAdjust="spacingAndGlyphs"
text-anchor="start" opacity="0">10k</text>
</g>
<g class="stroked-text"><desc>10k</desc>
<path d="M155299702 104341509
L155299702 104764165
" />
<path d="M155299702 104552837
L154560054 104552837
L154665718 104623280
L154736161 104693723
L154771382 104764165
" />
<path d="M154560054 103883632
L154560054 103813189
L154595276 103742747
L154630497 103707525
L154700940 103672304
L154841825 103637083
L155017932 103637083
L155158817 103672304
L155229260 103707525
L155264481 103742747
L155299702 103813189
L155299702 103883632
L155264481 103954075
L155229260 103989296
L155158817 104024517
L155017932 104059739
L154841825 104059739
L154700940 104024517
L154630497 103989296
L154595276 103954075
L154560054 103883632
" />
<path d="M155299702 103320091
L154560054 103320091
" />
<path d="M155017932 103249648
L155299702 103038320
" />
<path d="M154806604 103038320
L155088374 103320091
" />
</g></g>
<g style="fill:#AFAFAF; fill-opacity:0.0; 
stroke:#AFAFAF; stroke-width:36576.000000; stroke-opacity:1; 
stroke-linecap:round; stroke-linejoin:round;">
<text x="138795100.000000" y="105264712.000000"
textLength="7894301.000000" font-size="1034965.000000" lengthAdjust="spacingAndGlyphs"
text-anchor="start" opacity="0">MIC5225-3.3</text>
<g class="stroked-text"><desc>MIC5225-3.3</desc>
<path d="M139003689 105227748
L139003689 104451524
L139262430 105005970
L139521172 104451524
L139521172 105227748
" />
<path d="M139890802 105227748
L139890802 104451524
" />
<path d="M140703989 105153822
L140667026 105190785
L140556137 105227748
L140482211 105227748
L140371322 105190785
L140297396 105116859
L140260433 105042933
L140223470 104895081
L140223470 104784192
L140260433 104636340
L140297396 104562414
L140371322 104488488
L140482211 104451524
L140556137 104451524
L140667026 104488488
L140703989 104525451
" />
<path d="M141406287 104451524
L141036657 104451524
L140999694 104821155
L141036657 104784192
L141110583 104747229
L141295398 104747229
L141369324 104784192
L141406287 104821155
L141443250 104895081
L141443250 105079896
L141406287 105153822
L141369324 105190785
L141295398 105227748
L141110583 105227748
L141036657 105190785
L140999694 105153822
" />
<path d="M141738955 104525451
L141775918 104488488
L141849844 104451524
L142034659 104451524
L142108585 104488488
L142145548 104525451
L142182511 104599377
L142182511 104673303
L142145548 104784192
L141701992 105227748
L142182511 105227748
" />
<path d="M142478216 104525451
L142515179 104488488
L142589105 104451524
L142773920 104451524
L142847846 104488488
L142884809 104525451
L142921772 104599377
L142921772 104673303
L142884809 104784192
L142441253 105227748
L142921772 105227748
" />
<path d="M143624070 104451524
L143254440 104451524
L143217477 104821155
L143254440 104784192
L143328366 104747229
L143513181 104747229
L143587107 104784192
L143624070 104821155
L143661033 104895081
L143661033 105079896
L143624070 105153822
L143587107 105190785
L143513181 105227748
L143328366 105227748
L143254440 105190785
L143217477 105153822
" />
<path d="M143993701 104932044
L144585109 104932044
" />
<path d="M144880814 104451524
L145361333 104451524
L145102592 104747229
L145213481 104747229
L145287407 104784192
L145324370 104821155
L145361333 104895081
L145361333 105079896
L145324370 105153822
L145287407 105190785
L145213481 105227748
L144991703 105227748
L144917777 105190785
L144880814 105153822
" />
<path d="M145694001 105153822
L145730964 105190785
L145694001 105227748
L145657038 105190785
L145694001 105153822
L145694001 105227748
" />
<path d="M145989705 104451524
L146470225 104451524
L146211483 104747229
L146322373 104747229
L146396299 104784192
L146433262 104821155
L146470225 104895081
L146470225 105079896
L146433262 105153822
L146396299 105190785
L146322373 105227748
L146100594 105227748
L146026668 105190785
L145989705 105153822
" />
</g><text x="145877100.000000" y="109215712.000000"
textLength="4557041.000000" font-size="1034965.000000" lengthAdjust="spacingAndGlyphs"
text-anchor="start" opacity="0">1N4148</text>
<g class="stroked-text"><desc>1N4148</desc>
<path d="M146492283 109178748
L146048726 109178748
" />
<path d="M146270504 109178748
L146270504 108402524
L146196578 108513414
L146122652 108587340
L146048726 108624303
" />
<path d="M146824950 109178748
L146824950 108402524
L147268507 109178748
L147268507 108402524
" />
<path d="M147970805 108661266
L147970805 109178748
" />
<path d="M147785989 108365561
L147601174 108920007
L148081694 108920007
" />
<path d="M148783992 109178748
L148340435 109178748
" />
<path d="M148562213 109178748
L148562213 108402524
L148488287 108513414
L148414361 108587340
L148340435 108624303
" />
<path d="M149449326 108661266
L149449326 109178748
" />
<path d="M149264511 108365561
L149079696 108920007
L149560216 108920007
" />
<path d="M149966809 108735192
L149892883 108698229
L149855920 108661266
L149818957 108587340
L149818957 108550377
L149855920 108476451
L149892883 108439488
L149966809 108402524
L150114661 108402524
L150188587 108439488
L150225550 108476451
L150262514 108550377
L150262514 108587340
L150225550 108661266
L150188587 108698229
L150114661 108735192
L149966809 108735192
L149892883 108772155
L149855920 108809118
L149818957 108883044
L149818957 109030896
L149855920 109104822
L149892883 109141785
L149966809 109178748
L150114661 109178748
L150188587 109141785
L150225550 109104822
L150262514 109030896
L150262514 108883044
L150225550 108809118
L150188587 108772155
L150114661 108735192
" />
</g><text x="150152100.000000" y="106534712.000000"
textLength="3263334.000000" font-size="1034965.000000" lengthAdjust="spacingAndGlyphs"
text-anchor="end" opacity="0">0.1uF</text>
<g class="stroked-text"><desc>0.1uF</desc>
<path d="M147245207 105721524
L147319133 105721524
L147393060 105758488
L147430023 105795451
L147466986 105869377
L147503949 106017229
L147503949 106202044
L147466986 106349896
L147430023 106423822
L147393060 106460785
L147319133 106497748
L147245207 106497748
L147171281 106460785
L147134318 106423822
L147097355 106349896
L147060392 106202044
L147060392 106017229
L147097355 105869377
L147134318 105795451
L147171281 105758488
L147245207 105721524
" />
<path d="M147836616 106423822
L147873579 106460785
L147836616 106497748
L147799653 106460785
L147836616 106423822
L147836616 106497748
" />
<path d="M148612840 106497748
L148169284 106497748
" />
<path d="M148391062 106497748
L148391062 105721524
L148317136 105832414
L148243210 105906340
L148169284 105943303
" />
<path d="M149278175 105980266
L149278175 106497748
" />
<path d="M148945508 105980266
L148945508 106386859
L148982471 106460785
L149056397 106497748
L149167286 106497748
L149241212 106460785
L149278175 106423822
" />
<path d="M149906547 106091155
L149647805 106091155
" />
<path d="M149647805 106497748
L149647805 105721524
L150017436 105721524
" />
</g></g>
<g style="fill:#AFAFAF; fill-opacity:0.0; 
stroke:#AFAFAF; stroke-width:81280.000000; stroke-opacity:1; 
stroke-linecap:round; stroke-linejoin:round;">
<g transform="rotate(-90.000000 146329100.000000 103809600.000000)">
<text x="146329100.000000" y="103809600.000000"
textLength="2729789.000000" font-size="975360.000000" lengthAdjust="spacingAndGlyphs"
text-anchor="start" opacity="0">100k</text>
</g>
<g class="stroked-text"><desc>100k</desc>
<path d="M146294265 103199419
L146294265 103617430
" />
<path d="M146294265 103408425
L145562745 103408425
L145667248 103478093
L145736917 103547762
L145771751 103617430
" />
<path d="M145562745 102746573
L145562745 102676905
L145597580 102607236
L145632414 102572402
L145702082 102537568
L145841420 102502733
L146015591 102502733
L146154928 102537568
L146224597 102572402
L146259431 102607236
L146294265 102676905
L146294265 102746573
L146259431 102816242
L146224597 102851076
L146154928 102885910
L146015591 102920745
L145841420 102920745
L145702082 102885910
L145632414 102851076
L145597580 102816242
L145562745 102746573
" />
<path d="M145562745 102049888
L145562745 101980219
L145597580 101910550
L145632414 101875716
L145702082 101840882
L145841420 101806048
L146015591 101806048
L146154928 101840882
L146224597 101875716
L146259431 101910550
L146294265 101980219
L146294265 102049888
L146259431 102119556
L146224597 102154390
L146154928 102189225
L146015591 102224059
L145841420 102224059
L145702082 102189225
L145632414 102154390
L145597580 102119556
L145562745 102049888
" />
<path d="M146294265 101492539
L145562745 101492539
" />
<path d="M146015591 101422870
L146294265 101213865
" />
<path d="M145806585 101213865
L146085260 101492539
" />
</g></g>
<g style="fill:#AFAFAF; fill-opacity:0.0; 
stroke:#AFAFAF; stroke-width:36576.000000; stroke-opacity:1; 
stroke-linecap:round; stroke-linejoin:round;">
<g transform="rotate(-90.000000 151739500.000000 103797100.000000)">
<text x="151739500.000000" y="104185212.000000"
textLength="5132638.000000" font-size="1034965.000000" lengthAdjust="spacingAndGlyphs"
text-anchor="end" opacity="0">10K NTC</text>
</g>
<g class="stroked-text"><desc>10K NTC</desc>
<path d="M152090648 108256440
L152090648 108699996
" />
<path d="M152090648 108478218
L151314424 108478218
L151425314 108552144
L151499240 108626070
L151536203 108699996
" />
<path d="M151314424 107775920
L151314424 107701994
L151351388 107628068
L151388351 107591105
L151462277 107554142
L151610129 107517179
L151794944 107517179
L151942796 107554142
L152016722 107591105
L152053685 107628068
L152090648 107701994
L152090648 107775920
L152053685 107849846
L152016722 107886809
L151942796 107923772
L151794944 107960735
L151610129 107960735
L151462277 107923772
L151388351 107886809
L151351388 107849846
L151314424 107775920
" />
<path d="M152090648 107184511
L151314424 107184511
" />
<path d="M152090648 106740955
L151647092 107073622
" />
<path d="M151314424 106740955
L151757981 107184511
" />
<path d="M152090648 105816878
L151314424 105816878
L152090648 105373322
L151314424 105373322
" />
<path d="M151314424 105114581
L151314424 104671024
" />
<path d="M152090648 104892802
L151314424 104892802
" />
<path d="M152016722 103968726
L152053685 104005689
L152090648 104116578
L152090648 104190504
L152053685 104301394
L151979759 104375320
L151905833 104412283
L151757981 104449246
L151647092 104449246
L151499240 104412283
L151425314 104375320
L151351388 104301394
L151314424 104190504
L151314424 104116578
L151351388 104005689
L151388351 103968726
" />
</g><text x="138341100.000000" y="114713512.000000"
textLength="47549.000000" font-size="493098.000000" lengthAdjust="spacingAndGlyphs"
text-anchor="start" opacity="0"></text>
<g class="stroked-text"><desc></desc>
</g><text x="139484100.000000" y="108693712.000000"
textLength="2882731.000000" font-size="1034965.000000" lengthAdjust="spacingAndGlyphs"
text-anchor="start" opacity="0">10uF</text>
<g class="stroked-text"><desc>10uF</desc>
<path d="M140099283 108656748
L139655726 108656748
" />
<path d="M139877504 108656748
L139877504 107880524
L139803578 107991414
L139729652 108065340
L139655726 108102303
" />
<path d="M140579802 107880524
L140653728 107880524
L140727654 107917488
L140764618 107954451
L140801581 108028377
L140838544 108176229
L140838544 108361044
L140801581 108508896
L140764618 108582822
L140727654 108619785
L140653728 108656748
L140579802 108656748
L140505876 108619785
L140468913 108582822
L140431950 108508896
L140394987 108361044
L140394987 108176229
L140431950 108028377
L140468913 107954451
L140505876 107917488
L140579802 107880524
" />
<path d="M141503878 108139266
L141503878 108656748
" />
<path d="M141171211 108139266
L141171211 108545859
L141208174 108619785
L141282100 108656748
L141392989 108656748
L141466915 108619785
L141503878 108582822
" />
<path d="M142132250 108250155
L141873509 108250155
" />
<path d="M141873509 108656748
L141873509 107880524
L142243139 107880524
" />
</g><text x="146520100.000000" y="101766712.000000"
textLength="4557041.000000" font-size="1034965.000000" lengthAdjust="spacingAndGlyphs"
text-anchor="start" opacity="0">CCS811</text>
<g class="stroked-text"><desc>CCS811</desc>
<path d="M147172246 101655822
L147135283 101692785
L147024394 101729748
L146950467 101729748
L146839578 101692785
L146765652 101618859
L146728689 101544933
L146691726 101397081
L146691726 101286192
L146728689 101138340
L146765652 101064414
L146839578 100990488
L146950467 100953524
L147024394 100953524
L147135283 100990488
L147172246 101027451
" />
<path d="M147948470 101655822
L147911507 101692785
L147800618 101729748
L147726691 101729748
L147615802 101692785
L147541876 101618859
L147504913 101544933
L147467950 101397081
L147467950 101286192
L147504913 101138340
L147541876 101064414
L147615802 100990488
L147726691 100953524
L147800618 100953524
L147911507 100990488
L147948470 101027451
" />
<path d="M148244174 101692785
L148355063 101729748
L148539878 101729748
L148613805 101692785
L148650768 101655822
L148687731 101581896
L148687731 101507970
L148650768 101434044
L148613805 101397081
L148539878 101360118
L148392026 101323155
L148318100 101286192
L148281137 101249229
L148244174 101175303
L148244174 101101377
L148281137 101027451
L148318100 100990488
L148392026 100953524
L148576842 100953524
L148687731 100990488
" />
<path d="M149131287 101286192
L149057361 101249229
L149020398 101212266
L148983435 101138340
L148983435 101101377
L149020398 101027451
L149057361 100990488
L149131287 100953524
L149279139 100953524
L149353066 100990488
L149390029 101027451
L149426992 101101377
L149426992 101138340
L149390029 101212266
L149353066 101249229
L149279139 101286192
L149131287 101286192
L149057361 101323155
L149020398 101360118
L148983435 101434044
L148983435 101581896
L149020398 101655822
L149057361 101692785
L149131287 101729748
L149279139 101729748
L149353066 101692785
L149390029 101655822
L149426992 101581896
L149426992 101434044
L149390029 101360118
L149353066 101323155
L149279139 101286192
" />
<path d="M150166253 101729748
L149722696 101729748
" />
<path d="M149944474 101729748
L149944474 100953524
L149870548 101064414
L149796622 101138340
L149722696 101175303
" />
<path d="M150905514 101729748
L150461957 101729748
" />
<path d="M150683735 101729748
L150683735 100953524
L150609809 101064414
L150535883 101138340
L150461957 101175303
" />
</g></g>
<g style="fill:#AFAFAF; fill-opacity:0.0; 
stroke:#AFAFAF; stroke-width:203200.000000; stroke-opacity:1; 
stroke-linecap:round; stroke-linejoin:round;">
<path d="M155222100 106797600
L155222100 108797600
" />
<path d="M153972100 108797600
L153972100 106797600
" />
<path d="M153972100 106797600
L155222100 106797600
" />
<path d="M155222100 108797600
L153972100 108797600
" />
</g>
<g style="fill:#AFAFAF; fill-opacity:1.0; 
stroke:#AFAFAF; stroke-width:1.000000; stroke-opacity:1; 
stroke-linecap:round; stroke-linejoin:round;">
<path style="fill:#AFAFAF; fill-opacity:1.0; 
stroke:#AFAFAF; stroke-width:1.000000; stroke-opacity:1; 
stroke-linecap:round; stroke-linejoin:round;fill-rule:evenodd;"
d="M 155647100.000000,107272600.000000
155297100.000000,107272600.000000
155297100.000000,107022600.000000
155647100.000000,107022600.000000
Z" /> 
<path style="fill:#AFAFAF; fill-opacity:1.0; 
stroke:#AFAFAF; stroke-width:1.000000; stroke-opacity:1; 
stroke-linecap:round; stroke-linejoin:round;fill-rule:evenodd;"
d="M 155647100.000000,107922600.000000
155297100.000000,107922600.000000
155297100.000000,107672600.000000
155647100.000000,107672600.000000
Z" /> 
<path style="fill:#AFAFAF; fill-opacity:1.0; 
stroke:#AFAFAF; stroke-width:1.000000; stroke-opacity:1; 
stroke-linecap:round; stroke-linejoin:round;fill-rule:evenodd;"
d="M 153897100.000000,107272600.000000
153547100.000000,107272600.000000
153547100.000000,107022600.000000
153897100.000000,107022600.000000
Z" /> 
<path style="fill:#AFAFAF; fill-opacity:1.0; 
stroke:#AFAFAF; stroke-width:1.000000; stroke-opacity:1; 
stroke-linecap:round; stroke-linejoin:round;fill-rule:evenodd;"
d="M 155647100.000000,108572600.000000
155297100.000000,108572600.000000
155297100.000000,108322600.000000
155647100.000000,108322600.000000
Z" /> 
<path style="fill:#AFAFAF; fill-opacity:1.0; 
stroke:#AFAFAF; stroke-width:1.000000; stroke-opacity:1; 
stroke-linecap:round; stroke-linejoin:round;fill-rule:evenodd;"
d="M 153897100.000000,108572600.000000
153547100.000000,108572600.000000
153547100.000000,108322600.000000
153897100.000000,108322600.000000
Z" /> 
<path style="fill:#AFAFAF; fill-opacity:1.0; 
stroke:#AFAFAF; stroke-width:1.000000; stroke-opacity:1; 
stroke-linecap:round; stroke-linejoin:round;fill-rule:evenodd;"
d="M 153897100.000000,107922600.000000
153547100.000000,107922600.000000
153547100.000000,107672600.000000
153897100.000000,107672600.000000
Z" /> 
</g>
<g style="fill:#AFAFAF; fill-opacity:1.0; 
stroke:#AFAFAF; stroke-width:203200.000000; stroke-opacity:1; 
stroke-linecap:round; stroke-linejoin:round;">
</g>
<g style="fill:#AFAFAF; fill-opacity:0.0; 
stroke:#AFAFAF; stroke-width:203200.000000; stroke-opacity:1; 
stroke-linecap:round; stroke-linejoin:round;">
<path d="M143991100 105908600
L145391100 105908600
" />
<path d="M145391100 107908600
L143991100 107908600
" />
</g>
<g style="fill:#AFAFAF; fill-opacity:0.0; 
stroke:#AFAFAF; stroke-width:101600.000000; stroke-opacity:1; 
stroke-linecap:round; stroke-linejoin:round;">
<path d="M140246100 101041600
L141008100 101041600
" />
<path d="M140271100 102361600
L141008100 102361600
" />
</g>
<g style="fill:#AFAFAF; fill-opacity:1.0; 
stroke:#AFAFAF; stroke-width:1.000000; stroke-opacity:1; 
stroke-linecap:round; stroke-linejoin:round;">
<path style="fill:#AFAFAF; fill-opacity:1.0; 
stroke:#AFAFAF; stroke-width:1.000000; stroke-opacity:1; 
stroke-linecap:round; stroke-linejoin:round;fill-rule:evenodd;"
d="M 140285000.000000,102425500.000000
139534900.000000,102425500.000000
139534900.000000,100975400.000000
140285000.000000,100975400.000000
Z" /> 
<path style="fill:#AFAFAF; fill-opacity:1.0; 
stroke:#AFAFAF; stroke-width:1.000000; stroke-opacity:1; 
stroke-linecap:round; stroke-linejoin:round;fill-rule:evenodd;"
d="M 141732800.000000,102425500.000000
140982700.000000,102425500.000000
140982700.000000,100975400.000000
141732800.000000,100975400.000000
Z" /> 
</g>
<g style="fill:#AFAFAF; fill-opacity:1.0; 
stroke:#AFAFAF; stroke-width:203200.000000; stroke-opacity:1; 
stroke-linecap:round; stroke-linejoin:round;">
</g>
<g style="fill:#AFAFAF; fill-opacity:0.0; 
stroke:#AFAFAF; stroke-width:203200.000000; stroke-opacity:1; 
stroke-linecap:round; stroke-linejoin:round;">
<path d="M153797100 105333600
L153797100 102133600
" />
<path d="M155397100 105333600
L153797100 105333600
" />
<path d="M153797100 102133600
L155397100 102133600
" />
<path d="M155397100 102133600
L155397100 105333600
" />
</g>
<g style="fill:#AFAFAF; fill-opacity:1.0; 
stroke:#AFAFAF; stroke-width:1.000000; stroke-opacity:1; 
stroke-linecap:round; stroke-linejoin:round;">
<path style="fill:#AFAFAF; fill-opacity:1.0; 
stroke:#AFAFAF; stroke-width:1.000000; stroke-opacity:1; 
stroke-linecap:round; stroke-linejoin:round;fill-rule:evenodd;"
d="M 155097100.000000,105283600.000000
154097100.000000,105283600.000000
154097100.000000,102183600.000000
155097100.000000,102183600.000000
Z" /> 
</g>
<g style="fill:#AFAFAF; fill-opacity:1.0; 
stroke:#AFAFAF; stroke-width:203200.000000; stroke-opacity:1; 
stroke-linecap:round; stroke-linejoin:round;">
</g>
<g style="fill:#AFAFAF; fill-opacity:0.0; 
stroke:#AFAFAF; stroke-width:203200.000000; stroke-opacity:1; 
stroke-linecap:round; stroke-linejoin:round;">
<path d="M139204700 105560000
L139204700 103939200
" />
<path d="M139204700 103939200
L142049500 103939200
" />
<path d="M142049500 105560000
L139204700 105560000
" />
<path d="M142049500 103939200
L142049500 105560000
" />
</g>
<g style="fill:#AFAFAF; fill-opacity:1.0; 
stroke:#AFAFAF; stroke-width:1.000000; stroke-opacity:1; 
stroke-linecap:round; stroke-linejoin:round;">
<path style="fill:#AFAFAF; fill-opacity:1.0; 
stroke:#AFAFAF; stroke-width:1.000000; stroke-opacity:1; 
stroke-linecap:round; stroke-linejoin:round;fill-rule:evenodd;"
d="M 141827100.000000,106249600.000000
141327100.000000,106249600.000000
141327100.000000,105599600.000000
141827100.000000,105599600.000000
Z" /> 
<path style="fill:#AFAFAF; fill-opacity:1.0; 
stroke:#AFAFAF; stroke-width:1.000000; stroke-opacity:1; 
stroke-linecap:round; stroke-linejoin:round;fill-rule:evenodd;"
d="M 140877100.000000,106249600.000000
140377100.000000,106249600.000000
140377100.000000,105599600.000000
140877100.000000,105599600.000000
Z" /> 
<path style="fill:#AFAFAF; fill-opacity:1.0; 
stroke:#AFAFAF; stroke-width:1.000000; stroke-opacity:1; 
stroke-linecap:round; stroke-linejoin:round;fill-rule:evenodd;"
d="M 139927100.000000,103899600.000000
139427100.000000,103899600.000000
139427100.000000,103249600.000000
139927100.000000,103249600.000000
Z" /> 
<path style="fill:#AFAFAF; fill-opacity:1.0; 
stroke:#AFAFAF; stroke-width:1.000000; stroke-opacity:1; 
stroke-linecap:round; stroke-linejoin:round;fill-rule:evenodd;"
d="M 139927100.000000,106249600.000000
139427100.000000,106249600.000000
139427100.000000,105599600.000000
139927100.000000,105599600.000000
Z" /> 
<path style="fill:#AFAFAF; fill-opacity:1.0; 
stroke:#AFAFAF; stroke-width:1.000000; stroke-opacity:1; 
stroke-linecap:round; stroke-linejoin:round;fill-rule:evenodd;"
d="M 141827100.000000,103899600.000000
141327100.000000,103899600.000000
141327100.000000,103249600.000000
141827100.000000,103249600.000000
Z" /> 
</g>
<g style="fill:#AFAFAF; fill-opacity:1.0; 
stroke:#AFAFAF; stroke-width:203200.000000; stroke-opacity:1; 
stroke-linecap:round; stroke-linejoin:round;">
</g>
<g style="fill:#AFAFAF; fill-opacity:0.0; 
stroke:#AFAFAF; stroke-width:203200.000000; stroke-opacity:1; 
stroke-linecap:round; stroke-linejoin:round;">
<path d="M148866100 107732600
L148866100 109132600
" />
<path d="M146866100 109132600
L146866100 107732600
" />
</g>
<g style="fill:#AFAFAF; fill-opacity:0.0; 
stroke:#AFAFAF; stroke-width:101600.000000; stroke-opacity:1; 
stroke-linecap:round; stroke-linejoin:round;">
<path d="M148476100 106959600
L147764100 106959600
" />
<path d="M148476100 106108600
L147764100 106108600
" />
</g>
<g style="fill:#AFAFAF; fill-opacity:1.0; 
stroke:#AFAFAF; stroke-width:1.000000; stroke-opacity:1; 
stroke-linecap:round; stroke-linejoin:round;">
<path style="fill:#AFAFAF; fill-opacity:1.0; 
stroke:#AFAFAF; stroke-width:1.000000; stroke-opacity:1; 
stroke-linecap:round; stroke-linejoin:round;fill-rule:evenodd;"
d="M 148958300.000000,107007700.000000
148458200.000000,107007700.000000
148458200.000000,106057700.000000
148958300.000000,106057700.000000
Z" /> 
<path style="fill:#AFAFAF; fill-opacity:1.0; 
stroke:#AFAFAF; stroke-width:1.000000; stroke-opacity:1; 
stroke-linecap:round; stroke-linejoin:round;fill-rule:evenodd;"
d="M 147789900.000000,107007700.000000
147289800.000000,107007700.000000
147289800.000000,106057700.000000
147789900.000000,106057700.000000
Z" /> 
</g>
<g style="fill:#AFAFAF; fill-opacity:1.0; 
stroke:#AFAFAF; stroke-width:203200.000000; stroke-opacity:1; 
stroke-linecap:round; stroke-linejoin:round;">
</g>
<g style="fill:#AFAFAF; fill-opacity:0.0; 
stroke:#AFAFAF; stroke-width:203200.000000; stroke-opacity:1; 
stroke-linecap:round; stroke-linejoin:round;">
<path d="M143129100 103809600
L143129100 100609600
" />
<path d="M144729100 100609600
L144729100 103809600
" />
<path d="M144729100 103809600
L143129100 103809600
" />
<path d="M143129100 100609600
L144729100 100609600
" />
</g>
<g style="fill:#AFAFAF; fill-opacity:1.0; 
stroke:#AFAFAF; stroke-width:1.000000; stroke-opacity:1; 
stroke-linecap:round; stroke-linejoin:round;">
<path style="fill:#AFAFAF; fill-opacity:1.0; 
stroke:#AFAFAF; stroke-width:1.000000; stroke-opacity:1; 
stroke-linecap:round; stroke-linejoin:round;fill-rule:evenodd;"
d="M 144429100.000000,103759600.000000
143429100.000000,103759600.000000
143429100.000000,100659600.000000
144429100.000000,100659600.000000
Z" /> 
</g>
<g style="fill:#AFAFAF; fill-opacity:1.0; 
stroke:#AFAFAF; stroke-width:101600.000000; stroke-opacity:1; 
stroke-linecap:round; stroke-linejoin:round;">
</g>
<g style="fill:#AFAFAF; fill-opacity:0.0; 
stroke:#AFAFAF; stroke-width:101600.000000; stroke-opacity:1; 
stroke-linecap:round; stroke-linejoin:round;">
<path d="M152010100 104740600
L152010100 104250600
" />
<path d="M152358100 104250600
L152358100 104740600
" />
</g>
<g style="fill:#AFAFAF; fill-opacity:1.0; 
stroke:#AFAFAF; stroke-width:1.000000; stroke-opacity:1; 
stroke-linecap:round; stroke-linejoin:round;">
<path style="fill:#AFAFAF; fill-opacity:1.0; 
stroke:#AFAFAF; stroke-width:1.000000; stroke-opacity:1; 
stroke-linecap:round; stroke-linejoin:round;fill-rule:evenodd;"
d="M 152434100.000000,104995600.000000
151934100.000000,104995600.000000
151934100.000000,104745600.000000
152434100.000000,104745600.000000
Z" /> 
<path style="fill:#AFAFAF; fill-opacity:1.0; 
stroke:#AFAFAF; stroke-width:1.000000; stroke-opacity:1; 
stroke-linecap:round; stroke-linejoin:round;fill-rule:evenodd;"
d="M 152434100.000000,104245600.000000
151934100.000000,104245600.000000
151934100.000000,103995600.000000
152434100.000000,103995600.000000
Z" /> 
</g>
<g style="fill:#AFAFAF; fill-opacity:1.0; 
stroke:#AFAFAF; stroke-width:203200.000000; stroke-opacity:1; 
stroke-linecap:round; stroke-linejoin:round;">
</g>
<g style="fill:#AFAFAF; fill-opacity:0.0; 
stroke:#AFAFAF; stroke-width:203200.000000; stroke-opacity:1; 
stroke-linecap:round; stroke-linejoin:round;">
<path d="M138341100 110718600
L138341100 111988600
" />
</g>
<g style="fill:#AFAFAF; fill-opacity:1.0; 
stroke:#AFAFAF; stroke-width:1.000000; stroke-opacity:1; 
stroke-linecap:round; stroke-linejoin:round;">
<path style="fill:#AFAFAF; fill-opacity:1.0; 
stroke:#AFAFAF; stroke-width:1.000000; stroke-opacity:1; 
stroke-linecap:round; stroke-linejoin:round;fill-rule:evenodd;"
d="M 155105100.000000,111607600.000000
154597100.000000,111607600.000000
154597100.000000,111099600.000000
155105100.000000,111099600.000000
Z" /> 
<path style="fill:#AFAFAF; fill-opacity:1.0; 
stroke:#AFAFAF; stroke-width:1.000000; stroke-opacity:1; 
stroke-linecap:round; stroke-linejoin:round;fill-rule:evenodd;"
d="M 152565100.000000,111607600.000000
152057100.000000,111607600.000000
152057100.000000,111099600.000000
152565100.000000,111099600.000000
Z" /> 
<path style="fill:#AFAFAF; fill-opacity:1.0; 
stroke:#AFAFAF; stroke-width:1.000000; stroke-opacity:1; 
stroke-linecap:round; stroke-linejoin:round;fill-rule:evenodd;"
d="M 144945100.000000,111607600.000000
144437100.000000,111607600.000000
144437100.000000,111099600.000000
144945100.000000,111099600.000000
Z" /> 
<path style="fill:#AFAFAF; fill-opacity:1.0; 
stroke:#AFAFAF; stroke-width:1.000000; stroke-opacity:1; 
stroke-linecap:round; stroke-linejoin:round;fill-rule:evenodd;"
d="M 147485100.000000,111607600.000000
146977100.000000,111607600.000000
146977100.000000,111099600.000000
147485100.000000,111099600.000000
Z" /> 
<path style="fill:#AFAFAF; fill-opacity:1.0; 
stroke:#AFAFAF; stroke-width:1.000000; stroke-opacity:1; 
stroke-linecap:round; stroke-linejoin:round;fill-rule:evenodd;"
d="M 142405100.000000,111607600.000000
141897100.000000,111607600.000000
141897100.000000,111099600.000000
142405100.000000,111099600.000000
Z" /> 
<path style="fill:#AFAFAF; fill-opacity:1.0; 
stroke:#AFAFAF; stroke-width:1.000000; stroke-opacity:1; 
stroke-linecap:round; stroke-linejoin:round;fill-rule:evenodd;"
d="M 150025100.000000,111607600.000000
149517100.000000,111607600.000000
149517100.000000,111099600.000000
150025100.000000,111099600.000000
Z" /> 
<path style="fill:#AFAFAF; fill-opacity:1.0; 
stroke:#AFAFAF; stroke-width:1.000000; stroke-opacity:1; 
stroke-linecap:round; stroke-linejoin:round;fill-rule:evenodd;"
d="M 157645100.000000,111607600.000000
157137100.000000,111607600.000000
157137100.000000,111099600.000000
157645100.000000,111099600.000000
Z" /> 
<path style="fill:#AFAFAF; fill-opacity:1.0; 
stroke:#AFAFAF; stroke-width:1.000000; stroke-opacity:1; 
stroke-linecap:round; stroke-linejoin:round;fill-rule:evenodd;"
d="M 139865100.000000,111607600.000000
139357100.000000,111607600.000000
139357100.000000,111099600.000000
139865100.000000,111099600.000000
Z" /> 
</g>
<g style="fill:#AFAFAF; fill-opacity:1.0; 
stroke:#AFAFAF; stroke-width:101600.000000; stroke-opacity:1; 
stroke-linecap:round; stroke-linejoin:round;">
</g>
<g style="fill:#AFAFAF; fill-opacity:0.0; 
stroke:#AFAFAF; stroke-width:101600.000000; stroke-opacity:1; 
stroke-linecap:round; stroke-linejoin:round;">
<path d="M140246100 107137600
L141008100 107137600
" />
<path d="M140271100 108457600
L141008100 108457600
" />
</g>
<g style="fill:#AFAFAF; fill-opacity:1.0; 
stroke:#AFAFAF; stroke-width:1.000000; stroke-opacity:1; 
stroke-linecap:round; stroke-linejoin:round;">
<path style="fill:#AFAFAF; fill-opacity:1.0; 
stroke:#AFAFAF; stroke-width:1.000000; stroke-opacity:1; 
stroke-linecap:round; stroke-linejoin:round;fill-rule:evenodd;"
d="M 140285000.000000,108521500.000000
139534900.000000,108521500.000000
139534900.000000,107071400.000000
140285000.000000,107071400.000000
Z" /> 
<path style="fill:#AFAFAF; fill-opacity:1.0; 
stroke:#AFAFAF; stroke-width:1.000000; stroke-opacity:1; 
stroke-linecap:round; stroke-linejoin:round;fill-rule:evenodd;"
d="M 141732800.000000,108521500.000000
140982700.000000,108521500.000000
140982700.000000,107071400.000000
141732800.000000,107071400.000000
Z" /> 
</g>
<g style="fill:#AFAFAF; fill-opacity:1.0; 
stroke:#AFAFAF; stroke-width:127000.000000; stroke-opacity:1; 
stroke-linecap:round; stroke-linejoin:round;">
</g>
<g style="fill:#AFAFAF; fill-opacity:0.0; 
stroke:#AFAFAF; stroke-width:127000.000000; stroke-opacity:1; 
stroke-linecap:round; stroke-linejoin:round;">
<path d="M149851100 101733600
L149851100 105733600
" />
<path d="M147151100 105733600
L147151100 101733600
" />
<path d="M149851100 105733600
L147151100 105733600
" />
<path d="M147151100 101733600
L149851100 101733600
" />
<g >
</g>
<g >
</g>
<g >
</g>
<g >
</g>
<g >
</g>
<g >
</g>
<g >
</g>
<g >
</g>
<g >
</g>
<g >
</g>
<g >
</g>
<g >
</g>
<g >
</g>
<g >
</g>
<g >
</g>
<g >
</g>
<g >
</g>
<g >
</g>
<g >
</g>
<g >
</g>
<g >
</g>
</g>
<g style="fill:#000000; fill-opacity:0.0; 
stroke:#000000; stroke-width:127000.000000; stroke-opacity:1; 
stroke-linecap:round; stroke-linejoin:round;">
</g>
<g style="fill:#D0D2CD; fill-opacity:0.0; 
stroke:#D0D2CD; stroke-width:127000.000000; stroke-opacity:1; 
stroke-linecap:round; stroke-linejoin:round;">
</g>
<g style="fill:#D0D2CD; fill-opacity:0.0; 
stroke:#D0D2CD; stroke-width:50000.000000; stroke-opacity:1; 
stroke-linecap:round; stroke-linejoin:round;">
<path d="M140881100.000000 96113600.000000 A2540000.000000 2540000.000000 0.0 0 0 138341100.000000 98653600.000000" />
<path d="M158661100.000000 98653600.000000 A2540000.000000 2540000.000000 0.0 0 0 156121100.000000 96113600.000000" />
<path d="M156121100 113893600
L140881100 113893600
" />
<path d="M158661100 98653600
L158661100 111353600
" />
<path d="M138341100 111353600
L138341100 98653600
" />
<path d="M156121100.000000 113893600.000000 A2540000.000000 2540000.000000 0.0 0 0 158661100.000000 111353600.000000" />
<path d="M140881100 96113600
L156121100 96113600
" />
<path d="M138341100.000000 111353600.000000 A2540000.000000 2540000.000000 0.0 0 0 140881100.000000 113893600.000000" />
<g >
</g>
<g >
</g>
<g >
</g>
<g >
</g>
<g >
</g>
<g >
</g>
<g >
</g>
<g >
</g>
<g >
</g>
<g >
</g>
<g >
</g>
<g >
</g>
<g >
</g>
<g >
</g>
<g >
</g>
<g >
</g>
<g >
</g>
<g >
</g>
<g >
</g>
<g >
</g>
<g >
</g>
</g> 
</svg>
