<!DOCTYPE svg PUBLIC "-//W3C//DTD SVG 1.1//EN" "http://www.w3.org/Graphics/SVG/1.1/DTD/svg11.dtd">
<svg xmlns="http://www.w3.org/2000/svg" version="1.1" width="22.32mm" height="22.32mm" viewBox="-159661100.0 93843600.0 22320000.0 22320000.0">
            <title>Picture generated by PcbDraw </title>
            <desc>Picture generated by PcbDraw</desc>
        <defs><clipPath id="cut-off"><path d=" M 138341100.0 94843600.0 L 158661100.0 94843600.0 L 158661100.0 115163600.0 L 138341100.0 115163600.0 L 138341100.0 94843600.0 " style="fill-rule: evenodd;"/></clipPath><mask id="pads-mask"><g style="fill:#ffffff; fill-opacity:0.0;  stroke:#ffffff; stroke-width:0.000000; stroke-opacity:1;  stroke-linecap:round; stroke-linejoin:round;">
<g style="fill:#ffffff; fill-opacity:1.0;  stroke:#ffffff; stroke-width:1.000000; stroke-opacity:1;  stroke-linecap:round; stroke-linejoin:round;">
<path style="fill:#ffffff; fill-opacity:1.0;  stroke:#ffffff; stroke-width:1.000000; stroke-opacity:1;  stroke-linecap:round; stroke-linejoin:round;fill-rule:evenodd;" d="M 158432500.000000,109753400.000000 158424766.000000,109792281.000000 158402742.000000,109825242.000000 158369781.000000,109847266.000000 158330900.000000,109855000.000000 156451300.000000,109855000.000000 156412419.000000,109847266.000000 156379458.000000,109825242.000000 156357434.000000,109792281.000000 156349700.000000,109753400.000000 156349700.000000,107873800.000000 156357434.000000,107834919.000000 156379458.000000,107801958.000000 156412419.000000,107779934.000000 156451300.000000,107772200.000000 158330900.000000,107772200.000000 158369781.000000,107779934.000000 158402742.000000,107801958.000000 158424766.000000,107834919.000000 158432500.000000,107873800.000000 Z"/> 
<circle cx="157391100.000000" cy="106273600.000000" r="1041400.000000"/> 
</g>
<g style="fill:#ffffff; fill-opacity:1.0;  stroke:#ffffff; stroke-width:1.000000; stroke-opacity:1;  stroke-linecap:round; stroke-linejoin:round;">
<circle cx="157391100.000000" cy="103733600.000000" r="1041400.000000"/> 
</g>
<g style="fill:#ffffff; fill-opacity:1.0;  stroke:#ffffff; stroke-width:1.000000; stroke-opacity:1;  stroke-linecap:round; stroke-linejoin:round;">
<circle cx="157391100.000000" cy="101193600.000000" r="1041400.000000"/> 
</g>
<g style="fill:#ffffff; fill-opacity:1.0;  stroke:#ffffff; stroke-width:1.000000; stroke-opacity:1;  stroke-linecap:round; stroke-linejoin:round;">
<path style="fill:#ffffff; fill-opacity:1.0;  stroke:#ffffff; stroke-width:1.000000; stroke-opacity:1;  stroke-linecap:round; stroke-linejoin:round;fill-rule:evenodd;" d="M 138569700.000000,100253800.000000 138577434.000000,100214919.000000 138599458.000000,100181958.000000 138632419.000000,100159934.000000 138671300.000000,100152200.000000 140550900.000000,100152200.000000 140589781.000000,100159934.000000 140622742.000000,100181958.000000 140644766.000000,100214919.000000 140652500.000000,100253800.000000 140652500.000000,102133400.000000 140644766.000000,102172281.000000 140622742.000000,102205242.000000 140589781.000000,102227266.000000 140550900.000000,102235000.000000 138671300.000000,102235000.000000 138632419.000000,102227266.000000 138599458.000000,102205242.000000 138577434.000000,102172281.000000 138569700.000000,102133400.000000 Z"/> 
<circle cx="139611100.000000" cy="103733600.000000" r="1041400.000000"/> 
</g>
<g style="fill:#ffffff; fill-opacity:1.0;  stroke:#ffffff; stroke-width:1.000000; stroke-opacity:1;  stroke-linecap:round; stroke-linejoin:round;">
<circle cx="139611100.000000" cy="106273600.000000" r="1041400.000000"/> 
</g>
<g style="fill:#ffffff; fill-opacity:1.0;  stroke:#ffffff; stroke-width:1.000000; stroke-opacity:1;  stroke-linecap:round; stroke-linejoin:round;">
<circle cx="139611100.000000" cy="108813600.000000" r="1041400.000000"/> 
</g>
</g> 
</mask><mask id="pads-mask-silkscreen"><rect x="107861100" y="94165299" width="103273013" height="26328301" fill="white"/><g style="fill:#000000; fill-opacity:0.0;  stroke:#000000; stroke-width:0.000000; stroke-opacity:1;  stroke-linecap:round; stroke-linejoin:round;">
<g style="fill:#000000; fill-opacity:1.0;  stroke:#000000; stroke-width:1.000000; stroke-opacity:1;  stroke-linecap:round; stroke-linejoin:round;">
<path style="fill:#000000; fill-opacity:1.0;  stroke:#000000; stroke-width:1.000000; stroke-opacity:1;  stroke-linecap:round; stroke-linejoin:round;fill-rule:evenodd;" d="M 158432500.000000,109753400.000000 158424766.000000,109792281.000000 158402742.000000,109825242.000000 158369781.000000,109847266.000000 158330900.000000,109855000.000000 156451300.000000,109855000.000000 156412419.000000,109847266.000000 156379458.000000,109825242.000000 156357434.000000,109792281.000000 156349700.000000,109753400.000000 156349700.000000,107873800.000000 156357434.000000,107834919.000000 156379458.000000,107801958.000000 156412419.000000,107779934.000000 156451300.000000,107772200.000000 158330900.000000,107772200.000000 158369781.000000,107779934.000000 158402742.000000,107801958.000000 158424766.000000,107834919.000000 158432500.000000,107873800.000000 Z"/> 
<circle cx="157391100.000000" cy="106273600.000000" r="1041400.000000"/> 
</g>
<g style="fill:#000000; fill-opacity:1.0;  stroke:#000000; stroke-width:1.000000; stroke-opacity:1;  stroke-linecap:round; stroke-linejoin:round;">
<circle cx="157391100.000000" cy="103733600.000000" r="1041400.000000"/> 
</g>
<g style="fill:#000000; fill-opacity:1.0;  stroke:#000000; stroke-width:1.000000; stroke-opacity:1;  stroke-linecap:round; stroke-linejoin:round;">
<circle cx="157391100.000000" cy="101193600.000000" r="1041400.000000"/> 
</g>
<g style="fill:#000000; fill-opacity:1.0;  stroke:#000000; stroke-width:1.000000; stroke-opacity:1;  stroke-linecap:round; stroke-linejoin:round;">
<path style="fill:#000000; fill-opacity:1.0;  stroke:#000000; stroke-width:1.000000; stroke-opacity:1;  stroke-linecap:round; stroke-linejoin:round;fill-rule:evenodd;" d="M 138569700.000000,100253800.000000 138577434.000000,100214919.000000 138599458.000000,100181958.000000 138632419.000000,100159934.000000 138671300.000000,100152200.000000 140550900.000000,100152200.000000 140589781.000000,100159934.000000 140622742.000000,100181958.000000 140644766.000000,100214919.000000 140652500.000000,100253800.000000 140652500.000000,102133400.000000 140644766.000000,102172281.000000 140622742.000000,102205242.000000 140589781.000000,102227266.000000 140550900.000000,102235000.000000 138671300.000000,102235000.000000 138632419.000000,102227266.000000 138599458.000000,102205242.000000 138577434.000000,102172281.000000 138569700.000000,102133400.000000 Z"/> 
<circle cx="139611100.000000" cy="103733600.000000" r="1041400.000000"/> 
</g>
<g style="fill:#000000; fill-opacity:1.0;  stroke:#000000; stroke-width:1.000000; stroke-opacity:1;  stroke-linecap:round; stroke-linejoin:round;">
<circle cx="139611100.000000" cy="106273600.000000" r="1041400.000000"/> 
</g>
<g style="fill:#000000; fill-opacity:1.0;  stroke:#000000; stroke-width:1.000000; stroke-opacity:1;  stroke-linecap:round; stroke-linejoin:round;">
<circle cx="139611100.000000" cy="108813600.000000" r="1041400.000000"/> 
</g>
</g> 
</mask><mask id="hole-mask"><g><rect x="107861100" y="94165299" fill="white" width="103273013" height="26328301"/><polyline stroke-linecap="round" stroke="black" stroke-width="1016000" points="0.0 0 0.0 0" transform="translate(157391100 108813600) rotate(-180.0)"/><polyline stroke-linecap="round" stroke="black" stroke-width="1016000" points="0.0 0 0.0 0" transform="translate(157391100 106273600) rotate(-180.0)"/><polyline stroke-linecap="round" stroke="black" stroke-width="1016000" points="0.0 0 0.0 0" transform="translate(157391100 103733600) rotate(-180.0)"/><polyline stroke-linecap="round" stroke="black" stroke-width="1016000" points="0.0 0 0.0 0" transform="translate(157391100 101193600) rotate(-180.0)"/><polyline stroke-linecap="round" stroke="black" stroke-width="1016000" points="0.0 0 0.0 0" transform="translate(139611100 101193600) rotate(-0.0)"/><polyline stroke-linecap="round" stroke="black" stroke-width="1016000" points="0.0 0 0.0 0" transform="translate(139611100 103733600) rotate(-0.0)"/><polyline stroke-linecap="round" stroke="black" stroke-width="1016000" points="0.0 0 0.0 0" transform="translate(139611100 106273600) rotate(-0.0)"/><polyline stroke-linecap="round" stroke="black" stroke-width="1016000" points="0.0 0 0.0 0" transform="translate(139611100 108813600) rotate(-0.0)"/><polyline stroke-linecap="round" stroke="black" stroke-width="508000" points="0.0 0 0.0 0" transform="translate(143421100 96113600) rotate(0.0)"/><polyline stroke-linecap="round" stroke="black" stroke-width="508000" points="0.0 0 0.0 0" transform="translate(150152100 109702600) rotate(0.0)"/><polyline stroke-linecap="round" stroke="black" stroke-width="508000" points="0.0 0 0.0 0" transform="translate(145961100 99796600) rotate(0.0)"/><polyline stroke-linecap="round" stroke="black" stroke-width="508000" points="0.0 0 0.0 0" transform="translate(145072100 104622600) rotate(0.0)"/><polyline stroke-linecap="round" stroke="black" stroke-width="508000" points="0.0 0 0.0 0" transform="translate(157391100 111353600) rotate(0.0)"/><polyline stroke-linecap="round" stroke="black" stroke-width="508000" points="0.0 0 0.0 0" transform="translate(140881100 111353600) rotate(0.0)"/><polyline stroke-linecap="round" stroke="black" stroke-width="508000" points="0.0 0 0.0 0" transform="translate(155359100 102336600) rotate(0.0)"/><polyline stroke-linecap="round" stroke="black" stroke-width="508000" points="0.0 0 0.0 0" transform="translate(153581100 99923600) rotate(0.0)"/><polyline stroke-linecap="round" stroke="black" stroke-width="508000" points="0.0 0 0.0 0" transform="translate(139738100 99034600) rotate(0.0)"/><polyline stroke-linecap="round" stroke="black" stroke-width="508000" points="0.0 0 0.0 0" transform="translate(146723100 109829600) rotate(0.0)"/><polyline stroke-linecap="round" stroke="black" stroke-width="508000" points="0.0 0 0.0 0" transform="translate(152311100 107543600) rotate(0.0)"/><polyline stroke-linecap="round" stroke="black" stroke-width="508000" points="0.0 0 0.0 0" transform="translate(151422100 109702600) rotate(0.0)"/><polyline stroke-linecap="round" stroke="black" stroke-width="508000" points="0.0 0 0.0 0" transform="translate(151549100 99161600) rotate(0.0)"/><polyline stroke-linecap="round" stroke="black" stroke-width="508000" points="0.0 0 0.0 0" transform="translate(147358100 107162600) rotate(0.0)"/><polyline stroke-linecap="round" stroke="black" stroke-width="508000" points="0.0 0 0.0 0" transform="translate(147866100 105130600) rotate(0.0)"/><polyline stroke-linecap="round" stroke="black" stroke-width="508000" points="0.0 0 0.0 0" transform="translate(145199100 110083600) rotate(0.0)"/><polyline stroke-linecap="round" stroke="black" stroke-width="508000" points="0.0 0 0.0 0" transform="translate(155232100 105003600) rotate(0.0)"/><polyline stroke-linecap="round" stroke="black" stroke-width="508000" points="0.0 0 0.0 0" transform="translate(143929100 110083600) rotate(0.0)"/><polyline stroke-linecap="round" stroke="black" stroke-width="508000" points="0.0 0 0.0 0" transform="translate(143294100 105003600) rotate(0.0)"/><polyline stroke-linecap="round" stroke="black" stroke-width="508000" points="0.0 0 0.0 0" transform="translate(149136100 106273600) rotate(0.0)"/><polyline stroke-linecap="round" stroke="black" stroke-width="508000" points="0.0 0 0.0 0" transform="translate(141516100 99034600) rotate(0.0)"/><polyline stroke-linecap="round" stroke="black" stroke-width="508000" points="0.0 0 0.0 0" transform="translate(151168100 112623600) rotate(0.0)"/><polyline stroke-linecap="round" stroke="black" stroke-width="508000" points="0.0 0 0.0 0" transform="translate(145326100 112877600) rotate(0.0)"/><polyline stroke-linecap="round" stroke="black" stroke-width="508000" points="0.0 0 0.0 0" transform="translate(143421100 99923600) rotate(0.0)"/><polyline stroke-linecap="round" stroke="black" stroke-width="508000" points="0.0 0 0.0 0" transform="translate(143294100 102463600) rotate(0.0)"/><polyline stroke-linecap="round" stroke="black" stroke-width="508000" points="0.0 0 0.0 0" transform="translate(144691100 99415600) rotate(0.0)"/></g></mask></defs><g transform="scale(-1,1)" id="boardContainer"><g id="substrate" clip-path="url(#cut-off)" mask="url(#hole-mask)"><g id="substrate-board" style="fill:#4ca06c; stroke:#4ca06c;"><path d=" M 138341100.0 94843600.0 L 158661100.0 94843600.0 L 158661100.0 115163600.0 L 138341100.0 115163600.0 L 138341100.0 94843600.0 " style="fill-rule: evenodd;"/><g style="fill-opacity: 0.0;stroke-width: 254000.000000;stroke-opacity: 1;stroke-linecap: round;stroke-linejoin: round">
<path d="M138341100 115163600 L138341100 94843600 "/>
<path d="M158661100 94843600 L158661100 115163600 "/>
<path d="M138341100 94843600 L158661100 94843600 "/>
<path d="M158661100 115163600 L138341100 115163600 "/>
</g> 
</g><g id="substrate-clad" style="fill:#9c6b28; stroke:#9c6b28;"><g style="fill-opacity: 0.0;stroke-width: 0.000000;stroke-opacity: 1;stroke-linecap: round;stroke-linejoin: round">
<g style="fill-opacity: 1.0;stroke-width: 1.000000;stroke-opacity: 1;stroke-linecap: round;stroke-linejoin: round">
<path style="fill-opacity: 1.0;stroke-width: 1.000000;stroke-opacity: 1;stroke-linecap: round;stroke-linejoin: round;fill-rule: evenodd" d="M 158432500.000000,109753400.000000 158424766.000000,109792281.000000 158402742.000000,109825242.000000 158369781.000000,109847266.000000 158330900.000000,109855000.000000 156451300.000000,109855000.000000 156412419.000000,109847266.000000 156379458.000000,109825242.000000 156357434.000000,109792281.000000 156349700.000000,109753400.000000 156349700.000000,107873800.000000 156357434.000000,107834919.000000 156379458.000000,107801958.000000 156412419.000000,107779934.000000 156451300.000000,107772200.000000 158330900.000000,107772200.000000 158369781.000000,107779934.000000 158402742.000000,107801958.000000 158424766.000000,107834919.000000 158432500.000000,107873800.000000 Z"/> 
<circle cx="157391100.000000" cy="106273600.000000" r="1041400.000000"/> 
</g>
<g style="fill-opacity: 1.0;stroke-width: 1.000000;stroke-opacity: 1;stroke-linecap: round;stroke-linejoin: round">
<circle cx="157391100.000000" cy="103733600.000000" r="1041400.000000"/> 
</g>
<g style="fill-opacity: 1.0;stroke-width: 1.000000;stroke-opacity: 1;stroke-linecap: round;stroke-linejoin: round">
<circle cx="157391100.000000" cy="101193600.000000" r="1041400.000000"/> 
</g>
<g style="fill-opacity: 1.0;stroke-width: 1.000000;stroke-opacity: 1;stroke-linecap: round;stroke-linejoin: round">
<path style="fill-opacity: 1.0;stroke-width: 1.000000;stroke-opacity: 1;stroke-linecap: round;stroke-linejoin: round;fill-rule: evenodd" d="M 138569700.000000,100253800.000000 138577434.000000,100214919.000000 138599458.000000,100181958.000000 138632419.000000,100159934.000000 138671300.000000,100152200.000000 140550900.000000,100152200.000000 140589781.000000,100159934.000000 140622742.000000,100181958.000000 140644766.000000,100214919.000000 140652500.000000,100253800.000000 140652500.000000,102133400.000000 140644766.000000,102172281.000000 140622742.000000,102205242.000000 140589781.000000,102227266.000000 140550900.000000,102235000.000000 138671300.000000,102235000.000000 138632419.000000,102227266.000000 138599458.000000,102205242.000000 138577434.000000,102172281.000000 138569700.000000,102133400.000000 Z"/> 
<circle cx="139611100.000000" cy="103733600.000000" r="1041400.000000"/> 
</g>
<g style="fill-opacity: 1.0;stroke-width: 1.000000;stroke-opacity: 1;stroke-linecap: round;stroke-linejoin: round">
<circle cx="139611100.000000" cy="106273600.000000" r="1041400.000000"/> 
</g>
<g style="fill-opacity: 1.0;stroke-width: 1.000000;stroke-opacity: 1;stroke-linecap: round;stroke-linejoin: round">
<circle cx="139611100.000000" cy="108813600.000000" r="1041400.000000"/> 
</g>
</g> 
</g><g id="substrate-copper" style="fill:#417e5a; stroke:#417e5a;"><g style="fill-opacity: 0.0;stroke-width: 152400.000000;stroke-opacity: 1;stroke-linecap: round;stroke-linejoin: round">
<text x="158280100.000000" y="114782600.000000" transform="scale(-1 1) translate(-316560200.000000 0)" textLength="5921828.000000" font-size="1151466.000000" lengthAdjust="spacingAndGlyphs" text-anchor="start" opacity="0">4/28/11</text>
<g class="stroked-text"><desc>4/28/11</desc>
<path d="M157605306 114165742 L157605306 114741476 "/>
<path d="M157810925 113836752 L158016544 114453609 L157481935 114453609 "/>
<path d="M156536087 113836752 L157276316 114947095 "/>
<path d="M156289344 113960123 L156248220 113919000 L156165973 113877876 L155960354 113877876 L155878106 113919000 L155836982 113960123 L155795859 114042371 L155795859 114124619 L155836982 114247990 L156330468 114741476 L155795859 114741476 "/>
<path d="M155302373 114247990 L155384620 114206866 L155425744 114165742 L155466868 114083495 L155466868 114042371 L155425744 113960123 L155384620 113919000 L155302373 113877876 L155137878 113877876 L155055630 113919000 L155014506 113960123 L154973382 114042371 L154973382 114083495 L155014506 114165742 L155055630 114206866 L155137878 114247990 L155302373 114247990 L155384620 114289114 L155425744 114330238 L155466868 114412485 L155466868 114576980 L155425744 114659228 L155384620 114700352 L155302373 114741476 L155137878 114741476 L155055630 114700352 L155014506 114659228 L154973382 114576980 L154973382 114412485 L155014506 114330238 L155055630 114289114 L155137878 114247990 "/>
<path d="M153986411 113836752 L154726640 114947095 "/>
<path d="M153246182 114741476 L153739668 114741476 "/>
<path d="M153492925 114741476 L153492925 113877876 L153575173 114001247 L153657420 114083495 L153739668 114124619 "/>
<path d="M152423706 114741476 L152917192 114741476 "/>
<path d="M152670449 114741476 L152670449 113877876 L152752697 114001247 L152834944 114083495 L152917192 114124619 "/>
</g><g style="fill-opacity: 1.0;stroke-width: 1.000000;stroke-opacity: 1;stroke-linecap: round;stroke-linejoin: round">
<path style="fill-opacity: 1.0;stroke-width: 1.000000;stroke-opacity: 1;stroke-linecap: round;stroke-linejoin: round;fill-rule: evenodd" d="M 158330899.000000,107873801.000000 158330899.000000,109753399.000000 156451301.000000,109753399.000000 156451301.000000,107873801.000000 Z"/> 
<circle cx="157391100.000000" cy="106273600.000000" r="939800.000000"/> 
</g>
<g style="fill-opacity: 1.0;stroke-width: 1.000000;stroke-opacity: 1;stroke-linecap: round;stroke-linejoin: round">
<circle cx="157391100.000000" cy="103733600.000000" r="939800.000000"/> 
</g>
<g style="fill-opacity: 1.0;stroke-width: 1.000000;stroke-opacity: 1;stroke-linecap: round;stroke-linejoin: round">
<circle cx="157391100.000000" cy="101193600.000000" r="939800.000000"/> 
</g>
<g style="fill-opacity: 1.0;stroke-width: 1.000000;stroke-opacity: 1;stroke-linecap: round;stroke-linejoin: round">
<path style="fill-opacity: 1.0;stroke-width: 1.000000;stroke-opacity: 1;stroke-linecap: round;stroke-linejoin: round;fill-rule: evenodd" d="M 138671301.000000,102133399.000000 138671301.000000,100253801.000000 140550899.000000,100253801.000000 140550899.000000,102133399.000000 Z"/> 
<circle cx="139611100.000000" cy="103733600.000000" r="939800.000000"/> 
</g>
<g style="fill-opacity: 1.0;stroke-width: 1.000000;stroke-opacity: 1;stroke-linecap: round;stroke-linejoin: round">
<circle cx="139611100.000000" cy="106273600.000000" r="939800.000000"/> 
</g>
<g style="fill-opacity: 1.0;stroke-width: 1.000000;stroke-opacity: 1;stroke-linecap: round;stroke-linejoin: round">
<circle cx="139611100.000000" cy="108813600.000000" r="939800.000000"/> 
</g>
<g style="fill-opacity: 1.0;stroke-width: 1.000000;stroke-opacity: 1;stroke-linecap: round;stroke-linejoin: round">
<circle cx="143421100.000000" cy="96113600.000000" r="508000.000000"/> 
</g>
<g style="fill-opacity: 1.0;stroke-width: 1.000000;stroke-opacity: 1;stroke-linecap: round;stroke-linejoin: round">
<circle cx="150152100.000000" cy="109702600.000000" r="508000.000000"/> 
</g>
<g style="fill-opacity: 1.0;stroke-width: 1.000000;stroke-opacity: 1;stroke-linecap: round;stroke-linejoin: round">
<circle cx="145961100.000000" cy="99796600.000000" r="508000.000000"/> 
</g>
<g style="fill-opacity: 1.0;stroke-width: 1.000000;stroke-opacity: 1;stroke-linecap: round;stroke-linejoin: round">
<circle cx="145072100.000000" cy="104622600.000000" r="508000.000000"/> 
</g>
<g style="fill-opacity: 1.0;stroke-width: 1.000000;stroke-opacity: 1;stroke-linecap: round;stroke-linejoin: round">
<circle cx="157391100.000000" cy="111353600.000000" r="508000.000000"/> 
</g>
<g style="fill-opacity: 1.0;stroke-width: 1.000000;stroke-opacity: 1;stroke-linecap: round;stroke-linejoin: round">
<circle cx="140881100.000000" cy="111353600.000000" r="508000.000000"/> 
</g>
<g style="fill-opacity: 1.0;stroke-width: 1.000000;stroke-opacity: 1;stroke-linecap: round;stroke-linejoin: round">
<circle cx="155359100.000000" cy="102336600.000000" r="508000.000000"/> 
</g>
<g style="fill-opacity: 1.0;stroke-width: 1.000000;stroke-opacity: 1;stroke-linecap: round;stroke-linejoin: round">
<circle cx="153581100.000000" cy="99923600.000000" r="508000.000000"/> 
</g>
<g style="fill-opacity: 1.0;stroke-width: 1.000000;stroke-opacity: 1;stroke-linecap: round;stroke-linejoin: round">
<circle cx="139738100.000000" cy="99034600.000000" r="508000.000000"/> 
</g>
<g style="fill-opacity: 1.0;stroke-width: 1.000000;stroke-opacity: 1;stroke-linecap: round;stroke-linejoin: round">
<circle cx="146723100.000000" cy="109829600.000000" r="508000.000000"/> 
</g>
<g style="fill-opacity: 1.0;stroke-width: 1.000000;stroke-opacity: 1;stroke-linecap: round;stroke-linejoin: round">
<circle cx="152311100.000000" cy="107543600.000000" r="508000.000000"/> 
</g>
<g style="fill-opacity: 1.0;stroke-width: 1.000000;stroke-opacity: 1;stroke-linecap: round;stroke-linejoin: round">
<circle cx="151422100.000000" cy="109702600.000000" r="508000.000000"/> 
</g>
<g style="fill-opacity: 1.0;stroke-width: 1.000000;stroke-opacity: 1;stroke-linecap: round;stroke-linejoin: round">
<circle cx="151549100.000000" cy="99161600.000000" r="508000.000000"/> 
</g>
<g style="fill-opacity: 1.0;stroke-width: 1.000000;stroke-opacity: 1;stroke-linecap: round;stroke-linejoin: round">
<circle cx="147358100.000000" cy="107162600.000000" r="508000.000000"/> 
</g>
<g style="fill-opacity: 1.0;stroke-width: 1.000000;stroke-opacity: 1;stroke-linecap: round;stroke-linejoin: round">
<circle cx="147866100.000000" cy="105130600.000000" r="508000.000000"/> 
</g>
<g style="fill-opacity: 1.0;stroke-width: 1.000000;stroke-opacity: 1;stroke-linecap: round;stroke-linejoin: round">
<circle cx="145199100.000000" cy="110083600.000000" r="508000.000000"/> 
</g>
<g style="fill-opacity: 1.0;stroke-width: 1.000000;stroke-opacity: 1;stroke-linecap: round;stroke-linejoin: round">
<circle cx="155232100.000000" cy="105003600.000000" r="508000.000000"/> 
</g>
<g style="fill-opacity: 1.0;stroke-width: 1.000000;stroke-opacity: 1;stroke-linecap: round;stroke-linejoin: round">
<circle cx="143929100.000000" cy="110083600.000000" r="508000.000000"/> 
</g>
<g style="fill-opacity: 1.0;stroke-width: 1.000000;stroke-opacity: 1;stroke-linecap: round;stroke-linejoin: round">
<circle cx="143294100.000000" cy="105003600.000000" r="508000.000000"/> 
</g>
<g style="fill-opacity: 1.0;stroke-width: 1.000000;stroke-opacity: 1;stroke-linecap: round;stroke-linejoin: round">
<circle cx="149136100.000000" cy="106273600.000000" r="508000.000000"/> 
</g>
<g style="fill-opacity: 1.0;stroke-width: 1.000000;stroke-opacity: 1;stroke-linecap: round;stroke-linejoin: round">
<circle cx="141516100.000000" cy="99034600.000000" r="508000.000000"/> 
</g>
<g style="fill-opacity: 1.0;stroke-width: 1.000000;stroke-opacity: 1;stroke-linecap: round;stroke-linejoin: round">
<circle cx="151168100.000000" cy="112623600.000000" r="508000.000000"/> 
</g>
<g style="fill-opacity: 1.0;stroke-width: 1.000000;stroke-opacity: 1;stroke-linecap: round;stroke-linejoin: round">
<circle cx="145326100.000000" cy="112877600.000000" r="508000.000000"/> 
</g>
<g style="fill-opacity: 1.0;stroke-width: 1.000000;stroke-opacity: 1;stroke-linecap: round;stroke-linejoin: round">
<circle cx="143421100.000000" cy="99923600.000000" r="508000.000000"/> 
</g>
<g style="fill-opacity: 1.0;stroke-width: 1.000000;stroke-opacity: 1;stroke-linecap: round;stroke-linejoin: round">
<circle cx="143294100.000000" cy="102463600.000000" r="508000.000000"/> 
</g>
<g style="fill-opacity: 1.0;stroke-width: 1.000000;stroke-opacity: 1;stroke-linecap: round;stroke-linejoin: round">
<circle cx="144691100.000000" cy="99415600.000000" r="508000.000000"/> 
</g>
<g style="fill-opacity: 0.0;stroke-width: 254000.000000;stroke-opacity: 1;stroke-linecap: round;stroke-linejoin: round">
<path d="M150152100 107670600 L152438100 105384600 "/>
<path d="M152438100 105384600 L152438100 98780600 "/>
<path d="M149771100 96113600 L143421100 96113600 "/>
<path d="M152438100 98780600 L149771100 96113600 "/>
<path d="M150152100 109702600 L150152100 107670600 "/>
<path d="M145961100 103733600 L145961100 99796600 "/>
<path d="M145072100 104622600 L145961100 103733600 "/>
<path d="M148120100 107162600 L148501100 107543600 "/>
<path d="M148501100 107543600 L149517100 107543600 "/>
<path d="M149517100 107543600 L151549100 105511600 "/>
<path d="M147358100 107162600 L148120100 107162600 "/>
<path d="M151549100 105130600 L151549100 99161600 "/>
<path d="M151549100 105130600 L147866100 105130600 "/>
<path d="M151549100 105511600 L151549100 105130600 "/>
<path d="M145199100 110083600 L146342100 111226600 "/>
<path d="M155232100 108432600 L155232100 105003600 "/>
<path d="M146342100 111226600 L152438100 111226600 "/>
<path d="M152438100 111226600 L155232100 108432600 "/>
<path d="M145580100 111734600 L143929100 110083600 "/>
<path d="M157391100 101701600 L157391100 101193600 "/>
<path d="M156121100 108432600 L156121100 102971600 "/>
<path d="M152819100 111734600 L156121100 108432600 "/>
<path d="M156121100 102971600 L157391100 101701600 "/>
<path d="M145580100 111734600 L152819100 111734600 "/>
<path d="M143294100 105003600 L144564100 106273600 "/>
<path d="M144564100 106273600 L149136100 106273600 "/>
<path d="M140881100 99669600 L141516100 99034600 "/>
<path d="M140881100 107543600 L140881100 99669600 "/>
<path d="M139611100 108813600 L140881100 107543600 "/>
<path d="M142024100 102463600 L143421100 101066600 "/>
<path d="M145326100 112877600 L142024100 109575600 "/>
<path d="M146977100 112877600 L147231100 112623600 "/>
<path d="M145326100 112877600 L146977100 112877600 "/>
<path d="M153581100 112623600 L157391100 108813600 "/>
<path d="M142024100 109575600 L142024100 102463600 "/>
<path d="M143421100 101066600 L143421100 99923600 "/>
<path d="M147231100 112623600 L151168100 112623600 "/>
<path d="M151168100 112623600 L153581100 112623600 "/>
<path d="M144691100 101066600 L144691100 99415600 "/>
<path d="M143294100 102463600 L144691100 101066600 "/>
</g>
</g> 
</g><g id="substrate-pads" style="fill:#b5ae30; stroke:#b5ae30;" mask="url(#pads-mask)"><g style="fill-opacity: 0.0;stroke-width: 152400.000000;stroke-opacity: 1;stroke-linecap: round;stroke-linejoin: round">
<text x="158280100.000000" y="114782600.000000" transform="scale(-1 1) translate(-316560200.000000 0)" textLength="5723709.000000" font-size="1151466.000000" lengthAdjust="spacingAndGlyphs" text-anchor="start" opacity="0">4/28/11</text>
<g class="stroked-text"><desc>4/28/11</desc>
<path d="M157605306 114165742 L157605306 114741476 "/>
<path d="M157810925 113836752 L158016544 114453609 L157481935 114453609 "/>
<path d="M156536087 113836752 L157276316 114947095 "/>
<path d="M156289344 113960123 L156248220 113919000 L156165973 113877876 L155960354 113877876 L155878106 113919000 L155836982 113960123 L155795859 114042371 L155795859 114124619 L155836982 114247990 L156330468 114741476 L155795859 114741476 "/>
<path d="M155302373 114247990 L155384620 114206866 L155425744 114165742 L155466868 114083495 L155466868 114042371 L155425744 113960123 L155384620 113919000 L155302373 113877876 L155137878 113877876 L155055630 113919000 L155014506 113960123 L154973382 114042371 L154973382 114083495 L155014506 114165742 L155055630 114206866 L155137878 114247990 L155302373 114247990 L155384620 114289114 L155425744 114330238 L155466868 114412485 L155466868 114576980 L155425744 114659228 L155384620 114700352 L155302373 114741476 L155137878 114741476 L155055630 114700352 L155014506 114659228 L154973382 114576980 L154973382 114412485 L155014506 114330238 L155055630 114289114 L155137878 114247990 "/>
<path d="M153986411 113836752 L154726640 114947095 "/>
<path d="M153246182 114741476 L153739668 114741476 "/>
<path d="M153492925 114741476 L153492925 113877876 L153575173 114001247 L153657420 114083495 L153739668 114124619 "/>
<path d="M152423706 114741476 L152917192 114741476 "/>
<path d="M152670449 114741476 L152670449 113877876 L152752697 114001247 L152834944 114083495 L152917192 114124619 "/>
</g><g style="fill-opacity: 1.0;stroke-width: 1.000000;stroke-opacity: 1;stroke-linecap: round;stroke-linejoin: round">
<path style="fill-opacity: 1.0;stroke-width: 1.000000;stroke-opacity: 1;stroke-linecap: round;stroke-linejoin: round;fill-rule: evenodd" d="M 158330899.000000,107873801.000000 158330899.000000,109753399.000000 156451301.000000,109753399.000000 156451301.000000,107873801.000000 Z"/> 
<circle cx="157391100.000000" cy="106273600.000000" r="939800.000000"/> 
</g>
<g style="fill-opacity: 1.0;stroke-width: 1.000000;stroke-opacity: 1;stroke-linecap: round;stroke-linejoin: round">
<circle cx="157391100.000000" cy="103733600.000000" r="939800.000000"/> 
</g>
<g style="fill-opacity: 1.0;stroke-width: 1.000000;stroke-opacity: 1;stroke-linecap: round;stroke-linejoin: round">
<circle cx="157391100.000000" cy="101193600.000000" r="939800.000000"/> 
</g>
<g style="fill-opacity: 1.0;stroke-width: 1.000000;stroke-opacity: 1;stroke-linecap: round;stroke-linejoin: round">
<path style="fill-opacity: 1.0;stroke-width: 1.000000;stroke-opacity: 1;stroke-linecap: round;stroke-linejoin: round;fill-rule: evenodd" d="M 138671301.000000,102133399.000000 138671301.000000,100253801.000000 140550899.000000,100253801.000000 140550899.000000,102133399.000000 Z"/> 
<circle cx="139611100.000000" cy="103733600.000000" r="939800.000000"/> 
</g>
<g style="fill-opacity: 1.0;stroke-width: 1.000000;stroke-opacity: 1;stroke-linecap: round;stroke-linejoin: round">
<circle cx="139611100.000000" cy="106273600.000000" r="939800.000000"/> 
</g>
<g style="fill-opacity: 1.0;stroke-width: 1.000000;stroke-opacity: 1;stroke-linecap: round;stroke-linejoin: round">
<circle cx="139611100.000000" cy="108813600.000000" r="939800.000000"/> 
</g>
<g style="fill-opacity: 1.0;stroke-width: 1.000000;stroke-opacity: 1;stroke-linecap: round;stroke-linejoin: round">
<circle cx="143421100.000000" cy="96113600.000000" r="508000.000000"/> 
</g>
<g style="fill-opacity: 1.0;stroke-width: 1.000000;stroke-opacity: 1;stroke-linecap: round;stroke-linejoin: round">
<circle cx="150152100.000000" cy="109702600.000000" r="508000.000000"/> 
</g>
<g style="fill-opacity: 1.0;stroke-width: 1.000000;stroke-opacity: 1;stroke-linecap: round;stroke-linejoin: round">
<circle cx="145961100.000000" cy="99796600.000000" r="508000.000000"/> 
</g>
<g style="fill-opacity: 1.0;stroke-width: 1.000000;stroke-opacity: 1;stroke-linecap: round;stroke-linejoin: round">
<circle cx="145072100.000000" cy="104622600.000000" r="508000.000000"/> 
</g>
<g style="fill-opacity: 1.0;stroke-width: 1.000000;stroke-opacity: 1;stroke-linecap: round;stroke-linejoin: round">
<circle cx="157391100.000000" cy="111353600.000000" r="508000.000000"/> 
</g>
<g style="fill-opacity: 1.0;stroke-width: 1.000000;stroke-opacity: 1;stroke-linecap: round;stroke-linejoin: round">
<circle cx="140881100.000000" cy="111353600.000000" r="508000.000000"/> 
</g>
<g style="fill-opacity: 1.0;stroke-width: 1.000000;stroke-opacity: 1;stroke-linecap: round;stroke-linejoin: round">
<circle cx="155359100.000000" cy="102336600.000000" r="508000.000000"/> 
</g>
<g style="fill-opacity: 1.0;stroke-width: 1.000000;stroke-opacity: 1;stroke-linecap: round;stroke-linejoin: round">
<circle cx="153581100.000000" cy="99923600.000000" r="508000.000000"/> 
</g>
<g style="fill-opacity: 1.0;stroke-width: 1.000000;stroke-opacity: 1;stroke-linecap: round;stroke-linejoin: round">
<circle cx="139738100.000000" cy="99034600.000000" r="508000.000000"/> 
</g>
<g style="fill-opacity: 1.0;stroke-width: 1.000000;stroke-opacity: 1;stroke-linecap: round;stroke-linejoin: round">
<circle cx="146723100.000000" cy="109829600.000000" r="508000.000000"/> 
</g>
<g style="fill-opacity: 1.0;stroke-width: 1.000000;stroke-opacity: 1;stroke-linecap: round;stroke-linejoin: round">
<circle cx="152311100.000000" cy="107543600.000000" r="508000.000000"/> 
</g>
<g style="fill-opacity: 1.0;stroke-width: 1.000000;stroke-opacity: 1;stroke-linecap: round;stroke-linejoin: round">
<circle cx="151422100.000000" cy="109702600.000000" r="508000.000000"/> 
</g>
<g style="fill-opacity: 1.0;stroke-width: 1.000000;stroke-opacity: 1;stroke-linecap: round;stroke-linejoin: round">
<circle cx="151549100.000000" cy="99161600.000000" r="508000.000000"/> 
</g>
<g style="fill-opacity: 1.0;stroke-width: 1.000000;stroke-opacity: 1;stroke-linecap: round;stroke-linejoin: round">
<circle cx="147358100.000000" cy="107162600.000000" r="508000.000000"/> 
</g>
<g style="fill-opacity: 1.0;stroke-width: 1.000000;stroke-opacity: 1;stroke-linecap: round;stroke-linejoin: round">
<circle cx="147866100.000000" cy="105130600.000000" r="508000.000000"/> 
</g>
<g style="fill-opacity: 1.0;stroke-width: 1.000000;stroke-opacity: 1;stroke-linecap: round;stroke-linejoin: round">
<circle cx="145199100.000000" cy="110083600.000000" r="508000.000000"/> 
</g>
<g style="fill-opacity: 1.0;stroke-width: 1.000000;stroke-opacity: 1;stroke-linecap: round;stroke-linejoin: round">
<circle cx="155232100.000000" cy="105003600.000000" r="508000.000000"/> 
</g>
<g style="fill-opacity: 1.0;stroke-width: 1.000000;stroke-opacity: 1;stroke-linecap: round;stroke-linejoin: round">
<circle cx="143929100.000000" cy="110083600.000000" r="508000.000000"/> 
</g>
<g style="fill-opacity: 1.0;stroke-width: 1.000000;stroke-opacity: 1;stroke-linecap: round;stroke-linejoin: round">
<circle cx="143294100.000000" cy="105003600.000000" r="508000.000000"/> 
</g>
<g style="fill-opacity: 1.0;stroke-width: 1.000000;stroke-opacity: 1;stroke-linecap: round;stroke-linejoin: round">
<circle cx="149136100.000000" cy="106273600.000000" r="508000.000000"/> 
</g>
<g style="fill-opacity: 1.0;stroke-width: 1.000000;stroke-opacity: 1;stroke-linecap: round;stroke-linejoin: round">
<circle cx="141516100.000000" cy="99034600.000000" r="508000.000000"/> 
</g>
<g style="fill-opacity: 1.0;stroke-width: 1.000000;stroke-opacity: 1;stroke-linecap: round;stroke-linejoin: round">
<circle cx="151168100.000000" cy="112623600.000000" r="508000.000000"/> 
</g>
<g style="fill-opacity: 1.0;stroke-width: 1.000000;stroke-opacity: 1;stroke-linecap: round;stroke-linejoin: round">
<circle cx="145326100.000000" cy="112877600.000000" r="508000.000000"/> 
</g>
<g style="fill-opacity: 1.0;stroke-width: 1.000000;stroke-opacity: 1;stroke-linecap: round;stroke-linejoin: round">
<circle cx="143421100.000000" cy="99923600.000000" r="508000.000000"/> 
</g>
<g style="fill-opacity: 1.0;stroke-width: 1.000000;stroke-opacity: 1;stroke-linecap: round;stroke-linejoin: round">
<circle cx="143294100.000000" cy="102463600.000000" r="508000.000000"/> 
</g>
<g style="fill-opacity: 1.0;stroke-width: 1.000000;stroke-opacity: 1;stroke-linecap: round;stroke-linejoin: round">
<circle cx="144691100.000000" cy="99415600.000000" r="508000.000000"/> 
</g>
<g style="fill-opacity: 0.0;stroke-width: 254000.000000;stroke-opacity: 1;stroke-linecap: round;stroke-linejoin: round">
<path d="M150152100 107670600 L152438100 105384600 "/>
<path d="M152438100 105384600 L152438100 98780600 "/>
<path d="M149771100 96113600 L143421100 96113600 "/>
<path d="M152438100 98780600 L149771100 96113600 "/>
<path d="M150152100 109702600 L150152100 107670600 "/>
<path d="M145961100 103733600 L145961100 99796600 "/>
<path d="M145072100 104622600 L145961100 103733600 "/>
<path d="M148120100 107162600 L148501100 107543600 "/>
<path d="M148501100 107543600 L149517100 107543600 "/>
<path d="M149517100 107543600 L151549100 105511600 "/>
<path d="M147358100 107162600 L148120100 107162600 "/>
<path d="M151549100 105130600 L151549100 99161600 "/>
<path d="M151549100 105130600 L147866100 105130600 "/>
<path d="M151549100 105511600 L151549100 105130600 "/>
<path d="M145199100 110083600 L146342100 111226600 "/>
<path d="M155232100 108432600 L155232100 105003600 "/>
<path d="M146342100 111226600 L152438100 111226600 "/>
<path d="M152438100 111226600 L155232100 108432600 "/>
<path d="M145580100 111734600 L143929100 110083600 "/>
<path d="M157391100 101701600 L157391100 101193600 "/>
<path d="M156121100 108432600 L156121100 102971600 "/>
<path d="M152819100 111734600 L156121100 108432600 "/>
<path d="M156121100 102971600 L157391100 101701600 "/>
<path d="M145580100 111734600 L152819100 111734600 "/>
<path d="M143294100 105003600 L144564100 106273600 "/>
<path d="M144564100 106273600 L149136100 106273600 "/>
<path d="M140881100 99669600 L141516100 99034600 "/>
<path d="M140881100 107543600 L140881100 99669600 "/>
<path d="M139611100 108813600 L140881100 107543600 "/>
<path d="M142024100 102463600 L143421100 101066600 "/>
<path d="M145326100 112877600 L142024100 109575600 "/>
<path d="M146977100 112877600 L147231100 112623600 "/>
<path d="M145326100 112877600 L146977100 112877600 "/>
<path d="M153581100 112623600 L157391100 108813600 "/>
<path d="M142024100 109575600 L142024100 102463600 "/>
<path d="M143421100 101066600 L143421100 99923600 "/>
<path d="M147231100 112623600 L151168100 112623600 "/>
<path d="M151168100 112623600 L153581100 112623600 "/>
<path d="M144691100 101066600 L144691100 99415600 "/>
<path d="M143294100 102463600 L144691100 101066600 "/>
</g>
</g> 
</g><g id="substrate-silk" style="fill:#f0f0f0; stroke:#f0f0f0;" mask="url(#pads-mask-silkscreen)"><g style="fill-opacity: 0.0;stroke-width: 190500.000000;stroke-opacity: 1;stroke-linecap: round;stroke-linejoin: round">
<text x="155740100.000000" y="101828600.000000" transform="scale(-1 1) translate(-311480200.000000 0)" textLength="3297404.000000" font-size="1439333.000000" lengthAdjust="spacingAndGlyphs" text-anchor="start" opacity="0">INT1</text>
<g class="stroked-text"><desc>INT1</desc>
<path d="M155359251 101777195 L155359251 100697695 "/>
<path d="M154845203 101777195 L154845203 100697695 L154228346 101777195 L154228346 100697695 "/>
<path d="M153868513 100697695 L153251655 100697695 "/>
<path d="M153560084 101777195 L153560084 100697695 "/>
<path d="M152326370 101777195 L152943227 101777195 "/>
<path d="M152634798 101777195 L152634798 100697695 L152737608 100851909 L152840417 100954719 L152943227 101006123 "/>
</g><text x="155740100.000000" y="106908600.000000" transform="scale(-1 1) translate(-311480200.000000 0)" textLength="3042255.000000" font-size="1439333.000000" lengthAdjust="spacingAndGlyphs" text-anchor="start" opacity="0">GND</text>
<g class="stroked-text"><desc>GND</desc>
<path d="M154793798 105829100 L154896608 105777695 L155050822 105777695 L155205036 105829100 L155307846 105931909 L155359251 106034719 L155410655 106240338 L155410655 106394552 L155359251 106600171 L155307846 106702980 L155205036 106805790 L155050822 106857195 L154948013 106857195 L154793798 106805790 L154742394 106754385 L154742394 106394552 L154948013 106394552 "/>
<path d="M154279751 106857195 L154279751 105777695 L153662894 106857195 L153662894 105777695 "/>
<path d="M153148846 106857195 L153148846 105777695 L152891822 105777695 L152737608 105829100 L152634798 105931909 L152583394 106034719 L152531989 106240338 L152531989 106394552 L152583394 106600171 L152634798 106702980 L152737608 106805790 L152891822 106857195 L153148846 106857195 "/>
</g><text x="141135100.000000" y="109258100.000000" transform="scale(-1 1) translate(-282270200.000000 0)" textLength="1705731.000000" font-size="1439333.000000" lengthAdjust="spacingAndGlyphs" text-anchor="end" opacity="0">SA</text>
<g class="stroked-text"><desc>SA</desc>
<path d="M143006686 109155290 L142852472 109206695 L142595448 109206695 L142492639 109155290 L142441234 109103885 L142389829 109001076 L142389829 108898266 L142441234 108795457 L142492639 108744052 L142595448 108692647 L142801067 108641242 L142903877 108589838 L142955282 108538433 L143006686 108435623 L143006686 108332814 L142955282 108230004 L142903877 108178600 L142801067 108127195 L142544044 108127195 L142389829 108178600 "/>
<path d="M141978591 108898266 L141464544 108898266 "/>
<path d="M142081401 109206695 L141721567 108127195 L141361734 109206695 "/>
</g><text x="141135100.000000" y="101638100.000000" transform="scale(-1 1) translate(-282270200.000000 0)" textLength="2733826.000000" font-size="1439333.000000" lengthAdjust="spacingAndGlyphs" text-anchor="end" opacity="0">SCL</text>
<g class="stroked-text"><desc>SCL</desc>
<path d="M144034782 101535290 L143880567 101586695 L143623544 101586695 L143520734 101535290 L143469329 101483885 L143417925 101381076 L143417925 101278266 L143469329 101175457 L143520734 101124052 L143623544 101072647 L143829163 101021242 L143931972 100969838 L143983377 100918433 L144034782 100815623 L144034782 100712814 L143983377 100610004 L143931972 100558600 L143829163 100507195 L143572139 100507195 L143417925 100558600 "/>
<path d="M142338425 101483885 L142389829 101535290 L142544044 101586695 L142646853 101586695 L142801067 101535290 L142903877 101432480 L142955282 101329671 L143006686 101124052 L143006686 100969838 L142955282 100764219 L142903877 100661409 L142801067 100558600 L142646853 100507195 L142544044 100507195 L142389829 100558600 L142338425 100610004 "/>
<path d="M141361734 101586695 L141875782 101586695 L141875782 100507195 "/>
</g><text x="141135100.000000" y="106718100.000000" transform="scale(-1 1) translate(-282270200.000000 0)" textLength="3916136.000000" font-size="1439333.000000" lengthAdjust="spacingAndGlyphs" text-anchor="end" opacity="0">DRDY</text>
<g class="stroked-text"><desc>DRDY</desc>
<path d="M145165686 106666695 L145165686 105587195 L144908663 105587195 L144754448 105638600 L144651639 105741409 L144600234 105844219 L144548829 106049838 L144548829 106204052 L144600234 106409671 L144651639 106512480 L144754448 106615290 L144908663 106666695 L145165686 106666695 "/>
<path d="M143469329 106666695 L143829163 106152647 "/>
<path d="M144086186 106666695 L144086186 105587195 L143674948 105587195 L143572139 105638600 L143520734 105690004 L143469329 105792814 L143469329 105947028 L143520734 106049838 L143572139 106101242 L143674948 106152647 L144086186 106152647 "/>
<path d="M143006686 106666695 L143006686 105587195 L142749663 105587195 L142595448 105638600 L142492639 105741409 L142441234 105844219 L142389829 106049838 L142389829 106204052 L142441234 106409671 L142492639 106512480 L142595448 106615290 L142749663 106666695 L143006686 106666695 "/>
<path d="M141721567 106152647 L141721567 106666695 "/>
<path d="M142081401 105587195 L141721567 106152647 L141361734 105587195 "/>
</g><text x="141135100.000000" y="104178100.000000" transform="scale(-1 1) translate(-282270200.000000 0)" textLength="2785231.000000" font-size="1439333.000000" lengthAdjust="spacingAndGlyphs" text-anchor="end" opacity="0">SDA</text>
<g class="stroked-text"><desc>SDA</desc>
<path d="M144086186 104075290 L143931972 104126695 L143674948 104126695 L143572139 104075290 L143520734 104023885 L143469329 103921076 L143469329 103818266 L143520734 103715457 L143572139 103664052 L143674948 103612647 L143880567 103561242 L143983377 103509838 L144034782 103458433 L144086186 103355623 L144086186 103252814 L144034782 103150004 L143983377 103098600 L143880567 103047195 L143623544 103047195 L143469329 103098600 "/>
<path d="M143006686 104126695 L143006686 103047195 L142749663 103047195 L142595448 103098600 L142492639 103201409 L142441234 103304219 L142389829 103509838 L142389829 103664052 L142441234 103869671 L142492639 103972480 L142595448 104075290 L142749663 104126695 L143006686 104126695 "/>
<path d="M141978591 103818266 L141464544 103818266 "/>
<path d="M142081401 104126695 L141721567 103047195 L141361734 104126695 "/>
</g><text x="155740100.000000" y="109448600.000000" transform="scale(-1 1) translate(-311480200.000000 0)" textLength="2168374.000000" font-size="1439333.000000" lengthAdjust="spacingAndGlyphs" text-anchor="start" opacity="0">Vin</text>
<g class="stroked-text"><desc>Vin</desc>
<path d="M155513465 108317695 L155153632 109397195 L154793798 108317695 "/>
<path d="M154433965 109397195 L154433965 108677528 "/>
<path d="M154433965 108317695 L154485370 108369100 L154433965 108420504 L154382560 108369100 L154433965 108317695 L154433965 108420504 "/>
<path d="M153919917 108677528 L153919917 109397195 "/>
<path d="M153919917 108780338 L153868513 108728933 L153765703 108677528 L153611489 108677528 L153508679 108728933 L153457275 108831742 L153457275 109397195 "/>
</g><text x="153581100.000000" y="111988600.000000" transform="scale(-1 1) translate(-307162200.000000 0)" textLength="9056612.000000" font-size="1439333.000000" lengthAdjust="spacingAndGlyphs" text-anchor="start" opacity="0">LSM303DLH</text>
<g class="stroked-text"><desc>LSM303DLH</desc>
<path d="M152686203 111937195 L153200251 111937195 L153200251 110857695 "/>
<path d="M152377775 111885790 L152223560 111937195 L151966536 111937195 L151863727 111885790 L151812322 111834385 L151760917 111731576 L151760917 111628766 L151812322 111525957 L151863727 111474552 L151966536 111423147 L152172155 111371742 L152274965 111320338 L152326370 111268933 L152377775 111166123 L152377775 111063314 L152326370 110960504 L152274965 110909100 L152172155 110857695 L151915132 110857695 L151760917 110909100 "/>
<path d="M151298275 111937195 L151298275 110857695 L150938441 111628766 L150578608 110857695 L150578608 111937195 "/>
<path d="M150167370 110857695 L149499108 110857695 L149858941 111268933 L149704727 111268933 L149601917 111320338 L149550513 111371742 L149499108 111474552 L149499108 111731576 L149550513 111834385 L149601917 111885790 L149704727 111937195 L150013155 111937195 L150115965 111885790 L150167370 111834385 "/>
<path d="M148830846 110857695 L148728036 110857695 L148625227 110909100 L148573822 110960504 L148522417 111063314 L148471013 111268933 L148471013 111525957 L148522417 111731576 L148573822 111834385 L148625227 111885790 L148728036 111937195 L148830846 111937195 L148933655 111885790 L148985060 111834385 L149036465 111731576 L149087870 111525957 L149087870 111268933 L149036465 111063314 L148985060 110960504 L148933655 110909100 L148830846 110857695 "/>
<path d="M148111179 110857695 L147442917 110857695 L147802751 111268933 L147648536 111268933 L147545727 111320338 L147494322 111371742 L147442917 111474552 L147442917 111731576 L147494322 111834385 L147545727 111885790 L147648536 111937195 L147956965 111937195 L148059775 111885790 L148111179 111834385 "/>
<path d="M146980275 111937195 L146980275 110857695 L146723251 110857695 L146569036 110909100 L146466227 111011909 L146414822 111114719 L146363417 111320338 L146363417 111474552 L146414822 111680171 L146466227 111782980 L146569036 111885790 L146723251 111937195 L146980275 111937195 "/>
<path d="M145386727 111937195 L145900775 111937195 L145900775 110857695 "/>
<path d="M145026894 111937195 L145026894 110857695 "/>
<path d="M145026894 111371742 L144410036 111371742 "/>
<path d="M144410036 111937195 L144410036 110857695 "/>
</g><text x="152692100.000000" y="113512600.000000" transform="scale(-1 1) translate(-305384200.000000 0)" textLength="6846207.000000" font-size="1439333.000000" lengthAdjust="spacingAndGlyphs" text-anchor="start" opacity="0">Breakout</text>
<g class="stroked-text"><desc>Breakout</desc>
<path d="M151951417 112895742 L151797203 112947147 L151745798 112998552 L151694394 113101361 L151694394 113255576 L151745798 113358385 L151797203 113409790 L151900013 113461195 L152311251 113461195 L152311251 112381695 L151951417 112381695 L151848608 112433100 L151797203 112484504 L151745798 112587314 L151745798 112690123 L151797203 112792933 L151848608 112844338 L151951417 112895742 L152311251 112895742 "/>
<path d="M151231751 113461195 L151231751 112741528 "/>
<path d="M151231751 112947147 L151180346 112844338 L151128941 112792933 L151026132 112741528 L150923322 112741528 "/>
<path d="M150152251 113409790 L150255060 113461195 L150460679 113461195 L150563489 113409790 L150614894 113306980 L150614894 112895742 L150563489 112792933 L150460679 112741528 L150255060 112741528 L150152251 112792933 L150100846 112895742 L150100846 112998552 L150614894 113101361 "/>
<path d="M149175560 113461195 L149175560 112895742 L149226965 112792933 L149329775 112741528 L149535394 112741528 L149638203 112792933 "/>
<path d="M149175560 113409790 L149278370 113461195 L149535394 113461195 L149638203 113409790 L149689608 113306980 L149689608 113204171 L149638203 113101361 L149535394 113049957 L149278370 113049957 L149175560 112998552 "/>
<path d="M148661513 113461195 L148661513 112381695 "/>
<path d="M148558703 113049957 L148250275 113461195 "/>
<path d="M148250275 112741528 L148661513 113152766 "/>
<path d="M147633417 113461195 L147736227 113409790 L147787632 113358385 L147839036 113255576 L147839036 112947147 L147787632 112844338 L147736227 112792933 L147633417 112741528 L147479203 112741528 L147376394 112792933 L147324989 112844338 L147273584 112947147 L147273584 113255576 L147324989 113358385 L147376394 113409790 L147479203 113461195 L147633417 113461195 "/>
<path d="M146348298 112741528 L146348298 113461195 "/>
<path d="M146810941 112741528 L146810941 113306980 L146759536 113409790 L146656727 113461195 L146502513 113461195 L146399703 113409790 L146348298 113358385 "/>
<path d="M145988465 112741528 L145577227 112741528 "/>
<path d="M145834251 112381695 L145834251 113306980 L145782846 113409790 L145680036 113461195 L145577227 113461195 "/>
</g><text x="155740100.000000" y="104368600.000000" transform="scale(-1 1) translate(-311480200.000000 0)" textLength="3247874.000000" font-size="1439333.000000" lengthAdjust="spacingAndGlyphs" text-anchor="start" opacity="0">INT2</text>
<g class="stroked-text"><desc>INT2</desc>
<path d="M155359251 104317195 L155359251 103237695 "/>
<path d="M154845203 104317195 L154845203 103237695 L154228346 104317195 L154228346 103237695 "/>
<path d="M153868513 103237695 L153251655 103237695 "/>
<path d="M153560084 104317195 L153560084 103237695 "/>
<path d="M152943227 103340504 L152891822 103289100 L152789013 103237695 L152531989 103237695 L152429179 103289100 L152377775 103340504 L152326370 103443314 L152326370 103546123 L152377775 103700338 L152994632 104317195 L152326370 104317195 "/>
</g></g>
<g style="fill-opacity: 1.0;stroke-width: 1.000000;stroke-opacity: 1;stroke-linecap: round;stroke-linejoin: round">
<path style="fill-opacity: 1.0;stroke-width: 1.000000;stroke-opacity: 1;stroke-linecap: round;stroke-linejoin: round;fill-rule: evenodd" d="M 140548184.000000,112455554.000000 140779923.000000,112551565.000000 141174720.000000,112229654.000000 141529046.000000,112583980.000000 141207135.000000,112978777.000000 141303146.000000,113210516.000000 141809900.000000,113262039.000000 141809900.000000,113763161.000000 141303146.000000,113814684.000000 141207135.000000,114046423.000000 141529046.000000,114441220.000000 141174720.000000,114795546.000000 140785022.000000,114477792.000000 140752697.000000,114496177.000000 140601432.000000,114566332.000000 140375390.000000,114020700.000000 140154423.000000,114020700.000000 140495412.000000,113816373.000000 140569023.000000,113735165.000000 140638276.000000,113506833.000000 140622913.000000,113401031.000000 140575689.000000,113298638.000000 140501334.000000,113213876.000000 140405968.000000,113153719.000000 140297442.000000,113123120.000000 140184694.000000,113124601.000000 140077013.000000,113158039.000000 139983258.000000,113220682.000000 139911153.000000,113307371.000000 139866636.000000,113410966.000000 139853371.000000,113522939.000000 139872451.000000,113634068.000000 139919838.000000,113730200.000000 140157421.000000,113922673.000000 139889499.000000,114569394.000000 139708923.000000,114476370.000000 139317480.000000,114795546.000000 138963154.000000,114441220.000000 139285065.000000,114046423.000000 139189054.000000,113814684.000000 138682300.000000,113763161.000000 138682300.000000,113262039.000000 139189054.000000,113210516.000000 139285065.000000,112978777.000000 138963154.000000,112583980.000000 139317480.000000,112229654.000000 139708923.000000,112548831.000000 139822630.000000,112490256.000000 139944453.000000,112451249.000000 139995539.000000,111948800.000000 140496661.000000,111948800.000000 Z"/> 
</g>
<g style="fill-opacity: 0.0;stroke-width: 25400.000000;stroke-opacity: 1;stroke-linecap: round;stroke-linejoin: round">
<path d="M142415300 97533500 L142415300 98587600 "/>
<path d="M143477000 97246400 L143469400 97246400 "/>
<path d="M143477000 97025500 L143477000 97246400 "/>
<path d="M142824200 98587600 L142824200 97622400 "/>
<path d="M143459200 98597700 L143880800 98597700 "/>
<path d="M143459200 97729000 L143459200 98597700 "/>
<path d="M143880800 97025500 L143477000 97025500 "/>
<path d="M142415300 98587600 L142824200 98587600 "/>
<path d="M143880800 98597700 L143880800 97025500 "/>
<path d="M142562603.087975 97116903.113601 A444911.000000 444911.000000 0.0 0 0 142448300.136394 97309901.039202"/>
<path d="M143459198.359016 97728999.978983 A2678318.000000 2678318.000000 0.0 0 0 143459199.637698 97660500.004627"/>
<path d="M142448296.740760 97309899.063318 A850074.000000 850074.000000 0.0 0 0 142415299.785051 97533499.997168"/>
<path d="M143410892.510144 97185505.552241 A468658.000000 468658.000000 0.0 0 0 143324600.185612 97096599.764627"/>
<path d="M143029900.018347 96987399.563534 A1500024.000000 1500024.000000 0.0 0 0 142829300.044319 96992400.481097"/>
<path d="M143324612.286111 97096584.417900 A510549.000000 510549.000000 0.0 0 0 143029900.012783 96987399.695301"/>
<path d="M143451609.992241 97238790.456849 A24600.000000 24600.000000 0.0 0 0 143469400.000000 97246400.000000"/>
<path d="M142999502.551662 97315007.001471 A226910.000000 226910.000000 0.0 0 0 142882599.814615 97411499.888826"/>
<path d="M143459197.781091 97660500.028479 A451935.000000 451935.000000 0.0 0 0 143428700.406684 97502999.842403"/>
<path d="M142882581.752299 97411489.053456 A409800.000000 409800.000000 0.0 0 0 142824200.012201 97622399.999997"/>
<path d="M142829297.227141 96992370.010249 A435580.000000 435580.000000 0.0 0 0 142562600.262930 97116901.264986"/>
<path d="M143438900.148196 97223599.892095 A5353356.000000 5353356.000000 0.0 0 0 143410900.280016 97185499.792305"/>
<path d="M143428680.503432 97503007.552207 A327491.000000 327491.000000 0.0 0 0 143337299.945209 97373400.063470"/>
<path d="M143065499.993958 97304900.131421 A44660030.000000 44660030.000000 0.0 0 0 143177299.996679 97309900.076405"/>
<path d="M143337292.851849 97373409.436398 A262248.000000 262248.000000 0.0 0 0 143177300.004434 97309899.898086"/>
<path d="M143438893.527279 97223604.717224 A148742.000000 148742.000000 0.0 0 0 143451599.775118 97238800.215050"/>
<path d="M143065500.084349 97304898.164874 A169881.000000 169881.000000 0.0 0 0 142999499.844554 97314999.573725"/>
</g>
<g style="fill-opacity: 1.0;stroke-width: 1.000000;stroke-opacity: 1;stroke-linecap: round;stroke-linejoin: round">
<path style="fill-opacity: 1.0;stroke-width: 1.000000;stroke-opacity: 1;stroke-linecap: round;stroke-linejoin: round;fill-rule: evenodd" d="M 150680156.000000,96995152.000000 150805102.000000,97029131.000000 150923092.000000,97083003.000000 151025722.000000,97159138.000000 151105808.000000,97259106.000000 151157841.000000,97376152.000000 151178135.000000,97500962.000000 151168100.000000,97502594.000000 151168100.000000,97513100.000000 150731200.000000,97513100.000000 150731200.000000,97496659.000000 150714051.000000,97410884.000000 150590421.000000,97288650.000000 150476132.000000,97266826.000000 150409067.000000,97268274.000000 150342704.000000,97271683.000000 150238874.000000,97310346.000000 150180000.000000,97392770.000000 150180000.000000,97551145.000000 150183698.000000,97559603.000000 150189639.000000,97568209.000000 150218057.000000,97594297.000000 150260829.000000,97618963.000000 150307933.000000,97635545.000000 150372292.000000,97649166.000000 150438068.000000,97657984.000000 150548452.000000,97668999.000000 150659842.000000,97680968.000000 150964684.000000,97757834.000000 151069312.000000,97819698.000000 151150792.000000,97909778.000000 151195159.000000,97998976.000000 151216400.000000,98095925.000000 151216400.000000,98098437.000000 151159827.000000,98412068.000000 151110274.000000,98485950.000000 151042927.000000,98542466.000000 150913275.000000,98604344.000000 150772917.000000,98635888.000000 150443912.000000,98615351.000000 150288036.000000,98554010.000000 150158154.000000,98453714.000000 150156779.000000,98453072.000000 150150808.000000,98457654.000000 150128851.000000,98557467.000000 150125098.000000,98571865.000000 150119606.000000,98591321.000000 150101825.000000,98600300.000000 149676616.000000,98600300.000000 149690391.000000,98563324.000000 149725281.000000,98433835.000000 149735497.000000,98300056.000000 149732927.000000,97853500.000000 149735500.000000,97853500.000000 149735500.000000,97360700.000000 149737429.000000,97360700.000000 149752286.000000,97270934.000000 149874510.000000,97112077.000000 150008376.000000,97040888.000000 150152117.000000,96997685.000000 150416070.000000,96971262.000000 Z"/> 
<path style="fill-opacity: 1.0;stroke-width: 1.000000;stroke-opacity: 1;stroke-linecap: round;stroke-linejoin: round;fill-rule: evenodd" d="M 145613100.000000,98103177.000000 145594900.000000,98251501.000000 145541109.000000,98391758.000000 145455267.000000,98514494.000000 145441906.000000,98527844.000000 145424578.000000,98541800.000000 145423205.000000,98541800.000000 145285681.000000,98613342.000000 145128670.000000,98643504.000000 144828370.000000,98617839.000000 144799831.000000,98609087.000000 144773252.000000,98595826.000000 144635474.000000,98490635.000000 144543800.000000,98382887.000000 144543800.000000,98602800.000000 144117100.000000,98602800.000000 144117100.000000,97015300.000000 144564100.000000,97015300.000000 144564100.000000,97857816.000000 144594033.000000,98099634.000000 144743571.000000,98273692.000000 144882997.000000,98301226.000000 145023992.000000,98270866.000000 145081031.000000,98234415.000000 145124212.000000,98182626.000000 145173700.000000,98021791.000000 145173700.000000,97010200.000000 145613100.000000,97010200.000000 Z"/> 
<path style="fill-opacity: 1.0;stroke-width: 1.000000;stroke-opacity: 1;stroke-linecap: round;stroke-linejoin: round;fill-rule: evenodd" d="M 148303000.000000,96654824.000000 148303000.000000,98600461.000000 148290461.000000,98613000.000000 147858500.000000,98613000.000000 147858500.000000,98059568.000000 147693142.000000,97898884.000000 147266171.000000,98602765.000000 146727191.000000,98605417.000000 147400091.000000,97596117.000000 146808750.000000,97017800.000000 147312561.000000,97017800.000000 147863600.000000,97568840.000000 147863600.000000,96404133.000000 Z"/> 
<path style="fill-opacity: 1.0;stroke-width: 1.000000;stroke-opacity: 1;stroke-linecap: round;stroke-linejoin: round;fill-rule: evenodd" d="M 146147566.000000,96446641.000000 146272733.000000,96509661.000000 146377901.000000,96603663.000000 146453668.000000,96765580.000000 146471600.000000,96981774.000000 146471600.000000,97015300.000000 146601361.000000,97015300.000000 146893270.000000,97307209.000000 146476700.000000,97309821.000000 146476700.000000,98610400.000000 146034800.000000,98610400.000000 146034800.000000,97307400.000000 145735000.000000,97307400.000000 145735000.000000,97015300.000000 146032200.000000,97015300.000000 146032200.000000,96889164.000000 146025908.000000,96842998.000000 146009164.000000,96802536.000000 145936749.000000,96751100.000000 145755992.000000,96751100.000000 145727988.000000,96753700.000000 145707100.000000,96753700.000000 145707100.000000,96426000.000000 145721983.000000,96426000.000000 145787665.000000,96422705.000000 145853988.000000,96418400.000000 146010697.000000,96418400.000000 Z"/> 
<path style="fill-opacity: 1.0;stroke-width: 1.000000;stroke-opacity: 1;stroke-linecap: round;stroke-linejoin: round;fill-rule: evenodd" d="M 152177908.000000,96979717.000000 152228419.000000,96990406.000000 152362993.000000,97044704.000000 152438980.000000,97099761.000000 152528796.000000,97197255.000000 152542088.000000,97212062.000000 152539507.000000,97005032.000000 152953700.000000,97083480.000000 152953700.000000,99157048.000000 152514300.000000,99553357.000000 152514300.000000,98415013.000000 152342629.000000,98579794.000000 152226874.000000,98620600.000000 152224611.000000,98620600.000000 151856744.000000,98615470.000000 151732127.000000,98571604.000000 151621122.000000,98501138.000000 151528167.000000,98406802.000000 151361002.000000,98015873.000000 151377666.000000,97569806.000000 151470400.000000,97279097.000000 151470400.000000,97320891.000000 151585495.000000,97158869.000000 151670030.000000,97091917.000000 151762449.000000,97036521.000000 151976753.000000,96977178.000000 Z"/> 
<path style="fill-opacity: 1.0;stroke-width: 1.000000;stroke-opacity: 1;stroke-linecap: round;stroke-linejoin: round;fill-rule: evenodd" d="M 154289025.000000,97232063.000000 154232706.000000,97554130.000000 153788089.000000,97818836.000000 153373031.000000,98044955.000000 153476565.000000,98353185.000000 153858905.000000,98439520.000000 154598620.000000,98073597.000000 154594523.000000,98131941.000000 154584041.000000,98191956.000000 154540112.000000,98321100.000000 154487875.000000,98410577.000000 154411887.000000,98480796.000000 154290255.000000,98558421.000000 154109607.000000,98620398.000000 153979717.000000,98632909.000000 153850020.000000,98638423.000000 153583719.000000,98615333.000000 153448250.000000,98572778.000000 153225325.000000,98402557.000000 153144443.000000,98212260.000000 153139283.000000,98158059.000000 153136616.000000,98105645.000000 153149296.000000,98105000.000000 153136871.000000,98102392.000000 153180521.000000,97894449.000000 153207522.000000,97850234.000000 153242782.000000,97813106.000000 153390422.000000,97719913.000000 153730462.000000,97620156.000000 153932632.000000,97579762.000000 154075551.000000,97510776.000000 154122495.000000,97444981.000000 154127947.000000,97389855.000000 154108485.000000,97336874.000000 154085530.000000,97310502.000000 154055459.000000,97290917.000000 154013109.000000,97275234.000000 153968509.000000,97266800.000000 153798555.000000,97266800.000000 153725282.000000,97284997.000000 153661016.000000,97322076.000000 153595750.000000,97416264.000000 153587020.000000,97477600.000000 153173270.000000,97477600.000000 153183026.000000,97386332.000000 153395543.000000,97252502.000000 153855218.000000,97118928.000000 Z"/> 
<path style="fill-opacity: 1.0;stroke-width: 1.000000;stroke-opacity: 1;stroke-linecap: round;stroke-linejoin: round;fill-rule: evenodd" d="M 153976703.000000,96974715.000000 154390867.000000,97098184.000000 154513300.000000,97239155.000000 154513300.000000,97242191.000000 154558528.000000,97407133.000000 154551400.000000,97579459.000000 154551400.000000,97582504.000000 154474743.000000,97719903.000000 154366983.000000,97798968.000000 154245621.000000,97850346.000000 154063939.000000,97898446.000000 153881669.000000,97936869.000000 153653366.000000,98014682.000000 153601236.000000,98057312.000000 153571311.000000,98117161.000000 153568497.000000,98184172.000000 153589434.000000,98240407.000000 153628971.000000,98284581.000000 153799190.000000,98343716.000000 153864300.000000,98344211.000000 153931104.000000,98343703.000000 153959374.000000,98341667.000000 153986262.000000,98336582.000000 154072896.000000,98299241.000000 154142453.000000,98236744.000000 154176698.000000,98172693.000000 154185600.000000,98099134.000000 154185600.000000,98082100.000000 154635766.000000,98082100.000000 153872495.000000,98484108.000000 153449445.000000,98390143.000000 153333678.000000,98045533.000000 153355544.000000,98001924.000000 154179215.000000,97522888.000000 154224537.000000,97265499.000000 153860604.000000,97155598.000000 153444765.000000,97288359.000000 153243316.000000,97437489.000000 153179817.000000,97390686.000000 153203447.000000,97325733.000000 153220032.000000,97284997.000000 153240061.000000,97244776.000000 153305259.000000,97158735.000000 153403558.000000,97081201.000000 153515592.000000,97026266.000000 153652857.000000,96988801.000000 153793815.000000,96974705.000000 153884650.000000,96973966.000000 Z"/> 
<path style="fill-opacity: 1.0;stroke-width: 1.000000;stroke-opacity: 1;stroke-linecap: round;stroke-linejoin: round;fill-rule: evenodd" d="M 148819092.000000,97044377.000000 148910364.000000,97104438.000000 148983342.000000,97174746.000000 149018259.000000,97228076.000000 149052672.000000,97280063.000000 149070531.000000,97306896.000000 149075100.000000,97308389.000000 149075100.000000,97015345.000000 149486581.000000,97088454.000000 149489222.000000,98600300.000000 149047200.000000,98600300.000000 149047200.000000,97806238.000000 149019798.000000,97639177.000000 148959458.000000,97523949.000000 148865169.000000,97435303.000000 148709491.000000,97381010.000000 148634450.000000,97377860.000000 148558178.000000,97381062.000000 148528713.000000,97385353.000000 148499207.000000,97393389.000000 148490570.000000,97395546.000000 148481317.000000,97396300.000000 148465500.000000,97396300.000000 148465500.000000,96985484.000000 148617116.000000,96977085.000000 Z"/> 
<path style="fill-opacity: 1.0;stroke-width: 1.000000;stroke-opacity: 1;stroke-linecap: round;stroke-linejoin: round;fill-rule: evenodd" d="M 143190328.000000,97006704.000000 143332052.000000,97086219.000000 143379833.000000,97129321.000000 143420859.000000,97177608.000000 143435176.000000,97196998.000000 143448905.000000,97215766.000000 143460243.000000,97229337.000000 143464300.000000,97232146.000000 143464300.000000,97012800.000000 143893500.000000,97012800.000000 143893500.000000,98610400.000000 143446500.000000,98610400.000000 143446500.000000,97661717.000000 143416750.000000,97508092.000000 143329100.000000,97383809.000000 143174605.000000,97322494.000000 143120831.000000,97320122.000000 143066180.000000,97317644.000000 143003755.000000,97327197.000000 142940959.000000,97363136.000000 142894080.000000,97417629.000000 142836900.000000,97624126.000000 142836900.000000,98600300.000000 142402600.000000,98600300.000000 142402600.000000,97532568.000000 142436101.000000,97305576.000000 142553672.000000,97107052.000000 142826332.000000,96979770.000000 143031007.000000,96974668.000000 Z"/> 
</g> 
</g><g id="substrate-outline" style="fill:#000000; stroke:#000000; stroke-width: 150000"><g style="fill-opacity: 0.0;stroke-opacity: 1;stroke-linecap: round;stroke-linejoin: round">
<path d="M138341100 115163600 L138341100 94843600 "/>
<path d="M158661100 94843600 L158661100 115163600 "/>
<path d="M138341100 94843600 L158661100 94843600 "/>
<path d="M158661100 115163600 L138341100 115163600 "/>
</g> 
<path d="M -508000.0 0.0 A 508000.0 508000.0 0 1 1 508000.0 0.0 L 508000.0 0.0 A 508000.0 508000.0 0 1 1 -508000.0 0.0 Z" transform="translate(157391100 108813600) rotate(-180.0)"/><path d="M -508000.0 0.0 A 508000.0 508000.0 0 1 1 508000.0 0.0 L 508000.0 0.0 A 508000.0 508000.0 0 1 1 -508000.0 0.0 Z" transform="translate(157391100 106273600) rotate(-180.0)"/><path d="M -508000.0 0.0 A 508000.0 508000.0 0 1 1 508000.0 0.0 L 508000.0 0.0 A 508000.0 508000.0 0 1 1 -508000.0 0.0 Z" transform="translate(157391100 103733600) rotate(-180.0)"/><path d="M -508000.0 0.0 A 508000.0 508000.0 0 1 1 508000.0 0.0 L 508000.0 0.0 A 508000.0 508000.0 0 1 1 -508000.0 0.0 Z" transform="translate(157391100 101193600) rotate(-180.0)"/><path d="M -508000.0 0.0 A 508000.0 508000.0 0 1 1 508000.0 0.0 L 508000.0 0.0 A 508000.0 508000.0 0 1 1 -508000.0 0.0 Z" transform="translate(139611100 101193600) rotate(-0.0)"/><path d="M -508000.0 0.0 A 508000.0 508000.0 0 1 1 508000.0 0.0 L 508000.0 0.0 A 508000.0 508000.0 0 1 1 -508000.0 0.0 Z" transform="translate(139611100 103733600) rotate(-0.0)"/><path d="M -508000.0 0.0 A 508000.0 508000.0 0 1 1 508000.0 0.0 L 508000.0 0.0 A 508000.0 508000.0 0 1 1 -508000.0 0.0 Z" transform="translate(139611100 106273600) rotate(-0.0)"/><path d="M -508000.0 0.0 A 508000.0 508000.0 0 1 1 508000.0 0.0 L 508000.0 0.0 A 508000.0 508000.0 0 1 1 -508000.0 0.0 Z" transform="translate(139611100 108813600) rotate(-0.0)"/><path d="M -254000.0 0.0 A 254000.0 254000.0 0 1 1 254000.0 0.0 L 254000.0 0.0 A 254000.0 254000.0 0 1 1 -254000.0 0.0 Z" transform="translate(143421100 96113600) rotate(0.0)"/><path d="M -254000.0 0.0 A 254000.0 254000.0 0 1 1 254000.0 0.0 L 254000.0 0.0 A 254000.0 254000.0 0 1 1 -254000.0 0.0 Z" transform="translate(150152100 109702600) rotate(0.0)"/><path d="M -254000.0 0.0 A 254000.0 254000.0 0 1 1 254000.0 0.0 L 254000.0 0.0 A 254000.0 254000.0 0 1 1 -254000.0 0.0 Z" transform="translate(145961100 99796600) rotate(0.0)"/><path d="M -254000.0 0.0 A 254000.0 254000.0 0 1 1 254000.0 0.0 L 254000.0 0.0 A 254000.0 254000.0 0 1 1 -254000.0 0.0 Z" transform="translate(145072100 104622600) rotate(0.0)"/><path d="M -254000.0 0.0 A 254000.0 254000.0 0 1 1 254000.0 0.0 L 254000.0 0.0 A 254000.0 254000.0 0 1 1 -254000.0 0.0 Z" transform="translate(157391100 111353600) rotate(0.0)"/><path d="M -254000.0 0.0 A 254000.0 254000.0 0 1 1 254000.0 0.0 L 254000.0 0.0 A 254000.0 254000.0 0 1 1 -254000.0 0.0 Z" transform="translate(140881100 111353600) rotate(0.0)"/><path d="M -254000.0 0.0 A 254000.0 254000.0 0 1 1 254000.0 0.0 L 254000.0 0.0 A 254000.0 254000.0 0 1 1 -254000.0 0.0 Z" transform="translate(155359100 102336600) rotate(0.0)"/><path d="M -254000.0 0.0 A 254000.0 254000.0 0 1 1 254000.0 0.0 L 254000.0 0.0 A 254000.0 254000.0 0 1 1 -254000.0 0.0 Z" transform="translate(153581100 99923600) rotate(0.0)"/><path d="M -254000.0 0.0 A 254000.0 254000.0 0 1 1 254000.0 0.0 L 254000.0 0.0 A 254000.0 254000.0 0 1 1 -254000.0 0.0 Z" transform="translate(139738100 99034600) rotate(0.0)"/><path d="M -254000.0 0.0 A 254000.0 254000.0 0 1 1 254000.0 0.0 L 254000.0 0.0 A 254000.0 254000.0 0 1 1 -254000.0 0.0 Z" transform="translate(146723100 109829600) rotate(0.0)"/><path d="M -254000.0 0.0 A 254000.0 254000.0 0 1 1 254000.0 0.0 L 254000.0 0.0 A 254000.0 254000.0 0 1 1 -254000.0 0.0 Z" transform="translate(152311100 107543600) rotate(0.0)"/><path d="M -254000.0 0.0 A 254000.0 254000.0 0 1 1 254000.0 0.0 L 254000.0 0.0 A 254000.0 254000.0 0 1 1 -254000.0 0.0 Z" transform="translate(151422100 109702600) rotate(0.0)"/><path d="M -254000.0 0.0 A 254000.0 254000.0 0 1 1 254000.0 0.0 L 254000.0 0.0 A 254000.0 254000.0 0 1 1 -254000.0 0.0 Z" transform="translate(151549100 99161600) rotate(0.0)"/><path d="M -254000.0 0.0 A 254000.0 254000.0 0 1 1 254000.0 0.0 L 254000.0 0.0 A 254000.0 254000.0 0 1 1 -254000.0 0.0 Z" transform="translate(147358100 107162600) rotate(0.0)"/><path d="M -254000.0 0.0 A 254000.0 254000.0 0 1 1 254000.0 0.0 L 254000.0 0.0 A 254000.0 254000.0 0 1 1 -254000.0 0.0 Z" transform="translate(147866100 105130600) rotate(0.0)"/><path d="M -254000.0 0.0 A 254000.0 254000.0 0 1 1 254000.0 0.0 L 254000.0 0.0 A 254000.0 254000.0 0 1 1 -254000.0 0.0 Z" transform="translate(145199100 110083600) rotate(0.0)"/><path d="M -254000.0 0.0 A 254000.0 254000.0 0 1 1 254000.0 0.0 L 254000.0 0.0 A 254000.0 254000.0 0 1 1 -254000.0 0.0 Z" transform="translate(155232100 105003600) rotate(0.0)"/><path d="M -254000.0 0.0 A 254000.0 254000.0 0 1 1 254000.0 0.0 L 254000.0 0.0 A 254000.0 254000.0 0 1 1 -254000.0 0.0 Z" transform="translate(143929100 110083600) rotate(0.0)"/><path d="M -254000.0 0.0 A 254000.0 254000.0 0 1 1 254000.0 0.0 L 254000.0 0.0 A 254000.0 254000.0 0 1 1 -254000.0 0.0 Z" transform="translate(143294100 105003600) rotate(0.0)"/><path d="M -254000.0 0.0 A 254000.0 254000.0 0 1 1 254000.0 0.0 L 254000.0 0.0 A 254000.0 254000.0 0 1 1 -254000.0 0.0 Z" transform="translate(149136100 106273600) rotate(0.0)"/><path d="M -254000.0 0.0 A 254000.0 254000.0 0 1 1 254000.0 0.0 L 254000.0 0.0 A 254000.0 254000.0 0 1 1 -254000.0 0.0 Z" transform="translate(141516100 99034600) rotate(0.0)"/><path d="M -254000.0 0.0 A 254000.0 254000.0 0 1 1 254000.0 0.0 L 254000.0 0.0 A 254000.0 254000.0 0 1 1 -254000.0 0.0 Z" transform="translate(151168100 112623600) rotate(0.0)"/><path d="M -254000.0 0.0 A 254000.0 254000.0 0 1 1 254000.0 0.0 L 254000.0 0.0 A 254000.0 254000.0 0 1 1 -254000.0 0.0 Z" transform="translate(145326100 112877600) rotate(0.0)"/><path d="M -254000.0 0.0 A 254000.0 254000.0 0 1 1 254000.0 0.0 L 254000.0 0.0 A 254000.0 254000.0 0 1 1 -254000.0 0.0 Z" transform="translate(143421100 99923600) rotate(0.0)"/><path d="M -254000.0 0.0 A 254000.0 254000.0 0 1 1 254000.0 0.0 L 254000.0 0.0 A 254000.0 254000.0 0 1 1 -254000.0 0.0 Z" transform="translate(143294100 102463600) rotate(0.0)"/><path d="M -254000.0 0.0 A 254000.0 254000.0 0 1 1 254000.0 0.0 L 254000.0 0.0 A 254000.0 254000.0 0 1 1 -254000.0 0.0 Z" transform="translate(144691100 99415600) rotate(0.0)"/></g></g></g></svg>