<!DOCTYPE svg PUBLIC "-//W3C//DTD SVG 1.1//EN" "http://www.w3.org/Graphics/SVG/1.1/DTD/svg11.dtd">
<svg xmlns="http://www.w3.org/2000/svg" version="1.1" width="30.44437mm" height="34.58737mm" viewBox="13353110.0 8830360.0 3044437.0 3458737.0">
            <title>Picture generated by PcbDraw </title>
            <desc>Picture generated by PcbDraw</desc>
        <defs><clipPath id="cut-off"><path d=" M 13453110.0 8976360.0 L 16247110.0 8976360.0 L 16247110.0 12024360.0 L 13453110.0 12024360.0 L 13453110.0 8976360.0 " style="fill-rule: evenodd;"/></clipPath><mask id="pads-mask"><g style="fill:#ffffff; fill-opacity:0.0;  stroke:#ffffff; stroke-width:0.000000; stroke-opacity:1;  stroke-linecap:round; stroke-linejoin:round;">
<g style="fill:#ffffff; fill-opacity:1.0;  stroke:#ffffff; stroke-width:0.100000; stroke-opacity:1;  stroke-linecap:round; stroke-linejoin:round;">
<circle cx="15993110.000000" cy="9230360.000000" r="165100.000000"/> 
</g>
<g style="fill:#ffffff; fill-opacity:1.0;  stroke:#ffffff; stroke-width:0.100000; stroke-opacity:1;  stroke-linecap:round; stroke-linejoin:round;">
<circle cx="16120110.000000" cy="9738360.000000" r="104140.000000"/> 
</g>
<g style="fill:#ffffff; fill-opacity:1.0;  stroke:#ffffff; stroke-width:0.100000; stroke-opacity:1;  stroke-linecap:round; stroke-linejoin:round;">
<circle cx="16120110.000000" cy="9992360.000000" r="104140.000000"/> 
</g>
<g style="fill:#ffffff; fill-opacity:1.0;  stroke:#ffffff; stroke-width:0.100000; stroke-opacity:1;  stroke-linecap:round; stroke-linejoin:round;">
<circle cx="16120110.000000" cy="10246360.000000" r="104140.000000"/> 
</g>
<g style="fill:#ffffff; fill-opacity:1.0;  stroke:#ffffff; stroke-width:0.100000; stroke-opacity:1;  stroke-linecap:round; stroke-linejoin:round;">
<circle cx="14088110.000000" cy="10627360.000000" r="104140.000000"/> 
</g>
<g style="fill:#ffffff; fill-opacity:1.0;  stroke:#ffffff; stroke-width:0.100000; stroke-opacity:1;  stroke-linecap:round; stroke-linejoin:round;">
<circle cx="14088110.000000" cy="10881360.000000" r="104140.000000"/> 
</g>
<g style="fill:#ffffff; fill-opacity:1.0;  stroke:#ffffff; stroke-width:0.100000; stroke-opacity:1;  stroke-linecap:round; stroke-linejoin:round;">
<circle cx="14088110.000000" cy="11135360.000000" r="104140.000000"/> 
</g>
<g style="fill:#ffffff; fill-opacity:1.0;  stroke:#ffffff; stroke-width:0.100000; stroke-opacity:1;  stroke-linecap:round; stroke-linejoin:round;">
<circle cx="13707110.000000" cy="11770360.000000" r="165100.000000"/> 
</g>
<g style="fill:#ffffff; fill-opacity:1.0;  stroke:#ffffff; stroke-width:0.100000; stroke-opacity:1;  stroke-linecap:round; stroke-linejoin:round;">
<circle cx="13707110.000000" cy="9230360.000000" r="165100.000000"/> 
</g>
<g style="fill:#ffffff; fill-opacity:1.0;  stroke:#ffffff; stroke-width:0.100000; stroke-opacity:1;  stroke-linecap:round; stroke-linejoin:round;">
<circle cx="15612110.000000" cy="10627360.000000" r="104140.000000"/> 
</g>
<g style="fill:#ffffff; fill-opacity:1.0;  stroke:#ffffff; stroke-width:0.100000; stroke-opacity:1;  stroke-linecap:round; stroke-linejoin:round;">
<circle cx="15612110.000000" cy="10881360.000000" r="104140.000000"/> 
</g>
<g style="fill:#ffffff; fill-opacity:1.0;  stroke:#ffffff; stroke-width:0.100000; stroke-opacity:1;  stroke-linecap:round; stroke-linejoin:round;">
<circle cx="15612110.000000" cy="11135360.000000" r="104140.000000"/> 
</g>
<g style="fill:#ffffff; fill-opacity:1.0;  stroke:#ffffff; stroke-width:0.100000; stroke-opacity:1;  stroke-linecap:round; stroke-linejoin:round;">
<circle cx="15993110.000000" cy="11770360.000000" r="165100.000000"/> 
</g>
<g style="fill:#ffffff; fill-opacity:1.0;  stroke:#ffffff; stroke-width:0.100000; stroke-opacity:1;  stroke-linecap:round; stroke-linejoin:round;">
<circle cx="15104110.000000" cy="10627360.000000" r="104140.000000"/> 
</g>
<g style="fill:#ffffff; fill-opacity:1.0;  stroke:#ffffff; stroke-width:0.100000; stroke-opacity:1;  stroke-linecap:round; stroke-linejoin:round;">
<circle cx="15104110.000000" cy="10881360.000000" r="104140.000000"/> 
</g>
<g style="fill:#ffffff; fill-opacity:1.0;  stroke:#ffffff; stroke-width:0.100000; stroke-opacity:1;  stroke-linecap:round; stroke-linejoin:round;">
<circle cx="15104110.000000" cy="11135360.000000" r="104140.000000"/> 
</g>
<g style="fill:#ffffff; fill-opacity:1.0;  stroke:#ffffff; stroke-width:0.100000; stroke-opacity:1;  stroke-linecap:round; stroke-linejoin:round;">
<circle cx="15421610.000000" cy="9230360.000000" r="160000.000000"/> 
</g>
<g style="fill:#ffffff; fill-opacity:1.0;  stroke:#ffffff; stroke-width:0.100000; stroke-opacity:1;  stroke-linecap:round; stroke-linejoin:round;">
<circle cx="14278610.000000" cy="9230360.000000" r="160000.000000"/> 
</g>
<g style="fill:#ffffff; fill-opacity:1.0;  stroke:#ffffff; stroke-width:0.100000; stroke-opacity:1;  stroke-linecap:round; stroke-linejoin:round;">
<path style="fill:#ffffff; fill-opacity:1.0;  stroke:#ffffff; stroke-width:0.100000; stroke-opacity:1;  stroke-linecap:round; stroke-linejoin:round;fill-rule:evenodd;" d="M 15398750.000000,9959340.000000 15397976.600000,9963228.100000 15395774.200000,9966524.200000 15392478.100000,9968726.600000 15388590.000000,9969500.000000 15200630.000000,9969500.000000 15196741.900000,9968726.600000 15193445.800000,9966524.200000 15191243.400000,9963228.100000 15190470.000000,9959340.000000 15190470.000000,9771380.000000 15191243.400000,9767491.900000 15193445.800000,9764195.800000 15196741.900000,9761993.400000 15200630.000000,9761220.000000 15388590.000000,9761220.000000 15392478.100000,9761993.400000 15395774.200000,9764195.800000 15397976.600000,9767491.900000 15398750.000000,9771380.000000 Z"/> 
<circle cx="15167610.000000" cy="10119360.000000" r="104140.000000"/> 
</g>
<g style="fill:#ffffff; fill-opacity:1.0;  stroke:#ffffff; stroke-width:0.100000; stroke-opacity:1;  stroke-linecap:round; stroke-linejoin:round;">
<circle cx="15040610.000000" cy="9865360.000000" r="104140.000000"/> 
</g>
<g style="fill:#ffffff; fill-opacity:1.0;  stroke:#ffffff; stroke-width:0.100000; stroke-opacity:1;  stroke-linecap:round; stroke-linejoin:round;">
<circle cx="14913610.000000" cy="10119360.000000" r="104140.000000"/> 
</g>
<g style="fill:#ffffff; fill-opacity:1.0;  stroke:#ffffff; stroke-width:0.100000; stroke-opacity:1;  stroke-linecap:round; stroke-linejoin:round;">
<circle cx="14786610.000000" cy="9865360.000000" r="104140.000000"/> 
</g>
<g style="fill:#ffffff; fill-opacity:1.0;  stroke:#ffffff; stroke-width:0.100000; stroke-opacity:1;  stroke-linecap:round; stroke-linejoin:round;">
<circle cx="14659610.000000" cy="10119360.000000" r="104140.000000"/> 
</g>
<g style="fill:#ffffff; fill-opacity:1.0;  stroke:#ffffff; stroke-width:0.100000; stroke-opacity:1;  stroke-linecap:round; stroke-linejoin:round;">
<circle cx="14532610.000000" cy="9865360.000000" r="104140.000000"/> 
</g>
<g style="fill:#ffffff; fill-opacity:1.0;  stroke:#ffffff; stroke-width:0.100000; stroke-opacity:1;  stroke-linecap:round; stroke-linejoin:round;">
<circle cx="14405610.000000" cy="10119360.000000" r="104140.000000"/> 
</g>
<g style="fill:#ffffff; fill-opacity:1.0;  stroke:#ffffff; stroke-width:0.100000; stroke-opacity:1;  stroke-linecap:round; stroke-linejoin:round;">
<circle cx="15358110.000000" cy="11897360.000000" r="104140.000000"/> 
</g>
<g style="fill:#ffffff; fill-opacity:1.0;  stroke:#ffffff; stroke-width:0.100000; stroke-opacity:1;  stroke-linecap:round; stroke-linejoin:round;">
<circle cx="15104110.000000" cy="11897360.000000" r="104140.000000"/> 
</g>
<g style="fill:#ffffff; fill-opacity:1.0;  stroke:#ffffff; stroke-width:0.100000; stroke-opacity:1;  stroke-linecap:round; stroke-linejoin:round;">
<circle cx="14850110.000000" cy="11897360.000000" r="104140.000000"/> 
</g>
<g style="fill:#ffffff; fill-opacity:1.0;  stroke:#ffffff; stroke-width:0.100000; stroke-opacity:1;  stroke-linecap:round; stroke-linejoin:round;">
<circle cx="14596110.000000" cy="11897360.000000" r="104140.000000"/> 
</g>
<g style="fill:#ffffff; fill-opacity:1.0;  stroke:#ffffff; stroke-width:0.100000; stroke-opacity:1;  stroke-linecap:round; stroke-linejoin:round;">
<circle cx="14342110.000000" cy="11897360.000000" r="104140.000000"/> 
</g>
<g style="fill:#ffffff; fill-opacity:1.0;  stroke:#ffffff; stroke-width:0.100000; stroke-opacity:1;  stroke-linecap:round; stroke-linejoin:round;">
<circle cx="14596110.000000" cy="10627360.000000" r="104140.000000"/> 
</g>
<g style="fill:#ffffff; fill-opacity:1.0;  stroke:#ffffff; stroke-width:0.100000; stroke-opacity:1;  stroke-linecap:round; stroke-linejoin:round;">
<circle cx="14596110.000000" cy="10881360.000000" r="104140.000000"/> 
</g>
<g style="fill:#ffffff; fill-opacity:1.0;  stroke:#ffffff; stroke-width:0.100000; stroke-opacity:1;  stroke-linecap:round; stroke-linejoin:round;">
<circle cx="14596110.000000" cy="11135360.000000" r="104140.000000"/> 
</g>
</g> 
</mask><mask id="pads-mask-silkscreen"><rect x="10151110.0" y="8140200.0" width="10327301.3" height="5555162.5" fill="white"/><g style="fill:#000000; fill-opacity:0.0;  stroke:#000000; stroke-width:0.000000; stroke-opacity:1;  stroke-linecap:round; stroke-linejoin:round;">
<g style="fill:#000000; fill-opacity:1.0;  stroke:#000000; stroke-width:0.100000; stroke-opacity:1;  stroke-linecap:round; stroke-linejoin:round;">
<circle cx="15993110.000000" cy="9230360.000000" r="165100.000000"/> 
</g>
<g style="fill:#000000; fill-opacity:1.0;  stroke:#000000; stroke-width:0.100000; stroke-opacity:1;  stroke-linecap:round; stroke-linejoin:round;">
<circle cx="16120110.000000" cy="9738360.000000" r="104140.000000"/> 
</g>
<g style="fill:#000000; fill-opacity:1.0;  stroke:#000000; stroke-width:0.100000; stroke-opacity:1;  stroke-linecap:round; stroke-linejoin:round;">
<circle cx="16120110.000000" cy="9992360.000000" r="104140.000000"/> 
</g>
<g style="fill:#000000; fill-opacity:1.0;  stroke:#000000; stroke-width:0.100000; stroke-opacity:1;  stroke-linecap:round; stroke-linejoin:round;">
<circle cx="16120110.000000" cy="10246360.000000" r="104140.000000"/> 
</g>
<g style="fill:#000000; fill-opacity:1.0;  stroke:#000000; stroke-width:0.100000; stroke-opacity:1;  stroke-linecap:round; stroke-linejoin:round;">
<circle cx="14088110.000000" cy="10627360.000000" r="104140.000000"/> 
</g>
<g style="fill:#000000; fill-opacity:1.0;  stroke:#000000; stroke-width:0.100000; stroke-opacity:1;  stroke-linecap:round; stroke-linejoin:round;">
<circle cx="14088110.000000" cy="10881360.000000" r="104140.000000"/> 
</g>
<g style="fill:#000000; fill-opacity:1.0;  stroke:#000000; stroke-width:0.100000; stroke-opacity:1;  stroke-linecap:round; stroke-linejoin:round;">
<circle cx="14088110.000000" cy="11135360.000000" r="104140.000000"/> 
</g>
<g style="fill:#000000; fill-opacity:1.0;  stroke:#000000; stroke-width:0.100000; stroke-opacity:1;  stroke-linecap:round; stroke-linejoin:round;">
<circle cx="13707110.000000" cy="11770360.000000" r="165100.000000"/> 
</g>
<g style="fill:#000000; fill-opacity:1.0;  stroke:#000000; stroke-width:0.100000; stroke-opacity:1;  stroke-linecap:round; stroke-linejoin:round;">
<circle cx="13707110.000000" cy="9230360.000000" r="165100.000000"/> 
</g>
<g style="fill:#000000; fill-opacity:1.0;  stroke:#000000; stroke-width:0.100000; stroke-opacity:1;  stroke-linecap:round; stroke-linejoin:round;">
<circle cx="15612110.000000" cy="10627360.000000" r="104140.000000"/> 
</g>
<g style="fill:#000000; fill-opacity:1.0;  stroke:#000000; stroke-width:0.100000; stroke-opacity:1;  stroke-linecap:round; stroke-linejoin:round;">
<circle cx="15612110.000000" cy="10881360.000000" r="104140.000000"/> 
</g>
<g style="fill:#000000; fill-opacity:1.0;  stroke:#000000; stroke-width:0.100000; stroke-opacity:1;  stroke-linecap:round; stroke-linejoin:round;">
<circle cx="15612110.000000" cy="11135360.000000" r="104140.000000"/> 
</g>
<g style="fill:#000000; fill-opacity:1.0;  stroke:#000000; stroke-width:0.100000; stroke-opacity:1;  stroke-linecap:round; stroke-linejoin:round;">
<circle cx="15993110.000000" cy="11770360.000000" r="165100.000000"/> 
</g>
<g style="fill:#000000; fill-opacity:1.0;  stroke:#000000; stroke-width:0.100000; stroke-opacity:1;  stroke-linecap:round; stroke-linejoin:round;">
<circle cx="15104110.000000" cy="10627360.000000" r="104140.000000"/> 
</g>
<g style="fill:#000000; fill-opacity:1.0;  stroke:#000000; stroke-width:0.100000; stroke-opacity:1;  stroke-linecap:round; stroke-linejoin:round;">
<circle cx="15104110.000000" cy="10881360.000000" r="104140.000000"/> 
</g>
<g style="fill:#000000; fill-opacity:1.0;  stroke:#000000; stroke-width:0.100000; stroke-opacity:1;  stroke-linecap:round; stroke-linejoin:round;">
<circle cx="15104110.000000" cy="11135360.000000" r="104140.000000"/> 
</g>
<g style="fill:#000000; fill-opacity:1.0;  stroke:#000000; stroke-width:0.100000; stroke-opacity:1;  stroke-linecap:round; stroke-linejoin:round;">
<circle cx="15421610.000000" cy="9230360.000000" r="160000.000000"/> 
</g>
<g style="fill:#000000; fill-opacity:1.0;  stroke:#000000; stroke-width:0.100000; stroke-opacity:1;  stroke-linecap:round; stroke-linejoin:round;">
<circle cx="14278610.000000" cy="9230360.000000" r="160000.000000"/> 
</g>
<g style="fill:#000000; fill-opacity:1.0;  stroke:#000000; stroke-width:0.100000; stroke-opacity:1;  stroke-linecap:round; stroke-linejoin:round;">
<path style="fill:#000000; fill-opacity:1.0;  stroke:#000000; stroke-width:0.100000; stroke-opacity:1;  stroke-linecap:round; stroke-linejoin:round;fill-rule:evenodd;" d="M 15398750.000000,9959340.000000 15397976.600000,9963228.100000 15395774.200000,9966524.200000 15392478.100000,9968726.600000 15388590.000000,9969500.000000 15200630.000000,9969500.000000 15196741.900000,9968726.600000 15193445.800000,9966524.200000 15191243.400000,9963228.100000 15190470.000000,9959340.000000 15190470.000000,9771380.000000 15191243.400000,9767491.900000 15193445.800000,9764195.800000 15196741.900000,9761993.400000 15200630.000000,9761220.000000 15388590.000000,9761220.000000 15392478.100000,9761993.400000 15395774.200000,9764195.800000 15397976.600000,9767491.900000 15398750.000000,9771380.000000 Z"/> 
<circle cx="15167610.000000" cy="10119360.000000" r="104140.000000"/> 
</g>
<g style="fill:#000000; fill-opacity:1.0;  stroke:#000000; stroke-width:0.100000; stroke-opacity:1;  stroke-linecap:round; stroke-linejoin:round;">
<circle cx="15040610.000000" cy="9865360.000000" r="104140.000000"/> 
</g>
<g style="fill:#000000; fill-opacity:1.0;  stroke:#000000; stroke-width:0.100000; stroke-opacity:1;  stroke-linecap:round; stroke-linejoin:round;">
<circle cx="14913610.000000" cy="10119360.000000" r="104140.000000"/> 
</g>
<g style="fill:#000000; fill-opacity:1.0;  stroke:#000000; stroke-width:0.100000; stroke-opacity:1;  stroke-linecap:round; stroke-linejoin:round;">
<circle cx="14786610.000000" cy="9865360.000000" r="104140.000000"/> 
</g>
<g style="fill:#000000; fill-opacity:1.0;  stroke:#000000; stroke-width:0.100000; stroke-opacity:1;  stroke-linecap:round; stroke-linejoin:round;">
<circle cx="14659610.000000" cy="10119360.000000" r="104140.000000"/> 
</g>
<g style="fill:#000000; fill-opacity:1.0;  stroke:#000000; stroke-width:0.100000; stroke-opacity:1;  stroke-linecap:round; stroke-linejoin:round;">
<circle cx="14532610.000000" cy="9865360.000000" r="104140.000000"/> 
</g>
<g style="fill:#000000; fill-opacity:1.0;  stroke:#000000; stroke-width:0.100000; stroke-opacity:1;  stroke-linecap:round; stroke-linejoin:round;">
<circle cx="14405610.000000" cy="10119360.000000" r="104140.000000"/> 
</g>
<g style="fill:#000000; fill-opacity:1.0;  stroke:#000000; stroke-width:0.100000; stroke-opacity:1;  stroke-linecap:round; stroke-linejoin:round;">
<circle cx="15358110.000000" cy="11897360.000000" r="104140.000000"/> 
</g>
<g style="fill:#000000; fill-opacity:1.0;  stroke:#000000; stroke-width:0.100000; stroke-opacity:1;  stroke-linecap:round; stroke-linejoin:round;">
<circle cx="15104110.000000" cy="11897360.000000" r="104140.000000"/> 
</g>
<g style="fill:#000000; fill-opacity:1.0;  stroke:#000000; stroke-width:0.100000; stroke-opacity:1;  stroke-linecap:round; stroke-linejoin:round;">
<circle cx="14850110.000000" cy="11897360.000000" r="104140.000000"/> 
</g>
<g style="fill:#000000; fill-opacity:1.0;  stroke:#000000; stroke-width:0.100000; stroke-opacity:1;  stroke-linecap:round; stroke-linejoin:round;">
<circle cx="14596110.000000" cy="11897360.000000" r="104140.000000"/> 
</g>
<g style="fill:#000000; fill-opacity:1.0;  stroke:#000000; stroke-width:0.100000; stroke-opacity:1;  stroke-linecap:round; stroke-linejoin:round;">
<circle cx="14342110.000000" cy="11897360.000000" r="104140.000000"/> 
</g>
<g style="fill:#000000; fill-opacity:1.0;  stroke:#000000; stroke-width:0.100000; stroke-opacity:1;  stroke-linecap:round; stroke-linejoin:round;">
<circle cx="14596110.000000" cy="10627360.000000" r="104140.000000"/> 
</g>
<g style="fill:#000000; fill-opacity:1.0;  stroke:#000000; stroke-width:0.100000; stroke-opacity:1;  stroke-linecap:round; stroke-linejoin:round;">
<circle cx="14596110.000000" cy="10881360.000000" r="104140.000000"/> 
</g>
<g style="fill:#000000; fill-opacity:1.0;  stroke:#000000; stroke-width:0.100000; stroke-opacity:1;  stroke-linecap:round; stroke-linejoin:round;">
<circle cx="14596110.000000" cy="11135360.000000" r="104140.000000"/> 
</g>
</g> 
</mask><mask id="hole-mask"><g><rect x="10151110.0" y="8140200.0" fill="white" width="10327301.3" height="5555162.5"/><polyline stroke-linecap="round" stroke="black" stroke-width="330200.0" points="-0.0 0 0.0 0" transform="translate(15993110.0 9230360.0) rotate(-180.0)"/><polyline stroke-linecap="round" stroke="black" stroke-width="101600.0" points="-0.0 0 0.0 0" transform="translate(16120110.0 9738360.0) rotate(-0.0)"/><polyline stroke-linecap="round" stroke="black" stroke-width="101600.0" points="-0.0 0 0.0 0" transform="translate(16120110.0 9992360.0) rotate(-0.0)"/><polyline stroke-linecap="round" stroke="black" stroke-width="101600.0" points="-0.0 0 0.0 0" transform="translate(16120110.0 10246360.0) rotate(-0.0)"/><polyline stroke-linecap="round" stroke="black" stroke-width="101600.0" points="-0.0 0 0.0 0" transform="translate(14088110.0 10627360.0) rotate(-0.0)"/><polyline stroke-linecap="round" stroke="black" stroke-width="101600.0" points="-0.0 0 0.0 0" transform="translate(14088110.0 10881360.0) rotate(-0.0)"/><polyline stroke-linecap="round" stroke="black" stroke-width="101600.0" points="-0.0 0 0.0 0" transform="translate(14088110.0 11135360.0) rotate(-0.0)"/><polyline stroke-linecap="round" stroke="black" stroke-width="330200.0" points="-0.0 0 0.0 0" transform="translate(13707110.0 11770360.0) rotate(-180.0)"/><polyline stroke-linecap="round" stroke="black" stroke-width="330200.0" points="-0.0 0 0.0 0" transform="translate(13707110.0 9230360.0) rotate(-180.0)"/><polyline stroke-linecap="round" stroke="black" stroke-width="101600.0" points="-0.0 0 0.0 0" transform="translate(15612110.0 10627360.0) rotate(-0.0)"/><polyline stroke-linecap="round" stroke="black" stroke-width="101600.0" points="-0.0 0 0.0 0" transform="translate(15612110.0 10881360.0) rotate(-0.0)"/><polyline stroke-linecap="round" stroke="black" stroke-width="101600.0" points="-0.0 0 0.0 0" transform="translate(15612110.0 11135360.0) rotate(-0.0)"/><polyline stroke-linecap="round" stroke="black" stroke-width="330200.0" points="-0.0 0 0.0 0" transform="translate(15993110.0 11770360.0) rotate(-180.0)"/><polyline stroke-linecap="round" stroke="black" stroke-width="101600.0" points="-0.0 0 0.0 0" transform="translate(15104110.0 10627360.0) rotate(-0.0)"/><polyline stroke-linecap="round" stroke="black" stroke-width="101600.0" points="-0.0 0 0.0 0" transform="translate(15104110.0 10881360.0) rotate(-0.0)"/><polyline stroke-linecap="round" stroke="black" stroke-width="101600.0" points="-0.0 0 0.0 0" transform="translate(15104110.0 11135360.0) rotate(-0.0)"/><polyline stroke-linecap="round" stroke="black" stroke-width="320000.0" points="-0.0 0 0.0 0" transform="translate(15421610.0 9230360.0) rotate(-180.0)"/><polyline stroke-linecap="round" stroke="black" stroke-width="320000.0" points="-0.0 0 0.0 0" transform="translate(14278610.0 9230360.0) rotate(-180.0)"/><polyline stroke-linecap="round" stroke="black" stroke-width="100000.0" points="-0.0 0 0.0 0" transform="translate(15294610.0 9865360.0) rotate(-180.0)"/><polyline stroke-linecap="round" stroke="black" stroke-width="100000.0" points="-0.0 0 0.0 0" transform="translate(15167610.0 10119360.0) rotate(-180.0)"/><polyline stroke-linecap="round" stroke="black" stroke-width="100000.0" points="-0.0 0 0.0 0" transform="translate(15040610.0 9865360.0) rotate(-180.0)"/><polyline stroke-linecap="round" stroke="black" stroke-width="100000.0" points="-0.0 0 0.0 0" transform="translate(14913610.0 10119360.0) rotate(-180.0)"/><polyline stroke-linecap="round" stroke="black" stroke-width="100000.0" points="-0.0 0 0.0 0" transform="translate(14786610.0 9865360.0) rotate(-180.0)"/><polyline stroke-linecap="round" stroke="black" stroke-width="100000.0" points="-0.0 0 0.0 0" transform="translate(14659610.0 10119360.0) rotate(-180.0)"/><polyline stroke-linecap="round" stroke="black" stroke-width="100000.0" points="-0.0 0 0.0 0" transform="translate(14532610.0 9865360.0) rotate(-180.0)"/><polyline stroke-linecap="round" stroke="black" stroke-width="100000.0" points="-0.0 0 0.0 0" transform="translate(14405610.0 10119360.0) rotate(-180.0)"/><polyline stroke-linecap="round" stroke="black" stroke-width="101600.0" points="-0.0 0 0.0 0" transform="translate(15358110.0 11897360.0) rotate(-270.0)"/><polyline stroke-linecap="round" stroke="black" stroke-width="101600.0" points="-0.0 0 0.0 0" transform="translate(15104110.0 11897360.0) rotate(-270.0)"/><polyline stroke-linecap="round" stroke="black" stroke-width="101600.0" points="-0.0 0 0.0 0" transform="translate(14850110.0 11897360.0) rotate(-270.0)"/><polyline stroke-linecap="round" stroke="black" stroke-width="101600.0" points="-0.0 0 0.0 0" transform="translate(14596110.0 11897360.0) rotate(-270.0)"/><polyline stroke-linecap="round" stroke="black" stroke-width="101600.0" points="-0.0 0 0.0 0" transform="translate(14342110.0 11897360.0) rotate(-270.0)"/><polyline stroke-linecap="round" stroke="black" stroke-width="101600.0" points="-0.0 0 0.0 0" transform="translate(14596110.0 10627360.0) rotate(-0.0)"/><polyline stroke-linecap="round" stroke="black" stroke-width="101600.0" points="-0.0 0 0.0 0" transform="translate(14596110.0 10881360.0) rotate(-0.0)"/><polyline stroke-linecap="round" stroke="black" stroke-width="101600.0" points="-0.0 0 0.0 0" transform="translate(14596110.0 11135360.0) rotate(-0.0)"/></g></mask></defs><g transform="" id="boardContainer"><g id="substrate" clip-path="url(#cut-off)" mask="url(#hole-mask)"><g id="substrate-board" style="fill:#4ca06c; stroke:#4ca06c;"><path d=" M 13453110.0 8976360.0 L 16247110.0 8976360.0 L 16247110.0 12024360.0 L 13453110.0 12024360.0 L 13453110.0 8976360.0 " style="fill-rule: evenodd;"/><g style="fill-opacity: 0.0;stroke-width: 20320.000000;stroke-opacity: 1;stroke-linecap: round;stroke-linejoin: round">
<path d="M13453110 12024360 L13453110 8976360 "/>
<path d="M16247110 12024360 L13453110 12024360 "/>
<path d="M16247110 8976360 L16247110 12024360 "/>
<path d="M13453110 8976360 L16247110 8976360 "/>
</g> 
</g><g id="substrate-clad" style="fill:#9c6b28; stroke:#9c6b28;"><g style="fill-opacity: 0.0;stroke-width: 0.000000;stroke-opacity: 1;stroke-linecap: round;stroke-linejoin: round">
<g style="fill-opacity: 1.0;stroke-width: 0.100000;stroke-opacity: 1;stroke-linecap: round;stroke-linejoin: round">
<circle cx="15993110.000000" cy="9230360.000000" r="165100.000000"/> 
</g>
<g style="fill-opacity: 1.0;stroke-width: 0.100000;stroke-opacity: 1;stroke-linecap: round;stroke-linejoin: round">
<circle cx="16120110.000000" cy="9738360.000000" r="104140.000000"/> 
</g>
<g style="fill-opacity: 1.0;stroke-width: 0.100000;stroke-opacity: 1;stroke-linecap: round;stroke-linejoin: round">
<circle cx="16120110.000000" cy="9992360.000000" r="104140.000000"/> 
</g>
<g style="fill-opacity: 1.0;stroke-width: 0.100000;stroke-opacity: 1;stroke-linecap: round;stroke-linejoin: round">
<circle cx="16120110.000000" cy="10246360.000000" r="104140.000000"/> 
</g>
<g style="fill-opacity: 1.0;stroke-width: 0.100000;stroke-opacity: 1;stroke-linecap: round;stroke-linejoin: round">
<circle cx="14088110.000000" cy="10627360.000000" r="104140.000000"/> 
</g>
<g style="fill-opacity: 1.0;stroke-width: 0.100000;stroke-opacity: 1;stroke-linecap: round;stroke-linejoin: round">
<circle cx="14088110.000000" cy="10881360.000000" r="104140.000000"/> 
</g>
<g style="fill-opacity: 1.0;stroke-width: 0.100000;stroke-opacity: 1;stroke-linecap: round;stroke-linejoin: round">
<circle cx="14088110.000000" cy="11135360.000000" r="104140.000000"/> 
</g>
<g style="fill-opacity: 1.0;stroke-width: 0.100000;stroke-opacity: 1;stroke-linecap: round;stroke-linejoin: round">
<circle cx="13707110.000000" cy="11770360.000000" r="165100.000000"/> 
</g>
<g style="fill-opacity: 1.0;stroke-width: 0.100000;stroke-opacity: 1;stroke-linecap: round;stroke-linejoin: round">
<circle cx="13707110.000000" cy="9230360.000000" r="165100.000000"/> 
</g>
<g style="fill-opacity: 1.0;stroke-width: 0.100000;stroke-opacity: 1;stroke-linecap: round;stroke-linejoin: round">
<circle cx="15612110.000000" cy="10627360.000000" r="104140.000000"/> 
</g>
<g style="fill-opacity: 1.0;stroke-width: 0.100000;stroke-opacity: 1;stroke-linecap: round;stroke-linejoin: round">
<circle cx="15612110.000000" cy="10881360.000000" r="104140.000000"/> 
</g>
<g style="fill-opacity: 1.0;stroke-width: 0.100000;stroke-opacity: 1;stroke-linecap: round;stroke-linejoin: round">
<circle cx="15612110.000000" cy="11135360.000000" r="104140.000000"/> 
</g>
<g style="fill-opacity: 1.0;stroke-width: 0.100000;stroke-opacity: 1;stroke-linecap: round;stroke-linejoin: round">
<circle cx="15993110.000000" cy="11770360.000000" r="165100.000000"/> 
</g>
<g style="fill-opacity: 1.0;stroke-width: 0.100000;stroke-opacity: 1;stroke-linecap: round;stroke-linejoin: round">
<circle cx="15104110.000000" cy="10627360.000000" r="104140.000000"/> 
</g>
<g style="fill-opacity: 1.0;stroke-width: 0.100000;stroke-opacity: 1;stroke-linecap: round;stroke-linejoin: round">
<circle cx="15104110.000000" cy="10881360.000000" r="104140.000000"/> 
</g>
<g style="fill-opacity: 1.0;stroke-width: 0.100000;stroke-opacity: 1;stroke-linecap: round;stroke-linejoin: round">
<circle cx="15104110.000000" cy="11135360.000000" r="104140.000000"/> 
</g>
<g style="fill-opacity: 1.0;stroke-width: 0.100000;stroke-opacity: 1;stroke-linecap: round;stroke-linejoin: round">
<circle cx="15421610.000000" cy="9230360.000000" r="160000.000000"/> 
</g>
<g style="fill-opacity: 1.0;stroke-width: 0.100000;stroke-opacity: 1;stroke-linecap: round;stroke-linejoin: round">
<circle cx="14278610.000000" cy="9230360.000000" r="160000.000000"/> 
</g>
<g style="fill-opacity: 1.0;stroke-width: 0.100000;stroke-opacity: 1;stroke-linecap: round;stroke-linejoin: round">
<path style="fill-opacity: 1.0;stroke-width: 0.100000;stroke-opacity: 1;stroke-linecap: round;stroke-linejoin: round;fill-rule: evenodd" d="M 15398750.000000,9959340.000000 15397976.600000,9963228.100000 15395774.200000,9966524.200000 15392478.100000,9968726.600000 15388590.000000,9969500.000000 15200630.000000,9969500.000000 15196741.900000,9968726.600000 15193445.800000,9966524.200000 15191243.400000,9963228.100000 15190470.000000,9959340.000000 15190470.000000,9771380.000000 15191243.400000,9767491.900000 15193445.800000,9764195.800000 15196741.900000,9761993.400000 15200630.000000,9761220.000000 15388590.000000,9761220.000000 15392478.100000,9761993.400000 15395774.200000,9764195.800000 15397976.600000,9767491.900000 15398750.000000,9771380.000000 Z"/> 
<circle cx="15167610.000000" cy="10119360.000000" r="104140.000000"/> 
</g>
<g style="fill-opacity: 1.0;stroke-width: 0.100000;stroke-opacity: 1;stroke-linecap: round;stroke-linejoin: round">
<circle cx="15040610.000000" cy="9865360.000000" r="104140.000000"/> 
</g>
<g style="fill-opacity: 1.0;stroke-width: 0.100000;stroke-opacity: 1;stroke-linecap: round;stroke-linejoin: round">
<circle cx="14913610.000000" cy="10119360.000000" r="104140.000000"/> 
</g>
<g style="fill-opacity: 1.0;stroke-width: 0.100000;stroke-opacity: 1;stroke-linecap: round;stroke-linejoin: round">
<circle cx="14786610.000000" cy="9865360.000000" r="104140.000000"/> 
</g>
<g style="fill-opacity: 1.0;stroke-width: 0.100000;stroke-opacity: 1;stroke-linecap: round;stroke-linejoin: round">
<circle cx="14659610.000000" cy="10119360.000000" r="104140.000000"/> 
</g>
<g style="fill-opacity: 1.0;stroke-width: 0.100000;stroke-opacity: 1;stroke-linecap: round;stroke-linejoin: round">
<circle cx="14532610.000000" cy="9865360.000000" r="104140.000000"/> 
</g>
<g style="fill-opacity: 1.0;stroke-width: 0.100000;stroke-opacity: 1;stroke-linecap: round;stroke-linejoin: round">
<circle cx="14405610.000000" cy="10119360.000000" r="104140.000000"/> 
</g>
<g style="fill-opacity: 1.0;stroke-width: 0.100000;stroke-opacity: 1;stroke-linecap: round;stroke-linejoin: round">
<circle cx="15358110.000000" cy="11897360.000000" r="104140.000000"/> 
</g>
<g style="fill-opacity: 1.0;stroke-width: 0.100000;stroke-opacity: 1;stroke-linecap: round;stroke-linejoin: round">
<circle cx="15104110.000000" cy="11897360.000000" r="104140.000000"/> 
</g>
<g style="fill-opacity: 1.0;stroke-width: 0.100000;stroke-opacity: 1;stroke-linecap: round;stroke-linejoin: round">
<circle cx="14850110.000000" cy="11897360.000000" r="104140.000000"/> 
</g>
<g style="fill-opacity: 1.0;stroke-width: 0.100000;stroke-opacity: 1;stroke-linecap: round;stroke-linejoin: round">
<circle cx="14596110.000000" cy="11897360.000000" r="104140.000000"/> 
</g>
<g style="fill-opacity: 1.0;stroke-width: 0.100000;stroke-opacity: 1;stroke-linecap: round;stroke-linejoin: round">
<circle cx="14342110.000000" cy="11897360.000000" r="104140.000000"/> 
</g>
<g style="fill-opacity: 1.0;stroke-width: 0.100000;stroke-opacity: 1;stroke-linecap: round;stroke-linejoin: round">
<circle cx="14596110.000000" cy="10627360.000000" r="104140.000000"/> 
</g>
<g style="fill-opacity: 1.0;stroke-width: 0.100000;stroke-opacity: 1;stroke-linecap: round;stroke-linejoin: round">
<circle cx="14596110.000000" cy="10881360.000000" r="104140.000000"/> 
</g>
<g style="fill-opacity: 1.0;stroke-width: 0.100000;stroke-opacity: 1;stroke-linecap: round;stroke-linejoin: round">
<circle cx="14596110.000000" cy="11135360.000000" r="104140.000000"/> 
</g>
</g> 
</g><g id="substrate-copper" style="fill:#417e5a; stroke:#417e5a;"><g style="fill-opacity: 0.0;stroke-width: 0.000000;stroke-opacity: 1;stroke-linecap: round;stroke-linejoin: round">
<g style="fill-opacity: 1.0;stroke-width: 0.100000;stroke-opacity: 1;stroke-linecap: round;stroke-linejoin: round">
<circle cx="16120110.000000" cy="9738360.000000" r="93980.000000"/> 
</g>
<g style="fill-opacity: 1.0;stroke-width: 0.100000;stroke-opacity: 1;stroke-linecap: round;stroke-linejoin: round">
<circle cx="16120110.000000" cy="9992360.000000" r="93980.000000"/> 
</g>
<g style="fill-opacity: 1.0;stroke-width: 0.100000;stroke-opacity: 1;stroke-linecap: round;stroke-linejoin: round">
<circle cx="16120110.000000" cy="10246360.000000" r="93980.000000"/> 
</g>
<g style="fill-opacity: 1.0;stroke-width: 0.100000;stroke-opacity: 1;stroke-linecap: round;stroke-linejoin: round">
<circle cx="14088110.000000" cy="10627360.000000" r="93980.000000"/> 
</g>
<g style="fill-opacity: 1.0;stroke-width: 0.100000;stroke-opacity: 1;stroke-linecap: round;stroke-linejoin: round">
<circle cx="14088110.000000" cy="10881360.000000" r="93980.000000"/> 
</g>
<g style="fill-opacity: 1.0;stroke-width: 0.100000;stroke-opacity: 1;stroke-linecap: round;stroke-linejoin: round">
<circle cx="14088110.000000" cy="11135360.000000" r="93980.000000"/> 
</g>
<g style="fill-opacity: 1.0;stroke-width: 0.100000;stroke-opacity: 1;stroke-linecap: round;stroke-linejoin: round">
<circle cx="15612110.000000" cy="10627360.000000" r="93980.000000"/> 
</g>
<g style="fill-opacity: 1.0;stroke-width: 0.100000;stroke-opacity: 1;stroke-linecap: round;stroke-linejoin: round">
<circle cx="15612110.000000" cy="10881360.000000" r="93980.000000"/> 
</g>
<g style="fill-opacity: 1.0;stroke-width: 0.100000;stroke-opacity: 1;stroke-linecap: round;stroke-linejoin: round">
<circle cx="15612110.000000" cy="11135360.000000" r="93980.000000"/> 
</g>
<g style="fill-opacity: 1.0;stroke-width: 0.100000;stroke-opacity: 1;stroke-linecap: round;stroke-linejoin: round">
<circle cx="15104110.000000" cy="10627360.000000" r="93980.000000"/> 
</g>
<g style="fill-opacity: 1.0;stroke-width: 0.100000;stroke-opacity: 1;stroke-linecap: round;stroke-linejoin: round">
<circle cx="15104110.000000" cy="10881360.000000" r="93980.000000"/> 
</g>
<g style="fill-opacity: 1.0;stroke-width: 0.100000;stroke-opacity: 1;stroke-linecap: round;stroke-linejoin: round">
<circle cx="15104110.000000" cy="11135360.000000" r="93980.000000"/> 
</g>
<g style="fill-opacity: 1.0;stroke-width: 0.100000;stroke-opacity: 1;stroke-linecap: round;stroke-linejoin: round">
<path style="fill-opacity: 1.0;stroke-width: 0.100000;stroke-opacity: 1;stroke-linecap: round;stroke-linejoin: round;fill-rule: evenodd" d="M 15388590.000000,9771380.000000 15388590.000000,9959340.000000 15200630.000000,9959340.000000 15200630.000000,9771380.000000 Z"/> 
<circle cx="15167610.000000" cy="10119360.000000" r="93980.000000"/> 
</g>
<g style="fill-opacity: 1.0;stroke-width: 0.100000;stroke-opacity: 1;stroke-linecap: round;stroke-linejoin: round">
<circle cx="15040610.000000" cy="9865360.000000" r="93980.000000"/> 
</g>
<g style="fill-opacity: 1.0;stroke-width: 0.100000;stroke-opacity: 1;stroke-linecap: round;stroke-linejoin: round">
<circle cx="14913610.000000" cy="10119360.000000" r="93980.000000"/> 
</g>
<g style="fill-opacity: 1.0;stroke-width: 0.100000;stroke-opacity: 1;stroke-linecap: round;stroke-linejoin: round">
<circle cx="14786610.000000" cy="9865360.000000" r="93980.000000"/> 
</g>
<g style="fill-opacity: 1.0;stroke-width: 0.100000;stroke-opacity: 1;stroke-linecap: round;stroke-linejoin: round">
<circle cx="14659610.000000" cy="10119360.000000" r="93980.000000"/> 
</g>
<g style="fill-opacity: 1.0;stroke-width: 0.100000;stroke-opacity: 1;stroke-linecap: round;stroke-linejoin: round">
<circle cx="14532610.000000" cy="9865360.000000" r="93980.000000"/> 
</g>
<g style="fill-opacity: 1.0;stroke-width: 0.100000;stroke-opacity: 1;stroke-linecap: round;stroke-linejoin: round">
<circle cx="14405610.000000" cy="10119360.000000" r="93980.000000"/> 
</g>
<g style="fill-opacity: 1.0;stroke-width: 0.100000;stroke-opacity: 1;stroke-linecap: round;stroke-linejoin: round">
<circle cx="15358110.000000" cy="11897360.000000" r="93980.000000"/> 
</g>
<g style="fill-opacity: 1.0;stroke-width: 0.100000;stroke-opacity: 1;stroke-linecap: round;stroke-linejoin: round">
<circle cx="15104110.000000" cy="11897360.000000" r="93980.000000"/> 
</g>
<g style="fill-opacity: 1.0;stroke-width: 0.100000;stroke-opacity: 1;stroke-linecap: round;stroke-linejoin: round">
<circle cx="14850110.000000" cy="11897360.000000" r="93980.000000"/> 
</g>
<g style="fill-opacity: 1.0;stroke-width: 0.100000;stroke-opacity: 1;stroke-linecap: round;stroke-linejoin: round">
<circle cx="14596110.000000" cy="11897360.000000" r="93980.000000"/> 
</g>
<g style="fill-opacity: 1.0;stroke-width: 0.100000;stroke-opacity: 1;stroke-linecap: round;stroke-linejoin: round">
<circle cx="14342110.000000" cy="11897360.000000" r="93980.000000"/> 
</g>
<g style="fill-opacity: 1.0;stroke-width: 0.100000;stroke-opacity: 1;stroke-linecap: round;stroke-linejoin: round">
<circle cx="14596110.000000" cy="10627360.000000" r="93980.000000"/> 
</g>
<g style="fill-opacity: 1.0;stroke-width: 0.100000;stroke-opacity: 1;stroke-linecap: round;stroke-linejoin: round">
<circle cx="14596110.000000" cy="10881360.000000" r="93980.000000"/> 
</g>
<g style="fill-opacity: 1.0;stroke-width: 0.100000;stroke-opacity: 1;stroke-linecap: round;stroke-linejoin: round">
<circle cx="14596110.000000" cy="11135360.000000" r="93980.000000"/> 
</g>
<g style="fill-opacity: 0.0;stroke-width: 50800.000000;stroke-opacity: 1;stroke-linecap: round;stroke-linejoin: round">
<path d="M15612110 10627360 L15612110 10500360 "/>
<path d="M15485110 10373360 L14723110 10373360 "/>
<path d="M14596110 10500360 L14596110 10627360 "/>
<path d="M15612110 10500360 L15485110 10373360 "/>
<path d="M14723110 10373360 L14596110 10500360 "/>
<path d="M14088110 10881360 L14596110 10881360 "/>
<path d="M15104110 10881360 L15612110 10881360 "/>
<path d="M13834110 11262360 L13834110 9738360 "/>
<path d="M14215110 11389360 L13961110 11389360 "/>
<path d="M14786610 9865360 L14786610 9674860 "/>
<path d="M14596110 11135360 L14596110 11897360 "/>
<path d="M13961110 11389360 L13834110 11262360 "/>
<path d="M14469110 11135360 L14215110 11389360 "/>
<path d="M13961110 9611360 L14723110 9611360 "/>
<path d="M14786610 9674860 L14723110 9611360 "/>
<path d="M14596110 11135360 L14469110 11135360 "/>
<path d="M13834110 9738360 L13961110 9611360 "/>
<path d="M14850110 11389360 L15104110 11135360 "/>
<path d="M14850110 11897360 L14850110 11389360 "/>
<path d="M15485110 11389360 L15612110 11262360 "/>
<path d="M15104110 11643360 L15104110 11897360 "/>
<path d="M15358110 11389360 L15485110 11389360 "/>
<path d="M15358110 11389360 L15104110 11643360 "/>
<path d="M15612110 11262360 L15612110 11135360 "/>
</g>
<g style="fill-opacity: 0.0;stroke-width: 25400.000000;stroke-opacity: 1;stroke-linecap: round;stroke-linejoin: round">
<path d="M15040610 9865360 L15040610 10220960 "/>
<path d="M15040610 10220960 L15104110 10284460 "/>
<path d="M15104110 10284460 L15574010 10284460 "/>
<path d="M15574010 10284460 L15612110 10246360 "/>
<path d="M15612110 10246360 L16120110 10246360 "/>
<path d="M15485110 10119360 L15612110 9992360 "/>
<path d="M15612110 9992360 L16120110 9992360 "/>
<path d="M15167610 10119360 L15485110 10119360 "/>
<path d="M15612110 9738360 L16120110 9738360 "/>
<path d="M15485110 9865360 L15612110 9738360 "/>
<path d="M15294610 9865360 L15485110 9865360 "/>
</g>
</g> 
</g><g id="substrate-pads" style="fill:#b5ae30; stroke:#b5ae30;" mask="url(#pads-mask)"><g style="fill-opacity: 0.0;stroke-width: 0.000000;stroke-opacity: 1;stroke-linecap: round;stroke-linejoin: round">
<g style="fill-opacity: 1.0;stroke-width: 0.100000;stroke-opacity: 1;stroke-linecap: round;stroke-linejoin: round">
<circle cx="16120110.000000" cy="9738360.000000" r="93980.000000"/> 
</g>
<g style="fill-opacity: 1.0;stroke-width: 0.100000;stroke-opacity: 1;stroke-linecap: round;stroke-linejoin: round">
<circle cx="16120110.000000" cy="9992360.000000" r="93980.000000"/> 
</g>
<g style="fill-opacity: 1.0;stroke-width: 0.100000;stroke-opacity: 1;stroke-linecap: round;stroke-linejoin: round">
<circle cx="16120110.000000" cy="10246360.000000" r="93980.000000"/> 
</g>
<g style="fill-opacity: 1.0;stroke-width: 0.100000;stroke-opacity: 1;stroke-linecap: round;stroke-linejoin: round">
<circle cx="14088110.000000" cy="10627360.000000" r="93980.000000"/> 
</g>
<g style="fill-opacity: 1.0;stroke-width: 0.100000;stroke-opacity: 1;stroke-linecap: round;stroke-linejoin: round">
<circle cx="14088110.000000" cy="10881360.000000" r="93980.000000"/> 
</g>
<g style="fill-opacity: 1.0;stroke-width: 0.100000;stroke-opacity: 1;stroke-linecap: round;stroke-linejoin: round">
<circle cx="14088110.000000" cy="11135360.000000" r="93980.000000"/> 
</g>
<g style="fill-opacity: 1.0;stroke-width: 0.100000;stroke-opacity: 1;stroke-linecap: round;stroke-linejoin: round">
<circle cx="15612110.000000" cy="10627360.000000" r="93980.000000"/> 
</g>
<g style="fill-opacity: 1.0;stroke-width: 0.100000;stroke-opacity: 1;stroke-linecap: round;stroke-linejoin: round">
<circle cx="15612110.000000" cy="10881360.000000" r="93980.000000"/> 
</g>
<g style="fill-opacity: 1.0;stroke-width: 0.100000;stroke-opacity: 1;stroke-linecap: round;stroke-linejoin: round">
<circle cx="15612110.000000" cy="11135360.000000" r="93980.000000"/> 
</g>
<g style="fill-opacity: 1.0;stroke-width: 0.100000;stroke-opacity: 1;stroke-linecap: round;stroke-linejoin: round">
<circle cx="15104110.000000" cy="10627360.000000" r="93980.000000"/> 
</g>
<g style="fill-opacity: 1.0;stroke-width: 0.100000;stroke-opacity: 1;stroke-linecap: round;stroke-linejoin: round">
<circle cx="15104110.000000" cy="10881360.000000" r="93980.000000"/> 
</g>
<g style="fill-opacity: 1.0;stroke-width: 0.100000;stroke-opacity: 1;stroke-linecap: round;stroke-linejoin: round">
<circle cx="15104110.000000" cy="11135360.000000" r="93980.000000"/> 
</g>
<g style="fill-opacity: 1.0;stroke-width: 0.100000;stroke-opacity: 1;stroke-linecap: round;stroke-linejoin: round">
<path style="fill-opacity: 1.0;stroke-width: 0.100000;stroke-opacity: 1;stroke-linecap: round;stroke-linejoin: round;fill-rule: evenodd" d="M 15388590.000000,9771380.000000 15388590.000000,9959340.000000 15200630.000000,9959340.000000 15200630.000000,9771380.000000 Z"/> 
<circle cx="15167610.000000" cy="10119360.000000" r="93980.000000"/> 
</g>
<g style="fill-opacity: 1.0;stroke-width: 0.100000;stroke-opacity: 1;stroke-linecap: round;stroke-linejoin: round">
<circle cx="15040610.000000" cy="9865360.000000" r="93980.000000"/> 
</g>
<g style="fill-opacity: 1.0;stroke-width: 0.100000;stroke-opacity: 1;stroke-linecap: round;stroke-linejoin: round">
<circle cx="14913610.000000" cy="10119360.000000" r="93980.000000"/> 
</g>
<g style="fill-opacity: 1.0;stroke-width: 0.100000;stroke-opacity: 1;stroke-linecap: round;stroke-linejoin: round">
<circle cx="14786610.000000" cy="9865360.000000" r="93980.000000"/> 
</g>
<g style="fill-opacity: 1.0;stroke-width: 0.100000;stroke-opacity: 1;stroke-linecap: round;stroke-linejoin: round">
<circle cx="14659610.000000" cy="10119360.000000" r="93980.000000"/> 
</g>
<g style="fill-opacity: 1.0;stroke-width: 0.100000;stroke-opacity: 1;stroke-linecap: round;stroke-linejoin: round">
<circle cx="14532610.000000" cy="9865360.000000" r="93980.000000"/> 
</g>
<g style="fill-opacity: 1.0;stroke-width: 0.100000;stroke-opacity: 1;stroke-linecap: round;stroke-linejoin: round">
<circle cx="14405610.000000" cy="10119360.000000" r="93980.000000"/> 
</g>
<g style="fill-opacity: 1.0;stroke-width: 0.100000;stroke-opacity: 1;stroke-linecap: round;stroke-linejoin: round">
<circle cx="15358110.000000" cy="11897360.000000" r="93980.000000"/> 
</g>
<g style="fill-opacity: 1.0;stroke-width: 0.100000;stroke-opacity: 1;stroke-linecap: round;stroke-linejoin: round">
<circle cx="15104110.000000" cy="11897360.000000" r="93980.000000"/> 
</g>
<g style="fill-opacity: 1.0;stroke-width: 0.100000;stroke-opacity: 1;stroke-linecap: round;stroke-linejoin: round">
<circle cx="14850110.000000" cy="11897360.000000" r="93980.000000"/> 
</g>
<g style="fill-opacity: 1.0;stroke-width: 0.100000;stroke-opacity: 1;stroke-linecap: round;stroke-linejoin: round">
<circle cx="14596110.000000" cy="11897360.000000" r="93980.000000"/> 
</g>
<g style="fill-opacity: 1.0;stroke-width: 0.100000;stroke-opacity: 1;stroke-linecap: round;stroke-linejoin: round">
<circle cx="14342110.000000" cy="11897360.000000" r="93980.000000"/> 
</g>
<g style="fill-opacity: 1.0;stroke-width: 0.100000;stroke-opacity: 1;stroke-linecap: round;stroke-linejoin: round">
<circle cx="14596110.000000" cy="10627360.000000" r="93980.000000"/> 
</g>
<g style="fill-opacity: 1.0;stroke-width: 0.100000;stroke-opacity: 1;stroke-linecap: round;stroke-linejoin: round">
<circle cx="14596110.000000" cy="10881360.000000" r="93980.000000"/> 
</g>
<g style="fill-opacity: 1.0;stroke-width: 0.100000;stroke-opacity: 1;stroke-linecap: round;stroke-linejoin: round">
<circle cx="14596110.000000" cy="11135360.000000" r="93980.000000"/> 
</g>
<g style="fill-opacity: 0.0;stroke-width: 50800.000000;stroke-opacity: 1;stroke-linecap: round;stroke-linejoin: round">
<path d="M15612110 10627360 L15612110 10500360 "/>
<path d="M15485110 10373360 L14723110 10373360 "/>
<path d="M14596110 10500360 L14596110 10627360 "/>
<path d="M15612110 10500360 L15485110 10373360 "/>
<path d="M14723110 10373360 L14596110 10500360 "/>
<path d="M14088110 10881360 L14596110 10881360 "/>
<path d="M15104110 10881360 L15612110 10881360 "/>
<path d="M13834110 11262360 L13834110 9738360 "/>
<path d="M14215110 11389360 L13961110 11389360 "/>
<path d="M14786610 9865360 L14786610 9674860 "/>
<path d="M14596110 11135360 L14596110 11897360 "/>
<path d="M13961110 11389360 L13834110 11262360 "/>
<path d="M14469110 11135360 L14215110 11389360 "/>
<path d="M13961110 9611360 L14723110 9611360 "/>
<path d="M14786610 9674860 L14723110 9611360 "/>
<path d="M14596110 11135360 L14469110 11135360 "/>
<path d="M13834110 9738360 L13961110 9611360 "/>
<path d="M14850110 11389360 L15104110 11135360 "/>
<path d="M14850110 11897360 L14850110 11389360 "/>
<path d="M15485110 11389360 L15612110 11262360 "/>
<path d="M15104110 11643360 L15104110 11897360 "/>
<path d="M15358110 11389360 L15485110 11389360 "/>
<path d="M15358110 11389360 L15104110 11643360 "/>
<path d="M15612110 11262360 L15612110 11135360 "/>
</g>
<g style="fill-opacity: 0.0;stroke-width: 25400.000000;stroke-opacity: 1;stroke-linecap: round;stroke-linejoin: round">
<path d="M15040610 9865360 L15040610 10220960 "/>
<path d="M15040610 10220960 L15104110 10284460 "/>
<path d="M15104110 10284460 L15574010 10284460 "/>
<path d="M15574010 10284460 L15612110 10246360 "/>
<path d="M15612110 10246360 L16120110 10246360 "/>
<path d="M15485110 10119360 L15612110 9992360 "/>
<path d="M15612110 9992360 L16120110 9992360 "/>
<path d="M15167610 10119360 L15485110 10119360 "/>
<path d="M15612110 9738360 L16120110 9738360 "/>
<path d="M15485110 9865360 L15612110 9738360 "/>
<path d="M15294610 9865360 L15485110 9865360 "/>
</g>
</g> 
</g><g id="substrate-silk" style="fill:#f0f0f0; stroke:#f0f0f0;" mask="url(#pads-mask-silkscreen)"><g style="fill-opacity: 0.0;stroke-width: 26670.000000;stroke-opacity: 1;stroke-linecap: round;stroke-linejoin: round">
<text x="14278610.000000" y="10716260.000000" textLength="187113.400000" font-size="201506.600000" lengthAdjust="spacingAndGlyphs" text-anchor="start" opacity="0">-</text>
<g class="stroked-text"><desc>-</desc>
<path d="M14331928 10651490 L14447075 10651490 "/>
</g></g>
<g style="fill-opacity: 0.0;stroke-width: 19050.000000;stroke-opacity: 1;stroke-linecap: round;stroke-linejoin: round">
<text x="15510510.000000" y="10449560.000000" textLength="235149.600000" font-size="143933.300000" lengthAdjust="spacingAndGlyphs" text-anchor="start" opacity="0">UL</text>
<g class="stroked-text"><desc>UL</desc>
<path d="M15548594 10336469 L15548594 10423857 L15553735 10434138 L15558875 10439279 L15569156 10444419 L15589718 10444419 L15599999 10439279 L15605140 10434138 L15610280 10423857 L15610280 10336469 "/>
<path d="M15713090 10444419 L15661685 10444419 L15661685 10336469 "/>
</g></g>
<g style="fill-opacity: 0.0;stroke-width: 26670.000000;stroke-opacity: 1;stroke-linecap: round;stroke-linejoin: round">
<text x="14278610.000000" y="11224260.000000" textLength="175895.000000" font-size="201506.600000" lengthAdjust="spacingAndGlyphs" text-anchor="start" opacity="0">C</text>
<g class="stroked-text"><desc>C</desc>
<path d="M14418288 11202670 L14411092 11209866 L14389502 11217063 L14375108 11217063 L14353518 11209866 L14339125 11195473 L14331928 11181080 L14324732 11152293 L14324732 11130703 L14331928 11101916 L14339125 11087523 L14353518 11073130 L14375108 11065933 L14389502 11065933 L14411092 11073130 L14418288 11080326 "/>
</g></g>
<g style="fill-opacity: 0.0;stroke-width: 17145.000000;stroke-opacity: 1;stroke-linecap: round;stroke-linejoin: round">
<g transform="rotate(-90.000000 15840710.000000 10881360.000000)">
<text x="15840710.000000" y="10978515.000000" textLength="377026.700000" font-size="129540.000000" lengthAdjust="spacingAndGlyphs" text-anchor="middle" opacity="0">Load</text>
</g>
<g class="stroked-text"><desc>Load</desc>
<path d="M15933238 10983141 L15933238 11029405 L15836083 11029405 "/>
<path d="M15933238 10936877 L15928612 10946130 L15923985 10950756 L15914732 10955382 L15886974 10955382 L15877721 10950756 L15873095 10946130 L15868468 10936877 L15868468 10922997 L15873095 10913745 L15877721 10909118 L15886974 10904492 L15914732 10904492 L15923985 10909118 L15928612 10913745 L15933238 10922997 L15933238 10936877 "/>
<path d="M15933238 10821216 L15882347 10821216 L15873095 10825842 L15868468 10835095 L15868468 10853601 L15873095 10862854 "/>
<path d="M15928612 10821216 L15933238 10830469 L15933238 10853601 L15928612 10862854 L15919359 10867480 L15910106 10867480 L15900853 10862854 L15896227 10853601 L15896227 10830469 L15891600 10821216 "/>
<path d="M15933238 10733314 L15836083 10733314 "/>
<path d="M15928612 10733314 L15933238 10742567 L15933238 10761072 L15928612 10770325 L15923985 10774952 L15914732 10779578 L15886974 10779578 L15877721 10774952 L15873095 10770325 L15868468 10761072 L15868468 10742567 L15873095 10733314 "/>
</g></g>
<g style="fill-opacity: 0.0;stroke-width: 22860.000000;stroke-opacity: 1;stroke-linecap: round;stroke-linejoin: round">
<g transform="rotate(-90.000000 13757910.000000 11478260.000000)">
<text x="13757910.000000" y="11478260.000000" textLength="1681634.200000" font-size="172720.000000" lengthAdjust="spacingAndGlyphs" text-anchor="start" opacity="0">Load Combinator</text>
</g>
<g class="stroked-text"><desc>Load Combinator</desc>
<path d="M13751741 11370872 L13751741 11432558 L13622201 11432558 "/>
<path d="M13751741 11309186 L13745572 11321523 L13739404 11327692 L13727067 11333861 L13690055 11333861 L13677718 11327692 L13671550 11321523 L13665381 11309186 L13665381 11290681 L13671550 11278343 L13677718 11272175 L13690055 11266006 L13727067 11266006 L13739404 11272175 L13745572 11278343 L13751741 11290681 L13751741 11309186 "/>
<path d="M13751741 11154972 L13683887 11154972 L13671550 11161141 L13665381 11173478 L13665381 11198152 L13671550 11210489 "/>
<path d="M13745572 11154972 L13751741 11167309 L13751741 11198152 L13745572 11210489 L13733235 11216658 L13720898 11216658 L13708561 11210489 L13702392 11198152 L13702392 11167309 L13696224 11154972 "/>
<path d="M13751741 11037769 L13622201 11037769 "/>
<path d="M13745572 11037769 L13751741 11050106 L13751741 11074781 L13745572 11087118 L13739404 11093286 L13727067 11099455 L13690055 11099455 L13677718 11093286 L13671550 11087118 L13665381 11074781 L13665381 11050106 L13671550 11037769 "/>
<path d="M13739404 10803363 L13745572 10809532 L13751741 10828038 L13751741 10840375 L13745572 10858881 L13733235 10871218 L13720898 10877386 L13696224 10883555 L13677718 10883555 L13653044 10877386 L13640707 10871218 L13628370 10858881 L13622201 10840375 L13622201 10828038 L13628370 10809532 L13634538 10803363 "/>
<path d="M13751741 10729341 L13745572 10741678 L13739404 10747846 L13727067 10754015 L13690055 10754015 L13677718 10747846 L13671550 10741678 L13665381 10729341 L13665381 10710835 L13671550 10698498 L13677718 10692329 L13690055 10686161 L13727067 10686161 L13739404 10692329 L13745572 10698498 L13751741 10710835 L13751741 10729341 "/>
<path d="M13751741 10630643 L13665381 10630643 "/>
<path d="M13677718 10630643 L13671550 10624475 L13665381 10612138 L13665381 10593632 L13671550 10581295 L13683887 10575126 L13751741 10575126 "/>
<path d="M13683887 10575126 L13671550 10568958 L13665381 10556621 L13665381 10538115 L13671550 10525778 L13683887 10519609 L13751741 10519609 "/>
<path d="M13751741 10457923 L13622201 10457923 "/>
<path d="M13671550 10457923 L13665381 10445586 L13665381 10420912 L13671550 10408575 L13677718 10402406 L13690055 10396238 L13727067 10396238 L13739404 10402406 L13745572 10408575 L13751741 10420912 L13751741 10445586 L13745572 10457923 "/>
<path d="M13751741 10340721 L13665381 10340721 "/>
<path d="M13622201 10340721 L13628370 10346889 L13634538 10340721 L13628370 10334552 L13622201 10340721 L13634538 10340721 "/>
<path d="M13665381 10279035 L13751741 10279035 "/>
<path d="M13677718 10279035 L13671550 10272866 L13665381 10260529 L13665381 10242023 L13671550 10229686 L13683887 10223518 L13751741 10223518 "/>
<path d="M13751741 10106315 L13683887 10106315 L13671550 10112483 L13665381 10124821 L13665381 10149495 L13671550 10161832 "/>
<path d="M13745572 10106315 L13751741 10118652 L13751741 10149495 L13745572 10161832 L13733235 10168001 L13720898 10168001 L13708561 10161832 L13702392 10149495 L13702392 10118652 L13696224 10106315 "/>
<path d="M13665381 10063135 L13665381 10013786 "/>
<path d="M13622201 10044629 L13733235 10044629 L13745572 10038461 L13751741 10026123 L13751741 10013786 "/>
<path d="M13751741 9952101 L13745572 9964438 L13739404 9970606 L13727067 9976775 L13690055 9976775 L13677718 9970606 L13671550 9964438 L13665381 9952101 L13665381 9933595 L13671550 9921258 L13677718 9915089 L13690055 9908921 L13727067 9908921 L13739404 9915089 L13745572 9921258 L13751741 9933595 L13751741 9952101 "/>
<path d="M13751741 9853403 L13665381 9853403 "/>
<path d="M13690055 9853403 L13677718 9847235 L13671550 9841066 L13665381 9828729 L13665381 9816392 "/>
</g></g>
<g style="fill-opacity: 0.0;stroke-width: 19050.000000;stroke-opacity: 1;stroke-linecap: round;stroke-linejoin: round">
<g transform="rotate(-90.000000 14278610.000000 11376660.000000)">
<text x="14278610.000000" y="11484610.000000" textLength="333006.100000" font-size="143933.300000" lengthAdjust="spacingAndGlyphs" text-anchor="end" opacity="0">YLW</text>
</g>
<g class="stroked-text"><desc>YLW</desc>
<path d="M14330014 11646066 L14381419 11646066 "/>
<path d="M14273469 11682049 L14330014 11646066 L14273469 11610082 "/>
<path d="M14381419 11522694 L14381419 11574099 L14273469 11574099 "/>
<path d="M14273469 11496992 L14381419 11471290 L14304312 11450728 L14381419 11430166 L14273469 11404463 "/>
</g></g>
<g style="fill-opacity: 0.0;stroke-width: 26670.000000;stroke-opacity: 1;stroke-linecap: round;stroke-linejoin: round">
<text x="14786610.000000" y="10970260.000000" textLength="211878.300000" font-size="201506.600000" lengthAdjust="spacingAndGlyphs" text-anchor="start" opacity="0">+</text>
<g class="stroked-text"><desc>+</desc>
<path d="M14839928 10905490 L14955075 10905490 "/>
<path d="M14897502 10963063 L14897502 10847916 "/>
</g></g>
<g style="fill-opacity: 0.0;stroke-width: 19050.000000;stroke-opacity: 1;stroke-linecap: round;stroke-linejoin: round">
<text x="15002510.000000" y="10449560.000000" textLength="255711.500000" font-size="143933.300000" lengthAdjust="spacingAndGlyphs" text-anchor="start" opacity="0">UR</text>
<g class="stroked-text"><desc>UR</desc>
<path d="M15040594 10336469 L15040594 10423857 L15045735 10434138 L15050875 10439279 L15061156 10444419 L15081718 10444419 L15091999 10439279 L15097140 10434138 L15102280 10423857 L15102280 10336469 "/>
<path d="M15215371 10444419 L15179387 10393014 "/>
<path d="M15153685 10444419 L15153685 10336469 L15194809 10336469 L15205090 10341610 L15210230 10346750 L15215371 10357031 L15215371 10372452 L15210230 10382733 L15205090 10387874 L15194809 10393014 L15153685 10393014 "/>
</g></g>
<g style="fill-opacity: 0.0;stroke-width: 26670.000000;stroke-opacity: 1;stroke-linecap: round;stroke-linejoin: round">
<text x="15294610.000000" y="10970260.000000" textLength="211878.300000" font-size="201506.600000" lengthAdjust="spacingAndGlyphs" text-anchor="start" opacity="0">+</text>
<g class="stroked-text"><desc>+</desc>
<path d="M15347928 10905490 L15463075 10905490 "/>
<path d="M15405502 10963063 L15405502 10847916 "/>
</g><text x="15294610.000000" y="11224260.000000" textLength="185801.000000" font-size="201506.600000" lengthAdjust="spacingAndGlyphs" text-anchor="start" opacity="0">C</text>
<g class="stroked-text"><desc>C</desc>
<path d="M15434288 11202670 L15427092 11209866 L15405502 11217063 L15391108 11217063 L15369518 11209866 L15355125 11195473 L15347928 11181080 L15340732 11152293 L15340732 11130703 L15347928 11101916 L15355125 11087523 L15369518 11073130 L15391108 11065933 L15405502 11065933 L15427092 11073130 L15434288 11080326 "/>
</g><text x="14786610.000000" y="11224260.000000" textLength="185801.000000" font-size="201506.600000" lengthAdjust="spacingAndGlyphs" text-anchor="start" opacity="0">C</text>
<g class="stroked-text"><desc>C</desc>
<path d="M14926288 11202670 L14919092 11209866 L14897502 11217063 L14883108 11217063 L14861518 11209866 L14847125 11195473 L14839928 11181080 L14832732 11152293 L14832732 11130703 L14839928 11101916 L14847125 11087523 L14861518 11073130 L14883108 11065933 L14897502 11065933 L14919092 11073130 L14926288 11080326 "/>
</g></g>
<g style="fill-opacity: 0.0;stroke-width: 19050.000000;stroke-opacity: 1;stroke-linecap: round;stroke-linejoin: round">
<g transform="rotate(-90.000000 15040610.000000 11376660.000000)">
<text x="15040610.000000" y="11484610.000000" textLength="337959.100000" font-size="143933.300000" lengthAdjust="spacingAndGlyphs" text-anchor="end" opacity="0">BLK</text>
</g>
<g class="stroked-text"><desc>BLK</desc>
<path d="M15086874 11630644 L15092014 11615223 L15097155 11610082 L15107436 11604942 L15122857 11604942 L15133138 11610082 L15138279 11615223 L15143419 11625504 L15143419 11666628 L15035469 11666628 L15035469 11630644 L15040610 11620363 L15045750 11615223 L15056031 11610082 L15066312 11610082 L15076593 11615223 L15081733 11620363 L15086874 11630644 L15086874 11666628 "/>
<path d="M15143419 11507273 L15143419 11558678 L15035469 11558678 "/>
<path d="M15143419 11471290 L15035469 11471290 "/>
<path d="M15143419 11409604 L15081733 11455868 "/>
<path d="M15035469 11409604 L15097155 11471290 "/>
</g><text x="14494510.000000" y="10449560.000000" textLength="199541.200000" font-size="143933.300000" lengthAdjust="spacingAndGlyphs" text-anchor="start" opacity="0">LL</text>
<g class="stroked-text"><desc>LL</desc>
<path d="M14583999 10444419 L14532594 10444419 L14532594 10336469 "/>
<path d="M14671387 10444419 L14619982 10444419 L14619982 10336469 "/>
</g></g>
<g style="fill-opacity: 0.0;stroke-width: 26670.000000;stroke-opacity: 1;stroke-linecap: round;stroke-linejoin: round">
<text x="14545310.000000" y="9573260.000000" textLength="578908.300000" font-size="201506.600000" lengthAdjust="spacingAndGlyphs" text-anchor="start" opacity="0">RJ45</text>
<g class="stroked-text"><desc>RJ45</desc>
<path d="M14684988 9566063 L14634612 9494096 "/>
<path d="M14598628 9566063 L14598628 9414933 L14656202 9414933 L14670595 9422130 L14677792 9429326 L14684988 9443720 L14684988 9465310 L14677792 9479703 L14670595 9486900 L14656202 9494096 L14598628 9494096 "/>
<path d="M14792938 9414933 L14792938 9522883 L14785742 9544473 L14771348 9558866 L14749758 9566063 L14735365 9566063 "/>
<path d="M14929675 9465310 L14929675 9566063 "/>
<path d="M14893692 9407736 L14857708 9515686 L14951265 9515686 "/>
<path d="M15080805 9414933 L15008838 9414933 L15001642 9486900 L15008838 9479703 L15023232 9472506 L15059215 9472506 L15073608 9479703 L15080805 9486900 L15088002 9501293 L15088002 9537276 L15080805 9551670 L15073608 9558866 L15059215 9566063 L15023232 9566063 L15008838 9558866 L15001642 9551670 "/>
</g></g>
<g style="fill-opacity: 0.0;stroke-width: 19050.000000;stroke-opacity: 1;stroke-linecap: round;stroke-linejoin: round">
<g transform="rotate(-90.000000 14786610.000000 11376660.000000)">
<text x="14786610.000000" y="11484610.000000" textLength="353380.500000" font-size="143933.300000" lengthAdjust="spacingAndGlyphs" text-anchor="end" opacity="0">WHT</text>
</g>
<g class="stroked-text"><desc>WHT</desc>
<path d="M14781469 11692330 L14889419 11666628 L14812312 11646066 L14889419 11625504 L14781469 11599802 "/>
<path d="M14889419 11558678 L14781469 11558678 "/>
<path d="M14832874 11558678 L14832874 11496992 "/>
<path d="M14889419 11496992 L14781469 11496992 "/>
<path d="M14781469 11461009 L14781469 11399323 "/>
<path d="M14889419 11430166 L14781469 11430166 "/>
</g></g>
<g style="fill-opacity: 0.0;stroke-width: 17145.000000;stroke-opacity: 1;stroke-linecap: round;stroke-linejoin: round">
<g transform="rotate(-90.000000 16031210.000000 10881360.000000)">
<text x="16031210.000000" y="10978515.000000" textLength="593815.700000" font-size="129540.000000" lengthAdjust="spacingAndGlyphs" text-anchor="middle" opacity="0">Sensors</text>
</g>
<g class="stroked-text"><desc>Sensors</desc>
<path d="M16119112 11147379 L16123738 11133500 L16123738 11110368 L16119112 11101115 L16114485 11096488 L16105232 11091862 L16095980 11091862 L16086727 11096488 L16082100 11101115 L16077474 11110368 L16072847 11128873 L16068221 11138126 L16063595 11142753 L16054342 11147379 L16045089 11147379 L16035836 11142753 L16031210 11138126 L16026583 11128873 L16026583 11105741 L16031210 11091862 "/>
<path d="M16119112 11013213 L16123738 11022466 L16123738 11040971 L16119112 11050224 L16109859 11054851 L16072847 11054851 L16063595 11050224 L16058968 11040971 L16058968 11022466 L16063595 11013213 L16072847 11008586 L16082100 11008586 L16091353 11054851 "/>
<path d="M16058968 10966948 L16123738 10966948 "/>
<path d="M16068221 10966948 L16063595 10962322 L16058968 10953069 L16058968 10939190 L16063595 10929937 L16072847 10925311 L16123738 10925311 "/>
<path d="M16119112 10883673 L16123738 10874420 L16123738 10855914 L16119112 10846661 L16109859 10842035 L16105232 10842035 L16095980 10846661 L16091353 10855914 L16091353 10869793 L16086727 10879046 L16077474 10883673 L16072847 10883673 L16063595 10879046 L16058968 10869793 L16058968 10855914 L16063595 10846661 "/>
<path d="M16123738 10786518 L16119112 10795771 L16114485 10800397 L16105232 10805023 L16077474 10805023 L16068221 10800397 L16063595 10795771 L16058968 10786518 L16058968 10772638 L16063595 10763386 L16068221 10758759 L16077474 10754133 L16105232 10754133 L16114485 10758759 L16119112 10763386 L16123738 10772638 L16123738 10786518 "/>
<path d="M16123738 10712495 L16058968 10712495 "/>
<path d="M16077474 10712495 L16068221 10707868 L16063595 10703242 L16058968 10693989 L16058968 10684736 "/>
<path d="M16119112 10656978 L16123738 10647725 L16123738 10629219 L16119112 10619966 L16109859 10615340 L16105232 10615340 L16095980 10619966 L16091353 10629219 L16091353 10643098 L16086727 10652351 L16077474 10656978 L16072847 10656978 L16063595 10652351 L16058968 10643098 L16058968 10629219 L16063595 10619966 "/>
</g></g>
<g style="fill-opacity: 0.0;stroke-width: 26670.000000;stroke-opacity: 1;stroke-linecap: round;stroke-linejoin: round">
<text x="14786610.000000" y="10716260.000000" textLength="209401.800000" font-size="201506.600000" lengthAdjust="spacingAndGlyphs" text-anchor="start" opacity="0">-</text>
<g class="stroked-text"><desc>-</desc>
<path d="M14839928 10651490 L14955075 10651490 "/>
</g></g>
<g style="fill-opacity: 0.0;stroke-width: 19050.000000;stroke-opacity: 1;stroke-linecap: round;stroke-linejoin: round">
<text x="15980410.000000" y="10290810.000000" textLength="230009.100000" font-size="143933.300000" lengthAdjust="spacingAndGlyphs" text-anchor="end" opacity="0">5V</text>
<g class="stroked-text"><desc>5V</desc>
<path d="M15849796 10177719 L15798391 10177719 L15793251 10229124 L15798391 10223983 L15808672 10218843 L15834375 10218843 L15844656 10223983 L15849796 10229124 L15854937 10239405 L15854937 10265107 L15849796 10275388 L15844656 10280529 L15834375 10285669 L15808672 10285669 L15798391 10280529 L15793251 10275388 "/>
<path d="M15885779 10177719 L15921763 10285669 L15957746 10177719 "/>
</g><text x="15980410.000000" y="10036810.000000" textLength="286929.300000" font-size="143933.300000" lengthAdjust="spacingAndGlyphs" text-anchor="end" opacity="0">SIG</text>
<g class="stroked-text"><desc>SIG</desc>
<path d="M15726425 10026529 L15741846 10031669 L15767548 10031669 L15777829 10026529 L15782970 10021388 L15788110 10011107 L15788110 10000826 L15782970 9990545 L15777829 9985405 L15767548 9980264 L15746987 9975124 L15736706 9969983 L15731565 9964843 L15726425 9954562 L15726425 9944281 L15731565 9934000 L15736706 9928860 L15746987 9923719 L15772689 9923719 L15788110 9928860 "/>
<path d="M15834375 10031669 L15834375 9923719 "/>
<path d="M15942325 9928860 L15932044 9923719 L15916622 9923719 L15901201 9928860 L15890920 9939140 L15885779 9949421 L15880639 9969983 L15880639 9985405 L15885779 10005967 L15890920 10016248 L15901201 10026529 L15916622 10031669 L15926903 10031669 L15942325 10026529 L15947465 10021388 L15947465 9985405 L15926903 9985405 "/>
</g><g transform="rotate(-90.000000 14532610.000000 11376660.000000)">
<text x="14532610.000000" y="11484610.000000" textLength="353755.500000" font-size="143933.300000" lengthAdjust="spacingAndGlyphs" text-anchor="end" opacity="0">GRN</text>
</g>
<g class="stroked-text"><desc>GRN</desc>
<path d="M14532610 11635785 L14527469 11646066 L14527469 11661487 L14532610 11676909 L14542890 11687190 L14553171 11692330 L14573733 11697471 L14589155 11697471 L14609717 11692330 L14619998 11687190 L14630279 11676909 L14635419 11661487 L14635419 11651206 L14630279 11635785 L14625138 11630644 L14589155 11630644 L14589155 11651206 "/>
<path d="M14635419 11522694 L14584014 11558678 "/>
<path d="M14635419 11584380 L14527469 11584380 L14527469 11543256 L14532610 11532975 L14537750 11527835 L14548031 11522694 L14563452 11522694 L14573733 11527835 L14578874 11532975 L14584014 11543256 L14584014 11584380 "/>
<path d="M14635419 11476430 L14527469 11476430 L14635419 11414744 L14527469 11414744 "/>
</g><text x="15980410.000000" y="9782810.000000" textLength="353755.500000" font-size="143933.300000" lengthAdjust="spacingAndGlyphs" text-anchor="end" opacity="0">GND</text>
<g class="stroked-text"><desc>GND</desc>
<path d="M15721284 9674860 L15711003 9669719 L15695582 9669719 L15680160 9674860 L15669879 9685140 L15664739 9695421 L15659598 9715983 L15659598 9731405 L15664739 9751967 L15669879 9762248 L15680160 9772529 L15695582 9777669 L15705863 9777669 L15721284 9772529 L15726425 9767388 L15726425 9731405 L15705863 9731405 "/>
<path d="M15772689 9777669 L15772689 9669719 L15834375 9777669 L15834375 9669719 "/>
<path d="M15885779 9777669 L15885779 9669719 L15911482 9669719 L15926903 9674860 L15937184 9685140 L15942325 9695421 L15947465 9715983 L15947465 9731405 L15942325 9751967 L15937184 9762248 L15926903 9772529 L15911482 9777669 L15885779 9777669 "/>
</g><g transform="rotate(-90.000000 15294610.000000 11376660.000000)">
<text x="15294610.000000" y="11484610.000000" textLength="338334.000000" font-size="143933.300000" lengthAdjust="spacingAndGlyphs" text-anchor="end" opacity="0">RED</text>
</g>
<g class="stroked-text"><desc>RED</desc>
<path d="M15397419 11615223 L15346014 11651206 "/>
<path d="M15397419 11676909 L15289469 11676909 L15289469 11635785 L15294610 11625504 L15299750 11620363 L15310031 11615223 L15325452 11615223 L15335733 11620363 L15340874 11625504 L15346014 11635785 L15346014 11676909 "/>
<path d="M15340874 11568959 L15340874 11532975 "/>
<path d="M15397419 11517554 L15397419 11568959 L15289469 11568959 L15289469 11517554 "/>
<path d="M15397419 11471290 L15289469 11471290 L15289469 11445587 L15294610 11430166 L15304890 11419885 L15315171 11414744 L15335733 11409604 L15351155 11409604 L15371717 11414744 L15381998 11419885 L15392279 11430166 L15397419 11445587 L15397419 11471290 "/>
</g></g>
<g style="fill-opacity: 0.0;stroke-width: 26670.000000;stroke-opacity: 1;stroke-linecap: round;stroke-linejoin: round">
<text x="15294610.000000" y="10716260.000000" textLength="211878.300000" font-size="201506.600000" lengthAdjust="spacingAndGlyphs" text-anchor="start" opacity="0">-</text>
<g class="stroked-text"><desc>-</desc>
<path d="M15347928 10651490 L15463075 10651490 "/>
</g><text x="14278610.000000" y="10970260.000000" textLength="221784.300000" font-size="201506.600000" lengthAdjust="spacingAndGlyphs" text-anchor="start" opacity="0">+</text>
<g class="stroked-text"><desc>+</desc>
<path d="M14331928 10905490 L14447075 10905490 "/>
<path d="M14389502 10963063 L14389502 10847916 "/>
</g></g>
<g style="fill-opacity: 0.0;stroke-width: 19050.000000;stroke-opacity: 1;stroke-linecap: round;stroke-linejoin: round">
<text x="13986510.000000" y="10449560.000000" textLength="230009.100000" font-size="143933.300000" lengthAdjust="spacingAndGlyphs" text-anchor="start" opacity="0">LR</text>
<g class="stroked-text"><desc>LR</desc>
<path d="M14075999 10444419 L14024594 10444419 L14024594 10336469 "/>
<path d="M14173668 10444419 L14137685 10393014 "/>
<path d="M14111982 10444419 L14111982 10336469 L14153106 10336469 L14163387 10341610 L14168528 10346750 L14173668 10357031 L14173668 10372452 L14168528 10382733 L14163387 10387874 L14153106 10393014 L14111982 10393014 "/>
</g></g>
<g style="fill-opacity: 0.0;stroke-width: 12700.000000;stroke-opacity: 1;stroke-linecap: round;stroke-linejoin: round">
<g transform="rotate(-90.000000 16302990.000000 9603740.000000)">
<text x="16302990.000000" y="9603740.000000" textLength="335007.900000" font-size="152400.000000" lengthAdjust="spacingAndGlyphs" text-anchor="start" opacity="0">JP7</text>
</g>
<g class="stroked-text"><desc>JP7</desc>
<path d="M16183247 9535613 L16264890 9535613 L16281218 9541056 L16292104 9551942 L16297547 9568270 L16297547 9579156 "/>
<path d="M16297547 9481185 L16183247 9481185 L16183247 9437642 L16188690 9426756 L16194132 9421313 L16205018 9415870 L16221347 9415870 L16232232 9421313 L16237675 9426756 L16243118 9437642 L16243118 9481185 "/>
<path d="M16183247 9377770 L16183247 9301570 L16297547 9350556 "/>
</g><g transform="rotate(-90.000000 14270990.000000 10492740.000000)">
<text x="14270990.000000" y="10492740.000000" textLength="326752.900000" font-size="152400.000000" lengthAdjust="spacingAndGlyphs" text-anchor="start" opacity="0">JP4</text>
</g>
<g class="stroked-text"><desc>JP4</desc>
<path d="M14151247 10424613 L14232890 10424613 L14249218 10430056 L14260104 10440942 L14265547 10457270 L14265547 10468156 "/>
<path d="M14265547 10370185 L14151247 10370185 L14151247 10326642 L14156690 10315756 L14162132 10310313 L14173018 10304870 L14189347 10304870 L14200232 10310313 L14205675 10315756 L14211118 10326642 L14211118 10370185 "/>
<path d="M14189347 10206899 L14265547 10206899 "/>
<path d="M14145804 10234113 L14227447 10261327 L14227447 10190570 "/>
</g><g transform="rotate(-90.000000 15794990.000000 10492740.000000)">
<text x="15794990.000000" y="10492740.000000" textLength="326752.900000" font-size="152400.000000" lengthAdjust="spacingAndGlyphs" text-anchor="start" opacity="0">JP1</text>
</g>
<g class="stroked-text"><desc>JP1</desc>
<path d="M15675247 10424613 L15756890 10424613 L15773218 10430056 L15784104 10440942 L15789547 10457270 L15789547 10468156 "/>
<path d="M15789547 10370185 L15675247 10370185 L15675247 10326642 L15680690 10315756 L15686132 10310313 L15697018 10304870 L15713347 10304870 L15724232 10310313 L15729675 10315756 L15735118 10326642 L15735118 10370185 "/>
<path d="M15789547 10196013 L15789547 10261327 "/>
<path d="M15789547 10228670 L15675247 10228670 L15691575 10239556 L15702461 10250442 L15707904 10261327 "/>
</g><g transform="rotate(-90.000000 15286990.000000 10492740.000000)">
<text x="15286990.000000" y="10492740.000000" textLength="326752.900000" font-size="152400.000000" lengthAdjust="spacingAndGlyphs" text-anchor="start" opacity="0">JP2</text>
</g>
<g class="stroked-text"><desc>JP2</desc>
<path d="M15167247 10424613 L15248890 10424613 L15265218 10430056 L15276104 10440942 L15281547 10457270 L15281547 10468156 "/>
<path d="M15281547 10370185 L15167247 10370185 L15167247 10326642 L15172690 10315756 L15178132 10310313 L15189018 10304870 L15205347 10304870 L15216232 10310313 L15221675 10315756 L15227118 10326642 L15227118 10370185 "/>
<path d="M15178132 10261327 L15172690 10255885 L15167247 10244999 L15167247 10217785 L15172690 10206899 L15178132 10201456 L15189018 10196013 L15199904 10196013 L15216232 10201456 L15281547 10266770 L15281547 10196013 "/>
</g><text x="15492730.000000" y="12194540.000000" textLength="326752.900000" font-size="152400.000000" lengthAdjust="spacingAndGlyphs" text-anchor="end" opacity="0">JP5</text>
<g class="stroked-text"><desc>JP5</desc>
<path d="M15234103 12074797 L15234103 12156440 L15228660 12172768 L15217775 12183654 L15201446 12189097 L15190560 12189097 "/>
<path d="M15288532 12189097 L15288532 12074797 L15332075 12074797 L15342960 12080240 L15348403 12085682 L15353846 12096568 L15353846 12112897 L15348403 12123782 L15342960 12129225 L15332075 12134668 L15288532 12134668 "/>
<path d="M15457260 12074797 L15402832 12074797 L15397389 12129225 L15402832 12123782 L15413717 12118340 L15440932 12118340 L15451817 12123782 L15457260 12129225 L15462703 12140111 L15462703 12167325 L15457260 12178211 L15451817 12183654 L15440932 12189097 L15413717 12189097 L15402832 12183654 L15397389 12178211 "/>
</g><g transform="rotate(-90.000000 14778990.000000 10492740.000000)">
<text x="14778990.000000" y="10492740.000000" textLength="326752.900000" font-size="152400.000000" lengthAdjust="spacingAndGlyphs" text-anchor="start" opacity="0">JP3</text>
</g>
<g class="stroked-text"><desc>JP3</desc>
<path d="M14659247 10424613 L14740890 10424613 L14757218 10430056 L14768104 10440942 L14773547 10457270 L14773547 10468156 "/>
<path d="M14773547 10370185 L14659247 10370185 L14659247 10326642 L14664690 10315756 L14670132 10310313 L14681018 10304870 L14697347 10304870 L14708232 10310313 L14713675 10315756 L14719118 10326642 L14719118 10370185 "/>
<path d="M14659247 10266770 L14659247 10196013 L14702790 10234113 L14702790 10217785 L14708232 10206899 L14713675 10201456 L14724561 10196013 L14751775 10196013 L14762661 10201456 L14768104 10206899 L14773547 10217785 L14773547 10250442 L14768104 10261327 L14762661 10266770 "/>
</g></g>
<g style="fill-opacity: 1.0;stroke-width: 0.100000;stroke-opacity: 1;stroke-linecap: round;stroke-linejoin: round">
<path style="fill-opacity: 1.0;stroke-width: 0.100000;stroke-opacity: 1;stroke-linecap: round;stroke-linejoin: round;fill-rule: evenodd" d="M 14075878.600000,11609885.300000 14089973.900000,11616932.900000 14094038.400000,11619981.300000 14095917.100000,11621860.000000 14093592.000000,11621860.000000 14091592.000000,11620860.000000 14085771.700000,11620860.000000 14081819.700000,11621848.000000 14076873.600000,11622837.200000 14072974.000000,11624787.000000 14069078.500000,11627708.600000 14067143.200000,11630611.600000 14066173.000000,11632552.000000 14065210.000000,11635441.000000 14065210.000000,11641298.300000 14066174.100000,11645154.800000 14070098.400000,11651041.200000 14076038.800000,11656981.600000 14079998.800000,11659951.600000 14082961.600000,11661926.800000 14086884.300000,11663888.100000 14094771.700000,11665860.000000 14097629.000000,11665860.000000 14100439.700000,11664923.100000 14103299.200000,11662063.600000 14104247.000000,11660168.000000 14105210.000000,11657279.000000 14105210.000000,11647457.900000 14114036.000000,11652974.100000 14122110.300000,11662057.800000 14129164.900000,11673143.500000 14134195.100000,11688234.300000 14137212.700000,11704328.100000 14136206.200000,11721439.100000 14131177.600000,11740548.000000 14121128.400000,11758636.500000 14114085.600000,11767691.500000 14106051.800000,11775725.300000 14098005.600000,11782765.700000 14087932.900000,11788809.400000 14077869.100000,11792834.900000 14066817.200000,11795849.000000 14054751.400000,11797860.000000 14035751.400000,11797860.000000 14029885.700000,11798837.600000 14020020.400000,11804756.800000 14010076.400000,11814700.800000 13998077.100000,11828700.000000 13986079.100000,11840698.100000 13981079.600000,11846697.500000 13976106.800000,11851670.400000 13973107.100000,11856670.000000 13967210.000000,11862567.100000 13967210.000000,11724328.900000 13968218.600000,11716259.700000 13970247.300000,11709159.300000 13976327.500000,11699025.700000 13981403.800000,11694964.700000 13985462.900000,11691920.300000 13990566.900000,11689878.700000 13995619.800000,11688868.100000 14001668.600000,11687860.000000 14013828.000000,11687860.000000 14018554.100000,11690223.000000 14017006.200000,11691770.900000 14012901.800000,11693823.100000 14009980.300000,11694796.900000 14004146.900000,11700630.300000 14003210.000000,11703441.000000 14003210.000000,11707279.000000 14004163.100000,11710138.200000 14006098.400000,11713041.200000 14011991.200000,11718934.000000 14016852.800000,11720878.600000 14021759.600000,11721860.000000 14029648.300000,11721860.000000 14037504.800000,11719895.900000 14043368.200000,11715986.900000 14047263.900000,11711117.300000 14049210.000000,11705279.000000 14049210.000000,11698450.800000 14046279.800000,11690637.000000 14039346.100000,11683703.200000 14031335.000000,11674690.700000 14024298.700000,11666649.300000 14019237.700000,11657539.300000 14017210.000000,11648414.900000 14017210.000000,11640278.900000 14020254.500000,11631145.400000 14025333.000000,11623019.800000 14034435.000000,11615940.500000 14045541.300000,11609882.500000 14056664.900000,11607860.000000 14066764.900000,11607860.000000 Z"/> 
</g>
<g style="fill-opacity: 0.0;stroke-width: 20320.000000;stroke-opacity: 1;stroke-linecap: round;stroke-linejoin: round">
<path d="M16247110 10309860 L16183610 10373360 "/>
<path d="M15993110 9928860 L16056610 9865360 "/>
<path d="M16183610 9865360 L16247110 9928860 "/>
<path d="M16056610 9611360 L15993110 9674860 "/>
<path d="M16056610 10373360 L15993110 10309860 "/>
<path d="M16247110 9674860 L16247110 9801860 "/>
<path d="M16247110 9928860 L16247110 10055860 "/>
<path d="M15993110 10055860 L15993110 9928860 "/>
<path d="M16247110 9674860 L16183610 9611360 "/>
<path d="M16056610 10119360 L15993110 10055860 "/>
<path d="M15993110 10182860 L16056610 10119360 "/>
<path d="M16183610 9611360 L16056610 9611360 "/>
<path d="M16247110 10182860 L16247110 10309860 "/>
<path d="M16183610 10373360 L16056610 10373360 "/>
<path d="M16247110 9801860 L16183610 9865360 "/>
<path d="M16056610 9865360 L15993110 9801860 "/>
<path d="M16247110 10055860 L16183610 10119360 "/>
<path d="M15993110 9801860 L15993110 9674860 "/>
<path d="M15993110 10309860 L15993110 10182860 "/>
<path d="M16183610 10119360 L16247110 10182860 "/>
<path d="M14151610 11262360 L14024610 11262360 "/>
<path d="M14215110 10563860 L14215110 10690860 "/>
<path d="M13961110 10690860 L13961110 10563860 "/>
<path d="M14151610 10500360 L14024610 10500360 "/>
<path d="M14151610 11008360 L14215110 11071860 "/>
<path d="M14215110 10817860 L14215110 10944860 "/>
<path d="M13961110 11198860 L13961110 11071860 "/>
<path d="M14215110 10944860 L14151610 11008360 "/>
<path d="M14215110 11071860 L14215110 11198860 "/>
<path d="M14215110 11198860 L14151610 11262360 "/>
<path d="M14215110 10563860 L14151610 10500360 "/>
<path d="M14151610 10754360 L14215110 10817860 "/>
<path d="M14024610 11262360 L13961110 11198860 "/>
<path d="M14215110 10690860 L14151610 10754360 "/>
<path d="M13961110 11071860 L14024610 11008360 "/>
<path d="M14024610 10754360 L13961110 10690860 "/>
<path d="M14024610 11008360 L13961110 10944860 "/>
<path d="M14024610 10500360 L13961110 10563860 "/>
<path d="M13961110 10817860 L14024610 10754360 "/>
<path d="M13961110 10944860 L13961110 10817860 "/>
<path d="M15739110 10944860 L15675610 11008360 "/>
<path d="M15739110 10563860 L15675610 10500360 "/>
<path d="M15675610 11262360 L15548610 11262360 "/>
<path d="M15675610 10500360 L15548610 10500360 "/>
<path d="M15739110 11198860 L15675610 11262360 "/>
<path d="M15485110 11071860 L15548610 11008360 "/>
<path d="M15548610 11262360 L15485110 11198860 "/>
<path d="M15485110 10817860 L15548610 10754360 "/>
<path d="M15739110 11071860 L15739110 11198860 "/>
<path d="M15739110 10563860 L15739110 10690860 "/>
<path d="M15548610 11008360 L15485110 10944860 "/>
<path d="M15485110 10690860 L15485110 10563860 "/>
<path d="M15548610 10500360 L15485110 10563860 "/>
<path d="M15739110 10690860 L15675610 10754360 "/>
<path d="M15548610 10754360 L15485110 10690860 "/>
<path d="M15675610 10754360 L15739110 10817860 "/>
<path d="M15675610 11008360 L15739110 11071860 "/>
<path d="M15485110 10944860 L15485110 10817860 "/>
<path d="M15485110 11198860 L15485110 11071860 "/>
<path d="M15739110 10817860 L15739110 10944860 "/>
<path d="M15167610 10754360 L15231110 10817860 "/>
<path d="M14977110 11198860 L14977110 11071860 "/>
<path d="M15231110 10817860 L15231110 10944860 "/>
<path d="M14977110 10690860 L14977110 10563860 "/>
<path d="M14977110 11071860 L15040610 11008360 "/>
<path d="M15231110 10944860 L15167610 11008360 "/>
<path d="M15231110 10563860 L15167610 10500360 "/>
<path d="M15040610 10500360 L14977110 10563860 "/>
<path d="M15231110 10690860 L15167610 10754360 "/>
<path d="M15040610 11262360 L14977110 11198860 "/>
<path d="M15231110 11071860 L15231110 11198860 "/>
<path d="M14977110 10944860 L14977110 10817860 "/>
<path d="M15040610 10754360 L14977110 10690860 "/>
<path d="M15231110 10563860 L15231110 10690860 "/>
<path d="M14977110 10817860 L15040610 10754360 "/>
<path d="M15167610 11008360 L15231110 11071860 "/>
<path d="M15040610 11008360 L14977110 10944860 "/>
<path d="M15167610 11262360 L15040610 11262360 "/>
<path d="M15231110 11198860 L15167610 11262360 "/>
<path d="M15167610 10500360 L15040610 10500360 "/>
<path d="M15612110 8930360 L14088110 8930360 "/>
<path d="M14088110 10230360 L14088110 8930360 "/>
<path d="M15612110 10230360 L14088110 10230360 "/>
<path d="M15612110 8930360 L15612110 10230360 "/>
<path d="M14469110 11960860 L14405610 12024360 "/>
<path d="M14278610 12024360 L14215110 11960860 "/>
<path d="M14659610 12024360 L14532610 12024360 "/>
<path d="M15040610 12024360 L14977110 11960860 "/>
<path d="M15421610 12024360 L15485110 11960860 "/>
<path d="M15485110 11960860 L15485110 11833860 "/>
<path d="M15294610 11770360 L15421610 11770360 "/>
<path d="M14469110 11833860 L14532610 11770360 "/>
<path d="M14215110 11960860 L14215110 11833860 "/>
<path d="M14532610 12024360 L14469110 11960860 "/>
<path d="M14405610 12024360 L14278610 12024360 "/>
<path d="M15231110 11833860 L15294610 11770360 "/>
<path d="M15167610 12024360 L15040610 12024360 "/>
<path d="M15294610 12024360 L15231110 11960860 "/>
<path d="M14977110 11960860 L14913610 12024360 "/>
<path d="M14913610 11770360 L14977110 11833860 "/>
<path d="M14532610 11770360 L14659610 11770360 "/>
<path d="M15421610 12024360 L15294610 12024360 "/>
<path d="M14977110 11833860 L15040610 11770360 "/>
<path d="M14659610 12024360 L14723110 11960860 "/>
<path d="M14786610 12024360 L14723110 11960860 "/>
<path d="M14405610 11770360 L14469110 11833860 "/>
<path d="M15040610 11770360 L15167610 11770360 "/>
<path d="M14723110 11833860 L14786610 11770360 "/>
<path d="M15231110 11960860 L15167610 12024360 "/>
<path d="M15167610 11770360 L15231110 11833860 "/>
<path d="M14913610 12024360 L14786610 12024360 "/>
<path d="M15485110 11833860 L15421610 11770360 "/>
<path d="M14786610 11770360 L14913610 11770360 "/>
<path d="M14278610 11770360 L14405610 11770360 "/>
<path d="M14215110 11833860 L14278610 11770360 "/>
<path d="M14723110 11833860 L14659610 11770360 "/>
<path d="M14659610 10500360 L14532610 10500360 "/>
<path d="M14469110 11198860 L14469110 11071860 "/>
<path d="M14532610 11262360 L14469110 11198860 "/>
<path d="M14723110 10690860 L14659610 10754360 "/>
<path d="M14532610 10500360 L14469110 10563860 "/>
<path d="M14723110 10563860 L14723110 10690860 "/>
<path d="M14723110 11071860 L14723110 11198860 "/>
<path d="M14469110 11071860 L14532610 11008360 "/>
<path d="M14723110 10563860 L14659610 10500360 "/>
<path d="M14723110 11198860 L14659610 11262360 "/>
<path d="M14532610 10754360 L14469110 10690860 "/>
<path d="M14469110 10817860 L14532610 10754360 "/>
<path d="M14723110 10944860 L14659610 11008360 "/>
<path d="M14532610 11008360 L14469110 10944860 "/>
<path d="M14659610 10754360 L14723110 10817860 "/>
<path d="M14723110 10817860 L14723110 10944860 "/>
<path d="M14659610 11008360 L14723110 11071860 "/>
<path d="M14469110 10690860 L14469110 10563860 "/>
<path d="M14469110 10944860 L14469110 10817860 "/>
<path d="M14659610 11262360 L14532610 11262360 "/>
</g> 
</g><g id="substrate-outline" style="fill:#000000; stroke:#000000; stroke-width: 15000.0"><g style="fill-opacity: 0.0;stroke-opacity: 1;stroke-linecap: round;stroke-linejoin: round">
<path d="M13453110 12024360 L13453110 8976360 "/>
<path d="M16247110 12024360 L13453110 12024360 "/>
<path d="M16247110 8976360 L16247110 12024360 "/>
<path d="M13453110 8976360 L16247110 8976360 "/>
</g> 
<path d="M -165100.0 0.0 A 165100.0 165100.0 0 1 1 165100.0 0.0 L 165100.0 -0.0 A 165100.0 165100.0 0 1 1 -165100.0 -0.0 Z" transform="translate(15993110.0 9230360.0) rotate(-180.0)"/><path d="M -50800.0 0.0 A 50800.0 50800.0 0 1 1 50800.0 0.0 L 50800.0 -0.0 A 50800.0 50800.0 0 1 1 -50800.0 -0.0 Z" transform="translate(16120110.0 9738360.0) rotate(-0.0)"/><path d="M -50800.0 0.0 A 50800.0 50800.0 0 1 1 50800.0 0.0 L 50800.0 -0.0 A 50800.0 50800.0 0 1 1 -50800.0 -0.0 Z" transform="translate(16120110.0 9992360.0) rotate(-0.0)"/><path d="M -50800.0 0.0 A 50800.0 50800.0 0 1 1 50800.0 0.0 L 50800.0 -0.0 A 50800.0 50800.0 0 1 1 -50800.0 -0.0 Z" transform="translate(16120110.0 10246360.0) rotate(-0.0)"/><path d="M -50800.0 0.0 A 50800.0 50800.0 0 1 1 50800.0 0.0 L 50800.0 -0.0 A 50800.0 50800.0 0 1 1 -50800.0 -0.0 Z" transform="translate(14088110.0 10627360.0) rotate(-0.0)"/><path d="M -50800.0 0.0 A 50800.0 50800.0 0 1 1 50800.0 0.0 L 50800.0 -0.0 A 50800.0 50800.0 0 1 1 -50800.0 -0.0 Z" transform="translate(14088110.0 10881360.0) rotate(-0.0)"/><path d="M -50800.0 0.0 A 50800.0 50800.0 0 1 1 50800.0 0.0 L 50800.0 -0.0 A 50800.0 50800.0 0 1 1 -50800.0 -0.0 Z" transform="translate(14088110.0 11135360.0) rotate(-0.0)"/><path d="M -165100.0 0.0 A 165100.0 165100.0 0 1 1 165100.0 0.0 L 165100.0 -0.0 A 165100.0 165100.0 0 1 1 -165100.0 -0.0 Z" transform="translate(13707110.0 11770360.0) rotate(-180.0)"/><path d="M -165100.0 0.0 A 165100.0 165100.0 0 1 1 165100.0 0.0 L 165100.0 -0.0 A 165100.0 165100.0 0 1 1 -165100.0 -0.0 Z" transform="translate(13707110.0 9230360.0) rotate(-180.0)"/><path d="M -50800.0 0.0 A 50800.0 50800.0 0 1 1 50800.0 0.0 L 50800.0 -0.0 A 50800.0 50800.0 0 1 1 -50800.0 -0.0 Z" transform="translate(15612110.0 10627360.0) rotate(-0.0)"/><path d="M -50800.0 0.0 A 50800.0 50800.0 0 1 1 50800.0 0.0 L 50800.0 -0.0 A 50800.0 50800.0 0 1 1 -50800.0 -0.0 Z" transform="translate(15612110.0 10881360.0) rotate(-0.0)"/><path d="M -50800.0 0.0 A 50800.0 50800.0 0 1 1 50800.0 0.0 L 50800.0 -0.0 A 50800.0 50800.0 0 1 1 -50800.0 -0.0 Z" transform="translate(15612110.0 11135360.0) rotate(-0.0)"/><path d="M -165100.0 0.0 A 165100.0 165100.0 0 1 1 165100.0 0.0 L 165100.0 -0.0 A 165100.0 165100.0 0 1 1 -165100.0 -0.0 Z" transform="translate(15993110.0 11770360.0) rotate(-180.0)"/><path d="M -50800.0 0.0 A 50800.0 50800.0 0 1 1 50800.0 0.0 L 50800.0 -0.0 A 50800.0 50800.0 0 1 1 -50800.0 -0.0 Z" transform="translate(15104110.0 10627360.0) rotate(-0.0)"/><path d="M -50800.0 0.0 A 50800.0 50800.0 0 1 1 50800.0 0.0 L 50800.0 -0.0 A 50800.0 50800.0 0 1 1 -50800.0 -0.0 Z" transform="translate(15104110.0 10881360.0) rotate(-0.0)"/><path d="M -50800.0 0.0 A 50800.0 50800.0 0 1 1 50800.0 0.0 L 50800.0 -0.0 A 50800.0 50800.0 0 1 1 -50800.0 -0.0 Z" transform="translate(15104110.0 11135360.0) rotate(-0.0)"/><path d="M -160000.0 0.0 A 160000.0 160000.0 0 1 1 160000.0 0.0 L 160000.0 -0.0 A 160000.0 160000.0 0 1 1 -160000.0 -0.0 Z" transform="translate(15421610.0 9230360.0) rotate(-180.0)"/><path d="M -160000.0 0.0 A 160000.0 160000.0 0 1 1 160000.0 0.0 L 160000.0 -0.0 A 160000.0 160000.0 0 1 1 -160000.0 -0.0 Z" transform="translate(14278610.0 9230360.0) rotate(-180.0)"/><path d="M -50000.0 0.0 A 50000.0 50000.0 0 1 1 50000.0 0.0 L 50000.0 -0.0 A 50000.0 50000.0 0 1 1 -50000.0 -0.0 Z" transform="translate(15294610.0 9865360.0) rotate(-180.0)"/><path d="M -50000.0 0.0 A 50000.0 50000.0 0 1 1 50000.0 0.0 L 50000.0 -0.0 A 50000.0 50000.0 0 1 1 -50000.0 -0.0 Z" transform="translate(15167610.0 10119360.0) rotate(-180.0)"/><path d="M -50000.0 0.0 A 50000.0 50000.0 0 1 1 50000.0 0.0 L 50000.0 -0.0 A 50000.0 50000.0 0 1 1 -50000.0 -0.0 Z" transform="translate(15040610.0 9865360.0) rotate(-180.0)"/><path d="M -50000.0 0.0 A 50000.0 50000.0 0 1 1 50000.0 0.0 L 50000.0 -0.0 A 50000.0 50000.0 0 1 1 -50000.0 -0.0 Z" transform="translate(14913610.0 10119360.0) rotate(-180.0)"/><path d="M -50000.0 0.0 A 50000.0 50000.0 0 1 1 50000.0 0.0 L 50000.0 -0.0 A 50000.0 50000.0 0 1 1 -50000.0 -0.0 Z" transform="translate(14786610.0 9865360.0) rotate(-180.0)"/><path d="M -50000.0 0.0 A 50000.0 50000.0 0 1 1 50000.0 0.0 L 50000.0 -0.0 A 50000.0 50000.0 0 1 1 -50000.0 -0.0 Z" transform="translate(14659610.0 10119360.0) rotate(-180.0)"/><path d="M -50000.0 0.0 A 50000.0 50000.0 0 1 1 50000.0 0.0 L 50000.0 -0.0 A 50000.0 50000.0 0 1 1 -50000.0 -0.0 Z" transform="translate(14532610.0 9865360.0) rotate(-180.0)"/><path d="M -50000.0 0.0 A 50000.0 50000.0 0 1 1 50000.0 0.0 L 50000.0 -0.0 A 50000.0 50000.0 0 1 1 -50000.0 -0.0 Z" transform="translate(14405610.0 10119360.0) rotate(-180.0)"/><path d="M -50800.0 0.0 A 50800.0 50800.0 0 1 1 50800.0 0.0 L 50800.0 -0.0 A 50800.0 50800.0 0 1 1 -50800.0 -0.0 Z" transform="translate(15358110.0 11897360.0) rotate(-270.0)"/><path d="M -50800.0 0.0 A 50800.0 50800.0 0 1 1 50800.0 0.0 L 50800.0 -0.0 A 50800.0 50800.0 0 1 1 -50800.0 -0.0 Z" transform="translate(15104110.0 11897360.0) rotate(-270.0)"/><path d="M -50800.0 0.0 A 50800.0 50800.0 0 1 1 50800.0 0.0 L 50800.0 -0.0 A 50800.0 50800.0 0 1 1 -50800.0 -0.0 Z" transform="translate(14850110.0 11897360.0) rotate(-270.0)"/><path d="M -50800.0 0.0 A 50800.0 50800.0 0 1 1 50800.0 0.0 L 50800.0 -0.0 A 50800.0 50800.0 0 1 1 -50800.0 -0.0 Z" transform="translate(14596110.0 11897360.0) rotate(-270.0)"/><path d="M -50800.0 0.0 A 50800.0 50800.0 0 1 1 50800.0 0.0 L 50800.0 -0.0 A 50800.0 50800.0 0 1 1 -50800.0 -0.0 Z" transform="translate(14342110.0 11897360.0) rotate(-270.0)"/><path d="M -50800.0 0.0 A 50800.0 50800.0 0 1 1 50800.0 0.0 L 50800.0 -0.0 A 50800.0 50800.0 0 1 1 -50800.0 -0.0 Z" transform="translate(14596110.0 10627360.0) rotate(-0.0)"/><path d="M -50800.0 0.0 A 50800.0 50800.0 0 1 1 50800.0 0.0 L 50800.0 -0.0 A 50800.0 50800.0 0 1 1 -50800.0 -0.0 Z" transform="translate(14596110.0 10881360.0) rotate(-0.0)"/><path d="M -50800.0 0.0 A 50800.0 50800.0 0 1 1 50800.0 0.0 L 50800.0 -0.0 A 50800.0 50800.0 0 1 1 -50800.0 -0.0 Z" transform="translate(14596110.0 11135360.0) rotate(-0.0)"/></g></g></g></svg>