<!DOCTYPE svg PUBLIC "-//W3C//DTD SVG 1.1//EN" "http://www.w3.org/Graphics/SVG/1.1/DTD/svg11.dtd">
<svg xmlns="http://www.w3.org/2000/svg" version="1.1" width="9.62mm" height="15.97mm" viewBox="143691100.0 97018600.0 9620000.0 15970000.0">
            <title>Picture generated by PcbDraw </title>
            <desc>Picture generated by PcbDraw</desc>
        <defs><clipPath id="cut-off"><path d=" M 144691100.0 98018600.0 L 144691100.0 111988600.0 L 152311100.0 111988600.0 L 152311100.0 98018600.0 L 144691100.0 98018600.0 " style="fill-rule: evenodd;"/></clipPath><mask id="pads-mask"><g style="fill:#ffffff; fill-opacity:0.0;  stroke:#ffffff; stroke-width:0.000000; stroke-opacity:1;  stroke-linecap:round; stroke-linejoin:round;">
<g style="fill:#ffffff; fill-opacity:1.0;  stroke:#ffffff; stroke-width:1.000000; stroke-opacity:1;  stroke-linecap:round; stroke-linejoin:round;">
<circle cx="148501100.000000" cy="100558600.000000" r="1651000.000000"/> 
</g>
<g style="fill:#ffffff; fill-opacity:1.0;  stroke:#ffffff; stroke-width:1.000000; stroke-opacity:1;  stroke-linecap:round; stroke-linejoin:round;">
<path style="fill:#ffffff; fill-opacity:1.0;  stroke:#ffffff; stroke-width:1.000000; stroke-opacity:1;  stroke-linecap:round; stroke-linejoin:round;fill-rule:evenodd;" d="M 147062700.000000,108628600.000000 147054966.000000,108667481.000000 147032942.000000,108700442.000000 146999981.000000,108722466.000000 146961100.000000,108730200.000000 146261100.000000,108730200.000000 146222219.000000,108722466.000000 146189258.000000,108700442.000000 146167234.000000,108667481.000000 146159500.000000,108628600.000000 146159500.000000,107728600.000000 146167234.000000,107689719.000000 146189258.000000,107656758.000000 146222219.000000,107634734.000000 146261100.000000,107627000.000000 146961100.000000,107627000.000000 146999981.000000,107634734.000000 147032942.000000,107656758.000000 147054966.000000,107689719.000000 147062700.000000,107728600.000000 Z"/> 
<path style="fill:#ffffff; fill-opacity:1.0;  stroke:#ffffff; stroke-width:1.000000; stroke-opacity:1;  stroke-linecap:round; stroke-linejoin:round;fill-rule:evenodd;" d="M 145762700.000000,108628600.000000 145754966.000000,108667481.000000 145732942.000000,108700442.000000 145699981.000000,108722466.000000 145661100.000000,108730200.000000 144961100.000000,108730200.000000 144922219.000000,108722466.000000 144889258.000000,108700442.000000 144867234.000000,108667481.000000 144859500.000000,108628600.000000 144859500.000000,107728600.000000 144867234.000000,107689719.000000 144889258.000000,107656758.000000 144922219.000000,107634734.000000 144961100.000000,107627000.000000 145661100.000000,107627000.000000 145699981.000000,107634734.000000 145732942.000000,107656758.000000 145754966.000000,107689719.000000 145762700.000000,107728600.000000 Z"/> 
</g>
<g style="fill:#ffffff; fill-opacity:1.0;  stroke:#ffffff; stroke-width:1.000000; stroke-opacity:1;  stroke-linecap:round; stroke-linejoin:round;">
<path style="fill:#ffffff; fill-opacity:1.0;  stroke:#ffffff; stroke-width:1.000000; stroke-opacity:1;  stroke-linecap:round; stroke-linejoin:round;fill-rule:evenodd;" d="M 152142700.000000,108628600.000000 152134966.000000,108667481.000000 152112942.000000,108700442.000000 152079981.000000,108722466.000000 152041100.000000,108730200.000000 151341100.000000,108730200.000000 151302219.000000,108722466.000000 151269258.000000,108700442.000000 151247234.000000,108667481.000000 151239500.000000,108628600.000000 151239500.000000,107728600.000000 151247234.000000,107689719.000000 151269258.000000,107656758.000000 151302219.000000,107634734.000000 151341100.000000,107627000.000000 152041100.000000,107627000.000000 152079981.000000,107634734.000000 152112942.000000,107656758.000000 152134966.000000,107689719.000000 152142700.000000,107728600.000000 Z"/> 
<path style="fill:#ffffff; fill-opacity:1.0;  stroke:#ffffff; stroke-width:1.000000; stroke-opacity:1;  stroke-linecap:round; stroke-linejoin:round;fill-rule:evenodd;" d="M 150842700.000000,108628600.000000 150834966.000000,108667481.000000 150812942.000000,108700442.000000 150779981.000000,108722466.000000 150741100.000000,108730200.000000 150041100.000000,108730200.000000 150002219.000000,108722466.000000 149969258.000000,108700442.000000 149947234.000000,108667481.000000 149939500.000000,108628600.000000 149939500.000000,107728600.000000 149947234.000000,107689719.000000 149969258.000000,107656758.000000 150002219.000000,107634734.000000 150041100.000000,107627000.000000 150741100.000000,107627000.000000 150779981.000000,107634734.000000 150812942.000000,107656758.000000 150834966.000000,107689719.000000 150842700.000000,107728600.000000 Z"/> 
</g>
<g style="fill:#ffffff; fill-opacity:1.0;  stroke:#ffffff; stroke-width:1.000000; stroke-opacity:1;  stroke-linecap:round; stroke-linejoin:round;">
<path style="fill:#ffffff; fill-opacity:1.0;  stroke:#ffffff; stroke-width:1.000000; stroke-opacity:1;  stroke-linecap:round; stroke-linejoin:round;fill-rule:evenodd;" d="M 145034000.000000,105638600.000000 145054512.000000,105509091.000000 145114041.000000,105392259.000000 145206759.000000,105299541.000000 145323591.000000,105240012.000000 145453100.000000,105219500.000000 145582609.000000,105240012.000000 145699441.000000,105299541.000000 145792159.000000,105392259.000000 145851688.000000,105509091.000000 145872200.000000,105638600.000000 145851688.000000,105768109.000000 145792159.000000,105884941.000000 145699441.000000,105977659.000000 145582609.000000,106037188.000000 145453100.000000,106057700.000000 145323591.000000,106037188.000000 145206759.000000,105977659.000000 145114041.000000,105884941.000000 145054512.000000,105768109.000000 145034000.000000,105638600.000000 Z"/> 
</g>
<g style="fill:#ffffff; fill-opacity:1.0;  stroke:#ffffff; stroke-width:1.000000; stroke-opacity:1;  stroke-linecap:round; stroke-linejoin:round;">
<path style="fill:#ffffff; fill-opacity:1.0;  stroke:#ffffff; stroke-width:1.000000; stroke-opacity:1;  stroke-linecap:round; stroke-linejoin:round;fill-rule:evenodd;" d="M 151130000.000000,98780600.000000 151150512.000000,98651091.000000 151210041.000000,98534259.000000 151302759.000000,98441541.000000 151419591.000000,98382012.000000 151549100.000000,98361500.000000 151678609.000000,98382012.000000 151795441.000000,98441541.000000 151888159.000000,98534259.000000 151947688.000000,98651091.000000 151968200.000000,98780600.000000 151947688.000000,98910109.000000 151888159.000000,99026941.000000 151795441.000000,99119659.000000 151678609.000000,99179188.000000 151549100.000000,99199700.000000 151419591.000000,99179188.000000 151302759.000000,99119659.000000 151210041.000000,99026941.000000 151150512.000000,98910109.000000 151130000.000000,98780600.000000 Z"/> 
</g>
<g style="fill:#ffffff; fill-opacity:1.0;  stroke:#ffffff; stroke-width:1.000000; stroke-opacity:1;  stroke-linecap:round; stroke-linejoin:round;">
<path style="fill:#ffffff; fill-opacity:1.0;  stroke:#ffffff; stroke-width:1.000000; stroke-opacity:1;  stroke-linecap:round; stroke-linejoin:round;fill-rule:evenodd;" d="M 151002700.000000,105038600.000000 150994966.000000,105077481.000000 150972942.000000,105110442.000000 150939981.000000,105132466.000000 150901100.000000,105140200.000000 149701100.000000,105140200.000000 149662219.000000,105132466.000000 149629258.000000,105110442.000000 149607234.000000,105077481.000000 149599500.000000,105038600.000000 149599500.000000,104438600.000000 149607234.000000,104399719.000000 149629258.000000,104366758.000000 149662219.000000,104344734.000000 149701100.000000,104337000.000000 150901100.000000,104337000.000000 150939981.000000,104344734.000000 150972942.000000,104366758.000000 150994966.000000,104399719.000000 151002700.000000,104438600.000000 Z"/> 
<path style="fill:#ffffff; fill-opacity:1.0;  stroke:#ffffff; stroke-width:1.000000; stroke-opacity:1;  stroke-linecap:round; stroke-linejoin:round;fill-rule:evenodd;" d="M 147402700.000000,105038600.000000 147394966.000000,105077481.000000 147372942.000000,105110442.000000 147339981.000000,105132466.000000 147301100.000000,105140200.000000 146101100.000000,105140200.000000 146062219.000000,105132466.000000 146029258.000000,105110442.000000 146007234.000000,105077481.000000 145999500.000000,105038600.000000 145999500.000000,104438600.000000 146007234.000000,104399719.000000 146029258.000000,104366758.000000 146062219.000000,104344734.000000 146101100.000000,104337000.000000 147301100.000000,104337000.000000 147339981.000000,104344734.000000 147372942.000000,104366758.000000 147394966.000000,104399719.000000 147402700.000000,104438600.000000 Z"/> 
<path style="fill:#ffffff; fill-opacity:1.0;  stroke:#ffffff; stroke-width:1.000000; stroke-opacity:1;  stroke-linecap:round; stroke-linejoin:round;fill-rule:evenodd;" d="M 147402700.000000,106838600.000000 147394966.000000,106877481.000000 147372942.000000,106910442.000000 147339981.000000,106932466.000000 147301100.000000,106940200.000000 146101100.000000,106940200.000000 146062219.000000,106932466.000000 146029258.000000,106910442.000000 146007234.000000,106877481.000000 145999500.000000,106838600.000000 145999500.000000,106238600.000000 146007234.000000,106199719.000000 146029258.000000,106166758.000000 146062219.000000,106144734.000000 146101100.000000,106137000.000000 147301100.000000,106137000.000000 147339981.000000,106144734.000000 147372942.000000,106166758.000000 147394966.000000,106199719.000000 147402700.000000,106238600.000000 Z"/> 
<path style="fill:#ffffff; fill-opacity:1.0;  stroke:#ffffff; stroke-width:1.000000; stroke-opacity:1;  stroke-linecap:round; stroke-linejoin:round;fill-rule:evenodd;" d="M 151002700.000000,106838600.000000 150994966.000000,106877481.000000 150972942.000000,106910442.000000 150939981.000000,106932466.000000 150901100.000000,106940200.000000 149701100.000000,106940200.000000 149662219.000000,106932466.000000 149629258.000000,106910442.000000 149607234.000000,106877481.000000 149599500.000000,106838600.000000 149599500.000000,106238600.000000 149607234.000000,106199719.000000 149629258.000000,106166758.000000 149662219.000000,106144734.000000 149701100.000000,106137000.000000 150901100.000000,106137000.000000 150939981.000000,106144734.000000 150972942.000000,106166758.000000 150994966.000000,106199719.000000 151002700.000000,106238600.000000 Z"/> 
</g>
<g style="fill:#ffffff; fill-opacity:1.0;  stroke:#ffffff; stroke-width:1.000000; stroke-opacity:1;  stroke-linecap:round; stroke-linejoin:round;">
<path style="fill:#ffffff; fill-opacity:1.0;  stroke:#ffffff; stroke-width:1.000000; stroke-opacity:1;  stroke-linecap:round; stroke-linejoin:round;fill-rule:evenodd;" d="M 149602700.000000,108628600.000000 149594966.000000,108667481.000000 149572942.000000,108700442.000000 149539981.000000,108722466.000000 149501100.000000,108730200.000000 148801100.000000,108730200.000000 148762219.000000,108722466.000000 148729258.000000,108700442.000000 148707234.000000,108667481.000000 148699500.000000,108628600.000000 148699500.000000,107728600.000000 148707234.000000,107689719.000000 148729258.000000,107656758.000000 148762219.000000,107634734.000000 148801100.000000,107627000.000000 149501100.000000,107627000.000000 149539981.000000,107634734.000000 149572942.000000,107656758.000000 149594966.000000,107689719.000000 149602700.000000,107728600.000000 Z"/> 
<path style="fill:#ffffff; fill-opacity:1.0;  stroke:#ffffff; stroke-width:1.000000; stroke-opacity:1;  stroke-linecap:round; stroke-linejoin:round;fill-rule:evenodd;" d="M 148302700.000000,108628600.000000 148294966.000000,108667481.000000 148272942.000000,108700442.000000 148239981.000000,108722466.000000 148201100.000000,108730200.000000 147501100.000000,108730200.000000 147462219.000000,108722466.000000 147429258.000000,108700442.000000 147407234.000000,108667481.000000 147399500.000000,108628600.000000 147399500.000000,107728600.000000 147407234.000000,107689719.000000 147429258.000000,107656758.000000 147462219.000000,107634734.000000 147501100.000000,107627000.000000 148201100.000000,107627000.000000 148239981.000000,107634734.000000 148272942.000000,107656758.000000 148294966.000000,107689719.000000 148302700.000000,107728600.000000 Z"/> 
</g>
<g style="fill:#ffffff; fill-opacity:1.0;  stroke:#ffffff; stroke-width:1.000000; stroke-opacity:1;  stroke-linecap:round; stroke-linejoin:round;">
<circle cx="151041100.000000" cy="110718600.000000" r="1041400.000000"/> 
</g>
<g style="fill:#ffffff; fill-opacity:1.0;  stroke:#ffffff; stroke-width:1.000000; stroke-opacity:1;  stroke-linecap:round; stroke-linejoin:round;">
<circle cx="148501100.000000" cy="110718600.000000" r="1041400.000000"/> 
</g>
<g style="fill:#ffffff; fill-opacity:1.0;  stroke:#ffffff; stroke-width:1.000000; stroke-opacity:1;  stroke-linecap:round; stroke-linejoin:round;">
<circle cx="145961100.000000" cy="110718600.000000" r="1041400.000000"/> 
</g>
</g> 
</mask><mask id="pads-mask-silkscreen"><rect x="144462700" y="97701100" width="11154029" height="18149824" fill="white"/><g style="fill:#000000; fill-opacity:0.0;  stroke:#000000; stroke-width:0.000000; stroke-opacity:1;  stroke-linecap:round; stroke-linejoin:round;">
<g style="fill:#000000; fill-opacity:1.0;  stroke:#000000; stroke-width:1.000000; stroke-opacity:1;  stroke-linecap:round; stroke-linejoin:round;">
<circle cx="148501100.000000" cy="100558600.000000" r="1651000.000000"/> 
</g>
<g style="fill:#000000; fill-opacity:1.0;  stroke:#000000; stroke-width:1.000000; stroke-opacity:1;  stroke-linecap:round; stroke-linejoin:round;">
<path style="fill:#000000; fill-opacity:1.0;  stroke:#000000; stroke-width:1.000000; stroke-opacity:1;  stroke-linecap:round; stroke-linejoin:round;fill-rule:evenodd;" d="M 147062700.000000,108628600.000000 147054966.000000,108667481.000000 147032942.000000,108700442.000000 146999981.000000,108722466.000000 146961100.000000,108730200.000000 146261100.000000,108730200.000000 146222219.000000,108722466.000000 146189258.000000,108700442.000000 146167234.000000,108667481.000000 146159500.000000,108628600.000000 146159500.000000,107728600.000000 146167234.000000,107689719.000000 146189258.000000,107656758.000000 146222219.000000,107634734.000000 146261100.000000,107627000.000000 146961100.000000,107627000.000000 146999981.000000,107634734.000000 147032942.000000,107656758.000000 147054966.000000,107689719.000000 147062700.000000,107728600.000000 Z"/> 
<path style="fill:#000000; fill-opacity:1.0;  stroke:#000000; stroke-width:1.000000; stroke-opacity:1;  stroke-linecap:round; stroke-linejoin:round;fill-rule:evenodd;" d="M 145762700.000000,108628600.000000 145754966.000000,108667481.000000 145732942.000000,108700442.000000 145699981.000000,108722466.000000 145661100.000000,108730200.000000 144961100.000000,108730200.000000 144922219.000000,108722466.000000 144889258.000000,108700442.000000 144867234.000000,108667481.000000 144859500.000000,108628600.000000 144859500.000000,107728600.000000 144867234.000000,107689719.000000 144889258.000000,107656758.000000 144922219.000000,107634734.000000 144961100.000000,107627000.000000 145661100.000000,107627000.000000 145699981.000000,107634734.000000 145732942.000000,107656758.000000 145754966.000000,107689719.000000 145762700.000000,107728600.000000 Z"/> 
</g>
<g style="fill:#000000; fill-opacity:1.0;  stroke:#000000; stroke-width:1.000000; stroke-opacity:1;  stroke-linecap:round; stroke-linejoin:round;">
<path style="fill:#000000; fill-opacity:1.0;  stroke:#000000; stroke-width:1.000000; stroke-opacity:1;  stroke-linecap:round; stroke-linejoin:round;fill-rule:evenodd;" d="M 152142700.000000,108628600.000000 152134966.000000,108667481.000000 152112942.000000,108700442.000000 152079981.000000,108722466.000000 152041100.000000,108730200.000000 151341100.000000,108730200.000000 151302219.000000,108722466.000000 151269258.000000,108700442.000000 151247234.000000,108667481.000000 151239500.000000,108628600.000000 151239500.000000,107728600.000000 151247234.000000,107689719.000000 151269258.000000,107656758.000000 151302219.000000,107634734.000000 151341100.000000,107627000.000000 152041100.000000,107627000.000000 152079981.000000,107634734.000000 152112942.000000,107656758.000000 152134966.000000,107689719.000000 152142700.000000,107728600.000000 Z"/> 
<path style="fill:#000000; fill-opacity:1.0;  stroke:#000000; stroke-width:1.000000; stroke-opacity:1;  stroke-linecap:round; stroke-linejoin:round;fill-rule:evenodd;" d="M 150842700.000000,108628600.000000 150834966.000000,108667481.000000 150812942.000000,108700442.000000 150779981.000000,108722466.000000 150741100.000000,108730200.000000 150041100.000000,108730200.000000 150002219.000000,108722466.000000 149969258.000000,108700442.000000 149947234.000000,108667481.000000 149939500.000000,108628600.000000 149939500.000000,107728600.000000 149947234.000000,107689719.000000 149969258.000000,107656758.000000 150002219.000000,107634734.000000 150041100.000000,107627000.000000 150741100.000000,107627000.000000 150779981.000000,107634734.000000 150812942.000000,107656758.000000 150834966.000000,107689719.000000 150842700.000000,107728600.000000 Z"/> 
</g>
<g style="fill:#000000; fill-opacity:1.0;  stroke:#000000; stroke-width:1.000000; stroke-opacity:1;  stroke-linecap:round; stroke-linejoin:round;">
<path style="fill:#000000; fill-opacity:1.0;  stroke:#000000; stroke-width:1.000000; stroke-opacity:1;  stroke-linecap:round; stroke-linejoin:round;fill-rule:evenodd;" d="M 145034000.000000,105638600.000000 145054512.000000,105509091.000000 145114041.000000,105392259.000000 145206759.000000,105299541.000000 145323591.000000,105240012.000000 145453100.000000,105219500.000000 145582609.000000,105240012.000000 145699441.000000,105299541.000000 145792159.000000,105392259.000000 145851688.000000,105509091.000000 145872200.000000,105638600.000000 145851688.000000,105768109.000000 145792159.000000,105884941.000000 145699441.000000,105977659.000000 145582609.000000,106037188.000000 145453100.000000,106057700.000000 145323591.000000,106037188.000000 145206759.000000,105977659.000000 145114041.000000,105884941.000000 145054512.000000,105768109.000000 145034000.000000,105638600.000000 Z"/> 
</g>
<g style="fill:#000000; fill-opacity:1.0;  stroke:#000000; stroke-width:1.000000; stroke-opacity:1;  stroke-linecap:round; stroke-linejoin:round;">
<path style="fill:#000000; fill-opacity:1.0;  stroke:#000000; stroke-width:1.000000; stroke-opacity:1;  stroke-linecap:round; stroke-linejoin:round;fill-rule:evenodd;" d="M 151130000.000000,98780600.000000 151150512.000000,98651091.000000 151210041.000000,98534259.000000 151302759.000000,98441541.000000 151419591.000000,98382012.000000 151549100.000000,98361500.000000 151678609.000000,98382012.000000 151795441.000000,98441541.000000 151888159.000000,98534259.000000 151947688.000000,98651091.000000 151968200.000000,98780600.000000 151947688.000000,98910109.000000 151888159.000000,99026941.000000 151795441.000000,99119659.000000 151678609.000000,99179188.000000 151549100.000000,99199700.000000 151419591.000000,99179188.000000 151302759.000000,99119659.000000 151210041.000000,99026941.000000 151150512.000000,98910109.000000 151130000.000000,98780600.000000 Z"/> 
</g>
<g style="fill:#000000; fill-opacity:1.0;  stroke:#000000; stroke-width:1.000000; stroke-opacity:1;  stroke-linecap:round; stroke-linejoin:round;">
<path style="fill:#000000; fill-opacity:1.0;  stroke:#000000; stroke-width:1.000000; stroke-opacity:1;  stroke-linecap:round; stroke-linejoin:round;fill-rule:evenodd;" d="M 151002700.000000,105038600.000000 150994966.000000,105077481.000000 150972942.000000,105110442.000000 150939981.000000,105132466.000000 150901100.000000,105140200.000000 149701100.000000,105140200.000000 149662219.000000,105132466.000000 149629258.000000,105110442.000000 149607234.000000,105077481.000000 149599500.000000,105038600.000000 149599500.000000,104438600.000000 149607234.000000,104399719.000000 149629258.000000,104366758.000000 149662219.000000,104344734.000000 149701100.000000,104337000.000000 150901100.000000,104337000.000000 150939981.000000,104344734.000000 150972942.000000,104366758.000000 150994966.000000,104399719.000000 151002700.000000,104438600.000000 Z"/> 
<path style="fill:#000000; fill-opacity:1.0;  stroke:#000000; stroke-width:1.000000; stroke-opacity:1;  stroke-linecap:round; stroke-linejoin:round;fill-rule:evenodd;" d="M 147402700.000000,105038600.000000 147394966.000000,105077481.000000 147372942.000000,105110442.000000 147339981.000000,105132466.000000 147301100.000000,105140200.000000 146101100.000000,105140200.000000 146062219.000000,105132466.000000 146029258.000000,105110442.000000 146007234.000000,105077481.000000 145999500.000000,105038600.000000 145999500.000000,104438600.000000 146007234.000000,104399719.000000 146029258.000000,104366758.000000 146062219.000000,104344734.000000 146101100.000000,104337000.000000 147301100.000000,104337000.000000 147339981.000000,104344734.000000 147372942.000000,104366758.000000 147394966.000000,104399719.000000 147402700.000000,104438600.000000 Z"/> 
<path style="fill:#000000; fill-opacity:1.0;  stroke:#000000; stroke-width:1.000000; stroke-opacity:1;  stroke-linecap:round; stroke-linejoin:round;fill-rule:evenodd;" d="M 147402700.000000,106838600.000000 147394966.000000,106877481.000000 147372942.000000,106910442.000000 147339981.000000,106932466.000000 147301100.000000,106940200.000000 146101100.000000,106940200.000000 146062219.000000,106932466.000000 146029258.000000,106910442.000000 146007234.000000,106877481.000000 145999500.000000,106838600.000000 145999500.000000,106238600.000000 146007234.000000,106199719.000000 146029258.000000,106166758.000000 146062219.000000,106144734.000000 146101100.000000,106137000.000000 147301100.000000,106137000.000000 147339981.000000,106144734.000000 147372942.000000,106166758.000000 147394966.000000,106199719.000000 147402700.000000,106238600.000000 Z"/> 
<path style="fill:#000000; fill-opacity:1.0;  stroke:#000000; stroke-width:1.000000; stroke-opacity:1;  stroke-linecap:round; stroke-linejoin:round;fill-rule:evenodd;" d="M 151002700.000000,106838600.000000 150994966.000000,106877481.000000 150972942.000000,106910442.000000 150939981.000000,106932466.000000 150901100.000000,106940200.000000 149701100.000000,106940200.000000 149662219.000000,106932466.000000 149629258.000000,106910442.000000 149607234.000000,106877481.000000 149599500.000000,106838600.000000 149599500.000000,106238600.000000 149607234.000000,106199719.000000 149629258.000000,106166758.000000 149662219.000000,106144734.000000 149701100.000000,106137000.000000 150901100.000000,106137000.000000 150939981.000000,106144734.000000 150972942.000000,106166758.000000 150994966.000000,106199719.000000 151002700.000000,106238600.000000 Z"/> 
</g>
<g style="fill:#000000; fill-opacity:1.0;  stroke:#000000; stroke-width:1.000000; stroke-opacity:1;  stroke-linecap:round; stroke-linejoin:round;">
<path style="fill:#000000; fill-opacity:1.0;  stroke:#000000; stroke-width:1.000000; stroke-opacity:1;  stroke-linecap:round; stroke-linejoin:round;fill-rule:evenodd;" d="M 149602700.000000,108628600.000000 149594966.000000,108667481.000000 149572942.000000,108700442.000000 149539981.000000,108722466.000000 149501100.000000,108730200.000000 148801100.000000,108730200.000000 148762219.000000,108722466.000000 148729258.000000,108700442.000000 148707234.000000,108667481.000000 148699500.000000,108628600.000000 148699500.000000,107728600.000000 148707234.000000,107689719.000000 148729258.000000,107656758.000000 148762219.000000,107634734.000000 148801100.000000,107627000.000000 149501100.000000,107627000.000000 149539981.000000,107634734.000000 149572942.000000,107656758.000000 149594966.000000,107689719.000000 149602700.000000,107728600.000000 Z"/> 
<path style="fill:#000000; fill-opacity:1.0;  stroke:#000000; stroke-width:1.000000; stroke-opacity:1;  stroke-linecap:round; stroke-linejoin:round;fill-rule:evenodd;" d="M 148302700.000000,108628600.000000 148294966.000000,108667481.000000 148272942.000000,108700442.000000 148239981.000000,108722466.000000 148201100.000000,108730200.000000 147501100.000000,108730200.000000 147462219.000000,108722466.000000 147429258.000000,108700442.000000 147407234.000000,108667481.000000 147399500.000000,108628600.000000 147399500.000000,107728600.000000 147407234.000000,107689719.000000 147429258.000000,107656758.000000 147462219.000000,107634734.000000 147501100.000000,107627000.000000 148201100.000000,107627000.000000 148239981.000000,107634734.000000 148272942.000000,107656758.000000 148294966.000000,107689719.000000 148302700.000000,107728600.000000 Z"/> 
</g>
<g style="fill:#000000; fill-opacity:1.0;  stroke:#000000; stroke-width:1.000000; stroke-opacity:1;  stroke-linecap:round; stroke-linejoin:round;">
<circle cx="151041100.000000" cy="110718600.000000" r="1041400.000000"/> 
</g>
<g style="fill:#000000; fill-opacity:1.0;  stroke:#000000; stroke-width:1.000000; stroke-opacity:1;  stroke-linecap:round; stroke-linejoin:round;">
<circle cx="148501100.000000" cy="110718600.000000" r="1041400.000000"/> 
</g>
<g style="fill:#000000; fill-opacity:1.0;  stroke:#000000; stroke-width:1.000000; stroke-opacity:1;  stroke-linecap:round; stroke-linejoin:round;">
<circle cx="145961100.000000" cy="110718600.000000" r="1041400.000000"/> 
</g>
</g> 
</mask><mask id="hole-mask"><g><rect x="144462700" y="97701100" fill="white" width="11154029" height="18149824"/><polyline stroke-linecap="round" stroke="black" stroke-width="3302000" points="0.0 0 0.0 0" transform="translate(148501100 100558600) rotate(-0.0)"/><polyline stroke-linecap="round" stroke="black" stroke-width="1016000" points="0.0 0 0.0 0" transform="translate(151041100 110718600) rotate(-90.0)"/><polyline stroke-linecap="round" stroke="black" stroke-width="1016000" points="0.0 0 0.0 0" transform="translate(148501100 110718600) rotate(-90.0)"/><polyline stroke-linecap="round" stroke="black" stroke-width="1016000" points="0.0 0 0.0 0" transform="translate(145961100 110718600) rotate(-90.0)"/><polyline stroke-linecap="round" stroke="black" stroke-width="508000" points="0.0 0 0.0 0" transform="translate(145961100 103098600) rotate(0.0)"/></g></mask></defs><g transform="" id="boardContainer"><g id="substrate" clip-path="url(#cut-off)" mask="url(#hole-mask)"><g id="substrate-board" style="fill:#4ca06c; stroke:#4ca06c;"><path d=" M 144691100.0 98018600.0 L 144691100.0 111988600.0 L 152311100.0 111988600.0 L 152311100.0 98018600.0 L 144691100.0 98018600.0 " style="fill-rule: evenodd;"/><g style="fill-opacity: 0.0;stroke-width: 203200.000000;stroke-opacity: 1;stroke-linecap: round;stroke-linejoin: round">
<path d="M152311100 98018600 L144691100 98018600 "/>
<path d="M144691100 98018600 L144691100 111988600 "/>
<path d="M152311100 111988600 L152311100 98018600 "/>
<path d="M144691100 111988600 L152311100 111988600 "/>
</g> 
</g><g id="substrate-clad" style="fill:#9c6b28; stroke:#9c6b28;"><g style="fill-opacity: 0.0;stroke-width: 0.000000;stroke-opacity: 1;stroke-linecap: round;stroke-linejoin: round">
<g style="fill-opacity: 1.0;stroke-width: 1.000000;stroke-opacity: 1;stroke-linecap: round;stroke-linejoin: round">
<circle cx="148501100.000000" cy="100558600.000000" r="1651000.000000"/> 
</g>
<g style="fill-opacity: 1.0;stroke-width: 1.000000;stroke-opacity: 1;stroke-linecap: round;stroke-linejoin: round">
<path style="fill-opacity: 1.0;stroke-width: 1.000000;stroke-opacity: 1;stroke-linecap: round;stroke-linejoin: round;fill-rule: evenodd" d="M 147062700.000000,108628600.000000 147054966.000000,108667481.000000 147032942.000000,108700442.000000 146999981.000000,108722466.000000 146961100.000000,108730200.000000 146261100.000000,108730200.000000 146222219.000000,108722466.000000 146189258.000000,108700442.000000 146167234.000000,108667481.000000 146159500.000000,108628600.000000 146159500.000000,107728600.000000 146167234.000000,107689719.000000 146189258.000000,107656758.000000 146222219.000000,107634734.000000 146261100.000000,107627000.000000 146961100.000000,107627000.000000 146999981.000000,107634734.000000 147032942.000000,107656758.000000 147054966.000000,107689719.000000 147062700.000000,107728600.000000 Z"/> 
<path style="fill-opacity: 1.0;stroke-width: 1.000000;stroke-opacity: 1;stroke-linecap: round;stroke-linejoin: round;fill-rule: evenodd" d="M 145762700.000000,108628600.000000 145754966.000000,108667481.000000 145732942.000000,108700442.000000 145699981.000000,108722466.000000 145661100.000000,108730200.000000 144961100.000000,108730200.000000 144922219.000000,108722466.000000 144889258.000000,108700442.000000 144867234.000000,108667481.000000 144859500.000000,108628600.000000 144859500.000000,107728600.000000 144867234.000000,107689719.000000 144889258.000000,107656758.000000 144922219.000000,107634734.000000 144961100.000000,107627000.000000 145661100.000000,107627000.000000 145699981.000000,107634734.000000 145732942.000000,107656758.000000 145754966.000000,107689719.000000 145762700.000000,107728600.000000 Z"/> 
</g>
<g style="fill-opacity: 1.0;stroke-width: 1.000000;stroke-opacity: 1;stroke-linecap: round;stroke-linejoin: round">
<path style="fill-opacity: 1.0;stroke-width: 1.000000;stroke-opacity: 1;stroke-linecap: round;stroke-linejoin: round;fill-rule: evenodd" d="M 152142700.000000,108628600.000000 152134966.000000,108667481.000000 152112942.000000,108700442.000000 152079981.000000,108722466.000000 152041100.000000,108730200.000000 151341100.000000,108730200.000000 151302219.000000,108722466.000000 151269258.000000,108700442.000000 151247234.000000,108667481.000000 151239500.000000,108628600.000000 151239500.000000,107728600.000000 151247234.000000,107689719.000000 151269258.000000,107656758.000000 151302219.000000,107634734.000000 151341100.000000,107627000.000000 152041100.000000,107627000.000000 152079981.000000,107634734.000000 152112942.000000,107656758.000000 152134966.000000,107689719.000000 152142700.000000,107728600.000000 Z"/> 
<path style="fill-opacity: 1.0;stroke-width: 1.000000;stroke-opacity: 1;stroke-linecap: round;stroke-linejoin: round;fill-rule: evenodd" d="M 150842700.000000,108628600.000000 150834966.000000,108667481.000000 150812942.000000,108700442.000000 150779981.000000,108722466.000000 150741100.000000,108730200.000000 150041100.000000,108730200.000000 150002219.000000,108722466.000000 149969258.000000,108700442.000000 149947234.000000,108667481.000000 149939500.000000,108628600.000000 149939500.000000,107728600.000000 149947234.000000,107689719.000000 149969258.000000,107656758.000000 150002219.000000,107634734.000000 150041100.000000,107627000.000000 150741100.000000,107627000.000000 150779981.000000,107634734.000000 150812942.000000,107656758.000000 150834966.000000,107689719.000000 150842700.000000,107728600.000000 Z"/> 
</g>
<g style="fill-opacity: 1.0;stroke-width: 1.000000;stroke-opacity: 1;stroke-linecap: round;stroke-linejoin: round">
<path style="fill-opacity: 1.0;stroke-width: 1.000000;stroke-opacity: 1;stroke-linecap: round;stroke-linejoin: round;fill-rule: evenodd" d="M 145034000.000000,105638600.000000 145054512.000000,105509091.000000 145114041.000000,105392259.000000 145206759.000000,105299541.000000 145323591.000000,105240012.000000 145453100.000000,105219500.000000 145582609.000000,105240012.000000 145699441.000000,105299541.000000 145792159.000000,105392259.000000 145851688.000000,105509091.000000 145872200.000000,105638600.000000 145851688.000000,105768109.000000 145792159.000000,105884941.000000 145699441.000000,105977659.000000 145582609.000000,106037188.000000 145453100.000000,106057700.000000 145323591.000000,106037188.000000 145206759.000000,105977659.000000 145114041.000000,105884941.000000 145054512.000000,105768109.000000 145034000.000000,105638600.000000 Z"/> 
</g>
<g style="fill-opacity: 1.0;stroke-width: 1.000000;stroke-opacity: 1;stroke-linecap: round;stroke-linejoin: round">
<path style="fill-opacity: 1.0;stroke-width: 1.000000;stroke-opacity: 1;stroke-linecap: round;stroke-linejoin: round;fill-rule: evenodd" d="M 151130000.000000,98780600.000000 151150512.000000,98651091.000000 151210041.000000,98534259.000000 151302759.000000,98441541.000000 151419591.000000,98382012.000000 151549100.000000,98361500.000000 151678609.000000,98382012.000000 151795441.000000,98441541.000000 151888159.000000,98534259.000000 151947688.000000,98651091.000000 151968200.000000,98780600.000000 151947688.000000,98910109.000000 151888159.000000,99026941.000000 151795441.000000,99119659.000000 151678609.000000,99179188.000000 151549100.000000,99199700.000000 151419591.000000,99179188.000000 151302759.000000,99119659.000000 151210041.000000,99026941.000000 151150512.000000,98910109.000000 151130000.000000,98780600.000000 Z"/> 
</g>
<g style="fill-opacity: 1.0;stroke-width: 1.000000;stroke-opacity: 1;stroke-linecap: round;stroke-linejoin: round">
<path style="fill-opacity: 1.0;stroke-width: 1.000000;stroke-opacity: 1;stroke-linecap: round;stroke-linejoin: round;fill-rule: evenodd" d="M 151002700.000000,105038600.000000 150994966.000000,105077481.000000 150972942.000000,105110442.000000 150939981.000000,105132466.000000 150901100.000000,105140200.000000 149701100.000000,105140200.000000 149662219.000000,105132466.000000 149629258.000000,105110442.000000 149607234.000000,105077481.000000 149599500.000000,105038600.000000 149599500.000000,104438600.000000 149607234.000000,104399719.000000 149629258.000000,104366758.000000 149662219.000000,104344734.000000 149701100.000000,104337000.000000 150901100.000000,104337000.000000 150939981.000000,104344734.000000 150972942.000000,104366758.000000 150994966.000000,104399719.000000 151002700.000000,104438600.000000 Z"/> 
<path style="fill-opacity: 1.0;stroke-width: 1.000000;stroke-opacity: 1;stroke-linecap: round;stroke-linejoin: round;fill-rule: evenodd" d="M 147402700.000000,105038600.000000 147394966.000000,105077481.000000 147372942.000000,105110442.000000 147339981.000000,105132466.000000 147301100.000000,105140200.000000 146101100.000000,105140200.000000 146062219.000000,105132466.000000 146029258.000000,105110442.000000 146007234.000000,105077481.000000 145999500.000000,105038600.000000 145999500.000000,104438600.000000 146007234.000000,104399719.000000 146029258.000000,104366758.000000 146062219.000000,104344734.000000 146101100.000000,104337000.000000 147301100.000000,104337000.000000 147339981.000000,104344734.000000 147372942.000000,104366758.000000 147394966.000000,104399719.000000 147402700.000000,104438600.000000 Z"/> 
<path style="fill-opacity: 1.0;stroke-width: 1.000000;stroke-opacity: 1;stroke-linecap: round;stroke-linejoin: round;fill-rule: evenodd" d="M 147402700.000000,106838600.000000 147394966.000000,106877481.000000 147372942.000000,106910442.000000 147339981.000000,106932466.000000 147301100.000000,106940200.000000 146101100.000000,106940200.000000 146062219.000000,106932466.000000 146029258.000000,106910442.000000 146007234.000000,106877481.000000 145999500.000000,106838600.000000 145999500.000000,106238600.000000 146007234.000000,106199719.000000 146029258.000000,106166758.000000 146062219.000000,106144734.000000 146101100.000000,106137000.000000 147301100.000000,106137000.000000 147339981.000000,106144734.000000 147372942.000000,106166758.000000 147394966.000000,106199719.000000 147402700.000000,106238600.000000 Z"/> 
<path style="fill-opacity: 1.0;stroke-width: 1.000000;stroke-opacity: 1;stroke-linecap: round;stroke-linejoin: round;fill-rule: evenodd" d="M 151002700.000000,106838600.000000 150994966.000000,106877481.000000 150972942.000000,106910442.000000 150939981.000000,106932466.000000 150901100.000000,106940200.000000 149701100.000000,106940200.000000 149662219.000000,106932466.000000 149629258.000000,106910442.000000 149607234.000000,106877481.000000 149599500.000000,106838600.000000 149599500.000000,106238600.000000 149607234.000000,106199719.000000 149629258.000000,106166758.000000 149662219.000000,106144734.000000 149701100.000000,106137000.000000 150901100.000000,106137000.000000 150939981.000000,106144734.000000 150972942.000000,106166758.000000 150994966.000000,106199719.000000 151002700.000000,106238600.000000 Z"/> 
</g>
<g style="fill-opacity: 1.0;stroke-width: 1.000000;stroke-opacity: 1;stroke-linecap: round;stroke-linejoin: round">
<path style="fill-opacity: 1.0;stroke-width: 1.000000;stroke-opacity: 1;stroke-linecap: round;stroke-linejoin: round;fill-rule: evenodd" d="M 149602700.000000,108628600.000000 149594966.000000,108667481.000000 149572942.000000,108700442.000000 149539981.000000,108722466.000000 149501100.000000,108730200.000000 148801100.000000,108730200.000000 148762219.000000,108722466.000000 148729258.000000,108700442.000000 148707234.000000,108667481.000000 148699500.000000,108628600.000000 148699500.000000,107728600.000000 148707234.000000,107689719.000000 148729258.000000,107656758.000000 148762219.000000,107634734.000000 148801100.000000,107627000.000000 149501100.000000,107627000.000000 149539981.000000,107634734.000000 149572942.000000,107656758.000000 149594966.000000,107689719.000000 149602700.000000,107728600.000000 Z"/> 
<path style="fill-opacity: 1.0;stroke-width: 1.000000;stroke-opacity: 1;stroke-linecap: round;stroke-linejoin: round;fill-rule: evenodd" d="M 148302700.000000,108628600.000000 148294966.000000,108667481.000000 148272942.000000,108700442.000000 148239981.000000,108722466.000000 148201100.000000,108730200.000000 147501100.000000,108730200.000000 147462219.000000,108722466.000000 147429258.000000,108700442.000000 147407234.000000,108667481.000000 147399500.000000,108628600.000000 147399500.000000,107728600.000000 147407234.000000,107689719.000000 147429258.000000,107656758.000000 147462219.000000,107634734.000000 147501100.000000,107627000.000000 148201100.000000,107627000.000000 148239981.000000,107634734.000000 148272942.000000,107656758.000000 148294966.000000,107689719.000000 148302700.000000,107728600.000000 Z"/> 
</g>
<g style="fill-opacity: 1.0;stroke-width: 1.000000;stroke-opacity: 1;stroke-linecap: round;stroke-linejoin: round">
<circle cx="151041100.000000" cy="110718600.000000" r="1041400.000000"/> 
</g>
<g style="fill-opacity: 1.0;stroke-width: 1.000000;stroke-opacity: 1;stroke-linecap: round;stroke-linejoin: round">
<circle cx="148501100.000000" cy="110718600.000000" r="1041400.000000"/> 
</g>
<g style="fill-opacity: 1.0;stroke-width: 1.000000;stroke-opacity: 1;stroke-linecap: round;stroke-linejoin: round">
<circle cx="145961100.000000" cy="110718600.000000" r="1041400.000000"/> 
</g>
</g> 
</g><g id="substrate-copper" style="fill:#417e5a; stroke:#417e5a;"><g style="fill-opacity: 0.0;stroke-width: 0.000000;stroke-opacity: 1;stroke-linecap: round;stroke-linejoin: round">
<g style="fill-opacity: 1.0;stroke-width: 1.000000;stroke-opacity: 1;stroke-linecap: round;stroke-linejoin: round">
<path style="fill-opacity: 1.0;stroke-width: 1.000000;stroke-opacity: 1;stroke-linecap: round;stroke-linejoin: round;fill-rule: evenodd" d="M 146961099.000000,107728601.000000 146961099.000000,108628599.000000 146261101.000000,108628599.000000 146261101.000000,107728601.000000 Z"/> 
<path style="fill-opacity: 1.0;stroke-width: 1.000000;stroke-opacity: 1;stroke-linecap: round;stroke-linejoin: round;fill-rule: evenodd" d="M 145661099.000000,107728601.000000 145661099.000000,108628599.000000 144961101.000000,108628599.000000 144961101.000000,107728601.000000 Z"/> 
</g>
<g style="fill-opacity: 1.0;stroke-width: 1.000000;stroke-opacity: 1;stroke-linecap: round;stroke-linejoin: round">
<path style="fill-opacity: 1.0;stroke-width: 1.000000;stroke-opacity: 1;stroke-linecap: round;stroke-linejoin: round;fill-rule: evenodd" d="M 152041099.000000,107728601.000000 152041099.000000,108628599.000000 151341101.000000,108628599.000000 151341101.000000,107728601.000000 Z"/> 
<path style="fill-opacity: 1.0;stroke-width: 1.000000;stroke-opacity: 1;stroke-linecap: round;stroke-linejoin: round;fill-rule: evenodd" d="M 150741099.000000,107728601.000000 150741099.000000,108628599.000000 150041101.000000,108628599.000000 150041101.000000,107728601.000000 Z"/> 
</g>
<g style="fill-opacity: 1.0;stroke-width: 1.000000;stroke-opacity: 1;stroke-linecap: round;stroke-linejoin: round">
<path style="fill-opacity: 1.0;stroke-width: 1.000000;stroke-opacity: 1;stroke-linecap: round;stroke-linejoin: round;fill-rule: evenodd" d="M 145135600.000000,105638600.000000 145146419.000000,105556425.000000 145193019.000000,105456489.000000 145270989.000000,105378519.000000 145370925.000000,105331919.000000 145453100.000000,105321100.000000 145535275.000000,105331919.000000 145635211.000000,105378519.000000 145713181.000000,105456489.000000 145759781.000000,105556425.000000 145770600.000000,105638600.000000 145759781.000000,105720775.000000 145713181.000000,105820711.000000 145635211.000000,105898681.000000 145535275.000000,105945281.000000 145453100.000000,105956100.000000 145370925.000000,105945281.000000 145270989.000000,105898681.000000 145193019.000000,105820711.000000 145146419.000000,105720775.000000 145135600.000000,105638600.000000 Z"/> 
</g>
<g style="fill-opacity: 1.0;stroke-width: 1.000000;stroke-opacity: 1;stroke-linecap: round;stroke-linejoin: round">
<path style="fill-opacity: 1.0;stroke-width: 1.000000;stroke-opacity: 1;stroke-linecap: round;stroke-linejoin: round;fill-rule: evenodd" d="M 151231600.000000,98780600.000000 151242419.000000,98698425.000000 151289019.000000,98598489.000000 151366989.000000,98520519.000000 151466925.000000,98473919.000000 151549100.000000,98463100.000000 151631275.000000,98473919.000000 151731211.000000,98520519.000000 151809181.000000,98598489.000000 151855781.000000,98698425.000000 151866600.000000,98780600.000000 151855781.000000,98862775.000000 151809181.000000,98962711.000000 151731211.000000,99040681.000000 151631275.000000,99087281.000000 151549100.000000,99098100.000000 151466925.000000,99087281.000000 151366989.000000,99040681.000000 151289019.000000,98962711.000000 151242419.000000,98862775.000000 151231600.000000,98780600.000000 Z"/> 
</g>
<g style="fill-opacity: 1.0;stroke-width: 1.000000;stroke-opacity: 1;stroke-linecap: round;stroke-linejoin: round">
<path style="fill-opacity: 1.0;stroke-width: 1.000000;stroke-opacity: 1;stroke-linecap: round;stroke-linejoin: round;fill-rule: evenodd" d="M 150901099.000000,104438601.000000 150901099.000000,105038599.000000 149701101.000000,105038599.000000 149701101.000000,104438601.000000 Z"/> 
<path style="fill-opacity: 1.0;stroke-width: 1.000000;stroke-opacity: 1;stroke-linecap: round;stroke-linejoin: round;fill-rule: evenodd" d="M 147301099.000000,104438601.000000 147301099.000000,105038599.000000 146101101.000000,105038599.000000 146101101.000000,104438601.000000 Z"/> 
<path style="fill-opacity: 1.0;stroke-width: 1.000000;stroke-opacity: 1;stroke-linecap: round;stroke-linejoin: round;fill-rule: evenodd" d="M 147301099.000000,106238601.000000 147301099.000000,106838599.000000 146101101.000000,106838599.000000 146101101.000000,106238601.000000 Z"/> 
<path style="fill-opacity: 1.0;stroke-width: 1.000000;stroke-opacity: 1;stroke-linecap: round;stroke-linejoin: round;fill-rule: evenodd" d="M 150901099.000000,106238601.000000 150901099.000000,106838599.000000 149701101.000000,106838599.000000 149701101.000000,106238601.000000 Z"/> 
</g>
<g style="fill-opacity: 1.0;stroke-width: 1.000000;stroke-opacity: 1;stroke-linecap: round;stroke-linejoin: round">
<path style="fill-opacity: 1.0;stroke-width: 1.000000;stroke-opacity: 1;stroke-linecap: round;stroke-linejoin: round;fill-rule: evenodd" d="M 149501099.000000,107728601.000000 149501099.000000,108628599.000000 148801101.000000,108628599.000000 148801101.000000,107728601.000000 Z"/> 
<path style="fill-opacity: 1.0;stroke-width: 1.000000;stroke-opacity: 1;stroke-linecap: round;stroke-linejoin: round;fill-rule: evenodd" d="M 148201099.000000,107728601.000000 148201099.000000,108628599.000000 147501101.000000,108628599.000000 147501101.000000,107728601.000000 Z"/> 
</g>
<g style="fill-opacity: 1.0;stroke-width: 1.000000;stroke-opacity: 1;stroke-linecap: round;stroke-linejoin: round">
<circle cx="151041100.000000" cy="110718600.000000" r="939800.000000"/> 
</g>
<g style="fill-opacity: 1.0;stroke-width: 1.000000;stroke-opacity: 1;stroke-linecap: round;stroke-linejoin: round">
<circle cx="148501100.000000" cy="110718600.000000" r="939800.000000"/> 
</g>
<g style="fill-opacity: 1.0;stroke-width: 1.000000;stroke-opacity: 1;stroke-linecap: round;stroke-linejoin: round">
<circle cx="145961100.000000" cy="110718600.000000" r="939800.000000"/> 
</g>
<g style="fill-opacity: 1.0;stroke-width: 1.000000;stroke-opacity: 1;stroke-linecap: round;stroke-linejoin: round">
<circle cx="145961100.000000" cy="103098600.000000" r="508000.000000"/> 
</g>
<g style="fill-opacity: 0.0;stroke-width: 254000.000000;stroke-opacity: 1;stroke-linecap: round;stroke-linejoin: round">
<path d="M151691100 105388600 L151041100 104738600 "/>
<path d="M151041100 104738600 L150301100 104738600 "/>
<path d="M151691100 108178600 L151691100 105388600 "/>
<path d="M150391100 108798600 L151041100 109448600 "/>
<path d="M150391100 108178600 L150391100 108798600 "/>
<path d="M151041100 109448600 L151041100 110718600 "/>
<path d="M149151100 108178600 L150391100 108178600 "/>
<path d="M147601100 104738600 L149401100 106538600 "/>
<path d="M145961100 103098600 L145961100 104368600 "/>
<path d="M146331100 104738600 L146701100 104738600 "/>
<path d="M146701100 104738600 L147601100 104738600 "/>
<path d="M145961100 104368600 L146331100 104738600 "/>
<path d="M149401100 106538600 L150301100 106538600 "/>
<path d="M146611100 108178600 L147851100 108178600 "/>
<path d="M146611100 106628600 L146701100 106538600 "/>
<path d="M146611100 108178600 L146611100 106628600 "/>
<path d="M147231100 109448600 L148501100 110718600 "/>
<path d="M145311100 108798600 L145961100 109448600 "/>
<path d="M145961100 109448600 L147231100 109448600 "/>
<path d="M145311100 108178600 L145311100 108798600 "/>
</g>
</g> 
</g><g id="substrate-pads" style="fill:#b5ae30; stroke:#b5ae30;" mask="url(#pads-mask)"><g style="fill-opacity: 0.0;stroke-width: 0.000000;stroke-opacity: 1;stroke-linecap: round;stroke-linejoin: round">
<g style="fill-opacity: 1.0;stroke-width: 1.000000;stroke-opacity: 1;stroke-linecap: round;stroke-linejoin: round">
<path style="fill-opacity: 1.0;stroke-width: 1.000000;stroke-opacity: 1;stroke-linecap: round;stroke-linejoin: round;fill-rule: evenodd" d="M 146961099.000000,107728601.000000 146961099.000000,108628599.000000 146261101.000000,108628599.000000 146261101.000000,107728601.000000 Z"/> 
<path style="fill-opacity: 1.0;stroke-width: 1.000000;stroke-opacity: 1;stroke-linecap: round;stroke-linejoin: round;fill-rule: evenodd" d="M 145661099.000000,107728601.000000 145661099.000000,108628599.000000 144961101.000000,108628599.000000 144961101.000000,107728601.000000 Z"/> 
</g>
<g style="fill-opacity: 1.0;stroke-width: 1.000000;stroke-opacity: 1;stroke-linecap: round;stroke-linejoin: round">
<path style="fill-opacity: 1.0;stroke-width: 1.000000;stroke-opacity: 1;stroke-linecap: round;stroke-linejoin: round;fill-rule: evenodd" d="M 152041099.000000,107728601.000000 152041099.000000,108628599.000000 151341101.000000,108628599.000000 151341101.000000,107728601.000000 Z"/> 
<path style="fill-opacity: 1.0;stroke-width: 1.000000;stroke-opacity: 1;stroke-linecap: round;stroke-linejoin: round;fill-rule: evenodd" d="M 150741099.000000,107728601.000000 150741099.000000,108628599.000000 150041101.000000,108628599.000000 150041101.000000,107728601.000000 Z"/> 
</g>
<g style="fill-opacity: 1.0;stroke-width: 1.000000;stroke-opacity: 1;stroke-linecap: round;stroke-linejoin: round">
<path style="fill-opacity: 1.0;stroke-width: 1.000000;stroke-opacity: 1;stroke-linecap: round;stroke-linejoin: round;fill-rule: evenodd" d="M 145135600.000000,105638600.000000 145146419.000000,105556425.000000 145193019.000000,105456489.000000 145270989.000000,105378519.000000 145370925.000000,105331919.000000 145453100.000000,105321100.000000 145535275.000000,105331919.000000 145635211.000000,105378519.000000 145713181.000000,105456489.000000 145759781.000000,105556425.000000 145770600.000000,105638600.000000 145759781.000000,105720775.000000 145713181.000000,105820711.000000 145635211.000000,105898681.000000 145535275.000000,105945281.000000 145453100.000000,105956100.000000 145370925.000000,105945281.000000 145270989.000000,105898681.000000 145193019.000000,105820711.000000 145146419.000000,105720775.000000 145135600.000000,105638600.000000 Z"/> 
</g>
<g style="fill-opacity: 1.0;stroke-width: 1.000000;stroke-opacity: 1;stroke-linecap: round;stroke-linejoin: round">
<path style="fill-opacity: 1.0;stroke-width: 1.000000;stroke-opacity: 1;stroke-linecap: round;stroke-linejoin: round;fill-rule: evenodd" d="M 151231600.000000,98780600.000000 151242419.000000,98698425.000000 151289019.000000,98598489.000000 151366989.000000,98520519.000000 151466925.000000,98473919.000000 151549100.000000,98463100.000000 151631275.000000,98473919.000000 151731211.000000,98520519.000000 151809181.000000,98598489.000000 151855781.000000,98698425.000000 151866600.000000,98780600.000000 151855781.000000,98862775.000000 151809181.000000,98962711.000000 151731211.000000,99040681.000000 151631275.000000,99087281.000000 151549100.000000,99098100.000000 151466925.000000,99087281.000000 151366989.000000,99040681.000000 151289019.000000,98962711.000000 151242419.000000,98862775.000000 151231600.000000,98780600.000000 Z"/> 
</g>
<g style="fill-opacity: 1.0;stroke-width: 1.000000;stroke-opacity: 1;stroke-linecap: round;stroke-linejoin: round">
<path style="fill-opacity: 1.0;stroke-width: 1.000000;stroke-opacity: 1;stroke-linecap: round;stroke-linejoin: round;fill-rule: evenodd" d="M 150901099.000000,104438601.000000 150901099.000000,105038599.000000 149701101.000000,105038599.000000 149701101.000000,104438601.000000 Z"/> 
<path style="fill-opacity: 1.0;stroke-width: 1.000000;stroke-opacity: 1;stroke-linecap: round;stroke-linejoin: round;fill-rule: evenodd" d="M 147301099.000000,104438601.000000 147301099.000000,105038599.000000 146101101.000000,105038599.000000 146101101.000000,104438601.000000 Z"/> 
<path style="fill-opacity: 1.0;stroke-width: 1.000000;stroke-opacity: 1;stroke-linecap: round;stroke-linejoin: round;fill-rule: evenodd" d="M 147301099.000000,106238601.000000 147301099.000000,106838599.000000 146101101.000000,106838599.000000 146101101.000000,106238601.000000 Z"/> 
<path style="fill-opacity: 1.0;stroke-width: 1.000000;stroke-opacity: 1;stroke-linecap: round;stroke-linejoin: round;fill-rule: evenodd" d="M 150901099.000000,106238601.000000 150901099.000000,106838599.000000 149701101.000000,106838599.000000 149701101.000000,106238601.000000 Z"/> 
</g>
<g style="fill-opacity: 1.0;stroke-width: 1.000000;stroke-opacity: 1;stroke-linecap: round;stroke-linejoin: round">
<path style="fill-opacity: 1.0;stroke-width: 1.000000;stroke-opacity: 1;stroke-linecap: round;stroke-linejoin: round;fill-rule: evenodd" d="M 149501099.000000,107728601.000000 149501099.000000,108628599.000000 148801101.000000,108628599.000000 148801101.000000,107728601.000000 Z"/> 
<path style="fill-opacity: 1.0;stroke-width: 1.000000;stroke-opacity: 1;stroke-linecap: round;stroke-linejoin: round;fill-rule: evenodd" d="M 148201099.000000,107728601.000000 148201099.000000,108628599.000000 147501101.000000,108628599.000000 147501101.000000,107728601.000000 Z"/> 
</g>
<g style="fill-opacity: 1.0;stroke-width: 1.000000;stroke-opacity: 1;stroke-linecap: round;stroke-linejoin: round">
<circle cx="151041100.000000" cy="110718600.000000" r="939800.000000"/> 
</g>
<g style="fill-opacity: 1.0;stroke-width: 1.000000;stroke-opacity: 1;stroke-linecap: round;stroke-linejoin: round">
<circle cx="148501100.000000" cy="110718600.000000" r="939800.000000"/> 
</g>
<g style="fill-opacity: 1.0;stroke-width: 1.000000;stroke-opacity: 1;stroke-linecap: round;stroke-linejoin: round">
<circle cx="145961100.000000" cy="110718600.000000" r="939800.000000"/> 
</g>
<g style="fill-opacity: 1.0;stroke-width: 1.000000;stroke-opacity: 1;stroke-linecap: round;stroke-linejoin: round">
<circle cx="145961100.000000" cy="103098600.000000" r="508000.000000"/> 
</g>
<g style="fill-opacity: 0.0;stroke-width: 254000.000000;stroke-opacity: 1;stroke-linecap: round;stroke-linejoin: round">
<path d="M151691100 105388600 L151041100 104738600 "/>
<path d="M151041100 104738600 L150301100 104738600 "/>
<path d="M151691100 108178600 L151691100 105388600 "/>
<path d="M150391100 108798600 L151041100 109448600 "/>
<path d="M150391100 108178600 L150391100 108798600 "/>
<path d="M151041100 109448600 L151041100 110718600 "/>
<path d="M149151100 108178600 L150391100 108178600 "/>
<path d="M147601100 104738600 L149401100 106538600 "/>
<path d="M145961100 103098600 L145961100 104368600 "/>
<path d="M146331100 104738600 L146701100 104738600 "/>
<path d="M146701100 104738600 L147601100 104738600 "/>
<path d="M145961100 104368600 L146331100 104738600 "/>
<path d="M149401100 106538600 L150301100 106538600 "/>
<path d="M146611100 108178600 L147851100 108178600 "/>
<path d="M146611100 106628600 L146701100 106538600 "/>
<path d="M146611100 108178600 L146611100 106628600 "/>
<path d="M147231100 109448600 L148501100 110718600 "/>
<path d="M145311100 108798600 L145961100 109448600 "/>
<path d="M145961100 109448600 L147231100 109448600 "/>
<path d="M145311100 108178600 L145311100 108798600 "/>
</g>
</g> 
</g><g id="substrate-silk" style="fill:#f0f0f0; stroke:#f0f0f0;" mask="url(#pads-mask-silkscreen)"><g style="fill-opacity: 0.0;stroke-width: 190500.000000;stroke-opacity: 1;stroke-linecap: round;stroke-linejoin: round">
<text x="147485100.000000" y="103733600.000000" textLength="2210406.000000" font-size="1439333.000000" lengthAdjust="spacingAndGlyphs" text-anchor="start" opacity="0">QD</text>
<g class="stroked-text"><desc>QD</desc>
<path d="M148585615 103785004 L148482805 103733600 L148379996 103630790 L148225782 103476576 L148122972 103425171 L148020163 103425171 "/>
<path d="M148071567 103682195 L147968758 103630790 L147865948 103527980 L147814544 103322361 L147814544 102962528 L147865948 102756909 L147968758 102654100 L148071567 102602695 L148277186 102602695 L148379996 102654100 L148482805 102756909 L148534210 102962528 L148534210 103322361 L148482805 103527980 L148379996 103630790 L148277186 103682195 L148071567 103682195 "/>
<path d="M148996853 103682195 L148996853 102602695 L149253877 102602695 L149408091 102654100 L149510901 102756909 L149562305 102859719 L149613710 103065338 L149613710 103219552 L149562305 103425171 L149510901 103527980 L149408091 103630790 L149253877 103682195 L148996853 103682195 "/>
</g></g>
<g style="fill-opacity: 0.0;stroke-width: 32512.000000;stroke-opacity: 1;stroke-linecap: round;stroke-linejoin: round">
<text x="146850100.000000" y="109250988.000000" textLength="977622.000000" font-size="498517.000000" lengthAdjust="spacingAndGlyphs" text-anchor="end" opacity="0">R2</text>
<g class="stroked-text"><desc>R2</desc>
<path d="M146401666 109233183 L146277037 109055141 "/>
<path d="M146188016 109233183 L146188016 108859295 L146330449 108859295 L146366058 108877100 L146383862 108894904 L146401666 108930512 L146401666 108983925 L146383862 109019533 L146366058 109037337 L146330449 109055141 L146188016 109055141 "/>
<path d="M146544100 108894904 L146561904 108877100 L146597512 108859295 L146686533 108859295 L146722142 108877100 L146739946 108894904 L146757750 108930512 L146757750 108966120 L146739946 109019533 L146526295 109233183 L146757750 109233183 "/>
</g><text x="151930100.000000" y="109250988.000000" textLength="772237.000000" font-size="498517.000000" lengthAdjust="spacingAndGlyphs" text-anchor="end" opacity="0">R1</text>
<g class="stroked-text"><desc>R1</desc>
<path d="M151481666 109233183 L151357037 109055141 "/>
<path d="M151268016 109233183 L151268016 108859295 L151410449 108859295 L151446058 108877100 L151463862 108894904 L151481666 108930512 L151481666 108983925 L151463862 109019533 L151446058 109037337 L151410449 109055141 L151268016 109055141 "/>
<path d="M151837750 109233183 L151624100 109233183 "/>
<path d="M151730925 109233183 L151730925 108859295 L151695316 108912708 L151659708 108948316 L151624100 108966120 "/>
</g><text x="149390100.000000" y="109250988.000000" textLength="772237.000000" font-size="498517.000000" lengthAdjust="spacingAndGlyphs" text-anchor="end" opacity="0">C1</text>
<g class="stroked-text"><desc>C1</desc>
<path d="M148941666 109197575 L148923862 109215379 L148870449 109233183 L148834841 109233183 L148781428 109215379 L148745820 109179771 L148728016 109144162 L148710212 109072946 L148710212 109019533 L148728016 108948316 L148745820 108912708 L148781428 108877100 L148834841 108859295 L148870449 108859295 L148923862 108877100 L148941666 108894904 "/>
<path d="M149297750 109233183 L149084100 109233183 "/>
<path d="M149190925 109233183 L149190925 108859295 L149155316 108912708 L149119708 108948316 L149084100 108966120 "/>
</g></g>
<g style="fill-opacity: 1.0;stroke-width: 1.000000;stroke-opacity: 1;stroke-linecap: round;stroke-linejoin: round">
<path style="fill-opacity: 1.0;stroke-width: 1.000000;stroke-opacity: 1;stroke-linecap: round;stroke-linejoin: round;fill-rule: evenodd" d="M 146164300.000000,108534200.000000 145757900.000000,108534200.000000 145757900.000000,107823000.000000 146164300.000000,107823000.000000 Z"/> 
<path style="fill-opacity: 1.0;stroke-width: 1.000000;stroke-opacity: 1;stroke-linecap: round;stroke-linejoin: round;fill-rule: evenodd" d="M 151244300.000000,108534200.000000 150837900.000000,108534200.000000 150837900.000000,107823000.000000 151244300.000000,107823000.000000 Z"/> 
</g>
<g style="fill-opacity: 0.0;stroke-width: 203200.000000;stroke-opacity: 1;stroke-linecap: round;stroke-linejoin: round">
<path d="M149871100 104214600 L149601100 103938600 "/>
<path d="M149928100 107265600 L149928100 107338600 "/>
<path d="M147101100 107338600 L147101100 107292600 "/>
<path d="M149601100 103938600 L147101100 103938600 "/>
<path d="M147101100 103938600 L147101100 104011600 "/>
<path d="M149928100 107338600 L147101100 107338600 "/>
</g>
<g style="fill-opacity: 0.0;stroke-width: 406400.000000;stroke-opacity: 1;stroke-linecap: round;stroke-linejoin: round">
<path d="M148501100 108209100 L148501100 108148100 "/>
</g> 
</g><g id="substrate-outline" style="fill:#000000; stroke:#000000; stroke-width: 150000"><g style="fill-opacity: 0.0;stroke-opacity: 1;stroke-linecap: round;stroke-linejoin: round">
<path d="M152311100 98018600 L144691100 98018600 "/>
<path d="M144691100 98018600 L144691100 111988600 "/>
<path d="M152311100 111988600 L152311100 98018600 "/>
<path d="M144691100 111988600 L152311100 111988600 "/>
</g> 
<path d="M -1651000.0 0.0 A 1651000.0 1651000.0 0 1 1 1651000.0 0.0 L 1651000.0 0.0 A 1651000.0 1651000.0 0 1 1 -1651000.0 0.0 Z" transform="translate(148501100 100558600) rotate(-0.0)"/><path d="M -508000.0 0.0 A 508000.0 508000.0 0 1 1 508000.0 0.0 L 508000.0 0.0 A 508000.0 508000.0 0 1 1 -508000.0 0.0 Z" transform="translate(151041100 110718600) rotate(-90.0)"/><path d="M -508000.0 0.0 A 508000.0 508000.0 0 1 1 508000.0 0.0 L 508000.0 0.0 A 508000.0 508000.0 0 1 1 -508000.0 0.0 Z" transform="translate(148501100 110718600) rotate(-90.0)"/><path d="M -508000.0 0.0 A 508000.0 508000.0 0 1 1 508000.0 0.0 L 508000.0 0.0 A 508000.0 508000.0 0 1 1 -508000.0 0.0 Z" transform="translate(145961100 110718600) rotate(-90.0)"/><path d="M -254000.0 0.0 A 254000.0 254000.0 0 1 1 254000.0 0.0 L 254000.0 0.0 A 254000.0 254000.0 0 1 1 -254000.0 0.0 Z" transform="translate(145961100 103098600) rotate(0.0)"/></g></g></g></svg>