<?xml version="1.0" standalone="no"?>
 <!DOCTYPE svg PUBLIC "-//W3C//DTD SVG 1.1//EN" 
 "http://www.w3.org/Graphics/SVG/1.1/DTD/svg11.dtd"> 
<svg
  xmlns:svg="http://www.w3.org/2000/svg"
  xmlns="http://www.w3.org/2000/svg"
  xmlns:xlink="http://www.w3.org/1999/xlink"
  version="1.1"
  width="29.700220cm" height="21.000720cm" viewBox="0 0 297002200 210007200">
<title>SVG Picture created as kicadBoard-F_Silkscreen.svg date 2022/11/20 11:45:33 </title>
  <desc>Picture generated by PCBNEW </desc>
<g style="fill:#000000; fill-opacity:1.000000;stroke:#000000; stroke-opacity:1.000000;
stroke-linecap:round; stroke-linejoin:round;"
 transform="translate(0 0) scale(1 1)">
</g>
<g style="fill:#000000; fill-opacity:0.0; 
stroke:#000000; stroke-width:0.000000; stroke-opacity:1; 
stroke-linecap:round; stroke-linejoin:round;">
</g>
<g style="fill:#000000; fill-opacity:0.0; 
stroke:#000000; stroke-width:21200.000000; stroke-opacity:1; 
stroke-linecap:round; stroke-linejoin:round;">
</g>
<g style="fill:#000000; fill-opacity:0.0; 
stroke:#000000; stroke-width:150000.000000; stroke-opacity:1; 
stroke-linecap:round; stroke-linejoin:round;">
<rect x="177002200.000000" y="166007200.000000" width="108000000.000000" height="32000000.000000" rx="0.000000" />
</g>
<g style="fill:#000000; fill-opacity:0.0; 
stroke:#000000; stroke-width:21200.000000; stroke-opacity:1; 
stroke-linecap:round; stroke-linejoin:round;">
</g>
<g style="fill:#000000; fill-opacity:0.0; 
stroke:#000000; stroke-width:150000.000000; stroke-opacity:1; 
stroke-linecap:round; stroke-linejoin:round;">
<rect x="10000000.000000" y="10000000.000000" width="277002200.000000" height="190007200.000000" rx="0.000000" />
</g>
<g style="fill:#000000; fill-opacity:0.0; 
stroke:#000000; stroke-width:21200.000000; stroke-opacity:1; 
stroke-linecap:round; stroke-linejoin:round;">
</g>
<g style="fill:#000000; fill-opacity:0.0; 
stroke:#000000; stroke-width:150000.000000; stroke-opacity:1; 
stroke-linecap:round; stroke-linejoin:round;">
<rect x="12000000.000000" y="12000000.000000" width="273002200.000000" height="186007200.000000" rx="0.000000" />
</g>
<g style="fill:#000000; fill-opacity:0.0; 
stroke:#000000; stroke-width:21200.000000; stroke-opacity:1; 
stroke-linecap:round; stroke-linejoin:round;">
</g>
<g style="fill:#000000; fill-opacity:0.0; 
stroke:#000000; stroke-width:150000.000000; stroke-opacity:1; 
stroke-linecap:round; stroke-linejoin:round;">
<path d="M60000000 12000000
L60000000 10000000
" />
</g>
<g style="fill:#000000; fill-opacity:0.0; 
stroke:#000000; stroke-width:21200.000000; stroke-opacity:1; 
stroke-linecap:round; stroke-linejoin:round;">
</g>
<g style="fill:#000000; fill-opacity:0.0; 
stroke:#000000; stroke-width:150000.000000; stroke-opacity:1; 
stroke-linecap:round; stroke-linejoin:round;">
<path d="M110000000 12000000
L110000000 10000000
" />
</g>
<g style="fill:#000000; fill-opacity:0.0; 
stroke:#000000; stroke-width:21200.000000; stroke-opacity:1; 
stroke-linecap:round; stroke-linejoin:round;">
</g>
<g style="fill:#000000; fill-opacity:0.0; 
stroke:#000000; stroke-width:150000.000000; stroke-opacity:1; 
stroke-linecap:round; stroke-linejoin:round;">
<path d="M160000000 12000000
L160000000 10000000
" />
</g>
<g style="fill:#000000; fill-opacity:0.0; 
stroke:#000000; stroke-width:21200.000000; stroke-opacity:1; 
stroke-linecap:round; stroke-linejoin:round;">
</g>
<g style="fill:#000000; fill-opacity:0.0; 
stroke:#000000; stroke-width:150000.000000; stroke-opacity:1; 
stroke-linecap:round; stroke-linejoin:round;">
<path d="M210000000 12000000
L210000000 10000000
" />
</g>
<g style="fill:#000000; fill-opacity:0.0; 
stroke:#000000; stroke-width:21200.000000; stroke-opacity:1; 
stroke-linecap:round; stroke-linejoin:round;">
</g>
<g style="fill:#000000; fill-opacity:0.0; 
stroke:#000000; stroke-width:150000.000000; stroke-opacity:1; 
stroke-linecap:round; stroke-linejoin:round;">
<path d="M260000000 12000000
L260000000 10000000
" />
</g>
<g style="fill:#000000; fill-opacity:0.0; 
stroke:#000000; stroke-width:21200.000000; stroke-opacity:1; 
stroke-linecap:round; stroke-linejoin:round;">
</g>
<g style="fill:#000000; fill-opacity:0.0; 
stroke:#000000; stroke-width:150000.000000; stroke-opacity:1; 
stroke-linecap:round; stroke-linejoin:round;">
<text x="35000000.000000" y="11650000.000000"
textLength="1364892.000000" font-size="1733333.000000" lengthAdjust="spacingAndGlyphs"
text-anchor="start" opacity="0">1</text>
<g class="stroked-text"><desc>1</desc>
<path d="M36065476 11588095
L35322619 11588095
" />
<path d="M35694047 11588095
L35694047 10288095
L35570238 10473809
L35446428 10597619
L35322619 10659523
" />
</g></g>
<g style="fill:#000000; fill-opacity:0.0; 
stroke:#000000; stroke-width:21200.000000; stroke-opacity:1; 
stroke-linecap:round; stroke-linejoin:round;">
</g>
<g style="fill:#000000; fill-opacity:0.0; 
stroke:#000000; stroke-width:150000.000000; stroke-opacity:1; 
stroke-linecap:round; stroke-linejoin:round;">
<text x="85000000.000000" y="11650000.000000"
textLength="1388095.000000" font-size="1733333.000000" lengthAdjust="spacingAndGlyphs"
text-anchor="start" opacity="0">2</text>
<g class="stroked-text"><desc>2</desc>
<path d="M85322619 10411904
L85384523 10350000
L85508333 10288095
L85817857 10288095
L85941666 10350000
L86003571 10411904
L86065476 10535714
L86065476 10659523
L86003571 10845238
L85260714 11588095
L86065476 11588095
" />
</g></g>
<g style="fill:#000000; fill-opacity:0.0; 
stroke:#000000; stroke-width:21200.000000; stroke-opacity:1; 
stroke-linecap:round; stroke-linejoin:round;">
</g>
<g style="fill:#000000; fill-opacity:0.0; 
stroke:#000000; stroke-width:150000.000000; stroke-opacity:1; 
stroke-linecap:round; stroke-linejoin:round;">
<text x="135000000.000000" y="11650000.000000"
textLength="1388095.000000" font-size="1733333.000000" lengthAdjust="spacingAndGlyphs"
text-anchor="start" opacity="0">3</text>
<g class="stroked-text"><desc>3</desc>
<path d="M135260714 10288095
L136065476 10288095
L135632142 10783333
L135817857 10783333
L135941666 10845238
L136003571 10907142
L136065476 11030952
L136065476 11340476
L136003571 11464285
L135941666 11526190
L135817857 11588095
L135446428 11588095
L135322619 11526190
L135260714 11464285
" />
</g></g>
<g style="fill:#000000; fill-opacity:0.0; 
stroke:#000000; stroke-width:21200.000000; stroke-opacity:1; 
stroke-linecap:round; stroke-linejoin:round;">
</g>
<g style="fill:#000000; fill-opacity:0.0; 
stroke:#000000; stroke-width:150000.000000; stroke-opacity:1; 
stroke-linecap:round; stroke-linejoin:round;">
<text x="185000000.000000" y="11650000.000000"
textLength="1388095.000000" font-size="1733333.000000" lengthAdjust="spacingAndGlyphs"
text-anchor="start" opacity="0">4</text>
<g class="stroked-text"><desc>4</desc>
<path d="M185941666 10721428
L185941666 11588095
" />
<path d="M185632142 10226190
L185322619 11154761
L186127380 11154761
" />
</g></g>
<g style="fill:#000000; fill-opacity:0.0; 
stroke:#000000; stroke-width:21200.000000; stroke-opacity:1; 
stroke-linecap:round; stroke-linejoin:round;">
</g>
<g style="fill:#000000; fill-opacity:0.0; 
stroke:#000000; stroke-width:150000.000000; stroke-opacity:1; 
stroke-linecap:round; stroke-linejoin:round;">
<text x="235000000.000000" y="11650000.000000"
textLength="1388095.000000" font-size="1733333.000000" lengthAdjust="spacingAndGlyphs"
text-anchor="start" opacity="0">5</text>
<g class="stroked-text"><desc>5</desc>
<path d="M236003571 10288095
L235384523 10288095
L235322619 10907142
L235384523 10845238
L235508333 10783333
L235817857 10783333
L235941666 10845238
L236003571 10907142
L236065476 11030952
L236065476 11340476
L236003571 11464285
L235941666 11526190
L235817857 11588095
L235508333 11588095
L235384523 11526190
L235322619 11464285
" />
</g></g>
<g style="fill:#000000; fill-opacity:0.0; 
stroke:#000000; stroke-width:21200.000000; stroke-opacity:1; 
stroke-linecap:round; stroke-linejoin:round;">
</g>
<g style="fill:#000000; fill-opacity:0.0; 
stroke:#000000; stroke-width:150000.000000; stroke-opacity:1; 
stroke-linecap:round; stroke-linejoin:round;">
<text x="285000000.000000" y="11650000.000000"
textLength="1388095.000000" font-size="1733333.000000" lengthAdjust="spacingAndGlyphs"
text-anchor="start" opacity="0">6</text>
<g class="stroked-text"><desc>6</desc>
<path d="M285941666 10288095
L285694047 10288095
L285570238 10350000
L285508333 10411904
L285384523 10597619
L285322619 10845238
L285322619 11340476
L285384523 11464285
L285446428 11526190
L285570238 11588095
L285817857 11588095
L285941666 11526190
L286003571 11464285
L286065476 11340476
L286065476 11030952
L286003571 10907142
L285941666 10845238
L285817857 10783333
L285570238 10783333
L285446428 10845238
L285384523 10907142
L285322619 11030952
" />
</g></g>
<g style="fill:#000000; fill-opacity:0.0; 
stroke:#000000; stroke-width:21200.000000; stroke-opacity:1; 
stroke-linecap:round; stroke-linejoin:round;">
</g>
<g style="fill:#000000; fill-opacity:0.0; 
stroke:#000000; stroke-width:150000.000000; stroke-opacity:1; 
stroke-linecap:round; stroke-linejoin:round;">
<path d="M60000000 198007200
L60000000 200007200
" />
</g>
<g style="fill:#000000; fill-opacity:0.0; 
stroke:#000000; stroke-width:21200.000000; stroke-opacity:1; 
stroke-linecap:round; stroke-linejoin:round;">
</g>
<g style="fill:#000000; fill-opacity:0.0; 
stroke:#000000; stroke-width:150000.000000; stroke-opacity:1; 
stroke-linecap:round; stroke-linejoin:round;">
<path d="M110000000 198007200
L110000000 200007200
" />
</g>
<g style="fill:#000000; fill-opacity:0.0; 
stroke:#000000; stroke-width:21200.000000; stroke-opacity:1; 
stroke-linecap:round; stroke-linejoin:round;">
</g>
<g style="fill:#000000; fill-opacity:0.0; 
stroke:#000000; stroke-width:150000.000000; stroke-opacity:1; 
stroke-linecap:round; stroke-linejoin:round;">
<path d="M160000000 198007200
L160000000 200007200
" />
</g>
<g style="fill:#000000; fill-opacity:0.0; 
stroke:#000000; stroke-width:21200.000000; stroke-opacity:1; 
stroke-linecap:round; stroke-linejoin:round;">
</g>
<g style="fill:#000000; fill-opacity:0.0; 
stroke:#000000; stroke-width:150000.000000; stroke-opacity:1; 
stroke-linecap:round; stroke-linejoin:round;">
<path d="M210000000 198007200
L210000000 200007200
" />
</g>
<g style="fill:#000000; fill-opacity:0.0; 
stroke:#000000; stroke-width:21200.000000; stroke-opacity:1; 
stroke-linecap:round; stroke-linejoin:round;">
</g>
<g style="fill:#000000; fill-opacity:0.0; 
stroke:#000000; stroke-width:150000.000000; stroke-opacity:1; 
stroke-linecap:round; stroke-linejoin:round;">
<path d="M260000000 198007200
L260000000 200007200
" />
</g>
<g style="fill:#000000; fill-opacity:0.0; 
stroke:#000000; stroke-width:21200.000000; stroke-opacity:1; 
stroke-linecap:round; stroke-linejoin:round;">
</g>
<g style="fill:#000000; fill-opacity:0.0; 
stroke:#000000; stroke-width:150000.000000; stroke-opacity:1; 
stroke-linecap:round; stroke-linejoin:round;">
<text x="35000000.000000" y="199657200.000000"
textLength="1388095.000000" font-size="1733333.000000" lengthAdjust="spacingAndGlyphs"
text-anchor="start" opacity="0">1</text>
<g class="stroked-text"><desc>1</desc>
<path d="M36065476 199595295
L35322619 199595295
" />
<path d="M35694047 199595295
L35694047 198295295
L35570238 198481009
L35446428 198604819
L35322619 198666723
" />
</g></g>
<g style="fill:#000000; fill-opacity:0.0; 
stroke:#000000; stroke-width:21200.000000; stroke-opacity:1; 
stroke-linecap:round; stroke-linejoin:round;">
</g>
<g style="fill:#000000; fill-opacity:0.0; 
stroke:#000000; stroke-width:150000.000000; stroke-opacity:1; 
stroke-linecap:round; stroke-linejoin:round;">
<text x="85000000.000000" y="199657200.000000"
textLength="1388095.000000" font-size="1733333.000000" lengthAdjust="spacingAndGlyphs"
text-anchor="start" opacity="0">2</text>
<g class="stroked-text"><desc>2</desc>
<path d="M85322619 198419104
L85384523 198357200
L85508333 198295295
L85817857 198295295
L85941666 198357200
L86003571 198419104
L86065476 198542914
L86065476 198666723
L86003571 198852438
L85260714 199595295
L86065476 199595295
" />
</g></g>
<g style="fill:#000000; fill-opacity:0.0; 
stroke:#000000; stroke-width:21200.000000; stroke-opacity:1; 
stroke-linecap:round; stroke-linejoin:round;">
</g>
<g style="fill:#000000; fill-opacity:0.0; 
stroke:#000000; stroke-width:150000.000000; stroke-opacity:1; 
stroke-linecap:round; stroke-linejoin:round;">
<text x="135000000.000000" y="199657200.000000"
textLength="1388095.000000" font-size="1733333.000000" lengthAdjust="spacingAndGlyphs"
text-anchor="start" opacity="0">3</text>
<g class="stroked-text"><desc>3</desc>
<path d="M135260714 198295295
L136065476 198295295
L135632142 198790533
L135817857 198790533
L135941666 198852438
L136003571 198914342
L136065476 199038152
L136065476 199347676
L136003571 199471485
L135941666 199533390
L135817857 199595295
L135446428 199595295
L135322619 199533390
L135260714 199471485
" />
</g></g>
<g style="fill:#000000; fill-opacity:0.0; 
stroke:#000000; stroke-width:21200.000000; stroke-opacity:1; 
stroke-linecap:round; stroke-linejoin:round;">
</g>
<g style="fill:#000000; fill-opacity:0.0; 
stroke:#000000; stroke-width:150000.000000; stroke-opacity:1; 
stroke-linecap:round; stroke-linejoin:round;">
<text x="185000000.000000" y="199657200.000000"
textLength="1388095.000000" font-size="1733333.000000" lengthAdjust="spacingAndGlyphs"
text-anchor="start" opacity="0">4</text>
<g class="stroked-text"><desc>4</desc>
<path d="M185941666 198728628
L185941666 199595295
" />
<path d="M185632142 198233390
L185322619 199161961
L186127380 199161961
" />
</g></g>
<g style="fill:#000000; fill-opacity:0.0; 
stroke:#000000; stroke-width:21200.000000; stroke-opacity:1; 
stroke-linecap:round; stroke-linejoin:round;">
</g>
<g style="fill:#000000; fill-opacity:0.0; 
stroke:#000000; stroke-width:150000.000000; stroke-opacity:1; 
stroke-linecap:round; stroke-linejoin:round;">
<text x="235000000.000000" y="199657200.000000"
textLength="1388095.000000" font-size="1733333.000000" lengthAdjust="spacingAndGlyphs"
text-anchor="start" opacity="0">5</text>
<g class="stroked-text"><desc>5</desc>
<path d="M236003571 198295295
L235384523 198295295
L235322619 198914342
L235384523 198852438
L235508333 198790533
L235817857 198790533
L235941666 198852438
L236003571 198914342
L236065476 199038152
L236065476 199347676
L236003571 199471485
L235941666 199533390
L235817857 199595295
L235508333 199595295
L235384523 199533390
L235322619 199471485
" />
</g></g>
<g style="fill:#000000; fill-opacity:0.0; 
stroke:#000000; stroke-width:21200.000000; stroke-opacity:1; 
stroke-linecap:round; stroke-linejoin:round;">
</g>
<g style="fill:#000000; fill-opacity:0.0; 
stroke:#000000; stroke-width:150000.000000; stroke-opacity:1; 
stroke-linecap:round; stroke-linejoin:round;">
<text x="285000000.000000" y="199657200.000000"
textLength="1388095.000000" font-size="1733333.000000" lengthAdjust="spacingAndGlyphs"
text-anchor="start" opacity="0">6</text>
<g class="stroked-text"><desc>6</desc>
<path d="M285941666 198295295
L285694047 198295295
L285570238 198357200
L285508333 198419104
L285384523 198604819
L285322619 198852438
L285322619 199347676
L285384523 199471485
L285446428 199533390
L285570238 199595295
L285817857 199595295
L285941666 199533390
L286003571 199471485
L286065476 199347676
L286065476 199038152
L286003571 198914342
L285941666 198852438
L285817857 198790533
L285570238 198790533
L285446428 198852438
L285384523 198914342
L285322619 199038152
" />
</g></g>
<g style="fill:#000000; fill-opacity:0.0; 
stroke:#000000; stroke-width:21200.000000; stroke-opacity:1; 
stroke-linecap:round; stroke-linejoin:round;">
</g>
<g style="fill:#000000; fill-opacity:0.0; 
stroke:#000000; stroke-width:150000.000000; stroke-opacity:1; 
stroke-linecap:round; stroke-linejoin:round;">
<path d="M10000000 60000000
L12000000 60000000
" />
</g>
<g style="fill:#000000; fill-opacity:0.0; 
stroke:#000000; stroke-width:21200.000000; stroke-opacity:1; 
stroke-linecap:round; stroke-linejoin:round;">
</g>
<g style="fill:#000000; fill-opacity:0.0; 
stroke:#000000; stroke-width:150000.000000; stroke-opacity:1; 
stroke-linecap:round; stroke-linejoin:round;">
<path d="M10000000 110000000
L12000000 110000000
" />
</g>
<g style="fill:#000000; fill-opacity:0.0; 
stroke:#000000; stroke-width:21200.000000; stroke-opacity:1; 
stroke-linecap:round; stroke-linejoin:round;">
</g>
<g style="fill:#000000; fill-opacity:0.0; 
stroke:#000000; stroke-width:150000.000000; stroke-opacity:1; 
stroke-linecap:round; stroke-linejoin:round;">
<path d="M10000000 160000000
L12000000 160000000
" />
</g>
<g style="fill:#000000; fill-opacity:0.0; 
stroke:#000000; stroke-width:21200.000000; stroke-opacity:1; 
stroke-linecap:round; stroke-linejoin:round;">
</g>
<g style="fill:#000000; fill-opacity:0.0; 
stroke:#000000; stroke-width:150000.000000; stroke-opacity:1; 
stroke-linecap:round; stroke-linejoin:round;">
<text x="11000000.000000" y="35650000.000000"
textLength="1264286.000000" font-size="1733333.000000" lengthAdjust="spacingAndGlyphs"
text-anchor="middle" opacity="0">A</text>
<g class="stroked-text"><desc>A</desc>
<path d="M10690476 35216666
L11309523 35216666
" />
<path d="M10566666 35588095
L11000000 34288095
L11433333 35588095
" />
</g></g>
<g style="fill:#000000; fill-opacity:0.0; 
stroke:#000000; stroke-width:21200.000000; stroke-opacity:1; 
stroke-linecap:round; stroke-linejoin:round;">
</g>
<g style="fill:#000000; fill-opacity:0.0; 
stroke:#000000; stroke-width:150000.000000; stroke-opacity:1; 
stroke-linecap:round; stroke-linejoin:round;">
<text x="11000000.000000" y="85650000.000000"
textLength="1450000.000000" font-size="1733333.000000" lengthAdjust="spacingAndGlyphs"
text-anchor="middle" opacity="0">B</text>
<g class="stroked-text"><desc>B</desc>
<path d="M11092857 84907142
L11278571 84969047
L11340476 85030952
L11402380 85154761
L11402380 85340476
L11340476 85464285
L11278571 85526190
L11154761 85588095
L10659523 85588095
L10659523 84288095
L11092857 84288095
L11216666 84350000
L11278571 84411904
L11340476 84535714
L11340476 84659523
L11278571 84783333
L11216666 84845238
L11092857 84907142
L10659523 84907142
" />
</g></g>
<g style="fill:#000000; fill-opacity:0.0; 
stroke:#000000; stroke-width:21200.000000; stroke-opacity:1; 
stroke-linecap:round; stroke-linejoin:round;">
</g>
<g style="fill:#000000; fill-opacity:0.0; 
stroke:#000000; stroke-width:150000.000000; stroke-opacity:1; 
stroke-linecap:round; stroke-linejoin:round;">
<text x="11000000.000000" y="135650000.000000"
textLength="1450000.000000" font-size="1733333.000000" lengthAdjust="spacingAndGlyphs"
text-anchor="middle" opacity="0">C</text>
<g class="stroked-text"><desc>C</desc>
<path d="M11402380 135464285
L11340476 135526190
L11154761 135588095
L11030952 135588095
L10845238 135526190
L10721428 135402380
L10659523 135278571
L10597619 135030952
L10597619 134845238
L10659523 134597619
L10721428 134473809
L10845238 134350000
L11030952 134288095
L11154761 134288095
L11340476 134350000
L11402380 134411904
" />
</g></g>
<g style="fill:#000000; fill-opacity:0.0; 
stroke:#000000; stroke-width:21200.000000; stroke-opacity:1; 
stroke-linecap:round; stroke-linejoin:round;">
</g>
<g style="fill:#000000; fill-opacity:0.0; 
stroke:#000000; stroke-width:150000.000000; stroke-opacity:1; 
stroke-linecap:round; stroke-linejoin:round;">
<text x="11000000.000000" y="185650000.000000"
textLength="1450000.000000" font-size="1733333.000000" lengthAdjust="spacingAndGlyphs"
text-anchor="middle" opacity="0">D</text>
<g class="stroked-text"><desc>D</desc>
<path d="M10659523 185588095
L10659523 184288095
L10969047 184288095
L11154761 184350000
L11278571 184473809
L11340476 184597619
L11402380 184845238
L11402380 185030952
L11340476 185278571
L11278571 185402380
L11154761 185526190
L10969047 185588095
L10659523 185588095
" />
</g></g>
<g style="fill:#000000; fill-opacity:0.0; 
stroke:#000000; stroke-width:21200.000000; stroke-opacity:1; 
stroke-linecap:round; stroke-linejoin:round;">
</g>
<g style="fill:#000000; fill-opacity:0.0; 
stroke:#000000; stroke-width:150000.000000; stroke-opacity:1; 
stroke-linecap:round; stroke-linejoin:round;">
<path d="M287002200 60000000
L285002200 60000000
" />
</g>
<g style="fill:#000000; fill-opacity:0.0; 
stroke:#000000; stroke-width:21200.000000; stroke-opacity:1; 
stroke-linecap:round; stroke-linejoin:round;">
</g>
<g style="fill:#000000; fill-opacity:0.0; 
stroke:#000000; stroke-width:150000.000000; stroke-opacity:1; 
stroke-linecap:round; stroke-linejoin:round;">
<path d="M287002200 110000000
L285002200 110000000
" />
</g>
<g style="fill:#000000; fill-opacity:0.0; 
stroke:#000000; stroke-width:21200.000000; stroke-opacity:1; 
stroke-linecap:round; stroke-linejoin:round;">
</g>
<g style="fill:#000000; fill-opacity:0.0; 
stroke:#000000; stroke-width:150000.000000; stroke-opacity:1; 
stroke-linecap:round; stroke-linejoin:round;">
<path d="M287002200 160000000
L285002200 160000000
" />
</g>
<g style="fill:#000000; fill-opacity:0.0; 
stroke:#000000; stroke-width:21200.000000; stroke-opacity:1; 
stroke-linecap:round; stroke-linejoin:round;">
</g>
<g style="fill:#000000; fill-opacity:0.0; 
stroke:#000000; stroke-width:150000.000000; stroke-opacity:1; 
stroke-linecap:round; stroke-linejoin:round;">
<text x="286002200.000000" y="35650000.000000"
textLength="1264286.000000" font-size="1733333.000000" lengthAdjust="spacingAndGlyphs"
text-anchor="middle" opacity="0">A</text>
<g class="stroked-text"><desc>A</desc>
<path d="M285692676 35216666
L286311723 35216666
" />
<path d="M285568866 35588095
L286002200 34288095
L286435533 35588095
" />
</g></g>
<g style="fill:#000000; fill-opacity:0.0; 
stroke:#000000; stroke-width:21200.000000; stroke-opacity:1; 
stroke-linecap:round; stroke-linejoin:round;">
</g>
<g style="fill:#000000; fill-opacity:0.0; 
stroke:#000000; stroke-width:150000.000000; stroke-opacity:1; 
stroke-linecap:round; stroke-linejoin:round;">
<text x="286002200.000000" y="85650000.000000"
textLength="1450000.000000" font-size="1733333.000000" lengthAdjust="spacingAndGlyphs"
text-anchor="middle" opacity="0">B</text>
<g class="stroked-text"><desc>B</desc>
<path d="M286095057 84907142
L286280771 84969047
L286342676 85030952
L286404580 85154761
L286404580 85340476
L286342676 85464285
L286280771 85526190
L286156961 85588095
L285661723 85588095
L285661723 84288095
L286095057 84288095
L286218866 84350000
L286280771 84411904
L286342676 84535714
L286342676 84659523
L286280771 84783333
L286218866 84845238
L286095057 84907142
L285661723 84907142
" />
</g></g>
<g style="fill:#000000; fill-opacity:0.0; 
stroke:#000000; stroke-width:21200.000000; stroke-opacity:1; 
stroke-linecap:round; stroke-linejoin:round;">
</g>
<g style="fill:#000000; fill-opacity:0.0; 
stroke:#000000; stroke-width:150000.000000; stroke-opacity:1; 
stroke-linecap:round; stroke-linejoin:round;">
<text x="286002200.000000" y="135650000.000000"
textLength="1450000.000000" font-size="1733333.000000" lengthAdjust="spacingAndGlyphs"
text-anchor="middle" opacity="0">C</text>
<g class="stroked-text"><desc>C</desc>
<path d="M286404580 135464285
L286342676 135526190
L286156961 135588095
L286033152 135588095
L285847438 135526190
L285723628 135402380
L285661723 135278571
L285599819 135030952
L285599819 134845238
L285661723 134597619
L285723628 134473809
L285847438 134350000
L286033152 134288095
L286156961 134288095
L286342676 134350000
L286404580 134411904
" />
</g></g>
<g style="fill:#000000; fill-opacity:0.0; 
stroke:#000000; stroke-width:21200.000000; stroke-opacity:1; 
stroke-linecap:round; stroke-linejoin:round;">
</g>
<g style="fill:#000000; fill-opacity:0.0; 
stroke:#000000; stroke-width:150000.000000; stroke-opacity:1; 
stroke-linecap:round; stroke-linejoin:round;">
<text x="286002200.000000" y="185650000.000000"
textLength="1450000.000000" font-size="1733333.000000" lengthAdjust="spacingAndGlyphs"
text-anchor="middle" opacity="0">D</text>
<g class="stroked-text"><desc>D</desc>
<path d="M285661723 185588095
L285661723 184288095
L285971247 184288095
L286156961 184350000
L286280771 184473809
L286342676 184597619
L286404580 184845238
L286404580 185030952
L286342676 185278571
L286280771 185402380
L286156961 185526190
L285971247 185588095
L285661723 185588095
" />
</g></g>
<g style="fill:#000000; fill-opacity:0.0; 
stroke:#000000; stroke-width:21200.000000; stroke-opacity:1; 
stroke-linecap:round; stroke-linejoin:round;">
</g>
<g style="fill:#000000; fill-opacity:0.0; 
stroke:#000000; stroke-width:150000.000000; stroke-opacity:1; 
stroke-linecap:round; stroke-linejoin:round;">
<text x="200002200.000000" y="193857200.000000"
textLength="7007143.000000" font-size="2000000.000000" lengthAdjust="spacingAndGlyphs"
text-anchor="start" opacity="0">Date: </text>
<g class="stroked-text"><desc>Date: </desc>
<path d="M200434342 193785771
L200434342 192285771
L200791485 192285771
L201005771 192357200
L201148628 192500057
L201220057 192642914
L201291485 192928628
L201291485 193142914
L201220057 193428628
L201148628 193571485
L201005771 193714342
L200791485 193785771
L200434342 193785771
" />
<path d="M202577200 193785771
L202577200 193000057
L202505771 192857200
L202362914 192785771
L202077200 192785771
L201934342 192857200
" />
<path d="M202577200 193714342
L202434342 193785771
L202077200 193785771
L201934342 193714342
L201862914 193571485
L201862914 193428628
L201934342 193285771
L202077200 193214342
L202434342 193214342
L202577200 193142914
" />
<path d="M203077200 192785771
L203648628 192785771
" />
<path d="M203291485 192285771
L203291485 193571485
L203362914 193714342
L203505771 193785771
L203648628 193785771
" />
<path d="M204720057 193714342
L204577200 193785771
L204291485 193785771
L204148628 193714342
L204077200 193571485
L204077200 193000057
L204148628 192857200
L204291485 192785771
L204577200 192785771
L204720057 192857200
L204791485 193000057
L204791485 193142914
L204077200 193285771
" />
<path d="M205434342 193642914
L205505771 193714342
L205434342 193785771
L205362914 193714342
L205434342 193642914
L205434342 193785771
" />
<path d="M205434342 192857200
L205505771 192928628
L205434342 193000057
L205362914 192928628
L205434342 192857200
L205434342 193000057
" />
</g></g>
<g style="fill:#000000; fill-opacity:0.0; 
stroke:#000000; stroke-width:21200.000000; stroke-opacity:1; 
stroke-linecap:round; stroke-linejoin:round;">
</g>
<g style="fill:#000000; fill-opacity:0.0; 
stroke:#000000; stroke-width:150000.000000; stroke-opacity:1; 
stroke-linecap:round; stroke-linejoin:round;">
<path d="M177002200 194507200
L285002200 194507200
" />
</g>
<g style="fill:#000000; fill-opacity:0.0; 
stroke:#000000; stroke-width:21200.000000; stroke-opacity:1; 
stroke-linecap:round; stroke-linejoin:round;">
</g>
<g style="fill:#000000; fill-opacity:0.0; 
stroke:#000000; stroke-width:150000.000000; stroke-opacity:1; 
stroke-linecap:round; stroke-linejoin:round;">
<text x="178002200.000000" y="196657200.000000"
textLength="33364286.000000" font-size="2000000.000000" lengthAdjust="spacingAndGlyphs"
text-anchor="start" opacity="0">KiCad E.D.A.  pcbnew (6.0.9)</text>
<g class="stroked-text"><desc>KiCad E.D.A.  pcbnew (6.0.9)</desc>
<path d="M178434342 196585771
L178434342 195085771
" />
<path d="M179291485 196585771
L178648628 195728628
" />
<path d="M179291485 195085771
L178434342 195942914
" />
<path d="M179934342 196585771
L179934342 195585771
" />
<path d="M179934342 195085771
L179862914 195157200
L179934342 195228628
L180005771 195157200
L179934342 195085771
L179934342 195228628
" />
<path d="M181505771 196442914
L181434342 196514342
L181220057 196585771
L181077200 196585771
L180862914 196514342
L180720057 196371485
L180648628 196228628
L180577200 195942914
L180577200 195728628
L180648628 195442914
L180720057 195300057
L180862914 195157200
L181077200 195085771
L181220057 195085771
L181434342 195157200
L181505771 195228628
" />
<path d="M182791485 196585771
L182791485 195800057
L182720057 195657200
L182577200 195585771
L182291485 195585771
L182148628 195657200
" />
<path d="M182791485 196514342
L182648628 196585771
L182291485 196585771
L182148628 196514342
L182077200 196371485
L182077200 196228628
L182148628 196085771
L182291485 196014342
L182648628 196014342
L182791485 195942914
" />
<path d="M184148628 196585771
L184148628 195085771
" />
<path d="M184148628 196514342
L184005771 196585771
L183720057 196585771
L183577200 196514342
L183505771 196442914
L183434342 196300057
L183434342 195871485
L183505771 195728628
L183577200 195657200
L183720057 195585771
L184005771 195585771
L184148628 195657200
" />
<path d="M186005771 195800057
L186505771 195800057
" />
<path d="M186720057 196585771
L186005771 196585771
L186005771 195085771
L186720057 195085771
" />
<path d="M187362914 196442914
L187434342 196514342
L187362914 196585771
L187291485 196514342
L187362914 196442914
L187362914 196585771
" />
<path d="M188077200 196585771
L188077200 195085771
L188434342 195085771
L188648628 195157200
L188791485 195300057
L188862914 195442914
L188934342 195728628
L188934342 195942914
L188862914 196228628
L188791485 196371485
L188648628 196514342
L188434342 196585771
L188077200 196585771
" />
<path d="M189577200 196442914
L189648628 196514342
L189577200 196585771
L189505771 196514342
L189577200 196442914
L189577200 196585771
" />
<path d="M190220057 196157200
L190934342 196157200
" />
<path d="M190077200 196585771
L190577200 195085771
L191077200 196585771
" />
<path d="M191577200 196442914
L191648628 196514342
L191577200 196585771
L191505771 196514342
L191577200 196442914
L191577200 196585771
" />
<path d="M194577200 195585771
L194577200 197085771
" />
<path d="M194577200 195657200
L194720057 195585771
L195005771 195585771
L195148628 195657200
L195220057 195728628
L195291485 195871485
L195291485 196300057
L195220057 196442914
L195148628 196514342
L195005771 196585771
L194720057 196585771
L194577200 196514342
" />
<path d="M196577200 196514342
L196434342 196585771
L196148628 196585771
L196005771 196514342
L195934342 196442914
L195862914 196300057
L195862914 195871485
L195934342 195728628
L196005771 195657200
L196148628 195585771
L196434342 195585771
L196577200 195657200
" />
<path d="M197220057 196585771
L197220057 195085771
" />
<path d="M197220057 195657200
L197362914 195585771
L197648628 195585771
L197791485 195657200
L197862914 195728628
L197934342 195871485
L197934342 196300057
L197862914 196442914
L197791485 196514342
L197648628 196585771
L197362914 196585771
L197220057 196514342
" />
<path d="M198577200 195585771
L198577200 196585771
" />
<path d="M198577200 195728628
L198648628 195657200
L198791485 195585771
L199005771 195585771
L199148628 195657200
L199220057 195800057
L199220057 196585771
" />
<path d="M200505771 196514342
L200362914 196585771
L200077200 196585771
L199934342 196514342
L199862914 196371485
L199862914 195800057
L199934342 195657200
L200077200 195585771
L200362914 195585771
L200505771 195657200
L200577200 195800057
L200577200 195942914
L199862914 196085771
" />
<path d="M201077200 195585771
L201362914 196585771
L201648628 195871485
L201934342 196585771
L202220057 195585771
" />
<path d="M204362914 197157200
L204291485 197085771
L204148628 196871485
L204077200 196728628
L204005771 196514342
L203934342 196157200
L203934342 195871485
L204005771 195514342
L204077200 195300057
L204148628 195157200
L204291485 194942914
L204362914 194871485
" />
<path d="M205577200 195085771
L205291485 195085771
L205148628 195157200
L205077200 195228628
L204934342 195442914
L204862914 195728628
L204862914 196300057
L204934342 196442914
L205005771 196514342
L205148628 196585771
L205434342 196585771
L205577200 196514342
L205648628 196442914
L205720057 196300057
L205720057 195942914
L205648628 195800057
L205577200 195728628
L205434342 195657200
L205148628 195657200
L205005771 195728628
L204934342 195800057
L204862914 195942914
" />
<path d="M206362914 196442914
L206434342 196514342
L206362914 196585771
L206291485 196514342
L206362914 196442914
L206362914 196585771
" />
<path d="M207362914 195085771
L207505771 195085771
L207648628 195157200
L207720057 195228628
L207791485 195371485
L207862914 195657200
L207862914 196014342
L207791485 196300057
L207720057 196442914
L207648628 196514342
L207505771 196585771
L207362914 196585771
L207220057 196514342
L207148628 196442914
L207077200 196300057
L207005771 196014342
L207005771 195657200
L207077200 195371485
L207148628 195228628
L207220057 195157200
L207362914 195085771
" />
<path d="M208505771 196442914
L208577200 196514342
L208505771 196585771
L208434342 196514342
L208505771 196442914
L208505771 196585771
" />
<path d="M209291485 196585771
L209577200 196585771
L209720057 196514342
L209791485 196442914
L209934342 196228628
L210005771 195942914
L210005771 195371485
L209934342 195228628
L209862914 195157200
L209720057 195085771
L209434342 195085771
L209291485 195157200
L209220057 195228628
L209148628 195371485
L209148628 195728628
L209220057 195871485
L209291485 195942914
L209434342 196014342
L209720057 196014342
L209862914 195942914
L209934342 195871485
L210005771 195728628
" />
<path d="M210505771 197157200
L210577200 197085771
L210720057 196871485
L210791485 196728628
L210862914 196514342
L210934342 196157200
L210934342 195871485
L210862914 195514342
L210791485 195300057
L210720057 195157200
L210577200 194942914
L210505771 194871485
" />
</g></g>
<g style="fill:#000000; fill-opacity:0.0; 
stroke:#000000; stroke-width:21200.000000; stroke-opacity:1; 
stroke-linecap:round; stroke-linejoin:round;">
</g>
<g style="fill:#000000; fill-opacity:0.0; 
stroke:#000000; stroke-width:150000.000000; stroke-opacity:1; 
stroke-linecap:round; stroke-linejoin:round;">
<path d="M177002200 191507200
L285002200 191507200
" />
</g>
<g style="fill:#000000; fill-opacity:0.0; 
stroke:#000000; stroke-width:21200.000000; stroke-opacity:1; 
stroke-linecap:round; stroke-linejoin:round;">
</g>
<g style="fill:#000000; fill-opacity:0.0; 
stroke:#000000; stroke-width:300000.000000; stroke-opacity:1; 
stroke-linecap:round; stroke-linejoin:round;">
<text x="263002200.000000" y="193857200.000000"
textLength="5935714.000000" font-size="2000000.000000" lengthAdjust="spacingAndGlyphs"
text-anchor="start" opacity="0">Rev: </text>
<g class="stroked-text"><desc>Rev: </desc>
<path d="M264411485 193785771
L263911485 193071485
" />
<path d="M263554342 193785771
L263554342 192285771
L264125771 192285771
L264268628 192357200
L264340057 192428628
L264411485 192571485
L264411485 192785771
L264340057 192928628
L264268628 193000057
L264125771 193071485
L263554342 193071485
" />
<path d="M265625771 193714342
L265482914 193785771
L265197200 193785771
L265054342 193714342
L264982914 193571485
L264982914 193000057
L265054342 192857200
L265197200 192785771
L265482914 192785771
L265625771 192857200
L265697200 193000057
L265697200 193142914
L264982914 193285771
" />
<path d="M266197200 192785771
L266554342 193785771
L266911485 192785771
" />
<path d="M267482914 193642914
L267554342 193714342
L267482914 193785771
L267411485 193714342
L267482914 193642914
L267482914 193785771
" />
<path d="M267482914 192857200
L267554342 192928628
L267482914 193000057
L267411485 192928628
L267482914 192857200
L267482914 193000057
" />
</g></g>
<g style="fill:#000000; fill-opacity:0.0; 
stroke:#000000; stroke-width:21200.000000; stroke-opacity:1; 
stroke-linecap:round; stroke-linejoin:round;">
</g>
<g style="fill:#000000; fill-opacity:0.0; 
stroke:#000000; stroke-width:150000.000000; stroke-opacity:1; 
stroke-linecap:round; stroke-linejoin:round;">
<text x="178002200.000000" y="193857200.000000"
textLength="9604286.000000" font-size="2000000.000000" lengthAdjust="spacingAndGlyphs"
text-anchor="start" opacity="0">Size: A4</text>
<g class="stroked-text"><desc>Size: A4</desc>
<path d="M178362914 193714342
L178577200 193785771
L178934342 193785771
L179077200 193714342
L179148628 193642914
L179220057 193500057
L179220057 193357200
L179148628 193214342
L179077200 193142914
L178934342 193071485
L178648628 193000057
L178505771 192928628
L178434342 192857200
L178362914 192714342
L178362914 192571485
L178434342 192428628
L178505771 192357200
L178648628 192285771
L179005771 192285771
L179220057 192357200
" />
<path d="M179862914 193785771
L179862914 192785771
" />
<path d="M179862914 192285771
L179791485 192357200
L179862914 192428628
L179934342 192357200
L179862914 192285771
L179862914 192428628
" />
<path d="M180434342 192785771
L181220057 192785771
L180434342 193785771
L181220057 193785771
" />
<path d="M182362914 193714342
L182220057 193785771
L181934342 193785771
L181791485 193714342
L181720057 193571485
L181720057 193000057
L181791485 192857200
L181934342 192785771
L182220057 192785771
L182362914 192857200
L182434342 193000057
L182434342 193142914
L181720057 193285771
" />
<path d="M183077200 193642914
L183148628 193714342
L183077200 193785771
L183005771 193714342
L183077200 193642914
L183077200 193785771
" />
<path d="M183077200 192857200
L183148628 192928628
L183077200 193000057
L183005771 192928628
L183077200 192857200
L183077200 193000057
" />
<path d="M184862914 193357200
L185577200 193357200
" />
<path d="M184720057 193785771
L185220057 192285771
L185720057 193785771
" />
<path d="M186862914 192785771
L186862914 193785771
" />
<path d="M186505771 192214342
L186148628 193285771
L187077200 193285771
" />
</g></g>
<g style="fill:#000000; fill-opacity:0.0; 
stroke:#000000; stroke-width:21200.000000; stroke-opacity:1; 
stroke-linecap:round; stroke-linejoin:round;">
</g>
<g style="fill:#000000; fill-opacity:0.0; 
stroke:#000000; stroke-width:150000.000000; stroke-opacity:1; 
stroke-linecap:round; stroke-linejoin:round;">
<text x="263002200.000000" y="196657200.000000"
textLength="8507143.000000" font-size="2000000.000000" lengthAdjust="spacingAndGlyphs"
text-anchor="start" opacity="0">Id: 1/1</text>
<g class="stroked-text"><desc>Id: 1/1</desc>
<path d="M263434342 196585771
L263434342 195085771
" />
<path d="M264791485 196585771
L264791485 195085771
" />
<path d="M264791485 196514342
L264648628 196585771
L264362914 196585771
L264220057 196514342
L264148628 196442914
L264077200 196300057
L264077200 195871485
L264148628 195728628
L264220057 195657200
L264362914 195585771
L264648628 195585771
L264791485 195657200
" />
<path d="M265505771 196442914
L265577200 196514342
L265505771 196585771
L265434342 196514342
L265505771 196442914
L265505771 196585771
" />
<path d="M265505771 195657200
L265577200 195728628
L265505771 195800057
L265434342 195728628
L265505771 195657200
L265505771 195800057
" />
<path d="M268148628 196585771
L267291485 196585771
" />
<path d="M267720057 196585771
L267720057 195085771
L267577200 195300057
L267434342 195442914
L267291485 195514342
" />
<path d="M269862914 195014342
L268577200 196942914
" />
<path d="M271148628 196585771
L270291485 196585771
" />
<path d="M270720057 196585771
L270720057 195085771
L270577200 195300057
L270434342 195442914
L270291485 195514342
" />
</g></g>
<g style="fill:#000000; fill-opacity:0.0; 
stroke:#000000; stroke-width:21200.000000; stroke-opacity:1; 
stroke-linecap:round; stroke-linejoin:round;">
</g>
<g style="fill:#000000; fill-opacity:0.0; 
stroke:#000000; stroke-width:150000.000000; stroke-opacity:1; 
stroke-linecap:round; stroke-linejoin:round;">
<path d="M177002200 187507200
L285002200 187507200
" />
</g>
<g style="fill:#000000; fill-opacity:0.0; 
stroke:#000000; stroke-width:21200.000000; stroke-opacity:1; 
stroke-linecap:round; stroke-linejoin:round;">
</g>
<g style="fill:#000000; fill-opacity:0.0; 
stroke:#000000; stroke-width:400000.000000; stroke-opacity:1; 
stroke-linecap:round; stroke-linejoin:round;">
<text x="178002200.000000" y="190307200.000000"
textLength="9409643.000000" font-size="2666666.000000" lengthAdjust="spacingAndGlyphs"
text-anchor="start" opacity="0">Title: </text>
<g class="stroked-text"><desc>Title: </desc>
<path d="M178714580 188211961
L179857438 188211961
" />
<path d="M179036009 190211961
L179286009 188211961
" />
<path d="M180274104 190211961
L180440771 188878628
" />
<path d="M180524104 188211961
L180416961 188307200
L180500295 188402438
L180607438 188307200
L180524104 188211961
L180500295 188402438
" />
<path d="M181107438 188878628
L181869342 188878628
" />
<path d="M181476485 188211961
L181262200 189926247
L181333628 190116723
L181512200 190211961
L181702676 190211961
" />
<path d="M182655057 190211961
L182476485 190116723
L182405057 189926247
L182619342 188211961
" />
<path d="M184190771 190116723
L183988390 190211961
L183607438 190211961
L183428866 190116723
L183357438 189926247
L183452676 189164342
L183571723 188973866
L183774104 188878628
L184155057 188878628
L184333628 188973866
L184405057 189164342
L184381247 189354819
L183405057 189545295
" />
<path d="M185155057 190021485
L185238390 190116723
L185131247 190211961
L185047914 190116723
L185155057 190021485
L185131247 190211961
" />
<path d="M185286009 188973866
L185369342 189069104
L185262200 189164342
L185178866 189069104
L185286009 188973866
L185262200 189164342
" />
</g></g>
<g style="fill:#000000; fill-opacity:0.0; 
stroke:#000000; stroke-width:21200.000000; stroke-opacity:1; 
stroke-linecap:round; stroke-linejoin:round;">
</g>
<g style="fill:#000000; fill-opacity:0.0; 
stroke:#000000; stroke-width:150000.000000; stroke-opacity:1; 
stroke-linecap:round; stroke-linejoin:round;">
<text x="178002200.000000" y="186457200.000000"
textLength="30662857.000000" font-size="2000000.000000" lengthAdjust="spacingAndGlyphs"
text-anchor="start" opacity="0">File: kicadBoard.kicad_pcb</text>
<g class="stroked-text"><desc>File: kicadBoard.kicad_pcb</desc>
<path d="M178934342 185600057
L178434342 185600057
" />
<path d="M178434342 186385771
L178434342 184885771
L179148628 184885771
" />
<path d="M179720057 186385771
L179720057 185385771
" />
<path d="M179720057 184885771
L179648628 184957200
L179720057 185028628
L179791485 184957200
L179720057 184885771
L179720057 185028628
" />
<path d="M180648628 186385771
L180505771 186314342
L180434342 186171485
L180434342 184885771
" />
<path d="M181791485 186314342
L181648628 186385771
L181362914 186385771
L181220057 186314342
L181148628 186171485
L181148628 185600057
L181220057 185457200
L181362914 185385771
L181648628 185385771
L181791485 185457200
L181862914 185600057
L181862914 185742914
L181148628 185885771
" />
<path d="M182505771 186242914
L182577200 186314342
L182505771 186385771
L182434342 186314342
L182505771 186242914
L182505771 186385771
" />
<path d="M182505771 185457200
L182577200 185528628
L182505771 185600057
L182434342 185528628
L182505771 185457200
L182505771 185600057
" />
<path d="M184362914 186385771
L184362914 184885771
" />
<path d="M184505771 185814342
L184934342 186385771
" />
<path d="M184934342 185385771
L184362914 185957200
" />
<path d="M185577200 186385771
L185577200 185385771
" />
<path d="M185577200 184885771
L185505771 184957200
L185577200 185028628
L185648628 184957200
L185577200 184885771
L185577200 185028628
" />
<path d="M186934342 186314342
L186791485 186385771
L186505771 186385771
L186362914 186314342
L186291485 186242914
L186220057 186100057
L186220057 185671485
L186291485 185528628
L186362914 185457200
L186505771 185385771
L186791485 185385771
L186934342 185457200
" />
<path d="M188220057 186385771
L188220057 185600057
L188148628 185457200
L188005771 185385771
L187720057 185385771
L187577200 185457200
" />
<path d="M188220057 186314342
L188077200 186385771
L187720057 186385771
L187577200 186314342
L187505771 186171485
L187505771 186028628
L187577200 185885771
L187720057 185814342
L188077200 185814342
L188220057 185742914
" />
<path d="M189577200 186385771
L189577200 184885771
" />
<path d="M189577200 186314342
L189434342 186385771
L189148628 186385771
L189005771 186314342
L188934342 186242914
L188862914 186100057
L188862914 185671485
L188934342 185528628
L189005771 185457200
L189148628 185385771
L189434342 185385771
L189577200 185457200
" />
<path d="M190791485 185600057
L191005771 185671485
L191077200 185742914
L191148628 185885771
L191148628 186100057
L191077200 186242914
L191005771 186314342
L190862914 186385771
L190291485 186385771
L190291485 184885771
L190791485 184885771
L190934342 184957200
L191005771 185028628
L191077200 185171485
L191077200 185314342
L191005771 185457200
L190934342 185528628
L190791485 185600057
L190291485 185600057
" />
<path d="M192005771 186385771
L191862914 186314342
L191791485 186242914
L191720057 186100057
L191720057 185671485
L191791485 185528628
L191862914 185457200
L192005771 185385771
L192220057 185385771
L192362914 185457200
L192434342 185528628
L192505771 185671485
L192505771 186100057
L192434342 186242914
L192362914 186314342
L192220057 186385771
L192005771 186385771
" />
<path d="M193791485 186385771
L193791485 185600057
L193720057 185457200
L193577200 185385771
L193291485 185385771
L193148628 185457200
" />
<path d="M193791485 186314342
L193648628 186385771
L193291485 186385771
L193148628 186314342
L193077200 186171485
L193077200 186028628
L193148628 185885771
L193291485 185814342
L193648628 185814342
L193791485 185742914
" />
<path d="M194505771 186385771
L194505771 185385771
" />
<path d="M194505771 185671485
L194577200 185528628
L194648628 185457200
L194791485 185385771
L194934342 185385771
" />
<path d="M196077200 186385771
L196077200 184885771
" />
<path d="M196077200 186314342
L195934342 186385771
L195648628 186385771
L195505771 186314342
L195434342 186242914
L195362914 186100057
L195362914 185671485
L195434342 185528628
L195505771 185457200
L195648628 185385771
L195934342 185385771
L196077200 185457200
" />
<path d="M196791485 186242914
L196862914 186314342
L196791485 186385771
L196720057 186314342
L196791485 186242914
L196791485 186385771
" />
<path d="M197505771 186385771
L197505771 184885771
" />
<path d="M197648628 185814342
L198077200 186385771
" />
<path d="M198077200 185385771
L197505771 185957200
" />
<path d="M198720057 186385771
L198720057 185385771
" />
<path d="M198720057 184885771
L198648628 184957200
L198720057 185028628
L198791485 184957200
L198720057 184885771
L198720057 185028628
" />
<path d="M200077200 186314342
L199934342 186385771
L199648628 186385771
L199505771 186314342
L199434342 186242914
L199362914 186100057
L199362914 185671485
L199434342 185528628
L199505771 185457200
L199648628 185385771
L199934342 185385771
L200077200 185457200
" />
<path d="M201362914 186385771
L201362914 185600057
L201291485 185457200
L201148628 185385771
L200862914 185385771
L200720057 185457200
" />
<path d="M201362914 186314342
L201220057 186385771
L200862914 186385771
L200720057 186314342
L200648628 186171485
L200648628 186028628
L200720057 185885771
L200862914 185814342
L201220057 185814342
L201362914 185742914
" />
<path d="M202720057 186385771
L202720057 184885771
" />
<path d="M202720057 186314342
L202577200 186385771
L202291485 186385771
L202148628 186314342
L202077200 186242914
L202005771 186100057
L202005771 185671485
L202077200 185528628
L202148628 185457200
L202291485 185385771
L202577200 185385771
L202720057 185457200
" />
<path d="M203077200 186528628
L204220057 186528628
" />
<path d="M204577200 185385771
L204577200 186885771
" />
<path d="M204577200 185457200
L204720057 185385771
L205005771 185385771
L205148628 185457200
L205220057 185528628
L205291485 185671485
L205291485 186100057
L205220057 186242914
L205148628 186314342
L205005771 186385771
L204720057 186385771
L204577200 186314342
" />
<path d="M206577200 186314342
L206434342 186385771
L206148628 186385771
L206005771 186314342
L205934342 186242914
L205862914 186100057
L205862914 185671485
L205934342 185528628
L206005771 185457200
L206148628 185385771
L206434342 185385771
L206577200 185457200
" />
<path d="M207220057 186385771
L207220057 184885771
" />
<path d="M207220057 185457200
L207362914 185385771
L207648628 185385771
L207791485 185457200
L207862914 185528628
L207934342 185671485
L207934342 186100057
L207862914 186242914
L207791485 186314342
L207648628 186385771
L207362914 186385771
L207220057 186314342
" />
</g></g>
<g style="fill:#000000; fill-opacity:0.0; 
stroke:#000000; stroke-width:21200.000000; stroke-opacity:1; 
stroke-linecap:round; stroke-linejoin:round;">
</g>
<g style="fill:#000000; fill-opacity:0.0; 
stroke:#000000; stroke-width:150000.000000; stroke-opacity:1; 
stroke-linecap:round; stroke-linejoin:round;">
<path d="M177002200 181507200
L285002200 181507200
" />
</g>
<g style="fill:#000000; fill-opacity:0.0; 
stroke:#000000; stroke-width:21200.000000; stroke-opacity:1; 
stroke-linecap:round; stroke-linejoin:round;">
</g>
<g style="fill:#000000; fill-opacity:0.0; 
stroke:#000000; stroke-width:150000.000000; stroke-opacity:1; 
stroke-linecap:round; stroke-linejoin:round;">
<text x="178002200.000000" y="183757200.000000"
textLength="8221429.000000" font-size="2000000.000000" lengthAdjust="spacingAndGlyphs"
text-anchor="start" opacity="0">Sheet: </text>
<g class="stroked-text"><desc>Sheet: </desc>
<path d="M178362914 183614342
L178577200 183685771
L178934342 183685771
L179077200 183614342
L179148628 183542914
L179220057 183400057
L179220057 183257200
L179148628 183114342
L179077200 183042914
L178934342 182971485
L178648628 182900057
L178505771 182828628
L178434342 182757200
L178362914 182614342
L178362914 182471485
L178434342 182328628
L178505771 182257200
L178648628 182185771
L179005771 182185771
L179220057 182257200
" />
<path d="M179862914 183685771
L179862914 182185771
" />
<path d="M180505771 183685771
L180505771 182900057
L180434342 182757200
L180291485 182685771
L180077200 182685771
L179934342 182757200
L179862914 182828628
" />
<path d="M181791485 183614342
L181648628 183685771
L181362914 183685771
L181220057 183614342
L181148628 183471485
L181148628 182900057
L181220057 182757200
L181362914 182685771
L181648628 182685771
L181791485 182757200
L181862914 182900057
L181862914 183042914
L181148628 183185771
" />
<path d="M183077200 183614342
L182934342 183685771
L182648628 183685771
L182505771 183614342
L182434342 183471485
L182434342 182900057
L182505771 182757200
L182648628 182685771
L182934342 182685771
L183077200 182757200
L183148628 182900057
L183148628 183042914
L182434342 183185771
" />
<path d="M183577200 182685771
L184148628 182685771
" />
<path d="M183791485 182185771
L183791485 183471485
L183862914 183614342
L184005771 183685771
L184148628 183685771
" />
<path d="M184648628 183542914
L184720057 183614342
L184648628 183685771
L184577200 183614342
L184648628 183542914
L184648628 183685771
" />
<path d="M184648628 182757200
L184720057 182828628
L184648628 182900057
L184577200 182828628
L184648628 182757200
L184648628 182900057
" />
</g></g>
<g style="fill:#000000; fill-opacity:0.0; 
stroke:#000000; stroke-width:21200.000000; stroke-opacity:1; 
stroke-linecap:round; stroke-linejoin:round;">
</g>
<g style="fill:#000000; fill-opacity:0.0; 
stroke:#000000; stroke-width:300000.000000; stroke-opacity:1; 
stroke-linecap:round; stroke-linejoin:round;">
<text x="178002200.000000" y="180757200.000000"
textLength="150000.000000" font-size="2000000.000000" lengthAdjust="spacingAndGlyphs"
text-anchor="start" opacity="0"></text>
<g class="stroked-text"><desc></desc>
</g></g>
<g style="fill:#000000; fill-opacity:0.0; 
stroke:#000000; stroke-width:21200.000000; stroke-opacity:1; 
stroke-linecap:round; stroke-linejoin:round;">
</g>
<g style="fill:#000000; fill-opacity:0.0; 
stroke:#000000; stroke-width:150000.000000; stroke-opacity:1; 
stroke-linecap:round; stroke-linejoin:round;">
<text x="178002200.000000" y="177757200.000000"
textLength="300000.000000" font-size="2000000.000000" lengthAdjust="spacingAndGlyphs"
text-anchor="start" opacity="0"></text>
<g class="stroked-text"><desc></desc>
</g></g>
<g style="fill:#000000; fill-opacity:0.0; 
stroke:#000000; stroke-width:21200.000000; stroke-opacity:1; 
stroke-linecap:round; stroke-linejoin:round;">
</g>
<g style="fill:#000000; fill-opacity:0.0; 
stroke:#000000; stroke-width:150000.000000; stroke-opacity:1; 
stroke-linecap:round; stroke-linejoin:round;">
<text x="178002200.000000" y="174757200.000000"
textLength="150000.000000" font-size="2000000.000000" lengthAdjust="spacingAndGlyphs"
text-anchor="start" opacity="0"></text>
<g class="stroked-text"><desc></desc>
</g></g>
<g style="fill:#000000; fill-opacity:0.0; 
stroke:#000000; stroke-width:21200.000000; stroke-opacity:1; 
stroke-linecap:round; stroke-linejoin:round;">
</g>
<g style="fill:#000000; fill-opacity:0.0; 
stroke:#000000; stroke-width:150000.000000; stroke-opacity:1; 
stroke-linecap:round; stroke-linejoin:round;">
<text x="178002200.000000" y="171757200.000000"
textLength="150000.000000" font-size="2000000.000000" lengthAdjust="spacingAndGlyphs"
text-anchor="start" opacity="0"></text>
<g class="stroked-text"><desc></desc>
</g></g>
<g style="fill:#000000; fill-opacity:0.0; 
stroke:#000000; stroke-width:21200.000000; stroke-opacity:1; 
stroke-linecap:round; stroke-linejoin:round;">
</g>
<g style="fill:#000000; fill-opacity:0.0; 
stroke:#000000; stroke-width:150000.000000; stroke-opacity:1; 
stroke-linecap:round; stroke-linejoin:round;">
<text x="178002200.000000" y="168757200.000000"
textLength="150000.000000" font-size="2000000.000000" lengthAdjust="spacingAndGlyphs"
text-anchor="start" opacity="0"></text>
<g class="stroked-text"><desc></desc>
</g></g>
<g style="fill:#000000; fill-opacity:0.0; 
stroke:#000000; stroke-width:21200.000000; stroke-opacity:1; 
stroke-linecap:round; stroke-linejoin:round;">
</g>
<g style="fill:#000000; fill-opacity:0.0; 
stroke:#000000; stroke-width:150000.000000; stroke-opacity:1; 
stroke-linecap:round; stroke-linejoin:round;">
<path d="M197002200 191507200
L197002200 194507200
" />
</g>
<g style="fill:#000000; fill-opacity:0.0; 
stroke:#000000; stroke-width:21200.000000; stroke-opacity:1; 
stroke-linecap:round; stroke-linejoin:round;">
</g>
<g style="fill:#000000; fill-opacity:0.0; 
stroke:#000000; stroke-width:150000.000000; stroke-opacity:1; 
stroke-linecap:round; stroke-linejoin:round;">
<path d="M261002200 191507200
L261002200 198007200
" />
</g>
<g style="fill:#F2EDA1; fill-opacity:0.0; 
stroke:#F2EDA1; stroke-width:150000.000000; stroke-opacity:1; 
stroke-linecap:round; stroke-linejoin:round;">
</g>
<g style="fill:#F2EDA1; fill-opacity:0.0; 
stroke:#F2EDA1; stroke-width:97536.000000; stroke-opacity:1; 
stroke-linecap:round; stroke-linejoin:round;">
<g transform="rotate(-90.000000 149961600.000000 97383600.000000)">
<text x="149961600.000000" y="97639632.000000"
textLength="1149744.000000" font-size="682752.000000" lengthAdjust="spacingAndGlyphs"
text-anchor="start" opacity="0">C2</text>
</g>
<g class="stroked-text"><desc>C2</desc>
<path d="M150144480 96905673
L150168864 96930057
L150193248 97003209
L150193248 97051977
L150168864 97125129
L150120096 97173897
L150071328 97198281
L149973792 97222665
L149900640 97222665
L149803104 97198281
L149754336 97173897
L149705568 97125129
L149681184 97051977
L149681184 97003209
L149705568 96930057
L149729952 96905673
" />
<path d="M149729952 96710601
L149705568 96686217
L149681184 96637449
L149681184 96515529
L149705568 96466761
L149729952 96442377
L149778720 96417993
L149827488 96417993
L149900640 96442377
L150193248 96734985
L150193248 96417993
" />
</g><text x="148437600.000000" y="105196132.000000"
textLength="1126541.000000" font-size="682752.000000" lengthAdjust="spacingAndGlyphs"
text-anchor="end" opacity="0">C1</text>
<g class="stroked-text"><desc>C1</desc>
<path d="M147788985 105122980
L147764601 105147364
L147691449 105171748
L147642681 105171748
L147569529 105147364
L147520761 105098596
L147496377 105049828
L147471993 104952292
L147471993 104879140
L147496377 104781604
L147520761 104732836
L147569529 104684068
L147642681 104659684
L147691449 104659684
L147764601 104684068
L147788985 104708452
" />
<path d="M148276665 105171748
L147984057 105171748
" />
<path d="M148130361 105171748
L148130361 104659684
L148081593 104732836
L148032825 104781604
L147984057 104805988
" />
</g><g transform="rotate(-90.000000 158280100.000000 106400600.000000)">
<text x="158280100.000000" y="106656632.000000"
textLength="1004621.000000" font-size="682752.000000" lengthAdjust="spacingAndGlyphs"
text-anchor="start" opacity="0">J3</text>
</g>
<g class="stroked-text"><desc>J3</desc>
<path d="M157999684 106068977
L158365444 106068977
L158438596 106093361
L158487364 106142129
L158511748 106215281
L158511748 106264049
" />
<path d="M157999684 105873905
L157999684 105556913
L158194756 105727601
L158194756 105654449
L158219140 105605681
L158243524 105581297
L158292292 105556913
L158414212 105556913
L158462980 105581297
L158487364 105605681
L158511748 105654449
L158511748 105800753
L158487364 105849521
L158462980 105873905
" />
</g><g transform="rotate(-90.000000 157835600.000000 99860100.000000)">
<text x="157835600.000000" y="100116132.000000"
textLength="1126541.000000" font-size="682752.000000" lengthAdjust="spacingAndGlyphs"
text-anchor="start" opacity="0">R1</text>
</g>
<g class="stroked-text"><desc>R1</desc>
<path d="M158067248 99382173
L157823408 99552861
" />
<path d="M158067248 99674781
L157555184 99674781
L157555184 99479709
L157579568 99430941
L157603952 99406557
L157652720 99382173
L157725872 99382173
L157774640 99406557
L157799024 99430941
L157823408 99479709
L157823408 99674781
" />
<path d="M158067248 98894493
L158067248 99187101
" />
<path d="M158067248 99040797
L157555184 99040797
L157628336 99089565
L157677104 99138333
L157701488 99187101
" />
</g><text x="158661100.000000" y="113387632.000000"
textLength="1516685.000000" font-size="682752.000000" lengthAdjust="spacingAndGlyphs"
text-anchor="start" opacity="0">JP7</text>
<g class="stroked-text"><desc>JP7</desc>
<path d="M158992722 112851184
L158992722 113216944
L158968338 113290096
L158919570 113338864
L158846418 113363248
L158797650 113363248
" />
<path d="M159236562 113363248
L159236562 112851184
L159431634 112851184
L159480402 112875568
L159504786 112899952
L159529170 112948720
L159529170 113021872
L159504786 113070640
L159480402 113095024
L159431634 113119408
L159236562 113119408
" />
<path d="M159699858 112851184
L160041234 112851184
L159821778 113363248
" />
</g><text x="138404600.000000" y="110085632.000000"
textLength="1126541.000000" font-size="682752.000000" lengthAdjust="spacingAndGlyphs"
text-anchor="end" opacity="0">D1</text>
<g class="stroked-text"><desc>D1</desc>
<path d="M137463377 110061248
L137463377 109549184
L137585297 109549184
L137658449 109573568
L137707217 109622336
L137731601 109671104
L137755985 109768640
L137755985 109841792
L137731601 109939328
L137707217 109988096
L137658449 110036864
L137585297 110061248
L137463377 110061248
" />
<path d="M138243665 110061248
L137951057 110061248
" />
<path d="M138097361 110061248
L138097361 109549184
L138048593 109622336
L137999825 109671104
L137951057 109695488
" />
</g><g transform="rotate(-90.000000 138722100.000000 103606600.000000)">
<text x="138722100.000000" y="103862632.000000"
textLength="1004621.000000" font-size="682752.000000" lengthAdjust="spacingAndGlyphs"
text-anchor="end" opacity="0">J2</text>
</g>
<g class="stroked-text"><desc>J2</desc>
<path d="M138441684 104279598
L138807444 104279598
L138880596 104303982
L138929364 104352750
L138953748 104425902
L138953748 104474670
" />
<path d="M138490452 104060142
L138466068 104035758
L138441684 103986990
L138441684 103865070
L138466068 103816302
L138490452 103791918
L138539220 103767534
L138587988 103767534
L138661140 103791918
L138953748 104084526
L138953748 103767534
" />
</g></g>
<g style="fill:#F2EDA1; fill-opacity:0.0; 
stroke:#F2EDA1; stroke-width:51816.000000; stroke-opacity:1; 
stroke-linecap:round; stroke-linejoin:round;">
<text x="148947100.000000" y="99044992.000000"
textLength="1242365.000000" font-size="743712.000000" lengthAdjust="spacingAndGlyphs"
text-anchor="end" opacity="0">U2</text>
<g class="stroked-text"><desc>U2</desc>
<path d="M147930657 98460646
L147930657 98912186
L147957218 98965308
L147983779 98991869
L148036901 99018430
L148143146 99018430
L148196268 98991869
L148222829 98965308
L148249391 98912186
L148249391 98460646
" />
<path d="M148488441 98513769
L148515002 98487208
L148568124 98460646
L148700930 98460646
L148754052 98487208
L148780613 98513769
L148807175 98566891
L148807175 98620013
L148780613 98699697
L148461880 99018430
L148807175 99018430
" />
</g></g>
<g style="fill:#F2EDA1; fill-opacity:0.0; 
stroke:#F2EDA1; stroke-width:97536.000000; stroke-opacity:1; 
stroke-linecap:round; stroke-linejoin:round;">
<text x="148437600.000000" y="108615632.000000"
textLength="1067105.000000" font-size="682752.000000" lengthAdjust="spacingAndGlyphs"
text-anchor="end" opacity="0">R5</text>
<g class="stroked-text"><desc>R5</desc>
<path d="M147788985 108591248
L147618297 108347408
" />
<path d="M147496377 108591248
L147496377 108079184
L147691449 108079184
L147740217 108103568
L147764601 108127952
L147788985 108176720
L147788985 108249872
L147764601 108298640
L147740217 108323024
L147691449 108347408
L147496377 108347408
" />
<path d="M148252281 108079184
L148008441 108079184
L147984057 108323024
L148008441 108298640
L148057209 108274256
L148179129 108274256
L148227897 108298640
L148252281 108323024
L148276665 108371792
L148276665 108493712
L148252281 108542480
L148227897 108566864
L148179129 108591248
L148057209 108591248
L148008441 108566864
L147984057 108542480
" />
</g><text x="148437600.000000" y="107091632.000000"
textLength="1126541.000000" font-size="682752.000000" lengthAdjust="spacingAndGlyphs"
text-anchor="end" opacity="0">R4</text>
<g class="stroked-text"><desc>R4</desc>
<path d="M147788985 107067248
L147618297 106823408
" />
<path d="M147496377 107067248
L147496377 106555184
L147691449 106555184
L147740217 106579568
L147764601 106603952
L147788985 106652720
L147788985 106725872
L147764601 106774640
L147740217 106799024
L147691449 106823408
L147496377 106823408
" />
<path d="M148227897 106725872
L148227897 107067248
" />
<path d="M148105977 106530800
L147984057 106896560
L148301049 106896560
" />
</g><text x="141706600.000000" y="110657132.000000"
textLength="1126541.000000" font-size="682752.000000" lengthAdjust="spacingAndGlyphs"
text-anchor="start" opacity="0">R3</text>
<g class="stroked-text"><desc>R3</desc>
<path d="M142184526 110632748
L142013838 110388908
" />
<path d="M141891918 110632748
L141891918 110120684
L142086990 110120684
L142135758 110145068
L142160142 110169452
L142184526 110218220
L142184526 110291372
L142160142 110340140
L142135758 110364524
L142086990 110388908
L141891918 110388908
" />
<path d="M142355214 110120684
L142672206 110120684
L142501518 110315756
L142574670 110315756
L142623438 110340140
L142647822 110364524
L142672206 110413292
L142672206 110535212
L142647822 110583980
L142623438 110608364
L142574670 110632748
L142428366 110632748
L142379598 110608364
L142355214 110583980
" />
</g></g>
<g style="fill:#F2EDA1; fill-opacity:0.0; 
stroke:#F2EDA1; stroke-width:115011.000000; stroke-opacity:1; 
stroke-linecap:round; stroke-linejoin:round;">
<text x="148017100.000000" y="99935622.000000"
textLength="1046887.000000" font-size="613393.000000" lengthAdjust="spacingAndGlyphs"
text-anchor="start" opacity="0">U1</text>
<g class="stroked-text"><desc>U1</desc>
<path d="M148201391 99453670
L148201391 99826087
L148223298 99869901
L148245205 99891808
L148289019 99913715
L148376646 99913715
L148420460 99891808
L148442367 99869901
L148464274 99826087
L148464274 99453670
" />
<path d="M148924319 99913715
L148661436 99913715
" />
<path d="M148792878 99913715
L148792878 99453670
L148749064 99519391
L148705250 99563205
L148661436 99585112
" />
</g></g>
<g style="fill:#F2EDA1; fill-opacity:0.0; 
stroke:#F2EDA1; stroke-width:97536.000000; stroke-opacity:1; 
stroke-linecap:round; stroke-linejoin:round;">
<text x="148437600.000000" y="110139632.000000"
textLength="1149258.000000" font-size="682752.000000" lengthAdjust="spacingAndGlyphs"
text-anchor="end" opacity="0">R6</text>
<g class="stroked-text"><desc>R6</desc>
<path d="M147788985 110115248
L147618297 109871408
" />
<path d="M147496377 110115248
L147496377 109603184
L147691449 109603184
L147740217 109627568
L147764601 109651952
L147788985 109700720
L147788985 109773872
L147764601 109822640
L147740217 109847024
L147691449 109871408
L147496377 109871408
" />
<path d="M148227897 109603184
L148130361 109603184
L148081593 109627568
L148057209 109651952
L148008441 109725104
L147984057 109822640
L147984057 110017712
L148008441 110066480
L148032825 110090864
L148081593 110115248
L148179129 110115248
L148227897 110090864
L148252281 110066480
L148276665 110017712
L148276665 109895792
L148252281 109847024
L148227897 109822640
L148179129 109798256
L148081593 109798256
L148032825 109822640
L148008441 109847024
L147984057 109895792
" />
</g><g transform="rotate(-90.000000 156311600.000000 99923600.000000)">
<text x="156311600.000000" y="100179632.000000"
textLength="1126541.000000" font-size="682752.000000" lengthAdjust="spacingAndGlyphs"
text-anchor="start" opacity="0">R2</text>
</g>
<g class="stroked-text"><desc>R2</desc>
<path d="M156543248 99445673
L156299408 99616361
" />
<path d="M156543248 99738281
L156031184 99738281
L156031184 99543209
L156055568 99494441
L156079952 99470057
L156128720 99445673
L156201872 99445673
L156250640 99470057
L156275024 99494441
L156299408 99543209
L156299408 99738281
" />
<path d="M156079952 99250601
L156055568 99226217
L156031184 99177449
L156031184 99055529
L156055568 99006761
L156079952 98982377
L156128720 98957993
L156177488 98957993
L156250640 98982377
L156543248 99274985
L156543248 98957993
" />
</g></g>
<g style="fill:#F2EDA1; fill-opacity:0.0; 
stroke:#F2EDA1; stroke-width:203200.000000; stroke-opacity:1; 
stroke-linecap:round; stroke-linejoin:round;">
<path d="M156471100 108003600
L156471100 107253600
" />
<path d="M156471100 102753600
L156471100 102003600
" />
<path d="M160721100 106503600
L160721100 103503600
" />
<path d="M158121100 108003600
L156471100 108003600
" />
<path d="M156471100 102003600
L158121100 102003600
" />
<circle cx="155821100.000000" cy="107503600.000000" r="101600.000000" /> 
</g>
<g style="fill:#F2EDA1; fill-opacity:1.0; 
stroke:#F2EDA1; stroke-width:1.000000; stroke-opacity:1; 
stroke-linecap:round; stroke-linejoin:round;">
<path style="fill:#F2EDA1; fill-opacity:1.0; 
stroke:#F2EDA1; stroke-width:1.000000; stroke-opacity:1; 
stroke-linecap:round; stroke-linejoin:round;fill-rule:evenodd;"
d="M 140335805.000000,99442689.000000
140441257.000000,99453324.000000
140493754.000000,99462407.000000
140595356.000000,99493948.000000
140645071.000000,99513108.000000
140738589.000000,99563868.000000
140783426.000000,99592620.000000
140865502.000000,99660340.000000
140903599.000000,99697545.000000
140971320.000000,99779623.000000
141001121.000000,99823748.000000
141051880.000000,99917264.000000
141072235.000000,99966476.000000
141103775.000000,100068077.000000
141114149.000000,100120311.000000
141124820.000000,100226108.000000
141125692.000000,100279360.000000
141115026.000000,100385157.000000
141106356.000000,100437740.000000
141074818.000000,100539343.000000
141056035.000000,100589214.000000
141005275.000000,100682732.000000
140976862.000000,100727797.000000
140909140.000000,100809874.000000
140872216.000000,100848256.000000
140790140.000000,100915976.000000
140746242.000000,100946116.000000
140652725.000000,100996875.000000
140603676.000000,101017605.000000
140502072.000000,101049146.000000
140449926.000000,101059935.000000
140344248.000000,101070592.000000
140291213.000000,101073906.000000
137541204.000000,101073906.000000
137483791.000000,101074700.000000
137483791.000000,99804372.000000
137189484.000000,99804372.000000
137189047.000000,99809582.000000
137189047.000000,99929699.000000
137146859.000000,99890294.000000
137106799.000000,99856928.000000
137062512.000000,99830098.000000
137014335.000000,99811125.000000
136963737.000000,99799546.000000
136912112.000000,99794689.000000
136808018.000000,99802669.000000
136758310.000000,99817738.000000
136709928.000000,99836583.000000
136664577.000000,99861843.000000
136624224.000000,99894365.000000
136587041.000000,99930494.000000
136556425.000000,99972462.000000
136531107.000000,100017883.000000
136509461.000000,100065245.000000
136496163.000000,100115683.000000
136484676.000000,100166571.000000
136478198.000000,100271023.000000
136488038.000000,100375217.000000
136500530.000000,100425869.000000
136516592.000000,100475431.000000
136538090.000000,100522878.000000
136565763.000000,100566892.000000
136596559.000000,100608716.000000
136635216.000000,100643381.000000
136676994.000000,100674126.000000
136722261.000000,100699556.000000
136771329.000000,100716554.000000
136821481.000000,100730204.000000
136873417.000000,100735124.000000
136925474.000000,100737253.000000
136977055.000000,100731553.000000
137027291.000000,100718884.000000
137074455.000000,100697600.000000
137117732.000000,100669225.000000
137155882.000000,100633871.000000
137189047.000000,100598139.000000
137189047.000000,101052536.000000
137189292.000000,101073912.000000
136932927.000000,101073912.000000
136774151.000000,101058022.000000
136621185.000000,101011954.000000
136480095.000000,100937023.000000
136356182.000000,100836126.000000
136254257.000000,100713001.000000
136178507.000000,100572248.000000
136131545.000000,100419448.000000
136115507.000000,100260353.000000
136130873.000000,100101343.000000
136144992.000000,100049860.000000
136176529.000000,99948262.000000
136200326.000000,99900506.000000
136251111.000000,99806942.000000
136351641.000000,99682831.000000
136474385.000000,99580484.000000
136614848.000000,99504153.000000
136767572.000000,99456775.000000
136926336.000000,99440769.000000
136979512.000000,99440225.000000
140311385.000000,99440225.000000
Z" /> 
<path style="fill:#F2EDA1; fill-opacity:1.0; 
stroke:#F2EDA1; stroke-width:1.000000; stroke-opacity:1; 
stroke-linecap:round; stroke-linejoin:round;fill-rule:evenodd;"
d="M 137051961.000000,100044205.000000
137098364.000000,100070947.000000
137138150.000000,100107115.000000
137164706.000000,100154853.000000
137179432.000000,100205997.000000
137187578.000000,100259438.000000
137182504.000000,100312652.000000
137174279.000000,100366200.000000
137147855.000000,100413889.000000
137114703.000000,100455363.000000
137070851.000000,100488460.000000
137018257.000000,100501757.000000
136965064.000000,100505669.000000
136911412.000000,100494623.000000
136865076.000000,100467762.000000
136825170.000000,100431713.000000
136798543.000000,100384018.000000
136783560.000000,100332958.000000
136775338.000000,100279509.000000
136780463.000000,100226297.000000
136788705.000000,100172742.000000
136815286.000000,100125119.000000
136848570.000000,100083762.000000
136892543.000000,100050841.000000
136945073.000000,100037550.000000
136998284.000000,100033179.000000
Z" /> 
<path style="fill:#F2EDA1; fill-opacity:1.0; 
stroke:#F2EDA1; stroke-width:1.000000; stroke-opacity:1; 
stroke-linecap:round; stroke-linejoin:round;fill-rule:evenodd;"
d="M 149892145.000000,111424699.000000
149962578.000000,111444822.000000
150023018.000000,111464969.000000
150143614.000000,111525267.000000
150204285.000000,111565714.000000
150254831.000000,111616260.000000
150295004.000000,111666477.000000
150335140.000000,111716646.000000
150375433.000000,111777086.000000
150405731.000000,111837682.000000
150425878.000000,111898122.000000
150446100.000000,111968900.000000
150446100.000000,112039243.000000
150456100.000000,112109245.000000
150456100.000000,115219955.000000
150445986.000000,115290753.000000
150425884.000000,115351058.000000
150405878.000000,115421078.000000
150385632.000000,115481816.000000
150345432.000000,115542116.000000
150315209.000000,115602562.000000
150264440.000000,115653331.000000
150214448.000000,115693324.000000
150164062.000000,115743709.000000
149982610.000000,115834435.000000
149911807.000000,115844550.000000
149841856.000000,115854543.000000
149781514.000000,115864600.000000
149710745.000000,115864600.000000
149639947.000000,115854486.000000
149579642.000000,115834384.000000
149509280.000000,115814280.000000
149448586.000000,115783933.000000
149388146.000000,115743640.000000
149337977.000000,115703504.000000
149287760.000000,115663331.000000
149237214.000000,115612785.000000
149196767.000000,115552114.000000
149136469.000000,115431518.000000
149116322.000000,115371078.000000
149096215.000000,115300701.000000
149086100.000000,115240014.000000
149086100.000000,112059186.000000
149096157.000000,111998844.000000
149106214.000000,111928447.000000
149126422.000000,111867822.000000
149156562.000000,111797495.000000
149186865.000000,111736890.000000
149227196.000000,111686477.000000
149267369.000000,111636260.000000
149317915.000000,111585714.000000
149378152.000000,111545556.000000
149428390.000000,111505365.000000
149489280.000000,111474920.000000
149559642.000000,111454816.000000
149619947.000000,111434714.000000
149690393.000000,111424650.000000
149760745.000000,111414600.000000
149821455.000000,111414600.000000
Z" /> 
</g>
<g style="fill:#F2EDA1; fill-opacity:1.0; 
stroke:#F2EDA1; stroke-width:203200.000000; stroke-opacity:1; 
stroke-linecap:round; stroke-linejoin:round;">
</g>
<g style="fill:#F2EDA1; fill-opacity:0.0; 
stroke:#F2EDA1; stroke-width:203200.000000; stroke-opacity:1; 
stroke-linecap:round; stroke-linejoin:round;">
<path d="M136753600 110559850
L136753600 109607350
" />
</g>
<g style="fill:#F2EDA1; fill-opacity:1.0; 
stroke:#F2EDA1; stroke-width:1.000000; stroke-opacity:1; 
stroke-linecap:round; stroke-linejoin:round;">
<path style="fill:#F2EDA1; fill-opacity:1.0; 
stroke:#F2EDA1; stroke-width:1.000000; stroke-opacity:1; 
stroke-linecap:round; stroke-linejoin:round;fill-rule:evenodd;"
d="M 152371856.000000,111691657.000000
152441807.000000,111701650.000000
152512610.000000,111711765.000000
152573020.000000,111741970.000000
152633316.000000,111762068.000000
152694054.000000,111802560.000000
152744440.000000,111842869.000000
152794636.000000,111893064.000000
152844831.000000,111943260.000000
152885335.000000,111993890.000000
152945731.000000,112114682.000000
152965878.000000,112175122.000000
152986001.000000,112245555.000000
152996100.000000,112316245.000000
152996100.000000,115156955.000000
152986100.000000,115226957.000000
152986100.000000,115287300.000000
152965878.000000,115358078.000000
152945731.000000,115418518.000000
152915433.000000,115479114.000000
152875260.000000,115539374.000000
152835140.000000,115599554.000000
152794657.000000,115650157.000000
152744054.000000,115690640.000000
152684048.000000,115730644.000000
152633810.000000,115770835.000000
152572920.000000,115801280.000000
152502201.000000,115821485.000000
152441865.000000,115831542.000000
152371807.000000,115841550.000000
152301100.000000,115851651.000000
152230335.000000,115841542.000000
152169999.000000,115831485.000000
152099622.000000,115811378.000000
152039182.000000,115791231.000000
151978586.000000,115760933.000000
151918146.000000,115720640.000000
151867760.000000,115680331.000000
151817564.000000,115630136.000000
151767129.000000,115579700.000000
151736882.000000,115529287.000000
151696568.000000,115468816.000000
151676322.000000,115408078.000000
151656316.000000,115338058.000000
151636214.000000,115277753.000000
151626100.000000,115206955.000000
151626100.000000,112326245.000000
151636199.000000,112255555.000000
151656322.000000,112185122.000000
151676357.000000,112125019.000000
151696568.000000,112064384.000000
151777060.000000,111943646.000000
151817543.000000,111893043.000000
151867752.000000,111852876.000000
151918138.000000,111802491.000000
152039280.000000,111741920.000000
152109642.000000,111721816.000000
152169947.000000,111701714.000000
152240393.000000,111691650.000000
152311159.000000,111681541.000000
Z" /> 
<path style="fill:#F2EDA1; fill-opacity:1.0; 
stroke:#F2EDA1; stroke-width:1.000000; stroke-opacity:1; 
stroke-linecap:round; stroke-linejoin:round;fill-rule:evenodd;"
d="M 157829296.000000,109863125.000000
157616987.000000,109863125.000000
157616987.000000,109619113.000000
157829296.000000,109619113.000000
Z" /> 
<path style="fill:#F2EDA1; fill-opacity:1.0; 
stroke:#F2EDA1; stroke-width:1.000000; stroke-opacity:1; 
stroke-linecap:round; stroke-linejoin:round;fill-rule:evenodd;"
d="M 156245221.000000,109863125.000000
155838505.000000,109863125.000000
155945330.000000,109612257.000000
156138478.000000,109612257.000000
Z" /> 
<path style="fill:#F2EDA1; fill-opacity:1.0; 
stroke:#F2EDA1; stroke-width:1.000000; stroke-opacity:1; 
stroke-linecap:round; stroke-linejoin:round;fill-rule:evenodd;"
d="M 154446912.000000,109887169.000000
154385172.000000,109853125.000000
154470339.000000,109853125.000000
Z" /> 
<path style="fill:#F2EDA1; fill-opacity:1.0; 
stroke:#F2EDA1; stroke-width:1.000000; stroke-opacity:1; 
stroke-linecap:round; stroke-linejoin:round;fill-rule:evenodd;"
d="M 154963338.000000,110082715.000000
155118452.000000,110082715.000000
155184555.000000,110073080.000000
155233293.000000,110044189.000000
155263533.000000,110000842.000000
155273607.000000,109948027.000000
155273607.000000,109946202.000000
155263005.000000,109887854.000000
155236697.000000,109853125.000000
155476833.000000,109853125.000000
155482503.000000,109872820.000000
155488663.000000,109941417.000000
155488663.000000,109965466.000000
155486291.000000,109960747.000000
155480661.000000,110019257.000000
155458736.000000,110085726.000000
155423764.000000,110142332.000000
155377798.000000,110188994.000000
155322304.000000,110224987.000000
155258145.000000,110250928.000000
155186964.000000,110266491.000000
155111445.000000,110271709.000000
154962654.000000,110271709.000000
154962654.000000,110547400.000000
154750341.000000,110547400.000000
154750341.000000,109853125.000000
154963338.000000,109853125.000000
Z" /> 
<path style="fill:#F2EDA1; fill-opacity:1.0; 
stroke:#F2EDA1; stroke-width:1.000000; stroke-opacity:1; 
stroke-linecap:round; stroke-linejoin:round;fill-rule:evenodd;"
d="M 155210676.000000,109623810.000000
155280968.000000,109641324.000000
155341983.000000,109669704.000000
155393118.000000,109707514.000000
155434225.000000,109754671.000000
155464311.000000,109810110.000000
155479730.000000,109863125.000000
155244269.000000,109863125.000000
155231410.000000,109846116.000000
155181385.000000,109820221.000000
155114373.000000,109811538.000000
154963338.000000,109811538.000000
154963338.000000,109863125.000000
154750341.000000,109863125.000000
154750341.000000,109617744.000000
155131351.000000,109617744.000000
Z" /> 
<path style="fill:#F2EDA1; fill-opacity:1.0; 
stroke:#F2EDA1; stroke-width:1.000000; stroke-opacity:1; 
stroke-linecap:round; stroke-linejoin:round;fill-rule:evenodd;"
d="M 160253600.000000,110181031.000000
159670724.000000,110181031.000000
159597206.000000,110073310.000000
159901022.000000,109629113.000000
159683463.000000,109629113.000000
159485975.000000,109931607.000000
159289875.000000,109629113.000000
159065438.000000,109629113.000000
159369286.000000,110076070.000000
159297286.000000,110181031.000000
158711521.000000,110181031.000000
158711521.000000,109315704.000000
153571850.000000,109315704.000000
153571850.000000,110851496.000000
158659800.000000,110851496.000000
158659800.000000,111037746.000000
153385600.000000,111037746.000000
153385600.000000,109129454.000000
160253600.000000,109129454.000000
Z" /> 
<path style="fill:#F2EDA1; fill-opacity:1.0; 
stroke:#F2EDA1; stroke-width:1.000000; stroke-opacity:1; 
stroke-linecap:round; stroke-linejoin:round;fill-rule:evenodd;"
d="M 156878778.000000,110065569.000000
157078491.000000,110065569.000000
157143618.000000,110056674.000000
157190651.000000,110031065.000000
157219281.000000,109991218.000000
157228821.000000,109939810.000000
157228821.000000,109938656.000000
157218753.000000,109882683.000000
157196108.000000,109853125.000000
157436239.000000,109853125.000000
157438174.000000,109859377.000000
157443878.000000,109927714.000000
157443878.000000,109931005.000000
157429924.000000,110033376.000000
157388086.000000,110115420.000000
157324109.000000,110177148.000000
157248656.000000,110217074.000000
157475793.000000,110548771.000000
157227038.000000,110548771.000000
157030213.000000,110254562.000000
156878778.000000,110254562.000000
156878778.000000,110548771.000000
156666469.000000,110548771.000000
156666469.000000,109853125.000000
156878778.000000,109853125.000000
Z" /> 
<path style="fill:#F2EDA1; fill-opacity:1.0; 
stroke:#F2EDA1; stroke-width:1.000000; stroke-opacity:1; 
stroke-linecap:round; stroke-linejoin:round;fill-rule:evenodd;"
d="M 159051774.000000,110538771.000000
159269327.000000,110538771.000000
159479832.000000,110219192.000000
159688947.000000,110538771.000000
159914751.000000,110538771.000000
159663902.000000,110171031.000000
160253600.000000,110171031.000000
160253600.000000,111037746.000000
158649800.000000,111037746.000000
158649800.000000,110851496.000000
158711521.000000,110851496.000000
158711521.000000,110171031.000000
159304149.000000,110171031.000000
Z" /> 
<path style="fill:#F2EDA1; fill-opacity:1.0; 
stroke:#F2EDA1; stroke-width:1.000000; stroke-opacity:1; 
stroke-linecap:round; stroke-linejoin:round;fill-rule:evenodd;"
d="M 154093744.000000,109870884.000000
154093744.000000,109872538.000000
154101549.000000,109909605.000000
154130597.000000,109937365.000000
154190488.000000,109961589.000000
154288398.000000,109988976.000000
154413846.000000,110030334.000000
154506809.000000,110085831.000000
154540746.000000,110121645.000000
154565184.000000,110163183.000000
154579992.000000,110211655.000000
154584779.000000,110268555.000000
154584779.000000,110274492.000000
154578532.000000,110339588.000000
154559662.000000,110397740.000000
154529344.000000,110447420.000000
154489002.000000,110488693.000000
154439065.000000,110520796.000000
154381023.000000,110544445.000000
154315313.000000,110559098.000000
154242996.000000,110563873.000000
154137939.000000,110554658.000000
154034896.000000,110527226.000000
153937484.000000,110481018.000000
153845617.000000,110412260.000000
153971302.000000,110261297.000000
154038829.000000,110310012.000000
154103750.000000,110345074.000000
154172375.000000,110367324.000000
154247148.000000,110374838.000000
154302153.000000,110368951.000000
154342358.000000,110352325.000000
154366901.000000,110326783.000000
154375210.000000,110292176.000000
154375210.000000,110290560.000000
154368081.000000,110257510.000000
154342307.000000,110231089.000000
154286566.000000,110205570.000000
154192932.000000,110178233.000000
154065548.000000,110139672.000000
153968462.000000,110086971.000000
153932632.000000,110051533.000000
153905857.000000,110008203.000000
153889122.000000,109955198.000000
153883491.000000,109891797.000000
153883491.000000,109888597.000000
153886838.000000,109853125.000000
154097851.000000,109853125.000000
Z" /> 
<path style="fill:#F2EDA1; fill-opacity:1.0; 
stroke:#F2EDA1; stroke-width:1.000000; stroke-opacity:1; 
stroke-linecap:round; stroke-linejoin:round;fill-rule:evenodd;"
d="M 158219088.000000,109863125.000000
157968661.000000,109863125.000000
158195190.000000,109619113.000000
158453243.000000,109619113.000000
Z" /> 
<path style="fill:#F2EDA1; fill-opacity:1.0; 
stroke:#F2EDA1; stroke-width:1.000000; stroke-opacity:1; 
stroke-linecap:round; stroke-linejoin:round;fill-rule:evenodd;"
d="M 157829296.000000,110013258.000000
157977944.000000,109853125.000000
158228683.000000,109853125.000000
158073596.000000,110014753.000000
158468579.000000,110548771.000000
158213343.000000,110548771.000000
157930065.000000,110159942.000000
157829296.000000,110264609.000000
157829296.000000,110548771.000000
157616987.000000,110548771.000000
157616987.000000,109853125.000000
157829296.000000,109853125.000000
Z" /> 
<path style="fill:#F2EDA1; fill-opacity:1.0; 
stroke:#F2EDA1; stroke-width:1.000000; stroke-opacity:1; 
stroke-linecap:round; stroke-linejoin:round;fill-rule:evenodd;"
d="M 156537069.000000,110548771.000000
156314233.000000,110548771.000000
156039160.000000,109873961.000000
155764086.000000,110548771.000000
155546738.000000,110548771.000000
155842763.000000,109853125.000000
156240966.000000,109853125.000000
Z" /> 
<path style="fill:#F2EDA1; fill-opacity:1.0; 
stroke:#F2EDA1; stroke-width:1.000000; stroke-opacity:1; 
stroke-linecap:round; stroke-linejoin:round;fill-rule:evenodd;"
d="M 157170210.000000,109624179.000000
157239536.000000,109639369.000000
157299806.000000,109664824.000000
157350990.000000,109700578.000000
157391771.000000,109745550.000000
157420824.000000,109798532.000000
157439171.000000,109863125.000000
157203763.000000,109863125.000000
157188731.000000,109843428.000000
157140175.000000,109819626.000000
157074409.000000,109811538.000000
156878778.000000,109811538.000000
156878778.000000,109863125.000000
156666469.000000,109863125.000000
156666469.000000,109619113.000000
157092024.000000,109619113.000000
Z" /> 
<path style="fill:#F2EDA1; fill-opacity:1.0; 
stroke:#F2EDA1; stroke-width:1.000000; stroke-opacity:1; 
stroke-linecap:round; stroke-linejoin:round;fill-rule:evenodd;"
d="M 154306655.000000,109614440.000000
154396267.000000,109637205.000000
154478200.000000,109674056.000000
154557281.000000,109727023.000000
154463455.000000,109863125.000000
154403308.000000,109863125.000000
154322706.000000,109818714.000000
154264693.000000,109801100.000000
154206735.000000,109795109.000000
154156650.000000,109800969.000000
154121315.000000,109817473.000000
154100645.000000,109841339.000000
154095524.000000,109863125.000000
153885889.000000,109863125.000000
153889283.000000,109827530.000000
153907236.000000,109772893.000000
153936068.000000,109725099.000000
153974357.000000,109684088.000000
154021833.000000,109651273.000000
154077545.000000,109626899.000000
154140091.000000,109611844.000000
154208771.000000,109606754.000000
Z" /> 
</g>
<g style="fill:#F2EDA1; fill-opacity:1.0; 
stroke:#F2EDA1; stroke-width:203200.000000; stroke-opacity:1; 
stroke-linecap:round; stroke-linejoin:round;">
</g>
<g style="fill:#F2EDA1; fill-opacity:0.0; 
stroke:#F2EDA1; stroke-width:203200.000000; stroke-opacity:1; 
stroke-linecap:round; stroke-linejoin:round;">
<path d="M138881100 102003600
L140531100 102003600
" />
<path d="M136281100 103503600
L136281100 106503600
" />
<path d="M140531100 102003600
L140531100 102753600
" />
<path d="M140531100 108003600
L138881100 108003600
" />
<path d="M140531100 107253600
L140531100 108003600
" />
<circle cx="141181100.000000" cy="102503600.000000" r="101600.000000" /> 
<path d="M147485100 98526600
L149517100 98526600
" />
<path d="M147485100 96240600
L149517100 96240600
" />
</g>
<g style="fill:#F2EDA1; fill-opacity:1.0; 
stroke:#F2EDA1; stroke-width:1.000000; stroke-opacity:1; 
stroke-linecap:round; stroke-linejoin:round;">
<circle cx="149895100.000000" cy="98410600.000000" r="201600.000000" /> 
<path style="fill:#F2EDA1; fill-opacity:1.0; 
stroke:#F2EDA1; stroke-width:1.000000; stroke-opacity:1; 
stroke-linecap:round; stroke-linejoin:round;fill-rule:evenodd;"
d="M 145376100.000000,115470014.000000
145365336.000000,115534600.000000
144006100.000000,115534600.000000
144006100.000000,111809186.000000
144016864.000000,111744600.000000
145376100.000000,111744600.000000
Z" /> 
<path style="fill:#F2EDA1; fill-opacity:1.0; 
stroke:#F2EDA1; stroke-width:1.000000; stroke-opacity:1; 
stroke-linecap:round; stroke-linejoin:round;fill-rule:evenodd;"
d="M 140185307.000000,110805650.000000
140255753.000000,110815714.000000
140316518.000000,110835969.000000
140437114.000000,110896267.000000
140497785.000000,110936714.000000
140547948.000000,110986876.000000
140598330.000000,111027181.000000
140638644.000000,111087652.000000
140678928.000000,111138007.000000
140709278.000000,111208822.000000
140729343.000000,111269019.000000
140749486.000000,111329447.000000
140759600.000000,111400245.000000
140759600.000000,111541014.000000
140749543.000000,111601356.000000
140739435.000000,111672110.000000
140709230.000000,111732520.000000
140689132.000000,111792816.000000
140608640.000000,111913554.000000
140568157.000000,111964157.000000
140517554.000000,112004640.000000
140457374.000000,112044760.000000
140397114.000000,112084933.000000
140336518.000000,112115231.000000
140276078.000000,112135378.000000
140205300.000000,112155600.000000
140144957.000000,112155600.000000
140074955.000000,112165600.000000
136684245.000000,112165600.000000
136613447.000000,112155486.000000
136553142.000000,112135384.000000
136483122.000000,112115378.000000
136422384.000000,112095132.000000
136361646.000000,112054640.000000
136311652.000000,112014644.000000
136251181.000000,111974330.000000
136210696.000000,111923723.000000
136170560.000000,111873554.000000
136130267.000000,111813114.000000
136099920.000000,111752420.000000
136079816.000000,111682058.000000
136059714.000000,111621753.000000
136049600.000000,111550955.000000
136049600.000000,111420245.000000
136059699.000000,111349555.000000
136079822.000000,111279122.000000
136099969.000000,111218682.000000
136160365.000000,111097890.000000
136200869.000000,111047260.000000
136251064.000000,110997064.000000
136301415.000000,110946714.000000
136361925.000000,110906374.000000
136412319.000000,110876138.000000
136482822.000000,110845922.000000
136543122.000000,110825822.000000
136613499.000000,110805715.000000
136674186.000000,110795600.000000
140114955.000000,110795600.000000
Z" /> 
<path style="fill:#F2EDA1; fill-opacity:1.0; 
stroke:#F2EDA1; stroke-width:1.000000; stroke-opacity:1; 
stroke-linecap:round; stroke-linejoin:round;fill-rule:evenodd;"
d="M 147916100.000000,111470933.000000
147916100.000000,115533411.000000
147894704.000000,115597600.000000
146610686.000000,115597600.000000
146546100.000000,115586836.000000
146546100.000000,111460100.000000
146589433.000000,111427600.000000
147883600.000000,111427600.000000
Z" /> 
</g>
<g style="fill:#F2EDA1; fill-opacity:1.0; 
stroke:#F2EDA1; stroke-width:203200.000000; stroke-opacity:1; 
stroke-linecap:round; stroke-linejoin:round;">
</g>
<g style="fill:#F2EDA1; fill-opacity:0.0; 
stroke:#F2EDA1; stroke-width:203200.000000; stroke-opacity:1; 
stroke-linecap:round; stroke-linejoin:round;">
<path d="M147001100 103078600
L147001100 103578600
" />
<path d="M150001100 103078600
L150001100 103578600
" />
<path d="M147001100 100078600
L147001100 100578600
" />
<path d="M150001100 100078600
L150001100 100578600
" />
<circle cx="146577100.000000" cy="99804600.000000" r="127000.000000" /> 
<g >
</g>
<g >
</g>
<g >
</g>
<g >
</g>
<g >
</g>
<g >
</g>
<g >
</g>
<g >
</g>
<g >
</g>
<g >
</g>
<g >
</g>
<g >
</g>
<g >
</g>
<g >
</g>
<g >
</g>
<g >
</g>
<g >
</g>
<g >
</g>
<g >
</g>
<g >
</g>
<g >
</g>
<g >
</g>
<g >
</g>
<g >
</g>
<g >
</g>
<g >
</g>
<g >
</g>
<g >
</g>
<g >
</g>
<g >
</g>
<g >
</g>
<g >
</g>
<g >
</g>
<g >
</g>
<g >
</g>
<g >
</g>
<g >
</g>
<g >
</g>
<g >
</g>
<g >
</g>
<g >
</g>
<g >
</g>
<g >
</g>
<g >
</g>
<g >
</g>
<g >
</g>
<g >
</g>
<g >
</g>
<g >
</g>
<g >
</g>
<g >
</g>
<g >
</g>
<g >
</g>
<g >
</g>
<g >
</g>
<g >
</g>
</g>
<g style="fill:#000000; fill-opacity:0.0; 
stroke:#000000; stroke-width:203200.000000; stroke-opacity:1; 
stroke-linecap:round; stroke-linejoin:round;">
</g>
<g style="fill:#D0D2CD; fill-opacity:0.0; 
stroke:#D0D2CD; stroke-width:203200.000000; stroke-opacity:1; 
stroke-linecap:round; stroke-linejoin:round;">
<path d="M135801100 117703600
L135801100 92303600
" />
<path d="M135801100 92303600
L161201100 92303600
" />
<path d="M161201100 117703600
L135801100 117703600
" />
<path d="M161201100 92303600
L161201100 117703600
" />
<g >
</g>
<g >
</g>
<g >
</g>
<g >
</g>
<g >
</g>
<g >
</g>
<g >
</g>
<g >
</g>
<g >
</g>
<g >
</g>
<g >
</g>
<g >
</g>
<g >
</g>
<g >
</g>
<g >
</g>
<g >
</g>
<g >
</g>
<g >
</g>
<g >
</g>
<g >
</g>
<g >
</g>
<g >
</g>
<g >
</g>
<g >
</g>
<g >
</g>
<g >
</g>
<g >
</g>
<g >
</g>
<g >
</g>
<g >
</g>
<g >
</g>
<g >
</g>
<g >
</g>
<g >
</g>
<g >
</g>
<g >
</g>
<g >
</g>
<g >
</g>
<g >
</g>
<g >
</g>
<g >
</g>
<g >
</g>
<g >
</g>
<g >
</g>
<g >
</g>
<g >
</g>
<g >
</g>
<g >
</g>
<g >
</g>
<g >
</g>
<g >
</g>
<g >
</g>
<g >
</g>
<g >
</g>
<g >
</g>
<g >
</g>
</g> 
</svg>
