<?xml version="1.0" standalone="no"?>
 <!DOCTYPE svg PUBLIC "-//W3C//DTD SVG 1.1//EN" 
 "http://www.w3.org/Graphics/SVG/1.1/DTD/svg11.dtd"> 
<svg
  xmlns:svg="http://www.w3.org/2000/svg"
  xmlns="http://www.w3.org/2000/svg"
  xmlns:xlink="http://www.w3.org/1999/xlink"
  version="1.1"
  width="29.700220cm" height="21.000720cm" viewBox="0 0 297002200 210007200">
<title>SVG Picture created as kicadBoard-B_Silkscreen.svg date 2022/11/08 22:56:37 </title>
  <desc>Picture generated by PCBNEW </desc>
<g style="fill:#000000; fill-opacity:1.000000;stroke:#000000; stroke-opacity:1.000000;
stroke-linecap:round; stroke-linejoin:round;"
 transform="translate(0 0) scale(1 1)">
</g>
<g style="fill:#000000; fill-opacity:0.0; 
stroke:#000000; stroke-width:0.000000; stroke-opacity:1; 
stroke-linecap:round; stroke-linejoin:round;">
</g>
<g style="fill:#000000; fill-opacity:0.0; 
stroke:#000000; stroke-width:21200.000000; stroke-opacity:1; 
stroke-linecap:round; stroke-linejoin:round;">
</g>
<g style="fill:#000000; fill-opacity:0.0; 
stroke:#000000; stroke-width:150000.000000; stroke-opacity:1; 
stroke-linecap:round; stroke-linejoin:round;">
<rect x="177002200.000000" y="166007200.000000" width="108000000.000000" height="32000000.000000" rx="0.000000" />
</g>
<g style="fill:#000000; fill-opacity:0.0; 
stroke:#000000; stroke-width:21200.000000; stroke-opacity:1; 
stroke-linecap:round; stroke-linejoin:round;">
</g>
<g style="fill:#000000; fill-opacity:0.0; 
stroke:#000000; stroke-width:150000.000000; stroke-opacity:1; 
stroke-linecap:round; stroke-linejoin:round;">
<rect x="10000000.000000" y="10000000.000000" width="277002200.000000" height="190007200.000000" rx="0.000000" />
</g>
<g style="fill:#000000; fill-opacity:0.0; 
stroke:#000000; stroke-width:21200.000000; stroke-opacity:1; 
stroke-linecap:round; stroke-linejoin:round;">
</g>
<g style="fill:#000000; fill-opacity:0.0; 
stroke:#000000; stroke-width:150000.000000; stroke-opacity:1; 
stroke-linecap:round; stroke-linejoin:round;">
<rect x="12000000.000000" y="12000000.000000" width="273002200.000000" height="186007200.000000" rx="0.000000" />
</g>
<g style="fill:#000000; fill-opacity:0.0; 
stroke:#000000; stroke-width:21200.000000; stroke-opacity:1; 
stroke-linecap:round; stroke-linejoin:round;">
</g>
<g style="fill:#000000; fill-opacity:0.0; 
stroke:#000000; stroke-width:150000.000000; stroke-opacity:1; 
stroke-linecap:round; stroke-linejoin:round;">
<path d="M60000000 12000000
L60000000 10000000
" />
</g>
<g style="fill:#000000; fill-opacity:0.0; 
stroke:#000000; stroke-width:21200.000000; stroke-opacity:1; 
stroke-linecap:round; stroke-linejoin:round;">
</g>
<g style="fill:#000000; fill-opacity:0.0; 
stroke:#000000; stroke-width:150000.000000; stroke-opacity:1; 
stroke-linecap:round; stroke-linejoin:round;">
<path d="M110000000 12000000
L110000000 10000000
" />
</g>
<g style="fill:#000000; fill-opacity:0.0; 
stroke:#000000; stroke-width:21200.000000; stroke-opacity:1; 
stroke-linecap:round; stroke-linejoin:round;">
</g>
<g style="fill:#000000; fill-opacity:0.0; 
stroke:#000000; stroke-width:150000.000000; stroke-opacity:1; 
stroke-linecap:round; stroke-linejoin:round;">
<path d="M160000000 12000000
L160000000 10000000
" />
</g>
<g style="fill:#000000; fill-opacity:0.0; 
stroke:#000000; stroke-width:21200.000000; stroke-opacity:1; 
stroke-linecap:round; stroke-linejoin:round;">
</g>
<g style="fill:#000000; fill-opacity:0.0; 
stroke:#000000; stroke-width:150000.000000; stroke-opacity:1; 
stroke-linecap:round; stroke-linejoin:round;">
<path d="M210000000 12000000
L210000000 10000000
" />
</g>
<g style="fill:#000000; fill-opacity:0.0; 
stroke:#000000; stroke-width:21200.000000; stroke-opacity:1; 
stroke-linecap:round; stroke-linejoin:round;">
</g>
<g style="fill:#000000; fill-opacity:0.0; 
stroke:#000000; stroke-width:150000.000000; stroke-opacity:1; 
stroke-linecap:round; stroke-linejoin:round;">
<path d="M260000000 12000000
L260000000 10000000
" />
</g>
<g style="fill:#000000; fill-opacity:0.0; 
stroke:#000000; stroke-width:21200.000000; stroke-opacity:1; 
stroke-linecap:round; stroke-linejoin:round;">
</g>
<g style="fill:#000000; fill-opacity:0.0; 
stroke:#000000; stroke-width:150000.000000; stroke-opacity:1; 
stroke-linecap:round; stroke-linejoin:round;">
<text x="35000000.000000" y="11650000.000000"
textLength="1388095.000000" font-size="1733333.000000" lengthAdjust="spacingAndGlyphs"
text-anchor="start" opacity="0">1</text>
<g class="stroked-text"><desc>1</desc>
<path d="M36065476 11588095
L35322619 11588095
" />
<path d="M35694047 11588095
L35694047 10288095
L35570238 10473809
L35446428 10597619
L35322619 10659523
" />
</g></g>
<g style="fill:#000000; fill-opacity:0.0; 
stroke:#000000; stroke-width:21200.000000; stroke-opacity:1; 
stroke-linecap:round; stroke-linejoin:round;">
</g>
<g style="fill:#000000; fill-opacity:0.0; 
stroke:#000000; stroke-width:150000.000000; stroke-opacity:1; 
stroke-linecap:round; stroke-linejoin:round;">
<text x="85000000.000000" y="11650000.000000"
textLength="1388095.000000" font-size="1733333.000000" lengthAdjust="spacingAndGlyphs"
text-anchor="start" opacity="0">2</text>
<g class="stroked-text"><desc>2</desc>
<path d="M85322619 10411904
L85384523 10350000
L85508333 10288095
L85817857 10288095
L85941666 10350000
L86003571 10411904
L86065476 10535714
L86065476 10659523
L86003571 10845238
L85260714 11588095
L86065476 11588095
" />
</g></g>
<g style="fill:#000000; fill-opacity:0.0; 
stroke:#000000; stroke-width:21200.000000; stroke-opacity:1; 
stroke-linecap:round; stroke-linejoin:round;">
</g>
<g style="fill:#000000; fill-opacity:0.0; 
stroke:#000000; stroke-width:150000.000000; stroke-opacity:1; 
stroke-linecap:round; stroke-linejoin:round;">
<text x="135000000.000000" y="11650000.000000"
textLength="1388095.000000" font-size="1733333.000000" lengthAdjust="spacingAndGlyphs"
text-anchor="start" opacity="0">3</text>
<g class="stroked-text"><desc>3</desc>
<path d="M135260714 10288095
L136065476 10288095
L135632142 10783333
L135817857 10783333
L135941666 10845238
L136003571 10907142
L136065476 11030952
L136065476 11340476
L136003571 11464285
L135941666 11526190
L135817857 11588095
L135446428 11588095
L135322619 11526190
L135260714 11464285
" />
</g></g>
<g style="fill:#000000; fill-opacity:0.0; 
stroke:#000000; stroke-width:21200.000000; stroke-opacity:1; 
stroke-linecap:round; stroke-linejoin:round;">
</g>
<g style="fill:#000000; fill-opacity:0.0; 
stroke:#000000; stroke-width:150000.000000; stroke-opacity:1; 
stroke-linecap:round; stroke-linejoin:round;">
<text x="185000000.000000" y="11650000.000000"
textLength="1388095.000000" font-size="1733333.000000" lengthAdjust="spacingAndGlyphs"
text-anchor="start" opacity="0">4</text>
<g class="stroked-text"><desc>4</desc>
<path d="M185941666 10721428
L185941666 11588095
" />
<path d="M185632142 10226190
L185322619 11154761
L186127380 11154761
" />
</g></g>
<g style="fill:#000000; fill-opacity:0.0; 
stroke:#000000; stroke-width:21200.000000; stroke-opacity:1; 
stroke-linecap:round; stroke-linejoin:round;">
</g>
<g style="fill:#000000; fill-opacity:0.0; 
stroke:#000000; stroke-width:150000.000000; stroke-opacity:1; 
stroke-linecap:round; stroke-linejoin:round;">
<text x="235000000.000000" y="11650000.000000"
textLength="1388095.000000" font-size="1733333.000000" lengthAdjust="spacingAndGlyphs"
text-anchor="start" opacity="0">5</text>
<g class="stroked-text"><desc>5</desc>
<path d="M236003571 10288095
L235384523 10288095
L235322619 10907142
L235384523 10845238
L235508333 10783333
L235817857 10783333
L235941666 10845238
L236003571 10907142
L236065476 11030952
L236065476 11340476
L236003571 11464285
L235941666 11526190
L235817857 11588095
L235508333 11588095
L235384523 11526190
L235322619 11464285
" />
</g></g>
<g style="fill:#000000; fill-opacity:0.0; 
stroke:#000000; stroke-width:21200.000000; stroke-opacity:1; 
stroke-linecap:round; stroke-linejoin:round;">
</g>
<g style="fill:#000000; fill-opacity:0.0; 
stroke:#000000; stroke-width:150000.000000; stroke-opacity:1; 
stroke-linecap:round; stroke-linejoin:round;">
<text x="285000000.000000" y="11650000.000000"
textLength="1388095.000000" font-size="1733333.000000" lengthAdjust="spacingAndGlyphs"
text-anchor="start" opacity="0">6</text>
<g class="stroked-text"><desc>6</desc>
<path d="M285941666 10288095
L285694047 10288095
L285570238 10350000
L285508333 10411904
L285384523 10597619
L285322619 10845238
L285322619 11340476
L285384523 11464285
L285446428 11526190
L285570238 11588095
L285817857 11588095
L285941666 11526190
L286003571 11464285
L286065476 11340476
L286065476 11030952
L286003571 10907142
L285941666 10845238
L285817857 10783333
L285570238 10783333
L285446428 10845238
L285384523 10907142
L285322619 11030952
" />
</g></g>
<g style="fill:#000000; fill-opacity:0.0; 
stroke:#000000; stroke-width:21200.000000; stroke-opacity:1; 
stroke-linecap:round; stroke-linejoin:round;">
</g>
<g style="fill:#000000; fill-opacity:0.0; 
stroke:#000000; stroke-width:150000.000000; stroke-opacity:1; 
stroke-linecap:round; stroke-linejoin:round;">
<path d="M60000000 198007200
L60000000 200007200
" />
</g>
<g style="fill:#000000; fill-opacity:0.0; 
stroke:#000000; stroke-width:21200.000000; stroke-opacity:1; 
stroke-linecap:round; stroke-linejoin:round;">
</g>
<g style="fill:#000000; fill-opacity:0.0; 
stroke:#000000; stroke-width:150000.000000; stroke-opacity:1; 
stroke-linecap:round; stroke-linejoin:round;">
<path d="M110000000 198007200
L110000000 200007200
" />
</g>
<g style="fill:#000000; fill-opacity:0.0; 
stroke:#000000; stroke-width:21200.000000; stroke-opacity:1; 
stroke-linecap:round; stroke-linejoin:round;">
</g>
<g style="fill:#000000; fill-opacity:0.0; 
stroke:#000000; stroke-width:150000.000000; stroke-opacity:1; 
stroke-linecap:round; stroke-linejoin:round;">
<path d="M160000000 198007200
L160000000 200007200
" />
</g>
<g style="fill:#000000; fill-opacity:0.0; 
stroke:#000000; stroke-width:21200.000000; stroke-opacity:1; 
stroke-linecap:round; stroke-linejoin:round;">
</g>
<g style="fill:#000000; fill-opacity:0.0; 
stroke:#000000; stroke-width:150000.000000; stroke-opacity:1; 
stroke-linecap:round; stroke-linejoin:round;">
<path d="M210000000 198007200
L210000000 200007200
" />
</g>
<g style="fill:#000000; fill-opacity:0.0; 
stroke:#000000; stroke-width:21200.000000; stroke-opacity:1; 
stroke-linecap:round; stroke-linejoin:round;">
</g>
<g style="fill:#000000; fill-opacity:0.0; 
stroke:#000000; stroke-width:150000.000000; stroke-opacity:1; 
stroke-linecap:round; stroke-linejoin:round;">
<path d="M260000000 198007200
L260000000 200007200
" />
</g>
<g style="fill:#000000; fill-opacity:0.0; 
stroke:#000000; stroke-width:21200.000000; stroke-opacity:1; 
stroke-linecap:round; stroke-linejoin:round;">
</g>
<g style="fill:#000000; fill-opacity:0.0; 
stroke:#000000; stroke-width:150000.000000; stroke-opacity:1; 
stroke-linecap:round; stroke-linejoin:round;">
<text x="35000000.000000" y="199657200.000000"
textLength="1388095.000000" font-size="1733333.000000" lengthAdjust="spacingAndGlyphs"
text-anchor="start" opacity="0">1</text>
<g class="stroked-text"><desc>1</desc>
<path d="M36065476 199595295
L35322619 199595295
" />
<path d="M35694047 199595295
L35694047 198295295
L35570238 198481009
L35446428 198604819
L35322619 198666723
" />
</g></g>
<g style="fill:#000000; fill-opacity:0.0; 
stroke:#000000; stroke-width:21200.000000; stroke-opacity:1; 
stroke-linecap:round; stroke-linejoin:round;">
</g>
<g style="fill:#000000; fill-opacity:0.0; 
stroke:#000000; stroke-width:150000.000000; stroke-opacity:1; 
stroke-linecap:round; stroke-linejoin:round;">
<text x="85000000.000000" y="199657200.000000"
textLength="1388095.000000" font-size="1733333.000000" lengthAdjust="spacingAndGlyphs"
text-anchor="start" opacity="0">2</text>
<g class="stroked-text"><desc>2</desc>
<path d="M85322619 198419104
L85384523 198357200
L85508333 198295295
L85817857 198295295
L85941666 198357200
L86003571 198419104
L86065476 198542914
L86065476 198666723
L86003571 198852438
L85260714 199595295
L86065476 199595295
" />
</g></g>
<g style="fill:#000000; fill-opacity:0.0; 
stroke:#000000; stroke-width:21200.000000; stroke-opacity:1; 
stroke-linecap:round; stroke-linejoin:round;">
</g>
<g style="fill:#000000; fill-opacity:0.0; 
stroke:#000000; stroke-width:150000.000000; stroke-opacity:1; 
stroke-linecap:round; stroke-linejoin:round;">
<text x="135000000.000000" y="199657200.000000"
textLength="1388095.000000" font-size="1733333.000000" lengthAdjust="spacingAndGlyphs"
text-anchor="start" opacity="0">3</text>
<g class="stroked-text"><desc>3</desc>
<path d="M135260714 198295295
L136065476 198295295
L135632142 198790533
L135817857 198790533
L135941666 198852438
L136003571 198914342
L136065476 199038152
L136065476 199347676
L136003571 199471485
L135941666 199533390
L135817857 199595295
L135446428 199595295
L135322619 199533390
L135260714 199471485
" />
</g></g>
<g style="fill:#000000; fill-opacity:0.0; 
stroke:#000000; stroke-width:21200.000000; stroke-opacity:1; 
stroke-linecap:round; stroke-linejoin:round;">
</g>
<g style="fill:#000000; fill-opacity:0.0; 
stroke:#000000; stroke-width:150000.000000; stroke-opacity:1; 
stroke-linecap:round; stroke-linejoin:round;">
<text x="185000000.000000" y="199657200.000000"
textLength="1388095.000000" font-size="1733333.000000" lengthAdjust="spacingAndGlyphs"
text-anchor="start" opacity="0">4</text>
<g class="stroked-text"><desc>4</desc>
<path d="M185941666 198728628
L185941666 199595295
" />
<path d="M185632142 198233390
L185322619 199161961
L186127380 199161961
" />
</g></g>
<g style="fill:#000000; fill-opacity:0.0; 
stroke:#000000; stroke-width:21200.000000; stroke-opacity:1; 
stroke-linecap:round; stroke-linejoin:round;">
</g>
<g style="fill:#000000; fill-opacity:0.0; 
stroke:#000000; stroke-width:150000.000000; stroke-opacity:1; 
stroke-linecap:round; stroke-linejoin:round;">
<text x="235000000.000000" y="199657200.000000"
textLength="1388095.000000" font-size="1733333.000000" lengthAdjust="spacingAndGlyphs"
text-anchor="start" opacity="0">5</text>
<g class="stroked-text"><desc>5</desc>
<path d="M236003571 198295295
L235384523 198295295
L235322619 198914342
L235384523 198852438
L235508333 198790533
L235817857 198790533
L235941666 198852438
L236003571 198914342
L236065476 199038152
L236065476 199347676
L236003571 199471485
L235941666 199533390
L235817857 199595295
L235508333 199595295
L235384523 199533390
L235322619 199471485
" />
</g></g>
<g style="fill:#000000; fill-opacity:0.0; 
stroke:#000000; stroke-width:21200.000000; stroke-opacity:1; 
stroke-linecap:round; stroke-linejoin:round;">
</g>
<g style="fill:#000000; fill-opacity:0.0; 
stroke:#000000; stroke-width:150000.000000; stroke-opacity:1; 
stroke-linecap:round; stroke-linejoin:round;">
<text x="285000000.000000" y="199657200.000000"
textLength="1388095.000000" font-size="1733333.000000" lengthAdjust="spacingAndGlyphs"
text-anchor="start" opacity="0">6</text>
<g class="stroked-text"><desc>6</desc>
<path d="M285941666 198295295
L285694047 198295295
L285570238 198357200
L285508333 198419104
L285384523 198604819
L285322619 198852438
L285322619 199347676
L285384523 199471485
L285446428 199533390
L285570238 199595295
L285817857 199595295
L285941666 199533390
L286003571 199471485
L286065476 199347676
L286065476 199038152
L286003571 198914342
L285941666 198852438
L285817857 198790533
L285570238 198790533
L285446428 198852438
L285384523 198914342
L285322619 199038152
" />
</g></g>
<g style="fill:#000000; fill-opacity:0.0; 
stroke:#000000; stroke-width:21200.000000; stroke-opacity:1; 
stroke-linecap:round; stroke-linejoin:round;">
</g>
<g style="fill:#000000; fill-opacity:0.0; 
stroke:#000000; stroke-width:150000.000000; stroke-opacity:1; 
stroke-linecap:round; stroke-linejoin:round;">
<path d="M10000000 60000000
L12000000 60000000
" />
</g>
<g style="fill:#000000; fill-opacity:0.0; 
stroke:#000000; stroke-width:21200.000000; stroke-opacity:1; 
stroke-linecap:round; stroke-linejoin:round;">
</g>
<g style="fill:#000000; fill-opacity:0.0; 
stroke:#000000; stroke-width:150000.000000; stroke-opacity:1; 
stroke-linecap:round; stroke-linejoin:round;">
<path d="M10000000 110000000
L12000000 110000000
" />
</g>
<g style="fill:#000000; fill-opacity:0.0; 
stroke:#000000; stroke-width:21200.000000; stroke-opacity:1; 
stroke-linecap:round; stroke-linejoin:round;">
</g>
<g style="fill:#000000; fill-opacity:0.0; 
stroke:#000000; stroke-width:150000.000000; stroke-opacity:1; 
stroke-linecap:round; stroke-linejoin:round;">
<path d="M10000000 160000000
L12000000 160000000
" />
</g>
<g style="fill:#000000; fill-opacity:0.0; 
stroke:#000000; stroke-width:21200.000000; stroke-opacity:1; 
stroke-linecap:round; stroke-linejoin:round;">
</g>
<g style="fill:#000000; fill-opacity:0.0; 
stroke:#000000; stroke-width:150000.000000; stroke-opacity:1; 
stroke-linecap:round; stroke-linejoin:round;">
<text x="11000000.000000" y="35650000.000000"
textLength="1264286.000000" font-size="1733333.000000" lengthAdjust="spacingAndGlyphs"
text-anchor="middle" opacity="0">A</text>
<g class="stroked-text"><desc>A</desc>
<path d="M10690476 35216666
L11309523 35216666
" />
<path d="M10566666 35588095
L11000000 34288095
L11433333 35588095
" />
</g></g>
<g style="fill:#000000; fill-opacity:0.0; 
stroke:#000000; stroke-width:21200.000000; stroke-opacity:1; 
stroke-linecap:round; stroke-linejoin:round;">
</g>
<g style="fill:#000000; fill-opacity:0.0; 
stroke:#000000; stroke-width:150000.000000; stroke-opacity:1; 
stroke-linecap:round; stroke-linejoin:round;">
<text x="11000000.000000" y="85650000.000000"
textLength="1450000.000000" font-size="1733333.000000" lengthAdjust="spacingAndGlyphs"
text-anchor="middle" opacity="0">B</text>
<g class="stroked-text"><desc>B</desc>
<path d="M11092857 84907142
L11278571 84969047
L11340476 85030952
L11402380 85154761
L11402380 85340476
L11340476 85464285
L11278571 85526190
L11154761 85588095
L10659523 85588095
L10659523 84288095
L11092857 84288095
L11216666 84350000
L11278571 84411904
L11340476 84535714
L11340476 84659523
L11278571 84783333
L11216666 84845238
L11092857 84907142
L10659523 84907142
" />
</g></g>
<g style="fill:#000000; fill-opacity:0.0; 
stroke:#000000; stroke-width:21200.000000; stroke-opacity:1; 
stroke-linecap:round; stroke-linejoin:round;">
</g>
<g style="fill:#000000; fill-opacity:0.0; 
stroke:#000000; stroke-width:150000.000000; stroke-opacity:1; 
stroke-linecap:round; stroke-linejoin:round;">
<text x="11000000.000000" y="135650000.000000"
textLength="1450000.000000" font-size="1733333.000000" lengthAdjust="spacingAndGlyphs"
text-anchor="middle" opacity="0">C</text>
<g class="stroked-text"><desc>C</desc>
<path d="M11402380 135464285
L11340476 135526190
L11154761 135588095
L11030952 135588095
L10845238 135526190
L10721428 135402380
L10659523 135278571
L10597619 135030952
L10597619 134845238
L10659523 134597619
L10721428 134473809
L10845238 134350000
L11030952 134288095
L11154761 134288095
L11340476 134350000
L11402380 134411904
" />
</g></g>
<g style="fill:#000000; fill-opacity:0.0; 
stroke:#000000; stroke-width:21200.000000; stroke-opacity:1; 
stroke-linecap:round; stroke-linejoin:round;">
</g>
<g style="fill:#000000; fill-opacity:0.0; 
stroke:#000000; stroke-width:150000.000000; stroke-opacity:1; 
stroke-linecap:round; stroke-linejoin:round;">
<text x="11000000.000000" y="185650000.000000"
textLength="1450000.000000" font-size="1733333.000000" lengthAdjust="spacingAndGlyphs"
text-anchor="middle" opacity="0">D</text>
<g class="stroked-text"><desc>D</desc>
<path d="M10659523 185588095
L10659523 184288095
L10969047 184288095
L11154761 184350000
L11278571 184473809
L11340476 184597619
L11402380 184845238
L11402380 185030952
L11340476 185278571
L11278571 185402380
L11154761 185526190
L10969047 185588095
L10659523 185588095
" />
</g></g>
<g style="fill:#000000; fill-opacity:0.0; 
stroke:#000000; stroke-width:21200.000000; stroke-opacity:1; 
stroke-linecap:round; stroke-linejoin:round;">
</g>
<g style="fill:#000000; fill-opacity:0.0; 
stroke:#000000; stroke-width:150000.000000; stroke-opacity:1; 
stroke-linecap:round; stroke-linejoin:round;">
<path d="M287002200 60000000
L285002200 60000000
" />
</g>
<g style="fill:#000000; fill-opacity:0.0; 
stroke:#000000; stroke-width:21200.000000; stroke-opacity:1; 
stroke-linecap:round; stroke-linejoin:round;">
</g>
<g style="fill:#000000; fill-opacity:0.0; 
stroke:#000000; stroke-width:150000.000000; stroke-opacity:1; 
stroke-linecap:round; stroke-linejoin:round;">
<path d="M287002200 110000000
L285002200 110000000
" />
</g>
<g style="fill:#000000; fill-opacity:0.0; 
stroke:#000000; stroke-width:21200.000000; stroke-opacity:1; 
stroke-linecap:round; stroke-linejoin:round;">
</g>
<g style="fill:#000000; fill-opacity:0.0; 
stroke:#000000; stroke-width:150000.000000; stroke-opacity:1; 
stroke-linecap:round; stroke-linejoin:round;">
<path d="M287002200 160000000
L285002200 160000000
" />
</g>
<g style="fill:#000000; fill-opacity:0.0; 
stroke:#000000; stroke-width:21200.000000; stroke-opacity:1; 
stroke-linecap:round; stroke-linejoin:round;">
</g>
<g style="fill:#000000; fill-opacity:0.0; 
stroke:#000000; stroke-width:150000.000000; stroke-opacity:1; 
stroke-linecap:round; stroke-linejoin:round;">
<text x="286002200.000000" y="35650000.000000"
textLength="1264286.000000" font-size="1733333.000000" lengthAdjust="spacingAndGlyphs"
text-anchor="middle" opacity="0">A</text>
<g class="stroked-text"><desc>A</desc>
<path d="M285692676 35216666
L286311723 35216666
" />
<path d="M285568866 35588095
L286002200 34288095
L286435533 35588095
" />
</g></g>
<g style="fill:#000000; fill-opacity:0.0; 
stroke:#000000; stroke-width:21200.000000; stroke-opacity:1; 
stroke-linecap:round; stroke-linejoin:round;">
</g>
<g style="fill:#000000; fill-opacity:0.0; 
stroke:#000000; stroke-width:150000.000000; stroke-opacity:1; 
stroke-linecap:round; stroke-linejoin:round;">
<text x="286002200.000000" y="85650000.000000"
textLength="1450000.000000" font-size="1733333.000000" lengthAdjust="spacingAndGlyphs"
text-anchor="middle" opacity="0">B</text>
<g class="stroked-text"><desc>B</desc>
<path d="M286095057 84907142
L286280771 84969047
L286342676 85030952
L286404580 85154761
L286404580 85340476
L286342676 85464285
L286280771 85526190
L286156961 85588095
L285661723 85588095
L285661723 84288095
L286095057 84288095
L286218866 84350000
L286280771 84411904
L286342676 84535714
L286342676 84659523
L286280771 84783333
L286218866 84845238
L286095057 84907142
L285661723 84907142
" />
</g></g>
<g style="fill:#000000; fill-opacity:0.0; 
stroke:#000000; stroke-width:21200.000000; stroke-opacity:1; 
stroke-linecap:round; stroke-linejoin:round;">
</g>
<g style="fill:#000000; fill-opacity:0.0; 
stroke:#000000; stroke-width:150000.000000; stroke-opacity:1; 
stroke-linecap:round; stroke-linejoin:round;">
<text x="286002200.000000" y="135650000.000000"
textLength="1450000.000000" font-size="1733333.000000" lengthAdjust="spacingAndGlyphs"
text-anchor="middle" opacity="0">C</text>
<g class="stroked-text"><desc>C</desc>
<path d="M286404580 135464285
L286342676 135526190
L286156961 135588095
L286033152 135588095
L285847438 135526190
L285723628 135402380
L285661723 135278571
L285599819 135030952
L285599819 134845238
L285661723 134597619
L285723628 134473809
L285847438 134350000
L286033152 134288095
L286156961 134288095
L286342676 134350000
L286404580 134411904
" />
</g></g>
<g style="fill:#000000; fill-opacity:0.0; 
stroke:#000000; stroke-width:21200.000000; stroke-opacity:1; 
stroke-linecap:round; stroke-linejoin:round;">
</g>
<g style="fill:#000000; fill-opacity:0.0; 
stroke:#000000; stroke-width:150000.000000; stroke-opacity:1; 
stroke-linecap:round; stroke-linejoin:round;">
<text x="286002200.000000" y="185650000.000000"
textLength="1450000.000000" font-size="1733333.000000" lengthAdjust="spacingAndGlyphs"
text-anchor="middle" opacity="0">D</text>
<g class="stroked-text"><desc>D</desc>
<path d="M285661723 185588095
L285661723 184288095
L285971247 184288095
L286156961 184350000
L286280771 184473809
L286342676 184597619
L286404580 184845238
L286404580 185030952
L286342676 185278571
L286280771 185402380
L286156961 185526190
L285971247 185588095
L285661723 185588095
" />
</g></g>
<g style="fill:#000000; fill-opacity:0.0; 
stroke:#000000; stroke-width:21200.000000; stroke-opacity:1; 
stroke-linecap:round; stroke-linejoin:round;">
</g>
<g style="fill:#000000; fill-opacity:0.0; 
stroke:#000000; stroke-width:150000.000000; stroke-opacity:1; 
stroke-linecap:round; stroke-linejoin:round;">
<text x="200002200.000000" y="193857200.000000"
textLength="7007143.000000" font-size="2000000.000000" lengthAdjust="spacingAndGlyphs"
text-anchor="start" opacity="0">Date: </text>
<g class="stroked-text"><desc>Date: </desc>
<path d="M200434342 193785771
L200434342 192285771
L200791485 192285771
L201005771 192357200
L201148628 192500057
L201220057 192642914
L201291485 192928628
L201291485 193142914
L201220057 193428628
L201148628 193571485
L201005771 193714342
L200791485 193785771
L200434342 193785771
" />
<path d="M202577200 193785771
L202577200 193000057
L202505771 192857200
L202362914 192785771
L202077200 192785771
L201934342 192857200
" />
<path d="M202577200 193714342
L202434342 193785771
L202077200 193785771
L201934342 193714342
L201862914 193571485
L201862914 193428628
L201934342 193285771
L202077200 193214342
L202434342 193214342
L202577200 193142914
" />
<path d="M203077200 192785771
L203648628 192785771
" />
<path d="M203291485 192285771
L203291485 193571485
L203362914 193714342
L203505771 193785771
L203648628 193785771
" />
<path d="M204720057 193714342
L204577200 193785771
L204291485 193785771
L204148628 193714342
L204077200 193571485
L204077200 193000057
L204148628 192857200
L204291485 192785771
L204577200 192785771
L204720057 192857200
L204791485 193000057
L204791485 193142914
L204077200 193285771
" />
<path d="M205434342 193642914
L205505771 193714342
L205434342 193785771
L205362914 193714342
L205434342 193642914
L205434342 193785771
" />
<path d="M205434342 192857200
L205505771 192928628
L205434342 193000057
L205362914 192928628
L205434342 192857200
L205434342 193000057
" />
</g></g>
<g style="fill:#000000; fill-opacity:0.0; 
stroke:#000000; stroke-width:21200.000000; stroke-opacity:1; 
stroke-linecap:round; stroke-linejoin:round;">
</g>
<g style="fill:#000000; fill-opacity:0.0; 
stroke:#000000; stroke-width:150000.000000; stroke-opacity:1; 
stroke-linecap:round; stroke-linejoin:round;">
<path d="M177002200 194507200
L285002200 194507200
" />
</g>
<g style="fill:#000000; fill-opacity:0.0; 
stroke:#000000; stroke-width:21200.000000; stroke-opacity:1; 
stroke-linecap:round; stroke-linejoin:round;">
</g>
<g style="fill:#000000; fill-opacity:0.0; 
stroke:#000000; stroke-width:150000.000000; stroke-opacity:1; 
stroke-linecap:round; stroke-linejoin:round;">
<text x="178002200.000000" y="196657200.000000"
textLength="33364286.000000" font-size="2000000.000000" lengthAdjust="spacingAndGlyphs"
text-anchor="start" opacity="0">KiCad E.D.A.  pcbnew (6.0.9)</text>
<g class="stroked-text"><desc>KiCad E.D.A.  pcbnew (6.0.9)</desc>
<path d="M178434342 196585771
L178434342 195085771
" />
<path d="M179291485 196585771
L178648628 195728628
" />
<path d="M179291485 195085771
L178434342 195942914
" />
<path d="M179934342 196585771
L179934342 195585771
" />
<path d="M179934342 195085771
L179862914 195157200
L179934342 195228628
L180005771 195157200
L179934342 195085771
L179934342 195228628
" />
<path d="M181505771 196442914
L181434342 196514342
L181220057 196585771
L181077200 196585771
L180862914 196514342
L180720057 196371485
L180648628 196228628
L180577200 195942914
L180577200 195728628
L180648628 195442914
L180720057 195300057
L180862914 195157200
L181077200 195085771
L181220057 195085771
L181434342 195157200
L181505771 195228628
" />
<path d="M182791485 196585771
L182791485 195800057
L182720057 195657200
L182577200 195585771
L182291485 195585771
L182148628 195657200
" />
<path d="M182791485 196514342
L182648628 196585771
L182291485 196585771
L182148628 196514342
L182077200 196371485
L182077200 196228628
L182148628 196085771
L182291485 196014342
L182648628 196014342
L182791485 195942914
" />
<path d="M184148628 196585771
L184148628 195085771
" />
<path d="M184148628 196514342
L184005771 196585771
L183720057 196585771
L183577200 196514342
L183505771 196442914
L183434342 196300057
L183434342 195871485
L183505771 195728628
L183577200 195657200
L183720057 195585771
L184005771 195585771
L184148628 195657200
" />
<path d="M186005771 195800057
L186505771 195800057
" />
<path d="M186720057 196585771
L186005771 196585771
L186005771 195085771
L186720057 195085771
" />
<path d="M187362914 196442914
L187434342 196514342
L187362914 196585771
L187291485 196514342
L187362914 196442914
L187362914 196585771
" />
<path d="M188077200 196585771
L188077200 195085771
L188434342 195085771
L188648628 195157200
L188791485 195300057
L188862914 195442914
L188934342 195728628
L188934342 195942914
L188862914 196228628
L188791485 196371485
L188648628 196514342
L188434342 196585771
L188077200 196585771
" />
<path d="M189577200 196442914
L189648628 196514342
L189577200 196585771
L189505771 196514342
L189577200 196442914
L189577200 196585771
" />
<path d="M190220057 196157200
L190934342 196157200
" />
<path d="M190077200 196585771
L190577200 195085771
L191077200 196585771
" />
<path d="M191577200 196442914
L191648628 196514342
L191577200 196585771
L191505771 196514342
L191577200 196442914
L191577200 196585771
" />
<path d="M194577200 195585771
L194577200 197085771
" />
<path d="M194577200 195657200
L194720057 195585771
L195005771 195585771
L195148628 195657200
L195220057 195728628
L195291485 195871485
L195291485 196300057
L195220057 196442914
L195148628 196514342
L195005771 196585771
L194720057 196585771
L194577200 196514342
" />
<path d="M196577200 196514342
L196434342 196585771
L196148628 196585771
L196005771 196514342
L195934342 196442914
L195862914 196300057
L195862914 195871485
L195934342 195728628
L196005771 195657200
L196148628 195585771
L196434342 195585771
L196577200 195657200
" />
<path d="M197220057 196585771
L197220057 195085771
" />
<path d="M197220057 195657200
L197362914 195585771
L197648628 195585771
L197791485 195657200
L197862914 195728628
L197934342 195871485
L197934342 196300057
L197862914 196442914
L197791485 196514342
L197648628 196585771
L197362914 196585771
L197220057 196514342
" />
<path d="M198577200 195585771
L198577200 196585771
" />
<path d="M198577200 195728628
L198648628 195657200
L198791485 195585771
L199005771 195585771
L199148628 195657200
L199220057 195800057
L199220057 196585771
" />
<path d="M200505771 196514342
L200362914 196585771
L200077200 196585771
L199934342 196514342
L199862914 196371485
L199862914 195800057
L199934342 195657200
L200077200 195585771
L200362914 195585771
L200505771 195657200
L200577200 195800057
L200577200 195942914
L199862914 196085771
" />
<path d="M201077200 195585771
L201362914 196585771
L201648628 195871485
L201934342 196585771
L202220057 195585771
" />
<path d="M204362914 197157200
L204291485 197085771
L204148628 196871485
L204077200 196728628
L204005771 196514342
L203934342 196157200
L203934342 195871485
L204005771 195514342
L204077200 195300057
L204148628 195157200
L204291485 194942914
L204362914 194871485
" />
<path d="M205577200 195085771
L205291485 195085771
L205148628 195157200
L205077200 195228628
L204934342 195442914
L204862914 195728628
L204862914 196300057
L204934342 196442914
L205005771 196514342
L205148628 196585771
L205434342 196585771
L205577200 196514342
L205648628 196442914
L205720057 196300057
L205720057 195942914
L205648628 195800057
L205577200 195728628
L205434342 195657200
L205148628 195657200
L205005771 195728628
L204934342 195800057
L204862914 195942914
" />
<path d="M206362914 196442914
L206434342 196514342
L206362914 196585771
L206291485 196514342
L206362914 196442914
L206362914 196585771
" />
<path d="M207362914 195085771
L207505771 195085771
L207648628 195157200
L207720057 195228628
L207791485 195371485
L207862914 195657200
L207862914 196014342
L207791485 196300057
L207720057 196442914
L207648628 196514342
L207505771 196585771
L207362914 196585771
L207220057 196514342
L207148628 196442914
L207077200 196300057
L207005771 196014342
L207005771 195657200
L207077200 195371485
L207148628 195228628
L207220057 195157200
L207362914 195085771
" />
<path d="M208505771 196442914
L208577200 196514342
L208505771 196585771
L208434342 196514342
L208505771 196442914
L208505771 196585771
" />
<path d="M209291485 196585771
L209577200 196585771
L209720057 196514342
L209791485 196442914
L209934342 196228628
L210005771 195942914
L210005771 195371485
L209934342 195228628
L209862914 195157200
L209720057 195085771
L209434342 195085771
L209291485 195157200
L209220057 195228628
L209148628 195371485
L209148628 195728628
L209220057 195871485
L209291485 195942914
L209434342 196014342
L209720057 196014342
L209862914 195942914
L209934342 195871485
L210005771 195728628
" />
<path d="M210505771 197157200
L210577200 197085771
L210720057 196871485
L210791485 196728628
L210862914 196514342
L210934342 196157200
L210934342 195871485
L210862914 195514342
L210791485 195300057
L210720057 195157200
L210577200 194942914
L210505771 194871485
" />
</g></g>
<g style="fill:#000000; fill-opacity:0.0; 
stroke:#000000; stroke-width:21200.000000; stroke-opacity:1; 
stroke-linecap:round; stroke-linejoin:round;">
</g>
<g style="fill:#000000; fill-opacity:0.0; 
stroke:#000000; stroke-width:150000.000000; stroke-opacity:1; 
stroke-linecap:round; stroke-linejoin:round;">
<path d="M177002200 191507200
L285002200 191507200
" />
</g>
<g style="fill:#000000; fill-opacity:0.0; 
stroke:#000000; stroke-width:21200.000000; stroke-opacity:1; 
stroke-linecap:round; stroke-linejoin:round;">
</g>
<g style="fill:#000000; fill-opacity:0.0; 
stroke:#000000; stroke-width:300000.000000; stroke-opacity:1; 
stroke-linecap:round; stroke-linejoin:round;">
<text x="263002200.000000" y="193857200.000000"
textLength="5935714.000000" font-size="2000000.000000" lengthAdjust="spacingAndGlyphs"
text-anchor="start" opacity="0">Rev: </text>
<g class="stroked-text"><desc>Rev: </desc>
<path d="M264411485 193785771
L263911485 193071485
" />
<path d="M263554342 193785771
L263554342 192285771
L264125771 192285771
L264268628 192357200
L264340057 192428628
L264411485 192571485
L264411485 192785771
L264340057 192928628
L264268628 193000057
L264125771 193071485
L263554342 193071485
" />
<path d="M265625771 193714342
L265482914 193785771
L265197200 193785771
L265054342 193714342
L264982914 193571485
L264982914 193000057
L265054342 192857200
L265197200 192785771
L265482914 192785771
L265625771 192857200
L265697200 193000057
L265697200 193142914
L264982914 193285771
" />
<path d="M266197200 192785771
L266554342 193785771
L266911485 192785771
" />
<path d="M267482914 193642914
L267554342 193714342
L267482914 193785771
L267411485 193714342
L267482914 193642914
L267482914 193785771
" />
<path d="M267482914 192857200
L267554342 192928628
L267482914 193000057
L267411485 192928628
L267482914 192857200
L267482914 193000057
" />
</g></g>
<g style="fill:#000000; fill-opacity:0.0; 
stroke:#000000; stroke-width:21200.000000; stroke-opacity:1; 
stroke-linecap:round; stroke-linejoin:round;">
</g>
<g style="fill:#000000; fill-opacity:0.0; 
stroke:#000000; stroke-width:150000.000000; stroke-opacity:1; 
stroke-linecap:round; stroke-linejoin:round;">
<text x="178002200.000000" y="193857200.000000"
textLength="9604286.000000" font-size="2000000.000000" lengthAdjust="spacingAndGlyphs"
text-anchor="start" opacity="0">Size: A4</text>
<g class="stroked-text"><desc>Size: A4</desc>
<path d="M178362914 193714342
L178577200 193785771
L178934342 193785771
L179077200 193714342
L179148628 193642914
L179220057 193500057
L179220057 193357200
L179148628 193214342
L179077200 193142914
L178934342 193071485
L178648628 193000057
L178505771 192928628
L178434342 192857200
L178362914 192714342
L178362914 192571485
L178434342 192428628
L178505771 192357200
L178648628 192285771
L179005771 192285771
L179220057 192357200
" />
<path d="M179862914 193785771
L179862914 192785771
" />
<path d="M179862914 192285771
L179791485 192357200
L179862914 192428628
L179934342 192357200
L179862914 192285771
L179862914 192428628
" />
<path d="M180434342 192785771
L181220057 192785771
L180434342 193785771
L181220057 193785771
" />
<path d="M182362914 193714342
L182220057 193785771
L181934342 193785771
L181791485 193714342
L181720057 193571485
L181720057 193000057
L181791485 192857200
L181934342 192785771
L182220057 192785771
L182362914 192857200
L182434342 193000057
L182434342 193142914
L181720057 193285771
" />
<path d="M183077200 193642914
L183148628 193714342
L183077200 193785771
L183005771 193714342
L183077200 193642914
L183077200 193785771
" />
<path d="M183077200 192857200
L183148628 192928628
L183077200 193000057
L183005771 192928628
L183077200 192857200
L183077200 193000057
" />
<path d="M184862914 193357200
L185577200 193357200
" />
<path d="M184720057 193785771
L185220057 192285771
L185720057 193785771
" />
<path d="M186862914 192785771
L186862914 193785771
" />
<path d="M186505771 192214342
L186148628 193285771
L187077200 193285771
" />
</g></g>
<g style="fill:#000000; fill-opacity:0.0; 
stroke:#000000; stroke-width:21200.000000; stroke-opacity:1; 
stroke-linecap:round; stroke-linejoin:round;">
</g>
<g style="fill:#000000; fill-opacity:0.0; 
stroke:#000000; stroke-width:150000.000000; stroke-opacity:1; 
stroke-linecap:round; stroke-linejoin:round;">
<text x="263002200.000000" y="196657200.000000"
textLength="8507143.000000" font-size="2000000.000000" lengthAdjust="spacingAndGlyphs"
text-anchor="start" opacity="0">Id: 1/1</text>
<g class="stroked-text"><desc>Id: 1/1</desc>
<path d="M263434342 196585771
L263434342 195085771
" />
<path d="M264791485 196585771
L264791485 195085771
" />
<path d="M264791485 196514342
L264648628 196585771
L264362914 196585771
L264220057 196514342
L264148628 196442914
L264077200 196300057
L264077200 195871485
L264148628 195728628
L264220057 195657200
L264362914 195585771
L264648628 195585771
L264791485 195657200
" />
<path d="M265505771 196442914
L265577200 196514342
L265505771 196585771
L265434342 196514342
L265505771 196442914
L265505771 196585771
" />
<path d="M265505771 195657200
L265577200 195728628
L265505771 195800057
L265434342 195728628
L265505771 195657200
L265505771 195800057
" />
<path d="M268148628 196585771
L267291485 196585771
" />
<path d="M267720057 196585771
L267720057 195085771
L267577200 195300057
L267434342 195442914
L267291485 195514342
" />
<path d="M269862914 195014342
L268577200 196942914
" />
<path d="M271148628 196585771
L270291485 196585771
" />
<path d="M270720057 196585771
L270720057 195085771
L270577200 195300057
L270434342 195442914
L270291485 195514342
" />
</g></g>
<g style="fill:#000000; fill-opacity:0.0; 
stroke:#000000; stroke-width:21200.000000; stroke-opacity:1; 
stroke-linecap:round; stroke-linejoin:round;">
</g>
<g style="fill:#000000; fill-opacity:0.0; 
stroke:#000000; stroke-width:150000.000000; stroke-opacity:1; 
stroke-linecap:round; stroke-linejoin:round;">
<path d="M177002200 187507200
L285002200 187507200
" />
</g>
<g style="fill:#000000; fill-opacity:0.0; 
stroke:#000000; stroke-width:21200.000000; stroke-opacity:1; 
stroke-linecap:round; stroke-linejoin:round;">
</g>
<g style="fill:#000000; fill-opacity:0.0; 
stroke:#000000; stroke-width:400000.000000; stroke-opacity:1; 
stroke-linecap:round; stroke-linejoin:round;">
<text x="178002200.000000" y="190307200.000000"
textLength="9409643.000000" font-size="2666666.000000" lengthAdjust="spacingAndGlyphs"
text-anchor="start" opacity="0">Title: </text>
<g class="stroked-text"><desc>Title: </desc>
<path d="M178714580 188211961
L179857438 188211961
" />
<path d="M179036009 190211961
L179286009 188211961
" />
<path d="M180274104 190211961
L180440771 188878628
" />
<path d="M180524104 188211961
L180416961 188307200
L180500295 188402438
L180607438 188307200
L180524104 188211961
L180500295 188402438
" />
<path d="M181107438 188878628
L181869342 188878628
" />
<path d="M181476485 188211961
L181262200 189926247
L181333628 190116723
L181512200 190211961
L181702676 190211961
" />
<path d="M182655057 190211961
L182476485 190116723
L182405057 189926247
L182619342 188211961
" />
<path d="M184190771 190116723
L183988390 190211961
L183607438 190211961
L183428866 190116723
L183357438 189926247
L183452676 189164342
L183571723 188973866
L183774104 188878628
L184155057 188878628
L184333628 188973866
L184405057 189164342
L184381247 189354819
L183405057 189545295
" />
<path d="M185155057 190021485
L185238390 190116723
L185131247 190211961
L185047914 190116723
L185155057 190021485
L185131247 190211961
" />
<path d="M185286009 188973866
L185369342 189069104
L185262200 189164342
L185178866 189069104
L185286009 188973866
L185262200 189164342
" />
</g></g>
<g style="fill:#000000; fill-opacity:0.0; 
stroke:#000000; stroke-width:21200.000000; stroke-opacity:1; 
stroke-linecap:round; stroke-linejoin:round;">
</g>
<g style="fill:#000000; fill-opacity:0.0; 
stroke:#000000; stroke-width:150000.000000; stroke-opacity:1; 
stroke-linecap:round; stroke-linejoin:round;">
<text x="178002200.000000" y="186457200.000000"
textLength="30662857.000000" font-size="2000000.000000" lengthAdjust="spacingAndGlyphs"
text-anchor="start" opacity="0">File: kicadBoard.kicad_pcb</text>
<g class="stroked-text"><desc>File: kicadBoard.kicad_pcb</desc>
<path d="M178934342 185600057
L178434342 185600057
" />
<path d="M178434342 186385771
L178434342 184885771
L179148628 184885771
" />
<path d="M179720057 186385771
L179720057 185385771
" />
<path d="M179720057 184885771
L179648628 184957200
L179720057 185028628
L179791485 184957200
L179720057 184885771
L179720057 185028628
" />
<path d="M180648628 186385771
L180505771 186314342
L180434342 186171485
L180434342 184885771
" />
<path d="M181791485 186314342
L181648628 186385771
L181362914 186385771
L181220057 186314342
L181148628 186171485
L181148628 185600057
L181220057 185457200
L181362914 185385771
L181648628 185385771
L181791485 185457200
L181862914 185600057
L181862914 185742914
L181148628 185885771
" />
<path d="M182505771 186242914
L182577200 186314342
L182505771 186385771
L182434342 186314342
L182505771 186242914
L182505771 186385771
" />
<path d="M182505771 185457200
L182577200 185528628
L182505771 185600057
L182434342 185528628
L182505771 185457200
L182505771 185600057
" />
<path d="M184362914 186385771
L184362914 184885771
" />
<path d="M184505771 185814342
L184934342 186385771
" />
<path d="M184934342 185385771
L184362914 185957200
" />
<path d="M185577200 186385771
L185577200 185385771
" />
<path d="M185577200 184885771
L185505771 184957200
L185577200 185028628
L185648628 184957200
L185577200 184885771
L185577200 185028628
" />
<path d="M186934342 186314342
L186791485 186385771
L186505771 186385771
L186362914 186314342
L186291485 186242914
L186220057 186100057
L186220057 185671485
L186291485 185528628
L186362914 185457200
L186505771 185385771
L186791485 185385771
L186934342 185457200
" />
<path d="M188220057 186385771
L188220057 185600057
L188148628 185457200
L188005771 185385771
L187720057 185385771
L187577200 185457200
" />
<path d="M188220057 186314342
L188077200 186385771
L187720057 186385771
L187577200 186314342
L187505771 186171485
L187505771 186028628
L187577200 185885771
L187720057 185814342
L188077200 185814342
L188220057 185742914
" />
<path d="M189577200 186385771
L189577200 184885771
" />
<path d="M189577200 186314342
L189434342 186385771
L189148628 186385771
L189005771 186314342
L188934342 186242914
L188862914 186100057
L188862914 185671485
L188934342 185528628
L189005771 185457200
L189148628 185385771
L189434342 185385771
L189577200 185457200
" />
<path d="M190791485 185600057
L191005771 185671485
L191077200 185742914
L191148628 185885771
L191148628 186100057
L191077200 186242914
L191005771 186314342
L190862914 186385771
L190291485 186385771
L190291485 184885771
L190791485 184885771
L190934342 184957200
L191005771 185028628
L191077200 185171485
L191077200 185314342
L191005771 185457200
L190934342 185528628
L190791485 185600057
L190291485 185600057
" />
<path d="M192005771 186385771
L191862914 186314342
L191791485 186242914
L191720057 186100057
L191720057 185671485
L191791485 185528628
L191862914 185457200
L192005771 185385771
L192220057 185385771
L192362914 185457200
L192434342 185528628
L192505771 185671485
L192505771 186100057
L192434342 186242914
L192362914 186314342
L192220057 186385771
L192005771 186385771
" />
<path d="M193791485 186385771
L193791485 185600057
L193720057 185457200
L193577200 185385771
L193291485 185385771
L193148628 185457200
" />
<path d="M193791485 186314342
L193648628 186385771
L193291485 186385771
L193148628 186314342
L193077200 186171485
L193077200 186028628
L193148628 185885771
L193291485 185814342
L193648628 185814342
L193791485 185742914
" />
<path d="M194505771 186385771
L194505771 185385771
" />
<path d="M194505771 185671485
L194577200 185528628
L194648628 185457200
L194791485 185385771
L194934342 185385771
" />
<path d="M196077200 186385771
L196077200 184885771
" />
<path d="M196077200 186314342
L195934342 186385771
L195648628 186385771
L195505771 186314342
L195434342 186242914
L195362914 186100057
L195362914 185671485
L195434342 185528628
L195505771 185457200
L195648628 185385771
L195934342 185385771
L196077200 185457200
" />
<path d="M196791485 186242914
L196862914 186314342
L196791485 186385771
L196720057 186314342
L196791485 186242914
L196791485 186385771
" />
<path d="M197505771 186385771
L197505771 184885771
" />
<path d="M197648628 185814342
L198077200 186385771
" />
<path d="M198077200 185385771
L197505771 185957200
" />
<path d="M198720057 186385771
L198720057 185385771
" />
<path d="M198720057 184885771
L198648628 184957200
L198720057 185028628
L198791485 184957200
L198720057 184885771
L198720057 185028628
" />
<path d="M200077200 186314342
L199934342 186385771
L199648628 186385771
L199505771 186314342
L199434342 186242914
L199362914 186100057
L199362914 185671485
L199434342 185528628
L199505771 185457200
L199648628 185385771
L199934342 185385771
L200077200 185457200
" />
<path d="M201362914 186385771
L201362914 185600057
L201291485 185457200
L201148628 185385771
L200862914 185385771
L200720057 185457200
" />
<path d="M201362914 186314342
L201220057 186385771
L200862914 186385771
L200720057 186314342
L200648628 186171485
L200648628 186028628
L200720057 185885771
L200862914 185814342
L201220057 185814342
L201362914 185742914
" />
<path d="M202720057 186385771
L202720057 184885771
" />
<path d="M202720057 186314342
L202577200 186385771
L202291485 186385771
L202148628 186314342
L202077200 186242914
L202005771 186100057
L202005771 185671485
L202077200 185528628
L202148628 185457200
L202291485 185385771
L202577200 185385771
L202720057 185457200
" />
<path d="M203077200 186528628
L204220057 186528628
" />
<path d="M204577200 185385771
L204577200 186885771
" />
<path d="M204577200 185457200
L204720057 185385771
L205005771 185385771
L205148628 185457200
L205220057 185528628
L205291485 185671485
L205291485 186100057
L205220057 186242914
L205148628 186314342
L205005771 186385771
L204720057 186385771
L204577200 186314342
" />
<path d="M206577200 186314342
L206434342 186385771
L206148628 186385771
L206005771 186314342
L205934342 186242914
L205862914 186100057
L205862914 185671485
L205934342 185528628
L206005771 185457200
L206148628 185385771
L206434342 185385771
L206577200 185457200
" />
<path d="M207220057 186385771
L207220057 184885771
" />
<path d="M207220057 185457200
L207362914 185385771
L207648628 185385771
L207791485 185457200
L207862914 185528628
L207934342 185671485
L207934342 186100057
L207862914 186242914
L207791485 186314342
L207648628 186385771
L207362914 186385771
L207220057 186314342
" />
</g></g>
<g style="fill:#000000; fill-opacity:0.0; 
stroke:#000000; stroke-width:21200.000000; stroke-opacity:1; 
stroke-linecap:round; stroke-linejoin:round;">
</g>
<g style="fill:#000000; fill-opacity:0.0; 
stroke:#000000; stroke-width:150000.000000; stroke-opacity:1; 
stroke-linecap:round; stroke-linejoin:round;">
<path d="M177002200 181507200
L285002200 181507200
" />
</g>
<g style="fill:#000000; fill-opacity:0.0; 
stroke:#000000; stroke-width:21200.000000; stroke-opacity:1; 
stroke-linecap:round; stroke-linejoin:round;">
</g>
<g style="fill:#000000; fill-opacity:0.0; 
stroke:#000000; stroke-width:150000.000000; stroke-opacity:1; 
stroke-linecap:round; stroke-linejoin:round;">
<text x="178002200.000000" y="183757200.000000"
textLength="8221429.000000" font-size="2000000.000000" lengthAdjust="spacingAndGlyphs"
text-anchor="start" opacity="0">Sheet: </text>
<g class="stroked-text"><desc>Sheet: </desc>
<path d="M178362914 183614342
L178577200 183685771
L178934342 183685771
L179077200 183614342
L179148628 183542914
L179220057 183400057
L179220057 183257200
L179148628 183114342
L179077200 183042914
L178934342 182971485
L178648628 182900057
L178505771 182828628
L178434342 182757200
L178362914 182614342
L178362914 182471485
L178434342 182328628
L178505771 182257200
L178648628 182185771
L179005771 182185771
L179220057 182257200
" />
<path d="M179862914 183685771
L179862914 182185771
" />
<path d="M180505771 183685771
L180505771 182900057
L180434342 182757200
L180291485 182685771
L180077200 182685771
L179934342 182757200
L179862914 182828628
" />
<path d="M181791485 183614342
L181648628 183685771
L181362914 183685771
L181220057 183614342
L181148628 183471485
L181148628 182900057
L181220057 182757200
L181362914 182685771
L181648628 182685771
L181791485 182757200
L181862914 182900057
L181862914 183042914
L181148628 183185771
" />
<path d="M183077200 183614342
L182934342 183685771
L182648628 183685771
L182505771 183614342
L182434342 183471485
L182434342 182900057
L182505771 182757200
L182648628 182685771
L182934342 182685771
L183077200 182757200
L183148628 182900057
L183148628 183042914
L182434342 183185771
" />
<path d="M183577200 182685771
L184148628 182685771
" />
<path d="M183791485 182185771
L183791485 183471485
L183862914 183614342
L184005771 183685771
L184148628 183685771
" />
<path d="M184648628 183542914
L184720057 183614342
L184648628 183685771
L184577200 183614342
L184648628 183542914
L184648628 183685771
" />
<path d="M184648628 182757200
L184720057 182828628
L184648628 182900057
L184577200 182828628
L184648628 182757200
L184648628 182900057
" />
</g></g>
<g style="fill:#000000; fill-opacity:0.0; 
stroke:#000000; stroke-width:21200.000000; stroke-opacity:1; 
stroke-linecap:round; stroke-linejoin:round;">
</g>
<g style="fill:#000000; fill-opacity:0.0; 
stroke:#000000; stroke-width:300000.000000; stroke-opacity:1; 
stroke-linecap:round; stroke-linejoin:round;">
<text x="178002200.000000" y="180757200.000000"
textLength="150000.000000" font-size="2000000.000000" lengthAdjust="spacingAndGlyphs"
text-anchor="start" opacity="0"></text>
<g class="stroked-text"><desc></desc>
</g></g>
<g style="fill:#000000; fill-opacity:0.0; 
stroke:#000000; stroke-width:21200.000000; stroke-opacity:1; 
stroke-linecap:round; stroke-linejoin:round;">
</g>
<g style="fill:#000000; fill-opacity:0.0; 
stroke:#000000; stroke-width:150000.000000; stroke-opacity:1; 
stroke-linecap:round; stroke-linejoin:round;">
<text x="178002200.000000" y="177757200.000000"
textLength="300000.000000" font-size="2000000.000000" lengthAdjust="spacingAndGlyphs"
text-anchor="start" opacity="0"></text>
<g class="stroked-text"><desc></desc>
</g></g>
<g style="fill:#000000; fill-opacity:0.0; 
stroke:#000000; stroke-width:21200.000000; stroke-opacity:1; 
stroke-linecap:round; stroke-linejoin:round;">
</g>
<g style="fill:#000000; fill-opacity:0.0; 
stroke:#000000; stroke-width:150000.000000; stroke-opacity:1; 
stroke-linecap:round; stroke-linejoin:round;">
<text x="178002200.000000" y="174757200.000000"
textLength="150000.000000" font-size="2000000.000000" lengthAdjust="spacingAndGlyphs"
text-anchor="start" opacity="0"></text>
<g class="stroked-text"><desc></desc>
</g></g>
<g style="fill:#000000; fill-opacity:0.0; 
stroke:#000000; stroke-width:21200.000000; stroke-opacity:1; 
stroke-linecap:round; stroke-linejoin:round;">
</g>
<g style="fill:#000000; fill-opacity:0.0; 
stroke:#000000; stroke-width:150000.000000; stroke-opacity:1; 
stroke-linecap:round; stroke-linejoin:round;">
<text x="178002200.000000" y="171757200.000000"
textLength="150000.000000" font-size="2000000.000000" lengthAdjust="spacingAndGlyphs"
text-anchor="start" opacity="0"></text>
<g class="stroked-text"><desc></desc>
</g></g>
<g style="fill:#000000; fill-opacity:0.0; 
stroke:#000000; stroke-width:21200.000000; stroke-opacity:1; 
stroke-linecap:round; stroke-linejoin:round;">
</g>
<g style="fill:#000000; fill-opacity:0.0; 
stroke:#000000; stroke-width:150000.000000; stroke-opacity:1; 
stroke-linecap:round; stroke-linejoin:round;">
<text x="178002200.000000" y="168757200.000000"
textLength="150000.000000" font-size="2000000.000000" lengthAdjust="spacingAndGlyphs"
text-anchor="start" opacity="0"></text>
<g class="stroked-text"><desc></desc>
</g></g>
<g style="fill:#000000; fill-opacity:0.0; 
stroke:#000000; stroke-width:21200.000000; stroke-opacity:1; 
stroke-linecap:round; stroke-linejoin:round;">
</g>
<g style="fill:#000000; fill-opacity:0.0; 
stroke:#000000; stroke-width:150000.000000; stroke-opacity:1; 
stroke-linecap:round; stroke-linejoin:round;">
<path d="M197002200 191507200
L197002200 194507200
" />
</g>
<g style="fill:#000000; fill-opacity:0.0; 
stroke:#000000; stroke-width:21200.000000; stroke-opacity:1; 
stroke-linecap:round; stroke-linejoin:round;">
</g>
<g style="fill:#000000; fill-opacity:0.0; 
stroke:#000000; stroke-width:150000.000000; stroke-opacity:1; 
stroke-linecap:round; stroke-linejoin:round;">
<path d="M261002200 191507200
L261002200 198007200
" />
</g>
<g style="fill:#E8B2A7; fill-opacity:0.0; 
stroke:#E8B2A7; stroke-width:150000.000000; stroke-opacity:1; 
stroke-linecap:round; stroke-linejoin:round;">
</g>
<g style="fill:#E8B2A7; fill-opacity:0.0; 
stroke:#E8B2A7; stroke-width:254000.000000; stroke-opacity:1; 
stroke-linecap:round; stroke-linejoin:round;">
<circle cx="148183600.000000" cy="105746550.000000" r="533400.000000" /> 
<path d="M148180425 103041450
L148434425 103295450
" />
<path d="M150964900 105737025
L149059900 105737025
" />
<path d="M148459825 103320850
L147901025 103320850
" />
<path d="M148180425 103041450
L147926425 103295450
" />
</g>
<g style="fill:#E8B2A7; fill-opacity:0.0; 
stroke:#E8B2A7; stroke-width:100000.000000; stroke-opacity:1; 
stroke-linecap:round; stroke-linejoin:round;">
<circle cx="148196300.000000" cy="105740200.000000" r="240962.000000" /> 
</g>
<g style="fill:#E8B2A7; fill-opacity:0.0; 
stroke:#E8B2A7; stroke-width:254000.000000; stroke-opacity:1; 
stroke-linecap:round; stroke-linejoin:round;">
<path d="M150964900 105737025
L150710900 105483025
" />
<path d="M150710900 105483025
L150710900 105991025
" />
<path d="M148180425 103041450
L148180425 104819450
" />
<path d="M150964900 105737025
L150710900 105991025
" />
</g>
<g style="fill:#E8B2A7; fill-opacity:0.0; 
stroke:#E8B2A7; stroke-width:97536.000000; stroke-opacity:1; 
stroke-linecap:round; stroke-linejoin:round;">
<g transform="rotate(-90.000000 150050500.000000 108153200.000000)">
<text x="150050500.000000" y="108409232.000000"
transform="scale(-1 1) translate(-300101000.000000 0)"
textLength="1727568.000000" font-size="682752.000000" lengthAdjust="spacingAndGlyphs"
text-anchor="end" opacity="0">LED0</text>
</g>
<g class="stroked-text"><desc>LED0</desc>
<path d="M150282148 106577993
L150282148 106334153
L149770084 106334153
" />
<path d="M150013924 106748681
L150013924 106919369
" />
<path d="M150282148 106992521
L150282148 106748681
L149770084 106748681
L149770084 106992521
" />
<path d="M150282148 107211977
L149770084 107211977
L149770084 107333897
L149794468 107407049
L149843236 107455817
L149892004 107480201
L149989540 107504585
L150062692 107504585
L150160228 107480201
L150208996 107455817
L150257764 107407049
L150282148 107333897
L150282148 107211977
" />
<path d="M149770084 107821577
L149770084 107870345
L149794468 107919113
L149818852 107943497
L149867620 107967881
L149965156 107992265
L150087076 107992265
L150184612 107967881
L150233380 107943497
L150257764 107919113
L150282148 107870345
L150282148 107821577
L150257764 107772809
L150233380 107748425
L150184612 107724041
L150087076 107699657
L149965156 107699657
L149867620 107724041
L149818852 107748425
L149794468 107772809
L149770084 107821577
" />
</g></g>
<g style="fill:#E8B2A7; fill-opacity:0.0; 
stroke:#E8B2A7; stroke-width:39014.000000; stroke-opacity:1; 
stroke-linecap:round; stroke-linejoin:round;">
<text x="149720300.000000" y="109918043.000000"
transform="scale(-1 1) translate(-299440600.000000 0)"
textLength="2147497.000000" font-size="489848.000000" lengthAdjust="spacingAndGlyphs"
text-anchor="start" opacity="0">I2C_PU0</text>
<g class="stroked-text"><desc>I2C_PU0</desc>
<path d="M149607468 109900548
L149607468 109533162
" />
<path d="M149450016 109568151
L149432522 109550657
L149397533 109533162
L149310060 109533162
L149275071 109550657
L149257576 109568151
L149240082 109603140
L149240082 109638129
L149257576 109690613
L149467511 109900548
L149240082 109900548
" />
<path d="M148872696 109865559
L148890190 109883053
L148942674 109900548
L148977663 109900548
L149030147 109883053
L149065136 109848064
L149082630 109813075
L149100125 109743097
L149100125 109690613
L149082630 109620635
L149065136 109585646
L149030147 109550657
L148977663 109533162
L148942674 109533162
L148890190 109550657
L148872696 109568151
" />
<path d="M148802717 109935537
L148522804 109935537
" />
<path d="M148435331 109900548
L148435331 109533162
L148295375 109533162
L148260386 109550657
L148242891 109568151
L148225396 109603140
L148225396 109655624
L148242891 109690613
L148260386 109708108
L148295375 109725602
L148435331 109725602
" />
<path d="M148067945 109533162
L148067945 109830570
L148050451 109865559
L148032956 109883053
L147997967 109900548
L147927989 109900548
L147893000 109883053
L147875505 109865559
L147858010 109830570
L147858010 109533162
" />
<path d="M147613086 109533162
L147578097 109533162
L147543108 109550657
L147525614 109568151
L147508119 109603140
L147490624 109673119
L147490624 109760591
L147508119 109830570
L147525614 109865559
L147543108 109883053
L147578097 109900548
L147613086 109900548
L147648076 109883053
L147665570 109865559
L147683065 109830570
L147700559 109760591
L147700559 109673119
L147683065 109603140
L147665570 109568151
L147648076 109550657
L147613086 109533162
" />
</g></g>
<g style="fill:#E8B2A7; fill-opacity:0.0; 
stroke:#E8B2A7; stroke-width:203200.000000; stroke-opacity:1; 
stroke-linecap:round; stroke-linejoin:round;">
<path d="M152209500 108915200
L152209500 107391200
" />
<path d="M151752300 109372400
L150634700 109372400
" />
<path d="M151752300 106934000
L150634700 106934000
" />
<path d="M150177500 107391200
L150177500 108915200
" />
<path d="M150634700.000000 106934000.000001 A457201.000000 457201.000000 0.0 0 0 150177500.000001 107391200.000000" />
<path d="M152209499.999999 107391200.000000 A457201.000000 457201.000000 0.0 0 0 151752300.000000 106934000.000001" />
<path d="M150177500.000000 108915200.000000 A457200.000000 457200.000000 0.0 0 0 150634700.000000 109372400.000000" />
<path d="M151752300.000000 109372400.000000 A457200.000000 457200.000000 0.0 0 0 152209500.000000 108915200.000000" />
</g>
<g style="fill:#E8B2A7; fill-opacity:1.0; 
stroke:#E8B2A7; stroke-width:1.000000; stroke-opacity:1; 
stroke-linecap:round; stroke-linejoin:round;">
<path style="fill:#E8B2A7; fill-opacity:1.0; 
stroke:#E8B2A7; stroke-width:1.000000; stroke-opacity:1; 
stroke-linecap:round; stroke-linejoin:round;fill-rule:evenodd;"
d="M 150116801.000000,105957030.000000
150178706.000000,106018935.000000
150189339.000000,106072102.000000
150158257.000000,106134267.000000
149927890.000000,106384665.000000
149890685.000000,106431172.000000
150117863.000000,106678105.000000
150168545.000000,106738924.000000
150189423.000000,106801556.000000
150168273.000000,106854431.000000
150106576.000000,106905845.000000
150043944.000000,106926723.000000
149991069.000000,106905573.000000
149940259.000000,106844601.000000
149760436.000000,106634808.000000
149724352.000000,106598724.000000
149456975.000000,106905712.000000
149393944.000000,106926723.000000
149341290.000000,106905661.000000
149279839.000000,106844210.000000
149258624.000000,106791172.000000
149289991.000000,106728438.000000
149340500.000000,106677928.000000
149567283.000000,106431424.000000
149289951.000000,106134283.000000
149258702.000000,106071784.000000
149279806.000000,106008469.000000
149341508.000000,105957052.000000
149393944.000000,105936077.000000
149457031.000000,105957106.000000
149507884.000000,106018130.000000
149687914.000000,106218163.000000
149724208.000000,106263532.000000
149940564.000000,106007838.000000
150001508.000000,105957052.000000
150053944.000000,105936077.000000
Z" /> 
<path style="fill:#E8B2A7; fill-opacity:1.0; 
stroke:#E8B2A7; stroke-width:1.000000; stroke-opacity:1; 
stroke-linecap:round; stroke-linejoin:round;fill-rule:evenodd;"
d="M 151196354.000000,101433636.000000
151287254.000000,101544736.000000
151396618.000000,101693869.000000
151431804.000000,101711462.000000
151609300.000000,101474800.000000
151640141.000000,101433678.000000
151692337.000000,101412800.000000
151754480.000000,101412800.000000
151797723.000000,101434421.000000
151808300.000000,101487305.000000
151808300.000000,102099871.000000
151775657.000000,102132514.000000
151702684.000000,102142939.000000
151649678.000000,102121736.000000
151628300.000000,102078980.000000
151628300.000000,101739872.000000
151627114.000000,101741058.000000
151496908.000000,101921344.000000
151454967.000000,101952800.000000
151401915.000000,101952800.000000
151349814.000000,101921540.000000
151218300.000000,101733661.000000
151218300.000000,102028295.000000
151208072.000000,102079437.000000
151186744.000000,102122093.000000
151143916.000000,102132800.000000
151081786.000000,102132800.000000
151049234.000000,102111099.000000
151028300.000000,102058763.000000
151028300.000000,101487184.000000
151038785.000000,101445244.000000
151071229.000000,101412800.000000
151144263.000000,101412800.000000
Z" /> 
<path style="fill:#E8B2A7; fill-opacity:1.0; 
stroke:#E8B2A7; stroke-width:1.000000; stroke-opacity:1; 
stroke-linecap:round; stroke-linejoin:round;fill-rule:evenodd;"
d="M 145335393.000000,101413120.000000
145377244.000000,101444508.000000
145397781.000000,101485582.000000
145648076.000000,101996182.000000
145658423.000000,102047922.000000
145647593.000000,102091244.000000
145585536.000000,102122272.000000
145542772.000000,102143654.000000
145499356.000000,102111092.000000
145430210.000000,101972800.000000
145175801.000000,101972800.000000
145147640.000000,102010347.000000
145107341.000000,102101019.000000
145064967.000000,102132800.000000
145022120.000000,102132800.000000
144959573.000000,102101527.000000
144938001.000000,102058382.000000
144948574.000000,102016090.000000
145218947.000000,101455316.000000
145239876.000000,101423922.000000
145282598.000000,101402561.000000
Z" /> 
<path style="fill:#E8B2A7; fill-opacity:1.0; 
stroke:#E8B2A7; stroke-width:1.000000; stroke-opacity:1; 
stroke-linecap:round; stroke-linejoin:round;fill-rule:evenodd;"
d="M 148414397.000000,101412920.000000
148455492.000000,101423194.000000
148496584.000000,101454013.000000
148537087.000000,101494516.000000
148567980.000000,101535707.000000
148578203.000000,101586819.000000
148588399.000000,101637800.000000
148578113.000000,101689231.000000
148557697.000000,101740271.000000
148526871.000000,101781371.000000
148485771.000000,101812197.000000
148434731.000000,101832613.000000
148384281.000000,101842703.000000
148332823.000000,101852994.000000
148290523.000000,101836074.000000
148297906.000000,101865609.000000
148326871.000000,101904229.000000
148365772.000000,101933404.000000
148414262.000000,101952800.000000
148463714.000000,101952800.000000
148525181.000000,101963044.000000
148557797.000000,101984789.000000
148568300.000000,102037305.000000
148568300.000000,102099871.000000
148535765.000000,102132406.000000
148483382.000000,102142883.000000
148422398.000000,102132719.000000
148372319.000000,102122703.000000
148321663.000000,102112572.000000
148280661.000000,102092071.000000
148240300.000000,102061800.000000
148199729.000000,102031371.000000
148169300.000000,101990800.000000
148138903.000000,101950271.000000
148118736.000000,101899852.000000
148098528.000000,101859437.000000
148088397.000000,101808781.000000
148078300.000000,101758295.000000
148078300.000000,101647305.000000
148088487.000000,101596369.000000
148108735.000000,101545750.000000
148129191.000000,101504838.000000
148169764.000000,101464264.000000
148200490.000000,101433539.000000
148251869.000000,101412987.000000
148302805.000000,101402800.000000
148363795.000000,101402800.000000
Z" /> 
<path style="fill:#E8B2A7; fill-opacity:1.0; 
stroke:#E8B2A7; stroke-width:1.000000; stroke-opacity:1; 
stroke-linecap:round; stroke-linejoin:round;fill-rule:evenodd;"
d="M 147074731.000000,101402987.000000
147125771.000000,101423403.000000
147166584.000000,101454013.000000
147207409.000000,101494838.000000
147228018.000000,101536055.000000
147238543.000000,101578156.000000
147217317.000000,101631221.000000
147164685.000000,101662800.000000
147111229.000000,101662800.000000
147079513.000000,101631084.000000
147050141.000000,101591921.000000
147002338.000000,101572800.000000
146954967.000000,101572800.000000
146918300.000000,101600300.000000
146918300.000000,101634710.000000
146954863.000000,101652992.000000
147014319.000000,101662901.000000
147057582.000000,101673717.000000
147068300.000000,101727305.000000
147068300.000000,101799871.000000
147035856.000000,101832315.000000
146993916.000000,101842800.000000
146934967.000000,101842800.000000
146898300.000000,101870300.000000
146898300.000000,101916133.000000
146926154.000000,101953272.000000
146973382.000000,101962717.000000
147031737.000000,101952992.000000
147069364.000000,101934178.000000
147089039.000000,101884990.000000
147121229.000000,101852800.000000
147183714.000000,101852800.000000
147246259.000000,101863224.000000
147268609.000000,101896750.000000
147258203.000000,101948781.000000
147247980.000000,101999893.000000
147217087.000000,102041084.000000
147176262.000000,102081909.000000
147135536.000000,102102272.000000
147094937.000000,102122572.000000
147044202.000000,102132719.000000
146983218.000000,102142883.000000
146932319.000000,102132703.000000
146881663.000000,102122572.000000
146840661.000000,102102071.000000
146800016.000000,102071587.000000
146759513.000000,102031084.000000
146728694.000000,101989992.000000
146718401.000000,101948819.000000
146708217.000000,101887718.000000
146718620.000000,101835707.000000
146749513.000000,101794516.000000
146788300.000000,101755728.000000
146788300.000000,101730300.000000
146749356.000000,101701092.000000
146728300.000000,101658980.000000
146728300.000000,101597184.000000
146738532.000000,101556258.000000
146759039.000000,101504990.000000
146799764.000000,101464264.000000
146871229.000000,101392800.000000
147023795.000000,101392800.000000
Z" /> 
<path style="fill:#E8B2A7; fill-opacity:1.0; 
stroke:#E8B2A7; stroke-width:1.000000; stroke-opacity:1; 
stroke-linecap:round; stroke-linejoin:round;fill-rule:evenodd;"
d="M 149653796.000000,101402800.000000
149694263.000000,101402800.000000
149745157.000000,101423158.000000
149795771.000000,101443403.000000
149836300.000000,101473800.000000
149876584.000000,101504013.000000
149917409.000000,101544838.000000
149937865.000000,101585750.000000
149957864.000000,101635748.000000
149978072.000000,101676163.000000
149988300.000000,101727305.000000
149988300.000000,101788295.000000
149978203.000000,101838781.000000
149968072.000000,101889437.000000
149947686.000000,101930208.000000
149917455.000000,101980594.000000
149886871.000000,102021371.000000
149846300.000000,102051800.000000
149805939.000000,102082071.000000
149765350.000000,102102365.000000
149714731.000000,102122613.000000
149664281.000000,102132703.000000
149613300.000000,102142899.000000
149562319.000000,102132703.000000
149511869.000000,102122613.000000
149461250.000000,102102365.000000
149420661.000000,102082071.000000
149378772.000000,102050654.000000
149368106.000000,101997323.000000
149389039.000000,101944990.000000
149431229.000000,101902800.000000
149464685.000000,101902800.000000
149515527.000000,101933306.000000
149564262.000000,101952800.000000
149662120.000000,101952800.000000
149700898.000000,101933411.000000
149749887.000000,101904018.000000
149778904.000000,101865328.000000
149798300.000000,101816838.000000
149798300.000000,101718762.000000
149778904.000000,101670272.000000
149749729.000000,101631371.000000
149710828.000000,101602196.000000
149662338.000000,101582800.000000
149564480.000000,101582800.000000
149525702.000000,101602189.000000
149474685.000000,101632800.000000
149431229.000000,101632800.000000
149389329.000000,101590900.000000
149357947.000000,101538597.000000
149368880.000000,101494865.000000
149410300.000000,101463800.000000
149450661.000000,101433529.000000
149491736.000000,101412992.000000
149552394.000000,101402882.000000
149603300.000000,101392701.000000
Z" /> 
<path style="fill:#E8B2A7; fill-opacity:1.0; 
stroke:#E8B2A7; stroke-width:1.000000; stroke-opacity:1; 
stroke-linecap:round; stroke-linejoin:round;fill-rule:evenodd;"
d="M 147775708.000000,101403414.000000
147826094.000000,101433645.000000
147867244.000000,101464508.000000
147887865.000000,101505750.000000
147908113.000000,101556369.000000
147918399.000000,101607800.000000
147908113.000000,101659231.000000
147887561.000000,101710610.000000
147860371.000000,101737800.000000
147887271.000000,101764700.000000
147917794.000000,101815571.000000
147938300.000000,101866837.000000
147938300.000000,101918295.000000
147928113.000000,101969231.000000
147907561.000000,102020610.000000
147866584.000000,102061587.000000
147825939.000000,102092071.000000
147785350.000000,102112365.000000
147734731.000000,102132613.000000
147683300.000000,102142899.000000
147632319.000000,102132703.000000
147581663.000000,102122572.000000
147540892.000000,102102186.000000
147489888.000000,102071584.000000
147459300.000000,102030800.000000
147428620.000000,101989893.000000
147418397.000000,101938781.000000
147408300.000000,101888295.000000
147408300.000000,101856620.000000
147428914.000000,101815392.000000
147459329.000000,101764700.000000
147486698.000000,101737331.000000
147458903.000000,101700271.000000
147438487.000000,101649231.000000
147428201.000000,101597800.000000
147438487.000000,101546369.000000
147458903.000000,101495329.000000
147489729.000000,101454229.000000
147530661.000000,101423529.000000
147571250.000000,101403235.000000
147622337.000000,101382800.000000
147734480.000000,101382800.000000
Z" /> 
<path style="fill:#E8B2A7; fill-opacity:1.0; 
stroke:#E8B2A7; stroke-width:1.000000; stroke-opacity:1; 
stroke-linecap:round; stroke-linejoin:round;fill-rule:evenodd;"
d="M 145936371.000000,101433746.000000
146037177.000000,101544631.000000
146146618.000000,101693869.000000
146181804.000000,101711462.000000
146359300.000000,101474800.000000
146390141.000000,101433678.000000
146442337.000000,101412800.000000
146504480.000000,101412800.000000
146547723.000000,101434421.000000
146558300.000000,101487305.000000
146558300.000000,102048295.000000
146547906.000000,102100265.000000
146515703.000000,102132469.000000
146452742.000000,102142962.000000
146399678.000000,102121736.000000
146378300.000000,102078980.000000
146378300.000000,101739872.000000
146377054.000000,101741118.000000
146237056.000000,101921115.000000
146205371.000000,101952800.000000
146141633.000000,101952800.000000
146099729.000000,101921371.000000
145958300.000000,101732800.000000
145958300.000000,102078980.000000
145936744.000000,102122093.000000
145893916.000000,102132800.000000
145832120.000000,102132800.000000
145788877.000000,102111179.000000
145778300.000000,102058295.000000
145778300.000000,101487184.000000
145788785.000000,101445244.000000
145821229.000000,101412800.000000
145894480.000000,101412800.000000
Z" /> 
<path style="fill:#E8B2A7; fill-opacity:1.0; 
stroke:#E8B2A7; stroke-width:1.000000; stroke-opacity:1; 
stroke-linecap:round; stroke-linejoin:round;fill-rule:evenodd;"
d="M 149136459.000000,101413678.000000
149167787.000000,101455449.000000
149178190.000000,101486658.000000
149218413.000000,101778273.000000
149207550.000000,101810863.000000
149165771.000000,101842197.000000
149113777.000000,101862994.000000
149061663.000000,101852572.000000
149021664.000000,101832572.000000
148974511.000000,101823141.000000
148937828.000000,101850654.000000
148928539.000000,101897099.000000
148947027.000000,101934073.000000
148984480.000000,101952800.000000
149041228.000000,101952800.000000
149080744.000000,101913285.000000
149123300.000000,101902646.000000
149165856.000000,101913285.000000
149217815.000000,101965244.000000
149228599.000000,102008382.000000
149207409.000000,102050762.000000
149166110.000000,102092061.000000
149115157.000000,102112442.000000
149064263.000000,102132800.000000
148962805.000000,102132800.000000
148911869.000000,102122613.000000
148860829.000000,102102197.000000
148819729.000000,102071371.000000
148789300.000000,102030800.000000
148758620.000000,101989893.000000
148748397.000000,101938781.000000
148738201.000000,101887800.000000
148748397.000000,101836819.000000
148758620.000000,101785707.000000
148789300.000000,101744800.000000
148819888.000000,101704016.000000
148870892.000000,101673414.000000
148911663.000000,101653028.000000
148962805.000000,101642800.000000
149008300.000000,101642800.000000
149008300.000000,101591403.000000
148982490.000000,101582800.000000
148822120.000000,101582800.000000
148779573.000000,101561527.000000
148758300.000000,101518980.000000
148758300.000000,101456620.000000
148779573.000000,101414073.000000
148822120.000000,101392800.000000
149084263.000000,101392800.000000
Z" /> 
<path style="fill:#E8B2A7; fill-opacity:1.0; 
stroke:#E8B2A7; stroke-width:1.000000; stroke-opacity:1; 
stroke-linecap:round; stroke-linejoin:round;fill-rule:evenodd;"
d="M 150276354.000000,101433636.000000
150367254.000000,101544736.000000
150476618.000000,101693869.000000
150511804.000000,101711462.000000
150689300.000000,101474800.000000
150720141.000000,101433678.000000
150772337.000000,101412800.000000
150834480.000000,101412800.000000
150877723.000000,101434421.000000
150888300.000000,101487305.000000
150888300.000000,102099871.000000
150855657.000000,102132514.000000
150782684.000000,102142939.000000
150729678.000000,102121736.000000
150708300.000000,102078980.000000
150708300.000000,101739872.000000
150707114.000000,101741058.000000
150576908.000000,101921344.000000
150534967.000000,101952800.000000
150481915.000000,101952800.000000
150429814.000000,101921540.000000
150298300.000000,101733661.000000
150298300.000000,102028295.000000
150288072.000000,102079437.000000
150266744.000000,102122093.000000
150223916.000000,102132800.000000
150161786.000000,102132800.000000
150129234.000000,102111099.000000
150108300.000000,102058763.000000
150108300.000000,101487184.000000
150118785.000000,101445244.000000
150151229.000000,101412800.000000
150224263.000000,101412800.000000
Z" /> 
<path style="fill:#E8B2A7; fill-opacity:1.0; 
stroke:#E8B2A7; stroke-width:1.000000; stroke-opacity:1; 
stroke-linecap:round; stroke-linejoin:round;fill-rule:evenodd;"
d="M 151112610.000000,96970765.000000
151173810.000000,97001365.000000
151224657.000000,97042043.000000
151265335.000000,97092890.000000
151296100.000000,97154420.000000
151296100.000000,97297267.000000
151263600.000000,97340600.000000
150860686.000000,97340600.000000
150796100.000000,97329836.000000
150796100.000000,97124420.000000
150806991.000000,97102638.000000
150857564.000000,97052064.000000
150908138.000000,97001491.000000
150969590.000000,96970765.000000
151041100.000000,96960549.000000
Z" /> 
<path style="fill:#E8B2A7; fill-opacity:1.0; 
stroke:#E8B2A7; stroke-width:1.000000; stroke-opacity:1; 
stroke-linecap:round; stroke-linejoin:round;fill-rule:evenodd;"
d="M 151726100.000000,96315186.000000
151726100.000000,100040600.000000
150366864.000000,100040600.000000
150356100.000000,99976014.000000
150356100.000000,96250600.000000
151715336.000000,96250600.000000
Z" /> 
<path style="fill:#E8B2A7; fill-opacity:1.0; 
stroke:#E8B2A7; stroke-width:1.000000; stroke-opacity:1; 
stroke-linecap:round; stroke-linejoin:round;fill-rule:evenodd;"
d="M 146171170.000000,107432240.000000
146220960.000000,107450534.000000
146264318.000000,107481664.000000
146295647.000000,107526183.000000
146306657.000000,107579778.000000
146300170.000000,107633061.000000
146278201.000000,107681463.000000
146241267.000000,107720104.000000
146193714.000000,107746645.000000
146140319.000000,107754861.000000
146087522.000000,107754284.000000
146034636.000000,107744793.000000
145987073.000000,107718240.000000
145951133.000000,107678313.000000
145930706.000000,107629220.000000
145925828.000000,107576031.000000
145937042.000000,107522470.000000
145970077.000000,107478699.000000
146014444.000000,107448778.000000
146064585.000000,107431672.000000
146117854.000000,107424116.000000
Z" /> 
<path style="fill:#E8B2A7; fill-opacity:1.0; 
stroke:#E8B2A7; stroke-width:1.000000; stroke-opacity:1; 
stroke-linecap:round; stroke-linejoin:round;fill-rule:evenodd;"
d="M 146223598.000000,104282612.000000
146276221.000000,104291783.000000
146378375.000000,104323496.000000
146472540.000000,104374062.000000
146516256.000000,104404658.000000
146557421.000000,104438623.000000
146597016.000000,104474459.000000
146665104.000000,104556981.000000
146717018.000000,104650294.000000
146737525.000000,104699614.000000
146767954.000000,104801945.000000
146778636.000000,104907951.000000
146780578.000000,104927216.000000
146780578.000000,107629401.000000
146770056.000000,107735448.000000
146759527.000000,107787772.000000
146727032.000000,107889521.000000
146675996.000000,107983547.000000
146644304.000000,108026504.000000
146610340.000000,108067673.000000
146573567.000000,108106337.000000
146490959.000000,108174219.000000
146396954.000000,108225244.000000
146347175.000000,108244472.000000
146296227.000000,108260289.000000
146244495.000000,108273560.000000
146138118.000000,108284285.000000
146084775.000000,108281386.000000
146031742.000000,108276036.000000
145979022.000000,108267608.000000
145876846.000000,108235890.000000
145782434.000000,108186015.000000
145738256.000000,108155971.000000
145657069.000000,108086746.000000
145588935.000000,108004166.000000
145536446.000000,107911288.000000
145515265.000000,107862254.000000
145484091.000000,107760035.000000
145473386.000000,107653824.000000
145471091.000000,107600649.000000
145471091.000000,107425268.000000
145518955.000000,107423881.000000
145851567.000000,107423881.000000
145811791.000000,107466180.000000
145780239.000000,107507301.000000
145758074.000000,107553828.000000
145746070.000000,107604076.000000
145742627.000000,107655767.000000
145747520.000000,107707576.000000
145759225.000000,107758100.000000
145777742.000000,107806458.000000
145803421.000000,107851398.000000
145837996.000000,107889955.000000
145878317.000000,107922435.000000
145922907.000000,107948915.000000
145970557.000000,107969664.000000
146021142.000000,107982140.000000
146072893.000000,107989376.000000
146125034.000000,107993004.000000
146177119.000000,107989001.000000
146228672.000000,107980705.000000
146279047.000000,107967541.000000
146326300.000000,107945943.000000
146369797.000000,107917789.000000
146408500.000000,107883529.000000
146441244.000000,107843520.000000
146466440.000000,107798282.000000
146482280.000000,107748951.000000
146491150.000000,107697777.000000
146494431.000000,107645901.000000
146488828.000000,107594430.000000
146473976.000000,107544940.000000
146450254.000000,107499124.000000
146417221.000000,107458532.000000
146390952.000000,107423881.000000
146464174.000000,107423881.000000
146486725.000000,107422809.000000
146486725.000000,107192963.000000
146455369.000000,107193533.000000
146455426.000000,107192610.000000
145496293.000000,107190625.000000
145471096.000000,107189373.000000
145471300.000000,104925193.000000
145481997.000000,104819116.000000
145493259.000000,104766921.000000
145526416.000000,104665497.000000
145577491.000000,104571399.000000
145643667.000000,104487779.000000
145681003.000000,104449556.000000
145763978.000000,104382292.000000
145858004.000000,104331260.000000
145908067.000000,104312702.000000
145959015.000000,104296888.000000
146010897.000000,104284348.000000
146117324.000000,104273617.000000
Z" /> 
<path style="fill:#E8B2A7; fill-opacity:1.0; 
stroke:#E8B2A7; stroke-width:1.000000; stroke-opacity:1; 
stroke-linecap:round; stroke-linejoin:round;fill-rule:evenodd;"
d="M 148513813.000000,106658467.000000
148524300.000000,106721386.000000
148524300.000000,106813871.000000
148481371.000000,106856800.000000
148141976.000000,106856800.000000
148125385.000000,106881687.000000
148514075.000000,107419872.000000
148524471.000000,107492639.000000
148493121.000000,107555338.000000
148440685.000000,107586800.000000
147817915.000000,107586800.000000
147765141.000000,107555136.000000
147744183.000000,107492261.000000
147754543.000000,107419742.000000
147796633.000000,107367130.000000
147868945.000000,107356800.000000
148138683.000000,107356800.000000
148170923.000000,107348740.000000
147784733.000000,106814017.000000
147764067.000000,106741686.000000
147785099.000000,106678591.000000
147847419.000000,106637044.000000
147908886.000000,106626800.000000
148450480.000000,106626800.000000
Z" /> 
<path style="fill:#E8B2A7; fill-opacity:1.0; 
stroke:#E8B2A7; stroke-width:1.000000; stroke-opacity:1; 
stroke-linecap:round; stroke-linejoin:round;fill-rule:evenodd;"
d="M 146646100.000000,99980985.000000
146613931.000000,100034600.000000
145329715.000000,100034600.000000
145276100.000000,100002431.000000
145276100.000000,96478420.000000
145298879.000000,96432862.000000
145913033.000000,96744974.000000
145970698.000000,96764196.000000
146578849.000000,96455135.000000
146646100.000000,96421510.000000
Z" /> 
<path style="fill:#E8B2A7; fill-opacity:1.0; 
stroke:#E8B2A7; stroke-width:1.000000; stroke-opacity:1; 
stroke-linecap:round; stroke-linejoin:round;fill-rule:evenodd;"
d="M 151853100.000000,109346215.000000
151853100.000000,112530014.000000
151843043.000000,112590356.000000
151833050.000000,112660307.000000
151822986.000000,112730753.000000
151802731.000000,112791518.000000
151772433.000000,112852114.000000
151732140.000000,112912554.000000
151692004.000000,112962723.000000
151651689.000000,113013118.000000
151591263.000000,113063473.000000
151540810.000000,113103835.000000
151420018.000000,113164231.000000
151359578.000000,113184378.000000
151288800.000000,113204600.000000
151218514.000000,113204600.000000
151158159.000000,113214659.000000
151087393.000000,113204550.000000
151016947.000000,113194486.000000
150956642.000000,113174384.000000
150886280.000000,113154280.000000
150825390.000000,113123835.000000
150775152.000000,113083644.000000
150714915.000000,113043486.000000
150664369.000000,112992940.000000
150624060.000000,112942554.000000
150583767.000000,112882114.000000
150523469.000000,112761518.000000
150503214.000000,112700753.000000
150493150.000000,112630307.000000
150483100.000000,112559955.000000
150483100.000000,109378637.000000
150504715.000000,109324600.000000
151799063.000000,109324600.000000
Z" /> 
<path style="fill:#E8B2A7; fill-opacity:1.0; 
stroke:#E8B2A7; stroke-width:1.000000; stroke-opacity:1; 
stroke-linecap:round; stroke-linejoin:round;fill-rule:evenodd;"
d="M 151239253.000000,110054714.000000
151300527.000000,110075139.000000
151351830.000000,110116181.000000
151392433.000000,110177086.000000
151423100.000000,110238420.000000
151423100.000000,110381267.000000
151390600.000000,110424600.000000
150987686.000000,110424600.000000
150923100.000000,110413836.000000
150923100.000000,110198420.000000
150933991.000000,110176638.000000
150984760.000000,110125869.000000
151035390.000000,110085365.000000
151096590.000000,110054765.000000
151168100.000000,110044549.000000
Z" /> 
<path style="fill:#E8B2A7; fill-opacity:1.0; 
stroke:#E8B2A7; stroke-width:1.000000; stroke-opacity:1; 
stroke-linecap:round; stroke-linejoin:round;fill-rule:evenodd;"
d="M 149812201.000000,108646715.000000
149882474.000000,108666792.000000
149952920.000000,108686920.000000
150073810.000000,108747365.000000
150124223.000000,108787696.000000
150174440.000000,108827869.000000
150224986.000000,108878415.000000
150265433.000000,108939086.000000
150355935.000000,109120090.000000
150366043.000000,109190844.000000
150376042.000000,109250835.000000
150386151.000000,109321600.000000
150376042.000000,109392365.000000
150366043.000000,109452356.000000
150355935.000000,109523110.000000
150265433.000000,109704114.000000
150224986.000000,109764785.000000
150174440.000000,109815331.000000
150124223.000000,109855504.000000
150073810.000000,109895835.000000
150013205.000000,109926138.000000
149942878.000000,109956278.000000
149882578.000000,109976378.000000
149812201.000000,109996485.000000
149751514.000000,110006600.000000
147310745.000000,110006600.000000
147240743.000000,109996600.000000
147180400.000000,109996600.000000
147109622.000000,109976378.000000
147049322.000000,109956278.000000
146978507.000000,109925928.000000
146928152.000000,109885644.000000
146868146.000000,109845640.000000
146817543.000000,109805157.000000
146777060.000000,109754554.000000
146737056.000000,109694548.000000
146696772.000000,109644193.000000
146666422.000000,109573378.000000
146646233.000000,109512809.000000
146636158.000000,109452365.000000
146626150.000000,109382307.000000
146616049.000000,109311600.000000
146626158.000000,109240835.000000
146636215.000000,109180499.000000
146656322.000000,109110122.000000
146676469.000000,109049682.000000
146706767.000000,108989086.000000
146747060.000000,108928646.000000
146787369.000000,108878260.000000
146837564.000000,108828064.000000
146888000.000000,108777629.000000
146938413.000000,108747382.000000
146998884.000000,108707068.000000
147059312.000000,108686926.000000
147129684.000000,108656767.000000
147190335.000000,108646658.000000
147260745.000000,108636600.000000
149751514.000000,108636600.000000
Z" /> 
</g>
<g style="fill:#E8B2A7; fill-opacity:1.0; 
stroke:#E8B2A7; stroke-width:203200.000000; stroke-opacity:1; 
stroke-linecap:round; stroke-linejoin:round;">
</g>
<g style="fill:#E8B2A7; fill-opacity:0.0; 
stroke:#E8B2A7; stroke-width:203200.000000; stroke-opacity:1; 
stroke-linecap:round; stroke-linejoin:round;">
<path d="M147180300 112020350
L149720300 112020350
" />
<path d="M149720300 109988350
L147180300 109988350
" />
<path d="M150177500 111563150
L150177500 110445550
" />
<path d="M146723100 111563150
L146723100 110445550
" />
<path d="M150177499.999999 110445550.000000 A457201.000000 457201.000000 0.0 0 0 149720300.000000 109988350.000001" />
<path d="M147180300.000000 109988350.000000 A457200.000000 457200.000000 0.0 0 0 146723100.000000 110445550.000000" />
<path d="M149720300.000000 112020349.999999 A457201.000000 457201.000000 0.0 0 0 150177499.999999 111563150.000000" />
<path d="M146723100.000000 111563150.000000 A457200.000000 457200.000000 0.0 0 0 147180300.000000 112020350.000000" />
</g>
<g style="fill:#E8B2A7; fill-opacity:1.0; 
stroke:#E8B2A7; stroke-width:1.000000; stroke-opacity:1; 
stroke-linecap:round; stroke-linejoin:round;">
<path style="fill:#E8B2A7; fill-opacity:1.0; 
stroke:#E8B2A7; stroke-width:1.000000; stroke-opacity:1; 
stroke-linecap:round; stroke-linejoin:round;fill-rule:evenodd;"
d="M 147679409.000000,103686132.000000
147721100.000000,103738246.000000
147721100.000000,103801514.000000
147680251.000000,103862788.000000
147450425.000000,104202530.000000
147421100.000000,104261180.000000
147421100.000000,104540963.000000
147399832.000000,104594134.000000
147326800.000000,104615000.000000
147254920.000000,104615000.000000
147191587.000000,104583333.000000
147181100.000000,104520414.000000
147181100.000000,104310357.000000
147171310.000000,104241830.000000
146911844.000000,103852630.000000
146870830.000000,103780855.000000
146881494.000000,103727535.000000
146933245.000000,103675784.000000
147005558.000000,103644793.000000
147059111.000000,103655503.000000
147100271.000000,103717243.000000
147288172.000000,104004039.000000
147312870.000000,103995807.000000
147502048.000000,103707062.000000
147543391.000000,103655383.000000
147607035.000000,103644775.000000
Z" /> 
<path style="fill:#E8B2A7; fill-opacity:1.0; 
stroke:#E8B2A7; stroke-width:1.000000; stroke-opacity:1; 
stroke-linecap:round; stroke-linejoin:round;fill-rule:evenodd;"
d="M 150815166.000000,102651230.000000
150820870.000000,102654082.000000
150847640.000000,102654082.000000
150857640.000000,102664082.000000
150870871.000000,102664082.000000
150890870.000000,102674082.000000
150900871.000000,102674082.000000
150934410.000000,102690852.000000
150937640.000000,102694082.000000
150957640.000000,102694082.000000
150974410.000000,102710852.000000
150994410.000000,102720852.000000
150997640.000000,102724082.000000
151017640.000000,102724082.000000
151030467.000000,102736909.000000
151326386.000000,102532828.000000
151591154.000000,102797596.000000
151389900.000000,103089415.000000
151389900.000000,103106342.000000
151393130.000000,103109572.000000
151403130.000000,103129572.000000
151419900.000000,103146342.000000
151419900.000000,103166342.000000
151423130.000000,103169572.000000
151439900.000000,103203111.000000
151439900.000000,103213112.000000
151459900.000000,103253111.000000
151459900.000000,103263112.000000
151469900.000000,103283111.000000
151469900.000000,103293112.000000
151478221.000000,103309754.000000
151829900.000000,103370042.000000
151829900.000000,103754121.000000
151472752.000000,103815347.000000
151469900.000000,103821051.000000
151469900.000000,103847821.000000
151459900.000000,103857821.000000
151459900.000000,103877821.000000
151443130.000000,103894591.000000
151439900.000000,103901051.000000
151439900.000000,103927821.000000
151429900.000000,103937821.000000
151429900.000000,103957821.000000
151413130.000000,103974591.000000
151403130.000000,103994591.000000
151393130.000000,104004591.000000
151389900.000000,104011051.000000
151389900.000000,104021052.000000
151386120.000000,104028611.000000
151591115.000000,104315604.000000
151326980.000000,104591745.000000
151030467.000000,104387254.000000
151027640.000000,104390081.000000
151017640.000000,104390081.000000
151007640.000000,104400081.000000
150997640.000000,104400081.000000
150987640.000000,104410081.000000
150977640.000000,104410081.000000
150967640.000000,104420081.000000
150957640.000000,104420081.000000
150947640.000000,104430081.000000
150937640.000000,104430081.000000
150927640.000000,104440081.000000
150907640.000000,104440081.000000
150866854.000000,104480867.000000
150632625.000000,103848450.000000
150697324.000000,103826884.000000
150729390.000000,103810851.000000
150749390.000000,103790851.000000
150769390.000000,103780851.000000
150780670.000000,103769571.000000
150790670.000000,103749571.000000
150810670.000000,103729571.000000
150826703.000000,103697505.000000
150836704.000000,103667502.000000
150853900.000000,103633111.000000
150853900.000000,103605914.000000
150863900.000000,103575914.000000
150863900.000000,103528249.000000
150827459.000000,103418927.000000
150792368.000000,103366290.000000
150777692.000000,103351614.000000
150747691.000000,103331613.000000
150727692.000000,103311614.000000
150705055.000000,103296523.000000
150675056.000000,103286523.000000
150650394.000000,103270082.000000
150627222.000000,103270082.000000
150587224.000000,103260082.000000
150528067.000000,103260082.000000
150498067.000000,103270082.000000
150473406.000000,103270082.000000
150448744.000000,103286523.000000
150418745.000000,103296523.000000
150366108.000000,103331614.000000
150331432.000000,103366290.000000
150296341.000000,103418927.000000
150286341.000000,103448926.000000
150269900.000000,103473588.000000
150269900.000000,103498249.000000
150259900.000000,103528249.000000
150259900.000000,103605914.000000
150269900.000000,103635914.000000
150269900.000000,103653111.000000
150277096.000000,103667502.000000
150287097.000000,103697505.000000
150293130.000000,103709571.000000
150313130.000000,103729571.000000
150323130.000000,103749571.000000
150354410.000000,103780851.000000
150374410.000000,103790851.000000
150394410.000000,103810851.000000
150479368.000000,103853329.000000
150193900.000000,104624092.000000
150193900.000000,104437821.000000
150186160.000000,104430081.000000
150176160.000000,104430081.000000
150166160.000000,104420081.000000
150156160.000000,104420081.000000
150146160.000000,104410081.000000
150126160.000000,104410081.000000
150116160.000000,104400081.000000
150106160.000000,104400081.000000
150093333.000000,104387254.000000
149797414.000000,104591335.000000
149521726.000000,104315647.000000
149736011.000000,104029932.000000
149730670.000000,104024591.000000
149713900.000000,103991052.000000
149713900.000000,103981051.000000
149710670.000000,103974591.000000
149700670.000000,103964591.000000
149683900.000000,103931052.000000
149683900.000000,103921051.000000
149663900.000000,103881052.000000
149663900.000000,103871051.000000
149653900.000000,103851052.000000
149653900.000000,103841051.000000
149643900.000000,103821052.000000
149643900.000000,103815836.000000
149283900.000000,103754121.000000
149283900.000000,103369891.000000
149643900.000000,103309891.000000
149643900.000000,103286342.000000
149653900.000000,103276342.000000
149653900.000000,103256342.000000
149670670.000000,103239572.000000
149673900.000000,103233112.000000
149673900.000000,103206342.000000
149683900.000000,103196342.000000
149683900.000000,103176342.000000
149700670.000000,103159572.000000
149710670.000000,103139572.000000
149713900.000000,103136342.000000
149713900.000000,103116342.000000
149730670.000000,103099572.000000
149734647.000000,103091618.000000
149521686.000000,102797528.000000
149797997.000000,102533230.000000
150090787.000000,102735154.000000
150112929.000000,102724082.000000
150122930.000000,102724082.000000
150129390.000000,102720852.000000
150139390.000000,102710852.000000
150172929.000000,102694082.000000
150182930.000000,102694082.000000
150189390.000000,102690852.000000
150206160.000000,102674082.000000
150232930.000000,102674082.000000
150252929.000000,102664082.000000
150262930.000000,102664082.000000
150282929.000000,102654082.000000
150292930.000000,102654082.000000
150309572.000000,102645761.000000
150369860.000000,102294082.000000
150753940.000000,102294082.000000
Z" /> 
<g >
</g>
<g >
</g>
<g >
</g>
<g >
</g>
<g >
</g>
<g >
</g>
<g >
</g>
<g >
</g>
<g >
</g>
<g >
</g>
<g >
</g>
<g >
</g>
<g >
</g>
<g >
</g>
<g >
</g>
<g >
</g>
<g >
</g>
<g >
</g>
<g >
</g>
<g >
</g>
<g >
</g>
<g >
</g>
<g >
</g>
<g >
</g>
<g >
</g>
<g >
</g>
<g >
</g>
<g >
</g>
<g >
</g>
<g >
</g>
<g >
</g>
<g >
</g>
<g >
</g>
<g >
</g>
<g >
</g>
<g >
</g>
<g >
</g>
<g >
</g>
<g >
</g>
<g >
</g>
</g>
<g style="fill:#000000; fill-opacity:1.0; 
stroke:#000000; stroke-width:1.000000; stroke-opacity:1; 
stroke-linecap:round; stroke-linejoin:round;">
</g>
<g style="fill:#D0D2CD; fill-opacity:1.0; 
stroke:#D0D2CD; stroke-width:1.000000; stroke-opacity:1; 
stroke-linecap:round; stroke-linejoin:round;">
</g>
<g style="fill:#D0D2CD; fill-opacity:1.0; 
stroke:#D0D2CD; stroke-width:203200.000000; stroke-opacity:1; 
stroke-linecap:round; stroke-linejoin:round;">
</g>
<g style="fill:#D0D2CD; fill-opacity:0.0; 
stroke:#D0D2CD; stroke-width:203200.000000; stroke-opacity:1; 
stroke-linecap:round; stroke-linejoin:round;">
<path d="M144691100 95478600
L144691100 114528600
" />
<path d="M144691100 114528600
L152311100 114528600
" />
<path d="M152311100 95478600
L144691100 95478600
" />
<path d="M152311100 114528600
L152311100 95478600
" />
<g >
</g>
<g >
</g>
<g >
</g>
<g >
</g>
<g >
</g>
<g >
</g>
<g >
</g>
<g >
</g>
<g >
</g>
<g >
</g>
<g >
</g>
<g >
</g>
<g >
</g>
<g >
</g>
<g >
</g>
<g >
</g>
<g >
</g>
<g >
</g>
<g >
</g>
<g >
</g>
<g >
</g>
<g >
</g>
<g >
</g>
<g >
</g>
<g >
</g>
<g >
</g>
<g >
</g>
<g >
</g>
<g >
</g>
<g >
</g>
<g >
</g>
<g >
</g>
<g >
</g>
<g >
</g>
<g >
</g>
<g >
</g>
<g >
</g>
<g >
</g>
<g >
</g>
<g >
</g>
</g> 
</svg>
