<!DOCTYPE svg PUBLIC "-//W3C//DTD SVG 1.1//EN" "http://www.w3.org/Graphics/SVG/1.1/DTD/svg11.dtd">
<svg xmlns="http://www.w3.org/2000/svg" version="1.1" width="31.11228mm" height="22.32mm" viewBox="-16347110.0 9384360.0 3111228.0 2232000.0">
            <title>Picture generated by PcbDraw </title>
            <desc>Picture generated by PcbDraw</desc>
        <defs><clipPath id="cut-off"><path d=" M 13453110.0 9738360.0 A 254000 254000 0 0 1 13707110.0 9484360.0 L 15993110.0 9484360.0 A 254000 254000 0 0 1 16247110.0 9738360.0 L 16247110.0 11262360.0 A 254000 254000 0 0 1 15993110.0 11516360.0 L 13707110.0 11516360.0 A 254000 254000 0 0 1 13453110.0 11262360.0 L 13453110.0 9738360.0 " style="fill-rule: evenodd;"/></clipPath><mask id="pads-mask"><g style="fill:#ffffff; fill-opacity:0.0;  stroke:#ffffff; stroke-width:0.000000; stroke-opacity:1;  stroke-linecap:round; stroke-linejoin:round;">
<g style="fill:#ffffff; fill-opacity:1.0;  stroke:#ffffff; stroke-width:0.100000; stroke-opacity:1;  stroke-linecap:round; stroke-linejoin:round;">
<circle cx="13707110.000000" cy="9738360.000000" r="165080.000000"/> 
</g>
<g style="fill:#ffffff; fill-opacity:1.0;  stroke:#ffffff; stroke-width:0.100000; stroke-opacity:1;  stroke-linecap:round; stroke-linejoin:round;">
<circle cx="15993110.000000" cy="11262360.000000" r="165080.000000"/> 
</g>
<g style="fill:#ffffff; fill-opacity:1.0;  stroke:#ffffff; stroke-width:0.100000; stroke-opacity:1;  stroke-linecap:round; stroke-linejoin:round;">
<circle cx="15993110.000000" cy="9738360.000000" r="165080.000000"/> 
</g>
<g style="fill:#ffffff; fill-opacity:1.0;  stroke:#ffffff; stroke-width:0.100000; stroke-opacity:1;  stroke-linecap:round; stroke-linejoin:round;">
<circle cx="15231110.000000" cy="9738360.000000" r="88900.000000"/> 
</g>
<g style="fill:#ffffff; fill-opacity:1.0;  stroke:#ffffff; stroke-width:0.100000; stroke-opacity:1;  stroke-linecap:round; stroke-linejoin:round;">
<circle cx="14977110.000000" cy="9738360.000000" r="88900.000000"/> 
</g>
<g style="fill:#ffffff; fill-opacity:1.0;  stroke:#ffffff; stroke-width:0.100000; stroke-opacity:1;  stroke-linecap:round; stroke-linejoin:round;">
<circle cx="14723110.000000" cy="9738360.000000" r="88900.000000"/> 
</g>
<g style="fill:#ffffff; fill-opacity:1.0;  stroke:#ffffff; stroke-width:0.100000; stroke-opacity:1;  stroke-linecap:round; stroke-linejoin:round;">
<circle cx="14469110.000000" cy="9738360.000000" r="88900.000000"/> 
</g>
<g style="fill:#ffffff; fill-opacity:1.0;  stroke:#ffffff; stroke-width:0.100000; stroke-opacity:1;  stroke-linecap:round; stroke-linejoin:round;">
<circle cx="13707110.000000" cy="11262360.000000" r="165080.000000"/> 
</g>
<g style="fill:#ffffff; fill-opacity:1.0;  stroke:#ffffff; stroke-width:0.100000; stroke-opacity:1;  stroke-linecap:round; stroke-linejoin:round;">
<circle cx="15485110.000000" cy="11262360.000000" r="93980.000000"/> 
</g>
<g style="fill:#ffffff; fill-opacity:1.0;  stroke:#ffffff; stroke-width:0.100000; stroke-opacity:1;  stroke-linecap:round; stroke-linejoin:round;">
<circle cx="15231110.000000" cy="11262360.000000" r="93980.000000"/> 
</g>
<g style="fill:#ffffff; fill-opacity:1.0;  stroke:#ffffff; stroke-width:0.100000; stroke-opacity:1;  stroke-linecap:round; stroke-linejoin:round;">
<circle cx="14977110.000000" cy="11262360.000000" r="93980.000000"/> 
</g>
<g style="fill:#ffffff; fill-opacity:1.0;  stroke:#ffffff; stroke-width:0.100000; stroke-opacity:1;  stroke-linecap:round; stroke-linejoin:round;">
<circle cx="14723110.000000" cy="11262360.000000" r="93980.000000"/> 
</g>
<g style="fill:#ffffff; fill-opacity:1.0;  stroke:#ffffff; stroke-width:0.100000; stroke-opacity:1;  stroke-linecap:round; stroke-linejoin:round;">
<circle cx="14469110.000000" cy="11262360.000000" r="93980.000000"/> 
</g>
<g style="fill:#ffffff; fill-opacity:1.0;  stroke:#ffffff; stroke-width:0.100000; stroke-opacity:1;  stroke-linecap:round; stroke-linejoin:round;">
<circle cx="14215110.000000" cy="11262360.000000" r="93980.000000"/> 
</g>
</g> 
</mask><mask id="pads-mask-silkscreen"><rect x="13321030.0" y="9388346.0" width="2938780.0" height="2371043.3" fill="white"/><g style="fill:#000000; fill-opacity:0.0;  stroke:#000000; stroke-width:0.000000; stroke-opacity:1;  stroke-linecap:round; stroke-linejoin:round;">
<g style="fill:#000000; fill-opacity:1.0;  stroke:#000000; stroke-width:0.100000; stroke-opacity:1;  stroke-linecap:round; stroke-linejoin:round;">
<circle cx="13707110.000000" cy="9738360.000000" r="165080.000000"/> 
</g>
<g style="fill:#000000; fill-opacity:1.0;  stroke:#000000; stroke-width:0.100000; stroke-opacity:1;  stroke-linecap:round; stroke-linejoin:round;">
<circle cx="15993110.000000" cy="11262360.000000" r="165080.000000"/> 
</g>
<g style="fill:#000000; fill-opacity:1.0;  stroke:#000000; stroke-width:0.100000; stroke-opacity:1;  stroke-linecap:round; stroke-linejoin:round;">
<circle cx="15993110.000000" cy="9738360.000000" r="165080.000000"/> 
</g>
<g style="fill:#000000; fill-opacity:1.0;  stroke:#000000; stroke-width:0.100000; stroke-opacity:1;  stroke-linecap:round; stroke-linejoin:round;">
<circle cx="15231110.000000" cy="9738360.000000" r="88900.000000"/> 
</g>
<g style="fill:#000000; fill-opacity:1.0;  stroke:#000000; stroke-width:0.100000; stroke-opacity:1;  stroke-linecap:round; stroke-linejoin:round;">
<circle cx="14977110.000000" cy="9738360.000000" r="88900.000000"/> 
</g>
<g style="fill:#000000; fill-opacity:1.0;  stroke:#000000; stroke-width:0.100000; stroke-opacity:1;  stroke-linecap:round; stroke-linejoin:round;">
<circle cx="14723110.000000" cy="9738360.000000" r="88900.000000"/> 
</g>
<g style="fill:#000000; fill-opacity:1.0;  stroke:#000000; stroke-width:0.100000; stroke-opacity:1;  stroke-linecap:round; stroke-linejoin:round;">
<circle cx="14469110.000000" cy="9738360.000000" r="88900.000000"/> 
</g>
<g style="fill:#000000; fill-opacity:1.0;  stroke:#000000; stroke-width:0.100000; stroke-opacity:1;  stroke-linecap:round; stroke-linejoin:round;">
<circle cx="13707110.000000" cy="11262360.000000" r="165080.000000"/> 
</g>
<g style="fill:#000000; fill-opacity:1.0;  stroke:#000000; stroke-width:0.100000; stroke-opacity:1;  stroke-linecap:round; stroke-linejoin:round;">
<circle cx="15485110.000000" cy="11262360.000000" r="93980.000000"/> 
</g>
<g style="fill:#000000; fill-opacity:1.0;  stroke:#000000; stroke-width:0.100000; stroke-opacity:1;  stroke-linecap:round; stroke-linejoin:round;">
<circle cx="15231110.000000" cy="11262360.000000" r="93980.000000"/> 
</g>
<g style="fill:#000000; fill-opacity:1.0;  stroke:#000000; stroke-width:0.100000; stroke-opacity:1;  stroke-linecap:round; stroke-linejoin:round;">
<circle cx="14977110.000000" cy="11262360.000000" r="93980.000000"/> 
</g>
<g style="fill:#000000; fill-opacity:1.0;  stroke:#000000; stroke-width:0.100000; stroke-opacity:1;  stroke-linecap:round; stroke-linejoin:round;">
<circle cx="14723110.000000" cy="11262360.000000" r="93980.000000"/> 
</g>
<g style="fill:#000000; fill-opacity:1.0;  stroke:#000000; stroke-width:0.100000; stroke-opacity:1;  stroke-linecap:round; stroke-linejoin:round;">
<circle cx="14469110.000000" cy="11262360.000000" r="93980.000000"/> 
</g>
<g style="fill:#000000; fill-opacity:1.0;  stroke:#000000; stroke-width:0.100000; stroke-opacity:1;  stroke-linecap:round; stroke-linejoin:round;">
<circle cx="14215110.000000" cy="11262360.000000" r="93980.000000"/> 
</g>
</g> 
</mask><mask id="hole-mask"><g><rect x="13321030.0" y="9388346.0" fill="white" width="2938780.0" height="2371043.3"/><polyline stroke-linecap="round" stroke="black" stroke-width="250000.0" points="-0.0 0 0.0 0" transform="translate(13707110.0 9738360.0) rotate(-0.0)"/><polyline stroke-linecap="round" stroke="black" stroke-width="250000.0" points="-0.0 0 0.0 0" transform="translate(15993110.0 11262360.0) rotate(-0.0)"/><polyline stroke-linecap="round" stroke="black" stroke-width="250000.0" points="-0.0 0 0.0 0" transform="translate(15993110.0 9738360.0) rotate(-0.0)"/><polyline stroke-linecap="round" stroke="black" stroke-width="100000.0" points="-0.0 0 0.0 0" transform="translate(15231110.0 9738360.0) rotate(-270.0)"/><polyline stroke-linecap="round" stroke="black" stroke-width="100000.0" points="-0.0 0 0.0 0" transform="translate(14977110.0 9738360.0) rotate(-270.0)"/><polyline stroke-linecap="round" stroke="black" stroke-width="100000.0" points="-0.0 0 0.0 0" transform="translate(14723110.0 9738360.0) rotate(-270.0)"/><polyline stroke-linecap="round" stroke="black" stroke-width="100000.0" points="-0.0 0 0.0 0" transform="translate(14469110.0 9738360.0) rotate(-270.0)"/><polyline stroke-linecap="round" stroke="black" stroke-width="250000.0" points="-0.0 0 0.0 0" transform="translate(13707110.0 11262360.0) rotate(-0.0)"/><polyline stroke-linecap="round" stroke="black" stroke-width="100000.0" points="-0.0 0 0.0 0" transform="translate(15485110.0 11262360.0) rotate(-270.0)"/><polyline stroke-linecap="round" stroke="black" stroke-width="100000.0" points="-0.0 0 0.0 0" transform="translate(15231110.0 11262360.0) rotate(-270.0)"/><polyline stroke-linecap="round" stroke="black" stroke-width="100000.0" points="-0.0 0 0.0 0" transform="translate(14977110.0 11262360.0) rotate(-270.0)"/><polyline stroke-linecap="round" stroke="black" stroke-width="100000.0" points="-0.0 0 0.0 0" transform="translate(14723110.0 11262360.0) rotate(-270.0)"/><polyline stroke-linecap="round" stroke="black" stroke-width="100000.0" points="-0.0 0 0.0 0" transform="translate(14469110.0 11262360.0) rotate(-270.0)"/><polyline stroke-linecap="round" stroke="black" stroke-width="100000.0" points="-0.0 0 0.0 0" transform="translate(14215110.0 11262360.0) rotate(-270.0)"/><polyline stroke-linecap="round" stroke="black" stroke-width="50000.0" points="-0.0 0 0.0 0" transform="translate(14037310.0 10068560.0) rotate(0.0)"/><polyline stroke-linecap="round" stroke="black" stroke-width="50000.0" points="-0.0 0 0.0 0" transform="translate(14113510.0 10792460.0) rotate(0.0)"/><polyline stroke-linecap="round" stroke="black" stroke-width="50000.0" points="-0.0 0 0.0 0" transform="translate(14138910.0 9916160.0) rotate(0.0)"/><polyline stroke-linecap="round" stroke="black" stroke-width="50000.0" points="-0.0 0 0.0 0" transform="translate(15523210.0 10703560.0) rotate(0.0)"/><polyline stroke-linecap="round" stroke="black" stroke-width="50000.0" points="-0.0 0 0.0 0" transform="translate(14278610.0 11109960.0) rotate(0.0)"/><polyline stroke-linecap="round" stroke="black" stroke-width="50000.0" points="-0.0 0 0.0 0" transform="translate(14881860.0 10170160.0) rotate(0.0)"/><polyline stroke-linecap="round" stroke="black" stroke-width="50000.0" points="-0.0 0 0.0 0" transform="translate(14945360.0 10659110.0) rotate(0.0)"/><polyline stroke-linecap="round" stroke="black" stroke-width="50000.0" points="-0.0 0 0.0 0" transform="translate(13757910.0 10957560.0) rotate(0.0)"/><polyline stroke-linecap="round" stroke="black" stroke-width="50000.0" points="-0.0 0 0.0 0" transform="translate(15154910.0 10462260.0) rotate(0.0)"/><polyline stroke-linecap="round" stroke="black" stroke-width="50000.0" points="-0.0 0 0.0 0" transform="translate(15853410.0 10741660.0) rotate(0.0)"/><polyline stroke-linecap="round" stroke="black" stroke-width="50000.0" points="-0.0 0 0.0 0" transform="translate(14240510.0 10805160.0) rotate(0.0)"/><polyline stroke-linecap="round" stroke="black" stroke-width="50000.0" points="-0.0 0 0.0 0" transform="translate(15040610.0 10728960.0) rotate(0.0)"/><polyline stroke-linecap="round" stroke="black" stroke-width="50000.0" points="-0.0 0 0.0 0" transform="translate(14138910.0 10665460.0) rotate(0.0)"/><polyline stroke-linecap="round" stroke="black" stroke-width="50000.0" points="-0.0 0 0.0 0" transform="translate(15040610.0 10081260.0) rotate(0.0)"/><polyline stroke-linecap="round" stroke="black" stroke-width="50000.0" points="-0.0 0 0.0 0" transform="translate(15535910.0 11021060.0) rotate(0.0)"/><polyline stroke-linecap="round" stroke="black" stroke-width="50000.0" points="-0.0 0 0.0 0" transform="translate(15535910.0 9979660.0) rotate(0.0)"/><polyline stroke-linecap="round" stroke="black" stroke-width="50000.0" points="-0.0 0 0.0 0" transform="translate(15180310.0 11071860.0) rotate(0.0)"/><polyline stroke-linecap="round" stroke="black" stroke-width="50000.0" points="-0.0 0 0.0 0" transform="translate(14418310.0 9954260.0) rotate(0.0)"/><polyline stroke-linecap="round" stroke="black" stroke-width="50000.0" points="-0.0 0 0.0 0" transform="translate(13630910.0 10411460.0) rotate(0.0)"/><polyline stroke-linecap="round" stroke="black" stroke-width="50000.0" points="-0.0 0 0.0 0" transform="translate(14735810.0 10627360.0) rotate(0.0)"/><polyline stroke-linecap="round" stroke="black" stroke-width="50000.0" points="-0.0 0 0.0 0" transform="translate(14138910.0 10284460.0) rotate(0.0)"/><polyline stroke-linecap="round" stroke="black" stroke-width="50000.0" points="-0.0 0 0.0 0" transform="translate(13783310.0 10068560.0) rotate(0.0)"/><polyline stroke-linecap="round" stroke="black" stroke-width="50000.0" points="-0.0 0 0.0 0" transform="translate(15447010.0 10271760.0) rotate(0.0)"/><polyline stroke-linecap="round" stroke="black" stroke-width="50000.0" points="-0.0 0 0.0 0" transform="translate(15459710.0 10474960.0) rotate(0.0)"/><polyline stroke-linecap="round" stroke="black" stroke-width="50000.0" points="-0.0 0 0.0 0" transform="translate(15447010.0 10601960.0) rotate(0.0)"/><polyline stroke-linecap="round" stroke="black" stroke-width="50000.0" points="-0.0 0 0.0 0" transform="translate(14583410.0 10614660.0) rotate(0.0)"/></g></mask></defs><g transform="scale(-1,1)" id="boardContainer"><g id="substrate" clip-path="url(#cut-off)" mask="url(#hole-mask)"><g id="substrate-board" style="fill:#4ca06c; stroke:#4ca06c;"><path d=" M 13453110.0 9738360.0 A 254000 254000 0 0 1 13707110.0 9484360.0 L 15993110.0 9484360.0 A 254000 254000 0 0 1 16247110.0 9738360.0 L 16247110.0 11262360.0 A 254000 254000 0 0 1 15993110.0 11516360.0 L 13707110.0 11516360.0 A 254000 254000 0 0 1 13453110.0 11262360.0 L 13453110.0 9738360.0 " style="fill-rule: evenodd;"/><g style="fill-opacity: 0.0;stroke-width: 5000.000000;stroke-opacity: 1;stroke-linecap: round;stroke-linejoin: round">
<path d="M13453110 11262360 L13453110 9738360 "/>
<path d="M13707110.000000 9484360.000000 A254000.000000 254000.000000 0.0 0 0 13453110.000000 9738360.000000"/>
<path d="M13453110.000000 11262360.000000 A254000.000000 254000.000000 0.0 0 0 13707110.000000 11516360.000000"/>
<path d="M16247110.000000 9738360.000000 A254000.000000 254000.000000 0.0 0 0 15993110.000000 9484360.000000"/>
<path d="M15993110.000000 11516360.000000 A254000.000000 254000.000000 0.0 0 0 16247110.000000 11262360.000000"/>
<path d="M15993110 11516360 L13707110 11516360 "/>
<path d="M16247110 9738360 L16247110 11262360 "/>
<path d="M13707110 9484360 L15993110 9484360 "/>
</g> 
</g><g id="substrate-clad" style="fill:#9c6b28; stroke:#9c6b28;"><g style="fill-opacity: 0.0;stroke-width: 0.000000;stroke-opacity: 1;stroke-linecap: round;stroke-linejoin: round">
<g style="fill-opacity: 1.0;stroke-width: 0.100000;stroke-opacity: 1;stroke-linecap: round;stroke-linejoin: round">
<circle cx="13707110.000000" cy="9738360.000000" r="165080.000000"/> 
</g>
<g style="fill-opacity: 1.0;stroke-width: 0.100000;stroke-opacity: 1;stroke-linecap: round;stroke-linejoin: round">
<circle cx="15993110.000000" cy="11262360.000000" r="165080.000000"/> 
</g>
<g style="fill-opacity: 1.0;stroke-width: 0.100000;stroke-opacity: 1;stroke-linecap: round;stroke-linejoin: round">
<circle cx="15993110.000000" cy="9738360.000000" r="165080.000000"/> 
</g>
<g style="fill-opacity: 1.0;stroke-width: 0.100000;stroke-opacity: 1;stroke-linecap: round;stroke-linejoin: round">
<circle cx="15231110.000000" cy="9738360.000000" r="88900.000000"/> 
</g>
<g style="fill-opacity: 1.0;stroke-width: 0.100000;stroke-opacity: 1;stroke-linecap: round;stroke-linejoin: round">
<circle cx="14977110.000000" cy="9738360.000000" r="88900.000000"/> 
</g>
<g style="fill-opacity: 1.0;stroke-width: 0.100000;stroke-opacity: 1;stroke-linecap: round;stroke-linejoin: round">
<circle cx="14723110.000000" cy="9738360.000000" r="88900.000000"/> 
</g>
<g style="fill-opacity: 1.0;stroke-width: 0.100000;stroke-opacity: 1;stroke-linecap: round;stroke-linejoin: round">
<circle cx="14469110.000000" cy="9738360.000000" r="88900.000000"/> 
</g>
<g style="fill-opacity: 1.0;stroke-width: 0.100000;stroke-opacity: 1;stroke-linecap: round;stroke-linejoin: round">
<circle cx="13707110.000000" cy="11262360.000000" r="165080.000000"/> 
</g>
<g style="fill-opacity: 1.0;stroke-width: 0.100000;stroke-opacity: 1;stroke-linecap: round;stroke-linejoin: round">
<circle cx="15485110.000000" cy="11262360.000000" r="93980.000000"/> 
</g>
<g style="fill-opacity: 1.0;stroke-width: 0.100000;stroke-opacity: 1;stroke-linecap: round;stroke-linejoin: round">
<circle cx="15231110.000000" cy="11262360.000000" r="93980.000000"/> 
</g>
<g style="fill-opacity: 1.0;stroke-width: 0.100000;stroke-opacity: 1;stroke-linecap: round;stroke-linejoin: round">
<circle cx="14977110.000000" cy="11262360.000000" r="93980.000000"/> 
</g>
<g style="fill-opacity: 1.0;stroke-width: 0.100000;stroke-opacity: 1;stroke-linecap: round;stroke-linejoin: round">
<circle cx="14723110.000000" cy="11262360.000000" r="93980.000000"/> 
</g>
<g style="fill-opacity: 1.0;stroke-width: 0.100000;stroke-opacity: 1;stroke-linecap: round;stroke-linejoin: round">
<circle cx="14469110.000000" cy="11262360.000000" r="93980.000000"/> 
</g>
<g style="fill-opacity: 1.0;stroke-width: 0.100000;stroke-opacity: 1;stroke-linecap: round;stroke-linejoin: round">
<circle cx="14215110.000000" cy="11262360.000000" r="93980.000000"/> 
</g>
</g> 
</g><g id="substrate-copper" style="fill:#417e5a; stroke:#417e5a;"><g style="fill-opacity: 0.0;stroke-width: 0.000000;stroke-opacity: 1;stroke-linecap: round;stroke-linejoin: round">
<g style="fill-opacity: 1.0;stroke-width: 0.100000;stroke-opacity: 1;stroke-linecap: round;stroke-linejoin: round">
<circle cx="13707110.000000" cy="9738360.000000" r="160000.000000"/> 
</g>
<g style="fill-opacity: 1.0;stroke-width: 0.100000;stroke-opacity: 1;stroke-linecap: round;stroke-linejoin: round">
<circle cx="15993110.000000" cy="11262360.000000" r="160000.000000"/> 
</g>
<g style="fill-opacity: 1.0;stroke-width: 0.100000;stroke-opacity: 1;stroke-linecap: round;stroke-linejoin: round">
<circle cx="15993110.000000" cy="9738360.000000" r="160000.000000"/> 
</g>
<g style="fill-opacity: 1.0;stroke-width: 0.100000;stroke-opacity: 1;stroke-linecap: round;stroke-linejoin: round">
<circle cx="15231110.000000" cy="9738360.000000" r="83820.000000"/> 
</g>
<g style="fill-opacity: 1.0;stroke-width: 0.100000;stroke-opacity: 1;stroke-linecap: round;stroke-linejoin: round">
<circle cx="14977110.000000" cy="9738360.000000" r="83820.000000"/> 
</g>
<g style="fill-opacity: 1.0;stroke-width: 0.100000;stroke-opacity: 1;stroke-linecap: round;stroke-linejoin: round">
<circle cx="14723110.000000" cy="9738360.000000" r="83820.000000"/> 
</g>
<g style="fill-opacity: 1.0;stroke-width: 0.100000;stroke-opacity: 1;stroke-linecap: round;stroke-linejoin: round">
<circle cx="14469110.000000" cy="9738360.000000" r="83820.000000"/> 
</g>
<g style="fill-opacity: 1.0;stroke-width: 0.100000;stroke-opacity: 1;stroke-linecap: round;stroke-linejoin: round">
<circle cx="13707110.000000" cy="11262360.000000" r="160000.000000"/> 
</g>
<g style="fill-opacity: 1.0;stroke-width: 0.100000;stroke-opacity: 1;stroke-linecap: round;stroke-linejoin: round">
<circle cx="15485110.000000" cy="11262360.000000" r="88900.000000"/> 
</g>
<g style="fill-opacity: 1.0;stroke-width: 0.100000;stroke-opacity: 1;stroke-linecap: round;stroke-linejoin: round">
<circle cx="15231110.000000" cy="11262360.000000" r="88900.000000"/> 
</g>
<g style="fill-opacity: 1.0;stroke-width: 0.100000;stroke-opacity: 1;stroke-linecap: round;stroke-linejoin: round">
<circle cx="14977110.000000" cy="11262360.000000" r="88900.000000"/> 
</g>
<g style="fill-opacity: 1.0;stroke-width: 0.100000;stroke-opacity: 1;stroke-linecap: round;stroke-linejoin: round">
<circle cx="14723110.000000" cy="11262360.000000" r="88900.000000"/> 
</g>
<g style="fill-opacity: 1.0;stroke-width: 0.100000;stroke-opacity: 1;stroke-linecap: round;stroke-linejoin: round">
<circle cx="14469110.000000" cy="11262360.000000" r="88900.000000"/> 
</g>
<g style="fill-opacity: 1.0;stroke-width: 0.100000;stroke-opacity: 1;stroke-linecap: round;stroke-linejoin: round">
<circle cx="14215110.000000" cy="11262360.000000" r="88900.000000"/> 
</g>
<g style="fill-opacity: 1.0;stroke-width: 0.100000;stroke-opacity: 1;stroke-linecap: round;stroke-linejoin: round">
<circle cx="14037310.000000" cy="10068560.000000" r="45320.000000"/> 
</g>
<g style="fill-opacity: 1.0;stroke-width: 0.100000;stroke-opacity: 1;stroke-linecap: round;stroke-linejoin: round">
<circle cx="14113510.000000" cy="10792460.000000" r="45320.000000"/> 
</g>
<g style="fill-opacity: 1.0;stroke-width: 0.100000;stroke-opacity: 1;stroke-linecap: round;stroke-linejoin: round">
<circle cx="14138910.000000" cy="9916160.000000" r="45320.000000"/> 
</g>
<g style="fill-opacity: 1.0;stroke-width: 0.100000;stroke-opacity: 1;stroke-linecap: round;stroke-linejoin: round">
<circle cx="15523210.000000" cy="10703560.000000" r="45320.000000"/> 
</g>
<g style="fill-opacity: 1.0;stroke-width: 0.100000;stroke-opacity: 1;stroke-linecap: round;stroke-linejoin: round">
<circle cx="14278610.000000" cy="11109960.000000" r="45320.000000"/> 
</g>
<g style="fill-opacity: 1.0;stroke-width: 0.100000;stroke-opacity: 1;stroke-linecap: round;stroke-linejoin: round">
<circle cx="14881860.000000" cy="10170160.000000" r="45320.000000"/> 
</g>
<g style="fill-opacity: 1.0;stroke-width: 0.100000;stroke-opacity: 1;stroke-linecap: round;stroke-linejoin: round">
<circle cx="14945360.000000" cy="10659110.000000" r="45320.000000"/> 
</g>
<g style="fill-opacity: 1.0;stroke-width: 0.100000;stroke-opacity: 1;stroke-linecap: round;stroke-linejoin: round">
<circle cx="13757910.000000" cy="10957560.000000" r="45320.000000"/> 
</g>
<g style="fill-opacity: 1.0;stroke-width: 0.100000;stroke-opacity: 1;stroke-linecap: round;stroke-linejoin: round">
<circle cx="15154910.000000" cy="10462260.000000" r="45320.000000"/> 
</g>
<g style="fill-opacity: 1.0;stroke-width: 0.100000;stroke-opacity: 1;stroke-linecap: round;stroke-linejoin: round">
<circle cx="15853410.000000" cy="10741660.000000" r="45320.000000"/> 
</g>
<g style="fill-opacity: 1.0;stroke-width: 0.100000;stroke-opacity: 1;stroke-linecap: round;stroke-linejoin: round">
<circle cx="14240510.000000" cy="10805160.000000" r="45320.000000"/> 
</g>
<g style="fill-opacity: 1.0;stroke-width: 0.100000;stroke-opacity: 1;stroke-linecap: round;stroke-linejoin: round">
<circle cx="15040610.000000" cy="10728960.000000" r="45320.000000"/> 
</g>
<g style="fill-opacity: 1.0;stroke-width: 0.100000;stroke-opacity: 1;stroke-linecap: round;stroke-linejoin: round">
<circle cx="14138910.000000" cy="10665460.000000" r="45320.000000"/> 
</g>
<g style="fill-opacity: 1.0;stroke-width: 0.100000;stroke-opacity: 1;stroke-linecap: round;stroke-linejoin: round">
<circle cx="15040610.000000" cy="10081260.000000" r="45320.000000"/> 
</g>
<g style="fill-opacity: 1.0;stroke-width: 0.100000;stroke-opacity: 1;stroke-linecap: round;stroke-linejoin: round">
<circle cx="15535910.000000" cy="11021060.000000" r="45320.000000"/> 
</g>
<g style="fill-opacity: 1.0;stroke-width: 0.100000;stroke-opacity: 1;stroke-linecap: round;stroke-linejoin: round">
<circle cx="15535910.000000" cy="9979660.000000" r="45320.000000"/> 
</g>
<g style="fill-opacity: 1.0;stroke-width: 0.100000;stroke-opacity: 1;stroke-linecap: round;stroke-linejoin: round">
<circle cx="15180310.000000" cy="11071860.000000" r="45320.000000"/> 
</g>
<g style="fill-opacity: 1.0;stroke-width: 0.100000;stroke-opacity: 1;stroke-linecap: round;stroke-linejoin: round">
<circle cx="14418310.000000" cy="9954260.000000" r="45320.000000"/> 
</g>
<g style="fill-opacity: 1.0;stroke-width: 0.100000;stroke-opacity: 1;stroke-linecap: round;stroke-linejoin: round">
<circle cx="13630910.000000" cy="10411460.000000" r="45320.000000"/> 
</g>
<g style="fill-opacity: 1.0;stroke-width: 0.100000;stroke-opacity: 1;stroke-linecap: round;stroke-linejoin: round">
<circle cx="14735810.000000" cy="10627360.000000" r="45320.000000"/> 
</g>
<g style="fill-opacity: 1.0;stroke-width: 0.100000;stroke-opacity: 1;stroke-linecap: round;stroke-linejoin: round">
<circle cx="14138910.000000" cy="10284460.000000" r="45320.000000"/> 
</g>
<g style="fill-opacity: 1.0;stroke-width: 0.100000;stroke-opacity: 1;stroke-linecap: round;stroke-linejoin: round">
<circle cx="13783310.000000" cy="10068560.000000" r="45320.000000"/> 
</g>
<g style="fill-opacity: 1.0;stroke-width: 0.100000;stroke-opacity: 1;stroke-linecap: round;stroke-linejoin: round">
<circle cx="15447010.000000" cy="10271760.000000" r="45320.000000"/> 
</g>
<g style="fill-opacity: 1.0;stroke-width: 0.100000;stroke-opacity: 1;stroke-linecap: round;stroke-linejoin: round">
<circle cx="15459710.000000" cy="10474960.000000" r="45320.000000"/> 
</g>
<g style="fill-opacity: 1.0;stroke-width: 0.100000;stroke-opacity: 1;stroke-linecap: round;stroke-linejoin: round">
<circle cx="15447010.000000" cy="10601960.000000" r="45320.000000"/> 
</g>
<g style="fill-opacity: 1.0;stroke-width: 0.100000;stroke-opacity: 1;stroke-linecap: round;stroke-linejoin: round">
<circle cx="14583410.000000" cy="10614660.000000" r="45320.000000"/> 
</g>
<g style="fill-opacity: 0.0;stroke-width: 25400.000000;stroke-opacity: 1;stroke-linecap: round;stroke-linejoin: round">
<path d="M14240510 10805160 L14316710 10881360 "/>
<path d="M15535910 10881360 L15675610 10741660 "/>
<path d="M15675610 10741660 L15853410 10741660 "/>
<path d="M14316710 10881360 L15535910 10881360 "/>
<path d="M14215110 10665460 L14138910 10665460 "/>
<path d="M14329410 10779760 L14989810 10779760 "/>
<path d="M14989810 10779760 L15040610 10728960 "/>
<path d="M14329410 10779760 L14215110 10665460 "/>
<path d="M15040610 10081260 L15040610 10728960 "/>
</g>
<g style="fill-opacity: 0.0;stroke-width: 40640.000000;stroke-opacity: 1;stroke-linecap: round;stroke-linejoin: round">
<path d="M14354810 10716260 L14138910 10500360 "/>
<path d="M14672310 10716260 L14354810 10716260 "/>
<path d="M14418310 9954260 L14354810 9954260 "/>
<path d="M14138910 10170160 L14138910 10284460 "/>
<path d="M14443710 11008360 L15167610 11008360 "/>
</g>
<g style="fill-opacity: 0.0;stroke-width: 25400.000000;stroke-opacity: 1;stroke-linecap: round;stroke-linejoin: round">
<path d="M13633924 10414474 L13630910 10411460 "/>
</g>
<g style="fill-opacity: 0.0;stroke-width: 40640.000000;stroke-opacity: 1;stroke-linecap: round;stroke-linejoin: round">
<path d="M14354810 9954260 L14138910 10170160 "/>
<path d="M14735810 10652760 L14672310 10716260 "/>
<path d="M15993110 10474960 L15535910 10017760 "/>
</g>
<g style="fill-opacity: 0.0;stroke-width: 25400.000000;stroke-opacity: 1;stroke-linecap: round;stroke-linejoin: round">
<path d="M14138910 10294495 L14138910 10284460 "/>
</g>
<g style="fill-opacity: 0.0;stroke-width: 40640.000000;stroke-opacity: 1;stroke-linecap: round;stroke-linejoin: round">
<path d="M14138910 10500360 L14138910 10411460 "/>
</g>
<g style="fill-opacity: 0.0;stroke-width: 25400.000000;stroke-opacity: 1;stroke-linecap: round;stroke-linejoin: round">
<path d="M15575579 11021060 L15535910 11021060 "/>
</g>
<g style="fill-opacity: 0.0;stroke-width: 40640.000000;stroke-opacity: 1;stroke-linecap: round;stroke-linejoin: round">
<path d="M15180310 11021060 L15535910 11021060 "/>
</g>
<g style="fill-opacity: 0.0;stroke-width: 25400.000000;stroke-opacity: 1;stroke-linecap: round;stroke-linejoin: round">
<path d="M15167610 11008360 L15180310 11021060 "/>
</g>
<g style="fill-opacity: 0.0;stroke-width: 40640.000000;stroke-opacity: 1;stroke-linecap: round;stroke-linejoin: round">
<path d="M15664479 10932160 L15575579 11021060 "/>
<path d="M14138910 10411460 L14138910 10284460 "/>
<path d="M14443710 11236960 L14469110 11262360 "/>
<path d="M15916910 10932160 L15664479 10932160 "/>
<path d="M13767595 10414474 L14135895 10414474 "/>
<path d="M13961110 11008360 L14443710 11008360 "/>
<path d="M14135895 10414474 L14138910 10411460 "/>
<path d="M13767595 10814845 L13961110 11008360 "/>
<path d="M15180310 11021060 L15180310 11071860 "/>
<path d="M14443710 11008360 L14443710 11236960 "/>
<path d="M14735810 10627360 L14735810 10652760 "/>
<path d="M15535910 10017760 L15535910 9979660 "/>
<path d="M15993110 10474960 L15993110 10855960 "/>
<path d="M13767595 10414474 L13633924 10414474 "/>
<path d="M15993110 10855960 L15916910 10932160 "/>
<path d="M13767595 10814845 L13767595 10414474 "/>
</g>
<g style="fill-opacity: 0.0;stroke-width: 25400.000000;stroke-opacity: 1;stroke-linecap: round;stroke-linejoin: round">
<path d="M15447010 9636760 L15447010 10271760 "/>
<path d="M14304010 9547860 L15358110 9547860 "/>
<path d="M15358110 9547860 L15447010 9636760 "/>
<path d="M14304010 9547860 L13783310 10068560 "/>
<path d="M15458910 10474160 L15459710 10474960 "/>
<path d="M15307310 10449060 L15332410 10474160 "/>
<path d="M15243810 10297160 L15307310 10360660 "/>
<path d="M15243810 9751060 L15243810 10297160 "/>
<path d="M15332410 10474160 L15458910 10474160 "/>
<path d="M15243810 9751060 L15231110 9738360 "/>
<path d="M15307310 10360660 L15307310 10449060 "/>
<path d="M15193010 10017760 L14977110 9801860 "/>
<path d="M14977110 9801860 L14977110 9738360 "/>
<path d="M15256510 10525760 L15256510 10398760 "/>
<path d="M15256510 10398760 L15193010 10335260 "/>
<path d="M15193010 10335260 L15193010 10017760 "/>
<path d="M15447010 10601960 L15332710 10601960 "/>
<path d="M15332710 10601960 L15256510 10525760 "/>
<path d="M14634210 10563860 L14634210 10030460 "/>
<path d="M14532610 9928860 L14532610 9801860 "/>
<path d="M14532610 9801860 L14469110 9738360 "/>
<path d="M14634210 10030460 L14532610 9928860 "/>
<path d="M14634210 10563860 L14583410 10614660 "/>
</g>
</g> 
</g><g id="substrate-pads" style="fill:#b5ae30; stroke:#b5ae30;" mask="url(#pads-mask)"><g style="fill-opacity: 0.0;stroke-width: 0.000000;stroke-opacity: 1;stroke-linecap: round;stroke-linejoin: round">
<g style="fill-opacity: 1.0;stroke-width: 0.100000;stroke-opacity: 1;stroke-linecap: round;stroke-linejoin: round">
<circle cx="13707110.000000" cy="9738360.000000" r="160000.000000"/> 
</g>
<g style="fill-opacity: 1.0;stroke-width: 0.100000;stroke-opacity: 1;stroke-linecap: round;stroke-linejoin: round">
<circle cx="15993110.000000" cy="11262360.000000" r="160000.000000"/> 
</g>
<g style="fill-opacity: 1.0;stroke-width: 0.100000;stroke-opacity: 1;stroke-linecap: round;stroke-linejoin: round">
<circle cx="15993110.000000" cy="9738360.000000" r="160000.000000"/> 
</g>
<g style="fill-opacity: 1.0;stroke-width: 0.100000;stroke-opacity: 1;stroke-linecap: round;stroke-linejoin: round">
<circle cx="15231110.000000" cy="9738360.000000" r="83820.000000"/> 
</g>
<g style="fill-opacity: 1.0;stroke-width: 0.100000;stroke-opacity: 1;stroke-linecap: round;stroke-linejoin: round">
<circle cx="14977110.000000" cy="9738360.000000" r="83820.000000"/> 
</g>
<g style="fill-opacity: 1.0;stroke-width: 0.100000;stroke-opacity: 1;stroke-linecap: round;stroke-linejoin: round">
<circle cx="14723110.000000" cy="9738360.000000" r="83820.000000"/> 
</g>
<g style="fill-opacity: 1.0;stroke-width: 0.100000;stroke-opacity: 1;stroke-linecap: round;stroke-linejoin: round">
<circle cx="14469110.000000" cy="9738360.000000" r="83820.000000"/> 
</g>
<g style="fill-opacity: 1.0;stroke-width: 0.100000;stroke-opacity: 1;stroke-linecap: round;stroke-linejoin: round">
<circle cx="13707110.000000" cy="11262360.000000" r="160000.000000"/> 
</g>
<g style="fill-opacity: 1.0;stroke-width: 0.100000;stroke-opacity: 1;stroke-linecap: round;stroke-linejoin: round">
<circle cx="15485110.000000" cy="11262360.000000" r="88900.000000"/> 
</g>
<g style="fill-opacity: 1.0;stroke-width: 0.100000;stroke-opacity: 1;stroke-linecap: round;stroke-linejoin: round">
<circle cx="15231110.000000" cy="11262360.000000" r="88900.000000"/> 
</g>
<g style="fill-opacity: 1.0;stroke-width: 0.100000;stroke-opacity: 1;stroke-linecap: round;stroke-linejoin: round">
<circle cx="14977110.000000" cy="11262360.000000" r="88900.000000"/> 
</g>
<g style="fill-opacity: 1.0;stroke-width: 0.100000;stroke-opacity: 1;stroke-linecap: round;stroke-linejoin: round">
<circle cx="14723110.000000" cy="11262360.000000" r="88900.000000"/> 
</g>
<g style="fill-opacity: 1.0;stroke-width: 0.100000;stroke-opacity: 1;stroke-linecap: round;stroke-linejoin: round">
<circle cx="14469110.000000" cy="11262360.000000" r="88900.000000"/> 
</g>
<g style="fill-opacity: 1.0;stroke-width: 0.100000;stroke-opacity: 1;stroke-linecap: round;stroke-linejoin: round">
<circle cx="14215110.000000" cy="11262360.000000" r="88900.000000"/> 
</g>
<g style="fill-opacity: 1.0;stroke-width: 0.100000;stroke-opacity: 1;stroke-linecap: round;stroke-linejoin: round">
<circle cx="14037310.000000" cy="10068560.000000" r="45320.000000"/> 
</g>
<g style="fill-opacity: 1.0;stroke-width: 0.100000;stroke-opacity: 1;stroke-linecap: round;stroke-linejoin: round">
<circle cx="14113510.000000" cy="10792460.000000" r="45320.000000"/> 
</g>
<g style="fill-opacity: 1.0;stroke-width: 0.100000;stroke-opacity: 1;stroke-linecap: round;stroke-linejoin: round">
<circle cx="14138910.000000" cy="9916160.000000" r="45320.000000"/> 
</g>
<g style="fill-opacity: 1.0;stroke-width: 0.100000;stroke-opacity: 1;stroke-linecap: round;stroke-linejoin: round">
<circle cx="15523210.000000" cy="10703560.000000" r="45320.000000"/> 
</g>
<g style="fill-opacity: 1.0;stroke-width: 0.100000;stroke-opacity: 1;stroke-linecap: round;stroke-linejoin: round">
<circle cx="14278610.000000" cy="11109960.000000" r="45320.000000"/> 
</g>
<g style="fill-opacity: 1.0;stroke-width: 0.100000;stroke-opacity: 1;stroke-linecap: round;stroke-linejoin: round">
<circle cx="14881860.000000" cy="10170160.000000" r="45320.000000"/> 
</g>
<g style="fill-opacity: 1.0;stroke-width: 0.100000;stroke-opacity: 1;stroke-linecap: round;stroke-linejoin: round">
<circle cx="14945360.000000" cy="10659110.000000" r="45320.000000"/> 
</g>
<g style="fill-opacity: 1.0;stroke-width: 0.100000;stroke-opacity: 1;stroke-linecap: round;stroke-linejoin: round">
<circle cx="13757910.000000" cy="10957560.000000" r="45320.000000"/> 
</g>
<g style="fill-opacity: 1.0;stroke-width: 0.100000;stroke-opacity: 1;stroke-linecap: round;stroke-linejoin: round">
<circle cx="15154910.000000" cy="10462260.000000" r="45320.000000"/> 
</g>
<g style="fill-opacity: 1.0;stroke-width: 0.100000;stroke-opacity: 1;stroke-linecap: round;stroke-linejoin: round">
<circle cx="15853410.000000" cy="10741660.000000" r="45320.000000"/> 
</g>
<g style="fill-opacity: 1.0;stroke-width: 0.100000;stroke-opacity: 1;stroke-linecap: round;stroke-linejoin: round">
<circle cx="14240510.000000" cy="10805160.000000" r="45320.000000"/> 
</g>
<g style="fill-opacity: 1.0;stroke-width: 0.100000;stroke-opacity: 1;stroke-linecap: round;stroke-linejoin: round">
<circle cx="15040610.000000" cy="10728960.000000" r="45320.000000"/> 
</g>
<g style="fill-opacity: 1.0;stroke-width: 0.100000;stroke-opacity: 1;stroke-linecap: round;stroke-linejoin: round">
<circle cx="14138910.000000" cy="10665460.000000" r="45320.000000"/> 
</g>
<g style="fill-opacity: 1.0;stroke-width: 0.100000;stroke-opacity: 1;stroke-linecap: round;stroke-linejoin: round">
<circle cx="15040610.000000" cy="10081260.000000" r="45320.000000"/> 
</g>
<g style="fill-opacity: 1.0;stroke-width: 0.100000;stroke-opacity: 1;stroke-linecap: round;stroke-linejoin: round">
<circle cx="15535910.000000" cy="11021060.000000" r="45320.000000"/> 
</g>
<g style="fill-opacity: 1.0;stroke-width: 0.100000;stroke-opacity: 1;stroke-linecap: round;stroke-linejoin: round">
<circle cx="15535910.000000" cy="9979660.000000" r="45320.000000"/> 
</g>
<g style="fill-opacity: 1.0;stroke-width: 0.100000;stroke-opacity: 1;stroke-linecap: round;stroke-linejoin: round">
<circle cx="15180310.000000" cy="11071860.000000" r="45320.000000"/> 
</g>
<g style="fill-opacity: 1.0;stroke-width: 0.100000;stroke-opacity: 1;stroke-linecap: round;stroke-linejoin: round">
<circle cx="14418310.000000" cy="9954260.000000" r="45320.000000"/> 
</g>
<g style="fill-opacity: 1.0;stroke-width: 0.100000;stroke-opacity: 1;stroke-linecap: round;stroke-linejoin: round">
<circle cx="13630910.000000" cy="10411460.000000" r="45320.000000"/> 
</g>
<g style="fill-opacity: 1.0;stroke-width: 0.100000;stroke-opacity: 1;stroke-linecap: round;stroke-linejoin: round">
<circle cx="14735810.000000" cy="10627360.000000" r="45320.000000"/> 
</g>
<g style="fill-opacity: 1.0;stroke-width: 0.100000;stroke-opacity: 1;stroke-linecap: round;stroke-linejoin: round">
<circle cx="14138910.000000" cy="10284460.000000" r="45320.000000"/> 
</g>
<g style="fill-opacity: 1.0;stroke-width: 0.100000;stroke-opacity: 1;stroke-linecap: round;stroke-linejoin: round">
<circle cx="13783310.000000" cy="10068560.000000" r="45320.000000"/> 
</g>
<g style="fill-opacity: 1.0;stroke-width: 0.100000;stroke-opacity: 1;stroke-linecap: round;stroke-linejoin: round">
<circle cx="15447010.000000" cy="10271760.000000" r="45320.000000"/> 
</g>
<g style="fill-opacity: 1.0;stroke-width: 0.100000;stroke-opacity: 1;stroke-linecap: round;stroke-linejoin: round">
<circle cx="15459710.000000" cy="10474960.000000" r="45320.000000"/> 
</g>
<g style="fill-opacity: 1.0;stroke-width: 0.100000;stroke-opacity: 1;stroke-linecap: round;stroke-linejoin: round">
<circle cx="15447010.000000" cy="10601960.000000" r="45320.000000"/> 
</g>
<g style="fill-opacity: 1.0;stroke-width: 0.100000;stroke-opacity: 1;stroke-linecap: round;stroke-linejoin: round">
<circle cx="14583410.000000" cy="10614660.000000" r="45320.000000"/> 
</g>
<g style="fill-opacity: 0.0;stroke-width: 25400.000000;stroke-opacity: 1;stroke-linecap: round;stroke-linejoin: round">
<path d="M14240510 10805160 L14316710 10881360 "/>
<path d="M15535910 10881360 L15675610 10741660 "/>
<path d="M15675610 10741660 L15853410 10741660 "/>
<path d="M14316710 10881360 L15535910 10881360 "/>
<path d="M14215110 10665460 L14138910 10665460 "/>
<path d="M14329410 10779760 L14989810 10779760 "/>
<path d="M14989810 10779760 L15040610 10728960 "/>
<path d="M14329410 10779760 L14215110 10665460 "/>
<path d="M15040610 10081260 L15040610 10728960 "/>
</g>
<g style="fill-opacity: 0.0;stroke-width: 40640.000000;stroke-opacity: 1;stroke-linecap: round;stroke-linejoin: round">
<path d="M14354810 10716260 L14138910 10500360 "/>
<path d="M14672310 10716260 L14354810 10716260 "/>
<path d="M14418310 9954260 L14354810 9954260 "/>
<path d="M14138910 10170160 L14138910 10284460 "/>
<path d="M14443710 11008360 L15167610 11008360 "/>
</g>
<g style="fill-opacity: 0.0;stroke-width: 25400.000000;stroke-opacity: 1;stroke-linecap: round;stroke-linejoin: round">
<path d="M13633924 10414474 L13630910 10411460 "/>
</g>
<g style="fill-opacity: 0.0;stroke-width: 40640.000000;stroke-opacity: 1;stroke-linecap: round;stroke-linejoin: round">
<path d="M14354810 9954260 L14138910 10170160 "/>
<path d="M14735810 10652760 L14672310 10716260 "/>
<path d="M15993110 10474960 L15535910 10017760 "/>
</g>
<g style="fill-opacity: 0.0;stroke-width: 25400.000000;stroke-opacity: 1;stroke-linecap: round;stroke-linejoin: round">
<path d="M14138910 10294495 L14138910 10284460 "/>
</g>
<g style="fill-opacity: 0.0;stroke-width: 40640.000000;stroke-opacity: 1;stroke-linecap: round;stroke-linejoin: round">
<path d="M14138910 10500360 L14138910 10411460 "/>
</g>
<g style="fill-opacity: 0.0;stroke-width: 25400.000000;stroke-opacity: 1;stroke-linecap: round;stroke-linejoin: round">
<path d="M15575579 11021060 L15535910 11021060 "/>
</g>
<g style="fill-opacity: 0.0;stroke-width: 40640.000000;stroke-opacity: 1;stroke-linecap: round;stroke-linejoin: round">
<path d="M15180310 11021060 L15535910 11021060 "/>
</g>
<g style="fill-opacity: 0.0;stroke-width: 25400.000000;stroke-opacity: 1;stroke-linecap: round;stroke-linejoin: round">
<path d="M15167610 11008360 L15180310 11021060 "/>
</g>
<g style="fill-opacity: 0.0;stroke-width: 40640.000000;stroke-opacity: 1;stroke-linecap: round;stroke-linejoin: round">
<path d="M15664479 10932160 L15575579 11021060 "/>
<path d="M14138910 10411460 L14138910 10284460 "/>
<path d="M14443710 11236960 L14469110 11262360 "/>
<path d="M15916910 10932160 L15664479 10932160 "/>
<path d="M13767595 10414474 L14135895 10414474 "/>
<path d="M13961110 11008360 L14443710 11008360 "/>
<path d="M14135895 10414474 L14138910 10411460 "/>
<path d="M13767595 10814845 L13961110 11008360 "/>
<path d="M15180310 11021060 L15180310 11071860 "/>
<path d="M14443710 11008360 L14443710 11236960 "/>
<path d="M14735810 10627360 L14735810 10652760 "/>
<path d="M15535910 10017760 L15535910 9979660 "/>
<path d="M15993110 10474960 L15993110 10855960 "/>
<path d="M13767595 10414474 L13633924 10414474 "/>
<path d="M15993110 10855960 L15916910 10932160 "/>
<path d="M13767595 10814845 L13767595 10414474 "/>
</g>
<g style="fill-opacity: 0.0;stroke-width: 25400.000000;stroke-opacity: 1;stroke-linecap: round;stroke-linejoin: round">
<path d="M15447010 9636760 L15447010 10271760 "/>
<path d="M14304010 9547860 L15358110 9547860 "/>
<path d="M15358110 9547860 L15447010 9636760 "/>
<path d="M14304010 9547860 L13783310 10068560 "/>
<path d="M15458910 10474160 L15459710 10474960 "/>
<path d="M15307310 10449060 L15332410 10474160 "/>
<path d="M15243810 10297160 L15307310 10360660 "/>
<path d="M15243810 9751060 L15243810 10297160 "/>
<path d="M15332410 10474160 L15458910 10474160 "/>
<path d="M15243810 9751060 L15231110 9738360 "/>
<path d="M15307310 10360660 L15307310 10449060 "/>
<path d="M15193010 10017760 L14977110 9801860 "/>
<path d="M14977110 9801860 L14977110 9738360 "/>
<path d="M15256510 10525760 L15256510 10398760 "/>
<path d="M15256510 10398760 L15193010 10335260 "/>
<path d="M15193010 10335260 L15193010 10017760 "/>
<path d="M15447010 10601960 L15332710 10601960 "/>
<path d="M15332710 10601960 L15256510 10525760 "/>
<path d="M14634210 10563860 L14634210 10030460 "/>
<path d="M14532610 9928860 L14532610 9801860 "/>
<path d="M14532610 9801860 L14469110 9738360 "/>
<path d="M14634210 10030460 L14532610 9928860 "/>
<path d="M14634210 10563860 L14583410 10614660 "/>
</g>
</g> 
</g><g id="substrate-silk" style="fill:#f0f0f0; stroke:#f0f0f0;" mask="url(#pads-mask-silkscreen)"><g style="fill-opacity: 0.0;stroke-width: 16002.000000;stroke-opacity: 1;stroke-linecap: round;stroke-linejoin: round">
<text x="14850110.000000" y="10553419.300000" transform="scale(-1 1) translate(-29700220.000000 0)" textLength="2368513.600000" font-size="131064.000000" lengthAdjust="spacingAndGlyphs" text-anchor="middle" opacity="0">Gyro:&#177;250/500/1000/2000&#176;/s</text>
<g class="stroked-text"><desc>Gyro:&#177;250/500/1000/2000&#176;/s</desc>
<path d="M15959473 10455121 L15968834 10450440 L15982877 10450440 L15996920 10455121 L16006281 10464483 L16010962 10473844 L16015643 10492568 L16015643 10506610 L16010962 10525334 L16006281 10534695 L15996920 10544057 L15982877 10548738 L15973515 10548738 L15959473 10544057 L15954792 10539376 L15954792 10506610 L15973515 10506610 "/>
<path d="M15922026 10483206 L15898622 10548738 "/>
<path d="M15875217 10483206 L15898622 10548738 L15907983 10572142 L15912664 10576823 L15922026 10581504 "/>
<path d="M15837770 10548738 L15837770 10483206 "/>
<path d="M15837770 10501929 L15833090 10492568 L15828409 10487887 L15819047 10483206 L15809685 10483206 "/>
<path d="M15762877 10548738 L15772238 10544057 L15776919 10539376 L15781600 10530015 L15781600 10501929 L15776919 10492568 L15772238 10487887 L15762877 10483206 L15748834 10483206 L15739472 10487887 L15734792 10492568 L15730111 10501929 L15730111 10530015 L15734792 10539376 L15739472 10544057 L15748834 10548738 L15762877 10548738 "/>
<path d="M15687983 10539376 L15683302 10544057 L15687983 10548738 L15692664 10544057 L15687983 10539376 L15687983 10548738 "/>
<path d="M15687983 10487887 L15683302 10492568 L15687983 10497249 L15692664 10492568 L15687983 10487887 L15687983 10497249 "/>
<path d="M15641174 10492568 L15566281 10492568 "/>
<path d="M15603728 10530015 L15603728 10455121 "/>
<path d="M15566281 10548738 L15641174 10548738 "/>
<path d="M15524153 10459802 L15519472 10455121 L15510110 10450440 L15486706 10450440 L15477344 10455121 L15472664 10459802 L15467983 10469163 L15467983 10478525 L15472664 10492568 L15528834 10548738 L15467983 10548738 "/>
<path d="M15379046 10450440 L15425855 10450440 L15430536 10497249 L15425855 10492568 L15416493 10487887 L15393089 10487887 L15383727 10492568 L15379046 10497249 L15374366 10506610 L15374366 10530015 L15379046 10539376 L15383727 10544057 L15393089 10548738 L15416493 10548738 L15425855 10544057 L15430536 10539376 "/>
<path d="M15313514 10450440 L15304153 10450440 L15294791 10455121 L15290110 10459802 L15285429 10469163 L15280748 10487887 L15280748 10511291 L15285429 10530015 L15290110 10539376 L15294791 10544057 L15304153 10548738 L15313514 10548738 L15322876 10544057 L15327557 10539376 L15332238 10530015 L15336919 10511291 L15336919 10487887 L15332238 10469163 L15327557 10459802 L15322876 10455121 L15313514 10450440 "/>
<path d="M15168408 10445759 L15252663 10572142 "/>
<path d="M15088833 10450440 L15135642 10450440 L15140323 10497249 L15135642 10492568 L15126280 10487887 L15102876 10487887 L15093514 10492568 L15088833 10497249 L15084152 10506610 L15084152 10530015 L15088833 10539376 L15093514 10544057 L15102876 10548738 L15126280 10548738 L15135642 10544057 L15140323 10539376 "/>
<path d="M15023301 10450440 L15013940 10450440 L15004578 10455121 L14999897 10459802 L14995216 10469163 L14990535 10487887 L14990535 10511291 L14995216 10530015 L14999897 10539376 L15004578 10544057 L15013940 10548738 L15023301 10548738 L15032663 10544057 L15037344 10539376 L15042025 10530015 L15046706 10511291 L15046706 10487887 L15042025 10469163 L15037344 10459802 L15032663 10455121 L15023301 10450440 "/>
<path d="M14929684 10450440 L14920322 10450440 L14910961 10455121 L14906280 10459802 L14901599 10469163 L14896918 10487887 L14896918 10511291 L14901599 10530015 L14906280 10539376 L14910961 10544057 L14920322 10548738 L14929684 10548738 L14939046 10544057 L14943727 10539376 L14948408 10530015 L14953088 10511291 L14953088 10487887 L14948408 10469163 L14943727 10459802 L14939046 10455121 L14929684 10450440 "/>
<path d="M14784578 10445759 L14868833 10572142 "/>
<path d="M14700322 10548738 L14756492 10548738 "/>
<path d="M14728407 10548738 L14728407 10450440 L14737769 10464483 L14747131 10473844 L14756492 10478525 "/>
<path d="M14639471 10450440 L14630109 10450440 L14620748 10455121 L14616067 10459802 L14611386 10469163 L14606705 10487887 L14606705 10511291 L14611386 10530015 L14616067 10539376 L14620748 10544057 L14630109 10548738 L14639471 10548738 L14648833 10544057 L14653514 10539376 L14658194 10530015 L14662875 10511291 L14662875 10487887 L14658194 10469163 L14653514 10459802 L14648833 10455121 L14639471 10450440 "/>
<path d="M14545854 10450440 L14536492 10450440 L14527130 10455121 L14522450 10459802 L14517769 10469163 L14513088 10487887 L14513088 10511291 L14517769 10530015 L14522450 10539376 L14527130 10544057 L14536492 10548738 L14545854 10548738 L14555216 10544057 L14559896 10539376 L14564577 10530015 L14569258 10511291 L14569258 10487887 L14564577 10469163 L14559896 10459802 L14555216 10455121 L14545854 10450440 "/>
<path d="M14452237 10450440 L14442875 10450440 L14433513 10455121 L14428832 10459802 L14424152 10469163 L14419471 10487887 L14419471 10511291 L14424152 10530015 L14428832 10539376 L14433513 10544057 L14442875 10548738 L14452237 10548738 L14461598 10544057 L14466279 10539376 L14470960 10530015 L14475641 10511291 L14475641 10487887 L14470960 10469163 L14466279 10459802 L14461598 10455121 L14452237 10450440 "/>
<path d="M14307130 10445759 L14391386 10572142 "/>
<path d="M14279045 10459802 L14274364 10455121 L14265002 10450440 L14241598 10450440 L14232236 10455121 L14227556 10459802 L14222875 10469163 L14222875 10478525 L14227556 10492568 L14283726 10548738 L14222875 10548738 "/>
<path d="M14162024 10450440 L14152662 10450440 L14143300 10455121 L14138619 10459802 L14133938 10469163 L14129258 10487887 L14129258 10511291 L14133938 10530015 L14138619 10539376 L14143300 10544057 L14152662 10548738 L14162024 10548738 L14171385 10544057 L14176066 10539376 L14180747 10530015 L14185428 10511291 L14185428 10487887 L14180747 10469163 L14176066 10459802 L14171385 10455121 L14162024 10450440 "/>
<path d="M14068406 10450440 L14059045 10450440 L14049683 10455121 L14045002 10459802 L14040321 10469163 L14035640 10487887 L14035640 10511291 L14040321 10530015 L14045002 10539376 L14049683 10544057 L14059045 10548738 L14068406 10548738 L14077768 10544057 L14082449 10539376 L14087130 10530015 L14091811 10511291 L14091811 10487887 L14087130 10469163 L14082449 10459802 L14077768 10455121 L14068406 10450440 "/>
<path d="M13974789 10450440 L13965428 10450440 L13956066 10455121 L13951385 10459802 L13946704 10469163 L13942023 10487887 L13942023 10511291 L13946704 10530015 L13951385 10539376 L13956066 10544057 L13965428 10548738 L13974789 10548738 L13984151 10544057 L13988832 10539376 L13993513 10530015 L13998194 10511291 L13998194 10487887 L13993513 10469163 L13988832 10459802 L13984151 10455121 L13974789 10450440 "/>
<path d="M13885853 10450440 L13895215 10455121 L13899896 10464483 L13895215 10473844 L13885853 10478525 L13876491 10473844 L13871810 10464483 L13876491 10455121 L13885853 10450440 "/>
<path d="M13754789 10445759 L13839044 10572142 "/>
<path d="M13726704 10544057 L13717342 10548738 L13698619 10548738 L13689257 10544057 L13684576 10534695 L13684576 10530015 L13689257 10520653 L13698619 10515972 L13712661 10515972 L13722023 10511291 L13726704 10501929 L13726704 10497249 L13722023 10487887 L13712661 10483206 L13698619 10483206 L13689257 10487887 "/>
</g><text x="14850110.000000" y="10711679.100000" transform="scale(-1 1) translate(-29700220.000000 0)" textLength="1533242.000000" font-size="131064.000000" lengthAdjust="spacingAndGlyphs" text-anchor="middle" opacity="0">Accel:&#177;2g/&#177;4g/&#177;8g</text>
<g class="stroked-text"><desc>Accel:&#177;2g/&#177;4g/&#177;8g</desc>
<path d="M15608408 10678913 L15561600 10678913 "/>
<path d="M15617770 10706998 L15585004 10608700 L15552238 10706998 "/>
<path d="M15477344 10702317 L15486706 10706998 L15505430 10706998 L15514791 10702317 L15519472 10697636 L15524153 10688274 L15524153 10660189 L15519472 10650827 L15514791 10646147 L15505430 10641466 L15486706 10641466 L15477344 10646147 "/>
<path d="M15393089 10702317 L15402451 10706998 L15421174 10706998 L15430536 10702317 L15435217 10697636 L15439898 10688274 L15439898 10660189 L15435217 10650827 L15430536 10646147 L15421174 10641466 L15402451 10641466 L15393089 10646147 "/>
<path d="M15313514 10702317 L15322876 10706998 L15341600 10706998 L15350961 10702317 L15355642 10692955 L15355642 10655508 L15350961 10646147 L15341600 10641466 L15322876 10641466 L15313514 10646147 L15308834 10655508 L15308834 10664870 L15355642 10674232 "/>
<path d="M15252663 10706998 L15262025 10702317 L15266706 10692955 L15266706 10608700 "/>
<path d="M15215216 10697636 L15210536 10702317 L15215216 10706998 L15219897 10702317 L15215216 10697636 L15215216 10706998 "/>
<path d="M15215216 10646147 L15210536 10650827 L15215216 10655508 L15219897 10650827 L15215216 10646147 L15215216 10655508 "/>
<path d="M15168408 10650827 L15093514 10650827 "/>
<path d="M15130961 10688274 L15130961 10613381 "/>
<path d="M15093514 10706998 L15168408 10706998 "/>
<path d="M15051386 10618061 L15046706 10613381 L15037344 10608700 L15013940 10608700 L15004578 10613381 L14999897 10618061 L14995216 10627423 L14995216 10636785 L14999897 10650827 L15056067 10706998 L14995216 10706998 "/>
<path d="M14910961 10641466 L14910961 10721040 L14915642 10730402 L14920322 10735083 L14929684 10739764 L14943727 10739764 L14953088 10735083 "/>
<path d="M14910961 10702317 L14920322 10706998 L14939046 10706998 L14948408 10702317 L14953088 10697636 L14957769 10688274 L14957769 10660189 L14953088 10650827 L14948408 10646147 L14939046 10641466 L14920322 10641466 L14910961 10646147 "/>
<path d="M14793939 10604019 L14878195 10730402 "/>
<path d="M14761173 10650827 L14686280 10650827 "/>
<path d="M14723726 10688274 L14723726 10613381 "/>
<path d="M14686280 10706998 L14761173 10706998 "/>
<path d="M14597343 10641466 L14597343 10706998 "/>
<path d="M14620748 10604019 L14644152 10674232 L14583301 10674232 "/>
<path d="M14503726 10641466 L14503726 10721040 L14508407 10730402 L14513088 10735083 L14522450 10739764 L14536492 10739764 L14545854 10735083 "/>
<path d="M14503726 10702317 L14513088 10706998 L14531811 10706998 L14541173 10702317 L14545854 10697636 L14550535 10688274 L14550535 10660189 L14545854 10650827 L14541173 10646147 L14531811 10641466 L14513088 10641466 L14503726 10646147 "/>
<path d="M14386705 10604019 L14470960 10730402 "/>
<path d="M14353939 10650827 L14279045 10650827 "/>
<path d="M14316492 10688274 L14316492 10613381 "/>
<path d="M14279045 10706998 L14353939 10706998 "/>
<path d="M14218194 10650827 L14227556 10646147 L14232236 10641466 L14236917 10632104 L14236917 10627423 L14232236 10618061 L14227556 10613381 L14218194 10608700 L14199470 10608700 L14190109 10613381 L14185428 10618061 L14180747 10627423 L14180747 10632104 L14185428 10641466 L14190109 10646147 L14199470 10650827 L14218194 10650827 L14227556 10655508 L14232236 10660189 L14236917 10669551 L14236917 10688274 L14232236 10697636 L14227556 10702317 L14218194 10706998 L14199470 10706998 L14190109 10702317 L14185428 10697636 L14180747 10688274 L14180747 10669551 L14185428 10660189 L14190109 10655508 L14199470 10650827 "/>
<path d="M14096492 10641466 L14096492 10721040 L14101172 10730402 L14105853 10735083 L14115215 10739764 L14129258 10739764 L14138619 10735083 "/>
<path d="M14096492 10702317 L14105853 10706998 L14124577 10706998 L14133938 10702317 L14138619 10697636 L14143300 10688274 L14143300 10660189 L14138619 10650827 L14133938 10646147 L14124577 10641466 L14105853 10641466 L14096492 10646147 "/>
</g><text x="14850110.000000" y="10869938.900000" transform="scale(-1 1) translate(-29700220.000000 0)" textLength="1065156.300000" font-size="131064.000000" lengthAdjust="spacingAndGlyphs" text-anchor="middle" opacity="0">Mag:&#177;1200 &#956;T</text>
<g class="stroked-text"><desc>Mag:&#177;1200 &#956;T</desc>
<path d="M15369685 10865258 L15369685 10766960 L15336919 10837172 L15304153 10766960 L15304153 10865258 "/>
<path d="M15215216 10865258 L15215216 10813768 L15219897 10804406 L15229259 10799726 L15247982 10799726 L15257344 10804406 "/>
<path d="M15215216 10860577 L15224578 10865258 L15247982 10865258 L15257344 10860577 L15262025 10851215 L15262025 10841853 L15257344 10832492 L15247982 10827811 L15224578 10827811 L15215216 10823130 "/>
<path d="M15126280 10799726 L15126280 10879300 L15130961 10888662 L15135642 10893343 L15145004 10898024 L15159046 10898024 L15168408 10893343 "/>
<path d="M15126280 10860577 L15135642 10865258 L15154365 10865258 L15163727 10860577 L15168408 10855896 L15173089 10846534 L15173089 10818449 L15168408 10809087 L15163727 10804406 L15154365 10799726 L15135642 10799726 L15126280 10804406 "/>
<path d="M15079472 10855896 L15074791 10860577 L15079472 10865258 L15084152 10860577 L15079472 10855896 L15079472 10865258 "/>
<path d="M15079472 10804406 L15074791 10809087 L15079472 10813768 L15084152 10809087 L15079472 10804406 L15079472 10813768 "/>
<path d="M15032663 10809087 L14957769 10809087 "/>
<path d="M14995216 10846534 L14995216 10771640 "/>
<path d="M14957769 10865258 L15032663 10865258 "/>
<path d="M14859471 10865258 L14915642 10865258 "/>
<path d="M14887556 10865258 L14887556 10766960 L14896918 10781002 L14906280 10790364 L14915642 10795045 "/>
<path d="M14822024 10776321 L14817344 10771640 L14807982 10766960 L14784578 10766960 L14775216 10771640 L14770535 10776321 L14765854 10785683 L14765854 10795045 L14770535 10809087 L14826705 10865258 L14765854 10865258 "/>
<path d="M14705003 10766960 L14695641 10766960 L14686280 10771640 L14681599 10776321 L14676918 10785683 L14672237 10804406 L14672237 10827811 L14676918 10846534 L14681599 10855896 L14686280 10860577 L14695641 10865258 L14705003 10865258 L14714365 10860577 L14719046 10855896 L14723726 10846534 L14728407 10827811 L14728407 10804406 L14723726 10785683 L14719046 10776321 L14714365 10771640 L14705003 10766960 "/>
<path d="M14611386 10766960 L14602024 10766960 L14592662 10771640 L14587982 10776321 L14583301 10785683 L14578620 10804406 L14578620 10827811 L14583301 10846534 L14587982 10855896 L14592662 10860577 L14602024 10865258 L14611386 10865258 L14620748 10860577 L14625428 10855896 L14630109 10846534 L14634790 10827811 L14634790 10804406 L14630109 10785683 L14625428 10776321 L14620748 10771640 L14611386 10766960 "/>
<path d="M14461598 10799726 L14461598 10898024 "/>
<path d="M14414790 10851215 L14410109 10860577 L14400747 10865258 "/>
<path d="M14461598 10851215 L14456918 10860577 L14447556 10865258 L14428832 10865258 L14419471 10860577 L14414790 10851215 L14414790 10799726 "/>
<path d="M14372662 10766960 L14316492 10766960 "/>
<path d="M14344577 10865258 L14344577 10766960 "/>
</g><text x="14850110.000000" y="11028198.700000" transform="scale(-1 1) translate(-29700220.000000 0)" textLength="1996646.800000" font-size="131064.000000" lengthAdjust="spacingAndGlyphs" text-anchor="middle" opacity="0">Vin:3-5VDC, 5V Logic Safe</text>
<g class="stroked-text"><desc>Vin:3-5VDC, 5V Logic Safe</desc>
<path d="M15849473 10925219 L15816707 11023517 L15783941 10925219 "/>
<path d="M15751175 11023517 L15751175 10957985 "/>
<path d="M15751175 10925219 L15755855 10929900 L15751175 10934581 L15746494 10929900 L15751175 10925219 L15751175 10934581 "/>
<path d="M15704366 10957985 L15704366 11023517 "/>
<path d="M15704366 10967347 L15699685 10962666 L15690323 10957985 L15676281 10957985 L15666919 10962666 L15662238 10972028 L15662238 11023517 "/>
<path d="M15615430 11014156 L15610749 11018836 L15615430 11023517 L15620111 11018836 L15615430 11014156 L15615430 11023517 "/>
<path d="M15615430 10962666 L15610749 10967347 L15615430 10972028 L15620111 10967347 L15615430 10962666 L15615430 10972028 "/>
<path d="M15577983 10925219 L15517132 10925219 L15549898 10962666 L15535855 10962666 L15526493 10967347 L15521813 10972028 L15517132 10981390 L15517132 11004794 L15521813 11014156 L15526493 11018836 L15535855 11023517 L15563940 11023517 L15573302 11018836 L15577983 11014156 "/>
<path d="M15475004 10986070 L15400110 10986070 "/>
<path d="M15306493 10925219 L15353302 10925219 L15357983 10972028 L15353302 10967347 L15343940 10962666 L15320536 10962666 L15311174 10967347 L15306493 10972028 L15301812 10981390 L15301812 11004794 L15306493 11014156 L15311174 11018836 L15320536 11023517 L15343940 11023517 L15353302 11018836 L15357983 11014156 "/>
<path d="M15273727 10925219 L15240961 11023517 L15208195 10925219 "/>
<path d="M15175429 11023517 L15175429 10925219 L15152025 10925219 L15137982 10929900 L15128621 10939262 L15123940 10948624 L15119259 10967347 L15119259 10981390 L15123940 11000113 L15128621 11009475 L15137982 11018836 L15152025 11023517 L15175429 11023517 "/>
<path d="M15020961 11014156 L15025642 11018836 L15039684 11023517 L15049046 11023517 L15063089 11018836 L15072450 11009475 L15077131 11000113 L15081812 10981390 L15081812 10967347 L15077131 10948624 L15072450 10939262 L15063089 10929900 L15049046 10925219 L15039684 10925219 L15025642 10929900 L15020961 10934581 "/>
<path d="M14974152 11018836 L14974152 11023517 L14978833 11032879 L14983514 11037560 "/>
<path d="M14810322 10925219 L14857131 10925219 L14861812 10972028 L14857131 10967347 L14847769 10962666 L14824365 10962666 L14815003 10967347 L14810322 10972028 L14805641 10981390 L14805641 11004794 L14810322 11014156 L14815003 11018836 L14824365 11023517 L14847769 11023517 L14857131 11018836 L14861812 11014156 "/>
<path d="M14777556 10925219 L14744790 11023517 L14712024 10925219 "/>
<path d="M14557556 11023517 L14604365 11023517 L14604365 10925219 "/>
<path d="M14510747 11023517 L14520109 11018836 L14524790 11014156 L14529471 11004794 L14529471 10976709 L14524790 10967347 L14520109 10962666 L14510747 10957985 L14496705 10957985 L14487343 10962666 L14482662 10967347 L14477981 10976709 L14477981 11004794 L14482662 11014156 L14487343 11018836 L14496705 11023517 L14510747 11023517 "/>
<path d="M14393726 10957985 L14393726 11037560 L14398407 11046922 L14403088 11051602 L14412449 11056283 L14426492 11056283 L14435854 11051602 "/>
<path d="M14393726 11018836 L14403088 11023517 L14421811 11023517 L14431173 11018836 L14435854 11014156 L14440535 11004794 L14440535 10976709 L14435854 10967347 L14431173 10962666 L14421811 10957985 L14403088 10957985 L14393726 10962666 "/>
<path d="M14346917 11023517 L14346917 10957985 "/>
<path d="M14346917 10925219 L14351598 10929900 L14346917 10934581 L14342237 10929900 L14346917 10925219 L14346917 10934581 "/>
<path d="M14257981 11018836 L14267343 11023517 L14286066 11023517 L14295428 11018836 L14300109 11014156 L14304790 11004794 L14304790 10976709 L14300109 10967347 L14295428 10962666 L14286066 10957985 L14267343 10957985 L14257981 10962666 "/>
<path d="M14145641 11018836 L14131598 11023517 L14108194 11023517 L14098832 11018836 L14094151 11014156 L14089470 11004794 L14089470 10995432 L14094151 10986070 L14098832 10981390 L14108194 10976709 L14126917 10972028 L14136279 10967347 L14140960 10962666 L14145641 10953304 L14145641 10943943 L14140960 10934581 L14136279 10929900 L14126917 10925219 L14103513 10925219 L14089470 10929900 "/>
<path d="M14005215 11023517 L14005215 10972028 L14009896 10962666 L14019257 10957985 L14037981 10957985 L14047343 10962666 "/>
<path d="M14005215 11018836 L14014577 11023517 L14037981 11023517 L14047343 11018836 L14052023 11009475 L14052023 11000113 L14047343 10990751 L14037981 10986070 L14014577 10986070 L14005215 10981390 "/>
<path d="M13972449 10957985 L13935002 10957985 "/>
<path d="M13958406 11023517 L13958406 10939262 L13953725 10929900 L13944364 10925219 L13935002 10925219 "/>
<path d="M13864789 11018836 L13874151 11023517 L13892874 11023517 L13902236 11018836 L13906917 11009475 L13906917 10972028 L13902236 10962666 L13892874 10957985 L13874151 10957985 L13864789 10962666 L13860108 10972028 L13860108 10981390 L13906917 10990751 "/>
</g></g>
<g style="fill-opacity: 0.0;stroke-width: 21336.000000;stroke-opacity: 1;stroke-linecap: round;stroke-linejoin: round">
<text x="14850110.000000" y="10117485.500000" transform="scale(-1 1) translate(-29700220.000000 0)" textLength="2238491.100000" font-size="174752.000000" lengthAdjust="spacingAndGlyphs" text-anchor="middle" opacity="0">FXOS8700+FXAS21002</text>
<g class="stroked-text"><desc>FXOS8700+FXAS21002</desc>
<path d="M15904863 10042591 L15948551 10042591 "/>
<path d="M15948551 10111244 L15948551 9980180 L15886139 9980180 "/>
<path d="M15848692 9980180 L15761316 10111244 "/>
<path d="M15761316 9980180 L15848692 10111244 "/>
<path d="M15686423 9980180 L15661458 9980180 L15648976 9986421 L15636494 9998903 L15630252 10023868 L15630252 10067556 L15636494 10092520 L15648976 10105003 L15661458 10111244 L15686423 10111244 L15698905 10105003 L15711387 10092520 L15717628 10067556 L15717628 10023868 L15711387 9998903 L15698905 9986421 L15686423 9980180 "/>
<path d="M15580323 10105003 L15561600 10111244 L15530394 10111244 L15517912 10105003 L15511671 10098762 L15505430 10086279 L15505430 10073797 L15511671 10061315 L15517912 10055074 L15530394 10048832 L15555359 10042591 L15567841 10036350 L15574082 10030109 L15580323 10017627 L15580323 10005144 L15574082 9992662 L15567841 9986421 L15555359 9980180 L15524153 9980180 L15505430 9986421 "/>
<path d="M15430536 10036350 L15443018 10030109 L15449259 10023868 L15455500 10011386 L15455500 10005144 L15449259 9992662 L15443018 9986421 L15430536 9980180 L15405571 9980180 L15393089 9986421 L15386848 9992662 L15380607 10005144 L15380607 10011386 L15386848 10023868 L15393089 10030109 L15405571 10036350 L15430536 10036350 L15443018 10042591 L15449259 10048832 L15455500 10061315 L15455500 10086279 L15449259 10098762 L15443018 10105003 L15430536 10111244 L15405571 10111244 L15393089 10105003 L15386848 10098762 L15380607 10086279 L15380607 10061315 L15386848 10048832 L15393089 10042591 L15405571 10036350 "/>
<path d="M15336919 9980180 L15249543 9980180 L15305713 10111244 "/>
<path d="M15174649 9980180 L15162167 9980180 L15149684 9986421 L15143443 9992662 L15137202 10005144 L15130961 10030109 L15130961 10061315 L15137202 10086279 L15143443 10098762 L15149684 10105003 L15162167 10111244 L15174649 10111244 L15187131 10105003 L15193372 10098762 L15199614 10086279 L15205855 10061315 L15205855 10030109 L15199614 10005144 L15193372 9992662 L15187131 9986421 L15174649 9980180 "/>
<path d="M15049826 9980180 L15037344 9980180 L15024862 9986421 L15018620 9992662 L15012379 10005144 L15006138 10030109 L15006138 10061315 L15012379 10086279 L15018620 10098762 L15024862 10105003 L15037344 10111244 L15049826 10111244 L15062308 10105003 L15068550 10098762 L15074791 10086279 L15081032 10061315 L15081032 10030109 L15074791 10005144 L15068550 9992662 L15062308 9986421 L15049826 9980180 "/>
<path d="M14949968 10061315 L14850110 10061315 "/>
<path d="M14900039 10111244 L14900039 10011386 "/>
<path d="M14744010 10042591 L14787698 10042591 "/>
<path d="M14787698 10111244 L14787698 9980180 L14725287 9980180 "/>
<path d="M14687840 9980180 L14600464 10111244 "/>
<path d="M14600464 9980180 L14687840 10111244 "/>
<path d="M14556776 10073797 L14494364 10073797 "/>
<path d="M14569258 10111244 L14525570 9980180 L14481882 10111244 "/>
<path d="M14444435 10105003 L14425712 10111244 L14394506 10111244 L14382024 10105003 L14375783 10098762 L14369542 10086279 L14369542 10073797 L14375783 10061315 L14382024 10055074 L14394506 10048832 L14419471 10042591 L14431953 10036350 L14438194 10030109 L14444435 10017627 L14444435 10005144 L14438194 9992662 L14431953 9986421 L14419471 9980180 L14388265 9980180 L14369542 9986421 "/>
<path d="M14319612 9992662 L14313371 9986421 L14300889 9980180 L14269683 9980180 L14257201 9986421 L14250960 9992662 L14244719 10005144 L14244719 10017627 L14250960 10036350 L14325854 10111244 L14244719 10111244 "/>
<path d="M14119896 10111244 L14194790 10111244 "/>
<path d="M14157343 10111244 L14157343 9980180 L14169825 9998903 L14182307 10011386 L14194790 10017627 "/>
<path d="M14038761 9980180 L14026279 9980180 L14013796 9986421 L14007555 9992662 L14001314 10005144 L13995073 10030109 L13995073 10061315 L14001314 10086279 L14007555 10098762 L14013796 10105003 L14026279 10111244 L14038761 10111244 L14051243 10105003 L14057484 10098762 L14063726 10086279 L14069967 10061315 L14069967 10030109 L14063726 10005144 L14057484 9992662 L14051243 9986421 L14038761 9980180 "/>
<path d="M13913938 9980180 L13901456 9980180 L13888974 9986421 L13882732 9992662 L13876491 10005144 L13870250 10030109 L13870250 10061315 L13876491 10086279 L13882732 10098762 L13888974 10105003 L13901456 10111244 L13913938 10111244 L13926420 10105003 L13932662 10098762 L13938903 10086279 L13945144 10061315 L13945144 10030109 L13938903 10005144 L13932662 9992662 L13926420 9986421 L13913938 9980180 "/>
<path d="M13820321 9992662 L13814080 9986421 L13801598 9980180 L13770392 9980180 L13757910 9986421 L13751668 9992662 L13745427 10005144 L13745427 10017627 L13751668 10036350 L13826562 10111244 L13745427 10111244 "/>
</g><text x="14850110.000000" y="10328498.500000" transform="scale(-1 1) translate(-29700220.000000 0)" textLength="1844606.100000" font-size="174752.000000" lengthAdjust="spacingAndGlyphs" text-anchor="middle" opacity="0">I2C 9 DoF Sensors</text>
<g class="stroked-text"><desc>I2C 9 DoF Sensors</desc>
<path d="M15755075 10322257 L15755075 10191193 "/>
<path d="M15698905 10203675 L15692664 10197434 L15680182 10191193 L15648976 10191193 L15636494 10197434 L15630252 10203675 L15624011 10216157 L15624011 10228640 L15630252 10247363 L15705146 10322257 L15624011 10322257 "/>
<path d="M15492947 10309775 L15499188 10316016 L15517912 10322257 L15530394 10322257 L15549118 10316016 L15561600 10303533 L15567841 10291051 L15574082 10266087 L15574082 10247363 L15567841 10222399 L15561600 10209916 L15549118 10197434 L15530394 10191193 L15517912 10191193 L15499188 10197434 L15492947 10203675 "/>
<path d="M15330678 10322257 L15305713 10322257 L15293231 10316016 L15286990 10309775 L15274507 10291051 L15268266 10266087 L15268266 10216157 L15274507 10203675 L15280748 10197434 L15293231 10191193 L15318195 10191193 L15330678 10197434 L15336919 10203675 L15343160 10216157 L15343160 10247363 L15336919 10259845 L15330678 10266087 L15318195 10272328 L15293231 10272328 L15280748 10266087 L15274507 10259845 L15268266 10247363 "/>
<path d="M15112238 10322257 L15112238 10191193 L15081032 10191193 L15062308 10197434 L15049826 10209916 L15043585 10222399 L15037344 10247363 L15037344 10266087 L15043585 10291051 L15049826 10303533 L15062308 10316016 L15081032 10322257 L15112238 10322257 "/>
<path d="M14962450 10322257 L14974932 10316016 L14981174 10309775 L14987415 10297292 L14987415 10259845 L14981174 10247363 L14974932 10241122 L14962450 10234881 L14943727 10234881 L14931244 10241122 L14925003 10247363 L14918762 10259845 L14918762 10297292 L14925003 10309775 L14931244 10316016 L14943727 10322257 L14962450 10322257 "/>
<path d="M14818904 10253604 L14862592 10253604 "/>
<path d="M14862592 10322257 L14862592 10191193 L14800180 10191193 "/>
<path d="M14656634 10316016 L14637911 10322257 L14606705 10322257 L14594223 10316016 L14587982 10309775 L14581740 10297292 L14581740 10284810 L14587982 10272328 L14594223 10266087 L14606705 10259845 L14631670 10253604 L14644152 10247363 L14650393 10241122 L14656634 10228640 L14656634 10216157 L14650393 10203675 L14644152 10197434 L14631670 10191193 L14600464 10191193 L14581740 10197434 "/>
<path d="M14475641 10316016 L14488123 10322257 L14513088 10322257 L14525570 10316016 L14531811 10303533 L14531811 10253604 L14525570 10241122 L14513088 10234881 L14488123 10234881 L14475641 10241122 L14469400 10253604 L14469400 10266087 L14531811 10278569 "/>
<path d="M14413230 10234881 L14413230 10322257 "/>
<path d="M14413230 10247363 L14406988 10241122 L14394506 10234881 L14375783 10234881 L14363300 10241122 L14357059 10253604 L14357059 10322257 "/>
<path d="M14300889 10316016 L14288407 10322257 L14263442 10322257 L14250960 10316016 L14244719 10303533 L14244719 10297292 L14250960 10284810 L14263442 10278569 L14282166 10278569 L14294648 10272328 L14300889 10259845 L14300889 10253604 L14294648 10241122 L14282166 10234881 L14263442 10234881 L14250960 10241122 "/>
<path d="M14169825 10322257 L14182307 10316016 L14188548 10309775 L14194790 10297292 L14194790 10259845 L14188548 10247363 L14182307 10241122 L14169825 10234881 L14151102 10234881 L14138619 10241122 L14132378 10247363 L14126137 10259845 L14126137 10297292 L14132378 10309775 L14138619 10316016 L14151102 10322257 L14169825 10322257 "/>
<path d="M14069967 10322257 L14069967 10234881 "/>
<path d="M14069967 10259845 L14063726 10247363 L14057484 10241122 L14045002 10234881 L14032520 10234881 "/>
<path d="M13995073 10316016 L13982591 10322257 L13957626 10322257 L13945144 10316016 L13938903 10303533 L13938903 10297292 L13945144 10284810 L13957626 10278569 L13976350 10278569 L13988832 10272328 L13995073 10259845 L13995073 10253604 L13988832 10241122 L13976350 10234881 L13957626 10234881 L13945144 10241122 "/>
</g></g>
<g style="fill-opacity: 0.0;stroke-width: 20320.000000;stroke-opacity: 1;stroke-linecap: round;stroke-linejoin: round">
<text x="13666470.000000" y="10792460.000000" transform="scale(-1 1) translate(-27332940.000000 0)" textLength="297383.200000" font-size="108373.300000" lengthAdjust="spacingAndGlyphs" text-anchor="start" opacity="0">&gt;REV</text>
<g class="stroked-text"><desc>&gt;REV</desc>
<path d="M13633909 10734402 L13571982 10757625 L13633909 10780848 "/>
<path d="M13486831 10788589 L13513924 10749884 "/>
<path d="M13533277 10788589 L13533277 10707309 L13502313 10707309 L13494572 10711180 L13490702 10715050 L13486831 10722791 L13486831 10734402 L13490702 10742143 L13494572 10746014 L13502313 10749884 L13533277 10749884 "/>
<path d="M13451997 10746014 L13424903 10746014 "/>
<path d="M13413292 10788589 L13451997 10788589 L13451997 10707309 L13413292 10707309 "/>
<path d="M13390069 10707309 L13362976 10788589 L13335882 10707309 "/>
</g></g>
<g style="fill-opacity: 0.0;stroke-width: 30480.000000;stroke-opacity: 1;stroke-linecap: round;stroke-linejoin: round">
<circle cx="13630910.000000" cy="10741660.000000" r="89800.000000"/> 
</g> 
</g><g id="substrate-outline" style="fill:#000000; stroke:#000000; stroke-width: 15000.0"><g style="fill-opacity: 0.0;stroke-opacity: 1;stroke-linecap: round;stroke-linejoin: round">
<path d="M13453110 11262360 L13453110 9738360 "/>
<path d="M13707110.000000 9484360.000000 A254000.000000 254000.000000 0.0 0 0 13453110.000000 9738360.000000"/>
<path d="M13453110.000000 11262360.000000 A254000.000000 254000.000000 0.0 0 0 13707110.000000 11516360.000000"/>
<path d="M16247110.000000 9738360.000000 A254000.000000 254000.000000 0.0 0 0 15993110.000000 9484360.000000"/>
<path d="M15993110.000000 11516360.000000 A254000.000000 254000.000000 0.0 0 0 16247110.000000 11262360.000000"/>
<path d="M15993110 11516360 L13707110 11516360 "/>
<path d="M16247110 9738360 L16247110 11262360 "/>
<path d="M13707110 9484360 L15993110 9484360 "/>
</g> 
<path d="M -125000.0 0.0 A 125000.0 125000.0 0 1 1 125000.0 0.0 L 125000.0 -0.0 A 125000.0 125000.0 0 1 1 -125000.0 -0.0 Z" transform="translate(13707110.0 9738360.0) rotate(-0.0)"/><path d="M -125000.0 0.0 A 125000.0 125000.0 0 1 1 125000.0 0.0 L 125000.0 -0.0 A 125000.0 125000.0 0 1 1 -125000.0 -0.0 Z" transform="translate(15993110.0 11262360.0) rotate(-0.0)"/><path d="M -125000.0 0.0 A 125000.0 125000.0 0 1 1 125000.0 0.0 L 125000.0 -0.0 A 125000.0 125000.0 0 1 1 -125000.0 -0.0 Z" transform="translate(15993110.0 9738360.0) rotate(-0.0)"/><path d="M -50000.0 0.0 A 50000.0 50000.0 0 1 1 50000.0 0.0 L 50000.0 -0.0 A 50000.0 50000.0 0 1 1 -50000.0 -0.0 Z" transform="translate(15231110.0 9738360.0) rotate(-270.0)"/><path d="M -50000.0 0.0 A 50000.0 50000.0 0 1 1 50000.0 0.0 L 50000.0 -0.0 A 50000.0 50000.0 0 1 1 -50000.0 -0.0 Z" transform="translate(14977110.0 9738360.0) rotate(-270.0)"/><path d="M -50000.0 0.0 A 50000.0 50000.0 0 1 1 50000.0 0.0 L 50000.0 -0.0 A 50000.0 50000.0 0 1 1 -50000.0 -0.0 Z" transform="translate(14723110.0 9738360.0) rotate(-270.0)"/><path d="M -50000.0 0.0 A 50000.0 50000.0 0 1 1 50000.0 0.0 L 50000.0 -0.0 A 50000.0 50000.0 0 1 1 -50000.0 -0.0 Z" transform="translate(14469110.0 9738360.0) rotate(-270.0)"/><path d="M -125000.0 0.0 A 125000.0 125000.0 0 1 1 125000.0 0.0 L 125000.0 -0.0 A 125000.0 125000.0 0 1 1 -125000.0 -0.0 Z" transform="translate(13707110.0 11262360.0) rotate(-0.0)"/><path d="M -50000.0 0.0 A 50000.0 50000.0 0 1 1 50000.0 0.0 L 50000.0 -0.0 A 50000.0 50000.0 0 1 1 -50000.0 -0.0 Z" transform="translate(15485110.0 11262360.0) rotate(-270.0)"/><path d="M -50000.0 0.0 A 50000.0 50000.0 0 1 1 50000.0 0.0 L 50000.0 -0.0 A 50000.0 50000.0 0 1 1 -50000.0 -0.0 Z" transform="translate(15231110.0 11262360.0) rotate(-270.0)"/><path d="M -50000.0 0.0 A 50000.0 50000.0 0 1 1 50000.0 0.0 L 50000.0 -0.0 A 50000.0 50000.0 0 1 1 -50000.0 -0.0 Z" transform="translate(14977110.0 11262360.0) rotate(-270.0)"/><path d="M -50000.0 0.0 A 50000.0 50000.0 0 1 1 50000.0 0.0 L 50000.0 -0.0 A 50000.0 50000.0 0 1 1 -50000.0 -0.0 Z" transform="translate(14723110.0 11262360.0) rotate(-270.0)"/><path d="M -50000.0 0.0 A 50000.0 50000.0 0 1 1 50000.0 0.0 L 50000.0 -0.0 A 50000.0 50000.0 0 1 1 -50000.0 -0.0 Z" transform="translate(14469110.0 11262360.0) rotate(-270.0)"/><path d="M -50000.0 0.0 A 50000.0 50000.0 0 1 1 50000.0 0.0 L 50000.0 -0.0 A 50000.0 50000.0 0 1 1 -50000.0 -0.0 Z" transform="translate(14215110.0 11262360.0) rotate(-270.0)"/><path d="M -25000.0 0.0 A 25000.0 25000.0 0 1 1 25000.0 0.0 L 25000.0 -0.0 A 25000.0 25000.0 0 1 1 -25000.0 -0.0 Z" transform="translate(14037310.0 10068560.0) rotate(0.0)"/><path d="M -25000.0 0.0 A 25000.0 25000.0 0 1 1 25000.0 0.0 L 25000.0 -0.0 A 25000.0 25000.0 0 1 1 -25000.0 -0.0 Z" transform="translate(14113510.0 10792460.0) rotate(0.0)"/><path d="M -25000.0 0.0 A 25000.0 25000.0 0 1 1 25000.0 0.0 L 25000.0 -0.0 A 25000.0 25000.0 0 1 1 -25000.0 -0.0 Z" transform="translate(14138910.0 9916160.0) rotate(0.0)"/><path d="M -25000.0 0.0 A 25000.0 25000.0 0 1 1 25000.0 0.0 L 25000.0 -0.0 A 25000.0 25000.0 0 1 1 -25000.0 -0.0 Z" transform="translate(15523210.0 10703560.0) rotate(0.0)"/><path d="M -25000.0 0.0 A 25000.0 25000.0 0 1 1 25000.0 0.0 L 25000.0 -0.0 A 25000.0 25000.0 0 1 1 -25000.0 -0.0 Z" transform="translate(14278610.0 11109960.0) rotate(0.0)"/><path d="M -25000.0 0.0 A 25000.0 25000.0 0 1 1 25000.0 0.0 L 25000.0 -0.0 A 25000.0 25000.0 0 1 1 -25000.0 -0.0 Z" transform="translate(14881860.0 10170160.0) rotate(0.0)"/><path d="M -25000.0 0.0 A 25000.0 25000.0 0 1 1 25000.0 0.0 L 25000.0 -0.0 A 25000.0 25000.0 0 1 1 -25000.0 -0.0 Z" transform="translate(14945360.0 10659110.0) rotate(0.0)"/><path d="M -25000.0 0.0 A 25000.0 25000.0 0 1 1 25000.0 0.0 L 25000.0 -0.0 A 25000.0 25000.0 0 1 1 -25000.0 -0.0 Z" transform="translate(13757910.0 10957560.0) rotate(0.0)"/><path d="M -25000.0 0.0 A 25000.0 25000.0 0 1 1 25000.0 0.0 L 25000.0 -0.0 A 25000.0 25000.0 0 1 1 -25000.0 -0.0 Z" transform="translate(15154910.0 10462260.0) rotate(0.0)"/><path d="M -25000.0 0.0 A 25000.0 25000.0 0 1 1 25000.0 0.0 L 25000.0 -0.0 A 25000.0 25000.0 0 1 1 -25000.0 -0.0 Z" transform="translate(15853410.0 10741660.0) rotate(0.0)"/><path d="M -25000.0 0.0 A 25000.0 25000.0 0 1 1 25000.0 0.0 L 25000.0 -0.0 A 25000.0 25000.0 0 1 1 -25000.0 -0.0 Z" transform="translate(14240510.0 10805160.0) rotate(0.0)"/><path d="M -25000.0 0.0 A 25000.0 25000.0 0 1 1 25000.0 0.0 L 25000.0 -0.0 A 25000.0 25000.0 0 1 1 -25000.0 -0.0 Z" transform="translate(15040610.0 10728960.0) rotate(0.0)"/><path d="M -25000.0 0.0 A 25000.0 25000.0 0 1 1 25000.0 0.0 L 25000.0 -0.0 A 25000.0 25000.0 0 1 1 -25000.0 -0.0 Z" transform="translate(14138910.0 10665460.0) rotate(0.0)"/><path d="M -25000.0 0.0 A 25000.0 25000.0 0 1 1 25000.0 0.0 L 25000.0 -0.0 A 25000.0 25000.0 0 1 1 -25000.0 -0.0 Z" transform="translate(15040610.0 10081260.0) rotate(0.0)"/><path d="M -25000.0 0.0 A 25000.0 25000.0 0 1 1 25000.0 0.0 L 25000.0 -0.0 A 25000.0 25000.0 0 1 1 -25000.0 -0.0 Z" transform="translate(15535910.0 11021060.0) rotate(0.0)"/><path d="M -25000.0 0.0 A 25000.0 25000.0 0 1 1 25000.0 0.0 L 25000.0 -0.0 A 25000.0 25000.0 0 1 1 -25000.0 -0.0 Z" transform="translate(15535910.0 9979660.0) rotate(0.0)"/><path d="M -25000.0 0.0 A 25000.0 25000.0 0 1 1 25000.0 0.0 L 25000.0 -0.0 A 25000.0 25000.0 0 1 1 -25000.0 -0.0 Z" transform="translate(15180310.0 11071860.0) rotate(0.0)"/><path d="M -25000.0 0.0 A 25000.0 25000.0 0 1 1 25000.0 0.0 L 25000.0 -0.0 A 25000.0 25000.0 0 1 1 -25000.0 -0.0 Z" transform="translate(14418310.0 9954260.0) rotate(0.0)"/><path d="M -25000.0 0.0 A 25000.0 25000.0 0 1 1 25000.0 0.0 L 25000.0 -0.0 A 25000.0 25000.0 0 1 1 -25000.0 -0.0 Z" transform="translate(13630910.0 10411460.0) rotate(0.0)"/><path d="M -25000.0 0.0 A 25000.0 25000.0 0 1 1 25000.0 0.0 L 25000.0 -0.0 A 25000.0 25000.0 0 1 1 -25000.0 -0.0 Z" transform="translate(14735810.0 10627360.0) rotate(0.0)"/><path d="M -25000.0 0.0 A 25000.0 25000.0 0 1 1 25000.0 0.0 L 25000.0 -0.0 A 25000.0 25000.0 0 1 1 -25000.0 -0.0 Z" transform="translate(14138910.0 10284460.0) rotate(0.0)"/><path d="M -25000.0 0.0 A 25000.0 25000.0 0 1 1 25000.0 0.0 L 25000.0 -0.0 A 25000.0 25000.0 0 1 1 -25000.0 -0.0 Z" transform="translate(13783310.0 10068560.0) rotate(0.0)"/><path d="M -25000.0 0.0 A 25000.0 25000.0 0 1 1 25000.0 0.0 L 25000.0 -0.0 A 25000.0 25000.0 0 1 1 -25000.0 -0.0 Z" transform="translate(15447010.0 10271760.0) rotate(0.0)"/><path d="M -25000.0 0.0 A 25000.0 25000.0 0 1 1 25000.0 0.0 L 25000.0 -0.0 A 25000.0 25000.0 0 1 1 -25000.0 -0.0 Z" transform="translate(15459710.0 10474960.0) rotate(0.0)"/><path d="M -25000.0 0.0 A 25000.0 25000.0 0 1 1 25000.0 0.0 L 25000.0 -0.0 A 25000.0 25000.0 0 1 1 -25000.0 -0.0 Z" transform="translate(15447010.0 10601960.0) rotate(0.0)"/><path d="M -25000.0 0.0 A 25000.0 25000.0 0 1 1 25000.0 0.0 L 25000.0 -0.0 A 25000.0 25000.0 0 1 1 -25000.0 -0.0 Z" transform="translate(14583410.0 10614660.0) rotate(0.0)"/></g></g></g></svg>