<!DOCTYPE svg PUBLIC "-//W3C//DTD SVG 1.1//EN" "http://www.w3.org/Graphics/SVG/1.1/DTD/svg11.dtd">
<svg xmlns="http://www.w3.org/2000/svg" version="1.1" width="72.358mm" height="56.356mm" viewBox="-18468010.0 7682560.0 7235800.0 5635600.0">
            <title>Picture generated by PcbDraw </title>
            <desc>Picture generated by PcbDraw</desc>
        <defs><clipPath id="cut-off"><path d=" M 11332210.0 7782560.0 L 11332210.0 13218160.0 L 18368010.0 13218160.0 L 18368010.0 7782560.0 L 11332210.0 7782560.0  M 16234410.0 9001760.0 L 16234410.0 11998960.0 L 16894810.0 11998960.0 L 16894810.0 9001760.0 L 16234410.0 9001760.0 " style="fill-rule: evenodd;"/></clipPath><mask id="pads-mask"><g style="fill:#ffffff; fill-opacity:0.0;  stroke:#ffffff; stroke-width:0.000000; stroke-opacity:1;  stroke-linecap:round; stroke-linejoin:round;">
<g style="fill:#ffffff; fill-opacity:1.0;  stroke:#ffffff; stroke-width:0.100000; stroke-opacity:1;  stroke-linecap:round; stroke-linejoin:round;">
<circle cx="17872710.000000" cy="10754360.000000" r="100000.000000"/> 
</g>
<g style="fill:#ffffff; fill-opacity:1.0;  stroke:#ffffff; stroke-width:0.100000; stroke-opacity:1;  stroke-linecap:round; stroke-linejoin:round;">
<circle cx="17872710.000000" cy="10500360.000000" r="100000.000000"/> 
</g>
</g> 
</mask><mask id="pads-mask-silkscreen"><rect x="9677276.7" y="5272750.0" width="11424600.1" height="8999652.2" fill="white"/><g style="fill:#000000; fill-opacity:0.0;  stroke:#000000; stroke-width:0.000000; stroke-opacity:1;  stroke-linecap:round; stroke-linejoin:round;">
<g style="fill:#000000; fill-opacity:1.0;  stroke:#000000; stroke-width:0.100000; stroke-opacity:1;  stroke-linecap:round; stroke-linejoin:round;">
<circle cx="17872710.000000" cy="10754360.000000" r="100000.000000"/> 
</g>
<g style="fill:#000000; fill-opacity:1.0;  stroke:#000000; stroke-width:0.100000; stroke-opacity:1;  stroke-linecap:round; stroke-linejoin:round;">
<circle cx="17872710.000000" cy="10500360.000000" r="100000.000000"/> 
</g>
</g> 
</mask><mask id="hole-mask"><g><rect x="9677276.7" y="5272750.0" fill="white" width="11424600.1" height="8999652.2"/><polyline stroke-linecap="round" stroke="black" stroke-width="200000.0" points="-0.0 0 0.0 0" transform="translate(17872710.0 10754360.0) rotate(-0.0)"/><polyline stroke-linecap="round" stroke="black" stroke-width="200000.0" points="-0.0 0 0.0 0" transform="translate(17872710.0 10500360.0) rotate(-0.0)"/><polyline stroke-linecap="round" stroke="black" stroke-width="50000.0" points="-0.0 0 0.0 0" transform="translate(14913610.0 9077960.0) rotate(0.0)"/><polyline stroke-linecap="round" stroke="black" stroke-width="50000.0" points="-0.0 0 0.0 0" transform="translate(14659610.0 11262360.0) rotate(0.0)"/><polyline stroke-linecap="round" stroke="black" stroke-width="50000.0" points="-0.0 0 0.0 0" transform="translate(14329410.0 11236960.0) rotate(0.0)"/><polyline stroke-linecap="round" stroke="black" stroke-width="50000.0" points="-0.0 0 0.0 0" transform="translate(15726410.0 9382760.0) rotate(0.0)"/><polyline stroke-linecap="round" stroke="black" stroke-width="50000.0" points="-0.0 0 0.0 0" transform="translate(11586210.0 10170160.0) rotate(0.0)"/><polyline stroke-linecap="round" stroke="black" stroke-width="50000.0" points="-0.0 0 0.0 0" transform="translate(15548610.0 8950960.0) rotate(0.0)"/><polyline stroke-linecap="round" stroke="black" stroke-width="50000.0" points="-0.0 0 0.0 0" transform="translate(11687810.0 9712960.0) rotate(0.0)"/><polyline stroke-linecap="round" stroke="black" stroke-width="50000.0" points="-0.0 0 0.0 0" transform="translate(15218410.0 9712960.0) rotate(0.0)"/><polyline stroke-linecap="round" stroke="black" stroke-width="50000.0" points="-0.0 0 0.0 0" transform="translate(16209010.0 12202160.0) rotate(0.0)"/><polyline stroke-linecap="round" stroke="black" stroke-width="50000.0" points="-0.0 0 0.0 0" transform="translate(15421610.0 9128760.0) rotate(0.0)"/><polyline stroke-linecap="round" stroke="black" stroke-width="50000.0" points="-0.0 0 0.0 0" transform="translate(14151610.0 9839960.0) rotate(0.0)"/><polyline stroke-linecap="round" stroke="black" stroke-width="50000.0" points="-0.0 0 0.0 0" transform="translate(14583410.0 9712960.0) rotate(0.0)"/><polyline stroke-linecap="round" stroke="black" stroke-width="50000.0" points="-0.0 0 0.0 0" transform="translate(14888210.0 9992360.0) rotate(0.0)"/><polyline stroke-linecap="round" stroke="black" stroke-width="50000.0" points="-0.0 0 0.0 0" transform="translate(15904210.0 11440160.0) rotate(0.0)"/><polyline stroke-linecap="round" stroke="black" stroke-width="50000.0" points="-0.0 0 0.0 0" transform="translate(14939010.0 12075160.0) rotate(0.0)"/><polyline stroke-linecap="round" stroke="black" stroke-width="50000.0" points="-0.0 0 0.0 0" transform="translate(15828010.0 8493760.0) rotate(0.0)"/><polyline stroke-linecap="round" stroke="black" stroke-width="50000.0" points="-0.0 0 0.0 0" transform="translate(17453610.0 11719560.0) rotate(0.0)"/><polyline stroke-linecap="round" stroke="black" stroke-width="50000.0" points="-0.0 0 0.0 0" transform="translate(17047210.0 11719560.0) rotate(0.0)"/><polyline stroke-linecap="round" stroke="black" stroke-width="50000.0" points="-0.0 0 0.0 0" transform="translate(16513810.0 12735560.0) rotate(0.0)"/><polyline stroke-linecap="round" stroke="black" stroke-width="50000.0" points="-0.0 0 0.0 0" transform="translate(14100810.0 10982960.0) rotate(0.0)"/><polyline stroke-linecap="round" stroke="black" stroke-width="50000.0" points="-0.0 0 0.0 0" transform="translate(13542010.0 10297160.0) rotate(0.0)"/><polyline stroke-linecap="round" stroke="black" stroke-width="50000.0" points="-0.0 0 0.0 0" transform="translate(14354810.0 10322560.0) rotate(0.0)"/><polyline stroke-linecap="round" stroke="black" stroke-width="50000.0" points="-0.0 0 0.0 0" transform="translate(13821410.0 10195560.0) rotate(0.0)"/><polyline stroke-linecap="round" stroke="black" stroke-width="50000.0" points="-0.0 0 0.0 0" transform="translate(14354810.0 10449560.0) rotate(0.0)"/><polyline stroke-linecap="round" stroke="black" stroke-width="50000.0" points="-0.0 0 0.0 0" transform="translate(14304010.0 10576560.0) rotate(0.0)"/><polyline stroke-linecap="round" stroke="black" stroke-width="50000.0" points="-0.0 0 0.0 0" transform="translate(15167610.0 10170160.0) rotate(0.0)"/><polyline stroke-linecap="round" stroke="black" stroke-width="50000.0" points="-0.0 0 0.0 0" transform="translate(15040610.0 10043160.0) rotate(0.0)"/><polyline stroke-linecap="round" stroke="black" stroke-width="50000.0" points="-0.0 0 0.0 0" transform="translate(14329410.0 10093960.0) rotate(0.0)"/><polyline stroke-linecap="round" stroke="black" stroke-width="50000.0" points="-0.0 0 0.0 0" transform="translate(14812010.0 10678160.0) rotate(0.0)"/><polyline stroke-linecap="round" stroke="black" stroke-width="50000.0" points="-0.0 0 0.0 0" transform="translate(15751810.0 9839960.0) rotate(0.0)"/><polyline stroke-linecap="round" stroke="black" stroke-width="50000.0" points="-0.0 0 0.0 0" transform="translate(15802610.0 11186160.0) rotate(0.0)"/><polyline stroke-linecap="round" stroke="black" stroke-width="50000.0" points="-0.0 0 0.0 0" transform="translate(14532610.0 8823960.0) rotate(0.0)"/><polyline stroke-linecap="round" stroke="black" stroke-width="50000.0" points="-0.0 0 0.0 0" transform="translate(12983210.0 8696960.0) rotate(0.0)"/><polyline stroke-linecap="round" stroke="black" stroke-width="50000.0" points="-0.0 0 0.0 0" transform="translate(12272010.0 12456160.0) rotate(0.0)"/><polyline stroke-linecap="round" stroke="black" stroke-width="50000.0" points="-0.0 0 0.0 0" transform="translate(16336010.0 8493760.0) rotate(0.0)"/><polyline stroke-linecap="round" stroke="black" stroke-width="50000.0" points="-0.0 0 0.0 0" transform="translate(14380210.0 10703560.0) rotate(0.0)"/><polyline stroke-linecap="round" stroke="black" stroke-width="50000.0" points="-0.0 0 0.0 0" transform="translate(14329410.0 10957560.0) rotate(0.0)"/><polyline stroke-linecap="round" stroke="black" stroke-width="50000.0" points="-0.0 0 0.0 0" transform="translate(15218410.0 12811760.0) rotate(0.0)"/><polyline stroke-linecap="round" stroke="black" stroke-width="50000.0" points="-0.0 0 0.0 0" transform="translate(13846810.0 10068560.0) rotate(0.0)"/><polyline stroke-linecap="round" stroke="black" stroke-width="50000.0" points="-0.0 0 0.0 0" transform="translate(16132810.0 8569960.0) rotate(0.0)"/><polyline stroke-linecap="round" stroke="black" stroke-width="50000.0" points="-0.0 0 0.0 0" transform="translate(14812010.0 10195560.0) rotate(0.0)"/><polyline stroke-linecap="round" stroke="black" stroke-width="50000.0" points="-0.0 0 0.0 0" transform="translate(14989810.0 10373360.0) rotate(0.0)"/><polyline stroke-linecap="round" stroke="black" stroke-width="50000.0" points="-0.0 0 0.0 0" transform="translate(18114010.0 10754360.0) rotate(0.0)"/><polyline stroke-linecap="round" stroke="black" stroke-width="50000.0" points="-0.0 0 0.0 0" transform="translate(18114010.0 11059160.0) rotate(0.0)"/><polyline stroke-linecap="round" stroke="black" stroke-width="50000.0" points="-0.0 0 0.0 0" transform="translate(14532610.0 13040360.0) rotate(0.0)"/><polyline stroke-linecap="round" stroke="black" stroke-width="50000.0" points="-0.0 0 0.0 0" transform="translate(17225010.0 12379960.0) rotate(0.0)"/><polyline stroke-linecap="round" stroke="black" stroke-width="50000.0" points="-0.0 0 0.0 0" transform="translate(14735810.0 12786360.0) rotate(0.0)"/><polyline stroke-linecap="round" stroke="black" stroke-width="50000.0" points="-0.0 0 0.0 0" transform="translate(17428210.0 12532360.0) rotate(0.0)"/><polyline stroke-linecap="round" stroke="black" stroke-width="50000.0" points="-0.0 0 0.0 0" transform="translate(15066010.0 13014960.0) rotate(0.0)"/><polyline stroke-linecap="round" stroke="black" stroke-width="50000.0" points="-0.0 0 0.0 0" transform="translate(17682210.0 12506960.0) rotate(0.0)"/><polyline stroke-linecap="round" stroke="black" stroke-width="50000.0" points="-0.0 0 0.0 0" transform="translate(15777210.0 12506960.0) rotate(0.0)"/><polyline stroke-linecap="round" stroke="black" stroke-width="50000.0" points="-0.0 0 0.0 0" transform="translate(13592810.0 9636760.0) rotate(0.0)"/></g></mask></defs><g transform="scale(-1,1)" id="boardContainer"><g id="substrate" clip-path="url(#cut-off)" mask="url(#hole-mask)"><g id="substrate-board" style="fill:#4ca06c; stroke:#4ca06c;"><path d=" M 11332210.0 7782560.0 L 11332210.0 13218160.0 L 18368010.0 13218160.0 L 18368010.0 7782560.0 L 11332210.0 7782560.0  M 16234410.0 9001760.0 L 16234410.0 11998960.0 L 16894810.0 11998960.0 L 16894810.0 9001760.0 L 16234410.0 9001760.0 " style="fill-rule: evenodd;"/><g style="fill-opacity: 0.0;stroke-width: 5000.000000;stroke-opacity: 1;stroke-linecap: round;stroke-linejoin: round">
<path d="M18368010 7782560 L11332210 7782560 "/>
<path d="M11332210 7782560 L11332210 13218160 "/>
<path d="M16894810 9001760 L16234410 9001760 "/>
<path d="M11332210 13218160 L18368010 13218160 "/>
<path d="M18368010 13218160 L18368010 7782560 "/>
<path d="M16894810 11998960 L16894810 9001760 "/>
<path d="M16234410 9001760 L16234410 11998960 "/>
<path d="M16234410 11998960 L16894810 11998960 "/>
</g> 
</g><g id="substrate-clad" style="fill:#9c6b28; stroke:#9c6b28;"><g style="fill-opacity: 0.0;stroke-width: 0.000000;stroke-opacity: 1;stroke-linecap: round;stroke-linejoin: round">
<g style="fill-opacity: 1.0;stroke-width: 0.100000;stroke-opacity: 1;stroke-linecap: round;stroke-linejoin: round">
<circle cx="17872710.000000" cy="10754360.000000" r="100000.000000"/> 
</g>
<g style="fill-opacity: 1.0;stroke-width: 0.100000;stroke-opacity: 1;stroke-linecap: round;stroke-linejoin: round">
<circle cx="17872710.000000" cy="10500360.000000" r="100000.000000"/> 
</g>
</g> 
</g><g id="substrate-copper" style="fill:#417e5a; stroke:#417e5a;"><g style="fill-opacity: 0.0;stroke-width: 0.000000;stroke-opacity: 1;stroke-linecap: round;stroke-linejoin: round">
<g style="fill-opacity: 1.0;stroke-width: 0.100000;stroke-opacity: 1;stroke-linecap: round;stroke-linejoin: round">
<circle cx="14913610.000000" cy="9077960.000000" r="45320.000000"/> 
</g>
<g style="fill-opacity: 1.0;stroke-width: 0.100000;stroke-opacity: 1;stroke-linecap: round;stroke-linejoin: round">
<circle cx="14659610.000000" cy="11262360.000000" r="45320.000000"/> 
</g>
<g style="fill-opacity: 1.0;stroke-width: 0.100000;stroke-opacity: 1;stroke-linecap: round;stroke-linejoin: round">
<circle cx="14329410.000000" cy="11236960.000000" r="45320.000000"/> 
</g>
<g style="fill-opacity: 1.0;stroke-width: 0.100000;stroke-opacity: 1;stroke-linecap: round;stroke-linejoin: round">
<circle cx="15726410.000000" cy="9382760.000000" r="45320.000000"/> 
</g>
<g style="fill-opacity: 1.0;stroke-width: 0.100000;stroke-opacity: 1;stroke-linecap: round;stroke-linejoin: round">
<circle cx="11586210.000000" cy="10170160.000000" r="45320.000000"/> 
</g>
<g style="fill-opacity: 1.0;stroke-width: 0.100000;stroke-opacity: 1;stroke-linecap: round;stroke-linejoin: round">
<circle cx="15548610.000000" cy="8950960.000000" r="45320.000000"/> 
</g>
<g style="fill-opacity: 1.0;stroke-width: 0.100000;stroke-opacity: 1;stroke-linecap: round;stroke-linejoin: round">
<circle cx="11687810.000000" cy="9712960.000000" r="45320.000000"/> 
</g>
<g style="fill-opacity: 1.0;stroke-width: 0.100000;stroke-opacity: 1;stroke-linecap: round;stroke-linejoin: round">
<circle cx="15218410.000000" cy="9712960.000000" r="45320.000000"/> 
</g>
<g style="fill-opacity: 1.0;stroke-width: 0.100000;stroke-opacity: 1;stroke-linecap: round;stroke-linejoin: round">
<circle cx="16209010.000000" cy="12202160.000000" r="45320.000000"/> 
</g>
<g style="fill-opacity: 1.0;stroke-width: 0.100000;stroke-opacity: 1;stroke-linecap: round;stroke-linejoin: round">
<circle cx="15421610.000000" cy="9128760.000000" r="45320.000000"/> 
</g>
<g style="fill-opacity: 1.0;stroke-width: 0.100000;stroke-opacity: 1;stroke-linecap: round;stroke-linejoin: round">
<circle cx="14151610.000000" cy="9839960.000000" r="45320.000000"/> 
</g>
<g style="fill-opacity: 1.0;stroke-width: 0.100000;stroke-opacity: 1;stroke-linecap: round;stroke-linejoin: round">
<circle cx="14583410.000000" cy="9712960.000000" r="45320.000000"/> 
</g>
<g style="fill-opacity: 1.0;stroke-width: 0.100000;stroke-opacity: 1;stroke-linecap: round;stroke-linejoin: round">
<circle cx="14888210.000000" cy="9992360.000000" r="45320.000000"/> 
</g>
<g style="fill-opacity: 1.0;stroke-width: 0.100000;stroke-opacity: 1;stroke-linecap: round;stroke-linejoin: round">
<circle cx="15904210.000000" cy="11440160.000000" r="45320.000000"/> 
</g>
<g style="fill-opacity: 1.0;stroke-width: 0.100000;stroke-opacity: 1;stroke-linecap: round;stroke-linejoin: round">
<circle cx="14939010.000000" cy="12075160.000000" r="45320.000000"/> 
</g>
<g style="fill-opacity: 1.0;stroke-width: 0.100000;stroke-opacity: 1;stroke-linecap: round;stroke-linejoin: round">
<circle cx="15828010.000000" cy="8493760.000000" r="45320.000000"/> 
</g>
<g style="fill-opacity: 1.0;stroke-width: 0.100000;stroke-opacity: 1;stroke-linecap: round;stroke-linejoin: round">
<circle cx="17453610.000000" cy="11719560.000000" r="45320.000000"/> 
</g>
<g style="fill-opacity: 1.0;stroke-width: 0.100000;stroke-opacity: 1;stroke-linecap: round;stroke-linejoin: round">
<circle cx="17047210.000000" cy="11719560.000000" r="45320.000000"/> 
</g>
<g style="fill-opacity: 1.0;stroke-width: 0.100000;stroke-opacity: 1;stroke-linecap: round;stroke-linejoin: round">
<circle cx="16513810.000000" cy="12735560.000000" r="45320.000000"/> 
</g>
<g style="fill-opacity: 1.0;stroke-width: 0.100000;stroke-opacity: 1;stroke-linecap: round;stroke-linejoin: round">
<circle cx="14100810.000000" cy="10982960.000000" r="45320.000000"/> 
</g>
<g style="fill-opacity: 1.0;stroke-width: 0.100000;stroke-opacity: 1;stroke-linecap: round;stroke-linejoin: round">
<circle cx="13542010.000000" cy="10297160.000000" r="45320.000000"/> 
</g>
<g style="fill-opacity: 1.0;stroke-width: 0.100000;stroke-opacity: 1;stroke-linecap: round;stroke-linejoin: round">
<circle cx="14354810.000000" cy="10322560.000000" r="45320.000000"/> 
</g>
<g style="fill-opacity: 1.0;stroke-width: 0.100000;stroke-opacity: 1;stroke-linecap: round;stroke-linejoin: round">
<circle cx="13821410.000000" cy="10195560.000000" r="45320.000000"/> 
</g>
<g style="fill-opacity: 1.0;stroke-width: 0.100000;stroke-opacity: 1;stroke-linecap: round;stroke-linejoin: round">
<circle cx="14354810.000000" cy="10449560.000000" r="45320.000000"/> 
</g>
<g style="fill-opacity: 1.0;stroke-width: 0.100000;stroke-opacity: 1;stroke-linecap: round;stroke-linejoin: round">
<circle cx="14304010.000000" cy="10576560.000000" r="45320.000000"/> 
</g>
<g style="fill-opacity: 1.0;stroke-width: 0.100000;stroke-opacity: 1;stroke-linecap: round;stroke-linejoin: round">
<circle cx="15167610.000000" cy="10170160.000000" r="45320.000000"/> 
</g>
<g style="fill-opacity: 1.0;stroke-width: 0.100000;stroke-opacity: 1;stroke-linecap: round;stroke-linejoin: round">
<circle cx="15040610.000000" cy="10043160.000000" r="45320.000000"/> 
</g>
<g style="fill-opacity: 1.0;stroke-width: 0.100000;stroke-opacity: 1;stroke-linecap: round;stroke-linejoin: round">
<circle cx="14329410.000000" cy="10093960.000000" r="45320.000000"/> 
</g>
<g style="fill-opacity: 1.0;stroke-width: 0.100000;stroke-opacity: 1;stroke-linecap: round;stroke-linejoin: round">
<circle cx="14812010.000000" cy="10678160.000000" r="45320.000000"/> 
</g>
<g style="fill-opacity: 1.0;stroke-width: 0.100000;stroke-opacity: 1;stroke-linecap: round;stroke-linejoin: round">
<circle cx="15751810.000000" cy="9839960.000000" r="45320.000000"/> 
</g>
<g style="fill-opacity: 1.0;stroke-width: 0.100000;stroke-opacity: 1;stroke-linecap: round;stroke-linejoin: round">
<circle cx="15802610.000000" cy="11186160.000000" r="45320.000000"/> 
</g>
<g style="fill-opacity: 1.0;stroke-width: 0.100000;stroke-opacity: 1;stroke-linecap: round;stroke-linejoin: round">
<circle cx="14532610.000000" cy="8823960.000000" r="45320.000000"/> 
</g>
<g style="fill-opacity: 1.0;stroke-width: 0.100000;stroke-opacity: 1;stroke-linecap: round;stroke-linejoin: round">
<circle cx="12983210.000000" cy="8696960.000000" r="45320.000000"/> 
</g>
<g style="fill-opacity: 1.0;stroke-width: 0.100000;stroke-opacity: 1;stroke-linecap: round;stroke-linejoin: round">
<circle cx="12272010.000000" cy="12456160.000000" r="45320.000000"/> 
</g>
<g style="fill-opacity: 1.0;stroke-width: 0.100000;stroke-opacity: 1;stroke-linecap: round;stroke-linejoin: round">
<circle cx="16336010.000000" cy="8493760.000000" r="45320.000000"/> 
</g>
<g style="fill-opacity: 1.0;stroke-width: 0.100000;stroke-opacity: 1;stroke-linecap: round;stroke-linejoin: round">
<circle cx="14380210.000000" cy="10703560.000000" r="45320.000000"/> 
</g>
<g style="fill-opacity: 1.0;stroke-width: 0.100000;stroke-opacity: 1;stroke-linecap: round;stroke-linejoin: round">
<circle cx="14329410.000000" cy="10957560.000000" r="45320.000000"/> 
</g>
<g style="fill-opacity: 1.0;stroke-width: 0.100000;stroke-opacity: 1;stroke-linecap: round;stroke-linejoin: round">
<circle cx="15218410.000000" cy="12811760.000000" r="45320.000000"/> 
</g>
<g style="fill-opacity: 1.0;stroke-width: 0.100000;stroke-opacity: 1;stroke-linecap: round;stroke-linejoin: round">
<circle cx="13846810.000000" cy="10068560.000000" r="45320.000000"/> 
</g>
<g style="fill-opacity: 1.0;stroke-width: 0.100000;stroke-opacity: 1;stroke-linecap: round;stroke-linejoin: round">
<circle cx="16132810.000000" cy="8569960.000000" r="45320.000000"/> 
</g>
<g style="fill-opacity: 1.0;stroke-width: 0.100000;stroke-opacity: 1;stroke-linecap: round;stroke-linejoin: round">
<circle cx="14812010.000000" cy="10195560.000000" r="45320.000000"/> 
</g>
<g style="fill-opacity: 1.0;stroke-width: 0.100000;stroke-opacity: 1;stroke-linecap: round;stroke-linejoin: round">
<circle cx="14989810.000000" cy="10373360.000000" r="45320.000000"/> 
</g>
<g style="fill-opacity: 1.0;stroke-width: 0.100000;stroke-opacity: 1;stroke-linecap: round;stroke-linejoin: round">
<circle cx="18114010.000000" cy="10754360.000000" r="45320.000000"/> 
</g>
<g style="fill-opacity: 1.0;stroke-width: 0.100000;stroke-opacity: 1;stroke-linecap: round;stroke-linejoin: round">
<circle cx="18114010.000000" cy="11059160.000000" r="45320.000000"/> 
</g>
<g style="fill-opacity: 1.0;stroke-width: 0.100000;stroke-opacity: 1;stroke-linecap: round;stroke-linejoin: round">
<circle cx="14532610.000000" cy="13040360.000000" r="45320.000000"/> 
</g>
<g style="fill-opacity: 1.0;stroke-width: 0.100000;stroke-opacity: 1;stroke-linecap: round;stroke-linejoin: round">
<circle cx="17225010.000000" cy="12379960.000000" r="45320.000000"/> 
</g>
<g style="fill-opacity: 1.0;stroke-width: 0.100000;stroke-opacity: 1;stroke-linecap: round;stroke-linejoin: round">
<circle cx="14735810.000000" cy="12786360.000000" r="45320.000000"/> 
</g>
<g style="fill-opacity: 1.0;stroke-width: 0.100000;stroke-opacity: 1;stroke-linecap: round;stroke-linejoin: round">
<circle cx="17428210.000000" cy="12532360.000000" r="45320.000000"/> 
</g>
<g style="fill-opacity: 1.0;stroke-width: 0.100000;stroke-opacity: 1;stroke-linecap: round;stroke-linejoin: round">
<circle cx="15066010.000000" cy="13014960.000000" r="45320.000000"/> 
</g>
<g style="fill-opacity: 1.0;stroke-width: 0.100000;stroke-opacity: 1;stroke-linecap: round;stroke-linejoin: round">
<circle cx="17682210.000000" cy="12506960.000000" r="45320.000000"/> 
</g>
<g style="fill-opacity: 1.0;stroke-width: 0.100000;stroke-opacity: 1;stroke-linecap: round;stroke-linejoin: round">
<circle cx="15777210.000000" cy="12506960.000000" r="45320.000000"/> 
</g>
<g style="fill-opacity: 1.0;stroke-width: 0.100000;stroke-opacity: 1;stroke-linecap: round;stroke-linejoin: round">
<circle cx="13592810.000000" cy="9636760.000000" r="45320.000000"/> 
</g>
<g style="fill-opacity: 0.0;stroke-width: 40640.000000;stroke-opacity: 1;stroke-linecap: round;stroke-linejoin: round">
<path d="M14354810 11262360 L14329410 11236960 "/>
</g>
<g style="fill-opacity: 0.0;stroke-width: 60960.000000;stroke-opacity: 1;stroke-linecap: round;stroke-linejoin: round">
<path d="M11586210 9712960 L11586210 10170160 "/>
<path d="M11687810 9712960 L11586210 9712960 "/>
<path d="M14913610 9077960 L15040610 8950960 "/>
</g>
<g style="fill-opacity: 0.0;stroke-width: 25400.000000;stroke-opacity: 1;stroke-linecap: round;stroke-linejoin: round">
<path d="M15726410 9128760 L15548610 8950960 "/>
<path d="M15726410 9382760 L15726410 9128760 "/>
</g>
<g style="fill-opacity: 0.0;stroke-width: 60960.000000;stroke-opacity: 1;stroke-linecap: round;stroke-linejoin: round">
<path d="M15040610 8950960 L15548610 8950960 "/>
</g>
<g style="fill-opacity: 0.0;stroke-width: 40640.000000;stroke-opacity: 1;stroke-linecap: round;stroke-linejoin: round">
<path d="M14659610 11262360 L14354810 11262360 "/>
</g>
<g style="fill-opacity: 0.0;stroke-width: 25400.000000;stroke-opacity: 1;stroke-linecap: round;stroke-linejoin: round">
<path d="M16005810 9763760 L15853410 9611360 "/>
<path d="M15218410 9712960 L15167610 9712960 "/>
<path d="M15675610 11211560 L15675610 10906760 "/>
<path d="M15904210 11440160 L16056610 11592560 "/>
<path d="M16056610 12049760 L16209010 12202160 "/>
<path d="M15167610 9712960 L14888210 9992360 "/>
<path d="M15218410 9331960 L15218410 9712960 "/>
<path d="M15320010 9611360 L15218410 9712960 "/>
<path d="M15904210 11440160 L15675610 11211560 "/>
<path d="M14583410 9712960 L14862810 9992360 "/>
<path d="M14151610 9839960 L14278610 9712960 "/>
<path d="M15853410 9611360 L15320010 9611360 "/>
<path d="M14278610 9712960 L14583410 9712960 "/>
<path d="M14862810 9992360 L14888210 9992360 "/>
<path d="M16005810 10576560 L16005810 9763760 "/>
<path d="M16056610 11592560 L16056610 12049760 "/>
<path d="M15421610 9128760 L15218410 9331960 "/>
<path d="M15675610 10906760 L16005810 10576560 "/>
</g>
<g style="fill-opacity: 0.0;stroke-width: 40640.000000;stroke-opacity: 1;stroke-linecap: round;stroke-linejoin: round">
<path d="M16158210 8823960 L15828010 8493760 "/>
<path d="M15726410 12633960 L16132810 12633960 "/>
<path d="M14939010 12075160 L15167610 12075160 "/>
<path d="M15167610 12075160 L15726410 12633960 "/>
<path d="M16310610 12456160 L16132810 12633960 "/>
<path d="M16310610 12151360 L16310610 12456160 "/>
<path d="M16158210 8823960 L16158210 11998960 "/>
<path d="M16158210 11998960 L16310610 12151360 "/>
</g>
<g style="fill-opacity: 0.0;stroke-width: 25400.000000;stroke-opacity: 1;stroke-linecap: round;stroke-linejoin: round">
<path d="M17047210 11719560 L17453610 11719560 "/>
<path d="M14481810 10855960 L14837410 11211560 "/>
<path d="M14837410 11211560 L14837410 12278360 "/>
<path d="M14100810 10982960 L14227810 10855960 "/>
<path d="M14227810 10855960 L14481810 10855960 "/>
<path d="M15294610 12735560 L16513810 12735560 "/>
<path d="M14837410 12278360 L15294610 12735560 "/>
<path d="M13567410 10322560 L14354810 10322560 "/>
<path d="M13542010 10297160 L13567410 10322560 "/>
<path d="M13821410 10195560 L14405610 10195560 "/>
<path d="M14481810 10398760 L14431010 10449560 "/>
<path d="M14481810 10271760 L14481810 10398760 "/>
<path d="M14405610 10195560 L14481810 10271760 "/>
<path d="M14431010 10449560 L14354810 10449560 "/>
<path d="M14939010 10576560 L15167610 10347960 "/>
<path d="M14304010 10576560 L14939010 10576560 "/>
<path d="M15167610 10347960 L15167610 10170160 "/>
<path d="M14989810 10093960 L14329410 10093960 "/>
<path d="M15040610 10043160 L14989810 10093960 "/>
<path d="M14913610 10678160 L15751810 9839960 "/>
<path d="M14812010 10678160 L14913610 10678160 "/>
<path d="M16082010 8950960 L15955010 8823960 "/>
<path d="M15955010 8823960 L14532610 8823960 "/>
<path d="M16082010 10906760 L16082010 8950960 "/>
<path d="M15802610 11186160 L16082010 10906760 "/>
</g>
<g style="fill-opacity: 0.0;stroke-width: 40640.000000;stroke-opacity: 1;stroke-linecap: round;stroke-linejoin: round">
<path d="M12272010 9408160 L12983210 8696960 "/>
<path d="M12272010 12456160 L12272010 9408160 "/>
</g>
<g style="fill-opacity: 0.0;stroke-width: 25400.000000;stroke-opacity: 1;stroke-linecap: round;stroke-linejoin: round">
<path d="M14278610 8315960 L13770610 8823960 "/>
<path d="M13719810 10703560 L14380210 10703560 "/>
<path d="M13770610 9890760 L13440410 10220960 "/>
<path d="M13770610 8823960 L13770610 9890760 "/>
<path d="M13440410 10424160 L13719810 10703560 "/>
<path d="M16336010 8493760 L16158210 8315960 "/>
<path d="M16158210 8315960 L14278610 8315960 "/>
<path d="M13440410 10220960 L13440410 10424160 "/>
<path d="M14786610 12379960 L14786610 11236960 "/>
<path d="M14786610 12379960 L15218410 12811760 "/>
<path d="M14507210 10957560 L14329410 10957560 "/>
<path d="M14786610 11236960 L14507210 10957560 "/>
<path d="M14456410 8392160 L13872210 8976360 "/>
<path d="M13872210 8976360 L13872210 9890760 "/>
<path d="M16132810 8569960 L15955010 8392160 "/>
<path d="M15955010 8392160 L14456410 8392160 "/>
<path d="M13872210 9890760 L13846810 9916160 "/>
<path d="M13846810 9916160 L13846810 10068560 "/>
<path d="M14989810 10373360 L14812010 10195560 "/>
<path d="M18114010 11059160 L18114010 10754360 "/>
<path d="M17860010 12379960 L17225010 12379960 "/>
<path d="M17301210 13116560 L17860010 12557760 "/>
<path d="M17860010 12557760 L17860010 12379960 "/>
<path d="M14608810 13116560 L17301210 13116560 "/>
<path d="M14532610 13040360 L14608810 13116560 "/>
<path d="M15167610 12938760 L15015210 12786360 "/>
<path d="M15015210 12786360 L14735810 12786360 "/>
<path d="M17021810 12938760 L15167610 12938760 "/>
<path d="M17428210 12532360 L17021810 12938760 "/>
<path d="M17174210 13014960 L15066010 13014960 "/>
<path d="M17682210 12506960 L17174210 13014960 "/>
<path d="M13338810 10220960 L13338810 10449560 "/>
<path d="M13338810 10449560 L13694410 10805160 "/>
<path d="M15777210 12049760 L15777210 12506960 "/>
<path d="M13592810 9636760 L13592810 9966960 "/>
<path d="M13592810 9966960 L13338810 10220960 "/>
<path d="M13694410 10805160 L14532610 10805160 "/>
<path d="M14532610 10805160 L15777210 12049760 "/>
</g>
</g> 
</g><g id="substrate-pads" style="fill:#b5ae30; stroke:#b5ae30;" mask="url(#pads-mask)"><g style="fill-opacity: 0.0;stroke-width: 0.000000;stroke-opacity: 1;stroke-linecap: round;stroke-linejoin: round">
<g style="fill-opacity: 1.0;stroke-width: 0.100000;stroke-opacity: 1;stroke-linecap: round;stroke-linejoin: round">
<circle cx="14913610.000000" cy="9077960.000000" r="45320.000000"/> 
</g>
<g style="fill-opacity: 1.0;stroke-width: 0.100000;stroke-opacity: 1;stroke-linecap: round;stroke-linejoin: round">
<circle cx="14659610.000000" cy="11262360.000000" r="45320.000000"/> 
</g>
<g style="fill-opacity: 1.0;stroke-width: 0.100000;stroke-opacity: 1;stroke-linecap: round;stroke-linejoin: round">
<circle cx="14329410.000000" cy="11236960.000000" r="45320.000000"/> 
</g>
<g style="fill-opacity: 1.0;stroke-width: 0.100000;stroke-opacity: 1;stroke-linecap: round;stroke-linejoin: round">
<circle cx="15726410.000000" cy="9382760.000000" r="45320.000000"/> 
</g>
<g style="fill-opacity: 1.0;stroke-width: 0.100000;stroke-opacity: 1;stroke-linecap: round;stroke-linejoin: round">
<circle cx="11586210.000000" cy="10170160.000000" r="45320.000000"/> 
</g>
<g style="fill-opacity: 1.0;stroke-width: 0.100000;stroke-opacity: 1;stroke-linecap: round;stroke-linejoin: round">
<circle cx="15548610.000000" cy="8950960.000000" r="45320.000000"/> 
</g>
<g style="fill-opacity: 1.0;stroke-width: 0.100000;stroke-opacity: 1;stroke-linecap: round;stroke-linejoin: round">
<circle cx="11687810.000000" cy="9712960.000000" r="45320.000000"/> 
</g>
<g style="fill-opacity: 1.0;stroke-width: 0.100000;stroke-opacity: 1;stroke-linecap: round;stroke-linejoin: round">
<circle cx="15218410.000000" cy="9712960.000000" r="45320.000000"/> 
</g>
<g style="fill-opacity: 1.0;stroke-width: 0.100000;stroke-opacity: 1;stroke-linecap: round;stroke-linejoin: round">
<circle cx="16209010.000000" cy="12202160.000000" r="45320.000000"/> 
</g>
<g style="fill-opacity: 1.0;stroke-width: 0.100000;stroke-opacity: 1;stroke-linecap: round;stroke-linejoin: round">
<circle cx="15421610.000000" cy="9128760.000000" r="45320.000000"/> 
</g>
<g style="fill-opacity: 1.0;stroke-width: 0.100000;stroke-opacity: 1;stroke-linecap: round;stroke-linejoin: round">
<circle cx="14151610.000000" cy="9839960.000000" r="45320.000000"/> 
</g>
<g style="fill-opacity: 1.0;stroke-width: 0.100000;stroke-opacity: 1;stroke-linecap: round;stroke-linejoin: round">
<circle cx="14583410.000000" cy="9712960.000000" r="45320.000000"/> 
</g>
<g style="fill-opacity: 1.0;stroke-width: 0.100000;stroke-opacity: 1;stroke-linecap: round;stroke-linejoin: round">
<circle cx="14888210.000000" cy="9992360.000000" r="45320.000000"/> 
</g>
<g style="fill-opacity: 1.0;stroke-width: 0.100000;stroke-opacity: 1;stroke-linecap: round;stroke-linejoin: round">
<circle cx="15904210.000000" cy="11440160.000000" r="45320.000000"/> 
</g>
<g style="fill-opacity: 1.0;stroke-width: 0.100000;stroke-opacity: 1;stroke-linecap: round;stroke-linejoin: round">
<circle cx="14939010.000000" cy="12075160.000000" r="45320.000000"/> 
</g>
<g style="fill-opacity: 1.0;stroke-width: 0.100000;stroke-opacity: 1;stroke-linecap: round;stroke-linejoin: round">
<circle cx="15828010.000000" cy="8493760.000000" r="45320.000000"/> 
</g>
<g style="fill-opacity: 1.0;stroke-width: 0.100000;stroke-opacity: 1;stroke-linecap: round;stroke-linejoin: round">
<circle cx="17453610.000000" cy="11719560.000000" r="45320.000000"/> 
</g>
<g style="fill-opacity: 1.0;stroke-width: 0.100000;stroke-opacity: 1;stroke-linecap: round;stroke-linejoin: round">
<circle cx="17047210.000000" cy="11719560.000000" r="45320.000000"/> 
</g>
<g style="fill-opacity: 1.0;stroke-width: 0.100000;stroke-opacity: 1;stroke-linecap: round;stroke-linejoin: round">
<circle cx="16513810.000000" cy="12735560.000000" r="45320.000000"/> 
</g>
<g style="fill-opacity: 1.0;stroke-width: 0.100000;stroke-opacity: 1;stroke-linecap: round;stroke-linejoin: round">
<circle cx="14100810.000000" cy="10982960.000000" r="45320.000000"/> 
</g>
<g style="fill-opacity: 1.0;stroke-width: 0.100000;stroke-opacity: 1;stroke-linecap: round;stroke-linejoin: round">
<circle cx="13542010.000000" cy="10297160.000000" r="45320.000000"/> 
</g>
<g style="fill-opacity: 1.0;stroke-width: 0.100000;stroke-opacity: 1;stroke-linecap: round;stroke-linejoin: round">
<circle cx="14354810.000000" cy="10322560.000000" r="45320.000000"/> 
</g>
<g style="fill-opacity: 1.0;stroke-width: 0.100000;stroke-opacity: 1;stroke-linecap: round;stroke-linejoin: round">
<circle cx="13821410.000000" cy="10195560.000000" r="45320.000000"/> 
</g>
<g style="fill-opacity: 1.0;stroke-width: 0.100000;stroke-opacity: 1;stroke-linecap: round;stroke-linejoin: round">
<circle cx="14354810.000000" cy="10449560.000000" r="45320.000000"/> 
</g>
<g style="fill-opacity: 1.0;stroke-width: 0.100000;stroke-opacity: 1;stroke-linecap: round;stroke-linejoin: round">
<circle cx="14304010.000000" cy="10576560.000000" r="45320.000000"/> 
</g>
<g style="fill-opacity: 1.0;stroke-width: 0.100000;stroke-opacity: 1;stroke-linecap: round;stroke-linejoin: round">
<circle cx="15167610.000000" cy="10170160.000000" r="45320.000000"/> 
</g>
<g style="fill-opacity: 1.0;stroke-width: 0.100000;stroke-opacity: 1;stroke-linecap: round;stroke-linejoin: round">
<circle cx="15040610.000000" cy="10043160.000000" r="45320.000000"/> 
</g>
<g style="fill-opacity: 1.0;stroke-width: 0.100000;stroke-opacity: 1;stroke-linecap: round;stroke-linejoin: round">
<circle cx="14329410.000000" cy="10093960.000000" r="45320.000000"/> 
</g>
<g style="fill-opacity: 1.0;stroke-width: 0.100000;stroke-opacity: 1;stroke-linecap: round;stroke-linejoin: round">
<circle cx="14812010.000000" cy="10678160.000000" r="45320.000000"/> 
</g>
<g style="fill-opacity: 1.0;stroke-width: 0.100000;stroke-opacity: 1;stroke-linecap: round;stroke-linejoin: round">
<circle cx="15751810.000000" cy="9839960.000000" r="45320.000000"/> 
</g>
<g style="fill-opacity: 1.0;stroke-width: 0.100000;stroke-opacity: 1;stroke-linecap: round;stroke-linejoin: round">
<circle cx="15802610.000000" cy="11186160.000000" r="45320.000000"/> 
</g>
<g style="fill-opacity: 1.0;stroke-width: 0.100000;stroke-opacity: 1;stroke-linecap: round;stroke-linejoin: round">
<circle cx="14532610.000000" cy="8823960.000000" r="45320.000000"/> 
</g>
<g style="fill-opacity: 1.0;stroke-width: 0.100000;stroke-opacity: 1;stroke-linecap: round;stroke-linejoin: round">
<circle cx="12983210.000000" cy="8696960.000000" r="45320.000000"/> 
</g>
<g style="fill-opacity: 1.0;stroke-width: 0.100000;stroke-opacity: 1;stroke-linecap: round;stroke-linejoin: round">
<circle cx="12272010.000000" cy="12456160.000000" r="45320.000000"/> 
</g>
<g style="fill-opacity: 1.0;stroke-width: 0.100000;stroke-opacity: 1;stroke-linecap: round;stroke-linejoin: round">
<circle cx="16336010.000000" cy="8493760.000000" r="45320.000000"/> 
</g>
<g style="fill-opacity: 1.0;stroke-width: 0.100000;stroke-opacity: 1;stroke-linecap: round;stroke-linejoin: round">
<circle cx="14380210.000000" cy="10703560.000000" r="45320.000000"/> 
</g>
<g style="fill-opacity: 1.0;stroke-width: 0.100000;stroke-opacity: 1;stroke-linecap: round;stroke-linejoin: round">
<circle cx="14329410.000000" cy="10957560.000000" r="45320.000000"/> 
</g>
<g style="fill-opacity: 1.0;stroke-width: 0.100000;stroke-opacity: 1;stroke-linecap: round;stroke-linejoin: round">
<circle cx="15218410.000000" cy="12811760.000000" r="45320.000000"/> 
</g>
<g style="fill-opacity: 1.0;stroke-width: 0.100000;stroke-opacity: 1;stroke-linecap: round;stroke-linejoin: round">
<circle cx="13846810.000000" cy="10068560.000000" r="45320.000000"/> 
</g>
<g style="fill-opacity: 1.0;stroke-width: 0.100000;stroke-opacity: 1;stroke-linecap: round;stroke-linejoin: round">
<circle cx="16132810.000000" cy="8569960.000000" r="45320.000000"/> 
</g>
<g style="fill-opacity: 1.0;stroke-width: 0.100000;stroke-opacity: 1;stroke-linecap: round;stroke-linejoin: round">
<circle cx="14812010.000000" cy="10195560.000000" r="45320.000000"/> 
</g>
<g style="fill-opacity: 1.0;stroke-width: 0.100000;stroke-opacity: 1;stroke-linecap: round;stroke-linejoin: round">
<circle cx="14989810.000000" cy="10373360.000000" r="45320.000000"/> 
</g>
<g style="fill-opacity: 1.0;stroke-width: 0.100000;stroke-opacity: 1;stroke-linecap: round;stroke-linejoin: round">
<circle cx="18114010.000000" cy="10754360.000000" r="45320.000000"/> 
</g>
<g style="fill-opacity: 1.0;stroke-width: 0.100000;stroke-opacity: 1;stroke-linecap: round;stroke-linejoin: round">
<circle cx="18114010.000000" cy="11059160.000000" r="45320.000000"/> 
</g>
<g style="fill-opacity: 1.0;stroke-width: 0.100000;stroke-opacity: 1;stroke-linecap: round;stroke-linejoin: round">
<circle cx="14532610.000000" cy="13040360.000000" r="45320.000000"/> 
</g>
<g style="fill-opacity: 1.0;stroke-width: 0.100000;stroke-opacity: 1;stroke-linecap: round;stroke-linejoin: round">
<circle cx="17225010.000000" cy="12379960.000000" r="45320.000000"/> 
</g>
<g style="fill-opacity: 1.0;stroke-width: 0.100000;stroke-opacity: 1;stroke-linecap: round;stroke-linejoin: round">
<circle cx="14735810.000000" cy="12786360.000000" r="45320.000000"/> 
</g>
<g style="fill-opacity: 1.0;stroke-width: 0.100000;stroke-opacity: 1;stroke-linecap: round;stroke-linejoin: round">
<circle cx="17428210.000000" cy="12532360.000000" r="45320.000000"/> 
</g>
<g style="fill-opacity: 1.0;stroke-width: 0.100000;stroke-opacity: 1;stroke-linecap: round;stroke-linejoin: round">
<circle cx="15066010.000000" cy="13014960.000000" r="45320.000000"/> 
</g>
<g style="fill-opacity: 1.0;stroke-width: 0.100000;stroke-opacity: 1;stroke-linecap: round;stroke-linejoin: round">
<circle cx="17682210.000000" cy="12506960.000000" r="45320.000000"/> 
</g>
<g style="fill-opacity: 1.0;stroke-width: 0.100000;stroke-opacity: 1;stroke-linecap: round;stroke-linejoin: round">
<circle cx="15777210.000000" cy="12506960.000000" r="45320.000000"/> 
</g>
<g style="fill-opacity: 1.0;stroke-width: 0.100000;stroke-opacity: 1;stroke-linecap: round;stroke-linejoin: round">
<circle cx="13592810.000000" cy="9636760.000000" r="45320.000000"/> 
</g>
<g style="fill-opacity: 0.0;stroke-width: 40640.000000;stroke-opacity: 1;stroke-linecap: round;stroke-linejoin: round">
<path d="M14354810 11262360 L14329410 11236960 "/>
</g>
<g style="fill-opacity: 0.0;stroke-width: 60960.000000;stroke-opacity: 1;stroke-linecap: round;stroke-linejoin: round">
<path d="M11586210 9712960 L11586210 10170160 "/>
<path d="M11687810 9712960 L11586210 9712960 "/>
<path d="M14913610 9077960 L15040610 8950960 "/>
</g>
<g style="fill-opacity: 0.0;stroke-width: 25400.000000;stroke-opacity: 1;stroke-linecap: round;stroke-linejoin: round">
<path d="M15726410 9128760 L15548610 8950960 "/>
<path d="M15726410 9382760 L15726410 9128760 "/>
</g>
<g style="fill-opacity: 0.0;stroke-width: 60960.000000;stroke-opacity: 1;stroke-linecap: round;stroke-linejoin: round">
<path d="M15040610 8950960 L15548610 8950960 "/>
</g>
<g style="fill-opacity: 0.0;stroke-width: 40640.000000;stroke-opacity: 1;stroke-linecap: round;stroke-linejoin: round">
<path d="M14659610 11262360 L14354810 11262360 "/>
</g>
<g style="fill-opacity: 0.0;stroke-width: 25400.000000;stroke-opacity: 1;stroke-linecap: round;stroke-linejoin: round">
<path d="M16005810 9763760 L15853410 9611360 "/>
<path d="M15218410 9712960 L15167610 9712960 "/>
<path d="M15675610 11211560 L15675610 10906760 "/>
<path d="M15904210 11440160 L16056610 11592560 "/>
<path d="M16056610 12049760 L16209010 12202160 "/>
<path d="M15167610 9712960 L14888210 9992360 "/>
<path d="M15218410 9331960 L15218410 9712960 "/>
<path d="M15320010 9611360 L15218410 9712960 "/>
<path d="M15904210 11440160 L15675610 11211560 "/>
<path d="M14583410 9712960 L14862810 9992360 "/>
<path d="M14151610 9839960 L14278610 9712960 "/>
<path d="M15853410 9611360 L15320010 9611360 "/>
<path d="M14278610 9712960 L14583410 9712960 "/>
<path d="M14862810 9992360 L14888210 9992360 "/>
<path d="M16005810 10576560 L16005810 9763760 "/>
<path d="M16056610 11592560 L16056610 12049760 "/>
<path d="M15421610 9128760 L15218410 9331960 "/>
<path d="M15675610 10906760 L16005810 10576560 "/>
</g>
<g style="fill-opacity: 0.0;stroke-width: 40640.000000;stroke-opacity: 1;stroke-linecap: round;stroke-linejoin: round">
<path d="M16158210 8823960 L15828010 8493760 "/>
<path d="M15726410 12633960 L16132810 12633960 "/>
<path d="M14939010 12075160 L15167610 12075160 "/>
<path d="M15167610 12075160 L15726410 12633960 "/>
<path d="M16310610 12456160 L16132810 12633960 "/>
<path d="M16310610 12151360 L16310610 12456160 "/>
<path d="M16158210 8823960 L16158210 11998960 "/>
<path d="M16158210 11998960 L16310610 12151360 "/>
</g>
<g style="fill-opacity: 0.0;stroke-width: 25400.000000;stroke-opacity: 1;stroke-linecap: round;stroke-linejoin: round">
<path d="M17047210 11719560 L17453610 11719560 "/>
<path d="M14481810 10855960 L14837410 11211560 "/>
<path d="M14837410 11211560 L14837410 12278360 "/>
<path d="M14100810 10982960 L14227810 10855960 "/>
<path d="M14227810 10855960 L14481810 10855960 "/>
<path d="M15294610 12735560 L16513810 12735560 "/>
<path d="M14837410 12278360 L15294610 12735560 "/>
<path d="M13567410 10322560 L14354810 10322560 "/>
<path d="M13542010 10297160 L13567410 10322560 "/>
<path d="M13821410 10195560 L14405610 10195560 "/>
<path d="M14481810 10398760 L14431010 10449560 "/>
<path d="M14481810 10271760 L14481810 10398760 "/>
<path d="M14405610 10195560 L14481810 10271760 "/>
<path d="M14431010 10449560 L14354810 10449560 "/>
<path d="M14939010 10576560 L15167610 10347960 "/>
<path d="M14304010 10576560 L14939010 10576560 "/>
<path d="M15167610 10347960 L15167610 10170160 "/>
<path d="M14989810 10093960 L14329410 10093960 "/>
<path d="M15040610 10043160 L14989810 10093960 "/>
<path d="M14913610 10678160 L15751810 9839960 "/>
<path d="M14812010 10678160 L14913610 10678160 "/>
<path d="M16082010 8950960 L15955010 8823960 "/>
<path d="M15955010 8823960 L14532610 8823960 "/>
<path d="M16082010 10906760 L16082010 8950960 "/>
<path d="M15802610 11186160 L16082010 10906760 "/>
</g>
<g style="fill-opacity: 0.0;stroke-width: 40640.000000;stroke-opacity: 1;stroke-linecap: round;stroke-linejoin: round">
<path d="M12272010 9408160 L12983210 8696960 "/>
<path d="M12272010 12456160 L12272010 9408160 "/>
</g>
<g style="fill-opacity: 0.0;stroke-width: 25400.000000;stroke-opacity: 1;stroke-linecap: round;stroke-linejoin: round">
<path d="M14278610 8315960 L13770610 8823960 "/>
<path d="M13719810 10703560 L14380210 10703560 "/>
<path d="M13770610 9890760 L13440410 10220960 "/>
<path d="M13770610 8823960 L13770610 9890760 "/>
<path d="M13440410 10424160 L13719810 10703560 "/>
<path d="M16336010 8493760 L16158210 8315960 "/>
<path d="M16158210 8315960 L14278610 8315960 "/>
<path d="M13440410 10220960 L13440410 10424160 "/>
<path d="M14786610 12379960 L14786610 11236960 "/>
<path d="M14786610 12379960 L15218410 12811760 "/>
<path d="M14507210 10957560 L14329410 10957560 "/>
<path d="M14786610 11236960 L14507210 10957560 "/>
<path d="M14456410 8392160 L13872210 8976360 "/>
<path d="M13872210 8976360 L13872210 9890760 "/>
<path d="M16132810 8569960 L15955010 8392160 "/>
<path d="M15955010 8392160 L14456410 8392160 "/>
<path d="M13872210 9890760 L13846810 9916160 "/>
<path d="M13846810 9916160 L13846810 10068560 "/>
<path d="M14989810 10373360 L14812010 10195560 "/>
<path d="M18114010 11059160 L18114010 10754360 "/>
<path d="M17860010 12379960 L17225010 12379960 "/>
<path d="M17301210 13116560 L17860010 12557760 "/>
<path d="M17860010 12557760 L17860010 12379960 "/>
<path d="M14608810 13116560 L17301210 13116560 "/>
<path d="M14532610 13040360 L14608810 13116560 "/>
<path d="M15167610 12938760 L15015210 12786360 "/>
<path d="M15015210 12786360 L14735810 12786360 "/>
<path d="M17021810 12938760 L15167610 12938760 "/>
<path d="M17428210 12532360 L17021810 12938760 "/>
<path d="M17174210 13014960 L15066010 13014960 "/>
<path d="M17682210 12506960 L17174210 13014960 "/>
<path d="M13338810 10220960 L13338810 10449560 "/>
<path d="M13338810 10449560 L13694410 10805160 "/>
<path d="M15777210 12049760 L15777210 12506960 "/>
<path d="M13592810 9636760 L13592810 9966960 "/>
<path d="M13592810 9966960 L13338810 10220960 "/>
<path d="M13694410 10805160 L14532610 10805160 "/>
<path d="M14532610 10805160 L15777210 12049760 "/>
</g>
</g> 
</g><g id="substrate-silk" style="fill:#f0f0f0; stroke:#f0f0f0;" mask="url(#pads-mask-silkscreen)"><g style="fill-opacity: 0.0;stroke-width: 12700.000000;stroke-opacity: 1;stroke-linecap: round;stroke-linejoin: round">
<path d="M18272610 7990360 L11332610 7990360 "/>
<path d="M18272610 13010360 L18272610 7990360 "/>
<path d="M11332610 7990360 L11332610 13010360 "/>
<path d="M11332610 13010360 L18272610 13010360 "/>
</g> 
</g><g id="substrate-outline" style="fill:#000000; stroke:#000000; stroke-width: 15000.0"><g style="fill-opacity: 0.0;stroke-opacity: 1;stroke-linecap: round;stroke-linejoin: round">
<path d="M18368010 7782560 L11332210 7782560 "/>
<path d="M11332210 7782560 L11332210 13218160 "/>
<path d="M16894810 9001760 L16234410 9001760 "/>
<path d="M11332210 13218160 L18368010 13218160 "/>
<path d="M18368010 13218160 L18368010 7782560 "/>
<path d="M16894810 11998960 L16894810 9001760 "/>
<path d="M16234410 9001760 L16234410 11998960 "/>
<path d="M16234410 11998960 L16894810 11998960 "/>
</g> 
<path d="M -100000.0 0.0 A 100000.0 100000.0 0 1 1 100000.0 0.0 L 100000.0 -0.0 A 100000.0 100000.0 0 1 1 -100000.0 -0.0 Z" transform="translate(17872710.0 10754360.0) rotate(-0.0)"/><path d="M -100000.0 0.0 A 100000.0 100000.0 0 1 1 100000.0 0.0 L 100000.0 -0.0 A 100000.0 100000.0 0 1 1 -100000.0 -0.0 Z" transform="translate(17872710.0 10500360.0) rotate(-0.0)"/><path d="M -25000.0 0.0 A 25000.0 25000.0 0 1 1 25000.0 0.0 L 25000.0 -0.0 A 25000.0 25000.0 0 1 1 -25000.0 -0.0 Z" transform="translate(14913610.0 9077960.0) rotate(0.0)"/><path d="M -25000.0 0.0 A 25000.0 25000.0 0 1 1 25000.0 0.0 L 25000.0 -0.0 A 25000.0 25000.0 0 1 1 -25000.0 -0.0 Z" transform="translate(14659610.0 11262360.0) rotate(0.0)"/><path d="M -25000.0 0.0 A 25000.0 25000.0 0 1 1 25000.0 0.0 L 25000.0 -0.0 A 25000.0 25000.0 0 1 1 -25000.0 -0.0 Z" transform="translate(14329410.0 11236960.0) rotate(0.0)"/><path d="M -25000.0 0.0 A 25000.0 25000.0 0 1 1 25000.0 0.0 L 25000.0 -0.0 A 25000.0 25000.0 0 1 1 -25000.0 -0.0 Z" transform="translate(15726410.0 9382760.0) rotate(0.0)"/><path d="M -25000.0 0.0 A 25000.0 25000.0 0 1 1 25000.0 0.0 L 25000.0 -0.0 A 25000.0 25000.0 0 1 1 -25000.0 -0.0 Z" transform="translate(11586210.0 10170160.0) rotate(0.0)"/><path d="M -25000.0 0.0 A 25000.0 25000.0 0 1 1 25000.0 0.0 L 25000.0 -0.0 A 25000.0 25000.0 0 1 1 -25000.0 -0.0 Z" transform="translate(15548610.0 8950960.0) rotate(0.0)"/><path d="M -25000.0 0.0 A 25000.0 25000.0 0 1 1 25000.0 0.0 L 25000.0 -0.0 A 25000.0 25000.0 0 1 1 -25000.0 -0.0 Z" transform="translate(11687810.0 9712960.0) rotate(0.0)"/><path d="M -25000.0 0.0 A 25000.0 25000.0 0 1 1 25000.0 0.0 L 25000.0 -0.0 A 25000.0 25000.0 0 1 1 -25000.0 -0.0 Z" transform="translate(15218410.0 9712960.0) rotate(0.0)"/><path d="M -25000.0 0.0 A 25000.0 25000.0 0 1 1 25000.0 0.0 L 25000.0 -0.0 A 25000.0 25000.0 0 1 1 -25000.0 -0.0 Z" transform="translate(16209010.0 12202160.0) rotate(0.0)"/><path d="M -25000.0 0.0 A 25000.0 25000.0 0 1 1 25000.0 0.0 L 25000.0 -0.0 A 25000.0 25000.0 0 1 1 -25000.0 -0.0 Z" transform="translate(15421610.0 9128760.0) rotate(0.0)"/><path d="M -25000.0 0.0 A 25000.0 25000.0 0 1 1 25000.0 0.0 L 25000.0 -0.0 A 25000.0 25000.0 0 1 1 -25000.0 -0.0 Z" transform="translate(14151610.0 9839960.0) rotate(0.0)"/><path d="M -25000.0 0.0 A 25000.0 25000.0 0 1 1 25000.0 0.0 L 25000.0 -0.0 A 25000.0 25000.0 0 1 1 -25000.0 -0.0 Z" transform="translate(14583410.0 9712960.0) rotate(0.0)"/><path d="M -25000.0 0.0 A 25000.0 25000.0 0 1 1 25000.0 0.0 L 25000.0 -0.0 A 25000.0 25000.0 0 1 1 -25000.0 -0.0 Z" transform="translate(14888210.0 9992360.0) rotate(0.0)"/><path d="M -25000.0 0.0 A 25000.0 25000.0 0 1 1 25000.0 0.0 L 25000.0 -0.0 A 25000.0 25000.0 0 1 1 -25000.0 -0.0 Z" transform="translate(15904210.0 11440160.0) rotate(0.0)"/><path d="M -25000.0 0.0 A 25000.0 25000.0 0 1 1 25000.0 0.0 L 25000.0 -0.0 A 25000.0 25000.0 0 1 1 -25000.0 -0.0 Z" transform="translate(14939010.0 12075160.0) rotate(0.0)"/><path d="M -25000.0 0.0 A 25000.0 25000.0 0 1 1 25000.0 0.0 L 25000.0 -0.0 A 25000.0 25000.0 0 1 1 -25000.0 -0.0 Z" transform="translate(15828010.0 8493760.0) rotate(0.0)"/><path d="M -25000.0 0.0 A 25000.0 25000.0 0 1 1 25000.0 0.0 L 25000.0 -0.0 A 25000.0 25000.0 0 1 1 -25000.0 -0.0 Z" transform="translate(17453610.0 11719560.0) rotate(0.0)"/><path d="M -25000.0 0.0 A 25000.0 25000.0 0 1 1 25000.0 0.0 L 25000.0 -0.0 A 25000.0 25000.0 0 1 1 -25000.0 -0.0 Z" transform="translate(17047210.0 11719560.0) rotate(0.0)"/><path d="M -25000.0 0.0 A 25000.0 25000.0 0 1 1 25000.0 0.0 L 25000.0 -0.0 A 25000.0 25000.0 0 1 1 -25000.0 -0.0 Z" transform="translate(16513810.0 12735560.0) rotate(0.0)"/><path d="M -25000.0 0.0 A 25000.0 25000.0 0 1 1 25000.0 0.0 L 25000.0 -0.0 A 25000.0 25000.0 0 1 1 -25000.0 -0.0 Z" transform="translate(14100810.0 10982960.0) rotate(0.0)"/><path d="M -25000.0 0.0 A 25000.0 25000.0 0 1 1 25000.0 0.0 L 25000.0 -0.0 A 25000.0 25000.0 0 1 1 -25000.0 -0.0 Z" transform="translate(13542010.0 10297160.0) rotate(0.0)"/><path d="M -25000.0 0.0 A 25000.0 25000.0 0 1 1 25000.0 0.0 L 25000.0 -0.0 A 25000.0 25000.0 0 1 1 -25000.0 -0.0 Z" transform="translate(14354810.0 10322560.0) rotate(0.0)"/><path d="M -25000.0 0.0 A 25000.0 25000.0 0 1 1 25000.0 0.0 L 25000.0 -0.0 A 25000.0 25000.0 0 1 1 -25000.0 -0.0 Z" transform="translate(13821410.0 10195560.0) rotate(0.0)"/><path d="M -25000.0 0.0 A 25000.0 25000.0 0 1 1 25000.0 0.0 L 25000.0 -0.0 A 25000.0 25000.0 0 1 1 -25000.0 -0.0 Z" transform="translate(14354810.0 10449560.0) rotate(0.0)"/><path d="M -25000.0 0.0 A 25000.0 25000.0 0 1 1 25000.0 0.0 L 25000.0 -0.0 A 25000.0 25000.0 0 1 1 -25000.0 -0.0 Z" transform="translate(14304010.0 10576560.0) rotate(0.0)"/><path d="M -25000.0 0.0 A 25000.0 25000.0 0 1 1 25000.0 0.0 L 25000.0 -0.0 A 25000.0 25000.0 0 1 1 -25000.0 -0.0 Z" transform="translate(15167610.0 10170160.0) rotate(0.0)"/><path d="M -25000.0 0.0 A 25000.0 25000.0 0 1 1 25000.0 0.0 L 25000.0 -0.0 A 25000.0 25000.0 0 1 1 -25000.0 -0.0 Z" transform="translate(15040610.0 10043160.0) rotate(0.0)"/><path d="M -25000.0 0.0 A 25000.0 25000.0 0 1 1 25000.0 0.0 L 25000.0 -0.0 A 25000.0 25000.0 0 1 1 -25000.0 -0.0 Z" transform="translate(14329410.0 10093960.0) rotate(0.0)"/><path d="M -25000.0 0.0 A 25000.0 25000.0 0 1 1 25000.0 0.0 L 25000.0 -0.0 A 25000.0 25000.0 0 1 1 -25000.0 -0.0 Z" transform="translate(14812010.0 10678160.0) rotate(0.0)"/><path d="M -25000.0 0.0 A 25000.0 25000.0 0 1 1 25000.0 0.0 L 25000.0 -0.0 A 25000.0 25000.0 0 1 1 -25000.0 -0.0 Z" transform="translate(15751810.0 9839960.0) rotate(0.0)"/><path d="M -25000.0 0.0 A 25000.0 25000.0 0 1 1 25000.0 0.0 L 25000.0 -0.0 A 25000.0 25000.0 0 1 1 -25000.0 -0.0 Z" transform="translate(15802610.0 11186160.0) rotate(0.0)"/><path d="M -25000.0 0.0 A 25000.0 25000.0 0 1 1 25000.0 0.0 L 25000.0 -0.0 A 25000.0 25000.0 0 1 1 -25000.0 -0.0 Z" transform="translate(14532610.0 8823960.0) rotate(0.0)"/><path d="M -25000.0 0.0 A 25000.0 25000.0 0 1 1 25000.0 0.0 L 25000.0 -0.0 A 25000.0 25000.0 0 1 1 -25000.0 -0.0 Z" transform="translate(12983210.0 8696960.0) rotate(0.0)"/><path d="M -25000.0 0.0 A 25000.0 25000.0 0 1 1 25000.0 0.0 L 25000.0 -0.0 A 25000.0 25000.0 0 1 1 -25000.0 -0.0 Z" transform="translate(12272010.0 12456160.0) rotate(0.0)"/><path d="M -25000.0 0.0 A 25000.0 25000.0 0 1 1 25000.0 0.0 L 25000.0 -0.0 A 25000.0 25000.0 0 1 1 -25000.0 -0.0 Z" transform="translate(16336010.0 8493760.0) rotate(0.0)"/><path d="M -25000.0 0.0 A 25000.0 25000.0 0 1 1 25000.0 0.0 L 25000.0 -0.0 A 25000.0 25000.0 0 1 1 -25000.0 -0.0 Z" transform="translate(14380210.0 10703560.0) rotate(0.0)"/><path d="M -25000.0 0.0 A 25000.0 25000.0 0 1 1 25000.0 0.0 L 25000.0 -0.0 A 25000.0 25000.0 0 1 1 -25000.0 -0.0 Z" transform="translate(14329410.0 10957560.0) rotate(0.0)"/><path d="M -25000.0 0.0 A 25000.0 25000.0 0 1 1 25000.0 0.0 L 25000.0 -0.0 A 25000.0 25000.0 0 1 1 -25000.0 -0.0 Z" transform="translate(15218410.0 12811760.0) rotate(0.0)"/><path d="M -25000.0 0.0 A 25000.0 25000.0 0 1 1 25000.0 0.0 L 25000.0 -0.0 A 25000.0 25000.0 0 1 1 -25000.0 -0.0 Z" transform="translate(13846810.0 10068560.0) rotate(0.0)"/><path d="M -25000.0 0.0 A 25000.0 25000.0 0 1 1 25000.0 0.0 L 25000.0 -0.0 A 25000.0 25000.0 0 1 1 -25000.0 -0.0 Z" transform="translate(16132810.0 8569960.0) rotate(0.0)"/><path d="M -25000.0 0.0 A 25000.0 25000.0 0 1 1 25000.0 0.0 L 25000.0 -0.0 A 25000.0 25000.0 0 1 1 -25000.0 -0.0 Z" transform="translate(14812010.0 10195560.0) rotate(0.0)"/><path d="M -25000.0 0.0 A 25000.0 25000.0 0 1 1 25000.0 0.0 L 25000.0 -0.0 A 25000.0 25000.0 0 1 1 -25000.0 -0.0 Z" transform="translate(14989810.0 10373360.0) rotate(0.0)"/><path d="M -25000.0 0.0 A 25000.0 25000.0 0 1 1 25000.0 0.0 L 25000.0 -0.0 A 25000.0 25000.0 0 1 1 -25000.0 -0.0 Z" transform="translate(18114010.0 10754360.0) rotate(0.0)"/><path d="M -25000.0 0.0 A 25000.0 25000.0 0 1 1 25000.0 0.0 L 25000.0 -0.0 A 25000.0 25000.0 0 1 1 -25000.0 -0.0 Z" transform="translate(18114010.0 11059160.0) rotate(0.0)"/><path d="M -25000.0 0.0 A 25000.0 25000.0 0 1 1 25000.0 0.0 L 25000.0 -0.0 A 25000.0 25000.0 0 1 1 -25000.0 -0.0 Z" transform="translate(14532610.0 13040360.0) rotate(0.0)"/><path d="M -25000.0 0.0 A 25000.0 25000.0 0 1 1 25000.0 0.0 L 25000.0 -0.0 A 25000.0 25000.0 0 1 1 -25000.0 -0.0 Z" transform="translate(17225010.0 12379960.0) rotate(0.0)"/><path d="M -25000.0 0.0 A 25000.0 25000.0 0 1 1 25000.0 0.0 L 25000.0 -0.0 A 25000.0 25000.0 0 1 1 -25000.0 -0.0 Z" transform="translate(14735810.0 12786360.0) rotate(0.0)"/><path d="M -25000.0 0.0 A 25000.0 25000.0 0 1 1 25000.0 0.0 L 25000.0 -0.0 A 25000.0 25000.0 0 1 1 -25000.0 -0.0 Z" transform="translate(17428210.0 12532360.0) rotate(0.0)"/><path d="M -25000.0 0.0 A 25000.0 25000.0 0 1 1 25000.0 0.0 L 25000.0 -0.0 A 25000.0 25000.0 0 1 1 -25000.0 -0.0 Z" transform="translate(15066010.0 13014960.0) rotate(0.0)"/><path d="M -25000.0 0.0 A 25000.0 25000.0 0 1 1 25000.0 0.0 L 25000.0 -0.0 A 25000.0 25000.0 0 1 1 -25000.0 -0.0 Z" transform="translate(17682210.0 12506960.0) rotate(0.0)"/><path d="M -25000.0 0.0 A 25000.0 25000.0 0 1 1 25000.0 0.0 L 25000.0 -0.0 A 25000.0 25000.0 0 1 1 -25000.0 -0.0 Z" transform="translate(15777210.0 12506960.0) rotate(0.0)"/><path d="M -25000.0 0.0 A 25000.0 25000.0 0 1 1 25000.0 0.0 L 25000.0 -0.0 A 25000.0 25000.0 0 1 1 -25000.0 -0.0 Z" transform="translate(13592810.0 9636760.0) rotate(0.0)"/></g></g></g></svg>