<!DOCTYPE svg PUBLIC "-//W3C//DTD SVG 1.1//EN" "http://www.w3.org/Graphics/SVG/1.1/DTD/svg11.dtd">
<svg xmlns="http://www.w3.org/2000/svg" version="1.1" width="19.78mm" height="23.59mm" viewBox="-15839110.0 9320860.0 1978000.0 2359000.0">
            <title>Picture generated by PcbDraw </title>
            <desc>Picture generated by PcbDraw</desc>
        <defs><clipPath id="cut-off"><path d=" M 13961110.0 11579860.0 L 13961110.0 9420860.0 L 15739110.0 9420860.0 L 15739110.0 11579860.0 L 13961110.0 11579860.0 " style="fill-rule: evenodd;"/></clipPath><mask id="pads-mask"><g style="fill:#ffffff; fill-opacity:0.0;  stroke:#ffffff; stroke-width:0.000000; stroke-opacity:1;  stroke-linecap:round; stroke-linejoin:round;">
<g style="fill:#ffffff; fill-opacity:1.0;  stroke:#ffffff; stroke-width:0.100000; stroke-opacity:1;  stroke-linecap:round; stroke-linejoin:round;">
<circle cx="14215110.000000" cy="11325860.000000" r="152400.000000"/> 
</g>
<g style="fill:#ffffff; fill-opacity:1.0;  stroke:#ffffff; stroke-width:0.100000; stroke-opacity:1;  stroke-linecap:round; stroke-linejoin:round;">
<circle cx="14088110.000000" cy="9547860.000000" r="104140.000000"/> 
</g>
<g style="fill:#ffffff; fill-opacity:1.0;  stroke:#ffffff; stroke-width:0.100000; stroke-opacity:1;  stroke-linecap:round; stroke-linejoin:round;">
<circle cx="14342110.000000" cy="9547860.000000" r="104140.000000"/> 
</g>
<g style="fill:#ffffff; fill-opacity:1.0;  stroke:#ffffff; stroke-width:0.100000; stroke-opacity:1;  stroke-linecap:round; stroke-linejoin:round;">
<circle cx="14596110.000000" cy="9547860.000000" r="104140.000000"/> 
</g>
<g style="fill:#ffffff; fill-opacity:1.0;  stroke:#ffffff; stroke-width:0.100000; stroke-opacity:1;  stroke-linecap:round; stroke-linejoin:round;">
<circle cx="14850110.000000" cy="9547860.000000" r="104140.000000"/> 
</g>
<g style="fill:#ffffff; fill-opacity:1.0;  stroke:#ffffff; stroke-width:0.100000; stroke-opacity:1;  stroke-linecap:round; stroke-linejoin:round;">
<circle cx="15104110.000000" cy="9547860.000000" r="104140.000000"/> 
</g>
<g style="fill:#ffffff; fill-opacity:1.0;  stroke:#ffffff; stroke-width:0.100000; stroke-opacity:1;  stroke-linecap:round; stroke-linejoin:round;">
<circle cx="15358110.000000" cy="9547860.000000" r="104140.000000"/> 
</g>
<g style="fill:#ffffff; fill-opacity:1.0;  stroke:#ffffff; stroke-width:0.100000; stroke-opacity:1;  stroke-linecap:round; stroke-linejoin:round;">
<circle cx="15612110.000000" cy="9547860.000000" r="104140.000000"/> 
</g>
<g style="fill:#ffffff; fill-opacity:1.0;  stroke:#ffffff; stroke-width:0.100000; stroke-opacity:1;  stroke-linecap:round; stroke-linejoin:round;">
<circle cx="15485110.000000" cy="11325860.000000" r="152400.000000"/> 
</g>
<g style="fill:#ffffff; fill-opacity:1.0;  stroke:#ffffff; stroke-width:0.100000; stroke-opacity:1;  stroke-linecap:round; stroke-linejoin:round;">
<path style="fill:#ffffff; fill-opacity:1.0;  stroke:#ffffff; stroke-width:0.100000; stroke-opacity:1;  stroke-linecap:round; stroke-linejoin:round;fill-rule:evenodd;" d="M 14913610.000000,10269770.000000 14909721.900000,10268996.600000 14906425.800000,10266794.200000 14904223.400000,10263498.100000 14903450.000000,10259610.000000 14903450.000000,10196110.000000 14904223.400000,10192221.900000 14906425.800000,10188925.800000 14909721.900000,10186723.400000 14913610.000000,10185950.000000 15040610.000000,10185950.000000 15044498.100000,10186723.400000 15047794.200000,10188925.800000 15049996.600000,10192221.900000 15050770.000000,10196110.000000 15050770.000000,10259610.000000 15049996.600000,10263498.100000 15047794.200000,10266794.200000 15044498.100000,10268996.600000 15040610.000000,10269770.000000 Z"/> 
<path style="fill:#ffffff; fill-opacity:1.0;  stroke:#ffffff; stroke-width:0.100000; stroke-opacity:1;  stroke-linecap:round; stroke-linejoin:round;fill-rule:evenodd;" d="M 14913610.000000,10179770.000000 14909721.900000,10178996.600000 14906425.800000,10176794.200000 14904223.400000,10173498.100000 14903450.000000,10169610.000000 14903450.000000,10106110.000000 14904223.400000,10102221.900000 14906425.800000,10098925.800000 14909721.900000,10096723.400000 14913610.000000,10095950.000000 15040610.000000,10095950.000000 15044498.100000,10096723.400000 15047794.200000,10098925.800000 15049996.600000,10102221.900000 15050770.000000,10106110.000000 15050770.000000,10169610.000000 15049996.600000,10173498.100000 15047794.200000,10176794.200000 15044498.100000,10178996.600000 15040610.000000,10179770.000000 Z"/> 
</g>
</g> 
</mask><mask id="pads-mask-silkscreen"><rect x="9135110.0" y="9171432.0" width="10327301.3" height="3957428.0" fill="white"/><g style="fill:#000000; fill-opacity:0.0;  stroke:#000000; stroke-width:0.000000; stroke-opacity:1;  stroke-linecap:round; stroke-linejoin:round;">
<g style="fill:#000000; fill-opacity:1.0;  stroke:#000000; stroke-width:0.100000; stroke-opacity:1;  stroke-linecap:round; stroke-linejoin:round;">
<circle cx="14215110.000000" cy="11325860.000000" r="152400.000000"/> 
</g>
<g style="fill:#000000; fill-opacity:1.0;  stroke:#000000; stroke-width:0.100000; stroke-opacity:1;  stroke-linecap:round; stroke-linejoin:round;">
<circle cx="14088110.000000" cy="9547860.000000" r="104140.000000"/> 
</g>
<g style="fill:#000000; fill-opacity:1.0;  stroke:#000000; stroke-width:0.100000; stroke-opacity:1;  stroke-linecap:round; stroke-linejoin:round;">
<circle cx="14342110.000000" cy="9547860.000000" r="104140.000000"/> 
</g>
<g style="fill:#000000; fill-opacity:1.0;  stroke:#000000; stroke-width:0.100000; stroke-opacity:1;  stroke-linecap:round; stroke-linejoin:round;">
<circle cx="14596110.000000" cy="9547860.000000" r="104140.000000"/> 
</g>
<g style="fill:#000000; fill-opacity:1.0;  stroke:#000000; stroke-width:0.100000; stroke-opacity:1;  stroke-linecap:round; stroke-linejoin:round;">
<circle cx="14850110.000000" cy="9547860.000000" r="104140.000000"/> 
</g>
<g style="fill:#000000; fill-opacity:1.0;  stroke:#000000; stroke-width:0.100000; stroke-opacity:1;  stroke-linecap:round; stroke-linejoin:round;">
<circle cx="15104110.000000" cy="9547860.000000" r="104140.000000"/> 
</g>
<g style="fill:#000000; fill-opacity:1.0;  stroke:#000000; stroke-width:0.100000; stroke-opacity:1;  stroke-linecap:round; stroke-linejoin:round;">
<circle cx="15358110.000000" cy="9547860.000000" r="104140.000000"/> 
</g>
<g style="fill:#000000; fill-opacity:1.0;  stroke:#000000; stroke-width:0.100000; stroke-opacity:1;  stroke-linecap:round; stroke-linejoin:round;">
<circle cx="15612110.000000" cy="9547860.000000" r="104140.000000"/> 
</g>
<g style="fill:#000000; fill-opacity:1.0;  stroke:#000000; stroke-width:0.100000; stroke-opacity:1;  stroke-linecap:round; stroke-linejoin:round;">
<circle cx="15485110.000000" cy="11325860.000000" r="152400.000000"/> 
</g>
<g style="fill:#000000; fill-opacity:1.0;  stroke:#000000; stroke-width:0.100000; stroke-opacity:1;  stroke-linecap:round; stroke-linejoin:round;">
<path style="fill:#000000; fill-opacity:1.0;  stroke:#000000; stroke-width:0.100000; stroke-opacity:1;  stroke-linecap:round; stroke-linejoin:round;fill-rule:evenodd;" d="M 14913610.000000,10269770.000000 14909721.900000,10268996.600000 14906425.800000,10266794.200000 14904223.400000,10263498.100000 14903450.000000,10259610.000000 14903450.000000,10196110.000000 14904223.400000,10192221.900000 14906425.800000,10188925.800000 14909721.900000,10186723.400000 14913610.000000,10185950.000000 15040610.000000,10185950.000000 15044498.100000,10186723.400000 15047794.200000,10188925.800000 15049996.600000,10192221.900000 15050770.000000,10196110.000000 15050770.000000,10259610.000000 15049996.600000,10263498.100000 15047794.200000,10266794.200000 15044498.100000,10268996.600000 15040610.000000,10269770.000000 Z"/> 
<path style="fill:#000000; fill-opacity:1.0;  stroke:#000000; stroke-width:0.100000; stroke-opacity:1;  stroke-linecap:round; stroke-linejoin:round;fill-rule:evenodd;" d="M 14913610.000000,10179770.000000 14909721.900000,10178996.600000 14906425.800000,10176794.200000 14904223.400000,10173498.100000 14903450.000000,10169610.000000 14903450.000000,10106110.000000 14904223.400000,10102221.900000 14906425.800000,10098925.800000 14909721.900000,10096723.400000 14913610.000000,10095950.000000 15040610.000000,10095950.000000 15044498.100000,10096723.400000 15047794.200000,10098925.800000 15049996.600000,10102221.900000 15050770.000000,10106110.000000 15050770.000000,10169610.000000 15049996.600000,10173498.100000 15047794.200000,10176794.200000 15044498.100000,10178996.600000 15040610.000000,10179770.000000 Z"/> 
</g>
</g> 
</mask><mask id="hole-mask"><g><rect x="9135110.0" y="9171432.0" fill="white" width="10327301.3" height="3957428.0"/><polyline stroke-linecap="round" stroke="black" stroke-width="304800.0" points="-0.0 0 0.0 0" transform="translate(14215110.0 11325860.0) rotate(-0.0)"/><polyline stroke-linecap="round" stroke="black" stroke-width="101600.0" points="-0.0 0 0.0 0" transform="translate(14088110.0 9547860.0) rotate(-90.0)"/><polyline stroke-linecap="round" stroke="black" stroke-width="101600.0" points="-0.0 0 0.0 0" transform="translate(14342110.0 9547860.0) rotate(-90.0)"/><polyline stroke-linecap="round" stroke="black" stroke-width="101600.0" points="-0.0 0 0.0 0" transform="translate(14596110.0 9547860.0) rotate(-90.0)"/><polyline stroke-linecap="round" stroke="black" stroke-width="101600.0" points="-0.0 0 0.0 0" transform="translate(14850110.0 9547860.0) rotate(-90.0)"/><polyline stroke-linecap="round" stroke="black" stroke-width="101600.0" points="-0.0 0 0.0 0" transform="translate(15104110.0 9547860.0) rotate(-90.0)"/><polyline stroke-linecap="round" stroke="black" stroke-width="101600.0" points="-0.0 0 0.0 0" transform="translate(15358110.0 9547860.0) rotate(-90.0)"/><polyline stroke-linecap="round" stroke="black" stroke-width="101600.0" points="-0.0 0 0.0 0" transform="translate(15612110.0 9547860.0) rotate(-90.0)"/><polyline stroke-linecap="round" stroke="black" stroke-width="304800.0" points="-0.0 0 0.0 0" transform="translate(15485110.0 11325860.0) rotate(-0.0)"/><polyline stroke-linecap="round" stroke="black" stroke-width="50800.0" points="-0.0 0 0.0 0" transform="translate(14616430.0 11099800.0) rotate(0.0)"/><polyline stroke-linecap="round" stroke="black" stroke-width="50800.0" points="-0.0 0 0.0 0" transform="translate(14469110.0 9751060.0) rotate(0.0)"/><polyline stroke-linecap="round" stroke="black" stroke-width="50800.0" points="-0.0 0 0.0 0" transform="translate(14469110.0 10373360.0) rotate(0.0)"/><polyline stroke-linecap="round" stroke="black" stroke-width="50800.0" points="-0.0 0 0.0 0" transform="translate(15159990.0 11099800.0) rotate(0.0)"/><polyline stroke-linecap="round" stroke="black" stroke-width="50800.0" points="-0.0 0 0.0 0" transform="translate(14608810.0 10398760.0) rotate(0.0)"/><polyline stroke-linecap="round" stroke="black" stroke-width="50800.0" points="-0.0 0 0.0 0" transform="translate(15193010.0 10386060.0) rotate(0.0)"/><polyline stroke-linecap="round" stroke="black" stroke-width="50800.0" points="-0.0 0 0.0 0" transform="translate(14530070.0 10876280.0) rotate(0.0)"/><polyline stroke-linecap="round" stroke="black" stroke-width="50800.0" points="-0.0 0 0.0 0" transform="translate(15218410.0 10665460.0) rotate(0.0)"/><polyline stroke-linecap="round" stroke="black" stroke-width="50800.0" points="-0.0 0 0.0 0" transform="translate(15205710.0 10233660.0) rotate(0.0)"/><polyline stroke-linecap="round" stroke="black" stroke-width="50800.0" points="-0.0 0 0.0 0" transform="translate(14481810.0 10182860.0) rotate(0.0)"/><polyline stroke-linecap="round" stroke="black" stroke-width="50800.0" points="-0.0 0 0.0 0" transform="translate(14215110.0 10487660.0) rotate(0.0)"/></g></mask></defs><g transform="scale(-1,1)" id="boardContainer"><g id="substrate" clip-path="url(#cut-off)" mask="url(#hole-mask)"><g id="substrate-board" style="fill:#4ca06c; stroke:#4ca06c;"><path d=" M 13961110.0 11579860.0 L 13961110.0 9420860.0 L 15739110.0 9420860.0 L 15739110.0 11579860.0 L 13961110.0 11579860.0 " style="fill-rule: evenodd;"/><g style="fill-opacity: 0.0;stroke-width: 20320.000000;stroke-opacity: 1;stroke-linecap: round;stroke-linejoin: round">
<path d="M15739110 11579860 L13961110 11579860 "/>
<path d="M13961110 9420860 L15739110 9420860 "/>
<path d="M13961110 11579860 L13961110 9420860 "/>
<path d="M15739110 9420860 L15739110 11579860 "/>
</g> 
</g><g id="substrate-clad" style="fill:#9c6b28; stroke:#9c6b28;"><g style="fill-opacity: 0.0;stroke-width: 0.000000;stroke-opacity: 1;stroke-linecap: round;stroke-linejoin: round">
<g style="fill-opacity: 1.0;stroke-width: 0.100000;stroke-opacity: 1;stroke-linecap: round;stroke-linejoin: round">
<circle cx="14215110.000000" cy="11325860.000000" r="152400.000000"/> 
</g>
<g style="fill-opacity: 1.0;stroke-width: 0.100000;stroke-opacity: 1;stroke-linecap: round;stroke-linejoin: round">
<circle cx="14088110.000000" cy="9547860.000000" r="104140.000000"/> 
</g>
<g style="fill-opacity: 1.0;stroke-width: 0.100000;stroke-opacity: 1;stroke-linecap: round;stroke-linejoin: round">
<circle cx="14342110.000000" cy="9547860.000000" r="104140.000000"/> 
</g>
<g style="fill-opacity: 1.0;stroke-width: 0.100000;stroke-opacity: 1;stroke-linecap: round;stroke-linejoin: round">
<circle cx="14596110.000000" cy="9547860.000000" r="104140.000000"/> 
</g>
<g style="fill-opacity: 1.0;stroke-width: 0.100000;stroke-opacity: 1;stroke-linecap: round;stroke-linejoin: round">
<circle cx="14850110.000000" cy="9547860.000000" r="104140.000000"/> 
</g>
<g style="fill-opacity: 1.0;stroke-width: 0.100000;stroke-opacity: 1;stroke-linecap: round;stroke-linejoin: round">
<circle cx="15104110.000000" cy="9547860.000000" r="104140.000000"/> 
</g>
<g style="fill-opacity: 1.0;stroke-width: 0.100000;stroke-opacity: 1;stroke-linecap: round;stroke-linejoin: round">
<circle cx="15358110.000000" cy="9547860.000000" r="104140.000000"/> 
</g>
<g style="fill-opacity: 1.0;stroke-width: 0.100000;stroke-opacity: 1;stroke-linecap: round;stroke-linejoin: round">
<circle cx="15612110.000000" cy="9547860.000000" r="104140.000000"/> 
</g>
<g style="fill-opacity: 1.0;stroke-width: 0.100000;stroke-opacity: 1;stroke-linecap: round;stroke-linejoin: round">
<circle cx="15485110.000000" cy="11325860.000000" r="152400.000000"/> 
</g>
<g style="fill-opacity: 1.0;stroke-width: 0.100000;stroke-opacity: 1;stroke-linecap: round;stroke-linejoin: round">
<path style="fill-opacity: 1.0;stroke-width: 0.100000;stroke-opacity: 1;stroke-linecap: round;stroke-linejoin: round;fill-rule: evenodd" d="M 14913610.000000,10269770.000000 14909721.900000,10268996.600000 14906425.800000,10266794.200000 14904223.400000,10263498.100000 14903450.000000,10259610.000000 14903450.000000,10196110.000000 14904223.400000,10192221.900000 14906425.800000,10188925.800000 14909721.900000,10186723.400000 14913610.000000,10185950.000000 15040610.000000,10185950.000000 15044498.100000,10186723.400000 15047794.200000,10188925.800000 15049996.600000,10192221.900000 15050770.000000,10196110.000000 15050770.000000,10259610.000000 15049996.600000,10263498.100000 15047794.200000,10266794.200000 15044498.100000,10268996.600000 15040610.000000,10269770.000000 Z"/> 
<path style="fill-opacity: 1.0;stroke-width: 0.100000;stroke-opacity: 1;stroke-linecap: round;stroke-linejoin: round;fill-rule: evenodd" d="M 14913610.000000,10179770.000000 14909721.900000,10178996.600000 14906425.800000,10176794.200000 14904223.400000,10173498.100000 14903450.000000,10169610.000000 14903450.000000,10106110.000000 14904223.400000,10102221.900000 14906425.800000,10098925.800000 14909721.900000,10096723.400000 14913610.000000,10095950.000000 15040610.000000,10095950.000000 15044498.100000,10096723.400000 15047794.200000,10098925.800000 15049996.600000,10102221.900000 15050770.000000,10106110.000000 15050770.000000,10169610.000000 15049996.600000,10173498.100000 15047794.200000,10176794.200000 15044498.100000,10178996.600000 15040610.000000,10179770.000000 Z"/> 
</g>
</g> 
</g><g id="substrate-copper" style="fill:#417e5a; stroke:#417e5a;"><g style="fill-opacity: 0.0;stroke-width: 12192.000000;stroke-opacity: 1;stroke-linecap: round;stroke-linejoin: round">
<text x="14951710.000000" y="11529060.000000" transform="scale(-1 1) translate(-29903420.000000 0)" textLength="190814.400000" font-size="92117.300000" lengthAdjust="spacingAndGlyphs" text-anchor="start" opacity="0">V12</text>
<g class="stroked-text"><desc>V12</desc>
<path d="M14937205 11456682 L14914176 11525770 L14891146 11456682 "/>
<path d="M14831928 11525770 L14871407 11525770 "/>
<path d="M14851667 11525770 L14851667 11456682 L14858247 11466551 L14864827 11473131 L14871407 11476421 "/>
<path d="M14805609 11463261 L14802319 11459972 L14795739 11456682 L14779289 11456682 L14772710 11459972 L14769420 11463261 L14766130 11469841 L14766130 11476421 L14769420 11486291 L14808899 11525770 L14766130 11525770 "/>
</g><g style="fill-opacity: 1.0;stroke-width: 0.100000;stroke-opacity: 1;stroke-linecap: round;stroke-linejoin: round">
<circle cx="14088110.000000" cy="9547860.000000" r="93980.000000"/> 
</g>
<g style="fill-opacity: 1.0;stroke-width: 0.100000;stroke-opacity: 1;stroke-linecap: round;stroke-linejoin: round">
<circle cx="14342110.000000" cy="9547860.000000" r="93980.000000"/> 
</g>
<g style="fill-opacity: 1.0;stroke-width: 0.100000;stroke-opacity: 1;stroke-linecap: round;stroke-linejoin: round">
<circle cx="14596110.000000" cy="9547860.000000" r="93980.000000"/> 
</g>
<g style="fill-opacity: 1.0;stroke-width: 0.100000;stroke-opacity: 1;stroke-linecap: round;stroke-linejoin: round">
<circle cx="14850110.000000" cy="9547860.000000" r="93980.000000"/> 
</g>
<g style="fill-opacity: 1.0;stroke-width: 0.100000;stroke-opacity: 1;stroke-linecap: round;stroke-linejoin: round">
<circle cx="15104110.000000" cy="9547860.000000" r="93980.000000"/> 
</g>
<g style="fill-opacity: 1.0;stroke-width: 0.100000;stroke-opacity: 1;stroke-linecap: round;stroke-linejoin: round">
<circle cx="15358110.000000" cy="9547860.000000" r="93980.000000"/> 
</g>
<g style="fill-opacity: 1.0;stroke-width: 0.100000;stroke-opacity: 1;stroke-linecap: round;stroke-linejoin: round">
<circle cx="15612110.000000" cy="9547860.000000" r="93980.000000"/> 
</g>
<g style="fill-opacity: 1.0;stroke-width: 0.100000;stroke-opacity: 1;stroke-linecap: round;stroke-linejoin: round">
<path style="fill-opacity: 1.0;stroke-width: 0.100000;stroke-opacity: 1;stroke-linecap: round;stroke-linejoin: round;fill-rule: evenodd" d="M 15040610.000000,10259610.000000 14913610.000000,10259610.000000 14913610.000000,10196110.000000 15040610.000000,10196110.000000 Z"/> 
<path style="fill-opacity: 1.0;stroke-width: 0.100000;stroke-opacity: 1;stroke-linecap: round;stroke-linejoin: round;fill-rule: evenodd" d="M 15040610.000000,10169610.000000 14913610.000000,10169610.000000 14913610.000000,10106110.000000 15040610.000000,10106110.000000 Z"/> 
</g>
<g style="fill-opacity: 1.0;stroke-width: 0.100000;stroke-opacity: 1;stroke-linecap: round;stroke-linejoin: round">
<circle cx="14616430.000000" cy="11099800.000000" r="50800.000000"/> 
</g>
<g style="fill-opacity: 1.0;stroke-width: 0.100000;stroke-opacity: 1;stroke-linecap: round;stroke-linejoin: round">
<circle cx="14469110.000000" cy="9751060.000000" r="50800.000000"/> 
</g>
<g style="fill-opacity: 1.0;stroke-width: 0.100000;stroke-opacity: 1;stroke-linecap: round;stroke-linejoin: round">
<circle cx="14469110.000000" cy="10373360.000000" r="50800.000000"/> 
</g>
<g style="fill-opacity: 1.0;stroke-width: 0.100000;stroke-opacity: 1;stroke-linecap: round;stroke-linejoin: round">
<circle cx="15159990.000000" cy="11099800.000000" r="50800.000000"/> 
</g>
<g style="fill-opacity: 1.0;stroke-width: 0.100000;stroke-opacity: 1;stroke-linecap: round;stroke-linejoin: round">
<circle cx="14608810.000000" cy="10398760.000000" r="50800.000000"/> 
</g>
<g style="fill-opacity: 1.0;stroke-width: 0.100000;stroke-opacity: 1;stroke-linecap: round;stroke-linejoin: round">
<circle cx="15193010.000000" cy="10386060.000000" r="50800.000000"/> 
</g>
<g style="fill-opacity: 1.0;stroke-width: 0.100000;stroke-opacity: 1;stroke-linecap: round;stroke-linejoin: round">
<circle cx="14530070.000000" cy="10876280.000000" r="50800.000000"/> 
</g>
<g style="fill-opacity: 1.0;stroke-width: 0.100000;stroke-opacity: 1;stroke-linecap: round;stroke-linejoin: round">
<circle cx="15218410.000000" cy="10665460.000000" r="50800.000000"/> 
</g>
<g style="fill-opacity: 1.0;stroke-width: 0.100000;stroke-opacity: 1;stroke-linecap: round;stroke-linejoin: round">
<circle cx="15205710.000000" cy="10233660.000000" r="50800.000000"/> 
</g>
<g style="fill-opacity: 1.0;stroke-width: 0.100000;stroke-opacity: 1;stroke-linecap: round;stroke-linejoin: round">
<circle cx="14481810.000000" cy="10182860.000000" r="50800.000000"/> 
</g>
<g style="fill-opacity: 1.0;stroke-width: 0.100000;stroke-opacity: 1;stroke-linecap: round;stroke-linejoin: round">
<circle cx="14215110.000000" cy="10487660.000000" r="50800.000000"/> 
</g>
<g style="fill-opacity: 0.0;stroke-width: 25400.000000;stroke-opacity: 1;stroke-linecap: round;stroke-linejoin: round">
<path d="M14077950 10789920 L14077950 9558020 "/>
<path d="M14077950 9558020 L14088110 9547860 "/>
<path d="M14387830 11099800 L14077950 10789920 "/>
<path d="M14616430 11099800 L14387830 11099800 "/>
<path d="M14469110 9674860 L14342110 9547860 "/>
<path d="M14469110 9992360 L14608810 10132060 "/>
<path d="M14469110 9751060 L14469110 9992360 "/>
<path d="M14608810 10132060 L14608810 10233660 "/>
<path d="M14469110 9751060 L14469110 9674860 "/>
<path d="M14608810 10233660 L14469110 10373360 "/>
<path d="M15104110 10010860 L14977110 10137860 "/>
<path d="M14977110 10137860 L15059110 10137860 "/>
<path d="M15104110 10297160 L15193010 10386060 "/>
<path d="M15104110 10182860 L15104110 10297160 "/>
<path d="M15059110 10137860 L15104110 10182860 "/>
<path d="M15104110 9547860 L15104110 10010860 "/>
<path d="M14530070 10876280 L14530070 10673080 "/>
<path d="M14857730 10345420 L14857730 9555480 "/>
<path d="M14530070 10673080 L14857730 10345420 "/>
<path d="M14857730 9555480 L14850110 9547860 "/>
<path d="M15612110 10424160 L15612110 9547860 "/>
<path d="M15218410 10665460 L15370810 10665460 "/>
<path d="M15370810 10665460 L15612110 10424160 "/>
<path d="M15358110 9547860 L15358110 10081260 "/>
<path d="M15358110 10081260 L15205710 10233660 "/>
<path d="M14215110 10487660 L14215110 10449560 "/>
<path d="M14215110 10449560 L14481810 10182860 "/>
</g>
</g> 
</g><g id="substrate-pads" style="fill:#b5ae30; stroke:#b5ae30;" mask="url(#pads-mask)"><g style="fill-opacity: 0.0;stroke-width: 12192.000000;stroke-opacity: 1;stroke-linecap: round;stroke-linejoin: round">
<text x="14951710.000000" y="11529060.000000" transform="scale(-1 1) translate(-29903420.000000 0)" textLength="174964.900000" font-size="92117.300000" lengthAdjust="spacingAndGlyphs" text-anchor="start" opacity="0">V12</text>
<g class="stroked-text"><desc>V12</desc>
<path d="M14937205 11456682 L14914176 11525770 L14891146 11456682 "/>
<path d="M14831928 11525770 L14871407 11525770 "/>
<path d="M14851667 11525770 L14851667 11456682 L14858247 11466551 L14864827 11473131 L14871407 11476421 "/>
<path d="M14805609 11463261 L14802319 11459972 L14795739 11456682 L14779289 11456682 L14772710 11459972 L14769420 11463261 L14766130 11469841 L14766130 11476421 L14769420 11486291 L14808899 11525770 L14766130 11525770 "/>
</g><g style="fill-opacity: 1.0;stroke-width: 0.100000;stroke-opacity: 1;stroke-linecap: round;stroke-linejoin: round">
<circle cx="14088110.000000" cy="9547860.000000" r="93980.000000"/> 
</g>
<g style="fill-opacity: 1.0;stroke-width: 0.100000;stroke-opacity: 1;stroke-linecap: round;stroke-linejoin: round">
<circle cx="14342110.000000" cy="9547860.000000" r="93980.000000"/> 
</g>
<g style="fill-opacity: 1.0;stroke-width: 0.100000;stroke-opacity: 1;stroke-linecap: round;stroke-linejoin: round">
<circle cx="14596110.000000" cy="9547860.000000" r="93980.000000"/> 
</g>
<g style="fill-opacity: 1.0;stroke-width: 0.100000;stroke-opacity: 1;stroke-linecap: round;stroke-linejoin: round">
<circle cx="14850110.000000" cy="9547860.000000" r="93980.000000"/> 
</g>
<g style="fill-opacity: 1.0;stroke-width: 0.100000;stroke-opacity: 1;stroke-linecap: round;stroke-linejoin: round">
<circle cx="15104110.000000" cy="9547860.000000" r="93980.000000"/> 
</g>
<g style="fill-opacity: 1.0;stroke-width: 0.100000;stroke-opacity: 1;stroke-linecap: round;stroke-linejoin: round">
<circle cx="15358110.000000" cy="9547860.000000" r="93980.000000"/> 
</g>
<g style="fill-opacity: 1.0;stroke-width: 0.100000;stroke-opacity: 1;stroke-linecap: round;stroke-linejoin: round">
<circle cx="15612110.000000" cy="9547860.000000" r="93980.000000"/> 
</g>
<g style="fill-opacity: 1.0;stroke-width: 0.100000;stroke-opacity: 1;stroke-linecap: round;stroke-linejoin: round">
<path style="fill-opacity: 1.0;stroke-width: 0.100000;stroke-opacity: 1;stroke-linecap: round;stroke-linejoin: round;fill-rule: evenodd" d="M 15040610.000000,10259610.000000 14913610.000000,10259610.000000 14913610.000000,10196110.000000 15040610.000000,10196110.000000 Z"/> 
<path style="fill-opacity: 1.0;stroke-width: 0.100000;stroke-opacity: 1;stroke-linecap: round;stroke-linejoin: round;fill-rule: evenodd" d="M 15040610.000000,10169610.000000 14913610.000000,10169610.000000 14913610.000000,10106110.000000 15040610.000000,10106110.000000 Z"/> 
</g>
<g style="fill-opacity: 1.0;stroke-width: 0.100000;stroke-opacity: 1;stroke-linecap: round;stroke-linejoin: round">
<circle cx="14616430.000000" cy="11099800.000000" r="50800.000000"/> 
</g>
<g style="fill-opacity: 1.0;stroke-width: 0.100000;stroke-opacity: 1;stroke-linecap: round;stroke-linejoin: round">
<circle cx="14469110.000000" cy="9751060.000000" r="50800.000000"/> 
</g>
<g style="fill-opacity: 1.0;stroke-width: 0.100000;stroke-opacity: 1;stroke-linecap: round;stroke-linejoin: round">
<circle cx="14469110.000000" cy="10373360.000000" r="50800.000000"/> 
</g>
<g style="fill-opacity: 1.0;stroke-width: 0.100000;stroke-opacity: 1;stroke-linecap: round;stroke-linejoin: round">
<circle cx="15159990.000000" cy="11099800.000000" r="50800.000000"/> 
</g>
<g style="fill-opacity: 1.0;stroke-width: 0.100000;stroke-opacity: 1;stroke-linecap: round;stroke-linejoin: round">
<circle cx="14608810.000000" cy="10398760.000000" r="50800.000000"/> 
</g>
<g style="fill-opacity: 1.0;stroke-width: 0.100000;stroke-opacity: 1;stroke-linecap: round;stroke-linejoin: round">
<circle cx="15193010.000000" cy="10386060.000000" r="50800.000000"/> 
</g>
<g style="fill-opacity: 1.0;stroke-width: 0.100000;stroke-opacity: 1;stroke-linecap: round;stroke-linejoin: round">
<circle cx="14530070.000000" cy="10876280.000000" r="50800.000000"/> 
</g>
<g style="fill-opacity: 1.0;stroke-width: 0.100000;stroke-opacity: 1;stroke-linecap: round;stroke-linejoin: round">
<circle cx="15218410.000000" cy="10665460.000000" r="50800.000000"/> 
</g>
<g style="fill-opacity: 1.0;stroke-width: 0.100000;stroke-opacity: 1;stroke-linecap: round;stroke-linejoin: round">
<circle cx="15205710.000000" cy="10233660.000000" r="50800.000000"/> 
</g>
<g style="fill-opacity: 1.0;stroke-width: 0.100000;stroke-opacity: 1;stroke-linecap: round;stroke-linejoin: round">
<circle cx="14481810.000000" cy="10182860.000000" r="50800.000000"/> 
</g>
<g style="fill-opacity: 1.0;stroke-width: 0.100000;stroke-opacity: 1;stroke-linecap: round;stroke-linejoin: round">
<circle cx="14215110.000000" cy="10487660.000000" r="50800.000000"/> 
</g>
<g style="fill-opacity: 0.0;stroke-width: 25400.000000;stroke-opacity: 1;stroke-linecap: round;stroke-linejoin: round">
<path d="M14077950 10789920 L14077950 9558020 "/>
<path d="M14077950 9558020 L14088110 9547860 "/>
<path d="M14387830 11099800 L14077950 10789920 "/>
<path d="M14616430 11099800 L14387830 11099800 "/>
<path d="M14469110 9674860 L14342110 9547860 "/>
<path d="M14469110 9992360 L14608810 10132060 "/>
<path d="M14469110 9751060 L14469110 9992360 "/>
<path d="M14608810 10132060 L14608810 10233660 "/>
<path d="M14469110 9751060 L14469110 9674860 "/>
<path d="M14608810 10233660 L14469110 10373360 "/>
<path d="M15104110 10010860 L14977110 10137860 "/>
<path d="M14977110 10137860 L15059110 10137860 "/>
<path d="M15104110 10297160 L15193010 10386060 "/>
<path d="M15104110 10182860 L15104110 10297160 "/>
<path d="M15059110 10137860 L15104110 10182860 "/>
<path d="M15104110 9547860 L15104110 10010860 "/>
<path d="M14530070 10876280 L14530070 10673080 "/>
<path d="M14857730 10345420 L14857730 9555480 "/>
<path d="M14530070 10673080 L14857730 10345420 "/>
<path d="M14857730 9555480 L14850110 9547860 "/>
<path d="M15612110 10424160 L15612110 9547860 "/>
<path d="M15218410 10665460 L15370810 10665460 "/>
<path d="M15370810 10665460 L15612110 10424160 "/>
<path d="M15358110 9547860 L15358110 10081260 "/>
<path d="M15358110 10081260 L15205710 10233660 "/>
<path d="M14215110 10487660 L14215110 10449560 "/>
<path d="M14215110 10449560 L14481810 10182860 "/>
</g>
</g> 
</g><g id="substrate-silk" style="fill:#f0f0f0; stroke:#f0f0f0;" mask="url(#pads-mask-silkscreen)"><g style="fill-opacity: 0.0;stroke-width: 15240.000000;stroke-opacity: 1;stroke-linecap: round;stroke-linejoin: round">
<g transform="rotate(90.000000 14900910.000000 9674860.000000)">
<text x="14900910.000000" y="9761220.000000" transform="scale(-1 1) translate(-29801820.000000 0)" textLength="181544.700000" font-size="115146.600000" lengthAdjust="spacingAndGlyphs" text-anchor="end" opacity="0">INT</text>
</g>
<g class="stroked-text"><desc>INT</desc>
<path d="M14818662 9861598 L14905022 9861598 "/>
<path d="M14818662 9820474 L14905022 9820474 L14818662 9771126 L14905022 9771126 "/>
<path d="M14905022 9742339 L14905022 9692990 "/>
<path d="M14818662 9717665 L14905022 9717665 "/>
</g></g>
<g style="fill-opacity: 0.0;stroke-width: 12192.000000;stroke-opacity: 1;stroke-linecap: round;stroke-linejoin: round">
<g transform="rotate(90.000000 14862810.000000 10005060.000000)">
<text x="14862810.000000" y="10074148.000000" transform="scale(-1 1) translate(-29725620.000000 0)" textLength="279569.300000" font-size="92117.300000" lengthAdjust="spacingAndGlyphs" text-anchor="end" opacity="0">CLKIN</text>
</g>
<g class="stroked-text"><desc>CLKIN</desc>
<path d="M14803591 10256437 L14800301 10259727 L14797011 10269597 L14797011 10276177 L14800301 10286046 L14806881 10292626 L14813461 10295916 L14826621 10299206 L14836490 10299206 L14849650 10295916 L14856230 10292626 L14862810 10286046 L14866099 10276177 L14866099 10269597 L14862810 10259727 L14859520 10256437 "/>
<path d="M14797011 10193929 L14797011 10226828 L14866099 10226828 "/>
<path d="M14797011 10170900 L14866099 10170900 "/>
<path d="M14797011 10131421 L14836490 10161030 "/>
<path d="M14866099 10131421 L14826621 10170900 "/>
<path d="M14797011 10101812 L14866099 10101812 "/>
<path d="M14797011 10068913 L14866099 10068913 L14797011 10029434 L14866099 10029434 "/>
</g></g>
<g style="fill-opacity: 0.0;stroke-width: 15240.000000;stroke-opacity: 1;stroke-linecap: round;stroke-linejoin: round">
<g transform="rotate(90.000000 15408910.000000 9674860.000000)">
<text x="15408910.000000" y="9761220.000000" transform="scale(-1 1) translate(-30817820.000000 0)" textLength="226780.900000" font-size="115146.600000" lengthAdjust="spacingAndGlyphs" text-anchor="end" opacity="0">SDA</text>
</g>
<g class="stroked-text"><desc>SDA</desc>
<path d="M15330774 9910946 L15326662 9898609 L15326662 9878047 L15330774 9869823 L15334887 9865710 L15343111 9861598 L15351336 9861598 L15359561 9865710 L15363673 9869823 L15367786 9878047 L15371898 9894497 L15376010 9902722 L15380123 9906834 L15388348 9910946 L15396572 9910946 L15404797 9906834 L15408910 9902722 L15413022 9894497 L15413022 9873935 L15408910 9861598 "/>
<path d="M15326662 9824586 L15413022 9824586 L15413022 9804025 L15408910 9791687 L15400685 9783463 L15392460 9779350 L15376010 9775238 L15363673 9775238 L15347224 9779350 L15338999 9783463 L15330774 9791687 L15326662 9804025 L15326662 9824586 "/>
<path d="M15351336 9742339 L15351336 9701215 "/>
<path d="M15326662 9750564 L15413022 9721777 L15326662 9692990 "/>
</g><text x="14108430.000000" y="10975340.000000" transform="scale(-1 1) translate(-28216860.000000 0)" textLength="1242689.000000" font-size="115146.600000" lengthAdjust="spacingAndGlyphs" text-anchor="end" opacity="0">ITG-3200 Breakout</text>
<g class="stroked-text"><desc>ITG-3200 Breakout</desc>
<path d="M15360275 10971227 L15360275 10884867 "/>
<path d="M15331488 10884867 L15282139 10884867 "/>
<path d="M15306814 10971227 L15306814 10884867 "/>
<path d="M15208116 10888980 L15216341 10884867 L15228678 10884867 L15241016 10888980 L15249240 10897204 L15253353 10905429 L15257465 10921879 L15257465 10934216 L15253353 10950665 L15249240 10958890 L15241016 10967115 L15228678 10971227 L15220454 10971227 L15208116 10967115 L15204004 10963002 L15204004 10934216 L15220454 10934216 "/>
<path d="M15166993 10938328 L15101195 10938328 "/>
<path d="M15068296 10884867 L15014835 10884867 L15043621 10917766 L15031284 10917766 L15023059 10921879 L15018947 10925991 L15014835 10934216 L15014835 10954778 L15018947 10963002 L15023059 10967115 L15031284 10971227 L15055958 10971227 L15064183 10967115 L15068296 10963002 "/>
<path d="M14981936 10893092 L14977823 10888980 L14969598 10884867 L14949036 10884867 L14940812 10888980 L14936699 10893092 L14932587 10901317 L14932587 10909541 L14936699 10921879 L14986048 10971227 L14932587 10971227 "/>
<path d="M14879126 10884867 L14870901 10884867 L14862676 10888980 L14858564 10893092 L14854452 10901317 L14850339 10917766 L14850339 10938328 L14854452 10954778 L14858564 10963002 L14862676 10967115 L14870901 10971227 L14879126 10971227 L14887351 10967115 L14891463 10963002 L14895576 10954778 L14899688 10938328 L14899688 10917766 L14895576 10901317 L14891463 10893092 L14887351 10888980 L14879126 10884867 "/>
<path d="M14796878 10884867 L14788654 10884867 L14780429 10888980 L14776316 10893092 L14772204 10901317 L14768092 10917766 L14768092 10938328 L14772204 10954778 L14776316 10963002 L14780429 10967115 L14788654 10971227 L14796878 10971227 L14805103 10967115 L14809216 10963002 L14813328 10954778 L14817440 10938328 L14817440 10917766 L14813328 10901317 L14809216 10893092 L14805103 10888980 L14796878 10884867 "/>
<path d="M14636496 10925991 L14624158 10930103 L14620046 10934216 L14615934 10942440 L14615934 10954778 L14620046 10963002 L14624158 10967115 L14632383 10971227 L14665282 10971227 L14665282 10884867 L14636496 10884867 L14628271 10888980 L14624158 10893092 L14620046 10901317 L14620046 10909541 L14624158 10917766 L14628271 10921879 L14636496 10925991 L14665282 10925991 "/>
<path d="M14578922 10971227 L14578922 10913654 "/>
<path d="M14578922 10930103 L14574810 10921879 L14570697 10917766 L14562473 10913654 L14554248 10913654 "/>
<path d="M14492562 10967115 L14500787 10971227 L14517236 10971227 L14525461 10967115 L14529574 10958890 L14529574 10925991 L14525461 10917766 L14517236 10913654 L14500787 10913654 L14492562 10917766 L14488450 10925991 L14488450 10934216 L14529574 10942440 "/>
<path d="M14414427 10971227 L14414427 10925991 L14418539 10917766 L14426764 10913654 L14443214 10913654 L14451438 10917766 "/>
<path d="M14414427 10967115 L14422652 10971227 L14443214 10971227 L14451438 10967115 L14455551 10958890 L14455551 10950665 L14451438 10942440 L14443214 10938328 L14422652 10938328 L14414427 10934216 "/>
<path d="M14373303 10971227 L14373303 10884867 "/>
<path d="M14365078 10938328 L14340404 10971227 "/>
<path d="M14340404 10913654 L14373303 10946553 "/>
<path d="M14291056 10971227 L14299280 10967115 L14303393 10963002 L14307505 10954778 L14307505 10930103 L14303393 10921879 L14299280 10917766 L14291056 10913654 L14278718 10913654 L14270494 10917766 L14266381 10921879 L14262269 10930103 L14262269 10954778 L14266381 10963002 L14270494 10967115 L14278718 10971227 L14291056 10971227 "/>
<path d="M14188246 10913654 L14188246 10971227 "/>
<path d="M14225257 10913654 L14225257 10958890 L14221145 10967115 L14212920 10971227 L14200583 10971227 L14192358 10967115 L14188246 10963002 "/>
<path d="M14159459 10913654 L14126560 10913654 "/>
<path d="M14147122 10884867 L14147122 10958890 L14143010 10967115 L14134785 10971227 L14126560 10971227 "/>
</g><g transform="rotate(90.000000 15662910.000000 9674860.000000)">
<text x="15662910.000000" y="9761220.000000" transform="scale(-1 1) translate(-31325820.000000 0)" textLength="218706.100000" font-size="115146.600000" lengthAdjust="spacingAndGlyphs" text-anchor="end" opacity="0">SCL</text>
</g>
<g class="stroked-text"><desc>SCL</desc>
<path d="M15584774 9906834 L15580662 9894497 L15580662 9873935 L15584774 9865710 L15588887 9861598 L15597111 9857486 L15605336 9857486 L15613561 9861598 L15617673 9865710 L15621786 9873935 L15625898 9890385 L15630010 9898609 L15634123 9902722 L15642348 9906834 L15650572 9906834 L15658797 9902722 L15662910 9898609 L15667022 9890385 L15667022 9869823 L15662910 9857486 "/>
<path d="M15588887 9771126 L15584774 9775238 L15580662 9787575 L15580662 9795800 L15584774 9808137 L15592999 9816362 L15601224 9820474 L15617673 9824586 L15630010 9824586 L15646460 9820474 L15654685 9816362 L15662910 9808137 L15667022 9795800 L15667022 9787575 L15662910 9775238 L15658797 9771126 "/>
<path d="M15580662 9692990 L15580662 9734114 L15667022 9734114 "/>
</g><g transform="rotate(90.000000 15154910.000000 9674860.000000)">
<text x="15154910.000000" y="9761220.000000" transform="scale(-1 1) translate(-30309820.000000 0)" textLength="222818.500000" font-size="115146.600000" lengthAdjust="spacingAndGlyphs" text-anchor="end" opacity="0">CLK</text>
</g>
<g class="stroked-text"><desc>CLK</desc>
<path d="M15080887 9857486 L15076774 9861598 L15072662 9873935 L15072662 9882160 L15076774 9894497 L15084999 9902722 L15093224 9906834 L15109673 9910946 L15122010 9910946 L15138460 9906834 L15146685 9902722 L15154910 9894497 L15159022 9882160 L15159022 9873935 L15154910 9861598 L15150797 9857486 "/>
<path d="M15072662 9779350 L15072662 9820474 L15159022 9820474 "/>
<path d="M15072662 9750564 L15159022 9750564 "/>
<path d="M15072662 9701215 L15122010 9738226 "/>
<path d="M15159022 9701215 L15109673 9750564 "/>
</g><g transform="rotate(90.000000 14392910.000000 9674860.000000)">
<text x="14392910.000000" y="9761220.000000" transform="scale(-1 1) translate(-28785820.000000 0)" textLength="185807.000000" font-size="115146.600000" lengthAdjust="spacingAndGlyphs" text-anchor="end" opacity="0">VIO</text>
</g>
<g class="stroked-text"><desc>VIO</desc>
<path d="M14397022 9882160 L14310662 9853373 L14397022 9824586 "/>
<path d="M14310662 9795800 L14397022 9795800 "/>
<path d="M14397022 9738226 L14397022 9721777 L14392910 9713552 L14384685 9705327 L14368235 9701215 L14339449 9701215 L14322999 9705327 L14314774 9713552 L14310662 9721777 L14310662 9738226 L14314774 9746451 L14322999 9754676 L14339449 9758788 L14368235 9758788 L14384685 9754676 L14392910 9746451 L14397022 9738226 "/>
</g><g transform="rotate(90.000000 14646910.000000 9674860.000000)">
<text x="14646910.000000" y="9761220.000000" transform="scale(-1 1) translate(-29293820.000000 0)" textLength="243380.400000" font-size="115146.600000" lengthAdjust="spacingAndGlyphs" text-anchor="end" opacity="0">GND</text>
</g>
<g class="stroked-text"><desc>GND</desc>
<path d="M14646910 9882160 L14651022 9890385 L14651022 9902722 L14646910 9915059 L14638685 9923284 L14630460 9927396 L14614010 9931508 L14601673 9931508 L14585224 9927396 L14576999 9923284 L14568774 9915059 L14564662 9902722 L14564662 9894497 L14568774 9882160 L14572887 9878047 L14601673 9878047 L14601673 9894497 "/>
<path d="M14564662 9841036 L14651022 9841036 L14564662 9791687 L14651022 9791687 "/>
<path d="M14564662 9750564 L14651022 9750564 L14651022 9730002 L14646910 9717665 L14638685 9709440 L14630460 9705327 L14614010 9701215 L14601673 9701215 L14585224 9705327 L14576999 9709440 L14568774 9717665 L14564662 9730002 L14564662 9750564 "/>
</g><g transform="rotate(90.000000 14138910.000000 9674860.000000)">
<text x="14138910.000000" y="9761220.000000" transform="scale(-1 1) translate(-28277820.000000 0)" textLength="226930.900000" font-size="115146.600000" lengthAdjust="spacingAndGlyphs" text-anchor="end" opacity="0">VCC</text>
</g>
<g class="stroked-text"><desc>VCC</desc>
<path d="M14143022 9923284 L14056662 9894497 L14143022 9865710 "/>
<path d="M14064887 9787575 L14060774 9791687 L14056662 9804025 L14056662 9812249 L14060774 9824586 L14068999 9832811 L14077224 9836924 L14093673 9841036 L14106010 9841036 L14122460 9836924 L14130685 9832811 L14138910 9824586 L14143022 9812249 L14143022 9804025 L14138910 9791687 L14134797 9787575 "/>
<path d="M14064887 9701215 L14060774 9705327 L14056662 9717665 L14056662 9725889 L14060774 9738226 L14068999 9746451 L14077224 9750564 L14093673 9754676 L14106010 9754676 L14122460 9750564 L14130685 9746451 L14138910 9738226 L14143022 9725889 L14143022 9717665 L14138910 9705327 L14134797 9701215 "/>
</g></g>
<g style="fill-opacity: 0.0;stroke-width: 3251.200000;stroke-opacity: 1;stroke-linecap: round;stroke-linejoin: round">
<g transform="rotate(-90.000000 15104110.000000 10273660.000000)">
<text x="15104110.000000" y="10273660.000000" transform="scale(-1 1) translate(-30208220.000000 0)" textLength="81671.900000" font-size="49851.700000" lengthAdjust="spacingAndGlyphs" text-anchor="start" opacity="0">JP6</text>
</g>
<g class="stroked-text"><desc>JP6</desc>
<path d="M15064940 10295357 L15091647 10295357 L15096988 10293577 L15100549 10290016 L15102329 10284675 L15102329 10281114 "/>
<path d="M15102329 10313162 L15064940 10313162 L15064940 10327405 L15066721 10330966 L15068501 10332746 L15072062 10334527 L15077403 10334527 L15080964 10332746 L15082744 10330966 L15084525 10327405 L15084525 10313162 "/>
<path d="M15064940 10366574 L15064940 10359452 L15066721 10355892 L15068501 10354111 L15073842 10350550 L15080964 10348770 L15095207 10348770 L15098768 10350550 L15100549 10352331 L15102329 10355892 L15102329 10363013 L15100549 10366574 L15098768 10368355 L15095207 10370135 L15086305 10370135 L15082744 10368355 L15080964 10366574 L15079184 10363013 L15079184 10355892 L15080964 10352331 L15082744 10350550 L15086305 10348770 "/>
</g></g>
<g style="fill-opacity: 1.0;stroke-width: 0.100000;stroke-opacity: 1;stroke-linecap: round;stroke-linejoin: round">
<path style="fill-opacity: 1.0;stroke-width: 0.100000;stroke-opacity: 1;stroke-linecap: round;stroke-linejoin: round;fill-rule: evenodd" d="M 14880318.400000,11100775.400000 14903492.300000,11110376.500000 14942972.000000,11078185.400000 14978404.600000,11113618.000000 14946213.500000,11153097.700000 14955814.600000,11176271.600000 15006490.000000,11181423.900000 15006490.000000,11231536.100000 14955814.600000,11236688.400000 14946213.500000,11259862.300000 14978404.600000,11299342.000000 14942972.000000,11334774.600000 14904002.200000,11302999.200000 14900769.700000,11304837.700000 14885643.200000,11311853.200000 14863039.000000,11257290.000000 14840942.300000,11257290.000000 14875041.200000,11236857.300000 14882402.300000,11228736.500000 14889327.600000,11205903.300000 14887791.300000,11195323.100000 14883068.900000,11185083.800000 14875633.400000,11176607.600000 14866096.800000,11170591.900000 14855244.200000,11167532.000000 14843969.400000,11167680.100000 14833201.300000,11171023.900000 14823825.800000,11177288.200000 14816615.300000,11185957.100000 14812163.600000,11196316.600000 14810837.100000,11207513.900000 14812745.100000,11218626.800000 14817483.800000,11228240.000000 14841242.100000,11247487.300000 14814449.900000,11312159.400000 14796392.300000,11302857.000000 14757248.000000,11334774.600000 14721815.400000,11299342.000000 14754006.500000,11259862.300000 14744405.400000,11236688.400000 14693730.000000,11231536.100000 14693730.000000,11181423.900000 14744405.400000,11176271.600000 14754006.500000,11153097.700000 14721815.400000,11113618.000000 14757248.000000,11078185.400000 14796392.300000,11110103.100000 14807763.000000,11104245.600000 14819945.300000,11100344.900000 14825053.900000,11050100.000000 14875166.100000,11050100.000000 Z"/> 
</g>
<g style="fill-opacity: 0.0;stroke-width: 20320.000000;stroke-opacity: 1;stroke-linecap: round;stroke-linejoin: round">
<path d="M14877110 10102860 L14877110 10262860 "/>
<path d="M15077110 10262860 L15077110 10102860 "/>
<path d="M14877109.918788 10262860.016243 A25495.200000 25495.200000 0.0 0 0 14907110.000858 10282860.004289"/>
<path d="M15077110.002385 10102859.999523 A25495.100000 25495.100000 0.0 0 0 15047109.999523 10082859.997615"/>
<path d="M14907110.000477 10082859.997615 A25495.100000 25495.100000 0.0 0 0 14877109.997615 10102859.999523"/>
<path d="M15047110.018754 10282859.906231 A25495.100000 25495.100000 0.0 0 0 15077109.983154 10262859.996631"/>
</g>
<g style="fill-opacity: 1.0;stroke-width: 0.100000;stroke-opacity: 1;stroke-linecap: round;stroke-linejoin: round">
<path style="fill-opacity: 1.0;stroke-width: 0.100000;stroke-opacity: 1;stroke-linecap: round;stroke-linejoin: round;fill-rule: evenodd" d="M 14835719.900000,10492348.000000 14850705.800000,10504749.700000 14850860.500000,10504904.400000 14857443.300000,10515974.500000 14855139.300000,10540736.300000 14828518.600000,10574019.900000 14822839.400000,10582175.600000 14821407.000000,10591594.100000 14831188.000000,10608094.400000 14839333.200000,10612051.600000 14848387.100000,10613885.800000 14858956.500000,10612705.000000 14868375.700000,10607791.500000 14871469.500000,10604542.600000 14873519.500000,10600537.100000 14874570.500000,10594210.000000 14873537.800000,10587993.000000 14871558.100000,10585344.600000 14863431.600000,10579445.900000 14861388.400000,10578535.800000 14857831.200000,10578616.700000 14857619.000000,10576250.100000 14863671.600000,10575297.700000 14873220.000000,10574551.100000 14882897.800000,10575307.800000 14896780.500000,10580511.100000 14907609.600000,10590863.300000 14914870.000000,10614983.000000 14914870.000000,10770151.000000 14863977.800000,10712881.600000 14845432.400000,10699100.800000 14841989.900000,10697855.400000 14838309.500000,10697210.000000 14815386.100000,10697210.000000 14775796.900000,10686159.000000 14746980.000000,10659001.900000 14746980.000000,10660902.200000 14735079.200000,10639775.800000 14728724.300000,10621318.000000 14725804.000000,10602016.500000 14726449.700000,10581370.600000 14726791.400000,10581375.900000 14737239.300000,10552247.300000 14759930.000000,10529266.200000 14759930.000000,10541078.800000 14760558.600000,10543364.400000 14766984.300000,10549321.100000 14767723.600000,10549641.400000 14768536.300000,10549896.800000 14776675.200000,10550177.600000 14784203.100000,10546996.200000 14793143.400000,10540540.400000 14800801.000000,10532873.100000 14805673.500000,10523377.500000 14806124.500000,10517531.400000 14792768.200000,10501268.600000 14782926.700000,10499340.000000 14775680.000000,10499340.000000 14775680.000000,10496800.000000 14776440.600000,10496800.000000 14786054.800000,10491076.600000 14787924.000000,10490402.400000 14789595.100000,10489572.500000 14790762.300000,10488981.700000 14792065.100000,10488477.100000 14801009.800000,10486239.700000 14810342.400000,10485353.600000 Z"/> 
</g> 
</g><g id="substrate-outline" style="fill:#000000; stroke:#000000; stroke-width: 15000.0"><g style="fill-opacity: 0.0;stroke-opacity: 1;stroke-linecap: round;stroke-linejoin: round">
<path d="M15739110 11579860 L13961110 11579860 "/>
<path d="M13961110 9420860 L15739110 9420860 "/>
<path d="M13961110 11579860 L13961110 9420860 "/>
<path d="M15739110 9420860 L15739110 11579860 "/>
</g> 
<path d="M -152400.0 0.0 A 152400.0 152400.0 0 1 1 152400.0 0.0 L 152400.0 -0.0 A 152400.0 152400.0 0 1 1 -152400.0 -0.0 Z" transform="translate(14215110.0 11325860.0) rotate(-0.0)"/><path d="M -50800.0 0.0 A 50800.0 50800.0 0 1 1 50800.0 0.0 L 50800.0 -0.0 A 50800.0 50800.0 0 1 1 -50800.0 -0.0 Z" transform="translate(14088110.0 9547860.0) rotate(-90.0)"/><path d="M -50800.0 0.0 A 50800.0 50800.0 0 1 1 50800.0 0.0 L 50800.0 -0.0 A 50800.0 50800.0 0 1 1 -50800.0 -0.0 Z" transform="translate(14342110.0 9547860.0) rotate(-90.0)"/><path d="M -50800.0 0.0 A 50800.0 50800.0 0 1 1 50800.0 0.0 L 50800.0 -0.0 A 50800.0 50800.0 0 1 1 -50800.0 -0.0 Z" transform="translate(14596110.0 9547860.0) rotate(-90.0)"/><path d="M -50800.0 0.0 A 50800.0 50800.0 0 1 1 50800.0 0.0 L 50800.0 -0.0 A 50800.0 50800.0 0 1 1 -50800.0 -0.0 Z" transform="translate(14850110.0 9547860.0) rotate(-90.0)"/><path d="M -50800.0 0.0 A 50800.0 50800.0 0 1 1 50800.0 0.0 L 50800.0 -0.0 A 50800.0 50800.0 0 1 1 -50800.0 -0.0 Z" transform="translate(15104110.0 9547860.0) rotate(-90.0)"/><path d="M -50800.0 0.0 A 50800.0 50800.0 0 1 1 50800.0 0.0 L 50800.0 -0.0 A 50800.0 50800.0 0 1 1 -50800.0 -0.0 Z" transform="translate(15358110.0 9547860.0) rotate(-90.0)"/><path d="M -50800.0 0.0 A 50800.0 50800.0 0 1 1 50800.0 0.0 L 50800.0 -0.0 A 50800.0 50800.0 0 1 1 -50800.0 -0.0 Z" transform="translate(15612110.0 9547860.0) rotate(-90.0)"/><path d="M -152400.0 0.0 A 152400.0 152400.0 0 1 1 152400.0 0.0 L 152400.0 -0.0 A 152400.0 152400.0 0 1 1 -152400.0 -0.0 Z" transform="translate(15485110.0 11325860.0) rotate(-0.0)"/><path d="M -25400.0 0.0 A 25400.0 25400.0 0 1 1 25400.0 0.0 L 25400.0 -0.0 A 25400.0 25400.0 0 1 1 -25400.0 -0.0 Z" transform="translate(14616430.0 11099800.0) rotate(0.0)"/><path d="M -25400.0 0.0 A 25400.0 25400.0 0 1 1 25400.0 0.0 L 25400.0 -0.0 A 25400.0 25400.0 0 1 1 -25400.0 -0.0 Z" transform="translate(14469110.0 9751060.0) rotate(0.0)"/><path d="M -25400.0 0.0 A 25400.0 25400.0 0 1 1 25400.0 0.0 L 25400.0 -0.0 A 25400.0 25400.0 0 1 1 -25400.0 -0.0 Z" transform="translate(14469110.0 10373360.0) rotate(0.0)"/><path d="M -25400.0 0.0 A 25400.0 25400.0 0 1 1 25400.0 0.0 L 25400.0 -0.0 A 25400.0 25400.0 0 1 1 -25400.0 -0.0 Z" transform="translate(15159990.0 11099800.0) rotate(0.0)"/><path d="M -25400.0 0.0 A 25400.0 25400.0 0 1 1 25400.0 0.0 L 25400.0 -0.0 A 25400.0 25400.0 0 1 1 -25400.0 -0.0 Z" transform="translate(14608810.0 10398760.0) rotate(0.0)"/><path d="M -25400.0 0.0 A 25400.0 25400.0 0 1 1 25400.0 0.0 L 25400.0 -0.0 A 25400.0 25400.0 0 1 1 -25400.0 -0.0 Z" transform="translate(15193010.0 10386060.0) rotate(0.0)"/><path d="M -25400.0 0.0 A 25400.0 25400.0 0 1 1 25400.0 0.0 L 25400.0 -0.0 A 25400.0 25400.0 0 1 1 -25400.0 -0.0 Z" transform="translate(14530070.0 10876280.0) rotate(0.0)"/><path d="M -25400.0 0.0 A 25400.0 25400.0 0 1 1 25400.0 0.0 L 25400.0 -0.0 A 25400.0 25400.0 0 1 1 -25400.0 -0.0 Z" transform="translate(15218410.0 10665460.0) rotate(0.0)"/><path d="M -25400.0 0.0 A 25400.0 25400.0 0 1 1 25400.0 0.0 L 25400.0 -0.0 A 25400.0 25400.0 0 1 1 -25400.0 -0.0 Z" transform="translate(15205710.0 10233660.0) rotate(0.0)"/><path d="M -25400.0 0.0 A 25400.0 25400.0 0 1 1 25400.0 0.0 L 25400.0 -0.0 A 25400.0 25400.0 0 1 1 -25400.0 -0.0 Z" transform="translate(14481810.0 10182860.0) rotate(0.0)"/><path d="M -25400.0 0.0 A 25400.0 25400.0 0 1 1 25400.0 0.0 L 25400.0 -0.0 A 25400.0 25400.0 0 1 1 -25400.0 -0.0 Z" transform="translate(14215110.0 10487660.0) rotate(0.0)"/></g></g></g></svg>