<!DOCTYPE svg PUBLIC "-//W3C//DTD SVG 1.1//EN" "http://www.w3.org/Graphics/SVG/1.1/DTD/svg11.dtd">
<svg xmlns="http://www.w3.org/2000/svg" version="1.1" width="19.1704mm" height="22.88mm" viewBox="14091400.0 8168360.0 1917040.0 2288000.0">
            <title>Picture generated by PcbDraw </title>
            <desc>Picture generated by PcbDraw</desc>
        <defs><clipPath id="cut-off"><path d=" M 14201560.0 8281120.0 L 15908440.0 8281120.0 L 15908440.0 10338520.0 L 14191400.0 10338520.0 L 14191400.0 8281120.0 " style="fill-rule: evenodd;"/></clipPath><mask id="pads-mask"><g style="fill:#ffffff; fill-opacity:0.0;  stroke:#ffffff; stroke-width:0.000000; stroke-opacity:1;  stroke-linecap:round; stroke-linejoin:round;">
<g style="fill:#ffffff; fill-opacity:1.0;  stroke:#ffffff; stroke-width:0.100000; stroke-opacity:1;  stroke-linecap:round; stroke-linejoin:round;">
<path style="fill:#ffffff; fill-opacity:1.0;  stroke:#ffffff; stroke-width:0.100000; stroke-opacity:1;  stroke-linecap:round; stroke-linejoin:round;fill-rule:evenodd;" d="M 14679080.000000,8544960.000000 14671426.300000,8543437.600000 14664937.900000,8539102.100000 14660602.400000,8532613.700000 14659080.000000,8524960.000000 14659080.000000,8321760.000000 14660602.400000,8314106.300000 14664937.900000,8307617.900000 14671426.300000,8303282.400000 14679080.000000,8301760.000000 14851800.000000,8301760.000000 14859453.700000,8303282.400000 14865942.100000,8307617.900000 14870277.600000,8314106.300000 14871800.000000,8321760.000000 14871800.000000,8524960.000000 14870277.600000,8532613.700000 14865942.100000,8539102.100000 14859453.700000,8543437.600000 14851800.000000,8544960.000000 Z"/> 
</g>
<g style="fill:#ffffff; fill-opacity:0.0;  stroke:#ffffff; stroke-width:212720.000000; stroke-opacity:1;  stroke-linecap:round; stroke-linejoin:round;">
<path d="M15019440 8438600 L15019440 8408120 "/>
<path d="M15273440 8438600 L15273440 8408120 "/>
</g>
<g style="fill:#ffffff; fill-opacity:1.0;  stroke:#ffffff; stroke-width:0.100000; stroke-opacity:1;  stroke-linecap:round; stroke-linejoin:round;">
<path style="fill:#ffffff; fill-opacity:1.0;  stroke:#ffffff; stroke-width:0.100000; stroke-opacity:1;  stroke-linecap:round; stroke-linejoin:round;fill-rule:evenodd;" d="M 14679080.000000,10322960.000000 14671426.300000,10321437.600000 14664937.900000,10317102.100000 14660602.400000,10310613.700000 14659080.000000,10302960.000000 14659080.000000,10099760.000000 14660602.400000,10092106.300000 14664937.900000,10085617.900000 14671426.300000,10081282.400000 14679080.000000,10079760.000000 14851800.000000,10079760.000000 14859453.700000,10081282.400000 14865942.100000,10085617.900000 14870277.600000,10092106.300000 14871800.000000,10099760.000000 14871800.000000,10302960.000000 14870277.600000,10310613.700000 14865942.100000,10317102.100000 14859453.700000,10321437.600000 14851800.000000,10322960.000000 Z"/> 
</g>
<g style="fill:#ffffff; fill-opacity:0.0;  stroke:#ffffff; stroke-width:212720.000000; stroke-opacity:1;  stroke-linecap:round; stroke-linejoin:round;">
<path d="M15019440 10216600 L15019440 10186120 "/>
<path d="M15273440 10216600 L15273440 10186120 "/>
</g>
<g style="fill:#ffffff; fill-opacity:1.0;  stroke:#ffffff; stroke-width:0.100000; stroke-opacity:1;  stroke-linecap:round; stroke-linejoin:round;">
<circle cx="14326302.000000" cy="9557274.000000" r="110000.000000"/> 
</g>
<g style="fill:#ffffff; fill-opacity:1.0;  stroke:#ffffff; stroke-width:0.100000; stroke-opacity:1;  stroke-linecap:round; stroke-linejoin:round;">
<circle cx="15776302.000000" cy="9557274.000000" r="110000.000000"/> 
</g>
<g style="fill:#ffffff; fill-opacity:1.0;  stroke:#ffffff; stroke-width:0.100000; stroke-opacity:1;  stroke-linecap:round; stroke-linejoin:round;">
<circle cx="15776302.000000" cy="9307274.000000" r="110000.000000"/> 
</g>
<g style="fill:#ffffff; fill-opacity:1.0;  stroke:#ffffff; stroke-width:0.100000; stroke-opacity:1;  stroke-linecap:round; stroke-linejoin:round;">
<circle cx="15776302.000000" cy="9057274.000000" r="110000.000000"/> 
</g>
<g style="fill:#ffffff; fill-opacity:1.0;  stroke:#ffffff; stroke-width:0.100000; stroke-opacity:1;  stroke-linecap:round; stroke-linejoin:round;">
<circle cx="14326302.000000" cy="9057274.000000" r="110000.000000"/> 
</g>
<g style="fill:#ffffff; fill-opacity:1.0;  stroke:#ffffff; stroke-width:0.100000; stroke-opacity:1;  stroke-linecap:round; stroke-linejoin:round;">
<circle cx="15026302.000000" cy="8747274.000000" r="170000.000000"/> 
</g>
<g style="fill:#ffffff; fill-opacity:1.0;  stroke:#ffffff; stroke-width:0.100000; stroke-opacity:1;  stroke-linecap:round; stroke-linejoin:round;">
<circle cx="15026302.000000" cy="9867274.000000" r="170000.000000"/> 
</g>
</g> 
</mask><mask id="pads-mask-silkscreen"><rect x="14183900.0" y="8245860.0" width="1732040.0" height="2133000.0" fill="white"/><g style="fill:#000000; fill-opacity:0.0;  stroke:#000000; stroke-width:0.000000; stroke-opacity:1;  stroke-linecap:round; stroke-linejoin:round;">
<g style="fill:#000000; fill-opacity:1.0;  stroke:#000000; stroke-width:0.100000; stroke-opacity:1;  stroke-linecap:round; stroke-linejoin:round;">
<path style="fill:#000000; fill-opacity:1.0;  stroke:#000000; stroke-width:0.100000; stroke-opacity:1;  stroke-linecap:round; stroke-linejoin:round;fill-rule:evenodd;" d="M 14679080.000000,8544960.000000 14671426.300000,8543437.600000 14664937.900000,8539102.100000 14660602.400000,8532613.700000 14659080.000000,8524960.000000 14659080.000000,8321760.000000 14660602.400000,8314106.300000 14664937.900000,8307617.900000 14671426.300000,8303282.400000 14679080.000000,8301760.000000 14851800.000000,8301760.000000 14859453.700000,8303282.400000 14865942.100000,8307617.900000 14870277.600000,8314106.300000 14871800.000000,8321760.000000 14871800.000000,8524960.000000 14870277.600000,8532613.700000 14865942.100000,8539102.100000 14859453.700000,8543437.600000 14851800.000000,8544960.000000 Z"/> 
</g>
<g style="fill:#000000; fill-opacity:0.0;  stroke:#000000; stroke-width:212720.000000; stroke-opacity:1;  stroke-linecap:round; stroke-linejoin:round;">
<path d="M15019440 8438600 L15019440 8408120 "/>
<path d="M15273440 8438600 L15273440 8408120 "/>
</g>
<g style="fill:#000000; fill-opacity:1.0;  stroke:#000000; stroke-width:0.100000; stroke-opacity:1;  stroke-linecap:round; stroke-linejoin:round;">
<path style="fill:#000000; fill-opacity:1.0;  stroke:#000000; stroke-width:0.100000; stroke-opacity:1;  stroke-linecap:round; stroke-linejoin:round;fill-rule:evenodd;" d="M 14679080.000000,10322960.000000 14671426.300000,10321437.600000 14664937.900000,10317102.100000 14660602.400000,10310613.700000 14659080.000000,10302960.000000 14659080.000000,10099760.000000 14660602.400000,10092106.300000 14664937.900000,10085617.900000 14671426.300000,10081282.400000 14679080.000000,10079760.000000 14851800.000000,10079760.000000 14859453.700000,10081282.400000 14865942.100000,10085617.900000 14870277.600000,10092106.300000 14871800.000000,10099760.000000 14871800.000000,10302960.000000 14870277.600000,10310613.700000 14865942.100000,10317102.100000 14859453.700000,10321437.600000 14851800.000000,10322960.000000 Z"/> 
</g>
<g style="fill:#000000; fill-opacity:0.0;  stroke:#000000; stroke-width:212720.000000; stroke-opacity:1;  stroke-linecap:round; stroke-linejoin:round;">
<path d="M15019440 10216600 L15019440 10186120 "/>
<path d="M15273440 10216600 L15273440 10186120 "/>
</g>
<g style="fill:#000000; fill-opacity:1.0;  stroke:#000000; stroke-width:0.100000; stroke-opacity:1;  stroke-linecap:round; stroke-linejoin:round;">
<circle cx="14326302.000000" cy="9557274.000000" r="110000.000000"/> 
</g>
<g style="fill:#000000; fill-opacity:1.0;  stroke:#000000; stroke-width:0.100000; stroke-opacity:1;  stroke-linecap:round; stroke-linejoin:round;">
<circle cx="15776302.000000" cy="9557274.000000" r="110000.000000"/> 
</g>
<g style="fill:#000000; fill-opacity:1.0;  stroke:#000000; stroke-width:0.100000; stroke-opacity:1;  stroke-linecap:round; stroke-linejoin:round;">
<circle cx="15776302.000000" cy="9307274.000000" r="110000.000000"/> 
</g>
<g style="fill:#000000; fill-opacity:1.0;  stroke:#000000; stroke-width:0.100000; stroke-opacity:1;  stroke-linecap:round; stroke-linejoin:round;">
<circle cx="15776302.000000" cy="9057274.000000" r="110000.000000"/> 
</g>
<g style="fill:#000000; fill-opacity:1.0;  stroke:#000000; stroke-width:0.100000; stroke-opacity:1;  stroke-linecap:round; stroke-linejoin:round;">
<circle cx="14326302.000000" cy="9057274.000000" r="110000.000000"/> 
</g>
<g style="fill:#000000; fill-opacity:1.0;  stroke:#000000; stroke-width:0.100000; stroke-opacity:1;  stroke-linecap:round; stroke-linejoin:round;">
<circle cx="15026302.000000" cy="8747274.000000" r="170000.000000"/> 
</g>
<g style="fill:#000000; fill-opacity:1.0;  stroke:#000000; stroke-width:0.100000; stroke-opacity:1;  stroke-linecap:round; stroke-linejoin:round;">
<circle cx="15026302.000000" cy="9867274.000000" r="170000.000000"/> 
</g>
</g> 
</mask><mask id="hole-mask"><g><rect x="14183900.0" y="8245860.0" fill="white" width="1732040.0" height="2133000.0"/><polyline stroke-linecap="round" stroke="black" stroke-width="101600.0" points="-0.0 0 0.0 0" transform="translate(14765440.0 8423360.0) rotate(-90.0)"/><polyline stroke-linecap="round" stroke="black" stroke-width="101600.0" points="-0.0 0 0.0 0" transform="translate(15019440.0 8423360.0) rotate(-90.0)"/><polyline stroke-linecap="round" stroke="black" stroke-width="101600.0" points="-0.0 0 0.0 0" transform="translate(15273440.0 8423360.0) rotate(-90.0)"/><polyline stroke-linecap="round" stroke="black" stroke-width="101600.0" points="-0.0 0 0.0 0" transform="translate(14765440.0 10201360.0) rotate(-90.0)"/><polyline stroke-linecap="round" stroke="black" stroke-width="101600.0" points="-0.0 0 0.0 0" transform="translate(15019440.0 10201360.0) rotate(-90.0)"/><polyline stroke-linecap="round" stroke="black" stroke-width="101600.0" points="-0.0 0 0.0 0" transform="translate(15273440.0 10201360.0) rotate(-90.0)"/><polyline stroke-linecap="round" stroke="black" stroke-width="100000.0" points="-0.0 0 0.0 0" transform="translate(14326302.0 9557274.0) rotate(-90.0)"/><polyline stroke-linecap="round" stroke="black" stroke-width="100000.0" points="-0.0 0 0.0 0" transform="translate(15776302.0 9557274.0) rotate(-90.0)"/><polyline stroke-linecap="round" stroke="black" stroke-width="100000.0" points="-0.0 0 0.0 0" transform="translate(15776302.0 9307274.0) rotate(-90.0)"/><polyline stroke-linecap="round" stroke="black" stroke-width="100000.0" points="-0.0 0 0.0 0" transform="translate(15776302.0 9057274.0) rotate(-90.0)"/><polyline stroke-linecap="round" stroke="black" stroke-width="100000.0" points="-0.0 0 0.0 0" transform="translate(14326302.0 9057274.0) rotate(-90.0)"/><polyline stroke-linecap="round" stroke="black" stroke-width="220000.0" points="-0.0 0 0.0 0" transform="translate(15026302.0 8747274.0) rotate(-90.0)"/><polyline stroke-linecap="round" stroke="black" stroke-width="220000.0" points="-0.0 0 0.0 0" transform="translate(15026302.0 9867274.0) rotate(-90.0)"/><polyline stroke-linecap="round" stroke="black" stroke-width="40000.0" points="-0.0 0 0.0 0" transform="translate(14846300.0 9690100.0) rotate(0.0)"/><polyline stroke-linecap="round" stroke="black" stroke-width="40000.0" points="-0.0 0 0.0 0" transform="translate(14465300.0 9639300.0) rotate(0.0)"/><polyline stroke-linecap="round" stroke="black" stroke-width="40000.0" points="-0.0 0 0.0 0" transform="translate(14884400.0 8915400.0) rotate(0.0)"/><polyline stroke-linecap="round" stroke="black" stroke-width="40000.0" points="-0.0 0 0.0 0" transform="translate(15582900.0 9347200.0) rotate(0.0)"/><polyline stroke-linecap="round" stroke="black" stroke-width="40000.0" points="-0.0 0 0.0 0" transform="translate(15278100.0 8915400.0) rotate(0.0)"/></g></mask></defs><g transform="" id="boardContainer"><g id="substrate" clip-path="url(#cut-off)" mask="url(#hole-mask)"><g id="substrate-board" style="fill:#4ca06c; stroke:#4ca06c;"><path d=" M 14201560.0 8281120.0 L 15908440.0 8281120.0 L 15908440.0 10338520.0 L 14191400.0 10338520.0 L 14191400.0 8281120.0 " style="fill-rule: evenodd;"/><g style="fill-opacity: 0.0;stroke-width: 15000.000000;stroke-opacity: 1;stroke-linecap: round;stroke-linejoin: round">
<path d="M14191400 10338520 L14191400 8281120 "/>
<path d="M15908440 10338520 L14191400 10338520 "/>
<path d="M15908440 8281120 L15908440 10338520 "/>
<path d="M14201560 8281120 L15908440 8281120 "/>
</g> 
</g><g id="substrate-clad" style="fill:#9c6b28; stroke:#9c6b28;"><g style="fill-opacity: 0.0;stroke-width: 0.000000;stroke-opacity: 1;stroke-linecap: round;stroke-linejoin: round">
<g style="fill-opacity: 1.0;stroke-width: 0.100000;stroke-opacity: 1;stroke-linecap: round;stroke-linejoin: round">
<path style="fill-opacity: 1.0;stroke-width: 0.100000;stroke-opacity: 1;stroke-linecap: round;stroke-linejoin: round;fill-rule: evenodd" d="M 14679080.000000,8544960.000000 14671426.300000,8543437.600000 14664937.900000,8539102.100000 14660602.400000,8532613.700000 14659080.000000,8524960.000000 14659080.000000,8321760.000000 14660602.400000,8314106.300000 14664937.900000,8307617.900000 14671426.300000,8303282.400000 14679080.000000,8301760.000000 14851800.000000,8301760.000000 14859453.700000,8303282.400000 14865942.100000,8307617.900000 14870277.600000,8314106.300000 14871800.000000,8321760.000000 14871800.000000,8524960.000000 14870277.600000,8532613.700000 14865942.100000,8539102.100000 14859453.700000,8543437.600000 14851800.000000,8544960.000000 Z"/> 
</g>
<g style="fill-opacity: 0.0;stroke-width: 212720.000000;stroke-opacity: 1;stroke-linecap: round;stroke-linejoin: round">
<path d="M15019440 8438600 L15019440 8408120 "/>
<path d="M15273440 8438600 L15273440 8408120 "/>
</g>
<g style="fill-opacity: 1.0;stroke-width: 0.100000;stroke-opacity: 1;stroke-linecap: round;stroke-linejoin: round">
<path style="fill-opacity: 1.0;stroke-width: 0.100000;stroke-opacity: 1;stroke-linecap: round;stroke-linejoin: round;fill-rule: evenodd" d="M 14679080.000000,10322960.000000 14671426.300000,10321437.600000 14664937.900000,10317102.100000 14660602.400000,10310613.700000 14659080.000000,10302960.000000 14659080.000000,10099760.000000 14660602.400000,10092106.300000 14664937.900000,10085617.900000 14671426.300000,10081282.400000 14679080.000000,10079760.000000 14851800.000000,10079760.000000 14859453.700000,10081282.400000 14865942.100000,10085617.900000 14870277.600000,10092106.300000 14871800.000000,10099760.000000 14871800.000000,10302960.000000 14870277.600000,10310613.700000 14865942.100000,10317102.100000 14859453.700000,10321437.600000 14851800.000000,10322960.000000 Z"/> 
</g>
<g style="fill-opacity: 0.0;stroke-width: 212720.000000;stroke-opacity: 1;stroke-linecap: round;stroke-linejoin: round">
<path d="M15019440 10216600 L15019440 10186120 "/>
<path d="M15273440 10216600 L15273440 10186120 "/>
</g>
<g style="fill-opacity: 1.0;stroke-width: 0.100000;stroke-opacity: 1;stroke-linecap: round;stroke-linejoin: round">
<circle cx="14326302.000000" cy="9557274.000000" r="110000.000000"/> 
</g>
<g style="fill-opacity: 1.0;stroke-width: 0.100000;stroke-opacity: 1;stroke-linecap: round;stroke-linejoin: round">
<circle cx="15776302.000000" cy="9557274.000000" r="110000.000000"/> 
</g>
<g style="fill-opacity: 1.0;stroke-width: 0.100000;stroke-opacity: 1;stroke-linecap: round;stroke-linejoin: round">
<circle cx="15776302.000000" cy="9307274.000000" r="110000.000000"/> 
</g>
<g style="fill-opacity: 1.0;stroke-width: 0.100000;stroke-opacity: 1;stroke-linecap: round;stroke-linejoin: round">
<circle cx="15776302.000000" cy="9057274.000000" r="110000.000000"/> 
</g>
<g style="fill-opacity: 1.0;stroke-width: 0.100000;stroke-opacity: 1;stroke-linecap: round;stroke-linejoin: round">
<circle cx="14326302.000000" cy="9057274.000000" r="110000.000000"/> 
</g>
<g style="fill-opacity: 1.0;stroke-width: 0.100000;stroke-opacity: 1;stroke-linecap: round;stroke-linejoin: round">
<circle cx="15026302.000000" cy="8747274.000000" r="170000.000000"/> 
</g>
<g style="fill-opacity: 1.0;stroke-width: 0.100000;stroke-opacity: 1;stroke-linecap: round;stroke-linejoin: round">
<circle cx="15026302.000000" cy="9867274.000000" r="170000.000000"/> 
</g>
</g> 
</g><g id="substrate-copper" style="fill:#417e5a; stroke:#417e5a;"><g style="fill-opacity: 0.0;stroke-width: 0.000000;stroke-opacity: 1;stroke-linecap: round;stroke-linejoin: round">
<g style="fill-opacity: 1.0;stroke-width: 0.100000;stroke-opacity: 1;stroke-linecap: round;stroke-linejoin: round">
<path style="fill-opacity: 1.0;stroke-width: 0.100000;stroke-opacity: 1;stroke-linecap: round;stroke-linejoin: round;fill-rule: evenodd" d="M 14851800.000000,8524960.000000 14679080.000000,8524960.000000 14679080.000000,8321760.000000 14851800.000000,8321760.000000 Z"/> 
</g>
<g style="fill-opacity: 0.0;stroke-width: 172720.000000;stroke-opacity: 1;stroke-linecap: round;stroke-linejoin: round">
<path d="M15019440 8438600 L15019440 8408120 "/>
<path d="M15273440 8438600 L15273440 8408120 "/>
</g>
<g style="fill-opacity: 1.0;stroke-width: 0.100000;stroke-opacity: 1;stroke-linecap: round;stroke-linejoin: round">
<path style="fill-opacity: 1.0;stroke-width: 0.100000;stroke-opacity: 1;stroke-linecap: round;stroke-linejoin: round;fill-rule: evenodd" d="M 14851800.000000,10302960.000000 14679080.000000,10302960.000000 14679080.000000,10099760.000000 14851800.000000,10099760.000000 Z"/> 
</g>
<g style="fill-opacity: 0.0;stroke-width: 172720.000000;stroke-opacity: 1;stroke-linecap: round;stroke-linejoin: round">
<path d="M15019440 10216600 L15019440 10186120 "/>
<path d="M15273440 10216600 L15273440 10186120 "/>
</g>
<g style="fill-opacity: 1.0;stroke-width: 0.100000;stroke-opacity: 1;stroke-linecap: round;stroke-linejoin: round">
<circle cx="14326302.000000" cy="9557274.000000" r="90000.000000"/> 
</g>
<g style="fill-opacity: 1.0;stroke-width: 0.100000;stroke-opacity: 1;stroke-linecap: round;stroke-linejoin: round">
<circle cx="15776302.000000" cy="9557274.000000" r="90000.000000"/> 
</g>
<g style="fill-opacity: 1.0;stroke-width: 0.100000;stroke-opacity: 1;stroke-linecap: round;stroke-linejoin: round">
<circle cx="15776302.000000" cy="9307274.000000" r="90000.000000"/> 
</g>
<g style="fill-opacity: 1.0;stroke-width: 0.100000;stroke-opacity: 1;stroke-linecap: round;stroke-linejoin: round">
<circle cx="15776302.000000" cy="9057274.000000" r="90000.000000"/> 
</g>
<g style="fill-opacity: 1.0;stroke-width: 0.100000;stroke-opacity: 1;stroke-linecap: round;stroke-linejoin: round">
<circle cx="14326302.000000" cy="9057274.000000" r="90000.000000"/> 
</g>
<g style="fill-opacity: 1.0;stroke-width: 0.100000;stroke-opacity: 1;stroke-linecap: round;stroke-linejoin: round">
<circle cx="15026302.000000" cy="8747274.000000" r="150000.000000"/> 
</g>
<g style="fill-opacity: 1.0;stroke-width: 0.100000;stroke-opacity: 1;stroke-linecap: round;stroke-linejoin: round">
<circle cx="15026302.000000" cy="9867274.000000" r="150000.000000"/> 
</g>
<g style="fill-opacity: 1.0;stroke-width: 0.100000;stroke-opacity: 1;stroke-linecap: round;stroke-linejoin: round">
<circle cx="14846300.000000" cy="9690100.000000" r="30000.000000"/> 
</g>
<g style="fill-opacity: 1.0;stroke-width: 0.100000;stroke-opacity: 1;stroke-linecap: round;stroke-linejoin: round">
<circle cx="14465300.000000" cy="9639300.000000" r="30000.000000"/> 
</g>
<g style="fill-opacity: 1.0;stroke-width: 0.100000;stroke-opacity: 1;stroke-linecap: round;stroke-linejoin: round">
<circle cx="14884400.000000" cy="8915400.000000" r="30000.000000"/> 
</g>
<g style="fill-opacity: 1.0;stroke-width: 0.100000;stroke-opacity: 1;stroke-linecap: round;stroke-linejoin: round">
<circle cx="15582900.000000" cy="9347200.000000" r="30000.000000"/> 
</g>
<g style="fill-opacity: 1.0;stroke-width: 0.100000;stroke-opacity: 1;stroke-linecap: round;stroke-linejoin: round">
<circle cx="15278100.000000" cy="8915400.000000" r="30000.000000"/> 
</g>
<g style="fill-opacity: 0.0;stroke-width: 30000.000000;stroke-opacity: 1;stroke-linecap: round;stroke-linejoin: round">
<path d="M14846300 9690100 L14770100 9766300 "/>
<path d="M14770100 9766300 L14770100 10198100 "/>
<path d="M14770100 10198100 L14765440 10201360 "/>
<path d="M14465300 9639300 L14884400 9220200 "/>
<path d="M14884400 9220200 L14884400 8915400 "/>
<path d="M15019440 10201360 L15024100 10198100 "/>
<path d="M15024100 10198100 L15151100 10071100 "/>
<path d="M15151100 10071100 L15151100 10058400 "/>
<path d="M15151100 10058400 L15646400 9563100 "/>
<path d="M15646400 9563100 L15646400 9512300 "/>
<path d="M15646400 9512300 L15659100 9499600 "/>
<path d="M15659100 9499600 L15659100 9486900 "/>
<path d="M15659100 9486900 L15671800 9474200 "/>
<path d="M15671800 9474200 L15671800 9461500 "/>
<path d="M15671800 9461500 L15773400 9359900 "/>
<path d="M15773400 9359900 L15773400 9309100 "/>
<path d="M15773400 9309100 L15776302 9307274 "/>
<path d="M14326302 9057274 L14325600 9055100 "/>
<path d="M14325600 9055100 L14770100 8610600 "/>
<path d="M14770100 8610600 L14770100 8420100 "/>
<path d="M14770100 8420100 L14765440 8423360 "/>
<path d="M15582900 9347200 L15201900 8966200 "/>
<path d="M15201900 8966200 L15201900 8890000 "/>
<path d="M15201900 8890000 L15214600 8877300 "/>
<path d="M15214600 8877300 L15214600 8686800 "/>
<path d="M15214600 8686800 L15201900 8674100 "/>
<path d="M15201900 8674100 L15201900 8648700 "/>
<path d="M15201900 8648700 L15024100 8470900 "/>
<path d="M15024100 8470900 L15024100 8420100 "/>
<path d="M15024100 8420100 L15019440 8423360 "/>
<path d="M15278100 8915400 L15278100 8420100 "/>
<path d="M15278100 8420100 L15273440 8423360 "/>
</g>
</g> 
</g><g id="substrate-pads" style="fill:#b5ae30; stroke:#b5ae30;" mask="url(#pads-mask)"><g style="fill-opacity: 0.0;stroke-width: 0.000000;stroke-opacity: 1;stroke-linecap: round;stroke-linejoin: round">
<g style="fill-opacity: 1.0;stroke-width: 0.100000;stroke-opacity: 1;stroke-linecap: round;stroke-linejoin: round">
<path style="fill-opacity: 1.0;stroke-width: 0.100000;stroke-opacity: 1;stroke-linecap: round;stroke-linejoin: round;fill-rule: evenodd" d="M 14851800.000000,8524960.000000 14679080.000000,8524960.000000 14679080.000000,8321760.000000 14851800.000000,8321760.000000 Z"/> 
</g>
<g style="fill-opacity: 0.0;stroke-width: 172720.000000;stroke-opacity: 1;stroke-linecap: round;stroke-linejoin: round">
<path d="M15019440 8438600 L15019440 8408120 "/>
<path d="M15273440 8438600 L15273440 8408120 "/>
</g>
<g style="fill-opacity: 1.0;stroke-width: 0.100000;stroke-opacity: 1;stroke-linecap: round;stroke-linejoin: round">
<path style="fill-opacity: 1.0;stroke-width: 0.100000;stroke-opacity: 1;stroke-linecap: round;stroke-linejoin: round;fill-rule: evenodd" d="M 14851800.000000,10302960.000000 14679080.000000,10302960.000000 14679080.000000,10099760.000000 14851800.000000,10099760.000000 Z"/> 
</g>
<g style="fill-opacity: 0.0;stroke-width: 172720.000000;stroke-opacity: 1;stroke-linecap: round;stroke-linejoin: round">
<path d="M15019440 10216600 L15019440 10186120 "/>
<path d="M15273440 10216600 L15273440 10186120 "/>
</g>
<g style="fill-opacity: 1.0;stroke-width: 0.100000;stroke-opacity: 1;stroke-linecap: round;stroke-linejoin: round">
<circle cx="14326302.000000" cy="9557274.000000" r="90000.000000"/> 
</g>
<g style="fill-opacity: 1.0;stroke-width: 0.100000;stroke-opacity: 1;stroke-linecap: round;stroke-linejoin: round">
<circle cx="15776302.000000" cy="9557274.000000" r="90000.000000"/> 
</g>
<g style="fill-opacity: 1.0;stroke-width: 0.100000;stroke-opacity: 1;stroke-linecap: round;stroke-linejoin: round">
<circle cx="15776302.000000" cy="9307274.000000" r="90000.000000"/> 
</g>
<g style="fill-opacity: 1.0;stroke-width: 0.100000;stroke-opacity: 1;stroke-linecap: round;stroke-linejoin: round">
<circle cx="15776302.000000" cy="9057274.000000" r="90000.000000"/> 
</g>
<g style="fill-opacity: 1.0;stroke-width: 0.100000;stroke-opacity: 1;stroke-linecap: round;stroke-linejoin: round">
<circle cx="14326302.000000" cy="9057274.000000" r="90000.000000"/> 
</g>
<g style="fill-opacity: 1.0;stroke-width: 0.100000;stroke-opacity: 1;stroke-linecap: round;stroke-linejoin: round">
<circle cx="15026302.000000" cy="8747274.000000" r="150000.000000"/> 
</g>
<g style="fill-opacity: 1.0;stroke-width: 0.100000;stroke-opacity: 1;stroke-linecap: round;stroke-linejoin: round">
<circle cx="15026302.000000" cy="9867274.000000" r="150000.000000"/> 
</g>
<g style="fill-opacity: 1.0;stroke-width: 0.100000;stroke-opacity: 1;stroke-linecap: round;stroke-linejoin: round">
<circle cx="14846300.000000" cy="9690100.000000" r="30000.000000"/> 
</g>
<g style="fill-opacity: 1.0;stroke-width: 0.100000;stroke-opacity: 1;stroke-linecap: round;stroke-linejoin: round">
<circle cx="14465300.000000" cy="9639300.000000" r="30000.000000"/> 
</g>
<g style="fill-opacity: 1.0;stroke-width: 0.100000;stroke-opacity: 1;stroke-linecap: round;stroke-linejoin: round">
<circle cx="14884400.000000" cy="8915400.000000" r="30000.000000"/> 
</g>
<g style="fill-opacity: 1.0;stroke-width: 0.100000;stroke-opacity: 1;stroke-linecap: round;stroke-linejoin: round">
<circle cx="15582900.000000" cy="9347200.000000" r="30000.000000"/> 
</g>
<g style="fill-opacity: 1.0;stroke-width: 0.100000;stroke-opacity: 1;stroke-linecap: round;stroke-linejoin: round">
<circle cx="15278100.000000" cy="8915400.000000" r="30000.000000"/> 
</g>
<g style="fill-opacity: 0.0;stroke-width: 30000.000000;stroke-opacity: 1;stroke-linecap: round;stroke-linejoin: round">
<path d="M14846300 9690100 L14770100 9766300 "/>
<path d="M14770100 9766300 L14770100 10198100 "/>
<path d="M14770100 10198100 L14765440 10201360 "/>
<path d="M14465300 9639300 L14884400 9220200 "/>
<path d="M14884400 9220200 L14884400 8915400 "/>
<path d="M15019440 10201360 L15024100 10198100 "/>
<path d="M15024100 10198100 L15151100 10071100 "/>
<path d="M15151100 10071100 L15151100 10058400 "/>
<path d="M15151100 10058400 L15646400 9563100 "/>
<path d="M15646400 9563100 L15646400 9512300 "/>
<path d="M15646400 9512300 L15659100 9499600 "/>
<path d="M15659100 9499600 L15659100 9486900 "/>
<path d="M15659100 9486900 L15671800 9474200 "/>
<path d="M15671800 9474200 L15671800 9461500 "/>
<path d="M15671800 9461500 L15773400 9359900 "/>
<path d="M15773400 9359900 L15773400 9309100 "/>
<path d="M15773400 9309100 L15776302 9307274 "/>
<path d="M14326302 9057274 L14325600 9055100 "/>
<path d="M14325600 9055100 L14770100 8610600 "/>
<path d="M14770100 8610600 L14770100 8420100 "/>
<path d="M14770100 8420100 L14765440 8423360 "/>
<path d="M15582900 9347200 L15201900 8966200 "/>
<path d="M15201900 8966200 L15201900 8890000 "/>
<path d="M15201900 8890000 L15214600 8877300 "/>
<path d="M15214600 8877300 L15214600 8686800 "/>
<path d="M15214600 8686800 L15201900 8674100 "/>
<path d="M15201900 8674100 L15201900 8648700 "/>
<path d="M15201900 8648700 L15024100 8470900 "/>
<path d="M15024100 8470900 L15024100 8420100 "/>
<path d="M15024100 8420100 L15019440 8423360 "/>
<path d="M15278100 8915400 L15278100 8420100 "/>
<path d="M15278100 8420100 L15273440 8423360 "/>
</g>
</g> 
</g><g id="substrate-silk" style="fill:#f0f0f0; stroke:#f0f0f0;" mask="url(#pads-mask-silkscreen)"><g style="fill-opacity: 0.0;stroke-width: 12700.000000;stroke-opacity: 1;stroke-linecap: round;stroke-linejoin: round">
<g transform="rotate(-90.000000 15502040.000000 9302200.000000)">
<text x="15502040.000000" y="9340300.000000" textLength="769257.200000" font-size="101600.000000" lengthAdjust="spacingAndGlyphs" text-anchor="middle" opacity="0">2017-03-09</text>
</g>
<g class="stroked-text"><desc>2017-03-09</desc>
<path d="M15467568 9672314 L15463940 9668685 L15460311 9661428 L15460311 9643285 L15463940 9636028 L15467568 9632400 L15474825 9628771 L15482082 9628771 L15492968 9632400 L15536511 9675942 L15536511 9628771 "/>
<path d="M15460311 9581600 L15460311 9574342 L15463940 9567085 L15467568 9563457 L15474825 9559828 L15489340 9556200 L15507482 9556200 L15521997 9559828 L15529254 9563457 L15532882 9567085 L15536511 9574342 L15536511 9581600 L15532882 9588857 L15529254 9592485 L15521997 9596114 L15507482 9599742 L15489340 9599742 L15474825 9596114 L15467568 9592485 L15463940 9588857 L15460311 9581600 "/>
<path d="M15536511 9483628 L15536511 9527171 "/>
<path d="M15536511 9505400 L15460311 9505400 L15471197 9512657 L15478454 9519914 L15482082 9527171 "/>
<path d="M15460311 9458228 L15460311 9407428 L15536511 9440085 "/>
<path d="M15507482 9378400 L15507482 9320342 "/>
<path d="M15460311 9269542 L15460311 9262285 L15463940 9255028 L15467568 9251400 L15474825 9247771 L15489340 9244142 L15507482 9244142 L15521997 9247771 L15529254 9251400 L15532882 9255028 L15536511 9262285 L15536511 9269542 L15532882 9276800 L15529254 9280428 L15521997 9284057 L15507482 9287685 L15489340 9287685 L15474825 9284057 L15467568 9280428 L15463940 9276800 L15460311 9269542 "/>
<path d="M15460311 9218742 L15460311 9171571 L15489340 9196971 L15489340 9186085 L15492968 9178828 L15496597 9175200 L15503854 9171571 L15521997 9171571 L15529254 9175200 L15532882 9178828 L15536511 9186085 L15536511 9207857 L15532882 9215114 L15529254 9218742 "/>
<path d="M15507482 9138914 L15507482 9080857 "/>
<path d="M15460311 9030057 L15460311 9022800 L15463940 9015542 L15467568 9011914 L15474825 9008285 L15489340 9004657 L15507482 9004657 L15521997 9008285 L15529254 9011914 L15532882 9015542 L15536511 9022800 L15536511 9030057 L15532882 9037314 L15529254 9040942 L15521997 9044571 L15507482 9048200 L15489340 9048200 L15474825 9044571 L15467568 9040942 L15463940 9037314 L15460311 9030057 "/>
<path d="M15536511 8968371 L15536511 8953857 L15532882 8946600 L15529254 8942971 L15518368 8935714 L15503854 8932085 L15474825 8932085 L15467568 8935714 L15463940 8939342 L15460311 8946600 L15460311 8961114 L15463940 8968371 L15467568 8972000 L15474825 8975628 L15492968 8975628 L15500225 8972000 L15503854 8968371 L15507482 8961114 L15507482 8946600 L15503854 8939342 L15500225 8935714 L15492968 8932085 "/>
</g></g>
<g style="fill-opacity: 0.0;stroke-width: 7620.000000;stroke-opacity: 1;stroke-linecap: round;stroke-linejoin: round">
<g transform="rotate(-90.000000 15146440.000000 8428440.000000)">
<text x="15146440.000000" y="8447490.000000" textLength="155847.100000" font-size="60960.000000" lengthAdjust="spacingAndGlyphs" text-anchor="middle" opacity="0">SW1</text>
</g>
<g class="stroked-text"><desc>SW1</desc>
<path d="M15161861 8489400 L15163675 8482868 L15163675 8471982 L15161861 8467628 L15160047 8465451 L15156418 8463274 L15152790 8463274 L15149161 8465451 L15147347 8467628 L15145532 8471982 L15143718 8480691 L15141904 8485045 L15140090 8487222 L15136461 8489400 L15132832 8489400 L15129204 8487222 L15127390 8485045 L15125575 8480691 L15125575 8469805 L15127390 8463274 "/>
<path d="M15125575 8448034 L15163675 8437148 L15136461 8428440 L15163675 8419731 L15125575 8408845 "/>
<path d="M15163675 8367480 L15163675 8393605 "/>
<path d="M15163675 8380542 L15125575 8380542 L15131018 8384897 L15134647 8389251 L15136461 8393605 "/>
</g></g>
<g style="fill-opacity: 0.0;stroke-width: 12700.000000;stroke-opacity: 1;stroke-linecap: round;stroke-linejoin: round">
<g transform="rotate(-90.000000 15466099.000000 8418280.000000)">
<text x="15466099.000000" y="8456380.000000" textLength="227620.300000" font-size="101600.000000" lengthAdjust="spacingAndGlyphs" text-anchor="middle" opacity="0">VCC</text>
</g>
<g class="stroked-text"><desc>VCC</desc>
<path d="M15424370 8519880 L15500570 8494480 L15424370 8469080 "/>
<path d="M15493313 8400137 L15496941 8403765 L15500570 8414651 L15500570 8421908 L15496941 8432794 L15489684 8440051 L15482427 8443680 L15467913 8447308 L15457027 8447308 L15442513 8443680 L15435256 8440051 L15427999 8432794 L15424370 8421908 L15424370 8414651 L15427999 8403765 L15431627 8400137 "/>
<path d="M15493313 8323937 L15496941 8327565 L15500570 8338451 L15500570 8345708 L15496941 8356594 L15489684 8363851 L15482427 8367480 L15467913 8371108 L15457027 8371108 L15442513 8367480 L15435256 8363851 L15427999 8356594 L15424370 8345708 L15424370 8338451 L15427999 8327565 L15431627 8323937 "/>
</g><g transform="rotate(-90.000000 15588781.000000 8418280.000000)">
<text x="15588781.000000" y="8456380.000000" textLength="16510.000000" font-size="101600.000000" lengthAdjust="spacingAndGlyphs" text-anchor="middle" opacity="0"/>
</g>
<g class="stroked-text"><desc/>
</g><g transform="rotate(-90.000000 14557160.000000 8423360.000000)">
<text x="14557160.000000" y="8461460.000000" textLength="244928.600000" font-size="101600.000000" lengthAdjust="spacingAndGlyphs" text-anchor="middle" opacity="0">GND</text>
</g>
<g class="stroked-text"><desc>GND</desc>
<path d="M14519060 8481417 L14515431 8488674 L14515431 8499560 L14519060 8510445 L14526317 8517702 L14533574 8521331 L14548088 8524960 L14558974 8524960 L14573488 8521331 L14580745 8517702 L14588002 8510445 L14591631 8499560 L14591631 8492302 L14588002 8481417 L14584374 8477788 L14558974 8477788 L14558974 8492302 "/>
<path d="M14591631 8445131 L14515431 8445131 L14591631 8401588 L14515431 8401588 "/>
<path d="M14591631 8365302 L14515431 8365302 L14515431 8347160 L14519060 8336274 L14526317 8329017 L14533574 8325388 L14548088 8321760 L14558974 8321760 L14573488 8325388 L14580745 8329017 L14588002 8336274 L14591631 8347160 L14591631 8365302 "/>
</g><g transform="rotate(-90.000000 14470800.000000 9332680.000000)">
<text x="14470800.000000" y="9370780.000000" textLength="1003481.400000" font-size="101600.000000" lengthAdjust="spacingAndGlyphs" text-anchor="middle" opacity="0">github.com/pdp7</text>
</g>
<g class="stroked-text"><desc>github.com/pdp7</desc>
<path d="M14454471 9775365 L14516157 9775365 L14523414 9778994 L14527042 9782622 L14530671 9789880 L14530671 9800765 L14527042 9808022 "/>
<path d="M14501642 9775365 L14505271 9782622 L14505271 9797137 L14501642 9804394 L14498014 9808022 L14490757 9811651 L14468985 9811651 L14461728 9808022 L14458100 9804394 L14454471 9797137 L14454471 9782622 L14458100 9775365 "/>
<path d="M14505271 9739080 L14454471 9739080 "/>
<path d="M14429071 9739080 L14432700 9742708 L14436328 9739080 L14432700 9735451 L14429071 9739080 L14436328 9739080 "/>
<path d="M14454471 9713680 L14454471 9684651 "/>
<path d="M14429071 9702794 L14494385 9702794 L14501642 9699165 L14505271 9691908 L14505271 9684651 "/>
<path d="M14505271 9659251 L14429071 9659251 "/>
<path d="M14505271 9626594 L14465357 9626594 L14458100 9630222 L14454471 9637480 L14454471 9648365 L14458100 9655622 L14461728 9659251 "/>
<path d="M14454471 9557651 L14505271 9557651 "/>
<path d="M14454471 9590308 L14494385 9590308 L14501642 9586680 L14505271 9579422 L14505271 9568537 L14501642 9561280 L14498014 9557651 "/>
<path d="M14505271 9521365 L14429071 9521365 "/>
<path d="M14458100 9521365 L14454471 9514108 L14454471 9499594 L14458100 9492337 L14461728 9488708 L14468985 9485080 L14490757 9485080 L14498014 9488708 L14501642 9492337 L14505271 9499594 L14505271 9514108 L14501642 9521365 "/>
<path d="M14498014 9452422 L14501642 9448794 L14505271 9452422 L14501642 9456051 L14498014 9452422 L14505271 9452422 "/>
<path d="M14501642 9383480 L14505271 9390737 L14505271 9405251 L14501642 9412508 L14498014 9416137 L14490757 9419765 L14468985 9419765 L14461728 9416137 L14458100 9412508 L14454471 9405251 L14454471 9390737 L14458100 9383480 "/>
<path d="M14505271 9339937 L14501642 9347194 L14498014 9350822 L14490757 9354451 L14468985 9354451 L14461728 9350822 L14458100 9347194 L14454471 9339937 L14454471 9329051 L14458100 9321794 L14461728 9318165 L14468985 9314537 L14490757 9314537 L14498014 9318165 L14501642 9321794 L14505271 9329051 L14505271 9339937 "/>
<path d="M14505271 9281880 L14454471 9281880 "/>
<path d="M14461728 9281880 L14458100 9278251 L14454471 9270994 L14454471 9260108 L14458100 9252851 L14465357 9249222 L14505271 9249222 "/>
<path d="M14465357 9249222 L14458100 9245594 L14454471 9238337 L14454471 9227451 L14458100 9220194 L14465357 9216565 L14505271 9216565 "/>
<path d="M14425442 9125851 L14523414 9191165 "/>
<path d="M14454471 9100451 L14530671 9100451 "/>
<path d="M14458100 9100451 L14454471 9093194 L14454471 9078680 L14458100 9071422 L14461728 9067794 L14468985 9064165 L14490757 9064165 L14498014 9067794 L14501642 9071422 L14505271 9078680 L14505271 9093194 L14501642 9100451 "/>
<path d="M14505271 8998851 L14429071 8998851 "/>
<path d="M14501642 8998851 L14505271 9006108 L14505271 9020622 L14501642 9027880 L14498014 9031508 L14490757 9035137 L14468985 9035137 L14461728 9031508 L14458100 9027880 L14454471 9020622 L14454471 9006108 L14458100 8998851 "/>
<path d="M14454471 8962565 L14530671 8962565 "/>
<path d="M14458100 8962565 L14454471 8955308 L14454471 8940794 L14458100 8933537 L14461728 8929908 L14468985 8926280 L14490757 8926280 L14498014 8929908 L14501642 8933537 L14505271 8940794 L14505271 8955308 L14501642 8962565 "/>
<path d="M14429071 8900880 L14429071 8850080 L14505271 8882737 "/>
</g></g>
<g style="fill-opacity: 0.0;stroke-width: 7620.000000;stroke-opacity: 1;stroke-linecap: round;stroke-linejoin: round">
<g transform="rotate(-90.000000 15143900.000000 10191200.000000)">
<text x="15143900.000000" y="10210250.000000" textLength="155847.100000" font-size="60960.000000" lengthAdjust="spacingAndGlyphs" text-anchor="middle" opacity="0">GND</text>
</g>
<g class="stroked-text"><desc>GND</desc>
<path d="M15124850 10226034 L15123035 10230388 L15123035 10236920 L15124850 10243451 L15128478 10247805 L15132107 10249982 L15139364 10252160 L15144807 10252160 L15152064 10249982 L15155692 10247805 L15159321 10243451 L15161135 10236920 L15161135 10232565 L15159321 10226034 L15157507 10223857 L15144807 10223857 L15144807 10232565 "/>
<path d="M15161135 10204262 L15123035 10204262 L15161135 10178137 L15123035 10178137 "/>
<path d="M15161135 10156365 L15123035 10156365 L15123035 10145480 L15124850 10138948 L15128478 10134594 L15132107 10132417 L15139364 10130240 L15144807 10130240 L15152064 10132417 L15155692 10134594 L15159321 10138948 L15161135 10145480 L15161135 10156365 "/>
</g></g>
<g style="fill-opacity: 0.0;stroke-width: 12700.000000;stroke-opacity: 1;stroke-linecap: round;stroke-linejoin: round">
<text x="15461400.000000" y="10229300.000000" textLength="86106.000000" font-size="101600.000000" lengthAdjust="spacingAndGlyphs" text-anchor="middle" opacity="0">B</text>
<g class="stroked-text"><desc>B</desc>
<path d="M15466842 10185757 L15477728 10189385 L15481357 10193014 L15484985 10200271 L15484985 10211157 L15481357 10218414 L15477728 10222042 L15470471 10225671 L15441442 10225671 L15441442 10149471 L15466842 10149471 L15474100 10153100 L15477728 10156728 L15481357 10163985 L15481357 10171242 L15477728 10178500 L15474100 10182128 L15466842 10185757 L15441442 10185757 "/>
</g><text x="14566050.000000" y="10229300.000000" textLength="81824.300000" font-size="101600.000000" lengthAdjust="spacingAndGlyphs" text-anchor="middle" opacity="0">A</text>
<g class="stroked-text"><desc>A</desc>
<path d="M14547907 10203900 L14584192 10203900 "/>
<path d="M14540650 10225671 L14566050 10149471 L14591450 10225671 "/>
</g></g>
<g style="fill-opacity: 0.0;stroke-width: 10160.000000;stroke-opacity: 1;stroke-linecap: round;stroke-linejoin: round">
<g transform="rotate(-90.000000 14613040.000000 9312360.000000)">
<text x="14613040.000000" y="9350460.000000" textLength="1433588.100000" font-size="98213.300000" lengthAdjust="spacingAndGlyphs" text-anchor="middle" opacity="0">rotary-encoder-breakout</text>
</g>
<g class="stroked-text"><desc>rotary-encoder-breakout</desc>
<path d="M14647511 10003360 L14596711 10003360 "/>
<path d="M14611225 10003360 L14603968 9999853 L14600340 9996345 L14596711 9989330 L14596711 9982315 "/>
<path d="M14647511 9947239 L14643882 9954254 L14640254 9957761 L14632997 9961269 L14611225 9961269 L14603968 9957761 L14600340 9954254 L14596711 9947239 L14596711 9936716 L14600340 9929700 L14603968 9926193 L14611225 9922685 L14632997 9922685 L14640254 9926193 L14643882 9929700 L14647511 9936716 L14647511 9947239 "/>
<path d="M14596711 9901640 L14596711 9873579 "/>
<path d="M14571311 9891117 L14636625 9891117 L14643882 9887609 L14647511 9880594 L14647511 9873579 "/>
<path d="M14647511 9817457 L14607597 9817457 L14600340 9820964 L14596711 9827980 L14596711 9842010 L14600340 9849025 "/>
<path d="M14643882 9817457 L14647511 9824472 L14647511 9842010 L14643882 9849025 L14636625 9852533 L14629368 9852533 L14622111 9849025 L14618482 9842010 L14618482 9824472 L14614854 9817457 "/>
<path d="M14647511 9782380 L14596711 9782380 "/>
<path d="M14611225 9782380 L14603968 9778873 L14600340 9775365 L14596711 9768350 L14596711 9761335 "/>
<path d="M14596711 9743797 L14647511 9726259 "/>
<path d="M14596711 9708720 L14647511 9726259 L14665654 9733274 L14669282 9736781 L14672911 9743797 "/>
<path d="M14618482 9680660 L14618482 9624538 "/>
<path d="M14643882 9561400 L14647511 9568416 L14647511 9582446 L14643882 9589461 L14636625 9592969 L14607597 9592969 L14600340 9589461 L14596711 9582446 L14596711 9568416 L14600340 9561400 L14607597 9557893 L14614854 9557893 L14622111 9592969 "/>
<path d="M14596711 9526324 L14647511 9526324 "/>
<path d="M14603968 9526324 L14600340 9522817 L14596711 9515801 L14596711 9505279 L14600340 9498263 L14607597 9494756 L14647511 9494756 "/>
<path d="M14643882 9428111 L14647511 9435126 L14647511 9449157 L14643882 9456172 L14640254 9459680 L14632997 9463187 L14611225 9463187 L14603968 9459680 L14600340 9456172 L14596711 9449157 L14596711 9435126 L14600340 9428111 "/>
<path d="M14647511 9386020 L14643882 9393035 L14640254 9396542 L14632997 9400050 L14611225 9400050 L14603968 9396542 L14600340 9393035 L14596711 9386020 L14596711 9375497 L14600340 9368481 L14603968 9364974 L14611225 9361466 L14632997 9361466 L14640254 9364974 L14643882 9368481 L14647511 9375497 L14647511 9386020 "/>
<path d="M14647511 9298329 L14571311 9298329 "/>
<path d="M14643882 9298329 L14647511 9305344 L14647511 9319375 L14643882 9326390 L14640254 9329898 L14632997 9333405 L14611225 9333405 L14603968 9329898 L14600340 9326390 L14596711 9319375 L14596711 9305344 L14600340 9298329 "/>
<path d="M14643882 9235192 L14647511 9242207 L14647511 9256238 L14643882 9263253 L14636625 9266760 L14607597 9266760 L14600340 9263253 L14596711 9256238 L14596711 9242207 L14600340 9235192 L14607597 9231684 L14614854 9231684 L14622111 9266760 "/>
<path d="M14647511 9200116 L14596711 9200116 "/>
<path d="M14611225 9200116 L14603968 9196608 L14600340 9193100 L14596711 9186085 L14596711 9179070 "/>
<path d="M14618482 9154517 L14618482 9098395 "/>
<path d="M14647511 9063319 L14571311 9063319 "/>
<path d="M14600340 9063319 L14596711 9056303 L14596711 9042273 L14600340 9035258 L14603968 9031750 L14611225 9028242 L14632997 9028242 L14640254 9031750 L14643882 9035258 L14647511 9042273 L14647511 9056303 L14643882 9063319 "/>
<path d="M14647511 8996674 L14596711 8996674 "/>
<path d="M14611225 8996674 L14603968 8993166 L14600340 8989659 L14596711 8982643 L14596711 8975628 "/>
<path d="M14643882 8923014 L14647511 8930029 L14647511 8944060 L14643882 8951075 L14636625 8954582 L14607597 8954582 L14600340 8951075 L14596711 8944060 L14596711 8930029 L14600340 8923014 L14607597 8919506 L14614854 8919506 L14622111 8954582 "/>
<path d="M14647511 8856369 L14607597 8856369 L14600340 8859877 L14596711 8866892 L14596711 8880922 L14600340 8887938 "/>
<path d="M14643882 8856369 L14647511 8863384 L14647511 8880922 L14643882 8887938 L14636625 8891445 L14629368 8891445 L14622111 8887938 L14618482 8880922 L14618482 8863384 L14614854 8856369 "/>
<path d="M14647511 8821293 L14571311 8821293 "/>
<path d="M14618482 8814278 L14647511 8793232 "/>
<path d="M14596711 8793232 L14625740 8821293 "/>
<path d="M14647511 8751140 L14643882 8758156 L14640254 8761663 L14632997 8765171 L14611225 8765171 L14603968 8761663 L14600340 8758156 L14596711 8751140 L14596711 8740618 L14600340 8733602 L14603968 8730095 L14611225 8726587 L14632997 8726587 L14640254 8730095 L14643882 8733602 L14647511 8740618 L14647511 8751140 "/>
<path d="M14596711 8663450 L14647511 8663450 "/>
<path d="M14596711 8695019 L14636625 8695019 L14643882 8691511 L14647511 8684496 L14647511 8673973 L14643882 8666958 L14640254 8663450 "/>
<path d="M14596711 8638897 L14596711 8610836 "/>
<path d="M14571311 8628374 L14636625 8628374 L14643882 8624866 L14647511 8617851 L14647511 8610836 "/>
</g></g>
<g style="fill-opacity: 0.0;stroke-width: 15000.000000;stroke-opacity: 1;stroke-linecap: round;stroke-linejoin: round">
<path d="M14892440 8550360 L15400440 8550360 "/>
<path d="M15400440 8550360 L15400440 8296360 "/>
<path d="M15400440 8296360 L14892440 8296360 "/>
<path d="M14610440 8268360 L14765440 8268360 "/>
<path d="M14892440 8296360 L14892440 8550360 "/>
<path d="M14765440 8578360 L14610440 8578360 "/>
<path d="M14610440 8578360 L14610440 8268360 "/>
<path d="M14892440 10328360 L15400440 10328360 "/>
<path d="M15400440 10328360 L15400440 10074360 "/>
<path d="M15400440 10074360 L14892440 10074360 "/>
<path d="M14610440 10046360 L14765440 10046360 "/>
<path d="M14892440 10074360 L14892440 10328360 "/>
<path d="M14765440 10356360 L14610440 10356360 "/>
<path d="M14610440 10356360 L14610440 10046360 "/>
</g>
<g style="fill-opacity: 0.0;stroke-width: 20320.000000;stroke-opacity: 1;stroke-linecap: round;stroke-linejoin: round">
<path d="M14876302 9007274 L14876302 9607274 "/>
<circle cx="15026302.000000" cy="9307274.000000" r="350000.000000"/> 
<path d="M15676302 8707274 L15676302 9907274 "/>
<path d="M15676302 9907274 L14376302 9907274 "/>
<path d="M14376302 9907274 L14376302 8707274 "/>
<path d="M14376302 8707274 L15676302 8707274 "/>
<g style="fill-opacity: 1.0;stroke-width: 0.100000;stroke-opacity: 1;stroke-linecap: round;stroke-linejoin: round">
<path style="fill-opacity: 1.0;stroke-width: 0.100000;stroke-opacity: 1;stroke-linecap: round;stroke-linejoin: round;fill-rule: evenodd" d="M 14851800.000000,8524960.000000 14679080.000000,8524960.000000 14679080.000000,8321760.000000 14851800.000000,8321760.000000 Z"/> 
</g>
<g style="fill-opacity: 0.0;stroke-width: 172720.000000;stroke-opacity: 1;stroke-linecap: round;stroke-linejoin: round">
<path d="M15019440 8438600 L15019440 8408120 "/>
<path d="M15273440 8438600 L15273440 8408120 "/>
</g>
<g style="fill-opacity: 1.0;stroke-width: 0.100000;stroke-opacity: 1;stroke-linecap: round;stroke-linejoin: round">
<path style="fill-opacity: 1.0;stroke-width: 0.100000;stroke-opacity: 1;stroke-linecap: round;stroke-linejoin: round;fill-rule: evenodd" d="M 14851800.000000,10302960.000000 14679080.000000,10302960.000000 14679080.000000,10099760.000000 14851800.000000,10099760.000000 Z"/> 
</g>
<g style="fill-opacity: 0.0;stroke-width: 172720.000000;stroke-opacity: 1;stroke-linecap: round;stroke-linejoin: round">
<path d="M15019440 10216600 L15019440 10186120 "/>
<path d="M15273440 10216600 L15273440 10186120 "/>
</g>
<g style="fill-opacity: 1.0;stroke-width: 0.100000;stroke-opacity: 1;stroke-linecap: round;stroke-linejoin: round">
<circle cx="14326302.000000" cy="9557274.000000" r="90000.000000"/> 
</g>
<g style="fill-opacity: 1.0;stroke-width: 0.100000;stroke-opacity: 1;stroke-linecap: round;stroke-linejoin: round">
<circle cx="15776302.000000" cy="9557274.000000" r="90000.000000"/> 
</g>
<g style="fill-opacity: 1.0;stroke-width: 0.100000;stroke-opacity: 1;stroke-linecap: round;stroke-linejoin: round">
<circle cx="15776302.000000" cy="9307274.000000" r="90000.000000"/> 
</g>
<g style="fill-opacity: 1.0;stroke-width: 0.100000;stroke-opacity: 1;stroke-linecap: round;stroke-linejoin: round">
<circle cx="15776302.000000" cy="9057274.000000" r="90000.000000"/> 
</g>
<g style="fill-opacity: 1.0;stroke-width: 0.100000;stroke-opacity: 1;stroke-linecap: round;stroke-linejoin: round">
<circle cx="14326302.000000" cy="9057274.000000" r="90000.000000"/> 
</g>
<g style="fill-opacity: 1.0;stroke-width: 0.100000;stroke-opacity: 1;stroke-linecap: round;stroke-linejoin: round">
<circle cx="15026302.000000" cy="8747274.000000" r="150000.000000"/> 
</g>
<g style="fill-opacity: 1.0;stroke-width: 0.100000;stroke-opacity: 1;stroke-linecap: round;stroke-linejoin: round">
<circle cx="15026302.000000" cy="9867274.000000" r="150000.000000"/> 
</g>
</g> 
</g><g id="substrate-outline" style="fill:#000000; stroke:#000000; stroke-width: 15000.0"><g style="fill-opacity: 0.0;stroke-opacity: 1;stroke-linecap: round;stroke-linejoin: round">
<path d="M14191400 10338520 L14191400 8281120 "/>
<path d="M15908440 10338520 L14191400 10338520 "/>
<path d="M15908440 8281120 L15908440 10338520 "/>
<path d="M14201560 8281120 L15908440 8281120 "/>
</g> 
<path d="M -50800.0 0.0 A 50800.0 50800.0 0 1 1 50800.0 0.0 L 50800.0 -0.0 A 50800.0 50800.0 0 1 1 -50800.0 -0.0 Z" transform="translate(14765440.0 8423360.0) rotate(-90.0)"/><path d="M -50800.0 0.0 A 50800.0 50800.0 0 1 1 50800.0 0.0 L 50800.0 -0.0 A 50800.0 50800.0 0 1 1 -50800.0 -0.0 Z" transform="translate(15019440.0 8423360.0) rotate(-90.0)"/><path d="M -50800.0 0.0 A 50800.0 50800.0 0 1 1 50800.0 0.0 L 50800.0 -0.0 A 50800.0 50800.0 0 1 1 -50800.0 -0.0 Z" transform="translate(15273440.0 8423360.0) rotate(-90.0)"/><path d="M -50800.0 0.0 A 50800.0 50800.0 0 1 1 50800.0 0.0 L 50800.0 -0.0 A 50800.0 50800.0 0 1 1 -50800.0 -0.0 Z" transform="translate(14765440.0 10201360.0) rotate(-90.0)"/><path d="M -50800.0 0.0 A 50800.0 50800.0 0 1 1 50800.0 0.0 L 50800.0 -0.0 A 50800.0 50800.0 0 1 1 -50800.0 -0.0 Z" transform="translate(15019440.0 10201360.0) rotate(-90.0)"/><path d="M -50800.0 0.0 A 50800.0 50800.0 0 1 1 50800.0 0.0 L 50800.0 -0.0 A 50800.0 50800.0 0 1 1 -50800.0 -0.0 Z" transform="translate(15273440.0 10201360.0) rotate(-90.0)"/><path d="M -50000.0 0.0 A 50000.0 50000.0 0 1 1 50000.0 0.0 L 50000.0 -0.0 A 50000.0 50000.0 0 1 1 -50000.0 -0.0 Z" transform="translate(14326302.0 9557274.0) rotate(-90.0)"/><path d="M -50000.0 0.0 A 50000.0 50000.0 0 1 1 50000.0 0.0 L 50000.0 -0.0 A 50000.0 50000.0 0 1 1 -50000.0 -0.0 Z" transform="translate(15776302.0 9557274.0) rotate(-90.0)"/><path d="M -50000.0 0.0 A 50000.0 50000.0 0 1 1 50000.0 0.0 L 50000.0 -0.0 A 50000.0 50000.0 0 1 1 -50000.0 -0.0 Z" transform="translate(15776302.0 9307274.0) rotate(-90.0)"/><path d="M -50000.0 0.0 A 50000.0 50000.0 0 1 1 50000.0 0.0 L 50000.0 -0.0 A 50000.0 50000.0 0 1 1 -50000.0 -0.0 Z" transform="translate(15776302.0 9057274.0) rotate(-90.0)"/><path d="M -50000.0 0.0 A 50000.0 50000.0 0 1 1 50000.0 0.0 L 50000.0 -0.0 A 50000.0 50000.0 0 1 1 -50000.0 -0.0 Z" transform="translate(14326302.0 9057274.0) rotate(-90.0)"/><path d="M -110000.0 0.0 A 110000.0 110000.0 0 1 1 110000.0 0.0 L 110000.0 -0.0 A 110000.0 110000.0 0 1 1 -110000.0 -0.0 Z" transform="translate(15026302.0 8747274.0) rotate(-90.0)"/><path d="M -110000.0 0.0 A 110000.0 110000.0 0 1 1 110000.0 0.0 L 110000.0 -0.0 A 110000.0 110000.0 0 1 1 -110000.0 -0.0 Z" transform="translate(15026302.0 9867274.0) rotate(-90.0)"/><path d="M -20000.0 0.0 A 20000.0 20000.0 0 1 1 20000.0 0.0 L 20000.0 -0.0 A 20000.0 20000.0 0 1 1 -20000.0 -0.0 Z" transform="translate(14846300.0 9690100.0) rotate(0.0)"/><path d="M -20000.0 0.0 A 20000.0 20000.0 0 1 1 20000.0 0.0 L 20000.0 -0.0 A 20000.0 20000.0 0 1 1 -20000.0 -0.0 Z" transform="translate(14465300.0 9639300.0) rotate(0.0)"/><path d="M -20000.0 0.0 A 20000.0 20000.0 0 1 1 20000.0 0.0 L 20000.0 -0.0 A 20000.0 20000.0 0 1 1 -20000.0 -0.0 Z" transform="translate(14884400.0 8915400.0) rotate(0.0)"/><path d="M -20000.0 0.0 A 20000.0 20000.0 0 1 1 20000.0 0.0 L 20000.0 -0.0 A 20000.0 20000.0 0 1 1 -20000.0 -0.0 Z" transform="translate(15582900.0 9347200.0) rotate(0.0)"/><path d="M -20000.0 0.0 A 20000.0 20000.0 0 1 1 20000.0 0.0 L 20000.0 -0.0 A 20000.0 20000.0 0 1 1 -20000.0 -0.0 Z" transform="translate(15278100.0 8915400.0) rotate(0.0)"/></g></g></g><g transform="" id="componentContainer"><!--Pin_Headers:Pin_Header_Straight_1x03:P1--><g transform="translate(14765440.0 8423360.0) scale(99999.98076924187, 99999.9934895846) rotate(-90.0) translate(-1.3000000715255737 -1.299933671951294)"><g id="pref_11_Pin_Headers__Pin_Header_Straight_1x03_CONN_01X03"><g id="pref_12pin">
    <rect style="opacity:1;fill:#000000;fill-opacity:1;fill-rule:nonzero;stroke:#141414;stroke-width:1.15387;stroke-linecap:round;stroke-linejoin:bevel;stroke-miterlimit:4;stroke-dasharray:none;stroke-opacity:1" id="pref_12rect4686" width="1.4461316" height="1.4461316" x="0.57693499" y="0.57693422"/>
    <rect y="1.0419546" x="1.0419546" height="0.51612419" width="0.51612419" id="pref_12rect156830" style="opacity:1;fill:#fcf23a;fill-opacity:1;fill-rule:nonzero;stroke:#eb9d02;stroke-width:0.123876;stroke-linecap:round;stroke-linejoin:bevel;stroke-miterlimit:4;stroke-dasharray:none;stroke-opacity:1"/>
  </g>
  <g transform="translate(0,2.5400008)" id="pref_12g13">
    <rect style="opacity:1;fill:#000000;fill-opacity:1;fill-rule:nonzero;stroke:#141414;stroke-width:1.15387;stroke-linecap:round;stroke-linejoin:bevel;stroke-miterlimit:4;stroke-dasharray:none;stroke-opacity:1" id="pref_12rect9" width="1.4461316" height="1.4461316" x="0.57693499" y="0.57693422"/>
    <rect y="1.0419546" x="1.0419546" height="0.51612419" width="0.51612419" id="pref_12rect11" style="opacity:1;fill:#fcf23a;fill-opacity:1;fill-rule:nonzero;stroke:#eb9d02;stroke-width:0.123876;stroke-linecap:round;stroke-linejoin:bevel;stroke-miterlimit:4;stroke-dasharray:none;stroke-opacity:1"/>
  </g>
  <g transform="translate(0,5.0800008)" id="pref_12g19">
    <rect style="opacity:1;fill:#000000;fill-opacity:1;fill-rule:nonzero;stroke:#141414;stroke-width:1.15387;stroke-linecap:round;stroke-linejoin:bevel;stroke-miterlimit:4;stroke-dasharray:none;stroke-opacity:1" id="pref_12rect15" width="1.4461316" height="1.4461316" x="0.57693499" y="0.57693422"/>
    <rect y="1.0419546" x="1.0419546" height="0.51612419" width="0.51612419" id="pref_12rect17" style="opacity:1;fill:#fcf23a;fill-opacity:1;fill-rule:nonzero;stroke:#eb9d02;stroke-width:0.123876;stroke-linecap:round;stroke-linejoin:bevel;stroke-miterlimit:4;stroke-dasharray:none;stroke-opacity:1"/>
  </g>
</g></g><!--Pin_Headers:Pin_Header_Straight_1x03:P5--><g transform="translate(14765440.0 10201360.0) scale(99999.98076924187, 99999.9934895846) rotate(-90.0) translate(-1.3000000715255737 -1.299933671951294)"><use xmlns:xlink="http://www.w3.org/1999/xlink" xlink:href="#pref_11_Pin_Headers__Pin_Header_Straight_1x03_CONN_01X03"/></g><!--Resistors_SMD:R_1206_HandSoldering.back:R1--><!--Resistors_SMD:R_1206_HandSoldering.back:R2--><g transform="translate(15029600.0 9314900.0) scale(99999.9545452686, 99999.95454675615) rotate(-90.0) translate(-0.09999550133943558 -0.10003144294023514)"><use xmlns:xlink="http://www.w3.org/1999/xlink" xlink:href="#pref_11_Resistors_SMD__R_1206_HandSolderingback_R"/></g><!--Resistors_SMD:R_1206_HandSoldering.back:R3--><g transform="translate(15385200.0 9314900.0) scale(99999.9545452686, 99999.95454675615) rotate(-90.0) translate(-0.09999550133943558 -0.10003144294023514)"><use xmlns:xlink="http://www.w3.org/1999/xlink" xlink:href="#pref_11_Resistors_SMD__R_1206_HandSolderingback_R"/></g></g></svg>