<?xml version="1.0" standalone="no"?>
 <!DOCTYPE svg PUBLIC "-//W3C//DTD SVG 1.1//EN" 
 "http://www.w3.org/Graphics/SVG/1.1/DTD/svg11.dtd"> 
<svg
  xmlns:svg="http://www.w3.org/2000/svg"
  xmlns="http://www.w3.org/2000/svg"
  xmlns:xlink="http://www.w3.org/1999/xlink"
  version="1.1"
  width="29.700220cm" height="21.000720cm" viewBox="0 0 297002200 210007200">
<title>SVG Picture created as kicadBoard-F_Fab.svg date 2022/11/06 22:47:32 </title>
  <desc>Picture generated by PCBNEW </desc>
<g style="fill:#000000; fill-opacity:1.000000;stroke:#000000; stroke-opacity:1.000000;
stroke-linecap:round; stroke-linejoin:round;"
 transform="translate(0 0) scale(1 1)">
</g>
<g style="fill:#000000; fill-opacity:0.0; 
stroke:#000000; stroke-width:0.000000; stroke-opacity:1; 
stroke-linecap:round; stroke-linejoin:round;">
</g>
<g style="fill:#000000; fill-opacity:0.0; 
stroke:#000000; stroke-width:21200.000000; stroke-opacity:1; 
stroke-linecap:round; stroke-linejoin:round;">
</g>
<g style="fill:#000000; fill-opacity:0.0; 
stroke:#000000; stroke-width:150000.000000; stroke-opacity:1; 
stroke-linecap:round; stroke-linejoin:round;">
<rect x="177002200.000000" y="166007200.000000" width="108000000.000000" height="32000000.000000" rx="0.000000" />
</g>
<g style="fill:#000000; fill-opacity:0.0; 
stroke:#000000; stroke-width:21200.000000; stroke-opacity:1; 
stroke-linecap:round; stroke-linejoin:round;">
</g>
<g style="fill:#000000; fill-opacity:0.0; 
stroke:#000000; stroke-width:150000.000000; stroke-opacity:1; 
stroke-linecap:round; stroke-linejoin:round;">
<rect x="10000000.000000" y="10000000.000000" width="277002200.000000" height="190007200.000000" rx="0.000000" />
</g>
<g style="fill:#000000; fill-opacity:0.0; 
stroke:#000000; stroke-width:21200.000000; stroke-opacity:1; 
stroke-linecap:round; stroke-linejoin:round;">
</g>
<g style="fill:#000000; fill-opacity:0.0; 
stroke:#000000; stroke-width:150000.000000; stroke-opacity:1; 
stroke-linecap:round; stroke-linejoin:round;">
<rect x="12000000.000000" y="12000000.000000" width="273002200.000000" height="186007200.000000" rx="0.000000" />
</g>
<g style="fill:#000000; fill-opacity:0.0; 
stroke:#000000; stroke-width:21200.000000; stroke-opacity:1; 
stroke-linecap:round; stroke-linejoin:round;">
</g>
<g style="fill:#000000; fill-opacity:0.0; 
stroke:#000000; stroke-width:150000.000000; stroke-opacity:1; 
stroke-linecap:round; stroke-linejoin:round;">
<path d="M60000000 12000000
L60000000 10000000
" />
</g>
<g style="fill:#000000; fill-opacity:0.0; 
stroke:#000000; stroke-width:21200.000000; stroke-opacity:1; 
stroke-linecap:round; stroke-linejoin:round;">
</g>
<g style="fill:#000000; fill-opacity:0.0; 
stroke:#000000; stroke-width:150000.000000; stroke-opacity:1; 
stroke-linecap:round; stroke-linejoin:round;">
<path d="M110000000 12000000
L110000000 10000000
" />
</g>
<g style="fill:#000000; fill-opacity:0.0; 
stroke:#000000; stroke-width:21200.000000; stroke-opacity:1; 
stroke-linecap:round; stroke-linejoin:round;">
</g>
<g style="fill:#000000; fill-opacity:0.0; 
stroke:#000000; stroke-width:150000.000000; stroke-opacity:1; 
stroke-linecap:round; stroke-linejoin:round;">
<path d="M160000000 12000000
L160000000 10000000
" />
</g>
<g style="fill:#000000; fill-opacity:0.0; 
stroke:#000000; stroke-width:21200.000000; stroke-opacity:1; 
stroke-linecap:round; stroke-linejoin:round;">
</g>
<g style="fill:#000000; fill-opacity:0.0; 
stroke:#000000; stroke-width:150000.000000; stroke-opacity:1; 
stroke-linecap:round; stroke-linejoin:round;">
<path d="M210000000 12000000
L210000000 10000000
" />
</g>
<g style="fill:#000000; fill-opacity:0.0; 
stroke:#000000; stroke-width:21200.000000; stroke-opacity:1; 
stroke-linecap:round; stroke-linejoin:round;">
</g>
<g style="fill:#000000; fill-opacity:0.0; 
stroke:#000000; stroke-width:150000.000000; stroke-opacity:1; 
stroke-linecap:round; stroke-linejoin:round;">
<path d="M260000000 12000000
L260000000 10000000
" />
</g>
<g style="fill:#000000; fill-opacity:0.0; 
stroke:#000000; stroke-width:21200.000000; stroke-opacity:1; 
stroke-linecap:round; stroke-linejoin:round;">
</g>
<g style="fill:#000000; fill-opacity:0.0; 
stroke:#000000; stroke-width:150000.000000; stroke-opacity:1; 
stroke-linecap:round; stroke-linejoin:round;">
<text x="35000000.000000" y="11650000.000000"
textLength="1388095.000000" font-size="1733333.000000" lengthAdjust="spacingAndGlyphs"
text-anchor="start" opacity="0">1</text>
<g class="stroked-text"><desc>1</desc>
<path d="M36065476 11588095
L35322619 11588095
" />
<path d="M35694047 11588095
L35694047 10288095
L35570238 10473809
L35446428 10597619
L35322619 10659523
" />
</g></g>
<g style="fill:#000000; fill-opacity:0.0; 
stroke:#000000; stroke-width:21200.000000; stroke-opacity:1; 
stroke-linecap:round; stroke-linejoin:round;">
</g>
<g style="fill:#000000; fill-opacity:0.0; 
stroke:#000000; stroke-width:150000.000000; stroke-opacity:1; 
stroke-linecap:round; stroke-linejoin:round;">
<text x="85000000.000000" y="11650000.000000"
textLength="1388095.000000" font-size="1733333.000000" lengthAdjust="spacingAndGlyphs"
text-anchor="start" opacity="0">2</text>
<g class="stroked-text"><desc>2</desc>
<path d="M85322619 10411904
L85384523 10350000
L85508333 10288095
L85817857 10288095
L85941666 10350000
L86003571 10411904
L86065476 10535714
L86065476 10659523
L86003571 10845238
L85260714 11588095
L86065476 11588095
" />
</g></g>
<g style="fill:#000000; fill-opacity:0.0; 
stroke:#000000; stroke-width:21200.000000; stroke-opacity:1; 
stroke-linecap:round; stroke-linejoin:round;">
</g>
<g style="fill:#000000; fill-opacity:0.0; 
stroke:#000000; stroke-width:150000.000000; stroke-opacity:1; 
stroke-linecap:round; stroke-linejoin:round;">
<text x="135000000.000000" y="11650000.000000"
textLength="1388095.000000" font-size="1733333.000000" lengthAdjust="spacingAndGlyphs"
text-anchor="start" opacity="0">3</text>
<g class="stroked-text"><desc>3</desc>
<path d="M135260714 10288095
L136065476 10288095
L135632142 10783333
L135817857 10783333
L135941666 10845238
L136003571 10907142
L136065476 11030952
L136065476 11340476
L136003571 11464285
L135941666 11526190
L135817857 11588095
L135446428 11588095
L135322619 11526190
L135260714 11464285
" />
</g></g>
<g style="fill:#000000; fill-opacity:0.0; 
stroke:#000000; stroke-width:21200.000000; stroke-opacity:1; 
stroke-linecap:round; stroke-linejoin:round;">
</g>
<g style="fill:#000000; fill-opacity:0.0; 
stroke:#000000; stroke-width:150000.000000; stroke-opacity:1; 
stroke-linecap:round; stroke-linejoin:round;">
<text x="185000000.000000" y="11650000.000000"
textLength="1388095.000000" font-size="1733333.000000" lengthAdjust="spacingAndGlyphs"
text-anchor="start" opacity="0">4</text>
<g class="stroked-text"><desc>4</desc>
<path d="M185941666 10721428
L185941666 11588095
" />
<path d="M185632142 10226190
L185322619 11154761
L186127380 11154761
" />
</g></g>
<g style="fill:#000000; fill-opacity:0.0; 
stroke:#000000; stroke-width:21200.000000; stroke-opacity:1; 
stroke-linecap:round; stroke-linejoin:round;">
</g>
<g style="fill:#000000; fill-opacity:0.0; 
stroke:#000000; stroke-width:150000.000000; stroke-opacity:1; 
stroke-linecap:round; stroke-linejoin:round;">
<text x="235000000.000000" y="11650000.000000"
textLength="1388095.000000" font-size="1733333.000000" lengthAdjust="spacingAndGlyphs"
text-anchor="start" opacity="0">5</text>
<g class="stroked-text"><desc>5</desc>
<path d="M236003571 10288095
L235384523 10288095
L235322619 10907142
L235384523 10845238
L235508333 10783333
L235817857 10783333
L235941666 10845238
L236003571 10907142
L236065476 11030952
L236065476 11340476
L236003571 11464285
L235941666 11526190
L235817857 11588095
L235508333 11588095
L235384523 11526190
L235322619 11464285
" />
</g></g>
<g style="fill:#000000; fill-opacity:0.0; 
stroke:#000000; stroke-width:21200.000000; stroke-opacity:1; 
stroke-linecap:round; stroke-linejoin:round;">
</g>
<g style="fill:#000000; fill-opacity:0.0; 
stroke:#000000; stroke-width:150000.000000; stroke-opacity:1; 
stroke-linecap:round; stroke-linejoin:round;">
<text x="285000000.000000" y="11650000.000000"
textLength="1388095.000000" font-size="1733333.000000" lengthAdjust="spacingAndGlyphs"
text-anchor="start" opacity="0">6</text>
<g class="stroked-text"><desc>6</desc>
<path d="M285941666 10288095
L285694047 10288095
L285570238 10350000
L285508333 10411904
L285384523 10597619
L285322619 10845238
L285322619 11340476
L285384523 11464285
L285446428 11526190
L285570238 11588095
L285817857 11588095
L285941666 11526190
L286003571 11464285
L286065476 11340476
L286065476 11030952
L286003571 10907142
L285941666 10845238
L285817857 10783333
L285570238 10783333
L285446428 10845238
L285384523 10907142
L285322619 11030952
" />
</g></g>
<g style="fill:#000000; fill-opacity:0.0; 
stroke:#000000; stroke-width:21200.000000; stroke-opacity:1; 
stroke-linecap:round; stroke-linejoin:round;">
</g>
<g style="fill:#000000; fill-opacity:0.0; 
stroke:#000000; stroke-width:150000.000000; stroke-opacity:1; 
stroke-linecap:round; stroke-linejoin:round;">
<path d="M60000000 198007200
L60000000 200007200
" />
</g>
<g style="fill:#000000; fill-opacity:0.0; 
stroke:#000000; stroke-width:21200.000000; stroke-opacity:1; 
stroke-linecap:round; stroke-linejoin:round;">
</g>
<g style="fill:#000000; fill-opacity:0.0; 
stroke:#000000; stroke-width:150000.000000; stroke-opacity:1; 
stroke-linecap:round; stroke-linejoin:round;">
<path d="M110000000 198007200
L110000000 200007200
" />
</g>
<g style="fill:#000000; fill-opacity:0.0; 
stroke:#000000; stroke-width:21200.000000; stroke-opacity:1; 
stroke-linecap:round; stroke-linejoin:round;">
</g>
<g style="fill:#000000; fill-opacity:0.0; 
stroke:#000000; stroke-width:150000.000000; stroke-opacity:1; 
stroke-linecap:round; stroke-linejoin:round;">
<path d="M160000000 198007200
L160000000 200007200
" />
</g>
<g style="fill:#000000; fill-opacity:0.0; 
stroke:#000000; stroke-width:21200.000000; stroke-opacity:1; 
stroke-linecap:round; stroke-linejoin:round;">
</g>
<g style="fill:#000000; fill-opacity:0.0; 
stroke:#000000; stroke-width:150000.000000; stroke-opacity:1; 
stroke-linecap:round; stroke-linejoin:round;">
<path d="M210000000 198007200
L210000000 200007200
" />
</g>
<g style="fill:#000000; fill-opacity:0.0; 
stroke:#000000; stroke-width:21200.000000; stroke-opacity:1; 
stroke-linecap:round; stroke-linejoin:round;">
</g>
<g style="fill:#000000; fill-opacity:0.0; 
stroke:#000000; stroke-width:150000.000000; stroke-opacity:1; 
stroke-linecap:round; stroke-linejoin:round;">
<path d="M260000000 198007200
L260000000 200007200
" />
</g>
<g style="fill:#000000; fill-opacity:0.0; 
stroke:#000000; stroke-width:21200.000000; stroke-opacity:1; 
stroke-linecap:round; stroke-linejoin:round;">
</g>
<g style="fill:#000000; fill-opacity:0.0; 
stroke:#000000; stroke-width:150000.000000; stroke-opacity:1; 
stroke-linecap:round; stroke-linejoin:round;">
<text x="35000000.000000" y="199657200.000000"
textLength="1388095.000000" font-size="1733333.000000" lengthAdjust="spacingAndGlyphs"
text-anchor="start" opacity="0">1</text>
<g class="stroked-text"><desc>1</desc>
<path d="M36065476 199595295
L35322619 199595295
" />
<path d="M35694047 199595295
L35694047 198295295
L35570238 198481009
L35446428 198604819
L35322619 198666723
" />
</g></g>
<g style="fill:#000000; fill-opacity:0.0; 
stroke:#000000; stroke-width:21200.000000; stroke-opacity:1; 
stroke-linecap:round; stroke-linejoin:round;">
</g>
<g style="fill:#000000; fill-opacity:0.0; 
stroke:#000000; stroke-width:150000.000000; stroke-opacity:1; 
stroke-linecap:round; stroke-linejoin:round;">
<text x="85000000.000000" y="199657200.000000"
textLength="1388095.000000" font-size="1733333.000000" lengthAdjust="spacingAndGlyphs"
text-anchor="start" opacity="0">2</text>
<g class="stroked-text"><desc>2</desc>
<path d="M85322619 198419104
L85384523 198357200
L85508333 198295295
L85817857 198295295
L85941666 198357200
L86003571 198419104
L86065476 198542914
L86065476 198666723
L86003571 198852438
L85260714 199595295
L86065476 199595295
" />
</g></g>
<g style="fill:#000000; fill-opacity:0.0; 
stroke:#000000; stroke-width:21200.000000; stroke-opacity:1; 
stroke-linecap:round; stroke-linejoin:round;">
</g>
<g style="fill:#000000; fill-opacity:0.0; 
stroke:#000000; stroke-width:150000.000000; stroke-opacity:1; 
stroke-linecap:round; stroke-linejoin:round;">
<text x="135000000.000000" y="199657200.000000"
textLength="1388095.000000" font-size="1733333.000000" lengthAdjust="spacingAndGlyphs"
text-anchor="start" opacity="0">3</text>
<g class="stroked-text"><desc>3</desc>
<path d="M135260714 198295295
L136065476 198295295
L135632142 198790533
L135817857 198790533
L135941666 198852438
L136003571 198914342
L136065476 199038152
L136065476 199347676
L136003571 199471485
L135941666 199533390
L135817857 199595295
L135446428 199595295
L135322619 199533390
L135260714 199471485
" />
</g></g>
<g style="fill:#000000; fill-opacity:0.0; 
stroke:#000000; stroke-width:21200.000000; stroke-opacity:1; 
stroke-linecap:round; stroke-linejoin:round;">
</g>
<g style="fill:#000000; fill-opacity:0.0; 
stroke:#000000; stroke-width:150000.000000; stroke-opacity:1; 
stroke-linecap:round; stroke-linejoin:round;">
<text x="185000000.000000" y="199657200.000000"
textLength="1388095.000000" font-size="1733333.000000" lengthAdjust="spacingAndGlyphs"
text-anchor="start" opacity="0">4</text>
<g class="stroked-text"><desc>4</desc>
<path d="M185941666 198728628
L185941666 199595295
" />
<path d="M185632142 198233390
L185322619 199161961
L186127380 199161961
" />
</g></g>
<g style="fill:#000000; fill-opacity:0.0; 
stroke:#000000; stroke-width:21200.000000; stroke-opacity:1; 
stroke-linecap:round; stroke-linejoin:round;">
</g>
<g style="fill:#000000; fill-opacity:0.0; 
stroke:#000000; stroke-width:150000.000000; stroke-opacity:1; 
stroke-linecap:round; stroke-linejoin:round;">
<text x="235000000.000000" y="199657200.000000"
textLength="1388095.000000" font-size="1733333.000000" lengthAdjust="spacingAndGlyphs"
text-anchor="start" opacity="0">5</text>
<g class="stroked-text"><desc>5</desc>
<path d="M236003571 198295295
L235384523 198295295
L235322619 198914342
L235384523 198852438
L235508333 198790533
L235817857 198790533
L235941666 198852438
L236003571 198914342
L236065476 199038152
L236065476 199347676
L236003571 199471485
L235941666 199533390
L235817857 199595295
L235508333 199595295
L235384523 199533390
L235322619 199471485
" />
</g></g>
<g style="fill:#000000; fill-opacity:0.0; 
stroke:#000000; stroke-width:21200.000000; stroke-opacity:1; 
stroke-linecap:round; stroke-linejoin:round;">
</g>
<g style="fill:#000000; fill-opacity:0.0; 
stroke:#000000; stroke-width:150000.000000; stroke-opacity:1; 
stroke-linecap:round; stroke-linejoin:round;">
<text x="285000000.000000" y="199657200.000000"
textLength="1388095.000000" font-size="1733333.000000" lengthAdjust="spacingAndGlyphs"
text-anchor="start" opacity="0">6</text>
<g class="stroked-text"><desc>6</desc>
<path d="M285941666 198295295
L285694047 198295295
L285570238 198357200
L285508333 198419104
L285384523 198604819
L285322619 198852438
L285322619 199347676
L285384523 199471485
L285446428 199533390
L285570238 199595295
L285817857 199595295
L285941666 199533390
L286003571 199471485
L286065476 199347676
L286065476 199038152
L286003571 198914342
L285941666 198852438
L285817857 198790533
L285570238 198790533
L285446428 198852438
L285384523 198914342
L285322619 199038152
" />
</g></g>
<g style="fill:#000000; fill-opacity:0.0; 
stroke:#000000; stroke-width:21200.000000; stroke-opacity:1; 
stroke-linecap:round; stroke-linejoin:round;">
</g>
<g style="fill:#000000; fill-opacity:0.0; 
stroke:#000000; stroke-width:150000.000000; stroke-opacity:1; 
stroke-linecap:round; stroke-linejoin:round;">
<path d="M10000000 60000000
L12000000 60000000
" />
</g>
<g style="fill:#000000; fill-opacity:0.0; 
stroke:#000000; stroke-width:21200.000000; stroke-opacity:1; 
stroke-linecap:round; stroke-linejoin:round;">
</g>
<g style="fill:#000000; fill-opacity:0.0; 
stroke:#000000; stroke-width:150000.000000; stroke-opacity:1; 
stroke-linecap:round; stroke-linejoin:round;">
<path d="M10000000 110000000
L12000000 110000000
" />
</g>
<g style="fill:#000000; fill-opacity:0.0; 
stroke:#000000; stroke-width:21200.000000; stroke-opacity:1; 
stroke-linecap:round; stroke-linejoin:round;">
</g>
<g style="fill:#000000; fill-opacity:0.0; 
stroke:#000000; stroke-width:150000.000000; stroke-opacity:1; 
stroke-linecap:round; stroke-linejoin:round;">
<path d="M10000000 160000000
L12000000 160000000
" />
</g>
<g style="fill:#000000; fill-opacity:0.0; 
stroke:#000000; stroke-width:21200.000000; stroke-opacity:1; 
stroke-linecap:round; stroke-linejoin:round;">
</g>
<g style="fill:#000000; fill-opacity:0.0; 
stroke:#000000; stroke-width:150000.000000; stroke-opacity:1; 
stroke-linecap:round; stroke-linejoin:round;">
<text x="11000000.000000" y="35650000.000000"
textLength="1264286.000000" font-size="1733333.000000" lengthAdjust="spacingAndGlyphs"
text-anchor="middle" opacity="0">A</text>
<g class="stroked-text"><desc>A</desc>
<path d="M10690476 35216666
L11309523 35216666
" />
<path d="M10566666 35588095
L11000000 34288095
L11433333 35588095
" />
</g></g>
<g style="fill:#000000; fill-opacity:0.0; 
stroke:#000000; stroke-width:21200.000000; stroke-opacity:1; 
stroke-linecap:round; stroke-linejoin:round;">
</g>
<g style="fill:#000000; fill-opacity:0.0; 
stroke:#000000; stroke-width:150000.000000; stroke-opacity:1; 
stroke-linecap:round; stroke-linejoin:round;">
<text x="11000000.000000" y="85650000.000000"
textLength="1450000.000000" font-size="1733333.000000" lengthAdjust="spacingAndGlyphs"
text-anchor="middle" opacity="0">B</text>
<g class="stroked-text"><desc>B</desc>
<path d="M11092857 84907142
L11278571 84969047
L11340476 85030952
L11402380 85154761
L11402380 85340476
L11340476 85464285
L11278571 85526190
L11154761 85588095
L10659523 85588095
L10659523 84288095
L11092857 84288095
L11216666 84350000
L11278571 84411904
L11340476 84535714
L11340476 84659523
L11278571 84783333
L11216666 84845238
L11092857 84907142
L10659523 84907142
" />
</g></g>
<g style="fill:#000000; fill-opacity:0.0; 
stroke:#000000; stroke-width:21200.000000; stroke-opacity:1; 
stroke-linecap:round; stroke-linejoin:round;">
</g>
<g style="fill:#000000; fill-opacity:0.0; 
stroke:#000000; stroke-width:150000.000000; stroke-opacity:1; 
stroke-linecap:round; stroke-linejoin:round;">
<text x="11000000.000000" y="135650000.000000"
textLength="1450000.000000" font-size="1733333.000000" lengthAdjust="spacingAndGlyphs"
text-anchor="middle" opacity="0">C</text>
<g class="stroked-text"><desc>C</desc>
<path d="M11402380 135464285
L11340476 135526190
L11154761 135588095
L11030952 135588095
L10845238 135526190
L10721428 135402380
L10659523 135278571
L10597619 135030952
L10597619 134845238
L10659523 134597619
L10721428 134473809
L10845238 134350000
L11030952 134288095
L11154761 134288095
L11340476 134350000
L11402380 134411904
" />
</g></g>
<g style="fill:#000000; fill-opacity:0.0; 
stroke:#000000; stroke-width:21200.000000; stroke-opacity:1; 
stroke-linecap:round; stroke-linejoin:round;">
</g>
<g style="fill:#000000; fill-opacity:0.0; 
stroke:#000000; stroke-width:150000.000000; stroke-opacity:1; 
stroke-linecap:round; stroke-linejoin:round;">
<text x="11000000.000000" y="185650000.000000"
textLength="1450000.000000" font-size="1733333.000000" lengthAdjust="spacingAndGlyphs"
text-anchor="middle" opacity="0">D</text>
<g class="stroked-text"><desc>D</desc>
<path d="M10659523 185588095
L10659523 184288095
L10969047 184288095
L11154761 184350000
L11278571 184473809
L11340476 184597619
L11402380 184845238
L11402380 185030952
L11340476 185278571
L11278571 185402380
L11154761 185526190
L10969047 185588095
L10659523 185588095
" />
</g></g>
<g style="fill:#000000; fill-opacity:0.0; 
stroke:#000000; stroke-width:21200.000000; stroke-opacity:1; 
stroke-linecap:round; stroke-linejoin:round;">
</g>
<g style="fill:#000000; fill-opacity:0.0; 
stroke:#000000; stroke-width:150000.000000; stroke-opacity:1; 
stroke-linecap:round; stroke-linejoin:round;">
<path d="M287002200 60000000
L285002200 60000000
" />
</g>
<g style="fill:#000000; fill-opacity:0.0; 
stroke:#000000; stroke-width:21200.000000; stroke-opacity:1; 
stroke-linecap:round; stroke-linejoin:round;">
</g>
<g style="fill:#000000; fill-opacity:0.0; 
stroke:#000000; stroke-width:150000.000000; stroke-opacity:1; 
stroke-linecap:round; stroke-linejoin:round;">
<path d="M287002200 110000000
L285002200 110000000
" />
</g>
<g style="fill:#000000; fill-opacity:0.0; 
stroke:#000000; stroke-width:21200.000000; stroke-opacity:1; 
stroke-linecap:round; stroke-linejoin:round;">
</g>
<g style="fill:#000000; fill-opacity:0.0; 
stroke:#000000; stroke-width:150000.000000; stroke-opacity:1; 
stroke-linecap:round; stroke-linejoin:round;">
<path d="M287002200 160000000
L285002200 160000000
" />
</g>
<g style="fill:#000000; fill-opacity:0.0; 
stroke:#000000; stroke-width:21200.000000; stroke-opacity:1; 
stroke-linecap:round; stroke-linejoin:round;">
</g>
<g style="fill:#000000; fill-opacity:0.0; 
stroke:#000000; stroke-width:150000.000000; stroke-opacity:1; 
stroke-linecap:round; stroke-linejoin:round;">
<text x="286002200.000000" y="35650000.000000"
textLength="1264286.000000" font-size="1733333.000000" lengthAdjust="spacingAndGlyphs"
text-anchor="middle" opacity="0">A</text>
<g class="stroked-text"><desc>A</desc>
<path d="M285692676 35216666
L286311723 35216666
" />
<path d="M285568866 35588095
L286002200 34288095
L286435533 35588095
" />
</g></g>
<g style="fill:#000000; fill-opacity:0.0; 
stroke:#000000; stroke-width:21200.000000; stroke-opacity:1; 
stroke-linecap:round; stroke-linejoin:round;">
</g>
<g style="fill:#000000; fill-opacity:0.0; 
stroke:#000000; stroke-width:150000.000000; stroke-opacity:1; 
stroke-linecap:round; stroke-linejoin:round;">
<text x="286002200.000000" y="85650000.000000"
textLength="1450000.000000" font-size="1733333.000000" lengthAdjust="spacingAndGlyphs"
text-anchor="middle" opacity="0">B</text>
<g class="stroked-text"><desc>B</desc>
<path d="M286095057 84907142
L286280771 84969047
L286342676 85030952
L286404580 85154761
L286404580 85340476
L286342676 85464285
L286280771 85526190
L286156961 85588095
L285661723 85588095
L285661723 84288095
L286095057 84288095
L286218866 84350000
L286280771 84411904
L286342676 84535714
L286342676 84659523
L286280771 84783333
L286218866 84845238
L286095057 84907142
L285661723 84907142
" />
</g></g>
<g style="fill:#000000; fill-opacity:0.0; 
stroke:#000000; stroke-width:21200.000000; stroke-opacity:1; 
stroke-linecap:round; stroke-linejoin:round;">
</g>
<g style="fill:#000000; fill-opacity:0.0; 
stroke:#000000; stroke-width:150000.000000; stroke-opacity:1; 
stroke-linecap:round; stroke-linejoin:round;">
<text x="286002200.000000" y="135650000.000000"
textLength="1450000.000000" font-size="1733333.000000" lengthAdjust="spacingAndGlyphs"
text-anchor="middle" opacity="0">C</text>
<g class="stroked-text"><desc>C</desc>
<path d="M286404580 135464285
L286342676 135526190
L286156961 135588095
L286033152 135588095
L285847438 135526190
L285723628 135402380
L285661723 135278571
L285599819 135030952
L285599819 134845238
L285661723 134597619
L285723628 134473809
L285847438 134350000
L286033152 134288095
L286156961 134288095
L286342676 134350000
L286404580 134411904
" />
</g></g>
<g style="fill:#000000; fill-opacity:0.0; 
stroke:#000000; stroke-width:21200.000000; stroke-opacity:1; 
stroke-linecap:round; stroke-linejoin:round;">
</g>
<g style="fill:#000000; fill-opacity:0.0; 
stroke:#000000; stroke-width:150000.000000; stroke-opacity:1; 
stroke-linecap:round; stroke-linejoin:round;">
<text x="286002200.000000" y="185650000.000000"
textLength="1450000.000000" font-size="1733333.000000" lengthAdjust="spacingAndGlyphs"
text-anchor="middle" opacity="0">D</text>
<g class="stroked-text"><desc>D</desc>
<path d="M285661723 185588095
L285661723 184288095
L285971247 184288095
L286156961 184350000
L286280771 184473809
L286342676 184597619
L286404580 184845238
L286404580 185030952
L286342676 185278571
L286280771 185402380
L286156961 185526190
L285971247 185588095
L285661723 185588095
" />
</g></g>
<g style="fill:#000000; fill-opacity:0.0; 
stroke:#000000; stroke-width:21200.000000; stroke-opacity:1; 
stroke-linecap:round; stroke-linejoin:round;">
</g>
<g style="fill:#000000; fill-opacity:0.0; 
stroke:#000000; stroke-width:150000.000000; stroke-opacity:1; 
stroke-linecap:round; stroke-linejoin:round;">
<text x="200002200.000000" y="193857200.000000"
textLength="7007143.000000" font-size="2000000.000000" lengthAdjust="spacingAndGlyphs"
text-anchor="start" opacity="0">Date: </text>
<g class="stroked-text"><desc>Date: </desc>
<path d="M200434342 193785771
L200434342 192285771
L200791485 192285771
L201005771 192357200
L201148628 192500057
L201220057 192642914
L201291485 192928628
L201291485 193142914
L201220057 193428628
L201148628 193571485
L201005771 193714342
L200791485 193785771
L200434342 193785771
" />
<path d="M202577200 193785771
L202577200 193000057
L202505771 192857200
L202362914 192785771
L202077200 192785771
L201934342 192857200
" />
<path d="M202577200 193714342
L202434342 193785771
L202077200 193785771
L201934342 193714342
L201862914 193571485
L201862914 193428628
L201934342 193285771
L202077200 193214342
L202434342 193214342
L202577200 193142914
" />
<path d="M203077200 192785771
L203648628 192785771
" />
<path d="M203291485 192285771
L203291485 193571485
L203362914 193714342
L203505771 193785771
L203648628 193785771
" />
<path d="M204720057 193714342
L204577200 193785771
L204291485 193785771
L204148628 193714342
L204077200 193571485
L204077200 193000057
L204148628 192857200
L204291485 192785771
L204577200 192785771
L204720057 192857200
L204791485 193000057
L204791485 193142914
L204077200 193285771
" />
<path d="M205434342 193642914
L205505771 193714342
L205434342 193785771
L205362914 193714342
L205434342 193642914
L205434342 193785771
" />
<path d="M205434342 192857200
L205505771 192928628
L205434342 193000057
L205362914 192928628
L205434342 192857200
L205434342 193000057
" />
</g></g>
<g style="fill:#000000; fill-opacity:0.0; 
stroke:#000000; stroke-width:21200.000000; stroke-opacity:1; 
stroke-linecap:round; stroke-linejoin:round;">
</g>
<g style="fill:#000000; fill-opacity:0.0; 
stroke:#000000; stroke-width:150000.000000; stroke-opacity:1; 
stroke-linecap:round; stroke-linejoin:round;">
<path d="M177002200 194507200
L285002200 194507200
" />
</g>
<g style="fill:#000000; fill-opacity:0.0; 
stroke:#000000; stroke-width:21200.000000; stroke-opacity:1; 
stroke-linecap:round; stroke-linejoin:round;">
</g>
<g style="fill:#000000; fill-opacity:0.0; 
stroke:#000000; stroke-width:150000.000000; stroke-opacity:1; 
stroke-linecap:round; stroke-linejoin:round;">
<text x="178002200.000000" y="196657200.000000"
textLength="33364286.000000" font-size="2000000.000000" lengthAdjust="spacingAndGlyphs"
text-anchor="start" opacity="0">KiCad E.D.A.  pcbnew (6.0.9)</text>
<g class="stroked-text"><desc>KiCad E.D.A.  pcbnew (6.0.9)</desc>
<path d="M178434342 196585771
L178434342 195085771
" />
<path d="M179291485 196585771
L178648628 195728628
" />
<path d="M179291485 195085771
L178434342 195942914
" />
<path d="M179934342 196585771
L179934342 195585771
" />
<path d="M179934342 195085771
L179862914 195157200
L179934342 195228628
L180005771 195157200
L179934342 195085771
L179934342 195228628
" />
<path d="M181505771 196442914
L181434342 196514342
L181220057 196585771
L181077200 196585771
L180862914 196514342
L180720057 196371485
L180648628 196228628
L180577200 195942914
L180577200 195728628
L180648628 195442914
L180720057 195300057
L180862914 195157200
L181077200 195085771
L181220057 195085771
L181434342 195157200
L181505771 195228628
" />
<path d="M182791485 196585771
L182791485 195800057
L182720057 195657200
L182577200 195585771
L182291485 195585771
L182148628 195657200
" />
<path d="M182791485 196514342
L182648628 196585771
L182291485 196585771
L182148628 196514342
L182077200 196371485
L182077200 196228628
L182148628 196085771
L182291485 196014342
L182648628 196014342
L182791485 195942914
" />
<path d="M184148628 196585771
L184148628 195085771
" />
<path d="M184148628 196514342
L184005771 196585771
L183720057 196585771
L183577200 196514342
L183505771 196442914
L183434342 196300057
L183434342 195871485
L183505771 195728628
L183577200 195657200
L183720057 195585771
L184005771 195585771
L184148628 195657200
" />
<path d="M186005771 195800057
L186505771 195800057
" />
<path d="M186720057 196585771
L186005771 196585771
L186005771 195085771
L186720057 195085771
" />
<path d="M187362914 196442914
L187434342 196514342
L187362914 196585771
L187291485 196514342
L187362914 196442914
L187362914 196585771
" />
<path d="M188077200 196585771
L188077200 195085771
L188434342 195085771
L188648628 195157200
L188791485 195300057
L188862914 195442914
L188934342 195728628
L188934342 195942914
L188862914 196228628
L188791485 196371485
L188648628 196514342
L188434342 196585771
L188077200 196585771
" />
<path d="M189577200 196442914
L189648628 196514342
L189577200 196585771
L189505771 196514342
L189577200 196442914
L189577200 196585771
" />
<path d="M190220057 196157200
L190934342 196157200
" />
<path d="M190077200 196585771
L190577200 195085771
L191077200 196585771
" />
<path d="M191577200 196442914
L191648628 196514342
L191577200 196585771
L191505771 196514342
L191577200 196442914
L191577200 196585771
" />
<path d="M194577200 195585771
L194577200 197085771
" />
<path d="M194577200 195657200
L194720057 195585771
L195005771 195585771
L195148628 195657200
L195220057 195728628
L195291485 195871485
L195291485 196300057
L195220057 196442914
L195148628 196514342
L195005771 196585771
L194720057 196585771
L194577200 196514342
" />
<path d="M196577200 196514342
L196434342 196585771
L196148628 196585771
L196005771 196514342
L195934342 196442914
L195862914 196300057
L195862914 195871485
L195934342 195728628
L196005771 195657200
L196148628 195585771
L196434342 195585771
L196577200 195657200
" />
<path d="M197220057 196585771
L197220057 195085771
" />
<path d="M197220057 195657200
L197362914 195585771
L197648628 195585771
L197791485 195657200
L197862914 195728628
L197934342 195871485
L197934342 196300057
L197862914 196442914
L197791485 196514342
L197648628 196585771
L197362914 196585771
L197220057 196514342
" />
<path d="M198577200 195585771
L198577200 196585771
" />
<path d="M198577200 195728628
L198648628 195657200
L198791485 195585771
L199005771 195585771
L199148628 195657200
L199220057 195800057
L199220057 196585771
" />
<path d="M200505771 196514342
L200362914 196585771
L200077200 196585771
L199934342 196514342
L199862914 196371485
L199862914 195800057
L199934342 195657200
L200077200 195585771
L200362914 195585771
L200505771 195657200
L200577200 195800057
L200577200 195942914
L199862914 196085771
" />
<path d="M201077200 195585771
L201362914 196585771
L201648628 195871485
L201934342 196585771
L202220057 195585771
" />
<path d="M204362914 197157200
L204291485 197085771
L204148628 196871485
L204077200 196728628
L204005771 196514342
L203934342 196157200
L203934342 195871485
L204005771 195514342
L204077200 195300057
L204148628 195157200
L204291485 194942914
L204362914 194871485
" />
<path d="M205577200 195085771
L205291485 195085771
L205148628 195157200
L205077200 195228628
L204934342 195442914
L204862914 195728628
L204862914 196300057
L204934342 196442914
L205005771 196514342
L205148628 196585771
L205434342 196585771
L205577200 196514342
L205648628 196442914
L205720057 196300057
L205720057 195942914
L205648628 195800057
L205577200 195728628
L205434342 195657200
L205148628 195657200
L205005771 195728628
L204934342 195800057
L204862914 195942914
" />
<path d="M206362914 196442914
L206434342 196514342
L206362914 196585771
L206291485 196514342
L206362914 196442914
L206362914 196585771
" />
<path d="M207362914 195085771
L207505771 195085771
L207648628 195157200
L207720057 195228628
L207791485 195371485
L207862914 195657200
L207862914 196014342
L207791485 196300057
L207720057 196442914
L207648628 196514342
L207505771 196585771
L207362914 196585771
L207220057 196514342
L207148628 196442914
L207077200 196300057
L207005771 196014342
L207005771 195657200
L207077200 195371485
L207148628 195228628
L207220057 195157200
L207362914 195085771
" />
<path d="M208505771 196442914
L208577200 196514342
L208505771 196585771
L208434342 196514342
L208505771 196442914
L208505771 196585771
" />
<path d="M209291485 196585771
L209577200 196585771
L209720057 196514342
L209791485 196442914
L209934342 196228628
L210005771 195942914
L210005771 195371485
L209934342 195228628
L209862914 195157200
L209720057 195085771
L209434342 195085771
L209291485 195157200
L209220057 195228628
L209148628 195371485
L209148628 195728628
L209220057 195871485
L209291485 195942914
L209434342 196014342
L209720057 196014342
L209862914 195942914
L209934342 195871485
L210005771 195728628
" />
<path d="M210505771 197157200
L210577200 197085771
L210720057 196871485
L210791485 196728628
L210862914 196514342
L210934342 196157200
L210934342 195871485
L210862914 195514342
L210791485 195300057
L210720057 195157200
L210577200 194942914
L210505771 194871485
" />
</g></g>
<g style="fill:#000000; fill-opacity:0.0; 
stroke:#000000; stroke-width:21200.000000; stroke-opacity:1; 
stroke-linecap:round; stroke-linejoin:round;">
</g>
<g style="fill:#000000; fill-opacity:0.0; 
stroke:#000000; stroke-width:150000.000000; stroke-opacity:1; 
stroke-linecap:round; stroke-linejoin:round;">
<path d="M177002200 191507200
L285002200 191507200
" />
</g>
<g style="fill:#000000; fill-opacity:0.0; 
stroke:#000000; stroke-width:21200.000000; stroke-opacity:1; 
stroke-linecap:round; stroke-linejoin:round;">
</g>
<g style="fill:#000000; fill-opacity:0.0; 
stroke:#000000; stroke-width:300000.000000; stroke-opacity:1; 
stroke-linecap:round; stroke-linejoin:round;">
<text x="263002200.000000" y="193857200.000000"
textLength="5935714.000000" font-size="2000000.000000" lengthAdjust="spacingAndGlyphs"
text-anchor="start" opacity="0">Rev: </text>
<g class="stroked-text"><desc>Rev: </desc>
<path d="M264411485 193785771
L263911485 193071485
" />
<path d="M263554342 193785771
L263554342 192285771
L264125771 192285771
L264268628 192357200
L264340057 192428628
L264411485 192571485
L264411485 192785771
L264340057 192928628
L264268628 193000057
L264125771 193071485
L263554342 193071485
" />
<path d="M265625771 193714342
L265482914 193785771
L265197200 193785771
L265054342 193714342
L264982914 193571485
L264982914 193000057
L265054342 192857200
L265197200 192785771
L265482914 192785771
L265625771 192857200
L265697200 193000057
L265697200 193142914
L264982914 193285771
" />
<path d="M266197200 192785771
L266554342 193785771
L266911485 192785771
" />
<path d="M267482914 193642914
L267554342 193714342
L267482914 193785771
L267411485 193714342
L267482914 193642914
L267482914 193785771
" />
<path d="M267482914 192857200
L267554342 192928628
L267482914 193000057
L267411485 192928628
L267482914 192857200
L267482914 193000057
" />
</g></g>
<g style="fill:#000000; fill-opacity:0.0; 
stroke:#000000; stroke-width:21200.000000; stroke-opacity:1; 
stroke-linecap:round; stroke-linejoin:round;">
</g>
<g style="fill:#000000; fill-opacity:0.0; 
stroke:#000000; stroke-width:150000.000000; stroke-opacity:1; 
stroke-linecap:round; stroke-linejoin:round;">
<text x="178002200.000000" y="193857200.000000"
textLength="9604286.000000" font-size="2000000.000000" lengthAdjust="spacingAndGlyphs"
text-anchor="start" opacity="0">Size: A4</text>
<g class="stroked-text"><desc>Size: A4</desc>
<path d="M178362914 193714342
L178577200 193785771
L178934342 193785771
L179077200 193714342
L179148628 193642914
L179220057 193500057
L179220057 193357200
L179148628 193214342
L179077200 193142914
L178934342 193071485
L178648628 193000057
L178505771 192928628
L178434342 192857200
L178362914 192714342
L178362914 192571485
L178434342 192428628
L178505771 192357200
L178648628 192285771
L179005771 192285771
L179220057 192357200
" />
<path d="M179862914 193785771
L179862914 192785771
" />
<path d="M179862914 192285771
L179791485 192357200
L179862914 192428628
L179934342 192357200
L179862914 192285771
L179862914 192428628
" />
<path d="M180434342 192785771
L181220057 192785771
L180434342 193785771
L181220057 193785771
" />
<path d="M182362914 193714342
L182220057 193785771
L181934342 193785771
L181791485 193714342
L181720057 193571485
L181720057 193000057
L181791485 192857200
L181934342 192785771
L182220057 192785771
L182362914 192857200
L182434342 193000057
L182434342 193142914
L181720057 193285771
" />
<path d="M183077200 193642914
L183148628 193714342
L183077200 193785771
L183005771 193714342
L183077200 193642914
L183077200 193785771
" />
<path d="M183077200 192857200
L183148628 192928628
L183077200 193000057
L183005771 192928628
L183077200 192857200
L183077200 193000057
" />
<path d="M184862914 193357200
L185577200 193357200
" />
<path d="M184720057 193785771
L185220057 192285771
L185720057 193785771
" />
<path d="M186862914 192785771
L186862914 193785771
" />
<path d="M186505771 192214342
L186148628 193285771
L187077200 193285771
" />
</g></g>
<g style="fill:#000000; fill-opacity:0.0; 
stroke:#000000; stroke-width:21200.000000; stroke-opacity:1; 
stroke-linecap:round; stroke-linejoin:round;">
</g>
<g style="fill:#000000; fill-opacity:0.0; 
stroke:#000000; stroke-width:150000.000000; stroke-opacity:1; 
stroke-linecap:round; stroke-linejoin:round;">
<text x="263002200.000000" y="196657200.000000"
textLength="8507143.000000" font-size="2000000.000000" lengthAdjust="spacingAndGlyphs"
text-anchor="start" opacity="0">Id: 1/1</text>
<g class="stroked-text"><desc>Id: 1/1</desc>
<path d="M263434342 196585771
L263434342 195085771
" />
<path d="M264791485 196585771
L264791485 195085771
" />
<path d="M264791485 196514342
L264648628 196585771
L264362914 196585771
L264220057 196514342
L264148628 196442914
L264077200 196300057
L264077200 195871485
L264148628 195728628
L264220057 195657200
L264362914 195585771
L264648628 195585771
L264791485 195657200
" />
<path d="M265505771 196442914
L265577200 196514342
L265505771 196585771
L265434342 196514342
L265505771 196442914
L265505771 196585771
" />
<path d="M265505771 195657200
L265577200 195728628
L265505771 195800057
L265434342 195728628
L265505771 195657200
L265505771 195800057
" />
<path d="M268148628 196585771
L267291485 196585771
" />
<path d="M267720057 196585771
L267720057 195085771
L267577200 195300057
L267434342 195442914
L267291485 195514342
" />
<path d="M269862914 195014342
L268577200 196942914
" />
<path d="M271148628 196585771
L270291485 196585771
" />
<path d="M270720057 196585771
L270720057 195085771
L270577200 195300057
L270434342 195442914
L270291485 195514342
" />
</g></g>
<g style="fill:#000000; fill-opacity:0.0; 
stroke:#000000; stroke-width:21200.000000; stroke-opacity:1; 
stroke-linecap:round; stroke-linejoin:round;">
</g>
<g style="fill:#000000; fill-opacity:0.0; 
stroke:#000000; stroke-width:150000.000000; stroke-opacity:1; 
stroke-linecap:round; stroke-linejoin:round;">
<path d="M177002200 187507200
L285002200 187507200
" />
</g>
<g style="fill:#000000; fill-opacity:0.0; 
stroke:#000000; stroke-width:21200.000000; stroke-opacity:1; 
stroke-linecap:round; stroke-linejoin:round;">
</g>
<g style="fill:#000000; fill-opacity:0.0; 
stroke:#000000; stroke-width:400000.000000; stroke-opacity:1; 
stroke-linecap:round; stroke-linejoin:round;">
<text x="178002200.000000" y="190307200.000000"
textLength="9409643.000000" font-size="2666666.000000" lengthAdjust="spacingAndGlyphs"
text-anchor="start" opacity="0">Title: </text>
<g class="stroked-text"><desc>Title: </desc>
<path d="M178714580 188211961
L179857438 188211961
" />
<path d="M179036009 190211961
L179286009 188211961
" />
<path d="M180274104 190211961
L180440771 188878628
" />
<path d="M180524104 188211961
L180416961 188307200
L180500295 188402438
L180607438 188307200
L180524104 188211961
L180500295 188402438
" />
<path d="M181107438 188878628
L181869342 188878628
" />
<path d="M181476485 188211961
L181262200 189926247
L181333628 190116723
L181512200 190211961
L181702676 190211961
" />
<path d="M182655057 190211961
L182476485 190116723
L182405057 189926247
L182619342 188211961
" />
<path d="M184190771 190116723
L183988390 190211961
L183607438 190211961
L183428866 190116723
L183357438 189926247
L183452676 189164342
L183571723 188973866
L183774104 188878628
L184155057 188878628
L184333628 188973866
L184405057 189164342
L184381247 189354819
L183405057 189545295
" />
<path d="M185155057 190021485
L185238390 190116723
L185131247 190211961
L185047914 190116723
L185155057 190021485
L185131247 190211961
" />
<path d="M185286009 188973866
L185369342 189069104
L185262200 189164342
L185178866 189069104
L185286009 188973866
L185262200 189164342
" />
</g></g>
<g style="fill:#000000; fill-opacity:0.0; 
stroke:#000000; stroke-width:21200.000000; stroke-opacity:1; 
stroke-linecap:round; stroke-linejoin:round;">
</g>
<g style="fill:#000000; fill-opacity:0.0; 
stroke:#000000; stroke-width:150000.000000; stroke-opacity:1; 
stroke-linecap:round; stroke-linejoin:round;">
<text x="178002200.000000" y="186457200.000000"
textLength="30662857.000000" font-size="2000000.000000" lengthAdjust="spacingAndGlyphs"
text-anchor="start" opacity="0">File: kicadBoard.kicad_pcb</text>
<g class="stroked-text"><desc>File: kicadBoard.kicad_pcb</desc>
<path d="M178934342 185600057
L178434342 185600057
" />
<path d="M178434342 186385771
L178434342 184885771
L179148628 184885771
" />
<path d="M179720057 186385771
L179720057 185385771
" />
<path d="M179720057 184885771
L179648628 184957200
L179720057 185028628
L179791485 184957200
L179720057 184885771
L179720057 185028628
" />
<path d="M180648628 186385771
L180505771 186314342
L180434342 186171485
L180434342 184885771
" />
<path d="M181791485 186314342
L181648628 186385771
L181362914 186385771
L181220057 186314342
L181148628 186171485
L181148628 185600057
L181220057 185457200
L181362914 185385771
L181648628 185385771
L181791485 185457200
L181862914 185600057
L181862914 185742914
L181148628 185885771
" />
<path d="M182505771 186242914
L182577200 186314342
L182505771 186385771
L182434342 186314342
L182505771 186242914
L182505771 186385771
" />
<path d="M182505771 185457200
L182577200 185528628
L182505771 185600057
L182434342 185528628
L182505771 185457200
L182505771 185600057
" />
<path d="M184362914 186385771
L184362914 184885771
" />
<path d="M184505771 185814342
L184934342 186385771
" />
<path d="M184934342 185385771
L184362914 185957200
" />
<path d="M185577200 186385771
L185577200 185385771
" />
<path d="M185577200 184885771
L185505771 184957200
L185577200 185028628
L185648628 184957200
L185577200 184885771
L185577200 185028628
" />
<path d="M186934342 186314342
L186791485 186385771
L186505771 186385771
L186362914 186314342
L186291485 186242914
L186220057 186100057
L186220057 185671485
L186291485 185528628
L186362914 185457200
L186505771 185385771
L186791485 185385771
L186934342 185457200
" />
<path d="M188220057 186385771
L188220057 185600057
L188148628 185457200
L188005771 185385771
L187720057 185385771
L187577200 185457200
" />
<path d="M188220057 186314342
L188077200 186385771
L187720057 186385771
L187577200 186314342
L187505771 186171485
L187505771 186028628
L187577200 185885771
L187720057 185814342
L188077200 185814342
L188220057 185742914
" />
<path d="M189577200 186385771
L189577200 184885771
" />
<path d="M189577200 186314342
L189434342 186385771
L189148628 186385771
L189005771 186314342
L188934342 186242914
L188862914 186100057
L188862914 185671485
L188934342 185528628
L189005771 185457200
L189148628 185385771
L189434342 185385771
L189577200 185457200
" />
<path d="M190791485 185600057
L191005771 185671485
L191077200 185742914
L191148628 185885771
L191148628 186100057
L191077200 186242914
L191005771 186314342
L190862914 186385771
L190291485 186385771
L190291485 184885771
L190791485 184885771
L190934342 184957200
L191005771 185028628
L191077200 185171485
L191077200 185314342
L191005771 185457200
L190934342 185528628
L190791485 185600057
L190291485 185600057
" />
<path d="M192005771 186385771
L191862914 186314342
L191791485 186242914
L191720057 186100057
L191720057 185671485
L191791485 185528628
L191862914 185457200
L192005771 185385771
L192220057 185385771
L192362914 185457200
L192434342 185528628
L192505771 185671485
L192505771 186100057
L192434342 186242914
L192362914 186314342
L192220057 186385771
L192005771 186385771
" />
<path d="M193791485 186385771
L193791485 185600057
L193720057 185457200
L193577200 185385771
L193291485 185385771
L193148628 185457200
" />
<path d="M193791485 186314342
L193648628 186385771
L193291485 186385771
L193148628 186314342
L193077200 186171485
L193077200 186028628
L193148628 185885771
L193291485 185814342
L193648628 185814342
L193791485 185742914
" />
<path d="M194505771 186385771
L194505771 185385771
" />
<path d="M194505771 185671485
L194577200 185528628
L194648628 185457200
L194791485 185385771
L194934342 185385771
" />
<path d="M196077200 186385771
L196077200 184885771
" />
<path d="M196077200 186314342
L195934342 186385771
L195648628 186385771
L195505771 186314342
L195434342 186242914
L195362914 186100057
L195362914 185671485
L195434342 185528628
L195505771 185457200
L195648628 185385771
L195934342 185385771
L196077200 185457200
" />
<path d="M196791485 186242914
L196862914 186314342
L196791485 186385771
L196720057 186314342
L196791485 186242914
L196791485 186385771
" />
<path d="M197505771 186385771
L197505771 184885771
" />
<path d="M197648628 185814342
L198077200 186385771
" />
<path d="M198077200 185385771
L197505771 185957200
" />
<path d="M198720057 186385771
L198720057 185385771
" />
<path d="M198720057 184885771
L198648628 184957200
L198720057 185028628
L198791485 184957200
L198720057 184885771
L198720057 185028628
" />
<path d="M200077200 186314342
L199934342 186385771
L199648628 186385771
L199505771 186314342
L199434342 186242914
L199362914 186100057
L199362914 185671485
L199434342 185528628
L199505771 185457200
L199648628 185385771
L199934342 185385771
L200077200 185457200
" />
<path d="M201362914 186385771
L201362914 185600057
L201291485 185457200
L201148628 185385771
L200862914 185385771
L200720057 185457200
" />
<path d="M201362914 186314342
L201220057 186385771
L200862914 186385771
L200720057 186314342
L200648628 186171485
L200648628 186028628
L200720057 185885771
L200862914 185814342
L201220057 185814342
L201362914 185742914
" />
<path d="M202720057 186385771
L202720057 184885771
" />
<path d="M202720057 186314342
L202577200 186385771
L202291485 186385771
L202148628 186314342
L202077200 186242914
L202005771 186100057
L202005771 185671485
L202077200 185528628
L202148628 185457200
L202291485 185385771
L202577200 185385771
L202720057 185457200
" />
<path d="M203077200 186528628
L204220057 186528628
" />
<path d="M204577200 185385771
L204577200 186885771
" />
<path d="M204577200 185457200
L204720057 185385771
L205005771 185385771
L205148628 185457200
L205220057 185528628
L205291485 185671485
L205291485 186100057
L205220057 186242914
L205148628 186314342
L205005771 186385771
L204720057 186385771
L204577200 186314342
" />
<path d="M206577200 186314342
L206434342 186385771
L206148628 186385771
L206005771 186314342
L205934342 186242914
L205862914 186100057
L205862914 185671485
L205934342 185528628
L206005771 185457200
L206148628 185385771
L206434342 185385771
L206577200 185457200
" />
<path d="M207220057 186385771
L207220057 184885771
" />
<path d="M207220057 185457200
L207362914 185385771
L207648628 185385771
L207791485 185457200
L207862914 185528628
L207934342 185671485
L207934342 186100057
L207862914 186242914
L207791485 186314342
L207648628 186385771
L207362914 186385771
L207220057 186314342
" />
</g></g>
<g style="fill:#000000; fill-opacity:0.0; 
stroke:#000000; stroke-width:21200.000000; stroke-opacity:1; 
stroke-linecap:round; stroke-linejoin:round;">
</g>
<g style="fill:#000000; fill-opacity:0.0; 
stroke:#000000; stroke-width:150000.000000; stroke-opacity:1; 
stroke-linecap:round; stroke-linejoin:round;">
<path d="M177002200 181507200
L285002200 181507200
" />
</g>
<g style="fill:#000000; fill-opacity:0.0; 
stroke:#000000; stroke-width:21200.000000; stroke-opacity:1; 
stroke-linecap:round; stroke-linejoin:round;">
</g>
<g style="fill:#000000; fill-opacity:0.0; 
stroke:#000000; stroke-width:150000.000000; stroke-opacity:1; 
stroke-linecap:round; stroke-linejoin:round;">
<text x="178002200.000000" y="183757200.000000"
textLength="8221429.000000" font-size="2000000.000000" lengthAdjust="spacingAndGlyphs"
text-anchor="start" opacity="0">Sheet: </text>
<g class="stroked-text"><desc>Sheet: </desc>
<path d="M178362914 183614342
L178577200 183685771
L178934342 183685771
L179077200 183614342
L179148628 183542914
L179220057 183400057
L179220057 183257200
L179148628 183114342
L179077200 183042914
L178934342 182971485
L178648628 182900057
L178505771 182828628
L178434342 182757200
L178362914 182614342
L178362914 182471485
L178434342 182328628
L178505771 182257200
L178648628 182185771
L179005771 182185771
L179220057 182257200
" />
<path d="M179862914 183685771
L179862914 182185771
" />
<path d="M180505771 183685771
L180505771 182900057
L180434342 182757200
L180291485 182685771
L180077200 182685771
L179934342 182757200
L179862914 182828628
" />
<path d="M181791485 183614342
L181648628 183685771
L181362914 183685771
L181220057 183614342
L181148628 183471485
L181148628 182900057
L181220057 182757200
L181362914 182685771
L181648628 182685771
L181791485 182757200
L181862914 182900057
L181862914 183042914
L181148628 183185771
" />
<path d="M183077200 183614342
L182934342 183685771
L182648628 183685771
L182505771 183614342
L182434342 183471485
L182434342 182900057
L182505771 182757200
L182648628 182685771
L182934342 182685771
L183077200 182757200
L183148628 182900057
L183148628 183042914
L182434342 183185771
" />
<path d="M183577200 182685771
L184148628 182685771
" />
<path d="M183791485 182185771
L183791485 183471485
L183862914 183614342
L184005771 183685771
L184148628 183685771
" />
<path d="M184648628 183542914
L184720057 183614342
L184648628 183685771
L184577200 183614342
L184648628 183542914
L184648628 183685771
" />
<path d="M184648628 182757200
L184720057 182828628
L184648628 182900057
L184577200 182828628
L184648628 182757200
L184648628 182900057
" />
</g></g>
<g style="fill:#000000; fill-opacity:0.0; 
stroke:#000000; stroke-width:21200.000000; stroke-opacity:1; 
stroke-linecap:round; stroke-linejoin:round;">
</g>
<g style="fill:#000000; fill-opacity:0.0; 
stroke:#000000; stroke-width:300000.000000; stroke-opacity:1; 
stroke-linecap:round; stroke-linejoin:round;">
<text x="178002200.000000" y="180757200.000000"
textLength="150000.000000" font-size="2000000.000000" lengthAdjust="spacingAndGlyphs"
text-anchor="start" opacity="0"></text>
<g class="stroked-text"><desc></desc>
</g></g>
<g style="fill:#000000; fill-opacity:0.0; 
stroke:#000000; stroke-width:21200.000000; stroke-opacity:1; 
stroke-linecap:round; stroke-linejoin:round;">
</g>
<g style="fill:#000000; fill-opacity:0.0; 
stroke:#000000; stroke-width:150000.000000; stroke-opacity:1; 
stroke-linecap:round; stroke-linejoin:round;">
<text x="178002200.000000" y="177757200.000000"
textLength="300000.000000" font-size="2000000.000000" lengthAdjust="spacingAndGlyphs"
text-anchor="start" opacity="0"></text>
<g class="stroked-text"><desc></desc>
</g></g>
<g style="fill:#000000; fill-opacity:0.0; 
stroke:#000000; stroke-width:21200.000000; stroke-opacity:1; 
stroke-linecap:round; stroke-linejoin:round;">
</g>
<g style="fill:#000000; fill-opacity:0.0; 
stroke:#000000; stroke-width:150000.000000; stroke-opacity:1; 
stroke-linecap:round; stroke-linejoin:round;">
<text x="178002200.000000" y="174757200.000000"
textLength="150000.000000" font-size="2000000.000000" lengthAdjust="spacingAndGlyphs"
text-anchor="start" opacity="0"></text>
<g class="stroked-text"><desc></desc>
</g></g>
<g style="fill:#000000; fill-opacity:0.0; 
stroke:#000000; stroke-width:21200.000000; stroke-opacity:1; 
stroke-linecap:round; stroke-linejoin:round;">
</g>
<g style="fill:#000000; fill-opacity:0.0; 
stroke:#000000; stroke-width:150000.000000; stroke-opacity:1; 
stroke-linecap:round; stroke-linejoin:round;">
<text x="178002200.000000" y="171757200.000000"
textLength="150000.000000" font-size="2000000.000000" lengthAdjust="spacingAndGlyphs"
text-anchor="start" opacity="0"></text>
<g class="stroked-text"><desc></desc>
</g></g>
<g style="fill:#000000; fill-opacity:0.0; 
stroke:#000000; stroke-width:21200.000000; stroke-opacity:1; 
stroke-linecap:round; stroke-linejoin:round;">
</g>
<g style="fill:#000000; fill-opacity:0.0; 
stroke:#000000; stroke-width:150000.000000; stroke-opacity:1; 
stroke-linecap:round; stroke-linejoin:round;">
<text x="178002200.000000" y="168757200.000000"
textLength="150000.000000" font-size="2000000.000000" lengthAdjust="spacingAndGlyphs"
text-anchor="start" opacity="0"></text>
<g class="stroked-text"><desc></desc>
</g></g>
<g style="fill:#000000; fill-opacity:0.0; 
stroke:#000000; stroke-width:21200.000000; stroke-opacity:1; 
stroke-linecap:round; stroke-linejoin:round;">
</g>
<g style="fill:#000000; fill-opacity:0.0; 
stroke:#000000; stroke-width:150000.000000; stroke-opacity:1; 
stroke-linecap:round; stroke-linejoin:round;">
<path d="M197002200 191507200
L197002200 194507200
" />
</g>
<g style="fill:#000000; fill-opacity:0.0; 
stroke:#000000; stroke-width:21200.000000; stroke-opacity:1; 
stroke-linecap:round; stroke-linejoin:round;">
</g>
<g style="fill:#000000; fill-opacity:0.0; 
stroke:#000000; stroke-width:150000.000000; stroke-opacity:1; 
stroke-linecap:round; stroke-linejoin:round;">
<path d="M261002200 191507200
L261002200 198007200
" />
</g>
<g style="fill:#AFAFAF; fill-opacity:0.0; 
stroke:#AFAFAF; stroke-width:150000.000000; stroke-opacity:1; 
stroke-linecap:round; stroke-linejoin:round;">
</g>
<g style="fill:#AFAFAF; fill-opacity:0.0; 
stroke:#AFAFAF; stroke-width:142240.000000; stroke-opacity:1; 
stroke-linecap:round; stroke-linejoin:round;">
<text x="144691100.000000" y="126677826.000000"
textLength="11366640.000000" font-size="2181013.000000" lengthAdjust="spacingAndGlyphs"
text-anchor="start" opacity="0">N. Seidle</text>
<g class="stroked-text"><desc>N. Seidle</desc>
<path d="M145173022 126599932
L145173022 124964172
L146107742 126599932
L146107742 124964172
" />
<path d="M146886676 126444146
L146964569 126522039
L146886676 126599932
L146808782 126522039
L146886676 126444146
L146886676 126599932
" />
<path d="M148834009 126522039
L149067689 126599932
L149457156 126599932
L149612942 126522039
L149690836 126444146
L149768729 126288359
L149768729 126132572
L149690836 125976786
L149612942 125898892
L149457156 125820999
L149145582 125743106
L148989796 125665212
L148911902 125587319
L148834009 125431532
L148834009 125275746
L148911902 125119959
L148989796 125042066
L149145582 124964172
L149535049 124964172
L149768729 125042066
" />
<path d="M151092916 126522039
L150937129 126599932
L150625556 126599932
L150469769 126522039
L150391876 126366252
L150391876 125743106
L150469769 125587319
L150625556 125509426
L150937129 125509426
L151092916 125587319
L151170809 125743106
L151170809 125898892
L150391876 126054679
" />
<path d="M151871849 126599932
L151871849 125509426
" />
<path d="M151871849 124964172
L151793956 125042066
L151871849 125119959
L151949742 125042066
L151871849 124964172
L151871849 125119959
" />
<path d="M153351822 126599932
L153351822 124964172
" />
<path d="M153351822 126522039
L153196036 126599932
L152884462 126599932
L152728676 126522039
L152650782 126444146
L152572889 126288359
L152572889 125820999
L152650782 125665212
L152728676 125587319
L152884462 125509426
L153196036 125509426
L153351822 125587319
" />
<path d="M154364436 126599932
L154208649 126522039
L154130756 126366252
L154130756 124964172
" />
<path d="M155610729 126522039
L155454942 126599932
L155143369 126599932
L154987582 126522039
L154909689 126366252
L154909689 125743106
L154987582 125587319
L155143369 125509426
L155454942 125509426
L155610729 125587319
L155688622 125743106
L155688622 125898892
L154909689 126054679
" />
</g><text x="144691100.000000" y="129311400.000000"
textLength="31030672.000000" font-size="2181013.000000" lengthAdjust="spacingAndGlyphs"
text-anchor="start" opacity="0">Revised by Shawn Hymel</text>
<g class="stroked-text"><desc>Revised by Shawn Hymel</desc>
<path d="M146107742 129233506
L145562489 128454573
" />
<path d="M145173022 129233506
L145173022 127597746
L145796169 127597746
L145951956 127675640
L146029849 127753533
L146107742 127909320
L146107742 128143000
L146029849 128298786
L145951956 128376680
L145796169 128454573
L145173022 128454573
" />
<path d="M147431929 129155613
L147276142 129233506
L146964569 129233506
L146808782 129155613
L146730889 128999826
L146730889 128376680
L146808782 128220893
L146964569 128143000
L147276142 128143000
L147431929 128220893
L147509822 128376680
L147509822 128532466
L146730889 128688253
" />
<path d="M148055076 128143000
L148444542 129233506
L148834009 128143000
" />
<path d="M149457156 129233506
L149457156 128143000
" />
<path d="M149457156 127597746
L149379262 127675640
L149457156 127753533
L149535049 127675640
L149457156 127597746
L149457156 127753533
" />
<path d="M150158196 129155613
L150313982 129233506
L150625556 129233506
L150781342 129155613
L150859236 128999826
L150859236 128921933
L150781342 128766146
L150625556 128688253
L150391876 128688253
L150236089 128610360
L150158196 128454573
L150158196 128376680
L150236089 128220893
L150391876 128143000
L150625556 128143000
L150781342 128220893
" />
<path d="M152183422 129155613
L152027636 129233506
L151716062 129233506
L151560276 129155613
L151482382 128999826
L151482382 128376680
L151560276 128220893
L151716062 128143000
L152027636 128143000
L152183422 128220893
L152261316 128376680
L152261316 128532466
L151482382 128688253
" />
<path d="M153663396 129233506
L153663396 127597746
" />
<path d="M153663396 129155613
L153507609 129233506
L153196036 129233506
L153040249 129155613
L152962356 129077720
L152884462 128921933
L152884462 128454573
L152962356 128298786
L153040249 128220893
L153196036 128143000
L153507609 128143000
L153663396 128220893
" />
<path d="M155688622 129233506
L155688622 127597746
" />
<path d="M155688622 128220893
L155844409 128143000
L156155982 128143000
L156311769 128220893
L156389662 128298786
L156467556 128454573
L156467556 128921933
L156389662 129077720
L156311769 129155613
L156155982 129233506
L155844409 129233506
L155688622 129155613
" />
<path d="M157012809 128143000
L157402276 129233506
" />
<path d="M157791742 128143000
L157402276 129233506
L157246489 129622973
L157168596 129700866
L157012809 129778760
" />
<path d="M159583289 129155613
L159816969 129233506
L160206436 129233506
L160362222 129155613
L160440116 129077720
L160518009 128921933
L160518009 128766146
L160440116 128610360
L160362222 128532466
L160206436 128454573
L159894862 128376680
L159739076 128298786
L159661182 128220893
L159583289 128065106
L159583289 127909320
L159661182 127753533
L159739076 127675640
L159894862 127597746
L160284329 127597746
L160518009 127675640
" />
<path d="M161219049 129233506
L161219049 127597746
" />
<path d="M161920089 129233506
L161920089 128376680
L161842196 128220893
L161686409 128143000
L161452729 128143000
L161296942 128220893
L161219049 128298786
" />
<path d="M163400062 129233506
L163400062 128376680
L163322169 128220893
L163166382 128143000
L162854809 128143000
L162699022 128220893
" />
<path d="M163400062 129155613
L163244276 129233506
L162854809 129233506
L162699022 129155613
L162621129 128999826
L162621129 128844040
L162699022 128688253
L162854809 128610360
L163244276 128610360
L163400062 128532466
" />
<path d="M164023209 128143000
L164334782 129233506
L164646356 128454573
L164957929 129233506
L165269502 128143000
" />
<path d="M165892649 128143000
L165892649 129233506
" />
<path d="M165892649 128298786
L165970542 128220893
L166126329 128143000
L166360009 128143000
L166515796 128220893
L166593689 128376680
L166593689 129233506
" />
<path d="M168618916 129233506
L168618916 127597746
" />
<path d="M168618916 128376680
L169553636 128376680
" />
<path d="M169553636 129233506
L169553636 127597746
" />
<path d="M170176782 128143000
L170566249 129233506
" />
<path d="M170955716 128143000
L170566249 129233506
L170410462 129622973
L170332569 129700866
L170176782 129778760
" />
<path d="M171578862 129233506
L171578862 128143000
" />
<path d="M171578862 128298786
L171656756 128220893
L171812542 128143000
L172046222 128143000
L172202009 128220893
L172279902 128376680
L172279902 129233506
" />
<path d="M172279902 128376680
L172357796 128220893
L172513582 128143000
L172747262 128143000
L172903049 128220893
L172980942 128376680
L172980942 129233506
" />
<path d="M174383022 129155613
L174227236 129233506
L173915662 129233506
L173759876 129155613
L173681982 128999826
L173681982 128376680
L173759876 128220893
L173915662 128143000
L174227236 128143000
L174383022 128220893
L174460916 128376680
L174460916 128532466
L173681982 128688253
" />
<path d="M175395636 129233506
L175239849 129155613
L175161956 128999826
L175161956 127597746
" />
</g><text x="114211100.000000" y="124053600.000000"
textLength="72236245.000000" font-size="2181013.000000" lengthAdjust="spacingAndGlyphs"
text-anchor="start" opacity="0"> HTTPS://CREATIVECOMMONS.ORG/LICENSES/BY-SA/4.0/</text>
<g class="stroked-text"><desc> HTTPS://CREATIVECOMMONS.ORG/LICENSES/BY-SA/4.0/</desc>
<path d="M115939316 123975706
L115939316 122339946
" />
<path d="M115939316 123118880
L116874036 123118880
" />
<path d="M116874036 123975706
L116874036 122339946
" />
<path d="M117419289 122339946
L118354009 122339946
" />
<path d="M117886649 123975706
L117886649 122339946
" />
<path d="M118665582 122339946
L119600302 122339946
" />
<path d="M119132942 123975706
L119132942 122339946
" />
<path d="M120145556 123975706
L120145556 122339946
L120768702 122339946
L120924489 122417840
L121002382 122495733
L121080276 122651520
L121080276 122885200
L121002382 123040986
L120924489 123118880
L120768702 123196773
L120145556 123196773
" />
<path d="M121703422 123897813
L121937102 123975706
L122326569 123975706
L122482356 123897813
L122560249 123819920
L122638142 123664133
L122638142 123508346
L122560249 123352560
L122482356 123274666
L122326569 123196773
L122014996 123118880
L121859209 123040986
L121781316 122963093
L121703422 122807306
L121703422 122651520
L121781316 122495733
L121859209 122417840
L122014996 122339946
L122404462 122339946
L122638142 122417840
" />
<path d="M123339182 123819920
L123417076 123897813
L123339182 123975706
L123261289 123897813
L123339182 123819920
L123339182 123975706
" />
<path d="M123339182 122963093
L123417076 123040986
L123339182 123118880
L123261289 123040986
L123339182 122963093
L123339182 123118880
" />
<path d="M125286516 122262053
L123884436 124365173
" />
<path d="M127000169 122262053
L125598089 124365173
" />
<path d="M128480142 123819920
L128402249 123897813
L128168569 123975706
L128012782 123975706
L127779102 123897813
L127623316 123742026
L127545422 123586240
L127467529 123274666
L127467529 123040986
L127545422 122729413
L127623316 122573626
L127779102 122417840
L128012782 122339946
L128168569 122339946
L128402249 122417840
L128480142 122495733
" />
<path d="M130115902 123975706
L129570649 123196773
" />
<path d="M129181182 123975706
L129181182 122339946
L129804329 122339946
L129960116 122417840
L130038009 122495733
L130115902 122651520
L130115902 122885200
L130038009 123040986
L129960116 123118880
L129804329 123196773
L129181182 123196773
" />
<path d="M130816942 123118880
L131362196 123118880
" />
<path d="M131595876 123975706
L130816942 123975706
L130816942 122339946
L131595876 122339946
" />
<path d="M132219022 123508346
L132997956 123508346
" />
<path d="M132063236 123975706
L132608489 122339946
L133153742 123975706
" />
<path d="M133465316 122339946
L134400036 122339946
" />
<path d="M133932676 123975706
L133932676 122339946
" />
<path d="M134945289 123975706
L134945289 122339946
" />
<path d="M135490542 122339946
L136035796 123975706
L136581049 122339946
" />
<path d="M137126302 123118880
L137671556 123118880
" />
<path d="M137905236 123975706
L137126302 123975706
L137126302 122339946
L137905236 122339946
" />
<path d="M139540996 123819920
L139463102 123897813
L139229422 123975706
L139073636 123975706
L138839956 123897813
L138684169 123742026
L138606276 123586240
L138528382 123274666
L138528382 123040986
L138606276 122729413
L138684169 122573626
L138839956 122417840
L139073636 122339946
L139229422 122339946
L139463102 122417840
L139540996 122495733
" />
<path d="M140553609 122339946
L140865182 122339946
L141020969 122417840
L141176756 122573626
L141254649 122885200
L141254649 123430453
L141176756 123742026
L141020969 123897813
L140865182 123975706
L140553609 123975706
L140397822 123897813
L140242036 123742026
L140164142 123430453
L140164142 122885200
L140242036 122573626
L140397822 122417840
L140553609 122339946
" />
<path d="M141955689 123975706
L141955689 122339946
L142500942 123508346
L143046196 122339946
L143046196 123975706
" />
<path d="M143825129 123975706
L143825129 122339946
L144370382 123508346
L144915636 122339946
L144915636 123975706
" />
<path d="M146006142 122339946
L146317716 122339946
L146473502 122417840
L146629289 122573626
L146707182 122885200
L146707182 123430453
L146629289 123742026
L146473502 123897813
L146317716 123975706
L146006142 123975706
L145850356 123897813
L145694569 123742026
L145616676 123430453
L145616676 122885200
L145694569 122573626
L145850356 122417840
L146006142 122339946
" />
<path d="M147408222 123975706
L147408222 122339946
L148342942 123975706
L148342942 122339946
" />
<path d="M149043982 123897813
L149277662 123975706
L149667129 123975706
L149822916 123897813
L149900809 123819920
L149978702 123664133
L149978702 123508346
L149900809 123352560
L149822916 123274666
L149667129 123196773
L149355556 123118880
L149199769 123040986
L149121876 122963093
L149043982 122807306
L149043982 122651520
L149121876 122495733
L149199769 122417840
L149355556 122339946
L149745022 122339946
L149978702 122417840
" />
<path d="M150679742 123819920
L150757636 123897813
L150679742 123975706
L150601849 123897813
L150679742 123819920
L150679742 123975706
" />
<path d="M151770249 122339946
L152081822 122339946
L152237609 122417840
L152393396 122573626
L152471289 122885200
L152471289 123430453
L152393396 123742026
L152237609 123897813
L152081822 123975706
L151770249 123975706
L151614462 123897813
L151458676 123742026
L151380782 123430453
L151380782 122885200
L151458676 122573626
L151614462 122417840
L151770249 122339946
" />
<path d="M154107049 123975706
L153561796 123196773
" />
<path d="M153172329 123975706
L153172329 122339946
L153795476 122339946
L153951262 122417840
L154029156 122495733
L154107049 122651520
L154107049 122885200
L154029156 123040986
L153951262 123118880
L153795476 123196773
L153172329 123196773
" />
<path d="M155664916 122417840
L155509129 122339946
L155275449 122339946
L155041769 122417840
L154885982 122573626
L154808089 122729413
L154730196 123040986
L154730196 123274666
L154808089 123586240
L154885982 123742026
L155041769 123897813
L155275449 123975706
L155431236 123975706
L155664916 123897813
L155742809 123819920
L155742809 123274666
L155431236 123274666
" />
<path d="M157612249 122262053
L156210169 124365173
" />
<path d="M158936436 123975706
L158157502 123975706
L158157502 122339946
" />
<path d="M159481689 123975706
L159481689 122339946
" />
<path d="M161195342 123819920
L161117449 123897813
L160883769 123975706
L160727982 123975706
L160494302 123897813
L160338516 123742026
L160260622 123586240
L160182729 123274666
L160182729 123040986
L160260622 122729413
L160338516 122573626
L160494302 122417840
L160727982 122339946
L160883769 122339946
L161117449 122417840
L161195342 122495733
" />
<path d="M161896382 123118880
L162441636 123118880
" />
<path d="M162675316 123975706
L161896382 123975706
L161896382 122339946
L162675316 122339946
" />
<path d="M163376356 123975706
L163376356 122339946
L164311076 123975706
L164311076 122339946
" />
<path d="M165012116 123897813
L165245796 123975706
L165635262 123975706
L165791049 123897813
L165868942 123819920
L165946836 123664133
L165946836 123508346
L165868942 123352560
L165791049 123274666
L165635262 123196773
L165323689 123118880
L165167902 123040986
L165090009 122963093
L165012116 122807306
L165012116 122651520
L165090009 122495733
L165167902 122417840
L165323689 122339946
L165713156 122339946
L165946836 122417840
" />
<path d="M166647876 123118880
L167193129 123118880
" />
<path d="M167426809 123975706
L166647876 123975706
L166647876 122339946
L167426809 122339946
" />
<path d="M168049956 123897813
L168283636 123975706
L168673102 123975706
L168828889 123897813
L168906782 123819920
L168984676 123664133
L168984676 123508346
L168906782 123352560
L168828889 123274666
L168673102 123196773
L168361529 123118880
L168205742 123040986
L168127849 122963093
L168049956 122807306
L168049956 122651520
L168127849 122495733
L168205742 122417840
L168361529 122339946
L168750996 122339946
L168984676 122417840
" />
<path d="M170854116 122262053
L169452036 124365173
" />
<path d="M171944622 123118880
L172178302 123196773
L172256196 123274666
L172334089 123430453
L172334089 123664133
L172256196 123819920
L172178302 123897813
L172022516 123975706
L171399369 123975706
L171399369 122339946
L171944622 122339946
L172100409 122417840
L172178302 122495733
L172256196 122651520
L172256196 122807306
L172178302 122963093
L172100409 123040986
L171944622 123118880
L171399369 123118880
" />
<path d="M173346702 123196773
L173346702 123975706
" />
<path d="M172801449 122339946
L173346702 123196773
L173891956 122339946
" />
<path d="M174437209 123352560
L175683502 123352560
" />
<path d="M176384542 123897813
L176618222 123975706
L177007689 123975706
L177163476 123897813
L177241369 123819920
L177319262 123664133
L177319262 123508346
L177241369 123352560
L177163476 123274666
L177007689 123196773
L176696116 123118880
L176540329 123040986
L176462436 122963093
L176384542 122807306
L176384542 122651520
L176462436 122495733
L176540329 122417840
L176696116 122339946
L177085582 122339946
L177319262 122417840
" />
<path d="M177942409 123508346
L178721342 123508346
" />
<path d="M177786622 123975706
L178331876 122339946
L178877129 123975706
" />
<path d="M180590782 122262053
L179188702 124365173
" />
<path d="M181837076 122885200
L181837076 123975706
" />
<path d="M181447609 122262053
L181058142 123430453
L182070756 123430453
" />
<path d="M182693902 123819920
L182771796 123897813
L182693902 123975706
L182616009 123897813
L182693902 123819920
L182693902 123975706
" />
<path d="M183784409 122339946
L183940196 122339946
L184095982 122417840
L184173876 122495733
L184251769 122651520
L184329662 122963093
L184329662 123352560
L184251769 123664133
L184173876 123819920
L184095982 123897813
L183940196 123975706
L183784409 123975706
L183628622 123897813
L183550729 123819920
L183472836 123664133
L183394942 123352560
L183394942 122963093
L183472836 122651520
L183550729 122495733
L183628622 122417840
L183784409 122339946
" />
<path d="M186199102 122262053
L184797022 124365173
" />
</g><text x="93891100.000000" y="121513600.000000"
textLength="103315685.000000" font-size="2181013.000000" lengthAdjust="spacingAndGlyphs"
text-anchor="start" opacity="0">RELEASED UNDER THE CREATIVE COMMONS ATTRIBUTION SHARE-ALIKE 4.0 LICENSE</text>
<g class="stroked-text"><desc>RELEASED UNDER THE CREATIVE COMMONS ATTRIBUTION SHARE-ALIKE 4.0 LICENSE</desc>
<path d="M95307742 121435706
L94762489 120656773
" />
<path d="M94373022 121435706
L94373022 119799946
L94996169 119799946
L95151956 119877840
L95229849 119955733
L95307742 120111520
L95307742 120345200
L95229849 120500986
L95151956 120578880
L94996169 120656773
L94373022 120656773
" />
<path d="M96008782 120578880
L96554036 120578880
" />
<path d="M96787716 121435706
L96008782 121435706
L96008782 119799946
L96787716 119799946
" />
<path d="M98267689 121435706
L97488756 121435706
L97488756 119799946
" />
<path d="M98812942 120578880
L99358196 120578880
" />
<path d="M99591876 121435706
L98812942 121435706
L98812942 119799946
L99591876 119799946
" />
<path d="M100215022 120968346
L100993956 120968346
" />
<path d="M100059236 121435706
L100604489 119799946
L101149742 121435706
" />
<path d="M101617102 121357813
L101850782 121435706
L102240249 121435706
L102396036 121357813
L102473929 121279920
L102551822 121124133
L102551822 120968346
L102473929 120812560
L102396036 120734666
L102240249 120656773
L101928676 120578880
L101772889 120500986
L101694996 120423093
L101617102 120267306
L101617102 120111520
L101694996 119955733
L101772889 119877840
L101928676 119799946
L102318142 119799946
L102551822 119877840
" />
<path d="M103252862 120578880
L103798116 120578880
" />
<path d="M104031796 121435706
L103252862 121435706
L103252862 119799946
L104031796 119799946
" />
<path d="M104732836 121435706
L104732836 119799946
L105122302 119799946
L105355982 119877840
L105511769 120033626
L105589662 120189413
L105667556 120500986
L105667556 120734666
L105589662 121046240
L105511769 121202026
L105355982 121357813
L105122302 121435706
L104732836 121435706
" />
<path d="M107614889 119799946
L107614889 121124133
L107692782 121279920
L107770676 121357813
L107926462 121435706
L108238036 121435706
L108393822 121357813
L108471716 121279920
L108549609 121124133
L108549609 119799946
" />
<path d="M109328542 121435706
L109328542 119799946
L110263262 121435706
L110263262 119799946
" />
<path d="M111042196 121435706
L111042196 119799946
L111431662 119799946
L111665342 119877840
L111821129 120033626
L111899022 120189413
L111976916 120500986
L111976916 120734666
L111899022 121046240
L111821129 121202026
L111665342 121357813
L111431662 121435706
L111042196 121435706
" />
<path d="M112677956 120578880
L113223209 120578880
" />
<path d="M113456889 121435706
L112677956 121435706
L112677956 119799946
L113456889 119799946
" />
<path d="M115092649 121435706
L114547396 120656773
" />
<path d="M114157929 121435706
L114157929 119799946
L114781076 119799946
L114936862 119877840
L115014756 119955733
L115092649 120111520
L115092649 120345200
L115014756 120500986
L114936862 120578880
L114781076 120656773
L114157929 120656773
" />
<path d="M116806302 119799946
L117741022 119799946
" />
<path d="M117273662 121435706
L117273662 119799946
" />
<path d="M118286276 121435706
L118286276 119799946
" />
<path d="M118286276 120578880
L119220996 120578880
" />
<path d="M119220996 121435706
L119220996 119799946
" />
<path d="M119999929 120578880
L120545182 120578880
" />
<path d="M120778862 121435706
L119999929 121435706
L119999929 119799946
L120778862 119799946
" />
<path d="M123660916 121279920
L123583022 121357813
L123349342 121435706
L123193556 121435706
L122959876 121357813
L122804089 121202026
L122726196 121046240
L122648302 120734666
L122648302 120500986
L122726196 120189413
L122804089 120033626
L122959876 119877840
L123193556 119799946
L123349342 119799946
L123583022 119877840
L123660916 119955733
" />
<path d="M125296676 121435706
L124751422 120656773
" />
<path d="M124361956 121435706
L124361956 119799946
L124985102 119799946
L125140889 119877840
L125218782 119955733
L125296676 120111520
L125296676 120345200
L125218782 120500986
L125140889 120578880
L124985102 120656773
L124361956 120656773
" />
<path d="M125997716 120578880
L126542969 120578880
" />
<path d="M126776649 121435706
L125997716 121435706
L125997716 119799946
L126776649 119799946
" />
<path d="M127399795 120968346
L128178729 120968346
" />
<path d="M127244009 121435706
L127789262 119799946
L128334516 121435706
" />
<path d="M128646089 119799946
L129580809 119799946
" />
<path d="M129113449 121435706
L129113449 119799946
" />
<path d="M130126062 121435706
L130126062 119799946
" />
<path d="M130671316 119799946
L131216569 121435706
L131761822 119799946
" />
<path d="M132307076 120578880
L132852329 120578880
" />
<path d="M133086009 121435706
L132307076 121435706
L132307076 119799946
L133086009 119799946
" />
<path d="M135968062 121279920
L135890169 121357813
L135656489 121435706
L135500702 121435706
L135267022 121357813
L135111236 121202026
L135033342 121046240
L134955449 120734666
L134955449 120500986
L135033342 120189413
L135111236 120033626
L135267022 119877840
L135500702 119799946
L135656489 119799946
L135890169 119877840
L135968062 119955733
" />
<path d="M136980676 119799946
L137292249 119799946
L137448036 119877840
L137603822 120033626
L137681716 120345200
L137681716 120890453
L137603822 121202026
L137448036 121357813
L137292249 121435706
L136980676 121435706
L136824889 121357813
L136669102 121202026
L136591209 120890453
L136591209 120345200
L136669102 120033626
L136824889 119877840
L136980676 119799946
" />
<path d="M138382756 121435706
L138382756 119799946
L138928009 120968346
L139473262 119799946
L139473262 121435706
" />
<path d="M140252196 121435706
L140252196 119799946
L140797449 120968346
L141342702 119799946
L141342702 121435706
" />
<path d="M142433209 119799946
L142744782 119799946
L142900569 119877840
L143056356 120033626
L143134249 120345200
L143134249 120890453
L143056356 121202026
L142900569 121357813
L142744782 121435706
L142433209 121435706
L142277422 121357813
L142121636 121202026
L142043742 120890453
L142043742 120345200
L142121636 120033626
L142277422 119877840
L142433209 119799946
" />
<path d="M143835289 121435706
L143835289 119799946
L144770009 121435706
L144770009 119799946
" />
<path d="M145471049 121357813
L145704729 121435706
L146094196 121435706
L146249982 121357813
L146327876 121279920
L146405769 121124133
L146405769 120968346
L146327876 120812560
L146249982 120734666
L146094196 120656773
L145782622 120578880
L145626836 120500986
L145548942 120423093
L145471049 120267306
L145471049 120111520
L145548942 119955733
L145626836 119877840
L145782622 119799946
L146172089 119799946
L146405769 119877840
" />
<path d="M148275209 120968346
L149054142 120968346
" />
<path d="M148119422 121435706
L148664676 119799946
L149209929 121435706
" />
<path d="M149521502 119799946
L150456222 119799946
" />
<path d="M149988862 121435706
L149988862 119799946
" />
<path d="M150767796 119799946
L151702516 119799946
" />
<path d="M151235156 121435706
L151235156 119799946
" />
<path d="M153182489 121435706
L152637236 120656773
" />
<path d="M152247769 121435706
L152247769 119799946
L152870916 119799946
L153026702 119877840
L153104596 119955733
L153182489 120111520
L153182489 120345200
L153104596 120500986
L153026702 120578880
L152870916 120656773
L152247769 120656773
" />
<path d="M153883529 121435706
L153883529 119799946
" />
<path d="M155207716 120578880
L155441396 120656773
L155519289 120734666
L155597182 120890453
L155597182 121124133
L155519289 121279920
L155441396 121357813
L155285609 121435706
L154662462 121435706
L154662462 119799946
L155207716 119799946
L155363502 119877840
L155441396 119955733
L155519289 120111520
L155519289 120267306
L155441396 120423093
L155363502 120500986
L155207716 120578880
L154662462 120578880
" />
<path d="M156298222 119799946
L156298222 121124133
L156376116 121279920
L156454009 121357813
L156609796 121435706
L156921369 121435706
L157077156 121357813
L157155049 121279920
L157232942 121124133
L157232942 119799946
" />
<path d="M157778196 119799946
L158712916 119799946
" />
<path d="M158245556 121435706
L158245556 119799946
" />
<path d="M159258169 121435706
L159258169 119799946
" />
<path d="M160348676 119799946
L160660249 119799946
L160816036 119877840
L160971822 120033626
L161049716 120345200
L161049716 120890453
L160971822 121202026
L160816036 121357813
L160660249 121435706
L160348676 121435706
L160192889 121357813
L160037102 121202026
L159959209 120890453
L159959209 120345200
L160037102 120033626
L160192889 119877840
L160348676 119799946
" />
<path d="M161750756 121435706
L161750756 119799946
L162685476 121435706
L162685476 119799946
" />
<path d="M164632809 121357813
L164866489 121435706
L165255956 121435706
L165411742 121357813
L165489636 121279920
L165567529 121124133
L165567529 120968346
L165489636 120812560
L165411742 120734666
L165255956 120656773
L164944382 120578880
L164788596 120500986
L164710702 120423093
L164632809 120267306
L164632809 120111520
L164710702 119955733
L164788596 119877840
L164944382 119799946
L165333849 119799946
L165567529 119877840
" />
<path d="M166268569 121435706
L166268569 119799946
" />
<path d="M166268569 120578880
L167203289 120578880
" />
<path d="M167203289 121435706
L167203289 119799946
" />
<path d="M167904329 120968346
L168683262 120968346
" />
<path d="M167748542 121435706
L168293796 119799946
L168839049 121435706
" />
<path d="M170319022 121435706
L169773769 120656773
" />
<path d="M169384302 121435706
L169384302 119799946
L170007449 119799946
L170163236 119877840
L170241129 119955733
L170319022 120111520
L170319022 120345200
L170241129 120500986
L170163236 120578880
L170007449 120656773
L169384302 120656773
" />
<path d="M171020062 120578880
L171565316 120578880
" />
<path d="M171798996 121435706
L171020062 121435706
L171020062 119799946
L171798996 119799946
" />
<path d="M172500036 120812560
L173746329 120812560
" />
<path d="M174447369 120968346
L175226302 120968346
" />
<path d="M174291582 121435706
L174836836 119799946
L175382089 121435706
" />
<path d="M176706276 121435706
L175927342 121435706
L175927342 119799946
" />
<path d="M177251529 121435706
L177251529 119799946
" />
<path d="M178030462 121435706
L178030462 119799946
" />
<path d="M178965182 121435706
L178264142 120500986
" />
<path d="M178965182 119799946
L178030462 120734666
" />
<path d="M179666222 120578880
L180211476 120578880
" />
<path d="M180445156 121435706
L179666222 121435706
L179666222 119799946
L180445156 119799946
" />
<path d="M183093529 120345200
L183093529 121435706
" />
<path d="M182704062 119722053
L182314596 120890453
L183327209 120890453
" />
<path d="M183950356 121279920
L184028249 121357813
L183950356 121435706
L183872462 121357813
L183950356 121279920
L183950356 121435706
" />
<path d="M185040862 119799946
L185196649 119799946
L185352436 119877840
L185430329 119955733
L185508222 120111520
L185586116 120423093
L185586116 120812560
L185508222 121124133
L185430329 121279920
L185352436 121357813
L185196649 121435706
L185040862 121435706
L184885076 121357813
L184807182 121279920
L184729289 121124133
L184651396 120812560
L184651396 120423093
L184729289 120111520
L184807182 119955733
L184885076 119877840
L185040862 119799946
" />
<path d="M188312382 121435706
L187533449 121435706
L187533449 119799946
" />
<path d="M188857636 121435706
L188857636 119799946
" />
<path d="M190571289 121279920
L190493396 121357813
L190259716 121435706
L190103929 121435706
L189870249 121357813
L189714462 121202026
L189636569 121046240
L189558676 120734666
L189558676 120500986
L189636569 120189413
L189714462 120033626
L189870249 119877840
L190103929 119799946
L190259716 119799946
L190493396 119877840
L190571289 119955733
" />
<path d="M191272329 120578880
L191817582 120578880
" />
<path d="M192051262 121435706
L191272329 121435706
L191272329 119799946
L192051262 119799946
" />
<path d="M192752302 121435706
L192752302 119799946
L193687022 121435706
L193687022 119799946
" />
<path d="M194388062 121357813
L194621742 121435706
L195011209 121435706
L195166996 121357813
L195244889 121279920
L195322782 121124133
L195322782 120968346
L195244889 120812560
L195166996 120734666
L195011209 120656773
L194699636 120578880
L194543849 120500986
L194465956 120423093
L194388062 120267306
L194388062 120111520
L194465956 119955733
L194543849 119877840
L194699636 119799946
L195089102 119799946
L195322782 119877840
" />
<path d="M196023822 120578880
L196569076 120578880
" />
<path d="M196802756 121435706
L196023822 121435706
L196023822 119799946
L196802756 119799946
" />
</g><text x="125641100.000000" y="126593600.000000"
textLength="17165659.000000" font-size="2181013.000000" lengthAdjust="spacingAndGlyphs"
text-anchor="start" opacity="0">DESIGNED BY:</text>
<g class="stroked-text"><desc>DESIGNED BY:</desc>
<path d="M126123022 126515706
L126123022 124879946
L126512489 124879946
L126746169 124957840
L126901956 125113626
L126979849 125269413
L127057742 125580986
L127057742 125814666
L126979849 126126240
L126901956 126282026
L126746169 126437813
L126512489 126515706
L126123022 126515706
" />
<path d="M127758782 125658880
L128304036 125658880
" />
<path d="M128537716 126515706
L127758782 126515706
L127758782 124879946
L128537716 124879946
" />
<path d="M129160862 126437813
L129394542 126515706
L129784009 126515706
L129939796 126437813
L130017689 126359920
L130095582 126204133
L130095582 126048346
L130017689 125892560
L129939796 125814666
L129784009 125736773
L129472436 125658880
L129316649 125580986
L129238756 125503093
L129160862 125347306
L129160862 125191520
L129238756 125035733
L129316649 124957840
L129472436 124879946
L129861902 124879946
L130095582 124957840
" />
<path d="M130796622 126515706
L130796622 124879946
" />
<path d="M132432382 124957840
L132276596 124879946
L132042916 124879946
L131809236 124957840
L131653449 125113626
L131575556 125269413
L131497662 125580986
L131497662 125814666
L131575556 126126240
L131653449 126282026
L131809236 126437813
L132042916 126515706
L132198702 126515706
L132432382 126437813
L132510276 126359920
L132510276 125814666
L132198702 125814666
" />
<path d="M133211316 126515706
L133211316 124879946
L134146036 126515706
L134146036 124879946
" />
<path d="M134924969 125658880
L135470222 125658880
" />
<path d="M135703902 126515706
L134924969 126515706
L134924969 124879946
L135703902 124879946
" />
<path d="M136404942 126515706
L136404942 124879946
L136794409 124879946
L137028089 124957840
L137183876 125113626
L137261769 125269413
L137339662 125580986
L137339662 125814666
L137261769 126126240
L137183876 126282026
L137028089 126437813
L136794409 126515706
L136404942 126515706
" />
<path d="M139832249 125658880
L140065929 125736773
L140143822 125814666
L140221716 125970453
L140221716 126204133
L140143822 126359920
L140065929 126437813
L139910142 126515706
L139286996 126515706
L139286996 124879946
L139832249 124879946
L139988036 124957840
L140065929 125035733
L140143822 125191520
L140143822 125347306
L140065929 125503093
L139988036 125580986
L139832249 125658880
L139286996 125658880
" />
<path d="M141234329 125736773
L141234329 126515706
" />
<path d="M140689076 124879946
L141234329 125736773
L141779582 124879946
" />
<path d="M142324836 126359920
L142402729 126437813
L142324836 126515706
L142246942 126437813
L142324836 126359920
L142324836 126515706
" />
<path d="M142324836 125503093
L142402729 125580986
L142324836 125658880
L142246942 125580986
L142324836 125503093
L142324836 125658880
" />
</g></g>
<g style="fill:#AFAFAF; fill-opacity:0.0; 
stroke:#AFAFAF; stroke-width:101600.000000; stroke-opacity:1; 
stroke-linecap:round; stroke-linejoin:round;">
<text x="131991100.000000" y="118338600.000000"
textLength="8252436.000000" font-size="1557866.000000" lengthAdjust="spacingAndGlyphs"
text-anchor="start" opacity="0">M13LOCK</text>
<g class="stroked-text"><desc>M13LOCK</desc>
<path d="M132335330 118282961
L132335330 117114561
L132724797 117949133
L133114263 117114561
L133114263 118282961
" />
<path d="M134282663 118282961
L133615006 118282961
" />
<path d="M133948835 118282961
L133948835 117114561
L133837559 117281476
L133726282 117392752
L133615006 117448390
" />
<path d="M134672130 117114561
L135395425 117114561
L135005959 117559666
L135172873 117559666
L135284149 117615304
L135339787 117670942
L135395425 117782219
L135395425 118060409
L135339787 118171685
L135284149 118227323
L135172873 118282961
L134839044 118282961
L134727768 118227323
L134672130 118171685
" />
<path d="M136452549 118282961
L135896168 118282961
L135896168 117114561
" />
<path d="M137064568 117114561
L137287120 117114561
L137398397 117170200
L137509673 117281476
L137565311 117504028
L137565311 117893495
L137509673 118116047
L137398397 118227323
L137287120 118282961
L137064568 118282961
L136953292 118227323
L136842016 118116047
L136786378 117893495
L136786378 117504028
L136842016 117281476
L136953292 117170200
L137064568 117114561
" />
<path d="M138733711 118171685
L138678073 118227323
L138511159 118282961
L138399882 118282961
L138232968 118227323
L138121692 118116047
L138066054 118004771
L138010416 117782219
L138010416 117615304
L138066054 117392752
L138121692 117281476
L138232968 117170200
L138399882 117114561
L138511159 117114561
L138678073 117170200
L138733711 117225838
" />
<path d="M139234454 118282961
L139234454 117114561
" />
<path d="M139902111 118282961
L139401368 117615304
" />
<path d="M139902111 117114561
L139234454 117782219
" />
</g></g>
<g style="fill:#AFAFAF; fill-opacity:0.0; 
stroke:#AFAFAF; stroke-width:203200.000000; stroke-opacity:1; 
stroke-linecap:round; stroke-linejoin:round;">
<path d="M156121100 96588600
L156121100 88388600
" />
<path d="M156121100 88388600
L140881100 88388600
" />
<path d="M140881100 88388600
L140881100 96588600
" />
</g>
<g style="fill:#AFAFAF; fill-opacity:1.0; 
stroke:#AFAFAF; stroke-width:1.000000; stroke-opacity:1; 
stroke-linecap:round; stroke-linejoin:round;">
<path style="fill:#AFAFAF; fill-opacity:1.0; 
stroke:#AFAFAF; stroke-width:1.000000; stroke-opacity:1; 
stroke-linecap:round; stroke-linejoin:round;fill-rule:evenodd;"
d="M 136055100.000000,115417600.000000
135547100.000000,115417600.000000
135547100.000000,114909600.000000
136055100.000000,114909600.000000
Z" /> 
<path style="fill:#AFAFAF; fill-opacity:1.0; 
stroke:#AFAFAF; stroke-width:1.000000; stroke-opacity:1; 
stroke-linecap:round; stroke-linejoin:round;fill-rule:evenodd;"
d="M 161455100.000000,115417600.000000
160947100.000000,115417600.000000
160947100.000000,114909600.000000
161455100.000000,114909600.000000
Z" /> 
<path style="fill:#AFAFAF; fill-opacity:1.0; 
stroke:#AFAFAF; stroke-width:1.000000; stroke-opacity:1; 
stroke-linecap:round; stroke-linejoin:round;fill-rule:evenodd;"
d="M 133515100.000000,115417600.000000
133007100.000000,115417600.000000
133007100.000000,114909600.000000
133515100.000000,114909600.000000
Z" /> 
<path style="fill:#AFAFAF; fill-opacity:1.0; 
stroke:#AFAFAF; stroke-width:1.000000; stroke-opacity:1; 
stroke-linecap:round; stroke-linejoin:round;fill-rule:evenodd;"
d="M 158915100.000000,115417600.000000
158407100.000000,115417600.000000
158407100.000000,114909600.000000
158915100.000000,114909600.000000
Z" /> 
<path style="fill:#AFAFAF; fill-opacity:1.0; 
stroke:#AFAFAF; stroke-width:1.000000; stroke-opacity:1; 
stroke-linecap:round; stroke-linejoin:round;fill-rule:evenodd;"
d="M 143675100.000000,115417600.000000
143167100.000000,115417600.000000
143167100.000000,114909600.000000
143675100.000000,114909600.000000
Z" /> 
<path style="fill:#AFAFAF; fill-opacity:1.0; 
stroke:#AFAFAF; stroke-width:1.000000; stroke-opacity:1; 
stroke-linecap:round; stroke-linejoin:round;fill-rule:evenodd;"
d="M 146215100.000000,115417600.000000
145707100.000000,115417600.000000
145707100.000000,114909600.000000
146215100.000000,114909600.000000
Z" /> 
<path style="fill:#AFAFAF; fill-opacity:1.0; 
stroke:#AFAFAF; stroke-width:1.000000; stroke-opacity:1; 
stroke-linecap:round; stroke-linejoin:round;fill-rule:evenodd;"
d="M 153835100.000000,115417600.000000
153327100.000000,115417600.000000
153327100.000000,114909600.000000
153835100.000000,114909600.000000
Z" /> 
<path style="fill:#AFAFAF; fill-opacity:1.0; 
stroke:#AFAFAF; stroke-width:1.000000; stroke-opacity:1; 
stroke-linecap:round; stroke-linejoin:round;fill-rule:evenodd;"
d="M 151295100.000000,115417600.000000
150787100.000000,115417600.000000
150787100.000000,114909600.000000
151295100.000000,114909600.000000
Z" /> 
<path style="fill:#AFAFAF; fill-opacity:1.0; 
stroke:#AFAFAF; stroke-width:1.000000; stroke-opacity:1; 
stroke-linecap:round; stroke-linejoin:round;fill-rule:evenodd;"
d="M 141135100.000000,115417600.000000
140627100.000000,115417600.000000
140627100.000000,114909600.000000
141135100.000000,114909600.000000
Z" /> 
<path style="fill:#AFAFAF; fill-opacity:1.0; 
stroke:#AFAFAF; stroke-width:1.000000; stroke-opacity:1; 
stroke-linecap:round; stroke-linejoin:round;fill-rule:evenodd;"
d="M 156375100.000000,115417600.000000
155867100.000000,115417600.000000
155867100.000000,114909600.000000
156375100.000000,114909600.000000
Z" /> 
<path style="fill:#AFAFAF; fill-opacity:1.0; 
stroke:#AFAFAF; stroke-width:1.000000; stroke-opacity:1; 
stroke-linecap:round; stroke-linejoin:round;fill-rule:evenodd;"
d="M 163995100.000000,115417600.000000
163487100.000000,115417600.000000
163487100.000000,114909600.000000
163995100.000000,114909600.000000
Z" /> 
<path style="fill:#AFAFAF; fill-opacity:1.0; 
stroke:#AFAFAF; stroke-width:1.000000; stroke-opacity:1; 
stroke-linecap:round; stroke-linejoin:round;fill-rule:evenodd;"
d="M 138595100.000000,115417600.000000
138087100.000000,115417600.000000
138087100.000000,114909600.000000
138595100.000000,114909600.000000
Z" /> 
<path style="fill:#AFAFAF; fill-opacity:1.0; 
stroke:#AFAFAF; stroke-width:1.000000; stroke-opacity:1; 
stroke-linecap:round; stroke-linejoin:round;fill-rule:evenodd;"
d="M 148755100.000000,115417600.000000
148247100.000000,115417600.000000
148247100.000000,114909600.000000
148755100.000000,114909600.000000
Z" /> 
<g >
</g>
<g >
</g>
<g >
</g>
<g >
</g>
<g >
</g>
<g >
</g>
<g >
</g>
<g >
</g>
<g >
</g>
<g >
</g>
<g >
</g>
<g >
</g>
<g >
</g>
</g>
<g style="fill:#000000; fill-opacity:1.0; 
stroke:#000000; stroke-width:1.000000; stroke-opacity:1; 
stroke-linecap:round; stroke-linejoin:round;">
</g>
<g style="fill:#D0D2CD; fill-opacity:1.0; 
stroke:#D0D2CD; stroke-width:1.000000; stroke-opacity:1; 
stroke-linecap:round; stroke-linejoin:round;">
</g>
<g style="fill:#D0D2CD; fill-opacity:1.0; 
stroke:#D0D2CD; stroke-width:203200.000000; stroke-opacity:1; 
stroke-linecap:round; stroke-linejoin:round;">
</g>
<g style="fill:#D0D2CD; fill-opacity:0.0; 
stroke:#D0D2CD; stroke-width:203200.000000; stroke-opacity:1; 
stroke-linecap:round; stroke-linejoin:round;">
<path d="M165011100 116433600
L131991100 116433600
" />
<path d="M131991100 93573600
L165011100 93573600
" />
<path d="M131991100 116433600
L131991100 93573600
" />
<path d="M165011100 93573600
L165011100 116433600
" />
<g >
</g>
<g >
</g>
<g >
</g>
<g >
</g>
<g >
</g>
<g >
</g>
<g >
</g>
<g >
</g>
<g >
</g>
<g >
</g>
<g >
</g>
<g >
</g>
<g >
</g>
</g> 
</svg>
