<!DOCTYPE svg PUBLIC "-//W3C//DTD SVG 1.1//EN" "http://www.w3.org/Graphics/SVG/1.1/DTD/svg11.dtd">
<svg xmlns="http://www.w3.org/2000/svg" version="1.1" width="15.20437mm" height="31.84046mm" viewBox="-15635547.0 9003360.0 1520437.0 3184046.0">
            <title>Picture generated by PcbDraw </title>
            <desc>Picture generated by PcbDraw</desc>
        <defs><clipPath id="cut-off"><path d=" M 14215110.0 11897360.0 L 15485110.0 11897360.0 L 15485110.0 9103360.0 L 14215110.0 9103360.0 L 14215110.0 11897360.0 " style="fill-rule: evenodd;"/></clipPath><mask id="pads-mask"><g style="fill:#ffffff; fill-opacity:0.0;  stroke:#ffffff; stroke-width:0.000000; stroke-opacity:1;  stroke-linecap:round; stroke-linejoin:round;">
<g style="fill:#ffffff; fill-opacity:1.0;  stroke:#ffffff; stroke-width:0.100000; stroke-opacity:1;  stroke-linecap:round; stroke-linejoin:round;">
<circle cx="14850110.000000" cy="11643360.000000" r="165100.000000"/> 
</g>
<g style="fill:#ffffff; fill-opacity:1.0;  stroke:#ffffff; stroke-width:0.100000; stroke-opacity:1;  stroke-linecap:round; stroke-linejoin:round;">
<circle cx="14850110.000000" cy="9357360.000000" r="165100.000000"/> 
</g>
<g style="fill:#ffffff; fill-opacity:1.0;  stroke:#ffffff; stroke-width:0.100000; stroke-opacity:1;  stroke-linecap:round; stroke-linejoin:round;">
<circle cx="14342110.000000" cy="11262360.000000" r="104140.000000"/> 
</g>
<g style="fill:#ffffff; fill-opacity:1.0;  stroke:#ffffff; stroke-width:0.100000; stroke-opacity:1;  stroke-linecap:round; stroke-linejoin:round;">
<circle cx="14342110.000000" cy="11008360.000000" r="104140.000000"/> 
</g>
<g style="fill:#ffffff; fill-opacity:1.0;  stroke:#ffffff; stroke-width:0.100000; stroke-opacity:1;  stroke-linecap:round; stroke-linejoin:round;">
<circle cx="14342110.000000" cy="10754360.000000" r="104140.000000"/> 
</g>
<g style="fill:#ffffff; fill-opacity:1.0;  stroke:#ffffff; stroke-width:0.100000; stroke-opacity:1;  stroke-linecap:round; stroke-linejoin:round;">
<circle cx="14342110.000000" cy="10500360.000000" r="104140.000000"/> 
</g>
<g style="fill:#ffffff; fill-opacity:1.0;  stroke:#ffffff; stroke-width:0.100000; stroke-opacity:1;  stroke-linecap:round; stroke-linejoin:round;">
<circle cx="14342110.000000" cy="10246360.000000" r="104140.000000"/> 
</g>
<g style="fill:#ffffff; fill-opacity:1.0;  stroke:#ffffff; stroke-width:0.100000; stroke-opacity:1;  stroke-linecap:round; stroke-linejoin:round;">
<circle cx="14342110.000000" cy="9992360.000000" r="104140.000000"/> 
</g>
<g style="fill:#ffffff; fill-opacity:1.0;  stroke:#ffffff; stroke-width:0.100000; stroke-opacity:1;  stroke-linecap:round; stroke-linejoin:round;">
<circle cx="14342110.000000" cy="9738360.000000" r="104140.000000"/> 
</g>
<g style="fill:#ffffff; fill-opacity:1.0;  stroke:#ffffff; stroke-width:0.100000; stroke-opacity:1;  stroke-linecap:round; stroke-linejoin:round;">
<circle cx="14342110.000000" cy="9484360.000000" r="104140.000000"/> 
</g>
<g style="fill:#ffffff; fill-opacity:1.0;  stroke:#ffffff; stroke-width:0.100000; stroke-opacity:1;  stroke-linecap:round; stroke-linejoin:round;">
<circle cx="15358110.000000" cy="11770360.000000" r="104140.000000"/> 
</g>
<g style="fill:#ffffff; fill-opacity:1.0;  stroke:#ffffff; stroke-width:0.100000; stroke-opacity:1;  stroke-linecap:round; stroke-linejoin:round;">
<circle cx="15358110.000000" cy="11516360.000000" r="104140.000000"/> 
</g>
<g style="fill:#ffffff; fill-opacity:1.0;  stroke:#ffffff; stroke-width:0.100000; stroke-opacity:1;  stroke-linecap:round; stroke-linejoin:round;">
<circle cx="15358110.000000" cy="11262360.000000" r="104140.000000"/> 
</g>
<g style="fill:#ffffff; fill-opacity:1.0;  stroke:#ffffff; stroke-width:0.100000; stroke-opacity:1;  stroke-linecap:round; stroke-linejoin:round;">
<circle cx="15358110.000000" cy="11008360.000000" r="104140.000000"/> 
</g>
<g style="fill:#ffffff; fill-opacity:1.0;  stroke:#ffffff; stroke-width:0.100000; stroke-opacity:1;  stroke-linecap:round; stroke-linejoin:round;">
<circle cx="15358110.000000" cy="10754360.000000" r="104140.000000"/> 
</g>
<g style="fill:#ffffff; fill-opacity:1.0;  stroke:#ffffff; stroke-width:0.100000; stroke-opacity:1;  stroke-linecap:round; stroke-linejoin:round;">
<circle cx="15358110.000000" cy="10500360.000000" r="104140.000000"/> 
</g>
<g style="fill:#ffffff; fill-opacity:1.0;  stroke:#ffffff; stroke-width:0.100000; stroke-opacity:1;  stroke-linecap:round; stroke-linejoin:round;">
<circle cx="15358110.000000" cy="10246360.000000" r="104140.000000"/> 
</g>
<g style="fill:#ffffff; fill-opacity:1.0;  stroke:#ffffff; stroke-width:0.100000; stroke-opacity:1;  stroke-linecap:round; stroke-linejoin:round;">
<circle cx="15358110.000000" cy="9992360.000000" r="104140.000000"/> 
</g>
<g style="fill:#ffffff; fill-opacity:1.0;  stroke:#ffffff; stroke-width:0.100000; stroke-opacity:1;  stroke-linecap:round; stroke-linejoin:round;">
<circle cx="15358110.000000" cy="9738360.000000" r="104140.000000"/> 
</g>
<g style="fill:#ffffff; fill-opacity:1.0;  stroke:#ffffff; stroke-width:0.100000; stroke-opacity:1;  stroke-linecap:round; stroke-linejoin:round;">
<circle cx="15358110.000000" cy="9484360.000000" r="104140.000000"/> 
</g>
<g style="fill:#ffffff; fill-opacity:1.0;  stroke:#ffffff; stroke-width:0.100000; stroke-opacity:1;  stroke-linecap:round; stroke-linejoin:round;">
<circle cx="15358110.000000" cy="9230360.000000" r="104140.000000"/> 
</g>
</g> 
</mask><mask id="pads-mask-silkscreen"><rect x="10532110.0" y="9071610.0" width="10327301.3" height="5136750.0" fill="white"/><g style="fill:#000000; fill-opacity:0.0;  stroke:#000000; stroke-width:0.000000; stroke-opacity:1;  stroke-linecap:round; stroke-linejoin:round;">
<g style="fill:#000000; fill-opacity:1.0;  stroke:#000000; stroke-width:0.100000; stroke-opacity:1;  stroke-linecap:round; stroke-linejoin:round;">
<circle cx="14850110.000000" cy="11643360.000000" r="165100.000000"/> 
</g>
<g style="fill:#000000; fill-opacity:1.0;  stroke:#000000; stroke-width:0.100000; stroke-opacity:1;  stroke-linecap:round; stroke-linejoin:round;">
<circle cx="14850110.000000" cy="9357360.000000" r="165100.000000"/> 
</g>
<g style="fill:#000000; fill-opacity:1.0;  stroke:#000000; stroke-width:0.100000; stroke-opacity:1;  stroke-linecap:round; stroke-linejoin:round;">
<circle cx="14342110.000000" cy="11262360.000000" r="104140.000000"/> 
</g>
<g style="fill:#000000; fill-opacity:1.0;  stroke:#000000; stroke-width:0.100000; stroke-opacity:1;  stroke-linecap:round; stroke-linejoin:round;">
<circle cx="14342110.000000" cy="11008360.000000" r="104140.000000"/> 
</g>
<g style="fill:#000000; fill-opacity:1.0;  stroke:#000000; stroke-width:0.100000; stroke-opacity:1;  stroke-linecap:round; stroke-linejoin:round;">
<circle cx="14342110.000000" cy="10754360.000000" r="104140.000000"/> 
</g>
<g style="fill:#000000; fill-opacity:1.0;  stroke:#000000; stroke-width:0.100000; stroke-opacity:1;  stroke-linecap:round; stroke-linejoin:round;">
<circle cx="14342110.000000" cy="10500360.000000" r="104140.000000"/> 
</g>
<g style="fill:#000000; fill-opacity:1.0;  stroke:#000000; stroke-width:0.100000; stroke-opacity:1;  stroke-linecap:round; stroke-linejoin:round;">
<circle cx="14342110.000000" cy="10246360.000000" r="104140.000000"/> 
</g>
<g style="fill:#000000; fill-opacity:1.0;  stroke:#000000; stroke-width:0.100000; stroke-opacity:1;  stroke-linecap:round; stroke-linejoin:round;">
<circle cx="14342110.000000" cy="9992360.000000" r="104140.000000"/> 
</g>
<g style="fill:#000000; fill-opacity:1.0;  stroke:#000000; stroke-width:0.100000; stroke-opacity:1;  stroke-linecap:round; stroke-linejoin:round;">
<circle cx="14342110.000000" cy="9738360.000000" r="104140.000000"/> 
</g>
<g style="fill:#000000; fill-opacity:1.0;  stroke:#000000; stroke-width:0.100000; stroke-opacity:1;  stroke-linecap:round; stroke-linejoin:round;">
<circle cx="14342110.000000" cy="9484360.000000" r="104140.000000"/> 
</g>
<g style="fill:#000000; fill-opacity:1.0;  stroke:#000000; stroke-width:0.100000; stroke-opacity:1;  stroke-linecap:round; stroke-linejoin:round;">
<circle cx="15358110.000000" cy="11770360.000000" r="104140.000000"/> 
</g>
<g style="fill:#000000; fill-opacity:1.0;  stroke:#000000; stroke-width:0.100000; stroke-opacity:1;  stroke-linecap:round; stroke-linejoin:round;">
<circle cx="15358110.000000" cy="11516360.000000" r="104140.000000"/> 
</g>
<g style="fill:#000000; fill-opacity:1.0;  stroke:#000000; stroke-width:0.100000; stroke-opacity:1;  stroke-linecap:round; stroke-linejoin:round;">
<circle cx="15358110.000000" cy="11262360.000000" r="104140.000000"/> 
</g>
<g style="fill:#000000; fill-opacity:1.0;  stroke:#000000; stroke-width:0.100000; stroke-opacity:1;  stroke-linecap:round; stroke-linejoin:round;">
<circle cx="15358110.000000" cy="11008360.000000" r="104140.000000"/> 
</g>
<g style="fill:#000000; fill-opacity:1.0;  stroke:#000000; stroke-width:0.100000; stroke-opacity:1;  stroke-linecap:round; stroke-linejoin:round;">
<circle cx="15358110.000000" cy="10754360.000000" r="104140.000000"/> 
</g>
<g style="fill:#000000; fill-opacity:1.0;  stroke:#000000; stroke-width:0.100000; stroke-opacity:1;  stroke-linecap:round; stroke-linejoin:round;">
<circle cx="15358110.000000" cy="10500360.000000" r="104140.000000"/> 
</g>
<g style="fill:#000000; fill-opacity:1.0;  stroke:#000000; stroke-width:0.100000; stroke-opacity:1;  stroke-linecap:round; stroke-linejoin:round;">
<circle cx="15358110.000000" cy="10246360.000000" r="104140.000000"/> 
</g>
<g style="fill:#000000; fill-opacity:1.0;  stroke:#000000; stroke-width:0.100000; stroke-opacity:1;  stroke-linecap:round; stroke-linejoin:round;">
<circle cx="15358110.000000" cy="9992360.000000" r="104140.000000"/> 
</g>
<g style="fill:#000000; fill-opacity:1.0;  stroke:#000000; stroke-width:0.100000; stroke-opacity:1;  stroke-linecap:round; stroke-linejoin:round;">
<circle cx="15358110.000000" cy="9738360.000000" r="104140.000000"/> 
</g>
<g style="fill:#000000; fill-opacity:1.0;  stroke:#000000; stroke-width:0.100000; stroke-opacity:1;  stroke-linecap:round; stroke-linejoin:round;">
<circle cx="15358110.000000" cy="9484360.000000" r="104140.000000"/> 
</g>
<g style="fill:#000000; fill-opacity:1.0;  stroke:#000000; stroke-width:0.100000; stroke-opacity:1;  stroke-linecap:round; stroke-linejoin:round;">
<circle cx="15358110.000000" cy="9230360.000000" r="104140.000000"/> 
</g>
</g> 
</mask><mask id="hole-mask"><g><rect x="10532110.0" y="9071610.0" fill="white" width="10327301.3" height="5136750.0"/><polyline stroke-linecap="round" stroke="black" stroke-width="330200.0" points="-0.0 0 0.0 0" transform="translate(14850110.0 11643360.0) rotate(-0.0)"/><polyline stroke-linecap="round" stroke="black" stroke-width="330200.0" points="-0.0 0 0.0 0" transform="translate(14850110.0 9357360.0) rotate(-0.0)"/><polyline stroke-linecap="round" stroke="black" stroke-width="101600.0" points="-0.0 0 0.0 0" transform="translate(14342110.0 11262360.0) rotate(-0.0)"/><polyline stroke-linecap="round" stroke="black" stroke-width="101600.0" points="-0.0 0 0.0 0" transform="translate(14342110.0 11008360.0) rotate(-0.0)"/><polyline stroke-linecap="round" stroke="black" stroke-width="101600.0" points="-0.0 0 0.0 0" transform="translate(14342110.0 10754360.0) rotate(-0.0)"/><polyline stroke-linecap="round" stroke="black" stroke-width="101600.0" points="-0.0 0 0.0 0" transform="translate(14342110.0 10500360.0) rotate(-0.0)"/><polyline stroke-linecap="round" stroke="black" stroke-width="101600.0" points="-0.0 0 0.0 0" transform="translate(14342110.0 10246360.0) rotate(-0.0)"/><polyline stroke-linecap="round" stroke="black" stroke-width="101600.0" points="-0.0 0 0.0 0" transform="translate(14342110.0 9992360.0) rotate(-0.0)"/><polyline stroke-linecap="round" stroke="black" stroke-width="101600.0" points="-0.0 0 0.0 0" transform="translate(14342110.0 9738360.0) rotate(-0.0)"/><polyline stroke-linecap="round" stroke="black" stroke-width="101600.0" points="-0.0 0 0.0 0" transform="translate(14342110.0 9484360.0) rotate(-0.0)"/><polyline stroke-linecap="round" stroke="black" stroke-width="101600.0" points="-0.0 0 0.0 0" transform="translate(15358110.0 11770360.0) rotate(-0.0)"/><polyline stroke-linecap="round" stroke="black" stroke-width="101600.0" points="-0.0 0 0.0 0" transform="translate(15358110.0 11516360.0) rotate(-0.0)"/><polyline stroke-linecap="round" stroke="black" stroke-width="101600.0" points="-0.0 0 0.0 0" transform="translate(15358110.0 11262360.0) rotate(-0.0)"/><polyline stroke-linecap="round" stroke="black" stroke-width="101600.0" points="-0.0 0 0.0 0" transform="translate(15358110.0 11008360.0) rotate(-0.0)"/><polyline stroke-linecap="round" stroke="black" stroke-width="101600.0" points="-0.0 0 0.0 0" transform="translate(15358110.0 10754360.0) rotate(-0.0)"/><polyline stroke-linecap="round" stroke="black" stroke-width="101600.0" points="-0.0 0 0.0 0" transform="translate(15358110.0 10500360.0) rotate(-0.0)"/><polyline stroke-linecap="round" stroke="black" stroke-width="101600.0" points="-0.0 0 0.0 0" transform="translate(15358110.0 10246360.0) rotate(-0.0)"/><polyline stroke-linecap="round" stroke="black" stroke-width="101600.0" points="-0.0 0 0.0 0" transform="translate(15358110.0 9992360.0) rotate(-0.0)"/><polyline stroke-linecap="round" stroke="black" stroke-width="101600.0" points="-0.0 0 0.0 0" transform="translate(15358110.0 9738360.0) rotate(-0.0)"/><polyline stroke-linecap="round" stroke="black" stroke-width="101600.0" points="-0.0 0 0.0 0" transform="translate(15358110.0 9484360.0) rotate(-0.0)"/><polyline stroke-linecap="round" stroke="black" stroke-width="101600.0" points="-0.0 0 0.0 0" transform="translate(15358110.0 9230360.0) rotate(-0.0)"/><polyline stroke-linecap="round" stroke="black" stroke-width="38100.0" points="-0.0 0 0.0 0" transform="translate(15078710.0 9738360.0) rotate(0.0)"/><polyline stroke-linecap="round" stroke="black" stroke-width="38100.0" points="-0.0 0 0.0 0" transform="translate(15109190.0 10104120.0) rotate(0.0)"/><polyline stroke-linecap="round" stroke="black" stroke-width="38100.0" points="-0.0 0 0.0 0" transform="translate(15165070.0 10668000.0) rotate(0.0)"/><polyline stroke-linecap="round" stroke="black" stroke-width="38100.0" points="-0.0 0 0.0 0" transform="translate(14677390.0 11244580.0) rotate(0.0)"/><polyline stroke-linecap="round" stroke="black" stroke-width="38100.0" points="-0.0 0 0.0 0" transform="translate(14809470.0 10787380.0) rotate(0.0)"/><polyline stroke-linecap="round" stroke="black" stroke-width="38100.0" points="-0.0 0 0.0 0" transform="translate(15132050.0 10914380.0) rotate(0.0)"/><polyline stroke-linecap="round" stroke="black" stroke-width="38100.0" points="-0.0 0 0.0 0" transform="translate(14591030.0 10060940.0) rotate(0.0)"/><polyline stroke-linecap="round" stroke="black" stroke-width="38100.0" points="-0.0 0 0.0 0" transform="translate(14569440.0 10201910.0) rotate(0.0)"/><polyline stroke-linecap="round" stroke="black" stroke-width="38100.0" points="-0.0 0 0.0 0" transform="translate(14547850.0 10347960.0) rotate(0.0)"/><polyline stroke-linecap="round" stroke="black" stroke-width="38100.0" points="-0.0 0 0.0 0" transform="translate(14659610.0 10246360.0) rotate(0.0)"/><polyline stroke-linecap="round" stroke="black" stroke-width="38100.0" points="-0.0 0 0.0 0" transform="translate(14573250.0 10482580.0) rotate(0.0)"/><polyline stroke-linecap="round" stroke="black" stroke-width="38100.0" points="-0.0 0 0.0 0" transform="translate(14761210.0 10246360.0) rotate(0.0)"/><polyline stroke-linecap="round" stroke="black" stroke-width="38100.0" points="-0.0 0 0.0 0" transform="translate(15121890.0 10406380.0) rotate(0.0)"/><polyline stroke-linecap="round" stroke="black" stroke-width="38100.0" points="-0.0 0 0.0 0" transform="translate(15129910.0 10500760.0) rotate(0.0)"/><polyline stroke-linecap="round" stroke="black" stroke-width="38100.0" points="-0.0 0 0.0 0" transform="translate(14537690.0 10652760.0) rotate(0.0)"/><polyline stroke-linecap="round" stroke="black" stroke-width="38100.0" points="-0.0 0 0.0 0" transform="translate(14585950.0 10972800.0) rotate(0.0)"/><polyline stroke-linecap="round" stroke="black" stroke-width="38100.0" points="-0.0 0 0.0 0" transform="translate(15025370.0 10739120.0) rotate(0.0)"/><polyline stroke-linecap="round" stroke="black" stroke-width="38100.0" points="-0.0 0 0.0 0" transform="translate(14908530.0 10820400.0) rotate(0.0)"/></g></mask></defs><g transform="scale(-1,1)" id="boardContainer"><g id="substrate" clip-path="url(#cut-off)" mask="url(#hole-mask)"><g id="substrate-board" style="fill:#4ca06c; stroke:#4ca06c;"><path d=" M 14215110.0 11897360.0 L 15485110.0 11897360.0 L 15485110.0 9103360.0 L 14215110.0 9103360.0 L 14215110.0 11897360.0 " style="fill-rule: evenodd;"/><g style="fill-opacity: 0.0;stroke-width: 20320.000000;stroke-opacity: 1;stroke-linecap: round;stroke-linejoin: round">
<path d="M14215110 9103360 L14215110 11897360 "/>
<path d="M15485110 11897360 L15485110 9103360 "/>
<path d="M15485110 9103360 L14215110 9103360 "/>
<path d="M14215110 11897360 L15485110 11897360 "/>
</g> 
</g><g id="substrate-clad" style="fill:#9c6b28; stroke:#9c6b28;"><g style="fill-opacity: 0.0;stroke-width: 0.000000;stroke-opacity: 1;stroke-linecap: round;stroke-linejoin: round">
<g style="fill-opacity: 1.0;stroke-width: 0.100000;stroke-opacity: 1;stroke-linecap: round;stroke-linejoin: round">
<circle cx="14850110.000000" cy="11643360.000000" r="165100.000000"/> 
</g>
<g style="fill-opacity: 1.0;stroke-width: 0.100000;stroke-opacity: 1;stroke-linecap: round;stroke-linejoin: round">
<circle cx="14850110.000000" cy="9357360.000000" r="165100.000000"/> 
</g>
<g style="fill-opacity: 1.0;stroke-width: 0.100000;stroke-opacity: 1;stroke-linecap: round;stroke-linejoin: round">
<circle cx="14342110.000000" cy="11262360.000000" r="104140.000000"/> 
</g>
<g style="fill-opacity: 1.0;stroke-width: 0.100000;stroke-opacity: 1;stroke-linecap: round;stroke-linejoin: round">
<circle cx="14342110.000000" cy="11008360.000000" r="104140.000000"/> 
</g>
<g style="fill-opacity: 1.0;stroke-width: 0.100000;stroke-opacity: 1;stroke-linecap: round;stroke-linejoin: round">
<circle cx="14342110.000000" cy="10754360.000000" r="104140.000000"/> 
</g>
<g style="fill-opacity: 1.0;stroke-width: 0.100000;stroke-opacity: 1;stroke-linecap: round;stroke-linejoin: round">
<circle cx="14342110.000000" cy="10500360.000000" r="104140.000000"/> 
</g>
<g style="fill-opacity: 1.0;stroke-width: 0.100000;stroke-opacity: 1;stroke-linecap: round;stroke-linejoin: round">
<circle cx="14342110.000000" cy="10246360.000000" r="104140.000000"/> 
</g>
<g style="fill-opacity: 1.0;stroke-width: 0.100000;stroke-opacity: 1;stroke-linecap: round;stroke-linejoin: round">
<circle cx="14342110.000000" cy="9992360.000000" r="104140.000000"/> 
</g>
<g style="fill-opacity: 1.0;stroke-width: 0.100000;stroke-opacity: 1;stroke-linecap: round;stroke-linejoin: round">
<circle cx="14342110.000000" cy="9738360.000000" r="104140.000000"/> 
</g>
<g style="fill-opacity: 1.0;stroke-width: 0.100000;stroke-opacity: 1;stroke-linecap: round;stroke-linejoin: round">
<circle cx="14342110.000000" cy="9484360.000000" r="104140.000000"/> 
</g>
<g style="fill-opacity: 1.0;stroke-width: 0.100000;stroke-opacity: 1;stroke-linecap: round;stroke-linejoin: round">
<circle cx="15358110.000000" cy="11770360.000000" r="104140.000000"/> 
</g>
<g style="fill-opacity: 1.0;stroke-width: 0.100000;stroke-opacity: 1;stroke-linecap: round;stroke-linejoin: round">
<circle cx="15358110.000000" cy="11516360.000000" r="104140.000000"/> 
</g>
<g style="fill-opacity: 1.0;stroke-width: 0.100000;stroke-opacity: 1;stroke-linecap: round;stroke-linejoin: round">
<circle cx="15358110.000000" cy="11262360.000000" r="104140.000000"/> 
</g>
<g style="fill-opacity: 1.0;stroke-width: 0.100000;stroke-opacity: 1;stroke-linecap: round;stroke-linejoin: round">
<circle cx="15358110.000000" cy="11008360.000000" r="104140.000000"/> 
</g>
<g style="fill-opacity: 1.0;stroke-width: 0.100000;stroke-opacity: 1;stroke-linecap: round;stroke-linejoin: round">
<circle cx="15358110.000000" cy="10754360.000000" r="104140.000000"/> 
</g>
<g style="fill-opacity: 1.0;stroke-width: 0.100000;stroke-opacity: 1;stroke-linecap: round;stroke-linejoin: round">
<circle cx="15358110.000000" cy="10500360.000000" r="104140.000000"/> 
</g>
<g style="fill-opacity: 1.0;stroke-width: 0.100000;stroke-opacity: 1;stroke-linecap: round;stroke-linejoin: round">
<circle cx="15358110.000000" cy="10246360.000000" r="104140.000000"/> 
</g>
<g style="fill-opacity: 1.0;stroke-width: 0.100000;stroke-opacity: 1;stroke-linecap: round;stroke-linejoin: round">
<circle cx="15358110.000000" cy="9992360.000000" r="104140.000000"/> 
</g>
<g style="fill-opacity: 1.0;stroke-width: 0.100000;stroke-opacity: 1;stroke-linecap: round;stroke-linejoin: round">
<circle cx="15358110.000000" cy="9738360.000000" r="104140.000000"/> 
</g>
<g style="fill-opacity: 1.0;stroke-width: 0.100000;stroke-opacity: 1;stroke-linecap: round;stroke-linejoin: round">
<circle cx="15358110.000000" cy="9484360.000000" r="104140.000000"/> 
</g>
<g style="fill-opacity: 1.0;stroke-width: 0.100000;stroke-opacity: 1;stroke-linecap: round;stroke-linejoin: round">
<circle cx="15358110.000000" cy="9230360.000000" r="104140.000000"/> 
</g>
</g> 
</g><g id="substrate-copper" style="fill:#417e5a; stroke:#417e5a;"><g style="fill-opacity: 0.0;stroke-width: 20320.000000;stroke-opacity: 1;stroke-linecap: round;stroke-linejoin: round">
<text x="14380210.000000" y="11859260.000000" transform="scale(-1 1) translate(-28760420.000000 0)" textLength="216746.600000" font-size="108373.300000" lengthAdjust="spacingAndGlyphs" text-anchor="middle" opacity="0">v10</text>
<g class="stroked-text"><desc>v10</desc>
<path d="M14476971 11801202 L14457619 11855389 L14438267 11801202 "/>
<path d="M14364728 11855389 L14411173 11855389 "/>
<path d="M14387950 11855389 L14387950 11774109 L14395691 11785720 L14403432 11793461 L14411173 11797332 "/>
<path d="M14314411 11774109 L14306670 11774109 L14298930 11777980 L14295059 11781850 L14291189 11789591 L14287318 11805073 L14287318 11824425 L14291189 11839907 L14295059 11847648 L14298930 11851519 L14306670 11855389 L14314411 11855389 L14322152 11851519 L14326023 11847648 L14329893 11839907 L14333764 11824425 L14333764 11805073 L14329893 11789591 L14326023 11781850 L14322152 11777980 L14314411 11774109 "/>
</g><g style="fill-opacity: 1.0;stroke-width: 0.100000;stroke-opacity: 1;stroke-linecap: round;stroke-linejoin: round">
<circle cx="14342110.000000" cy="11262360.000000" r="93980.000000"/> 
</g>
<g style="fill-opacity: 1.0;stroke-width: 0.100000;stroke-opacity: 1;stroke-linecap: round;stroke-linejoin: round">
<circle cx="14342110.000000" cy="11008360.000000" r="93980.000000"/> 
</g>
<g style="fill-opacity: 1.0;stroke-width: 0.100000;stroke-opacity: 1;stroke-linecap: round;stroke-linejoin: round">
<circle cx="14342110.000000" cy="10754360.000000" r="93980.000000"/> 
</g>
<g style="fill-opacity: 1.0;stroke-width: 0.100000;stroke-opacity: 1;stroke-linecap: round;stroke-linejoin: round">
<circle cx="14342110.000000" cy="10500360.000000" r="93980.000000"/> 
</g>
<g style="fill-opacity: 1.0;stroke-width: 0.100000;stroke-opacity: 1;stroke-linecap: round;stroke-linejoin: round">
<circle cx="14342110.000000" cy="10246360.000000" r="93980.000000"/> 
</g>
<g style="fill-opacity: 1.0;stroke-width: 0.100000;stroke-opacity: 1;stroke-linecap: round;stroke-linejoin: round">
<circle cx="14342110.000000" cy="9992360.000000" r="93980.000000"/> 
</g>
<g style="fill-opacity: 1.0;stroke-width: 0.100000;stroke-opacity: 1;stroke-linecap: round;stroke-linejoin: round">
<circle cx="14342110.000000" cy="9738360.000000" r="93980.000000"/> 
</g>
<g style="fill-opacity: 1.0;stroke-width: 0.100000;stroke-opacity: 1;stroke-linecap: round;stroke-linejoin: round">
<circle cx="14342110.000000" cy="9484360.000000" r="93980.000000"/> 
</g>
<g style="fill-opacity: 1.0;stroke-width: 0.100000;stroke-opacity: 1;stroke-linecap: round;stroke-linejoin: round">
<circle cx="15358110.000000" cy="11770360.000000" r="93980.000000"/> 
</g>
<g style="fill-opacity: 1.0;stroke-width: 0.100000;stroke-opacity: 1;stroke-linecap: round;stroke-linejoin: round">
<circle cx="15358110.000000" cy="11516360.000000" r="93980.000000"/> 
</g>
<g style="fill-opacity: 1.0;stroke-width: 0.100000;stroke-opacity: 1;stroke-linecap: round;stroke-linejoin: round">
<circle cx="15358110.000000" cy="11262360.000000" r="93980.000000"/> 
</g>
<g style="fill-opacity: 1.0;stroke-width: 0.100000;stroke-opacity: 1;stroke-linecap: round;stroke-linejoin: round">
<circle cx="15358110.000000" cy="11008360.000000" r="93980.000000"/> 
</g>
<g style="fill-opacity: 1.0;stroke-width: 0.100000;stroke-opacity: 1;stroke-linecap: round;stroke-linejoin: round">
<circle cx="15358110.000000" cy="10754360.000000" r="93980.000000"/> 
</g>
<g style="fill-opacity: 1.0;stroke-width: 0.100000;stroke-opacity: 1;stroke-linecap: round;stroke-linejoin: round">
<circle cx="15358110.000000" cy="10500360.000000" r="93980.000000"/> 
</g>
<g style="fill-opacity: 1.0;stroke-width: 0.100000;stroke-opacity: 1;stroke-linecap: round;stroke-linejoin: round">
<circle cx="15358110.000000" cy="10246360.000000" r="93980.000000"/> 
</g>
<g style="fill-opacity: 1.0;stroke-width: 0.100000;stroke-opacity: 1;stroke-linecap: round;stroke-linejoin: round">
<circle cx="15358110.000000" cy="9992360.000000" r="93980.000000"/> 
</g>
<g style="fill-opacity: 1.0;stroke-width: 0.100000;stroke-opacity: 1;stroke-linecap: round;stroke-linejoin: round">
<circle cx="15358110.000000" cy="9738360.000000" r="93980.000000"/> 
</g>
<g style="fill-opacity: 1.0;stroke-width: 0.100000;stroke-opacity: 1;stroke-linecap: round;stroke-linejoin: round">
<circle cx="15358110.000000" cy="9484360.000000" r="93980.000000"/> 
</g>
<g style="fill-opacity: 1.0;stroke-width: 0.100000;stroke-opacity: 1;stroke-linecap: round;stroke-linejoin: round">
<circle cx="15358110.000000" cy="9230360.000000" r="93980.000000"/> 
</g>
<g style="fill-opacity: 1.0;stroke-width: 0.100000;stroke-opacity: 1;stroke-linecap: round;stroke-linejoin: round">
<circle cx="15078710.000000" cy="9738360.000000" r="36830.000000"/> 
</g>
<g style="fill-opacity: 1.0;stroke-width: 0.100000;stroke-opacity: 1;stroke-linecap: round;stroke-linejoin: round">
<circle cx="15109190.000000" cy="10104120.000000" r="36830.000000"/> 
</g>
<g style="fill-opacity: 1.0;stroke-width: 0.100000;stroke-opacity: 1;stroke-linecap: round;stroke-linejoin: round">
<circle cx="15165070.000000" cy="10668000.000000" r="36830.000000"/> 
</g>
<g style="fill-opacity: 1.0;stroke-width: 0.100000;stroke-opacity: 1;stroke-linecap: round;stroke-linejoin: round">
<circle cx="14677390.000000" cy="11244580.000000" r="36830.000000"/> 
</g>
<g style="fill-opacity: 1.0;stroke-width: 0.100000;stroke-opacity: 1;stroke-linecap: round;stroke-linejoin: round">
<circle cx="14809470.000000" cy="10787380.000000" r="36830.000000"/> 
</g>
<g style="fill-opacity: 1.0;stroke-width: 0.100000;stroke-opacity: 1;stroke-linecap: round;stroke-linejoin: round">
<circle cx="15132050.000000" cy="10914380.000000" r="36830.000000"/> 
</g>
<g style="fill-opacity: 1.0;stroke-width: 0.100000;stroke-opacity: 1;stroke-linecap: round;stroke-linejoin: round">
<circle cx="14591030.000000" cy="10060940.000000" r="36830.000000"/> 
</g>
<g style="fill-opacity: 1.0;stroke-width: 0.100000;stroke-opacity: 1;stroke-linecap: round;stroke-linejoin: round">
<circle cx="14569440.000000" cy="10201910.000000" r="36830.000000"/> 
</g>
<g style="fill-opacity: 1.0;stroke-width: 0.100000;stroke-opacity: 1;stroke-linecap: round;stroke-linejoin: round">
<circle cx="14547850.000000" cy="10347960.000000" r="36830.000000"/> 
</g>
<g style="fill-opacity: 1.0;stroke-width: 0.100000;stroke-opacity: 1;stroke-linecap: round;stroke-linejoin: round">
<circle cx="14659610.000000" cy="10246360.000000" r="36830.000000"/> 
</g>
<g style="fill-opacity: 1.0;stroke-width: 0.100000;stroke-opacity: 1;stroke-linecap: round;stroke-linejoin: round">
<circle cx="14573250.000000" cy="10482580.000000" r="36830.000000"/> 
</g>
<g style="fill-opacity: 1.0;stroke-width: 0.100000;stroke-opacity: 1;stroke-linecap: round;stroke-linejoin: round">
<circle cx="14761210.000000" cy="10246360.000000" r="36830.000000"/> 
</g>
<g style="fill-opacity: 1.0;stroke-width: 0.100000;stroke-opacity: 1;stroke-linecap: round;stroke-linejoin: round">
<circle cx="15121890.000000" cy="10406380.000000" r="36830.000000"/> 
</g>
<g style="fill-opacity: 1.0;stroke-width: 0.100000;stroke-opacity: 1;stroke-linecap: round;stroke-linejoin: round">
<circle cx="15129910.000000" cy="10500760.000000" r="36830.000000"/> 
</g>
<g style="fill-opacity: 1.0;stroke-width: 0.100000;stroke-opacity: 1;stroke-linecap: round;stroke-linejoin: round">
<circle cx="14537690.000000" cy="10652760.000000" r="36830.000000"/> 
</g>
<g style="fill-opacity: 1.0;stroke-width: 0.100000;stroke-opacity: 1;stroke-linecap: round;stroke-linejoin: round">
<circle cx="14585950.000000" cy="10972800.000000" r="36830.000000"/> 
</g>
<g style="fill-opacity: 1.0;stroke-width: 0.100000;stroke-opacity: 1;stroke-linecap: round;stroke-linejoin: round">
<circle cx="15025370.000000" cy="10739120.000000" r="36830.000000"/> 
</g>
<g style="fill-opacity: 1.0;stroke-width: 0.100000;stroke-opacity: 1;stroke-linecap: round;stroke-linejoin: round">
<circle cx="14908530.000000" cy="10820400.000000" r="36830.000000"/> 
</g>
<g style="fill-opacity: 0.0;stroke-width: 25400.000000;stroke-opacity: 1;stroke-linecap: round;stroke-linejoin: round">
<path d="M15332710 9484360 L15078710 9738360 "/>
<path d="M15332710 9484360 L15358110 9484360 "/>
<path d="M14342110 9738360 L15078710 9738360 "/>
</g>
<g style="fill-opacity: 0.0;stroke-width: 20320.000000;stroke-opacity: 1;stroke-linecap: round;stroke-linejoin: round">
<path d="M14342110 10246360 L14524990 10246360 "/>
<path d="M14569440 10201910 L14524990 10246360 "/>
<path d="M14603730 10624820 L14566900 10587990 "/>
<path d="M15358110 11770360 L14730730 11142980 "/>
<path d="M14566900 10587990 L14508480 10587990 "/>
<path d="M14603730 10840720 L14730730 10967720 "/>
<path d="M14547850 10347960 L14507210 10347960 "/>
<path d="M14508480 10587990 L14469110 10548620 "/>
<path d="M14469110 10548620 L14469110 10386060 "/>
<path d="M14603730 10624820 L14603730 10840720 "/>
<path d="M14469110 10386060 L14507210 10347960 "/>
<path d="M14730730 11142980 L14730730 10967720 "/>
<path d="M14575790 10414000 L14659610 10330180 "/>
<path d="M14768830 10949940 L14768830 11061700 "/>
<path d="M14659610 10330180 L14659610 10246360 "/>
<path d="M14532610 10547350 L14583410 10547350 "/>
<path d="M14641830 10822940 L14768830 10949940 "/>
<path d="M14583410 10547350 L14641830 10605770 "/>
<path d="M14641830 10605770 L14641830 10822940 "/>
<path d="M15223490 11516360 L15358110 11516360 "/>
<path d="M14507210 10447020 L14507210 10521950 "/>
<path d="M14540230 10414000 L14575790 10414000 "/>
<path d="M14507210 10521950 L14532610 10547350 "/>
<path d="M14768830 11061700 L15223490 11516360 "/>
<path d="M14540230 10414000 L14507210 10447020 "/>
<path d="M14679930 10589260 L14573250 10482580 "/>
<path d="M15358110 11262360 L15024100 11262360 "/>
<path d="M14806930 11045190 L15024100 11262360 "/>
<path d="M14806930 10933430 L14806930 11045190 "/>
<path d="M14679930 10806430 L14806930 10933430 "/>
<path d="M14679930 10589260 L14679930 10806430 "/>
<path d="M14939010 11122660 L15243810 11122660 "/>
<path d="M14718030 10289540 L14718030 10789920 "/>
<path d="M14845030 10916920 L14845030 11028680 "/>
<path d="M15243810 11122660 L15358110 11008360 "/>
<path d="M14718030 10789920 L14845030 10916920 "/>
<path d="M14845030 11028680 L14939010 11122660 "/>
<path d="M14761210 10246360 L14718030 10289540 "/>
<path d="M15121890 10406380 L15281910 10246360 "/>
<path d="M15281910 10246360 L15358110 10246360 "/>
<path d="M15040610 10436860 L15040610 10309860 "/>
<path d="M15129910 10500760 L15104510 10500760 "/>
<path d="M15104510 10500760 L15040610 10436860 "/>
<path d="M15040610 10309860 L15358110 9992360 "/>
<path d="M14507210 10683240 L14507210 10800080 "/>
<path d="M14537690 10652760 L14507210 10683240 "/>
<path d="M14507210 10800080 L14651990 10944860 "/>
<path d="M14651990 10944860 L14651990 11109960 "/>
<path d="M14651990 11109960 L14499590 11262360 "/>
<path d="M14342110 11262360 L14499590 11262360 "/>
<path d="M14469110 10855960 L14585950 10972800 "/>
<path d="M14469110 10627360 L14469110 10855960 "/>
<path d="M14342110 10500360 L14469110 10627360 "/>
<path d="M14989810 10739120 L14908530 10820400 "/>
<path d="M15025370 10739120 L14989810 10739120 "/>
</g>
</g> 
</g><g id="substrate-pads" style="fill:#b5ae30; stroke:#b5ae30;" mask="url(#pads-mask)"><g style="fill-opacity: 0.0;stroke-width: 20320.000000;stroke-opacity: 1;stroke-linecap: round;stroke-linejoin: round">
<text x="14380210.000000" y="11859260.000000" transform="scale(-1 1) translate(-28760420.000000 0)" textLength="190330.700000" font-size="108373.300000" lengthAdjust="spacingAndGlyphs" text-anchor="middle" opacity="0">v10</text>
<g class="stroked-text"><desc>v10</desc>
<path d="M14476971 11801202 L14457619 11855389 L14438267 11801202 "/>
<path d="M14364728 11855389 L14411173 11855389 "/>
<path d="M14387950 11855389 L14387950 11774109 L14395691 11785720 L14403432 11793461 L14411173 11797332 "/>
<path d="M14314411 11774109 L14306670 11774109 L14298930 11777980 L14295059 11781850 L14291189 11789591 L14287318 11805073 L14287318 11824425 L14291189 11839907 L14295059 11847648 L14298930 11851519 L14306670 11855389 L14314411 11855389 L14322152 11851519 L14326023 11847648 L14329893 11839907 L14333764 11824425 L14333764 11805073 L14329893 11789591 L14326023 11781850 L14322152 11777980 L14314411 11774109 "/>
</g><g style="fill-opacity: 1.0;stroke-width: 0.100000;stroke-opacity: 1;stroke-linecap: round;stroke-linejoin: round">
<circle cx="14342110.000000" cy="11262360.000000" r="93980.000000"/> 
</g>
<g style="fill-opacity: 1.0;stroke-width: 0.100000;stroke-opacity: 1;stroke-linecap: round;stroke-linejoin: round">
<circle cx="14342110.000000" cy="11008360.000000" r="93980.000000"/> 
</g>
<g style="fill-opacity: 1.0;stroke-width: 0.100000;stroke-opacity: 1;stroke-linecap: round;stroke-linejoin: round">
<circle cx="14342110.000000" cy="10754360.000000" r="93980.000000"/> 
</g>
<g style="fill-opacity: 1.0;stroke-width: 0.100000;stroke-opacity: 1;stroke-linecap: round;stroke-linejoin: round">
<circle cx="14342110.000000" cy="10500360.000000" r="93980.000000"/> 
</g>
<g style="fill-opacity: 1.0;stroke-width: 0.100000;stroke-opacity: 1;stroke-linecap: round;stroke-linejoin: round">
<circle cx="14342110.000000" cy="10246360.000000" r="93980.000000"/> 
</g>
<g style="fill-opacity: 1.0;stroke-width: 0.100000;stroke-opacity: 1;stroke-linecap: round;stroke-linejoin: round">
<circle cx="14342110.000000" cy="9992360.000000" r="93980.000000"/> 
</g>
<g style="fill-opacity: 1.0;stroke-width: 0.100000;stroke-opacity: 1;stroke-linecap: round;stroke-linejoin: round">
<circle cx="14342110.000000" cy="9738360.000000" r="93980.000000"/> 
</g>
<g style="fill-opacity: 1.0;stroke-width: 0.100000;stroke-opacity: 1;stroke-linecap: round;stroke-linejoin: round">
<circle cx="14342110.000000" cy="9484360.000000" r="93980.000000"/> 
</g>
<g style="fill-opacity: 1.0;stroke-width: 0.100000;stroke-opacity: 1;stroke-linecap: round;stroke-linejoin: round">
<circle cx="15358110.000000" cy="11770360.000000" r="93980.000000"/> 
</g>
<g style="fill-opacity: 1.0;stroke-width: 0.100000;stroke-opacity: 1;stroke-linecap: round;stroke-linejoin: round">
<circle cx="15358110.000000" cy="11516360.000000" r="93980.000000"/> 
</g>
<g style="fill-opacity: 1.0;stroke-width: 0.100000;stroke-opacity: 1;stroke-linecap: round;stroke-linejoin: round">
<circle cx="15358110.000000" cy="11262360.000000" r="93980.000000"/> 
</g>
<g style="fill-opacity: 1.0;stroke-width: 0.100000;stroke-opacity: 1;stroke-linecap: round;stroke-linejoin: round">
<circle cx="15358110.000000" cy="11008360.000000" r="93980.000000"/> 
</g>
<g style="fill-opacity: 1.0;stroke-width: 0.100000;stroke-opacity: 1;stroke-linecap: round;stroke-linejoin: round">
<circle cx="15358110.000000" cy="10754360.000000" r="93980.000000"/> 
</g>
<g style="fill-opacity: 1.0;stroke-width: 0.100000;stroke-opacity: 1;stroke-linecap: round;stroke-linejoin: round">
<circle cx="15358110.000000" cy="10500360.000000" r="93980.000000"/> 
</g>
<g style="fill-opacity: 1.0;stroke-width: 0.100000;stroke-opacity: 1;stroke-linecap: round;stroke-linejoin: round">
<circle cx="15358110.000000" cy="10246360.000000" r="93980.000000"/> 
</g>
<g style="fill-opacity: 1.0;stroke-width: 0.100000;stroke-opacity: 1;stroke-linecap: round;stroke-linejoin: round">
<circle cx="15358110.000000" cy="9992360.000000" r="93980.000000"/> 
</g>
<g style="fill-opacity: 1.0;stroke-width: 0.100000;stroke-opacity: 1;stroke-linecap: round;stroke-linejoin: round">
<circle cx="15358110.000000" cy="9738360.000000" r="93980.000000"/> 
</g>
<g style="fill-opacity: 1.0;stroke-width: 0.100000;stroke-opacity: 1;stroke-linecap: round;stroke-linejoin: round">
<circle cx="15358110.000000" cy="9484360.000000" r="93980.000000"/> 
</g>
<g style="fill-opacity: 1.0;stroke-width: 0.100000;stroke-opacity: 1;stroke-linecap: round;stroke-linejoin: round">
<circle cx="15358110.000000" cy="9230360.000000" r="93980.000000"/> 
</g>
<g style="fill-opacity: 1.0;stroke-width: 0.100000;stroke-opacity: 1;stroke-linecap: round;stroke-linejoin: round">
<circle cx="15078710.000000" cy="9738360.000000" r="36830.000000"/> 
</g>
<g style="fill-opacity: 1.0;stroke-width: 0.100000;stroke-opacity: 1;stroke-linecap: round;stroke-linejoin: round">
<circle cx="15109190.000000" cy="10104120.000000" r="36830.000000"/> 
</g>
<g style="fill-opacity: 1.0;stroke-width: 0.100000;stroke-opacity: 1;stroke-linecap: round;stroke-linejoin: round">
<circle cx="15165070.000000" cy="10668000.000000" r="36830.000000"/> 
</g>
<g style="fill-opacity: 1.0;stroke-width: 0.100000;stroke-opacity: 1;stroke-linecap: round;stroke-linejoin: round">
<circle cx="14677390.000000" cy="11244580.000000" r="36830.000000"/> 
</g>
<g style="fill-opacity: 1.0;stroke-width: 0.100000;stroke-opacity: 1;stroke-linecap: round;stroke-linejoin: round">
<circle cx="14809470.000000" cy="10787380.000000" r="36830.000000"/> 
</g>
<g style="fill-opacity: 1.0;stroke-width: 0.100000;stroke-opacity: 1;stroke-linecap: round;stroke-linejoin: round">
<circle cx="15132050.000000" cy="10914380.000000" r="36830.000000"/> 
</g>
<g style="fill-opacity: 1.0;stroke-width: 0.100000;stroke-opacity: 1;stroke-linecap: round;stroke-linejoin: round">
<circle cx="14591030.000000" cy="10060940.000000" r="36830.000000"/> 
</g>
<g style="fill-opacity: 1.0;stroke-width: 0.100000;stroke-opacity: 1;stroke-linecap: round;stroke-linejoin: round">
<circle cx="14569440.000000" cy="10201910.000000" r="36830.000000"/> 
</g>
<g style="fill-opacity: 1.0;stroke-width: 0.100000;stroke-opacity: 1;stroke-linecap: round;stroke-linejoin: round">
<circle cx="14547850.000000" cy="10347960.000000" r="36830.000000"/> 
</g>
<g style="fill-opacity: 1.0;stroke-width: 0.100000;stroke-opacity: 1;stroke-linecap: round;stroke-linejoin: round">
<circle cx="14659610.000000" cy="10246360.000000" r="36830.000000"/> 
</g>
<g style="fill-opacity: 1.0;stroke-width: 0.100000;stroke-opacity: 1;stroke-linecap: round;stroke-linejoin: round">
<circle cx="14573250.000000" cy="10482580.000000" r="36830.000000"/> 
</g>
<g style="fill-opacity: 1.0;stroke-width: 0.100000;stroke-opacity: 1;stroke-linecap: round;stroke-linejoin: round">
<circle cx="14761210.000000" cy="10246360.000000" r="36830.000000"/> 
</g>
<g style="fill-opacity: 1.0;stroke-width: 0.100000;stroke-opacity: 1;stroke-linecap: round;stroke-linejoin: round">
<circle cx="15121890.000000" cy="10406380.000000" r="36830.000000"/> 
</g>
<g style="fill-opacity: 1.0;stroke-width: 0.100000;stroke-opacity: 1;stroke-linecap: round;stroke-linejoin: round">
<circle cx="15129910.000000" cy="10500760.000000" r="36830.000000"/> 
</g>
<g style="fill-opacity: 1.0;stroke-width: 0.100000;stroke-opacity: 1;stroke-linecap: round;stroke-linejoin: round">
<circle cx="14537690.000000" cy="10652760.000000" r="36830.000000"/> 
</g>
<g style="fill-opacity: 1.0;stroke-width: 0.100000;stroke-opacity: 1;stroke-linecap: round;stroke-linejoin: round">
<circle cx="14585950.000000" cy="10972800.000000" r="36830.000000"/> 
</g>
<g style="fill-opacity: 1.0;stroke-width: 0.100000;stroke-opacity: 1;stroke-linecap: round;stroke-linejoin: round">
<circle cx="15025370.000000" cy="10739120.000000" r="36830.000000"/> 
</g>
<g style="fill-opacity: 1.0;stroke-width: 0.100000;stroke-opacity: 1;stroke-linecap: round;stroke-linejoin: round">
<circle cx="14908530.000000" cy="10820400.000000" r="36830.000000"/> 
</g>
<g style="fill-opacity: 0.0;stroke-width: 25400.000000;stroke-opacity: 1;stroke-linecap: round;stroke-linejoin: round">
<path d="M15332710 9484360 L15078710 9738360 "/>
<path d="M15332710 9484360 L15358110 9484360 "/>
<path d="M14342110 9738360 L15078710 9738360 "/>
</g>
<g style="fill-opacity: 0.0;stroke-width: 20320.000000;stroke-opacity: 1;stroke-linecap: round;stroke-linejoin: round">
<path d="M14342110 10246360 L14524990 10246360 "/>
<path d="M14569440 10201910 L14524990 10246360 "/>
<path d="M14603730 10624820 L14566900 10587990 "/>
<path d="M15358110 11770360 L14730730 11142980 "/>
<path d="M14566900 10587990 L14508480 10587990 "/>
<path d="M14603730 10840720 L14730730 10967720 "/>
<path d="M14547850 10347960 L14507210 10347960 "/>
<path d="M14508480 10587990 L14469110 10548620 "/>
<path d="M14469110 10548620 L14469110 10386060 "/>
<path d="M14603730 10624820 L14603730 10840720 "/>
<path d="M14469110 10386060 L14507210 10347960 "/>
<path d="M14730730 11142980 L14730730 10967720 "/>
<path d="M14575790 10414000 L14659610 10330180 "/>
<path d="M14768830 10949940 L14768830 11061700 "/>
<path d="M14659610 10330180 L14659610 10246360 "/>
<path d="M14532610 10547350 L14583410 10547350 "/>
<path d="M14641830 10822940 L14768830 10949940 "/>
<path d="M14583410 10547350 L14641830 10605770 "/>
<path d="M14641830 10605770 L14641830 10822940 "/>
<path d="M15223490 11516360 L15358110 11516360 "/>
<path d="M14507210 10447020 L14507210 10521950 "/>
<path d="M14540230 10414000 L14575790 10414000 "/>
<path d="M14507210 10521950 L14532610 10547350 "/>
<path d="M14768830 11061700 L15223490 11516360 "/>
<path d="M14540230 10414000 L14507210 10447020 "/>
<path d="M14679930 10589260 L14573250 10482580 "/>
<path d="M15358110 11262360 L15024100 11262360 "/>
<path d="M14806930 11045190 L15024100 11262360 "/>
<path d="M14806930 10933430 L14806930 11045190 "/>
<path d="M14679930 10806430 L14806930 10933430 "/>
<path d="M14679930 10589260 L14679930 10806430 "/>
<path d="M14939010 11122660 L15243810 11122660 "/>
<path d="M14718030 10289540 L14718030 10789920 "/>
<path d="M14845030 10916920 L14845030 11028680 "/>
<path d="M15243810 11122660 L15358110 11008360 "/>
<path d="M14718030 10789920 L14845030 10916920 "/>
<path d="M14845030 11028680 L14939010 11122660 "/>
<path d="M14761210 10246360 L14718030 10289540 "/>
<path d="M15121890 10406380 L15281910 10246360 "/>
<path d="M15281910 10246360 L15358110 10246360 "/>
<path d="M15040610 10436860 L15040610 10309860 "/>
<path d="M15129910 10500760 L15104510 10500760 "/>
<path d="M15104510 10500760 L15040610 10436860 "/>
<path d="M15040610 10309860 L15358110 9992360 "/>
<path d="M14507210 10683240 L14507210 10800080 "/>
<path d="M14537690 10652760 L14507210 10683240 "/>
<path d="M14507210 10800080 L14651990 10944860 "/>
<path d="M14651990 10944860 L14651990 11109960 "/>
<path d="M14651990 11109960 L14499590 11262360 "/>
<path d="M14342110 11262360 L14499590 11262360 "/>
<path d="M14469110 10855960 L14585950 10972800 "/>
<path d="M14469110 10627360 L14469110 10855960 "/>
<path d="M14342110 10500360 L14469110 10627360 "/>
<path d="M14989810 10739120 L14908530 10820400 "/>
<path d="M15025370 10739120 L14989810 10739120 "/>
</g>
</g> 
</g><g id="substrate-silk" style="fill:#f0f0f0; stroke:#f0f0f0;" mask="url(#pads-mask-silkscreen)"><g style="fill-opacity: 0.0;stroke-width: 25400.000000;stroke-opacity: 1;stroke-linecap: round;stroke-linejoin: round">
<path d="M14608810 11389360 L14215110 11389360 "/>
<path d="M14608810 10373360 L14215110 10373360 "/>
<path d="M14608810 10119360 L14608810 10373360 "/>
<path d="M14608810 11389360 L14608810 11135360 "/>
<path d="M14608810 10373360 L14608810 11135360 "/>
<path d="M14215110 10119360 L14608810 10119360 "/>
<path d="M14215110 11135360 L14608810 11135360 "/>
</g>
<g style="fill-opacity: 0.0;stroke-width: 12192.000000;stroke-opacity: 1;stroke-linecap: round;stroke-linejoin: round">
<g transform="rotate(90.000000 14488160.000000 11008360.000000)">
<text x="14488160.000000" y="11008360.000000" transform="scale(-1 1) translate(-28976320.000000 0)" textLength="105180.200000" font-size="92117.300000" lengthAdjust="spacingAndGlyphs" text-anchor="middle" opacity="0">S2</text>
</g>
<g class="stroked-text"><desc>S2</desc>
<path d="M14494739 11060998 L14491449 11051128 L14491449 11034679 L14494739 11028099 L14498029 11024809 L14504609 11021519 L14511189 11021519 L14517769 11024809 L14521059 11028099 L14524348 11034679 L14527638 11047838 L14530928 11054418 L14534218 11057708 L14540798 11060998 L14547378 11060998 L14553958 11057708 L14557248 11054418 L14560537 11047838 L14560537 11031389 L14557248 11021519 "/>
<path d="M14553958 10995200 L14557248 10991910 L14560537 10985330 L14560537 10968881 L14557248 10962301 L14553958 10959011 L14547378 10955721 L14540798 10955721 L14530928 10959011 L14491449 10998490 L14491449 10955721 "/>
</g><g transform="rotate(90.000000 15212060.000000 10500360.000000)">
<text x="15212060.000000" y="10569448.000000" transform="scale(-1 1) translate(-30424120.000000 0)" textLength="109166.800000" font-size="92117.300000" lengthAdjust="spacingAndGlyphs" text-anchor="middle" opacity="0">Y2</text>
</g>
<g class="stroked-text"><desc>Y2</desc>
<path d="M15179160 10533259 L15146261 10533259 "/>
<path d="M15215349 10556288 L15179160 10533259 L15215349 10510229 "/>
<path d="M15208770 10490490 L15212060 10487200 L15215349 10480620 L15215349 10464171 L15212060 10457591 L15208770 10454301 L15202190 10451011 L15195610 10451011 L15185740 10454301 L15146261 10493780 L15146261 10451011 "/>
</g></g>
<g style="fill-opacity: 0.0;stroke-width: 15240.000000;stroke-opacity: 1;stroke-linecap: round;stroke-linejoin: round">
<g transform="rotate(90.000000 14748510.000000 10989310.000000)">
<text x="14748510.000000" y="11075670.000000" transform="scale(-1 1) translate(-29497020.000000 0)" textLength="744940.900000" font-size="115146.600000" lengthAdjust="spacingAndGlyphs" text-anchor="start" opacity="0">Mux/Demux</text>
</g>
<g class="stroked-text"><desc>Mux/Demux</desc>
<path d="M14666262 10958842 L14752622 10958842 L14690936 10930055 L14752622 10901268 L14666262 10901268 "/>
<path d="M14723835 10823133 L14666262 10823133 "/>
<path d="M14723835 10860144 L14678599 10860144 L14670374 10856032 L14666262 10847807 L14666262 10835470 L14670374 10827245 L14674487 10823133 "/>
<path d="M14666262 10790234 L14723835 10744998 "/>
<path d="M14723835 10790234 L14666262 10744998 "/>
<path d="M14756734 10650413 L14645700 10724436 "/>
<path d="M14666262 10621626 L14752622 10621626 L14752622 10601064 L14748510 10588727 L14740285 10580503 L14732060 10576390 L14715610 10572278 L14703273 10572278 L14686824 10576390 L14678599 10580503 L14670374 10588727 L14666262 10601064 L14666262 10621626 "/>
<path d="M14670374 10502367 L14666262 10510592 L14666262 10527042 L14670374 10535266 L14678599 10539379 L14711498 10539379 L14719723 10535266 L14723835 10527042 L14723835 10510592 L14719723 10502367 L14711498 10498255 L14703273 10498255 L14695049 10539379 "/>
<path d="M14666262 10461244 L14723835 10461244 "/>
<path d="M14715610 10461244 L14719723 10457131 L14723835 10448906 L14723835 10436569 L14719723 10428344 L14711498 10424232 L14666262 10424232 "/>
<path d="M14711498 10424232 L14719723 10420120 L14723835 10411895 L14723835 10399558 L14719723 10391333 L14711498 10387221 L14666262 10387221 "/>
<path d="M14723835 10309085 L14666262 10309085 "/>
<path d="M14723835 10346097 L14678599 10346097 L14670374 10341984 L14666262 10333760 L14666262 10321423 L14670374 10313198 L14674487 10309085 "/>
<path d="M14666262 10276186 L14723835 10230950 "/>
<path d="M14723835 10276186 L14666262 10230950 "/>
</g></g>
<g style="fill-opacity: 0.0;stroke-width: 12192.000000;stroke-opacity: 1;stroke-linecap: round;stroke-linejoin: round">
<g transform="rotate(90.000000 15212060.000000 9992360.000000)">
<text x="15212060.000000" y="10061448.000000" transform="scale(-1 1) translate(-30424120.000000 0)" textLength="105204.400000" font-size="92117.300000" lengthAdjust="spacingAndGlyphs" text-anchor="middle" opacity="0">Y0</text>
</g>
<g class="stroked-text"><desc>Y0</desc>
<path d="M15179160 10025259 L15146261 10025259 "/>
<path d="M15215349 10048288 L15179160 10025259 L15215349 10002229 "/>
<path d="M15215349 9966040 L15215349 9959460 L15212060 9952881 L15208770 9949591 L15202190 9946301 L15189030 9943011 L15172581 9943011 L15159421 9946301 L15152841 9949591 L15149551 9952881 L15146261 9959460 L15146261 9966040 L15149551 9972620 L15152841 9975910 L15159421 9979200 L15172581 9982490 L15189030 9982490 L15202190 9979200 L15208770 9975910 L15212060 9972620 L15215349 9966040 "/>
</g><g transform="rotate(90.000000 15212060.000000 9738360.000000)">
<text x="15212060.000000" y="9807448.000000" transform="scale(-1 1) translate(-30424120.000000 0)" textLength="194704.300000" font-size="92117.300000" lengthAdjust="spacingAndGlyphs" text-anchor="middle" opacity="0">GND</text>
</g>
<g class="stroked-text"><desc>GND</desc>
<path d="M15212060 9790998 L15215349 9797578 L15215349 9807448 L15212060 9817317 L15205480 9823897 L15198900 9827187 L15185740 9830477 L15175871 9830477 L15162711 9827187 L15156131 9823897 L15149551 9817317 L15146261 9807448 L15146261 9800868 L15149551 9790998 L15152841 9787708 L15175871 9787708 L15175871 9800868 "/>
<path d="M15146261 9758099 L15215349 9758099 L15146261 9718620 L15215349 9718620 "/>
<path d="M15146261 9685721 L15215349 9685721 L15215349 9669272 L15212060 9659402 L15205480 9652822 L15198900 9649532 L15185740 9646242 L15175871 9646242 L15162711 9649532 L15156131 9652822 L15149551 9659402 L15146261 9669272 L15146261 9685721 "/>
</g><g transform="rotate(90.000000 15212060.000000 10246360.000000)">
<text x="15212060.000000" y="10315448.000000" transform="scale(-1 1) translate(-30424120.000000 0)" textLength="109166.800000" font-size="92117.300000" lengthAdjust="spacingAndGlyphs" text-anchor="middle" opacity="0">Y1</text>
</g>
<g class="stroked-text"><desc>Y1</desc>
<path d="M15179160 10279259 L15146261 10279259 "/>
<path d="M15215349 10302288 L15179160 10279259 L15215349 10256229 "/>
<path d="M15146261 10197011 L15146261 10236490 "/>
<path d="M15146261 10216750 L15215349 10216750 L15205480 10223330 L15198900 10229910 L15195610 10236490 "/>
</g></g>
<g style="fill-opacity: 0.0;stroke-width: 15240.000000;stroke-opacity: 1;stroke-linecap: round;stroke-linejoin: round">
<g transform="rotate(90.000000 14881860.000000 11243310.000000)">
<text x="14881860.000000" y="11329670.000000" transform="scale(-1 1) translate(-29763720.000000 0)" textLength="1427596.100000" font-size="115146.600000" lengthAdjust="spacingAndGlyphs" text-anchor="start" opacity="0">74HC4051 8-Channel</text>
</g>
<g class="stroked-text"><desc>74HC4051 8-Channel</desc>
<path d="M14885972 11221066 L14885972 11163493 L14799612 11200504 "/>
<path d="M14857185 11093583 L14799612 11093583 "/>
<path d="M14890084 11114144 L14828399 11134706 L14828399 11081245 "/>
<path d="M14799612 11048346 L14885972 11048346 "/>
<path d="M14844848 11048346 L14844848 10998998 "/>
<path d="M14799612 10998998 L14885972 10998998 "/>
<path d="M14807837 10908525 L14803724 10912638 L14799612 10924975 L14799612 10933200 L14803724 10945537 L14811949 10953762 L14820174 10957874 L14836623 10961986 L14848960 10961986 L14865410 10957874 L14873635 10953762 L14881860 10945537 L14885972 10933200 L14885972 10924975 L14881860 10912638 L14877747 10908525 "/>
<path d="M14857185 10834503 L14799612 10834503 "/>
<path d="M14890084 10855064 L14828399 10875626 L14828399 10822165 "/>
<path d="M14885972 10772817 L14885972 10764592 L14881860 10756367 L14877747 10752255 L14869522 10748143 L14853073 10744030 L14832511 10744030 L14816061 10748143 L14807837 10752255 L14803724 10756367 L14799612 10764592 L14799612 10772817 L14803724 10781042 L14807837 10785154 L14816061 10789266 L14832511 10793379 L14853073 10793379 L14869522 10789266 L14877747 10785154 L14881860 10781042 L14885972 10772817 "/>
<path d="M14885972 10665895 L14885972 10707019 L14844848 10711131 L14848960 10707019 L14853073 10698794 L14853073 10678232 L14848960 10670007 L14844848 10665895 L14836623 10661783 L14816061 10661783 L14807837 10665895 L14803724 10670007 L14799612 10678232 L14799612 10698794 L14803724 10707019 L14807837 10711131 "/>
<path d="M14799612 10579535 L14799612 10628884 "/>
<path d="M14799612 10604209 L14885972 10604209 L14873635 10612434 L14865410 10620659 L14861298 10628884 "/>
<path d="M14848960 10464388 L14853073 10472613 L14857185 10476725 L14865410 10480838 L14869522 10480838 L14877747 10476725 L14881860 10472613 L14885972 10464388 L14885972 10447939 L14881860 10439714 L14877747 10435602 L14869522 10431489 L14865410 10431489 L14857185 10435602 L14853073 10439714 L14848960 10447939 L14848960 10464388 L14844848 10472613 L14840736 10476725 L14832511 10480838 L14816061 10480838 L14807837 10476725 L14803724 10472613 L14799612 10464388 L14799612 10447939 L14803724 10439714 L14807837 10435602 L14816061 10431489 L14832511 10431489 L14840736 10435602 L14844848 10439714 L14848960 10447939 "/>
<path d="M14832511 10394478 L14832511 10328680 "/>
<path d="M14807837 10238207 L14803724 10242320 L14799612 10254657 L14799612 10262882 L14803724 10275219 L14811949 10283444 L14820174 10287556 L14836623 10291668 L14848960 10291668 L14865410 10287556 L14873635 10283444 L14881860 10275219 L14885972 10262882 L14885972 10254657 L14881860 10242320 L14877747 10238207 "/>
<path d="M14799612 10201196 L14885972 10201196 "/>
<path d="M14799612 10164184 L14844848 10164184 L14853073 10168297 L14857185 10176522 L14857185 10188859 L14853073 10197084 L14848960 10201196 "/>
<path d="M14799612 10086049 L14844848 10086049 L14853073 10090162 L14857185 10098386 L14857185 10114836 L14853073 10123061 "/>
<path d="M14803724 10086049 L14799612 10094274 L14799612 10114836 L14803724 10123061 L14811949 10127173 L14820174 10127173 L14828399 10123061 L14832511 10114836 L14832511 10094274 L14836623 10086049 "/>
<path d="M14857185 10044925 L14799612 10044925 "/>
<path d="M14848960 10044925 L14853073 10040813 L14857185 10032588 L14857185 10020251 L14853073 10012026 L14844848 10007914 L14799612 10007914 "/>
<path d="M14857185 9966790 L14799612 9966790 "/>
<path d="M14848960 9966790 L14853073 9962678 L14857185 9954453 L14857185 9942116 L14853073 9933891 L14844848 9929779 L14799612 9929779 "/>
<path d="M14803724 9855756 L14799612 9863981 L14799612 9880430 L14803724 9888655 L14811949 9892767 L14844848 9892767 L14853073 9888655 L14857185 9880430 L14857185 9863981 L14853073 9855756 L14844848 9851644 L14836623 9851644 L14828399 9892767 "/>
<path d="M14799612 9802295 L14803724 9810520 L14811949 9814632 L14885972 9814632 "/>
</g></g>
<g style="fill-opacity: 0.0;stroke-width: 12192.000000;stroke-opacity: 1;stroke-linecap: round;stroke-linejoin: round">
<g transform="rotate(90.000000 14488160.000000 10246360.000000)">
<text x="14488160.000000" y="10246360.000000" transform="scale(-1 1) translate(-28976320.000000 0)" textLength="45986.100000" font-size="92117.300000" lengthAdjust="spacingAndGlyphs" text-anchor="middle" opacity="0">Z</text>
</g>
<g class="stroked-text"><desc>Z</desc>
<path d="M14560537 10269389 L14560537 10223330 L14491449 10269389 L14491449 10223330 "/>
</g><g transform="rotate(90.000000 14488160.000000 9992360.000000)">
<text x="14488160.000000" y="9992360.000000" transform="scale(-1 1) translate(-28976320.000000 0)" textLength="194704.300000" font-size="92117.300000" lengthAdjust="spacingAndGlyphs" text-anchor="middle" opacity="0">GND</text>
</g>
<g class="stroked-text"><desc>GND</desc>
<path d="M14557248 10044998 L14560537 10051578 L14560537 10061448 L14557248 10071317 L14550668 10077897 L14544088 10081187 L14530928 10084477 L14521059 10084477 L14507899 10081187 L14501319 10077897 L14494739 10071317 L14491449 10061448 L14491449 10054868 L14494739 10044998 L14498029 10041708 L14521059 10041708 L14521059 10054868 "/>
<path d="M14491449 10012099 L14560537 10012099 L14491449 9972620 L14560537 9972620 "/>
<path d="M14491449 9939721 L14560537 9939721 L14560537 9923272 L14557248 9913402 L14550668 9906822 L14544088 9903532 L14530928 9900242 L14521059 9900242 L14507899 9903532 L14501319 9906822 L14494739 9913402 L14491449 9923272 L14491449 9939721 "/>
</g><g transform="rotate(90.000000 15212060.000000 11262360.000000)">
<text x="15212060.000000" y="11331448.000000" transform="scale(-1 1) translate(-30424120.000000 0)" textLength="109166.800000" font-size="92117.300000" lengthAdjust="spacingAndGlyphs" text-anchor="middle" opacity="0">Y5</text>
</g>
<g class="stroked-text"><desc>Y5</desc>
<path d="M15179160 11295259 L15146261 11295259 "/>
<path d="M15215349 11318288 L15179160 11295259 L15215349 11272229 "/>
<path d="M15215349 11216301 L15215349 11249200 L15182450 11252490 L15185740 11249200 L15189030 11242620 L15189030 11226171 L15185740 11219591 L15182450 11216301 L15175871 11213011 L15159421 11213011 L15152841 11216301 L15149551 11219591 L15146261 11226171 L15146261 11242620 L15149551 11249200 L15152841 11252490 "/>
</g><g transform="rotate(90.000000 15212060.000000 11770360.000000)">
<text x="15212060.000000" y="11839448.000000" transform="scale(-1 1) translate(-30424120.000000 0)" textLength="109166.800000" font-size="92117.300000" lengthAdjust="spacingAndGlyphs" text-anchor="middle" opacity="0">Y7</text>
</g>
<g class="stroked-text"><desc>Y7</desc>
<path d="M15179160 11803259 L15146261 11803259 "/>
<path d="M15215349 11826288 L15179160 11803259 L15215349 11780229 "/>
<path d="M15215349 11763780 L15215349 11717721 L15146261 11747330 "/>
</g><g transform="rotate(90.000000 15212060.000000 9484360.000000)">
<text x="15212060.000000" y="9553448.000000" transform="scale(-1 1) translate(-30424120.000000 0)" textLength="181544.700000" font-size="92117.300000" lengthAdjust="spacingAndGlyphs" text-anchor="middle" opacity="0">VCC</text>
</g>
<g class="stroked-text"><desc>VCC</desc>
<path d="M15215349 9576477 L15146261 9553448 L15215349 9530418 "/>
<path d="M15152841 9467910 L15149551 9471200 L15146261 9481070 L15146261 9487649 L15149551 9497519 L15156131 9504099 L15162711 9507389 L15175871 9510679 L15185740 9510679 L15198900 9507389 L15205480 9504099 L15212060 9497519 L15215349 9487649 L15215349 9481070 L15212060 9471200 L15208770 9467910 "/>
<path d="M15152841 9398822 L15149551 9402112 L15146261 9411982 L15146261 9418561 L15149551 9428431 L15156131 9435011 L15162711 9438301 L15175871 9441591 L15185740 9441591 L15198900 9438301 L15205480 9435011 L15212060 9428431 L15215349 9418561 L15215349 9411982 L15212060 9402112 L15208770 9398822 "/>
</g><g transform="rotate(90.000000 15212060.000000 11516360.000000)">
<text x="15212060.000000" y="11585448.000000" transform="scale(-1 1) translate(-30424120.000000 0)" textLength="109166.800000" font-size="92117.300000" lengthAdjust="spacingAndGlyphs" text-anchor="middle" opacity="0">Y6</text>
</g>
<g class="stroked-text"><desc>Y6</desc>
<path d="M15179160 11549259 L15146261 11549259 "/>
<path d="M15215349 11572288 L15179160 11549259 L15215349 11526229 "/>
<path d="M15215349 11473591 L15215349 11486750 L15212060 11493330 L15208770 11496620 L15198900 11503200 L15185740 11506490 L15159421 11506490 L15152841 11503200 L15149551 11499910 L15146261 11493330 L15146261 11480171 L15149551 11473591 L15152841 11470301 L15159421 11467011 L15175871 11467011 L15182450 11470301 L15185740 11473591 L15189030 11480171 L15189030 11493330 L15185740 11499910 L15182450 11503200 L15175871 11506490 "/>
</g><g transform="rotate(90.000000 14488160.000000 10500360.000000)">
<text x="14488160.000000" y="10500360.000000" transform="scale(-1 1) translate(-28976320.000000 0)" textLength="115746.600000" font-size="92117.300000" lengthAdjust="spacingAndGlyphs" text-anchor="middle" opacity="0">S0</text>
</g>
<g class="stroked-text"><desc>S0</desc>
<path d="M14494739 10552998 L14491449 10543128 L14491449 10526679 L14494739 10520099 L14498029 10516809 L14504609 10513519 L14511189 10513519 L14517769 10516809 L14521059 10520099 L14524348 10526679 L14527638 10539838 L14530928 10546418 L14534218 10549708 L14540798 10552998 L14547378 10552998 L14553958 10549708 L14557248 10546418 L14560537 10539838 L14560537 10523389 L14557248 10513519 "/>
<path d="M14560537 10470750 L14560537 10464171 L14557248 10457591 L14553958 10454301 L14547378 10451011 L14534218 10447721 L14517769 10447721 L14504609 10451011 L14498029 10454301 L14494739 10457591 L14491449 10464171 L14491449 10470750 L14494739 10477330 L14498029 10480620 L14504609 10483910 L14517769 10487200 L14534218 10487200 L14547378 10483910 L14553958 10480620 L14557248 10477330 L14560537 10470750 "/>
</g><g transform="rotate(90.000000 14488160.000000 9484360.000000)">
<text x="14488160.000000" y="9484360.000000" transform="scale(-1 1) translate(-28976320.000000 0)" textLength="168385.100000" font-size="92117.300000" lengthAdjust="spacingAndGlyphs" text-anchor="middle" opacity="0">VEE</text>
</g>
<g class="stroked-text"><desc>VEE</desc>
<path d="M14560537 9569897 L14491449 9546868 L14560537 9523838 "/>
<path d="M14527638 9500809 L14527638 9477780 "/>
<path d="M14491449 9467910 L14491449 9500809 L14560537 9500809 L14560537 9467910 "/>
<path d="M14527638 9438301 L14527638 9415272 "/>
<path d="M14491449 9405402 L14491449 9438301 L14560537 9438301 L14560537 9405402 "/>
</g><g transform="rotate(90.000000 14488160.000000 9738360.000000)">
<text x="14488160.000000" y="9738360.000000" transform="scale(-1 1) translate(-28976320.000000 0)" textLength="181544.700000" font-size="92117.300000" lengthAdjust="spacingAndGlyphs" text-anchor="middle" opacity="0">VCC</text>
</g>
<g class="stroked-text"><desc>VCC</desc>
<path d="M14560537 9830477 L14491449 9807448 L14560537 9784418 "/>
<path d="M14498029 9721910 L14494739 9725200 L14491449 9735070 L14491449 9741649 L14494739 9751519 L14501319 9758099 L14507899 9761389 L14521059 9764679 L14530928 9764679 L14544088 9761389 L14550668 9758099 L14557248 9751519 L14560537 9741649 L14560537 9735070 L14557248 9725200 L14553958 9721910 "/>
<path d="M14498029 9652822 L14494739 9656112 L14491449 9665982 L14491449 9672561 L14494739 9682431 L14501319 9689011 L14507899 9692301 L14521059 9695591 L14530928 9695591 L14544088 9692301 L14550668 9689011 L14557248 9682431 L14560537 9672561 L14560537 9665982 L14557248 9656112 L14553958 9652822 "/>
</g><g transform="rotate(90.000000 15212060.000000 10754360.000000)">
<text x="15212060.000000" y="10823448.000000" transform="scale(-1 1) translate(-30424120.000000 0)" textLength="109166.800000" font-size="92117.300000" lengthAdjust="spacingAndGlyphs" text-anchor="middle" opacity="0">Y3</text>
</g>
<g class="stroked-text"><desc>Y3</desc>
<path d="M15179160 10787259 L15146261 10787259 "/>
<path d="M15215349 10810288 L15179160 10787259 L15215349 10764229 "/>
<path d="M15215349 10747780 L15215349 10705011 L15189030 10728040 L15189030 10718171 L15185740 10711591 L15182450 10708301 L15175871 10705011 L15159421 10705011 L15152841 10708301 L15149551 10711591 L15146261 10718171 L15146261 10737910 L15149551 10744490 L15152841 10747780 "/>
</g><g transform="rotate(90.000000 14488160.000000 11236960.000000)">
<text x="14488160.000000" y="11236960.000000" transform="scale(-1 1) translate(-28976320.000000 0)" textLength="145355.700000" font-size="92117.300000" lengthAdjust="spacingAndGlyphs" text-anchor="middle" opacity="0">~E~</text>
</g>
<g class="stroked-text"><desc>~E~</desc>
<path d="M14517769 11310982 L14521059 11307692 L14524348 11301113 L14517769 11287953 L14521059 11281373 L14524348 11278083 "/>
<path d="M14527638 11251764 L14527638 11228735 "/>
<path d="M14491449 11218865 L14491449 11251764 L14560537 11251764 L14560537 11218865 "/>
<path d="M14517769 11199126 L14521059 11195836 L14524348 11189256 L14517769 11176096 L14521059 11169516 L14524348 11166227 "/>
</g><g transform="rotate(90.000000 14488160.000000 10754360.000000)">
<text x="14488160.000000" y="10754360.000000" transform="scale(-1 1) translate(-28976320.000000 0)" textLength="115746.600000" font-size="92117.300000" lengthAdjust="spacingAndGlyphs" text-anchor="middle" opacity="0">S1</text>
</g>
<g class="stroked-text"><desc>S1</desc>
<path d="M14494739 10806998 L14491449 10797128 L14491449 10780679 L14494739 10774099 L14498029 10770809 L14504609 10767519 L14511189 10767519 L14517769 10770809 L14521059 10774099 L14524348 10780679 L14527638 10793838 L14530928 10800418 L14534218 10803708 L14540798 10806998 L14547378 10806998 L14553958 10803708 L14557248 10800418 L14560537 10793838 L14560537 10777389 L14557248 10767519 "/>
<path d="M14491449 10701721 L14491449 10741200 "/>
<path d="M14491449 10721460 L14560537 10721460 L14550668 10728040 L14544088 10734620 L14540798 10741200 "/>
</g><g transform="rotate(90.000000 15212060.000000 11008360.000000)">
<text x="15212060.000000" y="11077448.000000" transform="scale(-1 1) translate(-30424120.000000 0)" textLength="109166.800000" font-size="92117.300000" lengthAdjust="spacingAndGlyphs" text-anchor="middle" opacity="0">Y4</text>
</g>
<g class="stroked-text"><desc>Y4</desc>
<path d="M15179160 11041259 L15146261 11041259 "/>
<path d="M15215349 11064288 L15179160 11041259 L15215349 11018229 "/>
<path d="M15192320 10965591 L15146261 10965591 "/>
<path d="M15218639 10982040 L15169291 10998490 L15169291 10955721 "/>
</g><g transform="rotate(90.000000 15212060.000000 9230360.000000)">
<text x="15212060.000000" y="9299448.000000" transform="scale(-1 1) translate(-30424120.000000 0)" textLength="168385.100000" font-size="92117.300000" lengthAdjust="spacingAndGlyphs" text-anchor="middle" opacity="0">VEE</text>
</g>
<g class="stroked-text"><desc>VEE</desc>
<path d="M15215349 9315897 L15146261 9292868 L15215349 9269838 "/>
<path d="M15182450 9246809 L15182450 9223780 "/>
<path d="M15146261 9213910 L15146261 9246809 L15215349 9246809 L15215349 9213910 "/>
<path d="M15182450 9184301 L15182450 9161272 "/>
<path d="M15146261 9151402 L15146261 9184301 L15215349 9184301 L15215349 9151402 "/>
</g></g>
<g style="fill-opacity: 0.0;stroke-width: 12700.000000;stroke-opacity: 1;stroke-linecap: round;stroke-linejoin: round">
<g transform="rotate(-90.000000 14524990.000000 11396980.000000)">
<text x="14524990.000000" y="11396980.000000" transform="scale(-1 1) translate(-29049980.000000 0)" textLength="180093.300000" font-size="152400.000000" lengthAdjust="spacingAndGlyphs" text-anchor="start" opacity="0">J2</text>
</g>
<g class="stroked-text"><desc>J2</desc>
<path d="M14405247 11465106 L14486890 11465106 L14503218 11459663 L14514104 11448777 L14519547 11432449 L14519547 11421563 "/>
<path d="M14416132 11514092 L14410690 11519535 L14405247 11530420 L14405247 11557635 L14410690 11568520 L14416132 11573963 L14427018 11579406 L14437904 11579406 L14454232 11573963 L14519547 11508649 L14519547 11579406 "/>
</g><g transform="rotate(-90.000000 15540990.000000 11904980.000000)">
<text x="15540990.000000" y="11904980.000000" transform="scale(-1 1) translate(-31081980.000000 0)" textLength="179432.900000" font-size="152400.000000" lengthAdjust="spacingAndGlyphs" text-anchor="start" opacity="0">J1</text>
</g>
<g class="stroked-text"><desc>J1</desc>
<path d="M15421247 11973106 L15502890 11973106 L15519218 11967663 L15530104 11956777 L15535547 11940449 L15535547 11929563 "/>
<path d="M15535547 12087406 L15535547 12022092 "/>
<path d="M15535547 12054749 L15421247 12054749 L15437575 12043863 L15448461 12032977 L15453904 12022092 "/>
</g></g>
<g style="fill-opacity: 1.0;stroke-width: 0.100000;stroke-opacity: 1;stroke-linecap: round;stroke-linejoin: round">
<path style="fill-opacity: 1.0;stroke-width: 0.100000;stroke-opacity: 1;stroke-linecap: round;stroke-linejoin: round;fill-rule: evenodd" d="M 15113070.000000,10669041.700000 15114070.000000,10672041.700000 15114070.000000,10680832.800000 15113019.600000,10692387.200000 15109872.500000,10702877.700000 15106537.600000,10711770.500000 15099831.900000,10718476.300000 15093441.500000,10723801.600000 15085694.000000,10728228.800000 15076935.400000,10730418.400000 15067471.000000,10731470.000000 15060070.000000,10731470.000000 15060070.000000,10741565.000000 15054981.400000,10745381.400000 15052145.500000,10749162.600000 15048954.100000,10752354.100000 15045762.600000,10755545.500000 15041981.400000,10758381.400000 15039145.500000,10762162.600000 15035954.100000,10765354.100000 15026450.000000,10774858.200000 15026450.000000,10731470.000000 14910450.000000,10731470.000000 14910450.000000,10684850.000000 15026450.000000,10684850.000000 15026450.000000,10657850.000000 15060070.000000,10657850.000000 15060070.000000,10684850.000000 15067791.100000,10684850.000000 15070929.900000,10684065.300000 15072798.300000,10683131.100000 15074558.000000,10682544.600000 15074731.200000,10682198.100000 15076450.000000,10677041.700000 15076450.000000,10655850.000000 15113070.000000,10655850.000000 Z"/> 
<path style="fill-opacity: 1.0;stroke-width: 0.100000;stroke-opacity: 1;stroke-linecap: round;stroke-linejoin: round;fill-rule: evenodd" d="M 14989160.800000,11205060.000000 14976708.600000,11206443.600000 14968960.400000,11207412.100000 14958146.000000,11210115.700000 14939115.600000,11169676.000000 14955241.700000,11162956.800000 14969854.400000,11160869.300000 14987963.800000,11159575.700000 Z"/> 
<path style="fill-opacity: 1.0;stroke-width: 0.100000;stroke-opacity: 1;stroke-linecap: round;stroke-linejoin: round;fill-rule: evenodd" d="M 15003483.900000,11075586.100000 15002043.600000,11087108.600000 15001024.000000,11096285.400000 14998023.000000,11109789.700000 14970450.000000,11099285.700000 14970450.000000,11093760.600000 14971450.000000,11091760.500000 14971450.000000,11090041.700000 14972450.000000,11087041.700000 14972450.000000,11083041.700000 14973450.000000,11080041.700000 14973450.000000,11075760.600000 14976141.300000,11070377.900000 Z"/> 
<path style="fill-opacity: 1.0;stroke-width: 0.100000;stroke-opacity: 1;stroke-linecap: round;stroke-linejoin: round;fill-rule: evenodd" d="M 15063070.000000,10906081.800000 15063070.000000,10922193.600000 15060923.400000,10929706.700000 15058760.000000,10937278.500000 15054430.100000,10943773.400000 15050220.800000,10950087.300000 15044687.300000,10955620.800000 15042843.500000,10956850.000000 15061139.800000,10956850.000000 15058978.300000,10965495.700000 15057978.200000,10970496.100000 15056978.300000,10974495.700000 15056070.000000,10979037.200000 15056070.000000,10984129.000000 15054978.300000,10988495.700000 15053996.000000,10993407.200000 15052383.500000,11001470.000000 14910450.000000,11001470.000000 14910450.000000,10954850.000000 14986841.700000,10954850.000000 14995086.600000,10953017.800000 15008084.600000,10947447.200000 15013299.300000,10942232.500000 15016723.900000,10937095.700000 15018496.500000,10930005.200000 15019450.000000,10920469.900000 15019450.000000,10910559.500000 15018450.000000,10908559.400000 15018450.000000,10902850.000000 15059838.200000,10902850.000000 Z"/> 
<path style="fill-opacity: 1.0;stroke-width: 0.100000;stroke-opacity: 1;stroke-linecap: round;stroke-linejoin: round;fill-rule: evenodd" d="M 15060070.000000,10560470.000000 14982450.100000,10560470.000000 14972659.100000,10561449.100000 14963998.900000,10562411.300000 14957789.400000,10564185.500000 14953622.700000,10566685.500000 14949285.500000,10571022.700000 14946899.300000,10574999.700000 14946025.100000,10580245.000000 14945108.700000,10586660.000000 14946016.800000,10593016.500000 14946826.500000,10597065.300000 14949145.400000,10600157.200000 14952401.200000,10603413.000000 14956571.000000,10605080.900000 14962139.000000,10606936.900000 14968530.700000,10607850.000000 15060070.000000,10607850.000000 15060070.000000,10654470.000000 14955916.500000,10654470.000000 14944369.100000,10652370.500000 14933770.200000,10649190.800000 14923812.100000,10643658.500000 14917116.500000,10635847.000000 14911705.600000,10626107.300000 14908521.800000,10614433.600000 14906411.300000,10599660.000000 14907494.600000,10592077.300000 14908551.000000,10585738.800000 14910645.500000,10579455.200000 14912777.800000,10573058.400000 14916234.300000,10567297.600000 14921416.900000,10562114.900000 14923532.800000,10559470.000000 14910450.000000,10559470.000000 14910450.000000,10514850.000000 15060070.000000,10514850.000000 Z"/> 
<path style="fill-opacity: 1.0;stroke-width: 0.100000;stroke-opacity: 1;stroke-linecap: round;stroke-linejoin: round;fill-rule: evenodd" d="M 15014578.600000,10361863.300000 15026158.700000,10362916.000000 15036899.200000,10367212.200000 15046576.800000,10372588.600000 15053331.400000,10379343.200000 15058834.400000,10389248.700000 15062003.900000,10401926.600000 15064115.100000,10416704.800000 15063018.200000,10423286.400000 15061969.000000,10429581.200000 15059874.500000,10435864.800000 15057742.200000,10442261.600000 15054480.400000,10447698.000000 15050102.000000,10454265.600000 15046871.500000,10456850.000000 15060070.000000,10456850.000000 15060070.000000,10500264.200000 15038365.800000,10501470.000000 14910450.000000,10501470.000000 14910450.000000,10454850.000000 14997841.700000,10454850.000000 15006323.000000,10452965.300000 15012730.600000,10451134.500000 15017079.700000,10448525.100000 15021345.400000,10445112.500000 15023597.100000,10441359.600000 15025404.900000,10428705.000000 15023654.500000,10418202.700000 15021538.600000,10415381.400000 15018130.800000,10412825.600000 15013658.700000,10410142.300000 15008381.000000,10408383.100000 15001989.300000,10407470.000000 14910450.000000,10407470.000000 14910450.000000,10360850.000000 15001406.300000,10360850.000000 Z"/> 
<path style="fill-opacity: 1.0;stroke-width: 0.100000;stroke-opacity: 1;stroke-linecap: round;stroke-linejoin: round;fill-rule: evenodd" d="M 14918159.500000,11011850.000000 14919159.400000,11011850.000000 14921159.500000,11012850.000000 14922159.400000,11012850.000000 14924159.500000,11013850.000000 14928159.400000,11013850.000000 14930159.500000,11014850.000000 15019575.300000,11014850.000000 15025886.400000,11015901.800000 15032451.500000,11016996.000000 15036822.500000,11019181.500000 15042401.100000,11021412.900000 15045954.100000,11024965.900000 15050145.500000,11029157.400000 15053514.100000,11033648.800000 15055738.600000,11038097.900000 15057893.500000,11043485.100000 15058920.600000,11047593.500000 15060949.500000,11053680.200000 15062070.000000,11059282.700000 15062070.000000,11064344.400000 15063070.000000,11070344.700000 15063070.000000,11092975.300000 15062018.200000,11099286.400000 15059950.500000,11111692.600000 15057797.500000,11117075.000000 15055684.100000,11122358.400000 15052425.900000,11127788.800000 15049308.000000,11131946.000000 15046145.500000,11136162.600000 15041762.600000,11140545.500000 15037388.800000,11143825.900000 15031861.600000,11147142.200000 15025239.800000,11149349.500000 15019903.500000,11150416.800000 15008450.000000,11152053.000000 15008450.000000,11104850.000000 15014360.500000,11104850.000000 15016360.600000,11103850.000000 15019360.500000,11103850.000000 15022003.100000,11102528.700000 15027128.700000,11097403.100000 15028450.000000,11094760.500000 15028450.000000,11093041.700000 15029450.000000,11090041.700000 15029450.000000,11085041.700000 15030146.500000,11082952.300000 15029450.000000,11081559.400000 15029450.000000,11074559.500000 15028450.000000,11072559.400000 15028450.000000,11070559.500000 15026128.700000,11065916.900000 15024003.100000,11063791.300000 15021360.500000,11062470.000000 15019641.700000,11062470.000000 15016641.700000,11061470.000000 15014637.200000,11061470.000000 15010854.700000,11062226.500000 15007981.400000,11064381.400000 15005679.000000,11067451.400000 15003983.100000,11072539.000000 15002467.300000,11083149.400000 14974450.000000,11077812.800000 14974450.000000,11068760.600000 14975852.200000,11065956.100000 14976450.000000,11064760.500000 14976450.000000,11062081.800000 14977061.800000,11061470.000000 14966159.500000,11061470.000000 14964159.400000,11062470.000000 14961159.500000,11062470.000000 14959159.400000,11063470.000000 14955878.300000,11063470.000000 14954318.200000,11063990.000000 14952318.100000,11065990.100000 14949318.100000,11066990.100000 14945220.700000,11071087.500000 14943796.100000,11073224.300000 14941070.000000,11084128.900000 14941070.000000,11097760.500000 14942070.000000,11099760.600000 14942070.000000,11101760.500000 14942391.300000,11102403.100000 14943391.300000,11103403.100000 14944391.300000,11105403.100000 14946516.900000,11107528.700000 14947159.500000,11107850.000000 14947878.300000,11107850.000000 14950878.300000,11108850.000000 14953159.400000,11108850.000000 14954552.300000,11109546.500000 14956641.700000,11108850.000000 14960360.500000,11108850.000000 14963003.100000,11107528.700000 14966128.700000,11104403.100000 14972394.200000,11091872.100000 14999411.600000,11102164.500000 14998018.300000,11113311.000000 14995921.300000,11122747.500000 14992719.900000,11131284.500000 14988314.900000,11138993.300000 14981731.100000,11145577.000000 14974008.300000,11151093.300000 14964045.300000,11154414.300000 14952432.800000,11155470.000000 14946882.700000,11155470.000000 14941423.900000,11154378.200000 14937335.900000,11153356.200000 14932930.200000,11152254.800000 14928248.800000,11149914.100000 14923757.400000,11146545.500000 14920565.900000,11143354.100000 14917299.200000,11140087.300000 14914958.300000,11136576.000000 14912852.200000,11132363.900000 14910665.200000,11127989.800000 14909665.300000,11123990.100000 14907450.000000,11119559.400000 14907450.000000,11114037.200000 14906450.000000,11109037.300000 14906450.000000,11100041.700000 14907450.000000,11097041.700000 14907450.000000,11090041.700000 14908450.000000,11087041.700000 14908450.000000,11084041.700000 14909599.400000,11080593.500000 14910599.200000,11076594.000000 14911806.900000,11072971.100000 14913958.100000,11069744.300000 14914958.300000,11067744.000000 14916806.800000,11064971.200000 14917806.900000,11061971.100000 14919474.300000,11059470.000000 14917681.800000,11059470.000000 14916681.800000,11058470.000000 14915681.800000,11058470.000000 14914681.800000,11057470.000000 14910450.000000,11057470.000000 14910450.000000,11010850.000000 14916159.400000,11010850.000000 Z"/> 
<path style="fill-opacity: 1.0;stroke-width: 0.100000;stroke-opacity: 1;stroke-linecap: round;stroke-linejoin: round;fill-rule: evenodd" d="M 14970152.900000,11319925.800000 14979008.500000,11323246.600000 14985833.200000,11327796.400000 14991401.600000,11334478.500000 14995676.100000,11341958.900000 14998796.600000,11349239.900000 15001921.300000,11357572.500000 15003968.900000,11366786.700000 15006012.000000,11374959.100000 15007004.200000,11382896.000000 15010900.600000,11396533.500000 15012679.000000,11401868.600000 15014981.400000,11404938.600000 15017854.700000,11407093.500000 15021167.100000,11407756.000000 15024193.500000,11406999.400000 15025815.000000,11406458.900000 15028806.800000,11401971.200000 15029450.000000,11400041.700000 15029450.000000,11396041.700000 15030450.000000,11393041.700000 15030450.000000,11385037.200000 15029541.700000,11380495.700000 15028665.300000,11376990.100000 15027128.700000,11373916.900000 15022312.000000,11369100.200000 15019424.300000,11368378.300000 15011450.000000,11366783.500000 15011450.000000,11322094.800000 15027318.900000,11324980.100000 15038279.200000,11329364.200000 15047068.900000,11337055.100000 15053464.200000,11345582.200000 15058790.800000,11355170.200000 15062019.600000,11365932.800000 15063054.400000,11377315.100000 15064084.400000,11388645.600000 15063055.600000,11400990.700000 15062019.600000,11412387.200000 15058790.800000,11423149.800000 15053464.200000,11432737.800000 15047057.100000,11441280.600000 15039260.600000,11447963.200000 15028270.200000,11452359.400000 15014314.400000,11454506.500000 15005342.300000,11453384.900000 14996149.500000,11449937.600000 14990565.900000,11444354.100000 14985205.100000,11438993.300000 14980800.100000,11431284.500000 14977616.400000,11422794.600000 14975616.500000,11414794.800000 14972584.400000,11406709.300000 14970532.300000,11396448.700000 14968565.300000,11387597.000000 14964734.500000,11374189.400000 14962234.500000,11370022.700000 14959832.500000,11367620.700000 14957695.700000,11366196.100000 14954791.100000,11365470.000000 14951159.500000,11365470.000000 14948516.900000,11366791.300000 14943700.200000,11371608.000000 14942893.500000,11374834.900000 14941070.000000,11379393.700000 14941070.000000,11383129.000000 14940148.500000,11386815.100000 14941008.400000,11391974.800000 14941927.400000,11396569.700000 14945610.400000,11405777.100000 14947667.000000,11408519.300000 14951822.100000,11410181.400000 14955451.400000,11411996.000000 14964070.000000,11413432.400000 14964070.000000,11458157.600000 14947287.600000,11455360.500000 14935394.300000,11451035.600000 14925518.100000,11443354.200000 14919005.900000,11434671.200000 14913754.300000,11424167.900000 14909559.500000,11412632.400000 14907450.000000,11399975.300000 14907450.000000,11375344.700000 14909559.500000,11362687.600000 14913754.300000,11351152.100000 14919005.900000,11340648.800000 14925603.600000,11331851.900000 14935344.000000,11325358.300000 14946223.700000,11319918.500000 14960324.800000,11318833.800000 Z"/> 
<path style="fill-opacity: 1.0;stroke-width: 0.100000;stroke-opacity: 1;stroke-linecap: round;stroke-linejoin: round;fill-rule: evenodd" d="M 15013349.600000,11162997.000000 15026914.400000,11168214.200000 15039605.500000,11175617.400000 15049249.800000,11185261.700000 15056679.100000,11196936.300000 15061982.900000,11210726.200000 15064109.500000,11227738.500000 15063018.200000,11234286.400000 15062018.200000,11240286.400000 15060924.000000,11246851.500000 15057602.300000,11253494.800000 15054527.000000,11258620.200000 15051174.800000,11264207.400000 15049121.500000,11265850.000000 15060907.500000,11265850.000000 15058978.200000,11275496.100000 15057978.300000,11279495.700000 15056070.000000,11289037.200000 15056070.000000,11293037.300000 15054978.200000,11298496.100000 15053978.300000,11302495.700000 15052383.500000,11310470.000000 14863681.800000,11310470.000000 14857416.700000,11304204.900000 14853416.900000,11299205.100000 14844416.700000,11290204.900000 14840284.900000,11285040.100000 14836416.900000,11280205.100000 14831416.700000,11275204.900000 14822332.800000,11263850.000000 14922061.800000,11263850.000000 14920416.700000,11262204.900000 14916124.800000,11256840.000000 14912777.800000,11251261.600000 14910645.500000,11244864.800000 14908551.000000,11238581.200000 14907450.000000,11231975.300000 14907450.000000,11225533.100000 14908496.800000,11209830.800000 14913871.300000,11195857.100000 14921330.000000,11185201.800000 14930861.700000,11175670.200000 14945865.000000,11166122.600000 14965105.500000,11207008.700000 14951007.400000,11216407.400000 14947624.000000,11221482.500000 14944984.400000,11227641.700000 14944093.400000,11235660.000000 14944984.400000,11243678.300000 14947624.000000,11249837.500000 14951007.400000,11254912.600000 14961824.300000,11262123.900000 14976728.900000,11265850.000000 14992791.100000,11265850.000000 15008039.900000,11262037.800000 15014248.000000,11259377.200000 15019396.400000,11255086.800000 15022896.000000,11249837.500000 15025535.600000,11243678.300000 15026423.600000,11235686.400000 15025546.100000,11228666.100000 15022896.000000,11222482.500000 15019396.400000,11217233.100000 15014248.000000,11212942.800000 15007840.900000,11210196.900000 15000342.400000,11207385.000000 14992787.400000,11206440.600000 14981537.500000,11205034.300000 14980348.400000,11159850.000000 14998663.600000,11159850.000000 Z"/> 
<path style="fill-opacity: 1.0;stroke-width: 0.100000;stroke-opacity: 1;stroke-linecap: round;stroke-linejoin: round;fill-rule: evenodd" d="M 15003731.900000,10805758.100000 15060070.000000,10748336.500000 15060070.000000,10805283.000000 15014724.700000,10848850.000000 15116868.200000,10848850.000000 15090456.700000,10894470.000000 14910450.000000,10894470.000000 14910450.000000,10848850.000000 14961681.800000,10848850.000000 14972139.700000,10838392.100000 14910450.000000,10800799.900000 14910450.000000,10744606.600000 Z"/> 
</g>
<g style="fill-opacity: 0.0;stroke-width: 20320.000000;stroke-opacity: 1;stroke-linecap: round;stroke-linejoin: round">
<path d="M14215110 10309860 L14278610 10373360 "/>
<path d="M14469110 9928860 L14405610 9865360 "/>
<path d="M14278610 11135360 L14215110 11198860 "/>
<path d="M14469110 9801860 L14469110 9674860 "/>
<path d="M14469110 10436860 L14405610 10373360 "/>
<path d="M14215110 10436860 L14215110 10563860 "/>
<path d="M14215110 9420860 L14215110 9547860 "/>
<path d="M14469110 9801860 L14405610 9865360 "/>
<path d="M14215110 9674860 L14215110 9801860 "/>
<path d="M14278610 9357360 L14215110 9420860 "/>
<path d="M14278610 9865360 L14215110 9801860 "/>
<path d="M14405610 11389360 L14278610 11389360 "/>
<path d="M14278610 9611360 L14215110 9674860 "/>
<path d="M14215110 11198860 L14215110 11325860 "/>
<path d="M14469110 9547860 L14405610 9611360 "/>
<path d="M14278610 10119360 L14215110 10182860 "/>
<path d="M14215110 10817860 L14278610 10881360 "/>
<path d="M14215110 10055860 L14278610 10119360 "/>
<path d="M14469110 10055860 L14469110 9928860 "/>
<path d="M14469110 10563860 L14405610 10627360 "/>
<path d="M14278610 10373360 L14215110 10436860 "/>
<path d="M14469110 11325860 L14405610 11389360 "/>
<path d="M14278610 10627360 L14215110 10563860 "/>
<path d="M14405610 10373360 L14469110 10309860 "/>
<path d="M14405610 10119360 L14469110 10055860 "/>
<path d="M14469110 11198860 L14405610 11135360 "/>
<path d="M14469110 9547860 L14469110 9420860 "/>
<path d="M14278610 10627360 L14215110 10690860 "/>
<path d="M14405610 9357360 L14278610 9357360 "/>
<path d="M14405610 11135360 L14469110 11071860 "/>
<path d="M14469110 10182860 L14405610 10119360 "/>
<path d="M14278610 10881360 L14215110 10944860 "/>
<path d="M14215110 11071860 L14278610 11135360 "/>
<path d="M14469110 10690860 L14405610 10627360 "/>
<path d="M14278610 9865360 L14215110 9928860 "/>
<path d="M14469110 11325860 L14469110 11198860 "/>
<path d="M14215110 10690860 L14215110 10817860 "/>
<path d="M14405610 10881360 L14469110 10817860 "/>
<path d="M14215110 9928860 L14215110 10055860 "/>
<path d="M14469110 10817860 L14469110 10690860 "/>
<path d="M14469110 10309860 L14469110 10182860 "/>
<path d="M14469110 10563860 L14469110 10436860 "/>
<path d="M14469110 11071860 L14469110 10944860 "/>
<path d="M14469110 9420860 L14405610 9357360 "/>
<path d="M14469110 9674860 L14405610 9611360 "/>
<path d="M14278610 9611360 L14215110 9547860 "/>
<path d="M14215110 10944860 L14215110 11071860 "/>
<path d="M14278610 11389360 L14215110 11325860 "/>
<path d="M14469110 10944860 L14405610 10881360 "/>
<path d="M14215110 10182860 L14215110 10309860 "/>
<path d="M15485110 9547860 L15485110 9420860 "/>
<path d="M15294610 11897360 L15231110 11833860 "/>
<path d="M15231110 10182860 L15231110 10309860 "/>
<path d="M15485110 10182860 L15421610 10119360 "/>
<path d="M15485110 9674860 L15421610 9611360 "/>
<path d="M15485110 11071860 L15485110 10944860 "/>
<path d="M15294610 10119360 L15231110 10055860 "/>
<path d="M15485110 9801860 L15421610 9865360 "/>
<path d="M15231110 11325860 L15294610 11389360 "/>
<path d="M15421610 11897360 L15294610 11897360 "/>
<path d="M15485110 11325860 L15485110 11198860 "/>
<path d="M15294610 9865360 L15231110 9928860 "/>
<path d="M15485110 10944860 L15421610 10881360 "/>
<path d="M15421610 9103360 L15294610 9103360 "/>
<path d="M15485110 9547860 L15421610 9611360 "/>
<path d="M15485110 11706860 L15421610 11643360 "/>
<path d="M15294610 9611360 L15231110 9674860 "/>
<path d="M15231110 10563860 L15294610 10627360 "/>
<path d="M15231110 9674860 L15231110 9801860 "/>
<path d="M15485110 10690860 L15421610 10627360 "/>
<path d="M15231110 10944860 L15231110 11071860 "/>
<path d="M15485110 11833860 L15485110 11706860 "/>
<path d="M15294610 9103360 L15231110 9166860 "/>
<path d="M15485110 9293860 L15485110 9166860 "/>
<path d="M15231110 11579860 L15294610 11643360 "/>
<path d="M15231110 10817860 L15294610 10881360 "/>
<path d="M15294610 9611360 L15231110 9547860 "/>
<path d="M15485110 10436860 L15421610 10373360 "/>
<path d="M15485110 10563860 L15485110 10436860 "/>
<path d="M15485110 10817860 L15485110 10690860 "/>
<path d="M15294610 9357360 L15231110 9420860 "/>
<path d="M15421610 11643360 L15485110 11579860 "/>
<path d="M15485110 10055860 L15421610 10119360 "/>
<path d="M15231110 11706860 L15231110 11833860 "/>
<path d="M15421610 11389360 L15485110 11325860 "/>
<path d="M15294610 9357360 L15231110 9293860 "/>
<path d="M15485110 9166860 L15421610 9103360 "/>
<path d="M15231110 11198860 L15231110 11325860 "/>
<path d="M15294610 10373360 L15231110 10436860 "/>
<path d="M15485110 10309860 L15485110 10182860 "/>
<path d="M15294610 10627360 L15231110 10690860 "/>
<path d="M15421610 10627360 L15485110 10563860 "/>
<path d="M15421610 10881360 L15485110 10817860 "/>
<path d="M15231110 10436860 L15231110 10563860 "/>
<path d="M15294610 9865360 L15231110 9801860 "/>
<path d="M15485110 11579860 L15485110 11452860 "/>
<path d="M15485110 11198860 L15421610 11135360 "/>
<path d="M15294610 10881360 L15231110 10944860 "/>
<path d="M15485110 10055860 L15485110 9928860 "/>
<path d="M15294610 11135360 L15231110 11071860 "/>
<path d="M15231110 10690860 L15231110 10817860 "/>
<path d="M15294610 11389360 L15231110 11452860 "/>
<path d="M15231110 9420860 L15231110 9547860 "/>
<path d="M15231110 9166860 L15231110 9293860 "/>
<path d="M15294610 10373360 L15231110 10309860 "/>
<path d="M15485110 9420860 L15421610 9357360 "/>
<path d="M15485110 9928860 L15421610 9865360 "/>
<path d="M15485110 9293860 L15421610 9357360 "/>
<path d="M15294610 11135360 L15231110 11198860 "/>
<path d="M15231110 9928860 L15231110 10055860 "/>
<path d="M15485110 11452860 L15421610 11389360 "/>
<path d="M15294610 10119360 L15231110 10182860 "/>
<path d="M15294610 11643360 L15231110 11706860 "/>
<path d="M15485110 9801860 L15485110 9674860 "/>
<path d="M15485110 11833860 L15421610 11897360 "/>
<path d="M15485110 11071860 L15421610 11135360 "/>
<path d="M15485110 10309860 L15421610 10373360 "/>
<path d="M15231110 11452860 L15231110 11579860 "/>
</g> 
</g><g id="substrate-outline" style="fill:#000000; stroke:#000000; stroke-width: 15000.0"><g style="fill-opacity: 0.0;stroke-opacity: 1;stroke-linecap: round;stroke-linejoin: round">
<path d="M14215110 9103360 L14215110 11897360 "/>
<path d="M15485110 11897360 L15485110 9103360 "/>
<path d="M15485110 9103360 L14215110 9103360 "/>
<path d="M14215110 11897360 L15485110 11897360 "/>
</g> 
<path d="M -165100.0 0.0 A 165100.0 165100.0 0 1 1 165100.0 0.0 L 165100.0 -0.0 A 165100.0 165100.0 0 1 1 -165100.0 -0.0 Z" transform="translate(14850110.0 11643360.0) rotate(-0.0)"/><path d="M -165100.0 0.0 A 165100.0 165100.0 0 1 1 165100.0 0.0 L 165100.0 -0.0 A 165100.0 165100.0 0 1 1 -165100.0 -0.0 Z" transform="translate(14850110.0 9357360.0) rotate(-0.0)"/><path d="M -50800.0 0.0 A 50800.0 50800.0 0 1 1 50800.0 0.0 L 50800.0 -0.0 A 50800.0 50800.0 0 1 1 -50800.0 -0.0 Z" transform="translate(14342110.0 11262360.0) rotate(-0.0)"/><path d="M -50800.0 0.0 A 50800.0 50800.0 0 1 1 50800.0 0.0 L 50800.0 -0.0 A 50800.0 50800.0 0 1 1 -50800.0 -0.0 Z" transform="translate(14342110.0 11008360.0) rotate(-0.0)"/><path d="M -50800.0 0.0 A 50800.0 50800.0 0 1 1 50800.0 0.0 L 50800.0 -0.0 A 50800.0 50800.0 0 1 1 -50800.0 -0.0 Z" transform="translate(14342110.0 10754360.0) rotate(-0.0)"/><path d="M -50800.0 0.0 A 50800.0 50800.0 0 1 1 50800.0 0.0 L 50800.0 -0.0 A 50800.0 50800.0 0 1 1 -50800.0 -0.0 Z" transform="translate(14342110.0 10500360.0) rotate(-0.0)"/><path d="M -50800.0 0.0 A 50800.0 50800.0 0 1 1 50800.0 0.0 L 50800.0 -0.0 A 50800.0 50800.0 0 1 1 -50800.0 -0.0 Z" transform="translate(14342110.0 10246360.0) rotate(-0.0)"/><path d="M -50800.0 0.0 A 50800.0 50800.0 0 1 1 50800.0 0.0 L 50800.0 -0.0 A 50800.0 50800.0 0 1 1 -50800.0 -0.0 Z" transform="translate(14342110.0 9992360.0) rotate(-0.0)"/><path d="M -50800.0 0.0 A 50800.0 50800.0 0 1 1 50800.0 0.0 L 50800.0 -0.0 A 50800.0 50800.0 0 1 1 -50800.0 -0.0 Z" transform="translate(14342110.0 9738360.0) rotate(-0.0)"/><path d="M -50800.0 0.0 A 50800.0 50800.0 0 1 1 50800.0 0.0 L 50800.0 -0.0 A 50800.0 50800.0 0 1 1 -50800.0 -0.0 Z" transform="translate(14342110.0 9484360.0) rotate(-0.0)"/><path d="M -50800.0 0.0 A 50800.0 50800.0 0 1 1 50800.0 0.0 L 50800.0 -0.0 A 50800.0 50800.0 0 1 1 -50800.0 -0.0 Z" transform="translate(15358110.0 11770360.0) rotate(-0.0)"/><path d="M -50800.0 0.0 A 50800.0 50800.0 0 1 1 50800.0 0.0 L 50800.0 -0.0 A 50800.0 50800.0 0 1 1 -50800.0 -0.0 Z" transform="translate(15358110.0 11516360.0) rotate(-0.0)"/><path d="M -50800.0 0.0 A 50800.0 50800.0 0 1 1 50800.0 0.0 L 50800.0 -0.0 A 50800.0 50800.0 0 1 1 -50800.0 -0.0 Z" transform="translate(15358110.0 11262360.0) rotate(-0.0)"/><path d="M -50800.0 0.0 A 50800.0 50800.0 0 1 1 50800.0 0.0 L 50800.0 -0.0 A 50800.0 50800.0 0 1 1 -50800.0 -0.0 Z" transform="translate(15358110.0 11008360.0) rotate(-0.0)"/><path d="M -50800.0 0.0 A 50800.0 50800.0 0 1 1 50800.0 0.0 L 50800.0 -0.0 A 50800.0 50800.0 0 1 1 -50800.0 -0.0 Z" transform="translate(15358110.0 10754360.0) rotate(-0.0)"/><path d="M -50800.0 0.0 A 50800.0 50800.0 0 1 1 50800.0 0.0 L 50800.0 -0.0 A 50800.0 50800.0 0 1 1 -50800.0 -0.0 Z" transform="translate(15358110.0 10500360.0) rotate(-0.0)"/><path d="M -50800.0 0.0 A 50800.0 50800.0 0 1 1 50800.0 0.0 L 50800.0 -0.0 A 50800.0 50800.0 0 1 1 -50800.0 -0.0 Z" transform="translate(15358110.0 10246360.0) rotate(-0.0)"/><path d="M -50800.0 0.0 A 50800.0 50800.0 0 1 1 50800.0 0.0 L 50800.0 -0.0 A 50800.0 50800.0 0 1 1 -50800.0 -0.0 Z" transform="translate(15358110.0 9992360.0) rotate(-0.0)"/><path d="M -50800.0 0.0 A 50800.0 50800.0 0 1 1 50800.0 0.0 L 50800.0 -0.0 A 50800.0 50800.0 0 1 1 -50800.0 -0.0 Z" transform="translate(15358110.0 9738360.0) rotate(-0.0)"/><path d="M -50800.0 0.0 A 50800.0 50800.0 0 1 1 50800.0 0.0 L 50800.0 -0.0 A 50800.0 50800.0 0 1 1 -50800.0 -0.0 Z" transform="translate(15358110.0 9484360.0) rotate(-0.0)"/><path d="M -50800.0 0.0 A 50800.0 50800.0 0 1 1 50800.0 0.0 L 50800.0 -0.0 A 50800.0 50800.0 0 1 1 -50800.0 -0.0 Z" transform="translate(15358110.0 9230360.0) rotate(-0.0)"/><path d="M -19050.0 0.0 A 19050.0 19050.0 0 1 1 19050.0 0.0 L 19050.0 -0.0 A 19050.0 19050.0 0 1 1 -19050.0 -0.0 Z" transform="translate(15078710.0 9738360.0) rotate(0.0)"/><path d="M -19050.0 0.0 A 19050.0 19050.0 0 1 1 19050.0 0.0 L 19050.0 -0.0 A 19050.0 19050.0 0 1 1 -19050.0 -0.0 Z" transform="translate(15109190.0 10104120.0) rotate(0.0)"/><path d="M -19050.0 0.0 A 19050.0 19050.0 0 1 1 19050.0 0.0 L 19050.0 -0.0 A 19050.0 19050.0 0 1 1 -19050.0 -0.0 Z" transform="translate(15165070.0 10668000.0) rotate(0.0)"/><path d="M -19050.0 0.0 A 19050.0 19050.0 0 1 1 19050.0 0.0 L 19050.0 -0.0 A 19050.0 19050.0 0 1 1 -19050.0 -0.0 Z" transform="translate(14677390.0 11244580.0) rotate(0.0)"/><path d="M -19050.0 0.0 A 19050.0 19050.0 0 1 1 19050.0 0.0 L 19050.0 -0.0 A 19050.0 19050.0 0 1 1 -19050.0 -0.0 Z" transform="translate(14809470.0 10787380.0) rotate(0.0)"/><path d="M -19050.0 0.0 A 19050.0 19050.0 0 1 1 19050.0 0.0 L 19050.0 -0.0 A 19050.0 19050.0 0 1 1 -19050.0 -0.0 Z" transform="translate(15132050.0 10914380.0) rotate(0.0)"/><path d="M -19050.0 0.0 A 19050.0 19050.0 0 1 1 19050.0 0.0 L 19050.0 -0.0 A 19050.0 19050.0 0 1 1 -19050.0 -0.0 Z" transform="translate(14591030.0 10060940.0) rotate(0.0)"/><path d="M -19050.0 0.0 A 19050.0 19050.0 0 1 1 19050.0 0.0 L 19050.0 -0.0 A 19050.0 19050.0 0 1 1 -19050.0 -0.0 Z" transform="translate(14569440.0 10201910.0) rotate(0.0)"/><path d="M -19050.0 0.0 A 19050.0 19050.0 0 1 1 19050.0 0.0 L 19050.0 -0.0 A 19050.0 19050.0 0 1 1 -19050.0 -0.0 Z" transform="translate(14547850.0 10347960.0) rotate(0.0)"/><path d="M -19050.0 0.0 A 19050.0 19050.0 0 1 1 19050.0 0.0 L 19050.0 -0.0 A 19050.0 19050.0 0 1 1 -19050.0 -0.0 Z" transform="translate(14659610.0 10246360.0) rotate(0.0)"/><path d="M -19050.0 0.0 A 19050.0 19050.0 0 1 1 19050.0 0.0 L 19050.0 -0.0 A 19050.0 19050.0 0 1 1 -19050.0 -0.0 Z" transform="translate(14573250.0 10482580.0) rotate(0.0)"/><path d="M -19050.0 0.0 A 19050.0 19050.0 0 1 1 19050.0 0.0 L 19050.0 -0.0 A 19050.0 19050.0 0 1 1 -19050.0 -0.0 Z" transform="translate(14761210.0 10246360.0) rotate(0.0)"/><path d="M -19050.0 0.0 A 19050.0 19050.0 0 1 1 19050.0 0.0 L 19050.0 -0.0 A 19050.0 19050.0 0 1 1 -19050.0 -0.0 Z" transform="translate(15121890.0 10406380.0) rotate(0.0)"/><path d="M -19050.0 0.0 A 19050.0 19050.0 0 1 1 19050.0 0.0 L 19050.0 -0.0 A 19050.0 19050.0 0 1 1 -19050.0 -0.0 Z" transform="translate(15129910.0 10500760.0) rotate(0.0)"/><path d="M -19050.0 0.0 A 19050.0 19050.0 0 1 1 19050.0 0.0 L 19050.0 -0.0 A 19050.0 19050.0 0 1 1 -19050.0 -0.0 Z" transform="translate(14537690.0 10652760.0) rotate(0.0)"/><path d="M -19050.0 0.0 A 19050.0 19050.0 0 1 1 19050.0 0.0 L 19050.0 -0.0 A 19050.0 19050.0 0 1 1 -19050.0 -0.0 Z" transform="translate(14585950.0 10972800.0) rotate(0.0)"/><path d="M -19050.0 0.0 A 19050.0 19050.0 0 1 1 19050.0 0.0 L 19050.0 -0.0 A 19050.0 19050.0 0 1 1 -19050.0 -0.0 Z" transform="translate(15025370.0 10739120.0) rotate(0.0)"/><path d="M -19050.0 0.0 A 19050.0 19050.0 0 1 1 19050.0 0.0 L 19050.0 -0.0 A 19050.0 19050.0 0 1 1 -19050.0 -0.0 Z" transform="translate(14908530.0 10820400.0) rotate(0.0)"/></g></g></g></svg>