<!DOCTYPE svg PUBLIC "-//W3C//DTD SVG 1.1//EN" "http://www.w3.org/Graphics/SVG/1.1/DTD/svg11.dtd">
<svg xmlns="http://www.w3.org/2000/svg" version="1.1" width="27.4mm" height="27.4mm" viewBox="-162201100.0 91303600.0 27400000.0 27400000.0">
            <title>Picture generated by PcbDraw </title>
            <desc>Picture generated by PcbDraw</desc>
        <defs><clipPath id="cut-off"><path d=" M 135801100.0 117703600.0 L 135801100.0 92303600.0 L 161201100.0 92303600.0 L 161201100.0 117703600.0 L 135801100.0 117703600.0 " style="fill-rule: evenodd;"/></clipPath><mask id="pads-mask"><g style="fill:#ffffff; fill-opacity:0.0;  stroke:#ffffff; stroke-width:0.000000; stroke-opacity:1;  stroke-linecap:round; stroke-linejoin:round;">
<g style="fill:#ffffff; fill-opacity:1.0;  stroke:#ffffff; stroke-width:1.000000; stroke-opacity:1;  stroke-linecap:round; stroke-linejoin:round;">
<circle cx="138341100.000000" cy="94843600.000000" r="1651000.000000"/> 
</g>
<g style="fill:#ffffff; fill-opacity:1.0;  stroke:#ffffff; stroke-width:1.000000; stroke-opacity:1;  stroke-linecap:round; stroke-linejoin:round;">
<circle cx="142151100.000000" cy="116433600.000000" r="1041400.000000"/> 
</g>
<g style="fill:#ffffff; fill-opacity:1.0;  stroke:#ffffff; stroke-width:1.000000; stroke-opacity:1;  stroke-linecap:round; stroke-linejoin:round;">
<circle cx="144691100.000000" cy="116433600.000000" r="1041400.000000"/> 
</g>
<g style="fill:#ffffff; fill-opacity:1.0;  stroke:#ffffff; stroke-width:1.000000; stroke-opacity:1;  stroke-linecap:round; stroke-linejoin:round;">
<circle cx="147231100.000000" cy="116433600.000000" r="1041400.000000"/> 
</g>
<g style="fill:#ffffff; fill-opacity:1.0;  stroke:#ffffff; stroke-width:1.000000; stroke-opacity:1;  stroke-linecap:round; stroke-linejoin:round;">
<circle cx="149771100.000000" cy="116433600.000000" r="1041400.000000"/> 
</g>
<g style="fill:#ffffff; fill-opacity:1.0;  stroke:#ffffff; stroke-width:1.000000; stroke-opacity:1;  stroke-linecap:round; stroke-linejoin:round;">
<circle cx="154851100.000000" cy="116433600.000000" r="1041400.000000"/> 
</g>
<g style="fill:#ffffff; fill-opacity:1.0;  stroke:#ffffff; stroke-width:1.000000; stroke-opacity:1;  stroke-linecap:round; stroke-linejoin:round;">
<circle cx="152311100.000000" cy="116433600.000000" r="1041400.000000"/> 
</g>
<g style="fill:#ffffff; fill-opacity:1.0;  stroke:#ffffff; stroke-width:1.000000; stroke-opacity:1;  stroke-linecap:round; stroke-linejoin:round;">
<circle cx="158661100.000000" cy="94843600.000000" r="1651000.000000"/> 
</g>
<g style="fill:#ffffff; fill-opacity:1.0;  stroke:#ffffff; stroke-width:1.000000; stroke-opacity:1;  stroke-linecap:round; stroke-linejoin:round;">
<path style="fill:#ffffff; fill-opacity:1.0;  stroke:#ffffff; stroke-width:1.000000; stroke-opacity:1;  stroke-linecap:round; stroke-linejoin:round;fill-rule:evenodd;" d="M 149370200.000000,111353600.000000 149362466.000000,111392481.000000 149340442.000000,111425442.000000 149307481.000000,111447466.000000 149268600.000000,111455200.000000 148633600.000000,111455200.000000 148594719.000000,111447466.000000 148561758.000000,111425442.000000 148539734.000000,111392481.000000 148532000.000000,111353600.000000 148532000.000000,110083600.000000 148539734.000000,110044719.000000 148561758.000000,110011758.000000 148594719.000000,109989734.000000 148633600.000000,109982000.000000 149268600.000000,109982000.000000 149307481.000000,109989734.000000 149340442.000000,110011758.000000 149362466.000000,110044719.000000 149370200.000000,110083600.000000 Z"/> 
<path style="fill:#ffffff; fill-opacity:1.0;  stroke:#ffffff; stroke-width:1.000000; stroke-opacity:1;  stroke-linecap:round; stroke-linejoin:round;fill-rule:evenodd;" d="M 148470200.000000,111353600.000000 148462466.000000,111392481.000000 148440442.000000,111425442.000000 148407481.000000,111447466.000000 148368600.000000,111455200.000000 147733600.000000,111455200.000000 147694719.000000,111447466.000000 147661758.000000,111425442.000000 147639734.000000,111392481.000000 147632000.000000,111353600.000000 147632000.000000,110083600.000000 147639734.000000,110044719.000000 147661758.000000,110011758.000000 147694719.000000,109989734.000000 147733600.000000,109982000.000000 148368600.000000,109982000.000000 148407481.000000,109989734.000000 148440442.000000,110011758.000000 148462466.000000,110044719.000000 148470200.000000,110083600.000000 Z"/> 
</g>
<g style="fill:#ffffff; fill-opacity:1.0;  stroke:#ffffff; stroke-width:1.000000; stroke-opacity:1;  stroke-linecap:round; stroke-linejoin:round;">
<path style="fill:#ffffff; fill-opacity:1.0;  stroke:#ffffff; stroke-width:1.000000; stroke-opacity:1;  stroke-linecap:round; stroke-linejoin:round;fill-rule:evenodd;" d="M 136982200.000000,93065600.000000 136961688.000000,93195109.000000 136902159.000000,93311941.000000 136809441.000000,93404659.000000 136692609.000000,93464188.000000 136563100.000000,93484700.000000 136433591.000000,93464188.000000 136316759.000000,93404659.000000 136224041.000000,93311941.000000 136164512.000000,93195109.000000 136144000.000000,93065600.000000 136164512.000000,92936091.000000 136224041.000000,92819259.000000 136316759.000000,92726541.000000 136433591.000000,92667012.000000 136563100.000000,92646500.000000 136692609.000000,92667012.000000 136809441.000000,92726541.000000 136902159.000000,92819259.000000 136961688.000000,92936091.000000 136982200.000000,93065600.000000 Z"/> 
</g>
<g style="fill:#ffffff; fill-opacity:1.0;  stroke:#ffffff; stroke-width:1.000000; stroke-opacity:1;  stroke-linecap:round; stroke-linejoin:round;">
<path style="fill:#ffffff; fill-opacity:1.0;  stroke:#ffffff; stroke-width:1.000000; stroke-opacity:1;  stroke-linecap:round; stroke-linejoin:round;fill-rule:evenodd;" d="M 160731200.000000,116814600.000000 160710688.000000,116944109.000000 160651159.000000,117060941.000000 160558441.000000,117153659.000000 160441609.000000,117213188.000000 160312100.000000,117233700.000000 160182591.000000,117213188.000000 160065759.000000,117153659.000000 159973041.000000,117060941.000000 159913512.000000,116944109.000000 159893000.000000,116814600.000000 159913512.000000,116685091.000000 159973041.000000,116568259.000000 160065759.000000,116475541.000000 160182591.000000,116416012.000000 160312100.000000,116395500.000000 160441609.000000,116416012.000000 160558441.000000,116475541.000000 160651159.000000,116568259.000000 160710688.000000,116685091.000000 160731200.000000,116814600.000000 Z"/> 
</g>
</g> 
</mask><mask id="pads-mask-silkscreen"><rect x="100241100" y="91986100" width="103273013" height="36127500" fill="white"/><g style="fill:#000000; fill-opacity:0.0;  stroke:#000000; stroke-width:0.000000; stroke-opacity:1;  stroke-linecap:round; stroke-linejoin:round;">
<g style="fill:#000000; fill-opacity:1.0;  stroke:#000000; stroke-width:1.000000; stroke-opacity:1;  stroke-linecap:round; stroke-linejoin:round;">
<circle cx="138341100.000000" cy="94843600.000000" r="1651000.000000"/> 
</g>
<g style="fill:#000000; fill-opacity:1.0;  stroke:#000000; stroke-width:1.000000; stroke-opacity:1;  stroke-linecap:round; stroke-linejoin:round;">
<circle cx="142151100.000000" cy="116433600.000000" r="1041400.000000"/> 
</g>
<g style="fill:#000000; fill-opacity:1.0;  stroke:#000000; stroke-width:1.000000; stroke-opacity:1;  stroke-linecap:round; stroke-linejoin:round;">
<circle cx="144691100.000000" cy="116433600.000000" r="1041400.000000"/> 
</g>
<g style="fill:#000000; fill-opacity:1.0;  stroke:#000000; stroke-width:1.000000; stroke-opacity:1;  stroke-linecap:round; stroke-linejoin:round;">
<circle cx="147231100.000000" cy="116433600.000000" r="1041400.000000"/> 
</g>
<g style="fill:#000000; fill-opacity:1.0;  stroke:#000000; stroke-width:1.000000; stroke-opacity:1;  stroke-linecap:round; stroke-linejoin:round;">
<circle cx="149771100.000000" cy="116433600.000000" r="1041400.000000"/> 
</g>
<g style="fill:#000000; fill-opacity:1.0;  stroke:#000000; stroke-width:1.000000; stroke-opacity:1;  stroke-linecap:round; stroke-linejoin:round;">
<circle cx="154851100.000000" cy="116433600.000000" r="1041400.000000"/> 
</g>
<g style="fill:#000000; fill-opacity:1.0;  stroke:#000000; stroke-width:1.000000; stroke-opacity:1;  stroke-linecap:round; stroke-linejoin:round;">
<circle cx="152311100.000000" cy="116433600.000000" r="1041400.000000"/> 
</g>
<g style="fill:#000000; fill-opacity:1.0;  stroke:#000000; stroke-width:1.000000; stroke-opacity:1;  stroke-linecap:round; stroke-linejoin:round;">
<circle cx="158661100.000000" cy="94843600.000000" r="1651000.000000"/> 
</g>
<g style="fill:#000000; fill-opacity:1.0;  stroke:#000000; stroke-width:1.000000; stroke-opacity:1;  stroke-linecap:round; stroke-linejoin:round;">
<path style="fill:#000000; fill-opacity:1.0;  stroke:#000000; stroke-width:1.000000; stroke-opacity:1;  stroke-linecap:round; stroke-linejoin:round;fill-rule:evenodd;" d="M 149370200.000000,111353600.000000 149362466.000000,111392481.000000 149340442.000000,111425442.000000 149307481.000000,111447466.000000 149268600.000000,111455200.000000 148633600.000000,111455200.000000 148594719.000000,111447466.000000 148561758.000000,111425442.000000 148539734.000000,111392481.000000 148532000.000000,111353600.000000 148532000.000000,110083600.000000 148539734.000000,110044719.000000 148561758.000000,110011758.000000 148594719.000000,109989734.000000 148633600.000000,109982000.000000 149268600.000000,109982000.000000 149307481.000000,109989734.000000 149340442.000000,110011758.000000 149362466.000000,110044719.000000 149370200.000000,110083600.000000 Z"/> 
<path style="fill:#000000; fill-opacity:1.0;  stroke:#000000; stroke-width:1.000000; stroke-opacity:1;  stroke-linecap:round; stroke-linejoin:round;fill-rule:evenodd;" d="M 148470200.000000,111353600.000000 148462466.000000,111392481.000000 148440442.000000,111425442.000000 148407481.000000,111447466.000000 148368600.000000,111455200.000000 147733600.000000,111455200.000000 147694719.000000,111447466.000000 147661758.000000,111425442.000000 147639734.000000,111392481.000000 147632000.000000,111353600.000000 147632000.000000,110083600.000000 147639734.000000,110044719.000000 147661758.000000,110011758.000000 147694719.000000,109989734.000000 147733600.000000,109982000.000000 148368600.000000,109982000.000000 148407481.000000,109989734.000000 148440442.000000,110011758.000000 148462466.000000,110044719.000000 148470200.000000,110083600.000000 Z"/> 
</g>
<g style="fill:#000000; fill-opacity:1.0;  stroke:#000000; stroke-width:1.000000; stroke-opacity:1;  stroke-linecap:round; stroke-linejoin:round;">
<path style="fill:#000000; fill-opacity:1.0;  stroke:#000000; stroke-width:1.000000; stroke-opacity:1;  stroke-linecap:round; stroke-linejoin:round;fill-rule:evenodd;" d="M 136982200.000000,93065600.000000 136961688.000000,93195109.000000 136902159.000000,93311941.000000 136809441.000000,93404659.000000 136692609.000000,93464188.000000 136563100.000000,93484700.000000 136433591.000000,93464188.000000 136316759.000000,93404659.000000 136224041.000000,93311941.000000 136164512.000000,93195109.000000 136144000.000000,93065600.000000 136164512.000000,92936091.000000 136224041.000000,92819259.000000 136316759.000000,92726541.000000 136433591.000000,92667012.000000 136563100.000000,92646500.000000 136692609.000000,92667012.000000 136809441.000000,92726541.000000 136902159.000000,92819259.000000 136961688.000000,92936091.000000 136982200.000000,93065600.000000 Z"/> 
</g>
<g style="fill:#000000; fill-opacity:1.0;  stroke:#000000; stroke-width:1.000000; stroke-opacity:1;  stroke-linecap:round; stroke-linejoin:round;">
<path style="fill:#000000; fill-opacity:1.0;  stroke:#000000; stroke-width:1.000000; stroke-opacity:1;  stroke-linecap:round; stroke-linejoin:round;fill-rule:evenodd;" d="M 160731200.000000,116814600.000000 160710688.000000,116944109.000000 160651159.000000,117060941.000000 160558441.000000,117153659.000000 160441609.000000,117213188.000000 160312100.000000,117233700.000000 160182591.000000,117213188.000000 160065759.000000,117153659.000000 159973041.000000,117060941.000000 159913512.000000,116944109.000000 159893000.000000,116814600.000000 159913512.000000,116685091.000000 159973041.000000,116568259.000000 160065759.000000,116475541.000000 160182591.000000,116416012.000000 160312100.000000,116395500.000000 160441609.000000,116416012.000000 160558441.000000,116475541.000000 160651159.000000,116568259.000000 160710688.000000,116685091.000000 160731200.000000,116814600.000000 Z"/> 
</g>
</g> 
</mask><mask id="hole-mask"><g><rect x="100241100" y="91986100" fill="white" width="103273013" height="36127500"/><polyline stroke-linecap="round" stroke="black" stroke-width="3302000" points="0.0 0 0.0 0" transform="translate(138341100 94843600) rotate(-0.0)"/><polyline stroke-linecap="round" stroke="black" stroke-width="1016000" points="0.0 0 0.0 0" transform="translate(142151100 116433600) rotate(-90.0)"/><polyline stroke-linecap="round" stroke="black" stroke-width="1016000" points="0.0 0 0.0 0" transform="translate(144691100 116433600) rotate(-90.0)"/><polyline stroke-linecap="round" stroke="black" stroke-width="1016000" points="0.0 0 0.0 0" transform="translate(147231100 116433600) rotate(-90.0)"/><polyline stroke-linecap="round" stroke="black" stroke-width="1016000" points="0.0 0 0.0 0" transform="translate(149771100 116433600) rotate(-90.0)"/><polyline stroke-linecap="round" stroke="black" stroke-width="1016000" points="0.0 0 0.0 0" transform="translate(154851100 116433600) rotate(-270.0)"/><polyline stroke-linecap="round" stroke="black" stroke-width="1016000" points="0.0 0 0.0 0" transform="translate(152311100 116433600) rotate(-270.0)"/><polyline stroke-linecap="round" stroke="black" stroke-width="3302000" points="0.0 0 0.0 0" transform="translate(158661100 94843600) rotate(-0.0)"/><polyline stroke-linecap="round" stroke="black" stroke-width="381000" points="0.0 0 0.0 0" transform="translate(151104600 103670100) rotate(0.0)"/><polyline stroke-linecap="round" stroke="black" stroke-width="381000" points="0.0 0 0.0 0" transform="translate(149771100 107543600) rotate(0.0)"/><polyline stroke-linecap="round" stroke="black" stroke-width="381000" points="0.0 0 0.0 0" transform="translate(144691100 111353600) rotate(0.0)"/><polyline stroke-linecap="round" stroke="black" stroke-width="381000" points="0.0 0 0.0 0" transform="translate(142786100 105638600) rotate(0.0)"/><polyline stroke-linecap="round" stroke="black" stroke-width="381000" points="0.0 0 0.0 0" transform="translate(142786100 102971600) rotate(0.0)"/><polyline stroke-linecap="round" stroke="black" stroke-width="381000" points="0.0 0 0.0 0" transform="translate(156121100 99923600) rotate(0.0)"/><polyline stroke-linecap="round" stroke="black" stroke-width="381000" points="0.0 0 0.0 0" transform="translate(153581100 107543600) rotate(0.0)"/><polyline stroke-linecap="round" stroke="black" stroke-width="381000" points="0.0 0 0.0 0" transform="translate(153581100 112623600) rotate(0.0)"/><polyline stroke-linecap="round" stroke="black" stroke-width="381000" points="0.0 0 0.0 0" transform="translate(145961100 107543600) rotate(0.0)"/><polyline stroke-linecap="round" stroke="black" stroke-width="381000" points="0.0 0 0.0 0" transform="translate(151041100 113893600) rotate(0.0)"/><polyline stroke-linecap="round" stroke="black" stroke-width="381000" points="0.0 0 0.0 0" transform="translate(144691100 110083600) rotate(0.0)"/><polyline stroke-linecap="round" stroke="black" stroke-width="381000" points="0.0 0 0.0 0" transform="translate(158661100 103733600) rotate(0.0)"/><polyline stroke-linecap="round" stroke="black" stroke-width="381000" points="0.0 0 0.0 0" transform="translate(138341100 105003600) rotate(0.0)"/><polyline stroke-linecap="round" stroke="black" stroke-width="381000" points="0.0 0 0.0 0" transform="translate(158661100 105003600) rotate(0.0)"/><polyline stroke-linecap="round" stroke="black" stroke-width="381000" points="0.0 0 0.0 0" transform="translate(147231100 107543600) rotate(0.0)"/><polyline stroke-linecap="round" stroke="black" stroke-width="381000" points="0.0 0 0.0 0" transform="translate(146850100 110718600) rotate(0.0)"/></g></mask></defs><g transform="scale(-1,1)" id="boardContainer"><g id="substrate" clip-path="url(#cut-off)" mask="url(#hole-mask)"><g id="substrate-board" style="fill:#4ca06c; stroke:#4ca06c;"><path d=" M 135801100.0 117703600.0 L 135801100.0 92303600.0 L 161201100.0 92303600.0 L 161201100.0 117703600.0 L 135801100.0 117703600.0 " style="fill-rule: evenodd;"/><g style="fill-opacity: 0.0;stroke-width: 203200.000000;stroke-opacity: 1;stroke-linecap: round;stroke-linejoin: round">
<path d="M161201100 117703600 L135801100 117703600 "/>
<path d="M135801100 117703600 L135801100 92303600 "/>
<path d="M135801100 92303600 L161201100 92303600 "/>
<path d="M161201100 92303600 L161201100 117703600 "/>
</g> 
</g><g id="substrate-clad" style="fill:#9c6b28; stroke:#9c6b28;"><g style="fill-opacity: 0.0;stroke-width: 0.000000;stroke-opacity: 1;stroke-linecap: round;stroke-linejoin: round">
<g style="fill-opacity: 1.0;stroke-width: 1.000000;stroke-opacity: 1;stroke-linecap: round;stroke-linejoin: round">
<circle cx="138341100.000000" cy="94843600.000000" r="1651000.000000"/> 
</g>
<g style="fill-opacity: 1.0;stroke-width: 1.000000;stroke-opacity: 1;stroke-linecap: round;stroke-linejoin: round">
<circle cx="142151100.000000" cy="116433600.000000" r="1041400.000000"/> 
</g>
<g style="fill-opacity: 1.0;stroke-width: 1.000000;stroke-opacity: 1;stroke-linecap: round;stroke-linejoin: round">
<circle cx="144691100.000000" cy="116433600.000000" r="1041400.000000"/> 
</g>
<g style="fill-opacity: 1.0;stroke-width: 1.000000;stroke-opacity: 1;stroke-linecap: round;stroke-linejoin: round">
<circle cx="147231100.000000" cy="116433600.000000" r="1041400.000000"/> 
</g>
<g style="fill-opacity: 1.0;stroke-width: 1.000000;stroke-opacity: 1;stroke-linecap: round;stroke-linejoin: round">
<circle cx="149771100.000000" cy="116433600.000000" r="1041400.000000"/> 
</g>
<g style="fill-opacity: 1.0;stroke-width: 1.000000;stroke-opacity: 1;stroke-linecap: round;stroke-linejoin: round">
<circle cx="154851100.000000" cy="116433600.000000" r="1041400.000000"/> 
</g>
<g style="fill-opacity: 1.0;stroke-width: 1.000000;stroke-opacity: 1;stroke-linecap: round;stroke-linejoin: round">
<circle cx="152311100.000000" cy="116433600.000000" r="1041400.000000"/> 
</g>
<g style="fill-opacity: 1.0;stroke-width: 1.000000;stroke-opacity: 1;stroke-linecap: round;stroke-linejoin: round">
<circle cx="158661100.000000" cy="94843600.000000" r="1651000.000000"/> 
</g>
<g style="fill-opacity: 1.0;stroke-width: 1.000000;stroke-opacity: 1;stroke-linecap: round;stroke-linejoin: round">
<path style="fill-opacity: 1.0;stroke-width: 1.000000;stroke-opacity: 1;stroke-linecap: round;stroke-linejoin: round;fill-rule: evenodd" d="M 149370200.000000,111353600.000000 149362466.000000,111392481.000000 149340442.000000,111425442.000000 149307481.000000,111447466.000000 149268600.000000,111455200.000000 148633600.000000,111455200.000000 148594719.000000,111447466.000000 148561758.000000,111425442.000000 148539734.000000,111392481.000000 148532000.000000,111353600.000000 148532000.000000,110083600.000000 148539734.000000,110044719.000000 148561758.000000,110011758.000000 148594719.000000,109989734.000000 148633600.000000,109982000.000000 149268600.000000,109982000.000000 149307481.000000,109989734.000000 149340442.000000,110011758.000000 149362466.000000,110044719.000000 149370200.000000,110083600.000000 Z"/> 
<path style="fill-opacity: 1.0;stroke-width: 1.000000;stroke-opacity: 1;stroke-linecap: round;stroke-linejoin: round;fill-rule: evenodd" d="M 148470200.000000,111353600.000000 148462466.000000,111392481.000000 148440442.000000,111425442.000000 148407481.000000,111447466.000000 148368600.000000,111455200.000000 147733600.000000,111455200.000000 147694719.000000,111447466.000000 147661758.000000,111425442.000000 147639734.000000,111392481.000000 147632000.000000,111353600.000000 147632000.000000,110083600.000000 147639734.000000,110044719.000000 147661758.000000,110011758.000000 147694719.000000,109989734.000000 147733600.000000,109982000.000000 148368600.000000,109982000.000000 148407481.000000,109989734.000000 148440442.000000,110011758.000000 148462466.000000,110044719.000000 148470200.000000,110083600.000000 Z"/> 
</g>
<g style="fill-opacity: 1.0;stroke-width: 1.000000;stroke-opacity: 1;stroke-linecap: round;stroke-linejoin: round">
<path style="fill-opacity: 1.0;stroke-width: 1.000000;stroke-opacity: 1;stroke-linecap: round;stroke-linejoin: round;fill-rule: evenodd" d="M 136982200.000000,93065600.000000 136961688.000000,93195109.000000 136902159.000000,93311941.000000 136809441.000000,93404659.000000 136692609.000000,93464188.000000 136563100.000000,93484700.000000 136433591.000000,93464188.000000 136316759.000000,93404659.000000 136224041.000000,93311941.000000 136164512.000000,93195109.000000 136144000.000000,93065600.000000 136164512.000000,92936091.000000 136224041.000000,92819259.000000 136316759.000000,92726541.000000 136433591.000000,92667012.000000 136563100.000000,92646500.000000 136692609.000000,92667012.000000 136809441.000000,92726541.000000 136902159.000000,92819259.000000 136961688.000000,92936091.000000 136982200.000000,93065600.000000 Z"/> 
</g>
<g style="fill-opacity: 1.0;stroke-width: 1.000000;stroke-opacity: 1;stroke-linecap: round;stroke-linejoin: round">
<path style="fill-opacity: 1.0;stroke-width: 1.000000;stroke-opacity: 1;stroke-linecap: round;stroke-linejoin: round;fill-rule: evenodd" d="M 160731200.000000,116814600.000000 160710688.000000,116944109.000000 160651159.000000,117060941.000000 160558441.000000,117153659.000000 160441609.000000,117213188.000000 160312100.000000,117233700.000000 160182591.000000,117213188.000000 160065759.000000,117153659.000000 159973041.000000,117060941.000000 159913512.000000,116944109.000000 159893000.000000,116814600.000000 159913512.000000,116685091.000000 159973041.000000,116568259.000000 160065759.000000,116475541.000000 160182591.000000,116416012.000000 160312100.000000,116395500.000000 160441609.000000,116416012.000000 160558441.000000,116475541.000000 160651159.000000,116568259.000000 160710688.000000,116685091.000000 160731200.000000,116814600.000000 Z"/> 
</g>
</g> 
</g><g id="substrate-copper" style="fill:#417e5a; stroke:#417e5a;"><g style="fill-opacity: 0.0;stroke-width: 190500.000000;stroke-opacity: 1;stroke-linecap: round;stroke-linejoin: round">
<text x="138214100.000000" y="116973350.000000" transform="scale(-1 1) translate(-276428200.000000 0)" textLength="2878666.000000" font-size="1439333.000000" lengthAdjust="spacingAndGlyphs" text-anchor="middle" opacity="0">v10</text>
<g class="stroked-text"><desc>v10</desc>
<path d="M139499219 116202278 L139242195 116921945 L138985171 116202278 "/>
<path d="M138008480 116921945 L138625338 116921945 "/>
<path d="M138316909 116921945 L138316909 115842445 L138419719 115996659 L138522528 116099469 L138625338 116150873 "/>
<path d="M137340219 115842445 L137237409 115842445 L137134600 115893850 L137083195 115945254 L137031790 116048064 L136980385 116253683 L136980385 116510707 L137031790 116716326 L137083195 116819135 L137134600 116870540 L137237409 116921945 L137340219 116921945 L137443028 116870540 L137494433 116819135 L137545838 116716326 L137597242 116510707 L137597242 116253683 L137545838 116048064 L137494433 115945254 L137443028 115893850 L137340219 115842445 "/>
</g><g style="fill-opacity: 1.0;stroke-width: 1.000000;stroke-opacity: 1;stroke-linecap: round;stroke-linejoin: round">
<circle cx="142151100.000000" cy="116433600.000000" r="939800.000000"/> 
</g>
<g style="fill-opacity: 1.0;stroke-width: 1.000000;stroke-opacity: 1;stroke-linecap: round;stroke-linejoin: round">
<circle cx="144691100.000000" cy="116433600.000000" r="939800.000000"/> 
</g>
<g style="fill-opacity: 1.0;stroke-width: 1.000000;stroke-opacity: 1;stroke-linecap: round;stroke-linejoin: round">
<circle cx="147231100.000000" cy="116433600.000000" r="939800.000000"/> 
</g>
<g style="fill-opacity: 1.0;stroke-width: 1.000000;stroke-opacity: 1;stroke-linecap: round;stroke-linejoin: round">
<circle cx="149771100.000000" cy="116433600.000000" r="939800.000000"/> 
</g>
<g style="fill-opacity: 1.0;stroke-width: 1.000000;stroke-opacity: 1;stroke-linecap: round;stroke-linejoin: round">
<circle cx="154851100.000000" cy="116433600.000000" r="939800.000000"/> 
</g>
<g style="fill-opacity: 1.0;stroke-width: 1.000000;stroke-opacity: 1;stroke-linecap: round;stroke-linejoin: round">
<circle cx="152311100.000000" cy="116433600.000000" r="939800.000000"/> 
</g>
<g style="fill-opacity: 1.0;stroke-width: 1.000000;stroke-opacity: 1;stroke-linecap: round;stroke-linejoin: round">
<path style="fill-opacity: 1.0;stroke-width: 1.000000;stroke-opacity: 1;stroke-linecap: round;stroke-linejoin: round;fill-rule: evenodd" d="M 149268599.000000,110083601.000000 149268599.000000,111353599.000000 148633601.000000,111353599.000000 148633601.000000,110083601.000000 Z"/> 
<path style="fill-opacity: 1.0;stroke-width: 1.000000;stroke-opacity: 1;stroke-linecap: round;stroke-linejoin: round;fill-rule: evenodd" d="M 148368599.000000,110083601.000000 148368599.000000,111353599.000000 147733601.000000,111353599.000000 147733601.000000,110083601.000000 Z"/> 
</g>
<g style="fill-opacity: 1.0;stroke-width: 1.000000;stroke-opacity: 1;stroke-linecap: round;stroke-linejoin: round">
<path style="fill-opacity: 1.0;stroke-width: 1.000000;stroke-opacity: 1;stroke-linecap: round;stroke-linejoin: round;fill-rule: evenodd" d="M 136880600.000000,93065600.000000 136869781.000000,93147775.000000 136823181.000000,93247711.000000 136745211.000000,93325681.000000 136645275.000000,93372281.000000 136563100.000000,93383100.000000 136480925.000000,93372281.000000 136380989.000000,93325681.000000 136303019.000000,93247711.000000 136256419.000000,93147775.000000 136245600.000000,93065600.000000 136256419.000000,92983425.000000 136303019.000000,92883489.000000 136380989.000000,92805519.000000 136480925.000000,92758919.000000 136563100.000000,92748100.000000 136645275.000000,92758919.000000 136745211.000000,92805519.000000 136823181.000000,92883489.000000 136869781.000000,92983425.000000 136880600.000000,93065600.000000 Z"/> 
</g>
<g style="fill-opacity: 1.0;stroke-width: 1.000000;stroke-opacity: 1;stroke-linecap: round;stroke-linejoin: round">
<path style="fill-opacity: 1.0;stroke-width: 1.000000;stroke-opacity: 1;stroke-linecap: round;stroke-linejoin: round;fill-rule: evenodd" d="M 160629600.000000,116814600.000000 160618781.000000,116896775.000000 160572181.000000,116996711.000000 160494211.000000,117074681.000000 160394275.000000,117121281.000000 160312100.000000,117132100.000000 160229925.000000,117121281.000000 160129989.000000,117074681.000000 160052019.000000,116996711.000000 160005419.000000,116896775.000000 159994600.000000,116814600.000000 160005419.000000,116732425.000000 160052019.000000,116632489.000000 160129989.000000,116554519.000000 160229925.000000,116507919.000000 160312100.000000,116497100.000000 160394275.000000,116507919.000000 160494211.000000,116554519.000000 160572181.000000,116632489.000000 160618781.000000,116732425.000000 160629600.000000,116814600.000000 Z"/> 
</g>
<g style="fill-opacity: 1.0;stroke-width: 1.000000;stroke-opacity: 1;stroke-linecap: round;stroke-linejoin: round">
<circle cx="151104600.000000" cy="103670100.000000" r="368300.000000"/> 
</g>
<g style="fill-opacity: 1.0;stroke-width: 1.000000;stroke-opacity: 1;stroke-linecap: round;stroke-linejoin: round">
<circle cx="149771100.000000" cy="107543600.000000" r="368300.000000"/> 
</g>
<g style="fill-opacity: 1.0;stroke-width: 1.000000;stroke-opacity: 1;stroke-linecap: round;stroke-linejoin: round">
<circle cx="144691100.000000" cy="111353600.000000" r="368300.000000"/> 
</g>
<g style="fill-opacity: 1.0;stroke-width: 1.000000;stroke-opacity: 1;stroke-linecap: round;stroke-linejoin: round">
<circle cx="142786100.000000" cy="105638600.000000" r="368300.000000"/> 
</g>
<g style="fill-opacity: 1.0;stroke-width: 1.000000;stroke-opacity: 1;stroke-linecap: round;stroke-linejoin: round">
<circle cx="142786100.000000" cy="102971600.000000" r="368300.000000"/> 
</g>
<g style="fill-opacity: 1.0;stroke-width: 1.000000;stroke-opacity: 1;stroke-linecap: round;stroke-linejoin: round">
<circle cx="156121100.000000" cy="99923600.000000" r="368300.000000"/> 
</g>
<g style="fill-opacity: 1.0;stroke-width: 1.000000;stroke-opacity: 1;stroke-linecap: round;stroke-linejoin: round">
<circle cx="153581100.000000" cy="107543600.000000" r="368300.000000"/> 
</g>
<g style="fill-opacity: 1.0;stroke-width: 1.000000;stroke-opacity: 1;stroke-linecap: round;stroke-linejoin: round">
<circle cx="153581100.000000" cy="112623600.000000" r="368300.000000"/> 
</g>
<g style="fill-opacity: 1.0;stroke-width: 1.000000;stroke-opacity: 1;stroke-linecap: round;stroke-linejoin: round">
<circle cx="145961100.000000" cy="107543600.000000" r="368300.000000"/> 
</g>
<g style="fill-opacity: 1.0;stroke-width: 1.000000;stroke-opacity: 1;stroke-linecap: round;stroke-linejoin: round">
<circle cx="151041100.000000" cy="113893600.000000" r="368300.000000"/> 
</g>
<g style="fill-opacity: 1.0;stroke-width: 1.000000;stroke-opacity: 1;stroke-linecap: round;stroke-linejoin: round">
<circle cx="144691100.000000" cy="110083600.000000" r="368300.000000"/> 
</g>
<g style="fill-opacity: 1.0;stroke-width: 1.000000;stroke-opacity: 1;stroke-linecap: round;stroke-linejoin: round">
<circle cx="158661100.000000" cy="103733600.000000" r="368300.000000"/> 
</g>
<g style="fill-opacity: 1.0;stroke-width: 1.000000;stroke-opacity: 1;stroke-linecap: round;stroke-linejoin: round">
<circle cx="138341100.000000" cy="105003600.000000" r="368300.000000"/> 
</g>
<g style="fill-opacity: 1.0;stroke-width: 1.000000;stroke-opacity: 1;stroke-linecap: round;stroke-linejoin: round">
<circle cx="158661100.000000" cy="105003600.000000" r="368300.000000"/> 
</g>
<g style="fill-opacity: 1.0;stroke-width: 1.000000;stroke-opacity: 1;stroke-linecap: round;stroke-linejoin: round">
<circle cx="147231100.000000" cy="107543600.000000" r="368300.000000"/> 
</g>
<g style="fill-opacity: 1.0;stroke-width: 1.000000;stroke-opacity: 1;stroke-linecap: round;stroke-linejoin: round">
<circle cx="146850100.000000" cy="110718600.000000" r="368300.000000"/> 
</g>
<g style="fill-opacity: 0.0;stroke-width: 177800.000000;stroke-opacity: 1;stroke-linecap: round;stroke-linejoin: round">
<path d="M149771100 107543600 L149771100 105003600 "/>
<path d="M149771100 105003600 L151104600 103670100 "/>
<path d="M146469100 109575600 L145961100 110083600 "/>
<path d="M159169100 109575600 L146469100 109575600 "/>
<path d="M149771100 116433600 L149771100 115163600 "/>
<path d="M159931100 105003600 L159931100 108813600 "/>
<path d="M158661100 103733600 L159931100 105003600 "/>
<path d="M145961100 111353600 L145961100 110083600 "/>
<path d="M159169100 109575600 L159931100 108813600 "/>
<path d="M149771100 115163600 L145961100 111353600 "/>
<path d="M145961100 110083600 L144691100 110083600 "/>
<path d="M147231100 108813600 L143421100 108813600 "/>
<path d="M143421100 108813600 L139611100 108813600 "/>
<path d="M139611100 108813600 L138341100 107543600 "/>
<path d="M147231100 115163600 L143421100 111353600 "/>
<path d="M138341100 107543600 L138341100 105003600 "/>
<path d="M158661100 107543600 L157391100 108813600 "/>
<path d="M147231100 116433600 L147231100 115163600 "/>
<path d="M147231100 107543600 L147231100 108813600 "/>
<path d="M158661100 105003600 L158661100 107543600 "/>
<path d="M157391100 108813600 L147231100 108813600 "/>
<path d="M143421100 111353600 L143421100 108813600 "/>
<path d="M148051100 110718600 L146850100 110718600 "/>
</g>
</g> 
</g><g id="substrate-pads" style="fill:#b5ae30; stroke:#b5ae30;" mask="url(#pads-mask)"><g style="fill-opacity: 0.0;stroke-width: 190500.000000;stroke-opacity: 1;stroke-linecap: round;stroke-linejoin: round">
<text x="138214100.000000" y="116973350.000000" transform="scale(-1 1) translate(-276428200.000000 0)" textLength="2631017.000000" font-size="1439333.000000" lengthAdjust="spacingAndGlyphs" text-anchor="middle" opacity="0">v10</text>
<g class="stroked-text"><desc>v10</desc>
<path d="M139499219 116202278 L139242195 116921945 L138985171 116202278 "/>
<path d="M138008480 116921945 L138625338 116921945 "/>
<path d="M138316909 116921945 L138316909 115842445 L138419719 115996659 L138522528 116099469 L138625338 116150873 "/>
<path d="M137340219 115842445 L137237409 115842445 L137134600 115893850 L137083195 115945254 L137031790 116048064 L136980385 116253683 L136980385 116510707 L137031790 116716326 L137083195 116819135 L137134600 116870540 L137237409 116921945 L137340219 116921945 L137443028 116870540 L137494433 116819135 L137545838 116716326 L137597242 116510707 L137597242 116253683 L137545838 116048064 L137494433 115945254 L137443028 115893850 L137340219 115842445 "/>
</g><g style="fill-opacity: 1.0;stroke-width: 1.000000;stroke-opacity: 1;stroke-linecap: round;stroke-linejoin: round">
<circle cx="142151100.000000" cy="116433600.000000" r="939800.000000"/> 
</g>
<g style="fill-opacity: 1.0;stroke-width: 1.000000;stroke-opacity: 1;stroke-linecap: round;stroke-linejoin: round">
<circle cx="144691100.000000" cy="116433600.000000" r="939800.000000"/> 
</g>
<g style="fill-opacity: 1.0;stroke-width: 1.000000;stroke-opacity: 1;stroke-linecap: round;stroke-linejoin: round">
<circle cx="147231100.000000" cy="116433600.000000" r="939800.000000"/> 
</g>
<g style="fill-opacity: 1.0;stroke-width: 1.000000;stroke-opacity: 1;stroke-linecap: round;stroke-linejoin: round">
<circle cx="149771100.000000" cy="116433600.000000" r="939800.000000"/> 
</g>
<g style="fill-opacity: 1.0;stroke-width: 1.000000;stroke-opacity: 1;stroke-linecap: round;stroke-linejoin: round">
<circle cx="154851100.000000" cy="116433600.000000" r="939800.000000"/> 
</g>
<g style="fill-opacity: 1.0;stroke-width: 1.000000;stroke-opacity: 1;stroke-linecap: round;stroke-linejoin: round">
<circle cx="152311100.000000" cy="116433600.000000" r="939800.000000"/> 
</g>
<g style="fill-opacity: 1.0;stroke-width: 1.000000;stroke-opacity: 1;stroke-linecap: round;stroke-linejoin: round">
<path style="fill-opacity: 1.0;stroke-width: 1.000000;stroke-opacity: 1;stroke-linecap: round;stroke-linejoin: round;fill-rule: evenodd" d="M 149268599.000000,110083601.000000 149268599.000000,111353599.000000 148633601.000000,111353599.000000 148633601.000000,110083601.000000 Z"/> 
<path style="fill-opacity: 1.0;stroke-width: 1.000000;stroke-opacity: 1;stroke-linecap: round;stroke-linejoin: round;fill-rule: evenodd" d="M 148368599.000000,110083601.000000 148368599.000000,111353599.000000 147733601.000000,111353599.000000 147733601.000000,110083601.000000 Z"/> 
</g>
<g style="fill-opacity: 1.0;stroke-width: 1.000000;stroke-opacity: 1;stroke-linecap: round;stroke-linejoin: round">
<path style="fill-opacity: 1.0;stroke-width: 1.000000;stroke-opacity: 1;stroke-linecap: round;stroke-linejoin: round;fill-rule: evenodd" d="M 136880600.000000,93065600.000000 136869781.000000,93147775.000000 136823181.000000,93247711.000000 136745211.000000,93325681.000000 136645275.000000,93372281.000000 136563100.000000,93383100.000000 136480925.000000,93372281.000000 136380989.000000,93325681.000000 136303019.000000,93247711.000000 136256419.000000,93147775.000000 136245600.000000,93065600.000000 136256419.000000,92983425.000000 136303019.000000,92883489.000000 136380989.000000,92805519.000000 136480925.000000,92758919.000000 136563100.000000,92748100.000000 136645275.000000,92758919.000000 136745211.000000,92805519.000000 136823181.000000,92883489.000000 136869781.000000,92983425.000000 136880600.000000,93065600.000000 Z"/> 
</g>
<g style="fill-opacity: 1.0;stroke-width: 1.000000;stroke-opacity: 1;stroke-linecap: round;stroke-linejoin: round">
<path style="fill-opacity: 1.0;stroke-width: 1.000000;stroke-opacity: 1;stroke-linecap: round;stroke-linejoin: round;fill-rule: evenodd" d="M 160629600.000000,116814600.000000 160618781.000000,116896775.000000 160572181.000000,116996711.000000 160494211.000000,117074681.000000 160394275.000000,117121281.000000 160312100.000000,117132100.000000 160229925.000000,117121281.000000 160129989.000000,117074681.000000 160052019.000000,116996711.000000 160005419.000000,116896775.000000 159994600.000000,116814600.000000 160005419.000000,116732425.000000 160052019.000000,116632489.000000 160129989.000000,116554519.000000 160229925.000000,116507919.000000 160312100.000000,116497100.000000 160394275.000000,116507919.000000 160494211.000000,116554519.000000 160572181.000000,116632489.000000 160618781.000000,116732425.000000 160629600.000000,116814600.000000 Z"/> 
</g>
<g style="fill-opacity: 1.0;stroke-width: 1.000000;stroke-opacity: 1;stroke-linecap: round;stroke-linejoin: round">
<circle cx="151104600.000000" cy="103670100.000000" r="368300.000000"/> 
</g>
<g style="fill-opacity: 1.0;stroke-width: 1.000000;stroke-opacity: 1;stroke-linecap: round;stroke-linejoin: round">
<circle cx="149771100.000000" cy="107543600.000000" r="368300.000000"/> 
</g>
<g style="fill-opacity: 1.0;stroke-width: 1.000000;stroke-opacity: 1;stroke-linecap: round;stroke-linejoin: round">
<circle cx="144691100.000000" cy="111353600.000000" r="368300.000000"/> 
</g>
<g style="fill-opacity: 1.0;stroke-width: 1.000000;stroke-opacity: 1;stroke-linecap: round;stroke-linejoin: round">
<circle cx="142786100.000000" cy="105638600.000000" r="368300.000000"/> 
</g>
<g style="fill-opacity: 1.0;stroke-width: 1.000000;stroke-opacity: 1;stroke-linecap: round;stroke-linejoin: round">
<circle cx="142786100.000000" cy="102971600.000000" r="368300.000000"/> 
</g>
<g style="fill-opacity: 1.0;stroke-width: 1.000000;stroke-opacity: 1;stroke-linecap: round;stroke-linejoin: round">
<circle cx="156121100.000000" cy="99923600.000000" r="368300.000000"/> 
</g>
<g style="fill-opacity: 1.0;stroke-width: 1.000000;stroke-opacity: 1;stroke-linecap: round;stroke-linejoin: round">
<circle cx="153581100.000000" cy="107543600.000000" r="368300.000000"/> 
</g>
<g style="fill-opacity: 1.0;stroke-width: 1.000000;stroke-opacity: 1;stroke-linecap: round;stroke-linejoin: round">
<circle cx="153581100.000000" cy="112623600.000000" r="368300.000000"/> 
</g>
<g style="fill-opacity: 1.0;stroke-width: 1.000000;stroke-opacity: 1;stroke-linecap: round;stroke-linejoin: round">
<circle cx="145961100.000000" cy="107543600.000000" r="368300.000000"/> 
</g>
<g style="fill-opacity: 1.0;stroke-width: 1.000000;stroke-opacity: 1;stroke-linecap: round;stroke-linejoin: round">
<circle cx="151041100.000000" cy="113893600.000000" r="368300.000000"/> 
</g>
<g style="fill-opacity: 1.0;stroke-width: 1.000000;stroke-opacity: 1;stroke-linecap: round;stroke-linejoin: round">
<circle cx="144691100.000000" cy="110083600.000000" r="368300.000000"/> 
</g>
<g style="fill-opacity: 1.0;stroke-width: 1.000000;stroke-opacity: 1;stroke-linecap: round;stroke-linejoin: round">
<circle cx="158661100.000000" cy="103733600.000000" r="368300.000000"/> 
</g>
<g style="fill-opacity: 1.0;stroke-width: 1.000000;stroke-opacity: 1;stroke-linecap: round;stroke-linejoin: round">
<circle cx="138341100.000000" cy="105003600.000000" r="368300.000000"/> 
</g>
<g style="fill-opacity: 1.0;stroke-width: 1.000000;stroke-opacity: 1;stroke-linecap: round;stroke-linejoin: round">
<circle cx="158661100.000000" cy="105003600.000000" r="368300.000000"/> 
</g>
<g style="fill-opacity: 1.0;stroke-width: 1.000000;stroke-opacity: 1;stroke-linecap: round;stroke-linejoin: round">
<circle cx="147231100.000000" cy="107543600.000000" r="368300.000000"/> 
</g>
<g style="fill-opacity: 1.0;stroke-width: 1.000000;stroke-opacity: 1;stroke-linecap: round;stroke-linejoin: round">
<circle cx="146850100.000000" cy="110718600.000000" r="368300.000000"/> 
</g>
<g style="fill-opacity: 0.0;stroke-width: 177800.000000;stroke-opacity: 1;stroke-linecap: round;stroke-linejoin: round">
<path d="M149771100 107543600 L149771100 105003600 "/>
<path d="M149771100 105003600 L151104600 103670100 "/>
<path d="M146469100 109575600 L145961100 110083600 "/>
<path d="M159169100 109575600 L146469100 109575600 "/>
<path d="M149771100 116433600 L149771100 115163600 "/>
<path d="M159931100 105003600 L159931100 108813600 "/>
<path d="M158661100 103733600 L159931100 105003600 "/>
<path d="M145961100 111353600 L145961100 110083600 "/>
<path d="M159169100 109575600 L159931100 108813600 "/>
<path d="M149771100 115163600 L145961100 111353600 "/>
<path d="M145961100 110083600 L144691100 110083600 "/>
<path d="M147231100 108813600 L143421100 108813600 "/>
<path d="M143421100 108813600 L139611100 108813600 "/>
<path d="M139611100 108813600 L138341100 107543600 "/>
<path d="M147231100 115163600 L143421100 111353600 "/>
<path d="M138341100 107543600 L138341100 105003600 "/>
<path d="M158661100 107543600 L157391100 108813600 "/>
<path d="M147231100 116433600 L147231100 115163600 "/>
<path d="M147231100 107543600 L147231100 108813600 "/>
<path d="M158661100 105003600 L158661100 107543600 "/>
<path d="M157391100 108813600 L147231100 108813600 "/>
<path d="M143421100 111353600 L143421100 108813600 "/>
<path d="M148051100 110718600 L146850100 110718600 "/>
</g>
</g> 
</g><g id="substrate-silk" style="fill:#f0f0f0; stroke:#f0f0f0;" mask="url(#pads-mask-silkscreen)"><g style="fill-opacity: 0.0;stroke-width: 254000.000000;stroke-opacity: 1;stroke-linecap: round;stroke-linejoin: round">
<path d="M142151100 100558600 L141770100 100177600 "/>
<path d="M142151100 100558600 L142151100 97891600 "/>
<path d="M142151100 100558600 L142532100 100177600 "/>
</g>
<g style="fill-opacity: 0.0;stroke-width: 177800.000000;stroke-opacity: 1;stroke-linecap: round;stroke-linejoin: round">
<circle cx="141008100.000000" cy="99034600.000000" r="523634.000000"/> 
</g>
<g style="fill-opacity: 0.0;stroke-width: 254000.000000;stroke-opacity: 1;stroke-linecap: round;stroke-linejoin: round">
<path d="M139484100 97891600 L139865100 97510600 "/>
<path d="M139484100 97891600 L142151100 97891600 "/>
</g>
<g style="fill-opacity: 0.0;stroke-width: 177800.000000;stroke-opacity: 1;stroke-linecap: round;stroke-linejoin: round">
<path d="M140677900 98729800 L141312900 99364800 "/>
</g>
<g style="fill-opacity: 0.0;stroke-width: 254000.000000;stroke-opacity: 1;stroke-linecap: round;stroke-linejoin: round">
<path d="M139484100 97891600 L139865100 98272600 "/>
</g>
<g style="fill-opacity: 0.0;stroke-width: 177800.000000;stroke-opacity: 1;stroke-linecap: round;stroke-linejoin: round">
<path d="M141312900 98729800 L140677900 99364800 "/>
</g>
<g style="fill-opacity: 0.0;stroke-width: 121920.000000;stroke-opacity: 1;stroke-linecap: round;stroke-linejoin: round">
<text x="153327100.000000" y="110507882.000000" transform="scale(-1 1) translate(-306654200.000000 0)" textLength="5937371.000000" font-size="921173.000000" lengthAdjust="spacingAndGlyphs" text-anchor="middle" opacity="0">OPEN-0x1D</text>
<g class="stroked-text"><desc>OPEN-0x1D</desc>
<path d="M156123519 109784102 L155991922 109784102 L155926124 109817002 L155860326 109882800 L155827427 110014396 L155827427 110244689 L155860326 110376285 L155926124 110442083 L155991922 110474982 L156123519 110474982 L156189317 110442083 L156255115 110376285 L156288014 110244689 L156288014 110014396 L156255115 109882800 L156189317 109817002 L156123519 109784102 "/>
<path d="M155531336 110474982 L155531336 109784102 L155268143 109784102 L155202345 109817002 L155169446 109849901 L155136547 109915699 L155136547 110014396 L155169446 110080194 L155202345 110113093 L155268143 110145992 L155531336 110145992 "/>
<path d="M154840456 110113093 L154610162 110113093 "/>
<path d="M154511465 110474982 L154840456 110474982 L154840456 109784102 L154511465 109784102 "/>
<path d="M154215374 110474982 L154215374 109784102 L153820585 110474982 L153820585 109784102 "/>
<path d="M153491595 110211790 L152965210 110211790 "/>
<path d="M152504623 109784102 L152438825 109784102 L152373027 109817002 L152340128 109849901 L152307229 109915699 L152274330 110047295 L152274330 110211790 L152307229 110343386 L152340128 110409184 L152373027 110442083 L152438825 110474982 L152504623 110474982 L152570421 110442083 L152603320 110409184 L152636220 110343386 L152669119 110211790 L152669119 110047295 L152636220 109915699 L152603320 109849901 L152570421 109817002 L152504623 109784102 "/>
<path d="M152044037 110474982 L151682147 110014396 "/>
<path d="M152044037 110014396 L151682147 110474982 "/>
<path d="M151057065 110474982 L151451854 110474982 "/>
<path d="M151254460 110474982 L151254460 109784102 L151320258 109882800 L151386056 109948598 L151451854 109981497 "/>
<path d="M150760974 110474982 L150760974 109784102 L150596479 109784102 L150497781 109817002 L150431983 109882800 L150399084 109948598 L150366185 110080194 L150366185 110178891 L150399084 110310487 L150431983 110376285 L150497781 110442083 L150596479 110474982 L150760974 110474982 "/>
</g><text x="153327100.000000" y="111620199.000000" transform="scale(-1 1) translate(-306654200.000000 0)" textLength="6520011.000000" font-size="921173.000000" lengthAdjust="spacingAndGlyphs" text-anchor="middle" opacity="0">CLOSE-0x1C</text>
<g class="stroked-text"><desc>CLOSE-0x1C</desc>
<path d="M156107069 111521501 L156139968 111554400 L156238665 111587299 L156304463 111587299 L156403160 111554400 L156468959 111488602 L156501858 111422804 L156534757 111291208 L156534757 111192511 L156501858 111060915 L156468959 110995117 L156403160 110929319 L156304463 110896419 L156238665 110896419 L156139968 110929319 L156107069 110962218 "/>
<path d="M155481987 111587299 L155810978 111587299 L155810978 110896419 "/>
<path d="M155120098 110896419 L154988501 110896419 L154922703 110929319 L154856905 110995117 L154824006 111126713 L154824006 111357006 L154856905 111488602 L154922703 111554400 L154988501 111587299 L155120098 111587299 L155185896 111554400 L155251694 111488602 L155284593 111357006 L155284593 111126713 L155251694 110995117 L155185896 110929319 L155120098 110896419 "/>
<path d="M154560814 111554400 L154462117 111587299 L154297621 111587299 L154231823 111554400 L154198924 111521501 L154166025 111455703 L154166025 111389905 L154198924 111324107 L154231823 111291208 L154297621 111258309 L154429218 111225410 L154495016 111192511 L154527915 111159612 L154560814 111093814 L154560814 111028016 L154527915 110962218 L154495016 110929319 L154429218 110896419 L154264722 110896419 L154166025 110929319 "/>
<path d="M153869934 111225410 L153639640 111225410 "/>
<path d="M153540943 111587299 L153869934 111587299 L153869934 110896419 L153540943 110896419 "/>
<path d="M153244852 111324107 L152718467 111324107 "/>
<path d="M152257880 110896419 L152192082 110896419 L152126284 110929319 L152093385 110962218 L152060486 111028016 L152027587 111159612 L152027587 111324107 L152060486 111455703 L152093385 111521501 L152126284 111554400 L152192082 111587299 L152257880 111587299 L152323679 111554400 L152356578 111521501 L152389477 111455703 L152422376 111324107 L152422376 111159612 L152389477 111028016 L152356578 110962218 L152323679 110929319 L152257880 110896419 "/>
<path d="M151797294 111587299 L151435404 111126713 "/>
<path d="M151797294 111126713 L151435404 111587299 "/>
<path d="M150810322 111587299 L151205111 111587299 "/>
<path d="M151007717 111587299 L151007717 110896419 L151073515 110995117 L151139313 111060915 L151205111 111093814 "/>
<path d="M150119442 111521501 L150152341 111554400 L150251039 111587299 L150316837 111587299 L150415534 111554400 L150481332 111488602 L150514231 111422804 L150547130 111291208 L150547130 111192511 L150514231 111060915 L150481332 110995117 L150415534 110929319 L150316837 110896419 L150251039 110896419 L150152341 110929319 L150119442 110962218 "/>
</g></g>
<g style="fill-opacity: 0.0;stroke-width: 152400.000000;stroke-opacity: 1;stroke-linecap: round;stroke-linejoin: round">
<g transform="rotate(90.000000 152311100.000000 115163600.000000)">
<text x="152311100.000000" y="115595400.000000" transform="scale(-1 1) translate(-304622200.000000 0)" textLength="2637923.000000" font-size="1151466.000000" lengthAdjust="spacingAndGlyphs" text-anchor="start" opacity="0">INT2</text>
</g>
<g class="stroked-text"><desc>INT2</desc>
<path d="M151920423 114858920 L152784023 114858920 "/>
<path d="M151920423 114447682 L152784023 114447682 L151920423 113954197 L152784023 113954197 "/>
<path d="M152784023 113666330 L152784023 113172844 "/>
<path d="M151920423 113419587 L152784023 113419587 "/>
<path d="M152701776 112926101 L152742900 112884978 L152784023 112802730 L152784023 112597111 L152742900 112514863 L152701776 112473740 L152619528 112432616 L152537280 112432616 L152413909 112473740 L151920423 112967225 L151920423 112432616 "/>
</g><g transform="rotate(90.000000 149771100.000000 115163600.000000)">
<text x="149771100.000000" y="115595400.000000" transform="scale(-1 1) translate(-299542200.000000 0)" textLength="2187061.000000" font-size="1151466.000000" lengthAdjust="spacingAndGlyphs" text-anchor="start" opacity="0">SCL</text>
</g>
<g class="stroked-text"><desc>SCL</desc>
<path d="M149421547 114900044 L149380423 114776673 L149380423 114571054 L149421547 114488806 L149462671 114447682 L149544919 114406559 L149627166 114406559 L149709414 114447682 L149750538 114488806 L149791661 114571054 L149832785 114735549 L149873909 114817797 L149915033 114858920 L149997280 114900044 L150079528 114900044 L150161776 114858920 L150202900 114817797 L150244023 114735549 L150244023 114529930 L150202900 114406559 "/>
<path d="M149462671 113542959 L149421547 113584082 L149380423 113707454 L149380423 113789701 L149421547 113913073 L149503795 113995320 L149586042 114036444 L149750538 114077568 L149873909 114077568 L150038404 114036444 L150120652 113995320 L150202900 113913073 L150244023 113789701 L150244023 113707454 L150202900 113584082 L150161776 113542959 "/>
<path d="M149380423 112761606 L149380423 113172844 L150244023 113172844 "/>
</g><g transform="rotate(90.000000 147231100.000000 115163600.000000)">
<text x="147231100.000000" y="115595400.000000" transform="scale(-1 1) translate(-294462200.000000 0)" textLength="2228185.000000" font-size="1151466.000000" lengthAdjust="spacingAndGlyphs" text-anchor="start" opacity="0">SDA</text>
</g>
<g class="stroked-text"><desc>SDA</desc>
<path d="M146881547 114900044 L146840423 114776673 L146840423 114571054 L146881547 114488806 L146922671 114447682 L147004919 114406559 L147087166 114406559 L147169414 114447682 L147210538 114488806 L147251661 114571054 L147292785 114735549 L147333909 114817797 L147375033 114858920 L147457280 114900044 L147539528 114900044 L147621776 114858920 L147662900 114817797 L147704023 114735549 L147704023 114529930 L147662900 114406559 "/>
<path d="M146840423 114036444 L147704023 114036444 L147704023 113830825 L147662900 113707454 L147580652 113625206 L147498404 113584082 L147333909 113542959 L147210538 113542959 L147046042 113584082 L146963795 113625206 L146881547 113707454 L146840423 113830825 L146840423 114036444 "/>
<path d="M147087166 113213968 L147087166 112802730 "/>
<path d="M146840423 113296216 L147704023 113008349 L146840423 112720482 "/>
</g><text x="142074900.000000" y="101879400.000000" transform="scale(-1 1) translate(-284149800.000000 0)" textLength="542109.000000" font-size="1151466.000000" lengthAdjust="spacingAndGlyphs" text-anchor="middle" opacity="0">Y</text>
<g class="stroked-text"><desc>Y</desc>
<path d="M142074900 101427038 L142074900 101838276 "/>
<path d="M142362766 100974676 L142074900 101427038 L141787033 100974676 "/>
</g><g transform="rotate(90.000000 144691100.000000 115163600.000000)">
<text x="144691100.000000" y="115595400.000000" transform="scale(-1 1) translate(-289382200.000000 0)" textLength="2598299.000000" font-size="1151466.000000" lengthAdjust="spacingAndGlyphs" text-anchor="start" opacity="0">3.3V</text>
</g>
<g class="stroked-text"><desc>3.3V</desc>
<path d="M145164023 114941168 L145164023 114406559 L144835033 114694425 L144835033 114571054 L144793909 114488806 L144752785 114447682 L144670538 114406559 L144464919 114406559 L144382671 114447682 L144341547 114488806 L144300423 114571054 L144300423 114817797 L144341547 114900044 L144382671 114941168 "/>
<path d="M144382671 114036444 L144341547 113995320 L144300423 114036444 L144341547 114077568 L144382671 114036444 L144300423 114036444 "/>
<path d="M145164023 113707454 L145164023 113172844 L144835033 113460711 L144835033 113337340 L144793909 113255092 L144752785 113213968 L144670538 113172844 L144464919 113172844 L144382671 113213968 L144341547 113255092 L144300423 113337340 L144300423 113584082 L144341547 113666330 L144382671 113707454 "/>
<path d="M145164023 112926101 L144300423 112638235 L145164023 112350368 "/>
</g><text x="138645900.000000" y="98323400.000000" transform="scale(-1 1) translate(-277291800.000000 0)" textLength="624356.000000" font-size="1151466.000000" lengthAdjust="spacingAndGlyphs" text-anchor="middle" opacity="0">X</text>
<g class="stroked-text"><desc>X</desc>
<path d="M138933766 97418676 L138358033 98282276 "/>
<path d="M138358033 97418676 L138933766 98282276 "/>
</g><text x="139915900.000000" y="100482400.000000" transform="scale(-1 1) translate(-279831800.000000 0)" textLength="624356.000000" font-size="1151466.000000" lengthAdjust="spacingAndGlyphs" text-anchor="middle" opacity="0">Z</text>
<g class="stroked-text"><desc>Z</desc>
<path d="M140203766 99577676 L139628033 99577676 L140203766 100441276 L139628033 100441276 "/>
</g><g transform="rotate(90.000000 142151100.000000 115163600.000000)">
<text x="142151100.000000" y="115595400.000000" transform="scale(-1 1) translate(-284302200.000000 0)" textLength="2433804.000000" font-size="1151466.000000" lengthAdjust="spacingAndGlyphs" text-anchor="start" opacity="0">GND</text>
</g>
<g class="stroked-text"><desc>GND</desc>
<path d="M142582900 114406559 L142624023 114488806 L142624023 114612178 L142582900 114735549 L142500652 114817797 L142418404 114858920 L142253909 114900044 L142130538 114900044 L141966042 114858920 L141883795 114817797 L141801547 114735549 L141760423 114612178 L141760423 114529930 L141801547 114406559 L141842671 114365435 L142130538 114365435 L142130538 114529930 "/>
<path d="M141760423 113995320 L142624023 113995320 L141760423 113501835 L142624023 113501835 "/>
<path d="M141760423 113090597 L142624023 113090597 L142624023 112884978 L142582900 112761606 L142500652 112679359 L142418404 112638235 L142253909 112597111 L142130538 112597111 L141966042 112638235 L141883795 112679359 L141801547 112761606 L141760423 112884978 L141760423 113090597 "/>
</g><g transform="rotate(90.000000 154851100.000000 115163600.000000)">
<text x="154851100.000000" y="115595400.000000" transform="scale(-1 1) translate(-309702200.000000 0)" textLength="2598299.000000" font-size="1151466.000000" lengthAdjust="spacingAndGlyphs" text-anchor="start" opacity="0">INT1</text>
</g>
<g class="stroked-text"><desc>INT1</desc>
<path d="M154460423 114858920 L155324023 114858920 "/>
<path d="M154460423 114447682 L155324023 114447682 L154460423 113954197 L155324023 113954197 "/>
<path d="M155324023 113666330 L155324023 113172844 "/>
<path d="M154460423 113419587 L155324023 113419587 "/>
<path d="M154460423 112432616 L154460423 112926101 "/>
<path d="M154460423 112679359 L155324023 112679359 L155200652 112761606 L155118404 112843854 L155077280 112926101 "/>
</g><text x="148374100.000000" y="93751400.000000" transform="scale(-1 1) translate(-296748200.000000 0)" textLength="12961499.000000" font-size="1151466.000000" lengthAdjust="spacingAndGlyphs" text-anchor="middle" opacity="0">Qwiic Accelerometer</text>
<g class="stroked-text"><desc>Qwiic Accelerometer</desc>
<path d="M154172557 93792523 L154254804 93751400 L154337052 93669152 L154460423 93545780 L154542671 93504657 L154624919 93504657 "/>
<path d="M154583795 93710276 L154666042 93669152 L154748290 93586904 L154789414 93422409 L154789414 93134542 L154748290 92970047 L154666042 92887800 L154583795 92846676 L154419300 92846676 L154337052 92887800 L154254804 92970047 L154213680 93134542 L154213680 93422409 L154254804 93586904 L154337052 93669152 L154419300 93710276 L154583795 93710276 "/>
<path d="M153925814 93134542 L153761319 93710276 L153596823 93299038 L153432328 93710276 L153267833 93134542 "/>
<path d="M152938842 93710276 L152938842 93134542 "/>
<path d="M152938842 92846676 L152979966 92887800 L152938842 92928923 L152897719 92887800 L152938842 92846676 L152938842 92928923 "/>
<path d="M152527604 93710276 L152527604 93134542 "/>
<path d="M152527604 92846676 L152568728 92887800 L152527604 92928923 L152486480 92887800 L152527604 92846676 L152527604 92928923 "/>
<path d="M151746252 93669152 L151828500 93710276 L151992995 93710276 L152075242 93669152 L152116366 93628028 L152157490 93545780 L152157490 93299038 L152116366 93216790 L152075242 93175666 L151992995 93134542 L151828500 93134542 L151746252 93175666 "/>
<path d="M150759280 93463533 L150348042 93463533 "/>
<path d="M150841528 93710276 L150553661 92846676 L150265795 93710276 "/>
<path d="M149607814 93669152 L149690061 93710276 L149854557 93710276 L149936804 93669152 L149977928 93628028 L150019052 93545780 L150019052 93299038 L149977928 93216790 L149936804 93175666 L149854557 93134542 L149690061 93134542 L149607814 93175666 "/>
<path d="M148867585 93669152 L148949833 93710276 L149114328 93710276 L149196576 93669152 L149237700 93628028 L149278823 93545780 L149278823 93299038 L149237700 93216790 L149196576 93175666 L149114328 93134542 L148949833 93134542 L148867585 93175666 "/>
<path d="M148168480 93669152 L148250728 93710276 L148415223 93710276 L148497471 93669152 L148538595 93586904 L148538595 93257914 L148497471 93175666 L148415223 93134542 L148250728 93134542 L148168480 93175666 L148127357 93257914 L148127357 93340161 L148538595 93422409 "/>
<path d="M147633871 93710276 L147716119 93669152 L147757242 93586904 L147757242 92846676 "/>
<path d="M146975890 93669152 L147058138 93710276 L147222633 93710276 L147304880 93669152 L147346004 93586904 L147346004 93257914 L147304880 93175666 L147222633 93134542 L147058138 93134542 L146975890 93175666 L146934766 93257914 L146934766 93340161 L147346004 93422409 "/>
<path d="M146564652 93710276 L146564652 93134542 "/>
<path d="M146564652 93299038 L146523528 93216790 L146482404 93175666 L146400157 93134542 L146317909 93134542 "/>
<path d="M145906671 93710276 L145988919 93669152 L146030042 93628028 L146071166 93545780 L146071166 93299038 L146030042 93216790 L145988919 93175666 L145906671 93134542 L145783300 93134542 L145701052 93175666 L145659928 93216790 L145618804 93299038 L145618804 93545780 L145659928 93628028 L145701052 93669152 L145783300 93710276 L145906671 93710276 "/>
<path d="M145248690 93710276 L145248690 93134542 "/>
<path d="M145248690 93216790 L145207566 93175666 L145125319 93134542 L145001947 93134542 L144919700 93175666 L144878576 93257914 L144878576 93710276 "/>
<path d="M144878576 93257914 L144837452 93175666 L144755204 93134542 L144631833 93134542 L144549585 93175666 L144508461 93257914 L144508461 93710276 "/>
<path d="M143768233 93669152 L143850480 93710276 L144014976 93710276 L144097223 93669152 L144138347 93586904 L144138347 93257914 L144097223 93175666 L144014976 93134542 L143850480 93134542 L143768233 93175666 L143727109 93257914 L143727109 93340161 L144138347 93422409 "/>
<path d="M143480366 93134542 L143151376 93134542 "/>
<path d="M143356995 92846676 L143356995 93586904 L143315871 93669152 L143233623 93710276 L143151376 93710276 "/>
<path d="M142534519 93669152 L142616766 93710276 L142781261 93710276 L142863509 93669152 L142904633 93586904 L142904633 93257914 L142863509 93175666 L142781261 93134542 L142616766 93134542 L142534519 93175666 L142493395 93257914 L142493395 93340161 L142904633 93422409 "/>
<path d="M142123280 93710276 L142123280 93134542 "/>
<path d="M142123280 93299038 L142082157 93216790 L142041033 93175666 L141958785 93134542 L141876538 93134542 "/>
</g></g>
<g style="fill-opacity: 0.0;stroke-width: 32512.000000;stroke-opacity: 1;stroke-linecap: round;stroke-linejoin: round">
<text x="149409100.000000" y="109822488.000000" transform="scale(-1 1) translate(-298818200.000000 0)" textLength="798915.000000" font-size="498517.000000" lengthAdjust="spacingAndGlyphs" text-anchor="end" opacity="0">SJ1</text>
<g class="stroked-text"><desc>SJ1</desc>
<path d="M150356050 109786879 L150302638 109804683 L150213617 109804683 L150178008 109786879 L150160204 109769075 L150142400 109733467 L150142400 109697858 L150160204 109662250 L150178008 109644446 L150213617 109626641 L150284833 109608837 L150320442 109591033 L150338246 109573229 L150356050 109537620 L150356050 109502012 L150338246 109466404 L150320442 109448600 L150284833 109430795 L150195812 109430795 L150142400 109448600 "/>
<path d="M149875337 109430795 L149875337 109697858 L149893141 109751271 L149928750 109786879 L149982162 109804683 L150017771 109804683 "/>
<path d="M149501449 109804683 L149715099 109804683 "/>
<path d="M149608274 109804683 L149608274 109430795 L149643883 109484208 L149679491 109519816 L149715099 109537620 "/>
</g></g>
<g style="fill-opacity: 1.0;stroke-width: 1.000000;stroke-opacity: 1;stroke-linecap: round;stroke-linejoin: round">
<path style="fill-opacity: 1.0;stroke-width: 1.000000;stroke-opacity: 1;stroke-linecap: round;stroke-linejoin: round;fill-rule: evenodd" d="M 138597766.000000,112995380.000000 138603470.000000,112998232.000000 138630240.000000,112998232.000000 138640240.000000,113008232.000000 138653471.000000,113008232.000000 138673470.000000,113018232.000000 138683471.000000,113018232.000000 138717010.000000,113035002.000000 138720240.000000,113038232.000000 138740240.000000,113038232.000000 138757010.000000,113055002.000000 138777010.000000,113065002.000000 138780240.000000,113068232.000000 138800240.000000,113068232.000000 138813067.000000,113081059.000000 139108986.000000,112876978.000000 139373754.000000,113141746.000000 139172500.000000,113433565.000000 139172500.000000,113450492.000000 139175730.000000,113453722.000000 139185730.000000,113473722.000000 139202500.000000,113490492.000000 139202500.000000,113510492.000000 139205730.000000,113513722.000000 139222500.000000,113547261.000000 139222500.000000,113557262.000000 139242500.000000,113597261.000000 139242500.000000,113607262.000000 139252500.000000,113627261.000000 139252500.000000,113637262.000000 139260821.000000,113653904.000000 139612500.000000,113714192.000000 139612500.000000,114098271.000000 139255352.000000,114159497.000000 139252500.000000,114165201.000000 139252500.000000,114191971.000000 139242500.000000,114201971.000000 139242500.000000,114221971.000000 139225730.000000,114238741.000000 139222500.000000,114245201.000000 139222500.000000,114271971.000000 139212500.000000,114281971.000000 139212500.000000,114301971.000000 139195730.000000,114318741.000000 139185730.000000,114338741.000000 139175730.000000,114348741.000000 139172500.000000,114355201.000000 139172500.000000,114365202.000000 139168720.000000,114372761.000000 139373715.000000,114659754.000000 139109580.000000,114935895.000000 138813067.000000,114731404.000000 138810240.000000,114734231.000000 138800240.000000,114734231.000000 138790240.000000,114744231.000000 138780240.000000,114744231.000000 138770240.000000,114754231.000000 138760240.000000,114754231.000000 138750240.000000,114764231.000000 138740240.000000,114764231.000000 138730240.000000,114774231.000000 138720240.000000,114774231.000000 138710240.000000,114784231.000000 138690240.000000,114784231.000000 138649454.000000,114825017.000000 138415225.000000,114192600.000000 138479924.000000,114171034.000000 138511990.000000,114155001.000000 138531990.000000,114135001.000000 138551990.000000,114125001.000000 138563270.000000,114113721.000000 138573270.000000,114093721.000000 138593270.000000,114073721.000000 138609303.000000,114041655.000000 138619304.000000,114011652.000000 138636500.000000,113977261.000000 138636500.000000,113950064.000000 138646500.000000,113920064.000000 138646500.000000,113872399.000000 138610059.000000,113763077.000000 138574968.000000,113710440.000000 138560292.000000,113695764.000000 138530291.000000,113675763.000000 138510292.000000,113655764.000000 138487655.000000,113640673.000000 138457656.000000,113630673.000000 138432994.000000,113614232.000000 138409822.000000,113614232.000000 138369824.000000,113604232.000000 138310667.000000,113604232.000000 138280667.000000,113614232.000000 138256006.000000,113614232.000000 138231344.000000,113630673.000000 138201345.000000,113640673.000000 138148708.000000,113675764.000000 138114032.000000,113710440.000000 138078941.000000,113763077.000000 138068941.000000,113793076.000000 138052500.000000,113817738.000000 138052500.000000,113842399.000000 138042500.000000,113872399.000000 138042500.000000,113950064.000000 138052500.000000,113980064.000000 138052500.000000,113997261.000000 138059696.000000,114011652.000000 138069697.000000,114041655.000000 138075730.000000,114053721.000000 138095730.000000,114073721.000000 138105730.000000,114093721.000000 138137010.000000,114125001.000000 138157010.000000,114135001.000000 138177010.000000,114155001.000000 138261968.000000,114197479.000000 137976500.000000,114968242.000000 137976500.000000,114781971.000000 137968760.000000,114774231.000000 137958760.000000,114774231.000000 137948760.000000,114764231.000000 137938760.000000,114764231.000000 137928760.000000,114754231.000000 137908760.000000,114754231.000000 137898760.000000,114744231.000000 137888760.000000,114744231.000000 137875933.000000,114731404.000000 137580014.000000,114935485.000000 137304326.000000,114659797.000000 137518611.000000,114374082.000000 137513270.000000,114368741.000000 137496500.000000,114335202.000000 137496500.000000,114325201.000000 137493270.000000,114318741.000000 137483270.000000,114308741.000000 137466500.000000,114275202.000000 137466500.000000,114265201.000000 137446500.000000,114225202.000000 137446500.000000,114215201.000000 137436500.000000,114195202.000000 137436500.000000,114185201.000000 137426500.000000,114165202.000000 137426500.000000,114159986.000000 137066500.000000,114098271.000000 137066500.000000,113714041.000000 137426500.000000,113654041.000000 137426500.000000,113630492.000000 137436500.000000,113620492.000000 137436500.000000,113600492.000000 137453270.000000,113583722.000000 137456500.000000,113577262.000000 137456500.000000,113550492.000000 137466500.000000,113540492.000000 137466500.000000,113520492.000000 137483270.000000,113503722.000000 137493270.000000,113483722.000000 137496500.000000,113480492.000000 137496500.000000,113460492.000000 137513270.000000,113443722.000000 137517247.000000,113435768.000000 137304286.000000,113141678.000000 137580597.000000,112877380.000000 137873387.000000,113079304.000000 137895529.000000,113068232.000000 137905530.000000,113068232.000000 137911990.000000,113065002.000000 137921990.000000,113055002.000000 137955529.000000,113038232.000000 137965530.000000,113038232.000000 137971990.000000,113035002.000000 137988760.000000,113018232.000000 138015530.000000,113018232.000000 138035529.000000,113008232.000000 138045530.000000,113008232.000000 138065529.000000,112998232.000000 138075530.000000,112998232.000000 138092172.000000,112989911.000000 138152460.000000,112638232.000000 138536540.000000,112638232.000000 Z"/> 
</g>
<g style="fill-opacity: 0.0;stroke-width: 203200.000000;stroke-opacity: 1;stroke-linecap: round;stroke-linejoin: round">
<path d="M147701100 111718600 L149301100 111718600 "/>
<path d="M149301100 109718600 L147701100 109718600 "/>
<path d="M149301100.162427 111718600.812119 A254952.000000 254952.000000 0.0 0 0 149501100.042890 111418599.991422"/>
<path d="M147501099.976152 111418599.995230 A254951.000000 254951.000000 0.0 0 0 147701099.995230 111718600.023848"/>
<path d="M149501099.062309 110018599.812463 A254951.000000 254951.000000 0.0 0 0 149301099.966307 109718600.168461"/>
<path d="M147701099.995230 109718599.976152 A254951.000000 254951.000000 0.0 0 0 147501099.976152 110018600.004770"/>
</g>
<g style="fill-opacity: 1.0;stroke-width: 1.000000;stroke-opacity: 1;stroke-linecap: round;stroke-linejoin: round">
<path style="fill-opacity: 1.0;stroke-width: 1.000000;stroke-opacity: 1;stroke-linecap: round;stroke-linejoin: round;fill-rule: evenodd" d="M 146524198.000000,96393052.000000 146609813.000000,96435859.000000 146686232.000000,96490445.000000 146742929.000000,96558481.000000 146775466.000000,96634399.000000 146808200.000000,96721691.000000 146808200.000000,96890500.000000 146909150.000000,96890500.000000 146947314.000000,96941386.000000 146985126.000000,96969745.000000 147017041.000000,97001659.000000 147145128.000000,97129746.000000 147274400.000000,97226700.000000 146808200.000000,97226700.000000 146808200.000000,98386700.000000 146352000.000000,98386700.000000 146352000.000000,97226700.000000 146082000.000000,97226700.000000 146082000.000000,96890500.000000 146352000.000000,96890500.000000 146352000.000000,96853289.000000 146342000.000000,96813290.000000 146342000.000000,96777595.000000 146337081.000000,96767757.000000 146324012.000000,96748154.000000 146296799.000000,96734547.000000 146265411.000000,96726700.000000 146062000.000000,96726700.000000 146062000.000000,96385053.000000 146111106.000000,96360500.000000 146415692.000000,96360500.000000 Z"/> 
<path style="fill-opacity: 1.0;stroke-width: 1.000000;stroke-opacity: 1;stroke-linecap: round;stroke-linejoin: round;fill-rule: evenodd" d="M 151906364.000000,96871018.000000 151973499.000000,96882208.000000 152029702.000000,96915930.000000 152081900.000000,96947248.000000 152135549.000000,96990167.000000 152152000.000000,97006618.000000 152152000.000000,96882125.000000 152247572.000000,96901240.000000 152298461.000000,96911418.000000 152338457.000000,96921417.000000 152388461.000000,96931418.000000 152424789.000000,96940500.000000 152473873.000000,96940500.000000 152528461.000000,96951418.000000 152598200.000000,96968852.000000 152598200.000000,98866912.000000 152535551.000000,98917031.000000 152445549.000000,99007033.000000 152393901.000000,99048351.000000 152295551.000000,99127031.000000 152142000.000000,99280582.000000 152142000.000000,98264715.000000 152115574.000000,98297748.000000 152059702.000000,98331270.000000 152008448.000000,98362023.000000 151942015.000000,98395240.000000 151876364.000000,98406182.000000 151816364.000000,98416182.000000 151750728.000000,98427121.000000 151591481.000000,98405888.000000 151462459.000000,98362880.000000 151345273.000000,98277655.000000 151249280.000000,98181661.000000 151167289.000000,98031345.000000 151579577.000000,97837326.000000 151623081.000000,97938836.000000 151657448.000000,97981795.000000 151707796.000000,98023752.000000 151777104.000000,98041079.000000 151850364.000000,98050236.000000 151932711.000000,98041087.000000 151991893.000000,98024177.000000 152044377.000000,97980441.000000 152087972.000000,97936846.000000 152113878.000000,97876399.000000 152152000.000000,97723911.000000 152152000.000000,97560974.000000 152142850.000000,97487776.000000 152114731.000000,97412791.000000 152087272.000000,97348720.000000 152043295.000000,97295948.000000 152001039.000000,97262143.000000 151930924.000000,97235850.000000 151859836.000000,97226964.000000 151779917.000000,97235844.000000 151718325.000000,97262240.000000 151665831.000000,97297236.000000 151622928.000000,97348720.000000 151595469.000000,97412791.000000 151567350.000000,97487776.000000 151558200.000000,97560974.000000 151558200.000000,97685736.000000 151089305.000000,97697759.000000 151102268.000000,97503314.000000 151133195.000000,97358988.000000 151175197.000000,97222482.000000 151249659.000000,97105470.000000 151345259.000000,96999248.000000 151463255.000000,96924159.000000 151612277.000000,96870937.000000 151768831.000000,96860500.000000 151843253.000000,96860500.000000 Z"/> 
<path style="fill-opacity: 1.0;stroke-width: 1.000000;stroke-opacity: 1;stroke-linecap: round;stroke-linejoin: round;fill-rule: evenodd" d="M 143789312.000000,96871510.000000 143852148.000000,96892455.000000 143916989.000000,96914069.000000 143982610.000000,96957816.000000 144035549.000000,97000167.000000 144062000.000000,97026619.000000 144062000.000000,96890500.000000 144508200.000000,96890500.000000 144508200.000000,98386700.000000 144042000.000000,98386700.000000 144042000.000000,97510710.000000 144032856.000000,97428417.000000 144006099.000000,97365984.000000 143978751.000000,97320403.000000 143944625.000000,97277746.000000 143906703.000000,97254993.000000 143854598.000000,97246309.000000 143780886.000000,97237095.000000 143726952.000000,97246084.000000 143684042.000000,97254666.000000 143646103.000000,97277429.000000 143621756.000000,97309892.000000 143596493.000000,97351997.000000 143587751.000000,97404450.000000 143577867.000000,97473638.000000 143568200.000000,97550974.000000 143568200.000000,98386700.000000 143102000.000000,98386700.000000 143102000.000000,97477137.000000 143112263.000000,97343718.000000 143132995.000000,97229691.000000 143165078.000000,97122748.000000 143220091.000000,97034727.000000 143296932.000000,96957886.000000 143395627.000000,96903056.000000 143513669.000000,96870862.000000 143658741.000000,96860500.000000 143723253.000000,96860500.000000 Z"/> 
<path style="fill-opacity: 1.0;stroke-width: 1.000000;stroke-opacity: 1;stroke-linecap: round;stroke-linejoin: round;fill-rule: evenodd" d="M 150486952.000000,96871116.000000 150549312.000000,96881510.000000 150609899.000000,96901705.000000 150661002.000000,96911926.000000 150717084.000000,96934359.000000 150769702.000000,96965930.000000 150821388.000000,96996941.000000 150867314.000000,97031386.000000 150901759.000000,97077312.000000 150931756.000000,97127308.000000 150964290.000000,97170686.000000 150987190.000000,97239388.000000 150997682.000000,97302336.000000 151015076.000000,97406700.000000 150542000.000000,97406700.000000 150542000.000000,97327595.000000 150534811.000000,97313217.000000 150524812.000000,97283219.000000 150518787.000000,97271169.000000 150487531.000000,97239913.000000 150401105.000000,97196700.000000 150239095.000000,97196700.000000 150219094.000000,97206700.000000 150199095.000000,97206700.000000 150158498.000000,97226998.000000 150151413.000000,97241169.000000 150141413.000000,97251169.000000 150118200.000000,97297595.000000 150118200.000000,97385900.000000 150136103.000000,97409771.000000 150176113.000000,97433777.000000 150231365.000000,97452194.000000 150336000.000000,97482090.000000 150269848.000000,97746700.000000 150191106.000000,97746700.000000 150171105.000000,97736700.000000 150151106.000000,97736700.000000 150123061.000000,97722678.000000 150118200.000000,97720247.000000 150118200.000000,97882417.000000 150125388.000000,97903981.000000 150135389.000000,97923983.000000 150146245.000000,97956552.000000 150153401.000000,97978019.000000 150169708.000000,97994327.000000 150189707.000000,98024325.000000 150204375.000000,98038993.000000 150225743.000000,98053239.000000 150263398.000000,98062652.000000 150299095.000000,98080500.000000 150343873.000000,98080500.000000 150393872.000000,98090500.000000 150431105.000000,98090500.000000 150451106.000000,98080500.000000 150471105.000000,98080500.000000 150491106.000000,98070500.000000 150511105.000000,98070500.000000 150537531.000000,98057287.000000 150547531.000000,98047287.000000 150561702.000000,98040202.000000 150568787.000000,98026031.000000 150578787.000000,98016031.000000 150582000.000000,98009605.000000 150582000.000000,97992417.000000 150592000.000000,97962417.000000 150592000.000000,97927595.000000 150582000.000000,97907594.000000 150582000.000000,97887595.000000 150561702.000000,97846998.000000 150547531.000000,97839913.000000 150537531.000000,97829913.000000 150497531.000000,97809913.000000 150487531.000000,97799913.000000 150475481.000000,97793888.000000 150410347.000000,97772177.000000 150514995.000000,97497476.000000 150636854.000000,97511016.000000 150721446.000000,97532164.000000 150806345.000000,97564001.000000 150882146.000000,97607316.000000 150959906.000000,97673967.000000 151005052.000000,97752973.000000 151037101.000000,97849120.000000 151058886.000000,97968940.000000 151048200.000000,98022372.000000 151048200.000000,98077594.000000 151026459.000000,98121077.000000 151015982.000000,98173463.000000 150991215.000000,98210614.000000 150961213.000000,98250616.000000 150939708.000000,98282873.000000 150902669.000000,98319913.000000 150859257.000000,98341619.000000 150829260.000000,98361617.000000 150785721.000000,98383386.000000 150731849.000000,98404935.000000 150684790.000000,98416700.000000 150633872.000000,98416700.000000 150583873.000000,98426700.000000 150463917.000000,98426700.000000 150433917.000000,98416700.000000 150393917.000000,98416700.000000 150363917.000000,98406700.000000 150333917.000000,98406700.000000 150238052.000000,98374745.000000 150203211.000000,98363131.000000 150173212.000000,98343132.000000 150143211.000000,98333131.000000 150105827.000000,98308208.000000 150090100.000000,98292482.000000 150088200.000000,98294382.000000 150088200.000000,98324382.000000 150078200.000000,98334382.000000 150078200.000000,98344382.000000 150068200.000000,98354382.000000 150068200.000000,98386700.000000 149602000.000000,98386700.000000 149602000.000000,98322818.000000 149618787.000000,98306031.000000 149622000.000000,98299605.000000 149622000.000000,98269606.000000 149632000.000000,98249605.000000 149632000.000000,98229606.000000 149642000.000000,98209605.000000 149642000.000000,98119606.000000 149652000.000000,98099605.000000 149652000.000000,97234827.000000 149663426.000000,97177698.000000 149685314.000000,97122979.000000 149707559.000000,97078488.000000 149742886.000000,97031386.000000 149787240.000000,96998120.000000 149827240.000000,96968120.000000 149871271.000000,96935097.000000 149929198.000000,96911926.000000 149979197.000000,96901926.000000 150029198.000000,96881926.000000 150086327.000000,96870500.000000 150146328.000000,96870500.000000 150196327.000000,96860500.000000 150433873.000000,96860500.000000 Z"/> 
<path style="fill-opacity: 1.0;stroke-width: 1.000000;stroke-opacity: 1;stroke-linecap: round;stroke-linejoin: round;fill-rule: evenodd" d="M 148801363.000000,96882193.000000 148865727.000000,96903648.000000 148941582.000000,96946994.000000 148996906.000000,96991253.000000 149049613.000000,97054502.000000 149062000.000000,97069986.000000 149062000.000000,96879802.000000 149148457.000000,96901417.000000 149197572.000000,96911240.000000 149248461.000000,96921418.000000 149288457.000000,96931417.000000 149333872.000000,96940500.000000 149384790.000000,96940500.000000 149428457.000000,96951417.000000 149508200.000000,96967365.000000 149508200.000000,98386700.000000 149042000.000000,98386700.000000 149042000.000000,97622783.000000 149023152.000000,97537970.000000 149004733.000000,97473500.000000 148968683.000000,97410414.000000 148925231.000000,97358271.000000 148865759.000000,97324287.000000 148793552.000000,97306235.000000 148698199.000000,97296700.000000 148599095.000000,97296700.000000 148579094.000000,97306700.000000 148522000.000000,97306700.000000 148522000.000000,96870500.000000 148554318.000000,96870500.000000 148564318.000000,96860500.000000 148725436.000000,96860500.000000 Z"/> 
<path style="fill-opacity: 1.0;stroke-width: 1.000000;stroke-opacity: 1;stroke-linecap: round;stroke-linejoin: round;fill-rule: evenodd" d="M 151558200.000000,97726226.000000 151567350.000000,97799424.000000 151608109.000000,97908115.000000 151200260.000000,98100044.000000 151133697.000000,97940293.000000 151102308.000000,97804275.000000 151089255.000000,97621535.000000 151558200.000000,97609511.000000 Z"/> 
<path style="fill-opacity: 1.0;stroke-width: 1.000000;stroke-opacity: 1;stroke-linecap: round;stroke-linejoin: round;fill-rule: evenodd" d="M 153617244.000000,96881174.000000 153722575.000000,96902241.000000 153831334.000000,96956620.000000 153906972.000000,97021452.000000 153983058.000000,97108408.000000 154027594.000000,97219749.000000 154038376.000000,97349127.000000 154027343.000000,97448419.000000 153993741.000000,97526824.000000 153947574.000000,97596074.000000 153880142.000000,97641029.000000 153807111.000000,97682761.000000 153734301.000000,97713966.000000 153650975.000000,97745213.000000 153557969.000000,97765881.000000 153458457.000000,97785783.000000 153300765.000000,97825206.000000 153246113.000000,97843423.000000 153201392.000000,97870256.000000 153170156.000000,97893683.000000 153156047.000000,97921901.000000 153149372.000000,97948600.000000 153164502.000000,98009120.000000 153185128.000000,98029746.000000 153220210.000000,98056058.000000 153253401.000000,98072653.000000 153284789.000000,98080500.000000 153324790.000000,98080500.000000 153361651.000000,98089715.000000 153413248.000000,98081116.000000 153463230.000000,98071119.000000 153514673.000000,98062545.000000 153582886.000000,98011386.000000 153606596.000000,97979771.000000 153622000.000000,97941262.000000 153622000.000000,97850500.000000 154074510.000000,97850500.000000 154047094.000000,98028702.000000 154003477.000000,98137745.000000 153927935.000000,98234871.000000 153841511.000000,98310492.000000 153733764.000000,98364365.000000 153618265.000000,98395865.000000 153494822.000000,98416439.000000 153370100.000000,98426832.000000 153245378.000000,98416439.000000 153121935.000000,98395865.000000 153006436.000000,98364365.000000 152898689.000000,98310492.000000 152812011.000000,98234649.000000 152746227.000000,98146936.000000 152703013.000000,98028098.000000 152681676.000000,97889407.000000 152692857.000000,97788781.000000 152726459.000000,97710376.000000 152771464.000000,97642868.000000 152838285.000000,97587184.000000 152911197.000000,97545520.000000 152986205.000000,97502658.000000 153081367.000000,97481511.000000 153323091.000000,97421080.000000 153401631.000000,97411262.000000 153455481.000000,97393312.000000 153509990.000000,97366058.000000 153542886.000000,97341386.000000 153565004.000000,97311894.000000 153572000.000000,97283911.000000 153572000.000000,97260135.000000 153545650.000000,97220611.000000 153529435.000000,97215206.000000 153489440.000000,97205208.000000 153463917.000000,97196700.000000 153307438.000000,97196700.000000 153265725.000000,97213385.000000 153229257.000000,97231619.000000 153207574.000000,97246074.000000 153194002.000000,97266433.000000 153176774.000000,97309503.000000 153161335.000000,97386700.000000 152715124.000000,97386700.000000 152743460.000000,97216685.000000 152797559.000000,97108488.000000 152862886.000000,97021386.000000 152950688.000000,96955534.000000 153046836.000000,96912802.000000 153151191.000000,96881495.000000 153266665.000000,96860500.000000 153503535.000000,96860500.000000 Z"/> 
<path style="fill-opacity: 1.0;stroke-width: 1.000000;stroke-opacity: 1;stroke-linecap: round;stroke-linejoin: round;fill-rule: evenodd" d="M 145108200.000000,97776226.000000 145117239.000000,97848539.000000 145144672.000000,97912549.000000 145171413.000000,97966031.000000 145203727.000000,97998345.000000 145243497.000000,98022207.000000 145295602.000000,98030891.000000 145369314.000000,98040105.000000 145423248.000000,98031116.000000 145466158.000000,98022534.000000 145504097.000000,97999771.000000 145554045.000000,97933173.000000 145562391.000000,97883098.000000 145582000.000000,97726226.000000 145582000.000000,96890500.000000 146038200.000000,96890500.000000 146038200.000000,97932035.000000 146017205.000000,98047509.000000 145985408.000000,98153498.000000 145930085.000000,98253079.000000 145851970.000000,98320035.000000 145755961.000000,98373373.000000 145638121.000000,98416224.000000 145488300.000000,98426926.000000 145424250.000000,98416251.000000 145351311.000000,98405831.000000 145286990.000000,98384391.000000 145234479.000000,98363386.000000 145169451.000000,98330873.000000 145112993.000000,98285707.000000 145088200.000000,98254715.000000 145088200.000000,98386700.000000 144642000.000000,98386700.000000 144642000.000000,96890500.000000 145108200.000000,96890500.000000 Z"/> 
<path style="fill-opacity: 1.0;stroke-width: 1.000000;stroke-opacity: 1;stroke-linecap: round;stroke-linejoin: round;fill-rule: evenodd" d="M 146832955.000000,94082213.000000 146952162.000000,94147235.000000 147048614.000000,94232969.000000 147104433.000000,94311117.000000 147138200.000000,94412417.000000 147138200.000000,94502782.000000 147116092.000000,94602266.000000 147061439.000000,94700642.000000 146988675.000000,94783801.000000 146908696.000000,94873777.000000 146842743.000000,94949152.000000 146818200.000000,95006419.000000 146818200.000000,95062417.000000 146834096.000000,95110105.000000 146866156.000000,95150180.000000 146915743.000000,95183239.000000 146984789.000000,95200500.000000 147056328.000000,95200500.000000 147099197.000000,95191926.000000 147142267.000000,95174698.000000 147165825.000000,95158993.000000 147188787.000000,95136031.000000 147204812.000000,95103981.000000 147212000.000000,95082417.000000 147212000.000000,95064783.000000 147205568.000000,95045488.000000 147190493.000000,95022875.000000 147159519.000000,94991901.000000 147135483.000000,94983889.000000 147087531.000000,94959913.000000 147035781.000000,94908162.000000 147111106.000000,94870500.000000 147135411.000000,94870500.000000 147175410.000000,94860500.000000 147263253.000000,94860500.000000 147330426.000000,94871695.000000 147384250.000000,94893225.000000 147438929.000000,94915097.000000 147481392.000000,94946944.000000 147537870.000000,94980830.000000 147573523.000000,95040252.000000 147605389.000000,95103983.000000 147627521.000000,95170381.000000 147637967.000000,95264393.000000 147648200.000000,95356490.000000 147648200.000000,96676700.000000 147579709.000000,96676700.000000 147550493.000000,96632875.000000 147521245.000000,96603626.000000 147491246.000000,96563628.000000 147441937.000000,96514319.000000 147391941.000000,96454323.000000 147330930.000000,96393311.000000 147280932.000000,96323314.000000 147151937.000000,96194319.000000 147103295.000000,96135948.000000 147008297.000000,96059949.000000 146966703.000000,96034993.000000 146916944.000000,96026700.000000 146726947.000000,96026700.000000 146601935.000000,96005865.000000 146487973.000000,95974784.000000 146383116.000000,95932841.000000 146277576.000000,95869517.000000 146194056.000000,95796438.000000 146111482.000000,95713863.000000 146038222.000000,95619672.000000 145934600.000000,95433152.000000 145882287.000000,95244827.000000 145871803.000000,95056110.000000 145903207.000000,94888620.000000 145955409.000000,94742456.000000 146029102.000000,94616124.000000 146116498.000000,94517804.000000 146258200.000000,94446953.000000 146258200.000000,94582417.000000 146272111.000000,94624150.000000 146286988.000000,94634068.000000 146306283.000000,94640500.000000 146361105.000000,94640500.000000 146430943.000000,94605581.000000 146458084.000000,94587487.000000 146498086.000000,94557485.000000 146525825.000000,94538993.000000 146548787.000000,94516031.000000 146567083.000000,94479440.000000 146584738.000000,94452957.000000 146593492.000000,94417940.000000 146599939.000000,94398600.000000 146594812.000000,94383219.000000 146584811.000000,94363217.000000 146575568.000000,94335488.000000 146562019.000000,94315165.000000 146529990.000000,94291142.000000 146497623.000000,94274959.000000 146451739.000000,94265782.000000 146415411.000000,94256700.000000 146396283.000000,94256700.000000 146366283.000000,94266700.000000 146238118.000000,94266700.000000 146315074.000000,94189745.000000 146359988.000000,94156059.000000 146424850.000000,94123628.000000 146507383.000000,94092678.000000 146603917.000000,94060500.000000 146713535.000000,94060500.000000 Z"/> 
<path style="fill-opacity: 1.0;stroke-width: 1.000000;stroke-opacity: 1;stroke-linecap: round;stroke-linejoin: round;fill-rule: evenodd" d="M 148448200.000000,96585843.000000 148448200.000000,98386700.000000 147982000.000000,98386700.000000 147982000.000000,97875156.000000 147878052.000000,97778138.000000 147501324.000000,98386700.000000 146939566.000000,98386700.000000 147551081.000000,97453881.000000 146976865.000000,96890500.000000 147546330.000000,96890500.000000 147982000.000000,97343953.000000 147982000.000000,96334812.000000 Z"/> 
<path style="fill-opacity: 1.0;stroke-width: 1.000000;stroke-opacity: 1;stroke-linecap: round;stroke-linejoin: round;fill-rule: evenodd" d="M 150364897.000000,97480799.000000 150454307.000000,97490733.000000 150593226.000000,97506168.000000 150486357.000000,97786700.000000 150431106.000000,97786700.000000 150411105.000000,97776700.000000 150373917.000000,97776700.000000 150343917.000000,97766700.000000 150303917.000000,97766700.000000 150273917.000000,97756700.000000 150251106.000000,97756700.000000 150195725.000000,97729010.000000 150261472.000000,97466023.000000 Z"/> 
</g> 
</g><g id="substrate-outline" style="fill:#000000; stroke:#000000; stroke-width: 150000"><g style="fill-opacity: 0.0;stroke-opacity: 1;stroke-linecap: round;stroke-linejoin: round">
<path d="M161201100 117703600 L135801100 117703600 "/>
<path d="M135801100 117703600 L135801100 92303600 "/>
<path d="M135801100 92303600 L161201100 92303600 "/>
<path d="M161201100 92303600 L161201100 117703600 "/>
</g> 
<path d="M -1651000.0 0.0 A 1651000.0 1651000.0 0 1 1 1651000.0 0.0 L 1651000.0 0.0 A 1651000.0 1651000.0 0 1 1 -1651000.0 0.0 Z" transform="translate(138341100 94843600) rotate(-0.0)"/><path d="M -508000.0 0.0 A 508000.0 508000.0 0 1 1 508000.0 0.0 L 508000.0 0.0 A 508000.0 508000.0 0 1 1 -508000.0 0.0 Z" transform="translate(142151100 116433600) rotate(-90.0)"/><path d="M -508000.0 0.0 A 508000.0 508000.0 0 1 1 508000.0 0.0 L 508000.0 0.0 A 508000.0 508000.0 0 1 1 -508000.0 0.0 Z" transform="translate(144691100 116433600) rotate(-90.0)"/><path d="M -508000.0 0.0 A 508000.0 508000.0 0 1 1 508000.0 0.0 L 508000.0 0.0 A 508000.0 508000.0 0 1 1 -508000.0 0.0 Z" transform="translate(147231100 116433600) rotate(-90.0)"/><path d="M -508000.0 0.0 A 508000.0 508000.0 0 1 1 508000.0 0.0 L 508000.0 0.0 A 508000.0 508000.0 0 1 1 -508000.0 0.0 Z" transform="translate(149771100 116433600) rotate(-90.0)"/><path d="M -508000.0 0.0 A 508000.0 508000.0 0 1 1 508000.0 0.0 L 508000.0 0.0 A 508000.0 508000.0 0 1 1 -508000.0 0.0 Z" transform="translate(154851100 116433600) rotate(-270.0)"/><path d="M -508000.0 0.0 A 508000.0 508000.0 0 1 1 508000.0 0.0 L 508000.0 0.0 A 508000.0 508000.0 0 1 1 -508000.0 0.0 Z" transform="translate(152311100 116433600) rotate(-270.0)"/><path d="M -1651000.0 0.0 A 1651000.0 1651000.0 0 1 1 1651000.0 0.0 L 1651000.0 0.0 A 1651000.0 1651000.0 0 1 1 -1651000.0 0.0 Z" transform="translate(158661100 94843600) rotate(-0.0)"/><path d="M -190500.0 0.0 A 190500.0 190500.0 0 1 1 190500.0 0.0 L 190500.0 0.0 A 190500.0 190500.0 0 1 1 -190500.0 0.0 Z" transform="translate(151104600 103670100) rotate(0.0)"/><path d="M -190500.0 0.0 A 190500.0 190500.0 0 1 1 190500.0 0.0 L 190500.0 0.0 A 190500.0 190500.0 0 1 1 -190500.0 0.0 Z" transform="translate(149771100 107543600) rotate(0.0)"/><path d="M -190500.0 0.0 A 190500.0 190500.0 0 1 1 190500.0 0.0 L 190500.0 0.0 A 190500.0 190500.0 0 1 1 -190500.0 0.0 Z" transform="translate(144691100 111353600) rotate(0.0)"/><path d="M -190500.0 0.0 A 190500.0 190500.0 0 1 1 190500.0 0.0 L 190500.0 0.0 A 190500.0 190500.0 0 1 1 -190500.0 0.0 Z" transform="translate(142786100 105638600) rotate(0.0)"/><path d="M -190500.0 0.0 A 190500.0 190500.0 0 1 1 190500.0 0.0 L 190500.0 0.0 A 190500.0 190500.0 0 1 1 -190500.0 0.0 Z" transform="translate(142786100 102971600) rotate(0.0)"/><path d="M -190500.0 0.0 A 190500.0 190500.0 0 1 1 190500.0 0.0 L 190500.0 0.0 A 190500.0 190500.0 0 1 1 -190500.0 0.0 Z" transform="translate(156121100 99923600) rotate(0.0)"/><path d="M -190500.0 0.0 A 190500.0 190500.0 0 1 1 190500.0 0.0 L 190500.0 0.0 A 190500.0 190500.0 0 1 1 -190500.0 0.0 Z" transform="translate(153581100 107543600) rotate(0.0)"/><path d="M -190500.0 0.0 A 190500.0 190500.0 0 1 1 190500.0 0.0 L 190500.0 0.0 A 190500.0 190500.0 0 1 1 -190500.0 0.0 Z" transform="translate(153581100 112623600) rotate(0.0)"/><path d="M -190500.0 0.0 A 190500.0 190500.0 0 1 1 190500.0 0.0 L 190500.0 0.0 A 190500.0 190500.0 0 1 1 -190500.0 0.0 Z" transform="translate(145961100 107543600) rotate(0.0)"/><path d="M -190500.0 0.0 A 190500.0 190500.0 0 1 1 190500.0 0.0 L 190500.0 0.0 A 190500.0 190500.0 0 1 1 -190500.0 0.0 Z" transform="translate(151041100 113893600) rotate(0.0)"/><path d="M -190500.0 0.0 A 190500.0 190500.0 0 1 1 190500.0 0.0 L 190500.0 0.0 A 190500.0 190500.0 0 1 1 -190500.0 0.0 Z" transform="translate(144691100 110083600) rotate(0.0)"/><path d="M -190500.0 0.0 A 190500.0 190500.0 0 1 1 190500.0 0.0 L 190500.0 0.0 A 190500.0 190500.0 0 1 1 -190500.0 0.0 Z" transform="translate(158661100 103733600) rotate(0.0)"/><path d="M -190500.0 0.0 A 190500.0 190500.0 0 1 1 190500.0 0.0 L 190500.0 0.0 A 190500.0 190500.0 0 1 1 -190500.0 0.0 Z" transform="translate(138341100 105003600) rotate(0.0)"/><path d="M -190500.0 0.0 A 190500.0 190500.0 0 1 1 190500.0 0.0 L 190500.0 0.0 A 190500.0 190500.0 0 1 1 -190500.0 0.0 Z" transform="translate(158661100 105003600) rotate(0.0)"/><path d="M -190500.0 0.0 A 190500.0 190500.0 0 1 1 190500.0 0.0 L 190500.0 0.0 A 190500.0 190500.0 0 1 1 -190500.0 0.0 Z" transform="translate(147231100 107543600) rotate(0.0)"/><path d="M -190500.0 0.0 A 190500.0 190500.0 0 1 1 190500.0 0.0 L 190500.0 0.0 A 190500.0 190500.0 0 1 1 -190500.0 0.0 Z" transform="translate(146850100 110718600) rotate(0.0)"/></g></g></g></svg>