<!DOCTYPE svg PUBLIC "-//W3C//DTD SVG 1.1//EN" "http://www.w3.org/Graphics/SVG/1.1/DTD/svg11.dtd">
<svg xmlns="http://www.w3.org/2000/svg" version="1.1" width="27.4mm" height="27.4mm" viewBox="-16220110.0 9130360.0 2740000.0 2740000.0">
            <title>Picture generated by PcbDraw </title>
            <desc>Picture generated by PcbDraw</desc>
        <defs><clipPath id="cut-off"><path d=" M 13580110.0 11770360.0 L 13580110.0 9230360.0 L 16120110.0 9230360.0 L 16120110.0 11770360.0 L 13580110.0 11770360.0 " style="fill-rule: evenodd;"/></clipPath><mask id="pads-mask"><g style="fill:#ffffff; fill-opacity:0.0;  stroke:#ffffff; stroke-width:0.000000; stroke-opacity:1;  stroke-linecap:round; stroke-linejoin:round;">
<g style="fill:#ffffff; fill-opacity:1.0;  stroke:#ffffff; stroke-width:0.100000; stroke-opacity:1;  stroke-linecap:round; stroke-linejoin:round;">
<circle cx="15358110.000000" cy="11643360.000000" r="104140.000000"/> 
</g>
<g style="fill:#ffffff; fill-opacity:1.0;  stroke:#ffffff; stroke-width:0.100000; stroke-opacity:1;  stroke-linecap:round; stroke-linejoin:round;">
<circle cx="14342110.000000" cy="11643360.000000" r="104140.000000"/> 
</g>
<g style="fill:#ffffff; fill-opacity:1.0;  stroke:#ffffff; stroke-width:0.100000; stroke-opacity:1;  stroke-linecap:round; stroke-linejoin:round;">
<circle cx="14596110.000000" cy="11643360.000000" r="104140.000000"/> 
</g>
<g style="fill:#ffffff; fill-opacity:1.0;  stroke:#ffffff; stroke-width:0.100000; stroke-opacity:1;  stroke-linecap:round; stroke-linejoin:round;">
<circle cx="14850110.000000" cy="11643360.000000" r="104140.000000"/> 
</g>
<g style="fill:#ffffff; fill-opacity:1.0;  stroke:#ffffff; stroke-width:0.100000; stroke-opacity:1;  stroke-linecap:round; stroke-linejoin:round;">
<circle cx="15104110.000000" cy="11643360.000000" r="104140.000000"/> 
</g>
<g style="fill:#ffffff; fill-opacity:1.0;  stroke:#ffffff; stroke-width:0.100000; stroke-opacity:1;  stroke-linecap:round; stroke-linejoin:round;">
<circle cx="13834110.000000" cy="9484360.000000" r="165100.000000"/> 
</g>
<g style="fill:#ffffff; fill-opacity:1.0;  stroke:#ffffff; stroke-width:0.100000; stroke-opacity:1;  stroke-linecap:round; stroke-linejoin:round;">
<circle cx="15866110.000000" cy="9484360.000000" r="165100.000000"/> 
</g>
<g style="fill:#ffffff; fill-opacity:1.0;  stroke:#ffffff; stroke-width:0.100000; stroke-opacity:1;  stroke-linecap:round; stroke-linejoin:round;">
<path style="fill:#ffffff; fill-opacity:1.0;  stroke:#ffffff; stroke-width:0.100000; stroke-opacity:1;  stroke-linecap:round; stroke-linejoin:round;fill-rule:evenodd;" d="M 13698220.000000,9306560.000000 13696168.800000,9319510.900000 13690215.900000,9331194.100000 13680944.100000,9340465.900000 13669260.900000,9346418.800000 13656310.000000,9348470.000000 13643359.100000,9346418.800000 13631675.900000,9340465.900000 13622404.100000,9331194.100000 13616451.200000,9319510.900000 13614400.000000,9306560.000000 13616451.200000,9293609.100000 13622404.100000,9281925.900000 13631675.900000,9272654.100000 13643359.100000,9266701.200000 13656310.000000,9264650.000000 13669260.900000,9266701.200000 13680944.100000,9272654.100000 13690215.900000,9281925.900000 13696168.800000,9293609.100000 13698220.000000,9306560.000000 Z"/> 
</g>
<g style="fill:#ffffff; fill-opacity:1.0;  stroke:#ffffff; stroke-width:0.100000; stroke-opacity:1;  stroke-linecap:round; stroke-linejoin:round;">
<path style="fill:#ffffff; fill-opacity:1.0;  stroke:#ffffff; stroke-width:0.100000; stroke-opacity:1;  stroke-linecap:round; stroke-linejoin:round;fill-rule:evenodd;" d="M 15826020.000000,11325860.000000 15825246.600000,11329748.100000 15823044.200000,11333044.200000 15819748.100000,11335246.600000 15815860.000000,11336020.000000 15752360.000000,11336020.000000 15748471.900000,11335246.600000 15745175.800000,11333044.200000 15742973.400000,11329748.100000 15742200.000000,11325860.000000 15742200.000000,11198860.000000 15742973.400000,11194971.900000 15745175.800000,11191675.800000 15748471.900000,11189473.400000 15752360.000000,11188700.000000 15815860.000000,11188700.000000 15819748.100000,11189473.400000 15823044.200000,11191675.800000 15825246.600000,11194971.900000 15826020.000000,11198860.000000 Z"/> 
<path style="fill:#ffffff; fill-opacity:1.0;  stroke:#ffffff; stroke-width:0.100000; stroke-opacity:1;  stroke-linecap:round; stroke-linejoin:round;fill-rule:evenodd;" d="M 15736020.000000,11325860.000000 15735246.600000,11329748.100000 15733044.200000,11333044.200000 15729748.100000,11335246.600000 15725860.000000,11336020.000000 15662360.000000,11336020.000000 15658471.900000,11335246.600000 15655175.800000,11333044.200000 15652973.400000,11329748.100000 15652200.000000,11325860.000000 15652200.000000,11198860.000000 15652973.400000,11194971.900000 15655175.800000,11191675.800000 15658471.900000,11189473.400000 15662360.000000,11188700.000000 15725860.000000,11188700.000000 15729748.100000,11189473.400000 15733044.200000,11191675.800000 15735246.600000,11194971.900000 15736020.000000,11198860.000000 Z"/> 
</g>
<g style="fill:#ffffff; fill-opacity:1.0;  stroke:#ffffff; stroke-width:0.100000; stroke-opacity:1;  stroke-linecap:round; stroke-linejoin:round;">
<path style="fill:#ffffff; fill-opacity:1.0;  stroke:#ffffff; stroke-width:0.100000; stroke-opacity:1;  stroke-linecap:round; stroke-linejoin:round;fill-rule:evenodd;" d="M 16073120.000000,11681460.000000 16071068.800000,11694410.900000 16065115.900000,11706094.100000 16055844.100000,11715365.900000 16044160.900000,11721318.800000 16031210.000000,11723370.000000 16018259.100000,11721318.800000 16006575.900000,11715365.900000 15997304.100000,11706094.100000 15991351.200000,11694410.900000 15989300.000000,11681460.000000 15991351.200000,11668509.100000 15997304.100000,11656825.900000 16006575.900000,11647554.100000 16018259.100000,11641601.200000 16031210.000000,11639550.000000 16044160.900000,11641601.200000 16055844.100000,11647554.100000 16065115.900000,11656825.900000 16071068.800000,11668509.100000 16073120.000000,11681460.000000 Z"/> 
</g>
</g> 
</mask><mask id="pads-mask-silkscreen"><rect x="10151110.0" y="9198610.0" width="10327301.3" height="3612750.0" fill="white"/><g style="fill:#000000; fill-opacity:0.0;  stroke:#000000; stroke-width:0.000000; stroke-opacity:1;  stroke-linecap:round; stroke-linejoin:round;">
<g style="fill:#000000; fill-opacity:1.0;  stroke:#000000; stroke-width:0.100000; stroke-opacity:1;  stroke-linecap:round; stroke-linejoin:round;">
<circle cx="15358110.000000" cy="11643360.000000" r="104140.000000"/> 
</g>
<g style="fill:#000000; fill-opacity:1.0;  stroke:#000000; stroke-width:0.100000; stroke-opacity:1;  stroke-linecap:round; stroke-linejoin:round;">
<circle cx="14342110.000000" cy="11643360.000000" r="104140.000000"/> 
</g>
<g style="fill:#000000; fill-opacity:1.0;  stroke:#000000; stroke-width:0.100000; stroke-opacity:1;  stroke-linecap:round; stroke-linejoin:round;">
<circle cx="14596110.000000" cy="11643360.000000" r="104140.000000"/> 
</g>
<g style="fill:#000000; fill-opacity:1.0;  stroke:#000000; stroke-width:0.100000; stroke-opacity:1;  stroke-linecap:round; stroke-linejoin:round;">
<circle cx="14850110.000000" cy="11643360.000000" r="104140.000000"/> 
</g>
<g style="fill:#000000; fill-opacity:1.0;  stroke:#000000; stroke-width:0.100000; stroke-opacity:1;  stroke-linecap:round; stroke-linejoin:round;">
<circle cx="15104110.000000" cy="11643360.000000" r="104140.000000"/> 
</g>
<g style="fill:#000000; fill-opacity:1.0;  stroke:#000000; stroke-width:0.100000; stroke-opacity:1;  stroke-linecap:round; stroke-linejoin:round;">
<circle cx="13834110.000000" cy="9484360.000000" r="165100.000000"/> 
</g>
<g style="fill:#000000; fill-opacity:1.0;  stroke:#000000; stroke-width:0.100000; stroke-opacity:1;  stroke-linecap:round; stroke-linejoin:round;">
<circle cx="15866110.000000" cy="9484360.000000" r="165100.000000"/> 
</g>
<g style="fill:#000000; fill-opacity:1.0;  stroke:#000000; stroke-width:0.100000; stroke-opacity:1;  stroke-linecap:round; stroke-linejoin:round;">
<path style="fill:#000000; fill-opacity:1.0;  stroke:#000000; stroke-width:0.100000; stroke-opacity:1;  stroke-linecap:round; stroke-linejoin:round;fill-rule:evenodd;" d="M 13698220.000000,9306560.000000 13696168.800000,9319510.900000 13690215.900000,9331194.100000 13680944.100000,9340465.900000 13669260.900000,9346418.800000 13656310.000000,9348470.000000 13643359.100000,9346418.800000 13631675.900000,9340465.900000 13622404.100000,9331194.100000 13616451.200000,9319510.900000 13614400.000000,9306560.000000 13616451.200000,9293609.100000 13622404.100000,9281925.900000 13631675.900000,9272654.100000 13643359.100000,9266701.200000 13656310.000000,9264650.000000 13669260.900000,9266701.200000 13680944.100000,9272654.100000 13690215.900000,9281925.900000 13696168.800000,9293609.100000 13698220.000000,9306560.000000 Z"/> 
</g>
<g style="fill:#000000; fill-opacity:1.0;  stroke:#000000; stroke-width:0.100000; stroke-opacity:1;  stroke-linecap:round; stroke-linejoin:round;">
<path style="fill:#000000; fill-opacity:1.0;  stroke:#000000; stroke-width:0.100000; stroke-opacity:1;  stroke-linecap:round; stroke-linejoin:round;fill-rule:evenodd;" d="M 15826020.000000,11325860.000000 15825246.600000,11329748.100000 15823044.200000,11333044.200000 15819748.100000,11335246.600000 15815860.000000,11336020.000000 15752360.000000,11336020.000000 15748471.900000,11335246.600000 15745175.800000,11333044.200000 15742973.400000,11329748.100000 15742200.000000,11325860.000000 15742200.000000,11198860.000000 15742973.400000,11194971.900000 15745175.800000,11191675.800000 15748471.900000,11189473.400000 15752360.000000,11188700.000000 15815860.000000,11188700.000000 15819748.100000,11189473.400000 15823044.200000,11191675.800000 15825246.600000,11194971.900000 15826020.000000,11198860.000000 Z"/> 
<path style="fill:#000000; fill-opacity:1.0;  stroke:#000000; stroke-width:0.100000; stroke-opacity:1;  stroke-linecap:round; stroke-linejoin:round;fill-rule:evenodd;" d="M 15736020.000000,11325860.000000 15735246.600000,11329748.100000 15733044.200000,11333044.200000 15729748.100000,11335246.600000 15725860.000000,11336020.000000 15662360.000000,11336020.000000 15658471.900000,11335246.600000 15655175.800000,11333044.200000 15652973.400000,11329748.100000 15652200.000000,11325860.000000 15652200.000000,11198860.000000 15652973.400000,11194971.900000 15655175.800000,11191675.800000 15658471.900000,11189473.400000 15662360.000000,11188700.000000 15725860.000000,11188700.000000 15729748.100000,11189473.400000 15733044.200000,11191675.800000 15735246.600000,11194971.900000 15736020.000000,11198860.000000 Z"/> 
</g>
<g style="fill:#000000; fill-opacity:1.0;  stroke:#000000; stroke-width:0.100000; stroke-opacity:1;  stroke-linecap:round; stroke-linejoin:round;">
<path style="fill:#000000; fill-opacity:1.0;  stroke:#000000; stroke-width:0.100000; stroke-opacity:1;  stroke-linecap:round; stroke-linejoin:round;fill-rule:evenodd;" d="M 16073120.000000,11681460.000000 16071068.800000,11694410.900000 16065115.900000,11706094.100000 16055844.100000,11715365.900000 16044160.900000,11721318.800000 16031210.000000,11723370.000000 16018259.100000,11721318.800000 16006575.900000,11715365.900000 15997304.100000,11706094.100000 15991351.200000,11694410.900000 15989300.000000,11681460.000000 15991351.200000,11668509.100000 15997304.100000,11656825.900000 16006575.900000,11647554.100000 16018259.100000,11641601.200000 16031210.000000,11639550.000000 16044160.900000,11641601.200000 16055844.100000,11647554.100000 16065115.900000,11656825.900000 16071068.800000,11668509.100000 16073120.000000,11681460.000000 Z"/> 
</g>
</g> 
</mask><mask id="hole-mask"><g><rect x="10151110.0" y="9198610.0" fill="white" width="10327301.3" height="3612750.0"/><polyline stroke-linecap="round" stroke="black" stroke-width="101600.0" points="-0.0 0 0.0 0" transform="translate(15358110.0 11643360.0) rotate(-90.0)"/><polyline stroke-linecap="round" stroke="black" stroke-width="101600.0" points="-0.0 0 0.0 0" transform="translate(14342110.0 11643360.0) rotate(-90.0)"/><polyline stroke-linecap="round" stroke="black" stroke-width="101600.0" points="-0.0 0 0.0 0" transform="translate(14596110.0 11643360.0) rotate(-90.0)"/><polyline stroke-linecap="round" stroke="black" stroke-width="101600.0" points="-0.0 0 0.0 0" transform="translate(14850110.0 11643360.0) rotate(-90.0)"/><polyline stroke-linecap="round" stroke="black" stroke-width="101600.0" points="-0.0 0 0.0 0" transform="translate(15104110.0 11643360.0) rotate(-90.0)"/><polyline stroke-linecap="round" stroke="black" stroke-width="330200.0" points="-0.0 0 0.0 0" transform="translate(13834110.0 9484360.0) rotate(-0.0)"/><polyline stroke-linecap="round" stroke="black" stroke-width="330200.0" points="-0.0 0 0.0 0" transform="translate(15866110.0 9484360.0) rotate(-0.0)"/><polyline stroke-linecap="round" stroke="black" stroke-width="38100.0" points="-0.0 0 0.0 0" transform="translate(15612110.0 9992360.0) rotate(0.0)"/><polyline stroke-linecap="round" stroke="black" stroke-width="38100.0" points="-0.0 0 0.0 0" transform="translate(15612110.0 11008360.0) rotate(0.0)"/><polyline stroke-linecap="round" stroke="black" stroke-width="38100.0" points="-0.0 0 0.0 0" transform="translate(14469110.0 9992360.0) rotate(0.0)"/><polyline stroke-linecap="round" stroke="black" stroke-width="38100.0" points="-0.0 0 0.0 0" transform="translate(14215110.0 9992360.0) rotate(0.0)"/><polyline stroke-linecap="round" stroke="black" stroke-width="38100.0" points="-0.0 0 0.0 0" transform="translate(15231110.0 11008360.0) rotate(0.0)"/><polyline stroke-linecap="round" stroke="black" stroke-width="38100.0" points="-0.0 0 0.0 0" transform="translate(14773910.0 11186160.0) rotate(0.0)"/><polyline stroke-linecap="round" stroke="black" stroke-width="38100.0" points="-0.0 0 0.0 0" transform="translate(14088110.0 10881360.0) rotate(0.0)"/><polyline stroke-linecap="round" stroke="black" stroke-width="38100.0" points="-0.0 0 0.0 0" transform="translate(14596110.0 10563860.0) rotate(0.0)"/><polyline stroke-linecap="round" stroke="black" stroke-width="38100.0" points="-0.0 0 0.0 0" transform="translate(15866110.0 10500360.0) rotate(0.0)"/><polyline stroke-linecap="round" stroke="black" stroke-width="38100.0" points="-0.0 0 0.0 0" transform="translate(13961110.0 10119360.0) rotate(0.0)"/><polyline stroke-linecap="round" stroke="black" stroke-width="38100.0" points="-0.0 0 0.0 0" transform="translate(15358110.0 11262360.0) rotate(0.0)"/></g></mask></defs><g transform="scale(-1,1)" id="boardContainer"><g id="substrate" clip-path="url(#cut-off)" mask="url(#hole-mask)"><g id="substrate-board" style="fill:#4ca06c; stroke:#4ca06c;"><path d=" M 13580110.0 11770360.0 L 13580110.0 9230360.0 L 16120110.0 9230360.0 L 16120110.0 11770360.0 L 13580110.0 11770360.0 " style="fill-rule: evenodd;"/><g style="fill-opacity: 0.0;stroke-width: 20320.000000;stroke-opacity: 1;stroke-linecap: round;stroke-linejoin: round">
<path d="M16120110 11770360 L13580110 11770360 "/>
<path d="M16120110 9230360 L16120110 11770360 "/>
<path d="M13580110 11770360 L13580110 9230360 "/>
<path d="M13580110 9230360 L16120110 9230360 "/>
</g> 
</g><g id="substrate-clad" style="fill:#9c6b28; stroke:#9c6b28;"><g style="fill-opacity: 0.0;stroke-width: 0.000000;stroke-opacity: 1;stroke-linecap: round;stroke-linejoin: round">
<g style="fill-opacity: 1.0;stroke-width: 0.100000;stroke-opacity: 1;stroke-linecap: round;stroke-linejoin: round">
<circle cx="15358110.000000" cy="11643360.000000" r="104140.000000"/> 
</g>
<g style="fill-opacity: 1.0;stroke-width: 0.100000;stroke-opacity: 1;stroke-linecap: round;stroke-linejoin: round">
<circle cx="14342110.000000" cy="11643360.000000" r="104140.000000"/> 
</g>
<g style="fill-opacity: 1.0;stroke-width: 0.100000;stroke-opacity: 1;stroke-linecap: round;stroke-linejoin: round">
<circle cx="14596110.000000" cy="11643360.000000" r="104140.000000"/> 
</g>
<g style="fill-opacity: 1.0;stroke-width: 0.100000;stroke-opacity: 1;stroke-linecap: round;stroke-linejoin: round">
<circle cx="14850110.000000" cy="11643360.000000" r="104140.000000"/> 
</g>
<g style="fill-opacity: 1.0;stroke-width: 0.100000;stroke-opacity: 1;stroke-linecap: round;stroke-linejoin: round">
<circle cx="15104110.000000" cy="11643360.000000" r="104140.000000"/> 
</g>
<g style="fill-opacity: 1.0;stroke-width: 0.100000;stroke-opacity: 1;stroke-linecap: round;stroke-linejoin: round">
<circle cx="13834110.000000" cy="9484360.000000" r="165100.000000"/> 
</g>
<g style="fill-opacity: 1.0;stroke-width: 0.100000;stroke-opacity: 1;stroke-linecap: round;stroke-linejoin: round">
<circle cx="15866110.000000" cy="9484360.000000" r="165100.000000"/> 
</g>
<g style="fill-opacity: 1.0;stroke-width: 0.100000;stroke-opacity: 1;stroke-linecap: round;stroke-linejoin: round">
<path style="fill-opacity: 1.0;stroke-width: 0.100000;stroke-opacity: 1;stroke-linecap: round;stroke-linejoin: round;fill-rule: evenodd" d="M 13698220.000000,9306560.000000 13696168.800000,9319510.900000 13690215.900000,9331194.100000 13680944.100000,9340465.900000 13669260.900000,9346418.800000 13656310.000000,9348470.000000 13643359.100000,9346418.800000 13631675.900000,9340465.900000 13622404.100000,9331194.100000 13616451.200000,9319510.900000 13614400.000000,9306560.000000 13616451.200000,9293609.100000 13622404.100000,9281925.900000 13631675.900000,9272654.100000 13643359.100000,9266701.200000 13656310.000000,9264650.000000 13669260.900000,9266701.200000 13680944.100000,9272654.100000 13690215.900000,9281925.900000 13696168.800000,9293609.100000 13698220.000000,9306560.000000 Z"/> 
</g>
<g style="fill-opacity: 1.0;stroke-width: 0.100000;stroke-opacity: 1;stroke-linecap: round;stroke-linejoin: round">
<path style="fill-opacity: 1.0;stroke-width: 0.100000;stroke-opacity: 1;stroke-linecap: round;stroke-linejoin: round;fill-rule: evenodd" d="M 15826020.000000,11325860.000000 15825246.600000,11329748.100000 15823044.200000,11333044.200000 15819748.100000,11335246.600000 15815860.000000,11336020.000000 15752360.000000,11336020.000000 15748471.900000,11335246.600000 15745175.800000,11333044.200000 15742973.400000,11329748.100000 15742200.000000,11325860.000000 15742200.000000,11198860.000000 15742973.400000,11194971.900000 15745175.800000,11191675.800000 15748471.900000,11189473.400000 15752360.000000,11188700.000000 15815860.000000,11188700.000000 15819748.100000,11189473.400000 15823044.200000,11191675.800000 15825246.600000,11194971.900000 15826020.000000,11198860.000000 Z"/> 
<path style="fill-opacity: 1.0;stroke-width: 0.100000;stroke-opacity: 1;stroke-linecap: round;stroke-linejoin: round;fill-rule: evenodd" d="M 15736020.000000,11325860.000000 15735246.600000,11329748.100000 15733044.200000,11333044.200000 15729748.100000,11335246.600000 15725860.000000,11336020.000000 15662360.000000,11336020.000000 15658471.900000,11335246.600000 15655175.800000,11333044.200000 15652973.400000,11329748.100000 15652200.000000,11325860.000000 15652200.000000,11198860.000000 15652973.400000,11194971.900000 15655175.800000,11191675.800000 15658471.900000,11189473.400000 15662360.000000,11188700.000000 15725860.000000,11188700.000000 15729748.100000,11189473.400000 15733044.200000,11191675.800000 15735246.600000,11194971.900000 15736020.000000,11198860.000000 Z"/> 
</g>
<g style="fill-opacity: 1.0;stroke-width: 0.100000;stroke-opacity: 1;stroke-linecap: round;stroke-linejoin: round">
<path style="fill-opacity: 1.0;stroke-width: 0.100000;stroke-opacity: 1;stroke-linecap: round;stroke-linejoin: round;fill-rule: evenodd" d="M 16073120.000000,11681460.000000 16071068.800000,11694410.900000 16065115.900000,11706094.100000 16055844.100000,11715365.900000 16044160.900000,11721318.800000 16031210.000000,11723370.000000 16018259.100000,11721318.800000 16006575.900000,11715365.900000 15997304.100000,11706094.100000 15991351.200000,11694410.900000 15989300.000000,11681460.000000 15991351.200000,11668509.100000 15997304.100000,11656825.900000 16006575.900000,11647554.100000 16018259.100000,11641601.200000 16031210.000000,11639550.000000 16044160.900000,11641601.200000 16055844.100000,11647554.100000 16065115.900000,11656825.900000 16071068.800000,11668509.100000 16073120.000000,11681460.000000 Z"/> 
</g>
</g> 
</g><g id="substrate-copper" style="fill:#417e5a; stroke:#417e5a;"><g style="fill-opacity: 0.0;stroke-width: 19050.000000;stroke-opacity: 1;stroke-linecap: round;stroke-linejoin: round">
<text x="13821410.000000" y="11697335.000000" transform="scale(-1 1) translate(-27642820.000000 0)" textLength="287866.600000" font-size="143933.300000" lengthAdjust="spacingAndGlyphs" text-anchor="middle" opacity="0">v10</text>
<g class="stroked-text"><desc>v10</desc>
<path d="M13949921 11620227 L13924219 11692194 L13898517 11620227 "/>
<path d="M13800848 11692194 L13862533 11692194 "/>
<path d="M13831690 11692194 L13831690 11584244 L13841971 11599665 L13852252 11609946 L13862533 11615087 "/>
<path d="M13734021 11584244 L13723740 11584244 L13713460 11589385 L13708319 11594525 L13703179 11604806 L13698038 11625368 L13698038 11651070 L13703179 11671632 L13708319 11681913 L13713460 11687054 L13723740 11692194 L13734021 11692194 L13744302 11687054 L13749443 11681913 L13754583 11671632 L13759724 11651070 L13759724 11625368 L13754583 11604806 L13749443 11594525 L13744302 11589385 L13734021 11584244 "/>
</g><g style="fill-opacity: 1.0;stroke-width: 0.100000;stroke-opacity: 1;stroke-linecap: round;stroke-linejoin: round">
<circle cx="15358110.000000" cy="11643360.000000" r="93980.000000"/> 
</g>
<g style="fill-opacity: 1.0;stroke-width: 0.100000;stroke-opacity: 1;stroke-linecap: round;stroke-linejoin: round">
<circle cx="14342110.000000" cy="11643360.000000" r="93980.000000"/> 
</g>
<g style="fill-opacity: 1.0;stroke-width: 0.100000;stroke-opacity: 1;stroke-linecap: round;stroke-linejoin: round">
<circle cx="14596110.000000" cy="11643360.000000" r="93980.000000"/> 
</g>
<g style="fill-opacity: 1.0;stroke-width: 0.100000;stroke-opacity: 1;stroke-linecap: round;stroke-linejoin: round">
<circle cx="14850110.000000" cy="11643360.000000" r="93980.000000"/> 
</g>
<g style="fill-opacity: 1.0;stroke-width: 0.100000;stroke-opacity: 1;stroke-linecap: round;stroke-linejoin: round">
<circle cx="15104110.000000" cy="11643360.000000" r="93980.000000"/> 
</g>
<g style="fill-opacity: 1.0;stroke-width: 0.100000;stroke-opacity: 1;stroke-linecap: round;stroke-linejoin: round">
<path style="fill-opacity: 1.0;stroke-width: 0.100000;stroke-opacity: 1;stroke-linecap: round;stroke-linejoin: round;fill-rule: evenodd" d="M 13688060.000000,9306560.000000 13686978.100000,9314777.500000 13682318.100000,9324771.100000 13674521.100000,9332568.100000 13664527.500000,9337228.100000 13656310.000000,9338310.000000 13648092.500000,9337228.100000 13638098.900000,9332568.100000 13630301.900000,9324771.100000 13625641.900000,9314777.500000 13624560.000000,9306560.000000 13625641.900000,9298342.500000 13630301.900000,9288348.900000 13638098.900000,9280551.900000 13648092.500000,9275891.900000 13656310.000000,9274810.000000 13664527.500000,9275891.900000 13674521.100000,9280551.900000 13682318.100000,9288348.900000 13686978.100000,9298342.500000 13688060.000000,9306560.000000 Z"/> 
</g>
<g style="fill-opacity: 1.0;stroke-width: 0.100000;stroke-opacity: 1;stroke-linecap: round;stroke-linejoin: round">
<path style="fill-opacity: 1.0;stroke-width: 0.100000;stroke-opacity: 1;stroke-linecap: round;stroke-linejoin: round;fill-rule: evenodd" d="M 15815860.000000,11198860.000000 15815860.000000,11325860.000000 15752360.000000,11325860.000000 15752360.000000,11198860.000000 Z"/> 
<path style="fill-opacity: 1.0;stroke-width: 0.100000;stroke-opacity: 1;stroke-linecap: round;stroke-linejoin: round;fill-rule: evenodd" d="M 15725860.000000,11198860.000000 15725860.000000,11325860.000000 15662360.000000,11325860.000000 15662360.000000,11198860.000000 Z"/> 
</g>
<g style="fill-opacity: 1.0;stroke-width: 0.100000;stroke-opacity: 1;stroke-linecap: round;stroke-linejoin: round">
<path style="fill-opacity: 1.0;stroke-width: 0.100000;stroke-opacity: 1;stroke-linecap: round;stroke-linejoin: round;fill-rule: evenodd" d="M 16062960.000000,11681460.000000 16061878.100000,11689677.500000 16057218.100000,11699671.100000 16049421.100000,11707468.100000 16039427.500000,11712128.100000 16031210.000000,11713210.000000 16022992.500000,11712128.100000 16012998.900000,11707468.100000 16005201.900000,11699671.100000 16000541.900000,11689677.500000 15999460.000000,11681460.000000 16000541.900000,11673242.500000 16005201.900000,11663248.900000 16012998.900000,11655451.900000 16022992.500000,11650791.900000 16031210.000000,11649710.000000 16039427.500000,11650791.900000 16049421.100000,11655451.900000 16057218.100000,11663248.900000 16061878.100000,11673242.500000 16062960.000000,11681460.000000 Z"/> 
</g>
<g style="fill-opacity: 1.0;stroke-width: 0.100000;stroke-opacity: 1;stroke-linecap: round;stroke-linejoin: round">
<circle cx="15612110.000000" cy="9992360.000000" r="36830.000000"/> 
</g>
<g style="fill-opacity: 1.0;stroke-width: 0.100000;stroke-opacity: 1;stroke-linecap: round;stroke-linejoin: round">
<circle cx="15612110.000000" cy="11008360.000000" r="36830.000000"/> 
</g>
<g style="fill-opacity: 1.0;stroke-width: 0.100000;stroke-opacity: 1;stroke-linecap: round;stroke-linejoin: round">
<circle cx="14469110.000000" cy="9992360.000000" r="36830.000000"/> 
</g>
<g style="fill-opacity: 1.0;stroke-width: 0.100000;stroke-opacity: 1;stroke-linecap: round;stroke-linejoin: round">
<circle cx="14215110.000000" cy="9992360.000000" r="36830.000000"/> 
</g>
<g style="fill-opacity: 1.0;stroke-width: 0.100000;stroke-opacity: 1;stroke-linecap: round;stroke-linejoin: round">
<circle cx="15231110.000000" cy="11008360.000000" r="36830.000000"/> 
</g>
<g style="fill-opacity: 1.0;stroke-width: 0.100000;stroke-opacity: 1;stroke-linecap: round;stroke-linejoin: round">
<circle cx="14773910.000000" cy="11186160.000000" r="36830.000000"/> 
</g>
<g style="fill-opacity: 1.0;stroke-width: 0.100000;stroke-opacity: 1;stroke-linecap: round;stroke-linejoin: round">
<circle cx="14088110.000000" cy="10881360.000000" r="36830.000000"/> 
</g>
<g style="fill-opacity: 1.0;stroke-width: 0.100000;stroke-opacity: 1;stroke-linecap: round;stroke-linejoin: round">
<circle cx="14596110.000000" cy="10563860.000000" r="36830.000000"/> 
</g>
<g style="fill-opacity: 1.0;stroke-width: 0.100000;stroke-opacity: 1;stroke-linecap: round;stroke-linejoin: round">
<circle cx="15866110.000000" cy="10500360.000000" r="36830.000000"/> 
</g>
<g style="fill-opacity: 1.0;stroke-width: 0.100000;stroke-opacity: 1;stroke-linecap: round;stroke-linejoin: round">
<circle cx="13961110.000000" cy="10119360.000000" r="36830.000000"/> 
</g>
<g style="fill-opacity: 1.0;stroke-width: 0.100000;stroke-opacity: 1;stroke-linecap: round;stroke-linejoin: round">
<circle cx="15358110.000000" cy="11262360.000000" r="36830.000000"/> 
</g>
<g style="fill-opacity: 0.0;stroke-width: 20320.000000;stroke-opacity: 1;stroke-linecap: round;stroke-linejoin: round">
<path d="M14088110 10881360 L14215110 11008360 "/>
<path d="M14215110 11008360 L14596110 11008360 "/>
<path d="M14596110 11008360 L14773910 11186160 "/>
</g>
<g style="fill-opacity: 0.0;stroke-width: 17780.000000;stroke-opacity: 1;stroke-linecap: round;stroke-linejoin: round">
<path d="M14596110 10563860 L14596110 10500360 "/>
<path d="M15866110 10500360 L14596110 10500360 "/>
<path d="M14342110 10500360 L13961110 10119360 "/>
<path d="M14596110 10500360 L14342110 10500360 "/>
<path d="M15694110 11262360 L15358110 11262360 "/>
</g>
</g> 
</g><g id="substrate-pads" style="fill:#b5ae30; stroke:#b5ae30;" mask="url(#pads-mask)"><g style="fill-opacity: 0.0;stroke-width: 19050.000000;stroke-opacity: 1;stroke-linecap: round;stroke-linejoin: round">
<text x="13821410.000000" y="11697335.000000" transform="scale(-1 1) translate(-27642820.000000 0)" textLength="263101.700000" font-size="143933.300000" lengthAdjust="spacingAndGlyphs" text-anchor="middle" opacity="0">v10</text>
<g class="stroked-text"><desc>v10</desc>
<path d="M13949921 11620227 L13924219 11692194 L13898517 11620227 "/>
<path d="M13800848 11692194 L13862533 11692194 "/>
<path d="M13831690 11692194 L13831690 11584244 L13841971 11599665 L13852252 11609946 L13862533 11615087 "/>
<path d="M13734021 11584244 L13723740 11584244 L13713460 11589385 L13708319 11594525 L13703179 11604806 L13698038 11625368 L13698038 11651070 L13703179 11671632 L13708319 11681913 L13713460 11687054 L13723740 11692194 L13734021 11692194 L13744302 11687054 L13749443 11681913 L13754583 11671632 L13759724 11651070 L13759724 11625368 L13754583 11604806 L13749443 11594525 L13744302 11589385 L13734021 11584244 "/>
</g><g style="fill-opacity: 1.0;stroke-width: 0.100000;stroke-opacity: 1;stroke-linecap: round;stroke-linejoin: round">
<circle cx="15358110.000000" cy="11643360.000000" r="93980.000000"/> 
</g>
<g style="fill-opacity: 1.0;stroke-width: 0.100000;stroke-opacity: 1;stroke-linecap: round;stroke-linejoin: round">
<circle cx="14342110.000000" cy="11643360.000000" r="93980.000000"/> 
</g>
<g style="fill-opacity: 1.0;stroke-width: 0.100000;stroke-opacity: 1;stroke-linecap: round;stroke-linejoin: round">
<circle cx="14596110.000000" cy="11643360.000000" r="93980.000000"/> 
</g>
<g style="fill-opacity: 1.0;stroke-width: 0.100000;stroke-opacity: 1;stroke-linecap: round;stroke-linejoin: round">
<circle cx="14850110.000000" cy="11643360.000000" r="93980.000000"/> 
</g>
<g style="fill-opacity: 1.0;stroke-width: 0.100000;stroke-opacity: 1;stroke-linecap: round;stroke-linejoin: round">
<circle cx="15104110.000000" cy="11643360.000000" r="93980.000000"/> 
</g>
<g style="fill-opacity: 1.0;stroke-width: 0.100000;stroke-opacity: 1;stroke-linecap: round;stroke-linejoin: round">
<path style="fill-opacity: 1.0;stroke-width: 0.100000;stroke-opacity: 1;stroke-linecap: round;stroke-linejoin: round;fill-rule: evenodd" d="M 13688060.000000,9306560.000000 13686978.100000,9314777.500000 13682318.100000,9324771.100000 13674521.100000,9332568.100000 13664527.500000,9337228.100000 13656310.000000,9338310.000000 13648092.500000,9337228.100000 13638098.900000,9332568.100000 13630301.900000,9324771.100000 13625641.900000,9314777.500000 13624560.000000,9306560.000000 13625641.900000,9298342.500000 13630301.900000,9288348.900000 13638098.900000,9280551.900000 13648092.500000,9275891.900000 13656310.000000,9274810.000000 13664527.500000,9275891.900000 13674521.100000,9280551.900000 13682318.100000,9288348.900000 13686978.100000,9298342.500000 13688060.000000,9306560.000000 Z"/> 
</g>
<g style="fill-opacity: 1.0;stroke-width: 0.100000;stroke-opacity: 1;stroke-linecap: round;stroke-linejoin: round">
<path style="fill-opacity: 1.0;stroke-width: 0.100000;stroke-opacity: 1;stroke-linecap: round;stroke-linejoin: round;fill-rule: evenodd" d="M 15815860.000000,11198860.000000 15815860.000000,11325860.000000 15752360.000000,11325860.000000 15752360.000000,11198860.000000 Z"/> 
<path style="fill-opacity: 1.0;stroke-width: 0.100000;stroke-opacity: 1;stroke-linecap: round;stroke-linejoin: round;fill-rule: evenodd" d="M 15725860.000000,11198860.000000 15725860.000000,11325860.000000 15662360.000000,11325860.000000 15662360.000000,11198860.000000 Z"/> 
</g>
<g style="fill-opacity: 1.0;stroke-width: 0.100000;stroke-opacity: 1;stroke-linecap: round;stroke-linejoin: round">
<path style="fill-opacity: 1.0;stroke-width: 0.100000;stroke-opacity: 1;stroke-linecap: round;stroke-linejoin: round;fill-rule: evenodd" d="M 16062960.000000,11681460.000000 16061878.100000,11689677.500000 16057218.100000,11699671.100000 16049421.100000,11707468.100000 16039427.500000,11712128.100000 16031210.000000,11713210.000000 16022992.500000,11712128.100000 16012998.900000,11707468.100000 16005201.900000,11699671.100000 16000541.900000,11689677.500000 15999460.000000,11681460.000000 16000541.900000,11673242.500000 16005201.900000,11663248.900000 16012998.900000,11655451.900000 16022992.500000,11650791.900000 16031210.000000,11649710.000000 16039427.500000,11650791.900000 16049421.100000,11655451.900000 16057218.100000,11663248.900000 16061878.100000,11673242.500000 16062960.000000,11681460.000000 Z"/> 
</g>
<g style="fill-opacity: 1.0;stroke-width: 0.100000;stroke-opacity: 1;stroke-linecap: round;stroke-linejoin: round">
<circle cx="15612110.000000" cy="9992360.000000" r="36830.000000"/> 
</g>
<g style="fill-opacity: 1.0;stroke-width: 0.100000;stroke-opacity: 1;stroke-linecap: round;stroke-linejoin: round">
<circle cx="15612110.000000" cy="11008360.000000" r="36830.000000"/> 
</g>
<g style="fill-opacity: 1.0;stroke-width: 0.100000;stroke-opacity: 1;stroke-linecap: round;stroke-linejoin: round">
<circle cx="14469110.000000" cy="9992360.000000" r="36830.000000"/> 
</g>
<g style="fill-opacity: 1.0;stroke-width: 0.100000;stroke-opacity: 1;stroke-linecap: round;stroke-linejoin: round">
<circle cx="14215110.000000" cy="9992360.000000" r="36830.000000"/> 
</g>
<g style="fill-opacity: 1.0;stroke-width: 0.100000;stroke-opacity: 1;stroke-linecap: round;stroke-linejoin: round">
<circle cx="15231110.000000" cy="11008360.000000" r="36830.000000"/> 
</g>
<g style="fill-opacity: 1.0;stroke-width: 0.100000;stroke-opacity: 1;stroke-linecap: round;stroke-linejoin: round">
<circle cx="14773910.000000" cy="11186160.000000" r="36830.000000"/> 
</g>
<g style="fill-opacity: 1.0;stroke-width: 0.100000;stroke-opacity: 1;stroke-linecap: round;stroke-linejoin: round">
<circle cx="14088110.000000" cy="10881360.000000" r="36830.000000"/> 
</g>
<g style="fill-opacity: 1.0;stroke-width: 0.100000;stroke-opacity: 1;stroke-linecap: round;stroke-linejoin: round">
<circle cx="14596110.000000" cy="10563860.000000" r="36830.000000"/> 
</g>
<g style="fill-opacity: 1.0;stroke-width: 0.100000;stroke-opacity: 1;stroke-linecap: round;stroke-linejoin: round">
<circle cx="15866110.000000" cy="10500360.000000" r="36830.000000"/> 
</g>
<g style="fill-opacity: 1.0;stroke-width: 0.100000;stroke-opacity: 1;stroke-linecap: round;stroke-linejoin: round">
<circle cx="13961110.000000" cy="10119360.000000" r="36830.000000"/> 
</g>
<g style="fill-opacity: 1.0;stroke-width: 0.100000;stroke-opacity: 1;stroke-linecap: round;stroke-linejoin: round">
<circle cx="15358110.000000" cy="11262360.000000" r="36830.000000"/> 
</g>
<g style="fill-opacity: 0.0;stroke-width: 20320.000000;stroke-opacity: 1;stroke-linecap: round;stroke-linejoin: round">
<path d="M14088110 10881360 L14215110 11008360 "/>
<path d="M14215110 11008360 L14596110 11008360 "/>
<path d="M14596110 11008360 L14773910 11186160 "/>
</g>
<g style="fill-opacity: 0.0;stroke-width: 17780.000000;stroke-opacity: 1;stroke-linecap: round;stroke-linejoin: round">
<path d="M14596110 10563860 L14596110 10500360 "/>
<path d="M15866110 10500360 L14596110 10500360 "/>
<path d="M14342110 10500360 L13961110 10119360 "/>
<path d="M14596110 10500360 L14342110 10500360 "/>
<path d="M15694110 11262360 L15358110 11262360 "/>
</g>
</g> 
</g><g id="substrate-silk" style="fill:#f0f0f0; stroke:#f0f0f0;" mask="url(#pads-mask-silkscreen)"><g style="fill-opacity: 0.0;stroke-width: 15240.000000;stroke-opacity: 1;stroke-linecap: round;stroke-linejoin: round">
<g transform="rotate(90.000000 14342110.000000 11516360.000000)">
<text x="14342110.000000" y="11559540.000000" transform="scale(-1 1) translate(-28684220.000000 0)" textLength="238427.400000" font-size="115146.600000" lengthAdjust="spacingAndGlyphs" text-anchor="start" opacity="0">GND</text>
</g>
<g class="stroked-text"><desc>GND</desc>
<path d="M14385290 11440655 L14389402 11448880 L14389402 11461217 L14385290 11473554 L14377065 11481779 L14368840 11485892 L14352390 11490004 L14340053 11490004 L14323604 11485892 L14315379 11481779 L14307154 11473554 L14303042 11461217 L14303042 11452993 L14307154 11440655 L14311267 11436543 L14340053 11436543 L14340053 11452993 "/>
<path d="M14303042 11399532 L14389402 11399532 L14303042 11350183 L14389402 11350183 "/>
<path d="M14303042 11309059 L14389402 11309059 L14389402 11288497 L14385290 11276160 L14377065 11267935 L14368840 11263823 L14352390 11259711 L14340053 11259711 L14323604 11263823 L14315379 11267935 L14307154 11276160 L14303042 11288497 L14303042 11309059 "/>
</g><g transform="rotate(90.000000 14596110.000000 11516360.000000)">
<text x="14596110.000000" y="11559540.000000" transform="scale(-1 1) translate(-29192220.000000 0)" textLength="259829.900000" font-size="115146.600000" lengthAdjust="spacingAndGlyphs" text-anchor="start" opacity="0">3.3V</text>
</g>
<g class="stroked-text"><desc>3.3V</desc>
<path d="M14643402 11494116 L14643402 11440655 L14610503 11469442 L14610503 11457105 L14606390 11448880 L14602278 11444768 L14594053 11440655 L14573491 11440655 L14565267 11444768 L14561154 11448880 L14557042 11457105 L14557042 11481779 L14561154 11490004 L14565267 11494116 "/>
<path d="M14565267 11403644 L14561154 11399532 L14557042 11403644 L14561154 11407756 L14565267 11403644 L14557042 11403644 "/>
<path d="M14643402 11370745 L14643402 11317284 L14610503 11346071 L14610503 11333734 L14606390 11325509 L14602278 11321396 L14594053 11317284 L14573491 11317284 L14565267 11321396 L14561154 11325509 L14557042 11333734 L14557042 11358408 L14561154 11366633 L14565267 11370745 "/>
<path d="M14643402 11292610 L14557042 11263823 L14643402 11235036 "/>
</g><g transform="rotate(90.000000 15104110.000000 11516360.000000)">
<text x="15104110.000000" y="11559540.000000" transform="scale(-1 1) translate(-30208220.000000 0)" textLength="218706.100000" font-size="115146.600000" lengthAdjust="spacingAndGlyphs" text-anchor="start" opacity="0">SCL</text>
</g>
<g class="stroked-text"><desc>SCL</desc>
<path d="M15069154 11490004 L15065042 11477667 L15065042 11457105 L15069154 11448880 L15073267 11444768 L15081491 11440655 L15089716 11440655 L15097941 11444768 L15102053 11448880 L15106166 11457105 L15110278 11473554 L15114390 11481779 L15118503 11485892 L15126728 11490004 L15134952 11490004 L15143177 11485892 L15147290 11481779 L15151402 11473554 L15151402 11452993 L15147290 11440655 "/>
<path d="M15073267 11354295 L15069154 11358408 L15065042 11370745 L15065042 11378970 L15069154 11391307 L15077379 11399532 L15085604 11403644 L15102053 11407756 L15114390 11407756 L15130840 11403644 L15139065 11399532 L15147290 11391307 L15151402 11378970 L15151402 11370745 L15147290 11358408 L15143177 11354295 "/>
<path d="M15065042 11276160 L15065042 11317284 L15151402 11317284 "/>
</g><text x="15866110.000000" y="10844580.800000" transform="scale(-1 1) translate(-31732220.000000 0)" textLength="313290.900000" font-size="115146.600000" lengthAdjust="spacingAndGlyphs" text-anchor="start" opacity="0">ADDR</text>
<g class="stroked-text"><desc>ADDR</desc>
<path d="M15839754 10815794 L15798630 10815794 "/>
<path d="M15847979 10840468 L15819192 10754108 L15790405 10840468 "/>
<path d="M15761619 10840468 L15761619 10754108 L15741057 10754108 L15728720 10758220 L15720495 10766445 L15716383 10774670 L15712270 10791119 L15712270 10803456 L15716383 10819906 L15720495 10828131 L15728720 10836356 L15741057 10840468 L15761619 10840468 "/>
<path d="M15675259 10840468 L15675259 10754108 L15654697 10754108 L15642360 10758220 L15634135 10766445 L15630023 10774670 L15625910 10791119 L15625910 10803456 L15630023 10819906 L15634135 10828131 L15642360 10836356 L15654697 10840468 L15675259 10840468 "/>
<path d="M15539550 10840468 L15568337 10799344 "/>
<path d="M15588899 10840468 L15588899 10754108 L15556000 10754108 L15547775 10758220 L15543663 10762333 L15539550 10770557 L15539550 10782895 L15543663 10791119 L15547775 10795232 L15556000 10799344 L15588899 10799344 "/>
</g><text x="15866110.000000" y="10983620.400000" transform="scale(-1 1) translate(-31732220.000000 0)" textLength="724529.000000" font-size="115146.600000" lengthAdjust="spacingAndGlyphs" text-anchor="start" opacity="0">Open-0x69</text>
<g class="stroked-text"><desc>Open-0x69</desc>
<path d="M15819192 10893148 L15802743 10893148 L15794518 10897260 L15786293 10905485 L15782181 10921934 L15782181 10950721 L15786293 10967170 L15794518 10975395 L15802743 10979508 L15819192 10979508 L15827417 10975395 L15835642 10967170 L15839754 10950721 L15839754 10921934 L15835642 10905485 L15827417 10897260 L15819192 10893148 "/>
<path d="M15745169 10921934 L15745169 11008294 "/>
<path d="M15745169 10926047 L15736944 10921934 L15720495 10921934 L15712270 10926047 L15708158 10930159 L15704045 10938384 L15704045 10963058 L15708158 10971283 L15712270 10975395 L15720495 10979508 L15736944 10979508 L15745169 10975395 "/>
<path d="M15634135 10975395 L15642360 10979508 L15658809 10979508 L15667034 10975395 L15671146 10967170 L15671146 10934271 L15667034 10926047 L15658809 10921934 L15642360 10921934 L15634135 10926047 L15630023 10934271 L15630023 10942496 L15671146 10950721 "/>
<path d="M15593011 10921934 L15593011 10979508 "/>
<path d="M15593011 10930159 L15588899 10926047 L15580674 10921934 L15568337 10921934 L15560112 10926047 L15556000 10934271 L15556000 10979508 "/>
<path d="M15514876 10946608 L15449078 10946608 "/>
<path d="M15391504 10893148 L15383280 10893148 L15375055 10897260 L15370943 10901372 L15366830 10909597 L15362718 10926047 L15362718 10946608 L15366830 10963058 L15370943 10971283 L15375055 10975395 L15383280 10979508 L15391504 10979508 L15399729 10975395 L15403842 10971283 L15407954 10963058 L15412066 10946608 L15412066 10926047 L15407954 10909597 L15403842 10901372 L15399729 10897260 L15391504 10893148 "/>
<path d="M15333931 10979508 L15288695 10921934 "/>
<path d="M15333931 10921934 L15288695 10979508 "/>
<path d="M15218784 10893148 L15235234 10893148 L15243459 10897260 L15247571 10901372 L15255796 10913709 L15259908 10930159 L15259908 10963058 L15255796 10971283 L15251684 10975395 L15243459 10979508 L15227009 10979508 L15218784 10975395 L15214672 10971283 L15210560 10963058 L15210560 10942496 L15214672 10934271 L15218784 10930159 L15227009 10926047 L15243459 10926047 L15251684 10930159 L15255796 10934271 L15259908 10942496 "/>
<path d="M15169436 10979508 L15152986 10979508 L15144762 10975395 L15140649 10971283 L15132424 10958946 L15128312 10942496 L15128312 10909597 L15132424 10901372 L15136537 10897260 L15144762 10893148 L15161211 10893148 L15169436 10897260 L15173548 10901372 L15177661 10909597 L15177661 10930159 L15173548 10938384 L15169436 10942496 L15161211 10946608 L15144762 10946608 L15136537 10942496 L15132424 10938384 L15128312 10930159 "/>
</g><text x="15866110.000000" y="11122660.000000" transform="scale(-1 1) translate(-31732220.000000 0)" textLength="757428.000000" font-size="115146.600000" lengthAdjust="spacingAndGlyphs" text-anchor="start" opacity="0">Close-0x68</text>
<g class="stroked-text"><desc>Close-0x68</desc>
<path d="M15786293 11110322 L15790405 11114435 L15802743 11118547 L15810967 11118547 L15823304 11114435 L15831529 11106210 L15835642 11097985 L15839754 11081536 L15839754 11069199 L15835642 11052749 L15831529 11044524 L15823304 11036300 L15810967 11032187 L15802743 11032187 L15790405 11036300 L15786293 11040412 "/>
<path d="M15736944 11118547 L15745169 11114435 L15749282 11106210 L15749282 11032187 "/>
<path d="M15691708 11118547 L15699933 11114435 L15704045 11110322 L15708158 11102098 L15708158 11077423 L15704045 11069199 L15699933 11065086 L15691708 11060974 L15679371 11060974 L15671146 11065086 L15667034 11069199 L15662922 11077423 L15662922 11102098 L15667034 11110322 L15671146 11114435 L15679371 11118547 L15691708 11118547 "/>
<path d="M15630023 11114435 L15621798 11118547 L15605348 11118547 L15597124 11114435 L15593011 11106210 L15593011 11102098 L15597124 11093873 L15605348 11089760 L15617685 11089760 L15625910 11085648 L15630023 11077423 L15630023 11073311 L15625910 11065086 L15617685 11060974 L15605348 11060974 L15597124 11065086 "/>
<path d="M15523101 11114435 L15531325 11118547 L15547775 11118547 L15556000 11114435 L15560112 11106210 L15560112 11073311 L15556000 11065086 L15547775 11060974 L15531325 11060974 L15523101 11065086 L15518988 11073311 L15518988 11081536 L15560112 11089760 "/>
<path d="M15481977 11085648 L15416179 11085648 "/>
<path d="M15358605 11032187 L15350381 11032187 L15342156 11036300 L15338044 11040412 L15333931 11048637 L15329819 11065086 L15329819 11085648 L15333931 11102098 L15338044 11110322 L15342156 11114435 L15350381 11118547 L15358605 11118547 L15366830 11114435 L15370943 11110322 L15375055 11102098 L15379167 11085648 L15379167 11065086 L15375055 11048637 L15370943 11040412 L15366830 11036300 L15358605 11032187 "/>
<path d="M15301032 11118547 L15255796 11060974 "/>
<path d="M15301032 11060974 L15255796 11118547 "/>
<path d="M15185885 11032187 L15202335 11032187 L15210560 11036300 L15214672 11040412 L15222897 11052749 L15227009 11069199 L15227009 11102098 L15222897 11110322 L15218784 11114435 L15210560 11118547 L15194110 11118547 L15185885 11114435 L15181773 11110322 L15177661 11102098 L15177661 11081536 L15181773 11073311 L15185885 11069199 L15194110 11065086 L15210560 11065086 L15218784 11069199 L15222897 11073311 L15227009 11081536 "/>
<path d="M15128312 11069199 L15136537 11065086 L15140649 11060974 L15144762 11052749 L15144762 11048637 L15140649 11040412 L15136537 11036300 L15128312 11032187 L15111863 11032187 L15103638 11036300 L15099525 11040412 L15095413 11048637 L15095413 11052749 L15099525 11060974 L15103638 11065086 L15111863 11069199 L15128312 11069199 L15136537 11073311 L15140649 11077423 L15144762 11085648 L15144762 11102098 L15140649 11110322 L15136537 11114435 L15128312 11118547 L15111863 11118547 L15103638 11114435 L15099525 11110322 L15095413 11102098 L15095413 11085648 L15099525 11077423 L15103638 11073311 L15111863 11069199 "/>
</g><g transform="rotate(90.000000 15358110.000000 11516360.000000)">
<text x="15358110.000000" y="11559540.000000" transform="scale(-1 1) translate(-30716220.000000 0)" textLength="177582.300000" font-size="115146.600000" lengthAdjust="spacingAndGlyphs" text-anchor="start" opacity="0">INT</text>
</g>
<g class="stroked-text"><desc>INT</desc>
<path d="M15319042 11485892 L15405402 11485892 "/>
<path d="M15319042 11444768 L15405402 11444768 L15319042 11395419 L15405402 11395419 "/>
<path d="M15405402 11366633 L15405402 11317284 "/>
<path d="M15319042 11341958 L15405402 11341958 "/>
</g><g transform="rotate(90.000000 14850110.000000 11516360.000000)">
<text x="14850110.000000" y="11559540.000000" transform="scale(-1 1) translate(-29700220.000000 0)" textLength="222818.500000" font-size="115146.600000" lengthAdjust="spacingAndGlyphs" text-anchor="start" opacity="0">SDA</text>
</g>
<g class="stroked-text"><desc>SDA</desc>
<path d="M14815154 11490004 L14811042 11477667 L14811042 11457105 L14815154 11448880 L14819267 11444768 L14827491 11440655 L14835716 11440655 L14843941 11444768 L14848053 11448880 L14852166 11457105 L14856278 11473554 L14860390 11481779 L14864503 11485892 L14872728 11490004 L14880952 11490004 L14889177 11485892 L14893290 11481779 L14897402 11473554 L14897402 11452993 L14893290 11440655 "/>
<path d="M14811042 11403644 L14897402 11403644 L14897402 11383082 L14893290 11370745 L14885065 11362520 L14876840 11358408 L14860390 11354295 L14848053 11354295 L14831604 11358408 L14823379 11362520 L14815154 11370745 L14811042 11383082 L14811042 11403644 "/>
<path d="M14835716 11321396 L14835716 11280273 "/>
<path d="M14811042 11329621 L14897402 11300834 L14811042 11272048 "/>
</g></g>
<g style="fill-opacity: 0.0;stroke-width: 19050.000000;stroke-opacity: 1;stroke-linecap: round;stroke-linejoin: round">
<text x="14837410.000000" y="9934035.300000" transform="scale(-1 1) translate(-29674820.000000 0)" textLength="591904.700000" font-size="143933.300000" lengthAdjust="spacingAndGlyphs" text-anchor="middle" opacity="0">GridEYE</text>
<g class="stroked-text"><desc>GridEYE</desc>
<path d="M15061020 9826085 L15071301 9820944 L15086723 9820944 L15102144 9826085 L15112425 9836366 L15117565 9846647 L15122706 9867209 L15122706 9882630 L15117565 9903192 L15112425 9913473 L15102144 9923754 L15086723 9928894 L15076442 9928894 L15061020 9923754 L15055880 9918613 L15055880 9882630 L15076442 9882630 "/>
<path d="M15009615 9928894 L15009615 9856928 "/>
<path d="M15009615 9877490 L15004475 9867209 L14999335 9862068 L14989054 9856928 L14978773 9856928 "/>
<path d="M14942789 9928894 L14942789 9856928 "/>
<path d="M14942789 9820944 L14947930 9826085 L14942789 9831225 L14937649 9826085 L14942789 9820944 L14942789 9831225 "/>
<path d="M14845120 9928894 L14845120 9820944 "/>
<path d="M14845120 9923754 L14855401 9928894 L14875963 9928894 L14886244 9923754 L14891385 9918613 L14896525 9908332 L14896525 9877490 L14891385 9867209 L14886244 9862068 L14875963 9856928 L14855401 9856928 L14845120 9862068 "/>
<path d="M14793715 9872349 L14757732 9872349 "/>
<path d="M14742311 9928894 L14793715 9928894 L14793715 9820944 L14742311 9820944 "/>
<path d="M14675485 9877490 L14675485 9928894 "/>
<path d="M14711468 9820944 L14675485 9877490 L14639501 9820944 "/>
<path d="M14603518 9872349 L14567535 9872349 "/>
<path d="M14552113 9928894 L14603518 9928894 L14603518 9820944 L14552113 9820944 "/>
</g><text x="14837410.000000" y="10107834.800000" transform="scale(-1 1) translate(-29674820.000000 0)" textLength="998189.800000" font-size="143933.300000" lengthAdjust="spacingAndGlyphs" text-anchor="middle" opacity="0">8x8 IR Array</text>
<g class="stroked-text"><desc>8x8 IR Array</desc>
<path d="M15307763 10041008 L15318044 10035868 L15323185 10030727 L15328325 10020446 L15328325 10015306 L15323185 10005025 L15318044 9999884 L15307763 9994744 L15287201 9994744 L15276920 9999884 L15271780 10005025 L15266639 10015306 L15266639 10020446 L15271780 10030727 L15276920 10035868 L15287201 10041008 L15307763 10041008 L15318044 10046149 L15323185 10051289 L15328325 10061570 L15328325 10082132 L15323185 10092413 L15318044 10097553 L15307763 10102694 L15287201 10102694 L15276920 10097553 L15271780 10092413 L15266639 10082132 L15266639 10061570 L15271780 10051289 L15276920 10046149 L15287201 10041008 "/>
<path d="M15230656 10102694 L15174111 10030727 "/>
<path d="M15230656 10030727 L15174111 10102694 "/>
<path d="M15117565 10041008 L15127846 10035868 L15132987 10030727 L15138127 10020446 L15138127 10015306 L15132987 10005025 L15127846 9999884 L15117565 9994744 L15097004 9994744 L15086723 9999884 L15081582 10005025 L15076442 10015306 L15076442 10020446 L15081582 10030727 L15086723 10035868 L15097004 10041008 L15117565 10041008 L15127846 10046149 L15132987 10051289 L15138127 10061570 L15138127 10082132 L15132987 10092413 L15127846 10097553 L15117565 10102694 L15097004 10102694 L15086723 10097553 L15081582 10092413 L15076442 10082132 L15076442 10061570 L15081582 10051289 L15086723 10046149 L15097004 10041008 "/>
<path d="M14947930 10102694 L14947930 9994744 "/>
<path d="M14834839 10102694 L14870823 10051289 "/>
<path d="M14896525 10102694 L14896525 9994744 L14855401 9994744 L14845120 9999884 L14839980 10005025 L14834839 10015306 L14834839 10030727 L14839980 10041008 L14845120 10046149 L14855401 10051289 L14896525 10051289 "/>
<path d="M14711468 10071851 L14660063 10071851 "/>
<path d="M14721749 10102694 L14685765 9994744 L14649782 10102694 "/>
<path d="M14613799 10102694 L14613799 10030727 "/>
<path d="M14613799 10051289 L14608658 10041008 L14603518 10035868 L14593237 10030727 L14582956 10030727 "/>
<path d="M14546973 10102694 L14546973 10030727 "/>
<path d="M14546973 10051289 L14541832 10041008 L14536692 10035868 L14526411 10030727 L14516130 10030727 "/>
<path d="M14433882 10102694 L14433882 10046149 L14439023 10035868 L14449304 10030727 L14469865 10030727 L14480146 10035868 "/>
<path d="M14433882 10097553 L14444163 10102694 L14469865 10102694 L14480146 10097553 L14485287 10087272 L14485287 10076991 L14480146 10066710 L14469865 10061570 L14444163 10061570 L14433882 10056430 "/>
<path d="M14392758 10030727 L14367056 10102694 "/>
<path d="M14341354 10030727 L14367056 10102694 L14377337 10128396 L14382477 10133537 L14392758 10138677 "/>
</g></g>
<g style="fill-opacity: 0.0;stroke-width: 3251.200000;stroke-opacity: 1;stroke-linecap: round;stroke-linejoin: round">
<text x="15829910.000000" y="11172748.800000" transform="scale(-1 1) translate(-31659820.000000 0)" textLength="74938.500000" font-size="49851.700000" lengthAdjust="spacingAndGlyphs" text-anchor="end" opacity="0">SJ1</text>
<g class="stroked-text"><desc>SJ1</desc>
<path d="M15924605 11169187 L15919263 11170968 L15910361 11170968 L15906800 11169187 L15905020 11167407 L15903240 11163846 L15903240 11160285 L15905020 11156725 L15906800 11154944 L15910361 11153164 L15917483 11151383 L15921044 11149603 L15922824 11147822 L15924605 11144262 L15924605 11140701 L15922824 11137140 L15921044 11135360 L15917483 11133579 L15908581 11133579 L15903240 11135360 "/>
<path d="M15876533 11133579 L15876533 11160285 L15878314 11165627 L15881875 11169187 L15887216 11170968 L15890777 11170968 "/>
<path d="M15839144 11170968 L15860509 11170968 "/>
<path d="M15849827 11170968 L15849827 11133579 L15853388 11138920 L15856949 11142481 L15860509 11144262 "/>
</g></g>
<g style="fill-opacity: 0.0;stroke-width: 20320.000000;stroke-opacity: 1;stroke-linecap: round;stroke-linejoin: round">
<path d="M15659110 11362360 L15819110 11362360 "/>
<path d="M15819110 11162360 L15659110 11162360 "/>
<path d="M15839109.906231 11192359.981246 A25495.100000 25495.100000 0.0 0 0 15819109.996631 11162360.016846"/>
<path d="M15819110.016243 11362360.081212 A25495.200000 25495.200000 0.0 0 0 15839110.004289 11332359.999142"/>
<path d="M15639109.997615 11332359.999523 A25495.100000 25495.100000 0.0 0 0 15659109.999523 11362360.002385"/>
<path d="M15659109.999523 11162359.997615 A25495.100000 25495.100000 0.0 0 0 15639109.997615 11192360.000477"/>
</g>
<g style="fill-opacity: 1.0;stroke-width: 0.100000;stroke-opacity: 1;stroke-linecap: round;stroke-linejoin: round">
<path style="fill-opacity: 1.0;stroke-width: 0.100000;stroke-opacity: 1;stroke-linecap: round;stroke-linejoin: round;fill-rule: evenodd" d="M 15349024.400000,9548417.400000 15359557.500000,9550524.100000 15370433.400000,9555962.000000 15377997.200000,9562445.200000 15385605.800000,9571140.800000 15390059.400000,9582274.900000 15391137.600000,9595212.700000 15390034.300000,9605141.900000 15386674.100000,9612982.400000 15382057.400000,9619907.400000 15375314.200000,9624402.900000 15368011.100000,9628576.100000 15360730.100000,9631696.600000 15352397.500000,9634821.300000 15343096.900000,9636888.100000 15333145.700000,9638878.300000 15317376.500000,9642820.600000 15311911.300000,9644642.300000 15307439.200000,9647325.600000 15304315.600000,9649668.300000 15302904.700000,9652490.100000 15302237.200000,9655160.000000 15303750.200000,9661212.000000 15305812.800000,9663274.600000 15309321.000000,9665905.800000 15312640.100000,9667565.300000 15315778.900000,9668350.000000 15319779.000000,9668350.000000 15323465.100000,9669271.500000 15328624.800000,9668411.600000 15333623.000000,9667411.900000 15338767.300000,9666554.500000 15345588.600000,9661438.600000 15347959.600000,9658277.100000 15349500.000000,9654426.200000 15349500.000000,9645350.000000 15394751.000000,9645350.000000 15392009.400000,9663170.200000 15387647.700000,9674074.500000 15380093.500000,9683787.100000 15371451.100000,9691349.200000 15360676.400000,9696736.500000 15349126.500000,9699886.500000 15336782.200000,9701943.900000 15324310.000000,9702983.200000 15311837.800000,9701943.900000 15299493.500000,9699886.500000 15287943.600000,9696736.500000 15277168.900000,9691349.200000 15268501.100000,9683764.900000 15261922.700000,9674993.600000 15257601.300000,9663109.800000 15255467.600000,9649240.700000 15256585.700000,9639178.100000 15259945.900000,9631337.600000 15264446.400000,9624586.800000 15271128.500000,9619018.400000 15278419.700000,9614852.000000 15285920.500000,9610565.800000 15295436.700000,9608451.100000 15319609.100000,9602408.000000 15327463.100000,9601426.200000 15332848.100000,9599631.200000 15338299.000000,9596905.800000 15341588.600000,9594438.600000 15343800.400000,9591489.400000 15344500.000000,9588691.100000 15344500.000000,9586313.500000 15341865.000000,9582361.100000 15340243.500000,9581820.600000 15336244.000000,9580820.800000 15333691.700000,9579970.000000 15318043.800000,9579970.000000 15313872.500000,9581638.500000 15310225.700000,9583461.900000 15308057.400000,9584907.400000 15306700.200000,9586943.300000 15304977.400000,9591250.300000 15303433.500000,9598970.000000 15258812.400000,9598970.000000 15261646.000000,9581968.500000 15267055.900000,9571148.800000 15273588.600000,9562438.600000 15282368.800000,9555853.400000 15291983.600000,9551580.200000 15302419.100000,9548449.500000 15313966.500000,9546350.000000 15337653.500000,9546350.000000 Z"/> 
<path style="fill-opacity: 1.0;stroke-width: 0.100000;stroke-opacity: 1;stroke-linecap: round;stroke-linejoin: round;fill-rule: evenodd" d="M 15023789.700000,9608379.900000 15032730.700000,9609373.300000 15046622.600000,9610916.800000 15035935.700000,9638970.000000 15030410.600000,9638970.000000 15028410.500000,9637970.000000 15024691.700000,9637970.000000 15021691.700000,9636970.000000 15017691.700000,9636970.000000 15014691.700000,9635970.000000 15012410.600000,9635970.000000 15006872.500000,9633201.000000 15013447.200000,9606902.300000 Z"/> 
<path style="fill-opacity: 1.0;stroke-width: 0.100000;stroke-opacity: 1;stroke-linecap: round;stroke-linejoin: round;fill-rule: evenodd" d="M 14832120.000000,9518884.300000 14832120.000000,9698970.000000 14785500.000000,9698970.000000 14785500.000000,9647815.600000 14775105.200000,9638113.800000 14737432.400000,9698970.000000 14681256.600000,9698970.000000 14742408.100000,9605688.100000 14684986.500000,9549350.000000 14741933.000000,9549350.000000 14785500.000000,9594695.300000 14785500.000000,9493781.200000 Z"/> 
<path style="fill-opacity: 1.0;stroke-width: 0.100000;stroke-opacity: 1;stroke-linecap: round;stroke-linejoin: round;fill-rule: evenodd" d="M 15177936.400000,9547401.800000 15184649.900000,9548520.800000 15190270.200000,9551893.000000 15195490.000000,9555024.800000 15200854.900000,9559316.700000 15202500.000000,9560961.800000 15202500.000000,9548512.500000 15212057.200000,9550424.000000 15217146.100000,9551441.800000 15221145.700000,9552441.700000 15226146.100000,9553441.800000 15229778.900000,9554350.000000 15234687.300000,9554350.000000 15240146.100000,9555441.800000 15247120.000000,9557185.200000 15247120.000000,9746991.200000 15240855.100000,9752003.100000 15231854.900000,9761003.300000 15226690.100000,9765135.100000 15216855.100000,9773003.100000 15201500.000000,9788358.200000 15201500.000000,9686771.500000 15198857.400000,9690074.800000 15193270.200000,9693427.000000 15188144.800000,9696502.300000 15181501.500000,9699824.000000 15174936.400000,9700918.200000 15168936.400000,9701918.200000 15162372.800000,9703012.100000 15146448.100000,9700888.800000 15133545.900000,9696588.000000 15121827.300000,9688065.500000 15112228.000000,9678466.100000 15104028.900000,9663434.500000 15145257.700000,9644032.600000 15149608.100000,9654183.600000 15153044.800000,9658479.500000 15158079.600000,9662675.200000 15165010.400000,9664407.900000 15172336.400000,9665323.600000 15180571.100000,9664408.700000 15186489.300000,9662717.700000 15191737.700000,9658344.100000 15196097.200000,9653984.600000 15198687.800000,9647939.900000 15202500.000000,9632691.100000 15202500.000000,9616397.400000 15201585.000000,9609077.600000 15198773.100000,9601579.100000 15196027.200000,9595172.000000 15191629.500000,9589894.800000 15187403.900000,9586514.300000 15180392.400000,9583885.000000 15173283.600000,9582996.400000 15165291.700000,9583884.400000 15159132.500000,9586524.000000 15153883.100000,9590023.600000 15149592.800000,9595172.000000 15146846.900000,9601579.100000 15144035.000000,9609077.600000 15143120.000000,9616397.400000 15143120.000000,9628873.600000 15096230.500000,9630075.900000 15097526.800000,9610631.400000 15100619.500000,9596198.800000 15104819.700000,9582548.200000 15112265.900000,9570847.000000 15121825.900000,9560224.800000 15133625.500000,9552715.900000 15148527.700000,9547393.700000 15164183.100000,9546350.000000 15171625.300000,9546350.000000 Z"/> 
<path style="fill-opacity: 1.0;stroke-width: 0.100000;stroke-opacity: 1;stroke-linecap: round;stroke-linejoin: round;fill-rule: evenodd" d="M 14498120.000000,9637922.600000 14499023.900000,9645153.900000 14501767.200000,9651554.900000 14504441.300000,9656903.100000 14507672.700000,9660134.500000 14511649.700000,9662520.700000 14516860.200000,9663389.100000 14524231.400000,9664310.500000 14529624.800000,9663411.600000 14533915.800000,9662553.400000 14537709.700000,9660277.100000 14542704.500000,9653617.300000 14543539.100000,9648609.800000 14545500.000000,9632922.600000 14545500.000000,9549350.000000 14591120.000000,9549350.000000 14591120.000000,9653503.500000 14589020.500000,9665050.900000 14585840.800000,9675649.800000 14580308.500000,9685607.900000 14572497.000000,9692303.500000 14562896.100000,9697637.300000 14551112.100000,9701922.400000 14536130.000000,9702992.600000 14529725.000000,9701925.100000 14522431.100000,9700883.100000 14515999.000000,9698739.100000 14510747.900000,9696638.600000 14504245.100000,9693387.300000 14498599.300000,9688870.700000 14496120.000000,9685771.500000 14496120.000000,9698970.000000 14451500.000000,9698970.000000 14451500.000000,9549350.000000 14498120.000000,9549350.000000 Z"/> 
<path style="fill-opacity: 1.0;stroke-width: 0.100000;stroke-opacity: 1;stroke-linecap: round;stroke-linejoin: round;fill-rule: evenodd" d="M 14639719.800000,9499605.200000 14648281.300000,9503885.900000 14655923.200000,9509344.500000 14661592.900000,9516148.100000 14664846.600000,9523739.900000 14668120.000000,9532469.100000 14668120.000000,9549350.000000 14678215.000000,9549350.000000 14682031.400000,9554438.600000 14685812.600000,9557274.500000 14689004.100000,9560465.900000 14701812.800000,9573274.600000 14714740.000000,9582970.000000 14668120.000000,9582970.000000 14668120.000000,9698970.000000 14622500.000000,9698970.000000 14622500.000000,9582970.000000 14595500.000000,9582970.000000 14595500.000000,9549350.000000 14622500.000000,9549350.000000 14622500.000000,9545628.900000 14621500.000000,9541629.000000 14621500.000000,9538059.500000 14621008.100000,9537075.700000 14619701.200000,9535115.400000 14616979.900000,9533754.700000 14613841.100000,9532970.000000 14593500.000000,9532970.000000 14593500.000000,9498805.300000 14598410.600000,9496350.000000 14628869.200000,9496350.000000 Z"/> 
<path style="fill-opacity: 1.0;stroke-width: 0.100000;stroke-opacity: 1;stroke-linecap: round;stroke-linejoin: round;fill-rule: evenodd" d="M 15035995.200000,9547411.600000 15042231.200000,9548451.000000 15048289.900000,9550470.500000 15053400.200000,9551492.600000 15059008.400000,9553735.900000 15064270.200000,9556893.000000 15069438.800000,9559994.100000 15074031.400000,9563438.600000 15077475.900000,9568031.200000 15080475.600000,9573030.800000 15083729.000000,9577368.600000 15086019.000000,9584238.800000 15087068.200000,9590533.600000 15088807.600000,9600970.000000 15041500.000000,9600970.000000 15041500.000000,9593059.500000 15040781.100000,9591621.700000 15039781.200000,9588621.900000 15039178.700000,9587416.900000 15036053.100000,9584291.300000 15027410.500000,9579970.000000 15011209.500000,9579970.000000 15009209.400000,9580970.000000 15007209.500000,9580970.000000 15003149.800000,9582999.800000 15002441.300000,9584416.900000 15001441.300000,9585416.900000 14999120.000000,9590059.500000 14999120.000000,9598890.000000 15000910.300000,9601277.100000 15004911.300000,9603677.700000 15010436.500000,9605519.400000 15020900.000000,9608509.000000 15014284.800000,9634970.000000 15006410.600000,9634970.000000 15004410.500000,9633970.000000 15002410.600000,9633970.000000 14999606.100000,9632567.800000 14999120.000000,9632324.700000 14999120.000000,9648541.700000 14999838.800000,9650698.100000 15000838.900000,9652698.300000 15001924.500000,9655955.200000 15002640.100000,9658101.900000 15004270.800000,9659732.700000 15006270.700000,9662732.500000 15007737.500000,9664199.300000 15009874.300000,9665623.900000 15013639.800000,9666565.200000 15017209.500000,9668350.000000 15021687.300000,9668350.000000 15026687.200000,9669350.000000 15030410.500000,9669350.000000 15032410.600000,9668350.000000 15034410.500000,9668350.000000 15036410.600000,9667350.000000 15038410.500000,9667350.000000 15041053.100000,9666028.700000 15042053.100000,9665028.700000 15043470.200000,9664320.200000 15044178.700000,9662903.100000 15045178.700000,9661903.100000 15045500.000000,9661260.500000 15045500.000000,9659541.700000 15046500.000000,9656541.700000 15046500.000000,9653059.500000 15045500.000000,9651059.400000 15045500.000000,9649059.500000 15043470.200000,9644999.800000 15042053.100000,9644291.300000 15041053.100000,9643291.300000 15037053.100000,9641291.300000 15036053.100000,9640291.300000 15034848.100000,9639688.800000 15028334.700000,9637517.700000 15038799.500000,9610047.600000 15050985.400000,9611401.600000 15059444.600000,9613516.400000 15067934.500000,9616700.100000 15075514.600000,9621031.600000 15083290.600000,9627696.700000 15087805.200000,9635597.300000 15091010.100000,9645212.000000 15093188.600000,9657194.000000 15092120.000000,9662537.200000 15092120.000000,9668059.400000 15089945.900000,9672407.700000 15088898.200000,9677646.300000 15086421.500000,9681361.400000 15083421.300000,9685361.600000 15081270.800000,9688587.300000 15077566.900000,9692291.300000 15073225.700000,9694461.900000 15070226.000000,9696461.700000 15065872.100000,9698638.600000 15060484.900000,9700793.500000 15055779.000000,9701970.000000 15050687.200000,9701970.000000 15045687.300000,9702970.000000 15033691.700000,9702970.000000 15030691.700000,9701970.000000 15026691.700000,9701970.000000 15023691.700000,9700970.000000 15020691.700000,9700970.000000 15011105.200000,9697774.500000 15007621.100000,9696613.100000 15004621.200000,9694613.200000 15001621.100000,9693613.100000 14997882.700000,9691120.800000 14996310.000000,9689548.200000 14996120.000000,9689738.200000 14996120.000000,9692738.200000 14995120.000000,9693738.200000 14995120.000000,9694738.200000 14994120.000000,9695738.200000 14994120.000000,9698970.000000 14947500.000000,9698970.000000 14947500.000000,9692581.800000 14949178.700000,9690903.100000 14949500.000000,9690260.500000 14949500.000000,9687260.600000 14950500.000000,9685260.500000 14950500.000000,9683260.600000 14951500.000000,9681260.500000 14951500.000000,9672260.600000 14952500.000000,9670260.500000 14952500.000000,9583782.700000 14953642.600000,9578069.800000 14955831.400000,9572597.900000 14958055.900000,9568148.800000 14961588.600000,9563438.600000 14966024.000000,9560112.000000 14970024.000000,9557112.000000 14974427.100000,9553809.700000 14980219.800000,9551492.600000 14985219.700000,9550492.600000 14990219.800000,9548492.600000 14995932.700000,9547350.000000 15001932.800000,9547350.000000 15006932.700000,9546350.000000 15030687.300000,9546350.000000 Z"/> 
<path style="fill-opacity: 1.0;stroke-width: 0.100000;stroke-opacity: 1;stroke-linecap: round;stroke-linejoin: round;fill-rule: evenodd" d="M 14867436.300000,9548519.300000 14873872.700000,9550664.800000 14881458.200000,9554999.400000 14886990.600000,9559425.300000 14892261.300000,9565750.200000 14893500.000000,9567298.600000 14893500.000000,9548280.200000 14902145.700000,9550441.700000 14907057.200000,9551424.000000 14912146.100000,9552441.800000 14916145.700000,9553441.700000 14920687.200000,9554350.000000 14925779.000000,9554350.000000 14930145.700000,9555441.700000 14938120.000000,9557036.500000 14938120.000000,9698970.000000 14891500.000000,9698970.000000 14891500.000000,9622578.300000 14889615.200000,9614097.000000 14887773.300000,9607650.000000 14884168.300000,9601341.400000 14879823.100000,9596127.100000 14873875.900000,9592728.700000 14866655.200000,9590923.500000 14857119.900000,9589970.000000 14847209.500000,9589970.000000 14845209.400000,9590970.000000 14839500.000000,9590970.000000 14839500.000000,9547350.000000 14842731.800000,9547350.000000 14843731.800000,9546350.000000 14859843.600000,9546350.000000 Z"/> 
<path style="fill-opacity: 1.0;stroke-width: 0.100000;stroke-opacity: 1;stroke-linecap: round;stroke-linejoin: round;fill-rule: evenodd" d="M 14366231.200000,9547451.000000 14372514.800000,9549545.500000 14378998.900000,9551706.900000 14385561.000000,9556081.600000 14390854.900000,9560316.700000 14393500.000000,9562961.900000 14393500.000000,9549350.000000 14438120.000000,9549350.000000 14438120.000000,9698970.000000 14391500.000000,9698970.000000 14391500.000000,9611371.000000 14390585.600000,9603141.700000 14387909.900000,9596898.400000 14385175.100000,9592340.300000 14381762.500000,9588074.600000 14377970.300000,9585799.300000 14372759.800000,9584930.900000 14365388.600000,9584009.500000 14359995.200000,9584908.400000 14355704.200000,9585766.600000 14351910.300000,9588042.900000 14349475.600000,9591289.200000 14346949.300000,9595499.700000 14346075.100000,9600745.000000 14345086.700000,9607663.800000 14344120.000000,9615397.400000 14344120.000000,9698970.000000 14297500.000000,9698970.000000 14297500.000000,9608013.700000 14298526.300000,9594671.800000 14300599.500000,9583269.100000 14303807.800000,9572574.800000 14309309.100000,9563772.700000 14316993.200000,9556088.600000 14326862.700000,9550605.600000 14338666.900000,9547386.200000 14353174.100000,9546350.000000 14359625.300000,9546350.000000 Z"/> 
<path style="fill-opacity: 1.0;stroke-width: 0.100000;stroke-opacity: 1;stroke-linecap: round;stroke-linejoin: round;fill-rule: evenodd" d="M 15143120.000000,9632922.600000 15144035.000000,9640242.400000 15148110.900000,9651111.500000 15107326.000000,9670304.400000 15100669.700000,9654329.300000 15097530.800000,9640727.500000 15096225.500000,9622453.500000 15143120.000000,9621251.100000 Z"/> 
<path style="fill-opacity: 1.0;stroke-width: 0.100000;stroke-opacity: 1;stroke-linecap: round;stroke-linejoin: round;fill-rule: evenodd" d="M 14670595.500000,9268521.300000 14682516.200000,9275023.500000 14692161.400000,9283596.900000 14697743.300000,9291411.700000 14701120.000000,9301541.700000 14701120.000000,9310578.200000 14698909.200000,9320526.600000 14693443.900000,9330364.200000 14686167.500000,9338680.100000 14678169.600000,9347677.700000 14671574.300000,9355215.200000 14669120.000000,9360941.900000 14669120.000000,9366541.700000 14670709.600000,9371310.500000 14673915.600000,9375318.000000 14678874.300000,9378623.900000 14685778.900000,9380350.000000 14692932.800000,9380350.000000 14697219.700000,9379492.600000 14701526.700000,9377769.800000 14703882.500000,9376199.300000 14706178.700000,9373903.100000 14707781.200000,9370698.100000 14708500.000000,9368541.700000 14708500.000000,9366778.300000 14707856.800000,9364848.800000 14706349.300000,9362587.500000 14703251.900000,9359490.100000 14700848.300000,9358688.900000 14696053.100000,9356291.300000 14690878.100000,9351116.200000 14698410.600000,9347350.000000 14700841.100000,9347350.000000 14704841.000000,9346350.000000 14713625.300000,9346350.000000 14720342.600000,9347469.500000 14725725.000000,9349622.500000 14731192.900000,9351809.700000 14735439.200000,9354994.400000 14741087.000000,9358383.000000 14744652.300000,9364325.200000 14747838.900000,9370698.300000 14750052.100000,9377338.100000 14751096.700000,9386739.300000 14752120.000000,9395949.000000 14752120.000000,9527970.000000 14745270.900000,9527970.000000 14742349.300000,9523587.500000 14739424.500000,9520662.600000 14736424.600000,9516662.800000 14731493.700000,9511731.900000 14726494.100000,9505732.300000 14720393.000000,9499631.100000 14715393.200000,9492631.400000 14702493.700000,9479731.900000 14697629.500000,9473894.800000 14688129.700000,9466294.900000 14683970.300000,9463799.300000 14678994.400000,9462970.000000 14659994.700000,9462970.000000 14647493.500000,9460886.500000 14636097.300000,9457778.400000 14625611.600000,9453584.100000 14615057.600000,9447251.700000 14606705.600000,9439943.800000 14598448.200000,9431686.300000 14591122.200000,9422267.200000 14580760.000000,9403615.200000 14575528.700000,9384782.700000 14574480.300000,9365911.000000 14577620.700000,9349162.000000 14582840.900000,9334545.600000 14590210.200000,9321912.400000 14598949.800000,9312080.400000 14613120.000000,9304995.300000 14613120.000000,9318541.700000 14614511.100000,9322715.000000 14615998.800000,9323706.800000 14617928.300000,9324350.000000 14623410.500000,9324350.000000 14630394.300000,9320858.100000 14633108.400000,9319048.700000 14637108.600000,9316048.500000 14639882.500000,9314199.300000 14642178.700000,9311903.100000 14644008.300000,9308244.000000 14645773.800000,9305595.700000 14646649.200000,9302094.000000 14647293.900000,9300160.000000 14646781.200000,9298621.900000 14645781.100000,9296621.700000 14644856.800000,9293848.800000 14643501.900000,9291816.500000 14640299.000000,9289414.200000 14637062.300000,9287795.900000 14632473.900000,9286878.200000 14628841.100000,9285970.000000 14626928.300000,9285970.000000 14623928.300000,9286970.000000 14611111.800000,9286970.000000 14618807.400000,9279274.500000 14623298.800000,9275905.900000 14629785.000000,9272662.800000 14638038.300000,9269567.800000 14647691.700000,9266350.000000 14658653.500000,9266350.000000 Z"/> 
<path style="fill-opacity: 1.0;stroke-width: 0.100000;stroke-opacity: 1;stroke-linecap: round;stroke-linejoin: round;fill-rule: evenodd" d="M 13859776.600000,11299538.000000 13860347.000000,11299823.200000 13863024.000000,11299823.200000 13864024.000000,11300823.200000 13865347.100000,11300823.200000 13867347.000000,11301823.200000 13868347.100000,11301823.200000 13871701.000000,11303500.200000 13872024.000000,11303823.200000 13874024.000000,11303823.200000 13875701.000000,11305500.200000 13877701.000000,11306500.200000 13878024.000000,11306823.200000 13880024.000000,11306823.200000 13881306.700000,11308105.900000 13910898.600000,11287697.800000 13937375.400000,11314174.600000 13917250.000000,11343356.500000 13917250.000000,11345049.200000 13917573.000000,11345372.200000 13918573.000000,11347372.200000 13920250.000000,11349049.200000 13920250.000000,11351049.200000 13920573.000000,11351372.200000 13922250.000000,11354726.100000 13922250.000000,11355726.200000 13924250.000000,11359726.100000 13924250.000000,11360726.200000 13925250.000000,11362726.100000 13925250.000000,11363726.200000 13926082.100000,11365390.400000 13961250.000000,11371419.200000 13961250.000000,11409827.100000 13925535.200000,11415949.700000 13925250.000000,11416520.100000 13925250.000000,11419197.100000 13924250.000000,11420197.100000 13924250.000000,11422197.100000 13922573.000000,11423874.100000 13922250.000000,11424520.100000 13922250.000000,11427197.100000 13921250.000000,11428197.100000 13921250.000000,11430197.100000 13919573.000000,11431874.100000 13918573.000000,11433874.100000 13917573.000000,11434874.100000 13917250.000000,11435520.100000 13917250.000000,11436520.200000 13916872.000000,11437276.100000 13937371.500000,11465975.400000 13910958.000000,11493589.500000 13881306.700000,11473140.400000 13881024.000000,11473423.100000 13880024.000000,11473423.100000 13879024.000000,11474423.100000 13878024.000000,11474423.100000 13877024.000000,11475423.100000 13876024.000000,11475423.100000 13875024.000000,11476423.100000 13874024.000000,11476423.100000 13873024.000000,11477423.100000 13872024.000000,11477423.100000 13871024.000000,11478423.100000 13869024.000000,11478423.100000 13864945.400000,11482501.700000 13841522.500000,11419260.000000 13847992.400000,11417103.400000 13851199.000000,11415500.100000 13853199.000000,11413500.100000 13855199.000000,11412500.100000 13856327.000000,11411372.100000 13857327.000000,11409372.100000 13859327.000000,11407372.100000 13860930.300000,11404165.500000 13861930.400000,11401165.200000 13863650.000000,11397726.100000 13863650.000000,11395006.400000 13864650.000000,11392006.400000 13864650.000000,11387239.900000 13861005.900000,11376307.700000 13857496.800000,11371044.000000 13856029.200000,11369576.400000 13853029.100000,11367576.300000 13851029.200000,11365576.400000 13848765.500000,11364067.300000 13845765.600000,11363067.300000 13843299.400000,11361423.200000 13840982.200000,11361423.200000 13836982.400000,11360423.200000 13831066.700000,11360423.200000 13828066.700000,11361423.200000 13825600.600000,11361423.200000 13823134.400000,11363067.300000 13820134.500000,11364067.300000 13814870.800000,11367576.400000 13811403.200000,11371044.000000 13807894.100000,11376307.700000 13806894.100000,11379307.600000 13805250.000000,11381773.800000 13805250.000000,11384239.900000 13804250.000000,11387239.900000 13804250.000000,11395006.400000 13805250.000000,11398006.400000 13805250.000000,11399726.100000 13805969.600000,11401165.200000 13806969.700000,11404165.500000 13807573.000000,11405372.100000 13809573.000000,11407372.100000 13810573.000000,11409372.100000 13813701.000000,11412500.100000 13815701.000000,11413500.100000 13817701.000000,11415500.100000 13826196.800000,11419747.900000 13797650.000000,11496824.200000 13797650.000000,11478197.100000 13796876.000000,11477423.100000 13795876.000000,11477423.100000 13794876.000000,11476423.100000 13793876.000000,11476423.100000 13792876.000000,11475423.100000 13790876.000000,11475423.100000 13789876.000000,11474423.100000 13788876.000000,11474423.100000 13787593.300000,11473140.400000 13758001.400000,11493548.500000 13730432.600000,11465979.700000 13751861.100000,11437408.200000 13751327.000000,11436874.100000 13749650.000000,11433520.200000 13749650.000000,11432520.100000 13749327.000000,11431874.100000 13748327.000000,11430874.100000 13746650.000000,11427520.200000 13746650.000000,11426520.100000 13744650.000000,11422520.200000 13744650.000000,11421520.100000 13743650.000000,11419520.200000 13743650.000000,11418520.100000 13742650.000000,11416520.200000 13742650.000000,11415998.600000 13706650.000000,11409827.100000 13706650.000000,11371404.100000 13742650.000000,11365404.100000 13742650.000000,11363049.200000 13743650.000000,11362049.200000 13743650.000000,11360049.200000 13745327.000000,11358372.200000 13745650.000000,11357726.200000 13745650.000000,11355049.200000 13746650.000000,11354049.200000 13746650.000000,11352049.200000 13748327.000000,11350372.200000 13749327.000000,11348372.200000 13749650.000000,11348049.200000 13749650.000000,11346049.200000 13751327.000000,11344372.200000 13751724.700000,11343576.800000 13730428.600000,11314167.800000 13758059.700000,11287738.000000 13787338.700000,11307930.400000 13789552.900000,11306823.200000 13790553.000000,11306823.200000 13791199.000000,11306500.200000 13792199.000000,11305500.200000 13795552.900000,11303823.200000 13796553.000000,11303823.200000 13797199.000000,11303500.200000 13798876.000000,11301823.200000 13801553.000000,11301823.200000 13803552.900000,11300823.200000 13804553.000000,11300823.200000 13806552.900000,11299823.200000 13807553.000000,11299823.200000 13809217.200000,11298991.100000 13815246.000000,11263823.200000 13853654.000000,11263823.200000 Z"/> 
</g> 
</g><g id="substrate-outline" style="fill:#000000; stroke:#000000; stroke-width: 15000.0"><g style="fill-opacity: 0.0;stroke-opacity: 1;stroke-linecap: round;stroke-linejoin: round">
<path d="M16120110 11770360 L13580110 11770360 "/>
<path d="M16120110 9230360 L16120110 11770360 "/>
<path d="M13580110 11770360 L13580110 9230360 "/>
<path d="M13580110 9230360 L16120110 9230360 "/>
</g> 
<path d="M -50800.0 0.0 A 50800.0 50800.0 0 1 1 50800.0 0.0 L 50800.0 -0.0 A 50800.0 50800.0 0 1 1 -50800.0 -0.0 Z" transform="translate(15358110.0 11643360.0) rotate(-90.0)"/><path d="M -50800.0 0.0 A 50800.0 50800.0 0 1 1 50800.0 0.0 L 50800.0 -0.0 A 50800.0 50800.0 0 1 1 -50800.0 -0.0 Z" transform="translate(14342110.0 11643360.0) rotate(-90.0)"/><path d="M -50800.0 0.0 A 50800.0 50800.0 0 1 1 50800.0 0.0 L 50800.0 -0.0 A 50800.0 50800.0 0 1 1 -50800.0 -0.0 Z" transform="translate(14596110.0 11643360.0) rotate(-90.0)"/><path d="M -50800.0 0.0 A 50800.0 50800.0 0 1 1 50800.0 0.0 L 50800.0 -0.0 A 50800.0 50800.0 0 1 1 -50800.0 -0.0 Z" transform="translate(14850110.0 11643360.0) rotate(-90.0)"/><path d="M -50800.0 0.0 A 50800.0 50800.0 0 1 1 50800.0 0.0 L 50800.0 -0.0 A 50800.0 50800.0 0 1 1 -50800.0 -0.0 Z" transform="translate(15104110.0 11643360.0) rotate(-90.0)"/><path d="M -165100.0 0.0 A 165100.0 165100.0 0 1 1 165100.0 0.0 L 165100.0 -0.0 A 165100.0 165100.0 0 1 1 -165100.0 -0.0 Z" transform="translate(13834110.0 9484360.0) rotate(-0.0)"/><path d="M -165100.0 0.0 A 165100.0 165100.0 0 1 1 165100.0 0.0 L 165100.0 -0.0 A 165100.0 165100.0 0 1 1 -165100.0 -0.0 Z" transform="translate(15866110.0 9484360.0) rotate(-0.0)"/><path d="M -19050.0 0.0 A 19050.0 19050.0 0 1 1 19050.0 0.0 L 19050.0 -0.0 A 19050.0 19050.0 0 1 1 -19050.0 -0.0 Z" transform="translate(15612110.0 9992360.0) rotate(0.0)"/><path d="M -19050.0 0.0 A 19050.0 19050.0 0 1 1 19050.0 0.0 L 19050.0 -0.0 A 19050.0 19050.0 0 1 1 -19050.0 -0.0 Z" transform="translate(15612110.0 11008360.0) rotate(0.0)"/><path d="M -19050.0 0.0 A 19050.0 19050.0 0 1 1 19050.0 0.0 L 19050.0 -0.0 A 19050.0 19050.0 0 1 1 -19050.0 -0.0 Z" transform="translate(14469110.0 9992360.0) rotate(0.0)"/><path d="M -19050.0 0.0 A 19050.0 19050.0 0 1 1 19050.0 0.0 L 19050.0 -0.0 A 19050.0 19050.0 0 1 1 -19050.0 -0.0 Z" transform="translate(14215110.0 9992360.0) rotate(0.0)"/><path d="M -19050.0 0.0 A 19050.0 19050.0 0 1 1 19050.0 0.0 L 19050.0 -0.0 A 19050.0 19050.0 0 1 1 -19050.0 -0.0 Z" transform="translate(15231110.0 11008360.0) rotate(0.0)"/><path d="M -19050.0 0.0 A 19050.0 19050.0 0 1 1 19050.0 0.0 L 19050.0 -0.0 A 19050.0 19050.0 0 1 1 -19050.0 -0.0 Z" transform="translate(14773910.0 11186160.0) rotate(0.0)"/><path d="M -19050.0 0.0 A 19050.0 19050.0 0 1 1 19050.0 0.0 L 19050.0 -0.0 A 19050.0 19050.0 0 1 1 -19050.0 -0.0 Z" transform="translate(14088110.0 10881360.0) rotate(0.0)"/><path d="M -19050.0 0.0 A 19050.0 19050.0 0 1 1 19050.0 0.0 L 19050.0 -0.0 A 19050.0 19050.0 0 1 1 -19050.0 -0.0 Z" transform="translate(14596110.0 10563860.0) rotate(0.0)"/><path d="M -19050.0 0.0 A 19050.0 19050.0 0 1 1 19050.0 0.0 L 19050.0 -0.0 A 19050.0 19050.0 0 1 1 -19050.0 -0.0 Z" transform="translate(15866110.0 10500360.0) rotate(0.0)"/><path d="M -19050.0 0.0 A 19050.0 19050.0 0 1 1 19050.0 0.0 L 19050.0 -0.0 A 19050.0 19050.0 0 1 1 -19050.0 -0.0 Z" transform="translate(13961110.0 10119360.0) rotate(0.0)"/><path d="M -19050.0 0.0 A 19050.0 19050.0 0 1 1 19050.0 0.0 L 19050.0 -0.0 A 19050.0 19050.0 0 1 1 -19050.0 -0.0 Z" transform="translate(15358110.0 11262360.0) rotate(0.0)"/></g></g></g></svg>